<svg xmlns="http://www.w3.org/2000/svg" viewBox="0 0 800 300" width="800" height="300">
<style>
.axis-line { stroke: #6b7280; stroke-width: 0.5; }
.axis-text { font-family: monospace; font-size: 11px; fill: #9ca3af; }
.title-text { font-family: monospace; font-size: 14px; fill: #d1d5db; font-weight: bold; }
.grid-line { stroke: #374151; stroke-width: 0.3; stroke-dasharray: 4 2; }
.path-0 { fill: none; stroke: #3b82f6; stroke-width: 2; stroke-linecap: round; opacity: 0.85; animation: draw-0 8s ease-in-out 0.0s infinite; stroke-dasharray: 1038; stroke-dashoffset: 1038;}
@keyframes draw-0 { 0% { stroke-dashoffset: 1038; } 38% { stroke-dashoffset: 0; } 62% { stroke-dashoffset: 0; } 100% { stroke-dashoffset: 1038; }}
.path-1 { fill: none; stroke: #ef4444; stroke-width: 2; stroke-linecap: round; opacity: 0.85; animation: draw-1 8s ease-in-out 0.4s infinite; stroke-dasharray: 1062; stroke-dashoffset: 1062;}
@keyframes draw-1 { 0% { stroke-dashoffset: 1062; } 38% { stroke-dashoffset: 0; } 62% { stroke-dashoffset: 0; } 100% { stroke-dashoffset: 1062; }}
.path-2 { fill: none; stroke: #22c55e; stroke-width: 2; stroke-linecap: round; opacity: 0.85; animation: draw-2 8s ease-in-out 0.8s infinite; stroke-dasharray: 1051; stroke-dashoffset: 1051;}
@keyframes draw-2 { 0% { stroke-dashoffset: 1051; } 38% { stroke-dashoffset: 0; } 62% { stroke-dashoffset: 0; } 100% { stroke-dashoffset: 1051; }}
.path-3 { fill: none; stroke: #f59e0b; stroke-width: 2; stroke-linecap: round; opacity: 0.85; animation: draw-3 8s ease-in-out 1.2000000000000002s infinite; stroke-dasharray: 1107; stroke-dashoffset: 1107;}
@keyframes draw-3 { 0% { stroke-dashoffset: 1107; } 38% { stroke-dashoffset: 0; } 62% { stroke-dashoffset: 0; } 100% { stroke-dashoffset: 1107; }}
.path-4 { fill: none; stroke: #a855f7; stroke-width: 2; stroke-linecap: round; opacity: 0.85; animation: draw-4 8s ease-in-out 1.6s infinite; stroke-dasharray: 1092; stroke-dashoffset: 1092;}
@keyframes draw-4 { 0% { stroke-dashoffset: 1092; } 38% { stroke-dashoffset: 0; } 62% { stroke-dashoffset: 0; } 100% { stroke-dashoffset: 1092; }}
</style>
<rect width="800" height="300" rx="8" fill="#0d1117" />
<line x1="50" y1="260.0" x2="780" y2="260.0" class="grid-line" />
<text x="44" y="264.0" text-anchor="end" class="axis-text">-2.1</text>
<line x1="50" y1="216.0" x2="780" y2="216.0" class="grid-line" />
<text x="44" y="220.0" text-anchor="end" class="axis-text">-1.3</text>
<line x1="50" y1="172.0" x2="780" y2="172.0" class="grid-line" />
<text x="44" y="176.0" text-anchor="end" class="axis-text">-0.6</text>
<line x1="50" y1="128.0" x2="780" y2="128.0" class="grid-line" />
<text x="44" y="132.0" text-anchor="end" class="axis-text">0.1</text>
<line x1="50" y1="84.0" x2="780" y2="84.0" class="grid-line" />
<text x="44" y="88.0" text-anchor="end" class="axis-text">0.9</text>
<line x1="50" y1="40.0" x2="780" y2="40.0" class="grid-line" />
<text x="44" y="44.0" text-anchor="end" class="axis-text">1.6</text>
<line x1="50.0" y1="40" x2="50.0" y2="260" class="grid-line" />
<line x1="196.0" y1="40" x2="196.0" y2="260" class="grid-line" />
<line x1="342.0" y1="40" x2="342.0" y2="260" class="grid-line" />
<line x1="488.0" y1="40" x2="488.0" y2="260" class="grid-line" />
<line x1="634.0" y1="40" x2="634.0" y2="260" class="grid-line" />
<line x1="780.0" y1="40" x2="780.0" y2="260" class="grid-line" />
<line x1="50" y1="260" x2="780" y2="260" class="axis-line" />
<line x1="50" y1="40" x2="50" y2="260" class="axis-line" />
<text x="400.0" y="295" text-anchor="middle" class="axis-text">t</text>
<text x="12" y="150.0" text-anchor="middle" class="axis-text" transform="rotate(-90 12 150.0)">W(t)</text>
<text x="400.0" y="22" text-anchor="middle" class="title-text">Brownian Motion</text>
<path d="M 50.00 135.69 L 53.65 131.72 L 57.30 132.33 L 60.95 133.26 L 64.60 137.57 L 68.25 138.58 L 71.90 132.22 L 75.55 140.07 L 79.20 142.46 L 82.85 137.23 L 86.50 133.95 L 90.15 139.17 L 93.80 143.31 L 97.45 143.58 L 101.10 136.72 L 104.75 134.35 L 108.40 129.30 L 112.05 133.37 L 115.70 132.28 L 119.35 125.14 L 123.00 123.72 L 126.65 125.94 L 130.30 118.64 L 133.95 121.58 L 137.60 125.75 L 141.25 125.58 L 144.90 127.97 L 148.55 126.88 L 152.20 125.79 L 155.85 125.57 L 159.50 130.71 L 163.15 128.97 L 166.80 132.56 L 170.45 132.71 L 174.10 132.49 L 177.75 134.15 L 181.40 134.16 L 185.05 134.27 L 188.70 139.27 L 192.35 142.37 L 196.00 147.86 L 199.65 141.73 L 203.30 148.84 L 206.95 146.20 L 210.60 146.99 L 214.25 148.24 L 217.90 152.61 L 221.55 152.09 L 225.20 147.48 L 228.85 149.23 L 232.50 150.87 L 236.15 142.70 L 239.80 147.92 L 243.45 146.55 L 247.10 152.37 L 250.75 149.73 L 254.40 151.34 L 258.05 146.10 L 261.70 143.85 L 265.35 138.97 L 269.00 136.40 L 272.65 134.66 L 276.30 133.74 L 279.95 129.48 L 283.60 127.29 L 287.25 133.41 L 290.90 133.56 L 294.55 132.59 L 298.20 134.79 L 301.85 137.34 L 305.50 133.95 L 309.15 138.82 L 312.80 133.59 L 316.45 137.65 L 320.10 137.96 L 323.75 138.18 L 327.40 139.27 L 331.05 137.01 L 334.70 138.13 L 338.35 144.59 L 342.00 147.53 L 345.65 150.16 L 349.30 158.79 L 352.95 151.19 L 356.60 146.68 L 360.25 151.90 L 363.90 154.72 L 367.55 152.83 L 371.20 160.76 L 374.85 157.62 L 378.50 154.50 L 382.15 157.04 L 385.80 159.25 L 389.45 162.01 L 393.10 165.19 L 396.75 167.78 L 400.40 168.19 L 404.05 173.87 L 407.70 176.93 L 411.35 170.98 L 415.00 173.89 L 418.65 173.80 L 422.30 181.03 L 425.95 181.84 L 429.60 181.82 L 433.25 183.12 L 436.90 182.34 L 440.55 178.68 L 444.20 181.32 L 447.85 182.52 L 451.50 182.62 L 455.15 183.63 L 458.80 183.12 L 462.45 184.73 L 466.10 184.72 L 469.75 187.01 L 473.40 189.33 L 477.05 191.30 L 480.70 191.58 L 484.35 191.71 L 488.00 198.84 L 491.65 196.11 L 495.30 201.57 L 498.95 194.64 L 502.60 194.01 L 506.25 196.22 L 509.90 197.46 L 513.55 193.58 L 517.20 191.19 L 520.85 195.61 L 524.50 197.57 L 528.15 200.29 L 531.80 202.18 L 535.45 201.27 L 539.10 199.62 L 542.75 201.91 L 546.40 200.79 L 550.05 200.44 L 553.70 200.29 L 557.35 200.17 L 561.00 206.46 L 564.65 206.97 L 568.30 208.92 L 571.95 204.15 L 575.60 204.92 L 579.25 200.77 L 582.90 206.64 L 586.55 203.88 L 590.20 206.87 L 593.85 206.43 L 597.50 206.44 L 601.15 207.86 L 604.80 198.75 L 608.45 202.60 L 612.10 195.48 L 615.75 203.73 L 619.40 197.55 L 623.05 200.01 L 626.70 204.59 L 630.35 201.49 L 634.00 197.60 L 637.65 202.06 L 641.30 194.80 L 644.95 206.41 L 648.60 197.78 L 652.25 201.78 L 655.90 191.35 L 659.55 186.33 L 663.20 188.30 L 666.85 188.98 L 670.50 186.97 L 674.15 188.43 L 677.80 193.76 L 681.45 191.60 L 685.10 192.14 L 688.75 193.73 L 692.40 192.46 L 696.05 196.42 L 699.70 197.37 L 703.35 200.52 L 707.00 203.04 L 710.65 202.84 L 714.30 203.54 L 717.95 202.16 L 721.60 207.13 L 725.25 208.11 L 728.90 208.95 L 732.55 207.08 L 736.20 213.14 L 739.85 207.29 L 743.50 209.18 L 747.15 203.86 L 750.80 206.90 L 754.45 211.19 L 758.10 215.46 L 761.75 220.39 L 765.40 220.92 L 769.05 231.36 L 772.70 234.62 L 776.35 227.88 L 780.00 231.21" class="path-0" />
<path d="M 50.00 135.69 L 53.65 141.40 L 57.30 143.58 L 60.95 143.98 L 64.60 136.78 L 68.25 138.02 L 71.90 148.69 L 75.55 147.17 L 79.20 149.67 L 82.85 145.01 L 86.50 151.31 L 90.15 158.92 L 93.80 153.01 L 97.45 158.33 L 101.10 151.08 L 104.75 151.66 L 108.40 147.41 L 112.05 144.36 L 115.70 155.15 L 119.35 157.65 L 123.00 152.54 L 126.65 162.17 L 130.30 162.32 L 133.95 168.05 L 137.60 168.30 L 141.25 167.14 L 144.90 164.92 L 148.55 169.23 L 152.20 170.13 L 155.85 163.76 L 159.50 162.92 L 163.15 159.69 L 166.80 163.00 L 170.45 160.88 L 174.10 155.09 L 177.75 154.46 L 181.40 153.95 L 185.05 157.16 L 188.70 155.26 L 192.35 157.62 L 196.00 159.46 L 199.65 164.48 L 203.30 163.11 L 206.95 158.93 L 210.60 152.72 L 214.25 152.04 L 217.90 153.59 L 221.55 158.70 L 225.20 160.52 L 228.85 159.08 L 232.50 157.87 L 236.15 156.72 L 239.80 157.80 L 243.45 161.47 L 247.10 163.59 L 250.75 170.61 L 254.40 175.59 L 258.05 172.96 L 261.70 171.59 L 265.35 170.75 L 269.00 172.06 L 272.65 165.79 L 276.30 157.56 L 279.95 152.71 L 283.60 155.91 L 287.25 159.81 L 290.90 154.63 L 294.55 150.56 L 298.20 153.78 L 301.85 157.20 L 305.50 159.26 L 309.15 162.48 L 312.80 167.76 L 316.45 166.17 L 320.10 159.61 L 323.75 160.26 L 327.40 162.44 L 331.05 157.89 L 334.70 155.24 L 338.35 160.04 L 342.00 156.16 L 345.65 166.18 L 349.30 156.87 L 352.95 165.74 L 356.60 166.68 L 360.25 169.22 L 363.90 167.32 L 367.55 166.78 L 371.20 165.30 L 374.85 164.78 L 378.50 167.41 L 382.15 166.87 L 385.80 163.50 L 389.45 161.94 L 393.10 156.81 L 396.75 157.77 L 400.40 160.64 L 404.05 157.32 L 407.70 155.81 L 411.35 149.07 L 415.00 148.41 L 418.65 148.85 L 422.30 153.22 L 425.95 150.04 L 429.60 149.68 L 433.25 153.98 L 436.90 157.08 L 440.55 155.78 L 444.20 150.44 L 447.85 149.97 L 451.50 147.65 L 455.15 139.91 L 458.80 139.25 L 462.45 140.85 L 466.10 137.75 L 469.75 140.72 L 473.40 139.52 L 477.05 137.25 L 480.70 138.32 L 484.35 138.79 L 488.00 137.16 L 491.65 138.40 L 495.30 136.49 L 498.95 143.36 L 502.60 144.13 L 506.25 146.18 L 509.90 147.55 L 513.55 151.10 L 517.20 152.41 L 520.85 148.79 L 524.50 138.81 L 528.15 141.75 L 531.80 140.90 L 535.45 139.46 L 539.10 145.27 L 542.75 147.46 L 546.40 154.62 L 550.05 143.03 L 553.70 136.85 L 557.35 133.79 L 561.00 140.95 L 564.65 139.27 L 568.30 143.89 L 571.95 144.14 L 575.60 144.29 L 579.25 138.76 L 582.90 139.42 L 586.55 140.97 L 590.20 133.96 L 593.85 136.23 L 597.50 138.92 L 601.15 143.71 L 604.80 142.43 L 608.45 142.37 L 612.10 138.30 L 615.75 140.68 L 619.40 136.37 L 623.05 133.62 L 626.70 135.47 L 630.35 136.50 L 634.00 131.92 L 637.65 135.49 L 641.30 136.87 L 644.95 144.34 L 648.60 146.33 L 652.25 149.31 L 655.90 150.99 L 659.55 154.31 L 663.20 151.23 L 666.85 148.52 L 670.50 147.28 L 674.15 140.75 L 677.80 146.38 L 681.45 148.45 L 685.10 149.84 L 688.75 148.94 L 692.40 149.05 L 696.05 145.23 L 699.70 149.01 L 703.35 150.13 L 707.00 152.56 L 710.65 149.31 L 714.30 149.39 L 717.95 153.04 L 721.60 157.46 L 725.25 161.41 L 728.90 153.68 L 732.55 156.20 L 736.20 159.41 L 739.85 158.13 L 743.50 164.21 L 747.15 157.56 L 750.80 155.79 L 754.45 162.48 L 758.10 167.17 L 761.75 154.92 L 765.40 160.02 L 769.05 161.39 L 772.70 162.09 L 776.35 166.60 L 780.00 168.66" class="path-1" />
<path d="M 50.00 135.69 L 53.65 140.91 L 57.30 135.69 L 60.95 130.18 L 64.60 129.82 L 68.25 131.51 L 71.90 129.72 L 75.55 125.47 L 79.20 123.37 L 82.85 122.66 L 86.50 124.79 L 90.15 129.05 L 93.80 127.07 L 97.45 130.47 L 101.10 138.07 L 104.75 133.56 L 108.40 135.75 L 112.05 129.38 L 115.70 132.74 L 119.35 135.87 L 123.00 135.46 L 126.65 126.98 L 130.30 122.91 L 133.95 125.89 L 137.60 128.27 L 141.25 123.70 L 144.90 123.42 L 148.55 125.84 L 152.20 125.82 L 155.85 119.25 L 159.50 125.28 L 163.15 132.21 L 166.80 128.08 L 170.45 124.73 L 174.10 126.15 L 177.75 126.70 L 181.40 123.91 L 185.05 120.09 L 188.70 115.72 L 192.35 109.58 L 196.00 107.73 L 199.65 108.47 L 203.30 108.18 L 206.95 109.92 L 210.60 108.12 L 214.25 104.18 L 217.90 106.75 L 221.55 102.09 L 225.20 102.79 L 228.85 101.18 L 232.50 100.65 L 236.15 95.27 L 239.80 98.27 L 243.45 102.64 L 247.10 108.73 L 250.75 107.57 L 254.40 102.76 L 258.05 98.24 L 261.70 104.20 L 265.35 106.30 L 269.00 106.85 L 272.65 105.16 L 276.30 106.60 L 279.95 98.96 L 283.60 97.81 L 287.25 106.03 L 290.90 105.87 L 294.55 105.49 L 298.20 108.77 L 301.85 106.04 L 305.50 110.29 L 309.15 111.09 L 312.80 108.94 L 316.45 111.81 L 320.10 115.60 L 323.75 115.88 L 327.40 122.53 L 331.05 117.02 L 334.70 119.09 L 338.35 119.49 L 342.00 124.27 L 345.65 129.50 L 349.30 129.49 L 352.95 130.25 L 356.60 129.83 L 360.25 128.88 L 363.90 119.16 L 367.55 113.78 L 371.20 109.28 L 374.85 112.11 L 378.50 105.13 L 382.15 105.80 L 385.80 109.01 L 389.45 107.94 L 393.10 109.89 L 396.75 107.87 L 400.40 101.20 L 404.05 100.29 L 407.70 111.69 L 411.35 111.48 L 415.00 116.66 L 418.65 120.81 L 422.30 123.02 L 425.95 120.91 L 429.60 118.08 L 433.25 116.12 L 436.90 114.99 L 440.55 118.84 L 444.20 121.70 L 447.85 121.69 L 451.50 117.69 L 455.15 119.25 L 458.80 118.64 L 462.45 124.34 L 466.10 119.67 L 469.75 116.53 L 473.40 116.06 L 477.05 112.20 L 480.70 108.65 L 484.35 113.49 L 488.00 110.34 L 491.65 110.30 L 495.30 111.96 L 498.95 115.59 L 502.60 109.96 L 506.25 109.97 L 509.90 112.52 L 513.55 111.99 L 517.20 106.01 L 520.85 109.55 L 524.50 103.66 L 528.15 106.14 L 531.80 99.00 L 535.45 98.82 L 539.10 91.53 L 542.75 89.85 L 546.40 90.07 L 550.05 88.08 L 553.70 93.18 L 557.35 91.24 L 561.00 94.12 L 564.65 89.72 L 568.30 91.69 L 571.95 100.05 L 575.60 109.75 L 579.25 113.67 L 582.90 113.75 L 586.55 112.03 L 590.20 105.16 L 593.85 99.21 L 597.50 103.33 L 601.15 111.03 L 604.80 109.38 L 608.45 106.07 L 612.10 105.29 L 615.75 99.12 L 619.40 96.19 L 623.05 89.60 L 626.70 91.83 L 630.35 85.21 L 634.00 86.67 L 637.65 84.66 L 641.30 81.02 L 644.95 82.56 L 648.60 82.97 L 652.25 83.76 L 655.90 84.73 L 659.55 87.70 L 663.20 92.95 L 666.85 88.89 L 670.50 83.96 L 674.15 89.45 L 677.80 97.34 L 681.45 96.82 L 685.10 95.58 L 688.75 92.24 L 692.40 92.48 L 696.05 91.34 L 699.70 90.70 L 703.35 89.43 L 707.00 86.72 L 710.65 87.10 L 714.30 89.86 L 717.95 79.24 L 721.60 80.68 L 725.25 85.68 L 728.90 87.46 L 732.55 87.04 L 736.20 80.51 L 739.85 74.20 L 743.50 70.84 L 747.15 70.42 L 750.80 69.07 L 754.45 67.88 L 758.10 65.93 L 761.75 68.17 L 765.40 76.80 L 769.05 75.93 L 772.70 79.11 L 776.35 70.09 L 780.00 65.38" class="path-2" />
<path d="M 50.00 135.69 L 53.65 137.82 L 57.30 136.95 L 60.95 141.81 L 64.60 139.32 L 68.25 138.33 L 71.90 128.54 L 75.55 122.48 L 79.20 117.06 L 82.85 119.34 L 86.50 115.52 L 90.15 121.69 L 93.80 129.55 L 97.45 127.06 L 101.10 130.80 L 104.75 135.77 L 108.40 143.07 L 112.05 146.74 L 115.70 147.30 L 119.35 147.66 L 123.00 143.70 L 126.65 138.79 L 130.30 141.46 L 133.95 148.62 L 137.60 148.17 L 141.25 136.37 L 144.90 138.17 L 148.55 135.92 L 152.20 133.81 L 155.85 133.61 L 159.50 131.01 L 163.15 134.66 L 166.80 132.00 L 170.45 129.83 L 174.10 131.95 L 177.75 124.70 L 181.40 121.66 L 185.05 126.28 L 188.70 127.52 L 192.35 118.78 L 196.00 123.22 L 199.65 126.68 L 203.30 126.87 L 206.95 129.29 L 210.60 126.05 L 214.25 127.56 L 217.90 123.62 L 221.55 119.69 L 225.20 127.23 L 228.85 122.47 L 232.50 122.14 L 236.15 132.18 L 239.80 137.56 L 243.45 137.04 L 247.10 138.71 L 250.75 135.86 L 254.40 130.26 L 258.05 131.20 L 261.70 127.15 L 265.35 125.11 L 269.00 130.14 L 272.65 131.05 L 276.30 136.93 L 279.95 131.90 L 283.60 118.45 L 287.25 114.80 L 290.90 121.69 L 294.55 118.53 L 298.20 125.62 L 301.85 134.18 L 305.50 143.75 L 309.15 146.19 L 312.80 144.66 L 316.45 141.49 L 320.10 144.14 L 323.75 144.28 L 327.40 144.33 L 331.05 145.53 L 334.70 143.42 L 338.35 140.50 L 342.00 143.07 L 345.65 142.49 L 349.30 136.36 L 352.95 139.55 L 356.60 141.42 L 360.25 133.85 L 363.90 136.90 L 367.55 140.93 L 371.20 139.89 L 374.85 138.47 L 378.50 141.35 L 382.15 133.42 L 385.80 133.20 L 389.45 130.26 L 393.10 131.63 L 396.75 132.97 L 400.40 127.46 L 404.05 120.05 L 407.70 119.24 L 411.35 118.80 L 415.00 117.02 L 418.65 116.64 L 422.30 120.99 L 425.95 121.55 L 429.60 118.99 L 433.25 122.99 L 436.90 130.45 L 440.55 127.01 L 444.20 126.31 L 447.85 127.51 L 451.50 130.64 L 455.15 125.13 L 458.80 126.27 L 462.45 132.32 L 466.10 132.63 L 469.75 136.27 L 473.40 132.90 L 477.05 128.68 L 480.70 126.87 L 484.35 131.85 L 488.00 138.52 L 491.65 135.95 L 495.30 139.40 L 498.95 133.08 L 502.60 124.72 L 506.25 122.02 L 509.90 120.59 L 513.55 124.01 L 517.20 125.56 L 520.85 126.65 L 524.50 120.43 L 528.15 126.64 L 531.80 132.08 L 535.45 133.95 L 539.10 137.89 L 542.75 146.59 L 546.40 147.14 L 550.05 151.63 L 553.70 147.16 L 557.35 139.55 L 561.00 149.75 L 564.65 145.13 L 568.30 145.52 L 571.95 140.27 L 575.60 140.86 L 579.25 139.60 L 582.90 132.32 L 586.55 131.87 L 590.20 139.91 L 593.85 138.67 L 597.50 141.67 L 601.15 143.85 L 604.80 140.01 L 608.45 142.73 L 612.10 139.95 L 615.75 142.30 L 619.40 138.34 L 623.05 139.62 L 626.70 141.71 L 630.35 144.97 L 634.00 148.94 L 637.65 146.96 L 641.30 146.37 L 644.95 140.38 L 648.60 132.55 L 652.25 135.91 L 655.90 129.20 L 659.55 127.14 L 663.20 128.62 L 666.85 126.54 L 670.50 123.09 L 674.15 124.86 L 677.80 121.48 L 681.45 126.19 L 685.10 120.66 L 688.75 122.14 L 692.40 127.83 L 696.05 125.73 L 699.70 128.77 L 703.35 131.36 L 707.00 133.52 L 710.65 130.45 L 714.30 137.14 L 717.95 135.91 L 721.60 137.83 L 725.25 142.77 L 728.90 146.24 L 732.55 146.89 L 736.20 142.15 L 739.85 152.93 L 743.50 157.14 L 747.15 159.71 L 750.80 153.50 L 754.45 150.86 L 758.10 155.66 L 761.75 150.55 L 765.40 149.52 L 769.05 159.89 L 772.70 168.16 L 776.35 166.65 L 780.00 168.16" class="path-3" />
<path d="M 50.00 135.69 L 53.65 139.90 L 57.30 129.09 L 60.95 128.46 L 64.60 124.86 L 68.25 126.99 L 71.90 125.67 L 75.55 124.93 L 79.20 125.34 L 82.85 129.61 L 86.50 124.87 L 90.15 124.05 L 93.80 122.74 L 97.45 124.82 L 101.10 130.78 L 104.75 138.91 L 108.40 134.67 L 112.05 130.37 L 115.70 123.58 L 119.35 125.48 L 123.00 126.44 L 126.65 128.81 L 130.30 133.68 L 133.95 142.54 L 137.60 143.77 L 141.25 152.87 L 144.90 153.11 L 148.55 153.72 L 152.20 160.84 L 155.85 161.98 L 159.50 156.32 L 163.15 157.80 L 166.80 161.67 L 170.45 162.12 L 174.10 157.24 L 177.75 158.97 L 181.40 163.40 L 185.05 165.71 L 188.70 169.23 L 192.35 162.65 L 196.00 154.68 L 199.65 155.19 L 203.30 157.70 L 206.95 165.53 L 210.60 166.44 L 214.25 167.03 L 217.90 166.59 L 221.55 165.69 L 225.20 169.51 L 228.85 167.29 L 232.50 162.10 L 236.15 161.17 L 239.80 164.80 L 243.45 170.50 L 247.10 165.79 L 250.75 157.51 L 254.40 159.58 L 258.05 158.75 L 261.70 157.26 L 265.35 158.55 L 269.00 156.29 L 272.65 154.26 L 276.30 154.24 L 279.95 155.61 L 283.60 153.13 L 287.25 153.69 L 290.90 149.89 L 294.55 157.35 L 298.20 158.39 L 301.85 155.79 L 305.50 155.27 L 309.15 155.19 L 312.80 159.49 L 316.45 159.14 L 320.10 167.21 L 323.75 166.64 L 327.40 161.16 L 331.05 157.23 L 334.70 158.14 L 338.35 161.92 L 342.00 162.34 L 345.65 157.04 L 349.30 149.71 L 352.95 150.45 L 356.60 146.41 L 360.25 150.34 L 363.90 144.72 L 367.55 146.41 L 371.20 149.70 L 374.85 153.22 L 378.50 150.82 L 382.15 148.49 L 385.80 142.19 L 389.45 143.47 L 393.10 141.92 L 396.75 150.65 L 400.40 153.64 L 404.05 150.40 L 407.70 157.12 L 411.35 155.86 L 415.00 156.77 L 418.65 161.16 L 422.30 160.01 L 425.95 171.37 L 429.60 168.24 L 433.25 176.32 L 436.90 176.67 L 440.55 178.93 L 444.20 180.27 L 447.85 177.13 L 451.50 170.61 L 455.15 172.02 L 458.80 177.53 L 462.45 176.60 L 466.10 171.55 L 469.75 170.77 L 473.40 168.15 L 477.05 176.34 L 480.70 180.59 L 484.35 176.61 L 488.00 180.42 L 491.65 192.80 L 495.30 188.16 L 498.95 181.28 L 502.60 182.35 L 506.25 183.16 L 509.90 174.41 L 513.55 178.47 L 517.20 176.77 L 520.85 171.20 L 524.50 166.66 L 528.15 166.25 L 531.80 168.53 L 535.45 172.23 L 539.10 172.89 L 542.75 180.47 L 546.40 176.95 L 550.05 175.42 L 553.70 180.22 L 557.35 179.68 L 561.00 172.40 L 564.65 171.59 L 568.30 164.99 L 571.95 171.47 L 575.60 173.06 L 579.25 173.52 L 582.90 173.49 L 586.55 168.47 L 590.20 172.53 L 593.85 168.39 L 597.50 169.31 L 601.15 174.86 L 604.80 178.12 L 608.45 183.53 L 612.10 184.69 L 615.75 188.24 L 619.40 181.82 L 623.05 180.53 L 626.70 184.02 L 630.35 185.90 L 634.00 190.04 L 637.65 190.19 L 641.30 188.15 L 644.95 186.45 L 648.60 189.83 L 652.25 184.09 L 655.90 171.22 L 659.55 174.30 L 663.20 176.37 L 666.85 171.72 L 670.50 167.80 L 674.15 170.73 L 677.80 173.06 L 681.45 162.57 L 685.10 168.46 L 688.75 170.86 L 692.40 176.63 L 696.05 176.57 L 699.70 170.58 L 703.35 162.06 L 707.00 162.96 L 710.65 164.80 L 714.30 167.95 L 717.95 173.74 L 721.60 168.89 L 725.25 164.39 L 728.90 161.28 L 732.55 160.06 L 736.20 164.69 L 739.85 163.59 L 743.50 161.37 L 747.15 162.97 L 750.80 167.17 L 754.45 161.83 L 758.10 163.28 L 761.75 166.56 L 765.40 172.30 L 769.05 172.46 L 772.70 166.52 L 776.35 174.92 L 780.00 174.19" class="path-4" />
<line x1="50" y1="135.7" x2="780" y2="135.7" stroke="#4b5563" stroke-width="0.8" stroke-dasharray="6 3" />
</svg>