<svg xmlns="http://www.w3.org/2000/svg" viewBox="0 0 800 300" width="800" height="300">
<style>
.axis-line { stroke: #6b7280; stroke-width: 0.5; }
.axis-text { font-family: monospace; font-size: 11px; fill: #9ca3af; }
.title-text { font-family: monospace; font-size: 14px; fill: #d1d5db; font-weight: bold; }
.grid-line { stroke: #374151; stroke-width: 0.3; stroke-dasharray: 4 2; }
.path-0 { fill: none; stroke: #3b82f6; stroke-width: 2; stroke-linecap: round; opacity: 0.85; animation: draw-0 8s ease-in-out 0.0s infinite; stroke-dasharray: 875; stroke-dashoffset: 875;}
@keyframes draw-0 { 0% { stroke-dashoffset: 875; } 38% { stroke-dashoffset: 0; } 62% { stroke-dashoffset: 0; } 100% { stroke-dashoffset: 875; }}
.path-1 { fill: none; stroke: #ef4444; stroke-width: 2; stroke-linecap: round; opacity: 0.85; animation: draw-1 8s ease-in-out 0.4s infinite; stroke-dasharray: 860; stroke-dashoffset: 860;}
@keyframes draw-1 { 0% { stroke-dashoffset: 860; } 38% { stroke-dashoffset: 0; } 62% { stroke-dashoffset: 0; } 100% { stroke-dashoffset: 860; }}
.path-2 { fill: none; stroke: #22c55e; stroke-width: 2; stroke-linecap: round; opacity: 0.85; animation: draw-2 8s ease-in-out 0.8s infinite; stroke-dasharray: 884; stroke-dashoffset: 884;}
@keyframes draw-2 { 0% { stroke-dashoffset: 884; } 38% { stroke-dashoffset: 0; } 62% { stroke-dashoffset: 0; } 100% { stroke-dashoffset: 884; }}
.path-3 { fill: none; stroke: #f59e0b; stroke-width: 2; stroke-linecap: round; opacity: 0.85; animation: draw-3 8s ease-in-out 1.2000000000000002s infinite; stroke-dasharray: 874; stroke-dashoffset: 874;}
@keyframes draw-3 { 0% { stroke-dashoffset: 874; } 38% { stroke-dashoffset: 0; } 62% { stroke-dashoffset: 0; } 100% { stroke-dashoffset: 874; }}
.path-4 { fill: none; stroke: #a855f7; stroke-width: 2; stroke-linecap: round; opacity: 0.85; animation: draw-4 8s ease-in-out 1.6s infinite; stroke-dasharray: 872; stroke-dashoffset: 872;}
@keyframes draw-4 { 0% { stroke-dashoffset: 872; } 38% { stroke-dashoffset: 0; } 62% { stroke-dashoffset: 0; } 100% { stroke-dashoffset: 872; }}
</style>
<rect width="800" height="300" rx="8" fill="#0d1117" />
<line x1="50" y1="260.0" x2="780" y2="260.0" class="grid-line" />
<text x="44" y="264.0" text-anchor="end" class="axis-text">-4.2</text>
<line x1="50" y1="216.0" x2="780" y2="216.0" class="grid-line" />
<text x="44" y="220.0" text-anchor="end" class="axis-text">-2.9</text>
<line x1="50" y1="172.0" x2="780" y2="172.0" class="grid-line" />
<text x="44" y="176.0" text-anchor="end" class="axis-text">-1.6</text>
<line x1="50" y1="128.0" x2="780" y2="128.0" class="grid-line" />
<text x="44" y="132.0" text-anchor="end" class="axis-text">-0.3</text>
<line x1="50" y1="84.0" x2="780" y2="84.0" class="grid-line" />
<text x="44" y="88.0" text-anchor="end" class="axis-text">1.0</text>
<line x1="50" y1="40.0" x2="780" y2="40.0" class="grid-line" />
<text x="44" y="44.0" text-anchor="end" class="axis-text">2.3</text>
<line x1="50.0" y1="40" x2="50.0" y2="260" class="grid-line" />
<line x1="196.0" y1="40" x2="196.0" y2="260" class="grid-line" />
<line x1="342.0" y1="40" x2="342.0" y2="260" class="grid-line" />
<line x1="488.0" y1="40" x2="488.0" y2="260" class="grid-line" />
<line x1="634.0" y1="40" x2="634.0" y2="260" class="grid-line" />
<line x1="780.0" y1="40" x2="780.0" y2="260" class="grid-line" />
<line x1="50" y1="260" x2="780" y2="260" class="axis-line" />
<line x1="50" y1="40" x2="50" y2="260" class="axis-line" />
<text x="400.0" y="295" text-anchor="middle" class="axis-text">t</text>
<text x="12" y="150.0" text-anchor="middle" class="axis-text" transform="rotate(-90 12 150.0)">W(t)</text>
<text x="400.0" y="22" text-anchor="middle" class="title-text">Brownian Motion</text>
<path d="M 50.00 116.49 L 53.65 121.13 L 57.30 119.29 L 60.95 118.07 L 64.60 122.19 L 68.25 121.89 L 71.90 116.61 L 75.55 116.59 L 79.20 117.45 L 82.85 120.30 L 86.50 119.65 L 90.15 118.76 L 93.80 117.02 L 97.45 114.93 L 101.10 116.62 L 104.75 113.40 L 108.40 112.58 L 112.05 112.53 L 115.70 113.36 L 119.35 111.21 L 123.00 109.64 L 126.65 112.17 L 130.30 113.09 L 133.95 108.42 L 137.60 107.03 L 141.25 108.33 L 144.90 108.71 L 148.55 109.94 L 152.20 115.41 L 155.85 110.64 L 159.50 112.73 L 163.15 110.67 L 166.80 111.59 L 170.45 115.57 L 174.10 116.77 L 177.75 119.76 L 181.40 118.69 L 185.05 116.32 L 188.70 117.39 L 192.35 119.90 L 196.00 117.21 L 199.65 114.77 L 203.30 116.47 L 206.95 114.48 L 210.60 117.19 L 214.25 117.16 L 217.90 117.71 L 221.55 120.71 L 225.20 119.78 L 228.85 119.49 L 232.50 124.62 L 236.15 126.20 L 239.80 128.03 L 243.45 129.35 L 247.10 128.04 L 250.75 130.33 L 254.40 130.27 L 258.05 127.03 L 261.70 131.04 L 265.35 128.42 L 269.00 126.44 L 272.65 125.19 L 276.30 121.51 L 279.95 127.83 L 283.60 126.65 L 287.25 123.40 L 290.90 125.63 L 294.55 126.91 L 298.20 129.77 L 301.85 128.07 L 305.50 131.04 L 309.15 132.59 L 312.80 135.20 L 316.45 139.19 L 320.10 138.05 L 323.75 138.76 L 327.40 133.10 L 331.05 130.68 L 334.70 130.34 L 338.35 126.42 L 342.00 120.79 L 345.65 119.12 L 349.30 120.40 L 352.95 116.47 L 356.60 116.17 L 360.25 113.83 L 363.90 113.93 L 367.55 106.05 L 371.20 103.99 L 374.85 105.33 L 378.50 106.59 L 382.15 108.13 L 385.80 106.47 L 389.45 105.77 L 393.10 104.28 L 396.75 102.49 L 400.40 104.24 L 404.05 104.19 L 407.70 104.05 L 411.35 108.03 L 415.00 108.38 L 418.65 106.67 L 422.30 109.51 L 425.95 106.67 L 429.60 103.42 L 433.25 104.29 L 436.90 105.96 L 440.55 103.35 L 444.20 104.96 L 447.85 102.55 L 451.50 103.54 L 455.15 102.92 L 458.80 102.45 L 462.45 106.29 L 466.10 107.06 L 469.75 106.46 L 473.40 108.52 L 477.05 111.82 L 480.70 113.56 L 484.35 114.52 L 488.00 116.77 L 491.65 116.53 L 495.30 113.02 L 498.95 113.16 L 502.60 116.31 L 506.25 118.01 L 509.90 118.79 L 513.55 117.90 L 517.20 120.47 L 520.85 122.99 L 524.50 120.51 L 528.15 120.82 L 531.80 119.75 L 535.45 119.25 L 539.10 117.94 L 542.75 114.68 L 546.40 116.15 L 550.05 118.08 L 553.70 119.25 L 557.35 117.18 L 561.00 116.58 L 564.65 117.45 L 568.30 114.84 L 571.95 116.52 L 575.60 116.58 L 579.25 116.37 L 582.90 116.50 L 586.55 112.10 L 590.20 111.42 L 593.85 114.11 L 597.50 115.17 L 601.15 117.95 L 604.80 120.43 L 608.45 120.07 L 612.10 117.97 L 615.75 126.43 L 619.40 127.00 L 623.05 129.13 L 626.70 129.17 L 630.35 127.50 L 634.00 128.07 L 637.65 132.18 L 641.30 131.14 L 644.95 130.79 L 648.60 133.00 L 652.25 131.88 L 655.90 130.00 L 659.55 128.46 L 663.20 126.20 L 666.85 125.04 L 670.50 128.12 L 674.15 126.99 L 677.80 126.78 L 681.45 128.15 L 685.10 124.96 L 688.75 126.31 L 692.40 126.71 L 696.05 127.14 L 699.70 128.21 L 703.35 126.72 L 707.00 132.30 L 710.65 131.66 L 714.30 130.74 L 717.95 131.86 L 721.60 125.93 L 725.25 122.36 L 728.90 124.98 L 732.55 124.22 L 736.20 120.84 L 739.85 124.76 L 743.50 128.84 L 747.15 129.50 L 750.80 128.20 L 754.45 126.25 L 758.10 129.11 L 761.75 125.60 L 765.40 128.40 L 769.05 129.44 L 772.70 129.34 L 776.35 127.86 L 780.00 125.28" class="path-0" />
<path d="M 50.00 116.49 L 53.65 117.52 L 57.30 118.37 L 60.95 117.43 L 64.60 120.11 L 68.25 116.81 L 71.90 119.09 L 75.55 118.24 L 79.20 118.61 L 82.85 118.49 L 86.50 119.03 L 90.15 121.96 L 93.80 122.78 L 97.45 124.68 L 101.10 127.86 L 104.75 129.80 L 108.40 130.64 L 112.05 134.48 L 115.70 135.72 L 119.35 137.46 L 123.00 137.29 L 126.65 139.44 L 130.30 140.46 L 133.95 142.50 L 137.60 143.64 L 141.25 142.62 L 144.90 139.28 L 148.55 138.42 L 152.20 142.98 L 155.85 149.65 L 159.50 148.07 L 163.15 145.63 L 166.80 147.69 L 170.45 149.36 L 174.10 149.14 L 177.75 147.92 L 181.40 152.57 L 185.05 155.53 L 188.70 157.74 L 192.35 160.73 L 196.00 166.47 L 199.65 165.15 L 203.30 167.26 L 206.95 167.55 L 210.60 167.73 L 214.25 169.22 L 217.90 170.32 L 221.55 172.28 L 225.20 173.23 L 228.85 175.07 L 232.50 175.40 L 236.15 173.00 L 239.80 168.42 L 243.45 167.21 L 247.10 165.74 L 250.75 164.97 L 254.40 166.16 L 258.05 167.56 L 261.70 168.07 L 265.35 167.69 L 269.00 168.61 L 272.65 171.12 L 276.30 170.78 L 279.95 172.20 L 283.60 174.76 L 287.25 174.12 L 290.90 171.53 L 294.55 173.90 L 298.20 175.53 L 301.85 176.43 L 305.50 179.09 L 309.15 182.82 L 312.80 178.86 L 316.45 179.17 L 320.10 174.71 L 323.75 175.38 L 327.40 172.67 L 331.05 174.02 L 334.70 171.18 L 338.35 166.56 L 342.00 165.20 L 345.65 163.04 L 349.30 160.54 L 352.95 161.66 L 356.60 162.88 L 360.25 163.93 L 363.90 162.40 L 367.55 163.79 L 371.20 161.16 L 374.85 159.45 L 378.50 165.45 L 382.15 168.14 L 385.80 170.04 L 389.45 169.35 L 393.10 168.55 L 396.75 165.75 L 400.40 167.38 L 404.05 170.25 L 407.70 172.45 L 411.35 176.23 L 415.00 179.69 L 418.65 178.60 L 422.30 179.48 L 425.95 177.64 L 429.60 177.35 L 433.25 176.26 L 436.90 173.33 L 440.55 174.92 L 444.20 178.70 L 447.85 177.85 L 451.50 178.66 L 455.15 179.24 L 458.80 179.01 L 462.45 178.30 L 466.10 179.18 L 469.75 182.35 L 473.40 184.68 L 477.05 185.49 L 480.70 184.60 L 484.35 182.40 L 488.00 184.66 L 491.65 186.47 L 495.30 191.05 L 498.95 191.77 L 502.60 191.60 L 506.25 192.90 L 509.90 191.16 L 513.55 189.30 L 517.20 197.89 L 520.85 203.42 L 524.50 201.44 L 528.15 204.86 L 531.80 207.17 L 535.45 205.27 L 539.10 204.95 L 542.75 205.27 L 546.40 204.69 L 550.05 208.69 L 553.70 208.40 L 557.35 208.84 L 561.00 206.55 L 564.65 205.02 L 568.30 206.75 L 571.95 208.60 L 575.60 209.91 L 579.25 208.32 L 582.90 211.98 L 586.55 217.90 L 590.20 218.98 L 593.85 218.39 L 597.50 214.29 L 601.15 217.86 L 604.80 214.94 L 608.45 214.14 L 612.10 213.91 L 615.75 214.07 L 619.40 208.88 L 623.05 210.45 L 626.70 209.96 L 630.35 209.15 L 634.00 210.06 L 637.65 210.51 L 641.30 210.71 L 644.95 213.90 L 648.60 216.23 L 652.25 214.62 L 655.90 216.56 L 659.55 216.24 L 663.20 216.95 L 666.85 219.03 L 670.50 217.98 L 674.15 223.44 L 677.80 225.88 L 681.45 227.31 L 685.10 227.70 L 688.75 227.21 L 692.40 227.88 L 696.05 230.47 L 699.70 230.48 L 703.35 232.73 L 707.00 234.23 L 710.65 233.40 L 714.30 233.45 L 717.95 233.18 L 721.60 233.27 L 725.25 231.53 L 728.90 234.62 L 732.55 232.16 L 736.20 230.34 L 739.85 228.68 L 743.50 229.60 L 747.15 232.72 L 750.80 233.14 L 754.45 231.31 L 758.10 229.80 L 761.75 230.98 L 765.40 230.23 L 769.05 228.20 L 772.70 227.58 L 776.35 228.20 L 780.00 230.84" class="path-1" />
<path d="M 50.00 116.49 L 53.65 121.48 L 57.30 120.14 L 60.95 118.97 L 64.60 119.79 L 68.25 122.73 L 71.90 124.45 L 75.55 122.72 L 79.20 120.71 L 82.85 122.11 L 86.50 121.62 L 90.15 120.23 L 93.80 116.46 L 97.45 117.41 L 101.10 114.84 L 104.75 120.32 L 108.40 124.99 L 112.05 124.79 L 115.70 124.18 L 119.35 123.98 L 123.00 125.38 L 126.65 124.93 L 130.30 123.68 L 133.95 121.31 L 137.60 117.12 L 141.25 117.61 L 144.90 119.06 L 148.55 122.47 L 152.20 120.17 L 155.85 121.81 L 159.50 122.38 L 163.15 123.17 L 166.80 129.77 L 170.45 128.70 L 174.10 130.03 L 177.75 131.42 L 181.40 129.56 L 185.05 133.87 L 188.70 132.11 L 192.35 135.08 L 196.00 131.82 L 199.65 127.63 L 203.30 130.69 L 206.95 130.59 L 210.60 127.08 L 214.25 131.27 L 217.90 134.59 L 221.55 134.33 L 225.20 137.89 L 228.85 135.59 L 232.50 135.12 L 236.15 137.01 L 239.80 136.07 L 243.45 136.06 L 247.10 135.94 L 250.75 135.32 L 254.40 140.45 L 258.05 141.60 L 261.70 144.06 L 265.35 146.30 L 269.00 145.38 L 272.65 144.16 L 276.30 144.73 L 279.95 146.38 L 283.60 148.05 L 287.25 149.15 L 290.90 152.23 L 294.55 151.83 L 298.20 151.67 L 301.85 154.38 L 305.50 153.15 L 309.15 149.52 L 312.80 149.58 L 316.45 147.38 L 320.10 147.82 L 323.75 151.20 L 327.40 154.38 L 331.05 152.49 L 334.70 152.17 L 338.35 155.22 L 342.00 157.75 L 345.65 161.09 L 349.30 162.73 L 352.95 163.57 L 356.60 167.13 L 360.25 156.90 L 363.90 156.65 L 367.55 155.79 L 371.20 155.11 L 374.85 159.37 L 378.50 155.43 L 382.15 151.78 L 385.80 147.82 L 389.45 149.78 L 393.10 150.34 L 396.75 147.71 L 400.40 150.20 L 404.05 151.54 L 407.70 155.54 L 411.35 157.67 L 415.00 153.12 L 418.65 155.27 L 422.30 154.84 L 425.95 157.74 L 429.60 160.38 L 433.25 159.60 L 436.90 161.53 L 440.55 162.52 L 444.20 165.15 L 447.85 161.67 L 451.50 159.10 L 455.15 155.59 L 458.80 153.45 L 462.45 153.77 L 466.10 148.75 L 469.75 146.41 L 473.40 148.33 L 477.05 150.57 L 480.70 149.84 L 484.35 152.92 L 488.00 155.82 L 491.65 155.46 L 495.30 156.15 L 498.95 157.09 L 502.60 153.41 L 506.25 153.78 L 509.90 152.26 L 513.55 152.02 L 517.20 153.55 L 520.85 152.00 L 524.50 151.22 L 528.15 149.55 L 531.80 148.70 L 535.45 148.54 L 539.10 146.42 L 542.75 147.23 L 546.40 151.20 L 550.05 149.85 L 553.70 150.12 L 557.35 150.18 L 561.00 150.00 L 564.65 149.82 L 568.30 153.87 L 571.95 153.04 L 575.60 153.09 L 579.25 152.73 L 582.90 149.04 L 586.55 150.71 L 590.20 152.28 L 593.85 147.78 L 597.50 151.03 L 601.15 151.05 L 604.80 155.80 L 608.45 155.62 L 612.10 154.14 L 615.75 162.06 L 619.40 163.35 L 623.05 163.42 L 626.70 161.92 L 630.35 166.12 L 634.00 167.60 L 637.65 169.10 L 641.30 166.65 L 644.95 167.74 L 648.60 168.83 L 652.25 168.23 L 655.90 165.84 L 659.55 170.65 L 663.20 167.49 L 666.85 170.30 L 670.50 170.24 L 674.15 168.24 L 677.80 165.80 L 681.45 167.70 L 685.10 170.25 L 688.75 169.64 L 692.40 168.83 L 696.05 169.12 L 699.70 170.60 L 703.35 171.08 L 707.00 171.68 L 710.65 172.64 L 714.30 171.10 L 717.95 168.19 L 721.60 167.41 L 725.25 172.48 L 728.90 172.35 L 732.55 173.92 L 736.20 176.98 L 739.85 177.29 L 743.50 182.53 L 747.15 184.28 L 750.80 183.26 L 754.45 182.58 L 758.10 180.89 L 761.75 175.23 L 765.40 179.62 L 769.05 179.30 L 772.70 182.59 L 776.35 186.07 L 780.00 185.75" class="path-2" />
<path d="M 50.00 116.49 L 53.65 116.13 L 57.30 118.53 L 60.95 117.67 L 64.60 117.89 L 68.25 115.34 L 71.90 117.59 L 75.55 118.81 L 79.20 115.46 L 82.85 117.70 L 86.50 117.41 L 90.15 117.63 L 93.80 115.82 L 97.45 117.20 L 101.10 114.76 L 104.75 113.74 L 108.40 111.55 L 112.05 111.45 L 115.70 108.93 L 119.35 105.74 L 123.00 106.50 L 126.65 108.37 L 130.30 109.32 L 133.95 108.30 L 137.60 105.47 L 141.25 104.34 L 144.90 104.06 L 148.55 104.06 L 152.20 104.06 L 155.85 107.71 L 159.50 109.43 L 163.15 111.40 L 166.80 110.76 L 170.45 104.28 L 174.10 106.17 L 177.75 109.04 L 181.40 107.66 L 185.05 108.20 L 188.70 111.66 L 192.35 105.93 L 196.00 106.44 L 199.65 107.85 L 203.30 103.82 L 206.95 105.77 L 210.60 106.06 L 214.25 102.63 L 217.90 101.05 L 221.55 104.52 L 225.20 105.73 L 228.85 106.62 L 232.50 102.36 L 236.15 105.26 L 239.80 108.37 L 243.45 111.53 L 247.10 108.21 L 250.75 111.05 L 254.40 112.40 L 258.05 110.32 L 261.70 109.65 L 265.35 106.01 L 269.00 103.74 L 272.65 103.51 L 276.30 105.08 L 279.95 102.83 L 283.60 105.60 L 287.25 105.22 L 290.90 104.10 L 294.55 105.71 L 298.20 105.22 L 301.85 100.43 L 305.50 100.92 L 309.15 95.85 L 312.80 94.98 L 316.45 91.70 L 320.10 88.45 L 323.75 85.20 L 327.40 87.45 L 331.05 91.15 L 334.70 91.51 L 338.35 87.97 L 342.00 90.74 L 345.65 90.69 L 349.30 90.34 L 352.95 89.97 L 356.60 90.56 L 360.25 94.00 L 363.90 91.63 L 367.55 91.92 L 371.20 90.51 L 374.85 93.08 L 378.50 95.01 L 382.15 93.24 L 385.80 94.99 L 389.45 96.66 L 393.10 100.30 L 396.75 101.85 L 400.40 99.67 L 404.05 100.05 L 407.70 98.53 L 411.35 100.79 L 415.00 100.82 L 418.65 97.57 L 422.30 97.08 L 425.95 96.46 L 429.60 95.06 L 433.25 94.30 L 436.90 100.23 L 440.55 98.97 L 444.20 94.10 L 447.85 93.51 L 451.50 91.61 L 455.15 92.99 L 458.80 93.29 L 462.45 90.35 L 466.10 88.02 L 469.75 90.83 L 473.40 88.91 L 477.05 88.36 L 480.70 91.20 L 484.35 92.43 L 488.00 90.05 L 491.65 85.43 L 495.30 88.77 L 498.95 87.54 L 502.60 88.25 L 506.25 88.61 L 509.90 86.30 L 513.55 87.73 L 517.20 87.56 L 520.85 87.93 L 524.50 89.80 L 528.15 90.55 L 531.80 89.10 L 535.45 89.37 L 539.10 90.50 L 542.75 92.30 L 546.40 95.24 L 550.05 93.22 L 553.70 97.73 L 557.35 95.91 L 561.00 95.94 L 564.65 94.96 L 568.30 96.67 L 571.95 93.43 L 575.60 90.00 L 579.25 90.99 L 582.90 91.50 L 586.55 91.45 L 590.20 86.52 L 593.85 80.89 L 597.50 85.59 L 601.15 85.87 L 604.80 91.28 L 608.45 89.77 L 612.10 86.62 L 615.75 87.13 L 619.40 89.31 L 623.05 90.48 L 626.70 90.92 L 630.35 91.55 L 634.00 93.69 L 637.65 92.63 L 641.30 90.65 L 644.95 89.84 L 648.60 87.97 L 652.25 89.05 L 655.90 88.64 L 659.55 91.30 L 663.20 89.78 L 666.85 89.38 L 670.50 90.12 L 674.15 90.31 L 677.80 87.42 L 681.45 83.95 L 685.10 87.78 L 688.75 86.41 L 692.40 85.53 L 696.05 88.76 L 699.70 87.01 L 703.35 84.42 L 707.00 86.85 L 710.65 86.16 L 714.30 84.69 L 717.95 85.57 L 721.60 84.20 L 725.25 89.49 L 728.90 92.36 L 732.55 94.97 L 736.20 97.03 L 739.85 98.52 L 743.50 100.31 L 747.15 96.95 L 750.80 95.88 L 754.45 92.70 L 758.10 88.64 L 761.75 91.11 L 765.40 89.59 L 769.05 84.87 L 772.70 81.84 L 776.35 81.05 L 780.00 74.51" class="path-3" />
<path d="M 50.00 116.49 L 53.65 119.35 L 57.30 121.46 L 60.95 121.41 L 64.60 124.43 L 68.25 123.62 L 71.90 124.48 L 75.55 122.54 L 79.20 121.85 L 82.85 125.73 L 86.50 124.50 L 90.15 126.97 L 93.80 129.04 L 97.45 128.16 L 101.10 125.03 L 104.75 121.80 L 108.40 118.54 L 112.05 119.42 L 115.70 123.11 L 119.35 122.75 L 123.00 120.57 L 126.65 118.68 L 130.30 119.91 L 133.95 122.49 L 137.60 119.93 L 141.25 122.70 L 144.90 120.75 L 148.55 123.02 L 152.20 119.83 L 155.85 125.53 L 159.50 126.62 L 163.15 126.16 L 166.80 128.52 L 170.45 127.70 L 174.10 126.16 L 177.75 124.33 L 181.40 128.22 L 185.05 124.99 L 188.70 124.64 L 192.35 127.01 L 196.00 124.41 L 199.65 121.38 L 203.30 121.81 L 206.95 124.35 L 210.60 122.40 L 214.25 121.95 L 217.90 122.58 L 221.55 122.72 L 225.20 120.83 L 228.85 120.17 L 232.50 115.16 L 236.15 109.98 L 239.80 108.86 L 243.45 107.18 L 247.10 108.33 L 250.75 106.53 L 254.40 104.97 L 258.05 102.22 L 261.70 107.29 L 265.35 103.03 L 269.00 104.27 L 272.65 101.78 L 276.30 97.88 L 279.95 100.84 L 283.60 101.77 L 287.25 102.33 L 290.90 102.63 L 294.55 103.03 L 298.20 105.16 L 301.85 103.08 L 305.50 104.99 L 309.15 103.35 L 312.80 99.72 L 316.45 102.51 L 320.10 103.85 L 323.75 102.79 L 327.40 102.16 L 331.05 102.46 L 334.70 102.90 L 338.35 99.69 L 342.00 100.17 L 345.65 101.65 L 349.30 101.44 L 352.95 97.54 L 356.60 90.53 L 360.25 92.86 L 363.90 94.48 L 367.55 93.12 L 371.20 95.09 L 374.85 91.60 L 378.50 92.21 L 382.15 92.31 L 385.80 93.48 L 389.45 95.37 L 393.10 91.21 L 396.75 89.24 L 400.40 85.69 L 404.05 84.56 L 407.70 85.80 L 411.35 82.32 L 415.00 83.32 L 418.65 82.74 L 422.30 84.51 L 425.95 85.02 L 429.60 87.79 L 433.25 89.12 L 436.90 92.88 L 440.55 92.98 L 444.20 94.14 L 447.85 92.76 L 451.50 94.26 L 455.15 92.76 L 458.80 94.55 L 462.45 88.88 L 466.10 92.83 L 469.75 92.43 L 473.40 91.79 L 477.05 88.33 L 480.70 90.10 L 484.35 88.88 L 488.00 86.63 L 491.65 88.12 L 495.30 91.58 L 498.95 91.19 L 502.60 91.36 L 506.25 93.34 L 509.90 96.32 L 513.55 97.24 L 517.20 97.26 L 520.85 98.11 L 524.50 101.81 L 528.15 100.21 L 531.80 100.19 L 535.45 100.01 L 539.10 104.02 L 542.75 99.12 L 546.40 97.60 L 550.05 96.35 L 553.70 97.57 L 557.35 97.54 L 561.00 98.31 L 564.65 96.53 L 568.30 96.49 L 571.95 89.38 L 575.60 91.15 L 579.25 89.53 L 582.90 88.01 L 586.55 87.32 L 590.20 85.85 L 593.85 82.37 L 597.50 87.08 L 601.15 85.51 L 604.80 86.06 L 608.45 86.53 L 612.10 86.97 L 615.75 84.04 L 619.40 78.62 L 623.05 77.10 L 626.70 76.71 L 630.35 78.99 L 634.00 81.00 L 637.65 80.93 L 641.30 80.81 L 644.95 81.07 L 648.60 80.75 L 652.25 80.64 L 655.90 82.77 L 659.55 84.37 L 663.20 89.76 L 666.85 87.85 L 670.50 86.45 L 674.15 86.91 L 677.80 85.70 L 681.45 88.99 L 685.10 85.68 L 688.75 79.18 L 692.40 77.01 L 696.05 77.49 L 699.70 78.29 L 703.35 73.26 L 707.00 71.57 L 710.65 75.19 L 714.30 75.72 L 717.95 75.97 L 721.60 79.09 L 725.25 79.09 L 728.90 75.12 L 732.55 72.52 L 736.20 72.15 L 739.85 71.87 L 743.50 69.62 L 747.15 67.80 L 750.80 70.62 L 754.45 69.26 L 758.10 70.70 L 761.75 70.87 L 765.40 71.56 L 769.05 72.58 L 772.70 68.45 L 776.35 67.89 L 780.00 65.38" class="path-4" />
<line x1="50" y1="116.5" x2="780" y2="116.5" stroke="#4b5563" stroke-width="0.8" stroke-dasharray="6 3" />
</svg>