<svg xmlns="http://www.w3.org/2000/svg" viewBox="0 0 800 300" width="800" height="300">
<style>
.axis-line { stroke: #6b7280; stroke-width: 0.5; }
.axis-text { font-family: monospace; font-size: 11px; fill: #9ca3af; }
.title-text { font-family: monospace; font-size: 14px; fill: #d1d5db; font-weight: bold; }
.grid-line { stroke: #374151; stroke-width: 0.3; stroke-dasharray: 4 2; }
.path-0 { fill: none; stroke: #3b82f6; stroke-width: 2; stroke-linecap: round; opacity: 0.85; animation: draw-0 8s ease-in-out 0.0s infinite; stroke-dasharray: 1155; stroke-dashoffset: 1155;}
@keyframes draw-0 { 0% { stroke-dashoffset: 1155; } 38% { stroke-dashoffset: 0; } 62% { stroke-dashoffset: 0; } 100% { stroke-dashoffset: 1155; }}
.path-1 { fill: none; stroke: #ef4444; stroke-width: 2; stroke-linecap: round; opacity: 0.85; animation: draw-1 8s ease-in-out 0.4s infinite; stroke-dasharray: 1106; stroke-dashoffset: 1106;}
@keyframes draw-1 { 0% { stroke-dashoffset: 1106; } 38% { stroke-dashoffset: 0; } 62% { stroke-dashoffset: 0; } 100% { stroke-dashoffset: 1106; }}
.path-2 { fill: none; stroke: #22c55e; stroke-width: 2; stroke-linecap: round; opacity: 0.85; animation: draw-2 8s ease-in-out 0.8s infinite; stroke-dasharray: 1126; stroke-dashoffset: 1126;}
@keyframes draw-2 { 0% { stroke-dashoffset: 1126; } 38% { stroke-dashoffset: 0; } 62% { stroke-dashoffset: 0; } 100% { stroke-dashoffset: 1126; }}
.path-3 { fill: none; stroke: #f59e0b; stroke-width: 2; stroke-linecap: round; opacity: 0.85; animation: draw-3 8s ease-in-out 1.2000000000000002s infinite; stroke-dasharray: 1144; stroke-dashoffset: 1144;}
@keyframes draw-3 { 0% { stroke-dashoffset: 1144; } 38% { stroke-dashoffset: 0; } 62% { stroke-dashoffset: 0; } 100% { stroke-dashoffset: 1144; }}
.path-4 { fill: none; stroke: #a855f7; stroke-width: 2; stroke-linecap: round; opacity: 0.85; animation: draw-4 8s ease-in-out 1.6s infinite; stroke-dasharray: 1217; stroke-dashoffset: 1217;}
@keyframes draw-4 { 0% { stroke-dashoffset: 1217; } 38% { stroke-dashoffset: 0; } 62% { stroke-dashoffset: 0; } 100% { stroke-dashoffset: 1217; }}
</style>
<rect width="800" height="300" rx="8" fill="#0d1117" />
<line x1="50" y1="260.0" x2="780" y2="260.0" class="grid-line" />
<text x="44" y="264.0" text-anchor="end" class="axis-text">-1.5</text>
<line x1="50" y1="216.0" x2="780" y2="216.0" class="grid-line" />
<text x="44" y="220.0" text-anchor="end" class="axis-text">-0.9</text>
<line x1="50" y1="172.0" x2="780" y2="172.0" class="grid-line" />
<text x="44" y="176.0" text-anchor="end" class="axis-text">-0.3</text>
<line x1="50" y1="128.0" x2="780" y2="128.0" class="grid-line" />
<text x="44" y="132.0" text-anchor="end" class="axis-text">0.3</text>
<line x1="50" y1="84.0" x2="780" y2="84.0" class="grid-line" />
<text x="44" y="88.0" text-anchor="end" class="axis-text">0.9</text>
<line x1="50" y1="40.0" x2="780" y2="40.0" class="grid-line" />
<text x="44" y="44.0" text-anchor="end" class="axis-text">1.5</text>
<line x1="50.0" y1="40" x2="50.0" y2="260" class="grid-line" />
<line x1="196.0" y1="40" x2="196.0" y2="260" class="grid-line" />
<line x1="342.0" y1="40" x2="342.0" y2="260" class="grid-line" />
<line x1="488.0" y1="40" x2="488.0" y2="260" class="grid-line" />
<line x1="634.0" y1="40" x2="634.0" y2="260" class="grid-line" />
<line x1="780.0" y1="40" x2="780.0" y2="260" class="grid-line" />
<line x1="50" y1="260" x2="780" y2="260" class="axis-line" />
<line x1="50" y1="40" x2="50" y2="260" class="axis-line" />
<text x="400.0" y="295" text-anchor="middle" class="axis-text">t</text>
<text x="12" y="150.0" text-anchor="middle" class="axis-text" transform="rotate(-90 12 150.0)">W(t)</text>
<text x="400.0" y="22" text-anchor="middle" class="title-text">Brownian Motion</text>
<path d="M 50.00 150.18 L 53.65 154.55 L 57.30 157.67 L 60.95 164.35 L 64.60 163.03 L 68.25 165.79 L 71.90 166.31 L 75.55 168.31 L 79.20 158.10 L 82.85 163.76 L 86.50 161.04 L 90.15 158.95 L 93.80 163.96 L 97.45 158.81 L 101.10 153.04 L 104.75 157.24 L 108.40 158.12 L 112.05 155.26 L 115.70 156.89 L 119.35 155.62 L 123.00 155.79 L 126.65 156.64 L 130.30 155.75 L 133.95 157.17 L 137.60 154.07 L 141.25 160.75 L 144.90 158.48 L 148.55 156.82 L 152.20 163.88 L 155.85 170.19 L 159.50 169.11 L 163.15 167.44 L 166.80 174.38 L 170.45 169.15 L 174.10 173.19 L 177.75 169.17 L 181.40 169.29 L 185.05 170.80 L 188.70 167.31 L 192.35 169.53 L 196.00 177.21 L 199.65 170.54 L 203.30 173.05 L 206.95 172.07 L 210.60 171.63 L 214.25 169.14 L 217.90 167.86 L 221.55 169.08 L 225.20 167.66 L 228.85 170.93 L 232.50 175.13 L 236.15 162.94 L 239.80 163.81 L 243.45 162.25 L 247.10 164.01 L 250.75 162.66 L 254.40 152.62 L 258.05 157.19 L 261.70 156.47 L 265.35 155.71 L 269.00 155.58 L 272.65 161.91 L 276.30 162.30 L 279.95 155.44 L 283.60 152.87 L 287.25 164.40 L 290.90 155.58 L 294.55 151.47 L 298.20 144.92 L 301.85 144.90 L 305.50 154.75 L 309.15 162.82 L 312.80 159.18 L 316.45 161.30 L 320.10 151.44 L 323.75 160.61 L 327.40 166.37 L 331.05 168.55 L 334.70 171.80 L 338.35 179.51 L 342.00 176.79 L 345.65 174.66 L 349.30 171.82 L 352.95 172.36 L 356.60 169.02 L 360.25 169.10 L 363.90 164.75 L 367.55 174.42 L 371.20 169.97 L 374.85 178.02 L 378.50 181.84 L 382.15 178.62 L 385.80 181.25 L 389.45 192.02 L 393.10 192.53 L 396.75 194.28 L 400.40 191.48 L 404.05 189.90 L 407.70 185.68 L 411.35 193.10 L 415.00 194.62 L 418.65 194.12 L 422.30 202.07 L 425.95 198.96 L 429.60 210.19 L 433.25 207.30 L 436.90 208.61 L 440.55 204.86 L 444.20 212.45 L 447.85 212.96 L 451.50 216.42 L 455.15 216.89 L 458.80 223.09 L 462.45 220.79 L 466.10 206.92 L 469.75 203.79 L 473.40 200.39 L 477.05 192.17 L 480.70 192.20 L 484.35 183.27 L 488.00 183.23 L 491.65 184.37 L 495.30 179.99 L 498.95 173.97 L 502.60 178.77 L 506.25 190.19 L 509.90 185.74 L 513.55 193.90 L 517.20 191.78 L 520.85 190.05 L 524.50 196.29 L 528.15 194.94 L 531.80 189.20 L 535.45 185.04 L 539.10 189.38 L 542.75 189.05 L 546.40 186.52 L 550.05 188.62 L 553.70 189.56 L 557.35 184.65 L 561.00 180.12 L 564.65 179.69 L 568.30 176.40 L 571.95 183.26 L 575.60 181.46 L 579.25 185.53 L 582.90 192.49 L 586.55 194.44 L 590.20 196.75 L 593.85 203.57 L 597.50 202.20 L 601.15 203.33 L 604.80 202.49 L 608.45 192.99 L 612.10 193.53 L 615.75 191.81 L 619.40 195.76 L 623.05 194.48 L 626.70 185.49 L 630.35 183.39 L 634.00 183.24 L 637.65 174.50 L 641.30 179.19 L 644.95 168.38 L 648.60 168.21 L 652.25 178.29 L 655.90 175.58 L 659.55 173.01 L 663.20 171.44 L 666.85 169.62 L 670.50 178.58 L 674.15 183.96 L 677.80 175.53 L 681.45 178.81 L 685.10 173.08 L 688.75 181.64 L 692.40 181.82 L 696.05 183.52 L 699.70 180.34 L 703.35 182.92 L 707.00 183.63 L 710.65 188.03 L 714.30 191.89 L 717.95 190.84 L 721.60 191.88 L 725.25 192.16 L 728.90 188.32 L 732.55 183.84 L 736.20 185.01 L 739.85 188.85 L 743.50 190.16 L 747.15 195.24 L 750.80 194.86 L 754.45 198.63 L 758.10 203.18 L 761.75 210.61 L 765.40 210.06 L 769.05 211.00 L 772.70 220.00 L 776.35 228.24 L 780.00 234.62" class="path-0" />
<path d="M 50.00 150.18 L 53.65 148.42 L 57.30 142.90 L 60.95 142.48 L 64.60 142.82 L 68.25 139.81 L 71.90 134.66 L 75.55 130.76 L 79.20 129.52 L 82.85 129.70 L 86.50 134.80 L 90.15 130.58 L 93.80 133.41 L 97.45 130.54 L 101.10 126.76 L 104.75 134.94 L 108.40 133.52 L 112.05 134.31 L 115.70 137.15 L 119.35 129.79 L 123.00 128.94 L 126.65 130.53 L 130.30 128.55 L 133.95 133.07 L 137.60 129.45 L 141.25 129.15 L 144.90 127.89 L 148.55 117.59 L 152.20 116.06 L 155.85 111.85 L 159.50 112.86 L 163.15 113.61 L 166.80 115.37 L 170.45 108.08 L 174.10 104.48 L 177.75 100.46 L 181.40 102.69 L 185.05 103.14 L 188.70 107.15 L 192.35 108.88 L 196.00 99.17 L 199.65 100.07 L 203.30 99.71 L 206.95 103.17 L 210.60 109.24 L 214.25 105.97 L 217.90 105.37 L 221.55 108.60 L 225.20 106.10 L 228.85 111.22 L 232.50 111.75 L 236.15 114.34 L 239.80 111.34 L 243.45 117.70 L 247.10 114.13 L 250.75 114.46 L 254.40 116.94 L 258.05 117.51 L 261.70 124.45 L 265.35 124.54 L 269.00 127.88 L 272.65 124.15 L 276.30 129.62 L 279.95 123.07 L 283.60 118.92 L 287.25 118.64 L 290.90 118.61 L 294.55 122.87 L 298.20 120.22 L 301.85 125.62 L 305.50 129.15 L 309.15 138.66 L 312.80 140.56 L 316.45 144.59 L 320.10 148.36 L 323.75 144.06 L 327.40 134.29 L 331.05 126.06 L 334.70 124.68 L 338.35 122.96 L 342.00 128.22 L 345.65 124.98 L 349.30 125.94 L 352.95 124.50 L 356.60 122.08 L 360.25 118.48 L 363.90 120.94 L 367.55 124.89 L 371.20 124.69 L 374.85 130.53 L 378.50 124.23 L 382.15 126.99 L 385.80 132.72 L 389.45 131.00 L 393.10 123.03 L 396.75 120.98 L 400.40 118.70 L 404.05 121.07 L 407.70 109.80 L 411.35 111.90 L 415.00 117.81 L 418.65 114.30 L 422.30 117.12 L 425.95 123.76 L 429.60 121.38 L 433.25 131.02 L 436.90 128.69 L 440.55 127.21 L 444.20 119.22 L 447.85 119.92 L 451.50 115.54 L 455.15 111.91 L 458.80 113.28 L 462.45 110.70 L 466.10 108.55 L 469.75 103.13 L 473.40 106.43 L 477.05 89.33 L 480.70 89.53 L 484.35 98.02 L 488.00 101.19 L 491.65 102.56 L 495.30 105.53 L 498.95 100.97 L 502.60 103.38 L 506.25 93.93 L 509.90 90.71 L 513.55 91.15 L 517.20 90.76 L 520.85 99.17 L 524.50 102.50 L 528.15 101.07 L 531.80 109.07 L 535.45 109.07 L 539.10 105.63 L 542.75 99.17 L 546.40 92.19 L 550.05 90.17 L 553.70 87.33 L 557.35 83.39 L 561.00 87.28 L 564.65 89.29 L 568.30 97.23 L 571.95 88.96 L 575.60 90.54 L 579.25 91.53 L 582.90 98.92 L 586.55 97.52 L 590.20 98.53 L 593.85 99.05 L 597.50 97.89 L 601.15 95.71 L 604.80 93.78 L 608.45 92.94 L 612.10 86.32 L 615.75 86.83 L 619.40 88.43 L 623.05 91.59 L 626.70 86.55 L 630.35 88.53 L 634.00 84.36 L 637.65 88.03 L 641.30 86.86 L 644.95 89.95 L 648.60 91.83 L 652.25 93.44 L 655.90 87.66 L 659.55 75.52 L 663.20 71.63 L 666.85 68.60 L 670.50 71.52 L 674.15 71.58 L 677.80 75.61 L 681.45 71.31 L 685.10 80.20 L 688.75 89.56 L 692.40 88.42 L 696.05 87.68 L 699.70 93.37 L 703.35 96.46 L 707.00 96.32 L 710.65 85.36 L 714.30 80.39 L 717.95 76.06 L 721.60 73.85 L 725.25 72.80 L 728.90 73.69 L 732.55 77.48 L 736.20 74.10 L 739.85 75.23 L 743.50 79.53 L 747.15 74.94 L 750.80 78.46 L 754.45 79.72 L 758.10 72.35 L 761.75 73.37 L 765.40 72.34 L 769.05 75.01 L 772.70 75.86 L 776.35 89.14 L 780.00 81.64" class="path-1" />
<path d="M 50.00 150.18 L 53.65 145.52 L 57.30 143.04 L 60.95 134.04 L 64.60 127.91 L 68.25 122.42 L 71.90 123.62 L 75.55 117.91 L 79.20 118.17 L 82.85 115.49 L 86.50 110.95 L 90.15 107.32 L 93.80 102.41 L 97.45 103.84 L 101.10 105.68 L 104.75 106.72 L 108.40 102.86 L 112.05 96.76 L 115.70 99.96 L 119.35 94.50 L 123.00 99.33 L 126.65 99.70 L 130.30 86.90 L 133.95 87.66 L 137.60 95.39 L 141.25 93.99 L 144.90 104.50 L 148.55 108.80 L 152.20 116.25 L 155.85 116.73 L 159.50 120.16 L 163.15 122.76 L 166.80 119.45 L 170.45 127.41 L 174.10 132.51 L 177.75 131.38 L 181.40 135.29 L 185.05 130.85 L 188.70 125.40 L 192.35 134.11 L 196.00 126.62 L 199.65 123.94 L 203.30 119.11 L 206.95 110.98 L 210.60 102.46 L 214.25 106.13 L 217.90 107.12 L 221.55 116.93 L 225.20 122.81 L 228.85 118.08 L 232.50 122.43 L 236.15 123.33 L 239.80 125.86 L 243.45 118.61 L 247.10 119.49 L 250.75 119.87 L 254.40 119.46 L 258.05 130.80 L 261.70 128.21 L 265.35 126.24 L 269.00 135.11 L 272.65 129.08 L 276.30 134.79 L 279.95 138.61 L 283.60 132.90 L 287.25 132.53 L 290.90 134.52 L 294.55 131.72 L 298.20 128.48 L 301.85 134.27 L 305.50 128.90 L 309.15 127.87 L 312.80 129.00 L 316.45 131.81 L 320.10 125.73 L 323.75 128.92 L 327.40 126.95 L 331.05 128.10 L 334.70 123.02 L 338.35 125.96 L 342.00 122.36 L 345.65 115.59 L 349.30 116.10 L 352.95 123.08 L 356.60 114.66 L 360.25 114.58 L 363.90 118.17 L 367.55 110.49 L 371.20 111.10 L 374.85 113.00 L 378.50 114.57 L 382.15 111.43 L 385.80 112.39 L 389.45 109.36 L 393.10 106.10 L 396.75 104.63 L 400.40 104.28 L 404.05 106.83 L 407.70 107.68 L 411.35 107.80 L 415.00 111.69 L 418.65 126.01 L 422.30 122.23 L 425.95 121.81 L 429.60 128.13 L 433.25 136.18 L 436.90 136.51 L 440.55 138.07 L 444.20 140.83 L 447.85 133.44 L 451.50 145.85 L 455.15 150.63 L 458.80 147.99 L 462.45 148.30 L 466.10 151.33 L 469.75 152.99 L 473.40 153.70 L 477.05 159.17 L 480.70 157.18 L 484.35 152.92 L 488.00 155.65 L 491.65 156.00 L 495.30 151.65 L 498.95 154.19 L 502.60 154.17 L 506.25 160.02 L 509.90 163.37 L 513.55 165.31 L 517.20 165.26 L 520.85 175.20 L 524.50 175.06 L 528.15 172.62 L 531.80 167.63 L 535.45 163.72 L 539.10 169.94 L 542.75 163.32 L 546.40 169.54 L 550.05 176.68 L 553.70 180.76 L 557.35 181.49 L 561.00 179.23 L 564.65 178.72 L 568.30 179.28 L 571.95 174.64 L 575.60 174.04 L 579.25 181.08 L 582.90 173.79 L 586.55 168.26 L 590.20 174.78 L 593.85 178.80 L 597.50 179.74 L 601.15 178.79 L 604.80 180.26 L 608.45 184.02 L 612.10 179.79 L 615.75 177.84 L 619.40 174.56 L 623.05 175.05 L 626.70 178.75 L 630.35 187.26 L 634.00 183.49 L 637.65 188.88 L 641.30 187.53 L 644.95 181.93 L 648.60 185.41 L 652.25 184.00 L 655.90 185.97 L 659.55 184.05 L 663.20 182.61 L 666.85 185.86 L 670.50 189.07 L 674.15 185.28 L 677.80 183.74 L 681.45 186.27 L 685.10 187.04 L 688.75 189.71 L 692.40 192.27 L 696.05 194.23 L 699.70 193.74 L 703.35 188.17 L 707.00 199.59 L 710.65 199.35 L 714.30 202.14 L 717.95 197.47 L 721.60 195.83 L 725.25 192.62 L 728.90 205.45 L 732.55 202.51 L 736.20 196.37 L 739.85 194.39 L 743.50 188.69 L 747.15 188.27 L 750.80 186.82 L 754.45 188.42 L 758.10 181.26 L 761.75 181.66 L 765.40 185.04 L 769.05 183.51 L 772.70 180.31 L 776.35 178.99 L 780.00 182.98" class="path-2" />
<path d="M 50.00 150.18 L 53.65 153.23 L 57.30 146.51 L 60.95 148.66 L 64.60 154.22 L 68.25 149.09 L 71.90 151.87 L 75.55 158.49 L 79.20 157.30 L 82.85 149.11 L 86.50 140.37 L 90.15 142.24 L 93.80 141.45 L 97.45 149.13 L 101.10 148.56 L 104.75 147.13 L 108.40 147.52 L 112.05 156.61 L 115.70 156.08 L 119.35 144.97 L 123.00 144.47 L 126.65 155.18 L 130.30 158.65 L 133.95 151.35 L 137.60 143.59 L 141.25 144.91 L 144.90 143.68 L 148.55 139.89 L 152.20 132.31 L 155.85 132.76 L 159.50 129.09 L 163.15 126.90 L 166.80 120.67 L 170.45 125.37 L 174.10 123.07 L 177.75 115.34 L 181.40 122.48 L 185.05 116.41 L 188.70 117.31 L 192.35 113.65 L 196.00 118.99 L 199.65 127.76 L 203.30 125.56 L 206.95 123.95 L 210.60 122.68 L 214.25 131.66 L 217.90 131.00 L 221.55 133.37 L 225.20 139.68 L 228.85 132.60 L 232.50 129.20 L 236.15 132.65 L 239.80 128.77 L 243.45 123.79 L 247.10 126.43 L 250.75 129.65 L 254.40 121.75 L 258.05 135.69 L 261.70 129.88 L 265.35 129.00 L 269.00 133.11 L 272.65 140.23 L 276.30 132.07 L 279.95 138.21 L 283.60 139.45 L 287.25 144.97 L 290.90 147.97 L 294.55 147.72 L 298.20 154.61 L 301.85 164.26 L 305.50 166.70 L 309.15 169.20 L 312.80 165.47 L 316.45 164.56 L 320.10 163.74 L 323.75 168.34 L 327.40 166.39 L 331.05 163.02 L 334.70 160.03 L 338.35 159.61 L 342.00 160.38 L 345.65 162.79 L 349.30 162.95 L 352.95 158.90 L 356.60 162.48 L 360.25 159.03 L 363.90 166.29 L 367.55 165.30 L 371.20 167.60 L 374.85 165.09 L 378.50 163.94 L 382.15 166.81 L 385.80 166.73 L 389.45 168.03 L 393.10 173.24 L 396.75 178.45 L 400.40 178.14 L 404.05 177.57 L 407.70 184.54 L 411.35 192.60 L 415.00 196.79 L 418.65 202.81 L 422.30 200.08 L 425.95 198.20 L 429.60 198.35 L 433.25 193.03 L 436.90 193.37 L 440.55 198.26 L 444.20 200.88 L 447.85 196.92 L 451.50 199.66 L 455.15 199.33 L 458.80 206.56 L 462.45 203.93 L 466.10 205.29 L 469.75 207.03 L 473.40 211.76 L 477.05 216.65 L 480.70 225.05 L 484.35 219.07 L 488.00 223.06 L 491.65 229.46 L 495.30 232.01 L 498.95 232.37 L 502.60 228.83 L 506.25 219.25 L 509.90 218.59 L 513.55 215.85 L 517.20 214.07 L 520.85 224.49 L 524.50 228.57 L 528.15 225.44 L 531.80 225.07 L 535.45 221.84 L 539.10 216.94 L 542.75 218.99 L 546.40 207.66 L 550.05 210.83 L 553.70 210.19 L 557.35 216.58 L 561.00 222.29 L 564.65 225.35 L 568.30 222.99 L 571.95 221.48 L 575.60 226.99 L 579.25 226.43 L 582.90 229.54 L 586.55 228.70 L 590.20 230.63 L 593.85 226.29 L 597.50 216.55 L 601.15 205.53 L 604.80 204.28 L 608.45 192.41 L 612.10 193.06 L 615.75 196.32 L 619.40 201.55 L 623.05 204.01 L 626.70 201.68 L 630.35 203.18 L 634.00 203.64 L 637.65 204.17 L 641.30 197.19 L 644.95 197.82 L 648.60 197.31 L 652.25 201.32 L 655.90 197.56 L 659.55 202.32 L 663.20 206.79 L 666.85 203.23 L 670.50 203.97 L 674.15 207.58 L 677.80 212.96 L 681.45 217.65 L 685.10 211.74 L 688.75 215.63 L 692.40 214.49 L 696.05 222.04 L 699.70 215.39 L 703.35 212.66 L 707.00 207.30 L 710.65 206.19 L 714.30 210.92 L 717.95 208.12 L 721.60 209.42 L 725.25 211.58 L 728.90 212.55 L 732.55 202.13 L 736.20 206.77 L 739.85 204.10 L 743.50 207.38 L 747.15 208.63 L 750.80 205.91 L 754.45 198.35 L 758.10 202.54 L 761.75 203.10 L 765.40 200.17 L 769.05 203.36 L 772.70 196.71 L 776.35 192.88 L 780.00 191.07" class="path-3" />
<path d="M 50.00 150.18 L 53.65 144.26 L 57.30 142.09 L 60.95 137.04 L 64.60 139.60 L 68.25 139.34 L 71.90 143.11 L 75.55 143.10 L 79.20 139.14 L 82.85 137.10 L 86.50 131.79 L 90.15 140.19 L 93.80 142.29 L 97.45 133.35 L 101.10 130.54 L 104.75 123.47 L 108.40 118.75 L 112.05 116.85 L 115.70 115.94 L 119.35 114.10 L 123.00 113.09 L 126.65 122.27 L 130.30 123.38 L 133.95 122.69 L 137.60 125.32 L 141.25 130.20 L 144.90 117.96 L 148.55 111.12 L 152.20 109.98 L 155.85 103.76 L 159.50 106.40 L 163.15 112.47 L 166.80 112.26 L 170.45 115.97 L 174.10 125.39 L 177.75 132.41 L 181.40 130.79 L 185.05 125.61 L 188.70 126.04 L 192.35 119.01 L 196.00 115.96 L 199.65 114.64 L 203.30 107.75 L 206.95 98.17 L 210.60 91.23 L 214.25 93.68 L 217.90 92.80 L 221.55 101.09 L 225.20 98.81 L 228.85 98.70 L 232.50 99.38 L 236.15 105.55 L 239.80 111.07 L 243.45 122.30 L 247.10 127.49 L 250.75 126.61 L 254.40 132.09 L 258.05 131.85 L 261.70 128.46 L 265.35 124.84 L 269.00 123.29 L 272.65 118.70 L 276.30 117.08 L 279.95 116.46 L 283.60 114.25 L 287.25 117.13 L 290.90 115.01 L 294.55 114.33 L 298.20 105.40 L 301.85 111.18 L 305.50 104.69 L 309.15 93.91 L 312.80 90.41 L 316.45 90.17 L 320.10 105.29 L 323.75 113.24 L 327.40 118.30 L 331.05 118.39 L 334.70 121.96 L 338.35 118.57 L 342.00 113.24 L 345.65 102.30 L 349.30 106.46 L 352.95 109.57 L 356.60 110.80 L 360.25 107.49 L 363.90 110.58 L 367.55 110.84 L 371.20 107.11 L 374.85 100.99 L 378.50 106.59 L 382.15 100.16 L 385.80 94.00 L 389.45 82.87 L 393.10 80.72 L 396.75 89.74 L 400.40 96.36 L 404.05 90.56 L 407.70 92.64 L 411.35 92.71 L 415.00 96.64 L 418.65 93.36 L 422.30 85.54 L 425.95 82.19 L 429.60 84.05 L 433.25 75.01 L 436.90 76.13 L 440.55 77.98 L 444.20 82.66 L 447.85 81.13 L 451.50 78.17 L 455.15 77.80 L 458.80 88.45 L 462.45 88.05 L 466.10 88.07 L 469.75 70.13 L 473.40 69.72 L 477.05 74.98 L 480.70 75.82 L 484.35 80.00 L 488.00 87.50 L 491.65 80.67 L 495.30 72.33 L 498.95 74.62 L 502.60 65.38 L 506.25 66.88 L 509.90 66.23 L 513.55 75.81 L 517.20 79.33 L 520.85 90.55 L 524.50 88.66 L 528.15 80.42 L 531.80 73.94 L 535.45 77.40 L 539.10 80.02 L 542.75 82.46 L 546.40 77.28 L 550.05 90.43 L 553.70 90.13 L 557.35 90.36 L 561.00 93.79 L 564.65 93.31 L 568.30 105.86 L 571.95 104.07 L 575.60 103.89 L 579.25 104.97 L 582.90 100.94 L 586.55 97.26 L 590.20 100.04 L 593.85 99.47 L 597.50 96.23 L 601.15 88.38 L 604.80 88.97 L 608.45 95.36 L 612.10 99.97 L 615.75 100.85 L 619.40 105.59 L 623.05 110.03 L 626.70 118.21 L 630.35 125.20 L 634.00 121.62 L 637.65 128.43 L 641.30 130.63 L 644.95 132.04 L 648.60 130.40 L 652.25 122.42 L 655.90 122.64 L 659.55 118.97 L 663.20 119.98 L 666.85 118.86 L 670.50 121.26 L 674.15 116.19 L 677.80 123.60 L 681.45 122.99 L 685.10 121.87 L 688.75 115.38 L 692.40 123.77 L 696.05 121.66 L 699.70 117.87 L 703.35 126.73 L 707.00 113.10 L 710.65 114.83 L 714.30 115.69 L 717.95 118.84 L 721.60 115.76 L 725.25 122.00 L 728.90 126.34 L 732.55 131.83 L 736.20 132.10 L 739.85 142.95 L 743.50 148.03 L 747.15 143.26 L 750.80 140.13 L 754.45 144.84 L 758.10 151.92 L 761.75 155.44 L 765.40 146.65 L 769.05 146.45 L 772.70 149.22 L 776.35 150.43 L 780.00 149.06" class="path-4" />
<line x1="50" y1="150.2" x2="780" y2="150.2" stroke="#4b5563" stroke-width="0.8" stroke-dasharray="6 3" />
</svg>