<svg xmlns="http://www.w3.org/2000/svg" viewBox="0 0 800 300" width="800" height="300">
<style>
.axis-line { stroke: #6b7280; stroke-width: 0.5; }
.axis-text { font-family: monospace; font-size: 11px; fill: #9ca3af; }
.title-text { font-family: monospace; font-size: 14px; fill: #d1d5db; font-weight: bold; }
.grid-line { stroke: #374151; stroke-width: 0.3; stroke-dasharray: 4 2; }
.path-0 { fill: none; stroke: #3b82f6; stroke-width: 2; stroke-linecap: round; opacity: 0.85; animation: draw-0 8s ease-in-out 0.0s infinite; stroke-dasharray: 1170; stroke-dashoffset: 1170;}
@keyframes draw-0 { 0% { stroke-dashoffset: 1170; } 38% { stroke-dashoffset: 0; } 62% { stroke-dashoffset: 0; } 100% { stroke-dashoffset: 1170; }}
.path-1 { fill: none; stroke: #ef4444; stroke-width: 2; stroke-linecap: round; opacity: 0.85; animation: draw-1 8s ease-in-out 0.4s infinite; stroke-dasharray: 1210; stroke-dashoffset: 1210;}
@keyframes draw-1 { 0% { stroke-dashoffset: 1210; } 38% { stroke-dashoffset: 0; } 62% { stroke-dashoffset: 0; } 100% { stroke-dashoffset: 1210; }}
.path-2 { fill: none; stroke: #22c55e; stroke-width: 2; stroke-linecap: round; opacity: 0.85; animation: draw-2 8s ease-in-out 0.8s infinite; stroke-dasharray: 1121; stroke-dashoffset: 1121;}
@keyframes draw-2 { 0% { stroke-dashoffset: 1121; } 38% { stroke-dashoffset: 0; } 62% { stroke-dashoffset: 0; } 100% { stroke-dashoffset: 1121; }}
.path-3 { fill: none; stroke: #f59e0b; stroke-width: 2; stroke-linecap: round; opacity: 0.85; animation: draw-3 8s ease-in-out 1.2000000000000002s infinite; stroke-dasharray: 1148; stroke-dashoffset: 1148;}
@keyframes draw-3 { 0% { stroke-dashoffset: 1148; } 38% { stroke-dashoffset: 0; } 62% { stroke-dashoffset: 0; } 100% { stroke-dashoffset: 1148; }}
.path-4 { fill: none; stroke: #a855f7; stroke-width: 2; stroke-linecap: round; opacity: 0.85; animation: draw-4 8s ease-in-out 1.6s infinite; stroke-dasharray: 1147; stroke-dashoffset: 1147;}
@keyframes draw-4 { 0% { stroke-dashoffset: 1147; } 38% { stroke-dashoffset: 0; } 62% { stroke-dashoffset: 0; } 100% { stroke-dashoffset: 1147; }}
</style>
<rect width="800" height="300" rx="8" fill="#0d1117" />
<line x1="50" y1="260.0" x2="780" y2="260.0" class="grid-line" />
<text x="44" y="264.0" text-anchor="end" class="axis-text">-1.5</text>
<line x1="50" y1="216.0" x2="780" y2="216.0" class="grid-line" />
<text x="44" y="220.0" text-anchor="end" class="axis-text">-0.9</text>
<line x1="50" y1="172.0" x2="780" y2="172.0" class="grid-line" />
<text x="44" y="176.0" text-anchor="end" class="axis-text">-0.2</text>
<line x1="50" y1="128.0" x2="780" y2="128.0" class="grid-line" />
<text x="44" y="132.0" text-anchor="end" class="axis-text">0.4</text>
<line x1="50" y1="84.0" x2="780" y2="84.0" class="grid-line" />
<text x="44" y="88.0" text-anchor="end" class="axis-text">1.0</text>
<line x1="50" y1="40.0" x2="780" y2="40.0" class="grid-line" />
<text x="44" y="44.0" text-anchor="end" class="axis-text">1.6</text>
<line x1="50.0" y1="40" x2="50.0" y2="260" class="grid-line" />
<line x1="196.0" y1="40" x2="196.0" y2="260" class="grid-line" />
<line x1="342.0" y1="40" x2="342.0" y2="260" class="grid-line" />
<line x1="488.0" y1="40" x2="488.0" y2="260" class="grid-line" />
<line x1="634.0" y1="40" x2="634.0" y2="260" class="grid-line" />
<line x1="780.0" y1="40" x2="780.0" y2="260" class="grid-line" />
<line x1="50" y1="260" x2="780" y2="260" class="axis-line" />
<line x1="50" y1="40" x2="50" y2="260" class="axis-line" />
<text x="400.0" y="295" text-anchor="middle" class="axis-text">t</text>
<text x="12" y="150.0" text-anchor="middle" class="axis-text" transform="rotate(-90 12 150.0)">W(t)</text>
<text x="400.0" y="22" text-anchor="middle" class="title-text">Brownian Motion</text>
<path d="M 50.00 155.04 L 53.65 149.86 L 57.30 149.14 L 60.95 156.92 L 64.60 150.02 L 68.25 145.16 L 71.90 143.77 L 75.55 150.16 L 79.20 152.65 L 82.85 159.23 L 86.50 162.93 L 90.15 163.11 L 93.80 165.31 L 97.45 169.44 L 101.10 168.63 L 104.75 177.93 L 108.40 177.17 L 112.05 173.25 L 115.70 168.04 L 119.35 159.25 L 123.00 153.24 L 126.65 149.17 L 130.30 156.86 L 133.95 157.02 L 137.60 153.96 L 141.25 146.75 L 144.90 150.61 L 148.55 149.14 L 152.20 152.68 L 155.85 158.85 L 159.50 159.52 L 163.15 153.77 L 166.80 163.51 L 170.45 164.31 L 174.10 163.56 L 177.75 172.16 L 181.40 169.27 L 185.05 171.30 L 188.70 176.16 L 192.35 170.27 L 196.00 164.89 L 199.65 167.76 L 203.30 171.43 L 206.95 168.13 L 210.60 169.86 L 214.25 171.38 L 217.90 176.79 L 221.55 175.93 L 225.20 183.74 L 228.85 173.30 L 232.50 160.30 L 236.15 163.15 L 239.80 163.46 L 243.45 166.24 L 247.10 164.29 L 250.75 165.69 L 254.40 166.97 L 258.05 175.77 L 261.70 170.59 L 265.35 172.93 L 269.00 165.65 L 272.65 174.36 L 276.30 168.30 L 279.95 165.56 L 283.60 165.98 L 287.25 169.61 L 290.90 166.66 L 294.55 166.89 L 298.20 162.47 L 301.85 164.09 L 305.50 166.17 L 309.15 172.07 L 312.80 174.90 L 316.45 171.07 L 320.10 167.81 L 323.75 162.34 L 327.40 163.82 L 331.05 153.69 L 334.70 157.53 L 338.35 151.39 L 342.00 151.53 L 345.65 152.93 L 349.30 150.45 L 352.95 146.79 L 356.60 149.30 L 360.25 150.44 L 363.90 155.10 L 367.55 157.49 L 371.20 159.13 L 374.85 157.82 L 378.50 157.10 L 382.15 162.44 L 385.80 171.16 L 389.45 171.52 L 393.10 167.80 L 396.75 170.28 L 400.40 160.70 L 404.05 164.91 L 407.70 163.11 L 411.35 159.26 L 415.00 172.66 L 418.65 179.47 L 422.30 183.49 L 425.95 180.69 L 429.60 180.46 L 433.25 192.85 L 436.90 188.46 L 440.55 193.61 L 444.20 182.22 L 447.85 176.29 L 451.50 170.14 L 455.15 168.64 L 458.80 168.27 L 462.45 160.46 L 466.10 163.79 L 469.75 168.53 L 473.40 165.35 L 477.05 166.39 L 480.70 169.46 L 484.35 166.58 L 488.00 170.10 L 491.65 169.03 L 495.30 166.57 L 498.95 159.79 L 502.60 160.45 L 506.25 160.83 L 509.90 157.88 L 513.55 157.24 L 517.20 154.75 L 520.85 150.56 L 524.50 156.87 L 528.15 154.13 L 531.80 156.36 L 535.45 155.80 L 539.10 153.93 L 542.75 156.61 L 546.40 159.40 L 550.05 167.61 L 553.70 169.27 L 557.35 161.81 L 561.00 158.61 L 564.65 165.31 L 568.30 161.93 L 571.95 161.96 L 575.60 165.64 L 579.25 159.02 L 582.90 161.84 L 586.55 167.07 L 590.20 161.43 L 593.85 164.28 L 597.50 167.67 L 601.15 170.40 L 604.80 156.99 L 608.45 157.25 L 612.10 158.02 L 615.75 159.19 L 619.40 161.09 L 623.05 159.96 L 626.70 160.12 L 630.35 150.51 L 634.00 146.38 L 637.65 146.39 L 641.30 147.79 L 644.95 149.21 L 648.60 151.77 L 652.25 150.87 L 655.90 146.29 L 659.55 154.64 L 663.20 158.91 L 666.85 151.01 L 670.50 142.54 L 674.15 148.05 L 677.80 140.50 L 681.45 139.62 L 685.10 133.78 L 688.75 140.81 L 692.40 147.69 L 696.05 145.15 L 699.70 149.68 L 703.35 160.19 L 707.00 162.48 L 710.65 160.42 L 714.30 152.27 L 717.95 158.24 L 721.60 160.95 L 725.25 156.54 L 728.90 155.40 L 732.55 155.76 L 736.20 146.01 L 739.85 152.94 L 743.50 151.11 L 747.15 148.41 L 750.80 147.89 L 754.45 137.79 L 758.10 137.09 L 761.75 142.08 L 765.40 146.71 L 769.05 144.58 L 772.70 145.59 L 776.35 146.12 L 780.00 156.14" class="path-0" />
<path d="M 50.00 155.04 L 53.65 148.81 L 57.30 149.68 L 60.95 148.87 L 64.60 147.02 L 68.25 145.04 L 71.90 152.86 L 75.55 166.84 L 79.20 170.20 L 82.85 164.98 L 86.50 166.66 L 90.15 165.48 L 93.80 172.99 L 97.45 170.71 L 101.10 176.84 L 104.75 181.35 L 108.40 179.10 L 112.05 177.82 L 115.70 177.65 L 119.35 173.72 L 123.00 174.55 L 126.65 170.87 L 130.30 174.86 L 133.95 175.39 L 137.60 177.05 L 141.25 179.10 L 144.90 182.50 L 148.55 189.37 L 152.20 194.51 L 155.85 201.11 L 159.50 208.03 L 163.15 197.88 L 166.80 205.78 L 170.45 205.39 L 174.10 207.26 L 177.75 197.93 L 181.40 204.75 L 185.05 196.36 L 188.70 195.44 L 192.35 207.04 L 196.00 201.41 L 199.65 200.57 L 203.30 207.36 L 206.95 205.02 L 210.60 216.23 L 214.25 204.29 L 217.90 207.85 L 221.55 204.50 L 225.20 203.98 L 228.85 204.14 L 232.50 206.17 L 236.15 205.61 L 239.80 212.44 L 243.45 217.41 L 247.10 223.26 L 250.75 224.56 L 254.40 228.84 L 258.05 234.07 L 261.70 232.06 L 265.35 228.44 L 269.00 230.39 L 272.65 233.07 L 276.30 230.72 L 279.95 233.67 L 283.60 229.59 L 287.25 223.50 L 290.90 232.31 L 294.55 233.61 L 298.20 234.62 L 301.85 227.28 L 305.50 226.55 L 309.15 215.50 L 312.80 218.95 L 316.45 210.85 L 320.10 202.76 L 323.75 198.83 L 327.40 200.01 L 331.05 195.24 L 334.70 188.78 L 338.35 186.68 L 342.00 191.34 L 345.65 180.31 L 349.30 182.58 L 352.95 173.98 L 356.60 179.52 L 360.25 175.07 L 363.90 179.03 L 367.55 185.10 L 371.20 182.42 L 374.85 174.48 L 378.50 181.68 L 382.15 180.96 L 385.80 178.96 L 389.45 178.86 L 393.10 181.35 L 396.75 182.10 L 400.40 184.49 L 404.05 180.36 L 407.70 188.48 L 411.35 184.19 L 415.00 178.42 L 418.65 180.93 L 422.30 179.41 L 425.95 177.99 L 429.60 180.35 L 433.25 178.52 L 436.90 174.64 L 440.55 177.77 L 444.20 176.57 L 447.85 173.41 L 451.50 172.01 L 455.15 171.53 L 458.80 165.15 L 462.45 159.39 L 466.10 164.72 L 469.75 165.85 L 473.40 157.86 L 477.05 158.52 L 480.70 161.75 L 484.35 164.82 L 488.00 156.60 L 491.65 156.54 L 495.30 155.51 L 498.95 140.07 L 502.60 139.97 L 506.25 141.95 L 509.90 147.20 L 513.55 146.10 L 517.20 149.47 L 520.85 150.54 L 524.50 147.13 L 528.15 138.80 L 531.80 135.16 L 535.45 124.73 L 539.10 128.79 L 542.75 125.54 L 546.40 124.44 L 550.05 119.84 L 553.70 118.75 L 557.35 124.76 L 561.00 126.07 L 564.65 131.58 L 568.30 130.87 L 571.95 130.63 L 575.60 132.73 L 579.25 127.55 L 582.90 126.17 L 586.55 116.26 L 590.20 119.04 L 593.85 115.99 L 597.50 106.37 L 601.15 102.10 L 604.80 104.03 L 608.45 112.72 L 612.10 115.68 L 615.75 107.19 L 619.40 106.66 L 623.05 105.87 L 626.70 108.32 L 630.35 101.24 L 634.00 108.12 L 637.65 111.83 L 641.30 105.55 L 644.95 108.97 L 648.60 106.03 L 652.25 111.24 L 655.90 115.56 L 659.55 116.45 L 663.20 110.58 L 666.85 101.80 L 670.50 98.31 L 674.15 97.42 L 677.80 97.75 L 681.45 107.16 L 685.10 105.89 L 688.75 109.99 L 692.40 116.67 L 696.05 127.96 L 699.70 136.37 L 703.35 137.78 L 707.00 139.68 L 710.65 145.49 L 714.30 144.66 L 717.95 139.87 L 721.60 129.13 L 725.25 123.57 L 728.90 122.75 L 732.55 119.09 L 736.20 119.57 L 739.85 119.98 L 743.50 114.30 L 747.15 124.91 L 750.80 127.93 L 754.45 124.88 L 758.10 120.66 L 761.75 108.63 L 765.40 118.22 L 769.05 104.93 L 772.70 108.56 L 776.35 111.52 L 780.00 109.61" class="path-1" />
<path d="M 50.00 155.04 L 53.65 156.52 L 57.30 158.14 L 60.95 155.56 L 64.60 150.50 L 68.25 152.94 L 71.90 152.80 L 75.55 151.40 L 79.20 145.16 L 82.85 146.08 L 86.50 143.47 L 90.15 144.61 L 93.80 139.81 L 97.45 139.07 L 101.10 139.51 L 104.75 137.71 L 108.40 136.03 L 112.05 137.18 L 115.70 141.06 L 119.35 149.74 L 123.00 154.05 L 126.65 147.97 L 130.30 146.93 L 133.95 150.33 L 137.60 148.06 L 141.25 144.43 L 144.90 135.32 L 148.55 126.70 L 152.20 125.24 L 155.85 125.26 L 159.50 122.31 L 163.15 118.26 L 166.80 120.24 L 170.45 117.90 L 174.10 108.39 L 177.75 107.92 L 181.40 105.13 L 185.05 109.72 L 188.70 109.64 L 192.35 102.33 L 196.00 98.18 L 199.65 92.46 L 203.30 93.31 L 206.95 85.53 L 210.60 82.99 L 214.25 73.67 L 217.90 76.60 L 221.55 82.79 L 225.20 86.15 L 228.85 83.15 L 232.50 86.25 L 236.15 93.54 L 239.80 100.95 L 243.45 105.44 L 247.10 102.56 L 250.75 102.51 L 254.40 103.45 L 258.05 100.94 L 261.70 95.75 L 265.35 96.52 L 269.00 99.23 L 272.65 94.59 L 276.30 89.89 L 279.95 94.11 L 283.60 95.67 L 287.25 87.33 L 290.90 85.04 L 294.55 95.67 L 298.20 98.64 L 301.85 95.32 L 305.50 94.58 L 309.15 100.96 L 312.80 110.73 L 316.45 109.27 L 320.10 112.01 L 323.75 109.93 L 327.40 103.86 L 331.05 97.11 L 334.70 95.23 L 338.35 88.20 L 342.00 89.47 L 345.65 86.45 L 349.30 95.37 L 352.95 92.91 L 356.60 93.11 L 360.25 99.87 L 363.90 104.01 L 367.55 106.66 L 371.20 109.23 L 374.85 99.42 L 378.50 101.35 L 382.15 91.00 L 385.80 93.43 L 389.45 92.64 L 393.10 95.98 L 396.75 99.06 L 400.40 90.71 L 404.05 102.47 L 407.70 99.39 L 411.35 100.98 L 415.00 97.27 L 418.65 92.31 L 422.30 88.75 L 425.95 89.78 L 429.60 89.30 L 433.25 91.73 L 436.90 85.32 L 440.55 86.95 L 444.20 88.39 L 447.85 90.33 L 451.50 98.36 L 455.15 94.79 L 458.80 100.27 L 462.45 99.81 L 466.10 103.56 L 469.75 105.78 L 473.40 112.84 L 477.05 118.48 L 480.70 123.12 L 484.35 118.73 L 488.00 121.71 L 491.65 120.86 L 495.30 122.44 L 498.95 121.44 L 502.60 113.87 L 506.25 104.68 L 509.90 109.08 L 513.55 111.21 L 517.20 111.15 L 520.85 111.96 L 524.50 114.06 L 528.15 114.27 L 531.80 132.67 L 535.45 132.62 L 539.10 131.22 L 542.75 136.68 L 546.40 138.43 L 550.05 138.79 L 553.70 134.97 L 557.35 138.31 L 561.00 146.92 L 564.65 147.57 L 568.30 149.83 L 571.95 145.08 L 575.60 142.62 L 579.25 145.28 L 582.90 144.43 L 586.55 143.99 L 590.20 147.42 L 593.85 148.75 L 597.50 144.92 L 601.15 140.39 L 604.80 142.06 L 608.45 141.31 L 612.10 138.92 L 615.75 144.08 L 619.40 141.71 L 623.05 137.86 L 626.70 137.54 L 630.35 131.27 L 634.00 129.00 L 637.65 126.61 L 641.30 133.58 L 644.95 134.28 L 648.60 138.92 L 652.25 137.68 L 655.90 141.38 L 659.55 144.41 L 663.20 156.02 L 666.85 150.51 L 670.50 152.90 L 674.15 147.57 L 677.80 155.48 L 681.45 159.65 L 685.10 162.67 L 688.75 171.97 L 692.40 169.89 L 696.05 175.82 L 699.70 181.40 L 703.35 182.63 L 707.00 184.65 L 710.65 187.04 L 714.30 184.31 L 717.95 176.07 L 721.60 174.92 L 725.25 167.90 L 728.90 165.62 L 732.55 163.77 L 736.20 165.08 L 739.85 169.08 L 743.50 170.69 L 747.15 162.75 L 750.80 157.99 L 754.45 166.78 L 758.10 167.87 L 761.75 173.09 L 765.40 172.84 L 769.05 170.01 L 772.70 167.82 L 776.35 167.63 L 780.00 160.86" class="path-2" />
<path d="M 50.00 155.04 L 53.65 155.51 L 57.30 154.10 L 60.95 154.08 L 64.60 154.64 L 68.25 150.20 L 71.90 153.95 L 75.55 158.53 L 79.20 164.31 L 82.85 164.27 L 86.50 158.01 L 90.15 156.84 L 93.80 165.47 L 97.45 168.73 L 101.10 166.62 L 104.75 164.37 L 108.40 163.64 L 112.05 161.11 L 115.70 162.72 L 119.35 157.11 L 123.00 154.79 L 126.65 153.60 L 130.30 151.63 L 133.95 142.44 L 137.60 140.60 L 141.25 132.71 L 144.90 129.82 L 148.55 137.87 L 152.20 141.33 L 155.85 141.71 L 159.50 134.37 L 163.15 137.13 L 166.80 132.87 L 170.45 129.46 L 174.10 119.05 L 177.75 118.94 L 181.40 116.66 L 185.05 113.68 L 188.70 116.36 L 192.35 120.46 L 196.00 124.37 L 199.65 126.52 L 203.30 116.23 L 206.95 111.04 L 210.60 104.14 L 214.25 107.54 L 217.90 118.47 L 221.55 116.22 L 225.20 115.09 L 228.85 107.29 L 232.50 101.24 L 236.15 102.68 L 239.80 105.56 L 243.45 107.85 L 247.10 111.12 L 250.75 117.69 L 254.40 118.93 L 258.05 114.56 L 261.70 112.35 L 265.35 108.02 L 269.00 104.18 L 272.65 109.25 L 276.30 105.39 L 279.95 98.08 L 283.60 97.66 L 287.25 93.73 L 290.90 94.65 L 294.55 99.68 L 298.20 102.98 L 301.85 109.23 L 305.50 102.55 L 309.15 100.02 L 312.80 101.07 L 316.45 100.73 L 320.10 106.04 L 323.75 106.19 L 327.40 106.08 L 331.05 110.85 L 334.70 108.69 L 338.35 111.68 L 342.00 115.63 L 345.65 117.62 L 349.30 116.66 L 352.95 121.91 L 356.60 123.51 L 360.25 129.06 L 363.90 129.66 L 367.55 134.75 L 371.20 133.06 L 374.85 141.95 L 378.50 133.29 L 382.15 132.75 L 385.80 127.17 L 389.45 129.52 L 393.10 138.24 L 396.75 136.23 L 400.40 133.13 L 404.05 141.38 L 407.70 143.80 L 411.35 142.58 L 415.00 140.16 L 418.65 145.10 L 422.30 140.15 L 425.95 140.99 L 429.60 137.45 L 433.25 136.62 L 436.90 134.44 L 440.55 128.74 L 444.20 130.90 L 447.85 133.82 L 451.50 126.74 L 455.15 125.40 L 458.80 126.51 L 462.45 125.72 L 466.10 126.69 L 469.75 129.16 L 473.40 124.67 L 477.05 132.03 L 480.70 139.36 L 484.35 147.20 L 488.00 138.80 L 491.65 138.12 L 495.30 130.61 L 498.95 128.50 L 502.60 136.56 L 506.25 136.32 L 509.90 131.63 L 513.55 130.17 L 517.20 121.96 L 520.85 123.77 L 524.50 127.61 L 528.15 124.87 L 531.80 115.15 L 535.45 116.61 L 539.10 109.54 L 542.75 106.56 L 546.40 107.99 L 550.05 103.89 L 553.70 93.38 L 557.35 102.25 L 561.00 104.46 L 564.65 105.82 L 568.30 101.99 L 571.95 100.70 L 575.60 96.70 L 579.25 97.48 L 582.90 100.20 L 586.55 94.30 L 590.20 102.24 L 593.85 106.27 L 597.50 107.75 L 601.15 110.89 L 604.80 116.74 L 608.45 114.23 L 612.10 114.57 L 615.75 101.19 L 619.40 101.77 L 623.05 104.15 L 626.70 106.21 L 630.35 106.56 L 634.00 95.48 L 637.65 91.09 L 641.30 85.84 L 644.95 83.37 L 648.60 84.18 L 652.25 84.58 L 655.90 88.83 L 659.55 91.63 L 663.20 95.10 L 666.85 95.26 L 670.50 86.24 L 674.15 88.35 L 677.80 82.79 L 681.45 72.81 L 685.10 72.81 L 688.75 65.38 L 692.40 76.36 L 696.05 85.61 L 699.70 94.69 L 703.35 97.63 L 707.00 87.91 L 710.65 93.64 L 714.30 95.93 L 717.95 97.16 L 721.60 104.73 L 725.25 101.23 L 728.90 101.13 L 732.55 103.25 L 736.20 111.70 L 739.85 108.00 L 743.50 109.35 L 747.15 105.88 L 750.80 107.64 L 754.45 104.06 L 758.10 111.56 L 761.75 108.04 L 765.40 112.29 L 769.05 115.99 L 772.70 116.21 L 776.35 113.82 L 780.00 117.44" class="path-3" />
<path d="M 50.00 155.04 L 53.65 150.95 L 57.30 152.60 L 60.95 149.40 L 64.60 155.03 L 68.25 162.80 L 71.90 159.69 L 75.55 159.83 L 79.20 160.64 L 82.85 162.51 L 86.50 170.67 L 90.15 168.98 L 93.80 158.09 L 97.45 154.60 L 101.10 147.92 L 104.75 151.10 L 108.40 145.85 L 112.05 145.39 L 115.70 149.57 L 119.35 147.70 L 123.00 145.55 L 126.65 148.70 L 130.30 149.16 L 133.95 151.20 L 137.60 157.65 L 141.25 166.23 L 144.90 166.53 L 148.55 158.67 L 152.20 151.46 L 155.85 146.47 L 159.50 148.44 L 163.15 161.48 L 166.80 161.60 L 170.45 158.38 L 174.10 166.66 L 177.75 162.69 L 181.40 165.14 L 185.05 171.05 L 188.70 170.77 L 192.35 162.25 L 196.00 146.05 L 199.65 144.06 L 203.30 144.01 L 206.95 144.46 L 210.60 148.99 L 214.25 141.48 L 217.90 145.39 L 221.55 136.70 L 225.20 141.36 L 228.85 138.81 L 232.50 137.36 L 236.15 136.15 L 239.80 136.69 L 243.45 133.59 L 247.10 147.13 L 250.75 147.65 L 254.40 153.04 L 258.05 152.31 L 261.70 152.36 L 265.35 151.92 L 269.00 155.02 L 272.65 149.80 L 276.30 147.52 L 279.95 146.67 L 283.60 145.54 L 287.25 136.88 L 290.90 136.34 L 294.55 132.57 L 298.20 129.13 L 301.85 128.95 L 305.50 136.03 L 309.15 137.44 L 312.80 138.87 L 316.45 141.14 L 320.10 134.66 L 323.75 128.85 L 327.40 132.83 L 331.05 144.04 L 334.70 143.11 L 338.35 148.46 L 342.00 151.90 L 345.65 157.14 L 349.30 160.80 L 352.95 169.92 L 356.60 166.75 L 360.25 171.89 L 363.90 177.03 L 367.55 183.73 L 371.20 178.57 L 374.85 176.89 L 378.50 179.40 L 382.15 177.25 L 385.80 175.32 L 389.45 177.87 L 393.10 174.48 L 396.75 177.81 L 400.40 178.65 L 404.05 190.32 L 407.70 187.67 L 411.35 191.39 L 415.00 189.86 L 418.65 189.94 L 422.30 184.67 L 425.95 186.63 L 429.60 183.27 L 433.25 188.42 L 436.90 180.51 L 440.55 181.88 L 444.20 182.55 L 447.85 186.86 L 451.50 182.96 L 455.15 185.01 L 458.80 178.98 L 462.45 178.59 L 466.10 176.68 L 469.75 177.00 L 473.40 180.87 L 477.05 184.38 L 480.70 175.65 L 484.35 169.00 L 488.00 158.69 L 491.65 160.83 L 495.30 164.60 L 498.95 161.69 L 502.60 162.28 L 506.25 167.06 L 509.90 177.48 L 513.55 177.03 L 517.20 175.86 L 520.85 183.93 L 524.50 184.94 L 528.15 187.32 L 531.80 189.11 L 535.45 186.39 L 539.10 184.95 L 542.75 187.09 L 546.40 181.48 L 550.05 182.76 L 553.70 182.73 L 557.35 180.34 L 561.00 179.01 L 564.65 183.14 L 568.30 188.11 L 571.95 178.79 L 575.60 177.68 L 579.25 179.71 L 582.90 177.86 L 586.55 174.54 L 590.20 184.24 L 593.85 191.04 L 597.50 195.11 L 601.15 196.33 L 604.80 197.22 L 608.45 201.42 L 612.10 197.88 L 615.75 195.14 L 619.40 194.84 L 623.05 190.47 L 626.70 194.70 L 630.35 190.77 L 634.00 193.12 L 637.65 188.44 L 641.30 187.17 L 644.95 191.62 L 648.60 180.74 L 652.25 182.30 L 655.90 172.64 L 659.55 181.87 L 663.20 183.93 L 666.85 184.89 L 670.50 185.25 L 674.15 183.02 L 677.80 187.38 L 681.45 180.43 L 685.10 172.95 L 688.75 177.39 L 692.40 177.52 L 696.05 180.54 L 699.70 185.38 L 703.35 187.44 L 707.00 191.82 L 710.65 182.18 L 714.30 182.63 L 717.95 183.13 L 721.60 191.97 L 725.25 191.12 L 728.90 195.24 L 732.55 196.62 L 736.20 202.21 L 739.85 198.92 L 743.50 197.39 L 747.15 203.28 L 750.80 206.62 L 754.45 200.31 L 758.10 207.46 L 761.75 204.49 L 765.40 201.06 L 769.05 196.94 L 772.70 193.00 L 776.35 192.19 L 780.00 187.27" class="path-4" />
<line x1="50" y1="155.0" x2="780" y2="155.0" stroke="#4b5563" stroke-width="0.8" stroke-dasharray="6 3" />
</svg>