<svg xmlns="http://www.w3.org/2000/svg" viewBox="0 0 800 300" width="800" height="300">
<style>
.axis-line { stroke: #6b7280; stroke-width: 0.5; }
.axis-text { font-family: monospace; font-size: 11px; fill: #9ca3af; }
.title-text { font-family: monospace; font-size: 14px; fill: #d1d5db; font-weight: bold; }
.grid-line { stroke: #374151; stroke-width: 0.3; stroke-dasharray: 4 2; }
.path-0 { fill: none; stroke: #3b82f6; stroke-width: 2; stroke-linecap: round; opacity: 0.85; animation: draw-0 8s ease-in-out 0.0s infinite; stroke-dasharray: 1072; stroke-dashoffset: 1072;}
@keyframes draw-0 { 0% { stroke-dashoffset: 1072; } 38% { stroke-dashoffset: 0; } 62% { stroke-dashoffset: 0; } 100% { stroke-dashoffset: 1072; }}
.path-1 { fill: none; stroke: #ef4444; stroke-width: 2; stroke-linecap: round; opacity: 0.85; animation: draw-1 8s ease-in-out 0.4s infinite; stroke-dasharray: 1055; stroke-dashoffset: 1055;}
@keyframes draw-1 { 0% { stroke-dashoffset: 1055; } 38% { stroke-dashoffset: 0; } 62% { stroke-dashoffset: 0; } 100% { stroke-dashoffset: 1055; }}
.path-2 { fill: none; stroke: #22c55e; stroke-width: 2; stroke-linecap: round; opacity: 0.85; animation: draw-2 8s ease-in-out 0.8s infinite; stroke-dasharray: 1076; stroke-dashoffset: 1076;}
@keyframes draw-2 { 0% { stroke-dashoffset: 1076; } 38% { stroke-dashoffset: 0; } 62% { stroke-dashoffset: 0; } 100% { stroke-dashoffset: 1076; }}
.path-3 { fill: none; stroke: #f59e0b; stroke-width: 2; stroke-linecap: round; opacity: 0.85; animation: draw-3 8s ease-in-out 1.2000000000000002s infinite; stroke-dasharray: 1066; stroke-dashoffset: 1066;}
@keyframes draw-3 { 0% { stroke-dashoffset: 1066; } 38% { stroke-dashoffset: 0; } 62% { stroke-dashoffset: 0; } 100% { stroke-dashoffset: 1066; }}
.path-4 { fill: none; stroke: #a855f7; stroke-width: 2; stroke-linecap: round; opacity: 0.85; animation: draw-4 8s ease-in-out 1.6s infinite; stroke-dasharray: 1108; stroke-dashoffset: 1108;}
@keyframes draw-4 { 0% { stroke-dashoffset: 1108; } 38% { stroke-dashoffset: 0; } 62% { stroke-dashoffset: 0; } 100% { stroke-dashoffset: 1108; }}
</style>
<rect width="800" height="300" rx="8" fill="#0d1117" />
<line x1="50" y1="260.0" x2="780" y2="260.0" class="grid-line" />
<text x="44" y="264.0" text-anchor="end" class="axis-text">-2.7</text>
<line x1="50" y1="216.0" x2="780" y2="216.0" class="grid-line" />
<text x="44" y="220.0" text-anchor="end" class="axis-text">-1.9</text>
<line x1="50" y1="172.0" x2="780" y2="172.0" class="grid-line" />
<text x="44" y="176.0" text-anchor="end" class="axis-text">-1.2</text>
<line x1="50" y1="128.0" x2="780" y2="128.0" class="grid-line" />
<text x="44" y="132.0" text-anchor="end" class="axis-text">-0.4</text>
<line x1="50" y1="84.0" x2="780" y2="84.0" class="grid-line" />
<text x="44" y="88.0" text-anchor="end" class="axis-text">0.4</text>
<line x1="50" y1="40.0" x2="780" y2="40.0" class="grid-line" />
<text x="44" y="44.0" text-anchor="end" class="axis-text">1.1</text>
<line x1="50.0" y1="40" x2="50.0" y2="260" class="grid-line" />
<line x1="196.0" y1="40" x2="196.0" y2="260" class="grid-line" />
<line x1="342.0" y1="40" x2="342.0" y2="260" class="grid-line" />
<line x1="488.0" y1="40" x2="488.0" y2="260" class="grid-line" />
<line x1="634.0" y1="40" x2="634.0" y2="260" class="grid-line" />
<line x1="780.0" y1="40" x2="780.0" y2="260" class="grid-line" />
<line x1="50" y1="260" x2="780" y2="260" class="axis-line" />
<line x1="50" y1="40" x2="50" y2="260" class="axis-line" />
<text x="400.0" y="295" text-anchor="middle" class="axis-text">t</text>
<text x="12" y="150.0" text-anchor="middle" class="axis-text" transform="rotate(-90 12 150.0)">W(t)</text>
<text x="400.0" y="22" text-anchor="middle" class="title-text">Brownian Motion</text>
<path d="M 50.00 104.36 L 53.65 106.70 L 57.30 107.23 L 60.95 117.00 L 64.60 112.10 L 68.25 114.36 L 71.90 109.94 L 75.55 109.59 L 79.20 115.97 L 82.85 117.59 L 86.50 114.11 L 90.15 118.98 L 93.80 117.49 L 97.45 114.04 L 101.10 109.32 L 104.75 112.81 L 108.40 115.11 L 112.05 112.71 L 115.70 111.50 L 119.35 108.70 L 123.00 109.37 L 126.65 109.46 L 130.30 104.59 L 133.95 100.72 L 137.60 99.77 L 141.25 103.87 L 144.90 105.51 L 148.55 108.04 L 152.20 105.36 L 155.85 106.43 L 159.50 109.01 L 163.15 102.24 L 166.80 104.44 L 170.45 102.56 L 174.10 101.85 L 177.75 102.37 L 181.40 104.79 L 185.05 107.79 L 188.70 105.95 L 192.35 111.36 L 196.00 117.34 L 199.65 111.86 L 203.30 114.63 L 206.95 111.27 L 210.60 116.55 L 214.25 109.95 L 217.90 104.27 L 221.55 107.62 L 225.20 97.96 L 228.85 100.09 L 232.50 100.90 L 236.15 106.73 L 239.80 107.25 L 243.45 107.85 L 247.10 104.11 L 250.75 106.78 L 254.40 105.67 L 258.05 105.71 L 261.70 100.62 L 265.35 107.54 L 269.00 111.93 L 272.65 105.81 L 276.30 108.72 L 279.95 116.57 L 283.60 121.12 L 287.25 117.46 L 290.90 125.28 L 294.55 129.37 L 298.20 125.87 L 301.85 126.94 L 305.50 123.31 L 309.15 128.25 L 312.80 126.71 L 316.45 129.13 L 320.10 137.49 L 323.75 135.75 L 327.40 129.66 L 331.05 125.73 L 334.70 121.79 L 338.35 120.11 L 342.00 114.97 L 345.65 113.86 L 349.30 104.20 L 352.95 106.64 L 356.60 110.27 L 360.25 118.86 L 363.90 115.69 L 367.55 115.22 L 371.20 107.97 L 374.85 99.88 L 378.50 104.85 L 382.15 108.49 L 385.80 108.94 L 389.45 102.79 L 393.10 107.78 L 396.75 113.80 L 400.40 111.58 L 404.05 110.00 L 407.70 111.48 L 411.35 118.94 L 415.00 120.22 L 418.65 119.52 L 422.30 125.58 L 425.95 125.28 L 429.60 124.93 L 433.25 126.34 L 436.90 123.70 L 440.55 127.76 L 444.20 132.26 L 447.85 132.26 L 451.50 125.99 L 455.15 122.76 L 458.80 120.70 L 462.45 123.41 L 466.10 122.90 L 469.75 117.22 L 473.40 118.38 L 477.05 121.88 L 480.70 122.85 L 484.35 129.80 L 488.00 131.66 L 491.65 133.20 L 495.30 129.27 L 498.95 125.49 L 502.60 124.83 L 506.25 119.39 L 509.90 119.00 L 513.55 123.64 L 517.20 124.03 L 520.85 123.12 L 524.50 124.49 L 528.15 128.02 L 531.80 128.71 L 535.45 129.26 L 539.10 136.58 L 542.75 141.13 L 546.40 147.27 L 550.05 148.99 L 553.70 145.91 L 557.35 148.39 L 561.00 150.37 L 564.65 151.87 L 568.30 155.01 L 571.95 156.65 L 575.60 163.27 L 579.25 158.80 L 582.90 154.20 L 586.55 159.04 L 590.20 161.91 L 593.85 157.80 L 597.50 159.33 L 601.15 156.82 L 604.80 152.69 L 608.45 150.53 L 612.10 143.71 L 615.75 142.22 L 619.40 136.82 L 623.05 140.39 L 626.70 136.13 L 630.35 139.66 L 634.00 140.45 L 637.65 136.95 L 641.30 133.20 L 644.95 133.22 L 648.60 135.38 L 652.25 135.66 L 655.90 140.57 L 659.55 137.88 L 663.20 146.41 L 666.85 148.95 L 670.50 145.84 L 674.15 148.45 L 677.80 152.24 L 681.45 155.48 L 685.10 156.14 L 688.75 154.29 L 692.40 144.96 L 696.05 142.92 L 699.70 143.45 L 703.35 142.95 L 707.00 147.98 L 710.65 152.18 L 714.30 158.86 L 717.95 161.71 L 721.60 156.00 L 725.25 154.61 L 728.90 150.82 L 732.55 157.39 L 736.20 160.68 L 739.85 169.98 L 743.50 170.88 L 747.15 169.24 L 750.80 158.95 L 754.45 158.04 L 758.10 156.88 L 761.75 150.52 L 765.40 145.52 L 769.05 146.12 L 772.70 141.23 L 776.35 134.76 L 780.00 128.45" class="path-0" />
<path d="M 50.00 104.36 L 53.65 104.57 L 57.30 119.14 L 60.95 117.36 L 64.60 118.44 L 68.25 119.62 L 71.90 114.82 L 75.55 113.78 L 79.20 108.04 L 82.85 107.20 L 86.50 108.54 L 90.15 115.99 L 93.80 114.23 L 97.45 108.80 L 101.10 107.95 L 104.75 112.03 L 108.40 112.65 L 112.05 110.71 L 115.70 116.24 L 119.35 112.60 L 123.00 110.79 L 126.65 114.25 L 130.30 118.27 L 133.95 120.23 L 137.60 124.98 L 141.25 128.83 L 144.90 124.93 L 148.55 124.17 L 152.20 125.18 L 155.85 125.92 L 159.50 122.64 L 163.15 124.15 L 166.80 131.24 L 170.45 129.36 L 174.10 138.69 L 177.75 133.91 L 181.40 134.53 L 185.05 134.15 L 188.70 134.90 L 192.35 135.14 L 196.00 128.34 L 199.65 125.75 L 203.30 131.33 L 206.95 133.53 L 210.60 141.32 L 214.25 145.87 L 217.90 146.00 L 221.55 153.76 L 225.20 153.38 L 228.85 158.23 L 232.50 152.65 L 236.15 152.23 L 239.80 157.26 L 243.45 147.26 L 247.10 150.05 L 250.75 149.70 L 254.40 144.72 L 258.05 145.91 L 261.70 146.26 L 265.35 139.10 L 269.00 133.29 L 272.65 125.88 L 276.30 126.86 L 279.95 120.09 L 283.60 117.85 L 287.25 126.65 L 290.90 125.29 L 294.55 130.14 L 298.20 123.03 L 301.85 113.78 L 305.50 111.56 L 309.15 116.70 L 312.80 116.86 L 316.45 119.96 L 320.10 116.38 L 323.75 118.72 L 327.40 110.76 L 331.05 110.30 L 334.70 110.37 L 338.35 114.60 L 342.00 120.89 L 345.65 125.02 L 349.30 122.25 L 352.95 122.39 L 356.60 124.08 L 360.25 120.71 L 363.90 120.56 L 367.55 115.80 L 371.20 118.03 L 374.85 116.97 L 378.50 119.03 L 382.15 121.50 L 385.80 121.54 L 389.45 124.27 L 393.10 129.06 L 396.75 127.61 L 400.40 129.03 L 404.05 125.35 L 407.70 129.28 L 411.35 133.16 L 415.00 130.45 L 418.65 123.86 L 422.30 124.12 L 425.95 118.13 L 429.60 117.64 L 433.25 118.22 L 436.90 115.89 L 440.55 120.54 L 444.20 117.69 L 447.85 125.91 L 451.50 126.18 L 455.15 129.08 L 458.80 123.78 L 462.45 127.31 L 466.10 123.09 L 469.75 121.52 L 473.40 125.84 L 477.05 134.11 L 480.70 133.84 L 484.35 134.81 L 488.00 134.22 L 491.65 129.95 L 495.30 131.31 L 498.95 129.85 L 502.60 127.50 L 506.25 129.98 L 509.90 124.09 L 513.55 125.83 L 517.20 127.15 L 520.85 126.06 L 524.50 125.56 L 528.15 132.72 L 531.80 140.25 L 535.45 133.91 L 539.10 127.01 L 542.75 129.17 L 546.40 131.77 L 550.05 132.52 L 553.70 129.53 L 557.35 126.17 L 561.00 120.75 L 564.65 125.36 L 568.30 125.22 L 571.95 129.59 L 575.60 122.68 L 579.25 117.87 L 582.90 118.01 L 586.55 122.76 L 590.20 121.41 L 593.85 118.64 L 597.50 120.14 L 601.15 118.71 L 604.80 125.23 L 608.45 123.13 L 612.10 117.99 L 615.75 115.04 L 619.40 117.19 L 623.05 113.76 L 626.70 112.07 L 630.35 115.44 L 634.00 115.11 L 637.65 115.39 L 641.30 121.52 L 644.95 131.63 L 648.60 119.29 L 652.25 118.30 L 655.90 120.16 L 659.55 121.65 L 663.20 121.01 L 666.85 120.08 L 670.50 115.35 L 674.15 110.12 L 677.80 108.65 L 681.45 109.70 L 685.10 106.62 L 688.75 104.06 L 692.40 101.64 L 696.05 104.39 L 699.70 108.06 L 703.35 110.45 L 707.00 114.06 L 710.65 110.21 L 714.30 103.85 L 717.95 108.59 L 721.60 105.87 L 725.25 107.92 L 728.90 112.59 L 732.55 113.05 L 736.20 113.64 L 739.85 117.48 L 743.50 115.42 L 747.15 115.02 L 750.80 120.32 L 754.45 125.28 L 758.10 126.88 L 761.75 123.18 L 765.40 123.60 L 769.05 121.10 L 772.70 119.55 L 776.35 119.25 L 780.00 119.60" class="path-1" />
<path d="M 50.00 104.36 L 53.65 109.55 L 57.30 112.52 L 60.95 115.55 L 64.60 121.43 L 68.25 120.62 L 71.90 120.17 L 75.55 114.81 L 79.20 112.31 L 82.85 110.94 L 86.50 105.18 L 90.15 102.23 L 93.80 97.43 L 97.45 99.30 L 101.10 96.47 L 104.75 100.71 L 108.40 97.80 L 112.05 100.12 L 115.70 101.62 L 119.35 102.80 L 123.00 102.84 L 126.65 107.64 L 130.30 106.33 L 133.95 109.48 L 137.60 108.96 L 141.25 111.42 L 144.90 117.95 L 148.55 116.73 L 152.20 111.55 L 155.85 108.56 L 159.50 109.18 L 163.15 102.15 L 166.80 101.65 L 170.45 107.66 L 174.10 106.46 L 177.75 107.82 L 181.40 108.72 L 185.05 103.49 L 188.70 101.89 L 192.35 103.22 L 196.00 102.27 L 199.65 96.21 L 203.30 97.36 L 206.95 101.66 L 210.60 99.77 L 214.25 98.39 L 217.90 99.60 L 221.55 93.82 L 225.20 104.18 L 228.85 104.05 L 232.50 106.36 L 236.15 107.97 L 239.80 115.71 L 243.45 115.22 L 247.10 118.68 L 250.75 119.93 L 254.40 114.73 L 258.05 114.44 L 261.70 115.01 L 265.35 114.28 L 269.00 113.52 L 272.65 107.29 L 276.30 111.49 L 279.95 106.27 L 283.60 108.03 L 287.25 107.98 L 290.90 109.12 L 294.55 110.58 L 298.20 105.43 L 301.85 105.28 L 305.50 103.44 L 309.15 105.24 L 312.80 105.38 L 316.45 111.36 L 320.10 112.36 L 323.75 110.07 L 327.40 109.67 L 331.05 118.14 L 334.70 124.49 L 338.35 121.28 L 342.00 126.45 L 345.65 122.71 L 349.30 122.30 L 352.95 120.99 L 356.60 127.32 L 360.25 119.50 L 363.90 112.74 L 367.55 115.10 L 371.20 102.86 L 374.85 103.12 L 378.50 102.68 L 382.15 103.39 L 385.80 104.94 L 389.45 106.03 L 393.10 106.85 L 396.75 101.05 L 400.40 102.03 L 404.05 103.84 L 407.70 104.77 L 411.35 108.81 L 415.00 96.87 L 418.65 96.07 L 422.30 97.33 L 425.95 89.21 L 429.60 97.78 L 433.25 100.61 L 436.90 108.16 L 440.55 107.88 L 444.20 104.30 L 447.85 103.41 L 451.50 110.40 L 455.15 115.99 L 458.80 111.87 L 462.45 111.47 L 466.10 114.13 L 469.75 115.52 L 473.40 110.27 L 477.05 113.34 L 480.70 112.34 L 484.35 106.95 L 488.00 100.47 L 491.65 102.59 L 495.30 106.00 L 498.95 105.13 L 502.60 108.28 L 506.25 104.59 L 509.90 108.95 L 513.55 108.98 L 517.20 108.14 L 520.85 111.68 L 524.50 105.89 L 528.15 104.48 L 531.80 95.80 L 535.45 99.29 L 539.10 109.97 L 542.75 111.72 L 546.40 112.05 L 550.05 105.80 L 553.70 113.99 L 557.35 115.87 L 561.00 123.37 L 564.65 133.01 L 568.30 139.70 L 571.95 140.79 L 575.60 134.06 L 579.25 130.42 L 582.90 128.57 L 586.55 128.54 L 590.20 127.68 L 593.85 125.81 L 597.50 124.65 L 601.15 127.97 L 604.80 123.78 L 608.45 120.85 L 612.10 119.07 L 615.75 119.18 L 619.40 132.02 L 623.05 136.74 L 626.70 119.39 L 630.35 122.66 L 634.00 115.78 L 637.65 115.86 L 641.30 123.76 L 644.95 121.64 L 648.60 121.69 L 652.25 125.85 L 655.90 126.66 L 659.55 127.11 L 663.20 132.04 L 666.85 132.36 L 670.50 130.71 L 674.15 132.84 L 677.80 132.90 L 681.45 131.93 L 685.10 136.07 L 688.75 137.39 L 692.40 130.52 L 696.05 133.17 L 699.70 130.96 L 703.35 128.54 L 707.00 134.10 L 710.65 140.04 L 714.30 140.57 L 717.95 135.79 L 721.60 133.80 L 725.25 136.44 L 728.90 139.27 L 732.55 145.45 L 736.20 141.17 L 739.85 141.74 L 743.50 140.46 L 747.15 141.48 L 750.80 135.60 L 754.45 134.39 L 758.10 138.71 L 761.75 133.67 L 765.40 132.28 L 769.05 134.92 L 772.70 127.90 L 776.35 123.01 L 780.00 130.95" class="path-2" />
<path d="M 50.00 104.36 L 53.65 102.94 L 57.30 108.01 L 60.95 114.45 L 64.60 110.20 L 68.25 117.51 L 71.90 117.71 L 75.55 112.70 L 79.20 122.71 L 82.85 121.12 L 86.50 129.13 L 90.15 126.32 L 93.80 130.75 L 97.45 127.41 L 101.10 121.21 L 104.75 123.04 L 108.40 126.89 L 112.05 126.18 L 115.70 120.99 L 119.35 123.85 L 123.00 124.87 L 126.65 130.99 L 130.30 134.68 L 133.95 134.99 L 137.60 132.74 L 141.25 132.27 L 144.90 132.10 L 148.55 138.88 L 152.20 138.48 L 155.85 140.27 L 159.50 145.30 L 163.15 138.18 L 166.80 138.98 L 170.45 145.78 L 174.10 151.38 L 177.75 154.62 L 181.40 154.58 L 185.05 153.17 L 188.70 157.42 L 192.35 162.09 L 196.00 163.47 L 199.65 170.52 L 203.30 166.83 L 206.95 166.66 L 210.60 167.46 L 214.25 156.09 L 217.90 161.07 L 221.55 163.38 L 225.20 162.70 L 228.85 163.32 L 232.50 164.97 L 236.15 166.86 L 239.80 168.66 L 243.45 174.47 L 247.10 175.73 L 250.75 171.66 L 254.40 171.44 L 258.05 167.50 L 261.70 170.02 L 265.35 173.46 L 269.00 171.36 L 272.65 174.20 L 276.30 178.92 L 279.95 177.96 L 283.60 176.00 L 287.25 180.26 L 290.90 188.56 L 294.55 187.97 L 298.20 187.00 L 301.85 191.39 L 305.50 188.90 L 309.15 187.46 L 312.80 183.94 L 316.45 183.70 L 320.10 178.42 L 323.75 177.31 L 327.40 176.84 L 331.05 182.32 L 334.70 178.62 L 338.35 173.42 L 342.00 175.16 L 345.65 172.51 L 349.30 172.30 L 352.95 172.36 L 356.60 171.13 L 360.25 174.17 L 363.90 169.23 L 367.55 174.65 L 371.20 172.41 L 374.85 166.50 L 378.50 164.41 L 382.15 163.16 L 385.80 165.64 L 389.45 166.39 L 393.10 166.88 L 396.75 164.73 L 400.40 168.38 L 404.05 171.60 L 407.70 168.03 L 411.35 165.97 L 415.00 169.61 L 418.65 165.46 L 422.30 170.83 L 425.95 171.24 L 429.60 180.55 L 433.25 179.14 L 436.90 190.46 L 440.55 182.62 L 444.20 180.32 L 447.85 183.55 L 451.50 179.43 L 455.15 177.35 L 458.80 186.13 L 462.45 180.15 L 466.10 178.88 L 469.75 185.77 L 473.40 179.67 L 477.05 177.14 L 480.70 181.42 L 484.35 174.88 L 488.00 180.28 L 491.65 180.23 L 495.30 181.80 L 498.95 183.58 L 502.60 183.98 L 506.25 181.30 L 509.90 179.60 L 513.55 184.30 L 517.20 189.75 L 520.85 186.84 L 524.50 184.82 L 528.15 184.94 L 531.80 190.84 L 535.45 192.13 L 539.10 196.04 L 542.75 202.17 L 546.40 206.30 L 550.05 210.87 L 553.70 212.47 L 557.35 211.55 L 561.00 211.26 L 564.65 208.65 L 568.30 213.77 L 571.95 210.00 L 575.60 207.69 L 579.25 207.94 L 582.90 204.85 L 586.55 207.38 L 590.20 198.47 L 593.85 194.96 L 597.50 200.08 L 601.15 195.30 L 604.80 199.62 L 608.45 195.63 L 612.10 195.97 L 615.75 203.41 L 619.40 207.56 L 623.05 212.95 L 626.70 208.39 L 630.35 206.03 L 634.00 205.18 L 637.65 198.23 L 641.30 204.74 L 644.95 208.14 L 648.60 208.01 L 652.25 202.19 L 655.90 206.90 L 659.55 208.84 L 663.20 216.17 L 666.85 223.35 L 670.50 228.50 L 674.15 222.13 L 677.80 217.55 L 681.45 214.69 L 685.10 221.66 L 688.75 219.79 L 692.40 218.66 L 696.05 216.67 L 699.70 218.33 L 703.35 219.22 L 707.00 223.06 L 710.65 223.10 L 714.30 224.24 L 717.95 222.95 L 721.60 220.97 L 725.25 226.21 L 728.90 223.42 L 732.55 230.75 L 736.20 234.62 L 739.85 233.05 L 743.50 230.99 L 747.15 225.32 L 750.80 224.43 L 754.45 230.80 L 758.10 226.87 L 761.75 225.14 L 765.40 221.61 L 769.05 223.22 L 772.70 219.77 L 776.35 222.13 L 780.00 220.23" class="path-3" />
<path d="M 50.00 104.36 L 53.65 100.00 L 57.30 103.97 L 60.95 99.37 L 64.60 94.97 L 68.25 100.05 L 71.90 93.16 L 75.55 92.21 L 79.20 94.05 L 82.85 89.96 L 86.50 93.89 L 90.15 92.66 L 93.80 87.28 L 97.45 85.94 L 101.10 85.75 L 104.75 87.79 L 108.40 85.51 L 112.05 80.74 L 115.70 76.23 L 119.35 70.21 L 123.00 65.38 L 126.65 68.55 L 130.30 65.49 L 133.95 71.55 L 137.60 70.08 L 141.25 74.48 L 144.90 79.62 L 148.55 79.05 L 152.20 73.66 L 155.85 76.11 L 159.50 76.66 L 163.15 75.44 L 166.80 73.53 L 170.45 71.33 L 174.10 71.67 L 177.75 78.99 L 181.40 78.40 L 185.05 70.71 L 188.70 72.86 L 192.35 84.10 L 196.00 84.21 L 199.65 75.96 L 203.30 74.48 L 206.95 72.13 L 210.60 66.72 L 214.25 76.58 L 217.90 78.90 L 221.55 86.17 L 225.20 90.84 L 228.85 98.09 L 232.50 92.98 L 236.15 92.76 L 239.80 99.10 L 243.45 100.67 L 247.10 103.55 L 250.75 94.55 L 254.40 84.71 L 258.05 86.15 L 261.70 80.90 L 265.35 90.91 L 269.00 95.88 L 272.65 92.87 L 276.30 90.87 L 279.95 93.80 L 283.60 103.61 L 287.25 99.69 L 290.90 98.32 L 294.55 92.42 L 298.20 82.33 L 301.85 84.13 L 305.50 91.31 L 309.15 86.23 L 312.80 90.98 L 316.45 85.65 L 320.10 78.97 L 323.75 78.79 L 327.40 75.05 L 331.05 78.01 L 334.70 83.72 L 338.35 78.60 L 342.00 74.14 L 345.65 80.67 L 349.30 74.62 L 352.95 76.12 L 356.60 71.12 L 360.25 80.70 L 363.90 75.13 L 367.55 77.95 L 371.20 79.50 L 374.85 77.42 L 378.50 73.34 L 382.15 81.96 L 385.80 73.85 L 389.45 77.91 L 393.10 73.43 L 396.75 72.98 L 400.40 78.97 L 404.05 81.55 L 407.70 87.20 L 411.35 90.09 L 415.00 85.92 L 418.65 83.08 L 422.30 84.52 L 425.95 81.54 L 429.60 82.48 L 433.25 78.80 L 436.90 75.36 L 440.55 74.02 L 444.20 77.91 L 447.85 78.33 L 451.50 82.78 L 455.15 79.86 L 458.80 83.47 L 462.45 80.93 L 466.10 82.17 L 469.75 84.76 L 473.40 84.90 L 477.05 81.94 L 480.70 84.98 L 484.35 85.64 L 488.00 85.65 L 491.65 89.83 L 495.30 96.09 L 498.95 99.90 L 502.60 98.14 L 506.25 106.82 L 509.90 105.11 L 513.55 101.55 L 517.20 101.52 L 520.85 95.88 L 524.50 96.36 L 528.15 103.36 L 531.80 105.39 L 535.45 107.26 L 539.10 110.83 L 542.75 110.76 L 546.40 110.96 L 550.05 105.58 L 553.70 105.28 L 557.35 105.34 L 561.00 106.46 L 564.65 110.34 L 568.30 105.66 L 571.95 110.11 L 575.60 114.31 L 579.25 118.93 L 582.90 121.71 L 586.55 126.81 L 590.20 125.83 L 593.85 121.05 L 597.50 123.37 L 601.15 122.01 L 604.80 122.80 L 608.45 125.10 L 612.10 116.43 L 615.75 113.61 L 619.40 108.98 L 623.05 108.94 L 626.70 113.22 L 630.35 117.12 L 634.00 109.75 L 637.65 112.62 L 641.30 108.18 L 644.95 107.66 L 648.60 107.43 L 652.25 105.31 L 655.90 114.26 L 659.55 114.95 L 663.20 115.66 L 666.85 113.80 L 670.50 116.67 L 674.15 117.04 L 677.80 110.85 L 681.45 118.75 L 685.10 112.56 L 688.75 102.25 L 692.40 104.40 L 696.05 102.67 L 699.70 98.40 L 703.35 97.86 L 707.00 99.95 L 710.65 101.55 L 714.30 99.77 L 717.95 97.48 L 721.60 101.53 L 725.25 104.09 L 728.90 104.04 L 732.55 103.33 L 736.20 109.04 L 739.85 113.29 L 743.50 113.21 L 747.15 117.09 L 750.80 121.67 L 754.45 118.34 L 758.10 114.15 L 761.75 120.58 L 765.40 114.35 L 769.05 114.28 L 772.70 113.03 L 776.35 116.76 L 780.00 123.28" class="path-4" />
<line x1="50" y1="104.4" x2="780" y2="104.4" stroke="#4b5563" stroke-width="0.8" stroke-dasharray="6 3" />
</svg>