<svg xmlns="http://www.w3.org/2000/svg" viewBox="0 0 800 300" width="800" height="300">
<style>
.axis-line { stroke: #6b7280; stroke-width: 0.5; }
.axis-text { font-family: monospace; font-size: 11px; fill: #9ca3af; }
.title-text { font-family: monospace; font-size: 14px; fill: #d1d5db; font-weight: bold; }
.grid-line { stroke: #374151; stroke-width: 0.3; stroke-dasharray: 4 2; }
.path-0 { fill: none; stroke: #3b82f6; stroke-width: 2; stroke-linecap: round; opacity: 0.85; animation: draw-0 8s ease-in-out 0.0s infinite; stroke-dasharray: 1104; stroke-dashoffset: 1104;}
@keyframes draw-0 { 0% { stroke-dashoffset: 1104; } 38% { stroke-dashoffset: 0; } 62% { stroke-dashoffset: 0; } 100% { stroke-dashoffset: 1104; }}
.path-1 { fill: none; stroke: #ef4444; stroke-width: 2; stroke-linecap: round; opacity: 0.85; animation: draw-1 8s ease-in-out 0.4s infinite; stroke-dasharray: 1192; stroke-dashoffset: 1192;}
@keyframes draw-1 { 0% { stroke-dashoffset: 1192; } 38% { stroke-dashoffset: 0; } 62% { stroke-dashoffset: 0; } 100% { stroke-dashoffset: 1192; }}
.path-2 { fill: none; stroke: #22c55e; stroke-width: 2; stroke-linecap: round; opacity: 0.85; animation: draw-2 8s ease-in-out 0.8s infinite; stroke-dasharray: 1193; stroke-dashoffset: 1193;}
@keyframes draw-2 { 0% { stroke-dashoffset: 1193; } 38% { stroke-dashoffset: 0; } 62% { stroke-dashoffset: 0; } 100% { stroke-dashoffset: 1193; }}
.path-3 { fill: none; stroke: #f59e0b; stroke-width: 2; stroke-linecap: round; opacity: 0.85; animation: draw-3 8s ease-in-out 1.2000000000000002s infinite; stroke-dasharray: 1182; stroke-dashoffset: 1182;}
@keyframes draw-3 { 0% { stroke-dashoffset: 1182; } 38% { stroke-dashoffset: 0; } 62% { stroke-dashoffset: 0; } 100% { stroke-dashoffset: 1182; }}
.path-4 { fill: none; stroke: #a855f7; stroke-width: 2; stroke-linecap: round; opacity: 0.85; animation: draw-4 8s ease-in-out 1.6s infinite; stroke-dasharray: 1189; stroke-dashoffset: 1189;}
@keyframes draw-4 { 0% { stroke-dashoffset: 1189; } 38% { stroke-dashoffset: 0; } 62% { stroke-dashoffset: 0; } 100% { stroke-dashoffset: 1189; }}
</style>
<rect width="800" height="300" rx="8" fill="#0d1117" />
<line x1="50" y1="260.0" x2="780" y2="260.0" class="grid-line" />
<text x="44" y="264.0" text-anchor="end" class="axis-text">-1.2</text>
<line x1="50" y1="216.0" x2="780" y2="216.0" class="grid-line" />
<text x="44" y="220.0" text-anchor="end" class="axis-text">-0.6</text>
<line x1="50" y1="172.0" x2="780" y2="172.0" class="grid-line" />
<text x="44" y="176.0" text-anchor="end" class="axis-text">-0.0</text>
<line x1="50" y1="128.0" x2="780" y2="128.0" class="grid-line" />
<text x="44" y="132.0" text-anchor="end" class="axis-text">0.6</text>
<line x1="50" y1="84.0" x2="780" y2="84.0" class="grid-line" />
<text x="44" y="88.0" text-anchor="end" class="axis-text">1.2</text>
<line x1="50" y1="40.0" x2="780" y2="40.0" class="grid-line" />
<text x="44" y="44.0" text-anchor="end" class="axis-text">1.8</text>
<line x1="50.0" y1="40" x2="50.0" y2="260" class="grid-line" />
<line x1="196.0" y1="40" x2="196.0" y2="260" class="grid-line" />
<line x1="342.0" y1="40" x2="342.0" y2="260" class="grid-line" />
<line x1="488.0" y1="40" x2="488.0" y2="260" class="grid-line" />
<line x1="634.0" y1="40" x2="634.0" y2="260" class="grid-line" />
<line x1="780.0" y1="40" x2="780.0" y2="260" class="grid-line" />
<line x1="50" y1="260" x2="780" y2="260" class="axis-line" />
<line x1="50" y1="40" x2="50" y2="260" class="axis-line" />
<text x="400.0" y="295" text-anchor="middle" class="axis-text">t</text>
<text x="12" y="150.0" text-anchor="middle" class="axis-text" transform="rotate(-90 12 150.0)">W(t)</text>
<text x="400.0" y="22" text-anchor="middle" class="title-text">Brownian Motion</text>
<path d="M 50.00 170.74 L 53.65 166.11 L 57.30 164.79 L 60.95 169.59 L 64.60 171.76 L 68.25 174.55 L 71.90 176.16 L 75.55 176.59 L 79.20 177.58 L 82.85 178.37 L 86.50 184.53 L 90.15 190.49 L 93.80 192.09 L 97.45 197.81 L 101.10 189.99 L 104.75 188.18 L 108.40 188.75 L 112.05 187.14 L 115.70 188.21 L 119.35 182.15 L 123.00 183.44 L 126.65 180.56 L 130.30 176.67 L 133.95 174.86 L 137.60 175.27 L 141.25 172.07 L 144.90 176.34 L 148.55 185.90 L 152.20 180.59 L 155.85 169.91 L 159.50 170.78 L 163.15 171.02 L 166.80 174.85 L 170.45 176.20 L 174.10 178.11 L 177.75 171.42 L 181.40 175.63 L 185.05 176.26 L 188.70 181.75 L 192.35 182.38 L 196.00 190.77 L 199.65 194.12 L 203.30 190.88 L 206.95 187.81 L 210.60 197.32 L 214.25 198.33 L 217.90 197.37 L 221.55 200.67 L 225.20 197.34 L 228.85 191.45 L 232.50 191.74 L 236.15 197.55 L 239.80 192.86 L 243.45 186.73 L 247.10 189.05 L 250.75 186.39 L 254.40 191.10 L 258.05 189.15 L 261.70 185.59 L 265.35 182.64 L 269.00 187.16 L 272.65 183.56 L 276.30 176.32 L 279.95 176.27 L 283.60 185.98 L 287.25 188.29 L 290.90 181.47 L 294.55 184.56 L 298.20 189.76 L 301.85 194.81 L 305.50 196.60 L 309.15 188.43 L 312.80 191.63 L 316.45 194.25 L 320.10 196.11 L 323.75 198.88 L 327.40 205.42 L 331.05 207.57 L 334.70 204.77 L 338.35 203.37 L 342.00 200.11 L 345.65 198.63 L 349.30 203.02 L 352.95 202.91 L 356.60 201.08 L 360.25 200.91 L 363.90 200.00 L 367.55 198.76 L 371.20 196.66 L 374.85 198.33 L 378.50 190.61 L 382.15 184.95 L 385.80 189.42 L 389.45 186.44 L 393.10 185.97 L 396.75 185.52 L 400.40 184.33 L 404.05 183.90 L 407.70 183.91 L 411.35 189.47 L 415.00 196.84 L 418.65 195.62 L 422.30 188.96 L 425.95 193.73 L 429.60 188.74 L 433.25 197.53 L 436.90 199.79 L 440.55 202.05 L 444.20 200.67 L 447.85 199.21 L 451.50 201.56 L 455.15 202.53 L 458.80 199.46 L 462.45 200.97 L 466.10 206.51 L 469.75 210.56 L 473.40 217.72 L 477.05 208.31 L 480.70 202.46 L 484.35 208.98 L 488.00 220.90 L 491.65 229.37 L 495.30 229.34 L 498.95 225.38 L 502.60 222.47 L 506.25 218.49 L 509.90 212.00 L 513.55 203.47 L 517.20 197.79 L 520.85 202.08 L 524.50 204.29 L 528.15 207.57 L 531.80 214.69 L 535.45 213.84 L 539.10 209.79 L 542.75 210.56 L 546.40 207.28 L 550.05 207.88 L 553.70 204.42 L 557.35 209.03 L 561.00 206.19 L 564.65 209.51 L 568.30 212.50 L 571.95 211.45 L 575.60 211.70 L 579.25 219.92 L 582.90 224.81 L 586.55 223.53 L 590.20 217.12 L 593.85 216.24 L 597.50 206.27 L 601.15 201.77 L 604.80 196.20 L 608.45 200.83 L 612.10 205.03 L 615.75 204.88 L 619.40 205.53 L 623.05 202.18 L 626.70 190.25 L 630.35 187.76 L 634.00 193.61 L 637.65 182.64 L 641.30 187.46 L 644.95 188.95 L 648.60 190.48 L 652.25 198.90 L 655.90 201.14 L 659.55 195.30 L 663.20 194.19 L 666.85 196.36 L 670.50 192.08 L 674.15 195.98 L 677.80 191.57 L 681.45 188.44 L 685.10 188.90 L 688.75 187.06 L 692.40 191.79 L 696.05 196.72 L 699.70 198.24 L 703.35 196.82 L 707.00 195.37 L 710.65 190.28 L 714.30 191.40 L 717.95 197.69 L 721.60 195.71 L 725.25 198.74 L 728.90 192.52 L 732.55 198.65 L 736.20 199.57 L 739.85 199.58 L 743.50 201.42 L 747.15 203.38 L 750.80 200.50 L 754.45 196.17 L 758.10 190.78 L 761.75 185.54 L 765.40 183.94 L 769.05 188.65 L 772.70 193.49 L 776.35 197.38 L 780.00 198.81" class="path-0" />
<path d="M 50.00 170.74 L 53.65 173.53 L 57.30 168.00 L 60.95 167.01 L 64.60 165.57 L 68.25 163.73 L 71.90 162.41 L 75.55 161.98 L 79.20 159.52 L 82.85 159.20 L 86.50 154.18 L 90.15 155.76 L 93.80 159.22 L 97.45 164.96 L 101.10 168.76 L 104.75 169.73 L 108.40 174.55 L 112.05 182.28 L 115.70 194.71 L 119.35 193.02 L 123.00 196.10 L 126.65 198.95 L 130.30 202.39 L 133.95 200.67 L 137.60 191.73 L 141.25 190.90 L 144.90 186.77 L 148.55 181.83 L 152.20 178.66 L 155.85 185.67 L 159.50 182.26 L 163.15 187.36 L 166.80 190.40 L 170.45 194.41 L 174.10 201.84 L 177.75 200.61 L 181.40 198.95 L 185.05 208.24 L 188.70 204.70 L 192.35 202.43 L 196.00 197.34 L 199.65 192.77 L 203.30 196.07 L 206.95 204.76 L 210.60 207.87 L 214.25 208.70 L 217.90 202.53 L 221.55 189.70 L 225.20 187.70 L 228.85 192.06 L 232.50 192.48 L 236.15 185.60 L 239.80 185.37 L 243.45 184.64 L 247.10 182.15 L 250.75 177.04 L 254.40 171.06 L 258.05 168.66 L 261.70 171.49 L 265.35 176.75 L 269.00 171.66 L 272.65 175.76 L 276.30 184.82 L 279.95 179.24 L 283.60 183.92 L 287.25 175.45 L 290.90 175.18 L 294.55 175.30 L 298.20 169.09 L 301.85 169.11 L 305.50 169.00 L 309.15 175.09 L 312.80 162.70 L 316.45 163.35 L 320.10 173.68 L 323.75 177.76 L 327.40 175.99 L 331.05 186.78 L 334.70 187.42 L 338.35 182.30 L 342.00 190.26 L 345.65 181.67 L 349.30 181.65 L 352.95 182.83 L 356.60 184.18 L 360.25 191.73 L 363.90 192.13 L 367.55 189.96 L 371.20 191.15 L 374.85 193.99 L 378.50 193.43 L 382.15 187.87 L 385.80 195.74 L 389.45 194.19 L 393.10 186.45 L 396.75 175.81 L 400.40 178.42 L 404.05 176.12 L 407.70 163.50 L 411.35 169.93 L 415.00 166.52 L 418.65 168.36 L 422.30 164.63 L 425.95 166.84 L 429.60 161.78 L 433.25 157.94 L 436.90 158.21 L 440.55 157.14 L 444.20 160.59 L 447.85 156.21 L 451.50 155.40 L 455.15 154.04 L 458.80 156.11 L 462.45 148.55 L 466.10 153.22 L 469.75 152.07 L 473.40 147.80 L 477.05 148.34 L 480.70 146.11 L 484.35 136.79 L 488.00 140.03 L 491.65 137.11 L 495.30 142.94 L 498.95 145.80 L 502.60 134.15 L 506.25 135.47 L 509.90 142.82 L 513.55 143.56 L 517.20 145.07 L 520.85 146.21 L 524.50 138.88 L 528.15 152.49 L 531.80 141.42 L 535.45 140.65 L 539.10 140.23 L 542.75 140.71 L 546.40 136.24 L 550.05 138.11 L 553.70 133.43 L 557.35 138.07 L 561.00 143.23 L 564.65 144.29 L 568.30 155.00 L 571.95 158.11 L 575.60 152.97 L 579.25 149.96 L 582.90 150.63 L 586.55 155.66 L 590.20 156.21 L 593.85 158.58 L 597.50 152.76 L 601.15 146.48 L 604.80 152.91 L 608.45 157.90 L 612.10 158.15 L 615.75 154.22 L 619.40 165.72 L 623.05 162.39 L 626.70 157.77 L 630.35 163.98 L 634.00 156.94 L 637.65 161.01 L 641.30 157.53 L 644.95 154.05 L 648.60 154.70 L 652.25 155.73 L 655.90 159.11 L 659.55 165.63 L 663.20 170.57 L 666.85 171.69 L 670.50 168.50 L 674.15 173.52 L 677.80 162.61 L 681.45 168.70 L 685.10 164.24 L 688.75 173.80 L 692.40 169.40 L 696.05 174.55 L 699.70 175.19 L 703.35 179.10 L 707.00 188.78 L 710.65 192.75 L 714.30 192.12 L 717.95 192.30 L 721.60 189.65 L 725.25 190.79 L 728.90 188.42 L 732.55 196.04 L 736.20 198.66 L 739.85 191.55 L 743.50 187.59 L 747.15 177.10 L 750.80 180.71 L 754.45 187.36 L 758.10 190.82 L 761.75 184.57 L 765.40 183.21 L 769.05 182.19 L 772.70 183.45 L 776.35 174.45 L 780.00 169.30" class="path-1" />
<path d="M 50.00 170.74 L 53.65 156.23 L 57.30 161.45 L 60.95 163.03 L 64.60 169.64 L 68.25 163.70 L 71.90 169.21 L 75.55 173.68 L 79.20 170.70 L 82.85 163.28 L 86.50 158.74 L 90.15 156.59 L 93.80 163.18 L 97.45 164.91 L 101.10 157.91 L 104.75 159.07 L 108.40 154.03 L 112.05 154.76 L 115.70 151.04 L 119.35 157.68 L 123.00 163.49 L 126.65 157.61 L 130.30 158.07 L 133.95 161.28 L 137.60 163.26 L 141.25 166.15 L 144.90 160.75 L 148.55 168.61 L 152.20 172.34 L 155.85 167.07 L 159.50 166.08 L 163.15 168.39 L 166.80 170.51 L 170.45 169.04 L 174.10 162.87 L 177.75 165.95 L 181.40 166.21 L 185.05 167.89 L 188.70 167.45 L 192.35 167.05 L 196.00 173.49 L 199.65 171.65 L 203.30 173.14 L 206.95 171.92 L 210.60 169.35 L 214.25 166.41 L 217.90 164.59 L 221.55 159.74 L 225.20 157.06 L 228.85 162.30 L 232.50 168.70 L 236.15 175.64 L 239.80 179.91 L 243.45 184.12 L 247.10 181.81 L 250.75 181.40 L 254.40 183.36 L 258.05 180.02 L 261.70 172.33 L 265.35 164.65 L 269.00 157.72 L 272.65 164.85 L 276.30 171.33 L 279.95 168.54 L 283.60 166.32 L 287.25 185.53 L 290.90 185.66 L 294.55 184.56 L 298.20 179.21 L 301.85 179.67 L 305.50 183.30 L 309.15 179.97 L 312.80 185.15 L 316.45 189.03 L 320.10 184.75 L 323.75 183.88 L 327.40 181.22 L 331.05 188.78 L 334.70 186.08 L 338.35 183.31 L 342.00 182.20 L 345.65 187.27 L 349.30 184.12 L 352.95 179.68 L 356.60 177.28 L 360.25 188.80 L 363.90 203.31 L 367.55 206.57 L 371.20 207.99 L 374.85 218.43 L 378.50 216.24 L 382.15 214.56 L 385.80 210.36 L 389.45 211.19 L 393.10 210.59 L 396.75 214.52 L 400.40 212.73 L 404.05 216.66 L 407.70 205.16 L 411.35 210.56 L 415.00 211.73 L 418.65 217.42 L 422.30 214.16 L 425.95 207.36 L 429.60 210.47 L 433.25 209.15 L 436.90 213.62 L 440.55 207.77 L 444.20 206.06 L 447.85 197.25 L 451.50 195.14 L 455.15 180.15 L 458.80 186.08 L 462.45 183.61 L 466.10 190.64 L 469.75 190.31 L 473.40 193.80 L 477.05 187.39 L 480.70 183.88 L 484.35 185.36 L 488.00 195.06 L 491.65 201.01 L 495.30 201.34 L 498.95 193.63 L 502.60 189.72 L 506.25 198.78 L 509.90 190.35 L 513.55 191.41 L 517.20 190.01 L 520.85 203.33 L 524.50 198.65 L 528.15 193.26 L 531.80 187.21 L 535.45 182.83 L 539.10 180.61 L 542.75 183.21 L 546.40 180.14 L 550.05 175.61 L 553.70 180.61 L 557.35 177.45 L 561.00 179.78 L 564.65 183.07 L 568.30 184.62 L 571.95 176.74 L 575.60 183.78 L 579.25 178.48 L 582.90 178.33 L 586.55 181.90 L 590.20 190.18 L 593.85 186.78 L 597.50 182.08 L 601.15 181.42 L 604.80 177.43 L 608.45 177.50 L 612.10 171.88 L 615.75 169.74 L 619.40 168.64 L 623.05 170.63 L 626.70 164.28 L 630.35 166.36 L 634.00 168.43 L 637.65 169.45 L 641.30 164.61 L 644.95 161.07 L 648.60 163.39 L 652.25 159.75 L 655.90 163.67 L 659.55 160.45 L 663.20 173.77 L 666.85 167.19 L 670.50 159.07 L 674.15 159.20 L 677.80 159.30 L 681.45 161.14 L 685.10 154.21 L 688.75 146.64 L 692.40 143.19 L 696.05 145.01 L 699.70 141.75 L 703.35 148.76 L 707.00 148.71 L 710.65 156.12 L 714.30 154.64 L 717.95 157.68 L 721.60 168.04 L 725.25 171.76 L 728.90 168.53 L 732.55 165.78 L 736.20 163.55 L 739.85 176.89 L 743.50 179.10 L 747.15 177.86 L 750.80 185.72 L 754.45 188.68 L 758.10 193.83 L 761.75 190.81 L 765.40 183.99 L 769.05 182.32 L 772.70 185.77 L 776.35 188.01 L 780.00 186.62" class="path-2" />
<path d="M 50.00 170.74 L 53.65 171.81 L 57.30 162.26 L 60.95 166.30 L 64.60 164.49 L 68.25 165.87 L 71.90 161.41 L 75.55 166.79 L 79.20 165.18 L 82.85 178.27 L 86.50 177.57 L 90.15 172.97 L 93.80 172.38 L 97.45 172.85 L 101.10 170.44 L 104.75 170.53 L 108.40 175.72 L 112.05 180.33 L 115.70 180.67 L 119.35 191.58 L 123.00 193.18 L 126.65 192.49 L 130.30 202.48 L 133.95 208.77 L 137.60 216.91 L 141.25 221.80 L 144.90 223.70 L 148.55 221.14 L 152.20 216.33 L 155.85 212.85 L 159.50 211.82 L 163.15 223.71 L 166.80 231.04 L 170.45 234.62 L 174.10 229.94 L 177.75 222.30 L 181.40 215.92 L 185.05 217.65 L 188.70 217.00 L 192.35 218.72 L 196.00 223.36 L 199.65 222.89 L 203.30 226.19 L 206.95 220.44 L 210.60 211.62 L 214.25 208.12 L 217.90 204.59 L 221.55 199.29 L 225.20 199.58 L 228.85 196.69 L 232.50 192.39 L 236.15 191.85 L 239.80 187.01 L 243.45 183.10 L 247.10 180.02 L 250.75 181.22 L 254.40 186.79 L 258.05 197.28 L 261.70 191.78 L 265.35 186.58 L 269.00 191.06 L 272.65 191.13 L 276.30 193.10 L 279.95 197.02 L 283.60 186.35 L 287.25 186.74 L 290.90 186.72 L 294.55 189.79 L 298.20 190.21 L 301.85 186.75 L 305.50 182.31 L 309.15 181.14 L 312.80 171.43 L 316.45 169.58 L 320.10 168.85 L 323.75 167.74 L 327.40 163.87 L 331.05 156.70 L 334.70 158.75 L 338.35 162.72 L 342.00 162.08 L 345.65 166.32 L 349.30 167.59 L 352.95 173.24 L 356.60 167.16 L 360.25 163.04 L 363.90 159.55 L 367.55 160.23 L 371.20 166.19 L 374.85 165.91 L 378.50 168.66 L 382.15 172.47 L 385.80 167.00 L 389.45 164.64 L 393.10 165.22 L 396.75 165.05 L 400.40 166.65 L 404.05 165.15 L 407.70 160.60 L 411.35 162.69 L 415.00 168.49 L 418.65 171.01 L 422.30 178.65 L 425.95 176.92 L 429.60 171.49 L 433.25 169.49 L 436.90 170.03 L 440.55 168.55 L 444.20 165.17 L 447.85 159.70 L 451.50 167.09 L 455.15 163.50 L 458.80 173.42 L 462.45 175.05 L 466.10 175.20 L 469.75 162.57 L 473.40 163.33 L 477.05 163.64 L 480.70 158.58 L 484.35 158.39 L 488.00 166.31 L 491.65 161.65 L 495.30 165.46 L 498.95 162.97 L 502.60 163.71 L 506.25 165.96 L 509.90 160.11 L 513.55 163.61 L 517.20 157.71 L 520.85 154.89 L 524.50 155.22 L 528.15 143.90 L 531.80 149.49 L 535.45 154.32 L 539.10 151.81 L 542.75 147.58 L 546.40 139.19 L 550.05 137.81 L 553.70 135.77 L 557.35 141.78 L 561.00 148.49 L 564.65 140.29 L 568.30 131.43 L 571.95 138.76 L 575.60 144.68 L 579.25 141.19 L 582.90 138.14 L 586.55 136.69 L 590.20 133.64 L 593.85 127.13 L 597.50 134.39 L 601.15 147.94 L 604.80 146.64 L 608.45 146.15 L 612.10 151.10 L 615.75 145.60 L 619.40 146.65 L 623.05 141.69 L 626.70 133.24 L 630.35 131.21 L 634.00 124.72 L 637.65 120.47 L 641.30 122.79 L 644.95 119.20 L 648.60 111.31 L 652.25 107.63 L 655.90 100.83 L 659.55 102.42 L 663.20 97.49 L 666.85 98.30 L 670.50 89.80 L 674.15 84.13 L 677.80 85.40 L 681.45 90.64 L 685.10 85.80 L 688.75 84.11 L 692.40 79.08 L 696.05 81.46 L 699.70 91.40 L 703.35 93.31 L 707.00 86.69 L 710.65 84.83 L 714.30 86.36 L 717.95 88.51 L 721.60 85.43 L 725.25 88.76 L 728.90 71.23 L 732.55 72.32 L 736.20 79.39 L 739.85 73.33 L 743.50 71.06 L 747.15 69.50 L 750.80 65.38 L 754.45 69.22 L 758.10 76.03 L 761.75 80.54 L 765.40 87.89 L 769.05 91.78 L 772.70 96.26 L 776.35 92.04 L 780.00 83.03" class="path-3" />
<path d="M 50.00 170.74 L 53.65 168.43 L 57.30 169.12 L 60.95 174.19 L 64.60 176.20 L 68.25 182.96 L 71.90 177.71 L 75.55 183.53 L 79.20 175.94 L 82.85 185.46 L 86.50 180.26 L 90.15 179.53 L 93.80 176.37 L 97.45 173.54 L 101.10 172.35 L 104.75 175.46 L 108.40 176.90 L 112.05 182.59 L 115.70 181.34 L 119.35 190.05 L 123.00 182.62 L 126.65 186.65 L 130.30 190.99 L 133.95 193.73 L 137.60 187.21 L 141.25 185.92 L 144.90 176.03 L 148.55 172.17 L 152.20 164.34 L 155.85 170.11 L 159.50 166.72 L 163.15 168.33 L 166.80 166.23 L 170.45 168.44 L 174.10 176.36 L 177.75 159.34 L 181.40 162.34 L 185.05 156.34 L 188.70 145.72 L 192.35 134.13 L 196.00 127.47 L 199.65 128.80 L 203.30 125.51 L 206.95 137.14 L 210.60 138.16 L 214.25 138.02 L 217.90 137.05 L 221.55 125.47 L 225.20 126.16 L 228.85 119.62 L 232.50 118.08 L 236.15 121.72 L 239.80 114.49 L 243.45 114.37 L 247.10 122.30 L 250.75 121.35 L 254.40 122.64 L 258.05 123.36 L 261.70 120.34 L 265.35 124.95 L 269.00 131.45 L 272.65 138.95 L 276.30 145.35 L 279.95 152.78 L 283.60 153.92 L 287.25 160.86 L 290.90 159.43 L 294.55 152.83 L 298.20 156.80 L 301.85 154.02 L 305.50 151.34 L 309.15 148.72 L 312.80 156.21 L 316.45 155.96 L 320.10 159.68 L 323.75 153.99 L 327.40 146.48 L 331.05 143.49 L 334.70 140.77 L 338.35 136.45 L 342.00 139.95 L 345.65 141.23 L 349.30 143.16 L 352.95 147.71 L 356.60 149.00 L 360.25 159.97 L 363.90 155.72 L 367.55 157.14 L 371.20 160.99 L 374.85 159.82 L 378.50 155.46 L 382.15 150.25 L 385.80 154.09 L 389.45 149.82 L 393.10 154.54 L 396.75 146.86 L 400.40 129.21 L 404.05 119.59 L 407.70 118.90 L 411.35 122.28 L 415.00 124.60 L 418.65 130.67 L 422.30 125.26 L 425.95 118.70 L 429.60 121.33 L 433.25 121.20 L 436.90 129.67 L 440.55 125.46 L 444.20 119.71 L 447.85 115.82 L 451.50 122.10 L 455.15 116.61 L 458.80 122.88 L 462.45 121.71 L 466.10 113.30 L 469.75 113.96 L 473.40 115.74 L 477.05 121.93 L 480.70 122.35 L 484.35 121.79 L 488.00 123.58 L 491.65 127.62 L 495.30 121.49 L 498.95 127.54 L 502.60 133.27 L 506.25 133.09 L 509.90 132.17 L 513.55 128.62 L 517.20 123.91 L 520.85 122.96 L 524.50 125.89 L 528.15 125.61 L 531.80 128.55 L 535.45 118.80 L 539.10 119.31 L 542.75 120.45 L 546.40 120.55 L 550.05 129.14 L 553.70 130.57 L 557.35 129.79 L 561.00 135.74 L 564.65 134.96 L 568.30 139.38 L 571.95 137.96 L 575.60 133.18 L 579.25 133.15 L 582.90 127.02 L 586.55 126.32 L 590.20 124.71 L 593.85 122.23 L 597.50 119.91 L 601.15 124.84 L 604.80 126.77 L 608.45 126.55 L 612.10 126.69 L 615.75 127.65 L 619.40 127.89 L 623.05 128.30 L 626.70 136.53 L 630.35 137.71 L 634.00 137.27 L 637.65 139.50 L 641.30 139.98 L 644.95 149.48 L 648.60 149.73 L 652.25 150.78 L 655.90 147.73 L 659.55 146.47 L 663.20 146.34 L 666.85 149.90 L 670.50 142.23 L 674.15 147.26 L 677.80 142.59 L 681.45 147.05 L 685.10 148.96 L 688.75 149.82 L 692.40 147.32 L 696.05 144.19 L 699.70 137.30 L 703.35 137.49 L 707.00 130.39 L 710.65 136.19 L 714.30 142.73 L 717.95 143.31 L 721.60 150.94 L 725.25 147.88 L 728.90 146.29 L 732.55 136.12 L 736.20 132.53 L 739.85 145.77 L 743.50 143.90 L 747.15 149.88 L 750.80 143.24 L 754.45 152.53 L 758.10 146.05 L 761.75 143.31 L 765.40 144.45 L 769.05 136.25 L 772.70 140.10 L 776.35 141.11 L 780.00 147.86" class="path-4" />
<line x1="50" y1="170.7" x2="780" y2="170.7" stroke="#4b5563" stroke-width="0.8" stroke-dasharray="6 3" />
</svg>