<svg xmlns="http://www.w3.org/2000/svg" viewBox="0 0 800 300" width="800" height="300">
<style>
.axis-line { stroke: #6b7280; stroke-width: 0.5; }
.axis-text { font-family: monospace; font-size: 11px; fill: #9ca3af; }
.title-text { font-family: monospace; font-size: 14px; fill: #d1d5db; font-weight: bold; }
.grid-line { stroke: #374151; stroke-width: 0.3; stroke-dasharray: 4 2; }
.path-0 { fill: none; stroke: #3b82f6; stroke-width: 2; stroke-linecap: round; opacity: 0.85; animation: draw-0 8s ease-in-out 0.0s infinite; stroke-dasharray: 1151; stroke-dashoffset: 1151;}
@keyframes draw-0 { 0% { stroke-dashoffset: 1151; } 38% { stroke-dashoffset: 0; } 62% { stroke-dashoffset: 0; } 100% { stroke-dashoffset: 1151; }}
.path-1 { fill: none; stroke: #ef4444; stroke-width: 2; stroke-linecap: round; opacity: 0.85; animation: draw-1 8s ease-in-out 0.4s infinite; stroke-dasharray: 1213; stroke-dashoffset: 1213;}
@keyframes draw-1 { 0% { stroke-dashoffset: 1213; } 38% { stroke-dashoffset: 0; } 62% { stroke-dashoffset: 0; } 100% { stroke-dashoffset: 1213; }}
.path-2 { fill: none; stroke: #22c55e; stroke-width: 2; stroke-linecap: round; opacity: 0.85; animation: draw-2 8s ease-in-out 0.8s infinite; stroke-dasharray: 1191; stroke-dashoffset: 1191;}
@keyframes draw-2 { 0% { stroke-dashoffset: 1191; } 38% { stroke-dashoffset: 0; } 62% { stroke-dashoffset: 0; } 100% { stroke-dashoffset: 1191; }}
.path-3 { fill: none; stroke: #f59e0b; stroke-width: 2; stroke-linecap: round; opacity: 0.85; animation: draw-3 8s ease-in-out 1.2000000000000002s infinite; stroke-dasharray: 1205; stroke-dashoffset: 1205;}
@keyframes draw-3 { 0% { stroke-dashoffset: 1205; } 38% { stroke-dashoffset: 0; } 62% { stroke-dashoffset: 0; } 100% { stroke-dashoffset: 1205; }}
.path-4 { fill: none; stroke: #a855f7; stroke-width: 2; stroke-linecap: round; opacity: 0.85; animation: draw-4 8s ease-in-out 1.6s infinite; stroke-dasharray: 1108; stroke-dashoffset: 1108;}
@keyframes draw-4 { 0% { stroke-dashoffset: 1108; } 38% { stroke-dashoffset: 0; } 62% { stroke-dashoffset: 0; } 100% { stroke-dashoffset: 1108; }}
</style>
<rect width="800" height="300" rx="8" fill="#0d1117" />
<line x1="50" y1="260.0" x2="780" y2="260.0" class="grid-line" />
<text x="44" y="264.0" text-anchor="end" class="axis-text">-1.5</text>
<line x1="50" y1="216.0" x2="780" y2="216.0" class="grid-line" />
<text x="44" y="220.0" text-anchor="end" class="axis-text">-0.9</text>
<line x1="50" y1="172.0" x2="780" y2="172.0" class="grid-line" />
<text x="44" y="176.0" text-anchor="end" class="axis-text">-0.3</text>
<line x1="50" y1="128.0" x2="780" y2="128.0" class="grid-line" />
<text x="44" y="132.0" text-anchor="end" class="axis-text">0.3</text>
<line x1="50" y1="84.0" x2="780" y2="84.0" class="grid-line" />
<text x="44" y="88.0" text-anchor="end" class="axis-text">0.9</text>
<line x1="50" y1="40.0" x2="780" y2="40.0" class="grid-line" />
<text x="44" y="44.0" text-anchor="end" class="axis-text">1.6</text>
<line x1="50.0" y1="40" x2="50.0" y2="260" class="grid-line" />
<line x1="196.0" y1="40" x2="196.0" y2="260" class="grid-line" />
<line x1="342.0" y1="40" x2="342.0" y2="260" class="grid-line" />
<line x1="488.0" y1="40" x2="488.0" y2="260" class="grid-line" />
<line x1="634.0" y1="40" x2="634.0" y2="260" class="grid-line" />
<line x1="780.0" y1="40" x2="780.0" y2="260" class="grid-line" />
<line x1="50" y1="260" x2="780" y2="260" class="axis-line" />
<line x1="50" y1="40" x2="50" y2="260" class="axis-line" />
<text x="400.0" y="295" text-anchor="middle" class="axis-text">t</text>
<text x="12" y="150.0" text-anchor="middle" class="axis-text" transform="rotate(-90 12 150.0)">W(t)</text>
<text x="400.0" y="22" text-anchor="middle" class="title-text">Brownian Motion</text>
<path d="M 50.00 151.75 L 53.65 154.67 L 57.30 146.75 L 60.95 147.17 L 64.60 154.51 L 68.25 155.49 L 71.90 149.28 L 75.55 146.80 L 79.20 136.86 L 82.85 131.29 L 86.50 128.38 L 90.15 118.17 L 93.80 116.78 L 97.45 115.51 L 101.10 116.09 L 104.75 111.37 L 108.40 107.66 L 112.05 106.51 L 115.70 100.11 L 119.35 100.06 L 123.00 113.63 L 126.65 117.10 L 130.30 120.00 L 133.95 113.56 L 137.60 114.79 L 141.25 116.39 L 144.90 114.41 L 148.55 114.72 L 152.20 118.64 L 155.85 120.76 L 159.50 114.14 L 163.15 112.85 L 166.80 121.56 L 170.45 131.77 L 174.10 138.51 L 177.75 141.15 L 181.40 141.10 L 185.05 142.31 L 188.70 139.54 L 192.35 148.54 L 196.00 149.94 L 199.65 155.03 L 203.30 157.03 L 206.95 168.36 L 210.60 172.32 L 214.25 174.95 L 217.90 182.00 L 221.55 182.08 L 225.20 187.62 L 228.85 188.81 L 232.50 192.23 L 236.15 202.11 L 239.80 206.65 L 243.45 204.50 L 247.10 200.04 L 250.75 192.70 L 254.40 191.81 L 258.05 196.22 L 261.70 201.33 L 265.35 204.61 L 269.00 199.54 L 272.65 200.77 L 276.30 207.15 L 279.95 209.12 L 283.60 210.37 L 287.25 203.60 L 290.90 205.48 L 294.55 205.51 L 298.20 205.54 L 301.85 202.70 L 305.50 199.68 L 309.15 205.75 L 312.80 198.03 L 316.45 192.87 L 320.10 193.74 L 323.75 192.24 L 327.40 200.82 L 331.05 201.63 L 334.70 191.97 L 338.35 199.32 L 342.00 203.05 L 345.65 201.14 L 349.30 206.15 L 352.95 220.24 L 356.60 213.88 L 360.25 217.08 L 363.90 217.70 L 367.55 222.23 L 371.20 219.26 L 374.85 214.96 L 378.50 217.41 L 382.15 220.00 L 385.80 214.94 L 389.45 209.18 L 393.10 205.82 L 396.75 203.59 L 400.40 203.58 L 404.05 199.99 L 407.70 203.32 L 411.35 200.87 L 415.00 198.56 L 418.65 204.62 L 422.30 205.19 L 425.95 208.54 L 429.60 203.82 L 433.25 204.53 L 436.90 198.95 L 440.55 198.25 L 444.20 201.89 L 447.85 195.20 L 451.50 188.99 L 455.15 187.92 L 458.80 188.65 L 462.45 189.33 L 466.10 187.53 L 469.75 180.65 L 473.40 179.67 L 477.05 175.20 L 480.70 181.23 L 484.35 186.30 L 488.00 182.83 L 491.65 175.85 L 495.30 182.12 L 498.95 182.94 L 502.60 186.94 L 506.25 177.27 L 509.90 183.61 L 513.55 189.54 L 517.20 189.13 L 520.85 201.70 L 524.50 203.52 L 528.15 204.01 L 531.80 200.46 L 535.45 195.59 L 539.10 193.11 L 542.75 197.23 L 546.40 200.86 L 550.05 207.97 L 553.70 206.70 L 557.35 209.44 L 561.00 200.30 L 564.65 201.99 L 568.30 207.86 L 571.95 206.71 L 575.60 208.06 L 579.25 206.88 L 582.90 204.60 L 586.55 203.50 L 590.20 205.87 L 593.85 212.51 L 597.50 210.19 L 601.15 203.91 L 604.80 201.16 L 608.45 199.70 L 612.10 209.87 L 615.75 209.86 L 619.40 209.55 L 623.05 209.51 L 626.70 209.14 L 630.35 218.84 L 634.00 217.78 L 637.65 218.05 L 641.30 211.33 L 644.95 221.41 L 648.60 220.71 L 652.25 224.48 L 655.90 229.28 L 659.55 231.70 L 663.20 229.96 L 666.85 232.28 L 670.50 231.82 L 674.15 234.62 L 677.80 225.24 L 681.45 231.60 L 685.10 225.61 L 688.75 223.37 L 692.40 222.79 L 696.05 224.52 L 699.70 228.72 L 703.35 226.37 L 707.00 228.30 L 710.65 225.93 L 714.30 223.60 L 717.95 228.00 L 721.60 218.76 L 725.25 214.45 L 728.90 219.42 L 732.55 215.16 L 736.20 216.33 L 739.85 218.26 L 743.50 217.75 L 747.15 222.04 L 750.80 228.12 L 754.45 224.49 L 758.10 232.99 L 761.75 229.69 L 765.40 225.47 L 769.05 221.81 L 772.70 228.22 L 776.35 231.03 L 780.00 224.33" class="path-0" />
<path d="M 50.00 151.75 L 53.65 153.07 L 57.30 154.85 L 60.95 158.99 L 64.60 151.62 L 68.25 150.77 L 71.90 151.90 L 75.55 146.29 L 79.20 145.28 L 82.85 144.92 L 86.50 141.77 L 90.15 135.95 L 93.80 140.14 L 97.45 134.02 L 101.10 135.91 L 104.75 145.91 L 108.40 151.73 L 112.05 163.01 L 115.70 160.16 L 119.35 157.48 L 123.00 154.69 L 126.65 159.25 L 130.30 166.43 L 133.95 165.41 L 137.60 166.48 L 141.25 160.41 L 144.90 165.84 L 148.55 168.33 L 152.20 173.78 L 155.85 182.64 L 159.50 176.05 L 163.15 177.16 L 166.80 180.23 L 170.45 166.45 L 174.10 160.72 L 177.75 155.90 L 181.40 144.00 L 185.05 144.81 L 188.70 138.53 L 192.35 146.03 L 196.00 144.62 L 199.65 145.81 L 203.30 146.47 L 206.95 148.29 L 210.60 144.34 L 214.25 136.71 L 217.90 136.46 L 221.55 135.37 L 225.20 144.18 L 228.85 143.59 L 232.50 143.00 L 236.15 143.70 L 239.80 148.48 L 243.45 159.93 L 247.10 153.32 L 250.75 157.02 L 254.40 154.53 L 258.05 154.62 L 261.70 152.79 L 265.35 152.92 L 269.00 155.38 L 272.65 153.86 L 276.30 148.00 L 279.95 142.54 L 283.60 137.99 L 287.25 131.66 L 290.90 140.57 L 294.55 127.28 L 298.20 128.40 L 301.85 130.12 L 305.50 134.76 L 309.15 143.09 L 312.80 136.93 L 316.45 144.47 L 320.10 151.30 L 323.75 153.70 L 327.40 159.94 L 331.05 165.28 L 334.70 165.37 L 338.35 162.16 L 342.00 163.15 L 345.65 160.01 L 349.30 151.96 L 352.95 155.62 L 356.60 161.80 L 360.25 168.04 L 363.90 176.39 L 367.55 175.14 L 371.20 173.75 L 374.85 170.36 L 378.50 168.13 L 382.15 169.23 L 385.80 171.96 L 389.45 169.25 L 393.10 169.14 L 396.75 168.88 L 400.40 172.41 L 404.05 185.58 L 407.70 181.30 L 411.35 178.78 L 415.00 175.59 L 418.65 168.50 L 422.30 179.07 L 425.95 176.93 L 429.60 175.63 L 433.25 176.87 L 436.90 180.68 L 440.55 172.43 L 444.20 167.56 L 447.85 175.65 L 451.50 172.56 L 455.15 175.07 L 458.80 171.03 L 462.45 169.65 L 466.10 171.50 L 469.75 161.33 L 473.40 160.18 L 477.05 165.98 L 480.70 180.69 L 484.35 178.70 L 488.00 169.10 L 491.65 173.25 L 495.30 173.48 L 498.95 165.54 L 502.60 169.73 L 506.25 174.79 L 509.90 175.78 L 513.55 172.22 L 517.20 170.51 L 520.85 164.84 L 524.50 156.47 L 528.15 158.33 L 531.80 158.59 L 535.45 153.69 L 539.10 150.01 L 542.75 142.36 L 546.40 146.00 L 550.05 148.62 L 553.70 152.70 L 557.35 149.86 L 561.00 145.65 L 564.65 151.58 L 568.30 150.48 L 571.95 148.28 L 575.60 156.99 L 579.25 156.41 L 582.90 153.73 L 586.55 151.25 L 590.20 157.67 L 593.85 156.01 L 597.50 149.85 L 601.15 156.19 L 604.80 153.31 L 608.45 146.49 L 612.10 141.35 L 615.75 142.28 L 619.40 144.29 L 623.05 145.86 L 626.70 141.79 L 630.35 136.76 L 634.00 132.68 L 637.65 134.02 L 641.30 126.27 L 644.95 129.04 L 648.60 129.12 L 652.25 130.43 L 655.90 139.34 L 659.55 142.61 L 663.20 143.22 L 666.85 148.29 L 670.50 139.14 L 674.15 138.99 L 677.80 139.48 L 681.45 138.07 L 685.10 139.64 L 688.75 146.04 L 692.40 150.44 L 696.05 154.77 L 699.70 162.93 L 703.35 161.38 L 707.00 166.19 L 710.65 170.50 L 714.30 163.67 L 717.95 166.44 L 721.60 162.04 L 725.25 162.27 L 728.90 167.22 L 732.55 156.80 L 736.20 157.00 L 739.85 150.78 L 743.50 141.89 L 747.15 153.56 L 750.80 157.02 L 754.45 153.99 L 758.10 164.45 L 761.75 164.39 L 765.40 162.56 L 769.05 152.25 L 772.70 142.92 L 776.35 146.53 L 780.00 142.35" class="path-1" />
<path d="M 50.00 151.75 L 53.65 154.84 L 57.30 155.69 L 60.95 149.59 L 64.60 150.48 L 68.25 152.33 L 71.90 147.03 L 75.55 151.64 L 79.20 151.06 L 82.85 157.59 L 86.50 158.85 L 90.15 160.04 L 93.80 158.72 L 97.45 151.26 L 101.10 148.07 L 104.75 150.24 L 108.40 158.91 L 112.05 158.85 L 115.70 158.01 L 119.35 153.57 L 123.00 153.01 L 126.65 153.64 L 130.30 154.18 L 133.95 158.78 L 137.60 153.84 L 141.25 150.01 L 144.90 143.46 L 148.55 141.02 L 152.20 146.18 L 155.85 148.83 L 159.50 157.03 L 163.15 151.55 L 166.80 149.56 L 170.45 146.50 L 174.10 141.44 L 177.75 133.13 L 181.40 133.31 L 185.05 138.97 L 188.70 128.83 L 192.35 124.53 L 196.00 121.41 L 199.65 125.76 L 203.30 135.49 L 206.95 134.31 L 210.60 135.14 L 214.25 137.10 L 217.90 138.10 L 221.55 136.50 L 225.20 141.58 L 228.85 143.39 L 232.50 151.54 L 236.15 153.86 L 239.80 160.99 L 243.45 163.49 L 247.10 166.66 L 250.75 173.84 L 254.40 167.94 L 258.05 170.48 L 261.70 177.31 L 265.35 180.99 L 269.00 176.81 L 272.65 173.58 L 276.30 166.72 L 279.95 171.34 L 283.60 167.41 L 287.25 163.92 L 290.90 176.61 L 294.55 172.23 L 298.20 174.63 L 301.85 169.22 L 305.50 167.83 L 309.15 166.46 L 312.80 170.32 L 316.45 170.84 L 320.10 166.11 L 323.75 164.04 L 327.40 162.68 L 331.05 175.93 L 334.70 186.61 L 338.35 181.32 L 342.00 177.57 L 345.65 177.46 L 349.30 177.16 L 352.95 186.52 L 356.60 187.87 L 360.25 191.12 L 363.90 182.95 L 367.55 179.14 L 371.20 181.39 L 374.85 179.55 L 378.50 176.07 L 382.15 177.62 L 385.80 184.36 L 389.45 191.36 L 393.10 190.75 L 396.75 189.60 L 400.40 178.16 L 404.05 179.71 L 407.70 171.84 L 411.35 168.49 L 415.00 169.12 L 418.65 172.40 L 422.30 172.96 L 425.95 181.83 L 429.60 183.08 L 433.25 183.11 L 436.90 189.01 L 440.55 181.91 L 444.20 171.83 L 447.85 163.58 L 451.50 172.10 L 455.15 175.80 L 458.80 174.90 L 462.45 179.33 L 466.10 180.24 L 469.75 186.20 L 473.40 184.58 L 477.05 189.30 L 480.70 184.68 L 484.35 181.00 L 488.00 182.77 L 491.65 172.81 L 495.30 169.85 L 498.95 169.35 L 502.60 170.61 L 506.25 165.73 L 509.90 167.15 L 513.55 177.30 L 517.20 188.33 L 520.85 187.62 L 524.50 183.64 L 528.15 176.83 L 531.80 176.07 L 535.45 181.12 L 539.10 173.86 L 542.75 173.33 L 546.40 179.35 L 550.05 183.22 L 553.70 179.34 L 557.35 184.26 L 561.00 185.73 L 564.65 187.45 L 568.30 194.90 L 571.95 203.00 L 575.60 197.28 L 579.25 190.57 L 582.90 198.28 L 586.55 189.59 L 590.20 194.38 L 593.85 190.14 L 597.50 194.08 L 601.15 189.09 L 604.80 185.63 L 608.45 183.33 L 612.10 191.76 L 615.75 195.70 L 619.40 188.65 L 623.05 191.32 L 626.70 194.86 L 630.35 189.82 L 634.00 188.62 L 637.65 180.41 L 641.30 182.12 L 644.95 182.77 L 648.60 177.87 L 652.25 179.03 L 655.90 188.24 L 659.55 190.26 L 663.20 194.94 L 666.85 193.28 L 670.50 192.45 L 674.15 184.88 L 677.80 185.79 L 681.45 184.70 L 685.10 182.76 L 688.75 182.69 L 692.40 186.34 L 696.05 188.72 L 699.70 188.80 L 703.35 179.59 L 707.00 178.86 L 710.65 171.87 L 714.30 169.81 L 717.95 175.30 L 721.60 181.37 L 725.25 179.89 L 728.90 172.90 L 732.55 165.46 L 736.20 167.94 L 739.85 168.44 L 743.50 158.79 L 747.15 151.92 L 750.80 147.49 L 754.45 145.81 L 758.10 148.67 L 761.75 135.98 L 765.40 127.13 L 769.05 134.14 L 772.70 134.98 L 776.35 139.28 L 780.00 140.33" class="path-2" />
<path d="M 50.00 151.75 L 53.65 149.74 L 57.30 152.31 L 60.95 155.56 L 64.60 155.96 L 68.25 164.10 L 71.90 159.69 L 75.55 149.99 L 79.20 148.11 L 82.85 143.87 L 86.50 156.58 L 90.15 161.82 L 93.80 161.66 L 97.45 157.89 L 101.10 167.11 L 104.75 164.37 L 108.40 162.09 L 112.05 166.68 L 115.70 176.02 L 119.35 181.14 L 123.00 179.08 L 126.65 177.66 L 130.30 183.39 L 133.95 184.72 L 137.60 182.90 L 141.25 174.62 L 144.90 174.19 L 148.55 174.82 L 152.20 180.15 L 155.85 183.60 L 159.50 177.26 L 163.15 173.16 L 166.80 172.37 L 170.45 177.34 L 174.10 172.79 L 177.75 168.65 L 181.40 167.76 L 185.05 171.31 L 188.70 171.03 L 192.35 173.76 L 196.00 171.10 L 199.65 174.09 L 203.30 177.94 L 206.95 173.97 L 210.60 164.69 L 214.25 159.74 L 217.90 162.20 L 221.55 160.84 L 225.20 153.51 L 228.85 158.41 L 232.50 153.80 L 236.15 144.38 L 239.80 153.06 L 243.45 145.92 L 247.10 147.79 L 250.75 139.15 L 254.40 140.65 L 258.05 135.15 L 261.70 134.75 L 265.35 140.23 L 269.00 141.49 L 272.65 140.38 L 276.30 142.28 L 279.95 141.24 L 283.60 138.21 L 287.25 131.04 L 290.90 127.81 L 294.55 135.42 L 298.20 130.52 L 301.85 118.52 L 305.50 116.40 L 309.15 120.55 L 312.80 107.79 L 316.45 103.52 L 320.10 107.00 L 323.75 101.63 L 327.40 98.06 L 331.05 91.78 L 334.70 89.59 L 338.35 83.67 L 342.00 79.19 L 345.65 77.90 L 349.30 79.97 L 352.95 83.71 L 356.60 84.39 L 360.25 85.03 L 363.90 84.64 L 367.55 75.39 L 371.20 73.68 L 374.85 75.08 L 378.50 75.60 L 382.15 75.17 L 385.80 65.38 L 389.45 67.86 L 393.10 66.64 L 396.75 70.91 L 400.40 73.77 L 404.05 68.35 L 407.70 70.34 L 411.35 70.78 L 415.00 78.74 L 418.65 77.71 L 422.30 78.09 L 425.95 75.90 L 429.60 72.81 L 433.25 70.28 L 436.90 77.63 L 440.55 84.47 L 444.20 99.19 L 447.85 93.03 L 451.50 92.59 L 455.15 88.81 L 458.80 84.67 L 462.45 84.61 L 466.10 87.04 L 469.75 93.84 L 473.40 89.22 L 477.05 94.83 L 480.70 96.40 L 484.35 97.08 L 488.00 96.91 L 491.65 104.55 L 495.30 103.12 L 498.95 113.55 L 502.60 108.96 L 506.25 111.11 L 509.90 113.53 L 513.55 109.43 L 517.20 118.22 L 520.85 112.98 L 524.50 120.15 L 528.15 124.51 L 531.80 120.74 L 535.45 119.91 L 539.10 121.26 L 542.75 122.32 L 546.40 112.45 L 550.05 113.18 L 553.70 117.76 L 557.35 112.76 L 561.00 111.77 L 564.65 103.15 L 568.30 112.40 L 571.95 118.38 L 575.60 118.52 L 579.25 125.37 L 582.90 121.81 L 586.55 126.60 L 590.20 125.32 L 593.85 122.86 L 597.50 127.81 L 601.15 132.94 L 604.80 128.48 L 608.45 135.82 L 612.10 133.26 L 615.75 129.98 L 619.40 123.30 L 623.05 114.84 L 626.70 116.86 L 630.35 124.55 L 634.00 124.83 L 637.65 118.71 L 641.30 117.51 L 644.95 109.02 L 648.60 105.77 L 652.25 105.06 L 655.90 106.57 L 659.55 101.03 L 663.20 92.91 L 666.85 90.30 L 670.50 87.10 L 674.15 93.05 L 677.80 92.56 L 681.45 86.72 L 685.10 94.26 L 688.75 88.60 L 692.40 90.07 L 696.05 82.82 L 699.70 93.47 L 703.35 95.49 L 707.00 93.77 L 710.65 98.40 L 714.30 94.28 L 717.95 102.75 L 721.60 112.50 L 725.25 113.58 L 728.90 114.28 L 732.55 113.93 L 736.20 105.89 L 739.85 99.28 L 743.50 94.38 L 747.15 101.76 L 750.80 104.12 L 754.45 96.26 L 758.10 90.48 L 761.75 95.40 L 765.40 86.21 L 769.05 92.30 L 772.70 85.05 L 776.35 80.61 L 780.00 81.44" class="path-3" />
<path d="M 50.00 151.75 L 53.65 143.79 L 57.30 141.64 L 60.95 136.25 L 64.60 134.18 L 68.25 131.64 L 71.90 131.75 L 75.55 127.29 L 79.20 122.70 L 82.85 122.29 L 86.50 126.02 L 90.15 131.44 L 93.80 126.29 L 97.45 132.16 L 101.10 132.30 L 104.75 123.69 L 108.40 123.95 L 112.05 126.25 L 115.70 120.41 L 119.35 130.24 L 123.00 133.43 L 126.65 130.53 L 130.30 130.10 L 133.95 136.59 L 137.60 136.08 L 141.25 135.56 L 144.90 134.32 L 148.55 134.07 L 152.20 132.34 L 155.85 137.52 L 159.50 130.29 L 163.15 125.61 L 166.80 125.02 L 170.45 132.61 L 174.10 129.58 L 177.75 127.49 L 181.40 122.56 L 185.05 123.34 L 188.70 126.42 L 192.35 127.06 L 196.00 128.07 L 199.65 122.89 L 203.30 125.52 L 206.95 127.07 L 210.60 130.02 L 214.25 134.47 L 217.90 139.50 L 221.55 141.20 L 225.20 142.31 L 228.85 145.81 L 232.50 147.21 L 236.15 147.07 L 239.80 151.13 L 243.45 148.06 L 247.10 143.08 L 250.75 138.22 L 254.40 133.92 L 258.05 133.74 L 261.70 133.12 L 265.35 124.20 L 269.00 126.61 L 272.65 125.53 L 276.30 124.13 L 279.95 123.92 L 283.60 124.52 L 287.25 128.12 L 290.90 114.42 L 294.55 117.39 L 298.20 109.71 L 301.85 118.61 L 305.50 107.57 L 309.15 111.63 L 312.80 116.42 L 316.45 115.98 L 320.10 116.20 L 323.75 117.80 L 327.40 122.62 L 331.05 116.55 L 334.70 117.55 L 338.35 121.93 L 342.00 118.48 L 345.65 122.30 L 349.30 123.72 L 352.95 106.00 L 356.60 109.86 L 360.25 103.81 L 363.90 108.14 L 367.55 103.15 L 371.20 104.86 L 374.85 113.31 L 378.50 111.31 L 382.15 107.81 L 385.80 110.17 L 389.45 111.88 L 393.10 103.33 L 396.75 104.21 L 400.40 105.26 L 404.05 118.21 L 407.70 125.46 L 411.35 125.13 L 415.00 126.56 L 418.65 127.01 L 422.30 127.46 L 425.95 136.32 L 429.60 141.07 L 433.25 141.19 L 436.90 136.48 L 440.55 128.98 L 444.20 124.51 L 447.85 129.93 L 451.50 128.65 L 455.15 126.33 L 458.80 123.22 L 462.45 134.63 L 466.10 130.59 L 469.75 132.67 L 473.40 127.39 L 477.05 124.71 L 480.70 123.21 L 484.35 126.30 L 488.00 126.13 L 491.65 128.97 L 495.30 125.90 L 498.95 122.75 L 502.60 118.31 L 506.25 110.81 L 509.90 119.39 L 513.55 112.28 L 517.20 108.33 L 520.85 103.16 L 524.50 93.83 L 528.15 95.89 L 531.80 97.82 L 535.45 97.11 L 539.10 97.17 L 542.75 102.75 L 546.40 98.85 L 550.05 99.46 L 553.70 100.74 L 557.35 102.46 L 561.00 102.17 L 564.65 100.15 L 568.30 99.46 L 571.95 101.89 L 575.60 103.35 L 579.25 101.38 L 582.90 102.25 L 586.55 105.97 L 590.20 102.87 L 593.85 103.93 L 597.50 103.84 L 601.15 105.84 L 604.80 103.72 L 608.45 104.94 L 612.10 96.29 L 615.75 102.86 L 619.40 103.43 L 623.05 101.42 L 626.70 105.93 L 630.35 101.02 L 634.00 98.42 L 637.65 104.35 L 641.30 96.01 L 644.95 91.81 L 648.60 95.04 L 652.25 95.27 L 655.90 98.67 L 659.55 95.54 L 663.20 101.68 L 666.85 103.37 L 670.50 108.21 L 674.15 110.77 L 677.80 113.67 L 681.45 110.11 L 685.10 103.85 L 688.75 103.91 L 692.40 105.93 L 696.05 111.53 L 699.70 117.43 L 703.35 121.79 L 707.00 120.43 L 710.65 115.76 L 714.30 113.11 L 717.95 108.28 L 721.60 104.47 L 725.25 103.31 L 728.90 96.32 L 732.55 94.20 L 736.20 90.26 L 739.85 90.42 L 743.50 85.88 L 747.15 87.91 L 750.80 80.46 L 754.45 72.60 L 758.10 76.68 L 761.75 78.61 L 765.40 81.92 L 769.05 79.57 L 772.70 84.18 L 776.35 77.88 L 780.00 79.16" class="path-4" />
<line x1="50" y1="151.8" x2="780" y2="151.8" stroke="#4b5563" stroke-width="0.8" stroke-dasharray="6 3" />
</svg>