<svg xmlns="http://www.w3.org/2000/svg" viewBox="0 0 800 300" width="800" height="300">
<style>
.axis-line { stroke: #6b7280; stroke-width: 0.5; }
.axis-text { font-family: monospace; font-size: 11px; fill: #9ca3af; }
.title-text { font-family: monospace; font-size: 14px; fill: #d1d5db; font-weight: bold; }
.grid-line { stroke: #374151; stroke-width: 0.3; stroke-dasharray: 4 2; }
.path-0 { fill: none; stroke: #3b82f6; stroke-width: 2; stroke-linecap: round; opacity: 0.85; animation: draw-0 8s ease-in-out 0.0s infinite; stroke-dasharray: 1112; stroke-dashoffset: 1112;}
@keyframes draw-0 { 0% { stroke-dashoffset: 1112; } 38% { stroke-dashoffset: 0; } 62% { stroke-dashoffset: 0; } 100% { stroke-dashoffset: 1112; }}
.path-1 { fill: none; stroke: #ef4444; stroke-width: 2; stroke-linecap: round; opacity: 0.85; animation: draw-1 8s ease-in-out 0.4s infinite; stroke-dasharray: 1056; stroke-dashoffset: 1056;}
@keyframes draw-1 { 0% { stroke-dashoffset: 1056; } 38% { stroke-dashoffset: 0; } 62% { stroke-dashoffset: 0; } 100% { stroke-dashoffset: 1056; }}
.path-2 { fill: none; stroke: #22c55e; stroke-width: 2; stroke-linecap: round; opacity: 0.85; animation: draw-2 8s ease-in-out 0.8s infinite; stroke-dasharray: 1118; stroke-dashoffset: 1118;}
@keyframes draw-2 { 0% { stroke-dashoffset: 1118; } 38% { stroke-dashoffset: 0; } 62% { stroke-dashoffset: 0; } 100% { stroke-dashoffset: 1118; }}
.path-3 { fill: none; stroke: #f59e0b; stroke-width: 2; stroke-linecap: round; opacity: 0.85; animation: draw-3 8s ease-in-out 1.2000000000000002s infinite; stroke-dasharray: 1104; stroke-dashoffset: 1104;}
@keyframes draw-3 { 0% { stroke-dashoffset: 1104; } 38% { stroke-dashoffset: 0; } 62% { stroke-dashoffset: 0; } 100% { stroke-dashoffset: 1104; }}
.path-4 { fill: none; stroke: #a855f7; stroke-width: 2; stroke-linecap: round; opacity: 0.85; animation: draw-4 8s ease-in-out 1.6s infinite; stroke-dasharray: 1149; stroke-dashoffset: 1149;}
@keyframes draw-4 { 0% { stroke-dashoffset: 1149; } 38% { stroke-dashoffset: 0; } 62% { stroke-dashoffset: 0; } 100% { stroke-dashoffset: 1149; }}
</style>
<rect width="800" height="300" rx="8" fill="#0d1117" />
<line x1="50" y1="260.0" x2="780" y2="260.0" class="grid-line" />
<text x="44" y="264.0" text-anchor="end" class="axis-text">-1.0</text>
<line x1="50" y1="216.0" x2="780" y2="216.0" class="grid-line" />
<text x="44" y="220.0" text-anchor="end" class="axis-text">-0.3</text>
<line x1="50" y1="172.0" x2="780" y2="172.0" class="grid-line" />
<text x="44" y="176.0" text-anchor="end" class="axis-text">0.4</text>
<line x1="50" y1="128.0" x2="780" y2="128.0" class="grid-line" />
<text x="44" y="132.0" text-anchor="end" class="axis-text">1.1</text>
<line x1="50" y1="84.0" x2="780" y2="84.0" class="grid-line" />
<text x="44" y="88.0" text-anchor="end" class="axis-text">1.7</text>
<line x1="50" y1="40.0" x2="780" y2="40.0" class="grid-line" />
<text x="44" y="44.0" text-anchor="end" class="axis-text">2.4</text>
<line x1="50.0" y1="40" x2="50.0" y2="260" class="grid-line" />
<line x1="196.0" y1="40" x2="196.0" y2="260" class="grid-line" />
<line x1="342.0" y1="40" x2="342.0" y2="260" class="grid-line" />
<line x1="488.0" y1="40" x2="488.0" y2="260" class="grid-line" />
<line x1="634.0" y1="40" x2="634.0" y2="260" class="grid-line" />
<line x1="780.0" y1="40" x2="780.0" y2="260" class="grid-line" />
<line x1="50" y1="260" x2="780" y2="260" class="axis-line" />
<line x1="50" y1="40" x2="50" y2="260" class="axis-line" />
<text x="400.0" y="295" text-anchor="middle" class="axis-text">t</text>
<text x="12" y="150.0" text-anchor="middle" class="axis-text" transform="rotate(-90 12 150.0)">W(t)</text>
<text x="400.0" y="22" text-anchor="middle" class="title-text">Brownian Motion</text>
<path d="M 50.00 196.24 L 53.65 194.22 L 57.30 199.50 L 60.95 206.23 L 64.60 212.49 L 68.25 213.93 L 71.90 209.37 L 75.55 206.66 L 79.20 202.29 L 82.85 198.04 L 86.50 201.92 L 90.15 204.55 L 93.80 202.62 L 97.45 205.90 L 101.10 206.55 L 104.75 202.70 L 108.40 196.49 L 112.05 194.02 L 115.70 191.83 L 119.35 198.28 L 123.00 193.51 L 126.65 197.79 L 130.30 203.67 L 133.95 201.68 L 137.60 209.18 L 141.25 208.49 L 144.90 207.02 L 148.55 215.22 L 152.20 214.84 L 155.85 198.89 L 159.50 199.06 L 163.15 206.93 L 166.80 204.93 L 170.45 205.41 L 174.10 204.87 L 177.75 213.27 L 181.40 212.71 L 185.05 212.46 L 188.70 204.92 L 192.35 199.99 L 196.00 196.88 L 199.65 191.87 L 203.30 191.86 L 206.95 196.30 L 210.60 196.22 L 214.25 194.53 L 217.90 196.82 L 221.55 194.05 L 225.20 195.70 L 228.85 194.57 L 232.50 187.93 L 236.15 188.92 L 239.80 188.17 L 243.45 191.61 L 247.10 196.45 L 250.75 206.44 L 254.40 214.85 L 258.05 208.77 L 261.70 204.27 L 265.35 206.07 L 269.00 196.00 L 272.65 199.45 L 276.30 200.10 L 279.95 208.13 L 283.60 211.59 L 287.25 211.75 L 290.90 213.08 L 294.55 209.13 L 298.20 212.39 L 301.85 209.49 L 305.50 214.05 L 309.15 210.02 L 312.80 206.35 L 316.45 209.16 L 320.10 210.09 L 323.75 207.02 L 327.40 215.60 L 331.05 205.52 L 334.70 206.22 L 338.35 205.97 L 342.00 204.82 L 345.65 200.09 L 349.30 205.34 L 352.95 204.75 L 356.60 209.38 L 360.25 210.09 L 363.90 209.17 L 367.55 209.79 L 371.20 211.99 L 374.85 207.29 L 378.50 208.22 L 382.15 202.53 L 385.80 201.19 L 389.45 197.59 L 393.10 196.19 L 396.75 188.80 L 400.40 181.88 L 404.05 179.96 L 407.70 178.34 L 411.35 178.34 L 415.00 176.15 L 418.65 173.50 L 422.30 174.94 L 425.95 170.01 L 429.60 170.86 L 433.25 173.25 L 436.90 177.51 L 440.55 185.11 L 444.20 188.43 L 447.85 185.93 L 451.50 184.25 L 455.15 192.01 L 458.80 191.90 L 462.45 198.58 L 466.10 199.18 L 469.75 196.84 L 473.40 190.39 L 477.05 193.71 L 480.70 195.88 L 484.35 204.52 L 488.00 195.06 L 491.65 198.67 L 495.30 192.82 L 498.95 182.59 L 502.60 178.39 L 506.25 185.07 L 509.90 190.42 L 513.55 192.88 L 517.20 191.50 L 520.85 199.53 L 524.50 200.44 L 528.15 201.84 L 531.80 195.41 L 535.45 194.33 L 539.10 191.41 L 542.75 188.60 L 546.40 179.97 L 550.05 183.58 L 553.70 188.69 L 557.35 193.83 L 561.00 199.89 L 564.65 197.76 L 568.30 197.34 L 571.95 200.45 L 575.60 202.37 L 579.25 199.07 L 582.90 202.52 L 586.55 204.34 L 590.20 214.30 L 593.85 216.80 L 597.50 216.98 L 601.15 210.05 L 604.80 210.77 L 608.45 213.56 L 612.10 208.87 L 615.75 218.14 L 619.40 216.95 L 623.05 212.99 L 626.70 213.83 L 630.35 215.85 L 634.00 219.78 L 637.65 219.57 L 641.30 221.93 L 644.95 217.82 L 648.60 219.25 L 652.25 221.82 L 655.90 220.13 L 659.55 217.81 L 663.20 217.81 L 666.85 218.40 L 670.50 212.32 L 674.15 214.26 L 677.80 218.61 L 681.45 214.85 L 685.10 221.65 L 688.75 221.52 L 692.40 215.46 L 696.05 215.97 L 699.70 215.66 L 703.35 211.94 L 707.00 208.73 L 710.65 209.67 L 714.30 217.20 L 717.95 209.10 L 721.60 210.99 L 725.25 218.72 L 728.90 219.34 L 732.55 214.87 L 736.20 210.04 L 739.85 210.25 L 743.50 207.16 L 747.15 218.13 L 750.80 222.82 L 754.45 217.49 L 758.10 214.26 L 761.75 207.18 L 765.40 205.71 L 769.05 204.92 L 772.70 201.36 L 776.35 207.60 L 780.00 209.75" class="path-0" />
<path d="M 50.00 196.24 L 53.65 198.55 L 57.30 203.36 L 60.95 211.63 L 64.60 217.63 L 68.25 216.41 L 71.90 218.30 L 75.55 217.36 L 79.20 217.90 L 82.85 218.78 L 86.50 217.77 L 90.15 215.19 L 93.80 212.72 L 97.45 214.50 L 101.10 219.99 L 104.75 225.27 L 108.40 223.47 L 112.05 217.00 L 115.70 217.64 L 119.35 212.64 L 123.00 206.59 L 126.65 210.69 L 130.30 214.23 L 133.95 217.35 L 137.60 219.85 L 141.25 211.97 L 144.90 217.43 L 148.55 225.77 L 152.20 222.25 L 155.85 224.18 L 159.50 219.64 L 163.15 218.83 L 166.80 211.44 L 170.45 205.67 L 174.10 207.50 L 177.75 204.50 L 181.40 195.11 L 185.05 196.25 L 188.70 196.55 L 192.35 191.60 L 196.00 195.17 L 199.65 189.86 L 203.30 187.28 L 206.95 198.71 L 210.60 196.59 L 214.25 198.13 L 217.90 199.55 L 221.55 204.07 L 225.20 209.21 L 228.85 209.26 L 232.50 210.03 L 236.15 207.93 L 239.80 211.48 L 243.45 209.24 L 247.10 203.53 L 250.75 201.05 L 254.40 200.96 L 258.05 200.62 L 261.70 203.50 L 265.35 197.89 L 269.00 194.06 L 272.65 196.49 L 276.30 191.76 L 279.95 201.24 L 283.60 193.88 L 287.25 186.29 L 290.90 185.41 L 294.55 190.64 L 298.20 197.93 L 301.85 197.29 L 305.50 196.87 L 309.15 190.96 L 312.80 193.67 L 316.45 200.27 L 320.10 203.43 L 323.75 203.98 L 327.40 210.88 L 331.05 205.74 L 334.70 203.33 L 338.35 204.97 L 342.00 200.70 L 345.65 197.43 L 349.30 195.54 L 352.95 195.92 L 356.60 188.66 L 360.25 205.99 L 363.90 202.36 L 367.55 204.20 L 371.20 206.97 L 374.85 205.27 L 378.50 207.43 L 382.15 206.93 L 385.80 206.04 L 389.45 206.47 L 393.10 207.79 L 396.75 205.55 L 400.40 196.52 L 404.05 196.65 L 407.70 199.65 L 411.35 198.63 L 415.00 193.17 L 418.65 193.06 L 422.30 191.74 L 425.95 196.21 L 429.60 195.94 L 433.25 193.10 L 436.90 190.51 L 440.55 186.77 L 444.20 183.18 L 447.85 182.12 L 451.50 180.38 L 455.15 174.67 L 458.80 175.11 L 462.45 173.95 L 466.10 168.18 L 469.75 169.22 L 473.40 167.40 L 477.05 169.14 L 480.70 173.70 L 484.35 172.54 L 488.00 174.03 L 491.65 176.82 L 495.30 174.29 L 498.95 173.72 L 502.60 171.62 L 506.25 179.80 L 509.90 178.11 L 513.55 181.19 L 517.20 178.80 L 520.85 174.44 L 524.50 175.06 L 528.15 174.92 L 531.80 176.60 L 535.45 179.15 L 539.10 176.98 L 542.75 175.94 L 546.40 178.04 L 550.05 175.83 L 553.70 170.71 L 557.35 170.89 L 561.00 168.08 L 564.65 167.06 L 568.30 165.66 L 571.95 165.99 L 575.60 170.25 L 579.25 167.39 L 582.90 170.18 L 586.55 167.34 L 590.20 161.18 L 593.85 167.67 L 597.50 170.54 L 601.15 174.59 L 604.80 180.20 L 608.45 184.18 L 612.10 191.09 L 615.75 192.03 L 619.40 202.19 L 623.05 200.10 L 626.70 206.62 L 630.35 206.98 L 634.00 208.69 L 637.65 216.98 L 641.30 216.32 L 644.95 216.92 L 648.60 220.38 L 652.25 220.72 L 655.90 220.97 L 659.55 217.85 L 663.20 212.04 L 666.85 213.47 L 670.50 214.36 L 674.15 220.83 L 677.80 217.07 L 681.45 213.34 L 685.10 213.90 L 688.75 212.68 L 692.40 221.11 L 696.05 223.33 L 699.70 223.22 L 703.35 224.75 L 707.00 221.86 L 710.65 221.67 L 714.30 230.53 L 717.95 226.70 L 721.60 233.09 L 725.25 230.82 L 728.90 230.06 L 732.55 229.30 L 736.20 228.43 L 739.85 231.37 L 743.50 232.09 L 747.15 227.25 L 750.80 233.41 L 754.45 232.99 L 758.10 228.80 L 761.75 222.83 L 765.40 221.84 L 769.05 223.25 L 772.70 221.50 L 776.35 227.23 L 780.00 234.62" class="path-1" />
<path d="M 50.00 196.24 L 53.65 195.23 L 57.30 198.09 L 60.95 206.58 L 64.60 213.28 L 68.25 203.13 L 71.90 205.14 L 75.55 201.51 L 79.20 197.30 L 82.85 196.02 L 86.50 201.69 L 90.15 205.95 L 93.80 207.95 L 97.45 200.66 L 101.10 198.23 L 104.75 188.77 L 108.40 186.65 L 112.05 184.05 L 115.70 184.73 L 119.35 186.96 L 123.00 187.31 L 126.65 189.45 L 130.30 186.25 L 133.95 190.58 L 137.60 187.93 L 141.25 189.76 L 144.90 192.63 L 148.55 194.21 L 152.20 196.82 L 155.85 199.86 L 159.50 192.60 L 163.15 200.08 L 166.80 207.26 L 170.45 203.84 L 174.10 203.01 L 177.75 199.57 L 181.40 196.16 L 185.05 197.30 L 188.70 203.36 L 192.35 202.31 L 196.00 199.93 L 199.65 204.33 L 203.30 209.18 L 206.95 214.07 L 210.60 212.60 L 214.25 218.76 L 217.90 228.01 L 221.55 220.32 L 225.20 222.55 L 228.85 223.10 L 232.50 217.75 L 236.15 216.72 L 239.80 213.32 L 243.45 209.91 L 247.10 208.20 L 250.75 212.24 L 254.40 210.67 L 258.05 213.90 L 261.70 218.57 L 265.35 214.04 L 269.00 203.43 L 272.65 200.24 L 276.30 195.25 L 279.95 191.38 L 283.60 191.00 L 287.25 191.86 L 290.90 200.70 L 294.55 203.31 L 298.20 204.79 L 301.85 195.99 L 305.50 196.23 L 309.15 197.98 L 312.80 197.72 L 316.45 192.73 L 320.10 201.66 L 323.75 203.14 L 327.40 204.56 L 331.05 208.60 L 334.70 208.97 L 338.35 215.10 L 342.00 220.07 L 345.65 215.75 L 349.30 218.92 L 352.95 215.36 L 356.60 216.33 L 360.25 207.91 L 363.90 209.06 L 367.55 210.65 L 371.20 219.68 L 374.85 214.54 L 378.50 210.72 L 382.15 198.85 L 385.80 195.14 L 389.45 189.29 L 393.10 185.86 L 396.75 188.87 L 400.40 187.71 L 404.05 190.47 L 407.70 192.11 L 411.35 186.85 L 415.00 184.49 L 418.65 187.98 L 422.30 191.81 L 425.95 198.91 L 429.60 199.68 L 433.25 192.07 L 436.90 189.53 L 440.55 190.61 L 444.20 187.22 L 447.85 191.87 L 451.50 201.90 L 455.15 197.38 L 458.80 189.63 L 462.45 195.96 L 466.10 199.41 L 469.75 193.39 L 473.40 193.72 L 477.05 203.52 L 480.70 201.00 L 484.35 206.46 L 488.00 207.27 L 491.65 205.38 L 495.30 202.38 L 498.95 207.30 L 502.60 206.81 L 506.25 207.61 L 509.90 207.77 L 513.55 208.35 L 517.20 198.82 L 520.85 200.22 L 524.50 198.08 L 528.15 199.24 L 531.80 201.21 L 535.45 200.78 L 539.10 199.04 L 542.75 207.85 L 546.40 212.17 L 550.05 207.79 L 553.70 209.92 L 557.35 212.34 L 561.00 217.96 L 564.65 222.64 L 568.30 219.78 L 571.95 222.89 L 575.60 218.93 L 579.25 225.17 L 582.90 220.12 L 586.55 218.68 L 590.20 223.79 L 593.85 218.42 L 597.50 218.19 L 601.15 213.87 L 604.80 216.79 L 608.45 221.49 L 612.10 224.70 L 615.75 229.95 L 619.40 230.77 L 623.05 225.38 L 626.70 223.41 L 630.35 219.22 L 634.00 218.36 L 637.65 218.31 L 641.30 219.90 L 644.95 219.98 L 648.60 218.86 L 652.25 215.96 L 655.90 223.12 L 659.55 222.62 L 663.20 221.57 L 666.85 223.96 L 670.50 227.10 L 674.15 228.35 L 677.80 225.87 L 681.45 224.77 L 685.10 215.39 L 688.75 211.20 L 692.40 208.49 L 696.05 212.75 L 699.70 213.69 L 703.35 217.60 L 707.00 220.67 L 710.65 218.63 L 714.30 215.93 L 717.95 209.01 L 721.60 203.67 L 725.25 193.99 L 728.90 181.77 L 732.55 185.82 L 736.20 186.67 L 739.85 190.81 L 743.50 182.69 L 747.15 183.48 L 750.80 193.47 L 754.45 191.04 L 758.10 185.88 L 761.75 185.05 L 765.40 188.53 L 769.05 192.35 L 772.70 197.19 L 776.35 193.40 L 780.00 195.75" class="path-2" />
<path d="M 50.00 196.24 L 53.65 196.87 L 57.30 192.55 L 60.95 186.65 L 64.60 185.73 L 68.25 185.56 L 71.90 184.04 L 75.55 191.95 L 79.20 198.33 L 82.85 205.31 L 86.50 203.33 L 90.15 199.84 L 93.80 200.81 L 97.45 200.31 L 101.10 201.60 L 104.75 207.73 L 108.40 202.58 L 112.05 200.45 L 115.70 198.58 L 119.35 198.95 L 123.00 194.86 L 126.65 189.30 L 130.30 197.37 L 133.95 191.97 L 137.60 190.14 L 141.25 180.01 L 144.90 183.00 L 148.55 180.66 L 152.20 178.96 L 155.85 174.27 L 159.50 167.57 L 163.15 174.86 L 166.80 164.52 L 170.45 168.53 L 174.10 165.23 L 177.75 165.02 L 181.40 155.18 L 185.05 150.09 L 188.70 151.72 L 192.35 155.06 L 196.00 154.39 L 199.65 152.04 L 203.30 155.49 L 206.95 149.97 L 210.60 153.04 L 214.25 147.67 L 217.90 150.16 L 221.55 149.04 L 225.20 142.04 L 228.85 140.56 L 232.50 140.10 L 236.15 135.24 L 239.80 142.18 L 243.45 143.98 L 247.10 144.27 L 250.75 140.10 L 254.40 136.71 L 258.05 142.42 L 261.70 140.04 L 265.35 138.45 L 269.00 136.60 L 272.65 140.14 L 276.30 148.04 L 279.95 146.02 L 283.60 152.35 L 287.25 156.25 L 290.90 158.99 L 294.55 159.83 L 298.20 161.76 L 301.85 163.85 L 305.50 165.62 L 309.15 155.90 L 312.80 149.53 L 316.45 148.45 L 320.10 155.43 L 323.75 157.37 L 327.40 159.28 L 331.05 153.15 L 334.70 152.70 L 338.35 155.88 L 342.00 166.39 L 345.65 161.03 L 349.30 171.44 L 352.95 168.81 L 356.60 166.45 L 360.25 167.52 L 363.90 161.45 L 367.55 165.45 L 371.20 162.78 L 374.85 161.22 L 378.50 159.99 L 382.15 151.72 L 385.80 145.33 L 389.45 150.92 L 393.10 146.66 L 396.75 149.39 L 400.40 153.24 L 404.05 159.32 L 407.70 159.26 L 411.35 153.10 L 415.00 153.32 L 418.65 140.35 L 422.30 137.81 L 425.95 138.87 L 429.60 137.17 L 433.25 128.95 L 436.90 124.68 L 440.55 129.37 L 444.20 131.06 L 447.85 131.00 L 451.50 127.93 L 455.15 129.01 L 458.80 129.07 L 462.45 126.74 L 466.10 123.75 L 469.75 123.62 L 473.40 126.74 L 477.05 126.05 L 480.70 131.88 L 484.35 125.54 L 488.00 123.63 L 491.65 127.26 L 495.30 132.33 L 498.95 128.55 L 502.60 117.40 L 506.25 117.74 L 509.90 112.84 L 513.55 109.62 L 517.20 99.16 L 520.85 106.13 L 524.50 108.86 L 528.15 109.33 L 531.80 109.93 L 535.45 113.20 L 539.10 110.46 L 542.75 111.86 L 546.40 116.71 L 550.05 123.02 L 553.70 118.50 L 557.35 113.29 L 561.00 113.56 L 564.65 115.49 L 568.30 113.11 L 571.95 115.12 L 575.60 107.36 L 579.25 110.94 L 582.90 111.17 L 586.55 110.82 L 590.20 99.69 L 593.85 102.69 L 597.50 105.78 L 601.15 105.14 L 604.80 105.33 L 608.45 101.59 L 612.10 91.70 L 615.75 95.92 L 619.40 97.31 L 623.05 95.82 L 626.70 97.71 L 630.35 96.26 L 634.00 93.05 L 637.65 83.73 L 641.30 85.51 L 644.95 77.17 L 648.60 74.33 L 652.25 76.34 L 655.90 75.66 L 659.55 74.10 L 663.20 74.28 L 666.85 67.71 L 670.50 67.60 L 674.15 69.21 L 677.80 65.38 L 681.45 66.73 L 685.10 66.72 L 688.75 68.44 L 692.40 71.48 L 696.05 69.39 L 699.70 75.33 L 703.35 79.94 L 707.00 73.12 L 710.65 76.96 L 714.30 80.65 L 717.95 76.59 L 721.60 80.16 L 725.25 71.04 L 728.90 68.94 L 732.55 68.64 L 736.20 74.95 L 739.85 72.57 L 743.50 73.25 L 747.15 76.70 L 750.80 75.57 L 754.45 76.25 L 758.10 78.91 L 761.75 82.48 L 765.40 80.76 L 769.05 84.71 L 772.70 86.76 L 776.35 91.79 L 780.00 95.33" class="path-3" />
<path d="M 50.00 196.24 L 53.65 200.59 L 57.30 188.20 L 60.95 181.94 L 64.60 178.75 L 68.25 177.37 L 71.90 169.83 L 75.55 168.52 L 79.20 166.34 L 82.85 163.21 L 86.50 161.25 L 90.15 174.26 L 93.80 169.78 L 97.45 178.36 L 101.10 182.57 L 104.75 181.23 L 108.40 189.02 L 112.05 183.04 L 115.70 184.88 L 119.35 183.20 L 123.00 176.36 L 126.65 174.86 L 130.30 171.90 L 133.95 165.38 L 137.60 171.91 L 141.25 170.23 L 144.90 178.72 L 148.55 177.92 L 152.20 179.00 L 155.85 177.96 L 159.50 175.38 L 163.15 173.79 L 166.80 178.69 L 170.45 171.23 L 174.10 174.65 L 177.75 173.85 L 181.40 178.83 L 185.05 178.61 L 188.70 185.70 L 192.35 185.10 L 196.00 181.09 L 199.65 179.60 L 203.30 176.42 L 206.95 184.68 L 210.60 183.03 L 214.25 189.76 L 217.90 187.49 L 221.55 188.25 L 225.20 192.27 L 228.85 193.91 L 232.50 199.21 L 236.15 193.13 L 239.80 192.60 L 243.45 184.23 L 247.10 185.03 L 250.75 188.42 L 254.40 190.49 L 258.05 189.69 L 261.70 181.30 L 265.35 179.75 L 269.00 184.73 L 272.65 187.94 L 276.30 186.69 L 279.95 183.77 L 283.60 185.12 L 287.25 188.82 L 290.90 191.97 L 294.55 194.51 L 298.20 191.58 L 301.85 188.50 L 305.50 192.33 L 309.15 195.21 L 312.80 190.72 L 316.45 194.88 L 320.10 198.09 L 323.75 195.05 L 327.40 186.58 L 331.05 193.83 L 334.70 196.19 L 338.35 194.75 L 342.00 189.93 L 345.65 190.84 L 349.30 192.78 L 352.95 186.52 L 356.60 194.11 L 360.25 196.23 L 363.90 198.67 L 367.55 200.78 L 371.20 191.76 L 374.85 197.72 L 378.50 194.56 L 382.15 195.21 L 385.80 190.91 L 389.45 198.60 L 393.10 193.44 L 396.75 195.49 L 400.40 196.53 L 404.05 194.60 L 407.70 188.25 L 411.35 190.53 L 415.00 183.19 L 418.65 183.92 L 422.30 174.84 L 425.95 169.24 L 429.60 169.17 L 433.25 167.14 L 436.90 164.62 L 440.55 167.73 L 444.20 173.67 L 447.85 178.96 L 451.50 180.94 L 455.15 182.93 L 458.80 183.15 L 462.45 177.29 L 466.10 173.65 L 469.75 173.51 L 473.40 173.89 L 477.05 176.57 L 480.70 170.52 L 484.35 168.77 L 488.00 161.00 L 491.65 168.15 L 495.30 165.90 L 498.95 165.08 L 502.60 168.20 L 506.25 160.79 L 509.90 149.97 L 513.55 151.02 L 517.20 145.91 L 520.85 142.18 L 524.50 146.61 L 528.15 155.36 L 531.80 151.54 L 535.45 146.55 L 539.10 144.71 L 542.75 151.36 L 546.40 146.21 L 550.05 139.90 L 553.70 140.26 L 557.35 139.95 L 561.00 147.77 L 564.65 143.90 L 568.30 141.68 L 571.95 139.46 L 575.60 136.48 L 579.25 140.05 L 582.90 134.36 L 586.55 134.73 L 590.20 132.19 L 593.85 135.05 L 597.50 142.56 L 601.15 148.64 L 604.80 144.24 L 608.45 149.14 L 612.10 148.75 L 615.75 159.77 L 619.40 166.41 L 623.05 169.23 L 626.70 170.80 L 630.35 168.91 L 634.00 166.31 L 637.65 174.07 L 641.30 182.38 L 644.95 178.49 L 648.60 178.11 L 652.25 169.40 L 655.90 166.88 L 659.55 168.63 L 663.20 164.96 L 666.85 159.33 L 670.50 167.25 L 674.15 170.55 L 677.80 167.65 L 681.45 160.63 L 685.10 165.86 L 688.75 173.35 L 692.40 182.85 L 696.05 185.60 L 699.70 191.15 L 703.35 185.09 L 707.00 178.44 L 710.65 176.13 L 714.30 174.61 L 717.95 173.84 L 721.60 178.88 L 725.25 174.28 L 728.90 180.10 L 732.55 189.64 L 736.20 194.69 L 739.85 195.13 L 743.50 195.71 L 747.15 197.76 L 750.80 200.63 L 754.45 202.76 L 758.10 204.29 L 761.75 204.02 L 765.40 199.12 L 769.05 197.73 L 772.70 198.96 L 776.35 202.64 L 780.00 209.14" class="path-4" />
<line x1="50" y1="196.2" x2="780" y2="196.2" stroke="#4b5563" stroke-width="0.8" stroke-dasharray="6 3" />
</svg>