<svg xmlns="http://www.w3.org/2000/svg" viewBox="0 0 800 300" width="800" height="300">
<style>
.axis-line { stroke: #6b7280; stroke-width: 0.5; }
.axis-text { font-family: monospace; font-size: 11px; fill: #9ca3af; }
.title-text { font-family: monospace; font-size: 14px; fill: #d1d5db; font-weight: bold; }
.grid-line { stroke: #374151; stroke-width: 0.3; stroke-dasharray: 4 2; }
.path-0 { fill: none; stroke: #3b82f6; stroke-width: 2; stroke-linecap: round; opacity: 0.85; animation: draw-0 8s ease-in-out 0.0s infinite; stroke-dasharray: 915; stroke-dashoffset: 915;}
@keyframes draw-0 { 0% { stroke-dashoffset: 915; } 38% { stroke-dashoffset: 0; } 62% { stroke-dashoffset: 0; } 100% { stroke-dashoffset: 915; }}
.path-1 { fill: none; stroke: #ef4444; stroke-width: 2; stroke-linecap: round; opacity: 0.85; animation: draw-1 8s ease-in-out 0.4s infinite; stroke-dasharray: 944; stroke-dashoffset: 944;}
@keyframes draw-1 { 0% { stroke-dashoffset: 944; } 38% { stroke-dashoffset: 0; } 62% { stroke-dashoffset: 0; } 100% { stroke-dashoffset: 944; }}
.path-2 { fill: none; stroke: #22c55e; stroke-width: 2; stroke-linecap: round; opacity: 0.85; animation: draw-2 8s ease-in-out 0.8s infinite; stroke-dasharray: 945; stroke-dashoffset: 945;}
@keyframes draw-2 { 0% { stroke-dashoffset: 945; } 38% { stroke-dashoffset: 0; } 62% { stroke-dashoffset: 0; } 100% { stroke-dashoffset: 945; }}
.path-3 { fill: none; stroke: #f59e0b; stroke-width: 2; stroke-linecap: round; opacity: 0.85; animation: draw-3 8s ease-in-out 1.2000000000000002s infinite; stroke-dasharray: 948; stroke-dashoffset: 948;}
@keyframes draw-3 { 0% { stroke-dashoffset: 948; } 38% { stroke-dashoffset: 0; } 62% { stroke-dashoffset: 0; } 100% { stroke-dashoffset: 948; }}
.path-4 { fill: none; stroke: #a855f7; stroke-width: 2; stroke-linecap: round; opacity: 0.85; animation: draw-4 8s ease-in-out 1.6s infinite; stroke-dasharray: 965; stroke-dashoffset: 965;}
@keyframes draw-4 { 0% { stroke-dashoffset: 965; } 38% { stroke-dashoffset: 0; } 62% { stroke-dashoffset: 0; } 100% { stroke-dashoffset: 965; }}
</style>
<rect width="800" height="300" rx="8" fill="#0d1117" />
<line x1="50" y1="260.0" x2="780" y2="260.0" class="grid-line" />
<text x="44" y="264.0" text-anchor="end" class="axis-text">-2.0</text>
<line x1="50" y1="216.0" x2="780" y2="216.0" class="grid-line" />
<text x="44" y="220.0" text-anchor="end" class="axis-text">-1.0</text>
<line x1="50" y1="172.0" x2="780" y2="172.0" class="grid-line" />
<text x="44" y="176.0" text-anchor="end" class="axis-text">-0.1</text>
<line x1="50" y1="128.0" x2="780" y2="128.0" class="grid-line" />
<text x="44" y="132.0" text-anchor="end" class="axis-text">0.9</text>
<line x1="50" y1="84.0" x2="780" y2="84.0" class="grid-line" />
<text x="44" y="88.0" text-anchor="end" class="axis-text">1.9</text>
<line x1="50" y1="40.0" x2="780" y2="40.0" class="grid-line" />
<text x="44" y="44.0" text-anchor="end" class="axis-text">2.8</text>
<line x1="50.0" y1="40" x2="50.0" y2="260" class="grid-line" />
<line x1="196.0" y1="40" x2="196.0" y2="260" class="grid-line" />
<line x1="342.0" y1="40" x2="342.0" y2="260" class="grid-line" />
<line x1="488.0" y1="40" x2="488.0" y2="260" class="grid-line" />
<line x1="634.0" y1="40" x2="634.0" y2="260" class="grid-line" />
<line x1="780.0" y1="40" x2="780.0" y2="260" class="grid-line" />
<line x1="50" y1="260" x2="780" y2="260" class="axis-line" />
<line x1="50" y1="40" x2="50" y2="260" class="axis-line" />
<text x="400.0" y="295" text-anchor="middle" class="axis-text">t</text>
<text x="12" y="150.0" text-anchor="middle" class="axis-text" transform="rotate(-90 12 150.0)">W(t)</text>
<text x="400.0" y="22" text-anchor="middle" class="title-text">Brownian Motion</text>
<path d="M 50.00 169.61 L 53.65 168.26 L 57.30 168.25 L 60.95 162.72 L 64.60 164.65 L 68.25 164.07 L 71.90 159.90 L 75.55 163.37 L 79.20 160.05 L 82.85 163.20 L 86.50 165.75 L 90.15 166.19 L 93.80 171.00 L 97.45 167.01 L 101.10 167.75 L 104.75 168.31 L 108.40 164.01 L 112.05 165.70 L 115.70 162.60 L 119.35 161.00 L 123.00 162.02 L 126.65 161.75 L 130.30 163.88 L 133.95 166.21 L 137.60 166.82 L 141.25 165.00 L 144.90 160.16 L 148.55 158.74 L 152.20 160.80 L 155.85 154.92 L 159.50 153.37 L 163.15 152.86 L 166.80 153.14 L 170.45 154.48 L 174.10 153.74 L 177.75 151.14 L 181.40 152.72 L 185.05 154.93 L 188.70 150.56 L 192.35 151.61 L 196.00 143.09 L 199.65 147.31 L 203.30 147.85 L 206.95 147.67 L 210.60 147.86 L 214.25 149.62 L 217.90 148.25 L 221.55 149.04 L 225.20 152.35 L 228.85 150.04 L 232.50 147.59 L 236.15 150.05 L 239.80 148.79 L 243.45 148.58 L 247.10 145.59 L 250.75 144.03 L 254.40 139.08 L 258.05 140.68 L 261.70 142.49 L 265.35 140.99 L 269.00 142.59 L 272.65 143.10 L 276.30 145.72 L 279.95 146.65 L 283.60 144.03 L 287.25 146.98 L 290.90 151.82 L 294.55 152.74 L 298.20 150.66 L 301.85 150.69 L 305.50 147.07 L 309.15 144.10 L 312.80 147.59 L 316.45 150.29 L 320.10 152.64 L 323.75 152.15 L 327.40 150.54 L 331.05 155.65 L 334.70 160.59 L 338.35 160.85 L 342.00 158.12 L 345.65 157.13 L 349.30 165.73 L 352.95 162.50 L 356.60 171.84 L 360.25 176.47 L 363.90 179.22 L 367.55 177.20 L 371.20 173.81 L 374.85 169.97 L 378.50 170.90 L 382.15 167.81 L 385.80 164.77 L 389.45 162.01 L 393.10 158.85 L 396.75 154.01 L 400.40 151.58 L 404.05 151.77 L 407.70 150.80 L 411.35 151.24 L 415.00 146.92 L 418.65 144.26 L 422.30 151.78 L 425.95 143.68 L 429.60 140.48 L 433.25 139.07 L 436.90 140.67 L 440.55 140.87 L 444.20 144.72 L 447.85 143.95 L 451.50 143.30 L 455.15 144.70 L 458.80 147.14 L 462.45 153.36 L 466.10 150.27 L 469.75 151.82 L 473.40 151.60 L 477.05 152.66 L 480.70 154.78 L 484.35 151.38 L 488.00 150.01 L 491.65 146.20 L 495.30 148.02 L 498.95 144.98 L 502.60 142.77 L 506.25 141.89 L 509.90 141.06 L 513.55 141.13 L 517.20 140.88 L 520.85 136.99 L 524.50 135.32 L 528.15 133.36 L 531.80 138.50 L 535.45 134.33 L 539.10 137.59 L 542.75 138.05 L 546.40 136.91 L 550.05 139.10 L 553.70 135.10 L 557.35 134.28 L 561.00 134.45 L 564.65 137.74 L 568.30 132.84 L 571.95 132.82 L 575.60 132.55 L 579.25 134.43 L 582.90 137.19 L 586.55 136.95 L 590.20 139.15 L 593.85 137.20 L 597.50 134.21 L 601.15 133.71 L 604.80 131.26 L 608.45 136.67 L 612.10 138.52 L 615.75 135.28 L 619.40 133.74 L 623.05 133.03 L 626.70 128.59 L 630.35 126.49 L 634.00 124.36 L 637.65 127.80 L 641.30 127.23 L 644.95 126.49 L 648.60 127.14 L 652.25 132.21 L 655.90 128.97 L 659.55 129.70 L 663.20 131.85 L 666.85 128.97 L 670.50 127.33 L 674.15 128.11 L 677.80 130.68 L 681.45 129.19 L 685.10 132.40 L 688.75 132.53 L 692.40 130.05 L 696.05 130.23 L 699.70 130.86 L 703.35 130.34 L 707.00 131.47 L 710.65 135.47 L 714.30 136.87 L 717.95 138.27 L 721.60 133.16 L 725.25 132.45 L 728.90 130.70 L 732.55 126.05 L 736.20 126.46 L 739.85 130.82 L 743.50 130.68 L 747.15 130.68 L 750.80 131.08 L 754.45 127.90 L 758.10 127.30 L 761.75 127.15 L 765.40 130.21 L 769.05 126.79 L 772.70 127.81 L 776.35 126.79 L 780.00 127.97" class="path-0" />
<path d="M 50.00 169.61 L 53.65 167.12 L 57.30 162.39 L 60.95 162.26 L 64.60 160.79 L 68.25 159.46 L 71.90 157.10 L 75.55 155.58 L 79.20 155.89 L 82.85 157.34 L 86.50 153.94 L 90.15 154.80 L 93.80 154.63 L 97.45 153.00 L 101.10 157.34 L 104.75 155.57 L 108.40 159.41 L 112.05 159.71 L 115.70 160.54 L 119.35 157.64 L 123.00 158.97 L 126.65 164.50 L 130.30 162.72 L 133.95 161.58 L 137.60 165.69 L 141.25 166.78 L 144.90 171.20 L 148.55 166.77 L 152.20 162.59 L 155.85 160.73 L 159.50 160.11 L 163.15 160.44 L 166.80 164.04 L 170.45 162.74 L 174.10 164.67 L 177.75 165.20 L 181.40 166.20 L 185.05 159.80 L 188.70 155.89 L 192.35 156.60 L 196.00 156.23 L 199.65 158.43 L 203.30 156.41 L 206.95 152.80 L 210.60 148.99 L 214.25 149.30 L 217.90 148.20 L 221.55 151.65 L 225.20 153.86 L 228.85 161.99 L 232.50 160.60 L 236.15 159.36 L 239.80 156.00 L 243.45 151.17 L 247.10 157.57 L 250.75 156.25 L 254.40 156.97 L 258.05 151.69 L 261.70 147.13 L 265.35 152.70 L 269.00 151.41 L 272.65 152.33 L 276.30 151.65 L 279.95 156.05 L 283.60 154.84 L 287.25 157.02 L 290.90 157.24 L 294.55 157.22 L 298.20 156.54 L 301.85 153.60 L 305.50 151.00 L 309.15 154.35 L 312.80 155.84 L 316.45 156.91 L 320.10 158.90 L 323.75 162.73 L 327.40 167.14 L 331.05 164.91 L 334.70 164.63 L 338.35 168.12 L 342.00 172.25 L 345.65 177.33 L 349.30 178.27 L 352.95 180.37 L 356.60 178.11 L 360.25 178.32 L 363.90 176.39 L 367.55 173.73 L 371.20 171.21 L 374.85 175.51 L 378.50 172.57 L 382.15 177.33 L 385.80 175.27 L 389.45 180.88 L 393.10 182.08 L 396.75 180.01 L 400.40 180.79 L 404.05 184.09 L 407.70 180.22 L 411.35 178.26 L 415.00 175.48 L 418.65 170.23 L 422.30 171.36 L 425.95 172.30 L 429.60 174.99 L 433.25 182.45 L 436.90 178.42 L 440.55 181.10 L 444.20 181.17 L 447.85 181.30 L 451.50 179.80 L 455.15 176.97 L 458.80 175.96 L 462.45 172.19 L 466.10 174.63 L 469.75 175.39 L 473.40 176.88 L 477.05 173.76 L 480.70 167.03 L 484.35 167.28 L 488.00 168.50 L 491.65 172.47 L 495.30 178.54 L 498.95 176.52 L 502.60 179.00 L 506.25 178.98 L 509.90 177.95 L 513.55 179.66 L 517.20 177.33 L 520.85 178.05 L 524.50 175.47 L 528.15 177.75 L 531.80 174.12 L 535.45 173.21 L 539.10 174.58 L 542.75 176.17 L 546.40 180.32 L 550.05 178.34 L 553.70 177.63 L 557.35 176.19 L 561.00 171.60 L 564.65 176.82 L 568.30 182.05 L 571.95 183.78 L 575.60 181.71 L 579.25 180.20 L 582.90 181.07 L 586.55 180.77 L 590.20 182.31 L 593.85 178.98 L 597.50 179.92 L 601.15 180.11 L 604.80 175.86 L 608.45 175.52 L 612.10 176.83 L 615.75 177.85 L 619.40 176.01 L 623.05 180.62 L 626.70 179.83 L 630.35 184.61 L 634.00 191.82 L 637.65 195.83 L 641.30 197.65 L 644.95 200.47 L 648.60 199.59 L 652.25 193.96 L 655.90 189.74 L 659.55 185.92 L 663.20 183.74 L 666.85 189.66 L 670.50 193.90 L 674.15 190.57 L 677.80 193.14 L 681.45 196.15 L 685.10 202.00 L 688.75 205.17 L 692.40 210.88 L 696.05 213.27 L 699.70 211.54 L 703.35 213.44 L 707.00 210.22 L 710.65 215.38 L 714.30 213.50 L 717.95 213.44 L 721.60 214.53 L 725.25 214.42 L 728.90 216.80 L 732.55 225.03 L 736.20 227.57 L 739.85 225.96 L 743.50 227.73 L 747.15 231.46 L 750.80 228.47 L 754.45 224.22 L 758.10 222.73 L 761.75 221.41 L 765.40 226.35 L 769.05 231.68 L 772.70 232.53 L 776.35 234.62 L 780.00 232.22" class="path-1" />
<path d="M 50.00 169.61 L 53.65 173.76 L 57.30 171.28 L 60.95 170.36 L 64.60 178.17 L 68.25 176.14 L 71.90 174.41 L 75.55 168.92 L 79.20 166.84 L 82.85 166.41 L 86.50 164.56 L 90.15 171.07 L 93.80 170.03 L 97.45 161.03 L 101.10 156.70 L 104.75 157.22 L 108.40 158.28 L 112.05 161.49 L 115.70 162.91 L 119.35 159.17 L 123.00 158.38 L 126.65 157.04 L 130.30 156.30 L 133.95 155.61 L 137.60 152.17 L 141.25 145.20 L 144.90 143.82 L 148.55 144.91 L 152.20 151.37 L 155.85 155.70 L 159.50 156.94 L 163.15 158.17 L 166.80 159.43 L 170.45 163.05 L 174.10 164.34 L 177.75 166.74 L 181.40 164.22 L 185.05 165.80 L 188.70 171.64 L 192.35 169.50 L 196.00 170.73 L 199.65 177.91 L 203.30 179.30 L 206.95 180.85 L 210.60 178.64 L 214.25 189.16 L 217.90 191.10 L 221.55 191.52 L 225.20 191.08 L 228.85 188.64 L 232.50 189.46 L 236.15 195.10 L 239.80 194.03 L 243.45 190.56 L 247.10 195.38 L 250.75 197.31 L 254.40 193.67 L 258.05 189.18 L 261.70 189.33 L 265.35 191.29 L 269.00 193.29 L 272.65 195.97 L 276.30 192.29 L 279.95 189.04 L 283.60 192.36 L 287.25 188.91 L 290.90 191.92 L 294.55 191.44 L 298.20 188.28 L 301.85 186.58 L 305.50 181.16 L 309.15 182.29 L 312.80 186.61 L 316.45 185.00 L 320.10 184.00 L 323.75 187.22 L 327.40 185.69 L 331.05 185.21 L 334.70 187.08 L 338.35 188.43 L 342.00 187.35 L 345.65 188.22 L 349.30 187.56 L 352.95 188.15 L 356.60 188.21 L 360.25 187.10 L 363.90 189.64 L 367.55 185.12 L 371.20 188.99 L 374.85 190.04 L 378.50 189.96 L 382.15 188.21 L 385.80 187.32 L 389.45 187.95 L 393.10 181.55 L 396.75 182.56 L 400.40 179.88 L 404.05 177.15 L 407.70 179.79 L 411.35 184.01 L 415.00 181.68 L 418.65 185.67 L 422.30 190.25 L 425.95 189.92 L 429.60 189.99 L 433.25 195.90 L 436.90 195.78 L 440.55 192.99 L 444.20 194.31 L 447.85 197.82 L 451.50 194.28 L 455.15 193.28 L 458.80 192.93 L 462.45 188.16 L 466.10 187.55 L 469.75 184.69 L 473.40 182.45 L 477.05 186.61 L 480.70 185.40 L 484.35 185.21 L 488.00 178.00 L 491.65 178.36 L 495.30 176.65 L 498.95 176.92 L 502.60 178.88 L 506.25 176.43 L 509.90 177.04 L 513.55 172.21 L 517.20 173.46 L 520.85 173.39 L 524.50 175.27 L 528.15 176.07 L 531.80 172.45 L 535.45 174.66 L 539.10 176.26 L 542.75 172.78 L 546.40 169.36 L 550.05 163.26 L 553.70 168.57 L 557.35 166.41 L 561.00 166.21 L 564.65 169.55 L 568.30 172.98 L 571.95 174.14 L 575.60 173.03 L 579.25 175.88 L 582.90 182.14 L 586.55 184.29 L 590.20 181.70 L 593.85 179.54 L 597.50 182.25 L 601.15 187.78 L 604.80 194.40 L 608.45 192.42 L 612.10 193.21 L 615.75 195.59 L 619.40 190.79 L 623.05 189.53 L 626.70 188.57 L 630.35 189.68 L 634.00 186.73 L 637.65 187.09 L 641.30 187.42 L 644.95 191.59 L 648.60 185.24 L 652.25 180.76 L 655.90 182.08 L 659.55 180.80 L 663.20 175.95 L 666.85 172.66 L 670.50 169.41 L 674.15 170.37 L 677.80 172.08 L 681.45 170.08 L 685.10 173.01 L 688.75 174.07 L 692.40 176.87 L 696.05 179.62 L 699.70 174.87 L 703.35 171.72 L 707.00 170.51 L 710.65 169.76 L 714.30 167.69 L 717.95 167.38 L 721.60 168.82 L 725.25 166.78 L 728.90 165.39 L 732.55 162.46 L 736.20 167.66 L 739.85 174.74 L 743.50 175.98 L 747.15 174.10 L 750.80 177.73 L 754.45 177.77 L 758.10 175.30 L 761.75 174.77 L 765.40 177.02 L 769.05 175.76 L 772.70 176.41 L 776.35 173.08 L 780.00 169.10" class="path-2" />
<path d="M 50.00 169.61 L 53.65 172.91 L 57.30 172.73 L 60.95 176.40 L 64.60 172.43 L 68.25 167.23 L 71.90 166.88 L 75.55 167.70 L 79.20 164.78 L 82.85 162.83 L 86.50 159.73 L 90.15 158.72 L 93.80 153.03 L 97.45 148.62 L 101.10 150.13 L 104.75 145.90 L 108.40 148.01 L 112.05 153.75 L 115.70 156.99 L 119.35 152.00 L 123.00 152.62 L 126.65 148.41 L 130.30 146.50 L 133.95 148.63 L 137.60 150.09 L 141.25 147.36 L 144.90 153.85 L 148.55 158.33 L 152.20 156.74 L 155.85 154.38 L 159.50 158.28 L 163.15 154.67 L 166.80 158.14 L 170.45 157.93 L 174.10 166.79 L 177.75 169.54 L 181.40 170.74 L 185.05 171.42 L 188.70 164.44 L 192.35 166.18 L 196.00 160.89 L 199.65 160.68 L 203.30 162.57 L 206.95 156.64 L 210.60 157.06 L 214.25 159.51 L 217.90 158.82 L 221.55 153.38 L 225.20 150.15 L 228.85 153.17 L 232.50 153.74 L 236.15 151.50 L 239.80 151.06 L 243.45 148.08 L 247.10 146.84 L 250.75 147.15 L 254.40 148.73 L 258.05 146.11 L 261.70 146.40 L 265.35 145.16 L 269.00 141.48 L 272.65 136.66 L 276.30 134.88 L 279.95 131.56 L 283.60 128.47 L 287.25 124.86 L 290.90 128.82 L 294.55 127.46 L 298.20 122.45 L 301.85 124.06 L 305.50 126.43 L 309.15 122.85 L 312.80 120.72 L 316.45 122.44 L 320.10 122.90 L 323.75 122.11 L 327.40 117.66 L 331.05 107.91 L 334.70 102.04 L 338.35 101.24 L 342.00 99.28 L 345.65 95.84 L 349.30 94.77 L 352.95 95.54 L 356.60 92.92 L 360.25 96.06 L 363.90 100.45 L 367.55 100.94 L 371.20 106.77 L 374.85 106.47 L 378.50 108.61 L 382.15 108.68 L 385.80 107.99 L 389.45 106.75 L 393.10 111.70 L 396.75 111.53 L 400.40 106.69 L 404.05 111.04 L 407.70 109.23 L 411.35 114.90 L 415.00 114.61 L 418.65 110.55 L 422.30 110.47 L 425.95 110.85 L 429.60 111.01 L 433.25 111.38 L 436.90 107.58 L 440.55 105.92 L 444.20 110.28 L 447.85 111.43 L 451.50 109.92 L 455.15 109.32 L 458.80 109.50 L 462.45 111.76 L 466.10 110.71 L 469.75 105.94 L 473.40 105.79 L 477.05 106.09 L 480.70 106.72 L 484.35 106.02 L 488.00 107.17 L 491.65 105.46 L 495.30 107.92 L 498.95 105.76 L 502.60 107.84 L 506.25 107.17 L 509.90 107.25 L 513.55 111.15 L 517.20 107.05 L 520.85 110.50 L 524.50 110.74 L 528.15 114.82 L 531.80 115.04 L 535.45 113.92 L 539.10 114.74 L 542.75 115.06 L 546.40 113.62 L 550.05 115.48 L 553.70 111.43 L 557.35 119.53 L 561.00 114.34 L 564.65 108.71 L 568.30 105.36 L 571.95 104.68 L 575.60 104.81 L 579.25 99.00 L 582.90 100.89 L 586.55 104.77 L 590.20 103.64 L 593.85 99.84 L 597.50 99.36 L 601.15 97.82 L 604.80 98.55 L 608.45 97.62 L 612.10 96.52 L 615.75 99.08 L 619.40 100.49 L 623.05 98.12 L 626.70 93.22 L 630.35 92.56 L 634.00 87.56 L 637.65 87.08 L 641.30 81.25 L 644.95 84.09 L 648.60 83.71 L 652.25 81.63 L 655.90 83.77 L 659.55 84.64 L 663.20 83.06 L 666.85 81.95 L 670.50 79.64 L 674.15 79.90 L 677.80 75.67 L 681.45 68.97 L 685.10 67.15 L 688.75 68.87 L 692.40 70.13 L 696.05 65.38 L 699.70 65.59 L 703.35 65.84 L 707.00 66.66 L 710.65 69.33 L 714.30 68.37 L 717.95 75.76 L 721.60 75.23 L 725.25 74.36 L 728.90 74.20 L 732.55 72.29 L 736.20 70.55 L 739.85 74.60 L 743.50 80.23 L 747.15 81.52 L 750.80 90.85 L 754.45 97.19 L 758.10 101.44 L 761.75 100.69 L 765.40 98.76 L 769.05 97.04 L 772.70 98.98 L 776.35 95.91 L 780.00 96.57" class="path-3" />
<path d="M 50.00 169.61 L 53.65 169.01 L 57.30 167.04 L 60.95 163.52 L 64.60 164.99 L 68.25 169.05 L 71.90 168.42 L 75.55 163.66 L 79.20 165.17 L 82.85 166.12 L 86.50 169.37 L 90.15 174.55 L 93.80 178.51 L 97.45 181.80 L 101.10 182.83 L 104.75 177.62 L 108.40 179.29 L 112.05 181.45 L 115.70 180.50 L 119.35 176.45 L 123.00 174.56 L 126.65 179.26 L 130.30 173.71 L 133.95 176.79 L 137.60 181.10 L 141.25 177.13 L 144.90 177.22 L 148.55 180.93 L 152.20 178.02 L 155.85 185.49 L 159.50 181.34 L 163.15 179.76 L 166.80 178.09 L 170.45 178.86 L 174.10 176.77 L 177.75 179.47 L 181.40 179.02 L 185.05 182.40 L 188.70 180.15 L 192.35 185.52 L 196.00 186.82 L 199.65 190.63 L 203.30 191.27 L 206.95 191.71 L 210.60 193.70 L 214.25 189.88 L 217.90 183.09 L 221.55 186.90 L 225.20 183.46 L 228.85 183.77 L 232.50 185.45 L 236.15 184.51 L 239.80 183.36 L 243.45 184.04 L 247.10 184.74 L 250.75 181.68 L 254.40 181.86 L 258.05 185.50 L 261.70 184.36 L 265.35 184.96 L 269.00 187.55 L 272.65 184.89 L 276.30 188.74 L 279.95 191.48 L 283.60 191.79 L 287.25 192.22 L 290.90 191.60 L 294.55 195.65 L 298.20 192.18 L 301.85 188.58 L 305.50 189.23 L 309.15 190.97 L 312.80 195.47 L 316.45 192.20 L 320.10 190.14 L 323.75 190.62 L 327.40 194.12 L 331.05 190.37 L 334.70 191.22 L 338.35 183.63 L 342.00 181.27 L 345.65 183.56 L 349.30 183.19 L 352.95 181.42 L 356.60 177.53 L 360.25 178.51 L 363.90 180.51 L 367.55 172.46 L 371.20 171.99 L 374.85 171.02 L 378.50 176.16 L 382.15 175.69 L 385.80 175.88 L 389.45 170.69 L 393.10 167.27 L 396.75 175.81 L 400.40 170.82 L 404.05 170.11 L 407.70 172.83 L 411.35 177.37 L 415.00 177.23 L 418.65 179.92 L 422.30 177.41 L 425.95 178.41 L 429.60 173.20 L 433.25 172.33 L 436.90 170.64 L 440.55 170.02 L 444.20 164.26 L 447.85 164.61 L 451.50 167.40 L 455.15 167.09 L 458.80 166.69 L 462.45 171.55 L 466.10 170.32 L 469.75 167.03 L 473.40 166.53 L 477.05 162.97 L 480.70 175.41 L 484.35 173.97 L 488.00 179.39 L 491.65 175.83 L 495.30 178.38 L 498.95 181.39 L 502.60 177.58 L 506.25 181.08 L 509.90 180.44 L 513.55 180.37 L 517.20 179.11 L 520.85 183.45 L 524.50 183.50 L 528.15 189.06 L 531.80 186.93 L 535.45 191.43 L 539.10 195.10 L 542.75 192.61 L 546.40 185.17 L 550.05 189.65 L 553.70 191.72 L 557.35 192.71 L 561.00 195.68 L 564.65 195.21 L 568.30 196.08 L 571.95 194.89 L 575.60 194.24 L 579.25 194.81 L 582.90 192.66 L 586.55 194.82 L 590.20 189.07 L 593.85 186.95 L 597.50 190.24 L 601.15 189.20 L 604.80 187.59 L 608.45 188.42 L 612.10 197.06 L 615.75 191.27 L 619.40 189.56 L 623.05 186.04 L 626.70 184.32 L 630.35 182.46 L 634.00 181.96 L 637.65 180.98 L 641.30 179.04 L 644.95 174.69 L 648.60 178.31 L 652.25 179.13 L 655.90 181.73 L 659.55 181.45 L 663.20 178.95 L 666.85 178.03 L 670.50 177.08 L 674.15 174.02 L 677.80 174.79 L 681.45 178.25 L 685.10 178.27 L 688.75 169.76 L 692.40 168.01 L 696.05 170.34 L 699.70 168.73 L 703.35 171.45 L 707.00 168.74 L 710.65 168.75 L 714.30 169.28 L 717.95 167.38 L 721.60 170.79 L 725.25 174.21 L 728.90 176.15 L 732.55 179.34 L 736.20 180.86 L 739.85 188.91 L 743.50 183.52 L 747.15 182.86 L 750.80 177.41 L 754.45 183.99 L 758.10 182.91 L 761.75 187.28 L 765.40 185.20 L 769.05 181.01 L 772.70 181.86 L 776.35 179.46 L 780.00 182.98" class="path-4" />
<line x1="50" y1="169.6" x2="780" y2="169.6" stroke="#4b5563" stroke-width="0.8" stroke-dasharray="6 3" />
</svg>