<svg xmlns="http://www.w3.org/2000/svg" viewBox="0 0 800 300" width="800" height="300">
<style>
.axis-line { stroke: #6b7280; stroke-width: 0.5; }
.axis-text { font-family: monospace; font-size: 11px; fill: #9ca3af; }
.title-text { font-family: monospace; font-size: 14px; fill: #d1d5db; font-weight: bold; }
.grid-line { stroke: #374151; stroke-width: 0.3; stroke-dasharray: 4 2; }
.path-0 { fill: none; stroke: #3b82f6; stroke-width: 2; stroke-linecap: round; opacity: 0.85; animation: draw-0 8s ease-in-out 0.0s infinite; stroke-dasharray: 1103; stroke-dashoffset: 1103;}
@keyframes draw-0 { 0% { stroke-dashoffset: 1103; } 38% { stroke-dashoffset: 0; } 62% { stroke-dashoffset: 0; } 100% { stroke-dashoffset: 1103; }}
.path-1 { fill: none; stroke: #ef4444; stroke-width: 2; stroke-linecap: round; opacity: 0.85; animation: draw-1 8s ease-in-out 0.4s infinite; stroke-dasharray: 1055; stroke-dashoffset: 1055;}
@keyframes draw-1 { 0% { stroke-dashoffset: 1055; } 38% { stroke-dashoffset: 0; } 62% { stroke-dashoffset: 0; } 100% { stroke-dashoffset: 1055; }}
.path-2 { fill: none; stroke: #22c55e; stroke-width: 2; stroke-linecap: round; opacity: 0.85; animation: draw-2 8s ease-in-out 0.8s infinite; stroke-dasharray: 1110; stroke-dashoffset: 1110;}
@keyframes draw-2 { 0% { stroke-dashoffset: 1110; } 38% { stroke-dashoffset: 0; } 62% { stroke-dashoffset: 0; } 100% { stroke-dashoffset: 1110; }}
.path-3 { fill: none; stroke: #f59e0b; stroke-width: 2; stroke-linecap: round; opacity: 0.85; animation: draw-3 8s ease-in-out 1.2000000000000002s infinite; stroke-dasharray: 1051; stroke-dashoffset: 1051;}
@keyframes draw-3 { 0% { stroke-dashoffset: 1051; } 38% { stroke-dashoffset: 0; } 62% { stroke-dashoffset: 0; } 100% { stroke-dashoffset: 1051; }}
.path-4 { fill: none; stroke: #a855f7; stroke-width: 2; stroke-linecap: round; opacity: 0.85; animation: draw-4 8s ease-in-out 1.6s infinite; stroke-dasharray: 1070; stroke-dashoffset: 1070;}
@keyframes draw-4 { 0% { stroke-dashoffset: 1070; } 38% { stroke-dashoffset: 0; } 62% { stroke-dashoffset: 0; } 100% { stroke-dashoffset: 1070; }}
</style>
<rect width="800" height="300" rx="8" fill="#0d1117" />
<line x1="50" y1="260.0" x2="780" y2="260.0" class="grid-line" />
<text x="44" y="264.0" text-anchor="end" class="axis-text">-2.4</text>
<line x1="50" y1="216.0" x2="780" y2="216.0" class="grid-line" />
<text x="44" y="220.0" text-anchor="end" class="axis-text">-1.7</text>
<line x1="50" y1="172.0" x2="780" y2="172.0" class="grid-line" />
<text x="44" y="176.0" text-anchor="end" class="axis-text">-1.0</text>
<line x1="50" y1="128.0" x2="780" y2="128.0" class="grid-line" />
<text x="44" y="132.0" text-anchor="end" class="axis-text">-0.3</text>
<line x1="50" y1="84.0" x2="780" y2="84.0" class="grid-line" />
<text x="44" y="88.0" text-anchor="end" class="axis-text">0.4</text>
<line x1="50" y1="40.0" x2="780" y2="40.0" class="grid-line" />
<text x="44" y="44.0" text-anchor="end" class="axis-text">1.1</text>
<line x1="50.0" y1="40" x2="50.0" y2="260" class="grid-line" />
<line x1="196.0" y1="40" x2="196.0" y2="260" class="grid-line" />
<line x1="342.0" y1="40" x2="342.0" y2="260" class="grid-line" />
<line x1="488.0" y1="40" x2="488.0" y2="260" class="grid-line" />
<line x1="634.0" y1="40" x2="634.0" y2="260" class="grid-line" />
<line x1="780.0" y1="40" x2="780.0" y2="260" class="grid-line" />
<line x1="50" y1="260" x2="780" y2="260" class="axis-line" />
<line x1="50" y1="40" x2="50" y2="260" class="axis-line" />
<text x="400.0" y="295" text-anchor="middle" class="axis-text">t</text>
<text x="12" y="150.0" text-anchor="middle" class="axis-text" transform="rotate(-90 12 150.0)">W(t)</text>
<text x="400.0" y="22" text-anchor="middle" class="title-text">Brownian Motion</text>
<path d="M 50.00 108.86 L 53.65 100.69 L 57.30 97.64 L 60.95 93.90 L 64.60 91.20 L 68.25 91.77 L 71.90 96.42 L 75.55 101.03 L 79.20 99.15 L 82.85 92.02 L 86.50 88.66 L 90.15 84.94 L 93.80 85.47 L 97.45 88.84 L 101.10 82.58 L 104.75 91.33 L 108.40 83.89 L 112.05 83.97 L 115.70 79.81 L 119.35 77.11 L 123.00 75.20 L 126.65 75.89 L 130.30 70.55 L 133.95 74.31 L 137.60 76.45 L 141.25 76.31 L 144.90 76.66 L 148.55 82.43 L 152.20 83.29 L 155.85 77.66 L 159.50 77.54 L 163.15 76.19 L 166.80 79.14 L 170.45 83.54 L 174.10 82.87 L 177.75 73.90 L 181.40 72.55 L 185.05 68.81 L 188.70 77.37 L 192.35 65.38 L 196.00 67.92 L 199.65 70.48 L 203.30 75.93 L 206.95 74.54 L 210.60 73.30 L 214.25 72.27 L 217.90 78.55 L 221.55 77.72 L 225.20 76.06 L 228.85 78.39 L 232.50 79.63 L 236.15 80.23 L 239.80 82.84 L 243.45 81.19 L 247.10 76.66 L 250.75 70.20 L 254.40 73.86 L 258.05 78.21 L 261.70 76.27 L 265.35 80.80 L 269.00 75.13 L 272.65 79.89 L 276.30 85.07 L 279.95 89.22 L 283.60 93.38 L 287.25 89.54 L 290.90 93.11 L 294.55 99.25 L 298.20 102.30 L 301.85 103.30 L 305.50 99.66 L 309.15 98.71 L 312.80 97.01 L 316.45 101.92 L 320.10 103.46 L 323.75 106.04 L 327.40 106.75 L 331.05 105.12 L 334.70 102.82 L 338.35 105.13 L 342.00 116.37 L 345.65 125.43 L 349.30 124.72 L 352.95 120.24 L 356.60 119.52 L 360.25 118.09 L 363.90 118.01 L 367.55 109.36 L 371.20 110.17 L 374.85 117.27 L 378.50 127.80 L 382.15 120.06 L 385.80 131.51 L 389.45 137.71 L 393.10 132.61 L 396.75 126.99 L 400.40 125.62 L 404.05 119.07 L 407.70 128.22 L 411.35 125.63 L 415.00 131.34 L 418.65 124.02 L 422.30 121.04 L 425.95 121.18 L 429.60 114.57 L 433.25 107.87 L 436.90 109.91 L 440.55 102.83 L 444.20 102.46 L 447.85 105.87 L 451.50 97.93 L 455.15 96.44 L 458.80 93.82 L 462.45 92.98 L 466.10 90.55 L 469.75 96.19 L 473.40 108.38 L 477.05 115.98 L 480.70 118.86 L 484.35 113.12 L 488.00 111.79 L 491.65 110.86 L 495.30 105.53 L 498.95 99.91 L 502.60 94.96 L 506.25 88.93 L 509.90 87.00 L 513.55 84.61 L 517.20 84.79 L 520.85 87.52 L 524.50 87.04 L 528.15 81.91 L 531.80 86.97 L 535.45 87.57 L 539.10 90.59 L 542.75 92.26 L 546.40 94.47 L 550.05 95.50 L 553.70 97.89 L 557.35 96.27 L 561.00 96.92 L 564.65 102.33 L 568.30 104.20 L 571.95 112.25 L 575.60 115.47 L 579.25 111.43 L 582.90 117.72 L 586.55 112.56 L 590.20 119.20 L 593.85 125.50 L 597.50 123.98 L 601.15 125.30 L 604.80 126.19 L 608.45 128.31 L 612.10 134.40 L 615.75 140.17 L 619.40 146.95 L 623.05 153.19 L 626.70 153.44 L 630.35 148.91 L 634.00 148.58 L 637.65 147.92 L 641.30 153.00 L 644.95 148.95 L 648.60 149.54 L 652.25 149.82 L 655.90 152.39 L 659.55 147.66 L 663.20 145.84 L 666.85 148.22 L 670.50 152.20 L 674.15 156.13 L 677.80 160.54 L 681.45 157.17 L 685.10 157.03 L 688.75 158.13 L 692.40 161.39 L 696.05 158.73 L 699.70 153.81 L 703.35 154.21 L 707.00 155.88 L 710.65 162.77 L 714.30 161.75 L 717.95 154.14 L 721.60 154.15 L 725.25 153.85 L 728.90 164.77 L 732.55 168.19 L 736.20 169.80 L 739.85 166.03 L 743.50 160.10 L 747.15 157.76 L 750.80 153.93 L 754.45 154.38 L 758.10 155.61 L 761.75 150.71 L 765.40 152.99 L 769.05 151.60 L 772.70 153.14 L 776.35 152.15 L 780.00 150.90" class="path-0" />
<path d="M 50.00 108.86 L 53.65 108.19 L 57.30 107.03 L 60.95 112.21 L 64.60 116.06 L 68.25 113.87 L 71.90 114.07 L 75.55 126.83 L 79.20 128.95 L 82.85 128.02 L 86.50 122.96 L 90.15 126.03 L 93.80 123.29 L 97.45 131.99 L 101.10 131.35 L 104.75 130.23 L 108.40 124.72 L 112.05 125.02 L 115.70 126.52 L 119.35 131.69 L 123.00 138.63 L 126.65 136.79 L 130.30 134.63 L 133.95 140.47 L 137.60 148.90 L 141.25 152.53 L 144.90 154.79 L 148.55 158.97 L 152.20 159.59 L 155.85 161.37 L 159.50 158.64 L 163.15 161.14 L 166.80 163.07 L 170.45 168.16 L 174.10 174.04 L 177.75 173.40 L 181.40 173.09 L 185.05 172.34 L 188.70 175.60 L 192.35 180.38 L 196.00 177.75 L 199.65 174.38 L 203.30 164.89 L 206.95 158.54 L 210.60 158.34 L 214.25 158.28 L 217.90 155.12 L 221.55 151.16 L 225.20 149.61 L 228.85 152.44 L 232.50 146.77 L 236.15 143.59 L 239.80 141.14 L 243.45 150.09 L 247.10 150.22 L 250.75 144.96 L 254.40 150.54 L 258.05 151.49 L 261.70 148.32 L 265.35 150.38 L 269.00 153.96 L 272.65 151.86 L 276.30 147.27 L 279.95 151.27 L 283.60 155.89 L 287.25 157.67 L 290.90 155.12 L 294.55 155.45 L 298.20 152.66 L 301.85 145.38 L 305.50 143.20 L 309.15 137.82 L 312.80 136.15 L 316.45 135.32 L 320.10 136.87 L 323.75 133.14 L 327.40 134.65 L 331.05 138.52 L 334.70 133.95 L 338.35 128.63 L 342.00 137.52 L 345.65 139.21 L 349.30 142.89 L 352.95 145.40 L 356.60 147.94 L 360.25 148.02 L 363.90 154.08 L 367.55 156.55 L 371.20 150.42 L 374.85 148.86 L 378.50 149.71 L 382.15 148.77 L 385.80 149.38 L 389.45 154.50 L 393.10 152.67 L 396.75 158.75 L 400.40 157.89 L 404.05 155.64 L 407.70 157.42 L 411.35 155.23 L 415.00 159.40 L 418.65 163.01 L 422.30 168.39 L 425.95 164.80 L 429.60 169.66 L 433.25 170.30 L 436.90 163.92 L 440.55 162.29 L 444.20 170.81 L 447.85 181.93 L 451.50 184.48 L 455.15 181.77 L 458.80 180.67 L 462.45 186.48 L 466.10 190.11 L 469.75 189.23 L 473.40 187.60 L 477.05 190.96 L 480.70 189.39 L 484.35 191.20 L 488.00 184.26 L 491.65 182.62 L 495.30 181.31 L 498.95 179.80 L 502.60 177.74 L 506.25 178.01 L 509.90 173.40 L 513.55 173.58 L 517.20 173.95 L 520.85 179.70 L 524.50 179.37 L 528.15 169.40 L 531.80 166.59 L 535.45 172.96 L 539.10 174.83 L 542.75 176.18 L 546.40 179.51 L 550.05 173.67 L 553.70 176.20 L 557.35 175.64 L 561.00 175.47 L 564.65 173.96 L 568.30 176.95 L 571.95 171.93 L 575.60 173.00 L 579.25 169.94 L 582.90 166.75 L 586.55 159.94 L 590.20 165.54 L 593.85 167.79 L 597.50 174.08 L 601.15 173.60 L 604.80 172.69 L 608.45 173.82 L 612.10 172.62 L 615.75 172.56 L 619.40 173.91 L 623.05 172.32 L 626.70 171.58 L 630.35 168.20 L 634.00 166.20 L 637.65 158.02 L 641.30 153.27 L 644.95 150.64 L 648.60 150.88 L 652.25 154.62 L 655.90 155.20 L 659.55 155.89 L 663.20 157.70 L 666.85 151.26 L 670.50 151.54 L 674.15 147.93 L 677.80 147.73 L 681.45 153.60 L 685.10 152.50 L 688.75 150.76 L 692.40 151.08 L 696.05 146.34 L 699.70 145.58 L 703.35 149.26 L 707.00 147.45 L 710.65 142.82 L 714.30 142.44 L 717.95 137.48 L 721.60 133.40 L 725.25 136.94 L 728.90 142.18 L 732.55 137.38 L 736.20 142.28 L 739.85 143.52 L 743.50 144.76 L 747.15 145.09 L 750.80 138.77 L 754.45 136.38 L 758.10 131.12 L 761.75 136.92 L 765.40 140.27 L 769.05 144.55 L 772.70 157.67 L 776.35 172.43 L 780.00 176.89" class="path-1" />
<path d="M 50.00 108.86 L 53.65 110.33 L 57.30 104.84 L 60.95 110.04 L 64.60 107.47 L 68.25 106.51 L 71.90 103.58 L 75.55 106.98 L 79.20 97.18 L 82.85 96.83 L 86.50 107.53 L 90.15 117.55 L 93.80 123.85 L 97.45 122.91 L 101.10 114.49 L 104.75 109.54 L 108.40 108.66 L 112.05 105.52 L 115.70 101.66 L 119.35 103.78 L 123.00 106.33 L 126.65 107.03 L 130.30 112.42 L 133.95 110.62 L 137.60 117.20 L 141.25 113.19 L 144.90 119.60 L 148.55 120.10 L 152.20 112.08 L 155.85 116.52 L 159.50 109.81 L 163.15 104.57 L 166.80 103.15 L 170.45 99.21 L 174.10 100.99 L 177.75 102.01 L 181.40 104.85 L 185.05 103.80 L 188.70 110.06 L 192.35 104.44 L 196.00 108.52 L 199.65 106.93 L 203.30 109.24 L 206.95 105.66 L 210.60 107.26 L 214.25 116.64 L 217.90 110.90 L 221.55 115.68 L 225.20 116.59 L 228.85 114.02 L 232.50 112.79 L 236.15 114.15 L 239.80 123.40 L 243.45 130.88 L 247.10 133.32 L 250.75 129.60 L 254.40 135.34 L 258.05 130.84 L 261.70 131.28 L 265.35 136.35 L 269.00 139.87 L 272.65 135.14 L 276.30 131.25 L 279.95 133.83 L 283.60 139.02 L 287.25 143.92 L 290.90 152.70 L 294.55 149.94 L 298.20 148.50 L 301.85 144.33 L 305.50 150.38 L 309.15 148.35 L 312.80 149.95 L 316.45 147.83 L 320.10 138.96 L 323.75 138.60 L 327.40 140.24 L 331.05 142.70 L 334.70 147.26 L 338.35 145.51 L 342.00 154.93 L 345.65 155.74 L 349.30 151.41 L 352.95 147.65 L 356.60 149.59 L 360.25 151.78 L 363.90 155.06 L 367.55 155.45 L 371.20 155.96 L 374.85 164.85 L 378.50 171.48 L 382.15 172.87 L 385.80 174.82 L 389.45 185.38 L 393.10 182.88 L 396.75 180.22 L 400.40 180.73 L 404.05 176.41 L 407.70 173.93 L 411.35 177.93 L 415.00 178.71 L 418.65 180.90 L 422.30 181.15 L 425.95 182.49 L 429.60 185.28 L 433.25 196.83 L 436.90 196.08 L 440.55 201.00 L 444.20 190.35 L 447.85 191.61 L 451.50 184.94 L 455.15 183.29 L 458.80 180.91 L 462.45 185.32 L 466.10 188.80 L 469.75 189.18 L 473.40 180.71 L 477.05 179.05 L 480.70 171.96 L 484.35 175.31 L 488.00 169.36 L 491.65 172.70 L 495.30 171.66 L 498.95 171.64 L 502.60 171.11 L 506.25 171.78 L 509.90 172.72 L 513.55 176.36 L 517.20 184.44 L 520.85 183.48 L 524.50 182.41 L 528.15 180.84 L 531.80 177.49 L 535.45 178.73 L 539.10 172.47 L 542.75 175.49 L 546.40 172.71 L 550.05 177.27 L 553.70 181.49 L 557.35 182.78 L 561.00 179.68 L 564.65 177.46 L 568.30 172.49 L 571.95 170.82 L 575.60 174.73 L 579.25 165.93 L 582.90 166.77 L 586.55 164.59 L 590.20 164.05 L 593.85 164.21 L 597.50 168.46 L 601.15 171.44 L 604.80 174.87 L 608.45 172.51 L 612.10 178.29 L 615.75 175.07 L 619.40 183.79 L 623.05 176.70 L 626.70 178.25 L 630.35 181.45 L 634.00 189.58 L 637.65 187.27 L 641.30 187.52 L 644.95 193.05 L 648.60 192.58 L 652.25 196.01 L 655.90 205.63 L 659.55 216.98 L 663.20 221.86 L 666.85 227.87 L 670.50 222.69 L 674.15 220.32 L 677.80 220.16 L 681.45 218.94 L 685.10 223.76 L 688.75 232.25 L 692.40 234.62 L 696.05 231.58 L 699.70 225.85 L 703.35 222.08 L 707.00 221.97 L 710.65 220.80 L 714.30 221.18 L 717.95 214.86 L 721.60 209.65 L 725.25 212.18 L 728.90 213.53 L 732.55 209.86 L 736.20 211.74 L 739.85 209.11 L 743.50 208.61 L 747.15 217.24 L 750.80 213.43 L 754.45 219.03 L 758.10 217.52 L 761.75 221.90 L 765.40 217.86 L 769.05 215.87 L 772.70 216.47 L 776.35 218.84 L 780.00 222.43" class="path-2" />
<path d="M 50.00 108.86 L 53.65 104.50 L 57.30 100.72 L 60.95 93.08 L 64.60 93.33 L 68.25 88.60 L 71.90 92.40 L 75.55 92.45 L 79.20 97.61 L 82.85 100.55 L 86.50 93.40 L 90.15 95.24 L 93.80 102.89 L 97.45 102.84 L 101.10 103.52 L 104.75 109.96 L 108.40 118.15 L 112.05 115.88 L 115.70 110.81 L 119.35 114.46 L 123.00 109.42 L 126.65 112.93 L 130.30 116.81 L 133.95 121.65 L 137.60 111.40 L 141.25 114.73 L 144.90 115.54 L 148.55 117.85 L 152.20 117.09 L 155.85 119.14 L 159.50 111.92 L 163.15 116.37 L 166.80 121.05 L 170.45 120.53 L 174.10 120.33 L 177.75 118.87 L 181.40 123.76 L 185.05 123.05 L 188.70 124.80 L 192.35 126.02 L 196.00 124.41 L 199.65 129.07 L 203.30 133.77 L 206.95 133.03 L 210.60 135.09 L 214.25 138.78 L 217.90 135.29 L 221.55 138.09 L 225.20 141.34 L 228.85 146.30 L 232.50 149.79 L 236.15 150.24 L 239.80 150.73 L 243.45 152.59 L 247.10 151.10 L 250.75 149.13 L 254.40 151.88 L 258.05 148.03 L 261.70 152.94 L 265.35 151.51 L 269.00 155.85 L 272.65 159.07 L 276.30 155.71 L 279.95 157.48 L 283.60 153.41 L 287.25 146.27 L 290.90 151.35 L 294.55 148.99 L 298.20 145.02 L 301.85 142.64 L 305.50 140.93 L 309.15 145.21 L 312.80 144.33 L 316.45 146.67 L 320.10 152.58 L 323.75 158.61 L 327.40 157.70 L 331.05 159.04 L 334.70 159.33 L 338.35 157.08 L 342.00 157.85 L 345.65 161.02 L 349.30 150.01 L 352.95 147.96 L 356.60 148.46 L 360.25 148.39 L 363.90 138.63 L 367.55 145.85 L 371.20 136.07 L 374.85 143.60 L 378.50 148.49 L 382.15 148.79 L 385.80 156.10 L 389.45 151.80 L 393.10 150.03 L 396.75 147.97 L 400.40 150.87 L 404.05 149.90 L 407.70 153.37 L 411.35 147.79 L 415.00 147.76 L 418.65 148.79 L 422.30 147.86 L 425.95 144.92 L 429.60 139.53 L 433.25 141.33 L 436.90 138.48 L 440.55 144.81 L 444.20 147.10 L 447.85 144.32 L 451.50 148.23 L 455.15 143.77 L 458.80 144.81 L 462.45 154.24 L 466.10 155.80 L 469.75 154.81 L 473.40 158.31 L 477.05 161.45 L 480.70 164.15 L 484.35 166.67 L 488.00 160.44 L 491.65 155.95 L 495.30 156.81 L 498.95 149.12 L 502.60 151.14 L 506.25 159.01 L 509.90 161.36 L 513.55 162.95 L 517.20 164.75 L 520.85 157.51 L 524.50 159.61 L 528.15 158.71 L 531.80 160.31 L 535.45 160.59 L 539.10 159.78 L 542.75 160.35 L 546.40 157.07 L 550.05 158.45 L 553.70 153.02 L 557.35 156.72 L 561.00 165.68 L 564.65 166.42 L 568.30 169.65 L 571.95 168.37 L 575.60 164.13 L 579.25 166.38 L 582.90 171.40 L 586.55 173.77 L 590.20 181.90 L 593.85 182.27 L 597.50 186.03 L 601.15 186.57 L 604.80 193.57 L 608.45 193.30 L 612.10 193.98 L 615.75 190.11 L 619.40 189.78 L 623.05 198.50 L 626.70 190.68 L 630.35 193.15 L 634.00 185.97 L 637.65 189.79 L 641.30 192.65 L 644.95 194.47 L 648.60 191.94 L 652.25 196.20 L 655.90 206.63 L 659.55 209.07 L 663.20 214.46 L 666.85 219.09 L 670.50 219.34 L 674.15 221.61 L 677.80 215.28 L 681.45 216.81 L 685.10 217.14 L 688.75 220.72 L 692.40 224.94 L 696.05 228.61 L 699.70 227.03 L 703.35 225.51 L 707.00 220.70 L 710.65 221.19 L 714.30 221.34 L 717.95 221.01 L 721.60 221.05 L 725.25 219.29 L 728.90 222.14 L 732.55 221.93 L 736.20 222.64 L 739.85 222.03 L 743.50 226.38 L 747.15 228.68 L 750.80 226.80 L 754.45 224.06 L 758.10 223.92 L 761.75 219.07 L 765.40 216.45 L 769.05 222.29 L 772.70 216.71 L 776.35 218.38 L 780.00 218.59" class="path-3" />
<path d="M 50.00 108.86 L 53.65 113.00 L 57.30 113.75 L 60.95 110.31 L 64.60 110.21 L 68.25 112.41 L 71.90 116.25 L 75.55 114.49 L 79.20 118.02 L 82.85 125.85 L 86.50 126.40 L 90.15 124.02 L 93.80 116.29 L 97.45 116.72 L 101.10 115.38 L 104.75 110.49 L 108.40 110.03 L 112.05 111.98 L 115.70 114.04 L 119.35 116.72 L 123.00 117.35 L 126.65 118.47 L 130.30 118.92 L 133.95 115.61 L 137.60 112.29 L 141.25 110.30 L 144.90 109.40 L 148.55 108.13 L 152.20 113.81 L 155.85 119.17 L 159.50 120.35 L 163.15 111.37 L 166.80 107.07 L 170.45 115.58 L 174.10 108.22 L 177.75 104.52 L 181.40 105.85 L 185.05 110.69 L 188.70 114.52 L 192.35 118.86 L 196.00 111.61 L 199.65 106.54 L 203.30 101.78 L 206.95 99.71 L 210.60 97.08 L 214.25 99.93 L 217.90 98.18 L 221.55 101.67 L 225.20 99.98 L 228.85 105.72 L 232.50 106.55 L 236.15 105.21 L 239.80 103.31 L 243.45 96.93 L 247.10 99.44 L 250.75 99.16 L 254.40 101.65 L 258.05 104.00 L 261.70 103.73 L 265.35 103.23 L 269.00 108.10 L 272.65 103.73 L 276.30 102.92 L 279.95 101.85 L 283.60 95.68 L 287.25 99.30 L 290.90 97.30 L 294.55 108.15 L 298.20 115.98 L 301.85 113.04 L 305.50 115.60 L 309.15 118.63 L 312.80 119.01 L 316.45 120.04 L 320.10 118.90 L 323.75 116.28 L 327.40 118.52 L 331.05 123.81 L 334.70 130.64 L 338.35 138.47 L 342.00 136.20 L 345.65 131.58 L 349.30 138.90 L 352.95 141.11 L 356.60 143.60 L 360.25 145.46 L 363.90 150.16 L 367.55 150.52 L 371.20 150.83 L 374.85 161.10 L 378.50 161.27 L 382.15 159.84 L 385.80 158.12 L 389.45 161.44 L 393.10 155.78 L 396.75 160.96 L 400.40 157.87 L 404.05 156.81 L 407.70 151.84 L 411.35 158.68 L 415.00 158.72 L 418.65 157.38 L 422.30 150.74 L 425.95 148.48 L 429.60 153.31 L 433.25 155.98 L 436.90 147.34 L 440.55 145.67 L 444.20 152.25 L 447.85 158.35 L 451.50 165.32 L 455.15 170.91 L 458.80 176.66 L 462.45 169.58 L 466.10 167.22 L 469.75 167.60 L 473.40 167.53 L 477.05 170.85 L 480.70 160.32 L 484.35 157.80 L 488.00 159.09 L 491.65 164.81 L 495.30 166.59 L 498.95 162.50 L 502.60 163.31 L 506.25 163.80 L 509.90 159.19 L 513.55 165.90 L 517.20 167.88 L 520.85 167.76 L 524.50 164.94 L 528.15 162.15 L 531.80 167.51 L 535.45 170.30 L 539.10 167.72 L 542.75 162.15 L 546.40 156.77 L 550.05 156.51 L 553.70 157.86 L 557.35 161.32 L 561.00 164.73 L 564.65 163.19 L 568.30 156.15 L 571.95 158.24 L 575.60 150.91 L 579.25 145.55 L 582.90 142.34 L 586.55 139.79 L 590.20 140.79 L 593.85 140.02 L 597.50 141.85 L 601.15 141.06 L 604.80 143.44 L 608.45 144.89 L 612.10 152.09 L 615.75 149.34 L 619.40 144.03 L 623.05 140.74 L 626.70 134.98 L 630.35 127.00 L 634.00 122.14 L 637.65 117.11 L 641.30 115.95 L 644.95 116.93 L 648.60 117.15 L 652.25 122.06 L 655.90 119.41 L 659.55 118.03 L 663.20 119.47 L 666.85 116.42 L 670.50 112.17 L 674.15 113.43 L 677.80 112.77 L 681.45 104.61 L 685.10 105.24 L 688.75 113.06 L 692.40 116.75 L 696.05 120.49 L 699.70 124.96 L 703.35 131.48 L 707.00 125.38 L 710.65 128.42 L 714.30 129.07 L 717.95 134.80 L 721.60 136.80 L 725.25 141.44 L 728.90 144.51 L 732.55 142.16 L 736.20 140.69 L 739.85 132.95 L 743.50 133.42 L 747.15 134.23 L 750.80 131.44 L 754.45 130.44 L 758.10 138.85 L 761.75 138.21 L 765.40 138.00 L 769.05 143.08 L 772.70 140.91 L 776.35 147.67 L 780.00 152.11" class="path-4" />
<line x1="50" y1="108.9" x2="780" y2="108.9" stroke="#4b5563" stroke-width="0.8" stroke-dasharray="6 3" />
</svg>