<svg xmlns="http://www.w3.org/2000/svg" viewBox="0 0 800 300" width="800" height="300">
<style>
.axis-line { stroke: #6b7280; stroke-width: 0.5; }
.axis-text { font-family: monospace; font-size: 11px; fill: #9ca3af; }
.title-text { font-family: monospace; font-size: 14px; fill: #d1d5db; font-weight: bold; }
.grid-line { stroke: #374151; stroke-width: 0.3; stroke-dasharray: 4 2; }
.path-0 { fill: none; stroke: #3b82f6; stroke-width: 2; stroke-linecap: round; opacity: 0.85; animation: draw-0 8s ease-in-out 0.0s infinite; stroke-dasharray: 1001; stroke-dashoffset: 1001;}
@keyframes draw-0 { 0% { stroke-dashoffset: 1001; } 38% { stroke-dashoffset: 0; } 62% { stroke-dashoffset: 0; } 100% { stroke-dashoffset: 1001; }}
.path-1 { fill: none; stroke: #ef4444; stroke-width: 2; stroke-linecap: round; opacity: 0.85; animation: draw-1 8s ease-in-out 0.4s infinite; stroke-dasharray: 1013; stroke-dashoffset: 1013;}
@keyframes draw-1 { 0% { stroke-dashoffset: 1013; } 38% { stroke-dashoffset: 0; } 62% { stroke-dashoffset: 0; } 100% { stroke-dashoffset: 1013; }}
.path-2 { fill: none; stroke: #22c55e; stroke-width: 2; stroke-linecap: round; opacity: 0.85; animation: draw-2 8s ease-in-out 0.8s infinite; stroke-dasharray: 999; stroke-dashoffset: 999;}
@keyframes draw-2 { 0% { stroke-dashoffset: 999; } 38% { stroke-dashoffset: 0; } 62% { stroke-dashoffset: 0; } 100% { stroke-dashoffset: 999; }}
.path-3 { fill: none; stroke: #f59e0b; stroke-width: 2; stroke-linecap: round; opacity: 0.85; animation: draw-3 8s ease-in-out 1.2000000000000002s infinite; stroke-dasharray: 989; stroke-dashoffset: 989;}
@keyframes draw-3 { 0% { stroke-dashoffset: 989; } 38% { stroke-dashoffset: 0; } 62% { stroke-dashoffset: 0; } 100% { stroke-dashoffset: 989; }}
.path-4 { fill: none; stroke: #a855f7; stroke-width: 2; stroke-linecap: round; opacity: 0.85; animation: draw-4 8s ease-in-out 1.6s infinite; stroke-dasharray: 985; stroke-dashoffset: 985;}
@keyframes draw-4 { 0% { stroke-dashoffset: 985; } 38% { stroke-dashoffset: 0; } 62% { stroke-dashoffset: 0; } 100% { stroke-dashoffset: 985; }}
</style>
<rect width="800" height="300" rx="8" fill="#0d1117" />
<line x1="50" y1="260.0" x2="780" y2="260.0" class="grid-line" />
<text x="44" y="264.0" text-anchor="end" class="axis-text">-2.0</text>
<line x1="50" y1="216.0" x2="780" y2="216.0" class="grid-line" />
<text x="44" y="220.0" text-anchor="end" class="axis-text">-1.2</text>
<line x1="50" y1="172.0" x2="780" y2="172.0" class="grid-line" />
<text x="44" y="176.0" text-anchor="end" class="axis-text">-0.4</text>
<line x1="50" y1="128.0" x2="780" y2="128.0" class="grid-line" />
<text x="44" y="132.0" text-anchor="end" class="axis-text">0.4</text>
<line x1="50" y1="84.0" x2="780" y2="84.0" class="grid-line" />
<text x="44" y="88.0" text-anchor="end" class="axis-text">1.2</text>
<line x1="50" y1="40.0" x2="780" y2="40.0" class="grid-line" />
<text x="44" y="44.0" text-anchor="end" class="axis-text">2.0</text>
<line x1="50.0" y1="40" x2="50.0" y2="260" class="grid-line" />
<line x1="196.0" y1="40" x2="196.0" y2="260" class="grid-line" />
<line x1="342.0" y1="40" x2="342.0" y2="260" class="grid-line" />
<line x1="488.0" y1="40" x2="488.0" y2="260" class="grid-line" />
<line x1="634.0" y1="40" x2="634.0" y2="260" class="grid-line" />
<line x1="780.0" y1="40" x2="780.0" y2="260" class="grid-line" />
<line x1="50" y1="260" x2="780" y2="260" class="axis-line" />
<line x1="50" y1="40" x2="50" y2="260" class="axis-line" />
<text x="400.0" y="295" text-anchor="middle" class="axis-text">t</text>
<text x="12" y="150.0" text-anchor="middle" class="axis-text" transform="rotate(-90 12 150.0)">W(t)</text>
<text x="400.0" y="22" text-anchor="middle" class="title-text">Brownian Motion</text>
<path d="M 50.00 148.45 L 53.65 147.51 L 57.30 154.53 L 60.95 153.69 L 64.60 150.77 L 68.25 147.86 L 71.90 151.01 L 75.55 145.33 L 79.20 147.83 L 82.85 148.09 L 86.50 142.56 L 90.15 146.44 L 93.80 145.61 L 97.45 142.02 L 101.10 140.11 L 104.75 144.72 L 108.40 145.91 L 112.05 141.84 L 115.70 143.37 L 119.35 143.05 L 123.00 139.12 L 126.65 138.73 L 130.30 141.51 L 133.95 143.38 L 137.60 150.93 L 141.25 149.73 L 144.90 152.07 L 148.55 150.58 L 152.20 149.27 L 155.85 152.03 L 159.50 150.11 L 163.15 150.68 L 166.80 155.40 L 170.45 155.48 L 174.10 152.15 L 177.75 154.20 L 181.40 144.02 L 185.05 137.47 L 188.70 137.52 L 192.35 135.44 L 196.00 138.83 L 199.65 129.46 L 203.30 124.51 L 206.95 122.95 L 210.60 122.93 L 214.25 120.94 L 217.90 126.03 L 221.55 124.70 L 225.20 128.18 L 228.85 127.58 L 232.50 118.65 L 236.15 119.62 L 239.80 127.08 L 243.45 130.65 L 247.10 126.89 L 250.75 128.71 L 254.40 124.02 L 258.05 121.68 L 261.70 128.32 L 265.35 126.17 L 269.00 126.90 L 272.65 129.58 L 276.30 117.85 L 279.95 112.38 L 283.60 116.37 L 287.25 113.04 L 290.90 109.12 L 294.55 105.65 L 298.20 108.35 L 301.85 110.48 L 305.50 106.63 L 309.15 104.18 L 312.80 99.83 L 316.45 103.86 L 320.10 105.34 L 323.75 106.97 L 327.40 106.59 L 331.05 111.75 L 334.70 115.00 L 338.35 110.23 L 342.00 112.51 L 345.65 118.33 L 349.30 119.43 L 352.95 115.35 L 356.60 113.75 L 360.25 111.80 L 363.90 107.27 L 367.55 106.55 L 371.20 104.23 L 374.85 103.26 L 378.50 100.98 L 382.15 96.38 L 385.80 101.22 L 389.45 100.56 L 393.10 98.83 L 396.75 102.51 L 400.40 99.23 L 404.05 98.75 L 407.70 99.58 L 411.35 98.89 L 415.00 99.87 L 418.65 99.24 L 422.30 102.88 L 425.95 103.53 L 429.60 105.77 L 433.25 115.77 L 436.90 113.28 L 440.55 114.16 L 444.20 116.07 L 447.85 119.40 L 451.50 117.49 L 455.15 114.09 L 458.80 112.97 L 462.45 115.53 L 466.10 108.05 L 469.75 101.44 L 473.40 98.10 L 477.05 95.78 L 480.70 99.99 L 484.35 97.30 L 488.00 98.88 L 491.65 96.24 L 495.30 97.26 L 498.95 100.18 L 502.60 97.62 L 506.25 98.70 L 509.90 99.41 L 513.55 100.43 L 517.20 107.45 L 520.85 104.75 L 524.50 103.85 L 528.15 106.38 L 531.80 111.15 L 535.45 113.87 L 539.10 110.17 L 542.75 119.28 L 546.40 120.37 L 550.05 127.31 L 553.70 129.33 L 557.35 131.19 L 561.00 139.57 L 564.65 137.16 L 568.30 137.70 L 571.95 135.13 L 575.60 139.39 L 579.25 140.59 L 582.90 140.40 L 586.55 136.47 L 590.20 133.97 L 593.85 131.97 L 597.50 125.96 L 601.15 124.85 L 604.80 124.28 L 608.45 124.51 L 612.10 124.70 L 615.75 123.94 L 619.40 125.09 L 623.05 123.61 L 626.70 122.07 L 630.35 119.35 L 634.00 120.79 L 637.65 121.64 L 641.30 121.47 L 644.95 122.23 L 648.60 123.40 L 652.25 122.03 L 655.90 119.12 L 659.55 114.96 L 663.20 113.94 L 666.85 118.36 L 670.50 117.84 L 674.15 117.99 L 677.80 116.14 L 681.45 110.07 L 685.10 107.74 L 688.75 102.80 L 692.40 102.77 L 696.05 104.90 L 699.70 98.17 L 703.35 91.23 L 707.00 98.05 L 710.65 96.89 L 714.30 96.42 L 717.95 106.82 L 721.60 104.21 L 725.25 106.53 L 728.90 102.96 L 732.55 102.28 L 736.20 99.27 L 739.85 99.19 L 743.50 95.48 L 747.15 94.43 L 750.80 95.91 L 754.45 93.73 L 758.10 84.96 L 761.75 81.62 L 765.40 82.86 L 769.05 86.04 L 772.70 82.58 L 776.35 85.88 L 780.00 83.81" class="path-0" />
<path d="M 50.00 148.45 L 53.65 154.91 L 57.30 155.64 L 60.95 148.77 L 64.60 145.66 L 68.25 154.91 L 71.90 150.65 L 75.55 144.94 L 79.20 142.87 L 82.85 139.83 L 86.50 135.42 L 90.15 131.46 L 93.80 129.88 L 97.45 129.60 L 101.10 130.36 L 104.75 133.14 L 108.40 134.78 L 112.05 143.70 L 115.70 141.85 L 119.35 136.16 L 123.00 140.08 L 126.65 135.26 L 130.30 133.38 L 133.95 137.10 L 137.60 141.83 L 141.25 131.32 L 144.90 130.89 L 148.55 126.06 L 152.20 130.84 L 155.85 136.39 L 159.50 131.71 L 163.15 139.14 L 166.80 135.13 L 170.45 127.80 L 174.10 124.32 L 177.75 115.51 L 181.40 113.75 L 185.05 113.19 L 188.70 107.99 L 192.35 112.58 L 196.00 111.68 L 199.65 113.60 L 203.30 113.45 L 206.95 116.78 L 210.60 116.21 L 214.25 117.93 L 217.90 120.98 L 221.55 121.45 L 225.20 120.04 L 228.85 120.26 L 232.50 120.93 L 236.15 120.99 L 239.80 121.22 L 243.45 117.80 L 247.10 118.28 L 250.75 115.11 L 254.40 113.28 L 258.05 107.15 L 261.70 110.16 L 265.35 107.72 L 269.00 113.98 L 272.65 121.72 L 276.30 127.89 L 279.95 131.41 L 283.60 131.09 L 287.25 128.84 L 290.90 133.19 L 294.55 128.89 L 298.20 138.26 L 301.85 134.70 L 305.50 133.46 L 309.15 134.21 L 312.80 127.91 L 316.45 128.70 L 320.10 127.85 L 323.75 128.53 L 327.40 129.74 L 331.05 128.49 L 334.70 127.88 L 338.35 127.66 L 342.00 125.20 L 345.65 125.07 L 349.30 127.37 L 352.95 124.26 L 356.60 122.50 L 360.25 126.75 L 363.90 126.18 L 367.55 123.73 L 371.20 117.15 L 374.85 120.58 L 378.50 121.76 L 382.15 121.84 L 385.80 125.89 L 389.45 128.68 L 393.10 130.06 L 396.75 129.22 L 400.40 131.96 L 404.05 128.61 L 407.70 131.76 L 411.35 135.70 L 415.00 143.12 L 418.65 139.61 L 422.30 144.12 L 425.95 143.04 L 429.60 142.86 L 433.25 134.49 L 436.90 135.13 L 440.55 135.18 L 444.20 137.17 L 447.85 132.77 L 451.50 138.76 L 455.15 135.91 L 458.80 131.73 L 462.45 133.82 L 466.10 130.00 L 469.75 129.02 L 473.40 126.23 L 477.05 125.52 L 480.70 125.47 L 484.35 124.98 L 488.00 126.62 L 491.65 129.42 L 495.30 132.04 L 498.95 136.96 L 502.60 136.00 L 506.25 142.87 L 509.90 145.76 L 513.55 149.36 L 517.20 149.73 L 520.85 142.07 L 524.50 146.84 L 528.15 149.14 L 531.80 151.24 L 535.45 155.52 L 539.10 154.27 L 542.75 158.43 L 546.40 159.06 L 550.05 154.68 L 553.70 148.23 L 557.35 146.72 L 561.00 145.31 L 564.65 146.47 L 568.30 146.17 L 571.95 147.82 L 575.60 147.06 L 579.25 143.67 L 582.90 143.42 L 586.55 138.69 L 590.20 140.82 L 593.85 138.11 L 597.50 137.42 L 601.15 135.18 L 604.80 130.18 L 608.45 126.37 L 612.10 127.07 L 615.75 124.04 L 619.40 121.76 L 623.05 125.46 L 626.70 121.81 L 630.35 117.46 L 634.00 116.73 L 637.65 116.99 L 641.30 113.38 L 644.95 113.78 L 648.60 113.69 L 652.25 115.72 L 655.90 117.43 L 659.55 118.10 L 663.20 108.35 L 666.85 107.94 L 670.50 110.24 L 674.15 107.78 L 677.80 107.13 L 681.45 107.48 L 685.10 109.68 L 688.75 105.52 L 692.40 106.62 L 696.05 110.79 L 699.70 110.72 L 703.35 112.02 L 707.00 112.45 L 710.65 107.00 L 714.30 102.24 L 717.95 100.37 L 721.60 96.69 L 725.25 95.30 L 728.90 105.20 L 732.55 105.85 L 736.20 106.06 L 739.85 97.31 L 743.50 102.08 L 747.15 102.46 L 750.80 108.34 L 754.45 107.08 L 758.10 105.76 L 761.75 102.36 L 765.40 102.32 L 769.05 100.65 L 772.70 90.96 L 776.35 91.90 L 780.00 91.53" class="path-1" />
<path d="M 50.00 148.45 L 53.65 145.97 L 57.30 147.79 L 60.95 150.82 L 64.60 145.17 L 68.25 144.60 L 71.90 150.78 L 75.55 152.71 L 79.20 155.51 L 82.85 154.85 L 86.50 157.16 L 90.15 152.78 L 93.80 149.84 L 97.45 155.41 L 101.10 160.72 L 104.75 161.91 L 108.40 166.19 L 112.05 169.54 L 115.70 169.68 L 119.35 166.36 L 123.00 167.72 L 126.65 168.58 L 130.30 164.10 L 133.95 165.93 L 137.60 165.21 L 141.25 160.62 L 144.90 161.36 L 148.55 157.54 L 152.20 160.58 L 155.85 161.91 L 159.50 167.53 L 163.15 161.36 L 166.80 159.22 L 170.45 154.61 L 174.10 151.17 L 177.75 150.93 L 181.40 149.34 L 185.05 160.88 L 188.70 162.36 L 192.35 156.93 L 196.00 150.47 L 199.65 151.29 L 203.30 149.46 L 206.95 142.78 L 210.60 142.60 L 214.25 146.08 L 217.90 147.21 L 221.55 148.26 L 225.20 152.21 L 228.85 148.24 L 232.50 149.77 L 236.15 149.31 L 239.80 149.21 L 243.45 150.83 L 247.10 147.64 L 250.75 142.79 L 254.40 148.03 L 258.05 144.51 L 261.70 143.70 L 265.35 138.48 L 269.00 138.16 L 272.65 144.43 L 276.30 144.30 L 279.95 144.02 L 283.60 147.55 L 287.25 144.21 L 290.90 141.01 L 294.55 133.45 L 298.20 136.96 L 301.85 141.73 L 305.50 140.63 L 309.15 143.13 L 312.80 144.09 L 316.45 145.45 L 320.10 142.62 L 323.75 140.53 L 327.40 140.32 L 331.05 145.15 L 334.70 142.28 L 338.35 149.22 L 342.00 143.84 L 345.65 148.60 L 349.30 147.75 L 352.95 154.57 L 356.60 155.14 L 360.25 160.55 L 363.90 161.17 L 367.55 156.65 L 371.20 156.24 L 374.85 149.40 L 378.50 143.01 L 382.15 149.28 L 385.80 151.76 L 389.45 146.80 L 393.10 145.16 L 396.75 148.80 L 400.40 152.91 L 404.05 155.02 L 407.70 154.68 L 411.35 154.10 L 415.00 155.01 L 418.65 154.67 L 422.30 154.12 L 425.95 152.42 L 429.60 154.27 L 433.25 155.75 L 436.90 154.63 L 440.55 152.84 L 444.20 156.79 L 447.85 157.65 L 451.50 158.21 L 455.15 153.87 L 458.80 156.43 L 462.45 153.37 L 466.10 150.98 L 469.75 151.16 L 473.40 150.35 L 477.05 150.09 L 480.70 149.53 L 484.35 154.52 L 488.00 153.72 L 491.65 153.99 L 495.30 153.29 L 498.95 157.54 L 502.60 155.31 L 506.25 153.59 L 509.90 154.32 L 513.55 154.77 L 517.20 150.53 L 520.85 150.70 L 524.50 149.12 L 528.15 154.52 L 531.80 158.04 L 535.45 159.00 L 539.10 162.77 L 542.75 157.05 L 546.40 152.83 L 550.05 154.63 L 553.70 163.66 L 557.35 164.46 L 561.00 165.34 L 564.65 160.76 L 568.30 158.58 L 571.95 159.55 L 575.60 162.03 L 579.25 164.95 L 582.90 161.08 L 586.55 158.53 L 590.20 156.30 L 593.85 152.74 L 597.50 151.94 L 601.15 152.68 L 604.80 154.43 L 608.45 154.68 L 612.10 159.40 L 615.75 165.61 L 619.40 168.66 L 623.05 168.21 L 626.70 166.00 L 630.35 169.45 L 634.00 173.07 L 637.65 174.10 L 641.30 168.07 L 644.95 171.24 L 648.60 169.90 L 652.25 166.98 L 655.90 167.32 L 659.55 163.87 L 663.20 165.99 L 666.85 169.27 L 670.50 178.23 L 674.15 176.78 L 677.80 175.08 L 681.45 180.85 L 685.10 172.30 L 688.75 169.85 L 692.40 170.78 L 696.05 171.23 L 699.70 167.10 L 703.35 174.77 L 707.00 166.45 L 710.65 167.05 L 714.30 165.68 L 717.95 160.41 L 721.60 160.45 L 725.25 165.87 L 728.90 165.12 L 732.55 169.69 L 736.20 173.21 L 739.85 175.27 L 743.50 171.96 L 747.15 179.70 L 750.80 178.14 L 754.45 179.61 L 758.10 180.68 L 761.75 176.38 L 765.40 169.15 L 769.05 165.30 L 772.70 162.59 L 776.35 163.52 L 780.00 162.10" class="path-2" />
<path d="M 50.00 148.45 L 53.65 148.46 L 57.30 151.37 L 60.95 148.33 L 64.60 149.57 L 68.25 154.36 L 71.90 159.05 L 75.55 154.06 L 79.20 152.35 L 82.85 153.43 L 86.50 157.07 L 90.15 155.93 L 93.80 156.72 L 97.45 159.24 L 101.10 164.01 L 104.75 161.47 L 108.40 158.75 L 112.05 165.28 L 115.70 164.86 L 119.35 163.23 L 123.00 158.90 L 126.65 160.75 L 130.30 160.22 L 133.95 166.20 L 137.60 169.56 L 141.25 173.55 L 144.90 169.23 L 148.55 171.63 L 152.20 175.73 L 155.85 178.79 L 159.50 181.98 L 163.15 180.11 L 166.80 184.05 L 170.45 187.91 L 174.10 194.56 L 177.75 188.30 L 181.40 186.51 L 185.05 183.11 L 188.70 176.39 L 192.35 176.94 L 196.00 179.79 L 199.65 183.87 L 203.30 183.57 L 206.95 184.87 L 210.60 184.02 L 214.25 186.11 L 217.90 194.09 L 221.55 194.97 L 225.20 195.75 L 228.85 197.34 L 232.50 201.46 L 236.15 197.24 L 239.80 205.54 L 243.45 206.52 L 247.10 205.48 L 250.75 208.40 L 254.40 210.98 L 258.05 211.23 L 261.70 217.63 L 265.35 218.39 L 269.00 212.41 L 272.65 209.68 L 276.30 205.82 L 279.95 208.80 L 283.60 218.03 L 287.25 222.32 L 290.90 227.33 L 294.55 222.83 L 298.20 222.37 L 301.85 217.85 L 305.50 224.44 L 309.15 226.60 L 312.80 225.96 L 316.45 216.34 L 320.10 217.30 L 323.75 216.16 L 327.40 212.42 L 331.05 216.87 L 334.70 217.28 L 338.35 218.27 L 342.00 216.81 L 345.65 219.40 L 349.30 218.16 L 352.95 214.91 L 356.60 211.41 L 360.25 215.89 L 363.90 217.32 L 367.55 210.79 L 371.20 209.13 L 374.85 210.74 L 378.50 210.63 L 382.15 203.13 L 385.80 199.77 L 389.45 204.17 L 393.10 198.85 L 396.75 198.19 L 400.40 189.85 L 404.05 182.52 L 407.70 184.16 L 411.35 184.75 L 415.00 189.48 L 418.65 187.00 L 422.30 185.07 L 425.95 189.93 L 429.60 191.68 L 433.25 189.10 L 436.90 191.91 L 440.55 189.84 L 444.20 186.27 L 447.85 189.21 L 451.50 189.16 L 455.15 184.23 L 458.80 184.50 L 462.45 179.81 L 466.10 179.24 L 469.75 177.57 L 473.40 176.02 L 477.05 178.62 L 480.70 171.71 L 484.35 175.54 L 488.00 172.71 L 491.65 170.71 L 495.30 170.45 L 498.95 173.28 L 502.60 176.18 L 506.25 177.60 L 509.90 184.42 L 513.55 185.97 L 517.20 189.47 L 520.85 190.68 L 524.50 186.47 L 528.15 184.79 L 531.80 182.20 L 535.45 185.03 L 539.10 184.92 L 542.75 179.41 L 546.40 176.22 L 550.05 179.30 L 553.70 173.81 L 557.35 170.99 L 561.00 175.89 L 564.65 181.61 L 568.30 180.78 L 571.95 179.49 L 575.60 179.97 L 579.25 178.23 L 582.90 177.34 L 586.55 178.11 L 590.20 177.89 L 593.85 179.00 L 597.50 177.38 L 601.15 182.97 L 604.80 183.30 L 608.45 184.96 L 612.10 189.06 L 615.75 191.97 L 619.40 196.07 L 623.05 194.42 L 626.70 193.76 L 630.35 198.24 L 634.00 195.33 L 637.65 205.14 L 641.30 207.42 L 644.95 207.10 L 648.60 204.07 L 652.25 205.38 L 655.90 208.50 L 659.55 209.55 L 663.20 208.19 L 666.85 208.89 L 670.50 206.97 L 674.15 202.45 L 677.80 203.38 L 681.45 203.00 L 685.10 206.82 L 688.75 209.20 L 692.40 208.90 L 696.05 211.56 L 699.70 212.49 L 703.35 217.91 L 707.00 219.31 L 710.65 222.26 L 714.30 219.59 L 717.95 222.44 L 721.60 223.36 L 725.25 226.83 L 728.90 229.97 L 732.55 234.62 L 736.20 233.62 L 739.85 228.05 L 743.50 231.68 L 747.15 232.81 L 750.80 232.18 L 754.45 234.01 L 758.10 231.77 L 761.75 228.19 L 765.40 225.98 L 769.05 224.79 L 772.70 223.41 L 776.35 225.71 L 780.00 227.12" class="path-3" />
<path d="M 50.00 148.45 L 53.65 153.52 L 57.30 152.61 L 60.95 149.35 L 64.60 145.75 L 68.25 144.06 L 71.90 149.14 L 75.55 154.86 L 79.20 156.50 L 82.85 150.12 L 86.50 155.02 L 90.15 158.28 L 93.80 152.74 L 97.45 149.78 L 101.10 145.75 L 104.75 145.73 L 108.40 146.63 L 112.05 147.48 L 115.70 147.30 L 119.35 152.64 L 123.00 150.19 L 126.65 151.08 L 130.30 151.80 L 133.95 152.70 L 137.60 149.01 L 141.25 150.37 L 144.90 147.70 L 148.55 148.56 L 152.20 153.20 L 155.85 150.33 L 159.50 147.86 L 163.15 148.50 L 166.80 152.81 L 170.45 152.08 L 174.10 146.00 L 177.75 148.29 L 181.40 152.60 L 185.05 151.06 L 188.70 147.00 L 192.35 149.94 L 196.00 145.64 L 199.65 146.27 L 203.30 145.63 L 206.95 140.32 L 210.60 142.04 L 214.25 144.83 L 217.90 142.35 L 221.55 140.04 L 225.20 134.50 L 228.85 133.55 L 232.50 131.66 L 236.15 132.19 L 239.80 133.66 L 243.45 135.13 L 247.10 136.83 L 250.75 138.96 L 254.40 143.74 L 258.05 142.05 L 261.70 142.54 L 265.35 142.44 L 269.00 137.57 L 272.65 139.26 L 276.30 133.25 L 279.95 134.62 L 283.60 137.32 L 287.25 137.05 L 290.90 137.90 L 294.55 138.16 L 298.20 146.57 L 301.85 143.40 L 305.50 141.89 L 309.15 141.86 L 312.80 138.73 L 316.45 137.01 L 320.10 129.23 L 323.75 125.06 L 327.40 122.81 L 331.05 121.26 L 334.70 115.39 L 338.35 109.97 L 342.00 112.43 L 345.65 111.16 L 349.30 109.32 L 352.95 113.58 L 356.60 107.21 L 360.25 110.72 L 363.90 113.30 L 367.55 106.31 L 371.20 104.32 L 374.85 103.48 L 378.50 103.81 L 382.15 104.57 L 385.80 106.80 L 389.45 103.35 L 393.10 99.72 L 396.75 100.84 L 400.40 100.62 L 404.05 102.90 L 407.70 101.89 L 411.35 97.81 L 415.00 103.17 L 418.65 105.03 L 422.30 106.47 L 425.95 107.62 L 429.60 108.77 L 433.25 111.30 L 436.90 110.35 L 440.55 106.43 L 444.20 105.55 L 447.85 99.50 L 451.50 96.58 L 455.15 103.13 L 458.80 101.58 L 462.45 98.17 L 466.10 95.46 L 469.75 89.58 L 473.40 90.36 L 477.05 86.92 L 480.70 92.78 L 484.35 94.01 L 488.00 90.05 L 491.65 92.14 L 495.30 90.13 L 498.95 94.29 L 502.60 93.10 L 506.25 90.44 L 509.90 93.09 L 513.55 89.72 L 517.20 90.02 L 520.85 93.19 L 524.50 95.79 L 528.15 94.26 L 531.80 91.18 L 535.45 97.79 L 539.10 101.86 L 542.75 105.91 L 546.40 100.91 L 550.05 98.87 L 553.70 95.21 L 557.35 98.01 L 561.00 92.28 L 564.65 95.32 L 568.30 94.46 L 571.95 95.45 L 575.60 89.98 L 579.25 87.73 L 582.90 88.25 L 586.55 88.20 L 590.20 80.17 L 593.85 77.35 L 597.50 81.25 L 601.15 82.60 L 604.80 87.87 L 608.45 88.19 L 612.10 87.40 L 615.75 88.43 L 619.40 92.17 L 623.05 92.34 L 626.70 93.76 L 630.35 89.68 L 634.00 90.05 L 637.65 89.47 L 641.30 87.10 L 644.95 82.23 L 648.60 79.72 L 652.25 77.61 L 655.90 79.48 L 659.55 77.40 L 663.20 73.83 L 666.85 68.32 L 670.50 65.38 L 674.15 69.94 L 677.80 74.15 L 681.45 71.31 L 685.10 75.08 L 688.75 79.27 L 692.40 75.17 L 696.05 80.21 L 699.70 79.72 L 703.35 81.95 L 707.00 82.41 L 710.65 86.46 L 714.30 77.03 L 717.95 77.43 L 721.60 75.63 L 725.25 73.84 L 728.90 70.37 L 732.55 76.43 L 736.20 80.50 L 739.85 85.35 L 743.50 86.18 L 747.15 80.32 L 750.80 80.35 L 754.45 77.58 L 758.10 74.00 L 761.75 75.44 L 765.40 80.98 L 769.05 73.67 L 772.70 76.88 L 776.35 76.94 L 780.00 72.46" class="path-4" />
<line x1="50" y1="148.4" x2="780" y2="148.4" stroke="#4b5563" stroke-width="0.8" stroke-dasharray="6 3" />
</svg>