<svg xmlns="http://www.w3.org/2000/svg" viewBox="0 0 800 300" width="800" height="300">
<style>
.axis-line { stroke: #6b7280; stroke-width: 0.5; }
.axis-text { font-family: monospace; font-size: 11px; fill: #9ca3af; }
.title-text { font-family: monospace; font-size: 14px; fill: #d1d5db; font-weight: bold; }
.grid-line { stroke: #374151; stroke-width: 0.3; stroke-dasharray: 4 2; }
.path-0 { fill: none; stroke: #3b82f6; stroke-width: 2; stroke-linecap: round; opacity: 0.85; animation: draw-0 8s ease-in-out 0.0s infinite; stroke-dasharray: 957; stroke-dashoffset: 957;}
@keyframes draw-0 { 0% { stroke-dashoffset: 957; } 38% { stroke-dashoffset: 0; } 62% { stroke-dashoffset: 0; } 100% { stroke-dashoffset: 957; }}
.path-1 { fill: none; stroke: #ef4444; stroke-width: 2; stroke-linecap: round; opacity: 0.85; animation: draw-1 8s ease-in-out 0.4s infinite; stroke-dasharray: 955; stroke-dashoffset: 955;}
@keyframes draw-1 { 0% { stroke-dashoffset: 955; } 38% { stroke-dashoffset: 0; } 62% { stroke-dashoffset: 0; } 100% { stroke-dashoffset: 955; }}
.path-2 { fill: none; stroke: #22c55e; stroke-width: 2; stroke-linecap: round; opacity: 0.85; animation: draw-2 8s ease-in-out 0.8s infinite; stroke-dasharray: 968; stroke-dashoffset: 968;}
@keyframes draw-2 { 0% { stroke-dashoffset: 968; } 38% { stroke-dashoffset: 0; } 62% { stroke-dashoffset: 0; } 100% { stroke-dashoffset: 968; }}
.path-3 { fill: none; stroke: #f59e0b; stroke-width: 2; stroke-linecap: round; opacity: 0.85; animation: draw-3 8s ease-in-out 1.2000000000000002s infinite; stroke-dasharray: 948; stroke-dashoffset: 948;}
@keyframes draw-3 { 0% { stroke-dashoffset: 948; } 38% { stroke-dashoffset: 0; } 62% { stroke-dashoffset: 0; } 100% { stroke-dashoffset: 948; }}
.path-4 { fill: none; stroke: #a855f7; stroke-width: 2; stroke-linecap: round; opacity: 0.85; animation: draw-4 8s ease-in-out 1.6s infinite; stroke-dasharray: 956; stroke-dashoffset: 956;}
@keyframes draw-4 { 0% { stroke-dashoffset: 956; } 38% { stroke-dashoffset: 0; } 62% { stroke-dashoffset: 0; } 100% { stroke-dashoffset: 956; }}
</style>
<rect width="800" height="300" rx="8" fill="#0d1117" />
<line x1="50" y1="260.0" x2="780" y2="260.0" class="grid-line" />
<text x="44" y="264.0" text-anchor="end" class="axis-text">-3.3</text>
<line x1="50" y1="216.0" x2="780" y2="216.0" class="grid-line" />
<text x="44" y="220.0" text-anchor="end" class="axis-text">-2.3</text>
<line x1="50" y1="172.0" x2="780" y2="172.0" class="grid-line" />
<text x="44" y="176.0" text-anchor="end" class="axis-text">-1.3</text>
<line x1="50" y1="128.0" x2="780" y2="128.0" class="grid-line" />
<text x="44" y="132.0" text-anchor="end" class="axis-text">-0.3</text>
<line x1="50" y1="84.0" x2="780" y2="84.0" class="grid-line" />
<text x="44" y="88.0" text-anchor="end" class="axis-text">0.7</text>
<line x1="50" y1="40.0" x2="780" y2="40.0" class="grid-line" />
<text x="44" y="44.0" text-anchor="end" class="axis-text">1.6</text>
<line x1="50.0" y1="40" x2="50.0" y2="260" class="grid-line" />
<line x1="196.0" y1="40" x2="196.0" y2="260" class="grid-line" />
<line x1="342.0" y1="40" x2="342.0" y2="260" class="grid-line" />
<line x1="488.0" y1="40" x2="488.0" y2="260" class="grid-line" />
<line x1="634.0" y1="40" x2="634.0" y2="260" class="grid-line" />
<line x1="780.0" y1="40" x2="780.0" y2="260" class="grid-line" />
<line x1="50" y1="260" x2="780" y2="260" class="axis-line" />
<line x1="50" y1="40" x2="50" y2="260" class="axis-line" />
<text x="400.0" y="295" text-anchor="middle" class="axis-text">t</text>
<text x="12" y="150.0" text-anchor="middle" class="axis-text" transform="rotate(-90 12 150.0)">W(t)</text>
<text x="400.0" y="22" text-anchor="middle" class="title-text">Brownian Motion</text>
<path d="M 50.00 113.43 L 53.65 111.45 L 57.30 108.59 L 60.95 112.19 L 64.60 110.45 L 68.25 114.57 L 71.90 116.12 L 75.55 112.11 L 79.20 114.68 L 82.85 111.19 L 86.50 111.38 L 90.15 110.49 L 93.80 108.50 L 97.45 113.62 L 101.10 108.94 L 104.75 106.33 L 108.40 107.40 L 112.05 109.92 L 115.70 103.10 L 119.35 101.40 L 123.00 101.03 L 126.65 98.36 L 130.30 99.35 L 133.95 98.44 L 137.60 92.71 L 141.25 92.90 L 144.90 91.22 L 148.55 92.79 L 152.20 93.93 L 155.85 96.48 L 159.50 92.27 L 163.15 90.22 L 166.80 94.17 L 170.45 98.54 L 174.10 95.50 L 177.75 94.27 L 181.40 92.95 L 185.05 96.55 L 188.70 92.59 L 192.35 89.67 L 196.00 87.70 L 199.65 85.26 L 203.30 89.56 L 206.95 90.31 L 210.60 96.17 L 214.25 93.54 L 217.90 94.50 L 221.55 101.30 L 225.20 103.12 L 228.85 105.33 L 232.50 104.51 L 236.15 101.07 L 239.80 102.96 L 243.45 108.22 L 247.10 113.02 L 250.75 108.78 L 254.40 107.51 L 258.05 112.49 L 261.70 107.23 L 265.35 111.98 L 269.00 115.82 L 272.65 117.61 L 276.30 123.28 L 279.95 125.43 L 283.60 125.51 L 287.25 127.50 L 290.90 126.08 L 294.55 129.50 L 298.20 130.44 L 301.85 130.09 L 305.50 132.58 L 309.15 136.22 L 312.80 134.26 L 316.45 131.40 L 320.10 128.48 L 323.75 131.11 L 327.40 136.56 L 331.05 128.79 L 334.70 127.48 L 338.35 131.04 L 342.00 127.00 L 345.65 127.31 L 349.30 129.87 L 352.95 131.97 L 356.60 132.43 L 360.25 128.74 L 363.90 131.26 L 367.55 130.28 L 371.20 133.25 L 374.85 134.38 L 378.50 135.99 L 382.15 136.03 L 385.80 133.34 L 389.45 133.39 L 393.10 138.19 L 396.75 143.17 L 400.40 140.80 L 404.05 140.22 L 407.70 143.05 L 411.35 137.19 L 415.00 138.71 L 418.65 136.97 L 422.30 138.25 L 425.95 135.51 L 429.60 131.07 L 433.25 125.47 L 436.90 122.69 L 440.55 122.38 L 444.20 120.44 L 447.85 118.00 L 451.50 120.25 L 455.15 121.81 L 458.80 118.30 L 462.45 119.80 L 466.10 118.56 L 469.75 115.50 L 473.40 108.96 L 477.05 111.63 L 480.70 116.23 L 484.35 112.86 L 488.00 105.41 L 491.65 103.04 L 495.30 95.65 L 498.95 95.22 L 502.60 96.49 L 506.25 94.75 L 509.90 91.72 L 513.55 90.75 L 517.20 92.81 L 520.85 91.85 L 524.50 87.94 L 528.15 88.40 L 531.80 89.03 L 535.45 85.58 L 539.10 87.31 L 542.75 83.34 L 546.40 86.93 L 550.05 85.12 L 553.70 88.19 L 557.35 93.88 L 561.00 100.15 L 564.65 100.83 L 568.30 101.19 L 571.95 97.38 L 575.60 98.29 L 579.25 99.92 L 582.90 101.13 L 586.55 94.53 L 590.20 91.19 L 593.85 88.85 L 597.50 87.28 L 601.15 91.16 L 604.80 89.17 L 608.45 87.02 L 612.10 89.11 L 615.75 84.55 L 619.40 82.62 L 623.05 84.18 L 626.70 80.79 L 630.35 82.53 L 634.00 83.70 L 637.65 87.68 L 641.30 89.92 L 644.95 91.44 L 648.60 91.99 L 652.25 89.54 L 655.90 88.16 L 659.55 88.91 L 663.20 84.05 L 666.85 86.65 L 670.50 89.41 L 674.15 91.28 L 677.80 91.20 L 681.45 93.09 L 685.10 91.83 L 688.75 95.69 L 692.40 100.35 L 696.05 97.86 L 699.70 99.71 L 703.35 95.95 L 707.00 100.48 L 710.65 106.91 L 714.30 109.53 L 717.95 105.45 L 721.60 111.21 L 725.25 112.76 L 728.90 114.76 L 732.55 112.87 L 736.20 115.18 L 739.85 118.09 L 743.50 120.73 L 747.15 125.43 L 750.80 122.05 L 754.45 124.54 L 758.10 128.98 L 761.75 128.40 L 765.40 128.92 L 769.05 129.99 L 772.70 128.84 L 776.35 125.96 L 780.00 120.68" class="path-0" />
<path d="M 50.00 113.43 L 53.65 106.17 L 57.30 109.01 L 60.95 107.26 L 64.60 106.11 L 68.25 105.08 L 71.90 110.05 L 75.55 107.86 L 79.20 107.09 L 82.85 101.83 L 86.50 103.66 L 90.15 103.46 L 93.80 106.47 L 97.45 104.74 L 101.10 105.57 L 104.75 104.76 L 108.40 111.10 L 112.05 113.35 L 115.70 111.13 L 119.35 109.53 L 123.00 106.08 L 126.65 107.17 L 130.30 109.67 L 133.95 107.88 L 137.60 107.21 L 141.25 106.69 L 144.90 101.82 L 148.55 101.38 L 152.20 102.01 L 155.85 103.35 L 159.50 99.31 L 163.15 98.71 L 166.80 99.60 L 170.45 94.93 L 174.10 95.47 L 177.75 91.65 L 181.40 97.18 L 185.05 94.66 L 188.70 92.35 L 192.35 88.21 L 196.00 90.25 L 199.65 89.92 L 203.30 87.35 L 206.95 93.42 L 210.60 93.42 L 214.25 87.46 L 217.90 85.63 L 221.55 86.79 L 225.20 87.34 L 228.85 85.93 L 232.50 84.59 L 236.15 93.54 L 239.80 89.79 L 243.45 89.50 L 247.10 94.06 L 250.75 93.31 L 254.40 94.30 L 258.05 97.94 L 261.70 101.51 L 265.35 103.46 L 269.00 101.17 L 272.65 99.52 L 276.30 103.41 L 279.95 113.42 L 283.60 114.02 L 287.25 112.16 L 290.90 109.21 L 294.55 108.99 L 298.20 106.79 L 301.85 103.09 L 305.50 96.66 L 309.15 95.05 L 312.80 92.99 L 316.45 96.34 L 320.10 90.68 L 323.75 87.74 L 327.40 92.73 L 331.05 91.40 L 334.70 85.81 L 338.35 86.75 L 342.00 89.97 L 345.65 91.46 L 349.30 88.93 L 352.95 88.45 L 356.60 83.42 L 360.25 83.45 L 363.90 87.97 L 367.55 89.57 L 371.20 86.87 L 374.85 82.94 L 378.50 86.83 L 382.15 82.26 L 385.80 79.27 L 389.45 79.14 L 393.10 79.43 L 396.75 79.45 L 400.40 77.09 L 404.05 77.56 L 407.70 77.67 L 411.35 79.61 L 415.00 84.19 L 418.65 85.73 L 422.30 81.36 L 425.95 73.52 L 429.60 65.38 L 433.25 67.80 L 436.90 67.03 L 440.55 67.99 L 444.20 71.20 L 447.85 75.83 L 451.50 75.91 L 455.15 74.32 L 458.80 78.47 L 462.45 71.81 L 466.10 70.85 L 469.75 74.53 L 473.40 75.51 L 477.05 70.48 L 480.70 70.96 L 484.35 69.30 L 488.00 71.31 L 491.65 75.95 L 495.30 73.80 L 498.95 82.58 L 502.60 82.91 L 506.25 84.52 L 509.90 86.83 L 513.55 85.27 L 517.20 85.02 L 520.85 89.50 L 524.50 91.68 L 528.15 93.23 L 531.80 94.27 L 535.45 90.50 L 539.10 92.12 L 542.75 91.01 L 546.40 91.60 L 550.05 92.54 L 553.70 86.06 L 557.35 87.18 L 561.00 82.98 L 564.65 82.33 L 568.30 84.79 L 571.95 79.80 L 575.60 83.92 L 579.25 82.72 L 582.90 86.44 L 586.55 88.53 L 590.20 84.17 L 593.85 86.50 L 597.50 87.20 L 601.15 91.35 L 604.80 92.21 L 608.45 96.97 L 612.10 100.28 L 615.75 103.39 L 619.40 105.18 L 623.05 104.09 L 626.70 100.63 L 630.35 97.84 L 634.00 96.01 L 637.65 97.64 L 641.30 102.51 L 644.95 103.30 L 648.60 96.94 L 652.25 99.53 L 655.90 104.09 L 659.55 106.41 L 663.20 103.76 L 666.85 100.80 L 670.50 104.67 L 674.15 102.03 L 677.80 103.64 L 681.45 107.40 L 685.10 101.34 L 688.75 102.11 L 692.40 103.76 L 696.05 103.59 L 699.70 104.06 L 703.35 102.72 L 707.00 101.60 L 710.65 98.00 L 714.30 98.55 L 717.95 101.92 L 721.60 99.84 L 725.25 95.74 L 728.90 93.96 L 732.55 90.97 L 736.20 90.24 L 739.85 86.60 L 743.50 86.31 L 747.15 84.54 L 750.80 80.60 L 754.45 83.14 L 758.10 80.62 L 761.75 81.37 L 765.40 84.49 L 769.05 87.35 L 772.70 91.41 L 776.35 93.72 L 780.00 92.23" class="path-1" />
<path d="M 50.00 113.43 L 53.65 112.19 L 57.30 109.49 L 60.95 108.08 L 64.60 111.52 L 68.25 115.08 L 71.90 117.56 L 75.55 119.25 L 79.20 126.02 L 82.85 126.33 L 86.50 125.20 L 90.15 122.32 L 93.80 130.02 L 97.45 128.94 L 101.10 128.81 L 104.75 124.33 L 108.40 122.97 L 112.05 124.79 L 115.70 124.12 L 119.35 125.75 L 123.00 131.55 L 126.65 133.59 L 130.30 129.68 L 133.95 128.55 L 137.60 121.22 L 141.25 120.66 L 144.90 125.40 L 148.55 127.20 L 152.20 125.04 L 155.85 124.06 L 159.50 129.67 L 163.15 128.08 L 166.80 128.91 L 170.45 131.71 L 174.10 133.23 L 177.75 136.34 L 181.40 139.37 L 185.05 134.70 L 188.70 139.51 L 192.35 139.92 L 196.00 144.74 L 199.65 147.88 L 203.30 148.97 L 206.95 144.65 L 210.60 148.21 L 214.25 156.57 L 217.90 159.83 L 221.55 158.04 L 225.20 161.15 L 228.85 156.44 L 232.50 156.21 L 236.15 158.84 L 239.80 157.84 L 243.45 160.23 L 247.10 160.95 L 250.75 160.44 L 254.40 158.78 L 258.05 155.47 L 261.70 156.60 L 265.35 159.61 L 269.00 165.32 L 272.65 171.62 L 276.30 170.76 L 279.95 174.29 L 283.60 174.48 L 287.25 174.81 L 290.90 176.89 L 294.55 183.15 L 298.20 190.48 L 301.85 195.24 L 305.50 197.70 L 309.15 194.02 L 312.80 192.70 L 316.45 192.46 L 320.10 187.26 L 323.75 187.10 L 327.40 188.43 L 331.05 192.14 L 334.70 201.25 L 338.35 203.43 L 342.00 202.82 L 345.65 200.68 L 349.30 199.62 L 352.95 197.82 L 356.60 200.93 L 360.25 202.73 L 363.90 199.19 L 367.55 194.80 L 371.20 196.53 L 374.85 197.67 L 378.50 195.54 L 382.15 197.52 L 385.80 199.24 L 389.45 196.81 L 393.10 198.07 L 396.75 197.28 L 400.40 189.54 L 404.05 191.58 L 407.70 194.79 L 411.35 194.16 L 415.00 193.89 L 418.65 196.68 L 422.30 192.89 L 425.95 196.19 L 429.60 200.18 L 433.25 199.86 L 436.90 200.02 L 440.55 203.75 L 444.20 202.96 L 447.85 196.86 L 451.50 197.57 L 455.15 196.00 L 458.80 197.54 L 462.45 200.94 L 466.10 201.62 L 469.75 204.49 L 473.40 207.48 L 477.05 208.03 L 480.70 210.70 L 484.35 218.86 L 488.00 219.23 L 491.65 217.68 L 495.30 219.71 L 498.95 215.81 L 502.60 217.04 L 506.25 215.63 L 509.90 213.13 L 513.55 215.89 L 517.20 208.76 L 520.85 211.32 L 524.50 210.66 L 528.15 217.29 L 531.80 214.30 L 535.45 216.32 L 539.10 221.41 L 542.75 217.75 L 546.40 217.59 L 550.05 219.70 L 553.70 219.04 L 557.35 214.91 L 561.00 218.04 L 564.65 217.00 L 568.30 212.33 L 571.95 218.71 L 575.60 216.88 L 579.25 215.64 L 582.90 209.72 L 586.55 214.40 L 590.20 217.87 L 593.85 218.60 L 597.50 215.42 L 601.15 215.19 L 604.80 217.93 L 608.45 216.05 L 612.10 213.76 L 615.75 217.16 L 619.40 218.12 L 623.05 215.69 L 626.70 215.62 L 630.35 214.80 L 634.00 215.81 L 637.65 212.20 L 641.30 214.26 L 644.95 216.33 L 648.60 216.24 L 652.25 218.61 L 655.90 217.30 L 659.55 222.01 L 663.20 227.79 L 666.85 228.62 L 670.50 227.76 L 674.15 227.06 L 677.80 228.02 L 681.45 228.80 L 685.10 225.86 L 688.75 222.48 L 692.40 220.83 L 696.05 214.51 L 699.70 214.38 L 703.35 208.82 L 707.00 211.03 L 710.65 207.38 L 714.30 212.75 L 717.95 214.93 L 721.60 216.14 L 725.25 221.84 L 728.90 221.90 L 732.55 225.36 L 736.20 229.50 L 739.85 230.63 L 743.50 227.72 L 747.15 229.69 L 750.80 234.62 L 754.45 227.45 L 758.10 224.47 L 761.75 224.02 L 765.40 218.09 L 769.05 218.93 L 772.70 220.22 L 776.35 221.84 L 780.00 215.09" class="path-2" />
<path d="M 50.00 113.43 L 53.65 112.20 L 57.30 114.50 L 60.95 116.10 L 64.60 120.19 L 68.25 121.10 L 71.90 122.99 L 75.55 123.37 L 79.20 121.06 L 82.85 115.44 L 86.50 114.34 L 90.15 117.03 L 93.80 117.58 L 97.45 118.16 L 101.10 114.60 L 104.75 113.66 L 108.40 114.33 L 112.05 119.70 L 115.70 117.74 L 119.35 115.65 L 123.00 117.13 L 126.65 115.55 L 130.30 117.25 L 133.95 113.56 L 137.60 117.99 L 141.25 115.63 L 144.90 112.45 L 148.55 110.04 L 152.20 106.12 L 155.85 107.23 L 159.50 102.75 L 163.15 107.02 L 166.80 108.68 L 170.45 108.59 L 174.10 109.64 L 177.75 109.01 L 181.40 107.17 L 185.05 109.07 L 188.70 107.86 L 192.35 108.26 L 196.00 103.41 L 199.65 104.43 L 203.30 104.69 L 206.95 108.12 L 210.60 107.30 L 214.25 113.90 L 217.90 117.54 L 221.55 120.33 L 225.20 120.39 L 228.85 117.80 L 232.50 122.11 L 236.15 125.49 L 239.80 128.72 L 243.45 124.04 L 247.10 115.00 L 250.75 111.61 L 254.40 115.31 L 258.05 111.02 L 261.70 113.04 L 265.35 111.51 L 269.00 110.34 L 272.65 109.44 L 276.30 113.78 L 279.95 111.02 L 283.60 112.90 L 287.25 112.84 L 290.90 111.53 L 294.55 108.96 L 298.20 111.17 L 301.85 116.84 L 305.50 113.95 L 309.15 112.60 L 312.80 114.23 L 316.45 113.95 L 320.10 115.47 L 323.75 117.13 L 327.40 116.26 L 331.05 124.93 L 334.70 123.14 L 338.35 122.28 L 342.00 113.48 L 345.65 110.90 L 349.30 108.36 L 352.95 110.99 L 356.60 112.57 L 360.25 110.74 L 363.90 111.75 L 367.55 109.67 L 371.20 105.87 L 374.85 106.74 L 378.50 109.74 L 382.15 113.85 L 385.80 111.23 L 389.45 115.53 L 393.10 120.85 L 396.75 111.76 L 400.40 111.75 L 404.05 111.00 L 407.70 109.70 L 411.35 107.53 L 415.00 114.71 L 418.65 115.74 L 422.30 119.63 L 425.95 114.38 L 429.60 117.41 L 433.25 117.93 L 436.90 111.44 L 440.55 110.68 L 444.20 110.39 L 447.85 110.49 L 451.50 108.10 L 455.15 114.25 L 458.80 115.24 L 462.45 116.32 L 466.10 121.29 L 469.75 123.50 L 473.40 123.98 L 477.05 124.06 L 480.70 128.58 L 484.35 123.71 L 488.00 120.96 L 491.65 122.09 L 495.30 115.12 L 498.95 110.25 L 502.60 103.73 L 506.25 103.71 L 509.90 107.02 L 513.55 107.98 L 517.20 111.83 L 520.85 112.44 L 524.50 110.74 L 528.15 115.18 L 531.80 117.64 L 535.45 116.06 L 539.10 116.79 L 542.75 120.79 L 546.40 125.55 L 550.05 121.86 L 553.70 117.63 L 557.35 115.25 L 561.00 114.37 L 564.65 110.64 L 568.30 111.39 L 571.95 107.38 L 575.60 110.14 L 579.25 110.74 L 582.90 108.78 L 586.55 106.07 L 590.20 106.86 L 593.85 108.87 L 597.50 107.99 L 601.15 108.16 L 604.80 109.59 L 608.45 111.39 L 612.10 111.99 L 615.75 111.87 L 619.40 110.11 L 623.05 113.26 L 626.70 117.11 L 630.35 115.93 L 634.00 110.49 L 637.65 112.87 L 641.30 118.63 L 644.95 119.53 L 648.60 121.83 L 652.25 122.62 L 655.90 124.75 L 659.55 123.15 L 663.20 123.42 L 666.85 123.40 L 670.50 118.91 L 674.15 113.28 L 677.80 109.91 L 681.45 111.54 L 685.10 107.04 L 688.75 102.66 L 692.40 107.99 L 696.05 104.47 L 699.70 103.48 L 703.35 102.97 L 707.00 98.65 L 710.65 99.17 L 714.30 100.04 L 717.95 105.87 L 721.60 105.55 L 725.25 102.79 L 728.90 107.86 L 732.55 103.39 L 736.20 107.90 L 739.85 107.09 L 743.50 105.27 L 747.15 106.20 L 750.80 103.72 L 754.45 100.99 L 758.10 100.50 L 761.75 100.94 L 765.40 98.02 L 769.05 100.04 L 772.70 99.66 L 776.35 97.89 L 780.00 98.96" class="path-3" />
<path d="M 50.00 113.43 L 53.65 111.94 L 57.30 108.30 L 60.95 104.86 L 64.60 108.51 L 68.25 112.07 L 71.90 113.37 L 75.55 114.39 L 79.20 118.63 L 82.85 122.11 L 86.50 123.52 L 90.15 125.83 L 93.80 123.58 L 97.45 118.34 L 101.10 116.33 L 104.75 116.28 L 108.40 115.11 L 112.05 112.02 L 115.70 111.42 L 119.35 107.61 L 123.00 112.95 L 126.65 116.55 L 130.30 119.77 L 133.95 118.66 L 137.60 120.58 L 141.25 118.00 L 144.90 118.46 L 148.55 120.02 L 152.20 125.39 L 155.85 125.14 L 159.50 127.63 L 163.15 133.44 L 166.80 137.82 L 170.45 133.17 L 174.10 134.68 L 177.75 133.81 L 181.40 133.81 L 185.05 135.92 L 188.70 133.12 L 192.35 134.94 L 196.00 135.11 L 199.65 129.23 L 203.30 128.74 L 206.95 130.01 L 210.60 136.37 L 214.25 139.36 L 217.90 142.90 L 221.55 142.19 L 225.20 142.37 L 228.85 142.39 L 232.50 142.76 L 236.15 143.34 L 239.80 143.18 L 243.45 141.14 L 247.10 141.33 L 250.75 138.03 L 254.40 140.12 L 258.05 143.36 L 261.70 145.74 L 265.35 142.15 L 269.00 143.92 L 272.65 146.39 L 276.30 148.50 L 279.95 144.40 L 283.60 144.43 L 287.25 144.72 L 290.90 148.01 L 294.55 145.35 L 298.20 144.08 L 301.85 141.63 L 305.50 138.71 L 309.15 136.82 L 312.80 142.35 L 316.45 142.82 L 320.10 139.23 L 323.75 132.17 L 327.40 132.15 L 331.05 133.64 L 334.70 142.79 L 338.35 147.06 L 342.00 151.89 L 345.65 150.44 L 349.30 148.46 L 352.95 144.15 L 356.60 145.73 L 360.25 148.51 L 363.90 146.01 L 367.55 145.35 L 371.20 151.66 L 374.85 150.41 L 378.50 147.52 L 382.15 147.86 L 385.80 151.96 L 389.45 151.86 L 393.10 146.21 L 396.75 146.14 L 400.40 143.38 L 404.05 144.17 L 407.70 149.02 L 411.35 151.77 L 415.00 154.23 L 418.65 153.69 L 422.30 154.35 L 425.95 151.97 L 429.60 147.65 L 433.25 148.76 L 436.90 145.93 L 440.55 153.46 L 444.20 147.63 L 447.85 144.56 L 451.50 137.91 L 455.15 137.10 L 458.80 140.00 L 462.45 143.35 L 466.10 138.71 L 469.75 140.60 L 473.40 137.24 L 477.05 137.43 L 480.70 139.62 L 484.35 140.81 L 488.00 135.77 L 491.65 137.89 L 495.30 137.77 L 498.95 133.50 L 502.60 137.52 L 506.25 134.81 L 509.90 134.10 L 513.55 129.05 L 517.20 131.18 L 520.85 133.35 L 524.50 130.67 L 528.15 129.87 L 531.80 127.89 L 535.45 128.01 L 539.10 128.64 L 542.75 123.15 L 546.40 132.52 L 550.05 127.22 L 553.70 125.33 L 557.35 127.63 L 561.00 125.82 L 564.65 127.50 L 568.30 126.69 L 571.95 130.81 L 575.60 132.59 L 579.25 130.43 L 582.90 130.65 L 586.55 133.98 L 590.20 129.31 L 593.85 125.75 L 597.50 126.09 L 601.15 127.99 L 604.80 126.75 L 608.45 128.15 L 612.10 128.68 L 615.75 126.25 L 619.40 123.58 L 623.05 125.27 L 626.70 127.95 L 630.35 129.82 L 634.00 128.60 L 637.65 130.81 L 641.30 125.69 L 644.95 132.18 L 648.60 132.70 L 652.25 134.62 L 655.90 132.56 L 659.55 130.89 L 663.20 126.95 L 666.85 121.85 L 670.50 116.92 L 674.15 120.46 L 677.80 116.18 L 681.45 119.00 L 685.10 119.75 L 688.75 125.22 L 692.40 128.14 L 696.05 127.10 L 699.70 123.22 L 703.35 119.97 L 707.00 117.63 L 710.65 119.42 L 714.30 118.86 L 717.95 116.70 L 721.60 121.31 L 725.25 125.53 L 728.90 122.06 L 732.55 117.53 L 736.20 117.46 L 739.85 114.89 L 743.50 116.24 L 747.15 120.88 L 750.80 118.42 L 754.45 117.91 L 758.10 122.15 L 761.75 123.79 L 765.40 126.95 L 769.05 121.92 L 772.70 121.09 L 776.35 119.32 L 780.00 126.63" class="path-4" />
<line x1="50" y1="113.4" x2="780" y2="113.4" stroke="#4b5563" stroke-width="0.8" stroke-dasharray="6 3" />
</svg>