<svg xmlns="http://www.w3.org/2000/svg" viewBox="0 0 800 300" width="800" height="300">
<style>
.axis-line { stroke: #6b7280; stroke-width: 0.5; }
.axis-text { font-family: monospace; font-size: 11px; fill: #9ca3af; }
.title-text { font-family: monospace; font-size: 14px; fill: #d1d5db; font-weight: bold; }
.grid-line { stroke: #374151; stroke-width: 0.3; stroke-dasharray: 4 2; }
.path-0 { fill: none; stroke: #3b82f6; stroke-width: 2; stroke-linecap: round; opacity: 0.85; animation: draw-0 8s ease-in-out 0.0s infinite; stroke-dasharray: 954; stroke-dashoffset: 954;}
@keyframes draw-0 { 0% { stroke-dashoffset: 954; } 38% { stroke-dashoffset: 0; } 62% { stroke-dashoffset: 0; } 100% { stroke-dashoffset: 954; }}
.path-1 { fill: none; stroke: #ef4444; stroke-width: 2; stroke-linecap: round; opacity: 0.85; animation: draw-1 8s ease-in-out 0.4s infinite; stroke-dasharray: 939; stroke-dashoffset: 939;}
@keyframes draw-1 { 0% { stroke-dashoffset: 939; } 38% { stroke-dashoffset: 0; } 62% { stroke-dashoffset: 0; } 100% { stroke-dashoffset: 939; }}
.path-2 { fill: none; stroke: #22c55e; stroke-width: 2; stroke-linecap: round; opacity: 0.85; animation: draw-2 8s ease-in-out 0.8s infinite; stroke-dasharray: 910; stroke-dashoffset: 910;}
@keyframes draw-2 { 0% { stroke-dashoffset: 910; } 38% { stroke-dashoffset: 0; } 62% { stroke-dashoffset: 0; } 100% { stroke-dashoffset: 910; }}
.path-3 { fill: none; stroke: #f59e0b; stroke-width: 2; stroke-linecap: round; opacity: 0.85; animation: draw-3 8s ease-in-out 1.2000000000000002s infinite; stroke-dasharray: 912; stroke-dashoffset: 912;}
@keyframes draw-3 { 0% { stroke-dashoffset: 912; } 38% { stroke-dashoffset: 0; } 62% { stroke-dashoffset: 0; } 100% { stroke-dashoffset: 912; }}
.path-4 { fill: none; stroke: #a855f7; stroke-width: 2; stroke-linecap: round; opacity: 0.85; animation: draw-4 8s ease-in-out 1.6s infinite; stroke-dasharray: 940; stroke-dashoffset: 940;}
@keyframes draw-4 { 0% { stroke-dashoffset: 940; } 38% { stroke-dashoffset: 0; } 62% { stroke-dashoffset: 0; } 100% { stroke-dashoffset: 940; }}
</style>
<rect width="800" height="300" rx="8" fill="#0d1117" />
<line x1="50" y1="260.0" x2="780" y2="260.0" class="grid-line" />
<text x="44" y="264.0" text-anchor="end" class="axis-text">-2.5</text>
<line x1="50" y1="216.0" x2="780" y2="216.0" class="grid-line" />
<text x="44" y="220.0" text-anchor="end" class="axis-text">-1.4</text>
<line x1="50" y1="172.0" x2="780" y2="172.0" class="grid-line" />
<text x="44" y="176.0" text-anchor="end" class="axis-text">-0.4</text>
<line x1="50" y1="128.0" x2="780" y2="128.0" class="grid-line" />
<text x="44" y="132.0" text-anchor="end" class="axis-text">0.6</text>
<line x1="50" y1="84.0" x2="780" y2="84.0" class="grid-line" />
<text x="44" y="88.0" text-anchor="end" class="axis-text">1.7</text>
<line x1="50" y1="40.0" x2="780" y2="40.0" class="grid-line" />
<text x="44" y="44.0" text-anchor="end" class="axis-text">2.7</text>
<line x1="50.0" y1="40" x2="50.0" y2="260" class="grid-line" />
<line x1="196.0" y1="40" x2="196.0" y2="260" class="grid-line" />
<line x1="342.0" y1="40" x2="342.0" y2="260" class="grid-line" />
<line x1="488.0" y1="40" x2="488.0" y2="260" class="grid-line" />
<line x1="634.0" y1="40" x2="634.0" y2="260" class="grid-line" />
<line x1="780.0" y1="40" x2="780.0" y2="260" class="grid-line" />
<line x1="50" y1="260" x2="780" y2="260" class="axis-line" />
<line x1="50" y1="40" x2="50" y2="260" class="axis-line" />
<text x="400.0" y="295" text-anchor="middle" class="axis-text">t</text>
<text x="12" y="150.0" text-anchor="middle" class="axis-text" transform="rotate(-90 12 150.0)">W(t)</text>
<text x="400.0" y="22" text-anchor="middle" class="title-text">Brownian Motion</text>
<path d="M 50.00 154.68 L 53.65 158.19 L 57.30 162.12 L 60.95 158.09 L 64.60 158.43 L 68.25 154.90 L 71.90 153.61 L 75.55 156.07 L 79.20 153.33 L 82.85 152.16 L 86.50 152.47 L 90.15 156.15 L 93.80 156.65 L 97.45 158.21 L 101.10 157.43 L 104.75 159.45 L 108.40 162.51 L 112.05 166.42 L 115.70 168.19 L 119.35 164.96 L 123.00 160.61 L 126.65 154.46 L 130.30 154.84 L 133.95 158.35 L 137.60 159.19 L 141.25 158.68 L 144.90 160.80 L 148.55 156.70 L 152.20 155.07 L 155.85 151.62 L 159.50 151.28 L 163.15 148.99 L 166.80 143.41 L 170.45 141.09 L 174.10 138.83 L 177.75 145.16 L 181.40 145.66 L 185.05 146.86 L 188.70 147.72 L 192.35 144.37 L 196.00 140.66 L 199.65 135.12 L 203.30 132.39 L 206.95 134.56 L 210.60 135.77 L 214.25 138.90 L 217.90 141.02 L 221.55 138.02 L 225.20 143.35 L 228.85 148.88 L 232.50 148.36 L 236.15 154.35 L 239.80 153.60 L 243.45 146.86 L 247.10 147.86 L 250.75 147.63 L 254.40 148.49 L 258.05 145.34 L 261.70 148.72 L 265.35 148.63 L 269.00 148.88 L 272.65 150.24 L 276.30 148.76 L 279.95 149.95 L 283.60 148.95 L 287.25 140.17 L 290.90 141.92 L 294.55 131.42 L 298.20 128.19 L 301.85 125.16 L 305.50 124.17 L 309.15 118.68 L 312.80 121.69 L 316.45 116.50 L 320.10 114.93 L 323.75 119.24 L 327.40 121.60 L 331.05 120.69 L 334.70 119.53 L 338.35 120.44 L 342.00 123.11 L 345.65 127.45 L 349.30 122.87 L 352.95 121.76 L 356.60 118.88 L 360.25 117.54 L 363.90 113.37 L 367.55 112.48 L 371.20 114.05 L 374.85 112.43 L 378.50 109.94 L 382.15 109.67 L 385.80 109.92 L 389.45 108.63 L 393.10 109.05 L 396.75 105.48 L 400.40 109.36 L 404.05 112.77 L 407.70 115.36 L 411.35 112.95 L 415.00 109.45 L 418.65 107.89 L 422.30 105.41 L 425.95 97.89 L 429.60 93.44 L 433.25 93.34 L 436.90 94.70 L 440.55 94.73 L 444.20 89.70 L 447.85 86.57 L 451.50 88.43 L 455.15 89.39 L 458.80 90.25 L 462.45 93.93 L 466.10 95.29 L 469.75 93.01 L 473.40 95.99 L 477.05 97.47 L 480.70 102.18 L 484.35 101.20 L 488.00 97.20 L 491.65 98.08 L 495.30 94.33 L 498.95 91.64 L 502.60 88.69 L 506.25 90.60 L 509.90 88.09 L 513.55 90.55 L 517.20 91.63 L 520.85 86.31 L 524.50 86.40 L 528.15 89.79 L 531.80 90.54 L 535.45 88.52 L 539.10 91.20 L 542.75 92.22 L 546.40 94.35 L 550.05 97.42 L 553.70 95.43 L 557.35 98.69 L 561.00 102.99 L 564.65 106.13 L 568.30 105.72 L 571.95 114.06 L 575.60 112.59 L 579.25 112.74 L 582.90 110.37 L 586.55 105.19 L 590.20 108.61 L 593.85 106.43 L 597.50 107.45 L 601.15 111.02 L 604.80 111.91 L 608.45 104.97 L 612.10 100.80 L 615.75 97.70 L 619.40 101.55 L 623.05 101.71 L 626.70 107.39 L 630.35 108.41 L 634.00 110.98 L 637.65 112.37 L 641.30 111.91 L 644.95 109.36 L 648.60 109.30 L 652.25 108.73 L 655.90 105.20 L 659.55 105.57 L 663.20 104.17 L 666.85 104.81 L 670.50 103.89 L 674.15 106.88 L 677.80 101.05 L 681.45 106.37 L 685.10 105.59 L 688.75 104.20 L 692.40 101.16 L 696.05 103.36 L 699.70 104.11 L 703.35 105.55 L 707.00 102.10 L 710.65 107.99 L 714.30 111.18 L 717.95 106.41 L 721.60 113.47 L 725.25 112.62 L 728.90 119.19 L 732.55 120.82 L 736.20 118.13 L 739.85 114.52 L 743.50 117.64 L 747.15 121.11 L 750.80 122.58 L 754.45 120.15 L 758.10 123.33 L 761.75 128.71 L 765.40 126.06 L 769.05 125.64 L 772.70 130.08 L 776.35 133.44 L 780.00 133.21" class="path-0" />
<path d="M 50.00 154.68 L 53.65 153.03 L 57.30 150.30 L 60.95 154.61 L 64.60 157.34 L 68.25 160.03 L 71.90 156.55 L 75.55 152.78 L 79.20 152.09 L 82.85 156.85 L 86.50 158.66 L 90.15 157.47 L 93.80 159.15 L 97.45 158.81 L 101.10 159.01 L 104.75 154.83 L 108.40 155.97 L 112.05 153.01 L 115.70 153.64 L 119.35 152.55 L 123.00 152.04 L 126.65 152.45 L 130.30 150.82 L 133.95 149.43 L 137.60 150.68 L 141.25 148.63 L 144.90 147.13 L 148.55 154.10 L 152.20 162.11 L 155.85 166.96 L 159.50 163.38 L 163.15 157.31 L 166.80 157.59 L 170.45 153.17 L 174.10 149.32 L 177.75 144.37 L 181.40 143.72 L 185.05 147.87 L 188.70 150.17 L 192.35 146.57 L 196.00 146.56 L 199.65 148.93 L 203.30 147.71 L 206.95 150.57 L 210.60 148.52 L 214.25 146.67 L 217.90 148.35 L 221.55 146.64 L 225.20 143.20 L 228.85 141.58 L 232.50 144.20 L 236.15 141.32 L 239.80 138.91 L 243.45 138.99 L 247.10 136.59 L 250.75 134.34 L 254.40 138.63 L 258.05 143.60 L 261.70 141.36 L 265.35 135.53 L 269.00 137.26 L 272.65 138.38 L 276.30 143.28 L 279.95 142.81 L 283.60 144.97 L 287.25 145.76 L 290.90 151.71 L 294.55 148.40 L 298.20 150.11 L 301.85 147.00 L 305.50 151.26 L 309.15 147.91 L 312.80 146.72 L 316.45 145.62 L 320.10 146.61 L 323.75 153.06 L 327.40 155.76 L 331.05 156.72 L 334.70 152.53 L 338.35 148.61 L 342.00 151.94 L 345.65 152.40 L 349.30 153.72 L 352.95 152.93 L 356.60 151.30 L 360.25 152.50 L 363.90 152.09 L 367.55 146.58 L 371.20 142.71 L 374.85 143.05 L 378.50 140.57 L 382.15 138.10 L 385.80 140.26 L 389.45 136.84 L 393.10 138.21 L 396.75 139.64 L 400.40 136.74 L 404.05 136.36 L 407.70 137.95 L 411.35 137.82 L 415.00 136.28 L 418.65 132.83 L 422.30 129.26 L 425.95 131.86 L 429.60 131.79 L 433.25 129.42 L 436.90 124.08 L 440.55 125.22 L 444.20 120.30 L 447.85 122.92 L 451.50 120.60 L 455.15 124.87 L 458.80 126.99 L 462.45 126.87 L 466.10 124.52 L 469.75 123.16 L 473.40 121.58 L 477.05 126.04 L 480.70 123.41 L 484.35 111.90 L 488.00 113.40 L 491.65 113.29 L 495.30 114.38 L 498.95 114.04 L 502.60 117.64 L 506.25 114.56 L 509.90 116.14 L 513.55 119.39 L 517.20 115.78 L 520.85 116.19 L 524.50 113.69 L 528.15 115.63 L 531.80 112.04 L 535.45 111.55 L 539.10 109.45 L 542.75 108.42 L 546.40 106.87 L 550.05 108.75 L 553.70 111.26 L 557.35 110.50 L 561.00 111.82 L 564.65 113.44 L 568.30 109.18 L 571.95 109.13 L 575.60 111.45 L 579.25 111.41 L 582.90 111.41 L 586.55 114.63 L 590.20 113.13 L 593.85 116.87 L 597.50 117.00 L 601.15 115.86 L 604.80 114.58 L 608.45 115.78 L 612.10 120.81 L 615.75 123.10 L 619.40 121.38 L 623.05 120.97 L 626.70 122.21 L 630.35 124.90 L 634.00 127.39 L 637.65 130.45 L 641.30 124.93 L 644.95 117.40 L 648.60 127.25 L 652.25 135.35 L 655.90 128.98 L 659.55 129.74 L 663.20 132.67 L 666.85 136.08 L 670.50 139.83 L 674.15 131.73 L 677.80 131.29 L 681.45 130.03 L 685.10 128.74 L 688.75 127.48 L 692.40 121.20 L 696.05 121.09 L 699.70 117.36 L 703.35 113.20 L 707.00 113.77 L 710.65 114.45 L 714.30 111.51 L 717.95 113.49 L 721.60 116.72 L 725.25 113.71 L 728.90 112.32 L 732.55 114.58 L 736.20 117.30 L 739.85 116.58 L 743.50 115.20 L 747.15 117.14 L 750.80 116.03 L 754.45 112.07 L 758.10 112.56 L 761.75 114.42 L 765.40 109.75 L 769.05 109.51 L 772.70 108.71 L 776.35 110.15 L 780.00 112.49" class="path-1" />
<path d="M 50.00 154.68 L 53.65 159.69 L 57.30 163.09 L 60.95 162.72 L 64.60 161.28 L 68.25 163.03 L 71.90 162.06 L 75.55 167.80 L 79.20 163.93 L 82.85 163.45 L 86.50 166.63 L 90.15 166.04 L 93.80 161.08 L 97.45 159.18 L 101.10 167.92 L 104.75 169.57 L 108.40 171.18 L 112.05 177.57 L 115.70 174.86 L 119.35 172.32 L 123.00 174.48 L 126.65 173.04 L 130.30 170.89 L 133.95 168.54 L 137.60 170.15 L 141.25 173.61 L 144.90 173.92 L 148.55 176.02 L 152.20 176.65 L 155.85 177.31 L 159.50 181.98 L 163.15 184.17 L 166.80 182.11 L 170.45 181.17 L 174.10 184.77 L 177.75 184.98 L 181.40 185.43 L 185.05 184.70 L 188.70 185.36 L 192.35 185.31 L 196.00 188.45 L 199.65 189.88 L 203.30 188.67 L 206.95 195.89 L 210.60 202.06 L 214.25 203.03 L 217.90 201.79 L 221.55 203.93 L 225.20 207.51 L 228.85 206.38 L 232.50 201.02 L 236.15 198.23 L 239.80 198.35 L 243.45 197.48 L 247.10 195.57 L 250.75 193.30 L 254.40 196.70 L 258.05 193.63 L 261.70 193.61 L 265.35 191.54 L 269.00 192.27 L 272.65 191.99 L 276.30 195.19 L 279.95 197.31 L 283.60 198.23 L 287.25 197.30 L 290.90 195.25 L 294.55 195.80 L 298.20 198.24 L 301.85 198.33 L 305.50 194.24 L 309.15 192.86 L 312.80 196.77 L 316.45 194.79 L 320.10 198.02 L 323.75 196.31 L 327.40 201.90 L 331.05 203.09 L 334.70 198.00 L 338.35 199.11 L 342.00 198.69 L 345.65 193.71 L 349.30 193.65 L 352.95 196.03 L 356.60 197.74 L 360.25 195.34 L 363.90 197.55 L 367.55 201.17 L 371.20 201.80 L 374.85 206.58 L 378.50 206.70 L 382.15 210.49 L 385.80 212.11 L 389.45 213.14 L 393.10 215.13 L 396.75 220.04 L 400.40 223.25 L 404.05 219.98 L 407.70 216.74 L 411.35 214.05 L 415.00 213.44 L 418.65 213.14 L 422.30 215.03 L 425.95 218.12 L 429.60 217.17 L 433.25 221.53 L 436.90 218.63 L 440.55 217.71 L 444.20 221.69 L 447.85 218.53 L 451.50 217.65 L 455.15 215.53 L 458.80 215.92 L 462.45 219.63 L 466.10 222.63 L 469.75 221.04 L 473.40 217.66 L 477.05 220.74 L 480.70 220.48 L 484.35 222.43 L 488.00 224.92 L 491.65 227.80 L 495.30 228.67 L 498.95 229.63 L 502.60 229.81 L 506.25 234.11 L 509.90 234.46 L 513.55 234.62 L 517.20 229.85 L 520.85 230.20 L 524.50 231.74 L 528.15 230.10 L 531.80 233.47 L 535.45 230.09 L 539.10 229.83 L 542.75 231.75 L 546.40 229.93 L 550.05 229.37 L 553.70 229.22 L 557.35 229.36 L 561.00 228.55 L 564.65 227.15 L 568.30 222.94 L 571.95 227.92 L 575.60 230.62 L 579.25 230.80 L 582.90 231.12 L 586.55 228.54 L 590.20 229.59 L 593.85 225.66 L 597.50 218.42 L 601.15 221.72 L 604.80 224.04 L 608.45 220.87 L 612.10 219.99 L 615.75 219.96 L 619.40 225.03 L 623.05 224.80 L 626.70 218.99 L 630.35 217.34 L 634.00 217.71 L 637.65 218.08 L 641.30 216.67 L 644.95 216.62 L 648.60 218.75 L 652.25 214.50 L 655.90 214.26 L 659.55 213.37 L 663.20 209.55 L 666.85 207.77 L 670.50 205.28 L 674.15 202.85 L 677.80 200.28 L 681.45 196.77 L 685.10 200.14 L 688.75 197.09 L 692.40 199.60 L 696.05 198.16 L 699.70 200.97 L 703.35 203.43 L 707.00 204.12 L 710.65 204.38 L 714.30 201.08 L 717.95 203.33 L 721.60 205.24 L 725.25 203.06 L 728.90 205.73 L 732.55 208.40 L 736.20 207.79 L 739.85 209.92 L 743.50 212.66 L 747.15 219.26 L 750.80 216.91 L 754.45 221.35 L 758.10 218.28 L 761.75 219.66 L 765.40 218.13 L 769.05 223.13 L 772.70 220.70 L 776.35 217.07 L 780.00 217.89" class="path-2" />
<path d="M 50.00 154.68 L 53.65 156.38 L 57.30 157.45 L 60.95 156.21 L 64.60 153.66 L 68.25 157.97 L 71.90 158.28 L 75.55 159.77 L 79.20 157.72 L 82.85 159.46 L 86.50 163.94 L 90.15 162.67 L 93.80 159.12 L 97.45 157.16 L 101.10 157.91 L 104.75 157.65 L 108.40 159.54 L 112.05 161.26 L 115.70 155.47 L 119.35 159.33 L 123.00 159.26 L 126.65 154.78 L 130.30 156.28 L 133.95 160.37 L 137.60 159.99 L 141.25 162.96 L 144.90 157.11 L 148.55 155.70 L 152.20 154.64 L 155.85 154.74 L 159.50 151.80 L 163.15 149.08 L 166.80 150.86 L 170.45 146.74 L 174.10 150.80 L 177.75 150.12 L 181.40 148.39 L 185.05 146.82 L 188.70 141.42 L 192.35 145.22 L 196.00 147.70 L 199.65 146.40 L 203.30 144.84 L 206.95 140.93 L 210.60 144.57 L 214.25 148.05 L 217.90 144.73 L 221.55 145.01 L 225.20 145.17 L 228.85 152.63 L 232.50 150.98 L 236.15 152.00 L 239.80 154.75 L 243.45 153.78 L 247.10 155.69 L 250.75 157.43 L 254.40 161.94 L 258.05 159.56 L 261.70 157.03 L 265.35 153.42 L 269.00 155.26 L 272.65 156.43 L 276.30 159.04 L 279.95 156.04 L 283.60 156.87 L 287.25 155.07 L 290.90 155.35 L 294.55 154.54 L 298.20 149.54 L 301.85 153.66 L 305.50 151.68 L 309.15 151.99 L 312.80 152.27 L 316.45 155.19 L 320.10 152.82 L 323.75 155.35 L 327.40 155.07 L 331.05 153.75 L 334.70 153.12 L 338.35 154.63 L 342.00 156.31 L 345.65 161.47 L 349.30 158.78 L 352.95 158.68 L 356.60 155.33 L 360.25 152.58 L 363.90 152.93 L 367.55 151.46 L 371.20 148.26 L 374.85 150.17 L 378.50 153.26 L 382.15 156.99 L 385.80 154.02 L 389.45 153.39 L 393.10 150.84 L 396.75 147.34 L 400.40 151.31 L 404.05 152.15 L 407.70 151.92 L 411.35 152.05 L 415.00 151.21 L 418.65 158.20 L 422.30 156.60 L 425.95 159.94 L 429.60 164.11 L 433.25 163.15 L 436.90 164.29 L 440.55 166.77 L 444.20 166.00 L 447.85 163.26 L 451.50 162.73 L 455.15 154.00 L 458.80 149.54 L 462.45 148.47 L 466.10 145.29 L 469.75 146.57 L 473.40 143.60 L 477.05 140.56 L 480.70 137.15 L 484.35 132.97 L 488.00 134.75 L 491.65 136.97 L 495.30 137.10 L 498.95 140.52 L 502.60 137.24 L 506.25 135.56 L 509.90 135.28 L 513.55 135.84 L 517.20 136.08 L 520.85 132.10 L 524.50 134.59 L 528.15 136.10 L 531.80 137.32 L 535.45 139.77 L 539.10 142.20 L 542.75 141.88 L 546.40 144.59 L 550.05 147.82 L 553.70 143.88 L 557.35 140.17 L 561.00 143.06 L 564.65 147.55 L 568.30 152.11 L 571.95 146.81 L 575.60 147.59 L 579.25 146.18 L 582.90 148.14 L 586.55 143.70 L 590.20 143.51 L 593.85 140.18 L 597.50 143.35 L 601.15 139.82 L 604.80 137.68 L 608.45 139.57 L 612.10 139.64 L 615.75 139.19 L 619.40 142.77 L 623.05 139.18 L 626.70 138.43 L 630.35 138.48 L 634.00 136.60 L 637.65 130.76 L 641.30 127.58 L 644.95 129.38 L 648.60 134.51 L 652.25 135.88 L 655.90 133.32 L 659.55 137.31 L 663.20 135.64 L 666.85 136.75 L 670.50 135.04 L 674.15 136.58 L 677.80 133.37 L 681.45 135.38 L 685.10 139.73 L 688.75 140.09 L 692.40 139.50 L 696.05 135.48 L 699.70 135.03 L 703.35 135.64 L 707.00 139.81 L 710.65 144.93 L 714.30 149.02 L 717.95 146.76 L 721.60 147.57 L 725.25 149.65 L 728.90 153.89 L 732.55 155.26 L 736.20 153.66 L 739.85 154.77 L 743.50 153.16 L 747.15 154.62 L 750.80 151.90 L 754.45 152.17 L 758.10 151.33 L 761.75 154.33 L 765.40 151.43 L 769.05 150.91 L 772.70 149.78 L 776.35 151.97 L 780.00 149.37" class="path-3" />
<path d="M 50.00 154.68 L 53.65 156.97 L 57.30 157.38 L 60.95 161.21 L 64.60 163.49 L 68.25 160.86 L 71.90 160.99 L 75.55 157.11 L 79.20 154.41 L 82.85 156.06 L 86.50 155.26 L 90.15 154.25 L 93.80 152.24 L 97.45 146.02 L 101.10 140.06 L 104.75 137.74 L 108.40 132.52 L 112.05 134.25 L 115.70 135.55 L 119.35 132.98 L 123.00 134.11 L 126.65 135.28 L 130.30 139.84 L 133.95 144.87 L 137.60 145.86 L 141.25 145.73 L 144.90 151.05 L 148.55 147.14 L 152.20 151.12 L 155.85 149.14 L 159.50 147.66 L 163.15 149.98 L 166.80 148.50 L 170.45 150.08 L 174.10 151.19 L 177.75 145.11 L 181.40 141.29 L 185.05 141.81 L 188.70 144.16 L 192.35 146.53 L 196.00 142.94 L 199.65 142.86 L 203.30 135.99 L 206.95 137.59 L 210.60 138.51 L 214.25 144.01 L 217.90 145.87 L 221.55 143.89 L 225.20 139.05 L 228.85 135.66 L 232.50 135.91 L 236.15 136.26 L 239.80 135.40 L 243.45 134.22 L 247.10 135.83 L 250.75 133.91 L 254.40 129.66 L 258.05 125.37 L 261.70 122.47 L 265.35 116.69 L 269.00 122.81 L 272.65 115.84 L 276.30 114.44 L 279.95 116.40 L 283.60 115.70 L 287.25 119.54 L 290.90 120.98 L 294.55 117.59 L 298.20 115.36 L 301.85 110.76 L 305.50 108.47 L 309.15 111.54 L 312.80 112.41 L 316.45 108.96 L 320.10 107.13 L 323.75 112.47 L 327.40 112.51 L 331.05 111.00 L 334.70 112.02 L 338.35 110.34 L 342.00 111.24 L 345.65 103.04 L 349.30 100.53 L 352.95 98.17 L 356.60 99.63 L 360.25 94.96 L 363.90 97.29 L 367.55 101.74 L 371.20 98.02 L 374.85 99.18 L 378.50 99.83 L 382.15 94.61 L 385.80 96.02 L 389.45 93.10 L 393.10 85.54 L 396.75 84.77 L 400.40 83.51 L 404.05 80.30 L 407.70 82.10 L 411.35 80.09 L 415.00 80.22 L 418.65 82.94 L 422.30 79.38 L 425.95 78.30 L 429.60 82.77 L 433.25 82.93 L 436.90 76.14 L 440.55 75.98 L 444.20 77.81 L 447.85 78.50 L 451.50 78.41 L 455.15 77.11 L 458.80 78.27 L 462.45 78.62 L 466.10 72.47 L 469.75 71.02 L 473.40 74.78 L 477.05 75.84 L 480.70 74.02 L 484.35 74.91 L 488.00 74.55 L 491.65 75.74 L 495.30 71.61 L 498.95 79.69 L 502.60 82.04 L 506.25 77.80 L 509.90 76.87 L 513.55 72.58 L 517.20 73.12 L 520.85 68.82 L 524.50 71.64 L 528.15 72.98 L 531.80 72.27 L 535.45 72.89 L 539.10 71.04 L 542.75 69.84 L 546.40 68.46 L 550.05 75.68 L 553.70 72.71 L 557.35 73.16 L 561.00 73.01 L 564.65 71.31 L 568.30 74.77 L 571.95 75.00 L 575.60 73.02 L 579.25 72.88 L 582.90 72.66 L 586.55 69.09 L 590.20 66.32 L 593.85 68.67 L 597.50 69.12 L 601.15 72.50 L 604.80 70.97 L 608.45 71.01 L 612.10 72.53 L 615.75 69.80 L 619.40 70.14 L 623.05 65.38 L 626.70 67.28 L 630.35 65.49 L 634.00 67.76 L 637.65 67.03 L 641.30 70.12 L 644.95 72.87 L 648.60 75.67 L 652.25 75.02 L 655.90 70.95 L 659.55 75.46 L 663.20 73.54 L 666.85 84.16 L 670.50 83.46 L 674.15 85.80 L 677.80 89.93 L 681.45 88.27 L 685.10 86.31 L 688.75 85.00 L 692.40 87.12 L 696.05 84.17 L 699.70 80.00 L 703.35 83.00 L 707.00 80.09 L 710.65 84.82 L 714.30 85.54 L 717.95 89.83 L 721.60 91.03 L 725.25 88.78 L 728.90 89.52 L 732.55 87.42 L 736.20 93.13 L 739.85 92.49 L 743.50 91.42 L 747.15 90.94 L 750.80 93.43 L 754.45 86.48 L 758.10 85.57 L 761.75 85.37 L 765.40 84.92 L 769.05 88.93 L 772.70 89.60 L 776.35 89.48 L 780.00 87.36" class="path-4" />
<line x1="50" y1="154.7" x2="780" y2="154.7" stroke="#4b5563" stroke-width="0.8" stroke-dasharray="6 3" />
</svg>