<svg xmlns="http://www.w3.org/2000/svg" viewBox="0 0 800 300" width="800" height="300">
<style>
.axis-line { stroke: #6b7280; stroke-width: 0.5; }
.axis-text { font-family: monospace; font-size: 11px; fill: #9ca3af; }
.title-text { font-family: monospace; font-size: 14px; fill: #d1d5db; font-weight: bold; }
.grid-line { stroke: #374151; stroke-width: 0.3; stroke-dasharray: 4 2; }
.path-0 { fill: none; stroke: #3b82f6; stroke-width: 2; stroke-linecap: round; opacity: 0.85; animation: draw-0 8s ease-in-out 0.0s infinite; stroke-dasharray: 940; stroke-dashoffset: 940;}
@keyframes draw-0 { 0% { stroke-dashoffset: 940; } 38% { stroke-dashoffset: 0; } 62% { stroke-dashoffset: 0; } 100% { stroke-dashoffset: 940; }}
.path-1 { fill: none; stroke: #ef4444; stroke-width: 2; stroke-linecap: round; opacity: 0.85; animation: draw-1 8s ease-in-out 0.4s infinite; stroke-dasharray: 950; stroke-dashoffset: 950;}
@keyframes draw-1 { 0% { stroke-dashoffset: 950; } 38% { stroke-dashoffset: 0; } 62% { stroke-dashoffset: 0; } 100% { stroke-dashoffset: 950; }}
.path-2 { fill: none; stroke: #22c55e; stroke-width: 2; stroke-linecap: round; opacity: 0.85; animation: draw-2 8s ease-in-out 0.8s infinite; stroke-dasharray: 939; stroke-dashoffset: 939;}
@keyframes draw-2 { 0% { stroke-dashoffset: 939; } 38% { stroke-dashoffset: 0; } 62% { stroke-dashoffset: 0; } 100% { stroke-dashoffset: 939; }}
.path-3 { fill: none; stroke: #f59e0b; stroke-width: 2; stroke-linecap: round; opacity: 0.85; animation: draw-3 8s ease-in-out 1.2000000000000002s infinite; stroke-dasharray: 920; stroke-dashoffset: 920;}
@keyframes draw-3 { 0% { stroke-dashoffset: 920; } 38% { stroke-dashoffset: 0; } 62% { stroke-dashoffset: 0; } 100% { stroke-dashoffset: 920; }}
.path-4 { fill: none; stroke: #a855f7; stroke-width: 2; stroke-linecap: round; opacity: 0.85; animation: draw-4 8s ease-in-out 1.6s infinite; stroke-dasharray: 938; stroke-dashoffset: 938;}
@keyframes draw-4 { 0% { stroke-dashoffset: 938; } 38% { stroke-dashoffset: 0; } 62% { stroke-dashoffset: 0; } 100% { stroke-dashoffset: 938; }}
</style>
<rect width="800" height="300" rx="8" fill="#0d1117" />
<line x1="50" y1="260.0" x2="780" y2="260.0" class="grid-line" />
<text x="44" y="264.0" text-anchor="end" class="axis-text">-2.6</text>
<line x1="50" y1="216.0" x2="780" y2="216.0" class="grid-line" />
<text x="44" y="220.0" text-anchor="end" class="axis-text">-1.6</text>
<line x1="50" y1="172.0" x2="780" y2="172.0" class="grid-line" />
<text x="44" y="176.0" text-anchor="end" class="axis-text">-0.6</text>
<line x1="50" y1="128.0" x2="780" y2="128.0" class="grid-line" />
<text x="44" y="132.0" text-anchor="end" class="axis-text">0.4</text>
<line x1="50" y1="84.0" x2="780" y2="84.0" class="grid-line" />
<text x="44" y="88.0" text-anchor="end" class="axis-text">1.4</text>
<line x1="50" y1="40.0" x2="780" y2="40.0" class="grid-line" />
<text x="44" y="44.0" text-anchor="end" class="axis-text">2.5</text>
<line x1="50.0" y1="40" x2="50.0" y2="260" class="grid-line" />
<line x1="196.0" y1="40" x2="196.0" y2="260" class="grid-line" />
<line x1="342.0" y1="40" x2="342.0" y2="260" class="grid-line" />
<line x1="488.0" y1="40" x2="488.0" y2="260" class="grid-line" />
<line x1="634.0" y1="40" x2="634.0" y2="260" class="grid-line" />
<line x1="780.0" y1="40" x2="780.0" y2="260" class="grid-line" />
<line x1="50" y1="260" x2="780" y2="260" class="axis-line" />
<line x1="50" y1="40" x2="50" y2="260" class="axis-line" />
<text x="400.0" y="295" text-anchor="middle" class="axis-text">t</text>
<text x="12" y="150.0" text-anchor="middle" class="axis-text" transform="rotate(-90 12 150.0)">W(t)</text>
<text x="400.0" y="22" text-anchor="middle" class="title-text">Brownian Motion</text>
<path d="M 50.00 146.68 L 53.65 147.75 L 57.30 145.51 L 60.95 148.73 L 64.60 147.78 L 68.25 152.01 L 71.90 148.47 L 75.55 151.00 L 79.20 153.65 L 82.85 151.55 L 86.50 147.26 L 90.15 140.00 L 93.80 138.88 L 97.45 139.24 L 101.10 135.46 L 104.75 131.07 L 108.40 136.99 L 112.05 137.10 L 115.70 136.65 L 119.35 131.58 L 123.00 130.01 L 126.65 132.73 L 130.30 129.14 L 133.95 126.88 L 137.60 123.65 L 141.25 123.51 L 144.90 119.86 L 148.55 125.64 L 152.20 127.09 L 155.85 137.05 L 159.50 136.11 L 163.15 133.14 L 166.80 134.25 L 170.45 133.51 L 174.10 131.15 L 177.75 128.12 L 181.40 129.09 L 185.05 131.02 L 188.70 133.46 L 192.35 132.15 L 196.00 133.98 L 199.65 131.09 L 203.30 129.12 L 206.95 131.00 L 210.60 125.85 L 214.25 124.52 L 217.90 130.06 L 221.55 128.24 L 225.20 128.16 L 228.85 126.93 L 232.50 124.60 L 236.15 122.52 L 239.80 119.31 L 243.45 122.40 L 247.10 124.27 L 250.75 123.08 L 254.40 126.73 L 258.05 123.85 L 261.70 123.71 L 265.35 124.22 L 269.00 123.20 L 272.65 121.12 L 276.30 117.21 L 279.95 115.26 L 283.60 114.76 L 287.25 110.85 L 290.90 107.50 L 294.55 105.39 L 298.20 102.05 L 301.85 93.95 L 305.50 97.57 L 309.15 99.88 L 312.80 96.57 L 316.45 95.14 L 320.10 93.48 L 323.75 88.44 L 327.40 87.02 L 331.05 85.64 L 334.70 84.76 L 338.35 85.75 L 342.00 80.83 L 345.65 86.58 L 349.30 86.57 L 352.95 87.01 L 356.60 88.20 L 360.25 87.67 L 363.90 87.46 L 367.55 81.84 L 371.20 79.52 L 374.85 79.36 L 378.50 77.39 L 382.15 76.86 L 385.80 78.11 L 389.45 72.62 L 393.10 75.50 L 396.75 76.69 L 400.40 80.85 L 404.05 74.25 L 407.70 71.91 L 411.35 77.11 L 415.00 70.42 L 418.65 66.98 L 422.30 67.99 L 425.95 68.33 L 429.60 68.28 L 433.25 65.38 L 436.90 69.81 L 440.55 67.82 L 444.20 70.24 L 447.85 71.18 L 451.50 73.96 L 455.15 74.35 L 458.80 72.01 L 462.45 73.47 L 466.10 78.07 L 469.75 81.74 L 473.40 83.31 L 477.05 86.03 L 480.70 91.25 L 484.35 96.66 L 488.00 99.09 L 491.65 98.80 L 495.30 93.28 L 498.95 96.32 L 502.60 97.29 L 506.25 95.05 L 509.90 97.21 L 513.55 97.01 L 517.20 95.75 L 520.85 98.42 L 524.50 99.82 L 528.15 104.87 L 531.80 106.54 L 535.45 107.01 L 539.10 105.66 L 542.75 109.18 L 546.40 108.38 L 550.05 112.09 L 553.70 111.81 L 557.35 108.69 L 561.00 107.32 L 564.65 99.60 L 568.30 102.51 L 571.95 97.05 L 575.60 94.00 L 579.25 94.67 L 582.90 99.75 L 586.55 103.29 L 590.20 99.35 L 593.85 95.45 L 597.50 94.69 L 601.15 94.70 L 604.80 93.97 L 608.45 95.93 L 612.10 96.65 L 615.75 93.71 L 619.40 95.86 L 623.05 93.38 L 626.70 95.72 L 630.35 93.30 L 634.00 97.68 L 637.65 94.39 L 641.30 96.86 L 644.95 94.47 L 648.60 95.54 L 652.25 100.90 L 655.90 100.66 L 659.55 102.61 L 663.20 103.32 L 666.85 99.43 L 670.50 98.42 L 674.15 95.35 L 677.80 94.89 L 681.45 95.13 L 685.10 96.26 L 688.75 92.36 L 692.40 90.95 L 696.05 87.02 L 699.70 89.03 L 703.35 87.38 L 707.00 86.59 L 710.65 90.38 L 714.30 88.39 L 717.95 88.90 L 721.60 93.50 L 725.25 96.10 L 728.90 100.76 L 732.55 100.85 L 736.20 99.90 L 739.85 97.16 L 743.50 94.89 L 747.15 96.40 L 750.80 95.64 L 754.45 101.91 L 758.10 108.72 L 761.75 110.31 L 765.40 111.26 L 769.05 111.25 L 772.70 111.35 L 776.35 107.52 L 780.00 105.50" class="path-0" />
<path d="M 50.00 146.68 L 53.65 145.72 L 57.30 142.18 L 60.95 145.18 L 64.60 143.50 L 68.25 137.30 L 71.90 135.66 L 75.55 135.59 L 79.20 131.31 L 82.85 128.98 L 86.50 133.50 L 90.15 130.38 L 93.80 130.38 L 97.45 124.81 L 101.10 121.07 L 104.75 123.71 L 108.40 124.96 L 112.05 133.05 L 115.70 139.17 L 119.35 142.15 L 123.00 136.59 L 126.65 137.08 L 130.30 133.73 L 133.95 134.79 L 137.60 132.62 L 141.25 136.32 L 144.90 139.81 L 148.55 139.24 L 152.20 142.49 L 155.85 146.68 L 159.50 149.20 L 163.15 150.60 L 166.80 153.85 L 170.45 154.51 L 174.10 153.59 L 177.75 150.65 L 181.40 152.23 L 185.05 151.91 L 188.70 156.19 L 192.35 156.92 L 196.00 158.99 L 199.65 159.65 L 203.30 161.80 L 206.95 158.48 L 210.60 163.74 L 214.25 159.98 L 217.90 161.90 L 221.55 158.53 L 225.20 160.54 L 228.85 161.02 L 232.50 159.05 L 236.15 161.22 L 239.80 161.24 L 243.45 165.87 L 247.10 167.98 L 250.75 167.87 L 254.40 164.23 L 258.05 165.31 L 261.70 164.45 L 265.35 168.07 L 269.00 171.18 L 272.65 172.13 L 276.30 167.68 L 279.95 164.23 L 283.60 167.37 L 287.25 166.93 L 290.90 163.73 L 294.55 163.30 L 298.20 164.88 L 301.85 166.37 L 305.50 165.61 L 309.15 164.28 L 312.80 167.95 L 316.45 165.14 L 320.10 161.09 L 323.75 159.53 L 327.40 157.67 L 331.05 159.43 L 334.70 160.39 L 338.35 166.43 L 342.00 164.10 L 345.65 162.78 L 349.30 167.75 L 352.95 172.75 L 356.60 174.75 L 360.25 177.61 L 363.90 181.35 L 367.55 177.79 L 371.20 175.90 L 374.85 181.67 L 378.50 186.14 L 382.15 185.42 L 385.80 193.08 L 389.45 195.50 L 393.10 192.93 L 396.75 188.35 L 400.40 182.00 L 404.05 182.77 L 407.70 188.33 L 411.35 186.99 L 415.00 189.20 L 418.65 188.15 L 422.30 188.66 L 425.95 188.44 L 429.60 193.85 L 433.25 191.32 L 436.90 185.67 L 440.55 179.46 L 444.20 186.73 L 447.85 181.83 L 451.50 185.21 L 455.15 180.67 L 458.80 175.09 L 462.45 173.73 L 466.10 174.33 L 469.75 174.06 L 473.40 174.48 L 477.05 174.91 L 480.70 171.33 L 484.35 173.26 L 488.00 172.83 L 491.65 176.00 L 495.30 180.86 L 498.95 181.83 L 502.60 184.00 L 506.25 182.34 L 509.90 180.36 L 513.55 180.80 L 517.20 182.45 L 520.85 177.70 L 524.50 176.90 L 528.15 178.68 L 531.80 178.17 L 535.45 174.75 L 539.10 176.46 L 542.75 171.57 L 546.40 169.43 L 550.05 171.60 L 553.70 172.93 L 557.35 173.44 L 561.00 171.72 L 564.65 171.88 L 568.30 167.63 L 571.95 167.44 L 575.60 173.48 L 579.25 176.54 L 582.90 175.33 L 586.55 176.37 L 590.20 177.08 L 593.85 172.10 L 597.50 171.88 L 601.15 170.85 L 604.80 170.52 L 608.45 163.28 L 612.10 167.08 L 615.75 173.01 L 619.40 168.71 L 623.05 169.32 L 626.70 169.74 L 630.35 165.56 L 634.00 162.73 L 637.65 162.58 L 641.30 160.16 L 644.95 163.58 L 648.60 161.22 L 652.25 157.20 L 655.90 161.73 L 659.55 163.84 L 663.20 165.04 L 666.85 165.92 L 670.50 167.00 L 674.15 164.35 L 677.80 162.12 L 681.45 160.54 L 685.10 158.46 L 688.75 152.83 L 692.40 153.57 L 696.05 154.27 L 699.70 150.54 L 703.35 148.29 L 707.00 148.00 L 710.65 145.28 L 714.30 142.02 L 717.95 143.27 L 721.60 141.33 L 725.25 136.11 L 728.90 132.46 L 732.55 130.15 L 736.20 126.91 L 739.85 124.31 L 743.50 122.56 L 747.15 126.15 L 750.80 126.22 L 754.45 131.76 L 758.10 134.95 L 761.75 138.28 L 765.40 134.55 L 769.05 134.05 L 772.70 134.59 L 776.35 136.25 L 780.00 135.94" class="path-1" />
<path d="M 50.00 146.68 L 53.65 148.86 L 57.30 149.30 L 60.95 153.89 L 64.60 154.86 L 68.25 149.50 L 71.90 151.10 L 75.55 151.31 L 79.20 154.07 L 82.85 150.34 L 86.50 148.83 L 90.15 152.41 L 93.80 151.11 L 97.45 153.13 L 101.10 152.03 L 104.75 147.29 L 108.40 148.15 L 112.05 149.39 L 115.70 149.59 L 119.35 148.79 L 123.00 154.75 L 126.65 156.01 L 130.30 160.57 L 133.95 157.98 L 137.60 159.95 L 141.25 160.80 L 144.90 153.97 L 148.55 154.81 L 152.20 149.46 L 155.85 147.33 L 159.50 150.20 L 163.15 154.66 L 166.80 155.69 L 170.45 160.81 L 174.10 161.03 L 177.75 158.49 L 181.40 161.50 L 185.05 166.57 L 188.70 170.54 L 192.35 172.50 L 196.00 172.07 L 199.65 171.51 L 203.30 170.70 L 206.95 172.06 L 210.60 175.54 L 214.25 176.38 L 217.90 174.80 L 221.55 174.46 L 225.20 173.83 L 228.85 173.89 L 232.50 180.68 L 236.15 180.22 L 239.80 178.99 L 243.45 176.67 L 247.10 174.99 L 250.75 172.04 L 254.40 177.42 L 258.05 179.35 L 261.70 176.96 L 265.35 180.32 L 269.00 182.14 L 272.65 176.48 L 276.30 176.46 L 279.95 179.06 L 283.60 179.83 L 287.25 180.31 L 290.90 174.81 L 294.55 176.27 L 298.20 176.45 L 301.85 172.68 L 305.50 169.15 L 309.15 168.89 L 312.80 174.26 L 316.45 173.16 L 320.10 173.91 L 323.75 173.36 L 327.40 170.66 L 331.05 173.51 L 334.70 173.43 L 338.35 171.84 L 342.00 163.93 L 345.65 168.70 L 349.30 171.70 L 352.95 170.10 L 356.60 172.72 L 360.25 170.47 L 363.90 169.85 L 367.55 169.49 L 371.20 174.08 L 374.85 176.52 L 378.50 175.46 L 382.15 173.92 L 385.80 169.47 L 389.45 168.50 L 393.10 173.91 L 396.75 172.96 L 400.40 175.37 L 404.05 172.71 L 407.70 168.72 L 411.35 168.46 L 415.00 171.15 L 418.65 177.15 L 422.30 178.61 L 425.95 176.83 L 429.60 176.01 L 433.25 180.55 L 436.90 175.80 L 440.55 176.41 L 444.20 180.07 L 447.85 178.82 L 451.50 180.15 L 455.15 180.25 L 458.80 178.05 L 462.45 175.78 L 466.10 173.93 L 469.75 171.56 L 473.40 171.84 L 477.05 166.52 L 480.70 173.03 L 484.35 171.71 L 488.00 175.28 L 491.65 173.04 L 495.30 171.41 L 498.95 172.41 L 502.60 167.38 L 506.25 166.85 L 509.90 166.50 L 513.55 165.39 L 517.20 168.42 L 520.85 165.29 L 524.50 164.26 L 528.15 163.28 L 531.80 159.28 L 535.45 163.01 L 539.10 163.29 L 542.75 165.41 L 546.40 167.28 L 550.05 167.27 L 553.70 164.99 L 557.35 168.38 L 561.00 167.21 L 564.65 169.59 L 568.30 168.66 L 571.95 173.50 L 575.60 172.80 L 579.25 177.54 L 582.90 175.66 L 586.55 175.49 L 590.20 179.83 L 593.85 184.56 L 597.50 181.79 L 601.15 179.85 L 604.80 184.39 L 608.45 189.00 L 612.10 191.63 L 615.75 193.59 L 619.40 186.28 L 623.05 183.11 L 626.70 185.79 L 630.35 182.56 L 634.00 181.46 L 637.65 179.28 L 641.30 173.91 L 644.95 176.79 L 648.60 178.78 L 652.25 176.60 L 655.90 177.61 L 659.55 180.62 L 663.20 179.02 L 666.85 184.66 L 670.50 185.35 L 674.15 176.96 L 677.80 182.20 L 681.45 180.52 L 685.10 178.99 L 688.75 178.74 L 692.40 177.22 L 696.05 175.91 L 699.70 176.61 L 703.35 176.76 L 707.00 176.36 L 710.65 173.12 L 714.30 169.86 L 717.95 164.32 L 721.60 160.64 L 725.25 158.93 L 728.90 162.48 L 732.55 162.43 L 736.20 161.65 L 739.85 160.66 L 743.50 160.55 L 747.15 166.01 L 750.80 170.77 L 754.45 172.33 L 758.10 177.93 L 761.75 170.05 L 765.40 173.86 L 769.05 172.80 L 772.70 174.56 L 776.35 176.16 L 780.00 175.91" class="path-2" />
<path d="M 50.00 146.68 L 53.65 149.27 L 57.30 151.34 L 60.95 155.55 L 64.60 158.24 L 68.25 161.65 L 71.90 166.81 L 75.55 163.28 L 79.20 159.60 L 82.85 154.68 L 86.50 155.87 L 90.15 152.82 L 93.80 152.45 L 97.45 157.53 L 101.10 158.35 L 104.75 161.33 L 108.40 155.70 L 112.05 159.31 L 115.70 156.81 L 119.35 160.79 L 123.00 157.73 L 126.65 155.57 L 130.30 159.41 L 133.95 159.86 L 137.60 157.80 L 141.25 154.89 L 144.90 155.15 L 148.55 154.69 L 152.20 156.06 L 155.85 158.64 L 159.50 156.17 L 163.15 154.07 L 166.80 159.24 L 170.45 158.71 L 174.10 161.26 L 177.75 161.60 L 181.40 155.41 L 185.05 153.77 L 188.70 150.60 L 192.35 152.36 L 196.00 150.65 L 199.65 149.02 L 203.30 156.90 L 206.95 159.41 L 210.60 155.54 L 214.25 157.89 L 217.90 159.68 L 221.55 160.31 L 225.20 159.53 L 228.85 163.79 L 232.50 163.26 L 236.15 165.38 L 239.80 166.30 L 243.45 171.02 L 247.10 169.92 L 250.75 169.68 L 254.40 166.52 L 258.05 168.51 L 261.70 165.21 L 265.35 168.58 L 269.00 168.37 L 272.65 167.13 L 276.30 163.26 L 279.95 157.81 L 283.60 160.36 L 287.25 160.08 L 290.90 159.03 L 294.55 156.82 L 298.20 155.13 L 301.85 156.26 L 305.50 152.01 L 309.15 155.74 L 312.80 159.44 L 316.45 160.26 L 320.10 158.55 L 323.75 161.39 L 327.40 162.39 L 331.05 163.65 L 334.70 163.01 L 338.35 165.65 L 342.00 162.25 L 345.65 165.97 L 349.30 164.80 L 352.95 165.18 L 356.60 159.07 L 360.25 156.53 L 363.90 160.85 L 367.55 160.99 L 371.20 162.54 L 374.85 166.44 L 378.50 165.29 L 382.15 162.07 L 385.80 160.53 L 389.45 164.90 L 393.10 166.42 L 396.75 172.31 L 400.40 170.20 L 404.05 169.93 L 407.70 171.08 L 411.35 174.16 L 415.00 173.68 L 418.65 174.52 L 422.30 177.68 L 425.95 176.94 L 429.60 178.24 L 433.25 177.12 L 436.90 177.76 L 440.55 180.19 L 444.20 173.99 L 447.85 171.88 L 451.50 174.42 L 455.15 173.15 L 458.80 170.12 L 462.45 167.31 L 466.10 161.98 L 469.75 163.12 L 473.40 163.00 L 477.05 164.59 L 480.70 168.06 L 484.35 174.87 L 488.00 173.27 L 491.65 173.42 L 495.30 173.14 L 498.95 174.00 L 502.60 174.85 L 506.25 176.81 L 509.90 174.54 L 513.55 177.61 L 517.20 177.83 L 520.85 179.77 L 524.50 182.16 L 528.15 180.05 L 531.80 182.03 L 535.45 180.43 L 539.10 181.12 L 542.75 183.31 L 546.40 184.91 L 550.05 185.09 L 553.70 184.29 L 557.35 177.44 L 561.00 180.17 L 564.65 184.04 L 568.30 178.94 L 571.95 177.58 L 575.60 178.30 L 579.25 177.82 L 582.90 174.57 L 586.55 175.28 L 590.20 172.30 L 593.85 171.98 L 597.50 171.58 L 601.15 168.36 L 604.80 167.41 L 608.45 164.24 L 612.10 168.13 L 615.75 163.69 L 619.40 161.51 L 623.05 163.79 L 626.70 167.64 L 630.35 169.16 L 634.00 165.38 L 637.65 165.83 L 641.30 166.68 L 644.95 166.64 L 648.60 172.20 L 652.25 172.36 L 655.90 171.76 L 659.55 172.48 L 663.20 176.26 L 666.85 181.89 L 670.50 177.47 L 674.15 175.38 L 677.80 180.28 L 681.45 181.63 L 685.10 180.93 L 688.75 179.47 L 692.40 181.35 L 696.05 177.99 L 699.70 176.78 L 703.35 177.03 L 707.00 177.11 L 710.65 175.02 L 714.30 172.74 L 717.95 168.51 L 721.60 165.79 L 725.25 169.65 L 728.90 169.06 L 732.55 168.15 L 736.20 165.89 L 739.85 164.30 L 743.50 167.85 L 747.15 170.11 L 750.80 174.16 L 754.45 175.16 L 758.10 184.82 L 761.75 179.52 L 765.40 180.19 L 769.05 179.78 L 772.70 179.35 L 776.35 180.05 L 780.00 179.45" class="path-3" />
<path d="M 50.00 146.68 L 53.65 148.54 L 57.30 147.99 L 60.95 152.11 L 64.60 154.22 L 68.25 156.86 L 71.90 155.35 L 75.55 155.78 L 79.20 161.13 L 82.85 160.22 L 86.50 159.72 L 90.15 158.99 L 93.80 157.84 L 97.45 157.97 L 101.10 155.13 L 104.75 156.59 L 108.40 154.15 L 112.05 156.68 L 115.70 152.06 L 119.35 151.10 L 123.00 148.61 L 126.65 147.67 L 130.30 154.52 L 133.95 155.89 L 137.60 159.64 L 141.25 160.46 L 144.90 158.99 L 148.55 163.46 L 152.20 164.81 L 155.85 161.28 L 159.50 166.34 L 163.15 165.85 L 166.80 170.75 L 170.45 166.50 L 174.10 166.67 L 177.75 171.56 L 181.40 173.11 L 185.05 169.97 L 188.70 166.11 L 192.35 167.96 L 196.00 167.53 L 199.65 170.05 L 203.30 167.20 L 206.95 166.73 L 210.60 161.63 L 214.25 159.97 L 217.90 164.34 L 221.55 166.08 L 225.20 163.85 L 228.85 164.34 L 232.50 168.05 L 236.15 166.92 L 239.80 167.74 L 243.45 162.06 L 247.10 163.60 L 250.75 161.59 L 254.40 164.16 L 258.05 160.65 L 261.70 160.92 L 265.35 158.99 L 269.00 154.91 L 272.65 158.85 L 276.30 163.41 L 279.95 165.43 L 283.60 169.47 L 287.25 175.77 L 290.90 176.84 L 294.55 173.53 L 298.20 171.40 L 301.85 175.33 L 305.50 174.48 L 309.15 175.93 L 312.80 170.92 L 316.45 171.55 L 320.10 171.54 L 323.75 172.70 L 327.40 173.90 L 331.05 172.81 L 334.70 175.94 L 338.35 178.98 L 342.00 180.46 L 345.65 174.43 L 349.30 178.27 L 352.95 183.83 L 356.60 183.80 L 360.25 185.31 L 363.90 181.22 L 367.55 184.14 L 371.20 179.45 L 374.85 176.05 L 378.50 177.03 L 382.15 181.63 L 385.80 176.65 L 389.45 171.04 L 393.10 170.46 L 396.75 168.64 L 400.40 171.35 L 404.05 170.99 L 407.70 175.42 L 411.35 177.96 L 415.00 174.99 L 418.65 176.37 L 422.30 175.77 L 425.95 171.86 L 429.60 167.11 L 433.25 168.90 L 436.90 169.16 L 440.55 166.70 L 444.20 165.72 L 447.85 170.00 L 451.50 171.46 L 455.15 172.33 L 458.80 177.60 L 462.45 175.78 L 466.10 177.74 L 469.75 178.83 L 473.40 180.83 L 477.05 185.73 L 480.70 189.29 L 484.35 189.97 L 488.00 191.27 L 491.65 198.08 L 495.30 202.11 L 498.95 202.47 L 502.60 203.92 L 506.25 204.07 L 509.90 204.25 L 513.55 204.09 L 517.20 202.52 L 520.85 200.66 L 524.50 201.68 L 528.15 200.80 L 531.80 202.72 L 535.45 203.42 L 539.10 204.79 L 542.75 208.40 L 546.40 207.51 L 550.05 206.37 L 553.70 205.11 L 557.35 206.02 L 561.00 207.88 L 564.65 207.53 L 568.30 202.36 L 571.95 201.09 L 575.60 202.31 L 579.25 202.80 L 582.90 202.14 L 586.55 207.49 L 590.20 211.26 L 593.85 212.28 L 597.50 213.67 L 601.15 219.91 L 604.80 215.88 L 608.45 217.93 L 612.10 215.12 L 615.75 217.94 L 619.40 213.03 L 623.05 212.21 L 626.70 212.51 L 630.35 214.69 L 634.00 214.60 L 637.65 210.55 L 641.30 207.83 L 644.95 213.04 L 648.60 215.94 L 652.25 213.33 L 655.90 209.58 L 659.55 206.04 L 663.20 208.65 L 666.85 209.31 L 670.50 208.64 L 674.15 216.90 L 677.80 220.69 L 681.45 221.57 L 685.10 226.18 L 688.75 225.58 L 692.40 228.13 L 696.05 227.61 L 699.70 230.66 L 703.35 234.03 L 707.00 234.62 L 710.65 231.79 L 714.30 227.57 L 717.95 223.55 L 721.60 219.90 L 725.25 214.88 L 728.90 212.78 L 732.55 219.64 L 736.20 216.56 L 739.85 216.78 L 743.50 214.39 L 747.15 213.25 L 750.80 214.09 L 754.45 213.81 L 758.10 216.72 L 761.75 216.89 L 765.40 224.57 L 769.05 226.84 L 772.70 225.47 L 776.35 220.23 L 780.00 223.26" class="path-4" />
<line x1="50" y1="146.7" x2="780" y2="146.7" stroke="#4b5563" stroke-width="0.8" stroke-dasharray="6 3" />
</svg>