<svg xmlns="http://www.w3.org/2000/svg" viewBox="0 0 800 300" width="800" height="300">
<style>
.axis-line { stroke: #6b7280; stroke-width: 0.5; }
.axis-text { font-family: monospace; font-size: 11px; fill: #9ca3af; }
.title-text { font-family: monospace; font-size: 14px; fill: #d1d5db; font-weight: bold; }
.grid-line { stroke: #374151; stroke-width: 0.3; stroke-dasharray: 4 2; }
.path-0 { fill: none; stroke: #3b82f6; stroke-width: 2; stroke-linecap: round; opacity: 0.85; animation: draw-0 8s ease-in-out 0.0s infinite; stroke-dasharray: 904; stroke-dashoffset: 904;}
@keyframes draw-0 { 0% { stroke-dashoffset: 904; } 38% { stroke-dashoffset: 0; } 62% { stroke-dashoffset: 0; } 100% { stroke-dashoffset: 904; }}
.path-1 { fill: none; stroke: #ef4444; stroke-width: 2; stroke-linecap: round; opacity: 0.85; animation: draw-1 8s ease-in-out 0.4s infinite; stroke-dasharray: 911; stroke-dashoffset: 911;}
@keyframes draw-1 { 0% { stroke-dashoffset: 911; } 38% { stroke-dashoffset: 0; } 62% { stroke-dashoffset: 0; } 100% { stroke-dashoffset: 911; }}
.path-2 { fill: none; stroke: #22c55e; stroke-width: 2; stroke-linecap: round; opacity: 0.85; animation: draw-2 8s ease-in-out 0.8s infinite; stroke-dasharray: 918; stroke-dashoffset: 918;}
@keyframes draw-2 { 0% { stroke-dashoffset: 918; } 38% { stroke-dashoffset: 0; } 62% { stroke-dashoffset: 0; } 100% { stroke-dashoffset: 918; }}
.path-3 { fill: none; stroke: #f59e0b; stroke-width: 2; stroke-linecap: round; opacity: 0.85; animation: draw-3 8s ease-in-out 1.2000000000000002s infinite; stroke-dasharray: 914; stroke-dashoffset: 914;}
@keyframes draw-3 { 0% { stroke-dashoffset: 914; } 38% { stroke-dashoffset: 0; } 62% { stroke-dashoffset: 0; } 100% { stroke-dashoffset: 914; }}
.path-4 { fill: none; stroke: #a855f7; stroke-width: 2; stroke-linecap: round; opacity: 0.85; animation: draw-4 8s ease-in-out 1.6s infinite; stroke-dasharray: 927; stroke-dashoffset: 927;}
@keyframes draw-4 { 0% { stroke-dashoffset: 927; } 38% { stroke-dashoffset: 0; } 62% { stroke-dashoffset: 0; } 100% { stroke-dashoffset: 927; }}
</style>
<rect width="800" height="300" rx="8" fill="#0d1117" />
<line x1="50" y1="260.0" x2="780" y2="260.0" class="grid-line" />
<text x="44" y="264.0" text-anchor="end" class="axis-text">-2.5</text>
<line x1="50" y1="216.0" x2="780" y2="216.0" class="grid-line" />
<text x="44" y="220.0" text-anchor="end" class="axis-text">-1.4</text>
<line x1="50" y1="172.0" x2="780" y2="172.0" class="grid-line" />
<text x="44" y="176.0" text-anchor="end" class="axis-text">-0.4</text>
<line x1="50" y1="128.0" x2="780" y2="128.0" class="grid-line" />
<text x="44" y="132.0" text-anchor="end" class="axis-text">0.7</text>
<line x1="50" y1="84.0" x2="780" y2="84.0" class="grid-line" />
<text x="44" y="88.0" text-anchor="end" class="axis-text">1.7</text>
<line x1="50" y1="40.0" x2="780" y2="40.0" class="grid-line" />
<text x="44" y="44.0" text-anchor="end" class="axis-text">2.8</text>
<line x1="50.0" y1="40" x2="50.0" y2="260" class="grid-line" />
<line x1="196.0" y1="40" x2="196.0" y2="260" class="grid-line" />
<line x1="342.0" y1="40" x2="342.0" y2="260" class="grid-line" />
<line x1="488.0" y1="40" x2="488.0" y2="260" class="grid-line" />
<line x1="634.0" y1="40" x2="634.0" y2="260" class="grid-line" />
<line x1="780.0" y1="40" x2="780.0" y2="260" class="grid-line" />
<line x1="50" y1="260" x2="780" y2="260" class="axis-line" />
<line x1="50" y1="40" x2="50" y2="260" class="axis-line" />
<text x="400.0" y="295" text-anchor="middle" class="axis-text">t</text>
<text x="12" y="150.0" text-anchor="middle" class="axis-text" transform="rotate(-90 12 150.0)">W(t)</text>
<text x="400.0" y="22" text-anchor="middle" class="title-text">Brownian Motion</text>
<path d="M 50.00 156.22 L 53.65 153.39 L 57.30 153.16 L 60.95 152.90 L 64.60 156.67 L 68.25 162.88 L 71.90 164.13 L 75.55 170.19 L 79.20 166.84 L 82.85 165.96 L 86.50 169.52 L 90.15 173.13 L 93.80 176.72 L 97.45 178.25 L 101.10 179.39 L 104.75 176.16 L 108.40 176.36 L 112.05 181.69 L 115.70 179.71 L 119.35 182.97 L 123.00 182.61 L 126.65 182.22 L 130.30 179.83 L 133.95 179.48 L 137.60 184.30 L 141.25 187.19 L 144.90 188.75 L 148.55 185.63 L 152.20 182.69 L 155.85 180.41 L 159.50 177.10 L 163.15 178.96 L 166.80 174.94 L 170.45 174.11 L 174.10 175.14 L 177.75 176.45 L 181.40 174.48 L 185.05 174.78 L 188.70 169.51 L 192.35 167.80 L 196.00 170.64 L 199.65 172.65 L 203.30 168.57 L 206.95 168.68 L 210.60 166.52 L 214.25 169.78 L 217.90 167.83 L 221.55 165.53 L 225.20 164.56 L 228.85 164.49 L 232.50 164.47 L 236.15 161.66 L 239.80 160.20 L 243.45 163.24 L 247.10 165.84 L 250.75 162.54 L 254.40 170.03 L 258.05 172.19 L 261.70 170.57 L 265.35 170.04 L 269.00 171.74 L 272.65 171.41 L 276.30 169.40 L 279.95 170.61 L 283.60 169.30 L 287.25 173.70 L 290.90 171.46 L 294.55 173.68 L 298.20 173.59 L 301.85 171.84 L 305.50 174.60 L 309.15 173.68 L 312.80 169.31 L 316.45 166.61 L 320.10 166.26 L 323.75 165.35 L 327.40 165.54 L 331.05 165.10 L 334.70 165.65 L 338.35 164.82 L 342.00 161.34 L 345.65 159.02 L 349.30 154.71 L 352.95 155.33 L 356.60 154.27 L 360.25 155.50 L 363.90 154.52 L 367.55 150.05 L 371.20 149.37 L 374.85 149.82 L 378.50 147.33 L 382.15 149.02 L 385.80 150.46 L 389.45 145.20 L 393.10 145.19 L 396.75 141.51 L 400.40 142.20 L 404.05 138.20 L 407.70 138.72 L 411.35 141.03 L 415.00 142.97 L 418.65 147.41 L 422.30 147.90 L 425.95 146.92 L 429.60 145.01 L 433.25 142.31 L 436.90 145.41 L 440.55 144.99 L 444.20 144.79 L 447.85 145.16 L 451.50 143.53 L 455.15 144.53 L 458.80 144.29 L 462.45 142.26 L 466.10 142.23 L 469.75 145.17 L 473.40 150.89 L 477.05 154.02 L 480.70 154.56 L 484.35 154.45 L 488.00 153.49 L 491.65 149.70 L 495.30 151.22 L 498.95 152.45 L 502.60 152.48 L 506.25 153.65 L 509.90 159.30 L 513.55 160.78 L 517.20 158.92 L 520.85 155.42 L 524.50 154.38 L 528.15 155.19 L 531.80 157.46 L 535.45 158.15 L 539.10 159.16 L 542.75 156.66 L 546.40 160.44 L 550.05 157.11 L 553.70 154.49 L 557.35 156.19 L 561.00 157.50 L 564.65 159.33 L 568.30 162.99 L 571.95 165.71 L 575.60 162.78 L 579.25 160.40 L 582.90 155.94 L 586.55 155.33 L 590.20 154.52 L 593.85 155.52 L 597.50 156.19 L 601.15 153.18 L 604.80 147.97 L 608.45 154.02 L 612.10 147.19 L 615.75 149.20 L 619.40 151.26 L 623.05 146.95 L 626.70 150.19 L 630.35 145.06 L 634.00 144.56 L 637.65 143.40 L 641.30 145.39 L 644.95 146.94 L 648.60 145.74 L 652.25 148.51 L 655.90 149.79 L 659.55 149.94 L 663.20 147.11 L 666.85 148.50 L 670.50 144.14 L 674.15 139.84 L 677.80 140.94 L 681.45 136.19 L 685.10 138.64 L 688.75 141.15 L 692.40 142.99 L 696.05 140.08 L 699.70 142.83 L 703.35 144.44 L 707.00 146.35 L 710.65 140.98 L 714.30 136.20 L 717.95 132.22 L 721.60 132.19 L 725.25 131.59 L 728.90 129.79 L 732.55 128.40 L 736.20 128.41 L 739.85 131.10 L 743.50 133.70 L 747.15 135.26 L 750.80 134.12 L 754.45 138.21 L 758.10 137.46 L 761.75 131.91 L 765.40 135.06 L 769.05 133.24 L 772.70 127.24 L 776.35 124.92 L 780.00 121.81" class="path-0" />
<path d="M 50.00 156.22 L 53.65 155.44 L 57.30 158.76 L 60.95 160.80 L 64.60 161.64 L 68.25 159.64 L 71.90 163.57 L 75.55 168.74 L 79.20 169.24 L 82.85 172.50 L 86.50 177.13 L 90.15 174.28 L 93.80 172.17 L 97.45 169.75 L 101.10 170.77 L 104.75 168.96 L 108.40 167.74 L 112.05 166.56 L 115.70 166.55 L 119.35 170.31 L 123.00 167.67 L 126.65 165.58 L 130.30 166.56 L 133.95 163.78 L 137.60 164.69 L 141.25 160.93 L 144.90 159.73 L 148.55 153.55 L 152.20 156.94 L 155.85 160.12 L 159.50 163.93 L 163.15 163.23 L 166.80 161.02 L 170.45 159.58 L 174.10 154.70 L 177.75 158.24 L 181.40 159.96 L 185.05 157.78 L 188.70 157.26 L 192.35 155.16 L 196.00 156.00 L 199.65 154.80 L 203.30 155.74 L 206.95 157.28 L 210.60 156.72 L 214.25 153.30 L 217.90 155.19 L 221.55 163.70 L 225.20 160.19 L 228.85 155.40 L 232.50 156.74 L 236.15 157.54 L 239.80 157.89 L 243.45 154.52 L 247.10 151.11 L 250.75 150.46 L 254.40 152.83 L 258.05 155.56 L 261.70 152.06 L 265.35 148.08 L 269.00 148.95 L 272.65 149.64 L 276.30 150.04 L 279.95 152.17 L 283.60 153.08 L 287.25 148.86 L 290.90 154.42 L 294.55 150.79 L 298.20 149.46 L 301.85 146.64 L 305.50 144.60 L 309.15 143.50 L 312.80 142.60 L 316.45 140.63 L 320.10 139.91 L 323.75 141.10 L 327.40 138.36 L 331.05 138.56 L 334.70 132.06 L 338.35 132.63 L 342.00 133.36 L 345.65 133.08 L 349.30 138.53 L 352.95 135.92 L 356.60 129.65 L 360.25 123.97 L 363.90 120.29 L 367.55 117.65 L 371.20 119.30 L 374.85 123.40 L 378.50 122.95 L 382.15 113.52 L 385.80 110.85 L 389.45 111.77 L 393.10 116.74 L 396.75 115.79 L 400.40 113.15 L 404.05 112.28 L 407.70 110.85 L 411.35 107.86 L 415.00 105.09 L 418.65 106.13 L 422.30 104.22 L 425.95 101.62 L 429.60 106.12 L 433.25 104.82 L 436.90 109.54 L 440.55 111.21 L 444.20 110.32 L 447.85 110.29 L 451.50 110.60 L 455.15 110.40 L 458.80 111.83 L 462.45 113.11 L 466.10 112.82 L 469.75 110.09 L 473.40 114.23 L 477.05 118.29 L 480.70 121.74 L 484.35 126.40 L 488.00 126.96 L 491.65 125.02 L 495.30 129.16 L 498.95 128.70 L 502.60 126.45 L 506.25 122.95 L 509.90 122.76 L 513.55 121.08 L 517.20 123.79 L 520.85 125.82 L 524.50 126.20 L 528.15 126.29 L 531.80 126.64 L 535.45 124.90 L 539.10 123.13 L 542.75 123.86 L 546.40 124.84 L 550.05 120.65 L 553.70 124.70 L 557.35 129.50 L 561.00 128.84 L 564.65 127.25 L 568.30 124.59 L 571.95 122.67 L 575.60 122.19 L 579.25 122.29 L 582.90 124.14 L 586.55 123.87 L 590.20 122.23 L 593.85 124.31 L 597.50 126.04 L 601.15 125.83 L 604.80 123.19 L 608.45 126.67 L 612.10 126.17 L 615.75 129.47 L 619.40 122.89 L 623.05 124.25 L 626.70 122.36 L 630.35 124.23 L 634.00 120.84 L 637.65 123.03 L 641.30 122.76 L 644.95 124.29 L 648.60 128.67 L 652.25 133.25 L 655.90 130.76 L 659.55 127.84 L 663.20 123.65 L 666.85 126.22 L 670.50 122.91 L 674.15 120.80 L 677.80 119.07 L 681.45 115.88 L 685.10 118.90 L 688.75 119.54 L 692.40 119.22 L 696.05 118.68 L 699.70 120.33 L 703.35 115.39 L 707.00 121.26 L 710.65 124.27 L 714.30 121.17 L 717.95 123.22 L 721.60 123.09 L 725.25 121.18 L 728.90 117.72 L 732.55 116.91 L 736.20 117.15 L 739.85 120.55 L 743.50 122.15 L 747.15 123.00 L 750.80 119.80 L 754.45 120.76 L 758.10 118.76 L 761.75 120.68 L 765.40 120.45 L 769.05 116.61 L 772.70 114.02 L 776.35 112.97 L 780.00 114.83" class="path-1" />
<path d="M 50.00 156.22 L 53.65 153.45 L 57.30 155.47 L 60.95 159.06 L 64.60 161.22 L 68.25 161.25 L 71.90 158.89 L 75.55 151.02 L 79.20 150.67 L 82.85 149.65 L 86.50 151.07 L 90.15 149.15 L 93.80 151.36 L 97.45 154.34 L 101.10 156.68 L 104.75 150.88 L 108.40 147.48 L 112.05 151.00 L 115.70 153.67 L 119.35 154.32 L 123.00 154.83 L 126.65 154.86 L 130.30 153.76 L 133.95 153.28 L 137.60 152.24 L 141.25 151.25 L 144.90 141.08 L 148.55 143.84 L 152.20 138.97 L 155.85 132.70 L 159.50 132.26 L 163.15 129.28 L 166.80 127.37 L 170.45 131.60 L 174.10 128.87 L 177.75 126.02 L 181.40 128.79 L 185.05 128.46 L 188.70 126.22 L 192.35 120.43 L 196.00 117.66 L 199.65 116.53 L 203.30 119.56 L 206.95 118.87 L 210.60 123.35 L 214.25 127.73 L 217.90 125.57 L 221.55 126.05 L 225.20 126.14 L 228.85 129.46 L 232.50 130.97 L 236.15 124.48 L 239.80 127.02 L 243.45 129.51 L 247.10 130.92 L 250.75 129.06 L 254.40 129.66 L 258.05 129.07 L 261.70 132.33 L 265.35 128.43 L 269.00 129.44 L 272.65 124.69 L 276.30 126.03 L 279.95 127.22 L 283.60 127.24 L 287.25 127.87 L 290.90 128.83 L 294.55 129.59 L 298.20 129.12 L 301.85 126.98 L 305.50 127.32 L 309.15 127.14 L 312.80 125.70 L 316.45 119.23 L 320.10 123.52 L 323.75 127.89 L 327.40 127.68 L 331.05 127.03 L 334.70 126.31 L 338.35 125.31 L 342.00 125.52 L 345.65 124.46 L 349.30 123.24 L 352.95 124.66 L 356.60 129.30 L 360.25 128.22 L 363.90 128.63 L 367.55 128.80 L 371.20 122.99 L 374.85 122.91 L 378.50 126.34 L 382.15 124.93 L 385.80 118.44 L 389.45 118.21 L 393.10 115.57 L 396.75 117.35 L 400.40 115.66 L 404.05 116.33 L 407.70 113.60 L 411.35 113.75 L 415.00 112.96 L 418.65 107.95 L 422.30 103.22 L 425.95 103.01 L 429.60 107.69 L 433.25 107.89 L 436.90 105.30 L 440.55 98.96 L 444.20 97.42 L 447.85 96.61 L 451.50 96.52 L 455.15 93.25 L 458.80 94.48 L 462.45 95.45 L 466.10 95.33 L 469.75 95.56 L 473.40 96.19 L 477.05 90.84 L 480.70 92.71 L 484.35 91.28 L 488.00 90.86 L 491.65 93.11 L 495.30 96.19 L 498.95 96.46 L 502.60 96.58 L 506.25 96.32 L 509.90 101.46 L 513.55 104.53 L 517.20 106.03 L 520.85 107.63 L 524.50 108.33 L 528.15 101.95 L 531.80 104.95 L 535.45 103.99 L 539.10 104.10 L 542.75 111.28 L 546.40 109.82 L 550.05 107.39 L 553.70 101.82 L 557.35 103.15 L 561.00 100.99 L 564.65 101.49 L 568.30 106.49 L 571.95 104.44 L 575.60 105.57 L 579.25 105.74 L 582.90 102.48 L 586.55 106.61 L 590.20 108.85 L 593.85 111.73 L 597.50 103.46 L 601.15 103.35 L 604.80 97.68 L 608.45 99.32 L 612.10 95.58 L 615.75 97.77 L 619.40 97.71 L 623.05 98.77 L 626.70 103.16 L 630.35 101.13 L 634.00 97.93 L 637.65 96.43 L 641.30 94.87 L 644.95 89.51 L 648.60 82.97 L 652.25 81.11 L 655.90 77.24 L 659.55 73.26 L 663.20 76.70 L 666.85 75.09 L 670.50 76.76 L 674.15 74.94 L 677.80 73.96 L 681.45 71.11 L 685.10 73.17 L 688.75 72.48 L 692.40 69.10 L 696.05 68.43 L 699.70 68.39 L 703.35 66.76 L 707.00 65.38 L 710.65 69.43 L 714.30 70.78 L 717.95 70.91 L 721.60 71.27 L 725.25 72.04 L 728.90 72.84 L 732.55 75.15 L 736.20 72.21 L 739.85 71.05 L 743.50 73.07 L 747.15 71.07 L 750.80 72.97 L 754.45 74.33 L 758.10 73.31 L 761.75 77.30 L 765.40 83.16 L 769.05 81.23 L 772.70 80.94 L 776.35 80.82 L 780.00 81.91" class="path-2" />
<path d="M 50.00 156.22 L 53.65 155.70 L 57.30 156.03 L 60.95 160.31 L 64.60 161.38 L 68.25 163.79 L 71.90 166.66 L 75.55 169.53 L 79.20 169.38 L 82.85 171.00 L 86.50 170.80 L 90.15 171.01 L 93.80 171.44 L 97.45 172.51 L 101.10 173.01 L 104.75 174.50 L 108.40 174.70 L 112.05 172.66 L 115.70 175.03 L 119.35 172.45 L 123.00 172.91 L 126.65 170.74 L 130.30 167.26 L 133.95 167.29 L 137.60 167.18 L 141.25 165.75 L 144.90 166.93 L 148.55 172.65 L 152.20 171.40 L 155.85 165.12 L 159.50 167.43 L 163.15 165.10 L 166.80 161.60 L 170.45 161.15 L 174.10 165.65 L 177.75 166.07 L 181.40 163.33 L 185.05 164.66 L 188.70 161.00 L 192.35 162.38 L 196.00 163.37 L 199.65 168.41 L 203.30 159.42 L 206.95 161.08 L 210.60 158.96 L 214.25 162.91 L 217.90 162.28 L 221.55 165.51 L 225.20 173.86 L 228.85 169.68 L 232.50 173.07 L 236.15 174.31 L 239.80 175.08 L 243.45 179.14 L 247.10 177.30 L 250.75 177.04 L 254.40 180.45 L 258.05 185.49 L 261.70 187.11 L 265.35 189.42 L 269.00 188.40 L 272.65 194.89 L 276.30 196.50 L 279.95 194.69 L 283.60 198.35 L 287.25 194.96 L 290.90 197.64 L 294.55 198.67 L 298.20 193.05 L 301.85 192.40 L 305.50 186.98 L 309.15 183.94 L 312.80 182.41 L 316.45 180.83 L 320.10 181.06 L 323.75 182.72 L 327.40 177.56 L 331.05 178.19 L 334.70 185.49 L 338.35 184.66 L 342.00 185.46 L 345.65 186.47 L 349.30 182.90 L 352.95 184.17 L 356.60 184.91 L 360.25 184.06 L 363.90 180.58 L 367.55 182.31 L 371.20 185.02 L 374.85 185.56 L 378.50 184.79 L 382.15 181.33 L 385.80 179.78 L 389.45 176.82 L 393.10 177.33 L 396.75 175.55 L 400.40 175.07 L 404.05 175.75 L 407.70 178.14 L 411.35 175.85 L 415.00 177.18 L 418.65 179.45 L 422.30 179.65 L 425.95 177.64 L 429.60 181.55 L 433.25 177.96 L 436.90 175.32 L 440.55 177.42 L 444.20 179.07 L 447.85 175.31 L 451.50 176.58 L 455.15 180.89 L 458.80 186.79 L 462.45 190.89 L 466.10 188.95 L 469.75 187.69 L 473.40 189.22 L 477.05 188.23 L 480.70 185.68 L 484.35 188.79 L 488.00 188.03 L 491.65 191.80 L 495.30 196.64 L 498.95 199.56 L 502.60 198.56 L 506.25 199.71 L 509.90 199.34 L 513.55 199.44 L 517.20 195.85 L 520.85 191.63 L 524.50 186.98 L 528.15 188.56 L 531.80 190.50 L 535.45 186.69 L 539.10 187.43 L 542.75 181.16 L 546.40 183.39 L 550.05 184.49 L 553.70 187.09 L 557.35 188.10 L 561.00 187.63 L 564.65 188.72 L 568.30 189.58 L 571.95 193.23 L 575.60 195.34 L 579.25 196.85 L 582.90 196.54 L 586.55 193.72 L 590.20 191.75 L 593.85 188.81 L 597.50 187.65 L 601.15 184.48 L 604.80 182.72 L 608.45 184.26 L 612.10 188.55 L 615.75 189.80 L 619.40 187.61 L 623.05 190.48 L 626.70 188.84 L 630.35 192.13 L 634.00 194.18 L 637.65 192.87 L 641.30 189.93 L 644.95 187.52 L 648.60 186.07 L 652.25 188.25 L 655.90 191.88 L 659.55 190.31 L 663.20 189.26 L 666.85 186.87 L 670.50 187.27 L 674.15 190.40 L 677.80 189.39 L 681.45 189.09 L 685.10 189.54 L 688.75 185.43 L 692.40 184.05 L 696.05 181.83 L 699.70 179.68 L 703.35 180.32 L 707.00 177.74 L 710.65 175.56 L 714.30 176.24 L 717.95 176.46 L 721.60 177.35 L 725.25 184.19 L 728.90 185.03 L 732.55 184.92 L 736.20 181.41 L 739.85 179.74 L 743.50 187.35 L 747.15 189.86 L 750.80 189.33 L 754.45 195.56 L 758.10 198.68 L 761.75 195.78 L 765.40 196.78 L 769.05 192.23 L 772.70 187.53 L 776.35 182.90 L 780.00 185.43" class="path-3" />
<path d="M 50.00 156.22 L 53.65 155.11 L 57.30 158.17 L 60.95 155.41 L 64.60 159.39 L 68.25 160.13 L 71.90 160.07 L 75.55 158.14 L 79.20 161.34 L 82.85 165.93 L 86.50 158.73 L 90.15 161.66 L 93.80 159.27 L 97.45 159.87 L 101.10 162.05 L 104.75 161.76 L 108.40 164.97 L 112.05 163.04 L 115.70 167.55 L 119.35 173.94 L 123.00 173.72 L 126.65 176.59 L 130.30 179.86 L 133.95 182.52 L 137.60 182.26 L 141.25 181.69 L 144.90 179.77 L 148.55 178.74 L 152.20 181.55 L 155.85 183.54 L 159.50 185.97 L 163.15 191.73 L 166.80 186.26 L 170.45 183.97 L 174.10 185.62 L 177.75 184.00 L 181.40 188.41 L 185.05 184.07 L 188.70 186.37 L 192.35 185.28 L 196.00 183.99 L 199.65 184.55 L 203.30 183.01 L 206.95 184.65 L 210.60 189.34 L 214.25 190.65 L 217.90 191.33 L 221.55 193.83 L 225.20 194.49 L 228.85 194.54 L 232.50 192.45 L 236.15 186.57 L 239.80 188.82 L 243.45 192.65 L 247.10 196.03 L 250.75 200.09 L 254.40 204.91 L 258.05 205.06 L 261.70 204.11 L 265.35 200.25 L 269.00 199.22 L 272.65 203.50 L 276.30 206.43 L 279.95 203.60 L 283.60 200.79 L 287.25 196.29 L 290.90 197.15 L 294.55 200.24 L 298.20 202.79 L 301.85 204.99 L 305.50 201.42 L 309.15 200.99 L 312.80 201.17 L 316.45 199.16 L 320.10 202.42 L 323.75 204.21 L 327.40 207.67 L 331.05 208.62 L 334.70 207.57 L 338.35 202.45 L 342.00 201.69 L 345.65 203.47 L 349.30 204.62 L 352.95 201.71 L 356.60 201.82 L 360.25 197.98 L 363.90 201.19 L 367.55 199.65 L 371.20 200.71 L 374.85 200.65 L 378.50 199.64 L 382.15 201.11 L 385.80 199.89 L 389.45 199.57 L 393.10 198.19 L 396.75 195.68 L 400.40 196.45 L 404.05 201.05 L 407.70 197.11 L 411.35 197.82 L 415.00 196.66 L 418.65 197.12 L 422.30 200.40 L 425.95 203.24 L 429.60 205.55 L 433.25 204.84 L 436.90 206.75 L 440.55 202.41 L 444.20 204.18 L 447.85 208.99 L 451.50 212.75 L 455.15 207.46 L 458.80 208.84 L 462.45 205.93 L 466.10 206.20 L 469.75 209.82 L 473.40 210.66 L 477.05 212.51 L 480.70 213.67 L 484.35 219.56 L 488.00 217.85 L 491.65 218.34 L 495.30 222.77 L 498.95 226.15 L 502.60 225.29 L 506.25 224.28 L 509.90 221.73 L 513.55 219.35 L 517.20 219.03 L 520.85 215.56 L 524.50 217.71 L 528.15 222.86 L 531.80 220.70 L 535.45 225.73 L 539.10 224.76 L 542.75 225.58 L 546.40 226.63 L 550.05 228.47 L 553.70 231.57 L 557.35 231.47 L 561.00 234.62 L 564.65 230.81 L 568.30 228.18 L 571.95 223.14 L 575.60 222.75 L 579.25 218.07 L 582.90 209.28 L 586.55 210.90 L 590.20 210.19 L 593.85 210.71 L 597.50 210.76 L 601.15 208.12 L 604.80 203.73 L 608.45 200.53 L 612.10 201.54 L 615.75 196.12 L 619.40 195.13 L 623.05 197.31 L 626.70 201.00 L 630.35 199.97 L 634.00 202.98 L 637.65 202.57 L 641.30 203.83 L 644.95 203.25 L 648.60 205.42 L 652.25 204.34 L 655.90 202.31 L 659.55 206.88 L 663.20 208.95 L 666.85 205.32 L 670.50 199.95 L 674.15 198.18 L 677.80 198.26 L 681.45 197.10 L 685.10 199.23 L 688.75 200.52 L 692.40 199.75 L 696.05 196.27 L 699.70 198.84 L 703.35 204.35 L 707.00 199.33 L 710.65 203.81 L 714.30 206.14 L 717.95 207.98 L 721.60 205.87 L 725.25 207.20 L 728.90 202.25 L 732.55 199.71 L 736.20 200.79 L 739.85 195.91 L 743.50 196.65 L 747.15 197.18 L 750.80 201.40 L 754.45 199.08 L 758.10 206.86 L 761.75 207.31 L 765.40 201.82 L 769.05 202.97 L 772.70 201.24 L 776.35 199.19 L 780.00 200.75" class="path-4" />
<line x1="50" y1="156.2" x2="780" y2="156.2" stroke="#4b5563" stroke-width="0.8" stroke-dasharray="6 3" />
</svg>