<svg xmlns="http://www.w3.org/2000/svg" viewBox="0 0 800 300" width="800" height="300">
<style>
.axis-line { stroke: #6b7280; stroke-width: 0.5; }
.axis-text { font-family: monospace; font-size: 11px; fill: #9ca3af; }
.title-text { font-family: monospace; font-size: 14px; fill: #d1d5db; font-weight: bold; }
.grid-line { stroke: #374151; stroke-width: 0.3; stroke-dasharray: 4 2; }
.path-0 { fill: none; stroke: #3b82f6; stroke-width: 2; stroke-linecap: round; opacity: 0.85; animation: draw-0 8s ease-in-out 0.0s infinite; stroke-dasharray: 1224; stroke-dashoffset: 1224;}
@keyframes draw-0 { 0% { stroke-dashoffset: 1224; } 38% { stroke-dashoffset: 0; } 62% { stroke-dashoffset: 0; } 100% { stroke-dashoffset: 1224; }}
.path-1 { fill: none; stroke: #ef4444; stroke-width: 2; stroke-linecap: round; opacity: 0.85; animation: draw-1 8s ease-in-out 0.4s infinite; stroke-dasharray: 1244; stroke-dashoffset: 1244;}
@keyframes draw-1 { 0% { stroke-dashoffset: 1244; } 38% { stroke-dashoffset: 0; } 62% { stroke-dashoffset: 0; } 100% { stroke-dashoffset: 1244; }}
.path-2 { fill: none; stroke: #22c55e; stroke-width: 2; stroke-linecap: round; opacity: 0.85; animation: draw-2 8s ease-in-out 0.8s infinite; stroke-dasharray: 1262; stroke-dashoffset: 1262;}
@keyframes draw-2 { 0% { stroke-dashoffset: 1262; } 38% { stroke-dashoffset: 0; } 62% { stroke-dashoffset: 0; } 100% { stroke-dashoffset: 1262; }}
.path-3 { fill: none; stroke: #f59e0b; stroke-width: 2; stroke-linecap: round; opacity: 0.85; animation: draw-3 8s ease-in-out 1.2000000000000002s infinite; stroke-dasharray: 1243; stroke-dashoffset: 1243;}
@keyframes draw-3 { 0% { stroke-dashoffset: 1243; } 38% { stroke-dashoffset: 0; } 62% { stroke-dashoffset: 0; } 100% { stroke-dashoffset: 1243; }}
.path-4 { fill: none; stroke: #a855f7; stroke-width: 2; stroke-linecap: round; opacity: 0.85; animation: draw-4 8s ease-in-out 1.6s infinite; stroke-dasharray: 1174; stroke-dashoffset: 1174;}
@keyframes draw-4 { 0% { stroke-dashoffset: 1174; } 38% { stroke-dashoffset: 0; } 62% { stroke-dashoffset: 0; } 100% { stroke-dashoffset: 1174; }}
</style>
<rect width="800" height="300" rx="8" fill="#0d1117" />
<line x1="50" y1="260.0" x2="780" y2="260.0" class="grid-line" />
<text x="44" y="264.0" text-anchor="end" class="axis-text">-1.1</text>
<line x1="50" y1="216.0" x2="780" y2="216.0" class="grid-line" />
<text x="44" y="220.0" text-anchor="end" class="axis-text">-0.6</text>
<line x1="50" y1="172.0" x2="780" y2="172.0" class="grid-line" />
<text x="44" y="176.0" text-anchor="end" class="axis-text">-0.0</text>
<line x1="50" y1="128.0" x2="780" y2="128.0" class="grid-line" />
<text x="44" y="132.0" text-anchor="end" class="axis-text">0.5</text>
<line x1="50" y1="84.0" x2="780" y2="84.0" class="grid-line" />
<text x="44" y="88.0" text-anchor="end" class="axis-text">1.0</text>
<line x1="50" y1="40.0" x2="780" y2="40.0" class="grid-line" />
<text x="44" y="44.0" text-anchor="end" class="axis-text">1.6</text>
<line x1="50.0" y1="40" x2="50.0" y2="260" class="grid-line" />
<line x1="196.0" y1="40" x2="196.0" y2="260" class="grid-line" />
<line x1="342.0" y1="40" x2="342.0" y2="260" class="grid-line" />
<line x1="488.0" y1="40" x2="488.0" y2="260" class="grid-line" />
<line x1="634.0" y1="40" x2="634.0" y2="260" class="grid-line" />
<line x1="780.0" y1="40" x2="780.0" y2="260" class="grid-line" />
<line x1="50" y1="260" x2="780" y2="260" class="axis-line" />
<line x1="50" y1="40" x2="50" y2="260" class="axis-line" />
<text x="400.0" y="295" text-anchor="middle" class="axis-text">t</text>
<text x="12" y="150.0" text-anchor="middle" class="axis-text" transform="rotate(-90 12 150.0)">W(t)</text>
<text x="400.0" y="22" text-anchor="middle" class="title-text">Brownian Motion</text>
<path d="M 50.00 168.59 L 53.65 171.43 L 57.30 171.83 L 60.95 171.95 L 64.60 164.22 L 68.25 168.15 L 71.90 172.12 L 75.55 181.48 L 79.20 192.60 L 82.85 194.32 L 86.50 193.75 L 90.15 187.71 L 93.80 192.09 L 97.45 192.94 L 101.10 193.47 L 104.75 198.02 L 108.40 206.63 L 112.05 211.17 L 115.70 213.23 L 119.35 209.94 L 123.00 210.42 L 126.65 203.39 L 130.30 203.69 L 133.95 201.20 L 137.60 196.15 L 141.25 189.61 L 144.90 189.62 L 148.55 189.10 L 152.20 180.49 L 155.85 179.36 L 159.50 170.14 L 163.15 178.97 L 166.80 186.37 L 170.45 186.04 L 174.10 189.71 L 177.75 198.27 L 181.40 202.59 L 185.05 209.93 L 188.70 215.22 L 192.35 225.02 L 196.00 219.92 L 199.65 227.65 L 203.30 228.85 L 206.95 221.30 L 210.60 214.09 L 214.25 213.14 L 217.90 211.50 L 221.55 204.60 L 225.20 215.87 L 228.85 217.10 L 232.50 216.49 L 236.15 219.16 L 239.80 211.29 L 243.45 213.44 L 247.10 202.68 L 250.75 203.50 L 254.40 202.52 L 258.05 206.03 L 261.70 204.45 L 265.35 202.61 L 269.00 202.55 L 272.65 208.69 L 276.30 199.46 L 279.95 192.21 L 283.60 187.69 L 287.25 189.33 L 290.90 188.66 L 294.55 194.83 L 298.20 202.82 L 301.85 200.80 L 305.50 200.78 L 309.15 208.79 L 312.80 211.56 L 316.45 209.57 L 320.10 214.11 L 323.75 210.31 L 327.40 215.57 L 331.05 213.95 L 334.70 209.75 L 338.35 216.98 L 342.00 219.75 L 345.65 217.33 L 349.30 222.77 L 352.95 219.80 L 356.60 214.79 L 360.25 209.28 L 363.90 213.55 L 367.55 215.00 L 371.20 213.71 L 374.85 217.02 L 378.50 217.91 L 382.15 224.33 L 385.80 231.17 L 389.45 230.37 L 393.10 230.19 L 396.75 234.62 L 400.40 224.13 L 404.05 230.66 L 407.70 226.82 L 411.35 222.19 L 415.00 222.75 L 418.65 220.70 L 422.30 224.06 L 425.95 226.80 L 429.60 228.24 L 433.25 223.74 L 436.90 218.01 L 440.55 203.85 L 444.20 212.04 L 447.85 210.60 L 451.50 209.29 L 455.15 210.16 L 458.80 204.30 L 462.45 200.50 L 466.10 209.59 L 469.75 209.39 L 473.40 205.52 L 477.05 208.23 L 480.70 199.65 L 484.35 198.88 L 488.00 204.79 L 491.65 204.19 L 495.30 204.16 L 498.95 206.96 L 502.60 197.54 L 506.25 193.04 L 509.90 200.51 L 513.55 189.20 L 517.20 184.66 L 520.85 187.22 L 524.50 191.25 L 528.15 200.21 L 531.80 196.01 L 535.45 205.55 L 539.10 207.01 L 542.75 211.55 L 546.40 213.03 L 550.05 211.78 L 553.70 207.44 L 557.35 203.72 L 561.00 206.97 L 564.65 203.91 L 568.30 195.51 L 571.95 192.23 L 575.60 196.40 L 579.25 205.55 L 582.90 195.12 L 586.55 195.84 L 590.20 200.44 L 593.85 204.27 L 597.50 195.71 L 601.15 191.72 L 604.80 186.43 L 608.45 181.49 L 612.10 187.50 L 615.75 184.16 L 619.40 175.22 L 623.05 171.45 L 626.70 175.85 L 630.35 171.22 L 634.00 168.24 L 637.65 167.09 L 641.30 174.67 L 644.95 175.68 L 648.60 165.20 L 652.25 168.08 L 655.90 172.09 L 659.55 171.52 L 663.20 175.13 L 666.85 184.34 L 670.50 176.64 L 674.15 181.38 L 677.80 191.88 L 681.45 194.15 L 685.10 198.20 L 688.75 208.59 L 692.40 206.74 L 696.05 199.08 L 699.70 192.98 L 703.35 195.61 L 707.00 201.81 L 710.65 201.16 L 714.30 198.85 L 717.95 201.17 L 721.60 207.99 L 725.25 203.04 L 728.90 204.06 L 732.55 203.52 L 736.20 200.43 L 739.85 196.44 L 743.50 187.95 L 747.15 192.50 L 750.80 190.29 L 754.45 192.69 L 758.10 180.74 L 761.75 177.14 L 765.40 182.14 L 769.05 178.87 L 772.70 183.02 L 776.35 182.77 L 780.00 180.08" class="path-0" />
<path d="M 50.00 168.59 L 53.65 180.76 L 57.30 184.89 L 60.95 191.87 L 64.60 182.98 L 68.25 173.84 L 71.90 177.97 L 75.55 177.22 L 79.20 179.56 L 82.85 176.79 L 86.50 173.35 L 90.15 163.59 L 93.80 154.62 L 97.45 164.24 L 101.10 174.45 L 104.75 179.67 L 108.40 175.65 L 112.05 174.48 L 115.70 176.48 L 119.35 167.77 L 123.00 168.97 L 126.65 170.09 L 130.30 161.39 L 133.95 160.06 L 137.60 158.62 L 141.25 165.86 L 144.90 164.00 L 148.55 169.20 L 152.20 160.94 L 155.85 164.59 L 159.50 165.00 L 163.15 163.63 L 166.80 167.40 L 170.45 168.31 L 174.10 169.78 L 177.75 177.33 L 181.40 172.23 L 185.05 174.14 L 188.70 175.72 L 192.35 175.16 L 196.00 174.32 L 199.65 168.91 L 203.30 179.76 L 206.95 176.56 L 210.60 173.76 L 214.25 174.15 L 217.90 173.51 L 221.55 178.36 L 225.20 180.35 L 228.85 179.81 L 232.50 174.99 L 236.15 173.92 L 239.80 165.10 L 243.45 166.16 L 247.10 177.02 L 250.75 176.47 L 254.40 171.86 L 258.05 180.04 L 261.70 178.16 L 265.35 176.37 L 269.00 169.86 L 272.65 174.09 L 276.30 177.02 L 279.95 182.15 L 283.60 190.86 L 287.25 196.51 L 290.90 205.19 L 294.55 205.32 L 298.20 212.29 L 301.85 205.58 L 305.50 207.13 L 309.15 210.25 L 312.80 208.93 L 316.45 202.04 L 320.10 202.85 L 323.75 203.24 L 327.40 197.74 L 331.05 190.40 L 334.70 188.48 L 338.35 186.44 L 342.00 184.60 L 345.65 185.09 L 349.30 183.41 L 352.95 183.12 L 356.60 181.76 L 360.25 190.69 L 363.90 186.73 L 367.55 179.97 L 371.20 176.82 L 374.85 179.42 L 378.50 176.69 L 382.15 176.64 L 385.80 167.58 L 389.45 163.53 L 393.10 167.27 L 396.75 176.46 L 400.40 174.02 L 404.05 171.73 L 407.70 176.69 L 411.35 181.03 L 415.00 168.19 L 418.65 174.08 L 422.30 175.48 L 425.95 168.51 L 429.60 173.38 L 433.25 172.59 L 436.90 165.22 L 440.55 163.29 L 444.20 153.79 L 447.85 153.89 L 451.50 149.23 L 455.15 150.14 L 458.80 149.03 L 462.45 150.44 L 466.10 156.42 L 469.75 147.26 L 473.40 150.71 L 477.05 150.90 L 480.70 157.70 L 484.35 153.23 L 488.00 149.63 L 491.65 150.20 L 495.30 147.70 L 498.95 136.79 L 502.60 134.49 L 506.25 143.67 L 509.90 150.48 L 513.55 156.34 L 517.20 151.14 L 520.85 148.21 L 524.50 151.26 L 528.15 146.64 L 531.80 150.70 L 535.45 149.94 L 539.10 156.39 L 542.75 133.16 L 546.40 129.81 L 550.05 129.79 L 553.70 126.78 L 557.35 127.91 L 561.00 140.91 L 564.65 135.23 L 568.30 134.22 L 571.95 130.32 L 575.60 132.11 L 579.25 133.46 L 582.90 128.69 L 586.55 139.86 L 590.20 136.37 L 593.85 124.45 L 597.50 120.02 L 601.15 127.67 L 604.80 127.65 L 608.45 134.47 L 612.10 135.79 L 615.75 139.58 L 619.40 135.36 L 623.05 133.86 L 626.70 137.34 L 630.35 135.63 L 634.00 129.76 L 637.65 124.37 L 641.30 128.88 L 644.95 129.91 L 648.60 123.33 L 652.25 128.17 L 655.90 126.35 L 659.55 121.23 L 663.20 112.98 L 666.85 110.03 L 670.50 107.50 L 674.15 90.82 L 677.80 87.28 L 681.45 96.84 L 685.10 98.24 L 688.75 118.15 L 692.40 117.30 L 696.05 112.16 L 699.70 109.19 L 703.35 113.16 L 707.00 106.84 L 710.65 93.06 L 714.30 87.38 L 717.95 82.70 L 721.60 80.55 L 725.25 83.56 L 728.90 88.83 L 732.55 87.79 L 736.20 89.29 L 739.85 88.52 L 743.50 82.97 L 747.15 81.11 L 750.80 77.29 L 754.45 70.52 L 758.10 70.99 L 761.75 65.38 L 765.40 69.95 L 769.05 71.08 L 772.70 73.44 L 776.35 81.89 L 780.00 81.98" class="path-1" />
<path d="M 50.00 168.59 L 53.65 172.92 L 57.30 177.05 L 60.95 172.37 L 64.60 181.77 L 68.25 173.77 L 71.90 175.71 L 75.55 176.29 L 79.20 180.99 L 82.85 182.47 L 86.50 183.18 L 90.15 182.80 L 93.80 180.44 L 97.45 171.12 L 101.10 161.04 L 104.75 164.00 L 108.40 168.62 L 112.05 167.77 L 115.70 169.79 L 119.35 166.01 L 123.00 166.12 L 126.65 160.17 L 130.30 170.92 L 133.95 158.90 L 137.60 157.16 L 141.25 144.63 L 144.90 144.38 L 148.55 147.52 L 152.20 141.90 L 155.85 141.74 L 159.50 142.12 L 163.15 137.71 L 166.80 139.71 L 170.45 139.48 L 174.10 140.25 L 177.75 142.64 L 181.40 140.81 L 185.05 137.29 L 188.70 137.48 L 192.35 141.28 L 196.00 132.35 L 199.65 135.09 L 203.30 139.57 L 206.95 135.84 L 210.60 145.96 L 214.25 136.54 L 217.90 131.12 L 221.55 141.91 L 225.20 144.95 L 228.85 149.60 L 232.50 147.59 L 236.15 150.17 L 239.80 155.11 L 243.45 162.00 L 247.10 161.67 L 250.75 162.44 L 254.40 166.34 L 258.05 165.73 L 261.70 180.14 L 265.35 180.34 L 269.00 184.97 L 272.65 194.16 L 276.30 190.18 L 279.95 188.45 L 283.60 193.13 L 287.25 194.47 L 290.90 179.51 L 294.55 186.19 L 298.20 190.07 L 301.85 198.42 L 305.50 192.55 L 309.15 193.49 L 312.80 194.88 L 316.45 209.00 L 320.10 209.38 L 323.75 204.73 L 327.40 210.80 L 331.05 203.62 L 334.70 204.19 L 338.35 210.10 L 342.00 214.42 L 345.65 212.64 L 349.30 213.56 L 352.95 202.55 L 356.60 201.65 L 360.25 204.43 L 363.90 202.42 L 367.55 202.17 L 371.20 216.64 L 374.85 207.69 L 378.50 206.85 L 382.15 211.40 L 385.80 204.77 L 389.45 206.73 L 393.10 201.42 L 396.75 195.64 L 400.40 190.51 L 404.05 192.25 L 407.70 191.44 L 411.35 178.31 L 415.00 181.39 L 418.65 186.16 L 422.30 185.58 L 425.95 187.76 L 429.60 184.37 L 433.25 180.20 L 436.90 185.99 L 440.55 181.67 L 444.20 177.37 L 447.85 174.29 L 451.50 178.27 L 455.15 173.56 L 458.80 173.84 L 462.45 175.48 L 466.10 171.30 L 469.75 180.78 L 473.40 180.21 L 477.05 190.25 L 480.70 190.78 L 484.35 186.26 L 488.00 187.01 L 491.65 186.30 L 495.30 187.45 L 498.95 187.57 L 502.60 182.30 L 506.25 174.38 L 509.90 187.67 L 513.55 186.40 L 517.20 186.39 L 520.85 176.67 L 524.50 175.95 L 528.15 176.49 L 531.80 184.45 L 535.45 184.02 L 539.10 191.43 L 542.75 186.78 L 546.40 185.51 L 550.05 189.27 L 553.70 197.65 L 557.35 197.93 L 561.00 206.87 L 564.65 211.35 L 568.30 202.08 L 571.95 201.40 L 575.60 195.77 L 579.25 194.41 L 582.90 185.49 L 586.55 168.11 L 590.20 177.64 L 593.85 179.97 L 597.50 187.98 L 601.15 192.59 L 604.80 181.99 L 608.45 185.36 L 612.10 192.39 L 615.75 194.39 L 619.40 201.43 L 623.05 206.07 L 626.70 195.64 L 630.35 192.17 L 634.00 196.70 L 637.65 196.14 L 641.30 193.33 L 644.95 195.69 L 648.60 199.92 L 652.25 202.25 L 655.90 199.88 L 659.55 197.22 L 663.20 186.67 L 666.85 181.24 L 670.50 187.66 L 674.15 182.99 L 677.80 185.64 L 681.45 183.04 L 685.10 186.42 L 688.75 178.59 L 692.40 182.72 L 696.05 188.11 L 699.70 187.48 L 703.35 190.45 L 707.00 191.72 L 710.65 184.24 L 714.30 180.56 L 717.95 181.57 L 721.60 177.67 L 725.25 187.81 L 728.90 180.88 L 732.55 176.22 L 736.20 178.89 L 739.85 179.28 L 743.50 173.51 L 747.15 167.15 L 750.80 174.84 L 754.45 167.12 L 758.10 166.50 L 761.75 166.33 L 765.40 171.49 L 769.05 152.12 L 772.70 156.43 L 776.35 156.77 L 780.00 155.32" class="path-2" />
<path d="M 50.00 168.59 L 53.65 158.47 L 57.30 156.03 L 60.95 158.03 L 64.60 153.64 L 68.25 151.94 L 71.90 141.88 L 75.55 145.77 L 79.20 150.85 L 82.85 148.72 L 86.50 147.67 L 90.15 142.69 L 93.80 140.46 L 97.45 143.09 L 101.10 129.27 L 104.75 129.19 L 108.40 128.40 L 112.05 123.91 L 115.70 126.51 L 119.35 118.37 L 123.00 113.88 L 126.65 112.98 L 130.30 112.92 L 133.95 109.85 L 137.60 103.99 L 141.25 104.65 L 144.90 104.29 L 148.55 101.83 L 152.20 107.60 L 155.85 104.46 L 159.50 105.07 L 163.15 106.27 L 166.80 100.77 L 170.45 100.26 L 174.10 106.82 L 177.75 112.61 L 181.40 112.82 L 185.05 112.00 L 188.70 114.68 L 192.35 115.16 L 196.00 114.58 L 199.65 115.27 L 203.30 102.77 L 206.95 105.28 L 210.60 106.89 L 214.25 108.88 L 217.90 101.79 L 221.55 91.07 L 225.20 89.96 L 228.85 93.72 L 232.50 90.74 L 236.15 104.55 L 239.80 101.10 L 243.45 102.35 L 247.10 96.75 L 250.75 113.01 L 254.40 111.50 L 258.05 119.16 L 261.70 127.08 L 265.35 120.35 L 269.00 114.16 L 272.65 107.21 L 276.30 112.65 L 279.95 102.83 L 283.60 114.65 L 287.25 100.79 L 290.90 108.14 L 294.55 111.21 L 298.20 111.74 L 301.85 111.66 L 305.50 108.82 L 309.15 109.18 L 312.80 109.69 L 316.45 102.65 L 320.10 101.50 L 323.75 104.22 L 327.40 101.54 L 331.05 110.80 L 334.70 111.34 L 338.35 111.19 L 342.00 97.52 L 345.65 91.31 L 349.30 94.16 L 352.95 97.87 L 356.60 101.08 L 360.25 98.31 L 363.90 102.77 L 367.55 90.37 L 371.20 98.09 L 374.85 93.60 L 378.50 90.70 L 382.15 91.05 L 385.80 89.88 L 389.45 87.13 L 393.10 91.51 L 396.75 94.70 L 400.40 100.14 L 404.05 106.77 L 407.70 100.99 L 411.35 109.65 L 415.00 114.65 L 418.65 106.52 L 422.30 110.20 L 425.95 109.98 L 429.60 119.24 L 433.25 121.62 L 436.90 111.94 L 440.55 104.21 L 444.20 103.46 L 447.85 95.02 L 451.50 100.33 L 455.15 102.83 L 458.80 96.38 L 462.45 86.54 L 466.10 75.11 L 469.75 69.23 L 473.40 66.66 L 477.05 79.83 L 480.70 75.33 L 484.35 79.20 L 488.00 75.51 L 491.65 79.42 L 495.30 83.86 L 498.95 78.22 L 502.60 81.42 L 506.25 82.97 L 509.90 81.82 L 513.55 78.97 L 517.20 81.75 L 520.85 73.97 L 524.50 71.48 L 528.15 67.14 L 531.80 78.85 L 535.45 78.38 L 539.10 68.32 L 542.75 70.18 L 546.40 80.88 L 550.05 83.89 L 553.70 86.85 L 557.35 97.45 L 561.00 93.91 L 564.65 92.92 L 568.30 95.68 L 571.95 93.53 L 575.60 95.63 L 579.25 100.57 L 582.90 98.42 L 586.55 103.43 L 590.20 109.53 L 593.85 108.12 L 597.50 105.80 L 601.15 100.72 L 604.80 99.82 L 608.45 99.96 L 612.10 107.28 L 615.75 106.84 L 619.40 99.78 L 623.05 103.38 L 626.70 103.56 L 630.35 95.36 L 634.00 108.80 L 637.65 112.77 L 641.30 117.67 L 644.95 117.52 L 648.60 111.10 L 652.25 109.16 L 655.90 104.85 L 659.55 101.32 L 663.20 99.09 L 666.85 112.30 L 670.50 108.25 L 674.15 99.92 L 677.80 97.03 L 681.45 99.68 L 685.10 95.06 L 688.75 92.61 L 692.40 96.50 L 696.05 96.98 L 699.70 99.38 L 703.35 109.08 L 707.00 110.29 L 710.65 107.83 L 714.30 100.47 L 717.95 92.27 L 721.60 97.64 L 725.25 91.95 L 728.90 94.34 L 732.55 93.59 L 736.20 93.80 L 739.85 89.13 L 743.50 91.04 L 747.15 97.68 L 750.80 98.21 L 754.45 100.99 L 758.10 107.12 L 761.75 108.22 L 765.40 118.27 L 769.05 118.74 L 772.70 118.73 L 776.35 123.57 L 780.00 124.37" class="path-3" />
<path d="M 50.00 168.59 L 53.65 172.80 L 57.30 176.34 L 60.95 177.85 L 64.60 176.25 L 68.25 181.42 L 71.90 178.75 L 75.55 175.01 L 79.20 177.92 L 82.85 179.09 L 86.50 182.68 L 90.15 181.38 L 93.80 179.24 L 97.45 182.29 L 101.10 185.53 L 104.75 192.12 L 108.40 190.74 L 112.05 183.71 L 115.70 176.47 L 119.35 170.24 L 123.00 163.99 L 126.65 169.30 L 130.30 166.54 L 133.95 174.45 L 137.60 167.44 L 141.25 167.55 L 144.90 167.78 L 148.55 167.53 L 152.20 176.99 L 155.85 177.95 L 159.50 178.50 L 163.15 178.39 L 166.80 175.62 L 170.45 181.65 L 174.10 178.10 L 177.75 173.74 L 181.40 178.13 L 185.05 184.10 L 188.70 179.66 L 192.35 175.36 L 196.00 178.40 L 199.65 177.90 L 203.30 180.24 L 206.95 172.96 L 210.60 169.45 L 214.25 171.15 L 217.90 171.94 L 221.55 178.54 L 225.20 176.97 L 228.85 187.43 L 232.50 179.60 L 236.15 177.37 L 239.80 174.16 L 243.45 171.76 L 247.10 170.50 L 250.75 172.76 L 254.40 175.37 L 258.05 175.01 L 261.70 176.22 L 265.35 180.15 L 269.00 170.39 L 272.65 181.08 L 276.30 175.49 L 279.95 174.77 L 283.60 172.90 L 287.25 165.80 L 290.90 162.36 L 294.55 159.68 L 298.20 156.29 L 301.85 155.33 L 305.50 153.83 L 309.15 140.48 L 312.80 143.45 L 316.45 137.56 L 320.10 132.04 L 323.75 128.21 L 327.40 134.72 L 331.05 131.39 L 334.70 135.29 L 338.35 129.24 L 342.00 129.02 L 345.65 123.30 L 349.30 124.49 L 352.95 131.12 L 356.60 134.66 L 360.25 127.58 L 363.90 125.79 L 367.55 125.24 L 371.20 132.05 L 374.85 137.98 L 378.50 136.70 L 382.15 129.97 L 385.80 133.91 L 389.45 141.08 L 393.10 141.26 L 396.75 132.09 L 400.40 132.02 L 404.05 135.39 L 407.70 142.57 L 411.35 138.50 L 415.00 141.11 L 418.65 142.57 L 422.30 144.80 L 425.95 142.06 L 429.60 141.11 L 433.25 143.78 L 436.90 141.89 L 440.55 147.02 L 444.20 150.27 L 447.85 144.76 L 451.50 136.24 L 455.15 139.71 L 458.80 138.70 L 462.45 136.51 L 466.10 138.61 L 469.75 140.77 L 473.40 131.98 L 477.05 129.03 L 480.70 132.14 L 484.35 125.02 L 488.00 126.85 L 491.65 119.67 L 495.30 117.54 L 498.95 121.14 L 502.60 132.85 L 506.25 133.42 L 509.90 137.59 L 513.55 142.13 L 517.20 144.77 L 520.85 144.82 L 524.50 142.04 L 528.15 130.60 L 531.80 121.77 L 535.45 124.73 L 539.10 127.07 L 542.75 124.96 L 546.40 126.77 L 550.05 129.44 L 553.70 131.87 L 557.35 123.49 L 561.00 125.40 L 564.65 116.05 L 568.30 111.51 L 571.95 110.23 L 575.60 113.80 L 579.25 113.10 L 582.90 113.62 L 586.55 120.57 L 590.20 117.77 L 593.85 124.63 L 597.50 125.93 L 601.15 126.55 L 604.80 126.34 L 608.45 125.95 L 612.10 133.53 L 615.75 137.33 L 619.40 145.61 L 623.05 149.38 L 626.70 155.06 L 630.35 149.85 L 634.00 149.46 L 637.65 149.27 L 641.30 138.08 L 644.95 135.91 L 648.60 134.35 L 652.25 128.75 L 655.90 137.56 L 659.55 125.05 L 663.20 121.51 L 666.85 124.01 L 670.50 122.59 L 674.15 121.86 L 677.80 114.95 L 681.45 113.67 L 685.10 118.95 L 688.75 111.87 L 692.40 106.04 L 696.05 104.03 L 699.70 107.01 L 703.35 107.61 L 707.00 106.90 L 710.65 110.70 L 714.30 104.47 L 717.95 109.20 L 721.60 117.94 L 725.25 115.65 L 728.90 104.72 L 732.55 101.79 L 736.20 102.50 L 739.85 94.02 L 743.50 92.38 L 747.15 84.95 L 750.80 74.15 L 754.45 75.31 L 758.10 86.53 L 761.75 83.28 L 765.40 88.49 L 769.05 78.79 L 772.70 75.16 L 776.35 82.56 L 780.00 79.65" class="path-4" />
<line x1="50" y1="168.6" x2="780" y2="168.6" stroke="#4b5563" stroke-width="0.8" stroke-dasharray="6 3" />
</svg>