<svg xmlns="http://www.w3.org/2000/svg" viewBox="0 0 800 300" width="800" height="300">
<style>
.axis-line { stroke: #6b7280; stroke-width: 0.5; }
.axis-text { font-family: monospace; font-size: 11px; fill: #9ca3af; }
.title-text { font-family: monospace; font-size: 14px; fill: #d1d5db; font-weight: bold; }
.grid-line { stroke: #374151; stroke-width: 0.3; stroke-dasharray: 4 2; }
.path-0 { fill: none; stroke: #3b82f6; stroke-width: 2; stroke-linecap: round; opacity: 0.85; animation: draw-0 8s ease-in-out 0.0s infinite; stroke-dasharray: 958; stroke-dashoffset: 958;}
@keyframes draw-0 { 0% { stroke-dashoffset: 958; } 38% { stroke-dashoffset: 0; } 62% { stroke-dashoffset: 0; } 100% { stroke-dashoffset: 958; }}
.path-1 { fill: none; stroke: #ef4444; stroke-width: 2; stroke-linecap: round; opacity: 0.85; animation: draw-1 8s ease-in-out 0.4s infinite; stroke-dasharray: 984; stroke-dashoffset: 984;}
@keyframes draw-1 { 0% { stroke-dashoffset: 984; } 38% { stroke-dashoffset: 0; } 62% { stroke-dashoffset: 0; } 100% { stroke-dashoffset: 984; }}
.path-2 { fill: none; stroke: #22c55e; stroke-width: 2; stroke-linecap: round; opacity: 0.85; animation: draw-2 8s ease-in-out 0.8s infinite; stroke-dasharray: 957; stroke-dashoffset: 957;}
@keyframes draw-2 { 0% { stroke-dashoffset: 957; } 38% { stroke-dashoffset: 0; } 62% { stroke-dashoffset: 0; } 100% { stroke-dashoffset: 957; }}
.path-3 { fill: none; stroke: #f59e0b; stroke-width: 2; stroke-linecap: round; opacity: 0.85; animation: draw-3 8s ease-in-out 1.2000000000000002s infinite; stroke-dasharray: 949; stroke-dashoffset: 949;}
@keyframes draw-3 { 0% { stroke-dashoffset: 949; } 38% { stroke-dashoffset: 0; } 62% { stroke-dashoffset: 0; } 100% { stroke-dashoffset: 949; }}
.path-4 { fill: none; stroke: #a855f7; stroke-width: 2; stroke-linecap: round; opacity: 0.85; animation: draw-4 8s ease-in-out 1.6s infinite; stroke-dasharray: 1005; stroke-dashoffset: 1005;}
@keyframes draw-4 { 0% { stroke-dashoffset: 1005; } 38% { stroke-dashoffset: 0; } 62% { stroke-dashoffset: 0; } 100% { stroke-dashoffset: 1005; }}
</style>
<rect width="800" height="300" rx="8" fill="#0d1117" />
<line x1="50" y1="260.0" x2="780" y2="260.0" class="grid-line" />
<text x="44" y="264.0" text-anchor="end" class="axis-text">-2.4</text>
<line x1="50" y1="216.0" x2="780" y2="216.0" class="grid-line" />
<text x="44" y="220.0" text-anchor="end" class="axis-text">-1.5</text>
<line x1="50" y1="172.0" x2="780" y2="172.0" class="grid-line" />
<text x="44" y="176.0" text-anchor="end" class="axis-text">-0.5</text>
<line x1="50" y1="128.0" x2="780" y2="128.0" class="grid-line" />
<text x="44" y="132.0" text-anchor="end" class="axis-text">0.4</text>
<line x1="50" y1="84.0" x2="780" y2="84.0" class="grid-line" />
<text x="44" y="88.0" text-anchor="end" class="axis-text">1.3</text>
<line x1="50" y1="40.0" x2="780" y2="40.0" class="grid-line" />
<text x="44" y="44.0" text-anchor="end" class="axis-text">2.2</text>
<line x1="50.0" y1="40" x2="50.0" y2="260" class="grid-line" />
<line x1="196.0" y1="40" x2="196.0" y2="260" class="grid-line" />
<line x1="342.0" y1="40" x2="342.0" y2="260" class="grid-line" />
<line x1="488.0" y1="40" x2="488.0" y2="260" class="grid-line" />
<line x1="634.0" y1="40" x2="634.0" y2="260" class="grid-line" />
<line x1="780.0" y1="40" x2="780.0" y2="260" class="grid-line" />
<line x1="50" y1="260" x2="780" y2="260" class="axis-line" />
<line x1="50" y1="40" x2="50" y2="260" class="axis-line" />
<text x="400.0" y="295" text-anchor="middle" class="axis-text">t</text>
<text x="12" y="150.0" text-anchor="middle" class="axis-text" transform="rotate(-90 12 150.0)">W(t)</text>
<text x="400.0" y="22" text-anchor="middle" class="title-text">Brownian Motion</text>
<path d="M 50.00 145.60 L 53.65 148.41 L 57.30 148.55 L 60.95 145.69 L 64.60 144.81 L 68.25 147.53 L 71.90 151.57 L 75.55 155.48 L 79.20 154.29 L 82.85 157.63 L 86.50 158.80 L 90.15 151.23 L 93.80 148.69 L 97.45 150.16 L 101.10 146.36 L 104.75 148.04 L 108.40 148.82 L 112.05 151.17 L 115.70 152.10 L 119.35 150.43 L 123.00 149.16 L 126.65 143.70 L 130.30 144.41 L 133.95 144.65 L 137.60 145.85 L 141.25 140.52 L 144.90 140.39 L 148.55 134.23 L 152.20 131.39 L 155.85 135.00 L 159.50 129.09 L 163.15 128.91 L 166.80 125.78 L 170.45 125.05 L 174.10 120.91 L 177.75 123.47 L 181.40 123.34 L 185.05 124.07 L 188.70 119.98 L 192.35 115.95 L 196.00 116.82 L 199.65 118.26 L 203.30 112.06 L 206.95 108.72 L 210.60 107.41 L 214.25 106.17 L 217.90 104.22 L 221.55 108.46 L 225.20 109.19 L 228.85 104.72 L 232.50 103.58 L 236.15 105.05 L 239.80 107.58 L 243.45 105.38 L 247.10 102.42 L 250.75 99.89 L 254.40 102.11 L 258.05 103.46 L 261.70 103.22 L 265.35 99.86 L 269.00 102.08 L 272.65 101.93 L 276.30 99.71 L 279.95 101.34 L 283.60 98.96 L 287.25 102.66 L 290.90 98.25 L 294.55 95.60 L 298.20 92.84 L 301.85 90.62 L 305.50 93.83 L 309.15 93.81 L 312.80 95.04 L 316.45 96.43 L 320.10 93.52 L 323.75 89.20 L 327.40 88.86 L 331.05 85.91 L 334.70 84.74 L 338.35 81.73 L 342.00 84.98 L 345.65 82.07 L 349.30 81.10 L 352.95 76.08 L 356.60 75.36 L 360.25 72.76 L 363.90 69.05 L 367.55 70.83 L 371.20 77.66 L 374.85 76.73 L 378.50 75.00 L 382.15 78.72 L 385.80 79.63 L 389.45 81.24 L 393.10 73.37 L 396.75 75.94 L 400.40 74.08 L 404.05 73.66 L 407.70 76.70 L 411.35 78.08 L 415.00 77.27 L 418.65 69.88 L 422.30 71.51 L 425.95 75.73 L 429.60 75.69 L 433.25 77.51 L 436.90 77.39 L 440.55 75.61 L 444.20 79.33 L 447.85 74.84 L 451.50 75.14 L 455.15 74.96 L 458.80 75.68 L 462.45 76.51 L 466.10 78.39 L 469.75 80.19 L 473.40 83.23 L 477.05 82.32 L 480.70 78.46 L 484.35 73.57 L 488.00 79.35 L 491.65 77.23 L 495.30 78.04 L 498.95 78.44 L 502.60 76.04 L 506.25 84.01 L 509.90 86.60 L 513.55 88.30 L 517.20 92.07 L 520.85 95.00 L 524.50 95.06 L 528.15 93.92 L 531.80 96.20 L 535.45 90.20 L 539.10 92.05 L 542.75 85.03 L 546.40 85.22 L 550.05 84.01 L 553.70 79.48 L 557.35 87.71 L 561.00 94.42 L 564.65 93.90 L 568.30 92.45 L 571.95 89.10 L 575.60 79.94 L 579.25 78.38 L 582.90 79.28 L 586.55 83.27 L 590.20 83.52 L 593.85 84.24 L 597.50 84.70 L 601.15 87.78 L 604.80 81.43 L 608.45 77.62 L 612.10 77.83 L 615.75 81.68 L 619.40 76.44 L 623.05 77.79 L 626.70 80.86 L 630.35 83.70 L 634.00 82.43 L 637.65 87.43 L 641.30 87.24 L 644.95 84.28 L 648.60 83.29 L 652.25 90.00 L 655.90 85.58 L 659.55 84.53 L 663.20 84.47 L 666.85 84.32 L 670.50 90.25 L 674.15 91.84 L 677.80 84.47 L 681.45 87.54 L 685.10 86.90 L 688.75 90.36 L 692.40 84.20 L 696.05 85.19 L 699.70 82.63 L 703.35 85.80 L 707.00 84.71 L 710.65 85.06 L 714.30 84.89 L 717.95 85.28 L 721.60 91.11 L 725.25 87.15 L 728.90 86.82 L 732.55 90.47 L 736.20 90.82 L 739.85 85.33 L 743.50 88.57 L 747.15 80.73 L 750.80 79.46 L 754.45 80.83 L 758.10 78.10 L 761.75 76.30 L 765.40 71.53 L 769.05 66.23 L 772.70 65.73 L 776.35 66.02 L 780.00 65.38" class="path-0" />
<path d="M 50.00 145.60 L 53.65 146.38 L 57.30 144.91 L 60.95 147.75 L 64.60 145.78 L 68.25 145.48 L 71.90 146.69 L 75.55 149.87 L 79.20 143.23 L 82.85 141.01 L 86.50 139.02 L 90.15 134.82 L 93.80 135.46 L 97.45 131.94 L 101.10 131.21 L 104.75 135.15 L 108.40 133.36 L 112.05 136.59 L 115.70 131.00 L 119.35 126.50 L 123.00 121.22 L 126.65 126.96 L 130.30 123.02 L 133.95 115.72 L 137.60 113.64 L 141.25 114.13 L 144.90 111.67 L 148.55 111.07 L 152.20 110.03 L 155.85 109.18 L 159.50 108.23 L 163.15 108.46 L 166.80 110.46 L 170.45 110.66 L 174.10 106.96 L 177.75 106.79 L 181.40 111.07 L 185.05 109.91 L 188.70 110.94 L 192.35 114.27 L 196.00 114.25 L 199.65 112.35 L 203.30 109.87 L 206.95 111.68 L 210.60 112.71 L 214.25 107.34 L 217.90 106.95 L 221.55 108.84 L 225.20 109.34 L 228.85 109.53 L 232.50 111.27 L 236.15 114.13 L 239.80 116.10 L 243.45 116.35 L 247.10 116.48 L 250.75 110.99 L 254.40 107.36 L 258.05 109.41 L 261.70 101.03 L 265.35 97.78 L 269.00 99.85 L 272.65 94.74 L 276.30 97.31 L 279.95 97.92 L 283.60 103.84 L 287.25 107.67 L 290.90 105.84 L 294.55 109.16 L 298.20 111.38 L 301.85 105.77 L 305.50 108.81 L 309.15 107.49 L 312.80 108.14 L 316.45 110.36 L 320.10 105.25 L 323.75 109.25 L 327.40 106.78 L 331.05 104.71 L 334.70 101.42 L 338.35 98.62 L 342.00 95.32 L 345.65 93.69 L 349.30 101.90 L 352.95 100.78 L 356.60 98.56 L 360.25 93.32 L 363.90 91.66 L 367.55 99.69 L 371.20 96.02 L 374.85 98.73 L 378.50 90.17 L 382.15 87.62 L 385.80 93.70 L 389.45 88.42 L 393.10 86.88 L 396.75 87.61 L 400.40 87.44 L 404.05 92.52 L 407.70 95.92 L 411.35 95.86 L 415.00 96.33 L 418.65 97.00 L 422.30 91.92 L 425.95 88.92 L 429.60 90.07 L 433.25 88.22 L 436.90 85.16 L 440.55 88.38 L 444.20 89.12 L 447.85 87.74 L 451.50 91.35 L 455.15 95.20 L 458.80 101.66 L 462.45 102.07 L 466.10 101.45 L 469.75 101.75 L 473.40 100.95 L 477.05 93.75 L 480.70 90.87 L 484.35 95.97 L 488.00 97.15 L 491.65 102.52 L 495.30 100.81 L 498.95 101.09 L 502.60 109.95 L 506.25 104.19 L 509.90 102.39 L 513.55 102.81 L 517.20 101.76 L 520.85 97.71 L 524.50 95.69 L 528.15 95.49 L 531.80 99.53 L 535.45 102.02 L 539.10 102.69 L 542.75 102.24 L 546.40 105.07 L 550.05 102.55 L 553.70 97.99 L 557.35 95.26 L 561.00 100.19 L 564.65 95.13 L 568.30 97.09 L 571.95 96.67 L 575.60 102.74 L 579.25 106.77 L 582.90 112.22 L 586.55 109.25 L 590.20 116.48 L 593.85 116.01 L 597.50 115.09 L 601.15 110.67 L 604.80 108.88 L 608.45 107.72 L 612.10 110.22 L 615.75 108.42 L 619.40 107.43 L 623.05 113.11 L 626.70 110.10 L 630.35 110.51 L 634.00 107.47 L 637.65 106.62 L 641.30 110.00 L 644.95 111.78 L 648.60 113.18 L 652.25 112.33 L 655.90 111.29 L 659.55 109.86 L 663.20 114.80 L 666.85 110.39 L 670.50 109.83 L 674.15 106.87 L 677.80 108.39 L 681.45 109.38 L 685.10 109.58 L 688.75 114.19 L 692.40 116.51 L 696.05 116.07 L 699.70 117.10 L 703.35 116.60 L 707.00 124.84 L 710.65 129.95 L 714.30 128.28 L 717.95 131.36 L 721.60 138.98 L 725.25 143.96 L 728.90 150.06 L 732.55 155.71 L 736.20 158.54 L 739.85 159.42 L 743.50 155.80 L 747.15 153.33 L 750.80 160.80 L 754.45 153.06 L 758.10 154.19 L 761.75 153.46 L 765.40 154.00 L 769.05 154.63 L 772.70 155.35 L 776.35 160.50 L 780.00 163.24" class="path-1" />
<path d="M 50.00 145.60 L 53.65 145.75 L 57.30 148.30 L 60.95 147.97 L 64.60 148.53 L 68.25 151.53 L 71.90 151.79 L 75.55 151.32 L 79.20 153.44 L 82.85 148.64 L 86.50 152.39 L 90.15 154.84 L 93.80 153.78 L 97.45 151.55 L 101.10 148.97 L 104.75 151.42 L 108.40 154.22 L 112.05 159.56 L 115.70 164.92 L 119.35 164.63 L 123.00 165.74 L 126.65 162.76 L 130.30 164.66 L 133.95 168.95 L 137.60 167.12 L 141.25 168.28 L 144.90 177.57 L 148.55 183.39 L 152.20 177.90 L 155.85 178.39 L 159.50 179.63 L 163.15 173.42 L 166.80 168.36 L 170.45 165.64 L 174.10 173.67 L 177.75 169.67 L 181.40 175.65 L 185.05 172.21 L 188.70 178.75 L 192.35 177.58 L 196.00 179.04 L 199.65 176.56 L 203.30 174.91 L 206.95 182.49 L 210.60 179.56 L 214.25 179.12 L 217.90 186.73 L 221.55 185.07 L 225.20 184.11 L 228.85 179.17 L 232.50 179.79 L 236.15 173.97 L 239.80 174.90 L 243.45 175.29 L 247.10 180.57 L 250.75 178.98 L 254.40 181.92 L 258.05 185.56 L 261.70 183.59 L 265.35 182.29 L 269.00 184.56 L 272.65 176.72 L 276.30 170.40 L 279.95 168.88 L 283.60 170.53 L 287.25 171.94 L 290.90 173.79 L 294.55 171.69 L 298.20 167.35 L 301.85 168.82 L 305.50 166.97 L 309.15 163.88 L 312.80 160.73 L 316.45 162.99 L 320.10 159.49 L 323.75 160.59 L 327.40 159.30 L 331.05 160.40 L 334.70 164.55 L 338.35 163.58 L 342.00 161.75 L 345.65 159.52 L 349.30 158.43 L 352.95 160.17 L 356.60 159.02 L 360.25 162.95 L 363.90 165.47 L 367.55 162.03 L 371.20 157.66 L 374.85 160.90 L 378.50 163.38 L 382.15 165.61 L 385.80 168.76 L 389.45 169.71 L 393.10 168.25 L 396.75 169.71 L 400.40 167.27 L 404.05 174.40 L 407.70 168.75 L 411.35 169.55 L 415.00 172.68 L 418.65 171.30 L 422.30 174.15 L 425.95 172.92 L 429.60 171.96 L 433.25 172.17 L 436.90 174.58 L 440.55 176.39 L 444.20 174.84 L 447.85 172.26 L 451.50 170.33 L 455.15 169.29 L 458.80 173.28 L 462.45 167.54 L 466.10 163.96 L 469.75 162.47 L 473.40 159.77 L 477.05 166.24 L 480.70 163.80 L 484.35 166.11 L 488.00 175.89 L 491.65 171.74 L 495.30 168.56 L 498.95 166.36 L 502.60 165.98 L 506.25 168.74 L 509.90 165.70 L 513.55 165.38 L 517.20 164.74 L 520.85 169.29 L 524.50 170.78 L 528.15 169.15 L 531.80 173.24 L 535.45 176.26 L 539.10 176.58 L 542.75 174.52 L 546.40 175.66 L 550.05 177.25 L 553.70 184.97 L 557.35 183.17 L 561.00 181.59 L 564.65 181.72 L 568.30 180.58 L 571.95 182.00 L 575.60 182.31 L 579.25 180.30 L 582.90 177.47 L 586.55 182.48 L 590.20 178.61 L 593.85 172.63 L 597.50 175.97 L 601.15 173.56 L 604.80 177.19 L 608.45 176.91 L 612.10 176.10 L 615.75 175.49 L 619.40 176.81 L 623.05 175.11 L 626.70 173.70 L 630.35 163.89 L 634.00 160.45 L 637.65 160.46 L 641.30 159.15 L 644.95 154.48 L 648.60 155.39 L 652.25 153.58 L 655.90 152.13 L 659.55 151.75 L 663.20 147.07 L 666.85 148.63 L 670.50 153.27 L 674.15 152.02 L 677.80 150.50 L 681.45 150.23 L 685.10 151.96 L 688.75 154.12 L 692.40 152.68 L 696.05 151.96 L 699.70 149.50 L 703.35 153.54 L 707.00 153.23 L 710.65 148.93 L 714.30 151.13 L 717.95 146.50 L 721.60 145.52 L 725.25 148.09 L 728.90 143.56 L 732.55 148.11 L 736.20 148.71 L 739.85 146.72 L 743.50 142.69 L 747.15 143.06 L 750.80 144.63 L 754.45 143.77 L 758.10 144.24 L 761.75 141.98 L 765.40 141.58 L 769.05 136.81 L 772.70 135.20 L 776.35 135.34 L 780.00 138.64" class="path-2" />
<path d="M 50.00 145.60 L 53.65 146.60 L 57.30 148.16 L 60.95 144.52 L 64.60 149.58 L 68.25 147.43 L 71.90 147.27 L 75.55 145.44 L 79.20 143.27 L 82.85 141.89 L 86.50 143.21 L 90.15 142.21 L 93.80 146.01 L 97.45 144.90 L 101.10 150.76 L 104.75 154.06 L 108.40 158.47 L 112.05 162.52 L 115.70 161.37 L 119.35 162.23 L 123.00 165.56 L 126.65 165.14 L 130.30 164.91 L 133.95 163.53 L 137.60 165.16 L 141.25 167.52 L 144.90 167.56 L 148.55 165.71 L 152.20 163.16 L 155.85 160.86 L 159.50 166.72 L 163.15 167.30 L 166.80 171.52 L 170.45 170.44 L 174.10 171.60 L 177.75 172.36 L 181.40 171.09 L 185.05 172.26 L 188.70 169.35 L 192.35 167.90 L 196.00 169.53 L 199.65 169.33 L 203.30 163.56 L 206.95 167.61 L 210.60 166.93 L 214.25 165.68 L 217.90 163.65 L 221.55 166.19 L 225.20 161.63 L 228.85 160.39 L 232.50 162.33 L 236.15 164.04 L 239.80 157.54 L 243.45 155.72 L 247.10 159.83 L 250.75 162.33 L 254.40 164.73 L 258.05 160.60 L 261.70 161.93 L 265.35 164.57 L 269.00 164.33 L 272.65 163.58 L 276.30 171.71 L 279.95 178.61 L 283.60 178.03 L 287.25 181.20 L 290.90 181.54 L 294.55 188.89 L 298.20 189.26 L 301.85 189.03 L 305.50 196.26 L 309.15 197.89 L 312.80 202.52 L 316.45 201.30 L 320.10 200.71 L 323.75 203.21 L 327.40 207.13 L 331.05 209.51 L 334.70 206.69 L 338.35 209.56 L 342.00 208.96 L 345.65 209.31 L 349.30 209.48 L 352.95 213.51 L 356.60 211.95 L 360.25 218.37 L 363.90 220.28 L 367.55 223.16 L 371.20 228.46 L 374.85 233.90 L 378.50 234.62 L 382.15 230.99 L 385.80 227.32 L 389.45 223.57 L 393.10 223.99 L 396.75 220.88 L 400.40 224.40 L 404.05 221.83 L 407.70 227.73 L 411.35 223.13 L 415.00 232.22 L 418.65 227.61 L 422.30 227.96 L 425.95 225.12 L 429.60 227.25 L 433.25 226.02 L 436.90 227.94 L 440.55 229.94 L 444.20 231.90 L 447.85 228.23 L 451.50 225.59 L 455.15 223.81 L 458.80 225.14 L 462.45 225.58 L 466.10 219.77 L 469.75 219.01 L 473.40 220.26 L 477.05 219.87 L 480.70 222.87 L 484.35 222.45 L 488.00 224.46 L 491.65 220.36 L 495.30 216.48 L 498.95 216.86 L 502.60 212.01 L 506.25 216.51 L 509.90 217.28 L 513.55 217.53 L 517.20 216.86 L 520.85 215.20 L 524.50 214.55 L 528.15 216.46 L 531.80 210.95 L 535.45 208.46 L 539.10 207.75 L 542.75 212.67 L 546.40 206.40 L 550.05 205.90 L 553.70 208.56 L 557.35 213.37 L 561.00 210.84 L 564.65 211.39 L 568.30 206.36 L 571.95 208.91 L 575.60 207.09 L 579.25 206.43 L 582.90 207.09 L 586.55 212.09 L 590.20 206.20 L 593.85 211.70 L 597.50 207.99 L 601.15 212.27 L 604.80 219.35 L 608.45 215.40 L 612.10 212.30 L 615.75 212.29 L 619.40 211.63 L 623.05 216.85 L 626.70 217.33 L 630.35 218.71 L 634.00 217.04 L 637.65 217.09 L 641.30 217.33 L 644.95 216.93 L 648.60 215.42 L 652.25 213.02 L 655.90 217.45 L 659.55 212.08 L 663.20 210.06 L 666.85 206.02 L 670.50 202.46 L 674.15 201.28 L 677.80 199.45 L 681.45 196.71 L 685.10 199.09 L 688.75 203.82 L 692.40 200.48 L 696.05 203.50 L 699.70 208.65 L 703.35 208.98 L 707.00 213.45 L 710.65 211.81 L 714.30 208.54 L 717.95 209.54 L 721.60 208.05 L 725.25 211.53 L 728.90 214.41 L 732.55 212.99 L 736.20 213.85 L 739.85 211.54 L 743.50 208.02 L 747.15 209.33 L 750.80 205.80 L 754.45 209.07 L 758.10 208.80 L 761.75 210.49 L 765.40 213.97 L 769.05 215.35 L 772.70 211.33 L 776.35 212.29 L 780.00 214.46" class="path-3" />
<path d="M 50.00 145.60 L 53.65 143.60 L 57.30 147.65 L 60.95 149.92 L 64.60 145.20 L 68.25 155.09 L 71.90 155.92 L 75.55 155.63 L 79.20 152.08 L 82.85 152.72 L 86.50 149.79 L 90.15 151.14 L 93.80 151.46 L 97.45 147.16 L 101.10 149.77 L 104.75 148.61 L 108.40 145.35 L 112.05 153.01 L 115.70 151.30 L 119.35 148.17 L 123.00 150.74 L 126.65 153.87 L 130.30 149.75 L 133.95 155.18 L 137.60 158.82 L 141.25 158.11 L 144.90 160.91 L 148.55 161.00 L 152.20 158.70 L 155.85 160.91 L 159.50 164.82 L 163.15 162.10 L 166.80 159.59 L 170.45 155.68 L 174.10 149.59 L 177.75 150.17 L 181.40 145.32 L 185.05 145.50 L 188.70 144.39 L 192.35 146.81 L 196.00 150.65 L 199.65 155.26 L 203.30 149.61 L 206.95 149.70 L 210.60 148.55 L 214.25 153.09 L 217.90 153.83 L 221.55 148.79 L 225.20 145.01 L 228.85 145.38 L 232.50 145.87 L 236.15 144.58 L 239.80 143.90 L 243.45 145.31 L 247.10 155.21 L 250.75 151.16 L 254.40 152.58 L 258.05 149.95 L 261.70 153.44 L 265.35 160.29 L 269.00 156.75 L 272.65 157.95 L 276.30 153.19 L 279.95 147.41 L 283.60 147.24 L 287.25 145.11 L 290.90 145.27 L 294.55 146.63 L 298.20 142.92 L 301.85 145.75 L 305.50 145.59 L 309.15 148.20 L 312.80 149.19 L 316.45 143.54 L 320.10 141.85 L 323.75 136.92 L 327.40 135.01 L 331.05 143.19 L 334.70 148.52 L 338.35 151.97 L 342.00 161.76 L 345.65 155.80 L 349.30 156.70 L 352.95 156.02 L 356.60 154.34 L 360.25 153.06 L 363.90 159.63 L 367.55 165.95 L 371.20 158.26 L 374.85 161.89 L 378.50 162.39 L 382.15 158.13 L 385.80 166.30 L 389.45 169.67 L 393.10 170.24 L 396.75 170.90 L 400.40 166.08 L 404.05 169.03 L 407.70 170.45 L 411.35 172.14 L 415.00 176.71 L 418.65 175.28 L 422.30 174.58 L 425.95 170.77 L 429.60 173.97 L 433.25 173.16 L 436.90 169.90 L 440.55 168.17 L 444.20 168.46 L 447.85 168.93 L 451.50 169.53 L 455.15 169.43 L 458.80 168.53 L 462.45 170.91 L 466.10 176.48 L 469.75 174.57 L 473.40 174.79 L 477.05 169.84 L 480.70 166.32 L 484.35 165.38 L 488.00 166.65 L 491.65 164.91 L 495.30 166.89 L 498.95 169.99 L 502.60 166.71 L 506.25 166.05 L 509.90 163.19 L 513.55 164.29 L 517.20 165.65 L 520.85 171.68 L 524.50 170.18 L 528.15 171.02 L 531.80 171.47 L 535.45 181.14 L 539.10 183.97 L 542.75 183.62 L 546.40 185.49 L 550.05 180.17 L 553.70 181.11 L 557.35 177.18 L 561.00 180.39 L 564.65 179.69 L 568.30 173.09 L 571.95 172.29 L 575.60 169.52 L 579.25 165.92 L 582.90 165.55 L 586.55 169.29 L 590.20 175.55 L 593.85 185.13 L 597.50 189.34 L 601.15 198.46 L 604.80 200.06 L 608.45 197.43 L 612.10 195.23 L 615.75 196.05 L 619.40 197.78 L 623.05 195.30 L 626.70 195.32 L 630.35 186.26 L 634.00 185.21 L 637.65 187.84 L 641.30 184.94 L 644.95 183.47 L 648.60 177.85 L 652.25 180.62 L 655.90 178.27 L 659.55 181.72 L 663.20 183.28 L 666.85 179.29 L 670.50 179.88 L 674.15 181.03 L 677.80 185.00 L 681.45 186.97 L 685.10 188.66 L 688.75 192.99 L 692.40 192.21 L 696.05 187.64 L 699.70 186.45 L 703.35 190.60 L 707.00 192.20 L 710.65 193.89 L 714.30 190.33 L 717.95 189.13 L 721.60 192.07 L 725.25 194.48 L 728.90 192.08 L 732.55 189.61 L 736.20 187.80 L 739.85 183.94 L 743.50 180.07 L 747.15 186.16 L 750.80 183.19 L 754.45 184.94 L 758.10 179.73 L 761.75 180.55 L 765.40 184.29 L 769.05 187.03 L 772.70 194.18 L 776.35 197.54 L 780.00 204.39" class="path-4" />
<line x1="50" y1="145.6" x2="780" y2="145.6" stroke="#4b5563" stroke-width="0.8" stroke-dasharray="6 3" />
</svg>