<svg xmlns="http://www.w3.org/2000/svg" viewBox="0 0 800 300" width="800" height="300">
<style>
.axis-line { stroke: #6b7280; stroke-width: 0.5; }
.axis-text { font-family: monospace; font-size: 11px; fill: #9ca3af; }
.title-text { font-family: monospace; font-size: 14px; fill: #d1d5db; font-weight: bold; }
.grid-line { stroke: #374151; stroke-width: 0.3; stroke-dasharray: 4 2; }
.path-0 { fill: none; stroke: #3b82f6; stroke-width: 2; stroke-linecap: round; opacity: 0.85; animation: draw-0 8s ease-in-out 0.0s infinite; stroke-dasharray: 1243; stroke-dashoffset: 1243;}
@keyframes draw-0 { 0% { stroke-dashoffset: 1243; } 38% { stroke-dashoffset: 0; } 62% { stroke-dashoffset: 0; } 100% { stroke-dashoffset: 1243; }}
.path-1 { fill: none; stroke: #ef4444; stroke-width: 2; stroke-linecap: round; opacity: 0.85; animation: draw-1 8s ease-in-out 0.4s infinite; stroke-dasharray: 1211; stroke-dashoffset: 1211;}
@keyframes draw-1 { 0% { stroke-dashoffset: 1211; } 38% { stroke-dashoffset: 0; } 62% { stroke-dashoffset: 0; } 100% { stroke-dashoffset: 1211; }}
.path-2 { fill: none; stroke: #22c55e; stroke-width: 2; stroke-linecap: round; opacity: 0.85; animation: draw-2 8s ease-in-out 0.8s infinite; stroke-dasharray: 1173; stroke-dashoffset: 1173;}
@keyframes draw-2 { 0% { stroke-dashoffset: 1173; } 38% { stroke-dashoffset: 0; } 62% { stroke-dashoffset: 0; } 100% { stroke-dashoffset: 1173; }}
.path-3 { fill: none; stroke: #f59e0b; stroke-width: 2; stroke-linecap: round; opacity: 0.85; animation: draw-3 8s ease-in-out 1.2000000000000002s infinite; stroke-dasharray: 1237; stroke-dashoffset: 1237;}
@keyframes draw-3 { 0% { stroke-dashoffset: 1237; } 38% { stroke-dashoffset: 0; } 62% { stroke-dashoffset: 0; } 100% { stroke-dashoffset: 1237; }}
.path-4 { fill: none; stroke: #a855f7; stroke-width: 2; stroke-linecap: round; opacity: 0.85; animation: draw-4 8s ease-in-out 1.6s infinite; stroke-dasharray: 1176; stroke-dashoffset: 1176;}
@keyframes draw-4 { 0% { stroke-dashoffset: 1176; } 38% { stroke-dashoffset: 0; } 62% { stroke-dashoffset: 0; } 100% { stroke-dashoffset: 1176; }}
</style>
<rect width="800" height="300" rx="8" fill="#0d1117" />
<line x1="50" y1="260.0" x2="780" y2="260.0" class="grid-line" />
<text x="44" y="264.0" text-anchor="end" class="axis-text">-1.6</text>
<line x1="50" y1="216.0" x2="780" y2="216.0" class="grid-line" />
<text x="44" y="220.0" text-anchor="end" class="axis-text">-1.0</text>
<line x1="50" y1="172.0" x2="780" y2="172.0" class="grid-line" />
<text x="44" y="176.0" text-anchor="end" class="axis-text">-0.5</text>
<line x1="50" y1="128.0" x2="780" y2="128.0" class="grid-line" />
<text x="44" y="132.0" text-anchor="end" class="axis-text">0.1</text>
<line x1="50" y1="84.0" x2="780" y2="84.0" class="grid-line" />
<text x="44" y="88.0" text-anchor="end" class="axis-text">0.7</text>
<line x1="50" y1="40.0" x2="780" y2="40.0" class="grid-line" />
<text x="44" y="44.0" text-anchor="end" class="axis-text">1.3</text>
<line x1="50.0" y1="40" x2="50.0" y2="260" class="grid-line" />
<line x1="196.0" y1="40" x2="196.0" y2="260" class="grid-line" />
<line x1="342.0" y1="40" x2="342.0" y2="260" class="grid-line" />
<line x1="488.0" y1="40" x2="488.0" y2="260" class="grid-line" />
<line x1="634.0" y1="40" x2="634.0" y2="260" class="grid-line" />
<line x1="780.0" y1="40" x2="780.0" y2="260" class="grid-line" />
<line x1="50" y1="260" x2="780" y2="260" class="axis-line" />
<line x1="50" y1="40" x2="50" y2="260" class="axis-line" />
<text x="400.0" y="295" text-anchor="middle" class="axis-text">t</text>
<text x="12" y="150.0" text-anchor="middle" class="axis-text" transform="rotate(-90 12 150.0)">W(t)</text>
<text x="400.0" y="22" text-anchor="middle" class="title-text">Brownian Motion</text>
<path d="M 50.00 137.12 L 53.65 146.83 L 57.30 148.50 L 60.95 146.69 L 64.60 145.14 L 68.25 159.04 L 71.90 160.71 L 75.55 164.28 L 79.20 163.79 L 82.85 161.07 L 86.50 151.66 L 90.15 153.52 L 93.80 152.59 L 97.45 154.22 L 101.10 149.76 L 104.75 149.98 L 108.40 157.50 L 112.05 160.87 L 115.70 166.82 L 119.35 165.26 L 123.00 172.59 L 126.65 178.98 L 130.30 178.51 L 133.95 177.09 L 137.60 171.43 L 141.25 172.60 L 144.90 169.55 L 148.55 170.32 L 152.20 170.25 L 155.85 170.07 L 159.50 173.53 L 163.15 182.55 L 166.80 180.51 L 170.45 179.98 L 174.10 178.41 L 177.75 183.81 L 181.40 177.53 L 185.05 178.83 L 188.70 180.76 L 192.35 177.51 L 196.00 177.08 L 199.65 173.02 L 203.30 185.97 L 206.95 168.99 L 210.60 175.54 L 214.25 183.47 L 217.90 189.01 L 221.55 185.01 L 225.20 186.74 L 228.85 189.16 L 232.50 198.33 L 236.15 204.18 L 239.80 197.48 L 243.45 206.42 L 247.10 204.80 L 250.75 211.81 L 254.40 219.85 L 258.05 214.29 L 261.70 219.32 L 265.35 213.89 L 269.00 209.61 L 272.65 205.09 L 276.30 205.06 L 279.95 200.70 L 283.60 193.13 L 287.25 193.28 L 290.90 191.87 L 294.55 195.92 L 298.20 189.86 L 301.85 191.44 L 305.50 186.10 L 309.15 181.55 L 312.80 173.32 L 316.45 166.01 L 320.10 159.19 L 323.75 164.00 L 327.40 167.10 L 331.05 168.23 L 334.70 154.78 L 338.35 160.39 L 342.00 159.07 L 345.65 167.45 L 349.30 160.09 L 352.95 149.46 L 356.60 148.18 L 360.25 142.41 L 363.90 149.53 L 367.55 151.35 L 371.20 138.80 L 374.85 143.15 L 378.50 138.84 L 382.15 134.24 L 385.80 138.16 L 389.45 136.95 L 393.10 141.49 L 396.75 142.53 L 400.40 137.76 L 404.05 136.02 L 407.70 146.21 L 411.35 153.68 L 415.00 151.66 L 418.65 146.80 L 422.30 146.72 L 425.95 148.60 L 429.60 157.23 L 433.25 152.67 L 436.90 156.15 L 440.55 156.42 L 444.20 146.55 L 447.85 148.26 L 451.50 137.95 L 455.15 151.49 L 458.80 151.81 L 462.45 158.43 L 466.10 165.72 L 469.75 160.61 L 473.40 156.32 L 477.05 141.49 L 480.70 133.40 L 484.35 139.69 L 488.00 142.80 L 491.65 142.15 L 495.30 141.68 L 498.95 141.91 L 502.60 144.47 L 506.25 151.85 L 509.90 151.13 L 513.55 150.49 L 517.20 141.80 L 520.85 142.43 L 524.50 130.72 L 528.15 128.12 L 531.80 132.22 L 535.45 124.97 L 539.10 111.88 L 542.75 113.04 L 546.40 107.36 L 550.05 105.04 L 553.70 106.59 L 557.35 100.62 L 561.00 93.68 L 564.65 89.35 L 568.30 92.64 L 571.95 91.38 L 575.60 83.23 L 579.25 85.93 L 582.90 82.15 L 586.55 82.31 L 590.20 87.35 L 593.85 83.25 L 597.50 85.70 L 601.15 82.11 L 604.80 82.00 L 608.45 77.45 L 612.10 77.02 L 615.75 70.60 L 619.40 76.02 L 623.05 74.09 L 626.70 69.51 L 630.35 65.38 L 634.00 71.18 L 637.65 73.06 L 641.30 72.71 L 644.95 82.06 L 648.60 84.25 L 652.25 95.12 L 655.90 103.11 L 659.55 105.34 L 663.20 107.77 L 666.85 114.81 L 670.50 114.19 L 674.15 108.28 L 677.80 105.59 L 681.45 108.07 L 685.10 106.92 L 688.75 103.41 L 692.40 108.08 L 696.05 112.64 L 699.70 111.26 L 703.35 110.02 L 707.00 115.92 L 710.65 100.48 L 714.30 107.48 L 717.95 114.47 L 721.60 114.46 L 725.25 106.04 L 728.90 105.02 L 732.55 103.95 L 736.20 99.41 L 739.85 100.18 L 743.50 97.85 L 747.15 98.51 L 750.80 96.64 L 754.45 103.51 L 758.10 103.88 L 761.75 99.97 L 765.40 100.68 L 769.05 103.31 L 772.70 114.29 L 776.35 116.07 L 780.00 114.46" class="path-0" />
<path d="M 50.00 137.12 L 53.65 134.99 L 57.30 132.95 L 60.95 134.68 L 64.60 140.76 L 68.25 141.98 L 71.90 132.51 L 75.55 124.95 L 79.20 117.58 L 82.85 116.76 L 86.50 111.84 L 90.15 114.25 L 93.80 119.13 L 97.45 117.14 L 101.10 117.80 L 104.75 119.06 L 108.40 124.32 L 112.05 119.55 L 115.70 123.06 L 119.35 120.41 L 123.00 122.53 L 126.65 126.31 L 130.30 121.74 L 133.95 114.20 L 137.60 107.33 L 141.25 111.76 L 144.90 119.15 L 148.55 121.96 L 152.20 128.60 L 155.85 136.28 L 159.50 135.41 L 163.15 135.49 L 166.80 127.46 L 170.45 117.51 L 174.10 115.63 L 177.75 108.45 L 181.40 112.09 L 185.05 100.37 L 188.70 100.48 L 192.35 99.66 L 196.00 103.68 L 199.65 101.39 L 203.30 96.93 L 206.95 91.23 L 210.60 88.77 L 214.25 89.75 L 217.90 93.01 L 221.55 77.42 L 225.20 72.26 L 228.85 81.00 L 232.50 80.57 L 236.15 78.31 L 239.80 83.94 L 243.45 77.57 L 247.10 78.05 L 250.75 78.45 L 254.40 80.46 L 258.05 73.79 L 261.70 84.20 L 265.35 87.50 L 269.00 82.20 L 272.65 83.19 L 276.30 86.83 L 279.95 87.42 L 283.60 87.25 L 287.25 88.67 L 290.90 89.69 L 294.55 97.21 L 298.20 102.41 L 301.85 108.88 L 305.50 103.65 L 309.15 98.65 L 312.80 100.50 L 316.45 108.01 L 320.10 114.52 L 323.75 117.08 L 327.40 118.11 L 331.05 119.17 L 334.70 117.86 L 338.35 123.05 L 342.00 127.01 L 345.65 127.94 L 349.30 123.63 L 352.95 120.72 L 356.60 116.02 L 360.25 120.83 L 363.90 117.59 L 367.55 118.46 L 371.20 126.52 L 374.85 125.43 L 378.50 122.46 L 382.15 133.82 L 385.80 130.52 L 389.45 129.06 L 393.10 136.16 L 396.75 140.92 L 400.40 136.16 L 404.05 148.00 L 407.70 143.79 L 411.35 141.53 L 415.00 139.05 L 418.65 134.24 L 422.30 140.78 L 425.95 141.03 L 429.60 132.50 L 433.25 132.14 L 436.90 134.76 L 440.55 143.29 L 444.20 148.78 L 447.85 152.95 L 451.50 155.72 L 455.15 146.84 L 458.80 152.88 L 462.45 160.44 L 466.10 153.52 L 469.75 156.19 L 473.40 158.65 L 477.05 163.24 L 480.70 152.50 L 484.35 144.79 L 488.00 147.75 L 491.65 148.59 L 495.30 145.31 L 498.95 143.85 L 502.60 142.98 L 506.25 137.25 L 509.90 135.97 L 513.55 153.21 L 517.20 157.92 L 520.85 160.87 L 524.50 158.14 L 528.15 159.84 L 531.80 152.60 L 535.45 151.60 L 539.10 146.18 L 542.75 147.27 L 546.40 145.16 L 550.05 137.70 L 553.70 135.22 L 557.35 138.55 L 561.00 130.73 L 564.65 142.77 L 568.30 148.18 L 571.95 142.49 L 575.60 140.48 L 579.25 133.91 L 582.90 126.06 L 586.55 122.70 L 590.20 119.67 L 593.85 128.51 L 597.50 125.76 L 601.15 125.26 L 604.80 116.58 L 608.45 123.59 L 612.10 119.38 L 615.75 124.40 L 619.40 129.72 L 623.05 124.88 L 626.70 127.11 L 630.35 121.74 L 634.00 124.99 L 637.65 114.68 L 641.30 118.65 L 644.95 124.31 L 648.60 129.92 L 652.25 123.42 L 655.90 126.13 L 659.55 129.61 L 663.20 130.95 L 666.85 129.54 L 670.50 132.39 L 674.15 136.78 L 677.80 140.23 L 681.45 140.72 L 685.10 137.94 L 688.75 134.47 L 692.40 136.36 L 696.05 134.58 L 699.70 136.19 L 703.35 141.26 L 707.00 137.93 L 710.65 137.60 L 714.30 144.14 L 717.95 144.55 L 721.60 145.61 L 725.25 142.35 L 728.90 144.33 L 732.55 150.52 L 736.20 149.58 L 739.85 148.19 L 743.50 132.11 L 747.15 133.99 L 750.80 129.36 L 754.45 123.86 L 758.10 124.39 L 761.75 123.77 L 765.40 123.77 L 769.05 130.41 L 772.70 117.01 L 776.35 128.76 L 780.00 127.81" class="path-1" />
<path d="M 50.00 137.12 L 53.65 135.25 L 57.30 133.21 L 60.95 132.29 L 64.60 132.81 L 68.25 128.98 L 71.90 132.85 L 75.55 128.98 L 79.20 116.26 L 82.85 108.58 L 86.50 104.10 L 90.15 107.80 L 93.80 109.49 L 97.45 110.52 L 101.10 111.97 L 104.75 118.64 L 108.40 126.11 L 112.05 123.08 L 115.70 122.03 L 119.35 122.10 L 123.00 119.21 L 126.65 119.84 L 130.30 109.17 L 133.95 110.67 L 137.60 119.70 L 141.25 121.23 L 144.90 120.73 L 148.55 116.71 L 152.20 120.49 L 155.85 122.72 L 159.50 130.67 L 163.15 127.95 L 166.80 130.21 L 170.45 123.35 L 174.10 121.48 L 177.75 117.87 L 181.40 119.16 L 185.05 123.41 L 188.70 125.99 L 192.35 126.42 L 196.00 118.59 L 199.65 119.07 L 203.30 113.91 L 206.95 111.73 L 210.60 115.19 L 214.25 123.28 L 217.90 121.67 L 221.55 123.22 L 225.20 126.32 L 228.85 129.88 L 232.50 133.36 L 236.15 126.76 L 239.80 121.53 L 243.45 123.12 L 247.10 124.67 L 250.75 130.62 L 254.40 124.57 L 258.05 125.16 L 261.70 125.76 L 265.35 126.79 L 269.00 140.74 L 272.65 146.44 L 276.30 154.27 L 279.95 160.20 L 283.60 159.34 L 287.25 163.20 L 290.90 170.25 L 294.55 172.94 L 298.20 163.75 L 301.85 166.60 L 305.50 171.07 L 309.15 172.90 L 312.80 171.86 L 316.45 166.43 L 320.10 163.95 L 323.75 153.24 L 327.40 147.97 L 331.05 142.97 L 334.70 141.11 L 338.35 134.73 L 342.00 135.84 L 345.65 130.47 L 349.30 132.23 L 352.95 132.16 L 356.60 125.21 L 360.25 128.16 L 363.90 127.48 L 367.55 138.27 L 371.20 135.63 L 374.85 137.66 L 378.50 139.41 L 382.15 136.98 L 385.80 142.18 L 389.45 143.46 L 393.10 147.36 L 396.75 150.94 L 400.40 155.94 L 404.05 153.93 L 407.70 152.70 L 411.35 148.01 L 415.00 152.80 L 418.65 146.34 L 422.30 134.00 L 425.95 133.00 L 429.60 121.35 L 433.25 114.81 L 436.90 104.48 L 440.55 104.65 L 444.20 103.43 L 447.85 99.38 L 451.50 102.03 L 455.15 111.55 L 458.80 107.67 L 462.45 106.72 L 466.10 104.95 L 469.75 107.43 L 473.40 110.17 L 477.05 104.75 L 480.70 91.30 L 484.35 87.61 L 488.00 95.55 L 491.65 96.30 L 495.30 95.88 L 498.95 93.97 L 502.60 95.64 L 506.25 99.40 L 509.90 89.51 L 513.55 94.93 L 517.20 87.67 L 520.85 92.94 L 524.50 90.31 L 528.15 98.25 L 531.80 98.46 L 535.45 97.66 L 539.10 95.03 L 542.75 86.21 L 546.40 80.85 L 550.05 84.35 L 553.70 82.43 L 557.35 86.31 L 561.00 82.66 L 564.65 84.92 L 568.30 79.87 L 571.95 79.20 L 575.60 71.27 L 579.25 77.49 L 582.90 74.61 L 586.55 79.29 L 590.20 82.50 L 593.85 80.48 L 597.50 79.40 L 601.15 81.21 L 604.80 86.71 L 608.45 92.38 L 612.10 88.35 L 615.75 87.59 L 619.40 76.83 L 623.05 78.07 L 626.70 88.38 L 630.35 85.97 L 634.00 84.05 L 637.65 77.28 L 641.30 79.75 L 644.95 87.40 L 648.60 90.25 L 652.25 99.10 L 655.90 103.42 L 659.55 104.28 L 663.20 100.28 L 666.85 93.52 L 670.50 92.99 L 674.15 83.63 L 677.80 81.69 L 681.45 77.44 L 685.10 82.43 L 688.75 79.74 L 692.40 80.62 L 696.05 87.93 L 699.70 94.52 L 703.35 96.70 L 707.00 94.27 L 710.65 89.90 L 714.30 88.67 L 717.95 89.94 L 721.60 87.28 L 725.25 85.84 L 728.90 86.47 L 732.55 87.44 L 736.20 90.16 L 739.85 90.15 L 743.50 92.85 L 747.15 103.80 L 750.80 89.95 L 754.45 90.27 L 758.10 96.93 L 761.75 107.15 L 765.40 110.90 L 769.05 115.44 L 772.70 114.51 L 776.35 110.10 L 780.00 112.33" class="path-2" />
<path d="M 50.00 137.12 L 53.65 136.89 L 57.30 138.74 L 60.95 135.47 L 64.60 125.98 L 68.25 125.57 L 71.90 128.10 L 75.55 126.63 L 79.20 124.80 L 82.85 134.52 L 86.50 124.82 L 90.15 121.70 L 93.80 112.12 L 97.45 110.79 L 101.10 109.45 L 104.75 99.18 L 108.40 105.81 L 112.05 99.95 L 115.70 100.90 L 119.35 99.65 L 123.00 106.62 L 126.65 107.87 L 130.30 105.50 L 133.95 104.38 L 137.60 110.72 L 141.25 109.06 L 144.90 110.27 L 148.55 116.78 L 152.20 125.27 L 155.85 132.35 L 159.50 145.27 L 163.15 147.17 L 166.80 145.77 L 170.45 152.23 L 174.10 152.79 L 177.75 158.01 L 181.40 152.21 L 185.05 156.53 L 188.70 153.41 L 192.35 153.64 L 196.00 162.78 L 199.65 163.52 L 203.30 174.04 L 206.95 181.44 L 210.60 181.95 L 214.25 180.28 L 217.90 180.56 L 221.55 187.75 L 225.20 201.55 L 228.85 197.55 L 232.50 196.16 L 236.15 193.22 L 239.80 193.71 L 243.45 189.24 L 247.10 187.61 L 250.75 191.78 L 254.40 194.76 L 258.05 190.61 L 261.70 198.06 L 265.35 199.33 L 269.00 196.62 L 272.65 191.53 L 276.30 191.09 L 279.95 190.79 L 283.60 191.60 L 287.25 188.85 L 290.90 191.49 L 294.55 188.60 L 298.20 186.14 L 301.85 180.76 L 305.50 186.24 L 309.15 189.05 L 312.80 189.37 L 316.45 184.25 L 320.10 189.85 L 323.75 199.45 L 327.40 202.10 L 331.05 205.61 L 334.70 210.70 L 338.35 211.34 L 342.00 216.06 L 345.65 216.27 L 349.30 208.65 L 352.95 205.58 L 356.60 212.56 L 360.25 227.07 L 363.90 217.86 L 367.55 213.81 L 371.20 210.66 L 374.85 210.82 L 378.50 213.00 L 382.15 222.96 L 385.80 227.00 L 389.45 228.77 L 393.10 231.50 L 396.75 234.62 L 400.40 228.40 L 404.05 227.37 L 407.70 219.15 L 411.35 212.91 L 415.00 214.38 L 418.65 216.88 L 422.30 207.96 L 425.95 212.67 L 429.60 215.48 L 433.25 212.68 L 436.90 196.61 L 440.55 194.60 L 444.20 181.00 L 447.85 179.98 L 451.50 180.94 L 455.15 177.70 L 458.80 183.84 L 462.45 196.58 L 466.10 186.76 L 469.75 188.57 L 473.40 189.69 L 477.05 187.48 L 480.70 186.36 L 484.35 186.85 L 488.00 193.61 L 491.65 189.57 L 495.30 188.37 L 498.95 193.68 L 502.60 198.25 L 506.25 203.82 L 509.90 199.57 L 513.55 202.98 L 517.20 197.87 L 520.85 203.59 L 524.50 198.35 L 528.15 196.64 L 531.80 191.85 L 535.45 189.09 L 539.10 189.26 L 542.75 188.69 L 546.40 186.88 L 550.05 178.00 L 553.70 169.96 L 557.35 166.91 L 561.00 164.05 L 564.65 171.27 L 568.30 162.86 L 571.95 179.64 L 575.60 176.47 L 579.25 183.53 L 582.90 184.61 L 586.55 180.58 L 590.20 183.44 L 593.85 171.03 L 597.50 167.43 L 601.15 168.63 L 604.80 170.28 L 608.45 170.19 L 612.10 167.01 L 615.75 168.91 L 619.40 170.78 L 623.05 174.35 L 626.70 177.44 L 630.35 175.20 L 634.00 172.58 L 637.65 178.50 L 641.30 178.13 L 644.95 181.52 L 648.60 177.26 L 652.25 187.90 L 655.90 199.17 L 659.55 205.66 L 663.20 197.25 L 666.85 200.84 L 670.50 203.76 L 674.15 203.54 L 677.80 201.19 L 681.45 196.02 L 685.10 188.04 L 688.75 183.99 L 692.40 190.13 L 696.05 190.59 L 699.70 192.30 L 703.35 199.29 L 707.00 200.16 L 710.65 209.78 L 714.30 215.45 L 717.95 211.64 L 721.60 220.38 L 725.25 220.14 L 728.90 218.88 L 732.55 212.83 L 736.20 211.55 L 739.85 204.96 L 743.50 216.48 L 747.15 217.14 L 750.80 227.40 L 754.45 228.62 L 758.10 233.80 L 761.75 225.84 L 765.40 215.00 L 769.05 209.13 L 772.70 211.96 L 776.35 209.79 L 780.00 205.35" class="path-3" />
<path d="M 50.00 137.12 L 53.65 133.50 L 57.30 124.47 L 60.95 127.35 L 64.60 125.62 L 68.25 118.75 L 71.90 125.25 L 75.55 128.93 L 79.20 135.26 L 82.85 139.73 L 86.50 137.03 L 90.15 138.59 L 93.80 132.46 L 97.45 136.75 L 101.10 140.86 L 104.75 142.76 L 108.40 134.98 L 112.05 128.92 L 115.70 134.57 L 119.35 129.79 L 123.00 126.68 L 126.65 128.44 L 130.30 124.60 L 133.95 132.89 L 137.60 137.04 L 141.25 134.77 L 144.90 130.70 L 148.55 138.04 L 152.20 143.86 L 155.85 144.16 L 159.50 150.53 L 163.15 145.20 L 166.80 143.72 L 170.45 141.80 L 174.10 149.82 L 177.75 141.00 L 181.40 149.78 L 185.05 148.67 L 188.70 154.77 L 192.35 151.10 L 196.00 159.05 L 199.65 149.13 L 203.30 142.21 L 206.95 133.50 L 210.60 133.73 L 214.25 133.49 L 217.90 127.49 L 221.55 113.69 L 225.20 111.35 L 228.85 110.46 L 232.50 127.81 L 236.15 126.22 L 239.80 119.70 L 243.45 122.50 L 247.10 117.76 L 250.75 119.41 L 254.40 124.47 L 258.05 120.91 L 261.70 126.57 L 265.35 118.92 L 269.00 121.26 L 272.65 119.84 L 276.30 117.16 L 279.95 125.51 L 283.60 134.40 L 287.25 135.24 L 290.90 134.45 L 294.55 128.10 L 298.20 123.32 L 301.85 125.43 L 305.50 131.07 L 309.15 129.06 L 312.80 133.71 L 316.45 131.21 L 320.10 115.01 L 323.75 122.20 L 327.40 124.34 L 331.05 127.14 L 334.70 129.71 L 338.35 127.79 L 342.00 127.69 L 345.65 128.77 L 349.30 120.34 L 352.95 121.56 L 356.60 118.35 L 360.25 110.88 L 363.90 109.96 L 367.55 117.11 L 371.20 115.06 L 374.85 108.41 L 378.50 105.13 L 382.15 105.65 L 385.80 99.58 L 389.45 101.22 L 393.10 101.72 L 396.75 96.45 L 400.40 94.84 L 404.05 95.53 L 407.70 93.31 L 411.35 99.68 L 415.00 99.23 L 418.65 101.41 L 422.30 99.09 L 425.95 97.26 L 429.60 94.84 L 433.25 93.48 L 436.90 88.96 L 440.55 84.74 L 444.20 83.77 L 447.85 85.01 L 451.50 92.01 L 455.15 90.04 L 458.80 87.20 L 462.45 79.97 L 466.10 83.84 L 469.75 89.36 L 473.40 88.40 L 477.05 94.29 L 480.70 96.98 L 484.35 95.39 L 488.00 97.09 L 491.65 98.17 L 495.30 99.32 L 498.95 95.33 L 502.60 99.10 L 506.25 106.05 L 509.90 93.43 L 513.55 87.09 L 517.20 95.62 L 520.85 101.14 L 524.50 96.72 L 528.15 105.61 L 531.80 108.53 L 535.45 106.01 L 539.10 93.25 L 542.75 98.24 L 546.40 95.94 L 550.05 91.48 L 553.70 92.49 L 557.35 92.28 L 561.00 86.51 L 564.65 94.93 L 568.30 96.61 L 571.95 97.13 L 575.60 104.09 L 579.25 99.56 L 582.90 98.45 L 586.55 98.11 L 590.20 96.09 L 593.85 94.73 L 597.50 84.76 L 601.15 82.94 L 604.80 84.47 L 608.45 80.91 L 612.10 82.85 L 615.75 85.72 L 619.40 88.74 L 623.05 88.21 L 626.70 89.67 L 630.35 96.17 L 634.00 101.91 L 637.65 99.03 L 641.30 100.22 L 644.95 97.50 L 648.60 104.27 L 652.25 109.01 L 655.90 107.05 L 659.55 115.59 L 663.20 121.19 L 666.85 120.50 L 670.50 117.11 L 674.15 113.27 L 677.80 116.47 L 681.45 113.74 L 685.10 106.50 L 688.75 107.64 L 692.40 113.75 L 696.05 105.66 L 699.70 103.42 L 703.35 104.99 L 707.00 93.02 L 710.65 97.17 L 714.30 99.69 L 717.95 98.27 L 721.60 95.22 L 725.25 90.52 L 728.90 85.26 L 732.55 96.11 L 736.20 95.30 L 739.85 97.11 L 743.50 92.60 L 747.15 94.23 L 750.80 88.63 L 754.45 88.76 L 758.10 89.84 L 761.75 90.52 L 765.40 92.56 L 769.05 90.81 L 772.70 87.89 L 776.35 89.99 L 780.00 90.16" class="path-4" />
<line x1="50" y1="137.1" x2="780" y2="137.1" stroke="#4b5563" stroke-width="0.8" stroke-dasharray="6 3" />
</svg>