<svg xmlns="http://www.w3.org/2000/svg" viewBox="0 0 800 300" width="800" height="300">
<style>
.axis-line { stroke: #6b7280; stroke-width: 0.5; }
.axis-text { font-family: monospace; font-size: 11px; fill: #9ca3af; }
.title-text { font-family: monospace; font-size: 14px; fill: #d1d5db; font-weight: bold; }
.grid-line { stroke: #374151; stroke-width: 0.3; stroke-dasharray: 4 2; }
.path-0 { fill: none; stroke: #3b82f6; stroke-width: 2; stroke-linecap: round; opacity: 0.85; animation: draw-0 8s ease-in-out 0.0s infinite; stroke-dasharray: 1013; stroke-dashoffset: 1013;}
@keyframes draw-0 { 0% { stroke-dashoffset: 1013; } 38% { stroke-dashoffset: 0; } 62% { stroke-dashoffset: 0; } 100% { stroke-dashoffset: 1013; }}
.path-1 { fill: none; stroke: #ef4444; stroke-width: 2; stroke-linecap: round; opacity: 0.85; animation: draw-1 8s ease-in-out 0.4s infinite; stroke-dasharray: 999; stroke-dashoffset: 999;}
@keyframes draw-1 { 0% { stroke-dashoffset: 999; } 38% { stroke-dashoffset: 0; } 62% { stroke-dashoffset: 0; } 100% { stroke-dashoffset: 999; }}
.path-2 { fill: none; stroke: #22c55e; stroke-width: 2; stroke-linecap: round; opacity: 0.85; animation: draw-2 8s ease-in-out 0.8s infinite; stroke-dasharray: 1024; stroke-dashoffset: 1024;}
@keyframes draw-2 { 0% { stroke-dashoffset: 1024; } 38% { stroke-dashoffset: 0; } 62% { stroke-dashoffset: 0; } 100% { stroke-dashoffset: 1024; }}
.path-3 { fill: none; stroke: #f59e0b; stroke-width: 2; stroke-linecap: round; opacity: 0.85; animation: draw-3 8s ease-in-out 1.2000000000000002s infinite; stroke-dasharray: 1024; stroke-dashoffset: 1024;}
@keyframes draw-3 { 0% { stroke-dashoffset: 1024; } 38% { stroke-dashoffset: 0; } 62% { stroke-dashoffset: 0; } 100% { stroke-dashoffset: 1024; }}
.path-4 { fill: none; stroke: #a855f7; stroke-width: 2; stroke-linecap: round; opacity: 0.85; animation: draw-4 8s ease-in-out 1.6s infinite; stroke-dasharray: 1006; stroke-dashoffset: 1006;}
@keyframes draw-4 { 0% { stroke-dashoffset: 1006; } 38% { stroke-dashoffset: 0; } 62% { stroke-dashoffset: 0; } 100% { stroke-dashoffset: 1006; }}
</style>
<rect width="800" height="300" rx="8" fill="#0d1117" />
<line x1="50" y1="260.0" x2="780" y2="260.0" class="grid-line" />
<text x="44" y="264.0" text-anchor="end" class="axis-text">-2.1</text>
<line x1="50" y1="216.0" x2="780" y2="216.0" class="grid-line" />
<text x="44" y="220.0" text-anchor="end" class="axis-text">-1.3</text>
<line x1="50" y1="172.0" x2="780" y2="172.0" class="grid-line" />
<text x="44" y="176.0" text-anchor="end" class="axis-text">-0.5</text>
<line x1="50" y1="128.0" x2="780" y2="128.0" class="grid-line" />
<text x="44" y="132.0" text-anchor="end" class="axis-text">0.4</text>
<line x1="50" y1="84.0" x2="780" y2="84.0" class="grid-line" />
<text x="44" y="88.0" text-anchor="end" class="axis-text">1.2</text>
<line x1="50" y1="40.0" x2="780" y2="40.0" class="grid-line" />
<text x="44" y="44.0" text-anchor="end" class="axis-text">2.0</text>
<line x1="50.0" y1="40" x2="50.0" y2="260" class="grid-line" />
<line x1="196.0" y1="40" x2="196.0" y2="260" class="grid-line" />
<line x1="342.0" y1="40" x2="342.0" y2="260" class="grid-line" />
<line x1="488.0" y1="40" x2="488.0" y2="260" class="grid-line" />
<line x1="634.0" y1="40" x2="634.0" y2="260" class="grid-line" />
<line x1="780.0" y1="40" x2="780.0" y2="260" class="grid-line" />
<line x1="50" y1="260" x2="780" y2="260" class="axis-line" />
<line x1="50" y1="40" x2="50" y2="260" class="axis-line" />
<text x="400.0" y="295" text-anchor="middle" class="axis-text">t</text>
<text x="12" y="150.0" text-anchor="middle" class="axis-text" transform="rotate(-90 12 150.0)">W(t)</text>
<text x="400.0" y="22" text-anchor="middle" class="title-text">Brownian Motion</text>
<path d="M 50.00 146.97 L 53.65 150.60 L 57.30 147.01 L 60.95 140.92 L 64.60 131.68 L 68.25 135.38 L 71.90 138.44 L 75.55 147.28 L 79.20 147.84 L 82.85 144.18 L 86.50 152.84 L 90.15 152.81 L 93.80 156.80 L 97.45 159.64 L 101.10 161.09 L 104.75 169.41 L 108.40 165.49 L 112.05 166.54 L 115.70 170.50 L 119.35 165.29 L 123.00 165.76 L 126.65 165.62 L 130.30 161.81 L 133.95 158.55 L 137.60 163.57 L 141.25 158.82 L 144.90 159.09 L 148.55 159.37 L 152.20 161.57 L 155.85 166.03 L 159.50 162.67 L 163.15 153.26 L 166.80 152.42 L 170.45 153.91 L 174.10 149.81 L 177.75 147.59 L 181.40 147.77 L 185.05 153.72 L 188.70 153.76 L 192.35 148.42 L 196.00 147.44 L 199.65 146.07 L 203.30 148.49 L 206.95 151.43 L 210.60 153.89 L 214.25 153.10 L 217.90 149.22 L 221.55 149.57 L 225.20 146.35 L 228.85 144.68 L 232.50 141.25 L 236.15 143.60 L 239.80 146.21 L 243.45 143.06 L 247.10 146.04 L 250.75 143.62 L 254.40 142.26 L 258.05 141.04 L 261.70 138.24 L 265.35 137.07 L 269.00 140.69 L 272.65 140.80 L 276.30 134.14 L 279.95 127.72 L 283.60 133.05 L 287.25 129.09 L 290.90 135.74 L 294.55 135.88 L 298.20 131.14 L 301.85 134.24 L 305.50 133.65 L 309.15 132.09 L 312.80 139.60 L 316.45 134.47 L 320.10 135.13 L 323.75 137.15 L 327.40 142.21 L 331.05 135.49 L 334.70 136.38 L 338.35 136.86 L 342.00 138.13 L 345.65 134.54 L 349.30 131.45 L 352.95 135.36 L 356.60 133.88 L 360.25 139.82 L 363.90 140.99 L 367.55 145.46 L 371.20 142.19 L 374.85 142.74 L 378.50 147.52 L 382.15 150.85 L 385.80 152.47 L 389.45 155.95 L 393.10 152.38 L 396.75 149.07 L 400.40 149.75 L 404.05 150.37 L 407.70 152.30 L 411.35 151.09 L 415.00 147.88 L 418.65 149.07 L 422.30 143.76 L 425.95 147.62 L 429.60 154.83 L 433.25 157.62 L 436.90 163.87 L 440.55 167.07 L 444.20 159.04 L 447.85 158.70 L 451.50 156.92 L 455.15 154.84 L 458.80 156.22 L 462.45 149.74 L 466.10 141.68 L 469.75 144.24 L 473.40 141.17 L 477.05 143.90 L 480.70 141.00 L 484.35 139.31 L 488.00 131.77 L 491.65 135.00 L 495.30 133.76 L 498.95 133.68 L 502.60 131.47 L 506.25 128.75 L 509.90 125.51 L 513.55 125.13 L 517.20 122.76 L 520.85 128.39 L 524.50 130.32 L 528.15 128.78 L 531.80 130.25 L 535.45 135.92 L 539.10 132.63 L 542.75 132.81 L 546.40 134.54 L 550.05 131.64 L 553.70 125.41 L 557.35 125.30 L 561.00 115.31 L 564.65 114.58 L 568.30 117.73 L 571.95 119.35 L 575.60 122.82 L 579.25 123.19 L 582.90 115.88 L 586.55 118.62 L 590.20 119.65 L 593.85 121.13 L 597.50 122.06 L 601.15 120.41 L 604.80 121.39 L 608.45 121.29 L 612.10 127.95 L 615.75 124.86 L 619.40 123.33 L 623.05 121.19 L 626.70 123.52 L 630.35 121.48 L 634.00 126.49 L 637.65 128.29 L 641.30 130.04 L 644.95 126.46 L 648.60 126.02 L 652.25 123.93 L 655.90 128.30 L 659.55 134.35 L 663.20 134.96 L 666.85 131.45 L 670.50 137.25 L 674.15 138.66 L 677.80 133.55 L 681.45 136.96 L 685.10 138.61 L 688.75 136.51 L 692.40 134.49 L 696.05 138.31 L 699.70 140.74 L 703.35 138.44 L 707.00 135.43 L 710.65 135.43 L 714.30 135.23 L 717.95 130.75 L 721.60 132.25 L 725.25 132.73 L 728.90 136.18 L 732.55 130.34 L 736.20 128.44 L 739.85 131.50 L 743.50 129.96 L 747.15 130.19 L 750.80 127.24 L 754.45 123.93 L 758.10 122.34 L 761.75 127.53 L 765.40 128.43 L 769.05 131.01 L 772.70 134.38 L 776.35 126.07 L 780.00 120.80" class="path-0" />
<path d="M 50.00 146.97 L 53.65 151.97 L 57.30 151.92 L 60.95 153.48 L 64.60 154.00 L 68.25 157.47 L 71.90 166.13 L 75.55 170.57 L 79.20 170.17 L 82.85 167.32 L 86.50 174.15 L 90.15 176.01 L 93.80 172.96 L 97.45 172.77 L 101.10 163.23 L 104.75 166.02 L 108.40 162.82 L 112.05 160.23 L 115.70 163.38 L 119.35 159.14 L 123.00 159.33 L 126.65 160.30 L 130.30 160.97 L 133.95 161.86 L 137.60 158.60 L 141.25 157.04 L 144.90 153.92 L 148.55 155.52 L 152.20 158.31 L 155.85 154.81 L 159.50 153.96 L 163.15 152.46 L 166.80 151.93 L 170.45 152.89 L 174.10 154.27 L 177.75 155.29 L 181.40 154.77 L 185.05 150.27 L 188.70 151.29 L 192.35 157.12 L 196.00 154.61 L 199.65 144.28 L 203.30 145.17 L 206.95 141.89 L 210.60 138.57 L 214.25 135.47 L 217.90 131.02 L 221.55 125.64 L 225.20 129.64 L 228.85 127.55 L 232.50 128.36 L 236.15 127.66 L 239.80 125.74 L 243.45 129.04 L 247.10 138.42 L 250.75 136.44 L 254.40 134.39 L 258.05 136.01 L 261.70 130.66 L 265.35 136.60 L 269.00 132.09 L 272.65 132.92 L 276.30 132.17 L 279.95 131.03 L 283.60 135.45 L 287.25 127.18 L 290.90 125.47 L 294.55 127.23 L 298.20 119.50 L 301.85 116.56 L 305.50 106.63 L 309.15 107.57 L 312.80 115.47 L 316.45 116.83 L 320.10 116.52 L 323.75 122.68 L 327.40 118.37 L 331.05 116.82 L 334.70 116.16 L 338.35 118.10 L 342.00 116.49 L 345.65 115.10 L 349.30 119.34 L 352.95 120.18 L 356.60 122.88 L 360.25 115.04 L 363.90 118.14 L 367.55 119.59 L 371.20 116.71 L 374.85 118.09 L 378.50 118.42 L 382.15 115.37 L 385.80 116.61 L 389.45 119.86 L 393.10 119.80 L 396.75 118.33 L 400.40 109.11 L 404.05 110.36 L 407.70 107.87 L 411.35 109.02 L 415.00 112.28 L 418.65 114.24 L 422.30 109.85 L 425.95 110.25 L 429.60 109.56 L 433.25 106.94 L 436.90 101.82 L 440.55 101.70 L 444.20 101.40 L 447.85 106.83 L 451.50 101.55 L 455.15 99.06 L 458.80 97.00 L 462.45 98.34 L 466.10 93.81 L 469.75 92.83 L 473.40 92.79 L 477.05 85.58 L 480.70 92.32 L 484.35 94.88 L 488.00 96.03 L 491.65 97.71 L 495.30 101.71 L 498.95 99.44 L 502.60 99.00 L 506.25 97.37 L 509.90 98.09 L 513.55 101.44 L 517.20 96.96 L 520.85 86.03 L 524.50 83.96 L 528.15 85.00 L 531.80 81.08 L 535.45 86.18 L 539.10 85.34 L 542.75 85.01 L 546.40 80.73 L 550.05 71.80 L 553.70 69.55 L 557.35 74.50 L 561.00 79.52 L 564.65 76.02 L 568.30 75.39 L 571.95 71.55 L 575.60 68.63 L 579.25 70.68 L 582.90 68.66 L 586.55 69.89 L 590.20 66.48 L 593.85 70.79 L 597.50 72.68 L 601.15 75.65 L 604.80 81.84 L 608.45 76.67 L 612.10 77.77 L 615.75 84.80 L 619.40 83.59 L 623.05 81.18 L 626.70 77.46 L 630.35 76.87 L 634.00 75.78 L 637.65 76.86 L 641.30 78.97 L 644.95 77.84 L 648.60 77.79 L 652.25 79.99 L 655.90 84.18 L 659.55 82.89 L 663.20 80.06 L 666.85 80.73 L 670.50 76.95 L 674.15 76.18 L 677.80 77.06 L 681.45 75.76 L 685.10 73.34 L 688.75 70.02 L 692.40 65.38 L 696.05 65.53 L 699.70 68.23 L 703.35 72.18 L 707.00 74.25 L 710.65 73.78 L 714.30 76.29 L 717.95 79.92 L 721.60 74.60 L 725.25 76.40 L 728.90 79.64 L 732.55 77.48 L 736.20 77.95 L 739.85 75.76 L 743.50 75.56 L 747.15 78.30 L 750.80 81.02 L 754.45 86.22 L 758.10 77.40 L 761.75 78.95 L 765.40 80.45 L 769.05 83.57 L 772.70 76.28 L 776.35 76.35 L 780.00 80.57" class="path-1" />
<path d="M 50.00 146.97 L 53.65 150.71 L 57.30 148.49 L 60.95 149.32 L 64.60 143.23 L 68.25 146.82 L 71.90 152.12 L 75.55 153.39 L 79.20 151.76 L 82.85 144.11 L 86.50 142.85 L 90.15 154.88 L 93.80 152.11 L 97.45 159.96 L 101.10 163.39 L 104.75 161.43 L 108.40 161.03 L 112.05 163.43 L 115.70 152.98 L 119.35 151.53 L 123.00 153.37 L 126.65 152.39 L 130.30 152.24 L 133.95 152.26 L 137.60 153.40 L 141.25 160.07 L 144.90 152.87 L 148.55 154.80 L 152.20 148.06 L 155.85 149.42 L 159.50 153.77 L 163.15 153.11 L 166.80 150.70 L 170.45 150.43 L 174.10 145.86 L 177.75 150.11 L 181.40 148.67 L 185.05 153.01 L 188.70 158.48 L 192.35 159.82 L 196.00 156.01 L 199.65 154.28 L 203.30 160.67 L 206.95 152.17 L 210.60 155.21 L 214.25 151.94 L 217.90 156.07 L 221.55 162.28 L 225.20 167.95 L 228.85 164.70 L 232.50 167.01 L 236.15 168.18 L 239.80 165.50 L 243.45 163.74 L 247.10 165.89 L 250.75 171.13 L 254.40 174.94 L 258.05 177.89 L 261.70 181.95 L 265.35 180.19 L 269.00 181.65 L 272.65 180.46 L 276.30 178.28 L 279.95 178.72 L 283.60 182.03 L 287.25 179.70 L 290.90 184.57 L 294.55 180.43 L 298.20 178.52 L 301.85 180.41 L 305.50 184.50 L 309.15 183.41 L 312.80 185.50 L 316.45 186.46 L 320.10 184.67 L 323.75 184.86 L 327.40 178.11 L 331.05 180.34 L 334.70 182.05 L 338.35 183.89 L 342.00 180.31 L 345.65 175.97 L 349.30 177.09 L 352.95 176.82 L 356.60 177.33 L 360.25 179.18 L 363.90 177.92 L 367.55 182.95 L 371.20 184.68 L 374.85 186.54 L 378.50 187.45 L 382.15 183.15 L 385.80 178.67 L 389.45 182.36 L 393.10 181.20 L 396.75 183.41 L 400.40 176.95 L 404.05 178.19 L 407.70 179.34 L 411.35 180.50 L 415.00 182.18 L 418.65 184.73 L 422.30 182.17 L 425.95 182.58 L 429.60 188.93 L 433.25 183.54 L 436.90 188.71 L 440.55 192.34 L 444.20 195.06 L 447.85 196.74 L 451.50 199.89 L 455.15 201.43 L 458.80 201.50 L 462.45 207.06 L 466.10 203.10 L 469.75 202.94 L 473.40 202.97 L 477.05 204.02 L 480.70 200.73 L 484.35 196.87 L 488.00 195.73 L 491.65 192.40 L 495.30 191.33 L 498.95 187.56 L 502.60 187.75 L 506.25 191.59 L 509.90 189.95 L 513.55 188.08 L 517.20 188.04 L 520.85 191.49 L 524.50 186.66 L 528.15 187.06 L 531.80 184.39 L 535.45 189.55 L 539.10 187.23 L 542.75 184.54 L 546.40 181.54 L 550.05 181.95 L 553.70 172.08 L 557.35 172.21 L 561.00 170.57 L 564.65 173.52 L 568.30 179.03 L 571.95 174.06 L 575.60 173.13 L 579.25 177.93 L 582.90 175.30 L 586.55 165.66 L 590.20 168.08 L 593.85 174.18 L 597.50 173.90 L 601.15 177.17 L 604.80 179.16 L 608.45 187.79 L 612.10 190.55 L 615.75 189.66 L 619.40 191.04 L 623.05 195.73 L 626.70 199.12 L 630.35 204.61 L 634.00 199.78 L 637.65 195.65 L 641.30 190.41 L 644.95 188.68 L 648.60 192.69 L 652.25 191.04 L 655.90 194.60 L 659.55 200.80 L 663.20 199.39 L 666.85 204.07 L 670.50 211.99 L 674.15 218.69 L 677.80 216.14 L 681.45 224.03 L 685.10 222.19 L 688.75 223.97 L 692.40 231.96 L 696.05 234.62 L 699.70 228.13 L 703.35 231.53 L 707.00 231.54 L 710.65 230.29 L 714.30 226.79 L 717.95 228.15 L 721.60 230.66 L 725.25 232.76 L 728.90 232.46 L 732.55 227.62 L 736.20 224.92 L 739.85 223.51 L 743.50 213.70 L 747.15 214.22 L 750.80 208.35 L 754.45 202.64 L 758.10 202.93 L 761.75 203.50 L 765.40 205.91 L 769.05 207.86 L 772.70 209.02 L 776.35 207.28 L 780.00 206.51" class="path-2" />
<path d="M 50.00 146.97 L 53.65 150.25 L 57.30 156.09 L 60.95 158.31 L 64.60 158.79 L 68.25 157.74 L 71.90 154.82 L 75.55 161.81 L 79.20 162.92 L 82.85 162.39 L 86.50 160.51 L 90.15 154.66 L 93.80 151.44 L 97.45 154.29 L 101.10 153.09 L 104.75 154.35 L 108.40 156.43 L 112.05 151.68 L 115.70 151.65 L 119.35 147.51 L 123.00 146.59 L 126.65 146.50 L 130.30 142.23 L 133.95 138.75 L 137.60 139.75 L 141.25 144.21 L 144.90 146.18 L 148.55 150.72 L 152.20 155.39 L 155.85 161.78 L 159.50 157.18 L 163.15 158.41 L 166.80 157.40 L 170.45 159.20 L 174.10 160.38 L 177.75 158.31 L 181.40 164.64 L 185.05 166.29 L 188.70 164.35 L 192.35 159.46 L 196.00 163.72 L 199.65 156.56 L 203.30 155.82 L 206.95 151.92 L 210.60 151.82 L 214.25 154.31 L 217.90 152.73 L 221.55 154.75 L 225.20 154.15 L 228.85 157.75 L 232.50 161.63 L 236.15 162.69 L 239.80 159.30 L 243.45 163.29 L 247.10 163.67 L 250.75 162.73 L 254.40 168.38 L 258.05 173.15 L 261.70 170.69 L 265.35 171.81 L 269.00 169.93 L 272.65 167.75 L 276.30 167.26 L 279.95 165.98 L 283.60 172.93 L 287.25 170.88 L 290.90 165.85 L 294.55 162.23 L 298.20 166.26 L 301.85 169.96 L 305.50 170.18 L 309.15 168.57 L 312.80 173.56 L 316.45 174.42 L 320.10 171.31 L 323.75 173.92 L 327.40 172.78 L 331.05 182.28 L 334.70 176.96 L 338.35 179.22 L 342.00 185.49 L 345.65 186.09 L 349.30 187.05 L 352.95 184.68 L 356.60 181.56 L 360.25 181.77 L 363.90 182.81 L 367.55 183.52 L 371.20 187.62 L 374.85 187.85 L 378.50 184.46 L 382.15 184.04 L 385.80 181.62 L 389.45 183.40 L 393.10 183.74 L 396.75 187.50 L 400.40 188.75 L 404.05 189.37 L 407.70 188.91 L 411.35 187.34 L 415.00 192.65 L 418.65 196.28 L 422.30 191.11 L 425.95 190.45 L 429.60 190.04 L 433.25 189.63 L 436.90 200.60 L 440.55 207.75 L 444.20 204.03 L 447.85 201.89 L 451.50 201.24 L 455.15 204.52 L 458.80 206.23 L 462.45 208.37 L 466.10 210.22 L 469.75 207.13 L 473.40 212.07 L 477.05 212.48 L 480.70 215.93 L 484.35 206.88 L 488.00 205.82 L 491.65 206.22 L 495.30 200.58 L 498.95 208.25 L 502.60 210.92 L 506.25 210.84 L 509.90 208.52 L 513.55 209.78 L 517.20 204.04 L 520.85 205.23 L 524.50 203.77 L 528.15 196.76 L 531.80 189.58 L 535.45 193.37 L 539.10 192.03 L 542.75 198.82 L 546.40 194.57 L 550.05 190.82 L 553.70 193.42 L 557.35 194.10 L 561.00 197.44 L 564.65 205.94 L 568.30 214.07 L 571.95 216.28 L 575.60 214.93 L 579.25 216.20 L 582.90 216.61 L 586.55 218.17 L 590.20 222.64 L 593.85 216.80 L 597.50 214.06 L 601.15 214.10 L 604.80 215.28 L 608.45 216.59 L 612.10 213.54 L 615.75 213.33 L 619.40 213.02 L 623.05 215.99 L 626.70 207.13 L 630.35 204.25 L 634.00 199.48 L 637.65 200.70 L 641.30 206.47 L 644.95 203.89 L 648.60 197.22 L 652.25 195.11 L 655.90 196.41 L 659.55 195.93 L 663.20 194.48 L 666.85 190.54 L 670.50 197.04 L 674.15 199.86 L 677.80 204.87 L 681.45 206.95 L 685.10 205.14 L 688.75 202.55 L 692.40 195.01 L 696.05 192.02 L 699.70 185.04 L 703.35 189.20 L 707.00 185.97 L 710.65 189.44 L 714.30 186.01 L 717.95 182.74 L 721.60 184.35 L 725.25 176.44 L 728.90 184.32 L 732.55 182.54 L 736.20 185.62 L 739.85 186.71 L 743.50 187.12 L 747.15 179.03 L 750.80 184.65 L 754.45 188.47 L 758.10 185.79 L 761.75 183.98 L 765.40 191.78 L 769.05 198.72 L 772.70 200.73 L 776.35 202.79 L 780.00 196.69" class="path-3" />
<path d="M 50.00 146.97 L 53.65 146.80 L 57.30 152.24 L 60.95 151.54 L 64.60 153.78 L 68.25 159.46 L 71.90 155.99 L 75.55 155.11 L 79.20 155.19 L 82.85 156.42 L 86.50 153.93 L 90.15 154.71 L 93.80 159.02 L 97.45 153.29 L 101.10 157.73 L 104.75 156.12 L 108.40 161.67 L 112.05 162.66 L 115.70 162.07 L 119.35 165.96 L 123.00 176.21 L 126.65 183.21 L 130.30 186.03 L 133.95 190.35 L 137.60 186.56 L 141.25 183.34 L 144.90 177.04 L 148.55 174.20 L 152.20 173.78 L 155.85 173.52 L 159.50 173.39 L 163.15 177.10 L 166.80 179.20 L 170.45 175.73 L 174.10 169.75 L 177.75 169.27 L 181.40 168.82 L 185.05 166.98 L 188.70 162.81 L 192.35 164.15 L 196.00 171.70 L 199.65 172.49 L 203.30 173.65 L 206.95 170.78 L 210.60 166.88 L 214.25 167.15 L 217.90 159.76 L 221.55 156.97 L 225.20 155.65 L 228.85 154.80 L 232.50 151.25 L 236.15 153.21 L 239.80 153.50 L 243.45 152.89 L 247.10 154.41 L 250.75 148.61 L 254.40 145.62 L 258.05 144.40 L 261.70 140.18 L 265.35 141.37 L 269.00 141.54 L 272.65 144.89 L 276.30 136.97 L 279.95 132.18 L 283.60 125.86 L 287.25 121.60 L 290.90 118.85 L 294.55 119.96 L 298.20 119.42 L 301.85 112.83 L 305.50 111.72 L 309.15 118.96 L 312.80 114.59 L 316.45 118.58 L 320.10 118.17 L 323.75 124.75 L 327.40 128.51 L 331.05 134.46 L 334.70 138.86 L 338.35 135.70 L 342.00 133.24 L 345.65 128.19 L 349.30 130.34 L 352.95 135.13 L 356.60 139.17 L 360.25 139.83 L 363.90 139.30 L 367.55 133.92 L 371.20 132.24 L 374.85 134.75 L 378.50 134.28 L 382.15 133.20 L 385.80 133.34 L 389.45 129.91 L 393.10 130.51 L 396.75 130.66 L 400.40 134.20 L 404.05 133.17 L 407.70 134.03 L 411.35 134.52 L 415.00 138.90 L 418.65 134.03 L 422.30 135.22 L 425.95 133.69 L 429.60 129.87 L 433.25 127.66 L 436.90 132.20 L 440.55 133.02 L 444.20 135.48 L 447.85 133.63 L 451.50 126.94 L 455.15 121.42 L 458.80 120.87 L 462.45 125.17 L 466.10 123.40 L 469.75 118.19 L 473.40 118.37 L 477.05 118.08 L 480.70 119.60 L 484.35 117.70 L 488.00 121.93 L 491.65 124.46 L 495.30 131.73 L 498.95 121.14 L 502.60 116.64 L 506.25 124.34 L 509.90 123.00 L 513.55 117.41 L 517.20 117.84 L 520.85 125.75 L 524.50 123.78 L 528.15 123.61 L 531.80 124.22 L 535.45 121.90 L 539.10 118.49 L 542.75 120.34 L 546.40 119.22 L 550.05 121.90 L 553.70 122.50 L 557.35 127.15 L 561.00 134.32 L 564.65 141.49 L 568.30 131.87 L 571.95 135.76 L 575.60 140.90 L 579.25 143.37 L 582.90 143.65 L 586.55 146.00 L 590.20 147.09 L 593.85 148.47 L 597.50 151.47 L 601.15 148.21 L 604.80 151.87 L 608.45 156.00 L 612.10 156.89 L 615.75 156.58 L 619.40 152.62 L 623.05 148.84 L 626.70 143.62 L 630.35 142.10 L 634.00 138.80 L 637.65 136.97 L 641.30 137.30 L 644.95 139.78 L 648.60 140.46 L 652.25 145.26 L 655.90 147.65 L 659.55 149.92 L 663.20 148.23 L 666.85 145.60 L 670.50 144.46 L 674.15 148.85 L 677.80 147.65 L 681.45 151.28 L 685.10 149.28 L 688.75 150.41 L 692.40 156.29 L 696.05 157.54 L 699.70 150.07 L 703.35 148.04 L 707.00 147.42 L 710.65 152.72 L 714.30 146.64 L 717.95 143.86 L 721.60 142.19 L 725.25 143.55 L 728.90 141.27 L 732.55 137.69 L 736.20 136.17 L 739.85 135.56 L 743.50 134.01 L 747.15 134.60 L 750.80 132.22 L 754.45 131.22 L 758.10 128.76 L 761.75 123.97 L 765.40 127.87 L 769.05 124.17 L 772.70 123.07 L 776.35 119.24 L 780.00 116.12" class="path-4" />
<line x1="50" y1="147.0" x2="780" y2="147.0" stroke="#4b5563" stroke-width="0.8" stroke-dasharray="6 3" />
</svg>