<svg xmlns="http://www.w3.org/2000/svg" viewBox="0 0 800 300" width="800" height="300">
<style>
.axis-line { stroke: #6b7280; stroke-width: 0.5; }
.axis-text { font-family: monospace; font-size: 11px; fill: #9ca3af; }
.title-text { font-family: monospace; font-size: 14px; fill: #d1d5db; font-weight: bold; }
.grid-line { stroke: #374151; stroke-width: 0.3; stroke-dasharray: 4 2; }
.path-0 { fill: none; stroke: #3b82f6; stroke-width: 2; stroke-linecap: round; opacity: 0.85; animation: draw-0 8s ease-in-out 0.0s infinite; stroke-dasharray: 1109; stroke-dashoffset: 1109;}
@keyframes draw-0 { 0% { stroke-dashoffset: 1109; } 38% { stroke-dashoffset: 0; } 62% { stroke-dashoffset: 0; } 100% { stroke-dashoffset: 1109; }}
.path-1 { fill: none; stroke: #ef4444; stroke-width: 2; stroke-linecap: round; opacity: 0.85; animation: draw-1 8s ease-in-out 0.4s infinite; stroke-dasharray: 1115; stroke-dashoffset: 1115;}
@keyframes draw-1 { 0% { stroke-dashoffset: 1115; } 38% { stroke-dashoffset: 0; } 62% { stroke-dashoffset: 0; } 100% { stroke-dashoffset: 1115; }}
.path-2 { fill: none; stroke: #22c55e; stroke-width: 2; stroke-linecap: round; opacity: 0.85; animation: draw-2 8s ease-in-out 0.8s infinite; stroke-dasharray: 1165; stroke-dashoffset: 1165;}
@keyframes draw-2 { 0% { stroke-dashoffset: 1165; } 38% { stroke-dashoffset: 0; } 62% { stroke-dashoffset: 0; } 100% { stroke-dashoffset: 1165; }}
.path-3 { fill: none; stroke: #f59e0b; stroke-width: 2; stroke-linecap: round; opacity: 0.85; animation: draw-3 8s ease-in-out 1.2000000000000002s infinite; stroke-dasharray: 1116; stroke-dashoffset: 1116;}
@keyframes draw-3 { 0% { stroke-dashoffset: 1116; } 38% { stroke-dashoffset: 0; } 62% { stroke-dashoffset: 0; } 100% { stroke-dashoffset: 1116; }}
.path-4 { fill: none; stroke: #a855f7; stroke-width: 2; stroke-linecap: round; opacity: 0.85; animation: draw-4 8s ease-in-out 1.6s infinite; stroke-dasharray: 1144; stroke-dashoffset: 1144;}
@keyframes draw-4 { 0% { stroke-dashoffset: 1144; } 38% { stroke-dashoffset: 0; } 62% { stroke-dashoffset: 0; } 100% { stroke-dashoffset: 1144; }}
</style>
<rect width="800" height="300" rx="8" fill="#0d1117" />
<line x1="50" y1="260.0" x2="780" y2="260.0" class="grid-line" />
<text x="44" y="264.0" text-anchor="end" class="axis-text">-1.2</text>
<line x1="50" y1="216.0" x2="780" y2="216.0" class="grid-line" />
<text x="44" y="220.0" text-anchor="end" class="axis-text">-0.5</text>
<line x1="50" y1="172.0" x2="780" y2="172.0" class="grid-line" />
<text x="44" y="176.0" text-anchor="end" class="axis-text">0.1</text>
<line x1="50" y1="128.0" x2="780" y2="128.0" class="grid-line" />
<text x="44" y="132.0" text-anchor="end" class="axis-text">0.7</text>
<line x1="50" y1="84.0" x2="780" y2="84.0" class="grid-line" />
<text x="44" y="88.0" text-anchor="end" class="axis-text">1.4</text>
<line x1="50" y1="40.0" x2="780" y2="40.0" class="grid-line" />
<text x="44" y="44.0" text-anchor="end" class="axis-text">2.0</text>
<line x1="50.0" y1="40" x2="50.0" y2="260" class="grid-line" />
<line x1="196.0" y1="40" x2="196.0" y2="260" class="grid-line" />
<line x1="342.0" y1="40" x2="342.0" y2="260" class="grid-line" />
<line x1="488.0" y1="40" x2="488.0" y2="260" class="grid-line" />
<line x1="634.0" y1="40" x2="634.0" y2="260" class="grid-line" />
<line x1="780.0" y1="40" x2="780.0" y2="260" class="grid-line" />
<line x1="50" y1="260" x2="780" y2="260" class="axis-line" />
<line x1="50" y1="40" x2="50" y2="260" class="axis-line" />
<text x="400.0" y="295" text-anchor="middle" class="axis-text">t</text>
<text x="12" y="150.0" text-anchor="middle" class="axis-text" transform="rotate(-90 12 150.0)">W(t)</text>
<text x="400.0" y="22" text-anchor="middle" class="title-text">Brownian Motion</text>
<path d="M 50.00 178.93 L 53.65 178.19 L 57.30 180.16 L 60.95 183.13 L 64.60 180.12 L 68.25 173.10 L 71.90 162.14 L 75.55 172.57 L 79.20 165.68 L 82.85 170.98 L 86.50 170.14 L 90.15 170.37 L 93.80 169.76 L 97.45 170.38 L 101.10 170.64 L 104.75 177.21 L 108.40 180.32 L 112.05 179.64 L 115.70 191.12 L 119.35 194.13 L 123.00 188.87 L 126.65 193.61 L 130.30 193.58 L 133.95 184.99 L 137.60 185.81 L 141.25 183.83 L 144.90 182.39 L 148.55 189.20 L 152.20 187.69 L 155.85 187.70 L 159.50 186.74 L 163.15 187.73 L 166.80 186.38 L 170.45 198.94 L 174.10 195.67 L 177.75 195.18 L 181.40 195.93 L 185.05 191.63 L 188.70 191.61 L 192.35 193.61 L 196.00 187.01 L 199.65 175.72 L 203.30 183.63 L 206.95 180.49 L 210.60 181.72 L 214.25 184.99 L 217.90 185.29 L 221.55 186.95 L 225.20 186.76 L 228.85 188.49 L 232.50 186.20 L 236.15 187.68 L 239.80 185.27 L 243.45 184.89 L 247.10 176.51 L 250.75 171.92 L 254.40 174.35 L 258.05 171.43 L 261.70 176.79 L 265.35 177.38 L 269.00 166.51 L 272.65 173.82 L 276.30 174.41 L 279.95 172.95 L 283.60 170.75 L 287.25 162.99 L 290.90 160.36 L 294.55 162.50 L 298.20 162.35 L 301.85 161.65 L 305.50 165.78 L 309.15 169.68 L 312.80 171.14 L 316.45 167.08 L 320.10 163.70 L 323.75 164.72 L 327.40 165.29 L 331.05 158.37 L 334.70 164.21 L 338.35 165.31 L 342.00 165.76 L 345.65 171.39 L 349.30 172.53 L 352.95 177.35 L 356.60 178.48 L 360.25 175.36 L 363.90 172.81 L 367.55 179.56 L 371.20 179.09 L 374.85 179.26 L 378.50 187.72 L 382.15 187.47 L 385.80 187.62 L 389.45 191.19 L 393.10 192.03 L 396.75 197.14 L 400.40 188.51 L 404.05 188.41 L 407.70 186.52 L 411.35 175.28 L 415.00 176.55 L 418.65 177.97 L 422.30 177.68 L 425.95 178.39 L 429.60 173.29 L 433.25 174.72 L 436.90 169.38 L 440.55 167.34 L 444.20 161.97 L 447.85 162.67 L 451.50 162.93 L 455.15 167.61 L 458.80 169.46 L 462.45 165.64 L 466.10 164.44 L 469.75 155.91 L 473.40 155.79 L 477.05 156.90 L 480.70 149.78 L 484.35 151.69 L 488.00 149.49 L 491.65 143.97 L 495.30 138.29 L 498.95 128.01 L 502.60 121.40 L 506.25 127.88 L 509.90 125.67 L 513.55 127.14 L 517.20 131.55 L 520.85 123.78 L 524.50 115.51 L 528.15 117.28 L 531.80 119.06 L 535.45 121.15 L 539.10 122.10 L 542.75 124.08 L 546.40 121.67 L 550.05 128.53 L 553.70 126.01 L 557.35 129.45 L 561.00 127.44 L 564.65 125.72 L 568.30 122.72 L 571.95 122.49 L 575.60 113.11 L 579.25 113.29 L 582.90 116.97 L 586.55 111.13 L 590.20 113.77 L 593.85 113.44 L 597.50 119.94 L 601.15 116.44 L 604.80 119.55 L 608.45 123.99 L 612.10 125.06 L 615.75 128.15 L 619.40 134.88 L 623.05 140.86 L 626.70 137.92 L 630.35 147.32 L 634.00 146.31 L 637.65 147.65 L 641.30 144.61 L 644.95 146.30 L 648.60 150.97 L 652.25 151.34 L 655.90 156.69 L 659.55 150.70 L 663.20 147.35 L 666.85 156.39 L 670.50 158.30 L 674.15 162.85 L 677.80 165.74 L 681.45 169.38 L 685.10 175.65 L 688.75 181.51 L 692.40 189.46 L 696.05 187.66 L 699.70 193.59 L 703.35 196.68 L 707.00 195.58 L 710.65 203.31 L 714.30 197.82 L 717.95 200.83 L 721.60 193.95 L 725.25 190.11 L 728.90 182.48 L 732.55 173.05 L 736.20 181.81 L 739.85 179.62 L 743.50 180.52 L 747.15 178.97 L 750.80 179.75 L 754.45 178.19 L 758.10 182.91 L 761.75 183.41 L 765.40 188.42 L 769.05 187.96 L 772.70 190.30 L 776.35 193.17 L 780.00 199.50" class="path-0" />
<path d="M 50.00 178.93 L 53.65 170.96 L 57.30 175.06 L 60.95 178.58 L 64.60 180.87 L 68.25 181.57 L 71.90 182.51 L 75.55 180.93 L 79.20 176.63 L 82.85 168.14 L 86.50 169.94 L 90.15 174.27 L 93.80 174.79 L 97.45 174.35 L 101.10 171.76 L 104.75 171.49 L 108.40 167.49 L 112.05 173.25 L 115.70 176.21 L 119.35 176.49 L 123.00 174.61 L 126.65 173.88 L 130.30 169.01 L 133.95 166.31 L 137.60 159.86 L 141.25 162.03 L 144.90 158.05 L 148.55 158.82 L 152.20 165.49 L 155.85 168.95 L 159.50 174.07 L 163.15 165.71 L 166.80 163.09 L 170.45 158.97 L 174.10 157.74 L 177.75 152.07 L 181.40 154.35 L 185.05 150.50 L 188.70 147.11 L 192.35 155.37 L 196.00 157.98 L 199.65 156.05 L 203.30 153.40 L 206.95 152.18 L 210.60 156.63 L 214.25 151.72 L 217.90 148.10 L 221.55 154.49 L 225.20 152.58 L 228.85 145.12 L 232.50 148.64 L 236.15 144.09 L 239.80 150.96 L 243.45 146.28 L 247.10 143.83 L 250.75 147.45 L 254.40 146.06 L 258.05 153.26 L 261.70 158.07 L 265.35 153.24 L 269.00 150.00 L 272.65 147.29 L 276.30 146.00 L 279.95 143.04 L 283.60 134.33 L 287.25 139.72 L 290.90 144.37 L 294.55 142.68 L 298.20 141.59 L 301.85 140.71 L 305.50 146.42 L 309.15 155.00 L 312.80 152.38 L 316.45 154.97 L 320.10 146.27 L 323.75 146.52 L 327.40 143.37 L 331.05 148.39 L 334.70 152.99 L 338.35 151.53 L 342.00 147.25 L 345.65 144.77 L 349.30 140.91 L 352.95 131.03 L 356.60 132.18 L 360.25 130.19 L 363.90 135.04 L 367.55 137.58 L 371.20 137.83 L 374.85 135.79 L 378.50 137.18 L 382.15 132.56 L 385.80 132.31 L 389.45 135.62 L 393.10 135.35 L 396.75 134.12 L 400.40 129.66 L 404.05 126.97 L 407.70 128.63 L 411.35 123.39 L 415.00 117.98 L 418.65 112.55 L 422.30 117.61 L 425.95 118.71 L 429.60 120.43 L 433.25 115.75 L 436.90 108.79 L 440.55 117.01 L 444.20 120.29 L 447.85 117.84 L 451.50 121.63 L 455.15 128.04 L 458.80 131.58 L 462.45 134.54 L 466.10 139.38 L 469.75 128.73 L 473.40 135.10 L 477.05 131.74 L 480.70 129.77 L 484.35 133.24 L 488.00 134.64 L 491.65 127.55 L 495.30 131.75 L 498.95 128.02 L 502.60 123.07 L 506.25 127.68 L 509.90 127.82 L 513.55 131.55 L 517.20 126.45 L 520.85 123.18 L 524.50 130.31 L 528.15 133.02 L 531.80 132.94 L 535.45 141.85 L 539.10 142.45 L 542.75 139.52 L 546.40 140.03 L 550.05 144.97 L 553.70 149.29 L 557.35 153.30 L 561.00 157.50 L 564.65 145.75 L 568.30 143.43 L 571.95 135.41 L 575.60 125.40 L 579.25 129.75 L 582.90 131.64 L 586.55 137.28 L 590.20 132.87 L 593.85 132.55 L 597.50 129.35 L 601.15 134.43 L 604.80 133.93 L 608.45 126.95 L 612.10 122.11 L 615.75 118.12 L 619.40 122.51 L 623.05 134.35 L 626.70 131.23 L 630.35 131.97 L 634.00 129.79 L 637.65 127.73 L 641.30 125.10 L 644.95 119.61 L 648.60 120.60 L 652.25 118.31 L 655.90 124.19 L 659.55 122.82 L 663.20 122.28 L 666.85 119.63 L 670.50 120.65 L 674.15 115.58 L 677.80 112.80 L 681.45 122.74 L 685.10 122.68 L 688.75 125.04 L 692.40 121.04 L 696.05 121.07 L 699.70 110.01 L 703.35 111.97 L 707.00 111.97 L 710.65 109.06 L 714.30 106.72 L 717.95 108.45 L 721.60 105.53 L 725.25 106.39 L 728.90 104.29 L 732.55 101.68 L 736.20 108.21 L 739.85 104.56 L 743.50 96.22 L 747.15 94.56 L 750.80 94.43 L 754.45 89.67 L 758.10 82.09 L 761.75 69.31 L 765.40 65.38 L 769.05 69.35 L 772.70 67.99 L 776.35 68.92 L 780.00 70.28" class="path-1" />
<path d="M 50.00 178.93 L 53.65 177.17 L 57.30 167.67 L 60.95 164.71 L 64.60 158.72 L 68.25 152.34 L 71.90 145.78 L 75.55 142.26 L 79.20 140.59 L 82.85 149.46 L 86.50 154.75 L 90.15 157.26 L 93.80 156.73 L 97.45 163.34 L 101.10 165.14 L 104.75 163.26 L 108.40 166.11 L 112.05 166.65 L 115.70 162.03 L 119.35 156.77 L 123.00 164.56 L 126.65 162.30 L 130.30 157.67 L 133.95 169.04 L 137.60 181.28 L 141.25 175.19 L 144.90 162.63 L 148.55 163.03 L 152.20 158.01 L 155.85 155.36 L 159.50 158.64 L 163.15 158.21 L 166.80 155.07 L 170.45 155.57 L 174.10 159.65 L 177.75 161.44 L 181.40 165.12 L 185.05 163.69 L 188.70 159.29 L 192.35 156.38 L 196.00 160.09 L 199.65 159.22 L 203.30 159.60 L 206.95 160.38 L 210.60 161.64 L 214.25 163.19 L 217.90 164.35 L 221.55 167.17 L 225.20 168.70 L 228.85 166.75 L 232.50 169.70 L 236.15 164.86 L 239.80 158.67 L 243.45 165.34 L 247.10 164.09 L 250.75 160.16 L 254.40 160.28 L 258.05 159.98 L 261.70 166.81 L 265.35 166.06 L 269.00 162.30 L 272.65 152.67 L 276.30 153.38 L 279.95 145.20 L 283.60 140.20 L 287.25 145.20 L 290.90 143.40 L 294.55 149.01 L 298.20 158.52 L 301.85 157.61 L 305.50 160.73 L 309.15 152.76 L 312.80 151.82 L 316.45 147.57 L 320.10 150.24 L 323.75 151.13 L 327.40 152.86 L 331.05 152.86 L 334.70 152.40 L 338.35 154.66 L 342.00 161.67 L 345.65 166.05 L 349.30 175.94 L 352.95 171.33 L 356.60 172.76 L 360.25 171.39 L 363.90 171.28 L 367.55 170.94 L 371.20 168.01 L 374.85 158.29 L 378.50 148.55 L 382.15 146.30 L 385.80 145.72 L 389.45 139.70 L 393.10 132.04 L 396.75 133.78 L 400.40 132.01 L 404.05 138.16 L 407.70 140.77 L 411.35 137.45 L 415.00 135.39 L 418.65 137.44 L 422.30 138.09 L 425.95 132.25 L 429.60 132.12 L 433.25 134.12 L 436.90 122.75 L 440.55 116.85 L 444.20 113.60 L 447.85 108.03 L 451.50 122.34 L 455.15 128.08 L 458.80 126.57 L 462.45 125.25 L 466.10 122.25 L 469.75 116.20 L 473.40 117.68 L 477.05 116.62 L 480.70 110.30 L 484.35 101.72 L 488.00 111.56 L 491.65 105.25 L 495.30 107.85 L 498.95 111.03 L 502.60 116.01 L 506.25 124.45 L 509.90 121.55 L 513.55 125.66 L 517.20 127.12 L 520.85 120.58 L 524.50 116.08 L 528.15 128.41 L 531.80 124.70 L 535.45 124.24 L 539.10 129.43 L 542.75 132.78 L 546.40 136.29 L 550.05 136.00 L 553.70 143.20 L 557.35 146.12 L 561.00 134.94 L 564.65 135.66 L 568.30 145.05 L 571.95 136.74 L 575.60 140.02 L 579.25 139.91 L 582.90 146.97 L 586.55 148.12 L 590.20 140.21 L 593.85 145.01 L 597.50 149.99 L 601.15 147.95 L 604.80 139.03 L 608.45 148.76 L 612.10 144.86 L 615.75 148.71 L 619.40 139.25 L 623.05 141.17 L 626.70 144.01 L 630.35 146.74 L 634.00 149.13 L 637.65 147.45 L 641.30 147.69 L 644.95 146.84 L 648.60 150.26 L 652.25 153.79 L 655.90 147.65 L 659.55 148.99 L 663.20 151.50 L 666.85 148.15 L 670.50 149.37 L 674.15 155.33 L 677.80 164.45 L 681.45 150.87 L 685.10 156.88 L 688.75 154.79 L 692.40 154.76 L 696.05 154.92 L 699.70 152.98 L 703.35 158.07 L 707.00 155.01 L 710.65 156.42 L 714.30 159.63 L 717.95 160.57 L 721.60 164.05 L 725.25 170.21 L 728.90 163.93 L 732.55 161.56 L 736.20 160.21 L 739.85 159.46 L 743.50 154.29 L 747.15 157.52 L 750.80 157.69 L 754.45 151.90 L 758.10 152.04 L 761.75 151.52 L 765.40 154.53 L 769.05 153.40 L 772.70 148.60 L 776.35 141.48 L 780.00 140.72" class="path-2" />
<path d="M 50.00 178.93 L 53.65 170.64 L 57.30 179.97 L 60.95 177.52 L 64.60 178.98 L 68.25 187.16 L 71.90 186.43 L 75.55 186.66 L 79.20 183.99 L 82.85 188.62 L 86.50 185.20 L 90.15 182.81 L 93.80 182.71 L 97.45 184.53 L 101.10 186.49 L 104.75 184.19 L 108.40 186.40 L 112.05 189.12 L 115.70 187.37 L 119.35 195.43 L 123.00 193.29 L 126.65 195.33 L 130.30 195.07 L 133.95 188.17 L 137.60 184.77 L 141.25 170.79 L 144.90 179.53 L 148.55 186.15 L 152.20 191.34 L 155.85 181.16 L 159.50 170.45 L 163.15 172.53 L 166.80 175.81 L 170.45 180.83 L 174.10 180.32 L 177.75 180.90 L 181.40 189.43 L 185.05 189.19 L 188.70 187.64 L 192.35 187.42 L 196.00 185.54 L 199.65 182.53 L 203.30 178.64 L 206.95 181.05 L 210.60 175.91 L 214.25 173.69 L 217.90 171.08 L 221.55 172.30 L 225.20 169.85 L 228.85 164.94 L 232.50 174.33 L 236.15 177.93 L 239.80 183.42 L 243.45 179.24 L 247.10 178.84 L 250.75 174.92 L 254.40 182.35 L 258.05 190.22 L 261.70 190.98 L 265.35 192.65 L 269.00 190.50 L 272.65 187.50 L 276.30 193.40 L 279.95 194.16 L 283.60 184.82 L 287.25 184.15 L 290.90 187.20 L 294.55 194.39 L 298.20 194.16 L 301.85 207.45 L 305.50 208.79 L 309.15 206.32 L 312.80 206.44 L 316.45 211.68 L 320.10 212.25 L 323.75 210.34 L 327.40 213.38 L 331.05 209.49 L 334.70 210.97 L 338.35 208.59 L 342.00 205.78 L 345.65 205.68 L 349.30 213.07 L 352.95 216.38 L 356.60 220.35 L 360.25 209.82 L 363.90 210.92 L 367.55 204.24 L 371.20 210.72 L 374.85 213.60 L 378.50 218.79 L 382.15 210.66 L 385.80 215.50 L 389.45 222.40 L 393.10 226.06 L 396.75 230.61 L 400.40 229.76 L 404.05 234.62 L 407.70 230.50 L 411.35 229.60 L 415.00 231.20 L 418.65 228.95 L 422.30 225.11 L 425.95 214.94 L 429.60 215.69 L 433.25 218.55 L 436.90 218.04 L 440.55 216.72 L 444.20 212.84 L 447.85 204.99 L 451.50 208.93 L 455.15 210.93 L 458.80 209.45 L 462.45 208.98 L 466.10 200.57 L 469.75 195.89 L 473.40 202.64 L 477.05 199.31 L 480.70 204.14 L 484.35 202.09 L 488.00 202.27 L 491.65 199.28 L 495.30 191.54 L 498.95 186.41 L 502.60 186.24 L 506.25 190.45 L 509.90 194.41 L 513.55 198.23 L 517.20 191.43 L 520.85 196.76 L 524.50 189.30 L 528.15 183.25 L 531.80 178.57 L 535.45 176.20 L 539.10 167.48 L 542.75 170.85 L 546.40 183.97 L 550.05 182.96 L 553.70 179.63 L 557.35 180.61 L 561.00 181.53 L 564.65 181.58 L 568.30 176.09 L 571.95 182.52 L 575.60 188.72 L 579.25 187.76 L 582.90 195.33 L 586.55 194.79 L 590.20 189.48 L 593.85 181.86 L 597.50 179.34 L 601.15 174.13 L 604.80 177.23 L 608.45 181.23 L 612.10 180.19 L 615.75 179.41 L 619.40 177.71 L 623.05 179.89 L 626.70 179.06 L 630.35 183.07 L 634.00 180.78 L 637.65 182.00 L 641.30 181.46 L 644.95 183.08 L 648.60 178.37 L 652.25 181.91 L 655.90 176.43 L 659.55 177.84 L 663.20 174.70 L 666.85 172.67 L 670.50 167.69 L 674.15 163.82 L 677.80 163.74 L 681.45 161.98 L 685.10 163.63 L 688.75 159.42 L 692.40 159.22 L 696.05 159.14 L 699.70 155.09 L 703.35 157.00 L 707.00 156.18 L 710.65 162.77 L 714.30 157.19 L 717.95 162.82 L 721.60 164.94 L 725.25 166.64 L 728.90 163.40 L 732.55 160.11 L 736.20 158.83 L 739.85 161.15 L 743.50 160.67 L 747.15 164.31 L 750.80 162.94 L 754.45 159.93 L 758.10 151.46 L 761.75 154.01 L 765.40 158.10 L 769.05 152.36 L 772.70 148.71 L 776.35 152.70 L 780.00 150.04" class="path-3" />
<path d="M 50.00 178.93 L 53.65 170.79 L 57.30 166.74 L 60.95 166.68 L 64.60 172.27 L 68.25 173.62 L 71.90 171.67 L 75.55 177.31 L 79.20 182.41 L 82.85 177.19 L 86.50 167.85 L 90.15 167.35 L 93.80 164.06 L 97.45 161.90 L 101.10 167.62 L 104.75 164.99 L 108.40 163.82 L 112.05 157.52 L 115.70 148.39 L 119.35 150.36 L 123.00 152.04 L 126.65 150.49 L 130.30 149.75 L 133.95 155.44 L 137.60 149.56 L 141.25 139.82 L 144.90 143.06 L 148.55 144.97 L 152.20 143.22 L 155.85 148.49 L 159.50 143.15 L 163.15 143.23 L 166.80 150.89 L 170.45 147.74 L 174.10 148.97 L 177.75 149.96 L 181.40 146.98 L 185.05 149.22 L 188.70 149.58 L 192.35 144.42 L 196.00 147.90 L 199.65 148.00 L 203.30 144.40 L 206.95 139.86 L 210.60 143.00 L 214.25 144.36 L 217.90 133.16 L 221.55 148.63 L 225.20 143.25 L 228.85 144.07 L 232.50 140.52 L 236.15 140.25 L 239.80 143.97 L 243.45 153.72 L 247.10 162.65 L 250.75 167.60 L 254.40 169.79 L 258.05 172.60 L 261.70 163.72 L 265.35 165.08 L 269.00 172.99 L 272.65 177.72 L 276.30 171.96 L 279.95 176.68 L 283.60 173.72 L 287.25 175.41 L 290.90 174.14 L 294.55 174.87 L 298.20 173.95 L 301.85 180.33 L 305.50 171.36 L 309.15 167.42 L 312.80 164.99 L 316.45 166.30 L 320.10 161.97 L 323.75 161.20 L 327.40 159.65 L 331.05 160.50 L 334.70 162.79 L 338.35 166.36 L 342.00 167.71 L 345.65 157.77 L 349.30 152.93 L 352.95 160.14 L 356.60 156.21 L 360.25 150.25 L 363.90 145.52 L 367.55 143.99 L 371.20 138.29 L 374.85 142.18 L 378.50 145.46 L 382.15 147.93 L 385.80 147.68 L 389.45 153.66 L 393.10 149.33 L 396.75 154.56 L 400.40 150.48 L 404.05 144.78 L 407.70 143.07 L 411.35 143.30 L 415.00 143.24 L 418.65 139.05 L 422.30 126.85 L 425.95 124.22 L 429.60 128.72 L 433.25 124.10 L 436.90 121.63 L 440.55 123.29 L 444.20 127.81 L 447.85 128.82 L 451.50 127.38 L 455.15 120.25 L 458.80 123.51 L 462.45 125.28 L 466.10 119.96 L 469.75 122.84 L 473.40 118.50 L 477.05 121.64 L 480.70 123.94 L 484.35 120.33 L 488.00 122.96 L 491.65 124.07 L 495.30 123.33 L 498.95 121.28 L 502.60 123.91 L 506.25 123.55 L 509.90 129.95 L 513.55 128.59 L 517.20 134.26 L 520.85 135.86 L 524.50 132.81 L 528.15 132.68 L 531.80 138.50 L 535.45 133.88 L 539.10 132.37 L 542.75 130.17 L 546.40 125.50 L 550.05 127.25 L 553.70 135.81 L 557.35 134.70 L 561.00 121.83 L 564.65 125.39 L 568.30 129.37 L 571.95 126.40 L 575.60 126.66 L 579.25 129.54 L 582.90 126.86 L 586.55 131.58 L 590.20 133.11 L 593.85 136.71 L 597.50 125.74 L 601.15 126.58 L 604.80 129.83 L 608.45 130.49 L 612.10 129.98 L 615.75 131.67 L 619.40 140.21 L 623.05 140.30 L 626.70 137.86 L 630.35 136.17 L 634.00 141.18 L 637.65 151.78 L 641.30 152.96 L 644.95 151.31 L 648.60 152.33 L 652.25 154.78 L 655.90 153.13 L 659.55 155.17 L 663.20 150.59 L 666.85 144.61 L 670.50 137.34 L 674.15 137.84 L 677.80 142.39 L 681.45 149.39 L 685.10 138.84 L 688.75 140.36 L 692.40 135.19 L 696.05 143.48 L 699.70 145.82 L 703.35 148.38 L 707.00 154.78 L 710.65 158.27 L 714.30 159.16 L 717.95 159.74 L 721.60 157.16 L 725.25 160.49 L 728.90 165.50 L 732.55 172.69 L 736.20 163.67 L 739.85 171.31 L 743.50 169.08 L 747.15 166.04 L 750.80 163.10 L 754.45 166.49 L 758.10 163.76 L 761.75 162.30 L 765.40 172.96 L 769.05 167.61 L 772.70 175.69 L 776.35 174.12 L 780.00 188.07" class="path-4" />
<line x1="50" y1="178.9" x2="780" y2="178.9" stroke="#4b5563" stroke-width="0.8" stroke-dasharray="6 3" />
</svg>