<svg xmlns="http://www.w3.org/2000/svg" viewBox="0 0 800 300" width="800" height="300">
<style>
.axis-line { stroke: #6b7280; stroke-width: 0.5; }
.axis-text { font-family: monospace; font-size: 11px; fill: #9ca3af; }
.title-text { font-family: monospace; font-size: 14px; fill: #d1d5db; font-weight: bold; }
.grid-line { stroke: #374151; stroke-width: 0.3; stroke-dasharray: 4 2; }
.path-0 { fill: none; stroke: #3b82f6; stroke-width: 2; stroke-linecap: round; opacity: 0.85; animation: draw-0 8s ease-in-out 0.0s infinite; stroke-dasharray: 952; stroke-dashoffset: 952;}
@keyframes draw-0 { 0% { stroke-dashoffset: 952; } 38% { stroke-dashoffset: 0; } 62% { stroke-dashoffset: 0; } 100% { stroke-dashoffset: 952; }}
.path-1 { fill: none; stroke: #ef4444; stroke-width: 2; stroke-linecap: round; opacity: 0.85; animation: draw-1 8s ease-in-out 0.4s infinite; stroke-dasharray: 926; stroke-dashoffset: 926;}
@keyframes draw-1 { 0% { stroke-dashoffset: 926; } 38% { stroke-dashoffset: 0; } 62% { stroke-dashoffset: 0; } 100% { stroke-dashoffset: 926; }}
.path-2 { fill: none; stroke: #22c55e; stroke-width: 2; stroke-linecap: round; opacity: 0.85; animation: draw-2 8s ease-in-out 0.8s infinite; stroke-dasharray: 948; stroke-dashoffset: 948;}
@keyframes draw-2 { 0% { stroke-dashoffset: 948; } 38% { stroke-dashoffset: 0; } 62% { stroke-dashoffset: 0; } 100% { stroke-dashoffset: 948; }}
.path-3 { fill: none; stroke: #f59e0b; stroke-width: 2; stroke-linecap: round; opacity: 0.85; animation: draw-3 8s ease-in-out 1.2000000000000002s infinite; stroke-dasharray: 971; stroke-dashoffset: 971;}
@keyframes draw-3 { 0% { stroke-dashoffset: 971; } 38% { stroke-dashoffset: 0; } 62% { stroke-dashoffset: 0; } 100% { stroke-dashoffset: 971; }}
.path-4 { fill: none; stroke: #a855f7; stroke-width: 2; stroke-linecap: round; opacity: 0.85; animation: draw-4 8s ease-in-out 1.6s infinite; stroke-dasharray: 911; stroke-dashoffset: 911;}
@keyframes draw-4 { 0% { stroke-dashoffset: 911; } 38% { stroke-dashoffset: 0; } 62% { stroke-dashoffset: 0; } 100% { stroke-dashoffset: 911; }}
</style>
<rect width="800" height="300" rx="8" fill="#0d1117" />
<line x1="50" y1="260.0" x2="780" y2="260.0" class="grid-line" />
<text x="44" y="264.0" text-anchor="end" class="axis-text">-2.6</text>
<line x1="50" y1="216.0" x2="780" y2="216.0" class="grid-line" />
<text x="44" y="220.0" text-anchor="end" class="axis-text">-1.6</text>
<line x1="50" y1="172.0" x2="780" y2="172.0" class="grid-line" />
<text x="44" y="176.0" text-anchor="end" class="axis-text">-0.6</text>
<line x1="50" y1="128.0" x2="780" y2="128.0" class="grid-line" />
<text x="44" y="132.0" text-anchor="end" class="axis-text">0.4</text>
<line x1="50" y1="84.0" x2="780" y2="84.0" class="grid-line" />
<text x="44" y="88.0" text-anchor="end" class="axis-text">1.5</text>
<line x1="50" y1="40.0" x2="780" y2="40.0" class="grid-line" />
<text x="44" y="44.0" text-anchor="end" class="axis-text">2.5</text>
<line x1="50.0" y1="40" x2="50.0" y2="260" class="grid-line" />
<line x1="196.0" y1="40" x2="196.0" y2="260" class="grid-line" />
<line x1="342.0" y1="40" x2="342.0" y2="260" class="grid-line" />
<line x1="488.0" y1="40" x2="488.0" y2="260" class="grid-line" />
<line x1="634.0" y1="40" x2="634.0" y2="260" class="grid-line" />
<line x1="780.0" y1="40" x2="780.0" y2="260" class="grid-line" />
<line x1="50" y1="260" x2="780" y2="260" class="axis-line" />
<line x1="50" y1="40" x2="50" y2="260" class="axis-line" />
<text x="400.0" y="295" text-anchor="middle" class="axis-text">t</text>
<text x="12" y="150.0" text-anchor="middle" class="axis-text" transform="rotate(-90 12 150.0)">W(t)</text>
<text x="400.0" y="22" text-anchor="middle" class="title-text">Brownian Motion</text>
<path d="M 50.00 147.12 L 53.65 146.31 L 57.30 149.18 L 60.95 153.04 L 64.60 154.21 L 68.25 154.96 L 71.90 154.76 L 75.55 147.22 L 79.20 144.69 L 82.85 146.23 L 86.50 146.63 L 90.15 148.90 L 93.80 147.22 L 97.45 148.23 L 101.10 145.09 L 104.75 149.80 L 108.40 152.62 L 112.05 149.70 L 115.70 140.48 L 119.35 135.88 L 123.00 130.48 L 126.65 132.94 L 130.30 134.36 L 133.95 129.02 L 137.60 129.03 L 141.25 133.16 L 144.90 132.72 L 148.55 132.66 L 152.20 131.20 L 155.85 126.70 L 159.50 124.01 L 163.15 125.17 L 166.80 123.05 L 170.45 121.80 L 174.10 123.85 L 177.75 123.00 L 181.40 126.15 L 185.05 125.85 L 188.70 129.14 L 192.35 127.44 L 196.00 127.71 L 199.65 132.11 L 203.30 127.64 L 206.95 127.57 L 210.60 128.36 L 214.25 134.37 L 217.90 134.73 L 221.55 133.05 L 225.20 130.97 L 228.85 126.94 L 232.50 129.70 L 236.15 128.82 L 239.80 127.19 L 243.45 130.55 L 247.10 130.50 L 250.75 128.69 L 254.40 130.19 L 258.05 129.61 L 261.70 122.51 L 265.35 126.26 L 269.00 121.75 L 272.65 127.30 L 276.30 126.35 L 279.95 127.56 L 283.60 126.44 L 287.25 123.81 L 290.90 122.20 L 294.55 120.16 L 298.20 114.13 L 301.85 111.15 L 305.50 111.42 L 309.15 115.87 L 312.80 115.00 L 316.45 112.47 L 320.10 111.14 L 323.75 111.15 L 327.40 109.10 L 331.05 106.29 L 334.70 106.03 L 338.35 103.12 L 342.00 100.20 L 345.65 99.11 L 349.30 95.29 L 352.95 94.83 L 356.60 97.63 L 360.25 96.17 L 363.90 97.60 L 367.55 99.58 L 371.20 98.02 L 374.85 106.62 L 378.50 104.86 L 382.15 97.88 L 385.80 92.36 L 389.45 96.89 L 393.10 96.60 L 396.75 95.94 L 400.40 90.26 L 404.05 88.52 L 407.70 92.00 L 411.35 90.38 L 415.00 92.14 L 418.65 86.04 L 422.30 88.76 L 425.95 86.65 L 429.60 91.82 L 433.25 91.67 L 436.90 95.73 L 440.55 99.56 L 444.20 97.73 L 447.85 97.18 L 451.50 95.36 L 455.15 93.33 L 458.80 89.26 L 462.45 88.97 L 466.10 90.77 L 469.75 86.25 L 473.40 89.60 L 477.05 91.75 L 480.70 92.32 L 484.35 91.07 L 488.00 86.27 L 491.65 84.97 L 495.30 81.75 L 498.95 75.68 L 502.60 73.12 L 506.25 72.83 L 509.90 72.81 L 513.55 72.46 L 517.20 65.45 L 520.85 67.20 L 524.50 65.74 L 528.15 65.38 L 531.80 67.43 L 535.45 65.56 L 539.10 66.86 L 542.75 74.34 L 546.40 72.32 L 550.05 71.59 L 553.70 71.11 L 557.35 76.69 L 561.00 75.36 L 564.65 73.76 L 568.30 74.14 L 571.95 69.23 L 575.60 69.26 L 579.25 66.35 L 582.90 68.59 L 586.55 69.53 L 590.20 72.56 L 593.85 71.75 L 597.50 71.04 L 601.15 70.27 L 604.80 72.55 L 608.45 73.91 L 612.10 70.91 L 615.75 74.05 L 619.40 74.98 L 623.05 84.36 L 626.70 79.97 L 630.35 84.03 L 634.00 85.69 L 637.65 86.46 L 641.30 85.17 L 644.95 85.38 L 648.60 87.09 L 652.25 82.56 L 655.90 79.76 L 659.55 79.82 L 663.20 79.91 L 666.85 79.67 L 670.50 76.20 L 674.15 78.10 L 677.80 77.34 L 681.45 82.88 L 685.10 86.18 L 688.75 84.75 L 692.40 85.96 L 696.05 87.38 L 699.70 90.86 L 703.35 94.10 L 707.00 85.94 L 710.65 90.13 L 714.30 88.37 L 717.95 85.30 L 721.60 82.47 L 725.25 88.48 L 728.90 83.19 L 732.55 85.52 L 736.20 91.49 L 739.85 88.61 L 743.50 92.07 L 747.15 88.91 L 750.80 85.65 L 754.45 82.40 L 758.10 80.98 L 761.75 78.90 L 765.40 74.06 L 769.05 73.24 L 772.70 74.45 L 776.35 69.47 L 780.00 66.21" class="path-0" />
<path d="M 50.00 147.12 L 53.65 148.31 L 57.30 147.25 L 60.95 147.64 L 64.60 147.54 L 68.25 148.49 L 71.90 150.49 L 75.55 148.75 L 79.20 146.72 L 82.85 149.27 L 86.50 147.86 L 90.15 145.46 L 93.80 145.07 L 97.45 142.64 L 101.10 142.85 L 104.75 142.54 L 108.40 147.53 L 112.05 151.16 L 115.70 150.91 L 119.35 154.69 L 123.00 160.97 L 126.65 165.12 L 130.30 167.05 L 133.95 168.02 L 137.60 163.62 L 141.25 165.79 L 144.90 165.35 L 148.55 160.96 L 152.20 154.76 L 155.85 153.80 L 159.50 155.07 L 163.15 156.08 L 166.80 155.12 L 170.45 158.51 L 174.10 158.99 L 177.75 160.37 L 181.40 155.42 L 185.05 151.37 L 188.70 147.76 L 192.35 147.75 L 196.00 151.62 L 199.65 152.59 L 203.30 152.13 L 206.95 150.53 L 210.60 151.01 L 214.25 147.39 L 217.90 148.06 L 221.55 147.93 L 225.20 156.13 L 228.85 158.23 L 232.50 159.91 L 236.15 154.40 L 239.80 153.02 L 243.45 152.11 L 247.10 151.00 L 250.75 153.09 L 254.40 154.61 L 258.05 155.68 L 261.70 154.65 L 265.35 157.68 L 269.00 162.22 L 272.65 165.41 L 276.30 166.83 L 279.95 173.38 L 283.60 177.38 L 287.25 176.26 L 290.90 173.13 L 294.55 176.63 L 298.20 174.58 L 301.85 179.63 L 305.50 181.49 L 309.15 179.62 L 312.80 173.62 L 316.45 174.05 L 320.10 172.81 L 323.75 175.72 L 327.40 177.34 L 331.05 182.98 L 334.70 183.17 L 338.35 183.30 L 342.00 187.97 L 345.65 184.87 L 349.30 187.99 L 352.95 193.03 L 356.60 194.61 L 360.25 194.72 L 363.90 199.04 L 367.55 195.69 L 371.20 196.69 L 374.85 202.10 L 378.50 200.49 L 382.15 204.09 L 385.80 202.75 L 389.45 201.46 L 393.10 200.93 L 396.75 203.49 L 400.40 202.26 L 404.05 198.93 L 407.70 197.62 L 411.35 199.49 L 415.00 197.54 L 418.65 196.58 L 422.30 191.63 L 425.95 191.15 L 429.60 191.71 L 433.25 194.34 L 436.90 192.17 L 440.55 190.17 L 444.20 192.44 L 447.85 194.84 L 451.50 193.79 L 455.15 190.06 L 458.80 188.10 L 462.45 181.28 L 466.10 178.64 L 469.75 182.59 L 473.40 183.35 L 477.05 182.05 L 480.70 182.08 L 484.35 186.74 L 488.00 189.47 L 491.65 195.35 L 495.30 193.43 L 498.95 197.61 L 502.60 198.48 L 506.25 196.30 L 509.90 194.06 L 513.55 196.62 L 517.20 199.51 L 520.85 195.41 L 524.50 195.90 L 528.15 193.82 L 531.80 194.58 L 535.45 188.28 L 539.10 188.77 L 542.75 191.19 L 546.40 191.66 L 550.05 189.67 L 553.70 185.58 L 557.35 183.62 L 561.00 180.18 L 564.65 177.35 L 568.30 175.97 L 571.95 170.15 L 575.60 174.05 L 579.25 176.95 L 582.90 177.72 L 586.55 175.08 L 590.20 177.14 L 593.85 180.00 L 597.50 173.57 L 601.15 173.68 L 604.80 172.88 L 608.45 175.05 L 612.10 175.53 L 615.75 173.80 L 619.40 173.18 L 623.05 177.51 L 626.70 176.95 L 630.35 180.73 L 634.00 179.47 L 637.65 176.64 L 641.30 176.41 L 644.95 175.76 L 648.60 177.19 L 652.25 177.27 L 655.90 184.88 L 659.55 182.21 L 663.20 182.40 L 666.85 181.90 L 670.50 174.56 L 674.15 173.94 L 677.80 176.46 L 681.45 170.30 L 685.10 175.25 L 688.75 173.41 L 692.40 171.09 L 696.05 175.38 L 699.70 176.61 L 703.35 176.31 L 707.00 174.76 L 710.65 177.54 L 714.30 179.86 L 717.95 180.53 L 721.60 184.87 L 725.25 186.00 L 728.90 190.86 L 732.55 193.38 L 736.20 194.88 L 739.85 195.25 L 743.50 193.66 L 747.15 192.21 L 750.80 194.70 L 754.45 192.81 L 758.10 191.51 L 761.75 193.59 L 765.40 194.96 L 769.05 189.11 L 772.70 187.54 L 776.35 188.17 L 780.00 183.13" class="path-1" />
<path d="M 50.00 147.12 L 53.65 146.95 L 57.30 148.10 L 60.95 144.51 L 64.60 141.68 L 68.25 133.91 L 71.90 132.52 L 75.55 130.60 L 79.20 127.00 L 82.85 123.37 L 86.50 124.49 L 90.15 123.67 L 93.80 129.63 L 97.45 128.53 L 101.10 129.20 L 104.75 130.45 L 108.40 129.91 L 112.05 130.79 L 115.70 134.59 L 119.35 138.86 L 123.00 133.46 L 126.65 139.41 L 130.30 144.86 L 133.95 147.94 L 137.60 143.83 L 141.25 146.52 L 144.90 143.60 L 148.55 150.55 L 152.20 148.06 L 155.85 149.71 L 159.50 151.13 L 163.15 148.68 L 166.80 144.76 L 170.45 142.35 L 174.10 143.09 L 177.75 137.29 L 181.40 136.30 L 185.05 137.27 L 188.70 134.80 L 192.35 129.12 L 196.00 130.13 L 199.65 134.51 L 203.30 135.84 L 206.95 141.46 L 210.60 139.63 L 214.25 137.57 L 217.90 140.45 L 221.55 134.99 L 225.20 135.75 L 228.85 133.59 L 232.50 133.82 L 236.15 126.55 L 239.80 123.75 L 243.45 129.44 L 247.10 129.99 L 250.75 136.84 L 254.40 137.80 L 258.05 134.27 L 261.70 132.27 L 265.35 131.72 L 269.00 134.12 L 272.65 134.73 L 276.30 137.65 L 279.95 132.10 L 283.60 134.11 L 287.25 135.34 L 290.90 133.32 L 294.55 129.30 L 298.20 121.76 L 301.85 126.41 L 305.50 126.45 L 309.15 129.15 L 312.80 126.62 L 316.45 125.45 L 320.10 123.56 L 323.75 124.67 L 327.40 121.76 L 331.05 126.31 L 334.70 123.96 L 338.35 123.83 L 342.00 125.64 L 345.65 124.72 L 349.30 128.16 L 352.95 127.78 L 356.60 125.74 L 360.25 122.81 L 363.90 116.64 L 367.55 120.86 L 371.20 122.47 L 374.85 119.95 L 378.50 116.68 L 382.15 119.49 L 385.80 115.32 L 389.45 119.72 L 393.10 124.92 L 396.75 127.61 L 400.40 129.42 L 404.05 130.38 L 407.70 126.97 L 411.35 127.46 L 415.00 129.45 L 418.65 133.33 L 422.30 129.46 L 425.95 130.52 L 429.60 129.93 L 433.25 129.64 L 436.90 132.22 L 440.55 130.23 L 444.20 130.45 L 447.85 132.21 L 451.50 131.66 L 455.15 128.62 L 458.80 131.21 L 462.45 128.43 L 466.10 131.87 L 469.75 129.81 L 473.40 134.90 L 477.05 132.31 L 480.70 134.99 L 484.35 135.00 L 488.00 136.85 L 491.65 135.08 L 495.30 139.42 L 498.95 138.73 L 502.60 134.79 L 506.25 137.14 L 509.90 136.58 L 513.55 134.66 L 517.20 140.17 L 520.85 143.94 L 524.50 145.60 L 528.15 143.92 L 531.80 141.31 L 535.45 143.06 L 539.10 138.96 L 542.75 135.50 L 546.40 134.30 L 550.05 137.38 L 553.70 140.14 L 557.35 144.13 L 561.00 143.14 L 564.65 141.48 L 568.30 144.09 L 571.95 141.71 L 575.60 141.89 L 579.25 145.50 L 582.90 143.61 L 586.55 143.74 L 590.20 138.16 L 593.85 137.67 L 597.50 140.23 L 601.15 142.21 L 604.80 144.42 L 608.45 144.65 L 612.10 146.62 L 615.75 149.57 L 619.40 152.13 L 623.05 151.39 L 626.70 152.23 L 630.35 151.80 L 634.00 153.70 L 637.65 155.55 L 641.30 146.04 L 644.95 152.04 L 648.60 150.08 L 652.25 147.47 L 655.90 151.12 L 659.55 148.57 L 663.20 142.07 L 666.85 141.77 L 670.50 139.51 L 674.15 140.75 L 677.80 144.44 L 681.45 143.39 L 685.10 147.70 L 688.75 145.22 L 692.40 147.83 L 696.05 149.02 L 699.70 151.09 L 703.35 148.33 L 707.00 151.34 L 710.65 147.76 L 714.30 143.32 L 717.95 140.92 L 721.60 134.36 L 725.25 138.12 L 728.90 136.64 L 732.55 142.04 L 736.20 140.64 L 739.85 139.66 L 743.50 139.65 L 747.15 142.45 L 750.80 144.13 L 754.45 141.32 L 758.10 143.79 L 761.75 142.88 L 765.40 141.75 L 769.05 140.78 L 772.70 143.01 L 776.35 142.68 L 780.00 144.13" class="path-2" />
<path d="M 50.00 147.12 L 53.65 151.41 L 57.30 152.21 L 60.95 149.08 L 64.60 150.71 L 68.25 149.18 L 71.90 145.30 L 75.55 147.52 L 79.20 148.77 L 82.85 154.12 L 86.50 154.81 L 90.15 153.94 L 93.80 151.93 L 97.45 150.42 L 101.10 151.30 L 104.75 152.54 L 108.40 148.44 L 112.05 147.27 L 115.70 147.36 L 119.35 144.12 L 123.00 147.32 L 126.65 146.14 L 130.30 138.65 L 133.95 136.72 L 137.60 142.65 L 141.25 137.40 L 144.90 132.01 L 148.55 137.95 L 152.20 145.75 L 155.85 144.14 L 159.50 141.00 L 163.15 144.47 L 166.80 141.11 L 170.45 144.01 L 174.10 151.39 L 177.75 148.39 L 181.40 148.80 L 185.05 145.38 L 188.70 145.94 L 192.35 145.90 L 196.00 139.88 L 199.65 140.49 L 203.30 137.96 L 206.95 136.53 L 210.60 128.47 L 214.25 126.49 L 217.90 130.71 L 221.55 131.49 L 225.20 127.03 L 228.85 129.02 L 232.50 129.66 L 236.15 132.05 L 239.80 127.15 L 243.45 126.68 L 247.10 122.63 L 250.75 118.50 L 254.40 122.22 L 258.05 122.48 L 261.70 125.70 L 265.35 124.93 L 269.00 127.32 L 272.65 124.44 L 276.30 116.52 L 279.95 122.08 L 283.60 124.49 L 287.25 125.61 L 290.90 127.40 L 294.55 128.06 L 298.20 130.69 L 301.85 129.75 L 305.50 131.59 L 309.15 129.61 L 312.80 130.86 L 316.45 128.33 L 320.10 125.24 L 323.75 129.12 L 327.40 127.54 L 331.05 124.84 L 334.70 123.78 L 338.35 121.07 L 342.00 123.29 L 345.65 129.50 L 349.30 126.53 L 352.95 122.85 L 356.60 124.07 L 360.25 122.29 L 363.90 118.56 L 367.55 120.66 L 371.20 121.42 L 374.85 125.51 L 378.50 128.43 L 382.15 127.74 L 385.80 123.76 L 389.45 124.72 L 393.10 122.17 L 396.75 124.56 L 400.40 128.53 L 404.05 127.89 L 407.70 129.78 L 411.35 131.65 L 415.00 124.94 L 418.65 128.65 L 422.30 130.77 L 425.95 128.54 L 429.60 125.53 L 433.25 127.44 L 436.90 123.35 L 440.55 119.24 L 444.20 113.53 L 447.85 112.18 L 451.50 116.77 L 455.15 114.08 L 458.80 113.50 L 462.45 118.34 L 466.10 123.56 L 469.75 126.43 L 473.40 126.95 L 477.05 129.94 L 480.70 129.84 L 484.35 130.37 L 488.00 133.22 L 491.65 130.82 L 495.30 136.08 L 498.95 139.04 L 502.60 131.28 L 506.25 127.11 L 509.90 133.61 L 513.55 135.19 L 517.20 133.64 L 520.85 134.64 L 524.50 133.71 L 528.15 133.17 L 531.80 134.81 L 535.45 129.56 L 539.10 131.85 L 542.75 135.69 L 546.40 137.81 L 550.05 138.46 L 553.70 137.75 L 557.35 141.44 L 561.00 138.07 L 564.65 138.36 L 568.30 141.99 L 571.95 142.93 L 575.60 139.43 L 579.25 145.76 L 582.90 137.71 L 586.55 142.83 L 590.20 145.70 L 593.85 149.19 L 597.50 152.33 L 601.15 152.01 L 604.80 151.24 L 608.45 150.65 L 612.10 149.43 L 615.75 148.60 L 619.40 148.10 L 623.05 149.35 L 626.70 150.45 L 630.35 143.42 L 634.00 142.95 L 637.65 133.51 L 641.30 134.67 L 644.95 133.69 L 648.60 131.98 L 652.25 129.89 L 655.90 130.08 L 659.55 130.42 L 663.20 126.01 L 666.85 129.27 L 670.50 129.42 L 674.15 128.80 L 677.80 125.66 L 681.45 124.78 L 685.10 122.91 L 688.75 120.89 L 692.40 120.04 L 696.05 116.90 L 699.70 120.69 L 703.35 126.52 L 707.00 124.30 L 710.65 125.01 L 714.30 120.13 L 717.95 119.68 L 721.60 119.94 L 725.25 116.97 L 728.90 115.82 L 732.55 124.33 L 736.20 125.66 L 739.85 120.11 L 743.50 117.93 L 747.15 116.62 L 750.80 118.84 L 754.45 113.98 L 758.10 112.09 L 761.75 115.31 L 765.40 121.42 L 769.05 124.62 L 772.70 122.02 L 776.35 120.21 L 780.00 118.45" class="path-3" />
<path d="M 50.00 147.12 L 53.65 143.35 L 57.30 147.50 L 60.95 145.60 L 64.60 136.43 L 68.25 138.62 L 71.90 133.99 L 75.55 133.03 L 79.20 130.86 L 82.85 126.99 L 86.50 126.99 L 90.15 123.86 L 93.80 124.57 L 97.45 126.13 L 101.10 128.80 L 104.75 134.02 L 108.40 133.60 L 112.05 130.96 L 115.70 132.60 L 119.35 132.19 L 123.00 137.87 L 126.65 137.77 L 130.30 140.05 L 133.95 142.50 L 137.60 150.30 L 141.25 152.48 L 144.90 153.62 L 148.55 155.44 L 152.20 152.39 L 155.85 147.99 L 159.50 147.21 L 163.15 147.80 L 166.80 148.18 L 170.45 147.18 L 174.10 150.54 L 177.75 152.24 L 181.40 156.82 L 185.05 160.31 L 188.70 161.03 L 192.35 161.31 L 196.00 161.00 L 199.65 166.96 L 203.30 167.92 L 206.95 166.93 L 210.60 169.31 L 214.25 172.84 L 217.90 171.65 L 221.55 172.87 L 225.20 171.67 L 228.85 170.21 L 232.50 170.61 L 236.15 172.59 L 239.80 175.82 L 243.45 174.11 L 247.10 178.03 L 250.75 179.83 L 254.40 183.83 L 258.05 181.28 L 261.70 183.16 L 265.35 178.34 L 269.00 179.38 L 272.65 181.18 L 276.30 184.26 L 279.95 182.17 L 283.60 182.15 L 287.25 182.48 L 290.90 181.68 L 294.55 179.34 L 298.20 181.19 L 301.85 184.95 L 305.50 183.37 L 309.15 181.33 L 312.80 177.58 L 316.45 180.04 L 320.10 179.97 L 323.75 178.13 L 327.40 180.41 L 331.05 175.76 L 334.70 183.15 L 338.35 187.19 L 342.00 188.71 L 345.65 190.69 L 349.30 188.96 L 352.95 186.54 L 356.60 179.54 L 360.25 176.01 L 363.90 174.79 L 367.55 175.44 L 371.20 175.42 L 374.85 179.11 L 378.50 176.02 L 382.15 174.61 L 385.80 178.13 L 389.45 180.17 L 393.10 177.93 L 396.75 177.41 L 400.40 179.12 L 404.05 176.87 L 407.70 179.53 L 411.35 176.33 L 415.00 174.55 L 418.65 172.12 L 422.30 173.40 L 425.95 174.02 L 429.60 178.34 L 433.25 181.59 L 436.90 185.08 L 440.55 184.41 L 444.20 179.70 L 447.85 178.65 L 451.50 181.24 L 455.15 182.77 L 458.80 182.45 L 462.45 183.35 L 466.10 184.53 L 469.75 182.22 L 473.40 179.88 L 477.05 181.79 L 480.70 180.79 L 484.35 188.65 L 488.00 190.42 L 491.65 183.13 L 495.30 182.84 L 498.95 187.65 L 502.60 189.37 L 506.25 188.78 L 509.90 186.65 L 513.55 186.70 L 517.20 185.86 L 520.85 188.02 L 524.50 188.37 L 528.15 187.92 L 531.80 190.30 L 535.45 190.49 L 539.10 190.80 L 542.75 192.48 L 546.40 189.40 L 550.05 188.92 L 553.70 187.29 L 557.35 185.46 L 561.00 184.27 L 564.65 189.27 L 568.30 190.75 L 571.95 192.99 L 575.60 189.91 L 579.25 193.90 L 582.90 194.05 L 586.55 196.95 L 590.20 196.20 L 593.85 196.38 L 597.50 193.49 L 601.15 194.94 L 604.80 193.02 L 608.45 196.82 L 612.10 198.66 L 615.75 200.53 L 619.40 198.90 L 623.05 195.64 L 626.70 192.42 L 630.35 193.80 L 634.00 193.27 L 637.65 191.52 L 641.30 195.82 L 644.95 200.64 L 648.60 203.09 L 652.25 204.72 L 655.90 205.67 L 659.55 207.24 L 663.20 206.82 L 666.85 203.43 L 670.50 204.19 L 674.15 207.19 L 677.80 203.25 L 681.45 203.94 L 685.10 205.97 L 688.75 207.34 L 692.40 209.45 L 696.05 213.96 L 699.70 213.33 L 703.35 212.99 L 707.00 218.80 L 710.65 220.88 L 714.30 218.24 L 717.95 214.26 L 721.60 216.88 L 725.25 221.31 L 728.90 221.74 L 732.55 224.17 L 736.20 226.78 L 739.85 228.51 L 743.50 233.58 L 747.15 232.49 L 750.80 232.30 L 754.45 233.93 L 758.10 234.62 L 761.75 231.86 L 765.40 228.15 L 769.05 229.18 L 772.70 226.64 L 776.35 231.13 L 780.00 228.09" class="path-4" />
<line x1="50" y1="147.1" x2="780" y2="147.1" stroke="#4b5563" stroke-width="0.8" stroke-dasharray="6 3" />
</svg>