<svg xmlns="http://www.w3.org/2000/svg" viewBox="0 0 800 300" width="800" height="300">
<style>
.axis-line { stroke: #6b7280; stroke-width: 0.5; }
.axis-text { font-family: monospace; font-size: 11px; fill: #9ca3af; }
.title-text { font-family: monospace; font-size: 14px; fill: #d1d5db; font-weight: bold; }
.grid-line { stroke: #374151; stroke-width: 0.3; stroke-dasharray: 4 2; }
.path-0 { fill: none; stroke: #3b82f6; stroke-width: 2; stroke-linecap: round; opacity: 0.85; animation: draw-0 12s ease-in-out 0.0s infinite; stroke-dasharray: 1086; stroke-dashoffset: 1086;}
@keyframes draw-0 { 0% { stroke-dashoffset: 1086; } 25% { stroke-dashoffset: 0; } 75% { stroke-dashoffset: 0; } 100% { stroke-dashoffset: 1086; }}
.path-1 { fill: none; stroke: #ef4444; stroke-width: 2; stroke-linecap: round; opacity: 0.85; animation: draw-1 12s ease-in-out 0.4s infinite; stroke-dasharray: 1066; stroke-dashoffset: 1066;}
@keyframes draw-1 { 0% { stroke-dashoffset: 1066; } 25% { stroke-dashoffset: 0; } 75% { stroke-dashoffset: 0; } 100% { stroke-dashoffset: 1066; }}
.path-2 { fill: none; stroke: #22c55e; stroke-width: 2; stroke-linecap: round; opacity: 0.85; animation: draw-2 12s ease-in-out 0.8s infinite; stroke-dasharray: 1066; stroke-dashoffset: 1066;}
@keyframes draw-2 { 0% { stroke-dashoffset: 1066; } 25% { stroke-dashoffset: 0; } 75% { stroke-dashoffset: 0; } 100% { stroke-dashoffset: 1066; }}
.path-3 { fill: none; stroke: #f59e0b; stroke-width: 2; stroke-linecap: round; opacity: 0.85; animation: draw-3 12s ease-in-out 1.2000000000000002s infinite; stroke-dasharray: 1125; stroke-dashoffset: 1125;}
@keyframes draw-3 { 0% { stroke-dashoffset: 1125; } 25% { stroke-dashoffset: 0; } 75% { stroke-dashoffset: 0; } 100% { stroke-dashoffset: 1125; }}
.path-4 { fill: none; stroke: #a855f7; stroke-width: 2; stroke-linecap: round; opacity: 0.85; animation: draw-4 12s ease-in-out 1.6s infinite; stroke-dasharray: 1112; stroke-dashoffset: 1112;}
@keyframes draw-4 { 0% { stroke-dashoffset: 1112; } 25% { stroke-dashoffset: 0; } 75% { stroke-dashoffset: 0; } 100% { stroke-dashoffset: 1112; }}
</style>
<rect width="800" height="300" rx="8" fill="#0d1117" />
<line x1="50" y1="260.0" x2="780" y2="260.0" class="grid-line" />
<text x="44" y="264.0" text-anchor="end" class="axis-text">-1.7</text>
<line x1="50" y1="216.0" x2="780" y2="216.0" class="grid-line" />
<text x="44" y="220.0" text-anchor="end" class="axis-text">-1.0</text>
<line x1="50" y1="172.0" x2="780" y2="172.0" class="grid-line" />
<text x="44" y="176.0" text-anchor="end" class="axis-text">-0.3</text>
<line x1="50" y1="128.0" x2="780" y2="128.0" class="grid-line" />
<text x="44" y="132.0" text-anchor="end" class="axis-text">0.4</text>
<line x1="50" y1="84.0" x2="780" y2="84.0" class="grid-line" />
<text x="44" y="88.0" text-anchor="end" class="axis-text">1.1</text>
<line x1="50" y1="40.0" x2="780" y2="40.0" class="grid-line" />
<text x="44" y="44.0" text-anchor="end" class="axis-text">1.8</text>
<line x1="50.0" y1="40" x2="50.0" y2="260" class="grid-line" />
<line x1="196.0" y1="40" x2="196.0" y2="260" class="grid-line" />
<line x1="342.0" y1="40" x2="342.0" y2="260" class="grid-line" />
<line x1="488.0" y1="40" x2="488.0" y2="260" class="grid-line" />
<line x1="634.0" y1="40" x2="634.0" y2="260" class="grid-line" />
<line x1="780.0" y1="40" x2="780.0" y2="260" class="grid-line" />
<line x1="50" y1="260" x2="780" y2="260" class="axis-line" />
<line x1="50" y1="40" x2="50" y2="260" class="axis-line" />
<text x="400.0" y="295" text-anchor="middle" class="axis-text">t</text>
<text x="12" y="150.0" text-anchor="middle" class="axis-text" transform="rotate(-90 12 150.0)">W(t)</text>
<text x="400.0" y="22" text-anchor="middle" class="title-text">Brownian Motion</text>
<path d="M 50.00 150.57 L 53.65 150.38 L 57.30 148.33 L 60.95 143.88 L 64.60 154.95 L 68.25 162.69 L 71.90 168.82 L 75.55 164.42 L 79.20 165.48 L 82.85 159.17 L 86.50 156.39 L 90.15 152.91 L 93.80 153.44 L 97.45 154.70 L 101.10 156.45 L 104.75 161.27 L 108.40 166.45 L 112.05 166.02 L 115.70 164.41 L 119.35 160.82 L 123.00 162.90 L 126.65 161.88 L 130.30 167.06 L 133.95 164.16 L 137.60 167.74 L 141.25 172.35 L 144.90 165.14 L 148.55 174.98 L 152.20 173.35 L 155.85 167.76 L 159.50 168.20 L 163.15 167.69 L 166.80 171.16 L 170.45 173.75 L 174.10 174.75 L 177.75 178.67 L 181.40 186.82 L 185.05 191.75 L 188.70 185.66 L 192.35 186.35 L 196.00 179.17 L 199.65 173.06 L 203.30 172.09 L 206.95 166.68 L 210.60 162.47 L 214.25 161.22 L 217.90 158.57 L 221.55 152.26 L 225.20 153.76 L 228.85 153.01 L 232.50 156.51 L 236.15 160.40 L 239.80 163.89 L 243.45 167.14 L 247.10 165.47 L 250.75 164.73 L 254.40 169.77 L 258.05 167.56 L 261.70 168.43 L 265.35 167.32 L 269.00 170.42 L 272.65 169.24 L 276.30 172.69 L 279.95 168.62 L 283.60 171.22 L 287.25 179.38 L 290.90 180.18 L 294.55 174.72 L 298.20 180.27 L 301.85 182.84 L 305.50 185.72 L 309.15 184.24 L 312.80 193.99 L 316.45 190.16 L 320.10 190.19 L 323.75 195.21 L 327.40 193.63 L 331.05 200.31 L 334.70 205.37 L 338.35 202.74 L 342.00 200.98 L 345.65 207.90 L 349.30 209.04 L 352.95 209.04 L 356.60 207.19 L 360.25 205.23 L 363.90 206.85 L 367.55 199.61 L 371.20 195.19 L 374.85 191.30 L 378.50 192.68 L 382.15 200.16 L 385.80 207.84 L 389.45 204.41 L 393.10 210.58 L 396.75 200.54 L 400.40 205.93 L 404.05 209.10 L 407.70 208.37 L 411.35 203.94 L 415.00 199.50 L 418.65 196.86 L 422.30 194.64 L 425.95 200.81 L 429.60 199.05 L 433.25 197.60 L 436.90 191.08 L 440.55 191.41 L 444.20 195.36 L 447.85 192.23 L 451.50 196.56 L 455.15 200.32 L 458.80 205.99 L 462.45 207.26 L 466.10 213.77 L 469.75 215.73 L 473.40 222.32 L 477.05 220.78 L 480.70 223.30 L 484.35 221.37 L 488.00 216.57 L 491.65 213.58 L 495.30 217.83 L 498.95 216.84 L 502.60 223.33 L 506.25 223.31 L 509.90 218.73 L 513.55 219.61 L 517.20 217.19 L 520.85 212.09 L 524.50 217.12 L 528.15 215.14 L 531.80 216.91 L 535.45 220.28 L 539.10 217.53 L 542.75 227.26 L 546.40 229.42 L 550.05 221.07 L 553.70 213.30 L 557.35 218.96 L 561.00 220.71 L 564.65 215.19 L 568.30 211.32 L 571.95 214.97 L 575.60 211.92 L 579.25 216.37 L 582.90 206.15 L 586.55 199.67 L 590.20 196.47 L 593.85 203.99 L 597.50 205.39 L 601.15 204.62 L 604.80 202.66 L 608.45 206.47 L 612.10 209.36 L 615.75 211.67 L 619.40 210.21 L 623.05 201.21 L 626.70 202.65 L 630.35 199.46 L 634.00 197.13 L 637.65 197.61 L 641.30 195.66 L 644.95 201.34 L 648.60 204.88 L 652.25 200.04 L 655.90 198.63 L 659.55 202.59 L 663.20 198.53 L 666.85 198.93 L 670.50 202.21 L 674.15 200.70 L 677.80 204.07 L 681.45 204.92 L 685.10 207.17 L 688.75 205.62 L 692.40 203.26 L 696.05 198.36 L 699.70 201.03 L 703.35 203.70 L 707.00 194.70 L 710.65 187.84 L 714.30 188.97 L 717.95 195.82 L 721.60 192.14 L 725.25 200.37 L 728.90 201.20 L 732.55 200.52 L 736.20 204.92 L 739.85 209.77 L 743.50 209.33 L 747.15 207.12 L 750.80 206.11 L 754.45 208.08 L 758.10 212.35 L 761.75 212.60 L 765.40 213.67 L 769.05 215.86 L 772.70 216.05 L 776.35 222.42 L 780.00 219.97" class="path-0" />
<path d="M 50.00 150.57 L 53.65 153.71 L 57.30 147.55 L 60.95 146.70 L 64.60 144.78 L 68.25 146.36 L 71.90 147.44 L 75.55 139.89 L 79.20 141.43 L 82.85 140.62 L 86.50 136.37 L 90.15 131.37 L 93.80 132.01 L 97.45 127.79 L 101.10 131.95 L 104.75 130.00 L 108.40 124.73 L 112.05 127.15 L 115.70 140.64 L 119.35 146.52 L 123.00 149.92 L 126.65 151.97 L 130.30 151.03 L 133.95 144.96 L 137.60 138.72 L 141.25 137.74 L 144.90 136.37 L 148.55 138.51 L 152.20 138.95 L 155.85 130.65 L 159.50 129.11 L 163.15 128.10 L 166.80 124.56 L 170.45 124.57 L 174.10 125.63 L 177.75 133.46 L 181.40 137.24 L 185.05 130.11 L 188.70 134.01 L 192.35 139.35 L 196.00 136.40 L 199.65 131.91 L 203.30 134.40 L 206.95 146.80 L 210.60 143.22 L 214.25 141.92 L 217.90 146.66 L 221.55 145.95 L 225.20 143.34 L 228.85 145.74 L 232.50 143.70 L 236.15 136.79 L 239.80 132.78 L 243.45 130.22 L 247.10 122.13 L 250.75 125.86 L 254.40 129.68 L 258.05 127.56 L 261.70 131.45 L 265.35 135.58 L 269.00 132.90 L 272.65 128.14 L 276.30 127.22 L 279.95 127.89 L 283.60 122.44 L 287.25 124.00 L 290.90 120.94 L 294.55 120.44 L 298.20 112.76 L 301.85 112.04 L 305.50 107.50 L 309.15 104.20 L 312.80 97.08 L 316.45 96.39 L 320.10 100.48 L 323.75 97.89 L 327.40 99.96 L 331.05 102.30 L 334.70 96.23 L 338.35 96.67 L 342.00 91.90 L 345.65 84.53 L 349.30 75.99 L 352.95 74.75 L 356.60 71.13 L 360.25 67.71 L 363.90 66.23 L 367.55 65.38 L 371.20 65.73 L 374.85 69.31 L 378.50 73.64 L 382.15 69.37 L 385.80 68.03 L 389.45 74.59 L 393.10 75.41 L 396.75 70.41 L 400.40 78.07 L 404.05 72.35 L 407.70 72.57 L 411.35 73.08 L 415.00 77.44 L 418.65 78.43 L 422.30 82.56 L 425.95 86.34 L 429.60 86.45 L 433.25 90.31 L 436.90 90.26 L 440.55 88.23 L 444.20 93.51 L 447.85 89.74 L 451.50 98.74 L 455.15 101.24 L 458.80 102.20 L 462.45 104.15 L 466.10 105.12 L 469.75 101.64 L 473.40 101.35 L 477.05 96.89 L 480.70 93.60 L 484.35 96.75 L 488.00 102.56 L 491.65 101.32 L 495.30 96.26 L 498.95 100.74 L 502.60 95.15 L 506.25 99.19 L 509.90 104.06 L 513.55 94.20 L 517.20 99.46 L 520.85 99.30 L 524.50 96.45 L 528.15 105.76 L 531.80 102.04 L 535.45 105.45 L 539.10 107.19 L 542.75 111.34 L 546.40 112.88 L 550.05 118.75 L 553.70 120.76 L 557.35 123.07 L 561.00 124.47 L 564.65 123.50 L 568.30 124.26 L 571.95 119.89 L 575.60 118.89 L 579.25 116.76 L 582.90 113.35 L 586.55 112.53 L 590.20 121.75 L 593.85 118.71 L 597.50 121.66 L 601.15 125.16 L 604.80 121.94 L 608.45 120.72 L 612.10 115.36 L 615.75 115.14 L 619.40 119.88 L 623.05 116.74 L 626.70 112.23 L 630.35 117.97 L 634.00 120.05 L 637.65 117.83 L 641.30 124.15 L 644.95 135.93 L 648.60 138.04 L 652.25 138.33 L 655.90 137.67 L 659.55 135.62 L 663.20 131.51 L 666.85 135.30 L 670.50 139.58 L 674.15 140.04 L 677.80 135.71 L 681.45 138.46 L 685.10 144.69 L 688.75 139.22 L 692.40 142.88 L 696.05 141.77 L 699.70 139.17 L 703.35 139.85 L 707.00 139.73 L 710.65 134.42 L 714.30 131.29 L 717.95 130.17 L 721.60 123.75 L 725.25 120.78 L 728.90 121.93 L 732.55 114.18 L 736.20 109.63 L 739.85 111.65 L 743.50 105.98 L 747.15 104.71 L 750.80 101.13 L 754.45 100.14 L 758.10 98.39 L 761.75 97.47 L 765.40 94.32 L 769.05 96.66 L 772.70 96.19 L 776.35 93.23 L 780.00 95.74" class="path-1" />
<path d="M 50.00 150.57 L 53.65 148.39 L 57.30 144.83 L 60.95 139.03 L 64.60 140.81 L 68.25 136.92 L 71.90 134.39 L 75.55 132.42 L 79.20 136.44 L 82.85 136.87 L 86.50 138.10 L 90.15 132.73 L 93.80 134.18 L 97.45 132.57 L 101.10 123.39 L 104.75 122.72 L 108.40 123.72 L 112.05 123.96 L 115.70 123.50 L 119.35 117.30 L 123.00 112.85 L 126.65 114.61 L 130.30 117.00 L 133.95 109.54 L 137.60 112.40 L 141.25 114.16 L 144.90 120.09 L 148.55 116.21 L 152.20 119.64 L 155.85 117.59 L 159.50 115.62 L 163.15 120.21 L 166.80 118.83 L 170.45 123.10 L 174.10 129.26 L 177.75 134.08 L 181.40 132.06 L 185.05 127.48 L 188.70 132.25 L 192.35 131.39 L 196.00 131.36 L 199.65 127.91 L 203.30 122.29 L 206.95 128.92 L 210.60 129.97 L 214.25 125.71 L 217.90 119.95 L 221.55 117.59 L 225.20 119.42 L 228.85 123.57 L 232.50 129.32 L 236.15 124.58 L 239.80 126.95 L 243.45 128.19 L 247.10 124.52 L 250.75 117.98 L 254.40 119.50 L 258.05 119.84 L 261.70 122.34 L 265.35 131.43 L 269.00 132.51 L 272.65 130.28 L 276.30 130.39 L 279.95 130.75 L 283.60 127.20 L 287.25 122.09 L 290.90 115.85 L 294.55 109.03 L 298.20 108.90 L 301.85 99.69 L 305.50 95.27 L 309.15 101.89 L 312.80 103.92 L 316.45 110.49 L 320.10 110.28 L 323.75 110.27 L 327.40 110.92 L 331.05 116.36 L 334.70 111.09 L 338.35 110.63 L 342.00 117.74 L 345.65 123.07 L 349.30 123.91 L 352.95 122.77 L 356.60 129.67 L 360.25 134.76 L 363.90 136.11 L 367.55 129.86 L 371.20 132.70 L 374.85 141.65 L 378.50 145.92 L 382.15 146.44 L 385.80 144.27 L 389.45 146.99 L 393.10 155.81 L 396.75 157.03 L 400.40 155.29 L 404.05 149.44 L 407.70 143.66 L 411.35 146.24 L 415.00 147.63 L 418.65 141.34 L 422.30 145.10 L 425.95 145.05 L 429.60 143.94 L 433.25 138.28 L 436.90 144.83 L 440.55 147.23 L 444.20 145.33 L 447.85 143.94 L 451.50 147.14 L 455.15 145.08 L 458.80 150.85 L 462.45 148.85 L 466.10 147.81 L 469.75 143.48 L 473.40 145.89 L 477.05 139.52 L 480.70 140.90 L 484.35 142.73 L 488.00 144.26 L 491.65 139.30 L 495.30 147.39 L 498.95 143.86 L 502.60 134.38 L 506.25 130.62 L 509.90 126.36 L 513.55 128.41 L 517.20 125.02 L 520.85 126.76 L 524.50 126.57 L 528.15 129.19 L 531.80 124.70 L 535.45 124.51 L 539.10 126.98 L 542.75 132.73 L 546.40 134.75 L 550.05 130.82 L 553.70 133.89 L 557.35 136.33 L 561.00 137.29 L 564.65 141.31 L 568.30 142.46 L 571.95 142.68 L 575.60 148.72 L 579.25 146.55 L 582.90 149.05 L 586.55 147.81 L 590.20 147.40 L 593.85 151.66 L 597.50 151.36 L 601.15 149.03 L 604.80 161.08 L 608.45 156.91 L 612.10 160.15 L 615.75 159.16 L 619.40 158.12 L 623.05 159.64 L 626.70 160.80 L 630.35 158.69 L 634.00 160.81 L 637.65 157.87 L 641.30 157.65 L 644.95 155.21 L 648.60 159.56 L 652.25 163.07 L 655.90 165.91 L 659.55 168.33 L 663.20 170.45 L 666.85 176.76 L 670.50 175.60 L 674.15 169.22 L 677.80 162.49 L 681.45 152.67 L 685.10 152.29 L 688.75 164.99 L 692.40 164.91 L 696.05 160.80 L 699.70 164.86 L 703.35 158.92 L 707.00 162.06 L 710.65 161.94 L 714.30 163.38 L 717.95 160.19 L 721.60 157.68 L 725.25 159.96 L 728.90 148.76 L 732.55 147.78 L 736.20 152.21 L 739.85 153.46 L 743.50 161.01 L 747.15 162.74 L 750.80 161.37 L 754.45 160.99 L 758.10 160.99 L 761.75 160.98 L 765.40 162.63 L 769.05 159.15 L 772.70 170.21 L 776.35 167.07 L 780.00 170.12" class="path-2" />
<path d="M 50.00 150.57 L 53.65 154.39 L 57.30 156.74 L 60.95 163.02 L 64.60 163.48 L 68.25 162.75 L 71.90 155.19 L 75.55 152.23 L 79.20 150.21 L 82.85 147.95 L 86.50 151.70 L 90.15 149.99 L 93.80 153.44 L 97.45 163.01 L 101.10 165.75 L 104.75 167.79 L 108.40 168.48 L 112.05 163.77 L 115.70 157.14 L 119.35 157.38 L 123.00 155.50 L 126.65 152.97 L 130.30 150.67 L 133.95 145.86 L 137.60 151.68 L 141.25 156.96 L 144.90 157.72 L 148.55 163.39 L 152.20 161.29 L 155.85 160.80 L 159.50 163.95 L 163.15 172.19 L 166.80 170.92 L 170.45 176.33 L 174.10 172.08 L 177.75 176.91 L 181.40 180.59 L 185.05 193.97 L 188.70 188.68 L 192.35 194.76 L 196.00 195.20 L 199.65 200.17 L 203.30 195.83 L 206.95 191.26 L 210.60 187.06 L 214.25 184.87 L 217.90 182.64 L 221.55 177.62 L 225.20 175.36 L 228.85 178.24 L 232.50 180.12 L 236.15 178.21 L 239.80 179.30 L 243.45 173.19 L 247.10 174.77 L 250.75 169.04 L 254.40 167.32 L 258.05 167.76 L 261.70 167.79 L 265.35 171.77 L 269.00 168.04 L 272.65 164.98 L 276.30 176.24 L 279.95 172.58 L 283.60 181.90 L 287.25 175.10 L 290.90 178.45 L 294.55 171.07 L 298.20 175.84 L 301.85 181.94 L 305.50 185.82 L 309.15 195.45 L 312.80 201.75 L 316.45 205.35 L 320.10 208.20 L 323.75 205.42 L 327.40 200.95 L 331.05 195.16 L 334.70 195.04 L 338.35 195.35 L 342.00 193.18 L 345.65 195.55 L 349.30 196.90 L 352.95 193.95 L 356.60 195.04 L 360.25 194.08 L 363.90 192.54 L 367.55 193.07 L 371.20 188.85 L 374.85 184.78 L 378.50 194.73 L 382.15 190.99 L 385.80 184.49 L 389.45 181.60 L 393.10 182.15 L 396.75 179.33 L 400.40 174.46 L 404.05 170.00 L 407.70 167.68 L 411.35 162.24 L 415.00 159.55 L 418.65 157.81 L 422.30 161.46 L 425.95 155.72 L 429.60 148.03 L 433.25 143.35 L 436.90 147.76 L 440.55 151.31 L 444.20 152.69 L 447.85 146.38 L 451.50 143.69 L 455.15 147.90 L 458.80 154.50 L 462.45 151.33 L 466.10 143.60 L 469.75 145.10 L 473.40 135.03 L 477.05 140.70 L 480.70 138.85 L 484.35 142.53 L 488.00 148.18 L 491.65 150.77 L 495.30 152.93 L 498.95 151.53 L 502.60 147.20 L 506.25 161.82 L 509.90 166.73 L 513.55 163.91 L 517.20 159.28 L 520.85 159.31 L 524.50 153.69 L 528.15 162.46 L 531.80 161.95 L 535.45 168.98 L 539.10 173.46 L 542.75 178.48 L 546.40 174.63 L 550.05 178.54 L 553.70 168.20 L 557.35 162.52 L 561.00 166.75 L 564.65 167.73 L 568.30 172.05 L 571.95 172.56 L 575.60 175.28 L 579.25 166.24 L 582.90 164.25 L 586.55 174.96 L 590.20 170.03 L 593.85 168.73 L 597.50 170.22 L 601.15 172.44 L 604.80 172.66 L 608.45 173.41 L 612.10 185.96 L 615.75 177.94 L 619.40 182.67 L 623.05 176.04 L 626.70 165.27 L 630.35 161.91 L 634.00 165.65 L 637.65 167.40 L 641.30 166.89 L 644.95 166.99 L 648.60 165.68 L 652.25 163.21 L 655.90 163.44 L 659.55 165.55 L 663.20 165.86 L 666.85 161.59 L 670.50 162.83 L 674.15 166.42 L 677.80 167.43 L 681.45 169.15 L 685.10 162.16 L 688.75 161.57 L 692.40 156.88 L 696.05 153.30 L 699.70 154.44 L 703.35 152.93 L 707.00 151.28 L 710.65 143.22 L 714.30 140.17 L 717.95 145.29 L 721.60 149.24 L 725.25 151.70 L 728.90 148.57 L 732.55 149.19 L 736.20 145.46 L 739.85 141.94 L 743.50 145.01 L 747.15 142.11 L 750.80 143.07 L 754.45 144.66 L 758.10 145.17 L 761.75 148.07 L 765.40 141.42 L 769.05 138.27 L 772.70 132.86 L 776.35 134.84 L 780.00 138.42" class="path-3" />
<path d="M 50.00 150.57 L 53.65 152.15 L 57.30 143.48 L 60.95 138.94 L 64.60 143.65 L 68.25 147.28 L 71.90 148.66 L 75.55 141.53 L 79.20 140.23 L 82.85 145.98 L 86.50 138.62 L 90.15 134.16 L 93.80 138.89 L 97.45 140.32 L 101.10 147.48 L 104.75 136.75 L 108.40 143.81 L 112.05 146.30 L 115.70 141.50 L 119.35 145.24 L 123.00 146.09 L 126.65 150.46 L 130.30 148.01 L 133.95 150.94 L 137.60 156.63 L 141.25 150.24 L 144.90 158.86 L 148.55 156.26 L 152.20 156.56 L 155.85 155.04 L 159.50 148.29 L 163.15 139.50 L 166.80 146.65 L 170.45 147.68 L 174.10 140.45 L 177.75 133.80 L 181.40 134.35 L 185.05 125.84 L 188.70 123.30 L 192.35 119.65 L 196.00 120.67 L 199.65 130.02 L 203.30 130.57 L 206.95 137.34 L 210.60 136.22 L 214.25 129.88 L 217.90 129.84 L 221.55 130.26 L 225.20 134.47 L 228.85 133.84 L 232.50 136.84 L 236.15 140.43 L 239.80 139.01 L 243.45 135.05 L 247.10 133.02 L 250.75 129.13 L 254.40 128.99 L 258.05 126.59 L 261.70 131.75 L 265.35 137.36 L 269.00 140.13 L 272.65 150.03 L 276.30 150.59 L 279.95 148.49 L 283.60 154.72 L 287.25 158.61 L 290.90 161.80 L 294.55 161.93 L 298.20 164.70 L 301.85 165.18 L 305.50 159.57 L 309.15 159.07 L 312.80 167.87 L 316.45 164.08 L 320.10 167.96 L 323.75 169.65 L 327.40 168.55 L 331.05 170.10 L 334.70 173.31 L 338.35 172.57 L 342.00 170.24 L 345.65 166.67 L 349.30 156.57 L 352.95 151.50 L 356.60 149.70 L 360.25 150.89 L 363.90 150.90 L 367.55 144.90 L 371.20 143.60 L 374.85 150.88 L 378.50 153.35 L 382.15 156.89 L 385.80 157.98 L 389.45 161.16 L 393.10 158.02 L 396.75 158.03 L 400.40 164.27 L 404.05 171.42 L 407.70 178.66 L 411.35 178.84 L 415.00 179.14 L 418.65 177.46 L 422.30 177.97 L 425.95 171.22 L 429.60 162.67 L 433.25 166.11 L 436.90 161.68 L 440.55 160.14 L 444.20 163.70 L 447.85 162.97 L 451.50 167.11 L 455.15 162.87 L 458.80 159.50 L 462.45 157.59 L 466.10 156.05 L 469.75 155.33 L 473.40 146.26 L 477.05 144.14 L 480.70 144.71 L 484.35 146.29 L 488.00 147.97 L 491.65 156.12 L 495.30 152.70 L 498.95 154.13 L 502.60 159.89 L 506.25 157.52 L 509.90 158.65 L 513.55 154.64 L 517.20 159.67 L 520.85 155.74 L 524.50 150.92 L 528.15 149.93 L 531.80 149.76 L 535.45 142.84 L 539.10 139.76 L 542.75 146.23 L 546.40 158.14 L 550.05 158.45 L 553.70 165.29 L 557.35 170.35 L 561.00 170.31 L 564.65 178.52 L 568.30 183.93 L 571.95 184.47 L 575.60 183.89 L 579.25 179.60 L 582.90 179.60 L 586.55 180.09 L 590.20 193.75 L 593.85 189.77 L 597.50 187.64 L 601.15 198.22 L 604.80 193.93 L 608.45 196.77 L 612.10 195.50 L 615.75 196.51 L 619.40 202.27 L 623.05 200.16 L 626.70 200.75 L 630.35 201.02 L 634.00 205.96 L 637.65 209.17 L 641.30 209.82 L 644.95 210.73 L 648.60 209.20 L 652.25 210.99 L 655.90 216.72 L 659.55 218.45 L 663.20 221.52 L 666.85 221.93 L 670.50 221.45 L 674.15 228.30 L 677.80 232.58 L 681.45 229.40 L 685.10 234.62 L 688.75 232.91 L 692.40 229.74 L 696.05 233.49 L 699.70 233.38 L 703.35 234.10 L 707.00 226.27 L 710.65 224.06 L 714.30 219.52 L 717.95 225.62 L 721.60 226.17 L 725.25 226.85 L 728.90 222.54 L 732.55 220.51 L 736.20 222.41 L 739.85 216.45 L 743.50 212.10 L 747.15 217.28 L 750.80 212.77 L 754.45 205.13 L 758.10 204.52 L 761.75 209.77 L 765.40 207.97 L 769.05 212.15 L 772.70 216.44 L 776.35 221.90 L 780.00 227.80" class="path-4" />
<line x1="50" y1="150.6" x2="780" y2="150.6" stroke="#4b5563" stroke-width="0.8" stroke-dasharray="6 3" />
</svg>