<svg xmlns="http://www.w3.org/2000/svg" viewBox="0 0 800 300" width="800" height="300">
<style>
.axis-line { stroke: #6b7280; stroke-width: 0.5; }
.axis-text { font-family: monospace; font-size: 11px; fill: #9ca3af; }
.title-text { font-family: monospace; font-size: 14px; fill: #d1d5db; font-weight: bold; }
.grid-line { stroke: #374151; stroke-width: 0.3; stroke-dasharray: 4 2; }
.path-0 { fill: none; stroke: #3b82f6; stroke-width: 2; stroke-linecap: round; opacity: 0.85; animation: draw-0 8s ease-in-out 0.0s infinite; stroke-dasharray: 1284; stroke-dashoffset: 1284;}
@keyframes draw-0 { 0% { stroke-dashoffset: 1284; } 38% { stroke-dashoffset: 0; } 62% { stroke-dashoffset: 0; } 100% { stroke-dashoffset: 1284; }}
.path-1 { fill: none; stroke: #ef4444; stroke-width: 2; stroke-linecap: round; opacity: 0.85; animation: draw-1 8s ease-in-out 0.4s infinite; stroke-dasharray: 1269; stroke-dashoffset: 1269;}
@keyframes draw-1 { 0% { stroke-dashoffset: 1269; } 38% { stroke-dashoffset: 0; } 62% { stroke-dashoffset: 0; } 100% { stroke-dashoffset: 1269; }}
.path-2 { fill: none; stroke: #22c55e; stroke-width: 2; stroke-linecap: round; opacity: 0.85; animation: draw-2 8s ease-in-out 0.8s infinite; stroke-dasharray: 1312; stroke-dashoffset: 1312;}
@keyframes draw-2 { 0% { stroke-dashoffset: 1312; } 38% { stroke-dashoffset: 0; } 62% { stroke-dashoffset: 0; } 100% { stroke-dashoffset: 1312; }}
.path-3 { fill: none; stroke: #f59e0b; stroke-width: 2; stroke-linecap: round; opacity: 0.85; animation: draw-3 8s ease-in-out 1.2000000000000002s infinite; stroke-dasharray: 1321; stroke-dashoffset: 1321;}
@keyframes draw-3 { 0% { stroke-dashoffset: 1321; } 38% { stroke-dashoffset: 0; } 62% { stroke-dashoffset: 0; } 100% { stroke-dashoffset: 1321; }}
.path-4 { fill: none; stroke: #a855f7; stroke-width: 2; stroke-linecap: round; opacity: 0.85; animation: draw-4 8s ease-in-out 1.6s infinite; stroke-dasharray: 1253; stroke-dashoffset: 1253;}
@keyframes draw-4 { 0% { stroke-dashoffset: 1253; } 38% { stroke-dashoffset: 0; } 62% { stroke-dashoffset: 0; } 100% { stroke-dashoffset: 1253; }}
</style>
<rect width="800" height="300" rx="8" fill="#0d1117" />
<line x1="50" y1="260.0" x2="780" y2="260.0" class="grid-line" />
<text x="44" y="264.0" text-anchor="end" class="axis-text">-1.2</text>
<line x1="50" y1="216.0" x2="780" y2="216.0" class="grid-line" />
<text x="44" y="220.0" text-anchor="end" class="axis-text">-0.7</text>
<line x1="50" y1="172.0" x2="780" y2="172.0" class="grid-line" />
<text x="44" y="176.0" text-anchor="end" class="axis-text">-0.1</text>
<line x1="50" y1="128.0" x2="780" y2="128.0" class="grid-line" />
<text x="44" y="132.0" text-anchor="end" class="axis-text">0.4</text>
<line x1="50" y1="84.0" x2="780" y2="84.0" class="grid-line" />
<text x="44" y="88.0" text-anchor="end" class="axis-text">0.9</text>
<line x1="50" y1="40.0" x2="780" y2="40.0" class="grid-line" />
<text x="44" y="44.0" text-anchor="end" class="axis-text">1.4</text>
<line x1="50.0" y1="40" x2="50.0" y2="260" class="grid-line" />
<line x1="196.0" y1="40" x2="196.0" y2="260" class="grid-line" />
<line x1="342.0" y1="40" x2="342.0" y2="260" class="grid-line" />
<line x1="488.0" y1="40" x2="488.0" y2="260" class="grid-line" />
<line x1="634.0" y1="40" x2="634.0" y2="260" class="grid-line" />
<line x1="780.0" y1="40" x2="780.0" y2="260" class="grid-line" />
<line x1="50" y1="260" x2="780" y2="260" class="axis-line" />
<line x1="50" y1="40" x2="50" y2="260" class="axis-line" />
<text x="400.0" y="295" text-anchor="middle" class="axis-text">t</text>
<text x="12" y="150.0" text-anchor="middle" class="axis-text" transform="rotate(-90 12 150.0)">W(t)</text>
<text x="400.0" y="22" text-anchor="middle" class="title-text">Brownian Motion</text>
<path d="M 50.00 160.60 L 53.65 165.37 L 57.30 160.96 L 60.95 169.07 L 64.60 173.46 L 68.25 185.00 L 71.90 186.45 L 75.55 184.83 L 79.20 195.55 L 82.85 195.42 L 86.50 189.90 L 90.15 190.02 L 93.80 191.33 L 97.45 189.97 L 101.10 192.04 L 104.75 189.43 L 108.40 192.53 L 112.05 184.97 L 115.70 185.09 L 119.35 178.51 L 123.00 169.09 L 126.65 177.69 L 130.30 178.87 L 133.95 173.83 L 137.60 173.45 L 141.25 159.83 L 144.90 155.91 L 148.55 161.65 L 152.20 152.12 L 155.85 152.19 L 159.50 146.41 L 163.15 144.93 L 166.80 144.70 L 170.45 149.44 L 174.10 138.15 L 177.75 140.44 L 181.40 141.24 L 185.05 142.01 L 188.70 134.38 L 192.35 132.61 L 196.00 128.12 L 199.65 123.17 L 203.30 122.70 L 206.95 128.00 L 210.60 132.64 L 214.25 139.12 L 217.90 139.58 L 221.55 148.71 L 225.20 153.08 L 228.85 141.55 L 232.50 135.35 L 236.15 132.91 L 239.80 127.44 L 243.45 126.09 L 247.10 127.07 L 250.75 121.33 L 254.40 117.79 L 258.05 118.11 L 261.70 106.46 L 265.35 106.11 L 269.00 114.51 L 272.65 104.79 L 276.30 102.93 L 279.95 107.45 L 283.60 117.35 L 287.25 121.50 L 290.90 113.65 L 294.55 119.11 L 298.20 119.32 L 301.85 116.12 L 305.50 116.68 L 309.15 112.65 L 312.80 115.25 L 316.45 108.98 L 320.10 111.10 L 323.75 111.44 L 327.40 107.38 L 331.05 113.86 L 334.70 120.17 L 338.35 120.91 L 342.00 128.43 L 345.65 131.41 L 349.30 135.71 L 352.95 130.95 L 356.60 124.85 L 360.25 127.47 L 363.90 125.45 L 367.55 115.73 L 371.20 127.89 L 374.85 120.25 L 378.50 127.57 L 382.15 123.05 L 385.80 131.58 L 389.45 120.14 L 393.10 130.87 L 396.75 132.65 L 400.40 130.57 L 404.05 127.97 L 407.70 117.12 L 411.35 120.64 L 415.00 111.14 L 418.65 119.77 L 422.30 111.58 L 425.95 110.12 L 429.60 115.57 L 433.25 110.96 L 436.90 124.25 L 440.55 123.00 L 444.20 126.11 L 447.85 125.32 L 451.50 119.16 L 455.15 120.06 L 458.80 123.67 L 462.45 122.06 L 466.10 125.16 L 469.75 132.01 L 473.40 127.34 L 477.05 112.50 L 480.70 103.76 L 484.35 101.66 L 488.00 104.49 L 491.65 107.42 L 495.30 104.59 L 498.95 107.81 L 502.60 114.49 L 506.25 116.15 L 509.90 103.16 L 513.55 99.64 L 517.20 96.87 L 520.85 95.89 L 524.50 95.81 L 528.15 104.72 L 531.80 103.45 L 535.45 97.72 L 539.10 101.79 L 542.75 95.07 L 546.40 91.29 L 550.05 83.13 L 553.70 80.01 L 557.35 84.04 L 561.00 77.67 L 564.65 87.33 L 568.30 83.35 L 571.95 87.79 L 575.60 85.20 L 579.25 85.25 L 582.90 90.28 L 586.55 87.65 L 590.20 83.34 L 593.85 79.38 L 597.50 85.03 L 601.15 88.81 L 604.80 90.34 L 608.45 94.09 L 612.10 105.12 L 615.75 106.99 L 619.40 106.54 L 623.05 95.86 L 626.70 87.75 L 630.35 87.65 L 634.00 85.29 L 637.65 86.85 L 641.30 85.42 L 644.95 73.92 L 648.60 72.45 L 652.25 65.38 L 655.90 66.31 L 659.55 74.20 L 663.20 83.84 L 666.85 85.30 L 670.50 87.81 L 674.15 95.18 L 677.80 101.46 L 681.45 93.05 L 685.10 91.08 L 688.75 95.85 L 692.40 94.19 L 696.05 91.98 L 699.70 87.93 L 703.35 98.72 L 707.00 92.62 L 710.65 86.18 L 714.30 99.70 L 717.95 91.79 L 721.60 91.22 L 725.25 88.12 L 728.90 80.82 L 732.55 81.22 L 736.20 83.73 L 739.85 85.41 L 743.50 80.59 L 747.15 83.85 L 750.80 83.49 L 754.45 87.18 L 758.10 96.37 L 761.75 107.50 L 765.40 106.15 L 769.05 106.84 L 772.70 106.34 L 776.35 110.85 L 780.00 116.20" class="path-0" />
<path d="M 50.00 160.60 L 53.65 160.42 L 57.30 160.60 L 60.95 158.22 L 64.60 164.87 L 68.25 150.99 L 71.90 149.24 L 75.55 149.94 L 79.20 149.85 L 82.85 142.63 L 86.50 140.20 L 90.15 127.53 L 93.80 124.59 L 97.45 116.62 L 101.10 113.10 L 104.75 110.52 L 108.40 108.53 L 112.05 111.39 L 115.70 114.47 L 119.35 123.51 L 123.00 122.66 L 126.65 119.77 L 130.30 124.77 L 133.95 122.62 L 137.60 126.97 L 141.25 126.50 L 144.90 121.26 L 148.55 111.53 L 152.20 124.42 L 155.85 132.83 L 159.50 138.94 L 163.15 147.71 L 166.80 140.81 L 170.45 145.31 L 174.10 149.12 L 177.75 144.13 L 181.40 134.21 L 185.05 136.28 L 188.70 125.85 L 192.35 122.63 L 196.00 126.12 L 199.65 133.18 L 203.30 143.94 L 206.95 130.22 L 210.60 126.42 L 214.25 130.32 L 217.90 130.91 L 221.55 127.60 L 225.20 136.39 L 228.85 132.07 L 232.50 129.03 L 236.15 134.72 L 239.80 138.96 L 243.45 133.55 L 247.10 149.30 L 250.75 145.51 L 254.40 140.94 L 258.05 137.38 L 261.70 137.64 L 265.35 134.52 L 269.00 137.51 L 272.65 133.88 L 276.30 130.99 L 279.95 125.87 L 283.60 127.02 L 287.25 137.82 L 290.90 135.30 L 294.55 131.92 L 298.20 129.51 L 301.85 128.05 L 305.50 128.33 L 309.15 128.30 L 312.80 134.90 L 316.45 136.21 L 320.10 133.30 L 323.75 139.84 L 327.40 142.64 L 331.05 142.35 L 334.70 145.45 L 338.35 150.48 L 342.00 153.75 L 345.65 150.69 L 349.30 153.87 L 352.95 150.72 L 356.60 149.51 L 360.25 146.25 L 363.90 152.46 L 367.55 155.48 L 371.20 153.91 L 374.85 157.19 L 378.50 165.25 L 382.15 164.93 L 385.80 166.90 L 389.45 175.01 L 393.10 175.48 L 396.75 179.73 L 400.40 168.52 L 404.05 175.15 L 407.70 182.27 L 411.35 185.10 L 415.00 188.06 L 418.65 190.69 L 422.30 205.02 L 425.95 212.36 L 429.60 208.00 L 433.25 207.78 L 436.90 202.25 L 440.55 203.29 L 444.20 198.90 L 447.85 200.23 L 451.50 199.21 L 455.15 200.04 L 458.80 210.14 L 462.45 201.13 L 466.10 203.03 L 469.75 204.86 L 473.40 208.10 L 477.05 198.89 L 480.70 192.11 L 484.35 180.59 L 488.00 186.28 L 491.65 182.56 L 495.30 178.47 L 498.95 172.97 L 502.60 177.26 L 506.25 170.17 L 509.90 187.47 L 513.55 192.42 L 517.20 190.68 L 520.85 185.79 L 524.50 180.74 L 528.15 184.94 L 531.80 188.15 L 535.45 190.06 L 539.10 199.96 L 542.75 195.40 L 546.40 190.68 L 550.05 188.09 L 553.70 184.35 L 557.35 185.84 L 561.00 186.06 L 564.65 189.99 L 568.30 193.46 L 571.95 187.10 L 575.60 187.09 L 579.25 174.44 L 582.90 179.45 L 586.55 185.40 L 590.20 185.44 L 593.85 192.56 L 597.50 191.50 L 601.15 194.15 L 604.80 206.01 L 608.45 203.22 L 612.10 208.70 L 615.75 217.52 L 619.40 218.03 L 623.05 213.43 L 626.70 217.10 L 630.35 224.68 L 634.00 229.84 L 637.65 231.86 L 641.30 225.77 L 644.95 228.74 L 648.60 233.55 L 652.25 233.13 L 655.90 230.92 L 659.55 231.94 L 663.20 234.62 L 666.85 230.37 L 670.50 220.49 L 674.15 213.18 L 677.80 207.31 L 681.45 210.88 L 685.10 203.75 L 688.75 206.07 L 692.40 197.09 L 696.05 197.66 L 699.70 193.29 L 703.35 193.88 L 707.00 209.11 L 710.65 217.91 L 714.30 216.55 L 717.95 212.94 L 721.60 211.22 L 725.25 223.01 L 728.90 216.66 L 732.55 221.33 L 736.20 222.01 L 739.85 228.78 L 743.50 221.79 L 747.15 215.26 L 750.80 211.25 L 754.45 213.02 L 758.10 207.98 L 761.75 213.17 L 765.40 210.59 L 769.05 212.21 L 772.70 202.60 L 776.35 201.65 L 780.00 206.16" class="path-1" />
<path d="M 50.00 160.60 L 53.65 153.22 L 57.30 153.23 L 60.95 167.25 L 64.60 168.84 L 68.25 167.82 L 71.90 178.89 L 75.55 186.29 L 79.20 179.26 L 82.85 177.22 L 86.50 175.38 L 90.15 163.00 L 93.80 167.97 L 97.45 172.48 L 101.10 171.93 L 104.75 170.18 L 108.40 165.05 L 112.05 167.55 L 115.70 156.45 L 119.35 159.33 L 123.00 159.53 L 126.65 172.22 L 130.30 169.35 L 133.95 185.80 L 137.60 193.32 L 141.25 202.69 L 144.90 195.10 L 148.55 195.32 L 152.20 192.81 L 155.85 196.02 L 159.50 188.15 L 163.15 192.00 L 166.80 195.18 L 170.45 194.97 L 174.10 196.91 L 177.75 195.27 L 181.40 197.58 L 185.05 201.61 L 188.70 208.66 L 192.35 206.96 L 196.00 205.76 L 199.65 202.41 L 203.30 201.80 L 206.95 196.37 L 210.60 190.61 L 214.25 194.56 L 217.90 187.71 L 221.55 195.11 L 225.20 200.89 L 228.85 213.49 L 232.50 212.80 L 236.15 213.90 L 239.80 215.81 L 243.45 210.68 L 247.10 205.55 L 250.75 197.99 L 254.40 197.00 L 258.05 193.01 L 261.70 204.19 L 265.35 211.80 L 269.00 202.85 L 272.65 207.52 L 276.30 203.35 L 279.95 204.33 L 283.60 198.21 L 287.25 193.04 L 290.90 189.51 L 294.55 187.07 L 298.20 194.94 L 301.85 197.05 L 305.50 200.33 L 309.15 204.67 L 312.80 201.54 L 316.45 188.79 L 320.10 190.91 L 323.75 191.98 L 327.40 191.37 L 331.05 175.57 L 334.70 188.24 L 338.35 198.01 L 342.00 196.93 L 345.65 193.20 L 349.30 191.88 L 352.95 193.83 L 356.60 205.95 L 360.25 213.84 L 363.90 207.11 L 367.55 202.90 L 371.20 205.87 L 374.85 205.42 L 378.50 198.51 L 382.15 193.62 L 385.80 191.06 L 389.45 196.20 L 393.10 193.51 L 396.75 207.42 L 400.40 206.42 L 404.05 202.16 L 407.70 203.62 L 411.35 206.99 L 415.00 216.12 L 418.65 222.15 L 422.30 217.30 L 425.95 213.19 L 429.60 218.16 L 433.25 213.01 L 436.90 207.83 L 440.55 212.63 L 444.20 209.31 L 447.85 209.07 L 451.50 208.41 L 455.15 204.97 L 458.80 207.11 L 462.45 198.92 L 466.10 205.93 L 469.75 208.22 L 473.40 212.76 L 477.05 209.51 L 480.70 213.78 L 484.35 215.05 L 488.00 224.06 L 491.65 214.38 L 495.30 208.42 L 498.95 205.65 L 502.60 204.31 L 506.25 201.40 L 509.90 202.86 L 513.55 206.45 L 517.20 207.66 L 520.85 200.79 L 524.50 209.55 L 528.15 220.38 L 531.80 211.57 L 535.45 206.94 L 539.10 207.23 L 542.75 208.93 L 546.40 202.08 L 550.05 199.85 L 553.70 202.48 L 557.35 191.42 L 561.00 185.75 L 564.65 178.94 L 568.30 184.86 L 571.95 178.72 L 575.60 164.19 L 579.25 165.57 L 582.90 171.81 L 586.55 175.04 L 590.20 171.17 L 593.85 167.25 L 597.50 170.01 L 601.15 178.89 L 604.80 179.69 L 608.45 185.31 L 612.10 192.78 L 615.75 185.10 L 619.40 185.96 L 623.05 184.04 L 626.70 179.00 L 630.35 173.53 L 634.00 175.60 L 637.65 178.42 L 641.30 176.94 L 644.95 177.74 L 648.60 185.39 L 652.25 187.39 L 655.90 193.81 L 659.55 176.90 L 663.20 180.48 L 666.85 184.94 L 670.50 178.52 L 674.15 175.63 L 677.80 167.07 L 681.45 179.07 L 685.10 175.64 L 688.75 180.80 L 692.40 185.99 L 696.05 185.54 L 699.70 186.33 L 703.35 197.20 L 707.00 203.24 L 710.65 201.75 L 714.30 218.08 L 717.95 212.67 L 721.60 210.59 L 725.25 216.80 L 728.90 219.57 L 732.55 212.09 L 736.20 206.56 L 739.85 206.60 L 743.50 207.34 L 747.15 204.31 L 750.80 199.82 L 754.45 198.13 L 758.10 193.90 L 761.75 197.85 L 765.40 194.56 L 769.05 186.34 L 772.70 177.01 L 776.35 174.64 L 780.00 180.57" class="path-2" />
<path d="M 50.00 160.60 L 53.65 158.74 L 57.30 161.49 L 60.95 162.53 L 64.60 162.62 L 68.25 177.26 L 71.90 181.42 L 75.55 182.38 L 79.20 168.41 L 82.85 164.59 L 86.50 153.17 L 90.15 147.46 L 93.80 140.86 L 97.45 133.10 L 101.10 126.66 L 104.75 131.50 L 108.40 137.06 L 112.05 147.51 L 115.70 138.46 L 119.35 135.72 L 123.00 139.79 L 126.65 120.56 L 130.30 114.92 L 133.95 107.36 L 137.60 108.42 L 141.25 113.14 L 144.90 113.11 L 148.55 115.08 L 152.20 114.96 L 155.85 111.10 L 159.50 120.77 L 163.15 112.42 L 166.80 112.41 L 170.45 107.91 L 174.10 102.78 L 177.75 104.20 L 181.40 98.13 L 185.05 99.38 L 188.70 114.24 L 192.35 113.07 L 196.00 107.16 L 199.65 103.79 L 203.30 105.57 L 206.95 105.18 L 210.60 103.63 L 214.25 98.45 L 217.90 94.20 L 221.55 91.19 L 225.20 96.17 L 228.85 96.63 L 232.50 101.02 L 236.15 102.93 L 239.80 84.90 L 243.45 92.54 L 247.10 98.28 L 250.75 95.53 L 254.40 102.50 L 258.05 101.50 L 261.70 99.73 L 265.35 94.98 L 269.00 96.54 L 272.65 98.38 L 276.30 90.72 L 279.95 85.06 L 283.60 84.59 L 287.25 93.73 L 290.90 100.32 L 294.55 93.36 L 298.20 101.92 L 301.85 109.62 L 305.50 117.79 L 309.15 123.29 L 312.80 124.97 L 316.45 125.16 L 320.10 134.94 L 323.75 132.18 L 327.40 133.18 L 331.05 120.90 L 334.70 115.66 L 338.35 113.56 L 342.00 115.61 L 345.65 130.59 L 349.30 127.62 L 352.95 130.96 L 356.60 122.46 L 360.25 120.06 L 363.90 124.57 L 367.55 132.81 L 371.20 125.00 L 374.85 116.57 L 378.50 126.79 L 382.15 129.08 L 385.80 134.37 L 389.45 136.81 L 393.10 130.60 L 396.75 134.86 L 400.40 147.50 L 404.05 147.44 L 407.70 139.56 L 411.35 132.83 L 415.00 143.65 L 418.65 151.96 L 422.30 154.78 L 425.95 167.62 L 429.60 157.71 L 433.25 157.67 L 436.90 161.17 L 440.55 160.99 L 444.20 161.61 L 447.85 169.19 L 451.50 179.78 L 455.15 177.75 L 458.80 167.75 L 462.45 155.67 L 466.10 149.88 L 469.75 147.42 L 473.40 136.01 L 477.05 139.88 L 480.70 141.88 L 484.35 142.43 L 488.00 137.72 L 491.65 139.91 L 495.30 136.58 L 498.95 136.35 L 502.60 134.22 L 506.25 137.68 L 509.90 136.74 L 513.55 130.52 L 517.20 138.56 L 520.85 137.06 L 524.50 136.44 L 528.15 139.11 L 531.80 143.37 L 535.45 152.92 L 539.10 151.36 L 542.75 152.55 L 546.40 146.76 L 550.05 154.54 L 553.70 156.66 L 557.35 146.84 L 561.00 155.39 L 564.65 155.91 L 568.30 164.16 L 571.95 162.78 L 575.60 159.61 L 579.25 161.15 L 582.90 165.38 L 586.55 167.64 L 590.20 164.37 L 593.85 168.03 L 597.50 166.89 L 601.15 167.35 L 604.80 164.97 L 608.45 157.59 L 612.10 159.95 L 615.75 156.35 L 619.40 156.09 L 623.05 156.62 L 626.70 166.74 L 630.35 168.90 L 634.00 163.86 L 637.65 165.59 L 641.30 167.56 L 644.95 159.57 L 648.60 160.49 L 652.25 167.78 L 655.90 180.89 L 659.55 178.39 L 663.20 180.64 L 666.85 173.88 L 670.50 172.25 L 674.15 177.24 L 677.80 177.49 L 681.45 176.87 L 685.10 172.22 L 688.75 166.70 L 692.40 163.19 L 696.05 157.84 L 699.70 166.29 L 703.35 162.62 L 707.00 168.37 L 710.65 169.79 L 714.30 163.92 L 717.95 173.66 L 721.60 170.49 L 725.25 175.14 L 728.90 173.74 L 732.55 167.71 L 736.20 175.63 L 739.85 184.72 L 743.50 183.36 L 747.15 186.56 L 750.80 181.60 L 754.45 181.43 L 758.10 174.57 L 761.75 187.80 L 765.40 193.54 L 769.05 200.13 L 772.70 190.21 L 776.35 193.65 L 780.00 194.30" class="path-3" />
<path d="M 50.00 160.60 L 53.65 152.51 L 57.30 151.06 L 60.95 145.86 L 64.60 157.22 L 68.25 150.41 L 71.90 144.00 L 75.55 143.38 L 79.20 152.83 L 82.85 151.50 L 86.50 154.41 L 90.15 155.89 L 93.80 154.24 L 97.45 154.36 L 101.10 157.66 L 104.75 159.98 L 108.40 154.02 L 112.05 153.98 L 115.70 152.80 L 119.35 145.73 L 123.00 151.10 L 126.65 144.22 L 130.30 151.46 L 133.95 155.49 L 137.60 153.28 L 141.25 142.79 L 144.90 124.97 L 148.55 120.45 L 152.20 121.99 L 155.85 122.21 L 159.50 109.90 L 163.15 113.71 L 166.80 98.06 L 170.45 109.72 L 174.10 105.54 L 177.75 106.71 L 181.40 108.51 L 185.05 101.48 L 188.70 101.85 L 192.35 115.20 L 196.00 115.95 L 199.65 108.88 L 203.30 108.29 L 206.95 110.27 L 210.60 107.71 L 214.25 103.47 L 217.90 98.71 L 221.55 112.00 L 225.20 108.12 L 228.85 111.28 L 232.50 109.33 L 236.15 110.41 L 239.80 117.00 L 243.45 115.74 L 247.10 118.01 L 250.75 126.00 L 254.40 131.29 L 258.05 130.27 L 261.70 123.52 L 265.35 121.87 L 269.00 129.21 L 272.65 129.72 L 276.30 120.09 L 279.95 116.59 L 283.60 100.33 L 287.25 104.27 L 290.90 104.00 L 294.55 96.91 L 298.20 106.64 L 301.85 101.00 L 305.50 92.20 L 309.15 93.49 L 312.80 89.31 L 316.45 97.12 L 320.10 97.74 L 323.75 100.16 L 327.40 94.72 L 331.05 106.44 L 334.70 103.03 L 338.35 100.36 L 342.00 102.53 L 345.65 105.99 L 349.30 112.11 L 352.95 113.00 L 356.60 110.02 L 360.25 105.48 L 363.90 108.88 L 367.55 113.49 L 371.20 110.67 L 374.85 122.13 L 378.50 126.38 L 382.15 123.45 L 385.80 123.71 L 389.45 119.90 L 393.10 110.53 L 396.75 105.10 L 400.40 98.69 L 404.05 98.09 L 407.70 96.41 L 411.35 101.32 L 415.00 100.84 L 418.65 104.16 L 422.30 100.92 L 425.95 105.67 L 429.60 98.43 L 433.25 105.40 L 436.90 102.19 L 440.55 100.65 L 444.20 106.18 L 447.85 104.82 L 451.50 109.01 L 455.15 113.91 L 458.80 115.07 L 462.45 110.35 L 466.10 95.56 L 469.75 103.48 L 473.40 103.83 L 477.05 113.84 L 480.70 104.77 L 484.35 109.32 L 488.00 102.38 L 491.65 102.04 L 495.30 106.93 L 498.95 107.43 L 502.60 113.65 L 506.25 109.67 L 509.90 109.49 L 513.55 109.04 L 517.20 104.48 L 520.85 110.13 L 524.50 106.74 L 528.15 108.63 L 531.80 108.56 L 535.45 103.15 L 539.10 101.90 L 542.75 100.31 L 546.40 98.93 L 550.05 100.22 L 553.70 103.05 L 557.35 113.03 L 561.00 113.38 L 564.65 112.17 L 568.30 107.77 L 571.95 107.23 L 575.60 104.26 L 579.25 97.50 L 582.90 103.68 L 586.55 96.52 L 590.20 90.85 L 593.85 93.55 L 597.50 88.53 L 601.15 83.14 L 604.80 84.82 L 608.45 83.68 L 612.10 87.68 L 615.75 89.48 L 619.40 86.72 L 623.05 90.87 L 626.70 86.98 L 630.35 71.80 L 634.00 76.25 L 637.65 84.61 L 641.30 84.82 L 644.95 83.68 L 648.60 85.26 L 652.25 90.20 L 655.90 94.27 L 659.55 98.98 L 663.20 102.64 L 666.85 106.93 L 670.50 99.12 L 674.15 100.88 L 677.80 104.19 L 681.45 111.76 L 685.10 110.06 L 688.75 110.99 L 692.40 99.61 L 696.05 95.12 L 699.70 104.85 L 703.35 100.77 L 707.00 104.88 L 710.65 106.75 L 714.30 118.60 L 717.95 112.79 L 721.60 110.87 L 725.25 99.73 L 728.90 98.41 L 732.55 92.85 L 736.20 92.06 L 739.85 98.83 L 743.50 95.01 L 747.15 97.86 L 750.80 93.04 L 754.45 96.54 L 758.10 103.46 L 761.75 107.35 L 765.40 109.35 L 769.05 105.27 L 772.70 96.87 L 776.35 99.07 L 780.00 100.60" class="path-4" />
<line x1="50" y1="160.6" x2="780" y2="160.6" stroke="#4b5563" stroke-width="0.8" stroke-dasharray="6 3" />
</svg>