<svg xmlns="http://www.w3.org/2000/svg" viewBox="0 0 800 300" width="800" height="300">
<style>
.axis-line { stroke: #6b7280; stroke-width: 0.5; }
.axis-text { font-family: monospace; font-size: 11px; fill: #9ca3af; }
.title-text { font-family: monospace; font-size: 14px; fill: #d1d5db; font-weight: bold; }
.grid-line { stroke: #374151; stroke-width: 0.3; stroke-dasharray: 4 2; }
.path-0 { fill: none; stroke: #3b82f6; stroke-width: 2; stroke-linecap: round; opacity: 0.85; animation: draw-0 8s ease-in-out 0.0s infinite; stroke-dasharray: 974; stroke-dashoffset: 974;}
@keyframes draw-0 { 0% { stroke-dashoffset: 974; } 38% { stroke-dashoffset: 0; } 62% { stroke-dashoffset: 0; } 100% { stroke-dashoffset: 974; }}
.path-1 { fill: none; stroke: #ef4444; stroke-width: 2; stroke-linecap: round; opacity: 0.85; animation: draw-1 8s ease-in-out 0.4s infinite; stroke-dasharray: 988; stroke-dashoffset: 988;}
@keyframes draw-1 { 0% { stroke-dashoffset: 988; } 38% { stroke-dashoffset: 0; } 62% { stroke-dashoffset: 0; } 100% { stroke-dashoffset: 988; }}
.path-2 { fill: none; stroke: #22c55e; stroke-width: 2; stroke-linecap: round; opacity: 0.85; animation: draw-2 8s ease-in-out 0.8s infinite; stroke-dasharray: 1002; stroke-dashoffset: 1002;}
@keyframes draw-2 { 0% { stroke-dashoffset: 1002; } 38% { stroke-dashoffset: 0; } 62% { stroke-dashoffset: 0; } 100% { stroke-dashoffset: 1002; }}
.path-3 { fill: none; stroke: #f59e0b; stroke-width: 2; stroke-linecap: round; opacity: 0.85; animation: draw-3 8s ease-in-out 1.2000000000000002s infinite; stroke-dasharray: 986; stroke-dashoffset: 986;}
@keyframes draw-3 { 0% { stroke-dashoffset: 986; } 38% { stroke-dashoffset: 0; } 62% { stroke-dashoffset: 0; } 100% { stroke-dashoffset: 986; }}
.path-4 { fill: none; stroke: #a855f7; stroke-width: 2; stroke-linecap: round; opacity: 0.85; animation: draw-4 8s ease-in-out 1.6s infinite; stroke-dasharray: 953; stroke-dashoffset: 953;}
@keyframes draw-4 { 0% { stroke-dashoffset: 953; } 38% { stroke-dashoffset: 0; } 62% { stroke-dashoffset: 0; } 100% { stroke-dashoffset: 953; }}
</style>
<rect width="800" height="300" rx="8" fill="#0d1117" />
<line x1="50" y1="260.0" x2="780" y2="260.0" class="grid-line" />
<text x="44" y="264.0" text-anchor="end" class="axis-text">-3.2</text>
<line x1="50" y1="216.0" x2="780" y2="216.0" class="grid-line" />
<text x="44" y="220.0" text-anchor="end" class="axis-text">-2.2</text>
<line x1="50" y1="172.0" x2="780" y2="172.0" class="grid-line" />
<text x="44" y="176.0" text-anchor="end" class="axis-text">-1.3</text>
<line x1="50" y1="128.0" x2="780" y2="128.0" class="grid-line" />
<text x="44" y="132.0" text-anchor="end" class="axis-text">-0.4</text>
<line x1="50" y1="84.0" x2="780" y2="84.0" class="grid-line" />
<text x="44" y="88.0" text-anchor="end" class="axis-text">0.5</text>
<line x1="50" y1="40.0" x2="780" y2="40.0" class="grid-line" />
<text x="44" y="44.0" text-anchor="end" class="axis-text">1.4</text>
<line x1="50.0" y1="40" x2="50.0" y2="260" class="grid-line" />
<line x1="196.0" y1="40" x2="196.0" y2="260" class="grid-line" />
<line x1="342.0" y1="40" x2="342.0" y2="260" class="grid-line" />
<line x1="488.0" y1="40" x2="488.0" y2="260" class="grid-line" />
<line x1="634.0" y1="40" x2="634.0" y2="260" class="grid-line" />
<line x1="780.0" y1="40" x2="780.0" y2="260" class="grid-line" />
<line x1="50" y1="260" x2="780" y2="260" class="axis-line" />
<line x1="50" y1="40" x2="50" y2="260" class="axis-line" />
<text x="400.0" y="295" text-anchor="middle" class="axis-text">t</text>
<text x="12" y="150.0" text-anchor="middle" class="axis-text" transform="rotate(-90 12 150.0)">W(t)</text>
<text x="400.0" y="22" text-anchor="middle" class="title-text">Brownian Motion</text>
<path d="M 50.00 107.25 L 53.65 105.78 L 57.30 104.22 L 60.95 105.00 L 64.60 105.82 L 68.25 100.79 L 71.90 98.89 L 75.55 98.65 L 79.20 95.04 L 82.85 91.92 L 86.50 88.58 L 90.15 85.00 L 93.80 86.92 L 97.45 86.17 L 101.10 83.87 L 104.75 82.67 L 108.40 90.27 L 112.05 91.39 L 115.70 91.45 L 119.35 92.68 L 123.00 90.17 L 126.65 89.67 L 130.30 91.55 L 133.95 90.23 L 137.60 98.97 L 141.25 93.24 L 144.90 91.44 L 148.55 91.25 L 152.20 90.77 L 155.85 86.63 L 159.50 87.18 L 163.15 88.98 L 166.80 85.88 L 170.45 78.85 L 174.10 79.36 L 177.75 73.71 L 181.40 70.17 L 185.05 65.38 L 188.70 69.49 L 192.35 70.74 L 196.00 71.46 L 199.65 70.76 L 203.30 76.20 L 206.95 73.78 L 210.60 77.38 L 214.25 84.24 L 217.90 82.16 L 221.55 80.50 L 225.20 77.61 L 228.85 74.44 L 232.50 73.68 L 236.15 77.92 L 239.80 76.44 L 243.45 77.50 L 247.10 79.95 L 250.75 83.00 L 254.40 84.59 L 258.05 77.15 L 261.70 78.15 L 265.35 75.80 L 269.00 75.63 L 272.65 76.69 L 276.30 80.20 L 279.95 84.61 L 283.60 84.67 L 287.25 90.07 L 290.90 96.71 L 294.55 100.56 L 298.20 101.13 L 301.85 97.18 L 305.50 100.70 L 309.15 102.65 L 312.80 100.96 L 316.45 102.86 L 320.10 105.26 L 323.75 103.08 L 327.40 106.07 L 331.05 112.43 L 334.70 114.08 L 338.35 111.41 L 342.00 114.47 L 345.65 116.05 L 349.30 113.97 L 352.95 109.59 L 356.60 108.11 L 360.25 100.43 L 363.90 96.84 L 367.55 104.13 L 371.20 101.21 L 374.85 100.81 L 378.50 94.27 L 382.15 91.41 L 385.80 93.27 L 389.45 98.35 L 393.10 96.39 L 396.75 93.32 L 400.40 88.93 L 404.05 86.67 L 407.70 89.43 L 411.35 88.87 L 415.00 87.48 L 418.65 92.87 L 422.30 95.84 L 425.95 97.96 L 429.60 99.75 L 433.25 101.20 L 436.90 102.15 L 440.55 97.62 L 444.20 95.69 L 447.85 97.64 L 451.50 99.95 L 455.15 101.49 L 458.80 105.84 L 462.45 105.52 L 466.10 106.30 L 469.75 103.06 L 473.40 101.64 L 477.05 106.04 L 480.70 105.21 L 484.35 106.40 L 488.00 107.21 L 491.65 110.60 L 495.30 114.83 L 498.95 113.61 L 502.60 114.44 L 506.25 116.68 L 509.90 115.45 L 513.55 111.12 L 517.20 104.05 L 520.85 109.22 L 524.50 108.73 L 528.15 104.09 L 531.80 102.50 L 535.45 103.89 L 539.10 101.08 L 542.75 104.24 L 546.40 106.60 L 550.05 103.13 L 553.70 107.04 L 557.35 105.40 L 561.00 106.17 L 564.65 107.15 L 568.30 113.05 L 571.95 107.21 L 575.60 109.84 L 579.25 112.78 L 582.90 116.72 L 586.55 115.76 L 590.20 112.92 L 593.85 110.21 L 597.50 110.95 L 601.15 114.36 L 604.80 116.03 L 608.45 119.54 L 612.10 117.37 L 615.75 117.96 L 619.40 117.62 L 623.05 123.17 L 626.70 126.57 L 630.35 127.81 L 634.00 129.09 L 637.65 124.20 L 641.30 131.36 L 644.95 134.71 L 648.60 128.69 L 652.25 128.11 L 655.90 125.96 L 659.55 116.83 L 663.20 115.11 L 666.85 120.46 L 670.50 118.18 L 674.15 120.03 L 677.80 117.58 L 681.45 114.33 L 685.10 116.55 L 688.75 118.63 L 692.40 119.73 L 696.05 120.31 L 699.70 120.41 L 703.35 114.29 L 707.00 110.59 L 710.65 112.25 L 714.30 109.61 L 717.95 113.55 L 721.60 111.80 L 725.25 119.45 L 728.90 123.47 L 732.55 124.45 L 736.20 121.42 L 739.85 121.44 L 743.50 118.78 L 747.15 122.30 L 750.80 127.06 L 754.45 125.72 L 758.10 124.62 L 761.75 120.09 L 765.40 120.53 L 769.05 117.01 L 772.70 117.48 L 776.35 117.51 L 780.00 125.02" class="path-0" />
<path d="M 50.00 107.25 L 53.65 106.19 L 57.30 106.53 L 60.95 111.48 L 64.60 115.03 L 68.25 112.17 L 71.90 117.79 L 75.55 112.59 L 79.20 113.45 L 82.85 104.99 L 86.50 101.28 L 90.15 98.61 L 93.80 100.44 L 97.45 102.75 L 101.10 102.96 L 104.75 98.94 L 108.40 96.25 L 112.05 95.97 L 115.70 91.80 L 119.35 95.01 L 123.00 92.82 L 126.65 93.55 L 130.30 98.28 L 133.95 108.18 L 137.60 108.12 L 141.25 107.85 L 144.90 107.41 L 148.55 107.96 L 152.20 102.78 L 155.85 100.78 L 159.50 97.45 L 163.15 97.90 L 166.80 101.62 L 170.45 103.65 L 174.10 113.06 L 177.75 115.76 L 181.40 118.95 L 185.05 112.89 L 188.70 111.05 L 192.35 109.17 L 196.00 103.79 L 199.65 106.99 L 203.30 109.11 L 206.95 105.64 L 210.60 105.34 L 214.25 104.08 L 217.90 104.53 L 221.55 109.08 L 225.20 107.01 L 228.85 103.52 L 232.50 103.72 L 236.15 104.57 L 239.80 105.84 L 243.45 101.15 L 247.10 96.89 L 250.75 91.46 L 254.40 88.26 L 258.05 88.63 L 261.70 88.82 L 265.35 89.51 L 269.00 93.65 L 272.65 95.86 L 276.30 93.95 L 279.95 96.53 L 283.60 100.57 L 287.25 97.61 L 290.90 99.29 L 294.55 93.27 L 298.20 94.52 L 301.85 91.73 L 305.50 94.37 L 309.15 87.56 L 312.80 91.52 L 316.45 95.11 L 320.10 94.09 L 323.75 96.76 L 327.40 90.67 L 331.05 89.73 L 334.70 93.20 L 338.35 98.24 L 342.00 92.49 L 345.65 91.13 L 349.30 96.74 L 352.95 98.37 L 356.60 100.60 L 360.25 95.67 L 363.90 95.36 L 367.55 99.94 L 371.20 104.40 L 374.85 104.61 L 378.50 102.94 L 382.15 101.54 L 385.80 99.50 L 389.45 97.76 L 393.10 103.73 L 396.75 104.77 L 400.40 114.23 L 404.05 114.62 L 407.70 117.83 L 411.35 113.60 L 415.00 112.81 L 418.65 114.68 L 422.30 111.00 L 425.95 114.81 L 429.60 112.69 L 433.25 112.08 L 436.90 113.03 L 440.55 110.79 L 444.20 107.30 L 447.85 104.57 L 451.50 107.20 L 455.15 102.05 L 458.80 103.03 L 462.45 107.22 L 466.10 104.94 L 469.75 98.62 L 473.40 93.60 L 477.05 96.74 L 480.70 100.50 L 484.35 94.13 L 488.00 94.35 L 491.65 96.62 L 495.30 97.95 L 498.95 99.75 L 502.60 107.74 L 506.25 109.63 L 509.90 112.34 L 513.55 114.71 L 517.20 116.43 L 520.85 111.44 L 524.50 112.59 L 528.15 111.71 L 531.80 117.77 L 535.45 111.38 L 539.10 117.69 L 542.75 112.92 L 546.40 113.00 L 550.05 109.92 L 553.70 114.09 L 557.35 116.22 L 561.00 113.35 L 564.65 117.18 L 568.30 125.61 L 571.95 120.29 L 575.60 121.33 L 579.25 121.56 L 582.90 125.95 L 586.55 129.71 L 590.20 132.33 L 593.85 132.97 L 597.50 134.71 L 601.15 137.19 L 604.80 138.38 L 608.45 135.38 L 612.10 131.05 L 615.75 130.18 L 619.40 133.42 L 623.05 135.93 L 626.70 136.91 L 630.35 135.78 L 634.00 140.99 L 637.65 138.23 L 641.30 134.81 L 644.95 133.81 L 648.60 133.75 L 652.25 135.19 L 655.90 137.55 L 659.55 140.13 L 663.20 134.62 L 666.85 133.69 L 670.50 134.61 L 674.15 134.02 L 677.80 131.54 L 681.45 133.84 L 685.10 132.31 L 688.75 133.93 L 692.40 132.12 L 696.05 130.13 L 699.70 131.63 L 703.35 128.99 L 707.00 124.75 L 710.65 120.72 L 714.30 118.38 L 717.95 118.55 L 721.60 122.76 L 725.25 125.38 L 728.90 132.93 L 732.55 132.99 L 736.20 136.91 L 739.85 139.26 L 743.50 141.33 L 747.15 137.77 L 750.80 141.46 L 754.45 142.42 L 758.10 141.86 L 761.75 145.25 L 765.40 152.60 L 769.05 153.69 L 772.70 156.98 L 776.35 157.49 L 780.00 157.09" class="path-1" />
<path d="M 50.00 107.25 L 53.65 104.00 L 57.30 102.25 L 60.95 103.02 L 64.60 98.74 L 68.25 96.67 L 71.90 101.72 L 75.55 101.53 L 79.20 106.99 L 82.85 110.98 L 86.50 103.32 L 90.15 105.59 L 93.80 111.22 L 97.45 117.71 L 101.10 117.23 L 104.75 117.60 L 108.40 117.55 L 112.05 117.77 L 115.70 121.10 L 119.35 119.95 L 123.00 125.60 L 126.65 127.49 L 130.30 131.07 L 133.95 130.20 L 137.60 125.34 L 141.25 119.76 L 144.90 117.73 L 148.55 115.07 L 152.20 116.28 L 155.85 118.87 L 159.50 116.15 L 163.15 114.15 L 166.80 115.60 L 170.45 116.07 L 174.10 119.14 L 177.75 112.78 L 181.40 107.38 L 185.05 104.75 L 188.70 99.73 L 192.35 108.42 L 196.00 114.03 L 199.65 111.72 L 203.30 117.10 L 206.95 114.22 L 210.60 110.27 L 214.25 110.16 L 217.90 110.31 L 221.55 112.81 L 225.20 112.77 L 228.85 112.69 L 232.50 112.07 L 236.15 116.88 L 239.80 116.38 L 243.45 120.64 L 247.10 114.76 L 250.75 121.04 L 254.40 123.41 L 258.05 121.07 L 261.70 127.48 L 265.35 127.37 L 269.00 122.96 L 272.65 131.76 L 276.30 129.76 L 279.95 130.33 L 283.60 133.81 L 287.25 133.43 L 290.90 139.90 L 294.55 141.49 L 298.20 139.88 L 301.85 142.97 L 305.50 140.21 L 309.15 136.89 L 312.80 134.17 L 316.45 140.33 L 320.10 142.44 L 323.75 145.78 L 327.40 142.86 L 331.05 145.35 L 334.70 145.59 L 338.35 147.35 L 342.00 141.94 L 345.65 140.50 L 349.30 141.71 L 352.95 142.61 L 356.60 141.98 L 360.25 141.71 L 363.90 140.84 L 367.55 140.59 L 371.20 138.13 L 374.85 136.14 L 378.50 137.45 L 382.15 135.38 L 385.80 136.50 L 389.45 129.96 L 393.10 127.60 L 396.75 122.36 L 400.40 124.21 L 404.05 124.22 L 407.70 128.60 L 411.35 127.16 L 415.00 123.18 L 418.65 125.77 L 422.30 127.92 L 425.95 127.42 L 429.60 124.87 L 433.25 119.94 L 436.90 113.33 L 440.55 106.41 L 444.20 106.26 L 447.85 111.83 L 451.50 111.27 L 455.15 111.65 L 458.80 113.04 L 462.45 111.45 L 466.10 111.41 L 469.75 106.50 L 473.40 102.19 L 477.05 99.90 L 480.70 99.54 L 484.35 99.96 L 488.00 104.14 L 491.65 106.74 L 495.30 106.49 L 498.95 111.21 L 502.60 106.92 L 506.25 111.21 L 509.90 112.10 L 513.55 110.56 L 517.20 113.70 L 520.85 110.73 L 524.50 111.41 L 528.15 109.68 L 531.80 114.86 L 535.45 119.86 L 539.10 123.69 L 542.75 122.23 L 546.40 121.84 L 550.05 112.37 L 553.70 112.67 L 557.35 107.69 L 561.00 103.41 L 564.65 97.51 L 568.30 95.82 L 571.95 94.51 L 575.60 97.86 L 579.25 103.02 L 582.90 107.68 L 586.55 112.32 L 590.20 106.87 L 593.85 112.13 L 597.50 111.73 L 601.15 110.44 L 604.80 108.79 L 608.45 106.02 L 612.10 107.17 L 615.75 109.92 L 619.40 112.23 L 623.05 112.80 L 626.70 110.19 L 630.35 112.44 L 634.00 110.68 L 637.65 111.42 L 641.30 110.06 L 644.95 107.05 L 648.60 103.13 L 652.25 103.07 L 655.90 104.02 L 659.55 105.32 L 663.20 101.09 L 666.85 107.77 L 670.50 107.62 L 674.15 108.28 L 677.80 112.17 L 681.45 118.74 L 685.10 114.20 L 688.75 106.42 L 692.40 102.84 L 696.05 109.81 L 699.70 105.55 L 703.35 108.64 L 707.00 109.99 L 710.65 113.21 L 714.30 118.68 L 717.95 122.66 L 721.60 119.61 L 725.25 111.43 L 728.90 106.84 L 732.55 102.84 L 736.20 103.25 L 739.85 102.41 L 743.50 105.33 L 747.15 108.16 L 750.80 109.40 L 754.45 111.27 L 758.10 114.34 L 761.75 108.81 L 765.40 108.10 L 769.05 104.14 L 772.70 100.18 L 776.35 103.34 L 780.00 106.78" class="path-2" />
<path d="M 50.00 107.25 L 53.65 106.60 L 57.30 105.84 L 60.95 106.12 L 64.60 102.40 L 68.25 106.06 L 71.90 106.37 L 75.55 105.77 L 79.20 100.05 L 82.85 96.89 L 86.50 95.18 L 90.15 101.24 L 93.80 100.24 L 97.45 100.59 L 101.10 105.38 L 104.75 107.72 L 108.40 109.38 L 112.05 115.85 L 115.70 113.87 L 119.35 123.12 L 123.00 118.19 L 126.65 115.57 L 130.30 110.28 L 133.95 103.11 L 137.60 104.75 L 141.25 107.39 L 144.90 108.21 L 148.55 106.74 L 152.20 106.27 L 155.85 106.38 L 159.50 106.37 L 163.15 108.20 L 166.80 107.34 L 170.45 114.76 L 174.10 114.79 L 177.75 108.70 L 181.40 106.03 L 185.05 108.10 L 188.70 115.08 L 192.35 119.14 L 196.00 117.47 L 199.65 114.25 L 203.30 115.57 L 206.95 115.85 L 210.60 113.81 L 214.25 111.30 L 217.90 113.44 L 221.55 116.84 L 225.20 116.38 L 228.85 114.48 L 232.50 111.63 L 236.15 112.97 L 239.80 111.26 L 243.45 107.13 L 247.10 110.90 L 250.75 112.08 L 254.40 110.92 L 258.05 109.59 L 261.70 108.36 L 265.35 103.15 L 269.00 98.12 L 272.65 98.48 L 276.30 100.50 L 279.95 103.75 L 283.60 104.57 L 287.25 112.13 L 290.90 112.14 L 294.55 114.45 L 298.20 114.25 L 301.85 115.35 L 305.50 117.84 L 309.15 118.33 L 312.80 123.64 L 316.45 118.85 L 320.10 114.52 L 323.75 113.74 L 327.40 112.34 L 331.05 111.30 L 334.70 110.85 L 338.35 110.40 L 342.00 112.10 L 345.65 110.89 L 349.30 113.91 L 352.95 114.92 L 356.60 115.31 L 360.25 116.47 L 363.90 121.28 L 367.55 115.79 L 371.20 123.81 L 374.85 120.87 L 378.50 119.29 L 382.15 118.58 L 385.80 116.84 L 389.45 118.69 L 393.10 116.35 L 396.75 116.82 L 400.40 121.50 L 404.05 124.06 L 407.70 123.00 L 411.35 129.14 L 415.00 123.76 L 418.65 122.73 L 422.30 115.46 L 425.95 114.53 L 429.60 111.68 L 433.25 113.33 L 436.90 115.19 L 440.55 116.41 L 444.20 110.97 L 447.85 110.36 L 451.50 104.86 L 455.15 113.69 L 458.80 117.59 L 462.45 116.55 L 466.10 113.76 L 469.75 110.00 L 473.40 116.84 L 477.05 118.88 L 480.70 114.90 L 484.35 117.87 L 488.00 113.47 L 491.65 106.26 L 495.30 106.57 L 498.95 101.58 L 502.60 108.26 L 506.25 112.12 L 509.90 114.12 L 513.55 110.94 L 517.20 106.56 L 520.85 104.88 L 524.50 110.94 L 528.15 109.03 L 531.80 109.86 L 535.45 114.55 L 539.10 115.92 L 542.75 116.92 L 546.40 110.23 L 550.05 106.45 L 553.70 108.10 L 557.35 110.07 L 561.00 109.48 L 564.65 112.04 L 568.30 115.15 L 571.95 114.88 L 575.60 112.24 L 579.25 113.96 L 582.90 111.56 L 586.55 113.25 L 590.20 110.72 L 593.85 112.05 L 597.50 117.77 L 601.15 120.73 L 604.80 124.77 L 608.45 123.85 L 612.10 125.07 L 615.75 117.98 L 619.40 121.91 L 623.05 121.59 L 626.70 121.22 L 630.35 119.97 L 634.00 114.85 L 637.65 105.89 L 641.30 104.93 L 644.95 98.16 L 648.60 98.44 L 652.25 98.27 L 655.90 90.70 L 659.55 89.03 L 663.20 85.95 L 666.85 88.74 L 670.50 83.75 L 674.15 84.24 L 677.80 80.71 L 681.45 81.73 L 685.10 77.87 L 688.75 79.86 L 692.40 80.97 L 696.05 82.81 L 699.70 81.61 L 703.35 80.68 L 707.00 79.71 L 710.65 83.95 L 714.30 83.36 L 717.95 81.47 L 721.60 76.45 L 725.25 77.08 L 728.90 72.78 L 732.55 78.02 L 736.20 80.16 L 739.85 80.59 L 743.50 76.14 L 747.15 80.94 L 750.80 79.27 L 754.45 84.56 L 758.10 80.92 L 761.75 81.99 L 765.40 81.87 L 769.05 86.70 L 772.70 88.01 L 776.35 83.39 L 780.00 88.79" class="path-3" />
<path d="M 50.00 107.25 L 53.65 102.99 L 57.30 104.30 L 60.95 106.99 L 64.60 110.39 L 68.25 109.04 L 71.90 113.63 L 75.55 113.26 L 79.20 115.19 L 82.85 115.28 L 86.50 112.06 L 90.15 116.49 L 93.80 113.70 L 97.45 114.35 L 101.10 111.71 L 104.75 109.23 L 108.40 106.20 L 112.05 112.09 L 115.70 110.06 L 119.35 109.76 L 123.00 116.30 L 126.65 120.22 L 130.30 121.02 L 133.95 118.59 L 137.60 121.64 L 141.25 125.80 L 144.90 121.95 L 148.55 120.86 L 152.20 119.32 L 155.85 117.59 L 159.50 116.32 L 163.15 116.12 L 166.80 119.49 L 170.45 122.45 L 174.10 121.92 L 177.75 123.90 L 181.40 123.08 L 185.05 124.26 L 188.70 126.43 L 192.35 130.73 L 196.00 132.25 L 199.65 128.32 L 203.30 134.78 L 206.95 134.30 L 210.60 138.69 L 214.25 140.64 L 217.90 144.39 L 221.55 141.45 L 225.20 136.48 L 228.85 133.87 L 232.50 128.84 L 236.15 129.16 L 239.80 135.28 L 243.45 131.57 L 247.10 135.32 L 250.75 137.58 L 254.40 137.51 L 258.05 138.13 L 261.70 135.22 L 265.35 137.73 L 269.00 137.47 L 272.65 141.88 L 276.30 141.54 L 279.95 136.24 L 283.60 135.91 L 287.25 138.57 L 290.90 140.25 L 294.55 145.61 L 298.20 147.53 L 301.85 149.74 L 305.50 147.11 L 309.15 141.01 L 312.80 139.84 L 316.45 144.42 L 320.10 143.33 L 323.75 142.94 L 327.40 145.60 L 331.05 150.13 L 334.70 152.44 L 338.35 153.85 L 342.00 156.59 L 345.65 162.09 L 349.30 162.75 L 352.95 160.60 L 356.60 163.05 L 360.25 161.99 L 363.90 167.82 L 367.55 168.32 L 371.20 167.39 L 374.85 166.53 L 378.50 165.09 L 382.15 166.02 L 385.80 165.04 L 389.45 160.21 L 393.10 159.29 L 396.75 158.00 L 400.40 151.28 L 404.05 149.01 L 407.70 149.98 L 411.35 152.40 L 415.00 155.62 L 418.65 159.66 L 422.30 162.21 L 425.95 158.60 L 429.60 159.50 L 433.25 163.69 L 436.90 161.53 L 440.55 154.98 L 444.20 154.67 L 447.85 155.42 L 451.50 155.62 L 455.15 161.27 L 458.80 154.70 L 462.45 149.79 L 466.10 146.82 L 469.75 152.09 L 473.40 153.16 L 477.05 155.86 L 480.70 155.43 L 484.35 160.89 L 488.00 163.09 L 491.65 162.80 L 495.30 158.84 L 498.95 157.42 L 502.60 162.40 L 506.25 161.21 L 509.90 159.78 L 513.55 158.48 L 517.20 157.59 L 520.85 158.75 L 524.50 157.76 L 528.15 165.41 L 531.80 166.55 L 535.45 168.70 L 539.10 169.65 L 542.75 171.17 L 546.40 174.51 L 550.05 172.48 L 553.70 174.51 L 557.35 172.11 L 561.00 172.20 L 564.65 170.88 L 568.30 173.91 L 571.95 173.79 L 575.60 174.90 L 579.25 174.17 L 582.90 175.46 L 586.55 178.14 L 590.20 173.90 L 593.85 176.68 L 597.50 182.32 L 601.15 191.32 L 604.80 189.92 L 608.45 192.47 L 612.10 193.54 L 615.75 194.71 L 619.40 200.80 L 623.05 197.51 L 626.70 196.65 L 630.35 198.45 L 634.00 204.98 L 637.65 201.68 L 641.30 198.85 L 644.95 202.27 L 648.60 205.35 L 652.25 208.45 L 655.90 206.67 L 659.55 206.69 L 663.20 212.76 L 666.85 208.60 L 670.50 208.65 L 674.15 212.50 L 677.80 213.38 L 681.45 210.03 L 685.10 210.51 L 688.75 214.14 L 692.40 217.56 L 696.05 220.88 L 699.70 227.01 L 703.35 232.75 L 707.00 232.97 L 710.65 230.79 L 714.30 230.85 L 717.95 233.10 L 721.60 231.18 L 725.25 228.13 L 728.90 225.02 L 732.55 223.85 L 736.20 230.30 L 739.85 230.10 L 743.50 234.62 L 747.15 233.92 L 750.80 229.70 L 754.45 225.64 L 758.10 225.56 L 761.75 223.65 L 765.40 226.11 L 769.05 229.56 L 772.70 227.52 L 776.35 229.99 L 780.00 230.25" class="path-4" />
<line x1="50" y1="107.2" x2="780" y2="107.2" stroke="#4b5563" stroke-width="0.8" stroke-dasharray="6 3" />
</svg>