<svg xmlns="http://www.w3.org/2000/svg" viewBox="0 0 800 300" width="800" height="300">
<style>
.axis-line { stroke: #6b7280; stroke-width: 0.5; }
.axis-text { font-family: monospace; font-size: 11px; fill: #9ca3af; }
.title-text { font-family: monospace; font-size: 14px; fill: #d1d5db; font-weight: bold; }
.grid-line { stroke: #374151; stroke-width: 0.3; stroke-dasharray: 4 2; }
.path-0 { fill: none; stroke: #3b82f6; stroke-width: 2; stroke-linecap: round; opacity: 0.85; animation: draw-0 8s ease-in-out 0.0s infinite; stroke-dasharray: 1002; stroke-dashoffset: 1002;}
@keyframes draw-0 { 0% { stroke-dashoffset: 1002; } 38% { stroke-dashoffset: 0; } 62% { stroke-dashoffset: 0; } 100% { stroke-dashoffset: 1002; }}
.path-1 { fill: none; stroke: #ef4444; stroke-width: 2; stroke-linecap: round; opacity: 0.85; animation: draw-1 8s ease-in-out 0.4s infinite; stroke-dasharray: 931; stroke-dashoffset: 931;}
@keyframes draw-1 { 0% { stroke-dashoffset: 931; } 38% { stroke-dashoffset: 0; } 62% { stroke-dashoffset: 0; } 100% { stroke-dashoffset: 931; }}
.path-2 { fill: none; stroke: #22c55e; stroke-width: 2; stroke-linecap: round; opacity: 0.85; animation: draw-2 8s ease-in-out 0.8s infinite; stroke-dasharray: 980; stroke-dashoffset: 980;}
@keyframes draw-2 { 0% { stroke-dashoffset: 980; } 38% { stroke-dashoffset: 0; } 62% { stroke-dashoffset: 0; } 100% { stroke-dashoffset: 980; }}
.path-3 { fill: none; stroke: #f59e0b; stroke-width: 2; stroke-linecap: round; opacity: 0.85; animation: draw-3 8s ease-in-out 1.2000000000000002s infinite; stroke-dasharray: 976; stroke-dashoffset: 976;}
@keyframes draw-3 { 0% { stroke-dashoffset: 976; } 38% { stroke-dashoffset: 0; } 62% { stroke-dashoffset: 0; } 100% { stroke-dashoffset: 976; }}
.path-4 { fill: none; stroke: #a855f7; stroke-width: 2; stroke-linecap: round; opacity: 0.85; animation: draw-4 8s ease-in-out 1.6s infinite; stroke-dasharray: 1035; stroke-dashoffset: 1035;}
@keyframes draw-4 { 0% { stroke-dashoffset: 1035; } 38% { stroke-dashoffset: 0; } 62% { stroke-dashoffset: 0; } 100% { stroke-dashoffset: 1035; }}
</style>
<rect width="800" height="300" rx="8" fill="#0d1117" />
<line x1="50" y1="260.0" x2="780" y2="260.0" class="grid-line" />
<text x="44" y="264.0" text-anchor="end" class="axis-text">-2.7</text>
<line x1="50" y1="216.0" x2="780" y2="216.0" class="grid-line" />
<text x="44" y="220.0" text-anchor="end" class="axis-text">-1.8</text>
<line x1="50" y1="172.0" x2="780" y2="172.0" class="grid-line" />
<text x="44" y="176.0" text-anchor="end" class="axis-text">-0.9</text>
<line x1="50" y1="128.0" x2="780" y2="128.0" class="grid-line" />
<text x="44" y="132.0" text-anchor="end" class="axis-text">0.0</text>
<line x1="50" y1="84.0" x2="780" y2="84.0" class="grid-line" />
<text x="44" y="88.0" text-anchor="end" class="axis-text">0.9</text>
<line x1="50" y1="40.0" x2="780" y2="40.0" class="grid-line" />
<text x="44" y="44.0" text-anchor="end" class="axis-text">1.8</text>
<line x1="50.0" y1="40" x2="50.0" y2="260" class="grid-line" />
<line x1="196.0" y1="40" x2="196.0" y2="260" class="grid-line" />
<line x1="342.0" y1="40" x2="342.0" y2="260" class="grid-line" />
<line x1="488.0" y1="40" x2="488.0" y2="260" class="grid-line" />
<line x1="634.0" y1="40" x2="634.0" y2="260" class="grid-line" />
<line x1="780.0" y1="40" x2="780.0" y2="260" class="grid-line" />
<line x1="50" y1="260" x2="780" y2="260" class="axis-line" />
<line x1="50" y1="40" x2="50" y2="260" class="axis-line" />
<text x="400.0" y="295" text-anchor="middle" class="axis-text">t</text>
<text x="12" y="150.0" text-anchor="middle" class="axis-text" transform="rotate(-90 12 150.0)">W(t)</text>
<text x="400.0" y="22" text-anchor="middle" class="title-text">Brownian Motion</text>
<path d="M 50.00 128.19 L 53.65 125.22 L 57.30 121.10 L 60.95 121.61 L 64.60 124.81 L 68.25 121.92 L 71.90 127.03 L 75.55 124.91 L 79.20 131.31 L 82.85 136.46 L 86.50 133.69 L 90.15 136.82 L 93.80 131.26 L 97.45 132.75 L 101.10 133.64 L 104.75 132.14 L 108.40 133.28 L 112.05 132.32 L 115.70 135.74 L 119.35 131.92 L 123.00 132.94 L 126.65 131.86 L 130.30 129.96 L 133.95 131.46 L 137.60 134.17 L 141.25 136.11 L 144.90 132.13 L 148.55 131.95 L 152.20 133.69 L 155.85 136.91 L 159.50 139.09 L 163.15 135.54 L 166.80 135.06 L 170.45 131.46 L 174.10 131.02 L 177.75 134.28 L 181.40 127.61 L 185.05 121.58 L 188.70 118.34 L 192.35 117.26 L 196.00 120.91 L 199.65 113.86 L 203.30 112.05 L 206.95 116.31 L 210.60 110.30 L 214.25 108.55 L 217.90 106.06 L 221.55 106.81 L 225.20 108.33 L 228.85 112.15 L 232.50 112.99 L 236.15 108.20 L 239.80 107.35 L 243.45 108.24 L 247.10 115.54 L 250.75 112.49 L 254.40 114.49 L 258.05 114.76 L 261.70 111.52 L 265.35 113.50 L 269.00 115.06 L 272.65 117.83 L 276.30 124.07 L 279.95 118.90 L 283.60 118.60 L 287.25 119.24 L 290.90 122.30 L 294.55 121.42 L 298.20 118.43 L 301.85 121.91 L 305.50 124.86 L 309.15 122.92 L 312.80 116.18 L 316.45 113.92 L 320.10 117.46 L 323.75 115.93 L 327.40 117.51 L 331.05 123.33 L 334.70 124.21 L 338.35 122.98 L 342.00 121.47 L 345.65 117.35 L 349.30 115.42 L 352.95 118.35 L 356.60 117.92 L 360.25 116.33 L 363.90 120.88 L 367.55 119.75 L 371.20 120.14 L 374.85 125.56 L 378.50 126.45 L 382.15 128.10 L 385.80 120.14 L 389.45 130.81 L 393.10 125.65 L 396.75 126.45 L 400.40 121.56 L 404.05 123.39 L 407.70 123.31 L 411.35 126.85 L 415.00 127.88 L 418.65 133.19 L 422.30 128.06 L 425.95 127.86 L 429.60 125.07 L 433.25 133.19 L 436.90 126.33 L 440.55 127.33 L 444.20 126.29 L 447.85 123.54 L 451.50 117.08 L 455.15 124.34 L 458.80 130.75 L 462.45 131.38 L 466.10 130.62 L 469.75 129.07 L 473.40 125.54 L 477.05 132.92 L 480.70 134.29 L 484.35 135.00 L 488.00 141.11 L 491.65 140.42 L 495.30 135.27 L 498.95 138.34 L 502.60 135.40 L 506.25 136.36 L 509.90 134.06 L 513.55 137.63 L 517.20 138.84 L 520.85 139.78 L 524.50 136.18 L 528.15 142.90 L 531.80 141.24 L 535.45 144.07 L 539.10 139.02 L 542.75 133.34 L 546.40 133.90 L 550.05 132.70 L 553.70 128.46 L 557.35 131.93 L 561.00 134.46 L 564.65 139.53 L 568.30 141.83 L 571.95 145.80 L 575.60 145.94 L 579.25 151.09 L 582.90 151.23 L 586.55 151.32 L 590.20 149.82 L 593.85 158.56 L 597.50 154.05 L 601.15 161.46 L 604.80 161.20 L 608.45 163.77 L 612.10 170.63 L 615.75 174.17 L 619.40 172.70 L 623.05 177.96 L 626.70 183.48 L 630.35 188.44 L 634.00 188.44 L 637.65 189.41 L 641.30 197.45 L 644.95 196.52 L 648.60 195.74 L 652.25 199.79 L 655.90 197.52 L 659.55 196.96 L 663.20 194.70 L 666.85 198.90 L 670.50 199.01 L 674.15 199.74 L 677.80 199.82 L 681.45 200.89 L 685.10 202.05 L 688.75 202.00 L 692.40 208.55 L 696.05 212.40 L 699.70 210.25 L 703.35 208.28 L 707.00 208.81 L 710.65 205.95 L 714.30 203.77 L 717.95 202.97 L 721.60 209.81 L 725.25 214.84 L 728.90 213.96 L 732.55 219.07 L 736.20 215.23 L 739.85 218.59 L 743.50 221.82 L 747.15 224.03 L 750.80 226.19 L 754.45 224.53 L 758.10 227.08 L 761.75 225.34 L 765.40 225.50 L 769.05 228.61 L 772.70 234.15 L 776.35 234.62 L 780.00 229.02" class="path-0" />
<path d="M 50.00 128.19 L 53.65 126.79 L 57.30 123.48 L 60.95 121.70 L 64.60 119.08 L 68.25 114.06 L 71.90 111.96 L 75.55 106.81 L 79.20 107.16 L 82.85 102.56 L 86.50 103.04 L 90.15 103.80 L 93.80 105.50 L 97.45 105.67 L 101.10 109.00 L 104.75 107.54 L 108.40 104.49 L 112.05 107.34 L 115.70 104.14 L 119.35 93.92 L 123.00 92.92 L 126.65 96.91 L 130.30 101.41 L 133.95 107.44 L 137.60 109.83 L 141.25 107.87 L 144.90 106.70 L 148.55 113.01 L 152.20 108.80 L 155.85 113.61 L 159.50 116.82 L 163.15 118.80 L 166.80 117.33 L 170.45 116.13 L 174.10 115.18 L 177.75 109.76 L 181.40 104.66 L 185.05 104.27 L 188.70 101.08 L 192.35 97.03 L 196.00 93.80 L 199.65 92.15 L 203.30 91.06 L 206.95 93.76 L 210.60 92.09 L 214.25 88.68 L 217.90 89.70 L 221.55 84.35 L 225.20 85.59 L 228.85 85.69 L 232.50 90.53 L 236.15 84.60 L 239.80 86.21 L 243.45 88.59 L 247.10 90.44 L 250.75 91.30 L 254.40 91.14 L 258.05 96.25 L 261.70 92.74 L 265.35 91.39 L 269.00 89.43 L 272.65 87.41 L 276.30 85.11 L 279.95 80.31 L 283.60 82.29 L 287.25 80.46 L 290.90 81.72 L 294.55 85.24 L 298.20 87.26 L 301.85 82.64 L 305.50 85.00 L 309.15 92.76 L 312.80 92.87 L 316.45 94.97 L 320.10 97.03 L 323.75 93.17 L 327.40 91.90 L 331.05 97.09 L 334.70 95.00 L 338.35 94.50 L 342.00 92.82 L 345.65 92.79 L 349.30 90.52 L 352.95 89.92 L 356.60 88.32 L 360.25 85.55 L 363.90 87.38 L 367.55 90.43 L 371.20 93.86 L 374.85 91.09 L 378.50 86.59 L 382.15 88.19 L 385.80 92.54 L 389.45 95.63 L 393.10 99.11 L 396.75 96.77 L 400.40 99.43 L 404.05 95.39 L 407.70 98.95 L 411.35 101.84 L 415.00 99.18 L 418.65 94.20 L 422.30 93.96 L 425.95 98.50 L 429.60 99.77 L 433.25 100.86 L 436.90 101.34 L 440.55 98.21 L 444.20 100.45 L 447.85 98.92 L 451.50 97.39 L 455.15 94.75 L 458.80 94.48 L 462.45 95.68 L 466.10 96.09 L 469.75 96.81 L 473.40 97.14 L 477.05 97.16 L 480.70 97.65 L 484.35 98.81 L 488.00 97.06 L 491.65 97.26 L 495.30 93.65 L 498.95 91.65 L 502.60 88.22 L 506.25 86.19 L 509.90 86.21 L 513.55 90.45 L 517.20 86.64 L 520.85 84.20 L 524.50 80.80 L 528.15 78.56 L 531.80 73.49 L 535.45 74.58 L 539.10 76.67 L 542.75 74.54 L 546.40 73.03 L 550.05 73.82 L 553.70 72.81 L 557.35 70.75 L 561.00 73.96 L 564.65 69.42 L 568.30 65.38 L 571.95 73.22 L 575.60 72.45 L 579.25 72.63 L 582.90 70.79 L 586.55 70.83 L 590.20 74.56 L 593.85 74.74 L 597.50 78.12 L 601.15 84.46 L 604.80 80.69 L 608.45 82.89 L 612.10 86.98 L 615.75 87.50 L 619.40 86.70 L 623.05 82.28 L 626.70 81.88 L 630.35 89.29 L 634.00 91.39 L 637.65 92.27 L 641.30 93.18 L 644.95 96.82 L 648.60 99.70 L 652.25 100.57 L 655.90 102.68 L 659.55 106.14 L 663.20 106.96 L 666.85 108.35 L 670.50 103.31 L 674.15 99.39 L 677.80 99.04 L 681.45 101.58 L 685.10 100.77 L 688.75 105.27 L 692.40 104.68 L 696.05 103.74 L 699.70 100.25 L 703.35 100.87 L 707.00 100.27 L 710.65 102.29 L 714.30 98.53 L 717.95 99.19 L 721.60 99.99 L 725.25 102.63 L 728.90 100.91 L 732.55 103.72 L 736.20 101.30 L 739.85 100.60 L 743.50 101.32 L 747.15 106.29 L 750.80 105.40 L 754.45 102.14 L 758.10 105.95 L 761.75 107.35 L 765.40 103.17 L 769.05 103.15 L 772.70 104.83 L 776.35 105.68 L 780.00 105.49" class="path-1" />
<path d="M 50.00 128.19 L 53.65 125.00 L 57.30 126.35 L 60.95 131.15 L 64.60 131.67 L 68.25 132.30 L 71.90 133.81 L 75.55 134.28 L 79.20 138.76 L 82.85 137.27 L 86.50 144.89 L 90.15 146.45 L 93.80 143.59 L 97.45 144.42 L 101.10 148.68 L 104.75 150.90 L 108.40 154.79 L 112.05 150.70 L 115.70 148.75 L 119.35 152.58 L 123.00 153.70 L 126.65 151.85 L 130.30 147.48 L 133.95 150.23 L 137.60 147.43 L 141.25 151.37 L 144.90 151.13 L 148.55 147.55 L 152.20 149.81 L 155.85 148.77 L 159.50 145.74 L 163.15 141.92 L 166.80 138.67 L 170.45 140.95 L 174.10 138.29 L 177.75 131.77 L 181.40 132.59 L 185.05 132.72 L 188.70 129.19 L 192.35 131.24 L 196.00 132.73 L 199.65 129.13 L 203.30 134.81 L 206.95 137.25 L 210.60 132.38 L 214.25 136.26 L 217.90 137.19 L 221.55 139.73 L 225.20 137.93 L 228.85 136.93 L 232.50 138.55 L 236.15 134.33 L 239.80 125.90 L 243.45 125.05 L 247.10 129.02 L 250.75 130.19 L 254.40 131.66 L 258.05 131.41 L 261.70 131.76 L 265.35 133.41 L 269.00 134.28 L 272.65 133.73 L 276.30 136.61 L 279.95 132.67 L 283.60 132.99 L 287.25 135.03 L 290.90 135.50 L 294.55 135.95 L 298.20 144.73 L 301.85 148.47 L 305.50 146.35 L 309.15 150.22 L 312.80 155.66 L 316.45 159.53 L 320.10 162.09 L 323.75 158.52 L 327.40 158.84 L 331.05 151.13 L 334.70 155.40 L 338.35 154.37 L 342.00 157.14 L 345.65 153.45 L 349.30 153.12 L 352.95 153.26 L 356.60 155.66 L 360.25 152.53 L 363.90 151.53 L 367.55 150.63 L 371.20 149.16 L 374.85 146.85 L 378.50 145.78 L 382.15 148.22 L 385.80 150.87 L 389.45 151.32 L 393.10 154.40 L 396.75 154.21 L 400.40 159.04 L 404.05 159.79 L 407.70 160.93 L 411.35 150.97 L 415.00 144.59 L 418.65 146.41 L 422.30 144.79 L 425.95 141.69 L 429.60 145.18 L 433.25 145.54 L 436.90 143.21 L 440.55 139.54 L 444.20 135.60 L 447.85 133.29 L 451.50 133.25 L 455.15 131.31 L 458.80 131.76 L 462.45 128.66 L 466.10 126.07 L 469.75 121.87 L 473.40 120.37 L 477.05 119.82 L 480.70 125.18 L 484.35 120.98 L 488.00 126.92 L 491.65 126.11 L 495.30 124.71 L 498.95 117.81 L 502.60 114.91 L 506.25 117.61 L 509.90 126.22 L 513.55 128.31 L 517.20 125.82 L 520.85 123.33 L 524.50 125.19 L 528.15 124.89 L 531.80 124.73 L 535.45 127.53 L 539.10 121.18 L 542.75 116.65 L 546.40 114.41 L 550.05 116.21 L 553.70 115.46 L 557.35 115.16 L 561.00 121.32 L 564.65 125.01 L 568.30 124.49 L 571.95 124.60 L 575.60 130.33 L 579.25 125.71 L 582.90 123.10 L 586.55 121.69 L 590.20 126.98 L 593.85 118.16 L 597.50 121.39 L 601.15 117.98 L 604.80 109.44 L 608.45 108.96 L 612.10 106.96 L 615.75 111.54 L 619.40 112.80 L 623.05 113.90 L 626.70 114.92 L 630.35 108.65 L 634.00 109.84 L 637.65 111.02 L 641.30 116.56 L 644.95 116.59 L 648.60 117.87 L 652.25 117.37 L 655.90 115.76 L 659.55 116.17 L 663.20 111.66 L 666.85 112.88 L 670.50 111.39 L 674.15 109.54 L 677.80 107.68 L 681.45 105.50 L 685.10 100.20 L 688.75 99.53 L 692.40 95.28 L 696.05 94.74 L 699.70 92.09 L 703.35 89.35 L 707.00 95.78 L 710.65 91.33 L 714.30 91.71 L 717.95 89.26 L 721.60 88.35 L 725.25 93.21 L 728.90 93.94 L 732.55 88.48 L 736.20 88.83 L 739.85 92.89 L 743.50 89.06 L 747.15 84.06 L 750.80 80.86 L 754.45 85.72 L 758.10 83.15 L 761.75 90.91 L 765.40 89.03 L 769.05 88.41 L 772.70 91.99 L 776.35 91.76 L 780.00 82.51" class="path-2" />
<path d="M 50.00 128.19 L 53.65 133.71 L 57.30 133.64 L 60.95 137.41 L 64.60 142.52 L 68.25 149.30 L 71.90 147.99 L 75.55 149.39 L 79.20 151.36 L 82.85 155.66 L 86.50 159.10 L 90.15 157.44 L 93.80 158.67 L 97.45 162.35 L 101.10 159.00 L 104.75 161.92 L 108.40 161.87 L 112.05 162.87 L 115.70 164.37 L 119.35 164.40 L 123.00 166.83 L 126.65 166.71 L 130.30 164.24 L 133.95 167.16 L 137.60 170.22 L 141.25 172.06 L 144.90 171.86 L 148.55 172.36 L 152.20 175.73 L 155.85 174.16 L 159.50 180.08 L 163.15 178.73 L 166.80 177.90 L 170.45 177.68 L 174.10 167.37 L 177.75 164.71 L 181.40 164.24 L 185.05 166.44 L 188.70 164.58 L 192.35 165.84 L 196.00 171.24 L 199.65 173.94 L 203.30 173.67 L 206.95 177.57 L 210.60 181.35 L 214.25 183.24 L 217.90 177.50 L 221.55 176.85 L 225.20 186.29 L 228.85 184.39 L 232.50 187.13 L 236.15 191.88 L 239.80 194.88 L 243.45 197.78 L 247.10 192.37 L 250.75 194.31 L 254.40 196.10 L 258.05 198.99 L 261.70 202.98 L 265.35 198.86 L 269.00 200.21 L 272.65 198.44 L 276.30 200.95 L 279.95 202.72 L 283.60 200.93 L 287.25 199.74 L 290.90 200.17 L 294.55 199.75 L 298.20 196.44 L 301.85 191.42 L 305.50 183.93 L 309.15 187.81 L 312.80 194.77 L 316.45 195.13 L 320.10 196.49 L 323.75 199.20 L 327.40 199.21 L 331.05 199.57 L 334.70 200.65 L 338.35 202.35 L 342.00 201.58 L 345.65 199.09 L 349.30 198.70 L 352.95 203.48 L 356.60 205.12 L 360.25 200.93 L 363.90 199.22 L 367.55 196.88 L 371.20 202.72 L 374.85 202.35 L 378.50 202.52 L 382.15 202.08 L 385.80 208.32 L 389.45 209.11 L 393.10 210.16 L 396.75 211.24 L 400.40 209.75 L 404.05 208.86 L 407.70 211.81 L 411.35 212.87 L 415.00 208.88 L 418.65 209.72 L 422.30 206.22 L 425.95 209.30 L 429.60 210.12 L 433.25 211.52 L 436.90 206.69 L 440.55 201.21 L 444.20 193.49 L 447.85 192.34 L 451.50 193.90 L 455.15 193.83 L 458.80 190.46 L 462.45 192.43 L 466.10 190.58 L 469.75 190.97 L 473.40 187.36 L 477.05 182.36 L 480.70 184.83 L 484.35 188.02 L 488.00 183.47 L 491.65 183.88 L 495.30 195.78 L 498.95 197.38 L 502.60 195.80 L 506.25 191.46 L 509.90 187.48 L 513.55 188.97 L 517.20 194.74 L 520.85 195.57 L 524.50 193.11 L 528.15 193.94 L 531.80 194.33 L 535.45 190.78 L 539.10 187.69 L 542.75 184.92 L 546.40 187.07 L 550.05 187.94 L 553.70 188.61 L 557.35 184.65 L 561.00 179.90 L 564.65 178.68 L 568.30 183.22 L 571.95 193.95 L 575.60 191.69 L 579.25 192.68 L 582.90 193.42 L 586.55 188.78 L 590.20 187.08 L 593.85 185.53 L 597.50 185.69 L 601.15 188.96 L 604.80 190.29 L 608.45 190.94 L 612.10 188.61 L 615.75 193.26 L 619.40 193.23 L 623.05 189.08 L 626.70 188.24 L 630.35 181.48 L 634.00 182.96 L 637.65 178.63 L 641.30 180.32 L 644.95 182.94 L 648.60 186.02 L 652.25 191.03 L 655.90 188.09 L 659.55 182.72 L 663.20 179.94 L 666.85 179.01 L 670.50 179.67 L 674.15 181.56 L 677.80 184.34 L 681.45 181.62 L 685.10 178.76 L 688.75 178.30 L 692.40 170.36 L 696.05 174.38 L 699.70 173.15 L 703.35 176.36 L 707.00 167.54 L 710.65 165.16 L 714.30 164.96 L 717.95 166.97 L 721.60 157.98 L 725.25 156.34 L 728.90 152.09 L 732.55 148.31 L 736.20 151.07 L 739.85 148.49 L 743.50 154.72 L 747.15 156.39 L 750.80 156.44 L 754.45 158.76 L 758.10 156.18 L 761.75 160.46 L 765.40 160.57 L 769.05 163.23 L 772.70 158.88 L 776.35 157.75 L 780.00 153.12" class="path-3" />
<path d="M 50.00 128.19 L 53.65 129.64 L 57.30 127.09 L 60.95 123.23 L 64.60 124.88 L 68.25 120.99 L 71.90 122.61 L 75.55 129.06 L 79.20 127.40 L 82.85 124.66 L 86.50 126.02 L 90.15 122.74 L 93.80 120.35 L 97.45 117.67 L 101.10 118.62 L 104.75 119.35 L 108.40 120.62 L 112.05 124.24 L 115.70 121.52 L 119.35 121.18 L 123.00 121.30 L 126.65 118.58 L 130.30 117.94 L 133.95 116.84 L 137.60 121.69 L 141.25 122.81 L 144.90 122.81 L 148.55 118.43 L 152.20 119.43 L 155.85 115.17 L 159.50 117.14 L 163.15 117.89 L 166.80 121.64 L 170.45 112.71 L 174.10 116.76 L 177.75 113.43 L 181.40 117.15 L 185.05 109.12 L 188.70 106.60 L 192.35 109.24 L 196.00 105.96 L 199.65 100.79 L 203.30 99.67 L 206.95 104.07 L 210.60 101.29 L 214.25 103.55 L 217.90 97.76 L 221.55 90.22 L 225.20 86.12 L 228.85 78.47 L 232.50 82.12 L 236.15 76.47 L 239.80 80.08 L 243.45 79.88 L 247.10 80.28 L 250.75 84.51 L 254.40 84.08 L 258.05 80.25 L 261.70 79.60 L 265.35 80.36 L 269.00 77.27 L 272.65 82.21 L 276.30 81.85 L 279.95 80.62 L 283.60 84.30 L 287.25 81.94 L 290.90 92.48 L 294.55 102.77 L 298.20 103.61 L 301.85 108.47 L 305.50 109.43 L 309.15 104.59 L 312.80 93.70 L 316.45 95.06 L 320.10 99.93 L 323.75 103.41 L 327.40 96.71 L 331.05 93.90 L 334.70 95.94 L 338.35 98.84 L 342.00 98.50 L 345.65 96.54 L 349.30 96.46 L 352.95 96.52 L 356.60 95.87 L 360.25 98.90 L 363.90 98.25 L 367.55 97.21 L 371.20 95.77 L 374.85 101.13 L 378.50 99.96 L 382.15 93.40 L 385.80 99.12 L 389.45 98.93 L 393.10 98.09 L 396.75 99.91 L 400.40 103.73 L 404.05 108.23 L 407.70 104.36 L 411.35 105.65 L 415.00 110.93 L 418.65 116.28 L 422.30 124.28 L 425.95 120.76 L 429.60 125.70 L 433.25 119.85 L 436.90 123.84 L 440.55 120.97 L 444.20 119.68 L 447.85 119.99 L 451.50 122.29 L 455.15 127.10 L 458.80 123.61 L 462.45 117.61 L 466.10 118.72 L 469.75 117.97 L 473.40 115.74 L 477.05 115.51 L 480.70 124.49 L 484.35 127.18 L 488.00 127.34 L 491.65 119.85 L 495.30 116.12 L 498.95 114.26 L 502.60 115.81 L 506.25 116.73 L 509.90 118.78 L 513.55 121.31 L 517.20 126.18 L 520.85 119.60 L 524.50 123.51 L 528.15 122.13 L 531.80 121.24 L 535.45 123.13 L 539.10 126.68 L 542.75 124.22 L 546.40 125.79 L 550.05 122.33 L 553.70 123.32 L 557.35 114.93 L 561.00 118.61 L 564.65 119.27 L 568.30 117.33 L 571.95 117.10 L 575.60 116.72 L 579.25 114.02 L 582.90 116.90 L 586.55 116.44 L 590.20 115.83 L 593.85 111.01 L 597.50 114.74 L 601.15 114.73 L 604.80 117.98 L 608.45 125.88 L 612.10 126.25 L 615.75 129.19 L 619.40 124.36 L 623.05 124.01 L 626.70 123.80 L 630.35 128.82 L 634.00 121.85 L 637.65 119.26 L 641.30 121.72 L 644.95 117.44 L 648.60 114.45 L 652.25 113.44 L 655.90 119.46 L 659.55 117.61 L 663.20 117.26 L 666.85 119.57 L 670.50 117.45 L 674.15 115.36 L 677.80 109.43 L 681.45 107.23 L 685.10 109.18 L 688.75 109.75 L 692.40 103.19 L 696.05 107.87 L 699.70 101.52 L 703.35 96.22 L 707.00 97.25 L 710.65 88.56 L 714.30 90.42 L 717.95 97.18 L 721.60 97.50 L 725.25 99.88 L 728.90 99.76 L 732.55 105.25 L 736.20 108.54 L 739.85 115.12 L 743.50 111.88 L 747.15 120.46 L 750.80 117.39 L 754.45 123.00 L 758.10 121.39 L 761.75 116.90 L 765.40 119.20 L 769.05 120.28 L 772.70 124.88 L 776.35 116.08 L 780.00 114.69" class="path-4" />
<line x1="50" y1="128.2" x2="780" y2="128.2" stroke="#4b5563" stroke-width="0.8" stroke-dasharray="6 3" />
</svg>