<svg xmlns="http://www.w3.org/2000/svg" viewBox="0 0 800 300" width="800" height="300">
<style>
.axis-line { stroke: #6b7280; stroke-width: 0.5; }
.axis-text { font-family: monospace; font-size: 11px; fill: #9ca3af; }
.title-text { font-family: monospace; font-size: 14px; fill: #d1d5db; font-weight: bold; }
.grid-line { stroke: #374151; stroke-width: 0.3; stroke-dasharray: 4 2; }
.path-0 { fill: none; stroke: #3b82f6; stroke-width: 2; stroke-linecap: round; opacity: 0.85; animation: draw-0 8s ease-in-out 0.0s infinite; stroke-dasharray: 1075; stroke-dashoffset: 1075;}
@keyframes draw-0 { 0% { stroke-dashoffset: 1075; } 38% { stroke-dashoffset: 0; } 62% { stroke-dashoffset: 0; } 100% { stroke-dashoffset: 1075; }}
.path-1 { fill: none; stroke: #ef4444; stroke-width: 2; stroke-linecap: round; opacity: 0.85; animation: draw-1 8s ease-in-out 0.4s infinite; stroke-dasharray: 1086; stroke-dashoffset: 1086;}
@keyframes draw-1 { 0% { stroke-dashoffset: 1086; } 38% { stroke-dashoffset: 0; } 62% { stroke-dashoffset: 0; } 100% { stroke-dashoffset: 1086; }}
.path-2 { fill: none; stroke: #22c55e; stroke-width: 2; stroke-linecap: round; opacity: 0.85; animation: draw-2 8s ease-in-out 0.8s infinite; stroke-dasharray: 1065; stroke-dashoffset: 1065;}
@keyframes draw-2 { 0% { stroke-dashoffset: 1065; } 38% { stroke-dashoffset: 0; } 62% { stroke-dashoffset: 0; } 100% { stroke-dashoffset: 1065; }}
.path-3 { fill: none; stroke: #f59e0b; stroke-width: 2; stroke-linecap: round; opacity: 0.85; animation: draw-3 8s ease-in-out 1.2000000000000002s infinite; stroke-dasharray: 1095; stroke-dashoffset: 1095;}
@keyframes draw-3 { 0% { stroke-dashoffset: 1095; } 38% { stroke-dashoffset: 0; } 62% { stroke-dashoffset: 0; } 100% { stroke-dashoffset: 1095; }}
.path-4 { fill: none; stroke: #a855f7; stroke-width: 2; stroke-linecap: round; opacity: 0.85; animation: draw-4 8s ease-in-out 1.6s infinite; stroke-dasharray: 1152; stroke-dashoffset: 1152;}
@keyframes draw-4 { 0% { stroke-dashoffset: 1152; } 38% { stroke-dashoffset: 0; } 62% { stroke-dashoffset: 0; } 100% { stroke-dashoffset: 1152; }}
</style>
<rect width="800" height="300" rx="8" fill="#0d1117" />
<line x1="50" y1="260.0" x2="780" y2="260.0" class="grid-line" />
<text x="44" y="264.0" text-anchor="end" class="axis-text">-2.2</text>
<line x1="50" y1="216.0" x2="780" y2="216.0" class="grid-line" />
<text x="44" y="220.0" text-anchor="end" class="axis-text">-1.5</text>
<line x1="50" y1="172.0" x2="780" y2="172.0" class="grid-line" />
<text x="44" y="176.0" text-anchor="end" class="axis-text">-0.8</text>
<line x1="50" y1="128.0" x2="780" y2="128.0" class="grid-line" />
<text x="44" y="132.0" text-anchor="end" class="axis-text">-0.1</text>
<line x1="50" y1="84.0" x2="780" y2="84.0" class="grid-line" />
<text x="44" y="88.0" text-anchor="end" class="axis-text">0.5</text>
<line x1="50" y1="40.0" x2="780" y2="40.0" class="grid-line" />
<text x="44" y="44.0" text-anchor="end" class="axis-text">1.2</text>
<line x1="50.0" y1="40" x2="50.0" y2="260" class="grid-line" />
<line x1="196.0" y1="40" x2="196.0" y2="260" class="grid-line" />
<line x1="342.0" y1="40" x2="342.0" y2="260" class="grid-line" />
<line x1="488.0" y1="40" x2="488.0" y2="260" class="grid-line" />
<line x1="634.0" y1="40" x2="634.0" y2="260" class="grid-line" />
<line x1="780.0" y1="40" x2="780.0" y2="260" class="grid-line" />
<line x1="50" y1="260" x2="780" y2="260" class="axis-line" />
<line x1="50" y1="40" x2="50" y2="260" class="axis-line" />
<text x="400.0" y="295" text-anchor="middle" class="axis-text">t</text>
<text x="12" y="150.0" text-anchor="middle" class="axis-text" transform="rotate(-90 12 150.0)">W(t)</text>
<text x="400.0" y="22" text-anchor="middle" class="title-text">Brownian Motion</text>
<path d="M 50.00 118.86 L 53.65 107.41 L 57.30 111.59 L 60.95 105.46 L 64.60 97.02 L 68.25 95.47 L 71.90 97.44 L 75.55 98.45 L 79.20 97.60 L 82.85 103.13 L 86.50 102.34 L 90.15 109.23 L 93.80 110.68 L 97.45 115.35 L 101.10 113.88 L 104.75 110.22 L 108.40 108.41 L 112.05 113.78 L 115.70 116.27 L 119.35 116.81 L 123.00 115.20 L 126.65 124.19 L 130.30 126.29 L 133.95 128.33 L 137.60 124.99 L 141.25 123.11 L 144.90 131.23 L 148.55 129.96 L 152.20 131.97 L 155.85 133.76 L 159.50 138.03 L 163.15 143.62 L 166.80 143.10 L 170.45 139.19 L 174.10 147.93 L 177.75 152.04 L 181.40 156.81 L 185.05 160.34 L 188.70 165.27 L 192.35 161.62 L 196.00 154.04 L 199.65 151.34 L 203.30 158.06 L 206.95 158.30 L 210.60 163.19 L 214.25 161.48 L 217.90 159.00 L 221.55 158.09 L 225.20 157.58 L 228.85 150.29 L 232.50 151.80 L 236.15 152.42 L 239.80 152.41 L 243.45 150.67 L 247.10 148.26 L 250.75 143.52 L 254.40 143.31 L 258.05 144.24 L 261.70 139.66 L 265.35 138.36 L 269.00 133.75 L 272.65 130.25 L 276.30 125.14 L 279.95 119.29 L 283.60 131.98 L 287.25 133.01 L 290.90 135.94 L 294.55 133.37 L 298.20 133.74 L 301.85 133.16 L 305.50 133.47 L 309.15 127.71 L 312.80 127.75 L 316.45 130.49 L 320.10 131.54 L 323.75 123.73 L 327.40 131.28 L 331.05 133.52 L 334.70 132.72 L 338.35 135.83 L 342.00 141.11 L 345.65 139.17 L 349.30 141.92 L 352.95 140.67 L 356.60 139.87 L 360.25 142.25 L 363.90 140.19 L 367.55 139.29 L 371.20 134.21 L 374.85 143.54 L 378.50 136.55 L 382.15 138.37 L 385.80 145.01 L 389.45 147.56 L 393.10 152.47 L 396.75 153.77 L 400.40 156.02 L 404.05 154.61 L 407.70 157.83 L 411.35 154.39 L 415.00 154.83 L 418.65 155.98 L 422.30 156.50 L 425.95 153.43 L 429.60 140.74 L 433.25 130.80 L 436.90 129.24 L 440.55 135.96 L 444.20 143.08 L 447.85 140.67 L 451.50 141.80 L 455.15 139.83 L 458.80 141.31 L 462.45 142.89 L 466.10 139.40 L 469.75 136.52 L 473.40 136.96 L 477.05 139.19 L 480.70 135.22 L 484.35 131.25 L 488.00 128.17 L 491.65 127.45 L 495.30 120.87 L 498.95 117.49 L 502.60 123.97 L 506.25 128.46 L 509.90 136.77 L 513.55 135.49 L 517.20 139.92 L 520.85 137.25 L 524.50 130.48 L 528.15 135.45 L 531.80 141.04 L 535.45 140.78 L 539.10 144.32 L 542.75 143.93 L 546.40 145.31 L 550.05 151.45 L 553.70 152.64 L 557.35 153.98 L 561.00 154.44 L 564.65 154.38 L 568.30 152.51 L 571.95 154.96 L 575.60 155.01 L 579.25 155.30 L 582.90 161.81 L 586.55 155.69 L 590.20 156.74 L 593.85 162.11 L 597.50 162.09 L 601.15 166.22 L 604.80 171.80 L 608.45 173.65 L 612.10 161.99 L 615.75 158.82 L 619.40 155.74 L 623.05 157.90 L 626.70 161.17 L 630.35 149.25 L 634.00 151.75 L 637.65 147.62 L 641.30 151.82 L 644.95 146.73 L 648.60 146.85 L 652.25 143.38 L 655.90 154.23 L 659.55 155.88 L 663.20 156.15 L 666.85 157.12 L 670.50 158.16 L 674.15 156.69 L 677.80 151.98 L 681.45 159.89 L 685.10 157.03 L 688.75 154.41 L 692.40 159.56 L 696.05 152.89 L 699.70 151.32 L 703.35 150.95 L 707.00 149.00 L 710.65 146.43 L 714.30 147.45 L 717.95 149.14 L 721.60 150.11 L 725.25 146.08 L 728.90 138.86 L 732.55 134.21 L 736.20 142.48 L 739.85 142.84 L 743.50 141.86 L 747.15 142.99 L 750.80 138.39 L 754.45 138.86 L 758.10 136.70 L 761.75 141.44 L 765.40 144.73 L 769.05 141.43 L 772.70 135.58 L 776.35 135.99 L 780.00 136.92" class="path-0" />
<path d="M 50.00 118.86 L 53.65 115.66 L 57.30 111.15 L 60.95 111.65 L 64.60 112.48 L 68.25 113.74 L 71.90 111.03 L 75.55 117.07 L 79.20 119.95 L 82.85 120.38 L 86.50 120.63 L 90.15 123.41 L 93.80 122.56 L 97.45 126.61 L 101.10 131.74 L 104.75 133.12 L 108.40 125.63 L 112.05 124.41 L 115.70 126.33 L 119.35 124.70 L 123.00 128.64 L 126.65 126.20 L 130.30 123.10 L 133.95 133.68 L 137.60 135.09 L 141.25 133.73 L 144.90 133.34 L 148.55 136.98 L 152.20 138.98 L 155.85 145.27 L 159.50 154.10 L 163.15 147.53 L 166.80 152.59 L 170.45 153.23 L 174.10 155.89 L 177.75 159.22 L 181.40 163.14 L 185.05 158.56 L 188.70 160.09 L 192.35 165.63 L 196.00 163.94 L 199.65 167.33 L 203.30 168.82 L 206.95 163.15 L 210.60 167.01 L 214.25 163.36 L 217.90 161.15 L 221.55 159.80 L 225.20 161.79 L 228.85 156.50 L 232.50 156.69 L 236.15 158.76 L 239.80 164.36 L 243.45 167.82 L 247.10 169.20 L 250.75 178.00 L 254.40 176.72 L 258.05 177.33 L 261.70 182.31 L 265.35 177.10 L 269.00 181.47 L 272.65 183.40 L 276.30 180.71 L 279.95 173.33 L 283.60 171.58 L 287.25 172.95 L 290.90 170.97 L 294.55 170.24 L 298.20 168.71 L 301.85 171.92 L 305.50 171.12 L 309.15 170.90 L 312.80 168.93 L 316.45 160.90 L 320.10 161.30 L 323.75 161.04 L 327.40 158.21 L 331.05 158.23 L 334.70 158.15 L 338.35 158.73 L 342.00 156.80 L 345.65 153.87 L 349.30 160.46 L 352.95 157.73 L 356.60 152.16 L 360.25 154.01 L 363.90 158.55 L 367.55 162.29 L 371.20 160.85 L 374.85 165.18 L 378.50 163.45 L 382.15 165.71 L 385.80 174.40 L 389.45 178.88 L 393.10 183.73 L 396.75 176.32 L 400.40 169.82 L 404.05 176.46 L 407.70 168.17 L 411.35 160.72 L 415.00 150.16 L 418.65 153.97 L 422.30 158.94 L 425.95 159.34 L 429.60 163.43 L 433.25 156.13 L 436.90 151.34 L 440.55 155.21 L 444.20 158.02 L 447.85 159.13 L 451.50 158.73 L 455.15 159.60 L 458.80 159.09 L 462.45 152.64 L 466.10 152.52 L 469.75 155.23 L 473.40 162.57 L 477.05 171.35 L 480.70 169.95 L 484.35 167.55 L 488.00 175.29 L 491.65 172.42 L 495.30 169.33 L 498.95 168.82 L 502.60 164.53 L 506.25 166.27 L 509.90 168.22 L 513.55 167.43 L 517.20 166.06 L 520.85 159.46 L 524.50 162.61 L 528.15 168.57 L 531.80 163.90 L 535.45 164.96 L 539.10 160.29 L 542.75 158.79 L 546.40 163.49 L 550.05 156.84 L 553.70 156.49 L 557.35 153.58 L 561.00 156.15 L 564.65 152.32 L 568.30 155.00 L 571.95 155.60 L 575.60 150.75 L 579.25 143.26 L 582.90 138.21 L 586.55 135.74 L 590.20 124.33 L 593.85 126.67 L 597.50 129.25 L 601.15 124.52 L 604.80 124.73 L 608.45 128.50 L 612.10 131.19 L 615.75 127.07 L 619.40 128.59 L 623.05 130.73 L 626.70 139.98 L 630.35 140.84 L 634.00 136.59 L 637.65 128.67 L 641.30 136.53 L 644.95 139.98 L 648.60 134.79 L 652.25 141.11 L 655.90 146.94 L 659.55 145.34 L 663.20 152.94 L 666.85 153.68 L 670.50 151.50 L 674.15 150.95 L 677.80 145.95 L 681.45 142.18 L 685.10 143.16 L 688.75 150.64 L 692.40 151.80 L 696.05 145.95 L 699.70 142.92 L 703.35 132.30 L 707.00 132.97 L 710.65 137.42 L 714.30 137.38 L 717.95 141.28 L 721.60 139.83 L 725.25 140.05 L 728.90 132.46 L 732.55 124.80 L 736.20 126.84 L 739.85 121.58 L 743.50 116.87 L 747.15 110.88 L 750.80 115.02 L 754.45 118.28 L 758.10 121.59 L 761.75 124.27 L 765.40 120.48 L 769.05 124.96 L 772.70 126.87 L 776.35 127.17 L 780.00 128.74" class="path-1" />
<path d="M 50.00 118.86 L 53.65 118.10 L 57.30 111.63 L 60.95 119.93 L 64.60 120.01 L 68.25 123.11 L 71.90 125.90 L 75.55 125.84 L 79.20 125.48 L 82.85 127.79 L 86.50 131.53 L 90.15 133.25 L 93.80 135.22 L 97.45 132.52 L 101.10 130.88 L 104.75 134.24 L 108.40 128.13 L 112.05 132.74 L 115.70 136.52 L 119.35 136.68 L 123.00 133.78 L 126.65 138.97 L 130.30 139.44 L 133.95 137.75 L 137.60 140.37 L 141.25 132.14 L 144.90 130.84 L 148.55 129.03 L 152.20 131.14 L 155.85 131.31 L 159.50 132.41 L 163.15 125.50 L 166.80 120.67 L 170.45 118.52 L 174.10 122.92 L 177.75 123.58 L 181.40 125.24 L 185.05 133.33 L 188.70 138.97 L 192.35 132.70 L 196.00 135.37 L 199.65 139.09 L 203.30 135.22 L 206.95 135.59 L 210.60 134.71 L 214.25 137.95 L 217.90 133.90 L 221.55 131.51 L 225.20 131.16 L 228.85 130.48 L 232.50 127.46 L 236.15 131.26 L 239.80 137.29 L 243.45 138.98 L 247.10 133.48 L 250.75 131.01 L 254.40 129.19 L 258.05 134.16 L 261.70 135.15 L 265.35 135.44 L 269.00 137.81 L 272.65 128.78 L 276.30 127.81 L 279.95 128.64 L 283.60 128.05 L 287.25 128.73 L 290.90 127.34 L 294.55 127.38 L 298.20 122.88 L 301.85 119.44 L 305.50 118.55 L 309.15 117.79 L 312.80 122.76 L 316.45 124.01 L 320.10 126.39 L 323.75 127.28 L 327.40 120.74 L 331.05 115.42 L 334.70 116.19 L 338.35 108.93 L 342.00 106.71 L 345.65 99.78 L 349.30 105.13 L 352.95 107.94 L 356.60 106.35 L 360.25 105.42 L 363.90 98.15 L 367.55 103.03 L 371.20 106.26 L 374.85 105.63 L 378.50 102.51 L 382.15 100.85 L 385.80 100.21 L 389.45 99.23 L 393.10 99.22 L 396.75 109.09 L 400.40 110.21 L 404.05 111.27 L 407.70 118.49 L 411.35 131.56 L 415.00 137.26 L 418.65 140.60 L 422.30 136.47 L 425.95 137.35 L 429.60 138.37 L 433.25 146.03 L 436.90 143.25 L 440.55 143.48 L 444.20 146.25 L 447.85 143.59 L 451.50 146.91 L 455.15 146.32 L 458.80 140.49 L 462.45 149.23 L 466.10 151.99 L 469.75 152.46 L 473.40 159.67 L 477.05 164.19 L 480.70 168.96 L 484.35 168.54 L 488.00 159.98 L 491.65 161.57 L 495.30 163.96 L 498.95 168.32 L 502.60 167.81 L 506.25 165.54 L 509.90 172.79 L 513.55 171.67 L 517.20 162.60 L 520.85 163.89 L 524.50 172.64 L 528.15 171.64 L 531.80 170.90 L 535.45 175.48 L 539.10 177.24 L 542.75 172.29 L 546.40 180.05 L 550.05 178.35 L 553.70 175.20 L 557.35 177.67 L 561.00 182.24 L 564.65 183.45 L 568.30 191.08 L 571.95 194.15 L 575.60 191.97 L 579.25 187.36 L 582.90 189.49 L 586.55 193.79 L 590.20 191.90 L 593.85 192.76 L 597.50 194.36 L 601.15 185.51 L 604.80 190.18 L 608.45 188.28 L 612.10 190.18 L 615.75 198.06 L 619.40 192.60 L 623.05 189.11 L 626.70 188.69 L 630.35 187.89 L 634.00 182.33 L 637.65 177.01 L 641.30 181.14 L 644.95 182.44 L 648.60 178.85 L 652.25 187.78 L 655.90 184.22 L 659.55 185.38 L 663.20 180.80 L 666.85 179.75 L 670.50 188.69 L 674.15 187.07 L 677.80 187.96 L 681.45 193.94 L 685.10 192.67 L 688.75 195.31 L 692.40 192.73 L 696.05 187.88 L 699.70 191.49 L 703.35 198.81 L 707.00 206.04 L 710.65 209.15 L 714.30 207.65 L 717.95 214.50 L 721.60 213.22 L 725.25 216.01 L 728.90 219.71 L 732.55 216.30 L 736.20 221.41 L 739.85 228.24 L 743.50 234.62 L 747.15 230.37 L 750.80 228.04 L 754.45 226.60 L 758.10 224.95 L 761.75 220.85 L 765.40 219.25 L 769.05 219.06 L 772.70 223.91 L 776.35 225.32 L 780.00 220.97" class="path-2" />
<path d="M 50.00 118.86 L 53.65 115.12 L 57.30 109.32 L 60.95 109.92 L 64.60 113.23 L 68.25 112.64 L 71.90 111.76 L 75.55 105.68 L 79.20 107.97 L 82.85 111.07 L 86.50 110.51 L 90.15 105.40 L 93.80 107.14 L 97.45 112.97 L 101.10 110.07 L 104.75 106.46 L 108.40 108.94 L 112.05 104.46 L 115.70 99.35 L 119.35 106.17 L 123.00 104.68 L 126.65 107.65 L 130.30 109.83 L 133.95 111.13 L 137.60 116.53 L 141.25 112.70 L 144.90 104.87 L 148.55 101.48 L 152.20 99.48 L 155.85 108.05 L 159.50 110.63 L 163.15 109.95 L 166.80 109.15 L 170.45 113.53 L 174.10 111.77 L 177.75 119.87 L 181.40 114.63 L 185.05 116.00 L 188.70 119.67 L 192.35 124.34 L 196.00 124.97 L 199.65 119.15 L 203.30 118.58 L 206.95 112.89 L 210.60 113.27 L 214.25 109.39 L 217.90 112.07 L 221.55 118.06 L 225.20 119.65 L 228.85 117.34 L 232.50 126.28 L 236.15 120.73 L 239.80 111.23 L 243.45 107.94 L 247.10 110.64 L 250.75 114.66 L 254.40 112.48 L 258.05 103.38 L 261.70 101.63 L 265.35 94.15 L 269.00 81.17 L 272.65 78.36 L 276.30 76.28 L 279.95 86.95 L 283.60 80.65 L 287.25 86.49 L 290.90 88.91 L 294.55 100.22 L 298.20 99.06 L 301.85 97.01 L 305.50 94.49 L 309.15 96.01 L 312.80 92.15 L 316.45 92.10 L 320.10 87.50 L 323.75 81.33 L 327.40 77.58 L 331.05 82.67 L 334.70 83.43 L 338.35 80.46 L 342.00 80.77 L 345.65 78.62 L 349.30 86.54 L 352.95 88.74 L 356.60 86.19 L 360.25 85.50 L 363.90 86.29 L 367.55 80.51 L 371.20 82.18 L 374.85 87.66 L 378.50 86.93 L 382.15 87.30 L 385.80 85.57 L 389.45 88.38 L 393.10 88.17 L 396.75 81.54 L 400.40 82.76 L 404.05 88.23 L 407.70 90.08 L 411.35 96.09 L 415.00 96.61 L 418.65 98.05 L 422.30 104.13 L 425.95 101.07 L 429.60 104.46 L 433.25 94.35 L 436.90 92.49 L 440.55 93.38 L 444.20 89.79 L 447.85 94.03 L 451.50 97.10 L 455.15 101.36 L 458.80 98.98 L 462.45 99.77 L 466.10 94.45 L 469.75 89.24 L 473.40 88.56 L 477.05 84.13 L 480.70 78.07 L 484.35 78.71 L 488.00 81.83 L 491.65 86.49 L 495.30 88.76 L 498.95 93.33 L 502.60 83.63 L 506.25 87.25 L 509.90 86.13 L 513.55 91.80 L 517.20 96.04 L 520.85 94.24 L 524.50 102.75 L 528.15 105.97 L 531.80 110.63 L 535.45 105.05 L 539.10 103.52 L 542.75 110.88 L 546.40 111.17 L 550.05 110.27 L 553.70 109.81 L 557.35 106.92 L 561.00 106.21 L 564.65 101.29 L 568.30 100.29 L 571.95 101.94 L 575.60 99.75 L 579.25 99.77 L 582.90 93.01 L 586.55 88.49 L 590.20 87.82 L 593.85 88.85 L 597.50 88.19 L 601.15 83.21 L 604.80 85.22 L 608.45 86.43 L 612.10 85.80 L 615.75 88.19 L 619.40 90.41 L 623.05 86.92 L 626.70 84.47 L 630.35 85.47 L 634.00 80.50 L 637.65 82.07 L 641.30 78.29 L 644.95 81.18 L 648.60 79.41 L 652.25 89.06 L 655.90 99.03 L 659.55 102.60 L 663.20 104.14 L 666.85 98.41 L 670.50 94.14 L 674.15 93.31 L 677.80 82.53 L 681.45 85.46 L 685.10 84.92 L 688.75 84.56 L 692.40 85.85 L 696.05 90.11 L 699.70 86.68 L 703.35 85.96 L 707.00 82.97 L 710.65 82.45 L 714.30 72.35 L 717.95 73.29 L 721.60 72.91 L 725.25 75.37 L 728.90 83.41 L 732.55 80.24 L 736.20 84.92 L 739.85 79.64 L 743.50 83.92 L 747.15 79.46 L 750.80 82.34 L 754.45 80.93 L 758.10 87.08 L 761.75 78.67 L 765.40 76.11 L 769.05 67.48 L 772.70 72.07 L 776.35 69.51 L 780.00 68.04" class="path-3" />
<path d="M 50.00 118.86 L 53.65 127.84 L 57.30 128.49 L 60.95 135.76 L 64.60 127.50 L 68.25 128.43 L 71.90 133.35 L 75.55 129.57 L 79.20 130.79 L 82.85 132.27 L 86.50 133.64 L 90.15 127.06 L 93.80 128.83 L 97.45 127.35 L 101.10 131.74 L 104.75 132.25 L 108.40 130.77 L 112.05 128.90 L 115.70 124.62 L 119.35 134.52 L 123.00 136.74 L 126.65 139.47 L 130.30 144.17 L 133.95 149.02 L 137.60 158.49 L 141.25 165.19 L 144.90 159.90 L 148.55 146.77 L 152.20 138.83 L 155.85 140.89 L 159.50 141.83 L 163.15 139.27 L 166.80 135.65 L 170.45 131.03 L 174.10 130.89 L 177.75 119.41 L 181.40 113.80 L 185.05 115.46 L 188.70 114.07 L 192.35 121.45 L 196.00 130.30 L 199.65 139.91 L 203.30 139.14 L 206.95 133.78 L 210.60 140.69 L 214.25 144.14 L 217.90 146.43 L 221.55 143.47 L 225.20 143.61 L 228.85 149.73 L 232.50 155.40 L 236.15 154.22 L 239.80 152.70 L 243.45 148.87 L 247.10 151.69 L 250.75 155.39 L 254.40 160.89 L 258.05 149.13 L 261.70 143.20 L 265.35 148.71 L 269.00 152.35 L 272.65 162.28 L 276.30 153.97 L 279.95 155.98 L 283.60 157.06 L 287.25 157.53 L 290.90 154.20 L 294.55 153.67 L 298.20 146.03 L 301.85 142.52 L 305.50 148.64 L 309.15 153.80 L 312.80 141.57 L 316.45 143.82 L 320.10 142.12 L 323.75 144.82 L 327.40 139.83 L 331.05 136.54 L 334.70 138.70 L 338.35 134.28 L 342.00 140.30 L 345.65 136.73 L 349.30 144.94 L 352.95 146.75 L 356.60 143.24 L 360.25 141.47 L 363.90 141.08 L 367.55 140.33 L 371.20 144.05 L 374.85 135.25 L 378.50 137.85 L 382.15 140.07 L 385.80 141.09 L 389.45 144.90 L 393.10 146.85 L 396.75 141.57 L 400.40 140.16 L 404.05 142.96 L 407.70 145.99 L 411.35 149.91 L 415.00 149.32 L 418.65 149.96 L 422.30 149.56 L 425.95 148.71 L 429.60 146.60 L 433.25 146.53 L 436.90 150.12 L 440.55 142.40 L 444.20 142.64 L 447.85 144.34 L 451.50 150.43 L 455.15 152.80 L 458.80 153.50 L 462.45 156.30 L 466.10 166.80 L 469.75 165.41 L 473.40 158.74 L 477.05 156.51 L 480.70 153.40 L 484.35 155.02 L 488.00 157.47 L 491.65 157.16 L 495.30 159.71 L 498.95 155.13 L 502.60 151.07 L 506.25 151.47 L 509.90 150.23 L 513.55 156.17 L 517.20 154.22 L 520.85 157.86 L 524.50 151.20 L 528.15 145.15 L 531.80 139.56 L 535.45 143.54 L 539.10 146.86 L 542.75 157.06 L 546.40 163.43 L 550.05 159.06 L 553.70 164.03 L 557.35 162.40 L 561.00 162.78 L 564.65 160.05 L 568.30 152.79 L 571.95 150.84 L 575.60 146.12 L 579.25 145.05 L 582.90 146.31 L 586.55 143.96 L 590.20 148.51 L 593.85 146.63 L 597.50 144.18 L 601.15 141.90 L 604.80 135.40 L 608.45 136.79 L 612.10 134.59 L 615.75 135.37 L 619.40 129.59 L 623.05 133.76 L 626.70 134.04 L 630.35 127.79 L 634.00 132.14 L 637.65 131.53 L 641.30 136.58 L 644.95 136.80 L 648.60 144.76 L 652.25 138.43 L 655.90 136.82 L 659.55 135.02 L 663.20 132.65 L 666.85 131.80 L 670.50 132.73 L 674.15 135.49 L 677.80 128.04 L 681.45 120.59 L 685.10 115.93 L 688.75 113.73 L 692.40 115.94 L 696.05 116.57 L 699.70 107.74 L 703.35 102.20 L 707.00 100.59 L 710.65 94.13 L 714.30 94.89 L 717.95 91.79 L 721.60 81.71 L 725.25 76.57 L 728.90 67.54 L 732.55 65.38 L 736.20 69.84 L 739.85 68.37 L 743.50 73.00 L 747.15 74.49 L 750.80 66.38 L 754.45 70.37 L 758.10 69.06 L 761.75 81.30 L 765.40 78.68 L 769.05 71.33 L 772.70 68.46 L 776.35 75.22 L 780.00 66.35" class="path-4" />
<line x1="50" y1="118.9" x2="780" y2="118.9" stroke="#4b5563" stroke-width="0.8" stroke-dasharray="6 3" />
</svg>