<svg xmlns="http://www.w3.org/2000/svg" viewBox="0 0 800 300" width="800" height="300">
<style>
.axis-line { stroke: #6b7280; stroke-width: 0.5; }
.axis-text { font-family: monospace; font-size: 11px; fill: #9ca3af; }
.title-text { font-family: monospace; font-size: 14px; fill: #d1d5db; font-weight: bold; }
.grid-line { stroke: #374151; stroke-width: 0.3; stroke-dasharray: 4 2; }
.path-0 { fill: none; stroke: #3b82f6; stroke-width: 2; stroke-linecap: round; opacity: 0.85; animation: draw-0 8s ease-in-out 0.0s infinite; stroke-dasharray: 1013; stroke-dashoffset: 1013;}
@keyframes draw-0 { 0% { stroke-dashoffset: 1013; } 38% { stroke-dashoffset: 0; } 62% { stroke-dashoffset: 0; } 100% { stroke-dashoffset: 1013; }}
.path-1 { fill: none; stroke: #ef4444; stroke-width: 2; stroke-linecap: round; opacity: 0.85; animation: draw-1 8s ease-in-out 0.4s infinite; stroke-dasharray: 975; stroke-dashoffset: 975;}
@keyframes draw-1 { 0% { stroke-dashoffset: 975; } 38% { stroke-dashoffset: 0; } 62% { stroke-dashoffset: 0; } 100% { stroke-dashoffset: 975; }}
.path-2 { fill: none; stroke: #22c55e; stroke-width: 2; stroke-linecap: round; opacity: 0.85; animation: draw-2 8s ease-in-out 0.8s infinite; stroke-dasharray: 1006; stroke-dashoffset: 1006;}
@keyframes draw-2 { 0% { stroke-dashoffset: 1006; } 38% { stroke-dashoffset: 0; } 62% { stroke-dashoffset: 0; } 100% { stroke-dashoffset: 1006; }}
.path-3 { fill: none; stroke: #f59e0b; stroke-width: 2; stroke-linecap: round; opacity: 0.85; animation: draw-3 8s ease-in-out 1.2000000000000002s infinite; stroke-dasharray: 981; stroke-dashoffset: 981;}
@keyframes draw-3 { 0% { stroke-dashoffset: 981; } 38% { stroke-dashoffset: 0; } 62% { stroke-dashoffset: 0; } 100% { stroke-dashoffset: 981; }}
.path-4 { fill: none; stroke: #a855f7; stroke-width: 2; stroke-linecap: round; opacity: 0.85; animation: draw-4 8s ease-in-out 1.6s infinite; stroke-dasharray: 1038; stroke-dashoffset: 1038;}
@keyframes draw-4 { 0% { stroke-dashoffset: 1038; } 38% { stroke-dashoffset: 0; } 62% { stroke-dashoffset: 0; } 100% { stroke-dashoffset: 1038; }}
</style>
<rect width="800" height="300" rx="8" fill="#0d1117" />
<line x1="50" y1="260.0" x2="780" y2="260.0" class="grid-line" />
<text x="44" y="264.0" text-anchor="end" class="axis-text">-2.8</text>
<line x1="50" y1="216.0" x2="780" y2="216.0" class="grid-line" />
<text x="44" y="220.0" text-anchor="end" class="axis-text">-2.0</text>
<line x1="50" y1="172.0" x2="780" y2="172.0" class="grid-line" />
<text x="44" y="176.0" text-anchor="end" class="axis-text">-1.1</text>
<line x1="50" y1="128.0" x2="780" y2="128.0" class="grid-line" />
<text x="44" y="132.0" text-anchor="end" class="axis-text">-0.2</text>
<line x1="50" y1="84.0" x2="780" y2="84.0" class="grid-line" />
<text x="44" y="88.0" text-anchor="end" class="axis-text">0.6</text>
<line x1="50" y1="40.0" x2="780" y2="40.0" class="grid-line" />
<text x="44" y="44.0" text-anchor="end" class="axis-text">1.5</text>
<line x1="50.0" y1="40" x2="50.0" y2="260" class="grid-line" />
<line x1="196.0" y1="40" x2="196.0" y2="260" class="grid-line" />
<line x1="342.0" y1="40" x2="342.0" y2="260" class="grid-line" />
<line x1="488.0" y1="40" x2="488.0" y2="260" class="grid-line" />
<line x1="634.0" y1="40" x2="634.0" y2="260" class="grid-line" />
<line x1="780.0" y1="40" x2="780.0" y2="260" class="grid-line" />
<line x1="50" y1="260" x2="780" y2="260" class="axis-line" />
<line x1="50" y1="40" x2="50" y2="260" class="axis-line" />
<text x="400.0" y="295" text-anchor="middle" class="axis-text">t</text>
<text x="12" y="150.0" text-anchor="middle" class="axis-text" transform="rotate(-90 12 150.0)">W(t)</text>
<text x="400.0" y="22" text-anchor="middle" class="title-text">Brownian Motion</text>
<path d="M 50.00 116.01 L 53.65 114.17 L 57.30 122.54 L 60.95 119.10 L 64.60 121.50 L 68.25 125.73 L 71.90 127.17 L 75.55 126.72 L 79.20 129.46 L 82.85 127.92 L 86.50 132.54 L 90.15 132.24 L 93.80 131.53 L 97.45 132.36 L 101.10 137.52 L 104.75 145.62 L 108.40 145.33 L 112.05 143.18 L 115.70 139.64 L 119.35 131.43 L 123.00 132.63 L 126.65 134.34 L 130.30 127.58 L 133.95 136.48 L 137.60 142.41 L 141.25 144.92 L 144.90 141.00 L 148.55 138.34 L 152.20 138.02 L 155.85 135.17 L 159.50 128.22 L 163.15 126.51 L 166.80 127.83 L 170.45 124.86 L 174.10 122.62 L 177.75 126.79 L 181.40 127.04 L 185.05 129.14 L 188.70 128.56 L 192.35 130.55 L 196.00 133.86 L 199.65 136.47 L 203.30 134.47 L 206.95 132.49 L 210.60 135.99 L 214.25 140.36 L 217.90 141.29 L 221.55 142.44 L 225.20 145.15 L 228.85 142.34 L 232.50 144.38 L 236.15 149.62 L 239.80 148.41 L 243.45 156.63 L 247.10 154.33 L 250.75 153.85 L 254.40 161.18 L 258.05 160.50 L 261.70 160.70 L 265.35 161.96 L 269.00 166.61 L 272.65 165.86 L 276.30 160.46 L 279.95 160.06 L 283.60 158.70 L 287.25 156.18 L 290.90 163.77 L 294.55 166.34 L 298.20 159.69 L 301.85 161.19 L 305.50 160.92 L 309.15 164.46 L 312.80 169.48 L 316.45 171.25 L 320.10 173.55 L 323.75 175.09 L 327.40 175.06 L 331.05 175.59 L 334.70 174.81 L 338.35 179.72 L 342.00 177.72 L 345.65 176.81 L 349.30 177.31 L 352.95 171.81 L 356.60 173.87 L 360.25 169.26 L 363.90 166.10 L 367.55 165.83 L 371.20 166.05 L 374.85 158.34 L 378.50 163.41 L 382.15 160.43 L 385.80 159.14 L 389.45 155.33 L 393.10 156.39 L 396.75 155.34 L 400.40 149.02 L 404.05 153.88 L 407.70 152.88 L 411.35 151.33 L 415.00 156.88 L 418.65 155.05 L 422.30 150.59 L 425.95 149.00 L 429.60 147.93 L 433.25 150.16 L 436.90 144.22 L 440.55 145.05 L 444.20 147.40 L 447.85 150.70 L 451.50 147.01 L 455.15 147.59 L 458.80 151.15 L 462.45 157.78 L 466.10 163.64 L 469.75 157.23 L 473.40 152.89 L 477.05 157.26 L 480.70 153.56 L 484.35 153.71 L 488.00 153.90 L 491.65 160.84 L 495.30 158.84 L 498.95 164.15 L 502.60 164.66 L 506.25 167.12 L 509.90 164.14 L 513.55 155.37 L 517.20 163.21 L 520.85 163.22 L 524.50 171.70 L 528.15 169.15 L 531.80 166.69 L 535.45 165.35 L 539.10 158.83 L 542.75 160.54 L 546.40 164.12 L 550.05 167.60 L 553.70 167.60 L 557.35 162.66 L 561.00 165.81 L 564.65 171.83 L 568.30 174.54 L 571.95 175.17 L 575.60 172.87 L 579.25 172.73 L 582.90 175.05 L 586.55 172.66 L 590.20 173.40 L 593.85 175.94 L 597.50 174.97 L 601.15 166.97 L 604.80 167.64 L 608.45 166.78 L 612.10 165.81 L 615.75 164.63 L 619.40 160.57 L 623.05 164.16 L 626.70 159.19 L 630.35 163.55 L 634.00 164.28 L 637.65 166.31 L 641.30 168.26 L 644.95 163.66 L 648.60 164.81 L 652.25 163.34 L 655.90 166.55 L 659.55 166.87 L 663.20 165.18 L 666.85 158.68 L 670.50 159.27 L 674.15 156.04 L 677.80 154.78 L 681.45 156.88 L 685.10 155.41 L 688.75 160.67 L 692.40 157.50 L 696.05 162.28 L 699.70 168.63 L 703.35 170.40 L 707.00 171.74 L 710.65 170.56 L 714.30 168.75 L 717.95 175.83 L 721.60 175.96 L 725.25 175.12 L 728.90 180.82 L 732.55 187.96 L 736.20 182.95 L 739.85 181.01 L 743.50 176.55 L 747.15 181.29 L 750.80 184.62 L 754.45 184.80 L 758.10 181.69 L 761.75 185.08 L 765.40 181.75 L 769.05 177.01 L 772.70 180.18 L 776.35 173.77 L 780.00 174.59" class="path-0" />
<path d="M 50.00 116.01 L 53.65 118.75 L 57.30 118.82 L 60.95 117.58 L 64.60 121.87 L 68.25 122.89 L 71.90 121.59 L 75.55 122.26 L 79.20 125.66 L 82.85 125.83 L 86.50 123.79 L 90.15 126.11 L 93.80 127.92 L 97.45 127.83 L 101.10 128.53 L 104.75 125.45 L 108.40 125.22 L 112.05 130.88 L 115.70 127.90 L 119.35 128.77 L 123.00 132.14 L 126.65 135.56 L 130.30 132.77 L 133.95 136.45 L 137.60 136.92 L 141.25 140.82 L 144.90 138.80 L 148.55 141.67 L 152.20 137.81 L 155.85 137.33 L 159.50 133.10 L 163.15 134.84 L 166.80 136.00 L 170.45 134.24 L 174.10 132.30 L 177.75 130.18 L 181.40 128.89 L 185.05 124.13 L 188.70 128.56 L 192.35 125.71 L 196.00 121.57 L 199.65 122.64 L 203.30 123.12 L 206.95 120.98 L 210.60 126.81 L 214.25 127.92 L 217.90 132.38 L 221.55 130.51 L 225.20 132.80 L 228.85 135.30 L 232.50 144.12 L 236.15 138.81 L 239.80 135.62 L 243.45 132.06 L 247.10 127.60 L 250.75 130.36 L 254.40 123.82 L 258.05 124.03 L 261.70 129.18 L 265.35 134.46 L 269.00 133.94 L 272.65 133.79 L 276.30 132.23 L 279.95 131.13 L 283.60 128.91 L 287.25 129.24 L 290.90 135.72 L 294.55 136.57 L 298.20 133.15 L 301.85 136.87 L 305.50 138.28 L 309.15 138.76 L 312.80 138.88 L 316.45 142.49 L 320.10 138.94 L 323.75 142.04 L 327.40 138.98 L 331.05 135.88 L 334.70 135.45 L 338.35 134.26 L 342.00 135.36 L 345.65 135.24 L 349.30 137.87 L 352.95 139.21 L 356.60 142.97 L 360.25 136.51 L 363.90 139.08 L 367.55 135.12 L 371.20 137.63 L 374.85 146.45 L 378.50 154.36 L 382.15 160.92 L 385.80 159.76 L 389.45 154.81 L 393.10 158.88 L 396.75 156.39 L 400.40 158.34 L 404.05 165.63 L 407.70 163.10 L 411.35 167.46 L 415.00 170.10 L 418.65 166.34 L 422.30 171.09 L 425.95 179.10 L 429.60 185.64 L 433.25 179.60 L 436.90 188.60 L 440.55 189.42 L 444.20 189.05 L 447.85 192.43 L 451.50 185.24 L 455.15 185.18 L 458.80 186.73 L 462.45 187.31 L 466.10 180.82 L 469.75 181.38 L 473.40 184.86 L 477.05 187.67 L 480.70 188.01 L 484.35 187.06 L 488.00 189.23 L 491.65 188.14 L 495.30 187.18 L 498.95 192.05 L 502.60 194.77 L 506.25 194.09 L 509.90 194.74 L 513.55 199.39 L 517.20 199.14 L 520.85 196.46 L 524.50 198.21 L 528.15 195.15 L 531.80 189.91 L 535.45 195.22 L 539.10 194.21 L 542.75 193.22 L 546.40 197.32 L 550.05 193.33 L 553.70 194.56 L 557.35 198.24 L 561.00 199.41 L 564.65 202.28 L 568.30 203.55 L 571.95 195.71 L 575.60 198.35 L 579.25 196.43 L 582.90 205.83 L 586.55 208.82 L 590.20 208.98 L 593.85 213.83 L 597.50 209.46 L 601.15 213.97 L 604.80 214.36 L 608.45 216.32 L 612.10 214.70 L 615.75 212.25 L 619.40 218.16 L 623.05 217.88 L 626.70 222.73 L 630.35 225.84 L 634.00 222.15 L 637.65 223.38 L 641.30 224.66 L 644.95 225.66 L 648.60 225.79 L 652.25 224.42 L 655.90 219.50 L 659.55 221.10 L 663.20 221.39 L 666.85 219.34 L 670.50 222.32 L 674.15 228.96 L 677.80 234.62 L 681.45 232.35 L 685.10 232.76 L 688.75 229.21 L 692.40 226.49 L 696.05 225.47 L 699.70 222.64 L 703.35 221.13 L 707.00 222.97 L 710.65 227.51 L 714.30 224.09 L 717.95 220.95 L 721.60 222.55 L 725.25 219.78 L 728.90 221.93 L 732.55 222.15 L 736.20 221.66 L 739.85 221.06 L 743.50 222.42 L 747.15 224.11 L 750.80 224.75 L 754.45 223.02 L 758.10 226.64 L 761.75 230.70 L 765.40 230.90 L 769.05 228.20 L 772.70 228.45 L 776.35 226.79 L 780.00 224.76" class="path-1" />
<path d="M 50.00 116.01 L 53.65 113.05 L 57.30 119.34 L 60.95 119.95 L 64.60 117.00 L 68.25 124.42 L 71.90 122.05 L 75.55 124.32 L 79.20 119.89 L 82.85 120.78 L 86.50 120.04 L 90.15 114.94 L 93.80 116.63 L 97.45 114.28 L 101.10 121.28 L 104.75 124.86 L 108.40 131.96 L 112.05 131.82 L 115.70 124.48 L 119.35 132.38 L 123.00 135.77 L 126.65 132.79 L 130.30 129.60 L 133.95 130.22 L 137.60 126.56 L 141.25 127.69 L 144.90 126.60 L 148.55 123.37 L 152.20 128.74 L 155.85 128.34 L 159.50 135.64 L 163.15 135.06 L 166.80 134.31 L 170.45 137.47 L 174.10 135.95 L 177.75 139.49 L 181.40 134.33 L 185.05 132.06 L 188.70 132.37 L 192.35 131.05 L 196.00 136.67 L 199.65 135.57 L 203.30 132.13 L 206.95 130.45 L 210.60 124.52 L 214.25 121.56 L 217.90 124.06 L 221.55 128.41 L 225.20 129.22 L 228.85 125.65 L 232.50 120.11 L 236.15 117.81 L 239.80 114.93 L 243.45 116.55 L 247.10 115.28 L 250.75 111.01 L 254.40 106.05 L 258.05 103.94 L 261.70 102.78 L 265.35 104.98 L 269.00 101.64 L 272.65 108.71 L 276.30 104.79 L 279.95 114.09 L 283.60 110.79 L 287.25 110.15 L 290.90 108.52 L 294.55 112.59 L 298.20 116.49 L 301.85 113.09 L 305.50 109.45 L 309.15 107.85 L 312.80 106.80 L 316.45 106.35 L 320.10 108.85 L 323.75 110.06 L 327.40 112.54 L 331.05 114.35 L 334.70 117.02 L 338.35 119.22 L 342.00 117.80 L 345.65 119.10 L 349.30 119.22 L 352.95 120.52 L 356.60 121.41 L 360.25 119.78 L 363.90 123.65 L 367.55 120.68 L 371.20 119.90 L 374.85 119.66 L 378.50 117.57 L 382.15 116.89 L 385.80 112.62 L 389.45 114.46 L 393.10 115.75 L 396.75 115.40 L 400.40 114.81 L 404.05 116.27 L 407.70 121.13 L 411.35 121.45 L 415.00 120.12 L 418.65 120.53 L 422.30 121.59 L 425.95 119.14 L 429.60 122.22 L 433.25 127.48 L 436.90 132.39 L 440.55 134.61 L 444.20 137.18 L 447.85 130.82 L 451.50 130.86 L 455.15 137.06 L 458.80 135.83 L 462.45 130.04 L 466.10 127.31 L 469.75 134.54 L 473.40 129.00 L 477.05 129.88 L 480.70 126.84 L 484.35 127.04 L 488.00 129.82 L 491.65 123.47 L 495.30 127.96 L 498.95 129.73 L 502.60 130.82 L 506.25 130.80 L 509.90 128.17 L 513.55 125.87 L 517.20 121.15 L 520.85 113.11 L 524.50 114.36 L 528.15 112.94 L 531.80 117.08 L 535.45 110.67 L 539.10 110.11 L 542.75 110.14 L 546.40 118.12 L 550.05 114.32 L 553.70 114.62 L 557.35 117.37 L 561.00 121.59 L 564.65 120.15 L 568.30 124.29 L 571.95 130.27 L 575.60 126.77 L 579.25 124.48 L 582.90 126.93 L 586.55 122.99 L 590.20 121.95 L 593.85 124.11 L 597.50 119.01 L 601.15 112.90 L 604.80 110.73 L 608.45 116.78 L 612.10 108.87 L 615.75 112.24 L 619.40 117.04 L 623.05 114.01 L 626.70 115.50 L 630.35 110.49 L 634.00 112.95 L 637.65 116.97 L 641.30 114.50 L 644.95 116.97 L 648.60 119.30 L 652.25 119.74 L 655.90 116.39 L 659.55 118.70 L 663.20 114.37 L 666.85 118.47 L 670.50 117.44 L 674.15 113.48 L 677.80 107.11 L 681.45 113.18 L 685.10 108.98 L 688.75 105.54 L 692.40 111.45 L 696.05 109.92 L 699.70 105.52 L 703.35 107.47 L 707.00 108.24 L 710.65 110.56 L 714.30 111.71 L 717.95 113.75 L 721.60 111.14 L 725.25 109.90 L 728.90 115.16 L 732.55 116.30 L 736.20 118.05 L 739.85 116.37 L 743.50 122.80 L 747.15 123.96 L 750.80 123.15 L 754.45 127.04 L 758.10 117.33 L 761.75 122.54 L 765.40 121.68 L 769.05 116.68 L 772.70 118.12 L 776.35 117.45 L 780.00 115.91" class="path-2" />
<path d="M 50.00 116.01 L 53.65 116.28 L 57.30 116.09 L 60.95 113.69 L 64.60 111.82 L 68.25 109.25 L 71.90 108.34 L 75.55 109.10 L 79.20 113.12 L 82.85 119.42 L 86.50 117.18 L 90.15 119.12 L 93.80 117.25 L 97.45 114.02 L 101.10 118.43 L 104.75 116.66 L 108.40 116.56 L 112.05 118.08 L 115.70 117.84 L 119.35 114.94 L 123.00 107.18 L 126.65 109.40 L 130.30 107.73 L 133.95 108.67 L 137.60 108.46 L 141.25 108.83 L 144.90 108.54 L 148.55 103.04 L 152.20 109.44 L 155.85 109.12 L 159.50 107.44 L 163.15 109.26 L 166.80 108.68 L 170.45 111.52 L 174.10 119.14 L 177.75 121.20 L 181.40 120.70 L 185.05 122.08 L 188.70 119.60 L 192.35 121.21 L 196.00 119.43 L 199.65 118.62 L 203.30 117.87 L 206.95 116.61 L 210.60 119.39 L 214.25 120.62 L 217.90 124.19 L 221.55 124.26 L 225.20 126.29 L 228.85 131.18 L 232.50 130.33 L 236.15 128.50 L 239.80 127.74 L 243.45 123.47 L 247.10 120.96 L 250.75 123.43 L 254.40 119.08 L 258.05 123.17 L 261.70 123.92 L 265.35 120.84 L 269.00 122.13 L 272.65 123.03 L 276.30 124.94 L 279.95 122.47 L 283.60 120.02 L 287.25 119.28 L 290.90 118.99 L 294.55 112.55 L 298.20 116.57 L 301.85 113.03 L 305.50 111.56 L 309.15 111.38 L 312.80 108.26 L 316.45 115.15 L 320.10 111.50 L 323.75 109.87 L 327.40 116.93 L 331.05 120.65 L 334.70 122.82 L 338.35 129.66 L 342.00 137.14 L 345.65 133.62 L 349.30 133.17 L 352.95 133.15 L 356.60 137.83 L 360.25 137.03 L 363.90 135.80 L 367.55 140.49 L 371.20 142.42 L 374.85 141.14 L 378.50 137.41 L 382.15 135.52 L 385.80 135.42 L 389.45 134.30 L 393.10 136.25 L 396.75 140.07 L 400.40 141.33 L 404.05 143.55 L 407.70 145.10 L 411.35 144.52 L 415.00 145.02 L 418.65 142.08 L 422.30 141.35 L 425.95 146.22 L 429.60 142.56 L 433.25 142.70 L 436.90 138.68 L 440.55 136.96 L 444.20 137.05 L 447.85 129.20 L 451.50 128.85 L 455.15 126.61 L 458.80 122.71 L 462.45 115.93 L 466.10 106.72 L 469.75 102.53 L 473.40 107.50 L 477.05 106.85 L 480.70 109.32 L 484.35 114.09 L 488.00 116.35 L 491.65 107.63 L 495.30 105.47 L 498.95 100.42 L 502.60 101.34 L 506.25 105.06 L 509.90 103.78 L 513.55 105.92 L 517.20 116.88 L 520.85 112.04 L 524.50 111.95 L 528.15 112.24 L 531.80 108.79 L 535.45 107.93 L 539.10 113.26 L 542.75 115.14 L 546.40 119.07 L 550.05 119.37 L 553.70 120.20 L 557.35 122.04 L 561.00 118.97 L 564.65 120.04 L 568.30 118.43 L 571.95 118.24 L 575.60 122.69 L 579.25 113.80 L 582.90 109.27 L 586.55 110.77 L 590.20 108.92 L 593.85 111.17 L 597.50 107.84 L 601.15 109.44 L 604.80 111.94 L 608.45 115.36 L 612.10 112.46 L 615.75 124.91 L 619.40 123.93 L 623.05 124.43 L 626.70 125.83 L 630.35 126.85 L 634.00 126.69 L 637.65 124.94 L 641.30 122.91 L 644.95 115.36 L 648.60 119.32 L 652.25 123.52 L 655.90 125.92 L 659.55 128.40 L 663.20 132.74 L 666.85 131.17 L 670.50 132.71 L 674.15 137.20 L 677.80 140.68 L 681.45 143.89 L 685.10 145.65 L 688.75 141.18 L 692.40 141.78 L 696.05 146.31 L 699.70 149.95 L 703.35 149.06 L 707.00 150.06 L 710.65 146.52 L 714.30 143.43 L 717.95 144.24 L 721.60 142.65 L 725.25 145.60 L 728.90 147.64 L 732.55 144.61 L 736.20 142.82 L 739.85 135.23 L 743.50 139.57 L 747.15 131.55 L 750.80 133.60 L 754.45 139.66 L 758.10 133.81 L 761.75 136.87 L 765.40 140.09 L 769.05 141.48 L 772.70 145.16 L 776.35 143.44 L 780.00 148.01" class="path-3" />
<path d="M 50.00 116.01 L 53.65 116.76 L 57.30 114.49 L 60.95 117.89 L 64.60 117.78 L 68.25 104.49 L 71.90 107.53 L 75.55 111.27 L 79.20 113.41 L 82.85 115.53 L 86.50 108.94 L 90.15 106.55 L 93.80 102.02 L 97.45 98.82 L 101.10 99.33 L 104.75 100.84 L 108.40 103.33 L 112.05 101.99 L 115.70 103.12 L 119.35 98.44 L 123.00 102.01 L 126.65 99.80 L 130.30 94.44 L 133.95 93.96 L 137.60 93.62 L 141.25 95.93 L 144.90 93.88 L 148.55 90.05 L 152.20 85.32 L 155.85 89.58 L 159.50 85.59 L 163.15 89.93 L 166.80 88.39 L 170.45 89.28 L 174.10 86.11 L 177.75 84.92 L 181.40 88.26 L 185.05 91.34 L 188.70 91.34 L 192.35 91.69 L 196.00 90.59 L 199.65 83.06 L 203.30 88.41 L 206.95 83.99 L 210.60 82.60 L 214.25 83.53 L 217.90 80.21 L 221.55 72.27 L 225.20 70.36 L 228.85 71.55 L 232.50 75.32 L 236.15 78.14 L 239.80 80.43 L 243.45 72.85 L 247.10 65.38 L 250.75 65.91 L 254.40 68.51 L 258.05 69.33 L 261.70 72.65 L 265.35 71.94 L 269.00 82.47 L 272.65 80.79 L 276.30 84.62 L 279.95 83.96 L 283.60 83.38 L 287.25 78.87 L 290.90 85.55 L 294.55 94.25 L 298.20 94.47 L 301.85 91.89 L 305.50 87.70 L 309.15 82.34 L 312.80 78.91 L 316.45 81.89 L 320.10 81.23 L 323.75 86.86 L 327.40 87.35 L 331.05 88.57 L 334.70 91.34 L 338.35 92.90 L 342.00 95.69 L 345.65 93.47 L 349.30 89.07 L 352.95 90.23 L 356.60 90.38 L 360.25 95.71 L 363.90 95.06 L 367.55 89.76 L 371.20 91.39 L 374.85 98.23 L 378.50 100.18 L 382.15 95.01 L 385.80 92.67 L 389.45 94.09 L 393.10 92.39 L 396.75 96.89 L 400.40 96.39 L 404.05 89.42 L 407.70 87.08 L 411.35 90.44 L 415.00 83.30 L 418.65 84.96 L 422.30 88.47 L 425.95 83.49 L 429.60 86.56 L 433.25 86.96 L 436.90 81.31 L 440.55 82.89 L 444.20 85.22 L 447.85 89.51 L 451.50 87.73 L 455.15 89.17 L 458.80 93.68 L 462.45 97.92 L 466.10 102.07 L 469.75 108.12 L 473.40 108.71 L 477.05 108.99 L 480.70 113.51 L 484.35 115.74 L 488.00 114.32 L 491.65 119.48 L 495.30 124.15 L 498.95 122.37 L 502.60 127.46 L 506.25 124.20 L 509.90 123.00 L 513.55 124.86 L 517.20 121.77 L 520.85 125.76 L 524.50 118.87 L 528.15 124.65 L 531.80 120.53 L 535.45 120.82 L 539.10 119.06 L 542.75 115.62 L 546.40 115.61 L 550.05 114.36 L 553.70 116.43 L 557.35 117.77 L 561.00 121.13 L 564.65 122.39 L 568.30 122.28 L 571.95 124.35 L 575.60 119.86 L 579.25 114.72 L 582.90 118.60 L 586.55 116.81 L 590.20 120.85 L 593.85 124.45 L 597.50 126.80 L 601.15 129.17 L 604.80 120.60 L 608.45 115.39 L 612.10 123.91 L 615.75 115.81 L 619.40 113.22 L 623.05 118.02 L 626.70 118.86 L 630.35 117.59 L 634.00 110.83 L 637.65 110.60 L 641.30 114.26 L 644.95 120.33 L 648.60 126.75 L 652.25 127.56 L 655.90 119.45 L 659.55 119.93 L 663.20 122.81 L 666.85 120.71 L 670.50 122.96 L 674.15 127.09 L 677.80 130.09 L 681.45 135.19 L 685.10 137.48 L 688.75 137.69 L 692.40 135.18 L 696.05 138.24 L 699.70 143.77 L 703.35 150.29 L 707.00 153.55 L 710.65 155.35 L 714.30 155.94 L 717.95 154.83 L 721.60 153.23 L 725.25 156.33 L 728.90 158.86 L 732.55 164.48 L 736.20 165.78 L 739.85 179.89 L 743.50 173.08 L 747.15 174.62 L 750.80 171.45 L 754.45 176.73 L 758.10 178.66 L 761.75 178.54 L 765.40 177.76 L 769.05 182.48 L 772.70 179.69 L 776.35 183.31 L 780.00 183.92" class="path-4" />
<line x1="50" y1="116.0" x2="780" y2="116.0" stroke="#4b5563" stroke-width="0.8" stroke-dasharray="6 3" />
</svg>