<svg xmlns="http://www.w3.org/2000/svg" viewBox="0 0 800 300" width="800" height="300">
<style>
.axis-line { stroke: #6b7280; stroke-width: 0.5; }
.axis-text { font-family: monospace; font-size: 11px; fill: #9ca3af; }
.title-text { font-family: monospace; font-size: 14px; fill: #d1d5db; font-weight: bold; }
.grid-line { stroke: #374151; stroke-width: 0.3; stroke-dasharray: 4 2; }
.path-0 { fill: none; stroke: #3b82f6; stroke-width: 2; stroke-linecap: round; opacity: 0.85; animation: draw-0 8s ease-in-out 0.0s infinite; stroke-dasharray: 1242; stroke-dashoffset: 1242;}
@keyframes draw-0 { 0% { stroke-dashoffset: 1242; } 38% { stroke-dashoffset: 0; } 62% { stroke-dashoffset: 0; } 100% { stroke-dashoffset: 1242; }}
.path-1 { fill: none; stroke: #ef4444; stroke-width: 2; stroke-linecap: round; opacity: 0.85; animation: draw-1 8s ease-in-out 0.4s infinite; stroke-dasharray: 1159; stroke-dashoffset: 1159;}
@keyframes draw-1 { 0% { stroke-dashoffset: 1159; } 38% { stroke-dashoffset: 0; } 62% { stroke-dashoffset: 0; } 100% { stroke-dashoffset: 1159; }}
.path-2 { fill: none; stroke: #22c55e; stroke-width: 2; stroke-linecap: round; opacity: 0.85; animation: draw-2 8s ease-in-out 0.8s infinite; stroke-dasharray: 1181; stroke-dashoffset: 1181;}
@keyframes draw-2 { 0% { stroke-dashoffset: 1181; } 38% { stroke-dashoffset: 0; } 62% { stroke-dashoffset: 0; } 100% { stroke-dashoffset: 1181; }}
.path-3 { fill: none; stroke: #f59e0b; stroke-width: 2; stroke-linecap: round; opacity: 0.85; animation: draw-3 8s ease-in-out 1.2000000000000002s infinite; stroke-dasharray: 1268; stroke-dashoffset: 1268;}
@keyframes draw-3 { 0% { stroke-dashoffset: 1268; } 38% { stroke-dashoffset: 0; } 62% { stroke-dashoffset: 0; } 100% { stroke-dashoffset: 1268; }}
.path-4 { fill: none; stroke: #a855f7; stroke-width: 2; stroke-linecap: round; opacity: 0.85; animation: draw-4 8s ease-in-out 1.6s infinite; stroke-dasharray: 1195; stroke-dashoffset: 1195;}
@keyframes draw-4 { 0% { stroke-dashoffset: 1195; } 38% { stroke-dashoffset: 0; } 62% { stroke-dashoffset: 0; } 100% { stroke-dashoffset: 1195; }}
</style>
<rect width="800" height="300" rx="8" fill="#0d1117" />
<line x1="50" y1="260.0" x2="780" y2="260.0" class="grid-line" />
<text x="44" y="264.0" text-anchor="end" class="axis-text">-1.4</text>
<line x1="50" y1="216.0" x2="780" y2="216.0" class="grid-line" />
<text x="44" y="220.0" text-anchor="end" class="axis-text">-0.8</text>
<line x1="50" y1="172.0" x2="780" y2="172.0" class="grid-line" />
<text x="44" y="176.0" text-anchor="end" class="axis-text">-0.3</text>
<line x1="50" y1="128.0" x2="780" y2="128.0" class="grid-line" />
<text x="44" y="132.0" text-anchor="end" class="axis-text">0.3</text>
<line x1="50" y1="84.0" x2="780" y2="84.0" class="grid-line" />
<text x="44" y="88.0" text-anchor="end" class="axis-text">0.9</text>
<line x1="50" y1="40.0" x2="780" y2="40.0" class="grid-line" />
<text x="44" y="44.0" text-anchor="end" class="axis-text">1.5</text>
<line x1="50.0" y1="40" x2="50.0" y2="260" class="grid-line" />
<line x1="196.0" y1="40" x2="196.0" y2="260" class="grid-line" />
<line x1="342.0" y1="40" x2="342.0" y2="260" class="grid-line" />
<line x1="488.0" y1="40" x2="488.0" y2="260" class="grid-line" />
<line x1="634.0" y1="40" x2="634.0" y2="260" class="grid-line" />
<line x1="780.0" y1="40" x2="780.0" y2="260" class="grid-line" />
<line x1="50" y1="260" x2="780" y2="260" class="axis-line" />
<line x1="50" y1="40" x2="50" y2="260" class="axis-line" />
<text x="400.0" y="295" text-anchor="middle" class="axis-text">t</text>
<text x="12" y="150.0" text-anchor="middle" class="axis-text" transform="rotate(-90 12 150.0)">W(t)</text>
<text x="400.0" y="22" text-anchor="middle" class="title-text">Brownian Motion</text>
<path d="M 50.00 152.82 L 53.65 136.32 L 57.30 134.94 L 60.95 137.28 L 64.60 137.22 L 68.25 142.99 L 71.90 142.12 L 75.55 139.47 L 79.20 134.64 L 82.85 127.26 L 86.50 133.34 L 90.15 126.30 L 93.80 125.73 L 97.45 122.75 L 101.10 126.16 L 104.75 131.05 L 108.40 136.34 L 112.05 144.47 L 115.70 142.79 L 119.35 138.52 L 123.00 130.54 L 126.65 128.33 L 130.30 121.58 L 133.95 122.20 L 137.60 122.05 L 141.25 125.08 L 144.90 126.09 L 148.55 127.62 L 152.20 135.05 L 155.85 137.77 L 159.50 132.07 L 163.15 125.81 L 166.80 135.17 L 170.45 137.42 L 174.10 144.40 L 177.75 142.75 L 181.40 154.12 L 185.05 150.59 L 188.70 149.19 L 192.35 155.01 L 196.00 151.95 L 199.65 158.84 L 203.30 160.95 L 206.95 149.47 L 210.60 155.77 L 214.25 151.60 L 217.90 157.87 L 221.55 166.08 L 225.20 166.76 L 228.85 163.45 L 232.50 160.04 L 236.15 165.26 L 239.80 164.29 L 243.45 157.70 L 247.10 160.30 L 250.75 161.47 L 254.40 159.58 L 258.05 170.80 L 261.70 162.87 L 265.35 165.28 L 269.00 166.46 L 272.65 173.87 L 276.30 176.77 L 279.95 179.60 L 283.60 167.86 L 287.25 164.13 L 290.90 155.60 L 294.55 150.38 L 298.20 151.11 L 301.85 156.31 L 305.50 146.20 L 309.15 139.60 L 312.80 138.57 L 316.45 138.13 L 320.10 136.84 L 323.75 133.26 L 327.40 132.69 L 331.05 129.67 L 334.70 125.00 L 338.35 115.47 L 342.00 106.92 L 345.65 109.64 L 349.30 111.12 L 352.95 117.43 L 356.60 117.33 L 360.25 121.07 L 363.90 123.53 L 367.55 124.84 L 371.20 129.45 L 374.85 126.27 L 378.50 117.88 L 382.15 114.26 L 385.80 112.63 L 389.45 104.11 L 393.10 105.10 L 396.75 108.15 L 400.40 110.71 L 404.05 109.15 L 407.70 104.69 L 411.35 94.20 L 415.00 101.88 L 418.65 100.69 L 422.30 100.94 L 425.95 94.00 L 429.60 100.98 L 433.25 92.13 L 436.90 98.82 L 440.55 95.47 L 444.20 87.76 L 447.85 87.52 L 451.50 85.78 L 455.15 77.28 L 458.80 85.22 L 462.45 78.40 L 466.10 80.89 L 469.75 71.76 L 473.40 75.22 L 477.05 77.30 L 480.70 82.77 L 484.35 82.95 L 488.00 80.68 L 491.65 85.32 L 495.30 83.12 L 498.95 81.78 L 502.60 84.96 L 506.25 91.22 L 509.90 86.80 L 513.55 89.41 L 517.20 94.71 L 520.85 111.65 L 524.50 121.13 L 528.15 122.06 L 531.80 122.02 L 535.45 118.65 L 539.10 114.39 L 542.75 108.29 L 546.40 119.75 L 550.05 125.88 L 553.70 114.88 L 557.35 110.27 L 561.00 106.67 L 564.65 106.88 L 568.30 108.12 L 571.95 104.65 L 575.60 99.23 L 579.25 94.98 L 582.90 98.46 L 586.55 99.33 L 590.20 107.83 L 593.85 111.20 L 597.50 113.40 L 601.15 116.26 L 604.80 125.49 L 608.45 118.07 L 612.10 113.69 L 615.75 108.87 L 619.40 106.82 L 623.05 106.78 L 626.70 108.30 L 630.35 113.95 L 634.00 111.90 L 637.65 105.96 L 641.30 116.10 L 644.95 128.60 L 648.60 126.35 L 652.25 121.03 L 655.90 120.03 L 659.55 119.22 L 663.20 112.58 L 666.85 105.72 L 670.50 110.58 L 674.15 103.16 L 677.80 99.37 L 681.45 111.70 L 685.10 117.41 L 688.75 111.74 L 692.40 103.93 L 696.05 107.01 L 699.70 104.59 L 703.35 110.81 L 707.00 114.38 L 710.65 112.26 L 714.30 106.32 L 717.95 112.68 L 721.60 114.19 L 725.25 113.91 L 728.90 115.01 L 732.55 116.04 L 736.20 111.91 L 739.85 105.41 L 743.50 110.47 L 747.15 122.32 L 750.80 131.75 L 754.45 132.10 L 758.10 132.99 L 761.75 129.99 L 765.40 129.02 L 769.05 132.62 L 772.70 133.64 L 776.35 134.14 L 780.00 133.85" class="path-0" />
<path d="M 50.00 152.82 L 53.65 148.24 L 57.30 147.89 L 60.95 147.98 L 64.60 161.22 L 68.25 162.96 L 71.90 165.60 L 75.55 168.02 L 79.20 166.25 L 82.85 171.97 L 86.50 168.36 L 90.15 170.95 L 93.80 175.78 L 97.45 175.01 L 101.10 166.17 L 104.75 167.45 L 108.40 165.50 L 112.05 163.17 L 115.70 158.91 L 119.35 150.04 L 123.00 154.56 L 126.65 147.68 L 130.30 136.95 L 133.95 143.00 L 137.60 146.28 L 141.25 150.00 L 144.90 155.93 L 148.55 150.18 L 152.20 149.46 L 155.85 154.12 L 159.50 155.61 L 163.15 145.70 L 166.80 142.91 L 170.45 145.71 L 174.10 147.83 L 177.75 145.33 L 181.40 148.77 L 185.05 139.92 L 188.70 141.92 L 192.35 136.00 L 196.00 143.22 L 199.65 139.11 L 203.30 145.43 L 206.95 141.34 L 210.60 139.69 L 214.25 139.35 L 217.90 136.75 L 221.55 135.34 L 225.20 139.28 L 228.85 142.66 L 232.50 153.70 L 236.15 156.11 L 239.80 149.62 L 243.45 140.55 L 247.10 147.88 L 250.75 148.07 L 254.40 155.37 L 258.05 157.92 L 261.70 160.57 L 265.35 158.34 L 269.00 155.78 L 272.65 157.47 L 276.30 159.19 L 279.95 162.00 L 283.60 163.91 L 287.25 159.06 L 290.90 160.77 L 294.55 159.06 L 298.20 150.23 L 301.85 154.38 L 305.50 155.11 L 309.15 150.74 L 312.80 141.35 L 316.45 143.43 L 320.10 145.09 L 323.75 138.39 L 327.40 133.67 L 331.05 120.51 L 334.70 127.99 L 338.35 124.13 L 342.00 124.57 L 345.65 123.90 L 349.30 133.34 L 352.95 137.28 L 356.60 138.53 L 360.25 138.83 L 363.90 151.95 L 367.55 148.67 L 371.20 150.53 L 374.85 149.71 L 378.50 150.11 L 382.15 155.86 L 385.80 160.11 L 389.45 162.50 L 393.10 160.07 L 396.75 167.78 L 400.40 161.33 L 404.05 172.46 L 407.70 166.83 L 411.35 160.27 L 415.00 161.44 L 418.65 156.53 L 422.30 156.48 L 425.95 153.70 L 429.60 161.79 L 433.25 162.12 L 436.90 162.32 L 440.55 155.21 L 444.20 154.56 L 447.85 152.31 L 451.50 157.35 L 455.15 157.40 L 458.80 159.35 L 462.45 164.09 L 466.10 167.14 L 469.75 167.72 L 473.40 166.21 L 477.05 169.28 L 480.70 166.18 L 484.35 167.86 L 488.00 161.98 L 491.65 157.76 L 495.30 156.32 L 498.95 159.50 L 502.60 155.89 L 506.25 152.12 L 509.90 148.12 L 513.55 144.88 L 517.20 146.46 L 520.85 145.14 L 524.50 144.83 L 528.15 148.02 L 531.80 146.97 L 535.45 143.99 L 539.10 134.88 L 542.75 130.36 L 546.40 133.60 L 550.05 134.05 L 553.70 139.73 L 557.35 132.02 L 561.00 137.63 L 564.65 135.93 L 568.30 146.08 L 571.95 146.99 L 575.60 149.72 L 579.25 143.82 L 582.90 139.71 L 586.55 138.22 L 590.20 143.47 L 593.85 138.97 L 597.50 141.01 L 601.15 139.83 L 604.80 134.57 L 608.45 131.61 L 612.10 136.86 L 615.75 139.80 L 619.40 138.98 L 623.05 145.78 L 626.70 140.72 L 630.35 132.42 L 634.00 137.08 L 637.65 124.22 L 641.30 117.45 L 644.95 118.18 L 648.60 120.40 L 652.25 115.82 L 655.90 115.12 L 659.55 126.40 L 663.20 128.33 L 666.85 127.73 L 670.50 129.54 L 674.15 120.90 L 677.80 125.94 L 681.45 126.63 L 685.10 124.18 L 688.75 127.38 L 692.40 128.84 L 696.05 123.92 L 699.70 114.60 L 703.35 97.73 L 707.00 98.59 L 710.65 98.54 L 714.30 98.24 L 717.95 94.32 L 721.60 90.93 L 725.25 95.94 L 728.90 89.53 L 732.55 88.09 L 736.20 90.58 L 739.85 82.58 L 743.50 82.05 L 747.15 81.88 L 750.80 79.38 L 754.45 77.63 L 758.10 67.87 L 761.75 65.49 L 765.40 67.36 L 769.05 65.42 L 772.70 65.38 L 776.35 66.54 L 780.00 71.63" class="path-1" />
<path d="M 50.00 152.82 L 53.65 158.63 L 57.30 163.78 L 60.95 159.40 L 64.60 153.01 L 68.25 163.62 L 71.90 170.68 L 75.55 170.35 L 79.20 170.85 L 82.85 182.89 L 86.50 183.74 L 90.15 179.66 L 93.80 182.27 L 97.45 171.08 L 101.10 168.44 L 104.75 168.05 L 108.40 166.00 L 112.05 148.67 L 115.70 152.75 L 119.35 147.12 L 123.00 144.53 L 126.65 147.44 L 130.30 148.65 L 133.95 155.06 L 137.60 159.28 L 141.25 147.42 L 144.90 155.82 L 148.55 158.33 L 152.20 159.38 L 155.85 148.66 L 159.50 151.52 L 163.15 147.72 L 166.80 153.74 L 170.45 155.59 L 174.10 151.58 L 177.75 145.48 L 181.40 141.51 L 185.05 136.96 L 188.70 130.37 L 192.35 128.38 L 196.00 131.47 L 199.65 127.36 L 203.30 130.95 L 206.95 132.65 L 210.60 129.50 L 214.25 136.24 L 217.90 134.92 L 221.55 135.33 L 225.20 132.05 L 228.85 132.82 L 232.50 130.26 L 236.15 136.30 L 239.80 138.04 L 243.45 137.30 L 247.10 131.28 L 250.75 124.44 L 254.40 118.60 L 258.05 110.21 L 261.70 109.75 L 265.35 113.23 L 269.00 107.43 L 272.65 112.06 L 276.30 108.68 L 279.95 121.23 L 283.60 120.43 L 287.25 125.80 L 290.90 125.91 L 294.55 129.15 L 298.20 133.47 L 301.85 132.15 L 305.50 136.60 L 309.15 138.85 L 312.80 138.10 L 316.45 135.94 L 320.10 132.69 L 323.75 134.60 L 327.40 130.21 L 331.05 132.29 L 334.70 125.45 L 338.35 130.83 L 342.00 125.19 L 345.65 130.74 L 349.30 132.82 L 352.95 129.31 L 356.60 127.14 L 360.25 131.42 L 363.90 136.10 L 367.55 134.81 L 371.20 126.09 L 374.85 130.67 L 378.50 128.99 L 382.15 134.13 L 385.80 136.69 L 389.45 137.86 L 393.10 134.46 L 396.75 140.77 L 400.40 148.86 L 404.05 153.83 L 407.70 155.77 L 411.35 148.70 L 415.00 145.60 L 418.65 146.53 L 422.30 145.70 L 425.95 140.19 L 429.60 142.64 L 433.25 153.84 L 436.90 158.87 L 440.55 160.15 L 444.20 155.27 L 447.85 153.03 L 451.50 165.15 L 455.15 171.36 L 458.80 169.92 L 462.45 181.21 L 466.10 186.58 L 469.75 178.70 L 473.40 176.67 L 477.05 174.50 L 480.70 171.70 L 484.35 176.22 L 488.00 182.13 L 491.65 183.51 L 495.30 180.43 L 498.95 180.56 L 502.60 178.14 L 506.25 181.81 L 509.90 185.69 L 513.55 175.08 L 517.20 171.03 L 520.85 170.17 L 524.50 177.33 L 528.15 180.41 L 531.80 182.94 L 535.45 175.30 L 539.10 170.36 L 542.75 173.19 L 546.40 172.56 L 550.05 174.25 L 553.70 172.90 L 557.35 175.13 L 561.00 165.43 L 564.65 163.03 L 568.30 163.46 L 571.95 161.73 L 575.60 163.38 L 579.25 159.38 L 582.90 161.83 L 586.55 159.85 L 590.20 158.49 L 593.85 160.98 L 597.50 168.37 L 601.15 163.47 L 604.80 164.70 L 608.45 157.62 L 612.10 152.23 L 615.75 150.39 L 619.40 152.65 L 623.05 148.08 L 626.70 148.82 L 630.35 139.73 L 634.00 131.17 L 637.65 127.73 L 641.30 122.67 L 644.95 134.41 L 648.60 136.88 L 652.25 132.66 L 655.90 130.69 L 659.55 135.98 L 663.20 136.26 L 666.85 137.28 L 670.50 140.29 L 674.15 137.15 L 677.80 136.25 L 681.45 141.01 L 685.10 135.84 L 688.75 132.19 L 692.40 135.52 L 696.05 134.08 L 699.70 127.27 L 703.35 129.66 L 707.00 132.15 L 710.65 143.38 L 714.30 142.79 L 717.95 134.30 L 721.60 128.96 L 725.25 133.22 L 728.90 135.57 L 732.55 138.33 L 736.20 131.54 L 739.85 132.94 L 743.50 132.81 L 747.15 129.16 L 750.80 131.38 L 754.45 133.21 L 758.10 128.95 L 761.75 121.09 L 765.40 123.47 L 769.05 118.59 L 772.70 134.74 L 776.35 136.13 L 780.00 135.44" class="path-2" />
<path d="M 50.00 152.82 L 53.65 161.99 L 57.30 169.40 L 60.95 169.29 L 64.60 183.98 L 68.25 184.00 L 71.90 181.46 L 75.55 178.72 L 79.20 181.84 L 82.85 189.32 L 86.50 186.84 L 90.15 185.15 L 93.80 190.76 L 97.45 178.66 L 101.10 176.24 L 104.75 183.13 L 108.40 178.09 L 112.05 175.74 L 115.70 174.38 L 119.35 185.30 L 123.00 186.85 L 126.65 188.32 L 130.30 185.89 L 133.95 197.89 L 137.60 197.87 L 141.25 199.55 L 144.90 197.27 L 148.55 198.15 L 152.20 203.63 L 155.85 206.48 L 159.50 210.53 L 163.15 213.08 L 166.80 214.87 L 170.45 213.24 L 174.10 203.35 L 177.75 202.17 L 181.40 214.48 L 185.05 217.46 L 188.70 216.98 L 192.35 221.26 L 196.00 213.24 L 199.65 214.87 L 203.30 218.92 L 206.95 219.33 L 210.60 217.11 L 214.25 215.29 L 217.90 223.77 L 221.55 233.01 L 225.20 224.46 L 228.85 226.46 L 232.50 226.36 L 236.15 219.51 L 239.80 227.08 L 243.45 231.58 L 247.10 234.52 L 250.75 234.62 L 254.40 218.85 L 258.05 219.57 L 261.70 211.30 L 265.35 221.84 L 269.00 228.53 L 272.65 222.00 L 276.30 218.30 L 279.95 220.43 L 283.60 214.62 L 287.25 220.18 L 290.90 219.51 L 294.55 216.00 L 298.20 210.05 L 301.85 214.02 L 305.50 216.21 L 309.15 210.56 L 312.80 222.81 L 316.45 227.08 L 320.10 212.53 L 323.75 217.84 L 327.40 225.30 L 331.05 212.25 L 334.70 212.09 L 338.35 216.68 L 342.00 205.93 L 345.65 209.23 L 349.30 209.78 L 352.95 217.32 L 356.60 211.80 L 360.25 207.32 L 363.90 202.19 L 367.55 201.79 L 371.20 200.40 L 374.85 199.25 L 378.50 197.90 L 382.15 190.30 L 385.80 187.77 L 389.45 188.38 L 393.10 187.84 L 396.75 190.55 L 400.40 188.77 L 404.05 197.62 L 407.70 206.42 L 411.35 208.28 L 415.00 214.29 L 418.65 222.77 L 422.30 214.71 L 425.95 214.04 L 429.60 209.83 L 433.25 214.35 L 436.90 199.59 L 440.55 191.41 L 444.20 193.73 L 447.85 195.82 L 451.50 199.47 L 455.15 207.71 L 458.80 210.97 L 462.45 216.07 L 466.10 219.86 L 469.75 220.63 L 473.40 208.18 L 477.05 207.00 L 480.70 204.24 L 484.35 205.81 L 488.00 208.08 L 491.65 210.49 L 495.30 210.11 L 498.95 219.36 L 502.60 222.89 L 506.25 217.07 L 509.90 212.73 L 513.55 208.97 L 517.20 204.84 L 520.85 197.97 L 524.50 192.37 L 528.15 194.21 L 531.80 199.24 L 535.45 202.22 L 539.10 206.94 L 542.75 206.92 L 546.40 205.48 L 550.05 201.06 L 553.70 200.73 L 557.35 207.52 L 561.00 206.87 L 564.65 211.27 L 568.30 206.56 L 571.95 213.00 L 575.60 207.42 L 579.25 205.14 L 582.90 194.86 L 586.55 197.35 L 590.20 196.37 L 593.85 191.98 L 597.50 179.27 L 601.15 178.01 L 604.80 179.79 L 608.45 177.48 L 612.10 178.95 L 615.75 174.36 L 619.40 173.06 L 623.05 182.52 L 626.70 189.00 L 630.35 189.61 L 634.00 180.04 L 637.65 167.92 L 641.30 173.04 L 644.95 166.68 L 648.60 164.06 L 652.25 169.12 L 655.90 161.98 L 659.55 158.48 L 663.20 161.39 L 666.85 160.55 L 670.50 163.46 L 674.15 173.16 L 677.80 171.73 L 681.45 169.28 L 685.10 175.04 L 688.75 169.70 L 692.40 167.07 L 696.05 164.22 L 699.70 157.43 L 703.35 152.14 L 707.00 153.83 L 710.65 157.60 L 714.30 151.56 L 717.95 140.29 L 721.60 146.87 L 725.25 143.71 L 728.90 142.88 L 732.55 143.91 L 736.20 143.42 L 739.85 133.68 L 743.50 136.56 L 747.15 145.06 L 750.80 145.99 L 754.45 149.05 L 758.10 146.68 L 761.75 150.80 L 765.40 160.93 L 769.05 168.13 L 772.70 177.98 L 776.35 173.65 L 780.00 168.95" class="path-3" />
<path d="M 50.00 152.82 L 53.65 147.91 L 57.30 142.18 L 60.95 146.77 L 64.60 147.96 L 68.25 150.50 L 71.90 148.06 L 75.55 140.15 L 79.20 129.43 L 82.85 136.20 L 86.50 124.24 L 90.15 132.03 L 93.80 134.02 L 97.45 133.75 L 101.10 133.03 L 104.75 137.78 L 108.40 133.11 L 112.05 132.93 L 115.70 127.85 L 119.35 128.56 L 123.00 127.21 L 126.65 133.94 L 130.30 135.86 L 133.95 137.71 L 137.60 129.90 L 141.25 117.50 L 144.90 121.73 L 148.55 131.07 L 152.20 131.12 L 155.85 138.50 L 159.50 130.96 L 163.15 132.27 L 166.80 123.33 L 170.45 120.81 L 174.10 124.70 L 177.75 120.44 L 181.40 114.09 L 185.05 116.47 L 188.70 113.18 L 192.35 109.86 L 196.00 116.32 L 199.65 118.39 L 203.30 113.12 L 206.95 111.23 L 210.60 122.80 L 214.25 113.91 L 217.90 108.06 L 221.55 108.42 L 225.20 98.27 L 228.85 93.59 L 232.50 86.34 L 236.15 90.29 L 239.80 88.69 L 243.45 91.58 L 247.10 97.64 L 250.75 98.10 L 254.40 97.74 L 258.05 98.91 L 261.70 97.90 L 265.35 101.65 L 269.00 106.54 L 272.65 114.62 L 276.30 115.45 L 279.95 116.99 L 283.60 117.25 L 287.25 118.86 L 290.90 112.29 L 294.55 109.86 L 298.20 116.21 L 301.85 106.95 L 305.50 99.70 L 309.15 96.11 L 312.80 97.87 L 316.45 96.05 L 320.10 101.35 L 323.75 95.92 L 327.40 99.93 L 331.05 103.64 L 334.70 107.05 L 338.35 105.75 L 342.00 105.41 L 345.65 103.43 L 349.30 100.27 L 352.95 98.79 L 356.60 100.69 L 360.25 103.97 L 363.90 93.27 L 367.55 86.67 L 371.20 87.98 L 374.85 85.73 L 378.50 88.30 L 382.15 84.11 L 385.80 80.52 L 389.45 82.00 L 393.10 91.93 L 396.75 89.81 L 400.40 84.10 L 404.05 86.90 L 407.70 84.56 L 411.35 91.31 L 415.00 88.15 L 418.65 87.62 L 422.30 93.55 L 425.95 96.64 L 429.60 98.22 L 433.25 95.41 L 436.90 93.87 L 440.55 97.68 L 444.20 99.03 L 447.85 91.09 L 451.50 102.90 L 455.15 102.17 L 458.80 105.58 L 462.45 104.43 L 466.10 114.37 L 469.75 115.56 L 473.40 118.11 L 477.05 128.16 L 480.70 124.31 L 484.35 127.10 L 488.00 123.46 L 491.65 114.50 L 495.30 113.80 L 498.95 119.57 L 502.60 113.68 L 506.25 118.41 L 509.90 118.36 L 513.55 116.67 L 517.20 114.60 L 520.85 113.90 L 524.50 110.56 L 528.15 105.59 L 531.80 105.17 L 535.45 110.79 L 539.10 115.55 L 542.75 117.87 L 546.40 118.05 L 550.05 114.66 L 553.70 115.93 L 557.35 115.26 L 561.00 112.25 L 564.65 112.89 L 568.30 113.28 L 571.95 107.20 L 575.60 102.60 L 579.25 98.97 L 582.90 109.28 L 586.55 111.96 L 590.20 114.34 L 593.85 111.30 L 597.50 113.37 L 601.15 114.87 L 604.80 108.62 L 608.45 106.58 L 612.10 109.92 L 615.75 111.79 L 619.40 114.10 L 623.05 104.12 L 626.70 112.98 L 630.35 106.65 L 634.00 111.80 L 637.65 119.31 L 641.30 123.16 L 644.95 125.87 L 648.60 123.20 L 652.25 128.52 L 655.90 131.37 L 659.55 131.05 L 663.20 132.25 L 666.85 132.59 L 670.50 139.07 L 674.15 146.33 L 677.80 137.50 L 681.45 129.42 L 685.10 129.18 L 688.75 129.91 L 692.40 122.52 L 696.05 125.63 L 699.70 123.69 L 703.35 110.86 L 707.00 103.35 L 710.65 104.93 L 714.30 100.24 L 717.95 105.46 L 721.60 100.68 L 725.25 98.77 L 728.90 99.67 L 732.55 96.35 L 736.20 83.41 L 739.85 82.70 L 743.50 67.64 L 747.15 72.20 L 750.80 86.55 L 754.45 82.57 L 758.10 90.15 L 761.75 85.88 L 765.40 90.91 L 769.05 96.30 L 772.70 92.74 L 776.35 91.77 L 780.00 92.18" class="path-4" />
<line x1="50" y1="152.8" x2="780" y2="152.8" stroke="#4b5563" stroke-width="0.8" stroke-dasharray="6 3" />
</svg>