<svg xmlns="http://www.w3.org/2000/svg" viewBox="0 0 800 300" width="800" height="300">
<style>
.axis-line { stroke: #6b7280; stroke-width: 0.5; }
.axis-text { font-family: monospace; font-size: 11px; fill: #9ca3af; }
.title-text { font-family: monospace; font-size: 14px; fill: #d1d5db; font-weight: bold; }
.grid-line { stroke: #374151; stroke-width: 0.3; stroke-dasharray: 4 2; }
.path-0 { fill: none; stroke: #3b82f6; stroke-width: 2; stroke-linecap: round; opacity: 0.85; animation: draw-0 8s ease-in-out 0.0s infinite; stroke-dasharray: 1088; stroke-dashoffset: 1088;}
@keyframes draw-0 { 0% { stroke-dashoffset: 1088; } 38% { stroke-dashoffset: 0; } 62% { stroke-dashoffset: 0; } 100% { stroke-dashoffset: 1088; }}
.path-1 { fill: none; stroke: #ef4444; stroke-width: 2; stroke-linecap: round; opacity: 0.85; animation: draw-1 8s ease-in-out 0.4s infinite; stroke-dasharray: 1095; stroke-dashoffset: 1095;}
@keyframes draw-1 { 0% { stroke-dashoffset: 1095; } 38% { stroke-dashoffset: 0; } 62% { stroke-dashoffset: 0; } 100% { stroke-dashoffset: 1095; }}
.path-2 { fill: none; stroke: #22c55e; stroke-width: 2; stroke-linecap: round; opacity: 0.85; animation: draw-2 8s ease-in-out 0.8s infinite; stroke-dasharray: 1083; stroke-dashoffset: 1083;}
@keyframes draw-2 { 0% { stroke-dashoffset: 1083; } 38% { stroke-dashoffset: 0; } 62% { stroke-dashoffset: 0; } 100% { stroke-dashoffset: 1083; }}
.path-3 { fill: none; stroke: #f59e0b; stroke-width: 2; stroke-linecap: round; opacity: 0.85; animation: draw-3 8s ease-in-out 1.2000000000000002s infinite; stroke-dasharray: 1131; stroke-dashoffset: 1131;}
@keyframes draw-3 { 0% { stroke-dashoffset: 1131; } 38% { stroke-dashoffset: 0; } 62% { stroke-dashoffset: 0; } 100% { stroke-dashoffset: 1131; }}
.path-4 { fill: none; stroke: #a855f7; stroke-width: 2; stroke-linecap: round; opacity: 0.85; animation: draw-4 8s ease-in-out 1.6s infinite; stroke-dasharray: 1082; stroke-dashoffset: 1082;}
@keyframes draw-4 { 0% { stroke-dashoffset: 1082; } 38% { stroke-dashoffset: 0; } 62% { stroke-dashoffset: 0; } 100% { stroke-dashoffset: 1082; }}
</style>
<rect width="800" height="300" rx="8" fill="#0d1117" />
<line x1="50" y1="260.0" x2="780" y2="260.0" class="grid-line" />
<text x="44" y="264.0" text-anchor="end" class="axis-text">-1.6</text>
<line x1="50" y1="216.0" x2="780" y2="216.0" class="grid-line" />
<text x="44" y="220.0" text-anchor="end" class="axis-text">-0.9</text>
<line x1="50" y1="172.0" x2="780" y2="172.0" class="grid-line" />
<text x="44" y="176.0" text-anchor="end" class="axis-text">-0.2</text>
<line x1="50" y1="128.0" x2="780" y2="128.0" class="grid-line" />
<text x="44" y="132.0" text-anchor="end" class="axis-text">0.6</text>
<line x1="50" y1="84.0" x2="780" y2="84.0" class="grid-line" />
<text x="44" y="88.0" text-anchor="end" class="axis-text">1.3</text>
<line x1="50" y1="40.0" x2="780" y2="40.0" class="grid-line" />
<text x="44" y="44.0" text-anchor="end" class="axis-text">2.0</text>
<line x1="50.0" y1="40" x2="50.0" y2="260" class="grid-line" />
<line x1="196.0" y1="40" x2="196.0" y2="260" class="grid-line" />
<line x1="342.0" y1="40" x2="342.0" y2="260" class="grid-line" />
<line x1="488.0" y1="40" x2="488.0" y2="260" class="grid-line" />
<line x1="634.0" y1="40" x2="634.0" y2="260" class="grid-line" />
<line x1="780.0" y1="40" x2="780.0" y2="260" class="grid-line" />
<line x1="50" y1="260" x2="780" y2="260" class="axis-line" />
<line x1="50" y1="40" x2="50" y2="260" class="axis-line" />
<text x="400.0" y="295" text-anchor="middle" class="axis-text">t</text>
<text x="12" y="150.0" text-anchor="middle" class="axis-text" transform="rotate(-90 12 150.0)">W(t)</text>
<text x="400.0" y="22" text-anchor="middle" class="title-text">Brownian Motion</text>
<path d="M 50.00 161.69 L 53.65 162.34 L 57.30 161.44 L 60.95 166.10 L 64.60 171.74 L 68.25 175.71 L 71.90 167.36 L 75.55 168.54 L 79.20 165.26 L 82.85 167.06 L 86.50 158.39 L 90.15 162.38 L 93.80 163.54 L 97.45 160.70 L 101.10 158.82 L 104.75 157.03 L 108.40 157.48 L 112.05 154.86 L 115.70 152.27 L 119.35 154.62 L 123.00 155.60 L 126.65 156.13 L 130.30 155.17 L 133.95 154.43 L 137.60 151.99 L 141.25 161.10 L 144.90 163.01 L 148.55 160.01 L 152.20 158.76 L 155.85 164.64 L 159.50 166.76 L 163.15 171.63 L 166.80 173.38 L 170.45 173.89 L 174.10 173.96 L 177.75 167.58 L 181.40 173.47 L 185.05 168.57 L 188.70 168.24 L 192.35 173.61 L 196.00 166.74 L 199.65 171.23 L 203.30 173.37 L 206.95 172.80 L 210.60 169.60 L 214.25 170.53 L 217.90 172.98 L 221.55 170.82 L 225.20 168.20 L 228.85 163.99 L 232.50 158.68 L 236.15 160.00 L 239.80 157.08 L 243.45 161.64 L 247.10 153.87 L 250.75 163.98 L 254.40 166.02 L 258.05 162.17 L 261.70 158.34 L 265.35 158.23 L 269.00 159.63 L 272.65 158.17 L 276.30 163.22 L 279.95 161.55 L 283.60 162.53 L 287.25 163.44 L 290.90 162.96 L 294.55 165.54 L 298.20 167.40 L 301.85 174.31 L 305.50 169.44 L 309.15 171.76 L 312.80 178.31 L 316.45 181.85 L 320.10 179.59 L 323.75 179.32 L 327.40 184.70 L 331.05 179.23 L 334.70 179.76 L 338.35 178.65 L 342.00 167.51 L 345.65 173.68 L 349.30 177.31 L 352.95 180.89 L 356.60 183.50 L 360.25 179.02 L 363.90 177.92 L 367.55 179.62 L 371.20 185.14 L 374.85 179.78 L 378.50 181.20 L 382.15 180.11 L 385.80 173.65 L 389.45 177.69 L 393.10 171.31 L 396.75 174.40 L 400.40 169.47 L 404.05 171.36 L 407.70 177.93 L 411.35 185.34 L 415.00 192.47 L 418.65 185.04 L 422.30 182.14 L 425.95 185.14 L 429.60 182.01 L 433.25 185.00 L 436.90 189.57 L 440.55 184.91 L 444.20 188.51 L 447.85 189.50 L 451.50 188.26 L 455.15 189.69 L 458.80 189.00 L 462.45 191.19 L 466.10 188.67 L 469.75 181.66 L 473.40 183.40 L 477.05 181.41 L 480.70 183.77 L 484.35 176.17 L 488.00 180.41 L 491.65 179.95 L 495.30 181.67 L 498.95 188.20 L 502.60 189.03 L 506.25 189.09 L 509.90 190.22 L 513.55 186.02 L 517.20 187.90 L 520.85 185.89 L 524.50 183.34 L 528.15 184.83 L 531.80 179.43 L 535.45 181.04 L 539.10 173.82 L 542.75 174.80 L 546.40 167.33 L 550.05 175.45 L 553.70 174.78 L 557.35 163.47 L 561.00 161.99 L 564.65 163.73 L 568.30 161.83 L 571.95 163.65 L 575.60 161.65 L 579.25 159.66 L 582.90 166.98 L 586.55 159.28 L 590.20 163.88 L 593.85 158.37 L 597.50 161.22 L 601.15 170.34 L 604.80 174.67 L 608.45 173.40 L 612.10 173.12 L 615.75 168.80 L 619.40 165.35 L 623.05 158.67 L 626.70 159.83 L 630.35 153.33 L 634.00 161.31 L 637.65 160.97 L 641.30 162.17 L 644.95 172.37 L 648.60 179.94 L 652.25 181.18 L 655.90 186.57 L 659.55 183.62 L 663.20 170.62 L 666.85 174.69 L 670.50 177.41 L 674.15 185.42 L 677.80 188.70 L 681.45 188.64 L 685.10 196.52 L 688.75 203.87 L 692.40 199.55 L 696.05 193.67 L 699.70 190.56 L 703.35 188.82 L 707.00 196.84 L 710.65 200.04 L 714.30 197.19 L 717.95 202.53 L 721.60 200.45 L 725.25 206.32 L 728.90 205.11 L 732.55 201.35 L 736.20 198.96 L 739.85 194.92 L 743.50 191.56 L 747.15 194.29 L 750.80 196.41 L 754.45 195.47 L 758.10 195.55 L 761.75 197.39 L 765.40 199.37 L 769.05 202.15 L 772.70 201.22 L 776.35 199.32 L 780.00 204.33" class="path-0" />
<path d="M 50.00 161.69 L 53.65 166.02 L 57.30 165.73 L 60.95 164.07 L 64.60 173.49 L 68.25 173.36 L 71.90 168.55 L 75.55 172.75 L 79.20 177.73 L 82.85 170.05 L 86.50 174.74 L 90.15 167.36 L 93.80 170.07 L 97.45 170.34 L 101.10 166.05 L 104.75 164.25 L 108.40 170.31 L 112.05 175.33 L 115.70 176.28 L 119.35 180.65 L 123.00 182.19 L 126.65 180.94 L 130.30 177.99 L 133.95 183.98 L 137.60 179.70 L 141.25 171.38 L 144.90 179.80 L 148.55 182.28 L 152.20 178.20 L 155.85 172.50 L 159.50 171.77 L 163.15 173.85 L 166.80 168.82 L 170.45 169.70 L 174.10 173.54 L 177.75 182.85 L 181.40 181.75 L 185.05 184.21 L 188.70 189.76 L 192.35 194.49 L 196.00 194.96 L 199.65 196.87 L 203.30 198.66 L 206.95 199.99 L 210.60 199.20 L 214.25 197.77 L 217.90 198.50 L 221.55 197.91 L 225.20 202.16 L 228.85 193.52 L 232.50 200.27 L 236.15 206.08 L 239.80 208.31 L 243.45 207.75 L 247.10 205.59 L 250.75 207.63 L 254.40 207.69 L 258.05 203.75 L 261.70 197.12 L 265.35 197.36 L 269.00 196.44 L 272.65 194.51 L 276.30 193.42 L 279.95 191.53 L 283.60 186.17 L 287.25 182.26 L 290.90 191.10 L 294.55 187.90 L 298.20 186.62 L 301.85 186.75 L 305.50 183.10 L 309.15 187.34 L 312.80 185.49 L 316.45 187.64 L 320.10 183.30 L 323.75 188.85 L 327.40 185.30 L 331.05 190.07 L 334.70 197.75 L 338.35 200.47 L 342.00 193.59 L 345.65 195.95 L 349.30 197.59 L 352.95 197.30 L 356.60 194.13 L 360.25 202.07 L 363.90 206.50 L 367.55 198.80 L 371.20 198.80 L 374.85 197.06 L 378.50 199.17 L 382.15 203.16 L 385.80 199.82 L 389.45 198.54 L 393.10 200.05 L 396.75 200.89 L 400.40 208.45 L 404.05 206.71 L 407.70 211.74 L 411.35 213.62 L 415.00 210.39 L 418.65 203.80 L 422.30 198.37 L 425.95 205.80 L 429.60 210.26 L 433.25 201.63 L 436.90 196.18 L 440.55 196.30 L 444.20 195.88 L 447.85 199.69 L 451.50 207.10 L 455.15 209.98 L 458.80 207.49 L 462.45 206.85 L 466.10 210.43 L 469.75 207.29 L 473.40 219.47 L 477.05 223.63 L 480.70 220.25 L 484.35 220.09 L 488.00 219.15 L 491.65 225.18 L 495.30 223.42 L 498.95 218.37 L 502.60 216.62 L 506.25 214.76 L 509.90 208.48 L 513.55 217.47 L 517.20 217.93 L 520.85 215.76 L 524.50 219.46 L 528.15 215.41 L 531.80 217.64 L 535.45 219.09 L 539.10 214.66 L 542.75 215.31 L 546.40 217.59 L 550.05 219.78 L 553.70 222.47 L 557.35 232.44 L 561.00 226.99 L 564.65 224.31 L 568.30 234.62 L 571.95 232.00 L 575.60 225.77 L 579.25 223.27 L 582.90 224.90 L 586.55 219.68 L 590.20 218.26 L 593.85 210.62 L 597.50 209.13 L 601.15 209.47 L 604.80 215.13 L 608.45 216.93 L 612.10 213.72 L 615.75 220.42 L 619.40 218.73 L 623.05 217.22 L 626.70 216.60 L 630.35 212.78 L 634.00 211.16 L 637.65 203.10 L 641.30 208.51 L 644.95 207.52 L 648.60 207.57 L 652.25 202.99 L 655.90 197.57 L 659.55 192.47 L 663.20 188.97 L 666.85 196.27 L 670.50 196.03 L 674.15 195.51 L 677.80 192.83 L 681.45 190.18 L 685.10 197.08 L 688.75 201.88 L 692.40 204.64 L 696.05 204.02 L 699.70 200.35 L 703.35 199.31 L 707.00 199.36 L 710.65 209.42 L 714.30 210.80 L 717.95 206.66 L 721.60 207.83 L 725.25 202.36 L 728.90 200.73 L 732.55 203.80 L 736.20 196.59 L 739.85 190.40 L 743.50 191.47 L 747.15 195.95 L 750.80 209.71 L 754.45 210.09 L 758.10 209.05 L 761.75 208.58 L 765.40 206.07 L 769.05 207.14 L 772.70 206.89 L 776.35 200.71 L 780.00 202.04" class="path-1" />
<path d="M 50.00 161.69 L 53.65 161.39 L 57.30 157.84 L 60.95 160.32 L 64.60 163.51 L 68.25 170.13 L 71.90 169.85 L 75.55 168.25 L 79.20 167.04 L 82.85 160.49 L 86.50 163.39 L 90.15 162.10 L 93.80 165.77 L 97.45 161.45 L 101.10 156.87 L 104.75 157.52 L 108.40 161.93 L 112.05 164.04 L 115.70 165.53 L 119.35 165.20 L 123.00 163.37 L 126.65 162.27 L 130.30 160.40 L 133.95 157.26 L 137.60 160.80 L 141.25 159.23 L 144.90 159.79 L 148.55 160.88 L 152.20 166.65 L 155.85 170.97 L 159.50 163.94 L 163.15 168.18 L 166.80 159.47 L 170.45 162.22 L 174.10 168.90 L 177.75 172.64 L 181.40 168.14 L 185.05 167.44 L 188.70 165.50 L 192.35 166.59 L 196.00 166.78 L 199.65 166.49 L 203.30 170.57 L 206.95 173.92 L 210.60 183.72 L 214.25 189.90 L 217.90 188.24 L 221.55 191.31 L 225.20 192.54 L 228.85 190.84 L 232.50 187.33 L 236.15 181.12 L 239.80 190.21 L 243.45 186.34 L 247.10 184.05 L 250.75 191.85 L 254.40 186.01 L 258.05 182.22 L 261.70 179.81 L 265.35 181.72 L 269.00 178.87 L 272.65 176.59 L 276.30 171.34 L 279.95 175.00 L 283.60 175.54 L 287.25 175.52 L 290.90 175.25 L 294.55 178.30 L 298.20 174.43 L 301.85 178.30 L 305.50 175.57 L 309.15 173.84 L 312.80 168.63 L 316.45 167.47 L 320.10 164.14 L 323.75 169.06 L 327.40 167.41 L 331.05 162.87 L 334.70 165.52 L 338.35 157.85 L 342.00 155.57 L 345.65 158.31 L 349.30 160.42 L 352.95 154.46 L 356.60 153.90 L 360.25 149.37 L 363.90 141.80 L 367.55 141.03 L 371.20 143.76 L 374.85 142.13 L 378.50 140.88 L 382.15 139.65 L 385.80 136.28 L 389.45 133.03 L 393.10 136.39 L 396.75 145.25 L 400.40 149.91 L 404.05 144.35 L 407.70 155.29 L 411.35 150.67 L 415.00 145.09 L 418.65 145.76 L 422.30 136.83 L 425.95 134.44 L 429.60 132.36 L 433.25 140.43 L 436.90 139.27 L 440.55 148.05 L 444.20 156.10 L 447.85 159.44 L 451.50 155.51 L 455.15 158.98 L 458.80 159.18 L 462.45 155.65 L 466.10 161.44 L 469.75 158.26 L 473.40 157.64 L 477.05 160.74 L 480.70 158.74 L 484.35 156.58 L 488.00 152.71 L 491.65 146.50 L 495.30 146.51 L 498.95 147.84 L 502.60 152.69 L 506.25 151.69 L 509.90 156.28 L 513.55 151.45 L 517.20 155.82 L 520.85 154.54 L 524.50 152.74 L 528.15 145.93 L 531.80 138.07 L 535.45 143.81 L 539.10 135.44 L 542.75 135.59 L 546.40 135.10 L 550.05 139.76 L 553.70 142.02 L 557.35 141.06 L 561.00 139.32 L 564.65 144.15 L 568.30 144.74 L 571.95 138.95 L 575.60 141.32 L 579.25 134.61 L 582.90 133.43 L 586.55 144.49 L 590.20 138.61 L 593.85 133.00 L 597.50 132.44 L 601.15 137.38 L 604.80 135.88 L 608.45 131.69 L 612.10 129.57 L 615.75 126.77 L 619.40 122.86 L 623.05 126.50 L 626.70 128.66 L 630.35 128.92 L 634.00 122.39 L 637.65 114.93 L 641.30 114.76 L 644.95 115.83 L 648.60 117.88 L 652.25 111.62 L 655.90 104.72 L 659.55 109.63 L 663.20 112.74 L 666.85 111.26 L 670.50 107.36 L 674.15 104.36 L 677.80 108.32 L 681.45 103.12 L 685.10 108.15 L 688.75 107.95 L 692.40 105.99 L 696.05 100.86 L 699.70 96.33 L 703.35 93.68 L 707.00 93.47 L 710.65 92.32 L 714.30 83.08 L 717.95 78.75 L 721.60 76.41 L 725.25 74.59 L 728.90 79.13 L 732.55 74.10 L 736.20 79.59 L 739.85 79.36 L 743.50 83.12 L 747.15 79.47 L 750.80 75.11 L 754.45 75.35 L 758.10 71.92 L 761.75 67.98 L 765.40 65.38 L 769.05 69.46 L 772.70 73.88 L 776.35 79.23 L 780.00 86.43" class="path-2" />
<path d="M 50.00 161.69 L 53.65 165.94 L 57.30 168.16 L 60.95 164.45 L 64.60 164.17 L 68.25 161.80 L 71.90 167.10 L 75.55 168.85 L 79.20 175.94 L 82.85 169.51 L 86.50 162.69 L 90.15 166.71 L 93.80 170.04 L 97.45 173.97 L 101.10 174.75 L 104.75 173.14 L 108.40 180.01 L 112.05 176.28 L 115.70 183.10 L 119.35 181.22 L 123.00 192.77 L 126.65 192.74 L 130.30 186.55 L 133.95 185.67 L 137.60 187.82 L 141.25 183.34 L 144.90 177.58 L 148.55 178.10 L 152.20 183.95 L 155.85 185.02 L 159.50 179.76 L 163.15 184.28 L 166.80 190.13 L 170.45 192.98 L 174.10 187.84 L 177.75 181.44 L 181.40 188.21 L 185.05 185.47 L 188.70 194.20 L 192.35 196.10 L 196.00 196.12 L 199.65 191.62 L 203.30 192.70 L 206.95 195.46 L 210.60 193.38 L 214.25 195.03 L 217.90 199.10 L 221.55 194.55 L 225.20 193.66 L 228.85 193.77 L 232.50 192.46 L 236.15 187.64 L 239.80 189.30 L 243.45 195.09 L 247.10 193.01 L 250.75 191.79 L 254.40 185.17 L 258.05 182.78 L 261.70 181.96 L 265.35 178.20 L 269.00 174.74 L 272.65 171.81 L 276.30 178.46 L 279.95 185.70 L 283.60 171.85 L 287.25 170.51 L 290.90 174.71 L 294.55 170.48 L 298.20 162.11 L 301.85 158.76 L 305.50 160.27 L 309.15 157.32 L 312.80 158.20 L 316.45 148.52 L 320.10 148.97 L 323.75 153.08 L 327.40 154.87 L 331.05 159.36 L 334.70 156.48 L 338.35 155.36 L 342.00 155.26 L 345.65 148.94 L 349.30 158.85 L 352.95 158.77 L 356.60 161.43 L 360.25 174.93 L 363.90 178.57 L 367.55 178.35 L 371.20 171.81 L 374.85 170.22 L 378.50 168.04 L 382.15 174.90 L 385.80 180.58 L 389.45 187.42 L 393.10 185.47 L 396.75 187.92 L 400.40 178.04 L 404.05 182.92 L 407.70 184.47 L 411.35 184.67 L 415.00 183.58 L 418.65 189.16 L 422.30 197.37 L 425.95 194.48 L 429.60 192.44 L 433.25 188.93 L 436.90 190.75 L 440.55 194.58 L 444.20 192.40 L 447.85 198.89 L 451.50 199.16 L 455.15 190.77 L 458.80 194.75 L 462.45 197.18 L 466.10 191.13 L 469.75 180.90 L 473.40 185.73 L 477.05 190.44 L 480.70 187.71 L 484.35 189.99 L 488.00 187.48 L 491.65 198.12 L 495.30 191.71 L 498.95 201.64 L 502.60 205.14 L 506.25 211.66 L 509.90 203.54 L 513.55 211.15 L 517.20 207.28 L 520.85 205.01 L 524.50 207.89 L 528.15 205.32 L 531.80 208.70 L 535.45 210.66 L 539.10 208.50 L 542.75 203.13 L 546.40 198.21 L 550.05 194.85 L 553.70 192.55 L 557.35 192.83 L 561.00 194.35 L 564.65 191.75 L 568.30 189.35 L 571.95 186.47 L 575.60 185.87 L 579.25 190.99 L 582.90 189.59 L 586.55 190.17 L 590.20 189.28 L 593.85 181.00 L 597.50 192.20 L 601.15 196.55 L 604.80 194.50 L 608.45 197.20 L 612.10 204.74 L 615.75 204.44 L 619.40 203.86 L 623.05 196.36 L 626.70 193.84 L 630.35 197.48 L 634.00 203.09 L 637.65 205.90 L 641.30 199.66 L 644.95 203.04 L 648.60 201.31 L 652.25 204.16 L 655.90 199.25 L 659.55 202.20 L 663.20 195.62 L 666.85 192.51 L 670.50 194.24 L 674.15 189.45 L 677.80 186.64 L 681.45 189.09 L 685.10 191.10 L 688.75 197.18 L 692.40 192.44 L 696.05 189.54 L 699.70 191.25 L 703.35 193.31 L 707.00 189.47 L 710.65 192.39 L 714.30 192.15 L 717.95 191.50 L 721.60 186.38 L 725.25 193.35 L 728.90 195.59 L 732.55 194.13 L 736.20 195.72 L 739.85 199.49 L 743.50 197.03 L 747.15 196.78 L 750.80 201.49 L 754.45 205.95 L 758.10 204.07 L 761.75 201.37 L 765.40 195.02 L 769.05 189.34 L 772.70 189.64 L 776.35 179.72 L 780.00 179.23" class="path-3" />
<path d="M 50.00 161.69 L 53.65 160.64 L 57.30 164.86 L 60.95 160.72 L 64.60 162.17 L 68.25 161.91 L 71.90 160.05 L 75.55 159.47 L 79.20 164.00 L 82.85 165.47 L 86.50 166.63 L 90.15 163.85 L 93.80 164.26 L 97.45 164.00 L 101.10 164.47 L 104.75 172.75 L 108.40 171.07 L 112.05 169.26 L 115.70 168.29 L 119.35 176.33 L 123.00 176.90 L 126.65 164.08 L 130.30 162.71 L 133.95 163.66 L 137.60 165.19 L 141.25 166.29 L 144.90 160.51 L 148.55 162.48 L 152.20 166.14 L 155.85 168.40 L 159.50 171.07 L 163.15 169.07 L 166.80 171.42 L 170.45 169.75 L 174.10 171.43 L 177.75 175.90 L 181.40 165.73 L 185.05 161.83 L 188.70 159.84 L 192.35 159.82 L 196.00 163.03 L 199.65 165.70 L 203.30 154.26 L 206.95 148.93 L 210.60 142.09 L 214.25 142.08 L 217.90 131.64 L 221.55 126.63 L 225.20 132.46 L 228.85 133.39 L 232.50 124.80 L 236.15 121.92 L 239.80 122.19 L 243.45 131.05 L 247.10 126.80 L 250.75 129.16 L 254.40 128.73 L 258.05 129.80 L 261.70 134.68 L 265.35 137.22 L 269.00 142.69 L 272.65 143.33 L 276.30 144.12 L 279.95 146.91 L 283.60 145.34 L 287.25 142.17 L 290.90 147.08 L 294.55 149.55 L 298.20 145.33 L 301.85 142.22 L 305.50 141.78 L 309.15 143.37 L 312.80 147.34 L 316.45 148.38 L 320.10 147.57 L 323.75 143.11 L 327.40 142.67 L 331.05 148.82 L 334.70 147.30 L 338.35 151.32 L 342.00 148.43 L 345.65 146.71 L 349.30 157.38 L 352.95 162.44 L 356.60 163.44 L 360.25 163.96 L 363.90 161.87 L 367.55 151.92 L 371.20 156.81 L 374.85 161.22 L 378.50 160.07 L 382.15 163.45 L 385.80 165.86 L 389.45 171.03 L 393.10 168.13 L 396.75 164.55 L 400.40 169.60 L 404.05 168.26 L 407.70 172.77 L 411.35 172.53 L 415.00 171.52 L 418.65 172.97 L 422.30 178.35 L 425.95 174.24 L 429.60 170.53 L 433.25 170.70 L 436.90 165.57 L 440.55 167.99 L 444.20 169.25 L 447.85 173.57 L 451.50 167.25 L 455.15 162.53 L 458.80 159.19 L 462.45 163.74 L 466.10 167.33 L 469.75 158.92 L 473.40 153.85 L 477.05 148.80 L 480.70 146.47 L 484.35 148.08 L 488.00 146.44 L 491.65 146.32 L 495.30 142.35 L 498.95 144.78 L 502.60 138.12 L 506.25 133.24 L 509.90 143.85 L 513.55 144.83 L 517.20 147.98 L 520.85 145.81 L 524.50 142.08 L 528.15 133.65 L 531.80 135.02 L 535.45 135.82 L 539.10 133.35 L 542.75 133.90 L 546.40 131.62 L 550.05 128.82 L 553.70 133.39 L 557.35 137.48 L 561.00 131.39 L 564.65 127.98 L 568.30 129.69 L 571.95 135.90 L 575.60 141.24 L 579.25 133.24 L 582.90 127.61 L 586.55 120.74 L 590.20 123.68 L 593.85 120.94 L 597.50 118.68 L 601.15 115.51 L 604.80 117.34 L 608.45 115.22 L 612.10 114.95 L 615.75 118.12 L 619.40 113.26 L 623.05 118.66 L 626.70 123.07 L 630.35 123.36 L 634.00 127.39 L 637.65 122.04 L 641.30 116.74 L 644.95 100.82 L 648.60 103.93 L 652.25 108.10 L 655.90 119.71 L 659.55 118.50 L 663.20 113.05 L 666.85 101.40 L 670.50 105.41 L 674.15 110.52 L 677.80 113.45 L 681.45 112.33 L 685.10 109.82 L 688.75 103.57 L 692.40 104.20 L 696.05 104.18 L 699.70 107.63 L 703.35 106.88 L 707.00 110.08 L 710.65 112.51 L 714.30 111.39 L 717.95 111.95 L 721.60 113.11 L 725.25 114.31 L 728.90 104.56 L 732.55 104.33 L 736.20 107.03 L 739.85 101.58 L 743.50 100.62 L 747.15 96.42 L 750.80 100.73 L 754.45 103.44 L 758.10 103.54 L 761.75 97.61 L 765.40 97.65 L 769.05 96.14 L 772.70 101.17 L 776.35 99.93 L 780.00 96.87" class="path-4" />
<line x1="50" y1="161.7" x2="780" y2="161.7" stroke="#4b5563" stroke-width="0.8" stroke-dasharray="6 3" />
</svg>