<svg xmlns="http://www.w3.org/2000/svg" viewBox="0 0 800 300" width="800" height="300">
<style>
.axis-line { stroke: #6b7280; stroke-width: 0.5; }
.axis-text { font-family: monospace; font-size: 11px; fill: #9ca3af; }
.title-text { font-family: monospace; font-size: 14px; fill: #d1d5db; font-weight: bold; }
.grid-line { stroke: #374151; stroke-width: 0.3; stroke-dasharray: 4 2; }
.path-0 { fill: none; stroke: #3b82f6; stroke-width: 2; stroke-linecap: round; opacity: 0.85; animation: draw-0 8s ease-in-out 0.0s infinite; stroke-dasharray: 1098; stroke-dashoffset: 1098;}
@keyframes draw-0 { 0% { stroke-dashoffset: 1098; } 38% { stroke-dashoffset: 0; } 62% { stroke-dashoffset: 0; } 100% { stroke-dashoffset: 1098; }}
.path-1 { fill: none; stroke: #ef4444; stroke-width: 2; stroke-linecap: round; opacity: 0.85; animation: draw-1 8s ease-in-out 0.4s infinite; stroke-dasharray: 1130; stroke-dashoffset: 1130;}
@keyframes draw-1 { 0% { stroke-dashoffset: 1130; } 38% { stroke-dashoffset: 0; } 62% { stroke-dashoffset: 0; } 100% { stroke-dashoffset: 1130; }}
.path-2 { fill: none; stroke: #22c55e; stroke-width: 2; stroke-linecap: round; opacity: 0.85; animation: draw-2 8s ease-in-out 0.8s infinite; stroke-dasharray: 1104; stroke-dashoffset: 1104;}
@keyframes draw-2 { 0% { stroke-dashoffset: 1104; } 38% { stroke-dashoffset: 0; } 62% { stroke-dashoffset: 0; } 100% { stroke-dashoffset: 1104; }}
.path-3 { fill: none; stroke: #f59e0b; stroke-width: 2; stroke-linecap: round; opacity: 0.85; animation: draw-3 8s ease-in-out 1.2000000000000002s infinite; stroke-dasharray: 1165; stroke-dashoffset: 1165;}
@keyframes draw-3 { 0% { stroke-dashoffset: 1165; } 38% { stroke-dashoffset: 0; } 62% { stroke-dashoffset: 0; } 100% { stroke-dashoffset: 1165; }}
.path-4 { fill: none; stroke: #a855f7; stroke-width: 2; stroke-linecap: round; opacity: 0.85; animation: draw-4 8s ease-in-out 1.6s infinite; stroke-dasharray: 1129; stroke-dashoffset: 1129;}
@keyframes draw-4 { 0% { stroke-dashoffset: 1129; } 38% { stroke-dashoffset: 0; } 62% { stroke-dashoffset: 0; } 100% { stroke-dashoffset: 1129; }}
</style>
<rect width="800" height="300" rx="8" fill="#0d1117" />
<line x1="50" y1="260.0" x2="780" y2="260.0" class="grid-line" />
<text x="44" y="264.0" text-anchor="end" class="axis-text">-2.1</text>
<line x1="50" y1="216.0" x2="780" y2="216.0" class="grid-line" />
<text x="44" y="220.0" text-anchor="end" class="axis-text">-1.5</text>
<line x1="50" y1="172.0" x2="780" y2="172.0" class="grid-line" />
<text x="44" y="176.0" text-anchor="end" class="axis-text">-0.8</text>
<line x1="50" y1="128.0" x2="780" y2="128.0" class="grid-line" />
<text x="44" y="132.0" text-anchor="end" class="axis-text">-0.2</text>
<line x1="50" y1="84.0" x2="780" y2="84.0" class="grid-line" />
<text x="44" y="88.0" text-anchor="end" class="axis-text">0.5</text>
<line x1="50" y1="40.0" x2="780" y2="40.0" class="grid-line" />
<text x="44" y="44.0" text-anchor="end" class="axis-text">1.1</text>
<line x1="50.0" y1="40" x2="50.0" y2="260" class="grid-line" />
<line x1="196.0" y1="40" x2="196.0" y2="260" class="grid-line" />
<line x1="342.0" y1="40" x2="342.0" y2="260" class="grid-line" />
<line x1="488.0" y1="40" x2="488.0" y2="260" class="grid-line" />
<line x1="634.0" y1="40" x2="634.0" y2="260" class="grid-line" />
<line x1="780.0" y1="40" x2="780.0" y2="260" class="grid-line" />
<line x1="50" y1="260" x2="780" y2="260" class="axis-line" />
<line x1="50" y1="40" x2="50" y2="260" class="axis-line" />
<text x="400.0" y="295" text-anchor="middle" class="axis-text">t</text>
<text x="12" y="150.0" text-anchor="middle" class="axis-text" transform="rotate(-90 12 150.0)">W(t)</text>
<text x="400.0" y="22" text-anchor="middle" class="title-text">Brownian Motion</text>
<path d="M 50.00 115.37 L 53.65 110.00 L 57.30 109.05 L 60.95 111.50 L 64.60 118.78 L 68.25 119.27 L 71.90 131.69 L 75.55 134.38 L 79.20 144.98 L 82.85 147.33 L 86.50 148.39 L 90.15 150.60 L 93.80 150.47 L 97.45 145.41 L 101.10 136.03 L 104.75 132.73 L 108.40 127.23 L 112.05 128.03 L 115.70 132.28 L 119.35 135.35 L 123.00 133.03 L 126.65 141.14 L 130.30 139.56 L 133.95 146.81 L 137.60 143.16 L 141.25 138.25 L 144.90 137.88 L 148.55 142.21 L 152.20 140.40 L 155.85 146.57 L 159.50 150.28 L 163.15 150.13 L 166.80 153.22 L 170.45 151.53 L 174.10 155.63 L 177.75 153.72 L 181.40 149.81 L 185.05 146.02 L 188.70 142.52 L 192.35 141.58 L 196.00 140.34 L 199.65 144.56 L 203.30 145.94 L 206.95 146.25 L 210.60 151.67 L 214.25 161.34 L 217.90 157.81 L 221.55 157.96 L 225.20 165.37 L 228.85 171.26 L 232.50 165.26 L 236.15 165.32 L 239.80 170.36 L 243.45 167.29 L 247.10 169.10 L 250.75 171.33 L 254.40 171.37 L 258.05 168.59 L 261.70 170.11 L 265.35 167.06 L 269.00 163.84 L 272.65 162.08 L 276.30 163.80 L 279.95 173.52 L 283.60 173.95 L 287.25 171.95 L 290.90 170.07 L 294.55 166.99 L 298.20 167.28 L 301.85 171.55 L 305.50 167.23 L 309.15 162.26 L 312.80 164.86 L 316.45 159.16 L 320.10 160.37 L 323.75 164.04 L 327.40 162.41 L 331.05 163.96 L 334.70 161.76 L 338.35 164.79 L 342.00 171.75 L 345.65 173.82 L 349.30 175.11 L 352.95 176.42 L 356.60 170.04 L 360.25 169.84 L 363.90 169.45 L 367.55 165.95 L 371.20 173.03 L 374.85 173.21 L 378.50 174.26 L 382.15 179.77 L 385.80 178.92 L 389.45 185.60 L 393.10 191.03 L 396.75 188.00 L 400.40 191.55 L 404.05 192.19 L 407.70 192.52 L 411.35 200.18 L 415.00 194.82 L 418.65 204.63 L 422.30 198.71 L 425.95 204.92 L 429.60 201.01 L 433.25 209.27 L 436.90 209.87 L 440.55 210.43 L 444.20 208.77 L 447.85 208.86 L 451.50 213.71 L 455.15 217.17 L 458.80 224.68 L 462.45 221.42 L 466.10 223.74 L 469.75 226.99 L 473.40 223.96 L 477.05 223.70 L 480.70 222.57 L 484.35 214.33 L 488.00 213.08 L 491.65 214.83 L 495.30 213.04 L 498.95 211.31 L 502.60 204.08 L 506.25 207.61 L 509.90 201.04 L 513.55 200.27 L 517.20 202.92 L 520.85 207.48 L 524.50 209.10 L 528.15 212.85 L 531.80 214.62 L 535.45 220.62 L 539.10 220.17 L 542.75 216.39 L 546.40 215.40 L 550.05 221.14 L 553.70 214.44 L 557.35 224.19 L 561.00 227.86 L 564.65 223.75 L 568.30 226.66 L 571.95 218.93 L 575.60 217.81 L 579.25 212.77 L 582.90 218.05 L 586.55 217.99 L 590.20 219.58 L 593.85 223.26 L 597.50 223.46 L 601.15 224.05 L 604.80 222.92 L 608.45 227.91 L 612.10 222.23 L 615.75 220.95 L 619.40 218.96 L 623.05 222.75 L 626.70 219.61 L 630.35 211.16 L 634.00 220.14 L 637.65 214.17 L 641.30 212.58 L 644.95 213.22 L 648.60 213.07 L 652.25 205.32 L 655.90 203.26 L 659.55 198.64 L 663.20 200.19 L 666.85 199.28 L 670.50 195.45 L 674.15 191.69 L 677.80 191.99 L 681.45 188.06 L 685.10 187.93 L 688.75 183.46 L 692.40 183.51 L 696.05 181.52 L 699.70 178.67 L 703.35 173.80 L 707.00 170.67 L 710.65 170.71 L 714.30 166.25 L 717.95 164.34 L 721.60 161.37 L 725.25 163.35 L 728.90 159.05 L 732.55 164.65 L 736.20 161.11 L 739.85 166.06 L 743.50 170.78 L 747.15 177.53 L 750.80 186.54 L 754.45 181.19 L 758.10 186.93 L 761.75 202.10 L 765.40 202.54 L 769.05 208.73 L 772.70 205.63 L 776.35 206.12 L 780.00 216.25" class="path-0" />
<path d="M 50.00 115.37 L 53.65 116.16 L 57.30 112.81 L 60.95 118.04 L 64.60 118.27 L 68.25 122.17 L 71.90 122.04 L 75.55 120.29 L 79.20 132.87 L 82.85 132.18 L 86.50 138.56 L 90.15 136.70 L 93.80 139.70 L 97.45 137.61 L 101.10 141.59 L 104.75 151.02 L 108.40 159.09 L 112.05 162.83 L 115.70 161.31 L 119.35 158.04 L 123.00 157.02 L 126.65 159.77 L 130.30 157.34 L 133.95 156.15 L 137.60 154.23 L 141.25 159.58 L 144.90 156.68 L 148.55 149.39 L 152.20 148.82 L 155.85 145.59 L 159.50 147.45 L 163.15 145.80 L 166.80 151.74 L 170.45 151.40 L 174.10 160.50 L 177.75 165.04 L 181.40 163.86 L 185.05 164.83 L 188.70 156.98 L 192.35 161.44 L 196.00 165.98 L 199.65 169.83 L 203.30 165.55 L 206.95 156.31 L 210.60 159.81 L 214.25 158.32 L 217.90 154.96 L 221.55 151.23 L 225.20 161.32 L 228.85 156.77 L 232.50 152.23 L 236.15 150.91 L 239.80 152.32 L 243.45 154.70 L 247.10 156.97 L 250.75 153.13 L 254.40 153.69 L 258.05 147.57 L 261.70 156.09 L 265.35 159.73 L 269.00 161.42 L 272.65 160.78 L 276.30 165.22 L 279.95 163.26 L 283.60 161.95 L 287.25 164.32 L 290.90 165.23 L 294.55 170.35 L 298.20 169.48 L 301.85 164.77 L 305.50 157.51 L 309.15 169.17 L 312.80 168.04 L 316.45 175.86 L 320.10 173.20 L 323.75 169.75 L 327.40 174.02 L 331.05 174.30 L 334.70 175.34 L 338.35 182.54 L 342.00 188.10 L 345.65 195.37 L 349.30 196.31 L 352.95 199.66 L 356.60 196.02 L 360.25 186.14 L 363.90 181.48 L 367.55 185.52 L 371.20 189.30 L 374.85 189.44 L 378.50 188.44 L 382.15 185.95 L 385.80 177.85 L 389.45 177.79 L 393.10 177.09 L 396.75 177.89 L 400.40 176.68 L 404.05 179.81 L 407.70 179.03 L 411.35 180.93 L 415.00 179.50 L 418.65 179.89 L 422.30 184.18 L 425.95 177.37 L 429.60 173.83 L 433.25 176.06 L 436.90 173.28 L 440.55 175.78 L 444.20 180.36 L 447.85 174.77 L 451.50 171.43 L 455.15 172.05 L 458.80 176.20 L 462.45 186.12 L 466.10 195.11 L 469.75 200.83 L 473.40 201.23 L 477.05 201.34 L 480.70 204.82 L 484.35 201.58 L 488.00 190.13 L 491.65 188.08 L 495.30 187.10 L 498.95 182.59 L 502.60 178.16 L 506.25 177.06 L 509.90 177.90 L 513.55 182.78 L 517.20 189.07 L 520.85 191.60 L 524.50 187.96 L 528.15 195.82 L 531.80 193.02 L 535.45 197.42 L 539.10 203.69 L 542.75 205.08 L 546.40 209.78 L 550.05 220.57 L 553.70 217.76 L 557.35 216.99 L 561.00 213.90 L 564.65 214.82 L 568.30 217.20 L 571.95 213.44 L 575.60 222.35 L 579.25 226.85 L 582.90 230.81 L 586.55 231.68 L 590.20 228.51 L 593.85 222.02 L 597.50 222.78 L 601.15 218.14 L 604.80 218.26 L 608.45 219.55 L 612.10 228.89 L 615.75 219.72 L 619.40 221.13 L 623.05 218.83 L 626.70 214.71 L 630.35 208.10 L 634.00 215.33 L 637.65 215.62 L 641.30 212.43 L 644.95 217.67 L 648.60 221.36 L 652.25 218.98 L 655.90 208.28 L 659.55 207.79 L 663.20 202.10 L 666.85 196.97 L 670.50 196.83 L 674.15 204.86 L 677.80 205.83 L 681.45 206.30 L 685.10 207.35 L 688.75 201.92 L 692.40 202.49 L 696.05 206.95 L 699.70 213.57 L 703.35 214.63 L 707.00 214.86 L 710.65 209.75 L 714.30 213.83 L 717.95 220.26 L 721.60 221.16 L 725.25 214.86 L 728.90 210.26 L 732.55 204.33 L 736.20 210.69 L 739.85 216.79 L 743.50 215.77 L 747.15 218.10 L 750.80 214.76 L 754.45 216.21 L 758.10 206.26 L 761.75 209.27 L 765.40 216.96 L 769.05 220.41 L 772.70 220.51 L 776.35 216.08 L 780.00 207.17" class="path-1" />
<path d="M 50.00 115.37 L 53.65 105.24 L 57.30 100.15 L 60.95 97.48 L 64.60 95.40 L 68.25 90.61 L 71.90 88.86 L 75.55 90.38 L 79.20 89.66 L 82.85 92.20 L 86.50 92.74 L 90.15 91.55 L 93.80 92.35 L 97.45 93.76 L 101.10 96.07 L 104.75 97.67 L 108.40 109.95 L 112.05 107.42 L 115.70 120.63 L 119.35 122.22 L 123.00 128.94 L 126.65 128.98 L 130.30 121.11 L 133.95 116.25 L 137.60 121.82 L 141.25 119.19 L 144.90 125.90 L 148.55 123.08 L 152.20 123.38 L 155.85 121.75 L 159.50 114.84 L 163.15 111.74 L 166.80 112.29 L 170.45 117.97 L 174.10 121.56 L 177.75 117.98 L 181.40 116.81 L 185.05 113.43 L 188.70 118.78 L 192.35 121.93 L 196.00 126.20 L 199.65 131.23 L 203.30 135.48 L 206.95 134.56 L 210.60 134.80 L 214.25 141.99 L 217.90 138.62 L 221.55 144.31 L 225.20 152.89 L 228.85 155.73 L 232.50 158.93 L 236.15 155.35 L 239.80 154.79 L 243.45 158.02 L 247.10 161.24 L 250.75 161.16 L 254.40 156.45 L 258.05 155.15 L 261.70 152.67 L 265.35 158.25 L 269.00 157.30 L 272.65 160.32 L 276.30 156.89 L 279.95 157.71 L 283.60 151.71 L 287.25 156.82 L 290.90 159.01 L 294.55 155.35 L 298.20 161.08 L 301.85 161.62 L 305.50 162.75 L 309.15 170.38 L 312.80 175.54 L 316.45 173.53 L 320.10 168.02 L 323.75 172.49 L 327.40 172.58 L 331.05 168.70 L 334.70 173.23 L 338.35 173.95 L 342.00 176.32 L 345.65 169.72 L 349.30 168.68 L 352.95 168.39 L 356.60 180.70 L 360.25 184.60 L 363.90 179.36 L 367.55 179.87 L 371.20 184.13 L 374.85 180.87 L 378.50 174.76 L 382.15 181.09 L 385.80 185.64 L 389.45 192.67 L 393.10 191.22 L 396.75 189.52 L 400.40 185.62 L 404.05 178.38 L 407.70 181.89 L 411.35 180.36 L 415.00 186.06 L 418.65 184.08 L 422.30 177.87 L 425.95 178.01 L 429.60 179.56 L 433.25 175.15 L 436.90 175.97 L 440.55 179.26 L 444.20 185.59 L 447.85 183.47 L 451.50 178.26 L 455.15 172.81 L 458.80 170.71 L 462.45 163.60 L 466.10 173.93 L 469.75 174.75 L 473.40 177.41 L 477.05 182.03 L 480.70 182.53 L 484.35 186.36 L 488.00 188.37 L 491.65 179.43 L 495.30 172.44 L 498.95 177.62 L 502.60 175.56 L 506.25 182.28 L 509.90 180.06 L 513.55 183.92 L 517.20 190.06 L 520.85 187.04 L 524.50 185.59 L 528.15 183.60 L 531.80 184.98 L 535.45 180.92 L 539.10 182.71 L 542.75 186.82 L 546.40 193.00 L 550.05 191.91 L 553.70 190.19 L 557.35 187.45 L 561.00 187.27 L 564.65 178.21 L 568.30 186.66 L 571.95 186.13 L 575.60 180.65 L 579.25 183.59 L 582.90 177.10 L 586.55 172.57 L 590.20 171.90 L 593.85 171.70 L 597.50 172.58 L 601.15 170.34 L 604.80 164.94 L 608.45 156.87 L 612.10 157.63 L 615.75 155.71 L 619.40 155.70 L 623.05 154.33 L 626.70 161.05 L 630.35 158.53 L 634.00 160.55 L 637.65 162.35 L 641.30 171.48 L 644.95 167.40 L 648.60 175.82 L 652.25 177.22 L 655.90 169.65 L 659.55 165.38 L 663.20 162.33 L 666.85 160.93 L 670.50 160.30 L 674.15 162.97 L 677.80 162.93 L 681.45 159.68 L 685.10 161.49 L 688.75 162.79 L 692.40 168.22 L 696.05 166.71 L 699.70 174.70 L 703.35 178.95 L 707.00 173.06 L 710.65 174.02 L 714.30 179.15 L 717.95 181.34 L 721.60 179.31 L 725.25 174.99 L 728.90 178.31 L 732.55 181.93 L 736.20 185.22 L 739.85 184.84 L 743.50 183.48 L 747.15 186.79 L 750.80 184.09 L 754.45 178.20 L 758.10 175.92 L 761.75 177.79 L 765.40 166.53 L 769.05 166.96 L 772.70 164.35 L 776.35 168.35 L 780.00 159.47" class="path-2" />
<path d="M 50.00 115.37 L 53.65 109.66 L 57.30 103.04 L 60.95 106.21 L 64.60 108.07 L 68.25 120.15 L 71.90 119.00 L 75.55 129.44 L 79.20 127.03 L 82.85 129.32 L 86.50 132.01 L 90.15 130.19 L 93.80 123.85 L 97.45 119.35 L 101.10 125.82 L 104.75 124.24 L 108.40 134.42 L 112.05 131.89 L 115.70 126.91 L 119.35 126.37 L 123.00 130.38 L 126.65 130.35 L 130.30 131.53 L 133.95 138.27 L 137.60 136.12 L 141.25 140.86 L 144.90 144.78 L 148.55 136.95 L 152.20 141.06 L 155.85 141.84 L 159.50 145.27 L 163.15 133.00 L 166.80 136.05 L 170.45 145.45 L 174.10 147.31 L 177.75 153.01 L 181.40 154.26 L 185.05 144.13 L 188.70 144.93 L 192.35 143.45 L 196.00 142.11 L 199.65 137.43 L 203.30 140.98 L 206.95 138.41 L 210.60 130.57 L 214.25 134.73 L 217.90 127.85 L 221.55 118.95 L 225.20 121.39 L 228.85 109.95 L 232.50 103.40 L 236.15 106.36 L 239.80 121.79 L 243.45 118.22 L 247.10 117.89 L 250.75 121.59 L 254.40 119.04 L 258.05 116.64 L 261.70 122.00 L 265.35 126.81 L 269.00 125.57 L 272.65 135.30 L 276.30 134.49 L 279.95 138.47 L 283.60 141.70 L 287.25 142.88 L 290.90 139.02 L 294.55 136.11 L 298.20 133.14 L 301.85 134.95 L 305.50 136.46 L 309.15 142.68 L 312.80 145.33 L 316.45 150.69 L 320.10 154.68 L 323.75 157.88 L 327.40 161.50 L 331.05 167.71 L 334.70 169.94 L 338.35 183.66 L 342.00 177.24 L 345.65 178.71 L 349.30 172.05 L 352.95 167.76 L 356.60 171.90 L 360.25 180.16 L 363.90 183.32 L 367.55 186.15 L 371.20 181.29 L 374.85 179.66 L 378.50 177.75 L 382.15 183.78 L 385.80 178.88 L 389.45 177.38 L 393.10 171.29 L 396.75 175.18 L 400.40 181.07 L 404.05 184.71 L 407.70 186.59 L 411.35 188.32 L 415.00 199.85 L 418.65 196.83 L 422.30 196.63 L 425.95 203.01 L 429.60 202.23 L 433.25 203.03 L 436.90 201.04 L 440.55 199.67 L 444.20 200.35 L 447.85 203.08 L 451.50 206.74 L 455.15 199.86 L 458.80 202.21 L 462.45 191.46 L 466.10 193.37 L 469.75 196.70 L 473.40 194.30 L 477.05 203.84 L 480.70 200.19 L 484.35 198.06 L 488.00 201.56 L 491.65 199.16 L 495.30 198.46 L 498.95 188.27 L 502.60 183.99 L 506.25 185.64 L 509.90 188.39 L 513.55 194.86 L 517.20 189.45 L 520.85 191.64 L 524.50 190.39 L 528.15 195.21 L 531.80 201.26 L 535.45 195.25 L 539.10 194.32 L 542.75 193.95 L 546.40 188.96 L 550.05 194.05 L 553.70 195.39 L 557.35 193.52 L 561.00 190.56 L 564.65 185.62 L 568.30 185.75 L 571.95 183.46 L 575.60 187.46 L 579.25 186.05 L 582.90 187.44 L 586.55 183.90 L 590.20 180.14 L 593.85 184.26 L 597.50 184.73 L 601.15 186.61 L 604.80 178.76 L 608.45 181.89 L 612.10 183.34 L 615.75 180.72 L 619.40 182.90 L 623.05 182.07 L 626.70 179.14 L 630.35 187.60 L 634.00 188.70 L 637.65 191.58 L 641.30 187.68 L 644.95 180.28 L 648.60 182.89 L 652.25 181.61 L 655.90 196.06 L 659.55 196.62 L 663.20 196.60 L 666.85 193.44 L 670.50 191.07 L 674.15 190.90 L 677.80 194.80 L 681.45 202.77 L 685.10 205.20 L 688.75 210.23 L 692.40 207.67 L 696.05 201.07 L 699.70 201.60 L 703.35 209.92 L 707.00 207.43 L 710.65 215.55 L 714.30 224.16 L 717.95 227.94 L 721.60 231.79 L 725.25 234.62 L 728.90 231.94 L 732.55 233.75 L 736.20 228.61 L 739.85 222.80 L 743.50 228.18 L 747.15 225.50 L 750.80 229.66 L 754.45 225.53 L 758.10 224.54 L 761.75 225.55 L 765.40 218.19 L 769.05 223.29 L 772.70 219.19 L 776.35 212.06 L 780.00 205.09" class="path-3" />
<path d="M 50.00 115.37 L 53.65 116.22 L 57.30 113.06 L 60.95 117.63 L 64.60 111.02 L 68.25 114.43 L 71.90 112.87 L 75.55 113.36 L 79.20 115.86 L 82.85 119.08 L 86.50 114.94 L 90.15 114.28 L 93.80 120.02 L 97.45 125.39 L 101.10 127.49 L 104.75 131.57 L 108.40 130.30 L 112.05 142.53 L 115.70 142.26 L 119.35 141.40 L 123.00 137.45 L 126.65 125.89 L 130.30 123.24 L 133.95 129.13 L 137.60 122.48 L 141.25 124.04 L 144.90 129.92 L 148.55 122.26 L 152.20 127.12 L 155.85 131.36 L 159.50 136.49 L 163.15 141.15 L 166.80 136.86 L 170.45 135.75 L 174.10 136.23 L 177.75 141.61 L 181.40 141.20 L 185.05 140.99 L 188.70 138.58 L 192.35 136.03 L 196.00 134.15 L 199.65 145.69 L 203.30 144.68 L 206.95 145.85 L 210.60 143.23 L 214.25 148.94 L 217.90 152.59 L 221.55 142.11 L 225.20 140.84 L 228.85 146.94 L 232.50 145.68 L 236.15 142.07 L 239.80 138.02 L 243.45 131.52 L 247.10 140.88 L 250.75 139.08 L 254.40 135.55 L 258.05 134.17 L 261.70 130.43 L 265.35 131.56 L 269.00 140.78 L 272.65 138.69 L 276.30 148.95 L 279.95 148.40 L 283.60 156.25 L 287.25 161.40 L 290.90 160.57 L 294.55 157.32 L 298.20 154.51 L 301.85 154.24 L 305.50 148.00 L 309.15 148.68 L 312.80 149.38 L 316.45 144.29 L 320.10 142.90 L 323.75 138.72 L 327.40 141.77 L 331.05 138.56 L 334.70 136.10 L 338.35 137.21 L 342.00 136.69 L 345.65 136.91 L 349.30 143.06 L 352.95 144.22 L 356.60 146.33 L 360.25 145.29 L 363.90 144.34 L 367.55 145.67 L 371.20 150.27 L 374.85 144.46 L 378.50 144.93 L 382.15 146.14 L 385.80 140.81 L 389.45 137.88 L 393.10 138.28 L 396.75 139.34 L 400.40 136.25 L 404.05 135.56 L 407.70 136.48 L 411.35 136.92 L 415.00 128.67 L 418.65 125.74 L 422.30 118.13 L 425.95 121.56 L 429.60 112.23 L 433.25 110.59 L 436.90 104.64 L 440.55 108.40 L 444.20 112.79 L 447.85 107.78 L 451.50 107.00 L 455.15 114.84 L 458.80 120.15 L 462.45 118.29 L 466.10 117.04 L 469.75 120.66 L 473.40 112.75 L 477.05 117.23 L 480.70 112.88 L 484.35 110.80 L 488.00 106.77 L 491.65 101.57 L 495.30 103.08 L 498.95 107.08 L 502.60 113.75 L 506.25 110.37 L 509.90 108.61 L 513.55 107.25 L 517.20 107.89 L 520.85 102.20 L 524.50 92.53 L 528.15 93.48 L 531.80 92.30 L 535.45 85.52 L 539.10 85.71 L 542.75 82.64 L 546.40 72.24 L 550.05 80.62 L 553.70 76.90 L 557.35 73.46 L 561.00 67.23 L 564.65 69.84 L 568.30 65.38 L 571.95 68.21 L 575.60 71.63 L 579.25 75.41 L 582.90 66.61 L 586.55 72.67 L 590.20 77.53 L 593.85 81.96 L 597.50 79.93 L 601.15 88.32 L 604.80 89.76 L 608.45 89.29 L 612.10 86.12 L 615.75 95.65 L 619.40 105.56 L 623.05 102.51 L 626.70 96.36 L 630.35 89.56 L 634.00 91.45 L 637.65 86.47 L 641.30 88.66 L 644.95 90.15 L 648.60 96.31 L 652.25 96.18 L 655.90 94.97 L 659.55 98.07 L 663.20 103.46 L 666.85 92.99 L 670.50 93.71 L 674.15 90.64 L 677.80 91.44 L 681.45 87.09 L 685.10 86.18 L 688.75 82.53 L 692.40 84.97 L 696.05 90.50 L 699.70 91.80 L 703.35 94.42 L 707.00 93.32 L 710.65 94.99 L 714.30 95.93 L 717.95 98.52 L 721.60 101.18 L 725.25 95.46 L 728.90 104.24 L 732.55 110.04 L 736.20 112.89 L 739.85 117.48 L 743.50 111.67 L 747.15 109.72 L 750.80 115.05 L 754.45 105.89 L 758.10 110.18 L 761.75 110.66 L 765.40 115.18 L 769.05 124.88 L 772.70 118.47 L 776.35 117.04 L 780.00 118.87" class="path-4" />
<line x1="50" y1="115.4" x2="780" y2="115.4" stroke="#4b5563" stroke-width="0.8" stroke-dasharray="6 3" />
</svg>