<svg xmlns="http://www.w3.org/2000/svg" viewBox="0 0 800 300" width="800" height="300">
<style>
.axis-line { stroke: #6b7280; stroke-width: 0.5; }
.axis-text { font-family: monospace; font-size: 11px; fill: #9ca3af; }
.title-text { font-family: monospace; font-size: 14px; fill: #d1d5db; font-weight: bold; }
.grid-line { stroke: #374151; stroke-width: 0.3; stroke-dasharray: 4 2; }
.path-0 { fill: none; stroke: #3b82f6; stroke-width: 2; stroke-linecap: round; opacity: 0.85; animation: draw-0 8s ease-in-out 0.0s infinite; stroke-dasharray: 1008; stroke-dashoffset: 1008;}
@keyframes draw-0 { 0% { stroke-dashoffset: 1008; } 38% { stroke-dashoffset: 0; } 62% { stroke-dashoffset: 0; } 100% { stroke-dashoffset: 1008; }}
.path-1 { fill: none; stroke: #ef4444; stroke-width: 2; stroke-linecap: round; opacity: 0.85; animation: draw-1 8s ease-in-out 0.4s infinite; stroke-dasharray: 998; stroke-dashoffset: 998;}
@keyframes draw-1 { 0% { stroke-dashoffset: 998; } 38% { stroke-dashoffset: 0; } 62% { stroke-dashoffset: 0; } 100% { stroke-dashoffset: 998; }}
.path-2 { fill: none; stroke: #22c55e; stroke-width: 2; stroke-linecap: round; opacity: 0.85; animation: draw-2 8s ease-in-out 0.8s infinite; stroke-dasharray: 969; stroke-dashoffset: 969;}
@keyframes draw-2 { 0% { stroke-dashoffset: 969; } 38% { stroke-dashoffset: 0; } 62% { stroke-dashoffset: 0; } 100% { stroke-dashoffset: 969; }}
.path-3 { fill: none; stroke: #f59e0b; stroke-width: 2; stroke-linecap: round; opacity: 0.85; animation: draw-3 8s ease-in-out 1.2000000000000002s infinite; stroke-dasharray: 1030; stroke-dashoffset: 1030;}
@keyframes draw-3 { 0% { stroke-dashoffset: 1030; } 38% { stroke-dashoffset: 0; } 62% { stroke-dashoffset: 0; } 100% { stroke-dashoffset: 1030; }}
.path-4 { fill: none; stroke: #a855f7; stroke-width: 2; stroke-linecap: round; opacity: 0.85; animation: draw-4 8s ease-in-out 1.6s infinite; stroke-dasharray: 1021; stroke-dashoffset: 1021;}
@keyframes draw-4 { 0% { stroke-dashoffset: 1021; } 38% { stroke-dashoffset: 0; } 62% { stroke-dashoffset: 0; } 100% { stroke-dashoffset: 1021; }}
</style>
<rect width="800" height="300" rx="8" fill="#0d1117" />
<line x1="50" y1="260.0" x2="780" y2="260.0" class="grid-line" />
<text x="44" y="264.0" text-anchor="end" class="axis-text">-2.2</text>
<line x1="50" y1="216.0" x2="780" y2="216.0" class="grid-line" />
<text x="44" y="220.0" text-anchor="end" class="axis-text">-1.4</text>
<line x1="50" y1="172.0" x2="780" y2="172.0" class="grid-line" />
<text x="44" y="176.0" text-anchor="end" class="axis-text">-0.5</text>
<line x1="50" y1="128.0" x2="780" y2="128.0" class="grid-line" />
<text x="44" y="132.0" text-anchor="end" class="axis-text">0.3</text>
<line x1="50" y1="84.0" x2="780" y2="84.0" class="grid-line" />
<text x="44" y="88.0" text-anchor="end" class="axis-text">1.1</text>
<line x1="50" y1="40.0" x2="780" y2="40.0" class="grid-line" />
<text x="44" y="44.0" text-anchor="end" class="axis-text">2.0</text>
<line x1="50.0" y1="40" x2="50.0" y2="260" class="grid-line" />
<line x1="196.0" y1="40" x2="196.0" y2="260" class="grid-line" />
<line x1="342.0" y1="40" x2="342.0" y2="260" class="grid-line" />
<line x1="488.0" y1="40" x2="488.0" y2="260" class="grid-line" />
<line x1="634.0" y1="40" x2="634.0" y2="260" class="grid-line" />
<line x1="780.0" y1="40" x2="780.0" y2="260" class="grid-line" />
<line x1="50" y1="260" x2="780" y2="260" class="axis-line" />
<line x1="50" y1="40" x2="50" y2="260" class="axis-line" />
<text x="400.0" y="295" text-anchor="middle" class="axis-text">t</text>
<text x="12" y="150.0" text-anchor="middle" class="axis-text" transform="rotate(-90 12 150.0)">W(t)</text>
<text x="400.0" y="22" text-anchor="middle" class="title-text">Brownian Motion</text>
<path d="M 50.00 144.47 L 53.65 148.61 L 57.30 145.86 L 60.95 148.23 L 64.60 147.19 L 68.25 142.79 L 71.90 143.19 L 75.55 145.63 L 79.20 154.52 L 82.85 163.15 L 86.50 166.22 L 90.15 163.48 L 93.80 159.66 L 97.45 158.07 L 101.10 151.60 L 104.75 148.18 L 108.40 148.91 L 112.05 156.28 L 115.70 153.86 L 119.35 157.30 L 123.00 156.56 L 126.65 161.29 L 130.30 154.48 L 133.95 160.42 L 137.60 163.93 L 141.25 162.69 L 144.90 168.36 L 148.55 163.82 L 152.20 164.11 L 155.85 161.21 L 159.50 158.12 L 163.15 162.41 L 166.80 158.37 L 170.45 156.36 L 174.10 158.37 L 177.75 156.93 L 181.40 160.49 L 185.05 155.66 L 188.70 162.75 L 192.35 156.85 L 196.00 150.59 L 199.65 147.33 L 203.30 150.90 L 206.95 149.24 L 210.60 151.81 L 214.25 150.41 L 217.90 152.85 L 221.55 150.21 L 225.20 150.46 L 228.85 147.93 L 232.50 149.34 L 236.15 153.62 L 239.80 156.49 L 243.45 158.30 L 247.10 159.08 L 250.75 159.18 L 254.40 159.59 L 258.05 159.99 L 261.70 158.42 L 265.35 154.46 L 269.00 156.48 L 272.65 152.34 L 276.30 150.90 L 279.95 149.76 L 283.60 155.00 L 287.25 149.89 L 290.90 149.89 L 294.55 146.76 L 298.20 148.60 L 301.85 150.97 L 305.50 153.98 L 309.15 155.50 L 312.80 154.57 L 316.45 153.94 L 320.10 159.47 L 323.75 164.89 L 327.40 164.95 L 331.05 169.52 L 334.70 172.42 L 338.35 169.72 L 342.00 173.60 L 345.65 173.13 L 349.30 168.66 L 352.95 168.33 L 356.60 173.63 L 360.25 176.49 L 363.90 183.99 L 367.55 187.74 L 371.20 190.49 L 374.85 182.55 L 378.50 185.74 L 382.15 178.04 L 385.80 177.34 L 389.45 181.60 L 393.10 183.39 L 396.75 182.27 L 400.40 181.24 L 404.05 182.47 L 407.70 183.85 L 411.35 178.29 L 415.00 178.11 L 418.65 176.62 L 422.30 177.75 L 425.95 183.75 L 429.60 188.05 L 433.25 190.57 L 436.90 192.45 L 440.55 192.58 L 444.20 193.93 L 447.85 194.24 L 451.50 197.30 L 455.15 196.59 L 458.80 195.77 L 462.45 186.52 L 466.10 190.02 L 469.75 187.24 L 473.40 186.82 L 477.05 187.62 L 480.70 186.58 L 484.35 191.74 L 488.00 190.86 L 491.65 189.05 L 495.30 195.40 L 498.95 196.11 L 502.60 204.22 L 506.25 205.02 L 509.90 209.46 L 513.55 212.03 L 517.20 205.11 L 520.85 209.12 L 524.50 206.95 L 528.15 202.87 L 531.80 202.49 L 535.45 206.58 L 539.10 215.34 L 542.75 218.92 L 546.40 216.87 L 550.05 220.05 L 553.70 217.38 L 557.35 220.13 L 561.00 225.94 L 564.65 226.67 L 568.30 227.61 L 571.95 234.62 L 575.60 232.17 L 579.25 229.87 L 582.90 224.88 L 586.55 226.07 L 590.20 227.98 L 593.85 223.93 L 597.50 225.59 L 601.15 231.16 L 604.80 229.46 L 608.45 230.63 L 612.10 227.93 L 615.75 231.11 L 619.40 232.57 L 623.05 230.44 L 626.70 232.30 L 630.35 231.02 L 634.00 230.33 L 637.65 225.40 L 641.30 230.76 L 644.95 230.92 L 648.60 229.54 L 652.25 221.95 L 655.90 221.81 L 659.55 225.29 L 663.20 222.79 L 666.85 222.96 L 670.50 218.65 L 674.15 221.25 L 677.80 215.08 L 681.45 216.30 L 685.10 211.97 L 688.75 210.64 L 692.40 206.50 L 696.05 211.77 L 699.70 210.74 L 703.35 211.28 L 707.00 220.89 L 710.65 223.44 L 714.30 218.32 L 717.95 216.01 L 721.60 210.93 L 725.25 206.29 L 728.90 201.37 L 732.55 203.16 L 736.20 197.34 L 739.85 195.78 L 743.50 195.88 L 747.15 201.09 L 750.80 201.91 L 754.45 203.35 L 758.10 201.63 L 761.75 201.48 L 765.40 199.53 L 769.05 196.24 L 772.70 197.79 L 776.35 196.81 L 780.00 197.57" class="path-0" />
<path d="M 50.00 144.47 L 53.65 145.20 L 57.30 148.12 L 60.95 151.16 L 64.60 153.02 L 68.25 151.74 L 71.90 146.62 L 75.55 151.24 L 79.20 146.89 L 82.85 151.19 L 86.50 158.17 L 90.15 159.25 L 93.80 166.35 L 97.45 164.14 L 101.10 166.11 L 104.75 165.72 L 108.40 167.78 L 112.05 167.80 L 115.70 168.56 L 119.35 167.84 L 123.00 168.57 L 126.65 160.17 L 130.30 165.37 L 133.95 165.04 L 137.60 160.19 L 141.25 156.55 L 144.90 150.80 L 148.55 151.23 L 152.20 151.94 L 155.85 149.62 L 159.50 155.12 L 163.15 149.49 L 166.80 149.55 L 170.45 150.30 L 174.10 144.68 L 177.75 141.41 L 181.40 138.79 L 185.05 141.88 L 188.70 140.71 L 192.35 142.83 L 196.00 142.50 L 199.65 151.27 L 203.30 150.80 L 206.95 151.77 L 210.60 153.75 L 214.25 156.57 L 217.90 159.58 L 221.55 158.07 L 225.20 161.03 L 228.85 162.00 L 232.50 155.30 L 236.15 158.11 L 239.80 162.08 L 243.45 156.31 L 247.10 155.52 L 250.75 160.09 L 254.40 162.55 L 258.05 161.77 L 261.70 162.06 L 265.35 159.15 L 269.00 158.01 L 272.65 156.91 L 276.30 158.98 L 279.95 158.39 L 283.60 152.55 L 287.25 158.41 L 290.90 158.36 L 294.55 163.93 L 298.20 161.90 L 301.85 162.96 L 305.50 166.03 L 309.15 167.55 L 312.80 164.27 L 316.45 163.81 L 320.10 165.41 L 323.75 165.42 L 327.40 166.16 L 331.05 165.13 L 334.70 168.48 L 338.35 167.71 L 342.00 171.53 L 345.65 174.61 L 349.30 173.54 L 352.95 173.76 L 356.60 168.40 L 360.25 168.91 L 363.90 169.33 L 367.55 170.54 L 371.20 174.80 L 374.85 173.61 L 378.50 177.47 L 382.15 180.92 L 385.80 181.30 L 389.45 169.49 L 393.10 169.11 L 396.75 170.17 L 400.40 175.73 L 404.05 176.72 L 407.70 181.95 L 411.35 180.30 L 415.00 181.32 L 418.65 183.93 L 422.30 185.48 L 425.95 187.06 L 429.60 187.84 L 433.25 186.11 L 436.90 188.67 L 440.55 190.58 L 444.20 189.87 L 447.85 197.56 L 451.50 197.15 L 455.15 193.56 L 458.80 197.86 L 462.45 196.93 L 466.10 202.66 L 469.75 198.99 L 473.40 198.36 L 477.05 199.26 L 480.70 200.43 L 484.35 199.22 L 488.00 196.45 L 491.65 199.14 L 495.30 204.10 L 498.95 205.92 L 502.60 204.23 L 506.25 195.88 L 509.90 191.87 L 513.55 185.06 L 517.20 187.24 L 520.85 185.60 L 524.50 188.89 L 528.15 190.82 L 531.80 184.43 L 535.45 182.09 L 539.10 174.17 L 542.75 175.18 L 546.40 174.83 L 550.05 170.12 L 553.70 176.19 L 557.35 174.64 L 561.00 173.64 L 564.65 169.22 L 568.30 169.29 L 571.95 171.84 L 575.60 169.32 L 579.25 172.60 L 582.90 175.21 L 586.55 179.91 L 590.20 174.14 L 593.85 171.64 L 597.50 171.50 L 601.15 173.48 L 604.80 178.63 L 608.45 171.92 L 612.10 165.49 L 615.75 162.30 L 619.40 166.05 L 623.05 161.44 L 626.70 158.19 L 630.35 158.85 L 634.00 153.50 L 637.65 146.81 L 641.30 152.67 L 644.95 145.42 L 648.60 145.90 L 652.25 147.00 L 655.90 150.53 L 659.55 151.17 L 663.20 154.81 L 666.85 153.84 L 670.50 163.43 L 674.15 165.24 L 677.80 165.39 L 681.45 167.56 L 685.10 168.03 L 688.75 171.04 L 692.40 173.70 L 696.05 176.46 L 699.70 182.09 L 703.35 182.67 L 707.00 176.77 L 710.65 174.97 L 714.30 166.25 L 717.95 170.46 L 721.60 168.55 L 725.25 172.06 L 728.90 175.24 L 732.55 173.71 L 736.20 174.81 L 739.85 172.74 L 743.50 175.49 L 747.15 175.85 L 750.80 176.25 L 754.45 176.10 L 758.10 170.58 L 761.75 168.10 L 765.40 169.75 L 769.05 163.10 L 772.70 167.50 L 776.35 170.81 L 780.00 170.73" class="path-1" />
<path d="M 50.00 144.47 L 53.65 147.59 L 57.30 146.02 L 60.95 147.66 L 64.60 150.99 L 68.25 148.29 L 71.90 141.28 L 75.55 141.03 L 79.20 138.25 L 82.85 141.92 L 86.50 139.58 L 90.15 137.35 L 93.80 131.13 L 97.45 127.38 L 101.10 126.65 L 104.75 125.34 L 108.40 125.11 L 112.05 122.08 L 115.70 121.11 L 119.35 119.68 L 123.00 122.10 L 126.65 126.52 L 130.30 129.82 L 133.95 126.51 L 137.60 127.52 L 141.25 127.08 L 144.90 128.75 L 148.55 125.08 L 152.20 127.03 L 155.85 124.49 L 159.50 125.43 L 163.15 127.70 L 166.80 129.42 L 170.45 131.95 L 174.10 130.21 L 177.75 123.64 L 181.40 126.32 L 185.05 126.29 L 188.70 125.78 L 192.35 125.98 L 196.00 121.42 L 199.65 119.83 L 203.30 119.94 L 206.95 116.22 L 210.60 115.37 L 214.25 114.82 L 217.90 117.01 L 221.55 114.80 L 225.20 118.96 L 228.85 116.33 L 232.50 112.86 L 236.15 113.82 L 239.80 108.79 L 243.45 115.09 L 247.10 118.95 L 250.75 114.65 L 254.40 113.51 L 258.05 113.49 L 261.70 111.58 L 265.35 115.70 L 269.00 114.29 L 272.65 116.31 L 276.30 117.20 L 279.95 115.53 L 283.60 116.62 L 287.25 116.13 L 290.90 118.78 L 294.55 112.60 L 298.20 105.73 L 301.85 105.84 L 305.50 107.04 L 309.15 107.75 L 312.80 101.19 L 316.45 97.91 L 320.10 95.10 L 323.75 92.16 L 327.40 86.30 L 331.05 90.06 L 334.70 93.03 L 338.35 96.97 L 342.00 90.47 L 345.65 83.97 L 349.30 76.25 L 352.95 74.91 L 356.60 70.27 L 360.25 68.44 L 363.90 66.65 L 367.55 72.63 L 371.20 77.79 L 374.85 74.24 L 378.50 72.48 L 382.15 73.18 L 385.80 76.07 L 389.45 77.81 L 393.10 78.08 L 396.75 71.38 L 400.40 65.38 L 404.05 69.63 L 407.70 65.88 L 411.35 68.66 L 415.00 80.34 L 418.65 76.37 L 422.30 77.59 L 425.95 81.65 L 429.60 78.95 L 433.25 81.38 L 436.90 76.11 L 440.55 71.73 L 444.20 69.67 L 447.85 67.51 L 451.50 67.00 L 455.15 69.17 L 458.80 70.80 L 462.45 68.31 L 466.10 71.59 L 469.75 68.59 L 473.40 74.47 L 477.05 76.15 L 480.70 78.54 L 484.35 80.94 L 488.00 80.14 L 491.65 86.26 L 495.30 95.80 L 498.95 98.32 L 502.60 91.36 L 506.25 91.27 L 509.90 90.41 L 513.55 89.16 L 517.20 92.67 L 520.85 91.66 L 524.50 93.42 L 528.15 92.02 L 531.80 92.15 L 535.45 92.65 L 539.10 92.12 L 542.75 93.89 L 546.40 96.86 L 550.05 97.60 L 553.70 101.18 L 557.35 98.85 L 561.00 99.59 L 564.65 101.31 L 568.30 99.72 L 571.95 102.07 L 575.60 105.18 L 579.25 105.24 L 582.90 101.32 L 586.55 102.78 L 590.20 102.77 L 593.85 107.01 L 597.50 106.71 L 601.15 108.61 L 604.80 106.53 L 608.45 104.80 L 612.10 102.25 L 615.75 103.65 L 619.40 105.01 L 623.05 102.71 L 626.70 99.33 L 630.35 102.51 L 634.00 102.78 L 637.65 103.10 L 641.30 106.54 L 644.95 101.50 L 648.60 99.76 L 652.25 97.28 L 655.90 103.93 L 659.55 103.30 L 663.20 107.03 L 666.85 110.23 L 670.50 110.02 L 674.15 104.49 L 677.80 99.17 L 681.45 99.07 L 685.10 100.20 L 688.75 98.98 L 692.40 102.57 L 696.05 103.30 L 699.70 103.07 L 703.35 110.04 L 707.00 113.27 L 710.65 115.59 L 714.30 111.69 L 717.95 108.83 L 721.60 108.31 L 725.25 107.57 L 728.90 105.25 L 732.55 104.34 L 736.20 103.25 L 739.85 106.08 L 743.50 110.40 L 747.15 111.25 L 750.80 104.89 L 754.45 98.79 L 758.10 102.39 L 761.75 104.33 L 765.40 108.24 L 769.05 107.14 L 772.70 109.92 L 776.35 110.27 L 780.00 103.98" class="path-2" />
<path d="M 50.00 144.47 L 53.65 143.77 L 57.30 137.86 L 60.95 140.01 L 64.60 138.49 L 68.25 140.51 L 71.90 136.89 L 75.55 137.05 L 79.20 143.11 L 82.85 148.94 L 86.50 146.39 L 90.15 144.28 L 93.80 148.26 L 97.45 148.85 L 101.10 150.86 L 104.75 151.20 L 108.40 153.90 L 112.05 151.07 L 115.70 154.78 L 119.35 159.21 L 123.00 154.90 L 126.65 147.43 L 130.30 145.64 L 133.95 142.52 L 137.60 143.24 L 141.25 138.24 L 144.90 132.51 L 148.55 135.76 L 152.20 127.42 L 155.85 136.31 L 159.50 136.99 L 163.15 138.92 L 166.80 144.65 L 170.45 143.30 L 174.10 144.43 L 177.75 140.91 L 181.40 143.13 L 185.05 141.16 L 188.70 140.79 L 192.35 144.93 L 196.00 142.79 L 199.65 139.78 L 203.30 139.01 L 206.95 134.83 L 210.60 130.93 L 214.25 134.39 L 217.90 142.23 L 221.55 137.42 L 225.20 137.45 L 228.85 147.52 L 232.50 149.70 L 236.15 146.57 L 239.80 145.25 L 243.45 143.70 L 247.10 147.37 L 250.75 142.50 L 254.40 140.02 L 258.05 143.84 L 261.70 146.51 L 265.35 147.18 L 269.00 137.69 L 272.65 141.17 L 276.30 140.93 L 279.95 137.89 L 283.60 142.93 L 287.25 145.67 L 290.90 145.68 L 294.55 140.63 L 298.20 145.58 L 301.85 140.99 L 305.50 138.81 L 309.15 139.76 L 312.80 134.53 L 316.45 135.07 L 320.10 135.11 L 323.75 135.75 L 327.40 136.25 L 331.05 137.50 L 334.70 136.93 L 338.35 139.26 L 342.00 135.97 L 345.65 137.49 L 349.30 138.49 L 352.95 142.67 L 356.60 146.27 L 360.25 143.54 L 363.90 136.05 L 367.55 137.46 L 371.20 137.35 L 374.85 136.84 L 378.50 143.00 L 382.15 149.29 L 385.80 139.30 L 389.45 136.73 L 393.10 135.06 L 396.75 129.73 L 400.40 129.81 L 404.05 135.81 L 407.70 136.63 L 411.35 140.96 L 415.00 143.66 L 418.65 145.63 L 422.30 153.10 L 425.95 154.95 L 429.60 155.95 L 433.25 157.32 L 436.90 158.10 L 440.55 165.24 L 444.20 173.38 L 447.85 176.44 L 451.50 179.70 L 455.15 177.63 L 458.80 181.41 L 462.45 178.87 L 466.10 175.12 L 469.75 176.90 L 473.40 175.20 L 477.05 171.78 L 480.70 164.18 L 484.35 165.17 L 488.00 172.89 L 491.65 173.43 L 495.30 173.59 L 498.95 171.50 L 502.60 164.43 L 506.25 159.07 L 509.90 155.92 L 513.55 151.31 L 517.20 144.23 L 520.85 144.56 L 524.50 147.30 L 528.15 143.83 L 531.80 145.80 L 535.45 146.75 L 539.10 150.18 L 542.75 144.04 L 546.40 144.12 L 550.05 155.61 L 553.70 155.48 L 557.35 154.06 L 561.00 143.92 L 564.65 143.19 L 568.30 143.10 L 571.95 145.12 L 575.60 146.21 L 579.25 143.90 L 582.90 147.41 L 586.55 150.98 L 590.20 151.13 L 593.85 152.62 L 597.50 154.29 L 601.15 153.46 L 604.80 159.20 L 608.45 156.28 L 612.10 157.05 L 615.75 160.53 L 619.40 155.97 L 623.05 158.32 L 626.70 154.72 L 630.35 149.15 L 634.00 153.28 L 637.65 155.05 L 641.30 153.97 L 644.95 150.48 L 648.60 150.42 L 652.25 145.51 L 655.90 141.64 L 659.55 143.49 L 663.20 147.29 L 666.85 142.75 L 670.50 146.28 L 674.15 141.63 L 677.80 143.07 L 681.45 139.96 L 685.10 137.10 L 688.75 139.85 L 692.40 134.26 L 696.05 138.75 L 699.70 141.04 L 703.35 145.93 L 707.00 144.23 L 710.65 147.28 L 714.30 147.38 L 717.95 153.26 L 721.60 154.76 L 725.25 154.61 L 728.90 151.30 L 732.55 148.58 L 736.20 152.30 L 739.85 153.16 L 743.50 154.38 L 747.15 160.36 L 750.80 155.70 L 754.45 155.38 L 758.10 155.13 L 761.75 154.18 L 765.40 153.68 L 769.05 156.98 L 772.70 157.66 L 776.35 164.36 L 780.00 158.92" class="path-3" />
<path d="M 50.00 144.47 L 53.65 143.03 L 57.30 142.20 L 60.95 144.05 L 64.60 137.56 L 68.25 136.76 L 71.90 130.59 L 75.55 131.52 L 79.20 133.57 L 82.85 136.51 L 86.50 143.97 L 90.15 138.70 L 93.80 142.67 L 97.45 148.51 L 101.10 149.30 L 104.75 149.37 L 108.40 147.04 L 112.05 150.81 L 115.70 154.41 L 119.35 154.88 L 123.00 158.36 L 126.65 160.84 L 130.30 161.89 L 133.95 163.46 L 137.60 166.42 L 141.25 160.36 L 144.90 154.57 L 148.55 156.47 L 152.20 157.95 L 155.85 161.78 L 159.50 167.67 L 163.15 167.63 L 166.80 164.62 L 170.45 160.08 L 174.10 165.82 L 177.75 163.24 L 181.40 168.45 L 185.05 173.89 L 188.70 169.92 L 192.35 162.14 L 196.00 158.49 L 199.65 160.30 L 203.30 156.84 L 206.95 154.65 L 210.60 148.80 L 214.25 149.83 L 217.90 152.50 L 221.55 146.53 L 225.20 147.37 L 228.85 150.46 L 232.50 144.97 L 236.15 142.53 L 239.80 142.26 L 243.45 146.51 L 247.10 150.87 L 250.75 154.72 L 254.40 152.75 L 258.05 160.85 L 261.70 160.71 L 265.35 164.93 L 269.00 162.05 L 272.65 161.48 L 276.30 170.87 L 279.95 174.09 L 283.60 180.11 L 287.25 179.26 L 290.90 184.68 L 294.55 183.48 L 298.20 177.98 L 301.85 177.60 L 305.50 178.73 L 309.15 186.37 L 312.80 185.20 L 316.45 184.76 L 320.10 185.60 L 323.75 179.72 L 327.40 187.51 L 331.05 182.91 L 334.70 184.03 L 338.35 185.47 L 342.00 188.23 L 345.65 188.32 L 349.30 191.92 L 352.95 186.48 L 356.60 187.95 L 360.25 188.25 L 363.90 189.98 L 367.55 186.52 L 371.20 189.99 L 374.85 194.83 L 378.50 193.35 L 382.15 198.75 L 385.80 203.46 L 389.45 202.86 L 393.10 202.26 L 396.75 203.56 L 400.40 201.17 L 404.05 202.06 L 407.70 208.21 L 411.35 206.88 L 415.00 201.10 L 418.65 197.46 L 422.30 203.31 L 425.95 207.05 L 429.60 202.92 L 433.25 200.53 L 436.90 198.56 L 440.55 197.51 L 444.20 195.61 L 447.85 194.63 L 451.50 190.60 L 455.15 192.60 L 458.80 188.88 L 462.45 189.74 L 466.10 184.97 L 469.75 189.75 L 473.40 192.84 L 477.05 189.04 L 480.70 188.00 L 484.35 195.75 L 488.00 195.97 L 491.65 193.87 L 495.30 194.44 L 498.95 191.84 L 502.60 190.79 L 506.25 193.52 L 509.90 187.91 L 513.55 184.57 L 517.20 181.89 L 520.85 182.90 L 524.50 182.70 L 528.15 182.26 L 531.80 186.65 L 535.45 190.52 L 539.10 199.30 L 542.75 198.51 L 546.40 202.45 L 550.05 200.68 L 553.70 200.98 L 557.35 201.24 L 561.00 198.86 L 564.65 190.45 L 568.30 198.00 L 571.95 198.11 L 575.60 199.39 L 579.25 195.17 L 582.90 194.75 L 586.55 192.83 L 590.20 197.53 L 593.85 200.43 L 597.50 198.71 L 601.15 197.33 L 604.80 198.89 L 608.45 199.84 L 612.10 196.45 L 615.75 196.53 L 619.40 200.25 L 623.05 199.06 L 626.70 199.73 L 630.35 201.10 L 634.00 210.10 L 637.65 208.28 L 641.30 211.09 L 644.95 211.30 L 648.60 210.77 L 652.25 211.67 L 655.90 208.87 L 659.55 199.25 L 663.20 194.20 L 666.85 192.59 L 670.50 188.07 L 674.15 189.50 L 677.80 193.88 L 681.45 200.14 L 685.10 192.16 L 688.75 190.57 L 692.40 189.27 L 696.05 189.82 L 699.70 197.08 L 703.35 194.22 L 707.00 190.93 L 710.65 190.97 L 714.30 194.89 L 717.95 191.99 L 721.60 192.70 L 725.25 194.29 L 728.90 194.15 L 732.55 194.88 L 736.20 192.82 L 739.85 190.72 L 743.50 190.74 L 747.15 185.82 L 750.80 187.52 L 754.45 192.33 L 758.10 187.17 L 761.75 174.81 L 765.40 179.02 L 769.05 178.58 L 772.70 177.87 L 776.35 176.37 L 780.00 173.30" class="path-4" />
<line x1="50" y1="144.5" x2="780" y2="144.5" stroke="#4b5563" stroke-width="0.8" stroke-dasharray="6 3" />
</svg>