<svg xmlns="http://www.w3.org/2000/svg" viewBox="0 0 800 300" width="800" height="300">
<style>
.axis-line { stroke: #6b7280; stroke-width: 0.5; }
.axis-text { font-family: monospace; font-size: 11px; fill: #9ca3af; }
.title-text { font-family: monospace; font-size: 14px; fill: #d1d5db; font-weight: bold; }
.grid-line { stroke: #374151; stroke-width: 0.3; stroke-dasharray: 4 2; }
.path-0 { fill: none; stroke: #3b82f6; stroke-width: 2; stroke-linecap: round; opacity: 0.85; animation: draw-0 8s ease-in-out 0.0s infinite; stroke-dasharray: 902; stroke-dashoffset: 902;}
@keyframes draw-0 { 0% { stroke-dashoffset: 902; } 38% { stroke-dashoffset: 0; } 62% { stroke-dashoffset: 0; } 100% { stroke-dashoffset: 902; }}
.path-1 { fill: none; stroke: #ef4444; stroke-width: 2; stroke-linecap: round; opacity: 0.85; animation: draw-1 8s ease-in-out 0.4s infinite; stroke-dasharray: 911; stroke-dashoffset: 911;}
@keyframes draw-1 { 0% { stroke-dashoffset: 911; } 38% { stroke-dashoffset: 0; } 62% { stroke-dashoffset: 0; } 100% { stroke-dashoffset: 911; }}
.path-2 { fill: none; stroke: #22c55e; stroke-width: 2; stroke-linecap: round; opacity: 0.85; animation: draw-2 8s ease-in-out 0.8s infinite; stroke-dasharray: 884; stroke-dashoffset: 884;}
@keyframes draw-2 { 0% { stroke-dashoffset: 884; } 38% { stroke-dashoffset: 0; } 62% { stroke-dashoffset: 0; } 100% { stroke-dashoffset: 884; }}
.path-3 { fill: none; stroke: #f59e0b; stroke-width: 2; stroke-linecap: round; opacity: 0.85; animation: draw-3 8s ease-in-out 1.2000000000000002s infinite; stroke-dasharray: 903; stroke-dashoffset: 903;}
@keyframes draw-3 { 0% { stroke-dashoffset: 903; } 38% { stroke-dashoffset: 0; } 62% { stroke-dashoffset: 0; } 100% { stroke-dashoffset: 903; }}
.path-4 { fill: none; stroke: #a855f7; stroke-width: 2; stroke-linecap: round; opacity: 0.85; animation: draw-4 8s ease-in-out 1.6s infinite; stroke-dasharray: 889; stroke-dashoffset: 889;}
@keyframes draw-4 { 0% { stroke-dashoffset: 889; } 38% { stroke-dashoffset: 0; } 62% { stroke-dashoffset: 0; } 100% { stroke-dashoffset: 889; }}
</style>
<rect width="800" height="300" rx="8" fill="#0d1117" />
<line x1="50" y1="260.0" x2="780" y2="260.0" class="grid-line" />
<text x="44" y="264.0" text-anchor="end" class="axis-text">-2.1</text>
<line x1="50" y1="216.0" x2="780" y2="216.0" class="grid-line" />
<text x="44" y="220.0" text-anchor="end" class="axis-text">-0.9</text>
<line x1="50" y1="172.0" x2="780" y2="172.0" class="grid-line" />
<text x="44" y="176.0" text-anchor="end" class="axis-text">0.2</text>
<line x1="50" y1="128.0" x2="780" y2="128.0" class="grid-line" />
<text x="44" y="132.0" text-anchor="end" class="axis-text">1.3</text>
<line x1="50" y1="84.0" x2="780" y2="84.0" class="grid-line" />
<text x="44" y="88.0" text-anchor="end" class="axis-text">2.4</text>
<line x1="50" y1="40.0" x2="780" y2="40.0" class="grid-line" />
<text x="44" y="44.0" text-anchor="end" class="axis-text">3.5</text>
<line x1="50.0" y1="40" x2="50.0" y2="260" class="grid-line" />
<line x1="196.0" y1="40" x2="196.0" y2="260" class="grid-line" />
<line x1="342.0" y1="40" x2="342.0" y2="260" class="grid-line" />
<line x1="488.0" y1="40" x2="488.0" y2="260" class="grid-line" />
<line x1="634.0" y1="40" x2="634.0" y2="260" class="grid-line" />
<line x1="780.0" y1="40" x2="780.0" y2="260" class="grid-line" />
<line x1="50" y1="260" x2="780" y2="260" class="axis-line" />
<line x1="50" y1="40" x2="50" y2="260" class="axis-line" />
<text x="400.0" y="295" text-anchor="middle" class="axis-text">t</text>
<text x="12" y="150.0" text-anchor="middle" class="axis-text" transform="rotate(-90 12 150.0)">W(t)</text>
<text x="400.0" y="22" text-anchor="middle" class="title-text">Brownian Motion</text>
<path d="M 50.00 178.85 L 53.65 175.08 L 57.30 176.70 L 60.95 176.35 L 64.60 181.31 L 68.25 181.94 L 71.90 176.35 L 75.55 177.86 L 79.20 177.49 L 82.85 174.09 L 86.50 172.75 L 90.15 176.19 L 93.80 175.91 L 97.45 175.57 L 101.10 174.86 L 104.75 171.39 L 108.40 170.85 L 112.05 173.16 L 115.70 172.14 L 119.35 169.11 L 123.00 169.38 L 126.65 168.54 L 130.30 170.47 L 133.95 173.02 L 137.60 168.18 L 141.25 166.63 L 144.90 169.55 L 148.55 167.26 L 152.20 171.92 L 155.85 172.30 L 159.50 169.56 L 163.15 168.42 L 166.80 170.24 L 170.45 169.94 L 174.10 167.72 L 177.75 162.10 L 181.40 163.00 L 185.05 162.42 L 188.70 163.13 L 192.35 159.98 L 196.00 161.39 L 199.65 159.46 L 203.30 161.72 L 206.95 154.47 L 210.60 157.85 L 214.25 156.22 L 217.90 157.77 L 221.55 155.48 L 225.20 154.81 L 228.85 157.82 L 232.50 157.93 L 236.15 154.73 L 239.80 154.48 L 243.45 156.25 L 247.10 152.25 L 250.75 153.63 L 254.40 154.65 L 258.05 154.07 L 261.70 153.46 L 265.35 154.39 L 269.00 157.60 L 272.65 159.70 L 276.30 158.69 L 279.95 153.93 L 283.60 153.89 L 287.25 150.23 L 290.90 150.84 L 294.55 150.52 L 298.20 147.47 L 301.85 146.12 L 305.50 149.42 L 309.15 144.59 L 312.80 145.63 L 316.45 144.26 L 320.10 148.76 L 323.75 143.70 L 327.40 142.12 L 331.05 141.40 L 334.70 140.88 L 338.35 138.98 L 342.00 138.42 L 345.65 138.31 L 349.30 137.60 L 352.95 137.52 L 356.60 135.31 L 360.25 139.46 L 363.90 137.39 L 367.55 139.28 L 371.20 141.18 L 374.85 139.56 L 378.50 145.87 L 382.15 147.44 L 385.80 143.21 L 389.45 145.70 L 393.10 148.73 L 396.75 149.37 L 400.40 147.42 L 404.05 147.25 L 407.70 146.65 L 411.35 144.69 L 415.00 145.34 L 418.65 142.41 L 422.30 150.67 L 425.95 150.76 L 429.60 152.48 L 433.25 152.50 L 436.90 157.83 L 440.55 160.47 L 444.20 159.10 L 447.85 157.97 L 451.50 156.79 L 455.15 150.66 L 458.80 153.28 L 462.45 159.34 L 466.10 159.80 L 469.75 159.69 L 473.40 160.60 L 477.05 163.04 L 480.70 164.63 L 484.35 167.54 L 488.00 170.37 L 491.65 168.43 L 495.30 172.95 L 498.95 175.93 L 502.60 169.09 L 506.25 171.11 L 509.90 172.12 L 513.55 174.34 L 517.20 171.78 L 520.85 170.79 L 524.50 172.86 L 528.15 172.64 L 531.80 175.72 L 535.45 175.41 L 539.10 173.89 L 542.75 169.40 L 546.40 169.49 L 550.05 170.10 L 553.70 172.23 L 557.35 173.30 L 561.00 176.40 L 564.65 178.41 L 568.30 181.21 L 571.95 184.02 L 575.60 181.57 L 579.25 188.34 L 582.90 192.00 L 586.55 192.22 L 590.20 190.62 L 593.85 187.27 L 597.50 188.50 L 601.15 186.38 L 604.80 188.28 L 608.45 186.35 L 612.10 184.33 L 615.75 181.20 L 619.40 180.21 L 623.05 182.26 L 626.70 181.03 L 630.35 181.03 L 634.00 178.19 L 637.65 178.49 L 641.30 180.58 L 644.95 179.52 L 648.60 179.27 L 652.25 179.93 L 655.90 174.09 L 659.55 178.60 L 663.20 178.98 L 666.85 182.08 L 670.50 184.61 L 674.15 185.85 L 677.80 181.78 L 681.45 181.95 L 685.10 183.65 L 688.75 180.38 L 692.40 177.49 L 696.05 181.28 L 699.70 182.38 L 703.35 178.38 L 707.00 177.46 L 710.65 181.16 L 714.30 179.22 L 717.95 179.38 L 721.60 183.09 L 725.25 188.83 L 728.90 183.93 L 732.55 183.23 L 736.20 187.05 L 739.85 183.58 L 743.50 187.08 L 747.15 186.02 L 750.80 186.66 L 754.45 186.23 L 758.10 185.57 L 761.75 182.19 L 765.40 182.65 L 769.05 180.86 L 772.70 182.45 L 776.35 187.64 L 780.00 189.58" class="path-0" />
<path d="M 50.00 178.85 L 53.65 170.37 L 57.30 170.52 L 60.95 171.52 L 64.60 170.89 L 68.25 171.19 L 71.90 171.26 L 75.55 171.94 L 79.20 171.49 L 82.85 172.14 L 86.50 170.81 L 90.15 168.17 L 93.80 166.26 L 97.45 163.17 L 101.10 163.95 L 104.75 166.39 L 108.40 168.33 L 112.05 168.07 L 115.70 165.89 L 119.35 166.84 L 123.00 161.77 L 126.65 158.30 L 130.30 155.38 L 133.95 157.27 L 137.60 161.33 L 141.25 153.87 L 144.90 151.47 L 148.55 150.22 L 152.20 146.69 L 155.85 151.08 L 159.50 148.25 L 163.15 150.23 L 166.80 151.89 L 170.45 149.23 L 174.10 151.21 L 177.75 148.50 L 181.40 148.24 L 185.05 149.25 L 188.70 151.37 L 192.35 150.98 L 196.00 149.33 L 199.65 152.01 L 203.30 149.35 L 206.95 151.73 L 210.60 153.01 L 214.25 157.90 L 217.90 156.04 L 221.55 155.12 L 225.20 150.91 L 228.85 152.68 L 232.50 155.08 L 236.15 153.70 L 239.80 156.28 L 243.45 151.95 L 247.10 148.20 L 250.75 149.21 L 254.40 148.92 L 258.05 146.44 L 261.70 152.11 L 265.35 151.27 L 269.00 155.39 L 272.65 157.45 L 276.30 157.59 L 279.95 155.48 L 283.60 159.09 L 287.25 160.39 L 290.90 157.94 L 294.55 161.92 L 298.20 162.18 L 301.85 162.61 L 305.50 159.14 L 309.15 158.17 L 312.80 153.29 L 316.45 150.61 L 320.10 151.69 L 323.75 152.22 L 327.40 156.56 L 331.05 151.43 L 334.70 149.89 L 338.35 150.78 L 342.00 155.00 L 345.65 154.36 L 349.30 151.18 L 352.95 146.25 L 356.60 146.88 L 360.25 144.94 L 363.90 140.40 L 367.55 137.36 L 371.20 135.12 L 374.85 132.29 L 378.50 133.27 L 382.15 130.83 L 385.80 128.92 L 389.45 132.39 L 393.10 136.15 L 396.75 133.11 L 400.40 135.13 L 404.05 137.53 L 407.70 138.81 L 411.35 141.51 L 415.00 137.70 L 418.65 137.38 L 422.30 139.51 L 425.95 146.17 L 429.60 147.10 L 433.25 146.39 L 436.90 146.04 L 440.55 149.81 L 444.20 149.39 L 447.85 148.23 L 451.50 149.15 L 455.15 151.53 L 458.80 149.18 L 462.45 150.45 L 466.10 157.71 L 469.75 159.13 L 473.40 158.28 L 477.05 153.19 L 480.70 154.56 L 484.35 153.38 L 488.00 156.34 L 491.65 160.78 L 495.30 163.84 L 498.95 163.33 L 502.60 158.83 L 506.25 156.49 L 509.90 152.95 L 513.55 152.57 L 517.20 150.87 L 520.85 154.13 L 524.50 151.27 L 528.15 146.59 L 531.80 147.02 L 535.45 143.96 L 539.10 145.52 L 542.75 146.21 L 546.40 147.32 L 550.05 149.34 L 553.70 147.64 L 557.35 145.48 L 561.00 146.40 L 564.65 147.95 L 568.30 147.61 L 571.95 143.94 L 575.60 151.32 L 579.25 153.47 L 582.90 149.93 L 586.55 151.36 L 590.20 151.78 L 593.85 151.52 L 597.50 156.49 L 601.15 155.15 L 604.80 150.28 L 608.45 148.98 L 612.10 145.31 L 615.75 150.31 L 619.40 153.69 L 623.05 155.15 L 626.70 157.44 L 630.35 155.98 L 634.00 159.84 L 637.65 154.27 L 641.30 153.72 L 644.95 158.05 L 648.60 155.59 L 652.25 155.56 L 655.90 154.03 L 659.55 156.56 L 663.20 157.20 L 666.85 160.64 L 670.50 160.42 L 674.15 159.34 L 677.80 157.54 L 681.45 159.70 L 685.10 158.81 L 688.75 158.55 L 692.40 155.76 L 696.05 153.30 L 699.70 156.60 L 703.35 158.15 L 707.00 155.54 L 710.65 150.34 L 714.30 155.68 L 717.95 155.35 L 721.60 154.88 L 725.25 155.97 L 728.90 155.67 L 732.55 157.73 L 736.20 157.90 L 739.85 157.77 L 743.50 156.32 L 747.15 156.29 L 750.80 155.35 L 754.45 157.09 L 758.10 150.63 L 761.75 148.98 L 765.40 146.77 L 769.05 145.55 L 772.70 142.40 L 776.35 145.03 L 780.00 143.05" class="path-1" />
<path d="M 50.00 178.85 L 53.65 175.40 L 57.30 171.10 L 60.95 169.72 L 64.60 169.36 L 68.25 172.71 L 71.90 169.73 L 75.55 173.75 L 79.20 172.92 L 82.85 171.21 L 86.50 173.37 L 90.15 173.88 L 93.80 170.83 L 97.45 176.27 L 101.10 175.01 L 104.75 172.24 L 108.40 168.30 L 112.05 168.97 L 115.70 166.48 L 119.35 163.01 L 123.00 160.53 L 126.65 162.13 L 130.30 161.45 L 133.95 162.65 L 137.60 156.87 L 141.25 159.28 L 144.90 158.89 L 148.55 156.52 L 152.20 157.71 L 155.85 155.00 L 159.50 150.70 L 163.15 153.18 L 166.80 154.13 L 170.45 152.31 L 174.10 152.58 L 177.75 146.48 L 181.40 143.16 L 185.05 141.29 L 188.70 140.86 L 192.35 142.29 L 196.00 142.00 L 199.65 138.29 L 203.30 140.79 L 206.95 138.76 L 210.60 135.20 L 214.25 134.76 L 217.90 128.15 L 221.55 127.15 L 225.20 124.06 L 228.85 122.98 L 232.50 119.97 L 236.15 124.00 L 239.80 119.29 L 243.45 122.79 L 247.10 123.93 L 250.75 120.61 L 254.40 120.71 L 258.05 118.71 L 261.70 121.57 L 265.35 115.60 L 269.00 113.99 L 272.65 112.77 L 276.30 113.46 L 279.95 117.28 L 283.60 117.15 L 287.25 114.26 L 290.90 110.35 L 294.55 109.60 L 298.20 107.71 L 301.85 106.26 L 305.50 106.69 L 309.15 106.10 L 312.80 107.52 L 316.45 106.18 L 320.10 100.09 L 323.75 100.82 L 327.40 101.71 L 331.05 104.40 L 334.70 104.84 L 338.35 102.44 L 342.00 106.06 L 345.65 110.61 L 349.30 110.24 L 352.95 110.32 L 356.60 108.24 L 360.25 108.51 L 363.90 108.92 L 367.55 107.33 L 371.20 108.70 L 374.85 109.48 L 378.50 110.65 L 382.15 111.49 L 385.80 111.70 L 389.45 107.67 L 393.10 107.93 L 396.75 104.62 L 400.40 103.19 L 404.05 104.64 L 407.70 101.59 L 411.35 101.67 L 415.00 99.26 L 418.65 95.95 L 422.30 94.40 L 425.95 95.37 L 429.60 97.74 L 433.25 97.25 L 436.90 98.83 L 440.55 101.23 L 444.20 101.51 L 447.85 102.45 L 451.50 104.89 L 455.15 107.59 L 458.80 109.13 L 462.45 107.15 L 466.10 110.55 L 469.75 110.91 L 473.40 109.45 L 477.05 109.06 L 480.70 108.98 L 484.35 113.23 L 488.00 115.80 L 491.65 116.86 L 495.30 113.68 L 498.95 110.31 L 502.60 109.65 L 506.25 107.09 L 509.90 104.74 L 513.55 101.89 L 517.20 103.04 L 520.85 101.89 L 524.50 103.16 L 528.15 100.19 L 531.80 100.35 L 535.45 102.81 L 539.10 97.81 L 542.75 99.00 L 546.40 102.64 L 550.05 99.84 L 553.70 100.64 L 557.35 102.63 L 561.00 101.40 L 564.65 104.46 L 568.30 101.76 L 571.95 106.13 L 575.60 107.79 L 579.25 104.74 L 582.90 103.79 L 586.55 102.57 L 590.20 101.58 L 593.85 103.89 L 597.50 103.96 L 601.15 102.41 L 604.80 103.41 L 608.45 106.21 L 612.10 108.84 L 615.75 109.01 L 619.40 106.68 L 623.05 109.31 L 626.70 109.71 L 630.35 109.64 L 634.00 106.64 L 637.65 107.53 L 641.30 109.21 L 644.95 113.34 L 648.60 117.29 L 652.25 115.16 L 655.90 116.13 L 659.55 111.69 L 663.20 114.53 L 666.85 114.94 L 670.50 118.08 L 674.15 119.49 L 677.80 114.82 L 681.45 115.87 L 685.10 116.74 L 688.75 120.61 L 692.40 119.75 L 696.05 117.98 L 699.70 117.69 L 703.35 116.57 L 707.00 118.08 L 710.65 117.79 L 714.30 120.69 L 717.95 119.46 L 721.60 119.95 L 725.25 117.16 L 728.90 115.66 L 732.55 112.88 L 736.20 114.95 L 739.85 115.62 L 743.50 117.49 L 747.15 121.47 L 750.80 124.69 L 754.45 128.02 L 758.10 124.72 L 761.75 120.78 L 765.40 121.67 L 769.05 125.40 L 772.70 129.26 L 776.35 127.17 L 780.00 125.88" class="path-2" />
<path d="M 50.00 178.85 L 53.65 177.89 L 57.30 180.90 L 60.95 182.71 L 64.60 186.61 L 68.25 185.69 L 71.90 190.82 L 75.55 193.07 L 79.20 194.02 L 82.85 194.32 L 86.50 193.41 L 90.15 199.24 L 93.80 199.77 L 97.45 199.03 L 101.10 198.92 L 104.75 198.82 L 108.40 198.18 L 112.05 196.98 L 115.70 194.03 L 119.35 190.51 L 123.00 191.13 L 126.65 187.86 L 130.30 188.06 L 133.95 187.95 L 137.60 184.39 L 141.25 190.42 L 144.90 187.86 L 148.55 186.95 L 152.20 185.40 L 155.85 186.30 L 159.50 187.55 L 163.15 189.18 L 166.80 191.57 L 170.45 191.53 L 174.10 194.20 L 177.75 195.12 L 181.40 195.75 L 185.05 199.23 L 188.70 193.57 L 192.35 193.64 L 196.00 192.59 L 199.65 196.49 L 203.30 194.94 L 206.95 187.10 L 210.60 189.84 L 214.25 190.13 L 217.90 189.80 L 221.55 192.70 L 225.20 190.24 L 228.85 189.63 L 232.50 194.21 L 236.15 194.59 L 239.80 194.03 L 243.45 193.80 L 247.10 195.70 L 250.75 196.70 L 254.40 194.67 L 258.05 189.22 L 261.70 189.38 L 265.35 184.13 L 269.00 185.82 L 272.65 189.38 L 276.30 187.41 L 279.95 191.88 L 283.60 193.13 L 287.25 191.20 L 290.90 196.30 L 294.55 193.77 L 298.20 194.61 L 301.85 197.75 L 305.50 197.30 L 309.15 199.41 L 312.80 199.45 L 316.45 199.53 L 320.10 197.33 L 323.75 201.71 L 327.40 202.09 L 331.05 200.07 L 334.70 196.29 L 338.35 195.93 L 342.00 196.46 L 345.65 198.03 L 349.30 198.53 L 352.95 195.35 L 356.60 196.01 L 360.25 196.56 L 363.90 195.50 L 367.55 193.68 L 371.20 190.43 L 374.85 189.92 L 378.50 188.81 L 382.15 190.35 L 385.80 191.60 L 389.45 187.83 L 393.10 184.80 L 396.75 186.36 L 400.40 186.23 L 404.05 187.34 L 407.70 185.91 L 411.35 185.67 L 415.00 184.53 L 418.65 184.29 L 422.30 183.07 L 425.95 184.30 L 429.60 187.71 L 433.25 186.62 L 436.90 191.68 L 440.55 190.23 L 444.20 194.99 L 447.85 196.07 L 451.50 195.16 L 455.15 197.72 L 458.80 200.26 L 462.45 200.95 L 466.10 203.48 L 469.75 201.72 L 473.40 203.68 L 477.05 205.86 L 480.70 207.36 L 484.35 210.55 L 488.00 209.58 L 491.65 210.85 L 495.30 217.12 L 498.95 221.43 L 502.60 221.05 L 506.25 223.85 L 509.90 217.99 L 513.55 221.21 L 517.20 222.45 L 520.85 224.03 L 524.50 224.38 L 528.15 225.04 L 531.80 226.19 L 535.45 228.50 L 539.10 227.30 L 542.75 222.57 L 546.40 222.97 L 550.05 219.71 L 553.70 218.66 L 557.35 217.29 L 561.00 218.65 L 564.65 213.09 L 568.30 215.15 L 571.95 212.76 L 575.60 212.66 L 579.25 205.18 L 582.90 202.37 L 586.55 205.53 L 590.20 202.90 L 593.85 203.95 L 597.50 212.53 L 601.15 206.09 L 604.80 209.41 L 608.45 211.26 L 612.10 208.20 L 615.75 210.10 L 619.40 204.39 L 623.05 213.40 L 626.70 213.83 L 630.35 219.74 L 634.00 222.00 L 637.65 225.24 L 641.30 229.41 L 644.95 232.16 L 648.60 232.43 L 652.25 234.62 L 655.90 233.79 L 659.55 230.07 L 663.20 232.39 L 666.85 231.31 L 670.50 227.19 L 674.15 227.26 L 677.80 226.82 L 681.45 226.25 L 685.10 226.09 L 688.75 226.73 L 692.40 227.52 L 696.05 222.76 L 699.70 223.08 L 703.35 225.93 L 707.00 226.39 L 710.65 227.80 L 714.30 228.51 L 717.95 225.63 L 721.60 226.32 L 725.25 225.98 L 728.90 219.15 L 732.55 220.29 L 736.20 213.99 L 739.85 212.34 L 743.50 210.51 L 747.15 209.20 L 750.80 208.82 L 754.45 208.76 L 758.10 208.73 L 761.75 210.50 L 765.40 207.76 L 769.05 204.96 L 772.70 204.24 L 776.35 202.59 L 780.00 203.26" class="path-3" />
<path d="M 50.00 178.85 L 53.65 179.20 L 57.30 177.18 L 60.95 181.05 L 64.60 181.36 L 68.25 179.96 L 71.90 178.69 L 75.55 182.50 L 79.20 178.51 L 82.85 180.17 L 86.50 180.86 L 90.15 178.27 L 93.80 177.97 L 97.45 179.83 L 101.10 175.74 L 104.75 174.12 L 108.40 177.34 L 112.05 176.72 L 115.70 176.00 L 119.35 175.89 L 123.00 179.43 L 126.65 184.70 L 130.30 188.46 L 133.95 186.05 L 137.60 185.41 L 141.25 186.58 L 144.90 185.41 L 148.55 183.10 L 152.20 185.62 L 155.85 187.35 L 159.50 186.34 L 163.15 183.38 L 166.80 179.31 L 170.45 178.64 L 174.10 176.55 L 177.75 175.09 L 181.40 173.06 L 185.05 171.72 L 188.70 171.12 L 192.35 172.03 L 196.00 173.18 L 199.65 170.81 L 203.30 169.43 L 206.95 167.65 L 210.60 169.37 L 214.25 174.13 L 217.90 176.68 L 221.55 177.42 L 225.20 178.81 L 228.85 175.76 L 232.50 171.12 L 236.15 168.93 L 239.80 168.12 L 243.45 165.97 L 247.10 167.46 L 250.75 166.33 L 254.40 162.89 L 258.05 161.04 L 261.70 159.38 L 265.35 155.46 L 269.00 154.79 L 272.65 155.77 L 276.30 154.45 L 279.95 157.71 L 283.60 158.16 L 287.25 160.11 L 290.90 157.10 L 294.55 162.28 L 298.20 160.49 L 301.85 163.97 L 305.50 162.88 L 309.15 157.87 L 312.80 157.19 L 316.45 151.71 L 320.10 152.28 L 323.75 154.87 L 327.40 152.92 L 331.05 148.41 L 334.70 143.04 L 338.35 142.64 L 342.00 141.88 L 345.65 143.37 L 349.30 143.54 L 352.95 139.86 L 356.60 139.39 L 360.25 143.01 L 363.90 145.72 L 367.55 144.94 L 371.20 140.31 L 374.85 139.80 L 378.50 141.48 L 382.15 138.35 L 385.80 140.74 L 389.45 138.69 L 393.10 140.24 L 396.75 141.64 L 400.40 135.77 L 404.05 140.49 L 407.70 138.35 L 411.35 134.64 L 415.00 133.00 L 418.65 127.06 L 422.30 120.12 L 425.95 119.88 L 429.60 116.25 L 433.25 114.06 L 436.90 110.98 L 440.55 102.11 L 444.20 98.09 L 447.85 97.24 L 451.50 101.36 L 455.15 96.24 L 458.80 97.57 L 462.45 98.56 L 466.10 99.36 L 469.75 93.82 L 473.40 92.74 L 477.05 94.88 L 480.70 96.93 L 484.35 97.88 L 488.00 94.30 L 491.65 92.25 L 495.30 91.64 L 498.95 89.55 L 502.60 86.66 L 506.25 86.60 L 509.90 84.29 L 513.55 84.44 L 517.20 83.52 L 520.85 85.50 L 524.50 86.08 L 528.15 88.51 L 531.80 90.77 L 535.45 91.04 L 539.10 88.80 L 542.75 89.64 L 546.40 89.01 L 550.05 90.52 L 553.70 92.72 L 557.35 88.52 L 561.00 88.67 L 564.65 88.72 L 568.30 88.92 L 571.95 82.81 L 575.60 83.33 L 579.25 84.43 L 582.90 84.61 L 586.55 82.08 L 590.20 83.19 L 593.85 82.16 L 597.50 82.84 L 601.15 80.58 L 604.80 77.51 L 608.45 73.29 L 612.10 81.55 L 615.75 81.48 L 619.40 80.90 L 623.05 81.28 L 626.70 80.53 L 630.35 79.88 L 634.00 76.47 L 637.65 75.29 L 641.30 72.58 L 644.95 72.48 L 648.60 72.05 L 652.25 70.58 L 655.90 70.96 L 659.55 68.86 L 663.20 67.72 L 666.85 65.38 L 670.50 67.57 L 674.15 67.12 L 677.80 73.18 L 681.45 75.55 L 685.10 76.80 L 688.75 79.10 L 692.40 77.46 L 696.05 74.83 L 699.70 76.31 L 703.35 74.94 L 707.00 78.55 L 710.65 78.80 L 714.30 77.61 L 717.95 77.26 L 721.60 76.79 L 725.25 75.58 L 728.90 77.60 L 732.55 75.39 L 736.20 75.46 L 739.85 76.62 L 743.50 79.19 L 747.15 80.08 L 750.80 81.99 L 754.45 85.06 L 758.10 83.95 L 761.75 82.18 L 765.40 82.17 L 769.05 80.91 L 772.70 80.75 L 776.35 78.31 L 780.00 82.34" class="path-4" />
<line x1="50" y1="178.9" x2="780" y2="178.9" stroke="#4b5563" stroke-width="0.8" stroke-dasharray="6 3" />
</svg>