<svg xmlns="http://www.w3.org/2000/svg" viewBox="0 0 800 300" width="800" height="300">
<style>
.axis-line { stroke: #6b7280; stroke-width: 0.5; }
.axis-text { font-family: monospace; font-size: 11px; fill: #9ca3af; }
.title-text { font-family: monospace; font-size: 14px; fill: #d1d5db; font-weight: bold; }
.grid-line { stroke: #374151; stroke-width: 0.3; stroke-dasharray: 4 2; }
.path-0 { fill: none; stroke: #3b82f6; stroke-width: 2; stroke-linecap: round; opacity: 0.85; animation: draw-0 8s ease-in-out 0.0s infinite; stroke-dasharray: 919; stroke-dashoffset: 919;}
@keyframes draw-0 { 0% { stroke-dashoffset: 919; } 38% { stroke-dashoffset: 0; } 62% { stroke-dashoffset: 0; } 100% { stroke-dashoffset: 919; }}
.path-1 { fill: none; stroke: #ef4444; stroke-width: 2; stroke-linecap: round; opacity: 0.85; animation: draw-1 8s ease-in-out 0.4s infinite; stroke-dasharray: 940; stroke-dashoffset: 940;}
@keyframes draw-1 { 0% { stroke-dashoffset: 940; } 38% { stroke-dashoffset: 0; } 62% { stroke-dashoffset: 0; } 100% { stroke-dashoffset: 940; }}
.path-2 { fill: none; stroke: #22c55e; stroke-width: 2; stroke-linecap: round; opacity: 0.85; animation: draw-2 8s ease-in-out 0.8s infinite; stroke-dasharray: 945; stroke-dashoffset: 945;}
@keyframes draw-2 { 0% { stroke-dashoffset: 945; } 38% { stroke-dashoffset: 0; } 62% { stroke-dashoffset: 0; } 100% { stroke-dashoffset: 945; }}
.path-3 { fill: none; stroke: #f59e0b; stroke-width: 2; stroke-linecap: round; opacity: 0.85; animation: draw-3 8s ease-in-out 1.2000000000000002s infinite; stroke-dasharray: 903; stroke-dashoffset: 903;}
@keyframes draw-3 { 0% { stroke-dashoffset: 903; } 38% { stroke-dashoffset: 0; } 62% { stroke-dashoffset: 0; } 100% { stroke-dashoffset: 903; }}
.path-4 { fill: none; stroke: #a855f7; stroke-width: 2; stroke-linecap: round; opacity: 0.85; animation: draw-4 8s ease-in-out 1.6s infinite; stroke-dasharray: 910; stroke-dashoffset: 910;}
@keyframes draw-4 { 0% { stroke-dashoffset: 910; } 38% { stroke-dashoffset: 0; } 62% { stroke-dashoffset: 0; } 100% { stroke-dashoffset: 910; }}
</style>
<rect width="800" height="300" rx="8" fill="#0d1117" />
<line x1="50" y1="260.0" x2="780" y2="260.0" class="grid-line" />
<text x="44" y="264.0" text-anchor="end" class="axis-text">-3.4</text>
<line x1="50" y1="216.0" x2="780" y2="216.0" class="grid-line" />
<text x="44" y="220.0" text-anchor="end" class="axis-text">-2.4</text>
<line x1="50" y1="172.0" x2="780" y2="172.0" class="grid-line" />
<text x="44" y="176.0" text-anchor="end" class="axis-text">-1.3</text>
<line x1="50" y1="128.0" x2="780" y2="128.0" class="grid-line" />
<text x="44" y="132.0" text-anchor="end" class="axis-text">-0.3</text>
<line x1="50" y1="84.0" x2="780" y2="84.0" class="grid-line" />
<text x="44" y="88.0" text-anchor="end" class="axis-text">0.8</text>
<line x1="50" y1="40.0" x2="780" y2="40.0" class="grid-line" />
<text x="44" y="44.0" text-anchor="end" class="axis-text">1.8</text>
<line x1="50.0" y1="40" x2="50.0" y2="260" class="grid-line" />
<line x1="196.0" y1="40" x2="196.0" y2="260" class="grid-line" />
<line x1="342.0" y1="40" x2="342.0" y2="260" class="grid-line" />
<line x1="488.0" y1="40" x2="488.0" y2="260" class="grid-line" />
<line x1="634.0" y1="40" x2="634.0" y2="260" class="grid-line" />
<line x1="780.0" y1="40" x2="780.0" y2="260" class="grid-line" />
<line x1="50" y1="260" x2="780" y2="260" class="axis-line" />
<line x1="50" y1="40" x2="50" y2="260" class="axis-line" />
<text x="400.0" y="295" text-anchor="middle" class="axis-text">t</text>
<text x="12" y="150.0" text-anchor="middle" class="axis-text" transform="rotate(-90 12 150.0)">W(t)</text>
<text x="400.0" y="22" text-anchor="middle" class="title-text">Brownian Motion</text>
<path d="M 50.00 116.83 L 53.65 117.17 L 57.30 115.00 L 60.95 115.26 L 64.60 118.02 L 68.25 119.51 L 71.90 113.22 L 75.55 112.59 L 79.20 114.81 L 82.85 115.89 L 86.50 114.12 L 90.15 116.08 L 93.80 118.42 L 97.45 118.19 L 101.10 124.23 L 104.75 121.86 L 108.40 124.39 L 112.05 121.99 L 115.70 120.06 L 119.35 118.08 L 123.00 117.20 L 126.65 116.74 L 130.30 124.68 L 133.95 122.50 L 137.60 118.74 L 141.25 118.01 L 144.90 120.82 L 148.55 117.08 L 152.20 114.46 L 155.85 114.35 L 159.50 114.39 L 163.15 119.49 L 166.80 121.75 L 170.45 119.80 L 174.10 114.96 L 177.75 109.76 L 181.40 108.21 L 185.05 112.35 L 188.70 115.60 L 192.35 118.10 L 196.00 119.12 L 199.65 117.91 L 203.30 117.81 L 206.95 116.29 L 210.60 113.38 L 214.25 112.19 L 217.90 109.94 L 221.55 110.07 L 225.20 109.66 L 228.85 109.95 L 232.50 108.00 L 236.15 111.19 L 239.80 110.13 L 243.45 107.81 L 247.10 108.06 L 250.75 110.07 L 254.40 105.28 L 258.05 100.04 L 261.70 105.24 L 265.35 104.46 L 269.00 106.74 L 272.65 108.84 L 276.30 105.85 L 279.95 102.90 L 283.60 101.70 L 287.25 99.37 L 290.90 98.67 L 294.55 99.57 L 298.20 98.30 L 301.85 98.64 L 305.50 96.84 L 309.15 96.43 L 312.80 97.70 L 316.45 99.06 L 320.10 94.63 L 323.75 90.66 L 327.40 93.47 L 331.05 91.75 L 334.70 87.05 L 338.35 86.78 L 342.00 95.01 L 345.65 96.80 L 349.30 91.63 L 352.95 87.32 L 356.60 87.82 L 360.25 89.74 L 363.90 95.48 L 367.55 97.28 L 371.20 92.01 L 374.85 95.72 L 378.50 94.83 L 382.15 97.39 L 385.80 100.57 L 389.45 96.87 L 393.10 95.30 L 396.75 93.92 L 400.40 90.90 L 404.05 92.88 L 407.70 94.25 L 411.35 96.31 L 415.00 95.94 L 418.65 96.37 L 422.30 98.41 L 425.95 96.00 L 429.60 96.91 L 433.25 96.02 L 436.90 103.62 L 440.55 106.21 L 444.20 108.67 L 447.85 107.20 L 451.50 110.45 L 455.15 113.58 L 458.80 116.54 L 462.45 118.07 L 466.10 122.77 L 469.75 123.08 L 473.40 118.07 L 477.05 111.46 L 480.70 109.91 L 484.35 109.52 L 488.00 110.49 L 491.65 112.69 L 495.30 107.19 L 498.95 107.73 L 502.60 105.57 L 506.25 110.50 L 509.90 110.39 L 513.55 109.47 L 517.20 107.15 L 520.85 107.57 L 524.50 108.22 L 528.15 105.90 L 531.80 106.90 L 535.45 107.08 L 539.10 105.55 L 542.75 110.74 L 546.40 111.86 L 550.05 116.17 L 553.70 113.97 L 557.35 116.65 L 561.00 115.26 L 564.65 120.06 L 568.30 117.79 L 571.95 118.39 L 575.60 111.46 L 579.25 109.86 L 582.90 110.13 L 586.55 113.90 L 590.20 116.98 L 593.85 118.48 L 597.50 117.19 L 601.15 111.42 L 604.80 114.72 L 608.45 119.33 L 612.10 116.61 L 615.75 117.47 L 619.40 114.73 L 623.05 113.89 L 626.70 113.76 L 630.35 114.84 L 634.00 108.22 L 637.65 109.80 L 641.30 109.36 L 644.95 110.23 L 648.60 113.72 L 652.25 109.83 L 655.90 109.09 L 659.55 110.57 L 663.20 108.53 L 666.85 107.70 L 670.50 107.27 L 674.15 105.91 L 677.80 107.28 L 681.45 109.02 L 685.10 110.21 L 688.75 111.27 L 692.40 110.64 L 696.05 110.62 L 699.70 108.24 L 703.35 110.69 L 707.00 108.61 L 710.65 109.40 L 714.30 114.64 L 717.95 111.89 L 721.60 112.63 L 725.25 112.91 L 728.90 117.31 L 732.55 116.64 L 736.20 117.60 L 739.85 113.58 L 743.50 112.80 L 747.15 115.18 L 750.80 119.06 L 754.45 123.54 L 758.10 125.45 L 761.75 125.37 L 765.40 118.97 L 769.05 116.40 L 772.70 116.84 L 776.35 122.88 L 780.00 121.03" class="path-0" />
<path d="M 50.00 116.83 L 53.65 119.21 L 57.30 125.23 L 60.95 121.56 L 64.60 127.16 L 68.25 130.66 L 71.90 131.77 L 75.55 132.40 L 79.20 131.43 L 82.85 129.60 L 86.50 128.93 L 90.15 127.96 L 93.80 130.87 L 97.45 134.59 L 101.10 129.13 L 104.75 126.54 L 108.40 126.65 L 112.05 130.20 L 115.70 132.83 L 119.35 130.98 L 123.00 135.21 L 126.65 140.58 L 130.30 141.30 L 133.95 142.22 L 137.60 139.03 L 141.25 141.51 L 144.90 140.49 L 148.55 137.76 L 152.20 139.56 L 155.85 138.52 L 159.50 140.93 L 163.15 144.24 L 166.80 145.87 L 170.45 143.88 L 174.10 146.49 L 177.75 147.39 L 181.40 142.96 L 185.05 149.94 L 188.70 155.22 L 192.35 150.11 L 196.00 148.98 L 199.65 151.05 L 203.30 151.80 L 206.95 153.52 L 210.60 158.15 L 214.25 160.94 L 217.90 159.70 L 221.55 155.77 L 225.20 154.95 L 228.85 153.20 L 232.50 150.77 L 236.15 148.26 L 239.80 149.97 L 243.45 151.19 L 247.10 152.83 L 250.75 150.77 L 254.40 153.73 L 258.05 151.77 L 261.70 150.09 L 265.35 152.64 L 269.00 157.08 L 272.65 155.09 L 276.30 154.72 L 279.95 152.27 L 283.60 155.81 L 287.25 150.38 L 290.90 144.71 L 294.55 140.41 L 298.20 137.24 L 301.85 135.12 L 305.50 131.60 L 309.15 128.09 L 312.80 126.06 L 316.45 125.25 L 320.10 125.97 L 323.75 126.53 L 327.40 129.58 L 331.05 136.70 L 334.70 143.05 L 338.35 141.74 L 342.00 140.71 L 345.65 145.15 L 349.30 144.65 L 352.95 141.92 L 356.60 140.65 L 360.25 144.49 L 363.90 144.39 L 367.55 142.48 L 371.20 140.66 L 374.85 141.09 L 378.50 140.43 L 382.15 140.60 L 385.80 139.65 L 389.45 138.91 L 393.10 139.06 L 396.75 140.65 L 400.40 138.84 L 404.05 144.20 L 407.70 143.86 L 411.35 140.42 L 415.00 139.06 L 418.65 142.60 L 422.30 143.26 L 425.95 136.34 L 429.60 132.82 L 433.25 135.69 L 436.90 135.12 L 440.55 141.43 L 444.20 145.12 L 447.85 139.65 L 451.50 140.00 L 455.15 138.97 L 458.80 139.10 L 462.45 142.27 L 466.10 142.74 L 469.75 147.40 L 473.40 146.63 L 477.05 145.33 L 480.70 141.80 L 484.35 145.04 L 488.00 140.24 L 491.65 136.93 L 495.30 136.94 L 498.95 136.46 L 502.60 137.90 L 506.25 140.87 L 509.90 144.86 L 513.55 139.94 L 517.20 134.43 L 520.85 134.59 L 524.50 134.46 L 528.15 128.97 L 531.80 124.33 L 535.45 127.61 L 539.10 123.66 L 542.75 119.68 L 546.40 121.30 L 550.05 116.02 L 553.70 118.27 L 557.35 118.45 L 561.00 117.22 L 564.65 121.03 L 568.30 118.47 L 571.95 118.89 L 575.60 118.32 L 579.25 121.46 L 582.90 123.83 L 586.55 124.99 L 590.20 124.00 L 593.85 124.94 L 597.50 128.86 L 601.15 133.16 L 604.80 136.43 L 608.45 138.07 L 612.10 139.83 L 615.75 137.77 L 619.40 134.74 L 623.05 137.99 L 626.70 134.16 L 630.35 133.65 L 634.00 136.47 L 637.65 136.84 L 641.30 135.75 L 644.95 141.15 L 648.60 139.93 L 652.25 146.38 L 655.90 147.48 L 659.55 147.85 L 663.20 146.77 L 666.85 147.56 L 670.50 145.65 L 674.15 143.46 L 677.80 139.67 L 681.45 144.04 L 685.10 139.95 L 688.75 139.56 L 692.40 141.06 L 696.05 138.52 L 699.70 140.13 L 703.35 137.27 L 707.00 138.32 L 710.65 135.82 L 714.30 136.59 L 717.95 141.65 L 721.60 143.83 L 725.25 141.58 L 728.90 143.90 L 732.55 147.89 L 736.20 153.50 L 739.85 151.66 L 743.50 150.18 L 747.15 147.29 L 750.80 144.70 L 754.45 140.42 L 758.10 143.09 L 761.75 139.29 L 765.40 138.57 L 769.05 137.28 L 772.70 137.16 L 776.35 133.37 L 780.00 140.02" class="path-1" />
<path d="M 50.00 116.83 L 53.65 120.31 L 57.30 121.72 L 60.95 120.35 L 64.60 116.13 L 68.25 117.58 L 71.90 118.20 L 75.55 118.13 L 79.20 112.13 L 82.85 110.71 L 86.50 107.97 L 90.15 104.06 L 93.80 107.21 L 97.45 107.38 L 101.10 107.66 L 104.75 111.74 L 108.40 115.36 L 112.05 116.32 L 115.70 121.54 L 119.35 124.82 L 123.00 128.77 L 126.65 131.09 L 130.30 135.04 L 133.95 130.20 L 137.60 127.01 L 141.25 130.42 L 144.90 134.90 L 148.55 140.73 L 152.20 139.63 L 155.85 142.10 L 159.50 145.50 L 163.15 139.12 L 166.80 144.01 L 170.45 146.04 L 174.10 144.20 L 177.75 142.09 L 181.40 143.49 L 185.05 141.59 L 188.70 140.99 L 192.35 143.13 L 196.00 142.25 L 199.65 144.80 L 203.30 148.04 L 206.95 148.42 L 210.60 148.65 L 214.25 147.49 L 217.90 154.78 L 221.55 154.20 L 225.20 151.97 L 228.85 152.02 L 232.50 153.62 L 236.15 151.12 L 239.80 147.61 L 243.45 149.90 L 247.10 148.26 L 250.75 150.73 L 254.40 152.75 L 258.05 157.92 L 261.70 158.15 L 265.35 160.58 L 269.00 155.27 L 272.65 154.77 L 276.30 155.78 L 279.95 158.43 L 283.60 157.12 L 287.25 157.38 L 290.90 159.06 L 294.55 163.25 L 298.20 164.74 L 301.85 163.92 L 305.50 167.50 L 309.15 174.93 L 312.80 173.60 L 316.45 178.24 L 320.10 179.85 L 323.75 181.31 L 327.40 178.87 L 331.05 182.29 L 334.70 181.13 L 338.35 181.17 L 342.00 181.30 L 345.65 178.64 L 349.30 181.61 L 352.95 181.63 L 356.60 178.79 L 360.25 178.80 L 363.90 176.73 L 367.55 177.11 L 371.20 176.66 L 374.85 176.19 L 378.50 178.59 L 382.15 177.05 L 385.80 176.05 L 389.45 179.71 L 393.10 179.35 L 396.75 184.92 L 400.40 192.29 L 404.05 194.41 L 407.70 200.58 L 411.35 200.66 L 415.00 202.33 L 418.65 202.16 L 422.30 205.95 L 425.95 203.13 L 429.60 200.67 L 433.25 196.48 L 436.90 187.09 L 440.55 188.61 L 444.20 187.72 L 447.85 187.56 L 451.50 194.10 L 455.15 194.62 L 458.80 190.26 L 462.45 190.10 L 466.10 190.16 L 469.75 191.02 L 473.40 192.50 L 477.05 190.00 L 480.70 194.39 L 484.35 190.66 L 488.00 195.72 L 491.65 193.51 L 495.30 190.43 L 498.95 191.42 L 502.60 193.46 L 506.25 192.47 L 509.90 190.55 L 513.55 189.42 L 517.20 187.92 L 520.85 189.60 L 524.50 192.35 L 528.15 188.85 L 531.80 193.82 L 535.45 193.34 L 539.10 197.07 L 542.75 197.34 L 546.40 198.21 L 550.05 195.56 L 553.70 196.49 L 557.35 195.54 L 561.00 198.43 L 564.65 197.28 L 568.30 195.41 L 571.95 200.22 L 575.60 205.03 L 579.25 202.18 L 582.90 204.66 L 586.55 202.58 L 590.20 207.95 L 593.85 210.58 L 597.50 216.00 L 601.15 211.80 L 604.80 208.22 L 608.45 208.76 L 612.10 211.99 L 615.75 216.78 L 619.40 217.77 L 623.05 214.76 L 626.70 210.28 L 630.35 202.94 L 634.00 201.94 L 637.65 202.55 L 641.30 208.08 L 644.95 207.14 L 648.60 204.91 L 652.25 202.71 L 655.90 198.72 L 659.55 205.65 L 663.20 204.98 L 666.85 205.78 L 670.50 211.23 L 674.15 213.18 L 677.80 215.42 L 681.45 216.52 L 685.10 211.45 L 688.75 214.10 L 692.40 211.66 L 696.05 209.31 L 699.70 208.53 L 703.35 213.76 L 707.00 217.20 L 710.65 215.85 L 714.30 215.91 L 717.95 212.60 L 721.60 215.99 L 725.25 218.09 L 728.90 214.61 L 732.55 214.10 L 736.20 213.02 L 739.85 211.61 L 743.50 209.76 L 747.15 208.88 L 750.80 209.01 L 754.45 208.92 L 758.10 212.52 L 761.75 216.97 L 765.40 219.19 L 769.05 224.09 L 772.70 231.71 L 776.35 234.01 L 780.00 234.62" class="path-2" />
<path d="M 50.00 116.83 L 53.65 109.19 L 57.30 105.59 L 60.95 104.33 L 64.60 105.16 L 68.25 105.34 L 71.90 104.68 L 75.55 110.46 L 79.20 109.65 L 82.85 111.74 L 86.50 106.59 L 90.15 104.27 L 93.80 107.20 L 97.45 104.94 L 101.10 109.24 L 104.75 115.06 L 108.40 110.03 L 112.05 111.04 L 115.70 114.26 L 119.35 112.74 L 123.00 111.73 L 126.65 107.03 L 130.30 106.17 L 133.95 104.73 L 137.60 103.03 L 141.25 102.06 L 144.90 101.31 L 148.55 105.35 L 152.20 107.30 L 155.85 110.09 L 159.50 114.89 L 163.15 119.88 L 166.80 119.50 L 170.45 122.29 L 174.10 121.54 L 177.75 122.88 L 181.40 121.93 L 185.05 121.92 L 188.70 121.02 L 192.35 124.25 L 196.00 128.60 L 199.65 123.59 L 203.30 128.46 L 206.95 130.87 L 210.60 129.81 L 214.25 124.33 L 217.90 123.95 L 221.55 122.70 L 225.20 122.09 L 228.85 119.22 L 232.50 117.47 L 236.15 121.05 L 239.80 122.76 L 243.45 122.82 L 247.10 118.39 L 250.75 116.29 L 254.40 116.16 L 258.05 120.17 L 261.70 123.94 L 265.35 126.71 L 269.00 124.69 L 272.65 122.05 L 276.30 119.61 L 279.95 120.67 L 283.60 121.25 L 287.25 118.17 L 290.90 117.16 L 294.55 118.62 L 298.20 119.51 L 301.85 121.86 L 305.50 121.71 L 309.15 123.44 L 312.80 125.82 L 316.45 128.26 L 320.10 129.38 L 323.75 131.80 L 327.40 130.05 L 331.05 127.34 L 334.70 133.21 L 338.35 134.73 L 342.00 136.35 L 345.65 136.19 L 349.30 132.67 L 352.95 128.18 L 356.60 130.26 L 360.25 128.33 L 363.90 126.22 L 367.55 130.01 L 371.20 137.59 L 374.85 139.74 L 378.50 140.43 L 382.15 140.02 L 385.80 141.48 L 389.45 142.39 L 393.10 143.55 L 396.75 144.27 L 400.40 142.54 L 404.05 144.95 L 407.70 142.85 L 411.35 142.58 L 415.00 142.36 L 418.65 139.12 L 422.30 132.46 L 425.95 133.26 L 429.60 132.51 L 433.25 131.97 L 436.90 133.04 L 440.55 132.18 L 444.20 131.99 L 447.85 132.79 L 451.50 135.02 L 455.15 135.44 L 458.80 134.33 L 462.45 134.78 L 466.10 136.75 L 469.75 135.66 L 473.40 132.76 L 477.05 129.15 L 480.70 127.93 L 484.35 131.94 L 488.00 134.18 L 491.65 133.79 L 495.30 131.27 L 498.95 135.45 L 502.60 135.47 L 506.25 132.50 L 509.90 134.64 L 513.55 136.65 L 517.20 138.80 L 520.85 141.93 L 524.50 138.82 L 528.15 137.64 L 531.80 136.44 L 535.45 136.58 L 539.10 133.60 L 542.75 129.99 L 546.40 127.70 L 550.05 127.53 L 553.70 128.63 L 557.35 124.12 L 561.00 118.48 L 564.65 116.08 L 568.30 113.06 L 571.95 115.14 L 575.60 115.73 L 579.25 112.07 L 582.90 111.22 L 586.55 112.38 L 590.20 112.47 L 593.85 111.83 L 597.50 107.58 L 601.15 109.64 L 604.80 109.85 L 608.45 117.82 L 612.10 124.47 L 615.75 123.97 L 619.40 124.46 L 623.05 122.43 L 626.70 122.99 L 630.35 124.62 L 634.00 127.12 L 637.65 129.14 L 641.30 121.55 L 644.95 118.70 L 648.60 113.70 L 652.25 112.27 L 655.90 112.45 L 659.55 114.57 L 663.20 112.98 L 666.85 114.89 L 670.50 116.36 L 674.15 115.64 L 677.80 114.09 L 681.45 109.45 L 685.10 107.66 L 688.75 107.45 L 692.40 107.05 L 696.05 105.09 L 699.70 106.84 L 703.35 107.74 L 707.00 108.07 L 710.65 108.13 L 714.30 104.54 L 717.95 101.94 L 721.60 100.01 L 725.25 101.05 L 728.90 102.86 L 732.55 100.88 L 736.20 102.72 L 739.85 100.91 L 743.50 95.26 L 747.15 100.72 L 750.80 100.35 L 754.45 100.89 L 758.10 101.62 L 761.75 102.43 L 765.40 103.57 L 769.05 100.49 L 772.70 97.67 L 776.35 95.29 L 780.00 96.71" class="path-3" />
<path d="M 50.00 116.83 L 53.65 116.14 L 57.30 117.22 L 60.95 117.26 L 64.60 114.40 L 68.25 113.64 L 71.90 111.96 L 75.55 108.18 L 79.20 108.51 L 82.85 107.59 L 86.50 105.82 L 90.15 112.04 L 93.80 112.42 L 97.45 111.40 L 101.10 108.13 L 104.75 108.09 L 108.40 102.98 L 112.05 101.04 L 115.70 100.62 L 119.35 101.04 L 123.00 104.30 L 126.65 104.15 L 130.30 102.99 L 133.95 101.97 L 137.60 97.95 L 141.25 98.56 L 144.90 96.06 L 148.55 101.25 L 152.20 104.29 L 155.85 100.27 L 159.50 99.40 L 163.15 95.32 L 166.80 97.35 L 170.45 95.23 L 174.10 97.47 L 177.75 94.15 L 181.40 95.78 L 185.05 98.47 L 188.70 97.09 L 192.35 97.44 L 196.00 94.83 L 199.65 96.73 L 203.30 97.23 L 206.95 100.15 L 210.60 100.98 L 214.25 100.46 L 217.90 102.97 L 221.55 96.91 L 225.20 91.31 L 228.85 93.66 L 232.50 90.56 L 236.15 91.03 L 239.80 92.27 L 243.45 90.85 L 247.10 89.63 L 250.75 91.66 L 254.40 87.49 L 258.05 91.93 L 261.70 88.07 L 265.35 84.71 L 269.00 84.11 L 272.65 86.36 L 276.30 80.41 L 279.95 76.95 L 283.60 73.08 L 287.25 77.22 L 290.90 77.51 L 294.55 76.05 L 298.20 76.36 L 301.85 80.34 L 305.50 79.81 L 309.15 78.22 L 312.80 76.57 L 316.45 75.85 L 320.10 74.41 L 323.75 73.16 L 327.40 70.20 L 331.05 69.36 L 334.70 68.27 L 338.35 68.83 L 342.00 69.92 L 345.65 69.61 L 349.30 67.96 L 352.95 66.42 L 356.60 65.38 L 360.25 72.96 L 363.90 76.81 L 367.55 76.21 L 371.20 80.83 L 374.85 84.33 L 378.50 83.49 L 382.15 82.07 L 385.80 85.83 L 389.45 84.27 L 393.10 81.36 L 396.75 84.06 L 400.40 87.65 L 404.05 86.79 L 407.70 84.82 L 411.35 79.46 L 415.00 84.37 L 418.65 87.55 L 422.30 90.91 L 425.95 92.50 L 429.60 93.79 L 433.25 96.71 L 436.90 95.31 L 440.55 97.13 L 444.20 97.55 L 447.85 96.75 L 451.50 101.53 L 455.15 102.01 L 458.80 101.21 L 462.45 102.93 L 466.10 103.43 L 469.75 97.71 L 473.40 100.35 L 477.05 97.38 L 480.70 94.58 L 484.35 94.05 L 488.00 100.43 L 491.65 97.68 L 495.30 104.00 L 498.95 102.70 L 502.60 100.61 L 506.25 101.20 L 509.90 98.87 L 513.55 99.15 L 517.20 100.48 L 520.85 101.19 L 524.50 101.10 L 528.15 102.25 L 531.80 103.87 L 535.45 100.43 L 539.10 100.85 L 542.75 99.86 L 546.40 105.07 L 550.05 109.05 L 553.70 110.14 L 557.35 113.44 L 561.00 116.51 L 564.65 114.50 L 568.30 115.19 L 571.95 115.59 L 575.60 114.17 L 579.25 112.11 L 582.90 111.35 L 586.55 105.53 L 590.20 109.74 L 593.85 112.59 L 597.50 115.90 L 601.15 114.29 L 604.80 119.78 L 608.45 118.01 L 612.10 117.21 L 615.75 118.12 L 619.40 115.00 L 623.05 114.27 L 626.70 112.49 L 630.35 114.37 L 634.00 117.72 L 637.65 119.15 L 641.30 118.99 L 644.95 118.98 L 648.60 119.62 L 652.25 117.74 L 655.90 116.02 L 659.55 110.62 L 663.20 103.70 L 666.85 100.97 L 670.50 100.97 L 674.15 101.30 L 677.80 101.39 L 681.45 96.34 L 685.10 92.67 L 688.75 92.06 L 692.40 96.58 L 696.05 101.63 L 699.70 101.58 L 703.35 98.75 L 707.00 100.31 L 710.65 101.64 L 714.30 103.16 L 717.95 107.10 L 721.60 110.56 L 725.25 108.31 L 728.90 107.98 L 732.55 105.62 L 736.20 106.80 L 739.85 109.65 L 743.50 106.22 L 747.15 103.04 L 750.80 106.65 L 754.45 111.29 L 758.10 111.58 L 761.75 106.84 L 765.40 106.67 L 769.05 108.23 L 772.70 109.51 L 776.35 109.56 L 780.00 103.93" class="path-4" />
<line x1="50" y1="116.8" x2="780" y2="116.8" stroke="#4b5563" stroke-width="0.8" stroke-dasharray="6 3" />
</svg>