<svg xmlns="http://www.w3.org/2000/svg" viewBox="0 0 800 300" width="800" height="300">
<style>
.axis-line { stroke: #6b7280; stroke-width: 0.5; }
.axis-text { font-family: monospace; font-size: 11px; fill: #9ca3af; }
.title-text { font-family: monospace; font-size: 14px; fill: #d1d5db; font-weight: bold; }
.grid-line { stroke: #374151; stroke-width: 0.3; stroke-dasharray: 4 2; }
.path-0 { fill: none; stroke: #3b82f6; stroke-width: 2; stroke-linecap: round; opacity: 0.85; animation: draw-0 8s ease-in-out 0.0s infinite; stroke-dasharray: 1025; stroke-dashoffset: 1025;}
@keyframes draw-0 { 0% { stroke-dashoffset: 1025; } 38% { stroke-dashoffset: 0; } 62% { stroke-dashoffset: 0; } 100% { stroke-dashoffset: 1025; }}
.path-1 { fill: none; stroke: #ef4444; stroke-width: 2; stroke-linecap: round; opacity: 0.85; animation: draw-1 8s ease-in-out 0.4s infinite; stroke-dasharray: 1013; stroke-dashoffset: 1013;}
@keyframes draw-1 { 0% { stroke-dashoffset: 1013; } 38% { stroke-dashoffset: 0; } 62% { stroke-dashoffset: 0; } 100% { stroke-dashoffset: 1013; }}
.path-2 { fill: none; stroke: #22c55e; stroke-width: 2; stroke-linecap: round; opacity: 0.85; animation: draw-2 8s ease-in-out 0.8s infinite; stroke-dasharray: 1019; stroke-dashoffset: 1019;}
@keyframes draw-2 { 0% { stroke-dashoffset: 1019; } 38% { stroke-dashoffset: 0; } 62% { stroke-dashoffset: 0; } 100% { stroke-dashoffset: 1019; }}
.path-3 { fill: none; stroke: #f59e0b; stroke-width: 2; stroke-linecap: round; opacity: 0.85; animation: draw-3 8s ease-in-out 1.2000000000000002s infinite; stroke-dasharray: 1017; stroke-dashoffset: 1017;}
@keyframes draw-3 { 0% { stroke-dashoffset: 1017; } 38% { stroke-dashoffset: 0; } 62% { stroke-dashoffset: 0; } 100% { stroke-dashoffset: 1017; }}
.path-4 { fill: none; stroke: #a855f7; stroke-width: 2; stroke-linecap: round; opacity: 0.85; animation: draw-4 8s ease-in-out 1.6s infinite; stroke-dasharray: 1011; stroke-dashoffset: 1011;}
@keyframes draw-4 { 0% { stroke-dashoffset: 1011; } 38% { stroke-dashoffset: 0; } 62% { stroke-dashoffset: 0; } 100% { stroke-dashoffset: 1011; }}
</style>
<rect width="800" height="300" rx="8" fill="#0d1117" />
<line x1="50" y1="260.0" x2="780" y2="260.0" class="grid-line" />
<text x="44" y="264.0" text-anchor="end" class="axis-text">-2.0</text>
<line x1="50" y1="216.0" x2="780" y2="216.0" class="grid-line" />
<text x="44" y="220.0" text-anchor="end" class="axis-text">-1.2</text>
<line x1="50" y1="172.0" x2="780" y2="172.0" class="grid-line" />
<text x="44" y="176.0" text-anchor="end" class="axis-text">-0.4</text>
<line x1="50" y1="128.0" x2="780" y2="128.0" class="grid-line" />
<text x="44" y="132.0" text-anchor="end" class="axis-text">0.4</text>
<line x1="50" y1="84.0" x2="780" y2="84.0" class="grid-line" />
<text x="44" y="88.0" text-anchor="end" class="axis-text">1.2</text>
<line x1="50" y1="40.0" x2="780" y2="40.0" class="grid-line" />
<text x="44" y="44.0" text-anchor="end" class="axis-text">2.0</text>
<line x1="50.0" y1="40" x2="50.0" y2="260" class="grid-line" />
<line x1="196.0" y1="40" x2="196.0" y2="260" class="grid-line" />
<line x1="342.0" y1="40" x2="342.0" y2="260" class="grid-line" />
<line x1="488.0" y1="40" x2="488.0" y2="260" class="grid-line" />
<line x1="634.0" y1="40" x2="634.0" y2="260" class="grid-line" />
<line x1="780.0" y1="40" x2="780.0" y2="260" class="grid-line" />
<line x1="50" y1="260" x2="780" y2="260" class="axis-line" />
<line x1="50" y1="40" x2="50" y2="260" class="axis-line" />
<text x="400.0" y="295" text-anchor="middle" class="axis-text">t</text>
<text x="12" y="150.0" text-anchor="middle" class="axis-text" transform="rotate(-90 12 150.0)">W(t)</text>
<text x="400.0" y="22" text-anchor="middle" class="title-text">Brownian Motion</text>
<path d="M 50.00 151.11 L 53.65 153.10 L 57.30 154.47 L 60.95 153.61 L 64.60 156.78 L 68.25 159.08 L 71.90 160.53 L 75.55 163.04 L 79.20 160.23 L 82.85 153.45 L 86.50 150.32 L 90.15 152.63 L 93.80 154.56 L 97.45 155.20 L 101.10 157.15 L 104.75 155.29 L 108.40 155.80 L 112.05 148.44 L 115.70 148.10 L 119.35 151.55 L 123.00 152.21 L 126.65 153.12 L 130.30 155.72 L 133.95 160.15 L 137.60 165.80 L 141.25 167.18 L 144.90 171.92 L 148.55 171.95 L 152.20 170.70 L 155.85 168.24 L 159.50 161.49 L 163.15 163.69 L 166.80 156.96 L 170.45 160.10 L 174.10 165.58 L 177.75 160.91 L 181.40 157.01 L 185.05 155.88 L 188.70 157.62 L 192.35 163.92 L 196.00 168.73 L 199.65 178.53 L 203.30 181.68 L 206.95 177.96 L 210.60 183.14 L 214.25 174.16 L 217.90 175.24 L 221.55 177.60 L 225.20 172.88 L 228.85 170.95 L 232.50 170.02 L 236.15 168.18 L 239.80 169.93 L 243.45 167.93 L 247.10 172.60 L 250.75 176.56 L 254.40 182.42 L 258.05 184.35 L 261.70 184.27 L 265.35 188.63 L 269.00 184.96 L 272.65 184.87 L 276.30 183.71 L 279.95 182.38 L 283.60 181.10 L 287.25 180.69 L 290.90 178.23 L 294.55 178.30 L 298.20 175.52 L 301.85 172.97 L 305.50 164.86 L 309.15 168.15 L 312.80 161.67 L 316.45 158.84 L 320.10 154.39 L 323.75 157.90 L 327.40 160.79 L 331.05 157.32 L 334.70 157.76 L 338.35 168.23 L 342.00 168.06 L 345.65 170.45 L 349.30 167.39 L 352.95 167.66 L 356.60 164.36 L 360.25 169.65 L 363.90 161.01 L 367.55 159.44 L 371.20 156.74 L 374.85 162.87 L 378.50 159.37 L 382.15 162.09 L 385.80 160.42 L 389.45 159.66 L 393.10 160.79 L 396.75 155.57 L 400.40 153.15 L 404.05 150.56 L 407.70 150.43 L 411.35 148.47 L 415.00 154.05 L 418.65 152.87 L 422.30 154.46 L 425.95 156.50 L 429.60 160.71 L 433.25 165.35 L 436.90 164.13 L 440.55 163.83 L 444.20 165.84 L 447.85 169.96 L 451.50 169.18 L 455.15 169.97 L 458.80 168.93 L 462.45 170.24 L 466.10 167.88 L 469.75 167.55 L 473.40 166.90 L 477.05 167.70 L 480.70 171.53 L 484.35 168.04 L 488.00 165.80 L 491.65 168.53 L 495.30 171.87 L 498.95 174.83 L 502.60 179.17 L 506.25 183.48 L 509.90 179.32 L 513.55 180.31 L 517.20 176.19 L 520.85 181.50 L 524.50 178.64 L 528.15 178.58 L 531.80 182.15 L 535.45 175.66 L 539.10 171.10 L 542.75 176.38 L 546.40 175.91 L 550.05 172.90 L 553.70 179.60 L 557.35 172.20 L 561.00 170.37 L 564.65 168.45 L 568.30 166.98 L 571.95 160.46 L 575.60 159.22 L 579.25 158.64 L 582.90 160.54 L 586.55 150.61 L 590.20 149.29 L 593.85 151.24 L 597.50 149.07 L 601.15 151.90 L 604.80 158.68 L 608.45 147.81 L 612.10 138.01 L 615.75 138.71 L 619.40 142.39 L 623.05 143.10 L 626.70 142.84 L 630.35 140.88 L 634.00 142.16 L 637.65 136.09 L 641.30 140.00 L 644.95 144.58 L 648.60 134.45 L 652.25 138.64 L 655.90 133.04 L 659.55 130.87 L 663.20 132.54 L 666.85 130.53 L 670.50 128.00 L 674.15 132.59 L 677.80 135.46 L 681.45 140.37 L 685.10 144.38 L 688.75 148.09 L 692.40 147.07 L 696.05 143.52 L 699.70 142.99 L 703.35 144.43 L 707.00 150.60 L 710.65 153.09 L 714.30 150.72 L 717.95 147.08 L 721.60 144.22 L 725.25 145.04 L 728.90 143.16 L 732.55 140.19 L 736.20 140.20 L 739.85 134.16 L 743.50 136.78 L 747.15 137.82 L 750.80 141.01 L 754.45 142.65 L 758.10 145.99 L 761.75 152.09 L 765.40 155.11 L 769.05 151.95 L 772.70 153.77 L 776.35 161.84 L 780.00 159.21" class="path-0" />
<path d="M 50.00 151.11 L 53.65 156.98 L 57.30 152.28 L 60.95 157.93 L 64.60 161.98 L 68.25 163.52 L 71.90 157.95 L 75.55 163.10 L 79.20 160.04 L 82.85 160.16 L 86.50 160.99 L 90.15 162.14 L 93.80 164.09 L 97.45 159.69 L 101.10 158.57 L 104.75 151.28 L 108.40 148.20 L 112.05 144.70 L 115.70 146.15 L 119.35 147.55 L 123.00 148.02 L 126.65 146.46 L 130.30 147.82 L 133.95 149.07 L 137.60 146.29 L 141.25 155.37 L 144.90 153.74 L 148.55 150.86 L 152.20 153.02 L 155.85 159.93 L 159.50 158.25 L 163.15 159.94 L 166.80 159.27 L 170.45 164.78 L 174.10 162.27 L 177.75 159.06 L 181.40 152.72 L 185.05 146.30 L 188.70 141.24 L 192.35 135.45 L 196.00 130.66 L 199.65 130.12 L 203.30 130.83 L 206.95 132.19 L 210.60 134.69 L 214.25 137.85 L 217.90 134.18 L 221.55 134.77 L 225.20 140.21 L 228.85 143.63 L 232.50 147.70 L 236.15 145.40 L 239.80 154.59 L 243.45 151.31 L 247.10 150.81 L 250.75 150.11 L 254.40 152.15 L 258.05 153.66 L 261.70 153.21 L 265.35 149.94 L 269.00 151.47 L 272.65 150.58 L 276.30 149.27 L 279.95 149.51 L 283.60 151.27 L 287.25 150.11 L 290.90 149.95 L 294.55 155.89 L 298.20 159.27 L 301.85 150.93 L 305.50 154.01 L 309.15 148.00 L 312.80 147.45 L 316.45 147.67 L 320.10 144.90 L 323.75 139.75 L 327.40 137.14 L 331.05 134.42 L 334.70 140.08 L 338.35 135.98 L 342.00 142.35 L 345.65 141.57 L 349.30 140.84 L 352.95 137.65 L 356.60 141.14 L 360.25 136.54 L 363.90 137.80 L 367.55 136.90 L 371.20 137.03 L 374.85 141.62 L 378.50 144.81 L 382.15 143.90 L 385.80 144.71 L 389.45 142.84 L 393.10 149.18 L 396.75 140.77 L 400.40 142.96 L 404.05 142.79 L 407.70 142.56 L 411.35 139.40 L 415.00 128.51 L 418.65 127.24 L 422.30 126.06 L 425.95 130.32 L 429.60 127.87 L 433.25 120.47 L 436.90 120.32 L 440.55 120.31 L 444.20 117.72 L 447.85 123.15 L 451.50 121.11 L 455.15 123.75 L 458.80 128.02 L 462.45 130.53 L 466.10 134.83 L 469.75 136.50 L 473.40 143.77 L 477.05 140.02 L 480.70 145.32 L 484.35 141.70 L 488.00 145.74 L 491.65 146.64 L 495.30 150.06 L 498.95 148.27 L 502.60 147.82 L 506.25 146.01 L 509.90 144.64 L 513.55 147.67 L 517.20 155.21 L 520.85 159.02 L 524.50 164.30 L 528.15 166.45 L 531.80 169.77 L 535.45 165.56 L 539.10 170.43 L 542.75 169.70 L 546.40 165.72 L 550.05 158.81 L 553.70 163.47 L 557.35 159.61 L 561.00 159.55 L 564.65 154.89 L 568.30 155.11 L 571.95 161.91 L 575.60 160.43 L 579.25 164.38 L 582.90 156.29 L 586.55 149.19 L 590.20 147.69 L 593.85 147.54 L 597.50 145.23 L 601.15 145.82 L 604.80 151.27 L 608.45 153.79 L 612.10 155.95 L 615.75 158.35 L 619.40 157.42 L 623.05 162.35 L 626.70 164.82 L 630.35 163.03 L 634.00 164.23 L 637.65 166.50 L 641.30 158.18 L 644.95 157.15 L 648.60 157.86 L 652.25 158.40 L 655.90 160.59 L 659.55 164.61 L 663.20 161.47 L 666.85 160.43 L 670.50 161.24 L 674.15 165.75 L 677.80 160.16 L 681.45 159.13 L 685.10 158.47 L 688.75 164.11 L 692.40 165.66 L 696.05 162.32 L 699.70 154.61 L 703.35 156.34 L 707.00 156.32 L 710.65 155.01 L 714.30 157.24 L 717.95 153.67 L 721.60 146.23 L 725.25 148.88 L 728.90 152.46 L 732.55 149.16 L 736.20 147.53 L 739.85 148.36 L 743.50 147.82 L 747.15 144.56 L 750.80 144.54 L 754.45 149.22 L 758.10 147.99 L 761.75 152.03 L 765.40 154.97 L 769.05 152.95 L 772.70 150.00 L 776.35 148.93 L 780.00 149.82" class="path-1" />
<path d="M 50.00 151.11 L 53.65 150.65 L 57.30 156.60 L 60.95 150.55 L 64.60 157.91 L 68.25 159.74 L 71.90 156.67 L 75.55 163.16 L 79.20 162.71 L 82.85 163.36 L 86.50 153.35 L 90.15 149.05 L 93.80 144.39 L 97.45 139.41 L 101.10 139.12 L 104.75 132.60 L 108.40 134.82 L 112.05 124.99 L 115.70 123.34 L 119.35 119.84 L 123.00 121.22 L 126.65 124.37 L 130.30 121.22 L 133.95 120.44 L 137.60 119.01 L 141.25 118.60 L 144.90 122.08 L 148.55 124.62 L 152.20 127.18 L 155.85 128.43 L 159.50 131.15 L 163.15 137.49 L 166.80 132.41 L 170.45 139.72 L 174.10 140.86 L 177.75 140.31 L 181.40 142.42 L 185.05 145.76 L 188.70 144.44 L 192.35 139.83 L 196.00 146.57 L 199.65 146.56 L 203.30 140.18 L 206.95 138.86 L 210.60 131.99 L 214.25 132.28 L 217.90 132.66 L 221.55 134.86 L 225.20 136.19 L 228.85 139.95 L 232.50 142.46 L 236.15 144.71 L 239.80 145.55 L 243.45 147.36 L 247.10 145.00 L 250.75 141.79 L 254.40 145.32 L 258.05 143.91 L 261.70 139.42 L 265.35 138.53 L 269.00 136.04 L 272.65 136.64 L 276.30 136.08 L 279.95 121.78 L 283.60 113.17 L 287.25 104.76 L 290.90 100.56 L 294.55 100.25 L 298.20 96.12 L 301.85 98.11 L 305.50 101.07 L 309.15 100.89 L 312.80 103.20 L 316.45 102.96 L 320.10 100.46 L 323.75 95.97 L 327.40 90.96 L 331.05 93.43 L 334.70 94.01 L 338.35 92.02 L 342.00 93.78 L 345.65 93.94 L 349.30 93.46 L 352.95 95.46 L 356.60 101.54 L 360.25 98.02 L 363.90 102.00 L 367.55 99.44 L 371.20 105.64 L 374.85 110.35 L 378.50 109.01 L 382.15 112.90 L 385.80 113.30 L 389.45 115.78 L 393.10 120.28 L 396.75 121.65 L 400.40 122.69 L 404.05 129.64 L 407.70 124.85 L 411.35 126.12 L 415.00 129.08 L 418.65 125.96 L 422.30 121.69 L 425.95 117.18 L 429.60 110.45 L 433.25 106.19 L 436.90 110.21 L 440.55 111.92 L 444.20 113.42 L 447.85 116.43 L 451.50 118.42 L 455.15 123.32 L 458.80 129.11 L 462.45 129.58 L 466.10 128.47 L 469.75 127.02 L 473.40 126.50 L 477.05 132.72 L 480.70 135.07 L 484.35 134.61 L 488.00 129.68 L 491.65 132.76 L 495.30 132.25 L 498.95 137.36 L 502.60 136.55 L 506.25 138.67 L 509.90 136.01 L 513.55 136.36 L 517.20 133.49 L 520.85 129.84 L 524.50 129.21 L 528.15 127.53 L 531.80 127.10 L 535.45 129.74 L 539.10 127.46 L 542.75 132.51 L 546.40 135.55 L 550.05 132.47 L 553.70 126.20 L 557.35 127.29 L 561.00 133.05 L 564.65 135.40 L 568.30 139.49 L 571.95 143.23 L 575.60 147.43 L 579.25 156.29 L 582.90 155.47 L 586.55 152.92 L 590.20 153.85 L 593.85 149.68 L 597.50 149.98 L 601.15 151.06 L 604.80 147.28 L 608.45 145.96 L 612.10 144.36 L 615.75 145.89 L 619.40 140.76 L 623.05 142.05 L 626.70 143.86 L 630.35 151.97 L 634.00 149.83 L 637.65 143.61 L 641.30 141.23 L 644.95 144.01 L 648.60 135.01 L 652.25 134.53 L 655.90 132.43 L 659.55 137.67 L 663.20 141.95 L 666.85 142.10 L 670.50 145.07 L 674.15 144.43 L 677.80 150.21 L 681.45 143.90 L 685.10 147.32 L 688.75 144.68 L 692.40 143.93 L 696.05 144.69 L 699.70 147.33 L 703.35 144.91 L 707.00 144.99 L 710.65 148.89 L 714.30 147.53 L 717.95 151.66 L 721.60 149.48 L 725.25 146.31 L 728.90 145.55 L 732.55 141.31 L 736.20 143.39 L 739.85 144.87 L 743.50 147.13 L 747.15 150.05 L 750.80 152.80 L 754.45 147.78 L 758.10 150.02 L 761.75 152.09 L 765.40 149.62 L 769.05 153.31 L 772.70 149.07 L 776.35 153.32 L 780.00 157.29" class="path-2" />
<path d="M 50.00 151.11 L 53.65 148.86 L 57.30 153.10 L 60.95 155.33 L 64.60 158.03 L 68.25 156.46 L 71.90 156.73 L 75.55 158.90 L 79.20 159.46 L 82.85 161.96 L 86.50 161.45 L 90.15 167.22 L 93.80 162.91 L 97.45 163.29 L 101.10 166.15 L 104.75 162.82 L 108.40 163.92 L 112.05 163.53 L 115.70 159.41 L 119.35 159.73 L 123.00 159.49 L 126.65 159.88 L 130.30 159.37 L 133.95 153.91 L 137.60 149.51 L 141.25 144.19 L 144.90 146.62 L 148.55 144.80 L 152.20 146.00 L 155.85 142.16 L 159.50 138.82 L 163.15 136.70 L 166.80 131.44 L 170.45 131.01 L 174.10 131.86 L 177.75 134.55 L 181.40 135.36 L 185.05 129.56 L 188.70 125.69 L 192.35 131.32 L 196.00 138.80 L 199.65 140.41 L 203.30 139.46 L 206.95 142.15 L 210.60 146.87 L 214.25 145.90 L 217.90 149.73 L 221.55 158.48 L 225.20 163.77 L 228.85 162.48 L 232.50 169.34 L 236.15 169.24 L 239.80 172.39 L 243.45 170.09 L 247.10 173.84 L 250.75 176.36 L 254.40 177.33 L 258.05 177.79 L 261.70 178.55 L 265.35 178.07 L 269.00 172.65 L 272.65 179.52 L 276.30 176.59 L 279.95 179.02 L 283.60 175.54 L 287.25 176.92 L 290.90 181.97 L 294.55 182.75 L 298.20 180.24 L 301.85 176.49 L 305.50 174.91 L 309.15 172.99 L 312.80 168.58 L 316.45 170.71 L 320.10 173.05 L 323.75 180.64 L 327.40 186.83 L 331.05 184.15 L 334.70 183.93 L 338.35 186.19 L 342.00 177.55 L 345.65 180.33 L 349.30 188.82 L 352.95 184.31 L 356.60 185.59 L 360.25 187.67 L 363.90 185.82 L 367.55 184.07 L 371.20 182.28 L 374.85 178.08 L 378.50 184.85 L 382.15 186.34 L 385.80 187.54 L 389.45 184.30 L 393.10 179.52 L 396.75 177.19 L 400.40 185.32 L 404.05 187.73 L 407.70 192.89 L 411.35 199.21 L 415.00 206.34 L 418.65 208.59 L 422.30 211.45 L 425.95 205.71 L 429.60 215.46 L 433.25 219.05 L 436.90 221.36 L 440.55 229.40 L 444.20 226.53 L 447.85 219.97 L 451.50 221.68 L 455.15 219.64 L 458.80 216.73 L 462.45 214.27 L 466.10 218.71 L 469.75 216.75 L 473.40 216.99 L 477.05 220.96 L 480.70 217.11 L 484.35 215.80 L 488.00 215.33 L 491.65 213.25 L 495.30 216.63 L 498.95 216.41 L 502.60 221.16 L 506.25 225.11 L 509.90 227.37 L 513.55 223.89 L 517.20 223.83 L 520.85 224.00 L 524.50 224.43 L 528.15 226.86 L 531.80 226.43 L 535.45 226.47 L 539.10 223.62 L 542.75 221.77 L 546.40 219.01 L 550.05 219.77 L 553.70 218.54 L 557.35 222.16 L 561.00 214.95 L 564.65 213.32 L 568.30 211.68 L 571.95 214.29 L 575.60 212.27 L 579.25 210.57 L 582.90 219.28 L 586.55 218.62 L 590.20 220.10 L 593.85 211.28 L 597.50 217.19 L 601.15 221.73 L 604.80 226.08 L 608.45 227.49 L 612.10 232.60 L 615.75 230.32 L 619.40 227.75 L 623.05 229.65 L 626.70 232.54 L 630.35 232.32 L 634.00 230.89 L 637.65 234.62 L 641.30 232.39 L 644.95 233.70 L 648.60 230.75 L 652.25 229.19 L 655.90 224.90 L 659.55 226.50 L 663.20 223.82 L 666.85 227.09 L 670.50 233.47 L 674.15 228.59 L 677.80 229.47 L 681.45 226.12 L 685.10 225.26 L 688.75 224.16 L 692.40 224.60 L 696.05 220.05 L 699.70 217.61 L 703.35 214.42 L 707.00 215.93 L 710.65 212.55 L 714.30 209.77 L 717.95 219.39 L 721.60 216.99 L 725.25 217.26 L 728.90 223.97 L 732.55 222.44 L 736.20 229.54 L 739.85 226.46 L 743.50 218.85 L 747.15 217.58 L 750.80 222.21 L 754.45 225.14 L 758.10 224.27 L 761.75 225.46 L 765.40 221.34 L 769.05 222.79 L 772.70 216.58 L 776.35 213.14 L 780.00 207.48" class="path-3" />
<path d="M 50.00 151.11 L 53.65 156.67 L 57.30 154.04 L 60.95 154.13 L 64.60 156.62 L 68.25 162.96 L 71.90 166.41 L 75.55 166.47 L 79.20 163.49 L 82.85 160.85 L 86.50 165.35 L 90.15 167.56 L 93.80 170.39 L 97.45 165.43 L 101.10 168.64 L 104.75 173.31 L 108.40 177.91 L 112.05 176.38 L 115.70 174.65 L 119.35 169.46 L 123.00 167.21 L 126.65 165.09 L 130.30 163.23 L 133.95 167.89 L 137.60 168.43 L 141.25 164.05 L 144.90 169.72 L 148.55 163.82 L 152.20 164.32 L 155.85 158.82 L 159.50 154.70 L 163.15 153.22 L 166.80 156.79 L 170.45 151.65 L 174.10 154.65 L 177.75 158.64 L 181.40 166.03 L 185.05 157.72 L 188.70 154.54 L 192.35 152.62 L 196.00 152.18 L 199.65 150.73 L 203.30 146.08 L 206.95 141.51 L 210.60 137.50 L 214.25 135.15 L 217.90 130.44 L 221.55 127.09 L 225.20 128.94 L 228.85 132.55 L 232.50 133.03 L 236.15 134.68 L 239.80 131.94 L 243.45 138.63 L 247.10 139.58 L 250.75 134.41 L 254.40 135.33 L 258.05 134.97 L 261.70 135.29 L 265.35 129.85 L 269.00 120.62 L 272.65 126.36 L 276.30 126.19 L 279.95 124.66 L 283.60 126.90 L 287.25 126.37 L 290.90 126.31 L 294.55 124.62 L 298.20 125.71 L 301.85 123.11 L 305.50 119.99 L 309.15 121.20 L 312.80 121.89 L 316.45 119.69 L 320.10 116.60 L 323.75 113.96 L 327.40 113.60 L 331.05 114.34 L 334.70 114.01 L 338.35 117.66 L 342.00 114.67 L 345.65 118.66 L 349.30 121.08 L 352.95 119.61 L 356.60 117.60 L 360.25 114.20 L 363.90 114.10 L 367.55 107.14 L 371.20 109.85 L 374.85 113.62 L 378.50 103.98 L 382.15 103.99 L 385.80 98.64 L 389.45 91.19 L 393.10 89.96 L 396.75 83.93 L 400.40 79.51 L 404.05 80.87 L 407.70 78.85 L 411.35 74.07 L 415.00 69.52 L 418.65 67.03 L 422.30 67.80 L 425.95 67.66 L 429.60 68.83 L 433.25 70.92 L 436.90 65.38 L 440.55 66.47 L 444.20 73.36 L 447.85 78.35 L 451.50 81.98 L 455.15 79.74 L 458.80 77.59 L 462.45 78.77 L 466.10 82.14 L 469.75 79.25 L 473.40 78.20 L 477.05 76.50 L 480.70 82.52 L 484.35 82.33 L 488.00 80.03 L 491.65 75.67 L 495.30 73.10 L 498.95 77.22 L 502.60 83.06 L 506.25 86.50 L 509.90 90.87 L 513.55 86.05 L 517.20 80.85 L 520.85 85.45 L 524.50 82.92 L 528.15 80.75 L 531.80 73.71 L 535.45 75.10 L 539.10 77.90 L 542.75 81.49 L 546.40 83.14 L 550.05 84.66 L 553.70 83.72 L 557.35 87.30 L 561.00 88.16 L 564.65 86.74 L 568.30 89.38 L 571.95 95.54 L 575.60 90.58 L 579.25 93.05 L 582.90 94.99 L 586.55 97.18 L 590.20 93.76 L 593.85 98.46 L 597.50 98.84 L 601.15 99.92 L 604.80 100.99 L 608.45 98.63 L 612.10 98.65 L 615.75 92.36 L 619.40 90.86 L 623.05 91.06 L 626.70 86.46 L 630.35 87.92 L 634.00 87.54 L 637.65 85.77 L 641.30 79.03 L 644.95 82.63 L 648.60 85.16 L 652.25 88.51 L 655.90 97.44 L 659.55 99.12 L 663.20 101.15 L 666.85 100.33 L 670.50 93.51 L 674.15 88.67 L 677.80 86.62 L 681.45 87.74 L 685.10 88.00 L 688.75 83.89 L 692.40 86.69 L 696.05 90.26 L 699.70 87.10 L 703.35 90.21 L 707.00 90.96 L 710.65 92.28 L 714.30 95.16 L 717.95 89.71 L 721.60 88.42 L 725.25 80.78 L 728.90 77.62 L 732.55 81.98 L 736.20 79.48 L 739.85 80.05 L 743.50 84.88 L 747.15 87.09 L 750.80 84.30 L 754.45 78.10 L 758.10 72.80 L 761.75 70.11 L 765.40 69.48 L 769.05 75.72 L 772.70 71.93 L 776.35 72.16 L 780.00 73.67" class="path-4" />
<line x1="50" y1="151.1" x2="780" y2="151.1" stroke="#4b5563" stroke-width="0.8" stroke-dasharray="6 3" />
</svg>