<svg xmlns="http://www.w3.org/2000/svg" viewBox="0 0 800 300" width="800" height="300">
<style>
.axis-line { stroke: #6b7280; stroke-width: 0.5; }
.axis-text { font-family: monospace; font-size: 11px; fill: #9ca3af; }
.title-text { font-family: monospace; font-size: 14px; fill: #d1d5db; font-weight: bold; }
.grid-line { stroke: #374151; stroke-width: 0.3; stroke-dasharray: 4 2; }
.path-0 { fill: none; stroke: #3b82f6; stroke-width: 2; stroke-linecap: round; opacity: 0.85; animation: draw-0 8s ease-in-out 0.0s infinite; stroke-dasharray: 1063; stroke-dashoffset: 1063;}
@keyframes draw-0 { 0% { stroke-dashoffset: 1063; } 38% { stroke-dashoffset: 0; } 62% { stroke-dashoffset: 0; } 100% { stroke-dashoffset: 1063; }}
.path-1 { fill: none; stroke: #ef4444; stroke-width: 2; stroke-linecap: round; opacity: 0.85; animation: draw-1 8s ease-in-out 0.4s infinite; stroke-dasharray: 1097; stroke-dashoffset: 1097;}
@keyframes draw-1 { 0% { stroke-dashoffset: 1097; } 38% { stroke-dashoffset: 0; } 62% { stroke-dashoffset: 0; } 100% { stroke-dashoffset: 1097; }}
.path-2 { fill: none; stroke: #22c55e; stroke-width: 2; stroke-linecap: round; opacity: 0.85; animation: draw-2 8s ease-in-out 0.8s infinite; stroke-dasharray: 1082; stroke-dashoffset: 1082;}
@keyframes draw-2 { 0% { stroke-dashoffset: 1082; } 38% { stroke-dashoffset: 0; } 62% { stroke-dashoffset: 0; } 100% { stroke-dashoffset: 1082; }}
.path-3 { fill: none; stroke: #f59e0b; stroke-width: 2; stroke-linecap: round; opacity: 0.85; animation: draw-3 8s ease-in-out 1.2000000000000002s infinite; stroke-dasharray: 1164; stroke-dashoffset: 1164;}
@keyframes draw-3 { 0% { stroke-dashoffset: 1164; } 38% { stroke-dashoffset: 0; } 62% { stroke-dashoffset: 0; } 100% { stroke-dashoffset: 1164; }}
.path-4 { fill: none; stroke: #a855f7; stroke-width: 2; stroke-linecap: round; opacity: 0.85; animation: draw-4 8s ease-in-out 1.6s infinite; stroke-dasharray: 1103; stroke-dashoffset: 1103;}
@keyframes draw-4 { 0% { stroke-dashoffset: 1103; } 38% { stroke-dashoffset: 0; } 62% { stroke-dashoffset: 0; } 100% { stroke-dashoffset: 1103; }}
</style>
<rect width="800" height="300" rx="8" fill="#0d1117" />
<line x1="50" y1="260.0" x2="780" y2="260.0" class="grid-line" />
<text x="44" y="264.0" text-anchor="end" class="axis-text">-1.8</text>
<line x1="50" y1="216.0" x2="780" y2="216.0" class="grid-line" />
<text x="44" y="220.0" text-anchor="end" class="axis-text">-1.0</text>
<line x1="50" y1="172.0" x2="780" y2="172.0" class="grid-line" />
<text x="44" y="176.0" text-anchor="end" class="axis-text">-0.3</text>
<line x1="50" y1="128.0" x2="780" y2="128.0" class="grid-line" />
<text x="44" y="132.0" text-anchor="end" class="axis-text">0.4</text>
<line x1="50" y1="84.0" x2="780" y2="84.0" class="grid-line" />
<text x="44" y="88.0" text-anchor="end" class="axis-text">1.1</text>
<line x1="50" y1="40.0" x2="780" y2="40.0" class="grid-line" />
<text x="44" y="44.0" text-anchor="end" class="axis-text">1.8</text>
<line x1="50.0" y1="40" x2="50.0" y2="260" class="grid-line" />
<line x1="196.0" y1="40" x2="196.0" y2="260" class="grid-line" />
<line x1="342.0" y1="40" x2="342.0" y2="260" class="grid-line" />
<line x1="488.0" y1="40" x2="488.0" y2="260" class="grid-line" />
<line x1="634.0" y1="40" x2="634.0" y2="260" class="grid-line" />
<line x1="780.0" y1="40" x2="780.0" y2="260" class="grid-line" />
<line x1="50" y1="260" x2="780" y2="260" class="axis-line" />
<line x1="50" y1="40" x2="50" y2="260" class="axis-line" />
<text x="400.0" y="295" text-anchor="middle" class="axis-text">t</text>
<text x="12" y="150.0" text-anchor="middle" class="axis-text" transform="rotate(-90 12 150.0)">W(t)</text>
<text x="400.0" y="22" text-anchor="middle" class="title-text">Brownian Motion</text>
<path d="M 50.00 151.54 L 53.65 153.80 L 57.30 153.36 L 60.95 147.47 L 64.60 148.90 L 68.25 151.07 L 71.90 159.05 L 75.55 161.32 L 79.20 157.74 L 82.85 149.20 L 86.50 144.01 L 90.15 141.89 L 93.80 142.73 L 97.45 143.43 L 101.10 143.69 L 104.75 141.88 L 108.40 145.45 L 112.05 144.07 L 115.70 147.19 L 119.35 150.05 L 123.00 145.07 L 126.65 151.44 L 130.30 147.52 L 133.95 140.45 L 137.60 150.34 L 141.25 156.15 L 144.90 160.72 L 148.55 159.95 L 152.20 166.99 L 155.85 159.86 L 159.50 163.29 L 163.15 167.33 L 166.80 173.18 L 170.45 183.89 L 174.10 183.06 L 177.75 184.09 L 181.40 188.56 L 185.05 191.39 L 188.70 189.39 L 192.35 189.86 L 196.00 194.04 L 199.65 194.99 L 203.30 191.82 L 206.95 193.53 L 210.60 193.86 L 214.25 191.68 L 217.90 191.54 L 221.55 189.15 L 225.20 187.73 L 228.85 184.17 L 232.50 180.71 L 236.15 184.44 L 239.80 180.10 L 243.45 186.37 L 247.10 187.31 L 250.75 182.49 L 254.40 183.22 L 258.05 184.20 L 261.70 180.25 L 265.35 177.17 L 269.00 176.96 L 272.65 180.08 L 276.30 184.38 L 279.95 183.43 L 283.60 187.49 L 287.25 186.56 L 290.90 187.88 L 294.55 182.62 L 298.20 182.41 L 301.85 187.20 L 305.50 184.87 L 309.15 179.04 L 312.80 182.68 L 316.45 170.87 L 320.10 174.89 L 323.75 170.15 L 327.40 178.04 L 331.05 173.04 L 334.70 172.38 L 338.35 165.00 L 342.00 165.24 L 345.65 164.23 L 349.30 166.63 L 352.95 165.09 L 356.60 158.07 L 360.25 155.18 L 363.90 154.13 L 367.55 155.99 L 371.20 157.74 L 374.85 151.33 L 378.50 151.43 L 382.15 154.61 L 385.80 157.14 L 389.45 149.19 L 393.10 156.04 L 396.75 164.38 L 400.40 171.94 L 404.05 176.17 L 407.70 168.21 L 411.35 168.25 L 415.00 171.87 L 418.65 169.78 L 422.30 169.78 L 425.95 175.42 L 429.60 168.49 L 433.25 172.52 L 436.90 174.64 L 440.55 176.84 L 444.20 175.60 L 447.85 182.93 L 451.50 181.27 L 455.15 190.64 L 458.80 190.01 L 462.45 197.25 L 466.10 208.81 L 469.75 203.02 L 473.40 206.03 L 477.05 203.55 L 480.70 202.17 L 484.35 202.68 L 488.00 197.51 L 491.65 201.79 L 495.30 194.40 L 498.95 200.95 L 502.60 190.94 L 506.25 192.47 L 509.90 190.62 L 513.55 194.18 L 517.20 196.37 L 520.85 192.79 L 524.50 191.46 L 528.15 190.14 L 531.80 193.59 L 535.45 190.83 L 539.10 192.38 L 542.75 195.16 L 546.40 194.93 L 550.05 193.22 L 553.70 194.72 L 557.35 194.93 L 561.00 197.46 L 564.65 197.40 L 568.30 191.84 L 571.95 192.44 L 575.60 190.62 L 579.25 190.94 L 582.90 191.07 L 586.55 193.82 L 590.20 193.96 L 593.85 192.58 L 597.50 187.75 L 601.15 186.77 L 604.80 192.62 L 608.45 189.97 L 612.10 192.63 L 615.75 195.47 L 619.40 197.47 L 623.05 198.45 L 626.70 196.87 L 630.35 190.90 L 634.00 193.05 L 637.65 201.82 L 641.30 200.28 L 644.95 199.13 L 648.60 198.90 L 652.25 203.58 L 655.90 200.10 L 659.55 204.27 L 663.20 209.36 L 666.85 210.78 L 670.50 210.59 L 674.15 206.84 L 677.80 213.41 L 681.45 213.98 L 685.10 213.94 L 688.75 209.66 L 692.40 210.09 L 696.05 205.27 L 699.70 200.45 L 703.35 201.85 L 707.00 205.17 L 710.65 211.75 L 714.30 216.43 L 717.95 219.46 L 721.60 220.10 L 725.25 217.00 L 728.90 210.30 L 732.55 208.35 L 736.20 205.76 L 739.85 205.39 L 743.50 207.37 L 747.15 211.22 L 750.80 209.90 L 754.45 208.36 L 758.10 215.15 L 761.75 217.96 L 765.40 221.25 L 769.05 220.45 L 772.70 215.83 L 776.35 217.71 L 780.00 220.33" class="path-0" />
<path d="M 50.00 151.54 L 53.65 152.34 L 57.30 149.31 L 60.95 150.95 L 64.60 149.25 L 68.25 145.45 L 71.90 141.13 L 75.55 137.35 L 79.20 135.75 L 82.85 139.34 L 86.50 150.51 L 90.15 153.29 L 93.80 154.84 L 97.45 155.03 L 101.10 149.16 L 104.75 149.37 L 108.40 146.32 L 112.05 144.94 L 115.70 148.67 L 119.35 151.54 L 123.00 146.94 L 126.65 152.52 L 130.30 150.52 L 133.95 146.06 L 137.60 142.28 L 141.25 134.75 L 144.90 136.65 L 148.55 132.62 L 152.20 135.22 L 155.85 136.52 L 159.50 126.80 L 163.15 125.26 L 166.80 118.28 L 170.45 120.98 L 174.10 123.55 L 177.75 127.60 L 181.40 129.58 L 185.05 127.27 L 188.70 128.96 L 192.35 128.18 L 196.00 123.26 L 199.65 129.85 L 203.30 130.52 L 206.95 133.99 L 210.60 138.56 L 214.25 136.87 L 217.90 140.99 L 221.55 143.55 L 225.20 145.87 L 228.85 144.62 L 232.50 153.08 L 236.15 146.23 L 239.80 147.07 L 243.45 140.62 L 247.10 146.00 L 250.75 146.40 L 254.40 143.86 L 258.05 138.06 L 261.70 140.37 L 265.35 138.11 L 269.00 130.22 L 272.65 135.17 L 276.30 134.37 L 279.95 137.12 L 283.60 138.02 L 287.25 144.42 L 290.90 149.23 L 294.55 135.82 L 298.20 135.96 L 301.85 137.67 L 305.50 128.49 L 309.15 136.15 L 312.80 139.48 L 316.45 142.48 L 320.10 143.55 L 323.75 137.59 L 327.40 139.29 L 331.05 143.92 L 334.70 146.73 L 338.35 143.94 L 342.00 140.64 L 345.65 142.70 L 349.30 148.79 L 352.95 140.54 L 356.60 132.45 L 360.25 126.00 L 363.90 126.30 L 367.55 121.00 L 371.20 120.56 L 374.85 123.68 L 378.50 129.27 L 382.15 134.80 L 385.80 140.38 L 389.45 141.94 L 393.10 142.53 L 396.75 153.15 L 400.40 146.72 L 404.05 145.39 L 407.70 142.32 L 411.35 147.06 L 415.00 145.85 L 418.65 141.05 L 422.30 139.59 L 425.95 133.57 L 429.60 135.84 L 433.25 140.71 L 436.90 144.25 L 440.55 142.42 L 444.20 138.60 L 447.85 133.37 L 451.50 136.78 L 455.15 144.37 L 458.80 143.64 L 462.45 138.64 L 466.10 141.98 L 469.75 149.57 L 473.40 150.78 L 477.05 149.98 L 480.70 145.94 L 484.35 145.00 L 488.00 141.20 L 491.65 151.47 L 495.30 157.48 L 498.95 164.99 L 502.60 163.71 L 506.25 161.70 L 509.90 155.58 L 513.55 148.15 L 517.20 142.61 L 520.85 143.64 L 524.50 142.74 L 528.15 146.50 L 531.80 147.35 L 535.45 141.73 L 539.10 140.97 L 542.75 135.33 L 546.40 144.91 L 550.05 152.60 L 553.70 155.87 L 557.35 156.48 L 561.00 162.45 L 564.65 159.20 L 568.30 155.83 L 571.95 158.57 L 575.60 162.26 L 579.25 165.19 L 582.90 157.55 L 586.55 160.35 L 590.20 160.44 L 593.85 157.70 L 597.50 156.82 L 601.15 159.58 L 604.80 160.05 L 608.45 162.32 L 612.10 161.06 L 615.75 156.80 L 619.40 157.17 L 623.05 160.05 L 626.70 162.68 L 630.35 166.03 L 634.00 169.57 L 637.65 169.43 L 641.30 173.36 L 644.95 169.24 L 648.60 168.75 L 652.25 175.43 L 655.90 181.20 L 659.55 178.02 L 663.20 178.01 L 666.85 179.67 L 670.50 176.26 L 674.15 176.83 L 677.80 177.55 L 681.45 176.65 L 685.10 175.34 L 688.75 176.79 L 692.40 177.12 L 696.05 173.49 L 699.70 174.83 L 703.35 168.61 L 707.00 168.64 L 710.65 164.75 L 714.30 165.65 L 717.95 173.60 L 721.60 177.62 L 725.25 170.98 L 728.90 167.99 L 732.55 165.89 L 736.20 161.92 L 739.85 167.12 L 743.50 174.62 L 747.15 172.23 L 750.80 171.85 L 754.45 165.20 L 758.10 155.95 L 761.75 159.66 L 765.40 158.66 L 769.05 164.79 L 772.70 166.37 L 776.35 164.73 L 780.00 167.11" class="path-1" />
<path d="M 50.00 151.54 L 53.65 145.31 L 57.30 139.32 L 60.95 137.89 L 64.60 135.29 L 68.25 133.27 L 71.90 139.52 L 75.55 139.59 L 79.20 137.16 L 82.85 141.79 L 86.50 145.17 L 90.15 142.42 L 93.80 149.31 L 97.45 147.19 L 101.10 152.71 L 104.75 154.73 L 108.40 154.09 L 112.05 157.65 L 115.70 161.60 L 119.35 157.06 L 123.00 157.39 L 126.65 158.04 L 130.30 158.01 L 133.95 164.93 L 137.60 165.79 L 141.25 167.77 L 144.90 166.78 L 148.55 180.23 L 152.20 182.07 L 155.85 181.74 L 159.50 185.97 L 163.15 181.86 L 166.80 187.20 L 170.45 182.23 L 174.10 181.67 L 177.75 186.67 L 181.40 193.36 L 185.05 202.48 L 188.70 204.65 L 192.35 211.03 L 196.00 212.42 L 199.65 214.76 L 203.30 225.48 L 206.95 222.41 L 210.60 219.66 L 214.25 219.57 L 217.90 213.88 L 221.55 207.63 L 225.20 210.35 L 228.85 211.20 L 232.50 201.72 L 236.15 196.52 L 239.80 200.73 L 243.45 205.55 L 247.10 198.42 L 250.75 193.26 L 254.40 190.44 L 258.05 198.38 L 261.70 205.85 L 265.35 206.62 L 269.00 206.87 L 272.65 202.57 L 276.30 202.42 L 279.95 206.63 L 283.60 207.99 L 287.25 202.95 L 290.90 201.96 L 294.55 196.82 L 298.20 197.33 L 301.85 201.70 L 305.50 209.23 L 309.15 209.18 L 312.80 211.72 L 316.45 210.17 L 320.10 218.37 L 323.75 215.28 L 327.40 213.39 L 331.05 220.04 L 334.70 212.69 L 338.35 210.41 L 342.00 211.89 L 345.65 213.79 L 349.30 222.58 L 352.95 227.51 L 356.60 227.79 L 360.25 234.62 L 363.90 231.12 L 367.55 229.59 L 371.20 227.69 L 374.85 231.60 L 378.50 228.72 L 382.15 225.74 L 385.80 225.76 L 389.45 220.99 L 393.10 225.22 L 396.75 220.63 L 400.40 221.45 L 404.05 221.95 L 407.70 216.95 L 411.35 207.08 L 415.00 205.85 L 418.65 208.39 L 422.30 212.85 L 425.95 208.27 L 429.60 206.39 L 433.25 211.08 L 436.90 214.98 L 440.55 210.72 L 444.20 209.83 L 447.85 205.94 L 451.50 207.47 L 455.15 203.39 L 458.80 201.24 L 462.45 206.34 L 466.10 208.09 L 469.75 203.80 L 473.40 202.44 L 477.05 206.47 L 480.70 202.96 L 484.35 210.34 L 488.00 205.70 L 491.65 208.82 L 495.30 205.36 L 498.95 201.68 L 502.60 202.98 L 506.25 198.46 L 509.90 195.05 L 513.55 183.42 L 517.20 184.28 L 520.85 178.29 L 524.50 178.66 L 528.15 180.46 L 531.80 188.60 L 535.45 181.95 L 539.10 180.27 L 542.75 182.53 L 546.40 180.24 L 550.05 183.36 L 553.70 189.49 L 557.35 189.14 L 561.00 193.04 L 564.65 192.92 L 568.30 184.44 L 571.95 184.84 L 575.60 188.71 L 579.25 188.74 L 582.90 187.78 L 586.55 186.60 L 590.20 195.08 L 593.85 192.01 L 597.50 185.47 L 601.15 181.74 L 604.80 184.81 L 608.45 178.66 L 612.10 179.49 L 615.75 176.85 L 619.40 182.88 L 623.05 184.36 L 626.70 177.46 L 630.35 178.35 L 634.00 185.04 L 637.65 182.12 L 641.30 181.77 L 644.95 181.96 L 648.60 196.82 L 652.25 195.60 L 655.90 199.40 L 659.55 197.32 L 663.20 199.95 L 666.85 199.16 L 670.50 200.79 L 674.15 199.90 L 677.80 196.15 L 681.45 194.02 L 685.10 194.43 L 688.75 201.31 L 692.40 199.91 L 696.05 199.98 L 699.70 200.69 L 703.35 196.79 L 707.00 195.35 L 710.65 198.23 L 714.30 193.19 L 717.95 194.50 L 721.60 189.36 L 725.25 194.32 L 728.90 193.66 L 732.55 194.03 L 736.20 198.01 L 739.85 195.98 L 743.50 193.70 L 747.15 189.56 L 750.80 189.11 L 754.45 183.92 L 758.10 182.06 L 761.75 179.35 L 765.40 182.02 L 769.05 179.87 L 772.70 179.62 L 776.35 178.61 L 780.00 177.62" class="path-2" />
<path d="M 50.00 151.54 L 53.65 150.33 L 57.30 152.82 L 60.95 157.88 L 64.60 156.56 L 68.25 153.43 L 71.90 148.18 L 75.55 149.37 L 79.20 144.33 L 82.85 140.50 L 86.50 138.26 L 90.15 132.25 L 93.80 129.02 L 97.45 121.17 L 101.10 117.87 L 104.75 117.78 L 108.40 128.21 L 112.05 129.40 L 115.70 134.23 L 119.35 133.53 L 123.00 125.21 L 126.65 130.18 L 130.30 126.46 L 133.95 119.97 L 137.60 115.80 L 141.25 115.50 L 144.90 122.69 L 148.55 123.33 L 152.20 116.76 L 155.85 118.14 L 159.50 117.70 L 163.15 108.18 L 166.80 109.59 L 170.45 110.10 L 174.10 101.74 L 177.75 92.74 L 181.40 87.13 L 185.05 85.44 L 188.70 81.39 L 192.35 73.70 L 196.00 75.76 L 199.65 78.75 L 203.30 84.76 L 206.95 88.00 L 210.60 96.29 L 214.25 91.40 L 217.90 91.51 L 221.55 92.43 L 225.20 92.19 L 228.85 106.31 L 232.50 100.32 L 236.15 96.18 L 239.80 87.17 L 243.45 89.11 L 247.10 79.72 L 250.75 80.00 L 254.40 70.30 L 258.05 65.38 L 261.70 74.80 L 265.35 75.71 L 269.00 76.19 L 272.65 71.10 L 276.30 69.36 L 279.95 74.67 L 283.60 68.10 L 287.25 68.81 L 290.90 76.43 L 294.55 80.89 L 298.20 83.02 L 301.85 84.54 L 305.50 90.53 L 309.15 96.96 L 312.80 98.51 L 316.45 92.88 L 320.10 95.90 L 323.75 91.17 L 327.40 87.03 L 331.05 84.24 L 334.70 80.66 L 338.35 80.67 L 342.00 83.88 L 345.65 87.39 L 349.30 93.73 L 352.95 96.53 L 356.60 96.11 L 360.25 95.83 L 363.90 101.23 L 367.55 95.29 L 371.20 97.33 L 374.85 102.98 L 378.50 101.42 L 382.15 94.02 L 385.80 95.89 L 389.45 94.99 L 393.10 89.53 L 396.75 83.10 L 400.40 91.77 L 404.05 92.95 L 407.70 100.71 L 411.35 98.44 L 415.00 102.78 L 418.65 99.58 L 422.30 103.15 L 425.95 104.08 L 429.60 106.31 L 433.25 111.51 L 436.90 118.55 L 440.55 111.22 L 444.20 116.40 L 447.85 121.66 L 451.50 122.30 L 455.15 122.43 L 458.80 124.23 L 462.45 121.29 L 466.10 117.60 L 469.75 117.98 L 473.40 113.00 L 477.05 120.00 L 480.70 116.89 L 484.35 110.15 L 488.00 113.05 L 491.65 114.14 L 495.30 110.14 L 498.95 120.99 L 502.60 124.35 L 506.25 122.48 L 509.90 119.42 L 513.55 115.94 L 517.20 118.28 L 520.85 119.26 L 524.50 118.67 L 528.15 118.48 L 531.80 125.35 L 535.45 126.90 L 539.10 132.57 L 542.75 135.08 L 546.40 130.20 L 550.05 128.55 L 553.70 128.03 L 557.35 122.68 L 561.00 132.12 L 564.65 134.88 L 568.30 131.40 L 571.95 134.51 L 575.60 129.36 L 579.25 122.71 L 582.90 122.19 L 586.55 107.19 L 590.20 111.23 L 593.85 106.92 L 597.50 106.89 L 601.15 112.70 L 604.80 111.19 L 608.45 116.98 L 612.10 117.51 L 615.75 112.53 L 619.40 120.82 L 623.05 125.87 L 626.70 121.62 L 630.35 122.41 L 634.00 121.21 L 637.65 118.57 L 641.30 120.87 L 644.95 126.00 L 648.60 131.09 L 652.25 136.23 L 655.90 135.84 L 659.55 131.32 L 663.20 125.43 L 666.85 123.36 L 670.50 122.72 L 674.15 113.70 L 677.80 114.72 L 681.45 114.48 L 685.10 115.73 L 688.75 114.52 L 692.40 112.11 L 696.05 116.62 L 699.70 110.28 L 703.35 97.38 L 707.00 97.15 L 710.65 103.69 L 714.30 108.11 L 717.95 106.72 L 721.60 105.02 L 725.25 112.08 L 728.90 105.44 L 732.55 110.78 L 736.20 111.69 L 739.85 112.10 L 743.50 111.12 L 747.15 114.11 L 750.80 118.41 L 754.45 107.83 L 758.10 101.29 L 761.75 106.40 L 765.40 110.68 L 769.05 101.41 L 772.70 103.82 L 776.35 100.86 L 780.00 99.78" class="path-3" />
<path d="M 50.00 151.54 L 53.65 147.47 L 57.30 145.12 L 60.95 141.33 L 64.60 137.93 L 68.25 136.19 L 71.90 135.23 L 75.55 130.23 L 79.20 137.28 L 82.85 133.32 L 86.50 130.26 L 90.15 124.15 L 93.80 122.65 L 97.45 130.35 L 101.10 123.54 L 104.75 130.03 L 108.40 133.16 L 112.05 140.19 L 115.70 141.10 L 119.35 149.38 L 123.00 151.33 L 126.65 156.46 L 130.30 151.57 L 133.95 150.03 L 137.60 146.49 L 141.25 144.53 L 144.90 150.89 L 148.55 148.34 L 152.20 148.47 L 155.85 144.09 L 159.50 140.86 L 163.15 136.64 L 166.80 136.48 L 170.45 124.83 L 174.10 128.68 L 177.75 130.94 L 181.40 127.24 L 185.05 129.94 L 188.70 131.44 L 192.35 134.27 L 196.00 135.33 L 199.65 133.65 L 203.30 135.78 L 206.95 134.14 L 210.60 129.30 L 214.25 129.94 L 217.90 133.18 L 221.55 136.82 L 225.20 134.13 L 228.85 134.41 L 232.50 129.21 L 236.15 133.12 L 239.80 126.17 L 243.45 123.31 L 247.10 125.97 L 250.75 129.48 L 254.40 130.26 L 258.05 138.56 L 261.70 141.99 L 265.35 137.01 L 269.00 135.66 L 272.65 140.18 L 276.30 128.90 L 279.95 133.77 L 283.60 140.15 L 287.25 142.94 L 290.90 143.69 L 294.55 134.71 L 298.20 134.28 L 301.85 124.71 L 305.50 130.73 L 309.15 125.07 L 312.80 121.72 L 316.45 121.84 L 320.10 120.00 L 323.75 113.20 L 327.40 115.29 L 331.05 119.16 L 334.70 120.59 L 338.35 119.52 L 342.00 117.68 L 345.65 119.33 L 349.30 123.48 L 352.95 131.27 L 356.60 141.52 L 360.25 141.59 L 363.90 146.22 L 367.55 150.08 L 371.20 150.90 L 374.85 146.16 L 378.50 159.93 L 382.15 157.37 L 385.80 156.04 L 389.45 160.67 L 393.10 161.59 L 396.75 169.46 L 400.40 169.67 L 404.05 171.75 L 407.70 172.91 L 411.35 164.18 L 415.00 167.42 L 418.65 173.21 L 422.30 178.67 L 425.95 176.81 L 429.60 176.54 L 433.25 169.14 L 436.90 169.50 L 440.55 175.94 L 444.20 174.01 L 447.85 176.23 L 451.50 177.82 L 455.15 178.60 L 458.80 180.37 L 462.45 175.66 L 466.10 168.84 L 469.75 175.25 L 473.40 181.12 L 477.05 178.39 L 480.70 174.48 L 484.35 175.42 L 488.00 169.98 L 491.65 171.93 L 495.30 178.04 L 498.95 172.31 L 502.60 167.79 L 506.25 165.67 L 509.90 166.65 L 513.55 171.36 L 517.20 175.78 L 520.85 173.84 L 524.50 170.85 L 528.15 165.49 L 531.80 160.44 L 535.45 157.44 L 539.10 152.32 L 542.75 157.26 L 546.40 151.36 L 550.05 154.99 L 553.70 159.51 L 557.35 161.31 L 561.00 160.01 L 564.65 155.70 L 568.30 150.43 L 571.95 153.70 L 575.60 155.27 L 579.25 160.38 L 582.90 158.18 L 586.55 159.11 L 590.20 161.90 L 593.85 165.49 L 597.50 162.87 L 601.15 163.12 L 604.80 163.38 L 608.45 164.61 L 612.10 155.56 L 615.75 150.29 L 619.40 141.83 L 623.05 143.52 L 626.70 143.42 L 630.35 140.87 L 634.00 138.49 L 637.65 133.26 L 641.30 132.45 L 644.95 126.53 L 648.60 123.95 L 652.25 120.12 L 655.90 113.27 L 659.55 119.19 L 663.20 118.25 L 666.85 121.76 L 670.50 117.78 L 674.15 112.96 L 677.80 114.00 L 681.45 119.36 L 685.10 120.80 L 688.75 118.94 L 692.40 114.97 L 696.05 111.29 L 699.70 104.15 L 703.35 104.73 L 707.00 114.22 L 710.65 119.06 L 714.30 122.42 L 717.95 124.68 L 721.60 126.13 L 725.25 121.23 L 728.90 122.41 L 732.55 124.58 L 736.20 126.60 L 739.85 121.38 L 743.50 118.49 L 747.15 116.57 L 750.80 118.37 L 754.45 117.15 L 758.10 113.64 L 761.75 121.13 L 765.40 120.51 L 769.05 120.78 L 772.70 123.02 L 776.35 114.37 L 780.00 113.06" class="path-4" />
<line x1="50" y1="151.5" x2="780" y2="151.5" stroke="#4b5563" stroke-width="0.8" stroke-dasharray="6 3" />
</svg>