<svg xmlns="http://www.w3.org/2000/svg" viewBox="0 0 800 300" width="800" height="300">
<style>
.axis-line { stroke: #6b7280; stroke-width: 0.5; }
.axis-text { font-family: monospace; font-size: 11px; fill: #9ca3af; }
.title-text { font-family: monospace; font-size: 14px; fill: #d1d5db; font-weight: bold; }
.grid-line { stroke: #374151; stroke-width: 0.3; stroke-dasharray: 4 2; }
.path-0 { fill: none; stroke: #3b82f6; stroke-width: 2; stroke-linecap: round; opacity: 0.85; animation: draw-0 8s ease-in-out 0.0s infinite; stroke-dasharray: 1177; stroke-dashoffset: 1177;}
@keyframes draw-0 { 0% { stroke-dashoffset: 1177; } 38% { stroke-dashoffset: 0; } 62% { stroke-dashoffset: 0; } 100% { stroke-dashoffset: 1177; }}
.path-1 { fill: none; stroke: #ef4444; stroke-width: 2; stroke-linecap: round; opacity: 0.85; animation: draw-1 8s ease-in-out 0.4s infinite; stroke-dasharray: 1198; stroke-dashoffset: 1198;}
@keyframes draw-1 { 0% { stroke-dashoffset: 1198; } 38% { stroke-dashoffset: 0; } 62% { stroke-dashoffset: 0; } 100% { stroke-dashoffset: 1198; }}
.path-2 { fill: none; stroke: #22c55e; stroke-width: 2; stroke-linecap: round; opacity: 0.85; animation: draw-2 8s ease-in-out 0.8s infinite; stroke-dasharray: 1187; stroke-dashoffset: 1187;}
@keyframes draw-2 { 0% { stroke-dashoffset: 1187; } 38% { stroke-dashoffset: 0; } 62% { stroke-dashoffset: 0; } 100% { stroke-dashoffset: 1187; }}
.path-3 { fill: none; stroke: #f59e0b; stroke-width: 2; stroke-linecap: round; opacity: 0.85; animation: draw-3 8s ease-in-out 1.2000000000000002s infinite; stroke-dasharray: 1231; stroke-dashoffset: 1231;}
@keyframes draw-3 { 0% { stroke-dashoffset: 1231; } 38% { stroke-dashoffset: 0; } 62% { stroke-dashoffset: 0; } 100% { stroke-dashoffset: 1231; }}
.path-4 { fill: none; stroke: #a855f7; stroke-width: 2; stroke-linecap: round; opacity: 0.85; animation: draw-4 8s ease-in-out 1.6s infinite; stroke-dasharray: 1226; stroke-dashoffset: 1226;}
@keyframes draw-4 { 0% { stroke-dashoffset: 1226; } 38% { stroke-dashoffset: 0; } 62% { stroke-dashoffset: 0; } 100% { stroke-dashoffset: 1226; }}
</style>
<rect width="800" height="300" rx="8" fill="#0d1117" />
<line x1="50" y1="260.0" x2="780" y2="260.0" class="grid-line" />
<text x="44" y="264.0" text-anchor="end" class="axis-text">-1.5</text>
<line x1="50" y1="216.0" x2="780" y2="216.0" class="grid-line" />
<text x="44" y="220.0" text-anchor="end" class="axis-text">-0.9</text>
<line x1="50" y1="172.0" x2="780" y2="172.0" class="grid-line" />
<text x="44" y="176.0" text-anchor="end" class="axis-text">-0.3</text>
<line x1="50" y1="128.0" x2="780" y2="128.0" class="grid-line" />
<text x="44" y="132.0" text-anchor="end" class="axis-text">0.3</text>
<line x1="50" y1="84.0" x2="780" y2="84.0" class="grid-line" />
<text x="44" y="88.0" text-anchor="end" class="axis-text">0.9</text>
<line x1="50" y1="40.0" x2="780" y2="40.0" class="grid-line" />
<text x="44" y="44.0" text-anchor="end" class="axis-text">1.4</text>
<line x1="50.0" y1="40" x2="50.0" y2="260" class="grid-line" />
<line x1="196.0" y1="40" x2="196.0" y2="260" class="grid-line" />
<line x1="342.0" y1="40" x2="342.0" y2="260" class="grid-line" />
<line x1="488.0" y1="40" x2="488.0" y2="260" class="grid-line" />
<line x1="634.0" y1="40" x2="634.0" y2="260" class="grid-line" />
<line x1="780.0" y1="40" x2="780.0" y2="260" class="grid-line" />
<line x1="50" y1="260" x2="780" y2="260" class="axis-line" />
<line x1="50" y1="40" x2="50" y2="260" class="axis-line" />
<text x="400.0" y="295" text-anchor="middle" class="axis-text">t</text>
<text x="12" y="150.0" text-anchor="middle" class="axis-text" transform="rotate(-90 12 150.0)">W(t)</text>
<text x="400.0" y="22" text-anchor="middle" class="title-text">Brownian Motion</text>
<path d="M 50.00 148.84 L 53.65 149.91 L 57.30 154.28 L 60.95 150.63 L 64.60 149.18 L 68.25 143.55 L 71.90 152.29 L 75.55 162.81 L 79.20 156.43 L 82.85 151.01 L 86.50 150.79 L 90.15 149.87 L 93.80 153.30 L 97.45 159.10 L 101.10 166.25 L 104.75 163.00 L 108.40 165.75 L 112.05 168.92 L 115.70 150.72 L 119.35 151.79 L 123.00 156.53 L 126.65 152.59 L 130.30 154.71 L 133.95 156.42 L 137.60 158.23 L 141.25 157.78 L 144.90 159.13 L 148.55 158.39 L 152.20 154.91 L 155.85 146.74 L 159.50 146.56 L 163.15 143.20 L 166.80 140.97 L 170.45 146.25 L 174.10 144.28 L 177.75 146.54 L 181.40 152.04 L 185.05 156.93 L 188.70 150.47 L 192.35 153.02 L 196.00 151.52 L 199.65 150.16 L 203.30 146.35 L 206.95 149.94 L 210.60 152.28 L 214.25 150.87 L 217.90 144.52 L 221.55 144.24 L 225.20 141.89 L 228.85 137.90 L 232.50 138.67 L 236.15 142.82 L 239.80 138.91 L 243.45 138.74 L 247.10 137.79 L 250.75 146.70 L 254.40 137.93 L 258.05 131.90 L 261.70 138.30 L 265.35 135.79 L 269.00 133.54 L 272.65 127.77 L 276.30 132.77 L 279.95 137.29 L 283.60 136.10 L 287.25 135.56 L 290.90 123.62 L 294.55 124.61 L 298.20 124.24 L 301.85 126.21 L 305.50 121.31 L 309.15 124.58 L 312.80 141.67 L 316.45 143.69 L 320.10 145.67 L 323.75 154.24 L 327.40 153.26 L 331.05 157.41 L 334.70 151.33 L 338.35 150.53 L 342.00 150.46 L 345.65 146.53 L 349.30 136.32 L 352.95 139.50 L 356.60 133.40 L 360.25 127.18 L 363.90 122.41 L 367.55 116.05 L 371.20 117.99 L 374.85 113.83 L 378.50 117.49 L 382.15 128.27 L 385.80 137.68 L 389.45 143.13 L 393.10 142.51 L 396.75 146.18 L 400.40 146.04 L 404.05 142.02 L 407.70 143.36 L 411.35 143.17 L 415.00 131.26 L 418.65 123.14 L 422.30 118.57 L 425.95 132.62 L 429.60 134.77 L 433.25 134.21 L 436.90 137.41 L 440.55 130.04 L 444.20 122.58 L 447.85 122.17 L 451.50 120.00 L 455.15 122.72 L 458.80 116.31 L 462.45 114.10 L 466.10 109.58 L 469.75 103.84 L 473.40 99.99 L 477.05 96.42 L 480.70 97.42 L 484.35 100.39 L 488.00 96.47 L 491.65 90.63 L 495.30 97.14 L 498.95 86.00 L 502.60 83.70 L 506.25 81.18 L 509.90 87.21 L 513.55 90.23 L 517.20 91.56 L 520.85 86.93 L 524.50 85.02 L 528.15 79.27 L 531.80 73.56 L 535.45 70.74 L 539.10 65.38 L 542.75 70.21 L 546.40 72.11 L 550.05 75.19 L 553.70 83.21 L 557.35 90.99 L 561.00 93.28 L 564.65 101.01 L 568.30 96.82 L 571.95 103.28 L 575.60 109.04 L 579.25 110.43 L 582.90 106.49 L 586.55 107.79 L 590.20 105.83 L 593.85 105.60 L 597.50 99.56 L 601.15 97.00 L 604.80 100.94 L 608.45 110.19 L 612.10 120.61 L 615.75 111.69 L 619.40 115.45 L 623.05 112.71 L 626.70 115.61 L 630.35 121.92 L 634.00 123.89 L 637.65 125.40 L 641.30 128.21 L 644.95 129.33 L 648.60 130.36 L 652.25 126.92 L 655.90 129.16 L 659.55 137.06 L 663.20 138.28 L 666.85 145.87 L 670.50 140.61 L 674.15 140.39 L 677.80 137.75 L 681.45 133.88 L 685.10 138.46 L 688.75 134.29 L 692.40 136.85 L 696.05 134.69 L 699.70 135.18 L 703.35 134.59 L 707.00 137.93 L 710.65 134.35 L 714.30 130.34 L 717.95 126.01 L 721.60 127.10 L 725.25 142.55 L 728.90 150.40 L 732.55 143.40 L 736.20 147.85 L 739.85 152.62 L 743.50 152.06 L 747.15 152.92 L 750.80 145.98 L 754.45 141.52 L 758.10 145.54 L 761.75 149.54 L 765.40 146.01 L 769.05 143.73 L 772.70 147.24 L 776.35 147.38 L 780.00 147.57" class="path-0" />
<path d="M 50.00 148.84 L 53.65 150.20 L 57.30 153.96 L 60.95 141.04 L 64.60 142.35 L 68.25 131.52 L 71.90 137.12 L 75.55 142.64 L 79.20 147.50 L 82.85 143.49 L 86.50 142.58 L 90.15 140.17 L 93.80 143.38 L 97.45 144.42 L 101.10 143.20 L 104.75 140.06 L 108.40 148.42 L 112.05 147.49 L 115.70 148.72 L 119.35 159.70 L 123.00 162.52 L 126.65 151.19 L 130.30 149.45 L 133.95 139.62 L 137.60 136.30 L 141.25 138.37 L 144.90 132.10 L 148.55 126.34 L 152.20 121.68 L 155.85 132.88 L 159.50 130.80 L 163.15 128.56 L 166.80 133.53 L 170.45 128.97 L 174.10 126.78 L 177.75 131.09 L 181.40 128.39 L 185.05 119.66 L 188.70 123.76 L 192.35 125.03 L 196.00 122.44 L 199.65 125.27 L 203.30 123.26 L 206.95 127.85 L 210.60 126.71 L 214.25 123.44 L 217.90 127.40 L 221.55 129.12 L 225.20 132.07 L 228.85 129.51 L 232.50 130.58 L 236.15 132.29 L 239.80 142.10 L 243.45 138.04 L 247.10 130.81 L 250.75 134.94 L 254.40 128.66 L 258.05 122.66 L 261.70 120.16 L 265.35 112.55 L 269.00 114.04 L 272.65 119.79 L 276.30 128.64 L 279.95 132.87 L 283.60 124.48 L 287.25 118.61 L 290.90 124.51 L 294.55 124.16 L 298.20 124.92 L 301.85 123.90 L 305.50 125.49 L 309.15 127.17 L 312.80 128.27 L 316.45 130.49 L 320.10 135.61 L 323.75 134.22 L 327.40 128.37 L 331.05 129.57 L 334.70 138.64 L 338.35 135.20 L 342.00 140.70 L 345.65 142.16 L 349.30 144.47 L 352.95 145.95 L 356.60 142.04 L 360.25 136.78 L 363.90 143.12 L 367.55 148.78 L 371.20 149.70 L 374.85 156.16 L 378.50 151.92 L 382.15 150.38 L 385.80 155.51 L 389.45 150.26 L 393.10 148.35 L 396.75 146.05 L 400.40 151.65 L 404.05 156.82 L 407.70 152.07 L 411.35 161.47 L 415.00 166.41 L 418.65 160.58 L 422.30 161.00 L 425.95 165.21 L 429.60 167.98 L 433.25 168.47 L 436.90 171.58 L 440.55 178.29 L 444.20 175.49 L 447.85 163.28 L 451.50 164.83 L 455.15 163.65 L 458.80 172.48 L 462.45 174.38 L 466.10 178.12 L 469.75 182.80 L 473.40 178.24 L 477.05 183.10 L 480.70 174.38 L 484.35 166.94 L 488.00 164.86 L 491.65 154.01 L 495.30 151.40 L 498.95 155.46 L 502.60 146.05 L 506.25 142.76 L 509.90 138.70 L 513.55 151.68 L 517.20 160.22 L 520.85 165.69 L 524.50 176.88 L 528.15 178.43 L 531.80 180.03 L 535.45 179.77 L 539.10 172.11 L 542.75 179.19 L 546.40 178.25 L 550.05 174.26 L 553.70 171.99 L 557.35 172.23 L 561.00 168.70 L 564.65 166.51 L 568.30 163.17 L 571.95 158.36 L 575.60 156.30 L 579.25 161.35 L 582.90 162.93 L 586.55 157.71 L 590.20 160.24 L 593.85 160.88 L 597.50 167.43 L 601.15 168.76 L 604.80 169.84 L 608.45 168.37 L 612.10 167.74 L 615.75 167.19 L 619.40 172.06 L 623.05 172.25 L 626.70 171.10 L 630.35 176.86 L 634.00 181.83 L 637.65 179.85 L 641.30 185.82 L 644.95 186.48 L 648.60 189.30 L 652.25 197.52 L 655.90 188.11 L 659.55 180.15 L 663.20 184.65 L 666.85 186.87 L 670.50 182.67 L 674.15 181.54 L 677.80 179.76 L 681.45 178.31 L 685.10 175.52 L 688.75 168.99 L 692.40 172.72 L 696.05 175.67 L 699.70 172.68 L 703.35 184.82 L 707.00 186.70 L 710.65 180.31 L 714.30 171.60 L 717.95 178.37 L 721.60 179.16 L 725.25 178.91 L 728.90 189.74 L 732.55 188.88 L 736.20 194.16 L 739.85 199.03 L 743.50 190.77 L 747.15 188.66 L 750.80 180.15 L 754.45 179.57 L 758.10 170.88 L 761.75 172.84 L 765.40 176.63 L 769.05 169.49 L 772.70 173.66 L 776.35 164.42 L 780.00 161.20" class="path-1" />
<path d="M 50.00 148.84 L 53.65 150.20 L 57.30 149.08 L 60.95 145.47 L 64.60 149.21 L 68.25 147.77 L 71.90 145.64 L 75.55 143.08 L 79.20 143.95 L 82.85 141.15 L 86.50 134.60 L 90.15 124.63 L 93.80 122.46 L 97.45 123.00 L 101.10 109.99 L 104.75 116.74 L 108.40 117.35 L 112.05 124.07 L 115.70 125.39 L 119.35 126.49 L 123.00 119.63 L 126.65 107.47 L 130.30 109.84 L 133.95 101.94 L 137.60 108.90 L 141.25 103.46 L 144.90 102.68 L 148.55 104.74 L 152.20 106.73 L 155.85 113.13 L 159.50 114.60 L 163.15 99.96 L 166.80 96.88 L 170.45 104.57 L 174.10 97.37 L 177.75 97.12 L 181.40 101.20 L 185.05 102.80 L 188.70 101.69 L 192.35 114.20 L 196.00 112.68 L 199.65 117.72 L 203.30 120.56 L 206.95 121.61 L 210.60 121.65 L 214.25 135.14 L 217.90 136.73 L 221.55 137.77 L 225.20 132.51 L 228.85 131.27 L 232.50 129.55 L 236.15 130.65 L 239.80 135.08 L 243.45 131.48 L 247.10 139.83 L 250.75 140.74 L 254.40 135.30 L 258.05 141.69 L 261.70 136.33 L 265.35 137.21 L 269.00 128.13 L 272.65 124.44 L 276.30 136.67 L 279.95 132.99 L 283.60 133.37 L 287.25 141.67 L 290.90 136.58 L 294.55 130.84 L 298.20 129.78 L 301.85 135.82 L 305.50 141.13 L 309.15 135.15 L 312.80 138.88 L 316.45 144.52 L 320.10 137.86 L 323.75 144.19 L 327.40 144.14 L 331.05 142.69 L 334.70 150.14 L 338.35 152.04 L 342.00 167.12 L 345.65 165.29 L 349.30 166.57 L 352.95 167.84 L 356.60 161.78 L 360.25 158.87 L 363.90 159.30 L 367.55 152.49 L 371.20 150.27 L 374.85 153.13 L 378.50 149.49 L 382.15 144.68 L 385.80 149.54 L 389.45 155.17 L 393.10 158.32 L 396.75 161.34 L 400.40 164.03 L 404.05 163.98 L 407.70 162.98 L 411.35 150.60 L 415.00 163.44 L 418.65 162.59 L 422.30 166.92 L 425.95 160.47 L 429.60 156.15 L 433.25 154.29 L 436.90 157.55 L 440.55 158.14 L 444.20 152.55 L 447.85 155.11 L 451.50 149.13 L 455.15 145.88 L 458.80 151.52 L 462.45 154.63 L 466.10 150.94 L 469.75 148.62 L 473.40 149.59 L 477.05 138.93 L 480.70 134.88 L 484.35 131.45 L 488.00 135.43 L 491.65 140.10 L 495.30 139.55 L 498.95 139.92 L 502.60 140.04 L 506.25 135.55 L 509.90 141.18 L 513.55 139.41 L 517.20 138.70 L 520.85 146.66 L 524.50 145.42 L 528.15 145.70 L 531.80 143.88 L 535.45 139.29 L 539.10 138.90 L 542.75 141.23 L 546.40 143.71 L 550.05 141.51 L 553.70 139.55 L 557.35 130.22 L 561.00 125.19 L 564.65 122.70 L 568.30 121.24 L 571.95 115.13 L 575.60 104.68 L 579.25 103.41 L 582.90 104.31 L 586.55 104.49 L 590.20 105.21 L 593.85 109.88 L 597.50 109.50 L 601.15 115.38 L 604.80 127.39 L 608.45 130.94 L 612.10 136.90 L 615.75 135.18 L 619.40 135.36 L 623.05 141.29 L 626.70 142.11 L 630.35 135.11 L 634.00 132.63 L 637.65 140.53 L 641.30 130.81 L 644.95 142.49 L 648.60 145.84 L 652.25 145.14 L 655.90 144.63 L 659.55 143.73 L 663.20 140.72 L 666.85 150.86 L 670.50 145.76 L 674.15 147.48 L 677.80 143.00 L 681.45 144.23 L 685.10 150.94 L 688.75 149.35 L 692.40 156.20 L 696.05 158.80 L 699.70 166.19 L 703.35 168.91 L 707.00 168.50 L 710.65 167.69 L 714.30 163.29 L 717.95 160.29 L 721.60 149.95 L 725.25 151.43 L 728.90 148.53 L 732.55 142.29 L 736.20 145.28 L 739.85 139.78 L 743.50 131.88 L 747.15 128.22 L 750.80 132.87 L 754.45 129.50 L 758.10 129.51 L 761.75 131.60 L 765.40 137.40 L 769.05 137.43 L 772.70 134.35 L 776.35 141.60 L 780.00 135.09" class="path-2" />
<path d="M 50.00 148.84 L 53.65 144.81 L 57.30 146.06 L 60.95 139.01 L 64.60 145.06 L 68.25 149.63 L 71.90 151.65 L 75.55 162.56 L 79.20 160.12 L 82.85 162.11 L 86.50 174.60 L 90.15 171.38 L 93.80 171.41 L 97.45 174.92 L 101.10 167.92 L 104.75 170.42 L 108.40 169.48 L 112.05 181.40 L 115.70 175.81 L 119.35 174.53 L 123.00 184.12 L 126.65 192.40 L 130.30 184.98 L 133.95 187.75 L 137.60 187.72 L 141.25 186.50 L 144.90 189.07 L 148.55 190.57 L 152.20 193.75 L 155.85 193.41 L 159.50 189.83 L 163.15 196.14 L 166.80 197.42 L 170.45 202.78 L 174.10 208.62 L 177.75 212.94 L 181.40 211.09 L 185.05 207.63 L 188.70 205.89 L 192.35 198.85 L 196.00 200.47 L 199.65 203.38 L 203.30 201.85 L 206.95 187.18 L 210.60 198.52 L 214.25 186.53 L 217.90 184.29 L 221.55 190.10 L 225.20 195.46 L 228.85 197.89 L 232.50 190.15 L 236.15 180.94 L 239.80 178.26 L 243.45 178.31 L 247.10 182.23 L 250.75 180.87 L 254.40 176.35 L 258.05 172.12 L 261.70 173.80 L 265.35 169.80 L 269.00 164.96 L 272.65 160.84 L 276.30 157.19 L 279.95 162.98 L 283.60 161.67 L 287.25 176.23 L 290.90 175.21 L 294.55 171.64 L 298.20 172.32 L 301.85 167.64 L 305.50 153.18 L 309.15 157.07 L 312.80 155.19 L 316.45 154.17 L 320.10 159.61 L 323.75 155.37 L 327.40 154.05 L 331.05 153.92 L 334.70 149.54 L 338.35 144.96 L 342.00 143.09 L 345.65 150.46 L 349.30 155.33 L 352.95 155.79 L 356.60 154.49 L 360.25 160.54 L 363.90 157.17 L 367.55 164.16 L 371.20 171.29 L 374.85 176.35 L 378.50 181.22 L 382.15 173.15 L 385.80 180.18 L 389.45 189.68 L 393.10 183.58 L 396.75 186.25 L 400.40 194.03 L 404.05 197.46 L 407.70 204.09 L 411.35 195.20 L 415.00 190.26 L 418.65 191.54 L 422.30 190.19 L 425.95 186.27 L 429.60 193.06 L 433.25 195.90 L 436.90 190.35 L 440.55 188.77 L 444.20 188.38 L 447.85 177.24 L 451.50 188.43 L 455.15 191.19 L 458.80 188.89 L 462.45 181.64 L 466.10 176.80 L 469.75 172.09 L 473.40 172.05 L 477.05 173.78 L 480.70 164.68 L 484.35 167.89 L 488.00 172.43 L 491.65 179.23 L 495.30 176.83 L 498.95 168.72 L 502.60 165.44 L 506.25 165.80 L 509.90 163.44 L 513.55 156.02 L 517.20 155.88 L 520.85 148.78 L 524.50 148.65 L 528.15 148.57 L 531.80 141.79 L 535.45 141.21 L 539.10 138.29 L 542.75 145.45 L 546.40 147.73 L 550.05 148.82 L 553.70 154.31 L 557.35 150.28 L 561.00 139.60 L 564.65 141.31 L 568.30 146.04 L 571.95 148.65 L 575.60 149.99 L 579.25 156.27 L 582.90 160.45 L 586.55 169.14 L 590.20 171.65 L 593.85 163.74 L 597.50 157.18 L 601.15 146.32 L 604.80 139.45 L 608.45 137.03 L 612.10 137.14 L 615.75 141.51 L 619.40 145.63 L 623.05 157.90 L 626.70 158.27 L 630.35 153.46 L 634.00 150.16 L 637.65 148.65 L 641.30 147.08 L 644.95 143.83 L 648.60 161.63 L 652.25 158.24 L 655.90 155.79 L 659.55 155.71 L 663.20 156.75 L 666.85 145.61 L 670.50 150.39 L 674.15 154.41 L 677.80 154.17 L 681.45 155.35 L 685.10 158.06 L 688.75 154.19 L 692.40 154.11 L 696.05 151.47 L 699.70 151.93 L 703.35 153.64 L 707.00 160.54 L 710.65 150.90 L 714.30 149.89 L 717.95 148.91 L 721.60 153.65 L 725.25 151.14 L 728.90 151.54 L 732.55 153.68 L 736.20 149.78 L 739.85 147.33 L 743.50 138.06 L 747.15 144.57 L 750.80 143.67 L 754.45 141.42 L 758.10 139.03 L 761.75 143.64 L 765.40 138.46 L 769.05 128.39 L 772.70 137.10 L 776.35 133.62 L 780.00 128.84" class="path-3" />
<path d="M 50.00 148.84 L 53.65 162.26 L 57.30 165.71 L 60.95 167.43 L 64.60 167.87 L 68.25 174.59 L 71.90 179.79 L 75.55 182.61 L 79.20 186.45 L 82.85 188.57 L 86.50 188.74 L 90.15 174.34 L 93.80 192.52 L 97.45 192.96 L 101.10 195.05 L 104.75 194.79 L 108.40 192.08 L 112.05 191.96 L 115.70 182.66 L 119.35 187.23 L 123.00 194.79 L 126.65 193.01 L 130.30 195.98 L 133.95 200.87 L 137.60 204.64 L 141.25 196.77 L 144.90 201.17 L 148.55 201.71 L 152.20 203.44 L 155.85 206.15 L 159.50 210.93 L 163.15 215.84 L 166.80 220.97 L 170.45 227.82 L 174.10 222.92 L 177.75 221.54 L 181.40 226.41 L 185.05 229.71 L 188.70 231.52 L 192.35 230.88 L 196.00 228.21 L 199.65 221.76 L 203.30 218.78 L 206.95 216.22 L 210.60 221.58 L 214.25 222.37 L 217.90 226.12 L 221.55 225.73 L 225.20 215.94 L 228.85 219.12 L 232.50 217.75 L 236.15 222.06 L 239.80 224.19 L 243.45 221.59 L 247.10 221.72 L 250.75 214.64 L 254.40 211.88 L 258.05 218.76 L 261.70 224.51 L 265.35 230.15 L 269.00 227.31 L 272.65 215.36 L 276.30 219.98 L 279.95 215.89 L 283.60 217.38 L 287.25 221.42 L 290.90 217.36 L 294.55 210.05 L 298.20 204.69 L 301.85 203.26 L 305.50 213.42 L 309.15 215.24 L 312.80 212.27 L 316.45 210.99 L 320.10 214.55 L 323.75 212.82 L 327.40 210.35 L 331.05 207.25 L 334.70 212.56 L 338.35 218.26 L 342.00 219.81 L 345.65 225.42 L 349.30 219.43 L 352.95 215.12 L 356.60 215.52 L 360.25 212.39 L 363.90 218.97 L 367.55 220.21 L 371.20 214.91 L 374.85 219.40 L 378.50 226.72 L 382.15 212.35 L 385.80 225.22 L 389.45 214.69 L 393.10 216.76 L 396.75 213.34 L 400.40 215.91 L 404.05 220.57 L 407.70 228.87 L 411.35 219.81 L 415.00 222.76 L 418.65 231.80 L 422.30 226.83 L 425.95 226.19 L 429.60 231.59 L 433.25 220.76 L 436.90 218.76 L 440.55 224.69 L 444.20 225.95 L 447.85 234.62 L 451.50 233.73 L 455.15 232.25 L 458.80 234.61 L 462.45 225.24 L 466.10 220.95 L 469.75 212.33 L 473.40 213.80 L 477.05 212.53 L 480.70 215.93 L 484.35 215.96 L 488.00 214.40 L 491.65 207.81 L 495.30 204.59 L 498.95 213.22 L 502.60 210.65 L 506.25 208.57 L 509.90 206.82 L 513.55 206.40 L 517.20 214.18 L 520.85 213.65 L 524.50 204.97 L 528.15 202.38 L 531.80 202.02 L 535.45 198.35 L 539.10 181.86 L 542.75 182.95 L 546.40 182.13 L 550.05 176.32 L 553.70 172.45 L 557.35 167.29 L 561.00 169.23 L 564.65 160.33 L 568.30 154.53 L 571.95 148.52 L 575.60 145.24 L 579.25 144.81 L 582.90 152.09 L 586.55 148.50 L 590.20 145.22 L 593.85 143.76 L 597.50 143.03 L 601.15 143.42 L 604.80 136.10 L 608.45 135.99 L 612.10 131.69 L 615.75 136.60 L 619.40 137.16 L 623.05 136.32 L 626.70 127.36 L 630.35 127.45 L 634.00 131.49 L 637.65 138.49 L 641.30 135.76 L 644.95 119.68 L 648.60 121.45 L 652.25 117.56 L 655.90 118.53 L 659.55 116.15 L 663.20 119.94 L 666.85 119.00 L 670.50 116.57 L 674.15 124.31 L 677.80 127.93 L 681.45 129.41 L 685.10 125.16 L 688.75 132.47 L 692.40 140.96 L 696.05 143.26 L 699.70 143.68 L 703.35 142.35 L 707.00 135.00 L 710.65 122.92 L 714.30 118.79 L 717.95 123.77 L 721.60 127.04 L 725.25 136.22 L 728.90 141.17 L 732.55 141.40 L 736.20 134.24 L 739.85 141.01 L 743.50 131.64 L 747.15 133.30 L 750.80 137.48 L 754.45 142.66 L 758.10 133.16 L 761.75 130.39 L 765.40 129.05 L 769.05 125.90 L 772.70 118.77 L 776.35 114.02 L 780.00 110.77" class="path-4" />
<line x1="50" y1="148.8" x2="780" y2="148.8" stroke="#4b5563" stroke-width="0.8" stroke-dasharray="6 3" />
</svg>