<svg xmlns="http://www.w3.org/2000/svg" viewBox="0 0 800 300" width="800" height="300">
<style>
.axis-line { stroke: #6b7280; stroke-width: 0.5; }
.axis-text { font-family: monospace; font-size: 11px; fill: #9ca3af; }
.title-text { font-family: monospace; font-size: 14px; fill: #d1d5db; font-weight: bold; }
.grid-line { stroke: #374151; stroke-width: 0.3; stroke-dasharray: 4 2; }
.path-0 { fill: none; stroke: #3b82f6; stroke-width: 2; stroke-linecap: round; opacity: 0.85; animation: draw-0 8s ease-in-out 0.0s infinite; stroke-dasharray: 1218; stroke-dashoffset: 1218;}
@keyframes draw-0 { 0% { stroke-dashoffset: 1218; } 38% { stroke-dashoffset: 0; } 62% { stroke-dashoffset: 0; } 100% { stroke-dashoffset: 1218; }}
.path-1 { fill: none; stroke: #ef4444; stroke-width: 2; stroke-linecap: round; opacity: 0.85; animation: draw-1 8s ease-in-out 0.4s infinite; stroke-dasharray: 1192; stroke-dashoffset: 1192;}
@keyframes draw-1 { 0% { stroke-dashoffset: 1192; } 38% { stroke-dashoffset: 0; } 62% { stroke-dashoffset: 0; } 100% { stroke-dashoffset: 1192; }}
.path-2 { fill: none; stroke: #22c55e; stroke-width: 2; stroke-linecap: round; opacity: 0.85; animation: draw-2 8s ease-in-out 0.8s infinite; stroke-dasharray: 1227; stroke-dashoffset: 1227;}
@keyframes draw-2 { 0% { stroke-dashoffset: 1227; } 38% { stroke-dashoffset: 0; } 62% { stroke-dashoffset: 0; } 100% { stroke-dashoffset: 1227; }}
.path-3 { fill: none; stroke: #f59e0b; stroke-width: 2; stroke-linecap: round; opacity: 0.85; animation: draw-3 8s ease-in-out 1.2000000000000002s infinite; stroke-dasharray: 1217; stroke-dashoffset: 1217;}
@keyframes draw-3 { 0% { stroke-dashoffset: 1217; } 38% { stroke-dashoffset: 0; } 62% { stroke-dashoffset: 0; } 100% { stroke-dashoffset: 1217; }}
.path-4 { fill: none; stroke: #a855f7; stroke-width: 2; stroke-linecap: round; opacity: 0.85; animation: draw-4 8s ease-in-out 1.6s infinite; stroke-dasharray: 1210; stroke-dashoffset: 1210;}
@keyframes draw-4 { 0% { stroke-dashoffset: 1210; } 38% { stroke-dashoffset: 0; } 62% { stroke-dashoffset: 0; } 100% { stroke-dashoffset: 1210; }}
</style>
<rect width="800" height="300" rx="8" fill="#0d1117" />
<line x1="50" y1="260.0" x2="780" y2="260.0" class="grid-line" />
<text x="44" y="264.0" text-anchor="end" class="axis-text">-1.5</text>
<line x1="50" y1="216.0" x2="780" y2="216.0" class="grid-line" />
<text x="44" y="220.0" text-anchor="end" class="axis-text">-0.9</text>
<line x1="50" y1="172.0" x2="780" y2="172.0" class="grid-line" />
<text x="44" y="176.0" text-anchor="end" class="axis-text">-0.3</text>
<line x1="50" y1="128.0" x2="780" y2="128.0" class="grid-line" />
<text x="44" y="132.0" text-anchor="end" class="axis-text">0.3</text>
<line x1="50" y1="84.0" x2="780" y2="84.0" class="grid-line" />
<text x="44" y="88.0" text-anchor="end" class="axis-text">0.9</text>
<line x1="50" y1="40.0" x2="780" y2="40.0" class="grid-line" />
<text x="44" y="44.0" text-anchor="end" class="axis-text">1.4</text>
<line x1="50.0" y1="40" x2="50.0" y2="260" class="grid-line" />
<line x1="196.0" y1="40" x2="196.0" y2="260" class="grid-line" />
<line x1="342.0" y1="40" x2="342.0" y2="260" class="grid-line" />
<line x1="488.0" y1="40" x2="488.0" y2="260" class="grid-line" />
<line x1="634.0" y1="40" x2="634.0" y2="260" class="grid-line" />
<line x1="780.0" y1="40" x2="780.0" y2="260" class="grid-line" />
<line x1="50" y1="260" x2="780" y2="260" class="axis-line" />
<line x1="50" y1="40" x2="50" y2="260" class="axis-line" />
<text x="400.0" y="295" text-anchor="middle" class="axis-text">t</text>
<text x="12" y="150.0" text-anchor="middle" class="axis-text" transform="rotate(-90 12 150.0)">W(t)</text>
<text x="400.0" y="22" text-anchor="middle" class="title-text">Brownian Motion</text>
<path d="M 50.00 148.04 L 53.65 158.78 L 57.30 161.64 L 60.95 169.02 L 64.60 156.00 L 68.25 158.15 L 71.90 157.33 L 75.55 156.81 L 79.20 156.39 L 82.85 153.51 L 86.50 152.65 L 90.15 151.65 L 93.80 146.43 L 97.45 138.25 L 101.10 135.31 L 104.75 140.97 L 108.40 135.52 L 112.05 133.55 L 115.70 143.16 L 119.35 145.97 L 123.00 143.41 L 126.65 142.36 L 130.30 145.25 L 133.95 146.69 L 137.60 149.11 L 141.25 157.19 L 144.90 154.54 L 148.55 155.45 L 152.20 151.43 L 155.85 142.11 L 159.50 146.22 L 163.15 147.68 L 166.80 146.88 L 170.45 136.16 L 174.10 127.82 L 177.75 124.61 L 181.40 128.29 L 185.05 119.82 L 188.70 120.74 L 192.35 125.59 L 196.00 125.09 L 199.65 130.99 L 203.30 138.13 L 206.95 140.05 L 210.60 140.34 L 214.25 137.45 L 217.90 137.18 L 221.55 129.50 L 225.20 129.69 L 228.85 127.26 L 232.50 129.87 L 236.15 137.15 L 239.80 137.93 L 243.45 142.18 L 247.10 135.36 L 250.75 134.52 L 254.40 128.94 L 258.05 134.69 L 261.70 137.11 L 265.35 148.29 L 269.00 141.08 L 272.65 142.72 L 276.30 133.91 L 279.95 133.75 L 283.60 136.81 L 287.25 133.58 L 290.90 138.23 L 294.55 135.72 L 298.20 126.07 L 301.85 134.25 L 305.50 141.96 L 309.15 143.63 L 312.80 135.60 L 316.45 134.13 L 320.10 137.42 L 323.75 141.81 L 327.40 142.30 L 331.05 136.80 L 334.70 137.25 L 338.35 138.53 L 342.00 135.51 L 345.65 144.89 L 349.30 149.58 L 352.95 153.66 L 356.60 152.92 L 360.25 156.08 L 363.90 161.30 L 367.55 159.07 L 371.20 150.64 L 374.85 152.41 L 378.50 154.35 L 382.15 151.65 L 385.80 160.33 L 389.45 150.08 L 393.10 155.71 L 396.75 158.48 L 400.40 153.97 L 404.05 156.11 L 407.70 158.54 L 411.35 150.49 L 415.00 145.72 L 418.65 145.82 L 422.30 148.25 L 425.95 153.66 L 429.60 170.37 L 433.25 167.65 L 436.90 168.50 L 440.55 169.76 L 444.20 171.81 L 447.85 167.63 L 451.50 171.57 L 455.15 166.66 L 458.80 163.74 L 462.45 159.72 L 466.10 158.96 L 469.75 163.06 L 473.40 162.10 L 477.05 163.46 L 480.70 171.94 L 484.35 169.73 L 488.00 176.51 L 491.65 179.00 L 495.30 177.27 L 498.95 179.89 L 502.60 184.37 L 506.25 187.02 L 509.90 194.90 L 513.55 193.20 L 517.20 201.87 L 520.85 202.67 L 524.50 208.45 L 528.15 208.78 L 531.80 213.57 L 535.45 220.71 L 539.10 218.39 L 542.75 219.36 L 546.40 220.58 L 550.05 215.98 L 553.70 218.01 L 557.35 213.55 L 561.00 210.55 L 564.65 212.72 L 568.30 209.88 L 571.95 213.83 L 575.60 200.21 L 579.25 203.25 L 582.90 198.66 L 586.55 195.24 L 590.20 206.36 L 593.85 207.98 L 597.50 192.08 L 601.15 192.28 L 604.80 190.88 L 608.45 193.86 L 612.10 204.81 L 615.75 200.75 L 619.40 207.14 L 623.05 211.28 L 626.70 215.27 L 630.35 211.19 L 634.00 211.90 L 637.65 223.38 L 641.30 214.75 L 644.95 219.20 L 648.60 210.74 L 652.25 217.25 L 655.90 213.84 L 659.55 217.31 L 663.20 217.62 L 666.85 225.28 L 670.50 223.76 L 674.15 227.39 L 677.80 223.82 L 681.45 217.71 L 685.10 214.99 L 688.75 220.28 L 692.40 213.83 L 696.05 206.35 L 699.70 202.71 L 703.35 202.66 L 707.00 195.37 L 710.65 204.78 L 714.30 204.53 L 717.95 200.81 L 721.60 194.18 L 725.25 199.44 L 728.90 189.34 L 732.55 188.56 L 736.20 188.83 L 739.85 183.75 L 743.50 189.86 L 747.15 197.80 L 750.80 189.92 L 754.45 194.76 L 758.10 195.16 L 761.75 202.21 L 765.40 205.33 L 769.05 202.66 L 772.70 193.60 L 776.35 200.73 L 780.00 202.55" class="path-0" />
<path d="M 50.00 148.04 L 53.65 153.84 L 57.30 157.60 L 60.95 148.04 L 64.60 154.75 L 68.25 146.31 L 71.90 154.25 L 75.55 154.11 L 79.20 152.80 L 82.85 149.31 L 86.50 141.51 L 90.15 135.91 L 93.80 132.73 L 97.45 128.77 L 101.10 128.20 L 104.75 131.89 L 108.40 127.32 L 112.05 131.99 L 115.70 128.90 L 119.35 127.92 L 123.00 117.60 L 126.65 109.43 L 130.30 102.85 L 133.95 101.36 L 137.60 100.81 L 141.25 103.49 L 144.90 100.90 L 148.55 97.79 L 152.20 95.71 L 155.85 102.26 L 159.50 98.56 L 163.15 93.20 L 166.80 93.08 L 170.45 93.10 L 174.10 95.40 L 177.75 99.56 L 181.40 90.30 L 185.05 72.89 L 188.70 65.38 L 192.35 72.61 L 196.00 72.97 L 199.65 79.75 L 203.30 84.34 L 206.95 82.37 L 210.60 82.61 L 214.25 77.13 L 217.90 77.35 L 221.55 79.12 L 225.20 78.97 L 228.85 70.11 L 232.50 77.14 L 236.15 72.22 L 239.80 74.28 L 243.45 69.22 L 247.10 75.42 L 250.75 76.38 L 254.40 77.41 L 258.05 73.99 L 261.70 78.57 L 265.35 85.37 L 269.00 87.42 L 272.65 77.59 L 276.30 78.67 L 279.95 81.48 L 283.60 82.26 L 287.25 88.08 L 290.90 91.64 L 294.55 99.81 L 298.20 101.76 L 301.85 106.92 L 305.50 115.00 L 309.15 120.71 L 312.80 111.81 L 316.45 109.48 L 320.10 110.66 L 323.75 100.33 L 327.40 99.39 L 331.05 98.70 L 334.70 98.15 L 338.35 101.26 L 342.00 100.87 L 345.65 103.22 L 349.30 107.22 L 352.95 106.86 L 356.60 102.23 L 360.25 101.33 L 363.90 103.99 L 367.55 104.40 L 371.20 108.08 L 374.85 105.86 L 378.50 101.26 L 382.15 99.90 L 385.80 107.01 L 389.45 113.01 L 393.10 110.53 L 396.75 107.23 L 400.40 112.83 L 404.05 119.56 L 407.70 114.67 L 411.35 111.62 L 415.00 119.30 L 418.65 121.28 L 422.30 121.53 L 425.95 121.64 L 429.60 111.56 L 433.25 111.21 L 436.90 118.02 L 440.55 108.20 L 444.20 110.43 L 447.85 106.74 L 451.50 102.84 L 455.15 114.19 L 458.80 107.81 L 462.45 108.00 L 466.10 117.96 L 469.75 114.04 L 473.40 106.61 L 477.05 106.60 L 480.70 113.70 L 484.35 110.45 L 488.00 106.78 L 491.65 102.90 L 495.30 96.28 L 498.95 95.95 L 502.60 94.02 L 506.25 93.32 L 509.90 84.73 L 513.55 82.72 L 517.20 80.52 L 520.85 77.49 L 524.50 83.89 L 528.15 83.37 L 531.80 78.14 L 535.45 86.33 L 539.10 84.81 L 542.75 80.04 L 546.40 78.17 L 550.05 81.49 L 553.70 79.75 L 557.35 78.29 L 561.00 76.93 L 564.65 83.65 L 568.30 83.50 L 571.95 81.85 L 575.60 84.63 L 579.25 81.48 L 582.90 82.42 L 586.55 77.60 L 590.20 80.11 L 593.85 90.20 L 597.50 93.10 L 601.15 93.70 L 604.80 91.41 L 608.45 99.09 L 612.10 101.77 L 615.75 96.80 L 619.40 89.25 L 623.05 90.12 L 626.70 97.72 L 630.35 95.60 L 634.00 98.89 L 637.65 106.91 L 641.30 102.28 L 644.95 112.22 L 648.60 110.38 L 652.25 116.10 L 655.90 120.61 L 659.55 116.24 L 663.20 119.15 L 666.85 120.06 L 670.50 127.05 L 674.15 122.67 L 677.80 123.75 L 681.45 116.87 L 685.10 112.27 L 688.75 113.97 L 692.40 115.70 L 696.05 128.28 L 699.70 130.64 L 703.35 126.89 L 707.00 130.85 L 710.65 142.13 L 714.30 146.01 L 717.95 153.45 L 721.60 160.84 L 725.25 161.97 L 728.90 158.42 L 732.55 170.41 L 736.20 164.43 L 739.85 163.73 L 743.50 157.69 L 747.15 157.87 L 750.80 161.83 L 754.45 158.37 L 758.10 162.13 L 761.75 163.24 L 765.40 157.86 L 769.05 157.53 L 772.70 149.37 L 776.35 143.37 L 780.00 141.78" class="path-1" />
<path d="M 50.00 148.04 L 53.65 153.96 L 57.30 159.18 L 60.95 148.64 L 64.60 147.81 L 68.25 143.50 L 71.90 144.73 L 75.55 137.06 L 79.20 135.48 L 82.85 133.63 L 86.50 139.99 L 90.15 145.77 L 93.80 154.82 L 97.45 151.12 L 101.10 139.99 L 104.75 143.08 L 108.40 146.82 L 112.05 145.78 L 115.70 145.91 L 119.35 148.25 L 123.00 152.46 L 126.65 145.96 L 130.30 147.53 L 133.95 148.16 L 137.60 144.72 L 141.25 147.68 L 144.90 137.52 L 148.55 143.51 L 152.20 152.35 L 155.85 147.64 L 159.50 159.98 L 163.15 152.00 L 166.80 157.09 L 170.45 148.92 L 174.10 148.85 L 177.75 150.96 L 181.40 153.45 L 185.05 147.94 L 188.70 149.85 L 192.35 145.92 L 196.00 147.04 L 199.65 156.45 L 203.30 156.06 L 206.95 155.49 L 210.60 142.81 L 214.25 141.15 L 217.90 138.00 L 221.55 138.03 L 225.20 137.91 L 228.85 137.99 L 232.50 146.68 L 236.15 142.73 L 239.80 139.64 L 243.45 131.16 L 247.10 125.06 L 250.75 131.19 L 254.40 129.70 L 258.05 134.37 L 261.70 137.68 L 265.35 139.59 L 269.00 134.82 L 272.65 140.09 L 276.30 146.75 L 279.95 144.46 L 283.60 144.35 L 287.25 138.96 L 290.90 134.85 L 294.55 141.60 L 298.20 145.94 L 301.85 155.92 L 305.50 155.20 L 309.15 161.31 L 312.80 157.37 L 316.45 150.20 L 320.10 139.08 L 323.75 139.44 L 327.40 141.67 L 331.05 143.96 L 334.70 147.74 L 338.35 148.61 L 342.00 153.23 L 345.65 146.69 L 349.30 140.43 L 352.95 141.59 L 356.60 127.97 L 360.25 133.51 L 363.90 143.35 L 367.55 155.09 L 371.20 153.73 L 374.85 155.76 L 378.50 155.86 L 382.15 153.03 L 385.80 147.63 L 389.45 158.85 L 393.10 161.92 L 396.75 170.45 L 400.40 165.30 L 404.05 170.90 L 407.70 173.57 L 411.35 187.26 L 415.00 188.18 L 418.65 192.40 L 422.30 190.18 L 425.95 182.80 L 429.60 178.32 L 433.25 179.19 L 436.90 186.98 L 440.55 196.12 L 444.20 196.07 L 447.85 190.47 L 451.50 196.79 L 455.15 201.99 L 458.80 203.70 L 462.45 201.79 L 466.10 201.87 L 469.75 201.15 L 473.40 198.23 L 477.05 189.95 L 480.70 188.29 L 484.35 179.55 L 488.00 181.70 L 491.65 182.67 L 495.30 182.12 L 498.95 191.80 L 502.60 188.05 L 506.25 186.62 L 509.90 181.34 L 513.55 179.30 L 517.20 175.71 L 520.85 179.29 L 524.50 181.91 L 528.15 178.22 L 531.80 173.46 L 535.45 184.32 L 539.10 176.77 L 542.75 170.24 L 546.40 168.05 L 550.05 172.81 L 553.70 183.72 L 557.35 180.63 L 561.00 182.65 L 564.65 179.87 L 568.30 174.22 L 571.95 174.69 L 575.60 170.00 L 579.25 173.22 L 582.90 176.83 L 586.55 173.11 L 590.20 174.30 L 593.85 179.15 L 597.50 186.21 L 601.15 185.43 L 604.80 188.00 L 608.45 192.97 L 612.10 201.57 L 615.75 193.84 L 619.40 195.74 L 623.05 199.58 L 626.70 199.53 L 630.35 198.70 L 634.00 204.06 L 637.65 201.08 L 641.30 202.19 L 644.95 205.75 L 648.60 197.68 L 652.25 196.93 L 655.90 187.74 L 659.55 192.40 L 663.20 180.80 L 666.85 178.43 L 670.50 175.20 L 674.15 175.36 L 677.80 174.19 L 681.45 178.27 L 685.10 181.06 L 688.75 178.59 L 692.40 170.46 L 696.05 168.72 L 699.70 175.81 L 703.35 177.86 L 707.00 176.64 L 710.65 178.50 L 714.30 188.49 L 717.95 183.74 L 721.60 182.52 L 725.25 175.85 L 728.90 164.92 L 732.55 159.85 L 736.20 167.19 L 739.85 169.13 L 743.50 166.27 L 747.15 165.35 L 750.80 169.62 L 754.45 176.16 L 758.10 174.83 L 761.75 173.81 L 765.40 175.52 L 769.05 170.24 L 772.70 174.32 L 776.35 182.02 L 780.00 182.59" class="path-2" />
<path d="M 50.00 148.04 L 53.65 138.22 L 57.30 133.11 L 60.95 136.88 L 64.60 139.49 L 68.25 135.97 L 71.90 136.72 L 75.55 131.99 L 79.20 130.37 L 82.85 127.90 L 86.50 122.16 L 90.15 117.61 L 93.80 120.56 L 97.45 128.86 L 101.10 130.19 L 104.75 128.53 L 108.40 131.11 L 112.05 125.84 L 115.70 128.32 L 119.35 131.95 L 123.00 127.01 L 126.65 136.19 L 130.30 127.41 L 133.95 127.14 L 137.60 120.20 L 141.25 127.50 L 144.90 126.58 L 148.55 136.14 L 152.20 138.36 L 155.85 144.29 L 159.50 142.67 L 163.15 143.60 L 166.80 139.89 L 170.45 147.69 L 174.10 147.16 L 177.75 161.21 L 181.40 156.92 L 185.05 150.76 L 188.70 150.97 L 192.35 148.91 L 196.00 153.82 L 199.65 163.53 L 203.30 161.25 L 206.95 166.48 L 210.60 162.47 L 214.25 151.79 L 217.90 152.09 L 221.55 154.23 L 225.20 147.76 L 228.85 144.64 L 232.50 147.31 L 236.15 148.07 L 239.80 141.10 L 243.45 131.24 L 247.10 129.85 L 250.75 127.93 L 254.40 129.88 L 258.05 138.71 L 261.70 134.07 L 265.35 133.74 L 269.00 134.97 L 272.65 128.59 L 276.30 128.74 L 279.95 129.64 L 283.60 134.13 L 287.25 139.98 L 290.90 142.55 L 294.55 140.63 L 298.20 146.55 L 301.85 150.34 L 305.50 152.81 L 309.15 143.85 L 312.80 143.09 L 316.45 156.32 L 320.10 147.85 L 323.75 155.70 L 327.40 155.70 L 331.05 152.12 L 334.70 144.76 L 338.35 144.00 L 342.00 151.71 L 345.65 150.11 L 349.30 145.13 L 352.95 148.35 L 356.60 142.87 L 360.25 135.38 L 363.90 126.27 L 367.55 125.86 L 371.20 129.23 L 374.85 127.40 L 378.50 122.37 L 382.15 113.06 L 385.80 118.11 L 389.45 121.40 L 393.10 110.90 L 396.75 107.34 L 400.40 106.19 L 404.05 106.27 L 407.70 100.38 L 411.35 93.40 L 415.00 80.98 L 418.65 81.23 L 422.30 80.34 L 425.95 84.85 L 429.60 86.93 L 433.25 85.27 L 436.90 83.96 L 440.55 83.13 L 444.20 79.38 L 447.85 73.97 L 451.50 82.73 L 455.15 92.70 L 458.80 90.88 L 462.45 90.38 L 466.10 90.98 L 469.75 94.76 L 473.40 98.43 L 477.05 99.36 L 480.70 93.11 L 484.35 100.86 L 488.00 106.75 L 491.65 103.44 L 495.30 109.99 L 498.95 121.13 L 502.60 121.78 L 506.25 120.64 L 509.90 109.93 L 513.55 109.99 L 517.20 105.89 L 520.85 112.48 L 524.50 119.08 L 528.15 114.38 L 531.80 119.18 L 535.45 119.33 L 539.10 116.93 L 542.75 112.98 L 546.40 119.75 L 550.05 116.59 L 553.70 120.95 L 557.35 119.79 L 561.00 127.45 L 564.65 139.13 L 568.30 140.00 L 571.95 135.51 L 575.60 134.38 L 579.25 135.03 L 582.90 142.69 L 586.55 147.40 L 590.20 148.62 L 593.85 145.16 L 597.50 147.27 L 601.15 147.00 L 604.80 153.92 L 608.45 158.53 L 612.10 167.08 L 615.75 173.26 L 619.40 173.34 L 623.05 185.21 L 626.70 183.23 L 630.35 174.06 L 634.00 171.94 L 637.65 169.37 L 641.30 168.74 L 644.95 172.96 L 648.60 171.23 L 652.25 170.04 L 655.90 169.42 L 659.55 170.35 L 663.20 170.67 L 666.85 174.22 L 670.50 181.54 L 674.15 183.60 L 677.80 183.98 L 681.45 193.27 L 685.10 202.95 L 688.75 206.27 L 692.40 198.73 L 696.05 198.25 L 699.70 206.56 L 703.35 206.46 L 707.00 202.05 L 710.65 193.16 L 714.30 189.12 L 717.95 192.05 L 721.60 199.25 L 725.25 199.88 L 728.90 197.66 L 732.55 196.64 L 736.20 198.55 L 739.85 203.28 L 743.50 202.37 L 747.15 198.67 L 750.80 195.41 L 754.45 189.03 L 758.10 190.56 L 761.75 198.38 L 765.40 193.14 L 769.05 189.00 L 772.70 174.98 L 776.35 179.35 L 780.00 183.72" class="path-3" />
<path d="M 50.00 148.04 L 53.65 151.85 L 57.30 146.08 L 60.95 145.63 L 64.60 149.48 L 68.25 145.66 L 71.90 139.07 L 75.55 130.83 L 79.20 132.32 L 82.85 127.91 L 86.50 133.11 L 90.15 133.55 L 93.80 127.34 L 97.45 128.98 L 101.10 130.72 L 104.75 133.09 L 108.40 128.88 L 112.05 128.86 L 115.70 126.75 L 119.35 127.74 L 123.00 129.23 L 126.65 138.54 L 130.30 139.07 L 133.95 133.89 L 137.60 132.83 L 141.25 135.96 L 144.90 125.15 L 148.55 125.19 L 152.20 112.08 L 155.85 118.85 L 159.50 117.84 L 163.15 109.07 L 166.80 109.51 L 170.45 109.74 L 174.10 105.09 L 177.75 101.50 L 181.40 102.49 L 185.05 109.85 L 188.70 108.41 L 192.35 106.97 L 196.00 107.92 L 199.65 111.92 L 203.30 120.62 L 206.95 130.40 L 210.60 135.07 L 214.25 136.91 L 217.90 137.46 L 221.55 140.58 L 225.20 131.32 L 228.85 123.52 L 232.50 127.17 L 236.15 131.24 L 239.80 143.22 L 243.45 142.38 L 247.10 145.46 L 250.75 146.84 L 254.40 153.62 L 258.05 147.17 L 261.70 154.38 L 265.35 156.49 L 269.00 159.86 L 272.65 165.96 L 276.30 165.77 L 279.95 166.10 L 283.60 172.10 L 287.25 169.13 L 290.90 170.01 L 294.55 165.39 L 298.20 159.86 L 301.85 154.12 L 305.50 150.89 L 309.15 145.96 L 312.80 144.66 L 316.45 140.03 L 320.10 148.02 L 323.75 145.41 L 327.40 145.20 L 331.05 139.70 L 334.70 138.52 L 338.35 139.27 L 342.00 140.75 L 345.65 139.91 L 349.30 150.10 L 352.95 152.69 L 356.60 162.70 L 360.25 165.07 L 363.90 163.06 L 367.55 164.78 L 371.20 162.20 L 374.85 160.07 L 378.50 167.29 L 382.15 163.44 L 385.80 167.64 L 389.45 159.66 L 393.10 165.48 L 396.75 167.01 L 400.40 164.08 L 404.05 161.31 L 407.70 163.98 L 411.35 160.20 L 415.00 158.29 L 418.65 146.92 L 422.30 149.30 L 425.95 154.76 L 429.60 156.56 L 433.25 159.86 L 436.90 164.39 L 440.55 175.93 L 444.20 186.92 L 447.85 179.40 L 451.50 184.72 L 455.15 192.36 L 458.80 193.78 L 462.45 203.25 L 466.10 188.18 L 469.75 185.41 L 473.40 181.13 L 477.05 187.02 L 480.70 181.92 L 484.35 182.61 L 488.00 182.06 L 491.65 187.72 L 495.30 185.97 L 498.95 180.84 L 502.60 176.18 L 506.25 177.12 L 509.90 176.70 L 513.55 178.61 L 517.20 177.61 L 520.85 173.23 L 524.50 174.76 L 528.15 179.53 L 531.80 176.02 L 535.45 174.88 L 539.10 172.26 L 542.75 167.97 L 546.40 164.84 L 550.05 173.99 L 553.70 164.81 L 557.35 165.21 L 561.00 159.36 L 564.65 161.19 L 568.30 162.21 L 571.95 153.05 L 575.60 152.30 L 579.25 157.36 L 582.90 156.54 L 586.55 153.51 L 590.20 158.62 L 593.85 153.73 L 597.50 148.22 L 601.15 149.88 L 604.80 138.00 L 608.45 130.36 L 612.10 137.48 L 615.75 143.25 L 619.40 145.79 L 623.05 138.79 L 626.70 134.80 L 630.35 137.29 L 634.00 135.09 L 637.65 128.16 L 641.30 129.51 L 644.95 131.38 L 648.60 133.27 L 652.25 144.68 L 655.90 142.48 L 659.55 148.47 L 663.20 152.14 L 666.85 152.75 L 670.50 162.94 L 674.15 159.06 L 677.80 152.61 L 681.45 158.58 L 685.10 164.26 L 688.75 167.16 L 692.40 172.93 L 696.05 177.20 L 699.70 183.54 L 703.35 180.45 L 707.00 181.17 L 710.65 184.24 L 714.30 181.57 L 717.95 185.65 L 721.60 190.47 L 725.25 196.83 L 728.90 200.07 L 732.55 203.65 L 736.20 205.56 L 739.85 204.18 L 743.50 209.83 L 747.15 208.34 L 750.80 197.84 L 754.45 207.48 L 758.10 204.81 L 761.75 210.61 L 765.40 204.94 L 769.05 204.87 L 772.70 211.58 L 776.35 230.45 L 780.00 234.62" class="path-4" />
<line x1="50" y1="148.0" x2="780" y2="148.0" stroke="#4b5563" stroke-width="0.8" stroke-dasharray="6 3" />
</svg>