<svg xmlns="http://www.w3.org/2000/svg" viewBox="0 0 800 300" width="800" height="300">
<style>
.axis-line { stroke: #6b7280; stroke-width: 0.5; }
.axis-text { font-family: monospace; font-size: 11px; fill: #9ca3af; }
.title-text { font-family: monospace; font-size: 14px; fill: #d1d5db; font-weight: bold; }
.grid-line { stroke: #374151; stroke-width: 0.3; stroke-dasharray: 4 2; }
.path-0 { fill: none; stroke: #3b82f6; stroke-width: 2; stroke-linecap: round; opacity: 0.85; animation: draw-0 8s ease-in-out 0.0s infinite; stroke-dasharray: 966; stroke-dashoffset: 966;}
@keyframes draw-0 { 0% { stroke-dashoffset: 966; } 38% { stroke-dashoffset: 0; } 62% { stroke-dashoffset: 0; } 100% { stroke-dashoffset: 966; }}
.path-1 { fill: none; stroke: #ef4444; stroke-width: 2; stroke-linecap: round; opacity: 0.85; animation: draw-1 8s ease-in-out 0.4s infinite; stroke-dasharray: 970; stroke-dashoffset: 970;}
@keyframes draw-1 { 0% { stroke-dashoffset: 970; } 38% { stroke-dashoffset: 0; } 62% { stroke-dashoffset: 0; } 100% { stroke-dashoffset: 970; }}
.path-2 { fill: none; stroke: #22c55e; stroke-width: 2; stroke-linecap: round; opacity: 0.85; animation: draw-2 8s ease-in-out 0.8s infinite; stroke-dasharray: 995; stroke-dashoffset: 995;}
@keyframes draw-2 { 0% { stroke-dashoffset: 995; } 38% { stroke-dashoffset: 0; } 62% { stroke-dashoffset: 0; } 100% { stroke-dashoffset: 995; }}
.path-3 { fill: none; stroke: #f59e0b; stroke-width: 2; stroke-linecap: round; opacity: 0.85; animation: draw-3 8s ease-in-out 1.2000000000000002s infinite; stroke-dasharray: 965; stroke-dashoffset: 965;}
@keyframes draw-3 { 0% { stroke-dashoffset: 965; } 38% { stroke-dashoffset: 0; } 62% { stroke-dashoffset: 0; } 100% { stroke-dashoffset: 965; }}
.path-4 { fill: none; stroke: #a855f7; stroke-width: 2; stroke-linecap: round; opacity: 0.85; animation: draw-4 8s ease-in-out 1.6s infinite; stroke-dasharray: 962; stroke-dashoffset: 962;}
@keyframes draw-4 { 0% { stroke-dashoffset: 962; } 38% { stroke-dashoffset: 0; } 62% { stroke-dashoffset: 0; } 100% { stroke-dashoffset: 962; }}
</style>
<rect width="800" height="300" rx="8" fill="#0d1117" />
<line x1="50" y1="260.0" x2="780" y2="260.0" class="grid-line" />
<text x="44" y="264.0" text-anchor="end" class="axis-text">-3.2</text>
<line x1="50" y1="216.0" x2="780" y2="216.0" class="grid-line" />
<text x="44" y="220.0" text-anchor="end" class="axis-text">-2.3</text>
<line x1="50" y1="172.0" x2="780" y2="172.0" class="grid-line" />
<text x="44" y="176.0" text-anchor="end" class="axis-text">-1.4</text>
<line x1="50" y1="128.0" x2="780" y2="128.0" class="grid-line" />
<text x="44" y="132.0" text-anchor="end" class="axis-text">-0.4</text>
<line x1="50" y1="84.0" x2="780" y2="84.0" class="grid-line" />
<text x="44" y="88.0" text-anchor="end" class="axis-text">0.5</text>
<line x1="50" y1="40.0" x2="780" y2="40.0" class="grid-line" />
<text x="44" y="44.0" text-anchor="end" class="axis-text">1.4</text>
<line x1="50.0" y1="40" x2="50.0" y2="260" class="grid-line" />
<line x1="196.0" y1="40" x2="196.0" y2="260" class="grid-line" />
<line x1="342.0" y1="40" x2="342.0" y2="260" class="grid-line" />
<line x1="488.0" y1="40" x2="488.0" y2="260" class="grid-line" />
<line x1="634.0" y1="40" x2="634.0" y2="260" class="grid-line" />
<line x1="780.0" y1="40" x2="780.0" y2="260" class="grid-line" />
<line x1="50" y1="260" x2="780" y2="260" class="axis-line" />
<line x1="50" y1="40" x2="50" y2="260" class="axis-line" />
<text x="400.0" y="295" text-anchor="middle" class="axis-text">t</text>
<text x="12" y="150.0" text-anchor="middle" class="axis-text" transform="rotate(-90 12 150.0)">W(t)</text>
<text x="400.0" y="22" text-anchor="middle" class="title-text">Brownian Motion</text>
<path d="M 50.00 107.57 L 53.65 105.78 L 57.30 104.65 L 60.95 103.78 L 64.60 106.55 L 68.25 109.71 L 71.90 108.45 L 75.55 102.66 L 79.20 106.51 L 82.85 106.88 L 86.50 104.78 L 90.15 103.01 L 93.80 100.43 L 97.45 101.40 L 101.10 104.54 L 104.75 103.89 L 108.40 109.21 L 112.05 107.21 L 115.70 108.27 L 119.35 112.34 L 123.00 105.74 L 126.65 105.15 L 130.30 101.86 L 133.95 102.55 L 137.60 103.85 L 141.25 96.10 L 144.90 93.62 L 148.55 96.07 L 152.20 99.12 L 155.85 95.64 L 159.50 97.21 L 163.15 101.17 L 166.80 99.05 L 170.45 97.06 L 174.10 99.62 L 177.75 97.91 L 181.40 96.93 L 185.05 92.43 L 188.70 96.17 L 192.35 93.52 L 196.00 90.37 L 199.65 87.64 L 203.30 86.33 L 206.95 88.73 L 210.60 91.15 L 214.25 97.77 L 217.90 100.31 L 221.55 102.30 L 225.20 102.86 L 228.85 102.94 L 232.50 104.65 L 236.15 103.30 L 239.80 105.02 L 243.45 102.86 L 247.10 107.27 L 250.75 109.44 L 254.40 110.47 L 258.05 102.52 L 261.70 101.58 L 265.35 105.37 L 269.00 106.16 L 272.65 107.06 L 276.30 108.43 L 279.95 108.47 L 283.60 106.23 L 287.25 106.73 L 290.90 108.71 L 294.55 107.57 L 298.20 105.61 L 301.85 103.17 L 305.50 104.94 L 309.15 106.19 L 312.80 114.96 L 316.45 118.40 L 320.10 114.41 L 323.75 112.07 L 327.40 113.25 L 331.05 112.10 L 334.70 107.21 L 338.35 103.79 L 342.00 102.45 L 345.65 97.85 L 349.30 97.72 L 352.95 98.25 L 356.60 104.86 L 360.25 104.84 L 363.90 106.92 L 367.55 104.64 L 371.20 107.30 L 374.85 111.68 L 378.50 111.08 L 382.15 114.56 L 385.80 117.85 L 389.45 114.85 L 393.10 110.59 L 396.75 107.65 L 400.40 102.63 L 404.05 107.07 L 407.70 100.74 L 411.35 103.88 L 415.00 101.27 L 418.65 98.40 L 422.30 94.66 L 425.95 97.24 L 429.60 98.53 L 433.25 94.18 L 436.90 93.45 L 440.55 89.99 L 444.20 95.35 L 447.85 92.84 L 451.50 95.81 L 455.15 92.31 L 458.80 91.85 L 462.45 89.30 L 466.10 83.80 L 469.75 84.92 L 473.40 85.68 L 477.05 84.92 L 480.70 88.45 L 484.35 84.93 L 488.00 80.85 L 491.65 82.60 L 495.30 91.39 L 498.95 89.69 L 502.60 91.67 L 506.25 91.29 L 509.90 95.37 L 513.55 97.14 L 517.20 93.54 L 520.85 94.58 L 524.50 92.02 L 528.15 94.17 L 531.80 94.19 L 535.45 90.17 L 539.10 91.41 L 542.75 89.99 L 546.40 86.62 L 550.05 86.84 L 553.70 84.90 L 557.35 85.44 L 561.00 89.78 L 564.65 95.13 L 568.30 85.81 L 571.95 86.10 L 575.60 81.53 L 579.25 78.61 L 582.90 74.73 L 586.55 81.60 L 590.20 86.66 L 593.85 88.33 L 597.50 90.16 L 601.15 90.71 L 604.80 94.70 L 608.45 92.63 L 612.10 96.86 L 615.75 93.82 L 619.40 94.78 L 623.05 98.26 L 626.70 102.26 L 630.35 95.21 L 634.00 93.00 L 637.65 94.54 L 641.30 102.24 L 644.95 96.15 L 648.60 93.04 L 652.25 95.99 L 655.90 96.00 L 659.55 91.62 L 663.20 91.64 L 666.85 99.96 L 670.50 97.70 L 674.15 98.48 L 677.80 101.90 L 681.45 105.07 L 685.10 105.60 L 688.75 108.81 L 692.40 109.48 L 696.05 113.53 L 699.70 114.53 L 703.35 114.32 L 707.00 114.45 L 710.65 119.80 L 714.30 116.31 L 717.95 115.78 L 721.60 114.54 L 725.25 114.76 L 728.90 111.23 L 732.55 105.56 L 736.20 105.80 L 739.85 102.76 L 743.50 98.16 L 747.15 98.62 L 750.80 95.53 L 754.45 93.86 L 758.10 98.93 L 761.75 95.89 L 765.40 91.61 L 769.05 90.42 L 772.70 91.76 L 776.35 92.60 L 780.00 94.89" class="path-0" />
<path d="M 50.00 107.57 L 53.65 102.73 L 57.30 95.55 L 60.95 92.63 L 64.60 86.74 L 68.25 87.97 L 71.90 89.89 L 75.55 91.44 L 79.20 88.72 L 82.85 89.46 L 86.50 97.03 L 90.15 102.00 L 93.80 104.09 L 97.45 107.45 L 101.10 105.43 L 104.75 105.03 L 108.40 103.09 L 112.05 102.82 L 115.70 102.75 L 119.35 103.18 L 123.00 101.63 L 126.65 99.33 L 130.30 103.21 L 133.95 107.20 L 137.60 108.11 L 141.25 113.73 L 144.90 111.36 L 148.55 112.30 L 152.20 112.92 L 155.85 114.61 L 159.50 113.48 L 163.15 112.50 L 166.80 108.94 L 170.45 110.13 L 174.10 107.27 L 177.75 103.80 L 181.40 100.73 L 185.05 102.44 L 188.70 105.88 L 192.35 104.70 L 196.00 100.93 L 199.65 97.34 L 203.30 98.95 L 206.95 100.56 L 210.60 103.04 L 214.25 102.83 L 217.90 104.11 L 221.55 98.10 L 225.20 101.06 L 228.85 97.49 L 232.50 100.63 L 236.15 99.16 L 239.80 95.79 L 243.45 97.20 L 247.10 100.01 L 250.75 98.86 L 254.40 100.57 L 258.05 100.45 L 261.70 97.33 L 265.35 96.73 L 269.00 98.51 L 272.65 100.46 L 276.30 94.33 L 279.95 88.19 L 283.60 87.29 L 287.25 91.11 L 290.90 92.27 L 294.55 95.68 L 298.20 91.03 L 301.85 87.16 L 305.50 84.07 L 309.15 84.31 L 312.80 89.16 L 316.45 85.92 L 320.10 86.19 L 323.75 87.44 L 327.40 87.75 L 331.05 91.26 L 334.70 91.25 L 338.35 96.59 L 342.00 98.10 L 345.65 95.20 L 349.30 98.08 L 352.95 97.48 L 356.60 100.03 L 360.25 100.60 L 363.90 94.84 L 367.55 99.96 L 371.20 92.79 L 374.85 85.81 L 378.50 86.24 L 382.15 88.52 L 385.80 86.31 L 389.45 89.60 L 393.10 96.17 L 396.75 99.84 L 400.40 101.77 L 404.05 96.00 L 407.70 96.14 L 411.35 102.04 L 415.00 102.24 L 418.65 99.92 L 422.30 102.01 L 425.95 102.33 L 429.60 102.12 L 433.25 98.95 L 436.90 104.89 L 440.55 105.36 L 444.20 99.21 L 447.85 102.50 L 451.50 100.41 L 455.15 96.36 L 458.80 93.49 L 462.45 89.38 L 466.10 87.71 L 469.75 95.47 L 473.40 98.72 L 477.05 101.24 L 480.70 99.38 L 484.35 94.90 L 488.00 94.36 L 491.65 100.70 L 495.30 98.20 L 498.95 100.16 L 502.60 93.34 L 506.25 93.01 L 509.90 92.00 L 513.55 93.08 L 517.20 93.91 L 520.85 94.87 L 524.50 97.60 L 528.15 96.05 L 531.80 95.36 L 535.45 95.67 L 539.10 91.44 L 542.75 95.61 L 546.40 99.99 L 550.05 96.13 L 553.70 93.39 L 557.35 97.57 L 561.00 99.97 L 564.65 94.32 L 568.30 94.39 L 571.95 92.36 L 575.60 94.14 L 579.25 92.14 L 582.90 88.86 L 586.55 84.10 L 590.20 81.69 L 593.85 81.57 L 597.50 76.07 L 601.15 76.33 L 604.80 82.50 L 608.45 82.33 L 612.10 86.60 L 615.75 91.82 L 619.40 93.33 L 623.05 90.97 L 626.70 89.20 L 630.35 92.07 L 634.00 90.54 L 637.65 88.23 L 641.30 86.02 L 644.95 84.41 L 648.60 87.39 L 652.25 83.45 L 655.90 79.85 L 659.55 79.53 L 663.20 80.39 L 666.85 74.49 L 670.50 76.49 L 674.15 79.45 L 677.80 76.62 L 681.45 73.04 L 685.10 70.54 L 688.75 75.84 L 692.40 81.16 L 696.05 75.06 L 699.70 80.17 L 703.35 83.01 L 707.00 81.93 L 710.65 84.60 L 714.30 87.14 L 717.95 85.84 L 721.60 83.56 L 725.25 86.76 L 728.90 81.26 L 732.55 78.65 L 736.20 79.04 L 739.85 86.57 L 743.50 91.21 L 747.15 88.64 L 750.80 86.96 L 754.45 90.02 L 758.10 92.64 L 761.75 93.48 L 765.40 93.49 L 769.05 89.68 L 772.70 88.13 L 776.35 84.96 L 780.00 84.05" class="path-1" />
<path d="M 50.00 107.57 L 53.65 104.41 L 57.30 104.88 L 60.95 99.72 L 64.60 102.61 L 68.25 104.83 L 71.90 105.97 L 75.55 97.89 L 79.20 99.40 L 82.85 104.21 L 86.50 102.81 L 90.15 98.92 L 93.80 96.18 L 97.45 96.97 L 101.10 95.07 L 104.75 97.85 L 108.40 98.20 L 112.05 98.93 L 115.70 99.89 L 119.35 99.06 L 123.00 103.54 L 126.65 102.77 L 130.30 98.72 L 133.95 98.71 L 137.60 103.06 L 141.25 104.27 L 144.90 100.16 L 148.55 99.26 L 152.20 106.97 L 155.85 107.39 L 159.50 102.18 L 163.15 103.73 L 166.80 100.72 L 170.45 107.81 L 174.10 107.82 L 177.75 104.82 L 181.40 105.43 L 185.05 106.73 L 188.70 115.11 L 192.35 119.05 L 196.00 123.31 L 199.65 122.01 L 203.30 128.21 L 206.95 131.56 L 210.60 126.54 L 214.25 129.04 L 217.90 127.08 L 221.55 127.45 L 225.20 128.22 L 228.85 133.54 L 232.50 130.07 L 236.15 129.47 L 239.80 124.18 L 243.45 125.55 L 247.10 128.63 L 250.75 138.20 L 254.40 141.63 L 258.05 136.82 L 261.70 141.27 L 265.35 149.83 L 269.00 145.11 L 272.65 147.98 L 276.30 152.31 L 279.95 149.72 L 283.60 145.66 L 287.25 152.07 L 290.90 154.79 L 294.55 160.87 L 298.20 157.17 L 301.85 151.45 L 305.50 154.85 L 309.15 155.90 L 312.80 156.61 L 316.45 157.72 L 320.10 158.06 L 323.75 154.38 L 327.40 152.59 L 331.05 155.51 L 334.70 160.73 L 338.35 160.15 L 342.00 156.64 L 345.65 161.09 L 349.30 164.35 L 352.95 163.93 L 356.60 166.28 L 360.25 168.06 L 363.90 166.19 L 367.55 171.19 L 371.20 175.77 L 374.85 175.16 L 378.50 174.72 L 382.15 176.43 L 385.80 179.62 L 389.45 179.90 L 393.10 181.25 L 396.75 183.78 L 400.40 180.69 L 404.05 182.97 L 407.70 177.64 L 411.35 181.41 L 415.00 181.12 L 418.65 182.98 L 422.30 181.53 L 425.95 181.76 L 429.60 176.55 L 433.25 181.79 L 436.90 182.16 L 440.55 178.08 L 444.20 179.62 L 447.85 180.63 L 451.50 184.99 L 455.15 184.82 L 458.80 182.26 L 462.45 182.25 L 466.10 182.51 L 469.75 181.45 L 473.40 183.64 L 477.05 184.79 L 480.70 187.18 L 484.35 189.66 L 488.00 195.42 L 491.65 192.28 L 495.30 199.06 L 498.95 197.01 L 502.60 201.58 L 506.25 200.42 L 509.90 197.03 L 513.55 197.12 L 517.20 200.01 L 520.85 191.54 L 524.50 194.70 L 528.15 195.21 L 531.80 203.31 L 535.45 201.74 L 539.10 199.24 L 542.75 196.52 L 546.40 193.21 L 550.05 191.68 L 553.70 194.30 L 557.35 194.19 L 561.00 199.71 L 564.65 201.35 L 568.30 207.30 L 571.95 214.26 L 575.60 215.77 L 579.25 214.58 L 582.90 214.76 L 586.55 209.93 L 590.20 206.68 L 593.85 204.69 L 597.50 204.92 L 601.15 209.58 L 604.80 211.80 L 608.45 198.45 L 612.10 196.72 L 615.75 200.36 L 619.40 203.35 L 623.05 207.61 L 626.70 209.03 L 630.35 211.45 L 634.00 208.85 L 637.65 208.53 L 641.30 209.72 L 644.95 212.04 L 648.60 214.94 L 652.25 219.07 L 655.90 217.16 L 659.55 213.84 L 663.20 209.77 L 666.85 216.05 L 670.50 214.95 L 674.15 216.79 L 677.80 211.18 L 681.45 207.24 L 685.10 206.47 L 688.75 204.02 L 692.40 206.14 L 696.05 209.76 L 699.70 210.59 L 703.35 205.41 L 707.00 206.39 L 710.65 204.54 L 714.30 209.50 L 717.95 207.43 L 721.60 204.84 L 725.25 207.97 L 728.90 211.00 L 732.55 218.04 L 736.20 217.01 L 739.85 220.32 L 743.50 224.84 L 747.15 229.64 L 750.80 230.74 L 754.45 231.40 L 758.10 227.71 L 761.75 228.51 L 765.40 230.98 L 769.05 230.56 L 772.70 233.56 L 776.35 234.22 L 780.00 234.62" class="path-2" />
<path d="M 50.00 107.57 L 53.65 105.14 L 57.30 102.99 L 60.95 106.05 L 64.60 107.07 L 68.25 98.38 L 71.90 103.04 L 75.55 101.20 L 79.20 101.03 L 82.85 101.45 L 86.50 95.39 L 90.15 90.18 L 93.80 86.43 L 97.45 88.37 L 101.10 87.74 L 104.75 86.19 L 108.40 90.27 L 112.05 88.29 L 115.70 89.90 L 119.35 89.06 L 123.00 89.09 L 126.65 81.69 L 130.30 79.50 L 133.95 80.69 L 137.60 76.84 L 141.25 75.00 L 144.90 74.45 L 148.55 75.29 L 152.20 76.62 L 155.85 77.28 L 159.50 73.85 L 163.15 71.30 L 166.80 72.72 L 170.45 74.40 L 174.10 75.15 L 177.75 76.82 L 181.40 79.28 L 185.05 82.53 L 188.70 86.41 L 192.35 83.72 L 196.00 90.24 L 199.65 85.19 L 203.30 87.51 L 206.95 83.67 L 210.60 90.55 L 214.25 82.58 L 217.90 78.29 L 221.55 76.08 L 225.20 76.53 L 228.85 81.92 L 232.50 79.42 L 236.15 77.82 L 239.80 74.54 L 243.45 79.36 L 247.10 80.93 L 250.75 81.11 L 254.40 77.30 L 258.05 77.48 L 261.70 78.27 L 265.35 78.57 L 269.00 77.75 L 272.65 72.74 L 276.30 72.06 L 279.95 65.38 L 283.60 67.73 L 287.25 65.99 L 290.90 65.55 L 294.55 68.67 L 298.20 73.71 L 301.85 76.30 L 305.50 80.83 L 309.15 77.47 L 312.80 87.29 L 316.45 85.84 L 320.10 85.13 L 323.75 88.95 L 327.40 92.51 L 331.05 91.75 L 334.70 95.69 L 338.35 95.87 L 342.00 94.99 L 345.65 94.13 L 349.30 96.16 L 352.95 101.97 L 356.60 98.64 L 360.25 99.60 L 363.90 101.72 L 367.55 103.07 L 371.20 101.33 L 374.85 99.55 L 378.50 96.39 L 382.15 95.36 L 385.80 89.67 L 389.45 87.28 L 393.10 87.58 L 396.75 84.81 L 400.40 84.36 L 404.05 83.22 L 407.70 91.36 L 411.35 96.26 L 415.00 94.08 L 418.65 94.73 L 422.30 90.11 L 425.95 92.35 L 429.60 93.68 L 433.25 96.02 L 436.90 94.22 L 440.55 93.57 L 444.20 97.94 L 447.85 94.21 L 451.50 96.54 L 455.15 98.77 L 458.80 104.46 L 462.45 109.51 L 466.10 109.80 L 469.75 115.40 L 473.40 114.15 L 477.05 111.32 L 480.70 119.71 L 484.35 118.15 L 488.00 118.09 L 491.65 119.70 L 495.30 120.14 L 498.95 122.84 L 502.60 125.36 L 506.25 126.01 L 509.90 126.33 L 513.55 124.34 L 517.20 125.78 L 520.85 124.65 L 524.50 124.75 L 528.15 127.77 L 531.80 123.46 L 535.45 120.81 L 539.10 121.43 L 542.75 119.73 L 546.40 126.81 L 550.05 127.42 L 553.70 128.98 L 557.35 134.75 L 561.00 135.23 L 564.65 131.78 L 568.30 133.31 L 571.95 132.61 L 575.60 133.15 L 579.25 129.17 L 582.90 126.87 L 586.55 129.32 L 590.20 130.69 L 593.85 127.90 L 597.50 130.49 L 601.15 123.05 L 604.80 126.87 L 608.45 131.19 L 612.10 131.21 L 615.75 133.64 L 619.40 135.45 L 623.05 135.87 L 626.70 135.88 L 630.35 136.34 L 634.00 138.02 L 637.65 134.62 L 641.30 136.63 L 644.95 137.42 L 648.60 137.85 L 652.25 142.95 L 655.90 136.20 L 659.55 142.41 L 663.20 145.36 L 666.85 139.29 L 670.50 140.93 L 674.15 138.23 L 677.80 144.23 L 681.45 147.64 L 685.10 148.10 L 688.75 149.72 L 692.40 149.30 L 696.05 147.15 L 699.70 150.54 L 703.35 153.08 L 707.00 152.66 L 710.65 157.65 L 714.30 158.56 L 717.95 160.51 L 721.60 161.42 L 725.25 163.72 L 728.90 168.50 L 732.55 166.97 L 736.20 167.64 L 739.85 165.19 L 743.50 157.76 L 747.15 155.02 L 750.80 157.68 L 754.45 159.17 L 758.10 153.75 L 761.75 154.59 L 765.40 152.15 L 769.05 155.87 L 772.70 155.12 L 776.35 150.60 L 780.00 156.52" class="path-3" />
<path d="M 50.00 107.57 L 53.65 111.00 L 57.30 115.76 L 60.95 118.08 L 64.60 114.61 L 68.25 115.82 L 71.90 113.10 L 75.55 111.79 L 79.20 111.57 L 82.85 114.69 L 86.50 114.24 L 90.15 111.93 L 93.80 113.38 L 97.45 112.42 L 101.10 116.31 L 104.75 111.51 L 108.40 110.42 L 112.05 106.04 L 115.70 107.57 L 119.35 103.91 L 123.00 104.09 L 126.65 98.20 L 130.30 103.35 L 133.95 101.25 L 137.60 97.76 L 141.25 98.04 L 144.90 99.58 L 148.55 97.29 L 152.20 98.10 L 155.85 97.50 L 159.50 97.12 L 163.15 103.96 L 166.80 103.23 L 170.45 103.83 L 174.10 105.50 L 177.75 102.15 L 181.40 104.62 L 185.05 105.20 L 188.70 104.20 L 192.35 104.06 L 196.00 105.33 L 199.65 108.11 L 203.30 102.40 L 206.95 101.33 L 210.60 99.25 L 214.25 98.53 L 217.90 94.66 L 221.55 95.00 L 225.20 92.63 L 228.85 101.50 L 232.50 101.05 L 236.15 100.93 L 239.80 98.67 L 243.45 97.04 L 247.10 97.37 L 250.75 92.02 L 254.40 90.84 L 258.05 93.55 L 261.70 91.54 L 265.35 94.16 L 269.00 96.41 L 272.65 100.93 L 276.30 102.53 L 279.95 105.13 L 283.60 101.73 L 287.25 102.24 L 290.90 102.03 L 294.55 101.99 L 298.20 98.27 L 301.85 95.31 L 305.50 89.74 L 309.15 86.54 L 312.80 85.93 L 316.45 87.57 L 320.10 90.15 L 323.75 88.20 L 327.40 89.46 L 331.05 90.89 L 334.70 88.10 L 338.35 88.18 L 342.00 90.37 L 345.65 94.63 L 349.30 95.24 L 352.95 96.68 L 356.60 99.95 L 360.25 100.46 L 363.90 102.17 L 367.55 96.75 L 371.20 95.68 L 374.85 91.84 L 378.50 95.25 L 382.15 87.41 L 385.80 85.34 L 389.45 86.03 L 393.10 80.42 L 396.75 88.74 L 400.40 87.17 L 404.05 90.90 L 407.70 92.03 L 411.35 91.06 L 415.00 87.65 L 418.65 90.91 L 422.30 86.27 L 425.95 82.41 L 429.60 89.06 L 433.25 90.44 L 436.90 86.66 L 440.55 80.64 L 444.20 79.37 L 447.85 76.89 L 451.50 80.00 L 455.15 82.57 L 458.80 79.63 L 462.45 90.92 L 466.10 92.49 L 469.75 100.44 L 473.40 97.23 L 477.05 100.46 L 480.70 96.63 L 484.35 100.77 L 488.00 106.30 L 491.65 105.84 L 495.30 103.92 L 498.95 110.71 L 502.60 116.78 L 506.25 114.54 L 509.90 116.30 L 513.55 113.26 L 517.20 110.01 L 520.85 106.12 L 524.50 103.01 L 528.15 104.21 L 531.80 102.67 L 535.45 110.78 L 539.10 111.81 L 542.75 112.58 L 546.40 110.31 L 550.05 111.23 L 553.70 108.36 L 557.35 109.76 L 561.00 105.11 L 564.65 103.69 L 568.30 106.28 L 571.95 105.09 L 575.60 107.07 L 579.25 107.23 L 582.90 108.98 L 586.55 105.19 L 590.20 108.23 L 593.85 104.96 L 597.50 103.64 L 601.15 105.75 L 604.80 106.84 L 608.45 104.35 L 612.10 105.42 L 615.75 104.02 L 619.40 97.67 L 623.05 92.02 L 626.70 93.10 L 630.35 92.37 L 634.00 93.61 L 637.65 99.08 L 641.30 103.06 L 644.95 103.03 L 648.60 107.38 L 652.25 105.53 L 655.90 106.32 L 659.55 105.78 L 663.20 111.57 L 666.85 114.03 L 670.50 113.13 L 674.15 114.52 L 677.80 116.45 L 681.45 113.69 L 685.10 116.42 L 688.75 113.22 L 692.40 109.48 L 696.05 110.07 L 699.70 104.99 L 703.35 109.27 L 707.00 111.24 L 710.65 106.76 L 714.30 105.09 L 717.95 101.58 L 721.60 98.47 L 725.25 99.19 L 728.90 100.12 L 732.55 96.61 L 736.20 94.22 L 739.85 91.69 L 743.50 91.31 L 747.15 96.54 L 750.80 97.48 L 754.45 96.60 L 758.10 100.69 L 761.75 106.99 L 765.40 105.97 L 769.05 111.29 L 772.70 107.40 L 776.35 105.18 L 780.00 108.65" class="path-4" />
<line x1="50" y1="107.6" x2="780" y2="107.6" stroke="#4b5563" stroke-width="0.8" stroke-dasharray="6 3" />
</svg>