<svg xmlns="http://www.w3.org/2000/svg" viewBox="0 0 800 300" width="800" height="300">
<style>
.axis-line { stroke: #6b7280; stroke-width: 0.5; }
.axis-text { font-family: monospace; font-size: 11px; fill: #9ca3af; }
.title-text { font-family: monospace; font-size: 14px; fill: #d1d5db; font-weight: bold; }
.grid-line { stroke: #374151; stroke-width: 0.3; stroke-dasharray: 4 2; }
.path-0 { fill: none; stroke: #3b82f6; stroke-width: 2; stroke-linecap: round; opacity: 0.85; animation: draw-0 8s ease-in-out 0.0s infinite; stroke-dasharray: 1241; stroke-dashoffset: 1241;}
@keyframes draw-0 { 0% { stroke-dashoffset: 1241; } 38% { stroke-dashoffset: 0; } 62% { stroke-dashoffset: 0; } 100% { stroke-dashoffset: 1241; }}
.path-1 { fill: none; stroke: #ef4444; stroke-width: 2; stroke-linecap: round; opacity: 0.85; animation: draw-1 8s ease-in-out 0.4s infinite; stroke-dasharray: 1268; stroke-dashoffset: 1268;}
@keyframes draw-1 { 0% { stroke-dashoffset: 1268; } 38% { stroke-dashoffset: 0; } 62% { stroke-dashoffset: 0; } 100% { stroke-dashoffset: 1268; }}
.path-2 { fill: none; stroke: #22c55e; stroke-width: 2; stroke-linecap: round; opacity: 0.85; animation: draw-2 8s ease-in-out 0.8s infinite; stroke-dasharray: 1262; stroke-dashoffset: 1262;}
@keyframes draw-2 { 0% { stroke-dashoffset: 1262; } 38% { stroke-dashoffset: 0; } 62% { stroke-dashoffset: 0; } 100% { stroke-dashoffset: 1262; }}
.path-3 { fill: none; stroke: #f59e0b; stroke-width: 2; stroke-linecap: round; opacity: 0.85; animation: draw-3 8s ease-in-out 1.2000000000000002s infinite; stroke-dasharray: 1184; stroke-dashoffset: 1184;}
@keyframes draw-3 { 0% { stroke-dashoffset: 1184; } 38% { stroke-dashoffset: 0; } 62% { stroke-dashoffset: 0; } 100% { stroke-dashoffset: 1184; }}
.path-4 { fill: none; stroke: #a855f7; stroke-width: 2; stroke-linecap: round; opacity: 0.85; animation: draw-4 8s ease-in-out 1.6s infinite; stroke-dasharray: 1277; stroke-dashoffset: 1277;}
@keyframes draw-4 { 0% { stroke-dashoffset: 1277; } 38% { stroke-dashoffset: 0; } 62% { stroke-dashoffset: 0; } 100% { stroke-dashoffset: 1277; }}
</style>
<rect width="800" height="300" rx="8" fill="#0d1117" />
<line x1="50" y1="260.0" x2="780" y2="260.0" class="grid-line" />
<text x="44" y="264.0" text-anchor="end" class="axis-text">-1.4</text>
<line x1="50" y1="216.0" x2="780" y2="216.0" class="grid-line" />
<text x="44" y="220.0" text-anchor="end" class="axis-text">-0.9</text>
<line x1="50" y1="172.0" x2="780" y2="172.0" class="grid-line" />
<text x="44" y="176.0" text-anchor="end" class="axis-text">-0.3</text>
<line x1="50" y1="128.0" x2="780" y2="128.0" class="grid-line" />
<text x="44" y="132.0" text-anchor="end" class="axis-text">0.2</text>
<line x1="50" y1="84.0" x2="780" y2="84.0" class="grid-line" />
<text x="44" y="88.0" text-anchor="end" class="axis-text">0.7</text>
<line x1="50" y1="40.0" x2="780" y2="40.0" class="grid-line" />
<text x="44" y="44.0" text-anchor="end" class="axis-text">1.3</text>
<line x1="50.0" y1="40" x2="50.0" y2="260" class="grid-line" />
<line x1="196.0" y1="40" x2="196.0" y2="260" class="grid-line" />
<line x1="342.0" y1="40" x2="342.0" y2="260" class="grid-line" />
<line x1="488.0" y1="40" x2="488.0" y2="260" class="grid-line" />
<line x1="634.0" y1="40" x2="634.0" y2="260" class="grid-line" />
<line x1="780.0" y1="40" x2="780.0" y2="260" class="grid-line" />
<line x1="50" y1="260" x2="780" y2="260" class="axis-line" />
<line x1="50" y1="40" x2="50" y2="260" class="axis-line" />
<text x="400.0" y="295" text-anchor="middle" class="axis-text">t</text>
<text x="12" y="150.0" text-anchor="middle" class="axis-text" transform="rotate(-90 12 150.0)">W(t)</text>
<text x="400.0" y="22" text-anchor="middle" class="title-text">Brownian Motion</text>
<path d="M 50.00 144.62 L 53.65 142.04 L 57.30 142.00 L 60.95 152.26 L 64.60 143.77 L 68.25 150.69 L 71.90 145.86 L 75.55 146.18 L 79.20 150.79 L 82.85 149.19 L 86.50 149.90 L 90.15 157.96 L 93.80 164.35 L 97.45 167.87 L 101.10 167.38 L 104.75 167.16 L 108.40 161.57 L 112.05 158.56 L 115.70 155.03 L 119.35 152.04 L 123.00 154.84 L 126.65 154.22 L 130.30 142.89 L 133.95 141.48 L 137.60 143.59 L 141.25 143.24 L 144.90 135.35 L 148.55 136.33 L 152.20 144.25 L 155.85 137.04 L 159.50 134.03 L 163.15 143.17 L 166.80 147.11 L 170.45 155.77 L 174.10 157.22 L 177.75 163.29 L 181.40 163.34 L 185.05 170.58 L 188.70 168.02 L 192.35 166.64 L 196.00 167.83 L 199.65 165.58 L 203.30 166.84 L 206.95 159.29 L 210.60 159.70 L 214.25 164.10 L 217.90 158.91 L 221.55 161.63 L 225.20 167.51 L 228.85 170.99 L 232.50 173.32 L 236.15 187.16 L 239.80 181.14 L 243.45 185.16 L 247.10 176.32 L 250.75 183.84 L 254.40 195.05 L 258.05 194.00 L 261.70 192.44 L 265.35 197.84 L 269.00 195.50 L 272.65 201.03 L 276.30 189.77 L 279.95 183.75 L 283.60 179.11 L 287.25 178.49 L 290.90 175.51 L 294.55 184.35 L 298.20 188.76 L 301.85 187.05 L 305.50 190.71 L 309.15 184.36 L 312.80 184.23 L 316.45 185.37 L 320.10 187.91 L 323.75 187.88 L 327.40 190.94 L 331.05 189.30 L 334.70 194.84 L 338.35 201.30 L 342.00 213.35 L 345.65 210.63 L 349.30 206.41 L 352.95 219.62 L 356.60 228.37 L 360.25 234.62 L 363.90 221.83 L 367.55 220.14 L 371.20 218.44 L 374.85 217.50 L 378.50 220.41 L 382.15 224.83 L 385.80 217.28 L 389.45 217.01 L 393.10 203.88 L 396.75 212.80 L 400.40 215.90 L 404.05 216.99 L 407.70 218.17 L 411.35 223.47 L 415.00 219.36 L 418.65 220.57 L 422.30 217.91 L 425.95 219.85 L 429.60 218.50 L 433.25 220.47 L 436.90 216.72 L 440.55 217.27 L 444.20 211.76 L 447.85 210.76 L 451.50 205.54 L 455.15 202.08 L 458.80 205.37 L 462.45 208.34 L 466.10 218.89 L 469.75 215.08 L 473.40 219.56 L 477.05 224.26 L 480.70 222.44 L 484.35 227.75 L 488.00 229.41 L 491.65 226.36 L 495.30 217.72 L 498.95 225.14 L 502.60 226.31 L 506.25 225.13 L 509.90 227.07 L 513.55 229.98 L 517.20 229.07 L 520.85 225.74 L 524.50 225.41 L 528.15 221.18 L 531.80 226.07 L 535.45 226.83 L 539.10 223.62 L 542.75 226.05 L 546.40 219.91 L 550.05 222.85 L 553.70 218.49 L 557.35 224.85 L 561.00 223.56 L 564.65 221.16 L 568.30 217.86 L 571.95 216.11 L 575.60 218.10 L 579.25 212.76 L 582.90 190.43 L 586.55 190.51 L 590.20 183.43 L 593.85 183.82 L 597.50 176.63 L 601.15 169.18 L 604.80 169.93 L 608.45 164.93 L 612.10 165.36 L 615.75 170.15 L 619.40 172.74 L 623.05 166.64 L 626.70 159.69 L 630.35 170.88 L 634.00 165.02 L 637.65 165.77 L 641.30 169.20 L 644.95 164.58 L 648.60 162.88 L 652.25 154.72 L 655.90 151.17 L 659.55 154.57 L 663.20 156.95 L 666.85 149.80 L 670.50 143.14 L 674.15 137.22 L 677.80 139.98 L 681.45 151.39 L 685.10 153.78 L 688.75 136.70 L 692.40 134.35 L 696.05 131.77 L 699.70 133.42 L 703.35 138.90 L 707.00 139.82 L 710.65 130.99 L 714.30 117.81 L 717.95 107.06 L 721.60 106.31 L 725.25 102.24 L 728.90 94.85 L 732.55 92.41 L 736.20 84.02 L 739.85 89.72 L 743.50 92.89 L 747.15 101.22 L 750.80 104.81 L 754.45 91.78 L 758.10 90.72 L 761.75 86.37 L 765.40 85.27 L 769.05 85.49 L 772.70 78.09 L 776.35 77.92 L 780.00 73.59" class="path-0" />
<path d="M 50.00 144.62 L 53.65 147.75 L 57.30 141.08 L 60.95 137.58 L 64.60 145.00 L 68.25 153.22 L 71.90 156.78 L 75.55 161.48 L 79.20 171.42 L 82.85 159.28 L 86.50 154.21 L 90.15 155.79 L 93.80 155.36 L 97.45 152.53 L 101.10 163.52 L 104.75 157.06 L 108.40 170.68 L 112.05 158.59 L 115.70 150.17 L 119.35 143.09 L 123.00 143.44 L 126.65 141.25 L 130.30 137.35 L 133.95 145.77 L 137.60 152.22 L 141.25 160.67 L 144.90 161.71 L 148.55 149.55 L 152.20 148.57 L 155.85 150.25 L 159.50 152.50 L 163.15 142.18 L 166.80 143.30 L 170.45 140.69 L 174.10 142.96 L 177.75 145.92 L 181.40 154.79 L 185.05 157.31 L 188.70 159.24 L 192.35 164.54 L 196.00 170.72 L 199.65 164.66 L 203.30 160.37 L 206.95 164.16 L 210.60 165.07 L 214.25 175.31 L 217.90 184.10 L 221.55 189.20 L 225.20 193.86 L 228.85 196.99 L 232.50 191.76 L 236.15 190.59 L 239.80 191.30 L 243.45 182.24 L 247.10 187.56 L 250.75 184.95 L 254.40 185.96 L 258.05 187.48 L 261.70 178.48 L 265.35 182.61 L 269.00 180.49 L 272.65 188.13 L 276.30 190.88 L 279.95 188.33 L 283.60 185.87 L 287.25 179.03 L 290.90 185.90 L 294.55 177.55 L 298.20 165.94 L 301.85 172.42 L 305.50 168.30 L 309.15 163.87 L 312.80 161.19 L 316.45 161.20 L 320.10 161.97 L 323.75 162.63 L 327.40 164.61 L 331.05 166.07 L 334.70 159.16 L 338.35 161.34 L 342.00 160.82 L 345.65 151.35 L 349.30 138.93 L 352.95 132.64 L 356.60 130.38 L 360.25 140.50 L 363.90 132.40 L 367.55 138.25 L 371.20 136.75 L 374.85 141.30 L 378.50 140.85 L 382.15 144.74 L 385.80 137.84 L 389.45 131.27 L 393.10 134.95 L 396.75 133.91 L 400.40 137.68 L 404.05 137.28 L 407.70 134.87 L 411.35 133.34 L 415.00 139.68 L 418.65 144.99 L 422.30 145.08 L 425.95 152.73 L 429.60 150.59 L 433.25 152.14 L 436.90 153.71 L 440.55 156.26 L 444.20 156.16 L 447.85 145.19 L 451.50 141.51 L 455.15 135.37 L 458.80 140.39 L 462.45 144.14 L 466.10 142.02 L 469.75 141.05 L 473.40 141.68 L 477.05 145.39 L 480.70 131.76 L 484.35 132.10 L 488.00 127.90 L 491.65 123.49 L 495.30 120.04 L 498.95 122.43 L 502.60 113.13 L 506.25 115.23 L 509.90 112.27 L 513.55 102.90 L 517.20 107.23 L 520.85 103.22 L 524.50 100.46 L 528.15 101.41 L 531.80 88.31 L 535.45 91.60 L 539.10 93.48 L 542.75 90.85 L 546.40 83.08 L 550.05 84.54 L 553.70 78.71 L 557.35 77.76 L 561.00 82.49 L 564.65 85.27 L 568.30 81.64 L 571.95 78.06 L 575.60 84.90 L 579.25 78.72 L 582.90 71.26 L 586.55 71.11 L 590.20 72.88 L 593.85 65.38 L 597.50 69.82 L 601.15 82.94 L 604.80 91.12 L 608.45 89.15 L 612.10 85.52 L 615.75 76.55 L 619.40 74.87 L 623.05 75.16 L 626.70 81.11 L 630.35 78.23 L 634.00 72.32 L 637.65 85.29 L 641.30 74.66 L 644.95 69.20 L 648.60 67.06 L 652.25 70.65 L 655.90 68.94 L 659.55 81.90 L 663.20 83.67 L 666.85 79.71 L 670.50 71.52 L 674.15 73.12 L 677.80 73.64 L 681.45 77.10 L 685.10 82.77 L 688.75 94.12 L 692.40 97.15 L 696.05 94.35 L 699.70 98.75 L 703.35 104.51 L 707.00 106.35 L 710.65 104.07 L 714.30 103.76 L 717.95 96.95 L 721.60 100.10 L 725.25 101.39 L 728.90 110.31 L 732.55 107.55 L 736.20 107.91 L 739.85 106.16 L 743.50 107.28 L 747.15 106.07 L 750.80 97.08 L 754.45 96.92 L 758.10 96.03 L 761.75 87.81 L 765.40 94.21 L 769.05 92.32 L 772.70 83.41 L 776.35 90.44 L 780.00 98.22" class="path-1" />
<path d="M 50.00 144.62 L 53.65 136.34 L 57.30 134.90 L 60.95 141.76 L 64.60 142.09 L 68.25 150.10 L 71.90 150.80 L 75.55 144.46 L 79.20 143.00 L 82.85 134.76 L 86.50 130.89 L 90.15 126.13 L 93.80 117.73 L 97.45 119.77 L 101.10 123.88 L 104.75 122.61 L 108.40 120.95 L 112.05 120.12 L 115.70 119.24 L 119.35 121.21 L 123.00 110.12 L 126.65 98.65 L 130.30 100.48 L 133.95 100.69 L 137.60 102.58 L 141.25 106.48 L 144.90 112.69 L 148.55 109.17 L 152.20 100.28 L 155.85 111.87 L 159.50 105.06 L 163.15 99.23 L 166.80 97.74 L 170.45 89.57 L 174.10 93.58 L 177.75 93.98 L 181.40 92.34 L 185.05 84.03 L 188.70 73.56 L 192.35 81.37 L 196.00 79.95 L 199.65 74.60 L 203.30 76.43 L 206.95 73.05 L 210.60 74.98 L 214.25 80.75 L 217.90 85.04 L 221.55 84.40 L 225.20 84.92 L 228.85 87.68 L 232.50 88.03 L 236.15 102.10 L 239.80 93.87 L 243.45 104.42 L 247.10 98.97 L 250.75 110.98 L 254.40 116.57 L 258.05 116.41 L 261.70 110.00 L 265.35 103.44 L 269.00 103.09 L 272.65 99.35 L 276.30 100.75 L 279.95 100.25 L 283.60 96.21 L 287.25 96.76 L 290.90 93.80 L 294.55 93.64 L 298.20 99.10 L 301.85 98.68 L 305.50 89.55 L 309.15 90.29 L 312.80 84.21 L 316.45 100.08 L 320.10 99.76 L 323.75 96.53 L 327.40 82.93 L 331.05 77.55 L 334.70 83.00 L 338.35 78.68 L 342.00 76.60 L 345.65 75.01 L 349.30 71.19 L 352.95 73.93 L 356.60 86.41 L 360.25 84.39 L 363.90 96.35 L 367.55 111.06 L 371.20 115.11 L 374.85 109.02 L 378.50 111.39 L 382.15 106.88 L 385.80 103.45 L 389.45 110.68 L 393.10 105.13 L 396.75 101.35 L 400.40 97.10 L 404.05 100.35 L 407.70 90.23 L 411.35 80.16 L 415.00 90.17 L 418.65 85.97 L 422.30 82.80 L 425.95 88.38 L 429.60 92.25 L 433.25 85.95 L 436.90 81.67 L 440.55 82.05 L 444.20 80.99 L 447.85 84.37 L 451.50 82.88 L 455.15 75.97 L 458.80 66.36 L 462.45 65.70 L 466.10 72.25 L 469.75 85.16 L 473.40 81.38 L 477.05 79.85 L 480.70 80.40 L 484.35 72.94 L 488.00 80.57 L 491.65 78.05 L 495.30 79.58 L 498.95 74.44 L 502.60 81.08 L 506.25 88.91 L 509.90 96.97 L 513.55 90.49 L 517.20 96.76 L 520.85 104.15 L 524.50 113.62 L 528.15 109.97 L 531.80 110.20 L 535.45 109.30 L 539.10 121.46 L 542.75 117.61 L 546.40 120.54 L 550.05 114.16 L 553.70 118.29 L 557.35 119.61 L 561.00 114.28 L 564.65 112.14 L 568.30 114.36 L 571.95 112.26 L 575.60 121.28 L 579.25 122.53 L 582.90 123.35 L 586.55 119.69 L 590.20 115.92 L 593.85 109.19 L 597.50 106.71 L 601.15 109.18 L 604.80 100.12 L 608.45 95.10 L 612.10 94.56 L 615.75 92.08 L 619.40 95.10 L 623.05 99.88 L 626.70 104.27 L 630.35 106.05 L 634.00 105.64 L 637.65 109.47 L 641.30 114.72 L 644.95 119.05 L 648.60 121.13 L 652.25 123.33 L 655.90 120.60 L 659.55 112.61 L 663.20 106.84 L 666.85 115.35 L 670.50 117.79 L 674.15 113.25 L 677.80 104.92 L 681.45 90.31 L 685.10 93.92 L 688.75 95.45 L 692.40 93.66 L 696.05 84.81 L 699.70 83.39 L 703.35 89.99 L 707.00 92.88 L 710.65 97.03 L 714.30 97.86 L 717.95 101.79 L 721.60 102.14 L 725.25 105.42 L 728.90 103.21 L 732.55 104.06 L 736.20 104.41 L 739.85 102.73 L 743.50 102.94 L 747.15 102.77 L 750.80 108.17 L 754.45 121.25 L 758.10 122.25 L 761.75 120.25 L 765.40 127.74 L 769.05 135.17 L 772.70 132.33 L 776.35 136.46 L 780.00 132.78" class="path-2" />
<path d="M 50.00 144.62 L 53.65 143.86 L 57.30 147.94 L 60.95 148.58 L 64.60 144.84 L 68.25 142.35 L 71.90 139.06 L 75.55 144.33 L 79.20 152.91 L 82.85 155.01 L 86.50 164.13 L 90.15 162.56 L 93.80 167.39 L 97.45 166.55 L 101.10 165.33 L 104.75 157.92 L 108.40 164.58 L 112.05 156.41 L 115.70 157.63 L 119.35 152.48 L 123.00 155.07 L 126.65 155.42 L 130.30 146.73 L 133.95 148.96 L 137.60 150.63 L 141.25 149.37 L 144.90 147.74 L 148.55 152.00 L 152.20 158.98 L 155.85 162.01 L 159.50 158.95 L 163.15 158.39 L 166.80 151.32 L 170.45 160.82 L 174.10 166.52 L 177.75 157.15 L 181.40 160.37 L 185.05 156.34 L 188.70 152.95 L 192.35 154.03 L 196.00 158.29 L 199.65 154.98 L 203.30 152.98 L 206.95 156.68 L 210.60 164.71 L 214.25 167.07 L 217.90 153.67 L 221.55 156.61 L 225.20 148.34 L 228.85 151.45 L 232.50 155.43 L 236.15 149.69 L 239.80 152.27 L 243.45 150.90 L 247.10 152.21 L 250.75 159.19 L 254.40 151.45 L 258.05 148.76 L 261.70 143.57 L 265.35 145.72 L 269.00 137.79 L 272.65 141.82 L 276.30 146.99 L 279.95 151.53 L 283.60 150.18 L 287.25 149.69 L 290.90 155.86 L 294.55 152.36 L 298.20 149.95 L 301.85 147.11 L 305.50 147.01 L 309.15 147.70 L 312.80 147.20 L 316.45 152.14 L 320.10 148.14 L 323.75 146.84 L 327.40 155.99 L 331.05 160.17 L 334.70 159.88 L 338.35 161.36 L 342.00 165.78 L 345.65 161.13 L 349.30 161.44 L 352.95 143.41 L 356.60 143.72 L 360.25 143.68 L 363.90 147.09 L 367.55 141.34 L 371.20 130.61 L 374.85 130.65 L 378.50 132.35 L 382.15 138.36 L 385.80 139.30 L 389.45 147.19 L 393.10 150.22 L 396.75 164.71 L 400.40 171.51 L 404.05 160.46 L 407.70 163.19 L 411.35 160.00 L 415.00 161.62 L 418.65 153.59 L 422.30 154.82 L 425.95 165.55 L 429.60 160.25 L 433.25 161.50 L 436.90 158.82 L 440.55 163.09 L 444.20 158.43 L 447.85 166.54 L 451.50 170.57 L 455.15 164.65 L 458.80 171.39 L 462.45 169.02 L 466.10 170.14 L 469.75 169.79 L 473.40 174.37 L 477.05 172.18 L 480.70 172.43 L 484.35 169.04 L 488.00 160.02 L 491.65 160.95 L 495.30 161.34 L 498.95 154.85 L 502.60 158.12 L 506.25 151.79 L 509.90 152.43 L 513.55 152.32 L 517.20 158.20 L 520.85 162.42 L 524.50 159.80 L 528.15 149.71 L 531.80 151.96 L 535.45 147.02 L 539.10 146.05 L 542.75 145.04 L 546.40 136.75 L 550.05 140.60 L 553.70 129.83 L 557.35 131.30 L 561.00 134.12 L 564.65 134.48 L 568.30 135.44 L 571.95 131.48 L 575.60 128.03 L 579.25 128.26 L 582.90 132.06 L 586.55 144.85 L 590.20 152.50 L 593.85 144.15 L 597.50 142.85 L 601.15 141.24 L 604.80 139.03 L 608.45 125.90 L 612.10 112.31 L 615.75 115.56 L 619.40 112.16 L 623.05 111.21 L 626.70 113.61 L 630.35 106.27 L 634.00 102.80 L 637.65 103.70 L 641.30 106.08 L 644.95 110.31 L 648.60 110.61 L 652.25 117.13 L 655.90 116.58 L 659.55 114.55 L 663.20 113.78 L 666.85 111.55 L 670.50 116.21 L 674.15 113.39 L 677.80 112.46 L 681.45 112.30 L 685.10 108.73 L 688.75 109.71 L 692.40 115.49 L 696.05 113.12 L 699.70 113.89 L 703.35 104.13 L 707.00 101.01 L 710.65 106.12 L 714.30 116.80 L 717.95 117.52 L 721.60 114.16 L 725.25 110.56 L 728.90 112.41 L 732.55 118.69 L 736.20 119.04 L 739.85 122.26 L 743.50 125.44 L 747.15 112.63 L 750.80 106.85 L 754.45 108.15 L 758.10 105.04 L 761.75 105.48 L 765.40 98.82 L 769.05 93.51 L 772.70 100.10 L 776.35 104.04 L 780.00 106.22" class="path-3" />
<path d="M 50.00 144.62 L 53.65 145.21 L 57.30 145.09 L 60.95 138.69 L 64.60 140.51 L 68.25 134.35 L 71.90 121.64 L 75.55 127.08 L 79.20 135.92 L 82.85 129.00 L 86.50 123.91 L 90.15 116.70 L 93.80 119.34 L 97.45 116.75 L 101.10 106.53 L 104.75 98.69 L 108.40 95.80 L 112.05 97.45 L 115.70 102.47 L 119.35 103.31 L 123.00 102.41 L 126.65 106.83 L 130.30 101.73 L 133.95 88.78 L 137.60 99.60 L 141.25 98.38 L 144.90 102.11 L 148.55 104.09 L 152.20 95.53 L 155.85 86.38 L 159.50 88.55 L 163.15 86.95 L 166.80 87.74 L 170.45 93.78 L 174.10 101.24 L 177.75 101.71 L 181.40 90.57 L 185.05 88.74 L 188.70 96.19 L 192.35 93.34 L 196.00 87.09 L 199.65 86.21 L 203.30 75.66 L 206.95 79.38 L 210.60 88.44 L 214.25 90.87 L 217.90 90.30 L 221.55 102.48 L 225.20 100.67 L 228.85 103.75 L 232.50 105.73 L 236.15 106.30 L 239.80 112.85 L 243.45 111.14 L 247.10 118.44 L 250.75 109.05 L 254.40 110.30 L 258.05 115.35 L 261.70 119.39 L 265.35 115.85 L 269.00 118.71 L 272.65 120.81 L 276.30 116.23 L 279.95 115.43 L 283.60 104.56 L 287.25 112.82 L 290.90 105.48 L 294.55 108.39 L 298.20 103.67 L 301.85 103.00 L 305.50 101.60 L 309.15 112.85 L 312.80 122.21 L 316.45 121.12 L 320.10 126.97 L 323.75 129.76 L 327.40 138.88 L 331.05 140.17 L 334.70 145.86 L 338.35 145.58 L 342.00 147.25 L 345.65 148.53 L 349.30 141.96 L 352.95 141.41 L 356.60 145.97 L 360.25 141.93 L 363.90 148.12 L 367.55 150.73 L 371.20 149.36 L 374.85 160.48 L 378.50 165.49 L 382.15 169.47 L 385.80 168.18 L 389.45 163.59 L 393.10 165.98 L 396.75 154.23 L 400.40 155.08 L 404.05 155.48 L 407.70 155.42 L 411.35 148.44 L 415.00 148.08 L 418.65 159.30 L 422.30 164.65 L 425.95 161.25 L 429.60 150.79 L 433.25 141.86 L 436.90 135.57 L 440.55 133.97 L 444.20 126.91 L 447.85 133.97 L 451.50 124.20 L 455.15 116.31 L 458.80 113.62 L 462.45 105.92 L 466.10 103.59 L 469.75 108.09 L 473.40 115.73 L 477.05 118.16 L 480.70 127.23 L 484.35 123.36 L 488.00 125.62 L 491.65 122.26 L 495.30 128.02 L 498.95 125.33 L 502.60 126.43 L 506.25 129.70 L 509.90 131.39 L 513.55 133.68 L 517.20 143.52 L 520.85 142.07 L 524.50 139.95 L 528.15 141.45 L 531.80 140.39 L 535.45 142.18 L 539.10 154.61 L 542.75 164.17 L 546.40 165.32 L 550.05 177.13 L 553.70 178.16 L 557.35 189.40 L 561.00 184.67 L 564.65 178.31 L 568.30 177.52 L 571.95 170.56 L 575.60 165.28 L 579.25 163.75 L 582.90 163.26 L 586.55 161.57 L 590.20 162.20 L 593.85 161.92 L 597.50 150.08 L 601.15 139.40 L 604.80 145.20 L 608.45 137.85 L 612.10 138.46 L 615.75 143.76 L 619.40 145.89 L 623.05 141.87 L 626.70 138.57 L 630.35 137.43 L 634.00 134.58 L 637.65 137.27 L 641.30 136.52 L 644.95 132.44 L 648.60 132.57 L 652.25 133.48 L 655.90 133.02 L 659.55 112.48 L 663.20 108.92 L 666.85 100.71 L 670.50 96.06 L 674.15 101.81 L 677.80 103.47 L 681.45 97.21 L 685.10 91.67 L 688.75 92.70 L 692.40 88.46 L 696.05 87.69 L 699.70 87.72 L 703.35 103.23 L 707.00 113.03 L 710.65 118.59 L 714.30 121.94 L 717.95 124.96 L 721.60 123.61 L 725.25 131.33 L 728.90 129.23 L 732.55 132.29 L 736.20 143.19 L 739.85 142.93 L 743.50 149.73 L 747.15 160.23 L 750.80 162.20 L 754.45 157.98 L 758.10 157.64 L 761.75 152.06 L 765.40 153.64 L 769.05 152.29 L 772.70 147.96 L 776.35 141.15 L 780.00 134.94" class="path-4" />
<line x1="50" y1="144.6" x2="780" y2="144.6" stroke="#4b5563" stroke-width="0.8" stroke-dasharray="6 3" />
</svg>