<svg xmlns="http://www.w3.org/2000/svg" viewBox="0 0 800 300" width="800" height="300">
<style>
.axis-line { stroke: #6b7280; stroke-width: 0.5; }
.axis-text { font-family: monospace; font-size: 11px; fill: #9ca3af; }
.title-text { font-family: monospace; font-size: 14px; fill: #d1d5db; font-weight: bold; }
.grid-line { stroke: #374151; stroke-width: 0.3; stroke-dasharray: 4 2; }
.path-0 { fill: none; stroke: #3b82f6; stroke-width: 2; stroke-linecap: round; opacity: 0.85; animation: draw-0 8s ease-in-out 0.0s infinite; stroke-dasharray: 1449; stroke-dashoffset: 1449;}
@keyframes draw-0 { 0% { stroke-dashoffset: 1449; } 38% { stroke-dashoffset: 0; } 62% { stroke-dashoffset: 0; } 100% { stroke-dashoffset: 1449; }}
.path-1 { fill: none; stroke: #ef4444; stroke-width: 2; stroke-linecap: round; opacity: 0.85; animation: draw-1 8s ease-in-out 0.4s infinite; stroke-dasharray: 1426; stroke-dashoffset: 1426;}
@keyframes draw-1 { 0% { stroke-dashoffset: 1426; } 38% { stroke-dashoffset: 0; } 62% { stroke-dashoffset: 0; } 100% { stroke-dashoffset: 1426; }}
.path-2 { fill: none; stroke: #22c55e; stroke-width: 2; stroke-linecap: round; opacity: 0.85; animation: draw-2 8s ease-in-out 0.8s infinite; stroke-dasharray: 1373; stroke-dashoffset: 1373;}
@keyframes draw-2 { 0% { stroke-dashoffset: 1373; } 38% { stroke-dashoffset: 0; } 62% { stroke-dashoffset: 0; } 100% { stroke-dashoffset: 1373; }}
.path-3 { fill: none; stroke: #f59e0b; stroke-width: 2; stroke-linecap: round; opacity: 0.85; animation: draw-3 8s ease-in-out 1.2000000000000002s infinite; stroke-dasharray: 1355; stroke-dashoffset: 1355;}
@keyframes draw-3 { 0% { stroke-dashoffset: 1355; } 38% { stroke-dashoffset: 0; } 62% { stroke-dashoffset: 0; } 100% { stroke-dashoffset: 1355; }}
.path-4 { fill: none; stroke: #a855f7; stroke-width: 2; stroke-linecap: round; opacity: 0.85; animation: draw-4 8s ease-in-out 1.6s infinite; stroke-dasharray: 1340; stroke-dashoffset: 1340;}
@keyframes draw-4 { 0% { stroke-dashoffset: 1340; } 38% { stroke-dashoffset: 0; } 62% { stroke-dashoffset: 0; } 100% { stroke-dashoffset: 1340; }}
</style>
<rect width="800" height="300" rx="8" fill="#0d1117" />
<line x1="50" y1="260.0" x2="780" y2="260.0" class="grid-line" />
<text x="44" y="264.0" text-anchor="end" class="axis-text">-1.0</text>
<line x1="50" y1="216.0" x2="780" y2="216.0" class="grid-line" />
<text x="44" y="220.0" text-anchor="end" class="axis-text">-0.6</text>
<line x1="50" y1="172.0" x2="780" y2="172.0" class="grid-line" />
<text x="44" y="176.0" text-anchor="end" class="axis-text">-0.1</text>
<line x1="50" y1="128.0" x2="780" y2="128.0" class="grid-line" />
<text x="44" y="132.0" text-anchor="end" class="axis-text">0.3</text>
<line x1="50" y1="84.0" x2="780" y2="84.0" class="grid-line" />
<text x="44" y="88.0" text-anchor="end" class="axis-text">0.8</text>
<line x1="50" y1="40.0" x2="780" y2="40.0" class="grid-line" />
<text x="44" y="44.0" text-anchor="end" class="axis-text">1.2</text>
<line x1="50.0" y1="40" x2="50.0" y2="260" class="grid-line" />
<line x1="196.0" y1="40" x2="196.0" y2="260" class="grid-line" />
<line x1="342.0" y1="40" x2="342.0" y2="260" class="grid-line" />
<line x1="488.0" y1="40" x2="488.0" y2="260" class="grid-line" />
<line x1="634.0" y1="40" x2="634.0" y2="260" class="grid-line" />
<line x1="780.0" y1="40" x2="780.0" y2="260" class="grid-line" />
<line x1="50" y1="260" x2="780" y2="260" class="axis-line" />
<line x1="50" y1="40" x2="50" y2="260" class="axis-line" />
<text x="400.0" y="295" text-anchor="middle" class="axis-text">t</text>
<text x="12" y="150.0" text-anchor="middle" class="axis-text" transform="rotate(-90 12 150.0)">W(t)</text>
<text x="400.0" y="22" text-anchor="middle" class="title-text">Brownian Motion</text>
<path d="M 50.00 159.33 L 53.65 147.34 L 57.30 138.79 L 60.95 139.28 L 64.60 146.07 L 68.25 156.40 L 71.90 165.35 L 75.55 171.28 L 79.20 162.86 L 82.85 174.15 L 86.50 185.31 L 90.15 187.17 L 93.80 186.70 L 97.45 185.12 L 101.10 179.36 L 104.75 182.01 L 108.40 179.99 L 112.05 178.26 L 115.70 167.20 L 119.35 153.43 L 123.00 156.10 L 126.65 149.27 L 130.30 165.37 L 133.95 159.71 L 137.60 168.06 L 141.25 175.36 L 144.90 182.06 L 148.55 183.53 L 152.20 182.00 L 155.85 182.02 L 159.50 175.40 L 163.15 182.15 L 166.80 192.89 L 170.45 185.84 L 174.10 182.86 L 177.75 183.38 L 181.40 187.26 L 185.05 190.91 L 188.70 197.80 L 192.35 189.50 L 196.00 194.09 L 199.65 189.50 L 203.30 184.89 L 206.95 189.58 L 210.60 189.23 L 214.25 189.85 L 217.90 184.34 L 221.55 184.43 L 225.20 175.71 L 228.85 173.30 L 232.50 169.74 L 236.15 160.39 L 239.80 162.85 L 243.45 156.47 L 247.10 156.31 L 250.75 158.48 L 254.40 155.97 L 258.05 152.10 L 261.70 163.20 L 265.35 155.81 L 269.00 153.87 L 272.65 149.08 L 276.30 160.45 L 279.95 163.71 L 283.60 166.44 L 287.25 182.79 L 290.90 173.42 L 294.55 167.25 L 298.20 162.15 L 301.85 162.18 L 305.50 171.10 L 309.15 174.93 L 312.80 183.44 L 316.45 174.91 L 320.10 170.64 L 323.75 162.62 L 327.40 169.78 L 331.05 166.62 L 334.70 151.22 L 338.35 157.90 L 342.00 171.68 L 345.65 165.61 L 349.30 156.40 L 352.95 164.46 L 356.60 165.26 L 360.25 174.71 L 363.90 179.52 L 367.55 180.85 L 371.20 185.59 L 374.85 192.50 L 378.50 191.56 L 382.15 180.93 L 385.80 183.17 L 389.45 193.52 L 393.10 193.86 L 396.75 200.82 L 400.40 193.26 L 404.05 197.32 L 407.70 190.94 L 411.35 198.56 L 415.00 190.70 L 418.65 192.46 L 422.30 192.73 L 425.95 195.06 L 429.60 199.39 L 433.25 207.11 L 436.90 203.05 L 440.55 208.04 L 444.20 213.47 L 447.85 218.53 L 451.50 222.79 L 455.15 229.31 L 458.80 224.21 L 462.45 212.43 L 466.10 208.25 L 469.75 209.99 L 473.40 210.12 L 477.05 210.55 L 480.70 208.43 L 484.35 214.41 L 488.00 224.23 L 491.65 224.78 L 495.30 222.03 L 498.95 221.88 L 502.60 209.69 L 506.25 204.82 L 509.90 213.72 L 513.55 226.25 L 517.20 221.11 L 520.85 224.62 L 524.50 218.14 L 528.15 220.49 L 531.80 218.27 L 535.45 220.34 L 539.10 219.16 L 542.75 227.22 L 546.40 230.50 L 550.05 226.83 L 553.70 219.31 L 557.35 227.17 L 561.00 228.05 L 564.65 215.10 L 568.30 210.05 L 571.95 212.01 L 575.60 216.29 L 579.25 198.01 L 582.90 194.35 L 586.55 201.99 L 590.20 205.07 L 593.85 218.52 L 597.50 220.51 L 601.15 209.12 L 604.80 214.02 L 608.45 203.96 L 612.10 204.67 L 615.75 201.94 L 619.40 201.44 L 623.05 207.10 L 626.70 206.29 L 630.35 210.29 L 634.00 217.40 L 637.65 207.66 L 641.30 193.58 L 644.95 200.16 L 648.60 206.72 L 652.25 211.49 L 655.90 211.62 L 659.55 215.31 L 663.20 213.59 L 666.85 219.82 L 670.50 216.14 L 674.15 207.94 L 677.80 206.33 L 681.45 203.38 L 685.10 212.75 L 688.75 218.79 L 692.40 227.06 L 696.05 215.39 L 699.70 216.37 L 703.35 225.02 L 707.00 211.39 L 710.65 209.35 L 714.30 207.52 L 717.95 196.32 L 721.60 207.43 L 725.25 195.70 L 728.90 191.24 L 732.55 195.88 L 736.20 184.74 L 739.85 183.75 L 743.50 187.26 L 747.15 185.93 L 750.80 189.28 L 754.45 179.68 L 758.10 193.68 L 761.75 188.97 L 765.40 196.11 L 769.05 191.63 L 772.70 197.20 L 776.35 187.05 L 780.00 195.98" class="path-0" />
<path d="M 50.00 159.33 L 53.65 163.89 L 57.30 169.67 L 60.95 180.24 L 64.60 170.99 L 68.25 160.09 L 71.90 159.88 L 75.55 159.55 L 79.20 154.40 L 82.85 153.35 L 86.50 150.08 L 90.15 148.57 L 93.80 156.17 L 97.45 148.99 L 101.10 140.85 L 104.75 137.95 L 108.40 155.75 L 112.05 153.16 L 115.70 152.13 L 119.35 155.29 L 123.00 143.89 L 126.65 145.08 L 130.30 127.82 L 133.95 129.99 L 137.60 127.14 L 141.25 121.02 L 144.90 125.05 L 148.55 115.85 L 152.20 125.05 L 155.85 111.27 L 159.50 114.89 L 163.15 113.33 L 166.80 120.57 L 170.45 110.36 L 174.10 109.06 L 177.75 105.93 L 181.40 110.97 L 185.05 108.00 L 188.70 103.37 L 192.35 99.56 L 196.00 86.87 L 199.65 86.70 L 203.30 96.38 L 206.95 103.85 L 210.60 115.34 L 214.25 108.18 L 217.90 106.14 L 221.55 106.14 L 225.20 113.17 L 228.85 123.38 L 232.50 125.36 L 236.15 128.04 L 239.80 123.99 L 243.45 124.84 L 247.10 120.39 L 250.75 113.76 L 254.40 127.34 L 258.05 131.10 L 261.70 133.38 L 265.35 127.42 L 269.00 117.82 L 272.65 115.88 L 276.30 117.29 L 279.95 115.75 L 283.60 119.82 L 287.25 122.58 L 290.90 129.73 L 294.55 140.09 L 298.20 133.45 L 301.85 138.35 L 305.50 148.16 L 309.15 150.23 L 312.80 149.40 L 316.45 152.74 L 320.10 154.16 L 323.75 146.68 L 327.40 142.42 L 331.05 133.42 L 334.70 138.63 L 338.35 129.23 L 342.00 135.80 L 345.65 143.34 L 349.30 142.67 L 352.95 136.52 L 356.60 131.01 L 360.25 124.89 L 363.90 116.24 L 367.55 116.58 L 371.20 107.60 L 374.85 93.10 L 378.50 100.14 L 382.15 98.47 L 385.80 107.07 L 389.45 107.78 L 393.10 107.08 L 396.75 108.47 L 400.40 109.89 L 404.05 112.90 L 407.70 104.34 L 411.35 113.08 L 415.00 121.81 L 418.65 130.97 L 422.30 135.19 L 425.95 140.43 L 429.60 138.37 L 433.25 137.55 L 436.90 142.74 L 440.55 137.33 L 444.20 139.34 L 447.85 136.79 L 451.50 120.88 L 455.15 137.76 L 458.80 134.10 L 462.45 138.56 L 466.10 128.30 L 469.75 124.96 L 473.40 133.00 L 477.05 128.22 L 480.70 119.96 L 484.35 112.88 L 488.00 121.23 L 491.65 131.78 L 495.30 146.28 L 498.95 144.30 L 502.60 149.87 L 506.25 143.19 L 509.90 137.97 L 513.55 145.06 L 517.20 143.31 L 520.85 143.85 L 524.50 150.88 L 528.15 151.87 L 531.80 148.13 L 535.45 145.39 L 539.10 137.97 L 542.75 150.64 L 546.40 143.42 L 550.05 147.98 L 553.70 146.41 L 557.35 141.96 L 561.00 139.77 L 564.65 140.75 L 568.30 130.62 L 571.95 135.84 L 575.60 136.32 L 579.25 132.32 L 582.90 136.45 L 586.55 130.83 L 590.20 129.91 L 593.85 124.22 L 597.50 125.62 L 601.15 143.88 L 604.80 148.32 L 608.45 152.06 L 612.10 151.29 L 615.75 140.66 L 619.40 138.66 L 623.05 132.84 L 626.70 130.82 L 630.35 130.47 L 634.00 136.05 L 637.65 130.03 L 641.30 128.79 L 644.95 132.63 L 648.60 144.72 L 652.25 142.13 L 655.90 149.60 L 659.55 155.63 L 663.20 146.71 L 666.85 148.57 L 670.50 150.67 L 674.15 151.25 L 677.80 157.96 L 681.45 164.59 L 685.10 151.56 L 688.75 133.66 L 692.40 135.78 L 696.05 134.78 L 699.70 134.42 L 703.35 147.15 L 707.00 154.85 L 710.65 165.21 L 714.30 165.69 L 717.95 159.06 L 721.60 157.32 L 725.25 159.08 L 728.90 159.05 L 732.55 153.86 L 736.20 148.21 L 739.85 143.25 L 743.50 155.00 L 747.15 160.57 L 750.80 155.70 L 754.45 148.80 L 758.10 136.65 L 761.75 138.49 L 765.40 130.40 L 769.05 127.36 L 772.70 122.42 L 776.35 131.81 L 780.00 121.28" class="path-1" />
<path d="M 50.00 159.33 L 53.65 153.02 L 57.30 153.90 L 60.95 159.30 L 64.60 160.22 L 68.25 152.86 L 71.90 161.23 L 75.55 161.97 L 79.20 150.97 L 82.85 146.72 L 86.50 138.74 L 90.15 147.79 L 93.80 156.38 L 97.45 159.19 L 101.10 170.56 L 104.75 173.01 L 108.40 172.88 L 112.05 173.20 L 115.70 174.76 L 119.35 178.18 L 123.00 168.00 L 126.65 165.22 L 130.30 167.33 L 133.95 162.87 L 137.60 163.30 L 141.25 153.93 L 144.90 148.96 L 148.55 144.46 L 152.20 143.20 L 155.85 128.57 L 159.50 134.19 L 163.15 140.95 L 166.80 148.11 L 170.45 140.90 L 174.10 138.30 L 177.75 141.02 L 181.40 158.99 L 185.05 161.84 L 188.70 162.63 L 192.35 150.29 L 196.00 149.27 L 199.65 157.19 L 203.30 159.43 L 206.95 154.33 L 210.60 159.44 L 214.25 152.12 L 217.90 155.01 L 221.55 153.09 L 225.20 153.27 L 228.85 162.26 L 232.50 150.91 L 236.15 152.03 L 239.80 146.12 L 243.45 131.62 L 247.10 139.88 L 250.75 132.55 L 254.40 140.91 L 258.05 138.41 L 261.70 149.96 L 265.35 144.47 L 269.00 154.48 L 272.65 150.16 L 276.30 148.89 L 279.95 147.70 L 283.60 152.23 L 287.25 156.46 L 290.90 154.25 L 294.55 159.12 L 298.20 162.22 L 301.85 147.42 L 305.50 144.94 L 309.15 150.66 L 312.80 139.86 L 316.45 137.16 L 320.10 142.18 L 323.75 131.03 L 327.40 137.46 L 331.05 142.30 L 334.70 142.27 L 338.35 143.10 L 342.00 134.01 L 345.65 132.49 L 349.30 133.86 L 352.95 133.66 L 356.60 138.52 L 360.25 143.82 L 363.90 142.74 L 367.55 156.05 L 371.20 154.15 L 374.85 148.42 L 378.50 144.62 L 382.15 151.14 L 385.80 145.80 L 389.45 149.63 L 393.10 150.18 L 396.75 154.50 L 400.40 158.58 L 404.05 157.62 L 407.70 150.92 L 411.35 154.04 L 415.00 151.18 L 418.65 140.98 L 422.30 134.75 L 425.95 136.41 L 429.60 141.00 L 433.25 136.43 L 436.90 141.52 L 440.55 146.02 L 444.20 142.46 L 447.85 138.33 L 451.50 137.19 L 455.15 127.86 L 458.80 122.46 L 462.45 121.77 L 466.10 116.14 L 469.75 113.25 L 473.40 101.41 L 477.05 96.24 L 480.70 92.47 L 484.35 98.78 L 488.00 108.38 L 491.65 116.01 L 495.30 112.32 L 498.95 113.90 L 502.60 109.99 L 506.25 110.33 L 509.90 110.94 L 513.55 119.16 L 517.20 111.56 L 520.85 122.22 L 524.50 125.73 L 528.15 132.94 L 531.80 129.66 L 535.45 116.64 L 539.10 117.07 L 542.75 113.95 L 546.40 107.22 L 550.05 105.86 L 553.70 108.39 L 557.35 101.73 L 561.00 106.90 L 564.65 119.31 L 568.30 125.12 L 571.95 129.51 L 575.60 141.20 L 579.25 152.32 L 582.90 153.42 L 586.55 156.01 L 590.20 151.69 L 593.85 145.93 L 597.50 138.67 L 601.15 129.01 L 604.80 122.79 L 608.45 130.96 L 612.10 131.70 L 615.75 122.97 L 619.40 107.26 L 623.05 106.80 L 626.70 100.06 L 630.35 105.00 L 634.00 98.72 L 637.65 106.24 L 641.30 101.29 L 644.95 107.51 L 648.60 103.55 L 652.25 110.81 L 655.90 106.76 L 659.55 106.51 L 663.20 104.45 L 666.85 107.26 L 670.50 107.23 L 674.15 103.85 L 677.80 108.59 L 681.45 106.32 L 685.10 100.57 L 688.75 90.48 L 692.40 85.29 L 696.05 79.39 L 699.70 84.76 L 703.35 77.78 L 707.00 77.86 L 710.65 74.07 L 714.30 86.10 L 717.95 81.24 L 721.60 84.20 L 725.25 84.19 L 728.90 81.21 L 732.55 73.42 L 736.20 83.94 L 739.85 80.18 L 743.50 76.62 L 747.15 80.17 L 750.80 76.26 L 754.45 95.07 L 758.10 84.45 L 761.75 84.07 L 765.40 75.66 L 769.05 80.11 L 772.70 79.79 L 776.35 76.50 L 780.00 65.38" class="path-2" />
<path d="M 50.00 159.33 L 53.65 163.48 L 57.30 162.52 L 60.95 160.78 L 64.60 149.03 L 68.25 159.08 L 71.90 161.03 L 75.55 164.11 L 79.20 170.11 L 82.85 166.42 L 86.50 153.40 L 90.15 155.14 L 93.80 159.11 L 97.45 154.64 L 101.10 154.63 L 104.75 163.60 L 108.40 155.01 L 112.05 160.02 L 115.70 155.19 L 119.35 147.59 L 123.00 147.58 L 126.65 147.25 L 130.30 150.06 L 133.95 144.95 L 137.60 145.32 L 141.25 141.59 L 144.90 153.52 L 148.55 154.11 L 152.20 149.11 L 155.85 153.14 L 159.50 146.18 L 163.15 134.18 L 166.80 131.35 L 170.45 139.04 L 174.10 133.42 L 177.75 144.46 L 181.40 142.46 L 185.05 142.48 L 188.70 143.15 L 192.35 141.02 L 196.00 147.51 L 199.65 141.96 L 203.30 142.84 L 206.95 142.65 L 210.60 139.07 L 214.25 138.26 L 217.90 142.96 L 221.55 137.56 L 225.20 128.11 L 228.85 123.88 L 232.50 114.57 L 236.15 115.86 L 239.80 121.06 L 243.45 116.55 L 247.10 118.04 L 250.75 111.60 L 254.40 111.64 L 258.05 108.36 L 261.70 114.41 L 265.35 113.74 L 269.00 125.61 L 272.65 134.54 L 276.30 132.10 L 279.95 123.12 L 283.60 117.23 L 287.25 103.08 L 290.90 103.97 L 294.55 105.15 L 298.20 108.50 L 301.85 106.17 L 305.50 101.64 L 309.15 96.98 L 312.80 90.04 L 316.45 105.16 L 320.10 103.60 L 323.75 110.29 L 327.40 117.04 L 331.05 111.09 L 334.70 112.11 L 338.35 108.54 L 342.00 102.42 L 345.65 109.44 L 349.30 111.77 L 352.95 120.54 L 356.60 123.44 L 360.25 118.43 L 363.90 117.87 L 367.55 114.58 L 371.20 116.05 L 374.85 113.33 L 378.50 109.83 L 382.15 102.99 L 385.80 86.46 L 389.45 78.74 L 393.10 83.46 L 396.75 89.29 L 400.40 93.21 L 404.05 80.59 L 407.70 86.85 L 411.35 85.98 L 415.00 91.63 L 418.65 89.43 L 422.30 94.11 L 425.95 91.44 L 429.60 87.46 L 433.25 98.91 L 436.90 109.21 L 440.55 102.01 L 444.20 99.48 L 447.85 94.31 L 451.50 90.63 L 455.15 94.46 L 458.80 91.33 L 462.45 84.19 L 466.10 82.65 L 469.75 91.43 L 473.40 90.49 L 477.05 99.13 L 480.70 108.31 L 484.35 107.96 L 488.00 109.51 L 491.65 121.56 L 495.30 113.69 L 498.95 120.58 L 502.60 111.38 L 506.25 106.55 L 509.90 107.87 L 513.55 108.89 L 517.20 114.22 L 520.85 111.70 L 524.50 112.88 L 528.15 116.59 L 531.80 118.72 L 535.45 119.74 L 539.10 119.31 L 542.75 114.84 L 546.40 115.48 L 550.05 108.53 L 553.70 103.69 L 557.35 114.74 L 561.00 119.67 L 564.65 131.93 L 568.30 136.51 L 571.95 145.13 L 575.60 148.45 L 579.25 145.19 L 582.90 156.58 L 586.55 149.13 L 590.20 144.07 L 593.85 149.94 L 597.50 156.02 L 601.15 156.54 L 604.80 146.09 L 608.45 143.93 L 612.10 143.74 L 615.75 155.75 L 619.40 155.06 L 623.05 143.53 L 626.70 145.13 L 630.35 139.15 L 634.00 149.51 L 637.65 139.90 L 641.30 144.53 L 644.95 142.77 L 648.60 135.73 L 652.25 131.35 L 655.90 128.47 L 659.55 126.50 L 663.20 125.43 L 666.85 120.13 L 670.50 136.13 L 674.15 137.38 L 677.80 128.63 L 681.45 125.14 L 685.10 121.66 L 688.75 130.24 L 692.40 132.19 L 696.05 137.88 L 699.70 145.43 L 703.35 153.14 L 707.00 162.45 L 710.65 163.68 L 714.30 172.15 L 717.95 176.53 L 721.60 180.99 L 725.25 171.99 L 728.90 187.65 L 732.55 188.26 L 736.20 188.12 L 739.85 185.87 L 743.50 186.28 L 747.15 187.06 L 750.80 183.06 L 754.45 176.23 L 758.10 159.00 L 761.75 154.41 L 765.40 165.40 L 769.05 164.19 L 772.70 165.59 L 776.35 157.13 L 780.00 149.51" class="path-3" />
<path d="M 50.00 159.33 L 53.65 159.73 L 57.30 168.30 L 60.95 168.33 L 64.60 153.90 L 68.25 164.21 L 71.90 161.33 L 75.55 161.62 L 79.20 158.69 L 82.85 163.24 L 86.50 153.35 L 90.15 153.66 L 93.80 158.74 L 97.45 165.74 L 101.10 158.19 L 104.75 157.71 L 108.40 156.54 L 112.05 161.62 L 115.70 156.12 L 119.35 151.30 L 123.00 163.28 L 126.65 162.86 L 130.30 151.42 L 133.95 142.51 L 137.60 140.00 L 141.25 153.79 L 144.90 149.71 L 148.55 139.07 L 152.20 139.64 L 155.85 136.85 L 159.50 130.62 L 163.15 124.39 L 166.80 131.89 L 170.45 127.85 L 174.10 121.78 L 177.75 113.68 L 181.40 112.37 L 185.05 114.75 L 188.70 130.57 L 192.35 135.74 L 196.00 141.34 L 199.65 140.43 L 203.30 137.05 L 206.95 136.92 L 210.60 131.51 L 214.25 123.85 L 217.90 128.34 L 221.55 124.90 L 225.20 124.23 L 228.85 118.86 L 232.50 119.37 L 236.15 131.18 L 239.80 127.96 L 243.45 123.90 L 247.10 124.98 L 250.75 132.48 L 254.40 124.35 L 258.05 126.21 L 261.70 121.11 L 265.35 115.95 L 269.00 105.97 L 272.65 110.84 L 276.30 115.95 L 279.95 112.74 L 283.60 107.18 L 287.25 121.56 L 290.90 134.40 L 294.55 142.04 L 298.20 131.18 L 301.85 132.69 L 305.50 134.17 L 309.15 133.00 L 312.80 122.57 L 316.45 119.48 L 320.10 122.84 L 323.75 109.41 L 327.40 117.47 L 331.05 126.90 L 334.70 121.10 L 338.35 138.47 L 342.00 146.57 L 345.65 148.40 L 349.30 153.24 L 352.95 153.06 L 356.60 154.35 L 360.25 150.32 L 363.90 151.39 L 367.55 145.32 L 371.20 155.30 L 374.85 145.82 L 378.50 152.37 L 382.15 154.80 L 385.80 149.02 L 389.45 151.38 L 393.10 163.18 L 396.75 166.91 L 400.40 161.19 L 404.05 160.92 L 407.70 168.18 L 411.35 167.56 L 415.00 177.36 L 418.65 189.77 L 422.30 190.01 L 425.95 184.09 L 429.60 182.82 L 433.25 180.98 L 436.90 181.01 L 440.55 179.59 L 444.20 170.32 L 447.85 173.65 L 451.50 164.02 L 455.15 150.56 L 458.80 148.63 L 462.45 149.07 L 466.10 150.42 L 469.75 147.94 L 473.40 148.52 L 477.05 155.72 L 480.70 154.95 L 484.35 160.34 L 488.00 151.71 L 491.65 155.35 L 495.30 161.86 L 498.95 158.26 L 502.60 161.81 L 506.25 155.17 L 509.90 164.64 L 513.55 153.24 L 517.20 157.97 L 520.85 152.95 L 524.50 165.55 L 528.15 158.49 L 531.80 163.55 L 535.45 162.31 L 539.10 164.04 L 542.75 157.71 L 546.40 159.01 L 550.05 156.10 L 553.70 154.27 L 557.35 157.94 L 561.00 167.29 L 564.65 166.64 L 568.30 170.00 L 571.95 174.08 L 575.60 171.80 L 579.25 167.69 L 582.90 170.42 L 586.55 167.26 L 590.20 170.94 L 593.85 168.91 L 597.50 164.53 L 601.15 172.66 L 604.80 169.30 L 608.45 170.22 L 612.10 165.88 L 615.75 168.00 L 619.40 162.24 L 623.05 168.44 L 626.70 167.76 L 630.35 173.57 L 634.00 170.19 L 637.65 171.11 L 641.30 162.42 L 644.95 159.42 L 648.60 158.81 L 652.25 162.85 L 655.90 153.37 L 659.55 166.15 L 663.20 165.07 L 666.85 160.86 L 670.50 167.49 L 674.15 171.94 L 677.80 181.33 L 681.45 184.60 L 685.10 182.52 L 688.75 173.65 L 692.40 178.03 L 696.05 180.12 L 699.70 179.41 L 703.35 179.49 L 707.00 180.72 L 710.65 178.19 L 714.30 176.93 L 717.95 179.06 L 721.60 184.17 L 725.25 179.86 L 728.90 190.14 L 732.55 193.64 L 736.20 201.11 L 739.85 205.82 L 743.50 215.16 L 747.15 222.66 L 750.80 234.21 L 754.45 233.66 L 758.10 229.79 L 761.75 228.72 L 765.40 234.62 L 769.05 227.20 L 772.70 228.47 L 776.35 219.76 L 780.00 216.73" class="path-4" />
<line x1="50" y1="159.3" x2="780" y2="159.3" stroke="#4b5563" stroke-width="0.8" stroke-dasharray="6 3" />
</svg>