<svg xmlns="http://www.w3.org/2000/svg" viewBox="0 0 800 300" width="800" height="300">
<style>
.axis-line { stroke: #6b7280; stroke-width: 0.5; }
.axis-text { font-family: monospace; font-size: 11px; fill: #9ca3af; }
.title-text { font-family: monospace; font-size: 14px; fill: #d1d5db; font-weight: bold; }
.grid-line { stroke: #374151; stroke-width: 0.3; stroke-dasharray: 4 2; }
.path-0 { fill: none; stroke: #3b82f6; stroke-width: 2; stroke-linecap: round; opacity: 0.85; animation: draw-0 8s ease-in-out 0.0s infinite; stroke-dasharray: 1062; stroke-dashoffset: 1062;}
@keyframes draw-0 { 0% { stroke-dashoffset: 1062; } 38% { stroke-dashoffset: 0; } 62% { stroke-dashoffset: 0; } 100% { stroke-dashoffset: 1062; }}
.path-1 { fill: none; stroke: #ef4444; stroke-width: 2; stroke-linecap: round; opacity: 0.85; animation: draw-1 8s ease-in-out 0.4s infinite; stroke-dasharray: 1008; stroke-dashoffset: 1008;}
@keyframes draw-1 { 0% { stroke-dashoffset: 1008; } 38% { stroke-dashoffset: 0; } 62% { stroke-dashoffset: 0; } 100% { stroke-dashoffset: 1008; }}
.path-2 { fill: none; stroke: #22c55e; stroke-width: 2; stroke-linecap: round; opacity: 0.85; animation: draw-2 8s ease-in-out 0.8s infinite; stroke-dasharray: 1001; stroke-dashoffset: 1001;}
@keyframes draw-2 { 0% { stroke-dashoffset: 1001; } 38% { stroke-dashoffset: 0; } 62% { stroke-dashoffset: 0; } 100% { stroke-dashoffset: 1001; }}
.path-3 { fill: none; stroke: #f59e0b; stroke-width: 2; stroke-linecap: round; opacity: 0.85; animation: draw-3 8s ease-in-out 1.2000000000000002s infinite; stroke-dasharray: 1049; stroke-dashoffset: 1049;}
@keyframes draw-3 { 0% { stroke-dashoffset: 1049; } 38% { stroke-dashoffset: 0; } 62% { stroke-dashoffset: 0; } 100% { stroke-dashoffset: 1049; }}
.path-4 { fill: none; stroke: #a855f7; stroke-width: 2; stroke-linecap: round; opacity: 0.85; animation: draw-4 8s ease-in-out 1.6s infinite; stroke-dasharray: 1055; stroke-dashoffset: 1055;}
@keyframes draw-4 { 0% { stroke-dashoffset: 1055; } 38% { stroke-dashoffset: 0; } 62% { stroke-dashoffset: 0; } 100% { stroke-dashoffset: 1055; }}
</style>
<rect width="800" height="300" rx="8" fill="#0d1117" />
<line x1="50" y1="260.0" x2="780" y2="260.0" class="grid-line" />
<text x="44" y="264.0" text-anchor="end" class="axis-text">-2.1</text>
<line x1="50" y1="216.0" x2="780" y2="216.0" class="grid-line" />
<text x="44" y="220.0" text-anchor="end" class="axis-text">-1.3</text>
<line x1="50" y1="172.0" x2="780" y2="172.0" class="grid-line" />
<text x="44" y="176.0" text-anchor="end" class="axis-text">-0.6</text>
<line x1="50" y1="128.0" x2="780" y2="128.0" class="grid-line" />
<text x="44" y="132.0" text-anchor="end" class="axis-text">0.2</text>
<line x1="50" y1="84.0" x2="780" y2="84.0" class="grid-line" />
<text x="44" y="88.0" text-anchor="end" class="axis-text">1.0</text>
<line x1="50" y1="40.0" x2="780" y2="40.0" class="grid-line" />
<text x="44" y="44.0" text-anchor="end" class="axis-text">1.8</text>
<line x1="50.0" y1="40" x2="50.0" y2="260" class="grid-line" />
<line x1="196.0" y1="40" x2="196.0" y2="260" class="grid-line" />
<line x1="342.0" y1="40" x2="342.0" y2="260" class="grid-line" />
<line x1="488.0" y1="40" x2="488.0" y2="260" class="grid-line" />
<line x1="634.0" y1="40" x2="634.0" y2="260" class="grid-line" />
<line x1="780.0" y1="40" x2="780.0" y2="260" class="grid-line" />
<line x1="50" y1="260" x2="780" y2="260" class="axis-line" />
<line x1="50" y1="40" x2="50" y2="260" class="axis-line" />
<text x="400.0" y="295" text-anchor="middle" class="axis-text">t</text>
<text x="12" y="150.0" text-anchor="middle" class="axis-text" transform="rotate(-90 12 150.0)">W(t)</text>
<text x="400.0" y="22" text-anchor="middle" class="title-text">Brownian Motion</text>
<path d="M 50.00 140.76 L 53.65 135.93 L 57.30 136.69 L 60.95 132.96 L 64.60 133.40 L 68.25 135.94 L 71.90 141.64 L 75.55 138.60 L 79.20 144.04 L 82.85 144.55 L 86.50 142.95 L 90.15 146.52 L 93.80 146.32 L 97.45 146.96 L 101.10 141.64 L 104.75 140.71 L 108.40 141.30 L 112.05 144.59 L 115.70 145.67 L 119.35 148.21 L 123.00 148.94 L 126.65 142.08 L 130.30 137.68 L 133.95 135.84 L 137.60 132.79 L 141.25 138.71 L 144.90 135.36 L 148.55 130.92 L 152.20 135.96 L 155.85 134.31 L 159.50 130.23 L 163.15 127.58 L 166.80 123.54 L 170.45 125.83 L 174.10 128.84 L 177.75 129.58 L 181.40 126.14 L 185.05 122.26 L 188.70 125.34 L 192.35 117.56 L 196.00 116.78 L 199.65 117.61 L 203.30 124.30 L 206.95 129.19 L 210.60 133.15 L 214.25 131.11 L 217.90 134.19 L 221.55 137.07 L 225.20 142.15 L 228.85 145.61 L 232.50 141.82 L 236.15 135.34 L 239.80 140.26 L 243.45 138.68 L 247.10 135.46 L 250.75 133.07 L 254.40 131.65 L 258.05 136.08 L 261.70 140.29 L 265.35 141.76 L 269.00 139.72 L 272.65 146.62 L 276.30 147.49 L 279.95 148.32 L 283.60 149.46 L 287.25 150.41 L 290.90 158.70 L 294.55 163.09 L 298.20 165.05 L 301.85 171.02 L 305.50 171.90 L 309.15 176.44 L 312.80 187.23 L 316.45 192.99 L 320.10 190.66 L 323.75 188.88 L 327.40 192.06 L 331.05 189.00 L 334.70 196.70 L 338.35 198.15 L 342.00 195.74 L 345.65 188.59 L 349.30 190.28 L 352.95 194.57 L 356.60 187.12 L 360.25 184.01 L 363.90 182.28 L 367.55 181.11 L 371.20 175.42 L 374.85 181.56 L 378.50 179.57 L 382.15 177.92 L 385.80 174.26 L 389.45 176.62 L 393.10 177.90 L 396.75 173.41 L 400.40 173.43 L 404.05 176.20 L 407.70 184.98 L 411.35 192.83 L 415.00 191.13 L 418.65 196.27 L 422.30 188.42 L 425.95 181.85 L 429.60 180.25 L 433.25 182.40 L 436.90 182.09 L 440.55 182.57 L 444.20 182.83 L 447.85 186.97 L 451.50 186.53 L 455.15 193.70 L 458.80 191.32 L 462.45 189.12 L 466.10 187.48 L 469.75 188.51 L 473.40 189.25 L 477.05 190.27 L 480.70 186.15 L 484.35 187.58 L 488.00 190.55 L 491.65 191.59 L 495.30 187.84 L 498.95 189.65 L 502.60 186.42 L 506.25 193.11 L 509.90 190.37 L 513.55 197.25 L 517.20 194.36 L 520.85 191.75 L 524.50 193.83 L 528.15 192.51 L 531.80 195.77 L 535.45 194.33 L 539.10 191.15 L 542.75 185.01 L 546.40 181.28 L 550.05 187.71 L 553.70 180.69 L 557.35 185.33 L 561.00 185.06 L 564.65 187.74 L 568.30 189.38 L 571.95 187.52 L 575.60 186.06 L 579.25 190.88 L 582.90 184.26 L 586.55 181.21 L 590.20 174.47 L 593.85 170.55 L 597.50 176.74 L 601.15 174.31 L 604.80 167.95 L 608.45 167.09 L 612.10 166.08 L 615.75 166.11 L 619.40 164.69 L 623.05 175.36 L 626.70 173.32 L 630.35 172.31 L 634.00 180.52 L 637.65 172.25 L 641.30 176.46 L 644.95 176.53 L 648.60 171.18 L 652.25 172.42 L 655.90 176.79 L 659.55 177.08 L 663.20 173.61 L 666.85 169.42 L 670.50 164.41 L 674.15 169.12 L 677.80 168.02 L 681.45 169.66 L 685.10 175.58 L 688.75 177.45 L 692.40 178.15 L 696.05 173.26 L 699.70 171.76 L 703.35 164.34 L 707.00 161.06 L 710.65 159.56 L 714.30 164.47 L 717.95 167.40 L 721.60 173.05 L 725.25 166.45 L 728.90 166.29 L 732.55 163.60 L 736.20 163.85 L 739.85 164.50 L 743.50 167.17 L 747.15 158.43 L 750.80 162.68 L 754.45 158.80 L 758.10 161.78 L 761.75 163.78 L 765.40 162.60 L 769.05 171.17 L 772.70 172.76 L 776.35 179.12 L 780.00 172.52" class="path-0" />
<path d="M 50.00 140.76 L 53.65 140.81 L 57.30 140.98 L 60.95 136.40 L 64.60 135.36 L 68.25 134.51 L 71.90 131.05 L 75.55 129.45 L 79.20 134.16 L 82.85 134.77 L 86.50 132.43 L 90.15 131.45 L 93.80 125.39 L 97.45 127.80 L 101.10 124.02 L 104.75 126.01 L 108.40 128.96 L 112.05 122.65 L 115.70 124.90 L 119.35 126.81 L 123.00 124.21 L 126.65 125.91 L 130.30 121.29 L 133.95 119.10 L 137.60 123.81 L 141.25 130.16 L 144.90 128.66 L 148.55 127.57 L 152.20 130.71 L 155.85 134.01 L 159.50 135.25 L 163.15 127.53 L 166.80 128.06 L 170.45 125.52 L 174.10 126.86 L 177.75 129.37 L 181.40 133.98 L 185.05 131.69 L 188.70 135.26 L 192.35 135.37 L 196.00 139.65 L 199.65 132.72 L 203.30 137.98 L 206.95 134.93 L 210.60 137.04 L 214.25 134.16 L 217.90 138.01 L 221.55 136.66 L 225.20 135.03 L 228.85 143.72 L 232.50 146.96 L 236.15 149.67 L 239.80 147.43 L 243.45 144.12 L 247.10 141.22 L 250.75 142.48 L 254.40 140.02 L 258.05 140.47 L 261.70 134.76 L 265.35 132.37 L 269.00 134.04 L 272.65 132.26 L 276.30 132.38 L 279.95 132.19 L 283.60 131.49 L 287.25 134.87 L 290.90 130.09 L 294.55 128.05 L 298.20 134.32 L 301.85 135.43 L 305.50 135.81 L 309.15 135.22 L 312.80 134.36 L 316.45 143.18 L 320.10 144.13 L 323.75 142.39 L 327.40 143.73 L 331.05 144.40 L 334.70 144.93 L 338.35 150.46 L 342.00 159.71 L 345.65 155.38 L 349.30 154.80 L 352.95 153.41 L 356.60 150.51 L 360.25 155.64 L 363.90 154.07 L 367.55 161.20 L 371.20 159.20 L 374.85 157.67 L 378.50 158.18 L 382.15 155.23 L 385.80 151.51 L 389.45 157.00 L 393.10 159.03 L 396.75 152.62 L 400.40 153.65 L 404.05 153.97 L 407.70 148.59 L 411.35 150.28 L 415.00 153.31 L 418.65 153.12 L 422.30 152.06 L 425.95 156.48 L 429.60 157.83 L 433.25 159.21 L 436.90 156.26 L 440.55 152.93 L 444.20 153.70 L 447.85 150.17 L 451.50 151.45 L 455.15 151.42 L 458.80 153.43 L 462.45 156.34 L 466.10 158.58 L 469.75 154.96 L 473.40 158.51 L 477.05 160.52 L 480.70 170.65 L 484.35 172.62 L 488.00 173.38 L 491.65 175.25 L 495.30 168.01 L 498.95 170.72 L 502.60 169.52 L 506.25 168.96 L 509.90 166.28 L 513.55 173.14 L 517.20 178.22 L 520.85 180.06 L 524.50 175.95 L 528.15 181.42 L 531.80 175.94 L 535.45 177.15 L 539.10 168.00 L 542.75 169.66 L 546.40 170.80 L 550.05 173.17 L 553.70 169.72 L 557.35 168.24 L 561.00 166.48 L 564.65 166.18 L 568.30 159.20 L 571.95 154.46 L 575.60 158.11 L 579.25 160.56 L 582.90 160.50 L 586.55 164.78 L 590.20 163.97 L 593.85 164.50 L 597.50 160.31 L 601.15 156.75 L 604.80 153.42 L 608.45 160.67 L 612.10 172.03 L 615.75 176.38 L 619.40 180.57 L 623.05 178.74 L 626.70 183.40 L 630.35 184.28 L 634.00 185.72 L 637.65 179.79 L 641.30 173.36 L 644.95 177.85 L 648.60 175.21 L 652.25 183.52 L 655.90 185.48 L 659.55 191.25 L 663.20 192.04 L 666.85 193.01 L 670.50 198.19 L 674.15 198.60 L 677.80 195.55 L 681.45 192.06 L 685.10 192.12 L 688.75 190.95 L 692.40 195.59 L 696.05 196.29 L 699.70 199.06 L 703.35 207.92 L 707.00 210.20 L 710.65 212.37 L 714.30 219.61 L 717.95 228.86 L 721.60 226.51 L 725.25 228.42 L 728.90 225.17 L 732.55 227.96 L 736.20 230.64 L 739.85 230.27 L 743.50 228.25 L 747.15 224.76 L 750.80 224.81 L 754.45 227.61 L 758.10 232.34 L 761.75 231.36 L 765.40 231.63 L 769.05 229.07 L 772.70 232.06 L 776.35 232.76 L 780.00 234.62" class="path-1" />
<path d="M 50.00 140.76 L 53.65 141.98 L 57.30 143.07 L 60.95 141.04 L 64.60 144.92 L 68.25 146.06 L 71.90 142.76 L 75.55 143.35 L 79.20 138.95 L 82.85 136.61 L 86.50 137.44 L 90.15 137.82 L 93.80 129.16 L 97.45 127.98 L 101.10 123.70 L 104.75 125.36 L 108.40 118.91 L 112.05 110.54 L 115.70 108.30 L 119.35 101.95 L 123.00 100.14 L 126.65 94.39 L 130.30 99.50 L 133.95 93.53 L 137.60 94.82 L 141.25 96.15 L 144.90 100.02 L 148.55 100.11 L 152.20 101.92 L 155.85 98.33 L 159.50 104.53 L 163.15 109.81 L 166.80 107.15 L 170.45 98.77 L 174.10 96.90 L 177.75 99.64 L 181.40 98.55 L 185.05 98.68 L 188.70 92.64 L 192.35 90.93 L 196.00 87.71 L 199.65 88.82 L 203.30 82.95 L 206.95 81.10 L 210.60 81.48 L 214.25 81.39 L 217.90 82.09 L 221.55 81.34 L 225.20 84.49 L 228.85 81.49 L 232.50 78.80 L 236.15 76.87 L 239.80 79.78 L 243.45 82.99 L 247.10 83.26 L 250.75 79.53 L 254.40 80.31 L 258.05 85.32 L 261.70 87.66 L 265.35 88.67 L 269.00 76.84 L 272.65 78.37 L 276.30 78.65 L 279.95 79.59 L 283.60 77.57 L 287.25 78.99 L 290.90 75.58 L 294.55 76.46 L 298.20 77.23 L 301.85 74.63 L 305.50 69.79 L 309.15 74.89 L 312.80 80.52 L 316.45 84.31 L 320.10 89.39 L 323.75 82.16 L 327.40 80.35 L 331.05 83.59 L 334.70 86.35 L 338.35 92.87 L 342.00 89.42 L 345.65 92.31 L 349.30 90.67 L 352.95 92.38 L 356.60 94.05 L 360.25 92.51 L 363.90 87.34 L 367.55 83.63 L 371.20 80.73 L 374.85 81.97 L 378.50 79.99 L 382.15 78.97 L 385.80 84.15 L 389.45 78.33 L 393.10 80.07 L 396.75 79.42 L 400.40 71.08 L 404.05 69.73 L 407.70 72.01 L 411.35 76.37 L 415.00 79.29 L 418.65 79.90 L 422.30 79.58 L 425.95 77.77 L 429.60 83.04 L 433.25 82.30 L 436.90 84.86 L 440.55 86.61 L 444.20 79.54 L 447.85 80.18 L 451.50 80.46 L 455.15 79.48 L 458.80 85.20 L 462.45 83.33 L 466.10 83.72 L 469.75 81.40 L 473.40 75.35 L 477.05 77.63 L 480.70 73.12 L 484.35 68.50 L 488.00 68.33 L 491.65 70.90 L 495.30 68.88 L 498.95 76.99 L 502.60 79.51 L 506.25 76.02 L 509.90 77.32 L 513.55 77.17 L 517.20 81.41 L 520.85 81.49 L 524.50 81.30 L 528.15 85.55 L 531.80 85.18 L 535.45 88.56 L 539.10 87.34 L 542.75 86.31 L 546.40 88.25 L 550.05 86.07 L 553.70 84.33 L 557.35 80.60 L 561.00 81.61 L 564.65 84.00 L 568.30 85.06 L 571.95 88.08 L 575.60 89.86 L 579.25 87.58 L 582.90 82.72 L 586.55 86.58 L 590.20 82.17 L 593.85 86.47 L 597.50 86.94 L 601.15 85.58 L 604.80 92.19 L 608.45 99.60 L 612.10 100.00 L 615.75 100.15 L 619.40 107.29 L 623.05 104.22 L 626.70 105.23 L 630.35 107.83 L 634.00 110.18 L 637.65 105.90 L 641.30 101.43 L 644.95 101.68 L 648.60 102.22 L 652.25 102.50 L 655.90 106.50 L 659.55 107.50 L 663.20 105.91 L 666.85 98.80 L 670.50 95.83 L 674.15 90.59 L 677.80 93.29 L 681.45 88.97 L 685.10 94.26 L 688.75 91.39 L 692.40 89.21 L 696.05 88.94 L 699.70 85.07 L 703.35 85.87 L 707.00 86.16 L 710.65 88.81 L 714.30 94.59 L 717.95 95.20 L 721.60 91.35 L 725.25 96.06 L 728.90 97.77 L 732.55 104.63 L 736.20 106.04 L 739.85 101.34 L 743.50 102.25 L 747.15 99.62 L 750.80 106.69 L 754.45 99.98 L 758.10 107.71 L 761.75 107.12 L 765.40 104.33 L 769.05 106.17 L 772.70 104.34 L 776.35 108.07 L 780.00 104.80" class="path-2" />
<path d="M 50.00 140.76 L 53.65 140.04 L 57.30 143.14 L 60.95 139.61 L 64.60 134.63 L 68.25 133.90 L 71.90 134.02 L 75.55 133.99 L 79.20 132.59 L 82.85 129.16 L 86.50 133.53 L 90.15 136.82 L 93.80 134.61 L 97.45 127.79 L 101.10 128.58 L 104.75 126.84 L 108.40 124.28 L 112.05 120.80 L 115.70 117.54 L 119.35 119.73 L 123.00 121.74 L 126.65 114.01 L 130.30 110.20 L 133.95 107.75 L 137.60 109.89 L 141.25 106.66 L 144.90 100.24 L 148.55 105.96 L 152.20 102.15 L 155.85 96.22 L 159.50 99.52 L 163.15 97.61 L 166.80 102.70 L 170.45 101.86 L 174.10 103.66 L 177.75 110.09 L 181.40 112.09 L 185.05 114.02 L 188.70 115.46 L 192.35 112.76 L 196.00 112.26 L 199.65 113.80 L 203.30 111.97 L 206.95 111.34 L 210.60 112.17 L 214.25 105.35 L 217.90 104.48 L 221.55 104.68 L 225.20 103.93 L 228.85 101.96 L 232.50 104.95 L 236.15 109.82 L 239.80 111.68 L 243.45 105.96 L 247.10 106.71 L 250.75 108.72 L 254.40 114.80 L 258.05 113.43 L 261.70 113.61 L 265.35 114.78 L 269.00 107.39 L 272.65 101.70 L 276.30 99.27 L 279.95 101.82 L 283.60 101.53 L 287.25 103.35 L 290.90 102.06 L 294.55 103.04 L 298.20 103.68 L 301.85 101.49 L 305.50 96.00 L 309.15 93.72 L 312.80 88.22 L 316.45 89.44 L 320.10 89.52 L 323.75 98.22 L 327.40 96.37 L 331.05 86.36 L 334.70 86.16 L 338.35 89.36 L 342.00 93.97 L 345.65 99.30 L 349.30 107.47 L 352.95 110.85 L 356.60 111.09 L 360.25 115.65 L 363.90 118.33 L 367.55 121.02 L 371.20 120.87 L 374.85 121.04 L 378.50 113.66 L 382.15 109.32 L 385.80 116.42 L 389.45 118.57 L 393.10 126.36 L 396.75 128.97 L 400.40 126.29 L 404.05 128.02 L 407.70 132.40 L 411.35 126.47 L 415.00 129.68 L 418.65 123.20 L 422.30 119.42 L 425.95 120.77 L 429.60 117.73 L 433.25 111.44 L 436.90 117.68 L 440.55 120.31 L 444.20 123.42 L 447.85 118.56 L 451.50 119.86 L 455.15 119.72 L 458.80 113.74 L 462.45 110.61 L 466.10 111.73 L 469.75 114.51 L 473.40 114.84 L 477.05 110.31 L 480.70 112.17 L 484.35 110.19 L 488.00 109.91 L 491.65 118.95 L 495.30 119.73 L 498.95 123.66 L 502.60 119.58 L 506.25 119.43 L 509.90 119.07 L 513.55 123.20 L 517.20 123.34 L 520.85 117.64 L 524.50 123.08 L 528.15 120.27 L 531.80 118.88 L 535.45 119.50 L 539.10 119.36 L 542.75 116.53 L 546.40 114.27 L 550.05 113.78 L 553.70 108.65 L 557.35 111.50 L 561.00 111.34 L 564.65 106.08 L 568.30 106.09 L 571.95 108.29 L 575.60 106.96 L 579.25 106.20 L 582.90 109.21 L 586.55 106.04 L 590.20 97.79 L 593.85 91.60 L 597.50 89.96 L 601.15 94.16 L 604.80 100.55 L 608.45 94.53 L 612.10 95.63 L 615.75 93.47 L 619.40 101.10 L 623.05 94.40 L 626.70 95.12 L 630.35 92.59 L 634.00 94.23 L 637.65 89.51 L 641.30 94.87 L 644.95 92.59 L 648.60 86.78 L 652.25 84.41 L 655.90 88.20 L 659.55 87.51 L 663.20 83.19 L 666.85 79.94 L 670.50 72.27 L 674.15 72.14 L 677.80 71.24 L 681.45 76.61 L 685.10 73.95 L 688.75 82.47 L 692.40 77.71 L 696.05 82.55 L 699.70 86.94 L 703.35 77.45 L 707.00 76.97 L 710.65 74.83 L 714.30 66.40 L 717.95 65.38 L 721.60 69.84 L 725.25 75.81 L 728.90 68.74 L 732.55 65.44 L 736.20 67.94 L 739.85 72.27 L 743.50 67.87 L 747.15 66.60 L 750.80 72.58 L 754.45 70.65 L 758.10 71.74 L 761.75 73.38 L 765.40 74.93 L 769.05 72.81 L 772.70 78.95 L 776.35 68.87 L 780.00 66.04" class="path-3" />
<path d="M 50.00 140.76 L 53.65 132.76 L 57.30 129.99 L 60.95 124.04 L 64.60 124.25 L 68.25 129.87 L 71.90 128.27 L 75.55 128.62 L 79.20 124.55 L 82.85 131.20 L 86.50 134.45 L 90.15 132.68 L 93.80 128.79 L 97.45 137.18 L 101.10 133.58 L 104.75 127.74 L 108.40 118.60 L 112.05 111.06 L 115.70 107.34 L 119.35 115.79 L 123.00 118.72 L 126.65 119.07 L 130.30 124.11 L 133.95 120.37 L 137.60 125.56 L 141.25 128.13 L 144.90 130.26 L 148.55 122.45 L 152.20 128.91 L 155.85 124.23 L 159.50 124.94 L 163.15 124.94 L 166.80 126.62 L 170.45 131.01 L 174.10 125.07 L 177.75 125.58 L 181.40 128.91 L 185.05 125.18 L 188.70 122.90 L 192.35 130.19 L 196.00 125.59 L 199.65 129.73 L 203.30 132.69 L 206.95 131.70 L 210.60 135.90 L 214.25 137.13 L 217.90 140.12 L 221.55 142.13 L 225.20 145.50 L 228.85 144.73 L 232.50 145.03 L 236.15 143.25 L 239.80 146.70 L 243.45 144.11 L 247.10 141.03 L 250.75 142.56 L 254.40 138.56 L 258.05 139.38 L 261.70 135.75 L 265.35 130.78 L 269.00 129.06 L 272.65 127.72 L 276.30 123.19 L 279.95 120.05 L 283.60 112.99 L 287.25 112.42 L 290.90 107.77 L 294.55 110.93 L 298.20 109.63 L 301.85 111.32 L 305.50 109.54 L 309.15 112.13 L 312.80 107.82 L 316.45 112.67 L 320.10 110.53 L 323.75 108.56 L 327.40 111.64 L 331.05 116.55 L 334.70 110.36 L 338.35 110.37 L 342.00 108.85 L 345.65 103.17 L 349.30 95.82 L 352.95 104.24 L 356.60 102.52 L 360.25 97.41 L 363.90 89.93 L 367.55 94.10 L 371.20 92.10 L 374.85 89.30 L 378.50 93.17 L 382.15 88.02 L 385.80 83.33 L 389.45 82.16 L 393.10 77.36 L 396.75 79.48 L 400.40 79.10 L 404.05 73.04 L 407.70 75.92 L 411.35 75.75 L 415.00 83.74 L 418.65 85.94 L 422.30 89.56 L 425.95 91.12 L 429.60 85.39 L 433.25 82.27 L 436.90 81.06 L 440.55 81.55 L 444.20 84.08 L 447.85 76.13 L 451.50 85.53 L 455.15 83.05 L 458.80 84.43 L 462.45 94.77 L 466.10 98.44 L 469.75 100.41 L 473.40 98.80 L 477.05 98.89 L 480.70 102.22 L 484.35 97.66 L 488.00 100.93 L 491.65 102.23 L 495.30 100.06 L 498.95 104.66 L 502.60 105.55 L 506.25 99.34 L 509.90 101.32 L 513.55 106.29 L 517.20 108.76 L 520.85 109.15 L 524.50 109.30 L 528.15 116.78 L 531.80 117.74 L 535.45 113.66 L 539.10 109.11 L 542.75 107.15 L 546.40 109.20 L 550.05 110.33 L 553.70 111.55 L 557.35 120.47 L 561.00 121.53 L 564.65 121.53 L 568.30 123.42 L 571.95 126.24 L 575.60 126.60 L 579.25 130.73 L 582.90 128.17 L 586.55 126.53 L 590.20 124.46 L 593.85 124.07 L 597.50 126.56 L 601.15 127.28 L 604.80 122.34 L 608.45 122.65 L 612.10 126.06 L 615.75 127.04 L 619.40 130.95 L 623.05 132.48 L 626.70 135.96 L 630.35 134.59 L 634.00 129.12 L 637.65 137.08 L 641.30 139.04 L 644.95 142.37 L 648.60 141.83 L 652.25 139.80 L 655.90 139.94 L 659.55 136.93 L 663.20 136.68 L 666.85 145.80 L 670.50 140.07 L 674.15 146.53 L 677.80 150.56 L 681.45 149.80 L 685.10 145.75 L 688.75 145.07 L 692.40 155.26 L 696.05 161.74 L 699.70 160.02 L 703.35 166.88 L 707.00 167.49 L 710.65 168.12 L 714.30 173.45 L 717.95 169.84 L 721.60 170.22 L 725.25 170.88 L 728.90 176.17 L 732.55 175.31 L 736.20 171.52 L 739.85 175.17 L 743.50 175.79 L 747.15 176.14 L 750.80 175.51 L 754.45 172.59 L 758.10 170.35 L 761.75 165.05 L 765.40 165.03 L 769.05 158.03 L 772.70 161.87 L 776.35 163.53 L 780.00 160.98" class="path-4" />
<line x1="50" y1="140.8" x2="780" y2="140.8" stroke="#4b5563" stroke-width="0.8" stroke-dasharray="6 3" />
</svg>