<svg xmlns="http://www.w3.org/2000/svg" viewBox="0 0 800 300" width="800" height="300">
<style>
.axis-line { stroke: #6b7280; stroke-width: 0.5; }
.axis-text { font-family: monospace; font-size: 11px; fill: #9ca3af; }
.title-text { font-family: monospace; font-size: 14px; fill: #d1d5db; font-weight: bold; }
.grid-line { stroke: #374151; stroke-width: 0.3; stroke-dasharray: 4 2; }
.path-0 { fill: none; stroke: #3b82f6; stroke-width: 2; stroke-linecap: round; opacity: 0.85; animation: draw-0 8s ease-in-out 0.0s infinite; stroke-dasharray: 1052; stroke-dashoffset: 1052;}
@keyframes draw-0 { 0% { stroke-dashoffset: 1052; } 38% { stroke-dashoffset: 0; } 62% { stroke-dashoffset: 0; } 100% { stroke-dashoffset: 1052; }}
.path-1 { fill: none; stroke: #ef4444; stroke-width: 2; stroke-linecap: round; opacity: 0.85; animation: draw-1 8s ease-in-out 0.4s infinite; stroke-dasharray: 1038; stroke-dashoffset: 1038;}
@keyframes draw-1 { 0% { stroke-dashoffset: 1038; } 38% { stroke-dashoffset: 0; } 62% { stroke-dashoffset: 0; } 100% { stroke-dashoffset: 1038; }}
.path-2 { fill: none; stroke: #22c55e; stroke-width: 2; stroke-linecap: round; opacity: 0.85; animation: draw-2 8s ease-in-out 0.8s infinite; stroke-dasharray: 1054; stroke-dashoffset: 1054;}
@keyframes draw-2 { 0% { stroke-dashoffset: 1054; } 38% { stroke-dashoffset: 0; } 62% { stroke-dashoffset: 0; } 100% { stroke-dashoffset: 1054; }}
.path-3 { fill: none; stroke: #f59e0b; stroke-width: 2; stroke-linecap: round; opacity: 0.85; animation: draw-3 8s ease-in-out 1.2000000000000002s infinite; stroke-dasharray: 1025; stroke-dashoffset: 1025;}
@keyframes draw-3 { 0% { stroke-dashoffset: 1025; } 38% { stroke-dashoffset: 0; } 62% { stroke-dashoffset: 0; } 100% { stroke-dashoffset: 1025; }}
.path-4 { fill: none; stroke: #a855f7; stroke-width: 2; stroke-linecap: round; opacity: 0.85; animation: draw-4 8s ease-in-out 1.6s infinite; stroke-dasharray: 1037; stroke-dashoffset: 1037;}
@keyframes draw-4 { 0% { stroke-dashoffset: 1037; } 38% { stroke-dashoffset: 0; } 62% { stroke-dashoffset: 0; } 100% { stroke-dashoffset: 1037; }}
</style>
<rect width="800" height="300" rx="8" fill="#0d1117" />
<line x1="50" y1="260.0" x2="780" y2="260.0" class="grid-line" />
<text x="44" y="264.0" text-anchor="end" class="axis-text">-1.4</text>
<line x1="50" y1="216.0" x2="780" y2="216.0" class="grid-line" />
<text x="44" y="220.0" text-anchor="end" class="axis-text">-0.6</text>
<line x1="50" y1="172.0" x2="780" y2="172.0" class="grid-line" />
<text x="44" y="176.0" text-anchor="end" class="axis-text">0.2</text>
<line x1="50" y1="128.0" x2="780" y2="128.0" class="grid-line" />
<text x="44" y="132.0" text-anchor="end" class="axis-text">1.0</text>
<line x1="50" y1="84.0" x2="780" y2="84.0" class="grid-line" />
<text x="44" y="88.0" text-anchor="end" class="axis-text">1.8</text>
<line x1="50" y1="40.0" x2="780" y2="40.0" class="grid-line" />
<text x="44" y="44.0" text-anchor="end" class="axis-text">2.6</text>
<line x1="50.0" y1="40" x2="50.0" y2="260" class="grid-line" />
<line x1="196.0" y1="40" x2="196.0" y2="260" class="grid-line" />
<line x1="342.0" y1="40" x2="342.0" y2="260" class="grid-line" />
<line x1="488.0" y1="40" x2="488.0" y2="260" class="grid-line" />
<line x1="634.0" y1="40" x2="634.0" y2="260" class="grid-line" />
<line x1="780.0" y1="40" x2="780.0" y2="260" class="grid-line" />
<line x1="50" y1="260" x2="780" y2="260" class="axis-line" />
<line x1="50" y1="40" x2="50" y2="260" class="axis-line" />
<text x="400.0" y="295" text-anchor="middle" class="axis-text">t</text>
<text x="12" y="150.0" text-anchor="middle" class="axis-text" transform="rotate(-90 12 150.0)">W(t)</text>
<text x="400.0" y="22" text-anchor="middle" class="title-text">Brownian Motion</text>
<path d="M 50.00 184.34 L 53.65 181.26 L 57.30 182.30 L 60.95 181.92 L 64.60 179.80 L 68.25 178.57 L 71.90 180.31 L 75.55 176.81 L 79.20 165.63 L 82.85 168.65 L 86.50 164.97 L 90.15 164.14 L 93.80 165.34 L 97.45 163.96 L 101.10 166.15 L 104.75 166.28 L 108.40 163.64 L 112.05 165.37 L 115.70 164.27 L 119.35 166.02 L 123.00 171.02 L 126.65 161.10 L 130.30 160.30 L 133.95 167.85 L 137.60 166.53 L 141.25 174.83 L 144.90 176.67 L 148.55 178.52 L 152.20 179.45 L 155.85 179.39 L 159.50 181.94 L 163.15 183.95 L 166.80 183.09 L 170.45 184.98 L 174.10 186.40 L 177.75 184.76 L 181.40 181.94 L 185.05 188.29 L 188.70 184.53 L 192.35 184.60 L 196.00 180.91 L 199.65 183.90 L 203.30 186.01 L 206.95 190.47 L 210.60 187.46 L 214.25 193.48 L 217.90 194.55 L 221.55 200.31 L 225.20 198.93 L 228.85 203.78 L 232.50 204.58 L 236.15 201.52 L 239.80 198.15 L 243.45 192.45 L 247.10 202.46 L 250.75 207.78 L 254.40 204.71 L 258.05 203.64 L 261.70 203.97 L 265.35 197.43 L 269.00 195.03 L 272.65 189.76 L 276.30 195.54 L 279.95 196.33 L 283.60 196.04 L 287.25 199.25 L 290.90 192.35 L 294.55 194.14 L 298.20 192.14 L 301.85 186.90 L 305.50 187.79 L 309.15 195.07 L 312.80 195.13 L 316.45 195.61 L 320.10 186.75 L 323.75 188.73 L 327.40 191.18 L 331.05 193.69 L 334.70 185.85 L 338.35 184.58 L 342.00 178.36 L 345.65 171.69 L 349.30 170.99 L 352.95 167.09 L 356.60 170.68 L 360.25 161.55 L 363.90 162.09 L 367.55 163.82 L 371.20 159.42 L 374.85 150.82 L 378.50 150.66 L 382.15 148.06 L 385.80 149.88 L 389.45 153.11 L 393.10 147.46 L 396.75 144.71 L 400.40 149.75 L 404.05 146.47 L 407.70 141.34 L 411.35 140.63 L 415.00 143.54 L 418.65 143.38 L 422.30 140.10 L 425.95 140.97 L 429.60 142.07 L 433.25 139.23 L 436.90 135.66 L 440.55 137.98 L 444.20 139.37 L 447.85 147.37 L 451.50 149.96 L 455.15 153.39 L 458.80 150.45 L 462.45 149.41 L 466.10 145.82 L 469.75 143.57 L 473.40 138.65 L 477.05 132.38 L 480.70 136.97 L 484.35 137.48 L 488.00 143.23 L 491.65 147.03 L 495.30 153.50 L 498.95 164.19 L 502.60 160.01 L 506.25 165.32 L 509.90 161.23 L 513.55 167.17 L 517.20 161.65 L 520.85 156.32 L 524.50 152.50 L 528.15 150.91 L 531.80 153.02 L 535.45 148.84 L 539.10 143.93 L 542.75 146.41 L 546.40 138.60 L 550.05 134.78 L 553.70 132.24 L 557.35 133.42 L 561.00 130.30 L 564.65 133.71 L 568.30 135.49 L 571.95 135.29 L 575.60 136.86 L 579.25 141.16 L 582.90 138.87 L 586.55 133.68 L 590.20 133.96 L 593.85 131.30 L 597.50 132.10 L 601.15 126.90 L 604.80 124.18 L 608.45 121.81 L 612.10 125.12 L 615.75 129.64 L 619.40 134.81 L 623.05 133.19 L 626.70 134.41 L 630.35 133.12 L 634.00 127.92 L 637.65 126.25 L 641.30 124.63 L 644.95 120.30 L 648.60 115.68 L 652.25 115.87 L 655.90 108.91 L 659.55 107.96 L 663.20 111.85 L 666.85 115.29 L 670.50 117.52 L 674.15 112.94 L 677.80 113.33 L 681.45 104.70 L 685.10 111.08 L 688.75 108.69 L 692.40 106.37 L 696.05 103.70 L 699.70 105.46 L 703.35 102.68 L 707.00 98.32 L 710.65 105.56 L 714.30 99.93 L 717.95 92.39 L 721.60 90.97 L 725.25 83.47 L 728.90 78.16 L 732.55 78.87 L 736.20 77.57 L 739.85 80.73 L 743.50 76.36 L 747.15 75.12 L 750.80 74.19 L 754.45 71.91 L 758.10 76.11 L 761.75 77.71 L 765.40 76.77 L 769.05 78.90 L 772.70 77.84 L 776.35 81.51 L 780.00 86.78" class="path-0" />
<path d="M 50.00 184.34 L 53.65 191.64 L 57.30 187.90 L 60.95 189.22 L 64.60 190.48 L 68.25 198.70 L 71.90 194.05 L 75.55 192.23 L 79.20 194.02 L 82.85 191.28 L 86.50 188.69 L 90.15 180.12 L 93.80 172.11 L 97.45 165.54 L 101.10 159.70 L 104.75 160.68 L 108.40 160.08 L 112.05 161.02 L 115.70 156.24 L 119.35 157.59 L 123.00 160.27 L 126.65 163.69 L 130.30 158.08 L 133.95 158.33 L 137.60 157.50 L 141.25 157.45 L 144.90 155.76 L 148.55 161.70 L 152.20 153.04 L 155.85 159.78 L 159.50 152.06 L 163.15 153.10 L 166.80 161.55 L 170.45 161.71 L 174.10 165.03 L 177.75 166.86 L 181.40 162.45 L 185.05 157.39 L 188.70 154.80 L 192.35 154.25 L 196.00 157.70 L 199.65 155.98 L 203.30 156.23 L 206.95 155.17 L 210.60 148.73 L 214.25 151.18 L 217.90 153.94 L 221.55 154.12 L 225.20 152.23 L 228.85 154.83 L 232.50 156.53 L 236.15 149.40 L 239.80 149.70 L 243.45 150.04 L 247.10 152.51 L 250.75 152.92 L 254.40 157.75 L 258.05 160.23 L 261.70 159.00 L 265.35 159.72 L 269.00 152.32 L 272.65 145.76 L 276.30 143.11 L 279.95 138.33 L 283.60 144.43 L 287.25 142.26 L 290.90 142.38 L 294.55 135.24 L 298.20 126.29 L 301.85 126.74 L 305.50 126.92 L 309.15 129.51 L 312.80 129.10 L 316.45 131.11 L 320.10 122.25 L 323.75 129.21 L 327.40 126.79 L 331.05 130.62 L 334.70 126.79 L 338.35 124.77 L 342.00 126.34 L 345.65 134.04 L 349.30 134.20 L 352.95 134.99 L 356.60 131.97 L 360.25 138.52 L 363.90 136.56 L 367.55 135.94 L 371.20 138.10 L 374.85 136.83 L 378.50 137.62 L 382.15 139.42 L 385.80 140.16 L 389.45 137.69 L 393.10 138.78 L 396.75 141.08 L 400.40 138.91 L 404.05 133.64 L 407.70 133.38 L 411.35 139.87 L 415.00 138.55 L 418.65 134.00 L 422.30 128.41 L 425.95 137.26 L 429.60 132.67 L 433.25 127.46 L 436.90 130.34 L 440.55 128.83 L 444.20 127.51 L 447.85 128.20 L 451.50 127.44 L 455.15 127.27 L 458.80 122.89 L 462.45 126.07 L 466.10 122.59 L 469.75 127.32 L 473.40 124.87 L 477.05 120.98 L 480.70 123.35 L 484.35 117.36 L 488.00 119.15 L 491.65 118.55 L 495.30 122.50 L 498.95 122.85 L 502.60 116.01 L 506.25 116.85 L 509.90 118.87 L 513.55 120.32 L 517.20 115.94 L 520.85 114.24 L 524.50 115.50 L 528.15 108.72 L 531.80 112.79 L 535.45 112.99 L 539.10 110.33 L 542.75 110.17 L 546.40 113.50 L 550.05 103.10 L 553.70 94.96 L 557.35 90.42 L 561.00 86.68 L 564.65 86.47 L 568.30 85.79 L 571.95 78.07 L 575.60 80.17 L 579.25 80.39 L 582.90 87.01 L 586.55 91.31 L 590.20 88.64 L 593.85 85.29 L 597.50 91.51 L 601.15 90.39 L 604.80 95.01 L 608.45 94.16 L 612.10 89.57 L 615.75 81.93 L 619.40 85.23 L 623.05 78.54 L 626.70 77.89 L 630.35 77.52 L 634.00 73.20 L 637.65 65.38 L 641.30 67.09 L 644.95 69.37 L 648.60 69.54 L 652.25 74.18 L 655.90 70.46 L 659.55 68.17 L 663.20 66.26 L 666.85 67.56 L 670.50 72.01 L 674.15 74.70 L 677.80 75.93 L 681.45 72.27 L 685.10 70.24 L 688.75 66.49 L 692.40 67.58 L 696.05 71.80 L 699.70 68.41 L 703.35 67.01 L 707.00 73.33 L 710.65 71.18 L 714.30 67.50 L 717.95 67.71 L 721.60 70.63 L 725.25 73.72 L 728.90 76.20 L 732.55 78.71 L 736.20 73.95 L 739.85 72.36 L 743.50 71.22 L 747.15 69.36 L 750.80 67.12 L 754.45 70.94 L 758.10 73.74 L 761.75 68.28 L 765.40 67.14 L 769.05 67.03 L 772.70 71.51 L 776.35 74.07 L 780.00 73.16" class="path-1" />
<path d="M 50.00 184.34 L 53.65 196.18 L 57.30 197.10 L 60.95 188.49 L 64.60 192.24 L 68.25 193.75 L 71.90 196.34 L 75.55 201.30 L 79.20 202.59 L 82.85 200.74 L 86.50 195.53 L 90.15 202.27 L 93.80 203.22 L 97.45 206.08 L 101.10 205.06 L 104.75 206.33 L 108.40 199.03 L 112.05 202.37 L 115.70 197.15 L 119.35 197.12 L 123.00 195.87 L 126.65 190.07 L 130.30 187.26 L 133.95 191.02 L 137.60 189.23 L 141.25 186.25 L 144.90 183.37 L 148.55 180.57 L 152.20 184.28 L 155.85 186.13 L 159.50 179.62 L 163.15 177.33 L 166.80 173.20 L 170.45 176.89 L 174.10 178.55 L 177.75 183.54 L 181.40 188.23 L 185.05 185.49 L 188.70 183.65 L 192.35 180.35 L 196.00 178.34 L 199.65 172.98 L 203.30 161.43 L 206.95 165.09 L 210.60 171.84 L 214.25 173.01 L 217.90 170.08 L 221.55 166.87 L 225.20 169.96 L 228.85 169.72 L 232.50 172.99 L 236.15 172.77 L 239.80 181.36 L 243.45 183.15 L 247.10 188.09 L 250.75 185.53 L 254.40 179.66 L 258.05 175.65 L 261.70 172.17 L 265.35 173.68 L 269.00 174.52 L 272.65 175.66 L 276.30 170.80 L 279.95 166.31 L 283.60 160.52 L 287.25 163.59 L 290.90 167.76 L 294.55 164.72 L 298.20 162.31 L 301.85 159.82 L 305.50 158.92 L 309.15 153.57 L 312.80 155.79 L 316.45 158.82 L 320.10 165.60 L 323.75 162.72 L 327.40 163.78 L 331.05 170.57 L 334.70 172.36 L 338.35 162.61 L 342.00 159.02 L 345.65 161.49 L 349.30 160.24 L 352.95 165.74 L 356.60 155.42 L 360.25 154.06 L 363.90 152.99 L 367.55 148.80 L 371.20 153.97 L 374.85 150.17 L 378.50 152.62 L 382.15 155.59 L 385.80 154.96 L 389.45 147.58 L 393.10 143.71 L 396.75 147.29 L 400.40 146.16 L 404.05 150.36 L 407.70 154.51 L 411.35 152.28 L 415.00 157.62 L 418.65 155.09 L 422.30 152.73 L 425.95 150.47 L 429.60 153.71 L 433.25 157.81 L 436.90 160.04 L 440.55 162.34 L 444.20 167.75 L 447.85 170.51 L 451.50 170.52 L 455.15 172.66 L 458.80 174.41 L 462.45 168.60 L 466.10 169.22 L 469.75 168.65 L 473.40 162.29 L 477.05 159.37 L 480.70 161.49 L 484.35 158.87 L 488.00 156.54 L 491.65 160.72 L 495.30 162.35 L 498.95 166.06 L 502.60 171.27 L 506.25 169.84 L 509.90 163.29 L 513.55 167.83 L 517.20 172.46 L 520.85 167.41 L 524.50 168.20 L 528.15 166.69 L 531.80 166.42 L 535.45 173.15 L 539.10 171.02 L 542.75 178.06 L 546.40 182.12 L 550.05 182.21 L 553.70 179.07 L 557.35 176.63 L 561.00 181.34 L 564.65 184.89 L 568.30 187.04 L 571.95 183.41 L 575.60 189.66 L 579.25 190.64 L 582.90 194.33 L 586.55 191.03 L 590.20 187.26 L 593.85 187.31 L 597.50 183.45 L 601.15 189.17 L 604.80 192.26 L 608.45 197.45 L 612.10 192.18 L 615.75 191.83 L 619.40 180.98 L 623.05 181.84 L 626.70 179.80 L 630.35 176.93 L 634.00 177.24 L 637.65 180.53 L 641.30 185.14 L 644.95 179.06 L 648.60 181.75 L 652.25 182.49 L 655.90 185.26 L 659.55 187.17 L 663.20 188.10 L 666.85 186.77 L 670.50 189.95 L 674.15 187.97 L 677.80 178.01 L 681.45 170.66 L 685.10 175.01 L 688.75 174.36 L 692.40 173.58 L 696.05 180.00 L 699.70 179.03 L 703.35 173.78 L 707.00 173.36 L 710.65 171.15 L 714.30 180.36 L 717.95 178.85 L 721.60 179.03 L 725.25 181.88 L 728.90 182.87 L 732.55 184.22 L 736.20 186.41 L 739.85 184.91 L 743.50 184.88 L 747.15 184.56 L 750.80 185.46 L 754.45 178.44 L 758.10 178.40 L 761.75 177.08 L 765.40 170.72 L 769.05 166.93 L 772.70 164.75 L 776.35 169.29 L 780.00 167.69" class="path-2" />
<path d="M 50.00 184.34 L 53.65 179.64 L 57.30 184.42 L 60.95 183.14 L 64.60 181.41 L 68.25 178.21 L 71.90 182.72 L 75.55 186.74 L 79.20 189.77 L 82.85 187.86 L 86.50 189.61 L 90.15 190.54 L 93.80 191.08 L 97.45 198.92 L 101.10 199.99 L 104.75 198.80 L 108.40 199.87 L 112.05 197.83 L 115.70 202.06 L 119.35 200.41 L 123.00 197.83 L 126.65 197.99 L 130.30 198.46 L 133.95 199.18 L 137.60 201.89 L 141.25 202.83 L 144.90 202.38 L 148.55 203.57 L 152.20 205.33 L 155.85 199.72 L 159.50 202.02 L 163.15 201.03 L 166.80 203.63 L 170.45 208.90 L 174.10 207.70 L 177.75 206.32 L 181.40 208.31 L 185.05 205.14 L 188.70 204.43 L 192.35 206.50 L 196.00 207.45 L 199.65 202.00 L 203.30 199.56 L 206.95 205.32 L 210.60 201.82 L 214.25 201.49 L 217.90 202.78 L 221.55 200.84 L 225.20 206.90 L 228.85 207.30 L 232.50 205.85 L 236.15 210.43 L 239.80 209.88 L 243.45 215.10 L 247.10 217.34 L 250.75 223.40 L 254.40 226.20 L 258.05 216.18 L 261.70 221.64 L 265.35 219.46 L 269.00 220.11 L 272.65 221.48 L 276.30 212.97 L 279.95 209.12 L 283.60 207.33 L 287.25 208.82 L 290.90 209.50 L 294.55 217.19 L 298.20 222.25 L 301.85 219.87 L 305.50 220.30 L 309.15 221.49 L 312.80 221.84 L 316.45 212.02 L 320.10 211.99 L 323.75 209.20 L 327.40 208.27 L 331.05 205.15 L 334.70 201.18 L 338.35 202.31 L 342.00 205.34 L 345.65 216.10 L 349.30 210.14 L 352.95 208.43 L 356.60 212.60 L 360.25 211.93 L 363.90 209.86 L 367.55 208.80 L 371.20 211.69 L 374.85 211.14 L 378.50 219.80 L 382.15 220.34 L 385.80 218.53 L 389.45 219.08 L 393.10 221.81 L 396.75 222.47 L 400.40 218.57 L 404.05 212.08 L 407.70 211.32 L 411.35 211.41 L 415.00 206.46 L 418.65 199.77 L 422.30 193.93 L 425.95 197.80 L 429.60 208.12 L 433.25 208.84 L 436.90 212.33 L 440.55 214.79 L 444.20 214.16 L 447.85 209.73 L 451.50 206.29 L 455.15 205.31 L 458.80 200.70 L 462.45 201.22 L 466.10 202.63 L 469.75 202.09 L 473.40 196.96 L 477.05 195.12 L 480.70 199.06 L 484.35 194.61 L 488.00 200.96 L 491.65 209.62 L 495.30 205.42 L 498.95 199.11 L 502.60 200.01 L 506.25 200.50 L 509.90 200.09 L 513.55 201.35 L 517.20 195.88 L 520.85 198.04 L 524.50 192.53 L 528.15 196.04 L 531.80 199.43 L 535.45 195.77 L 539.10 189.31 L 542.75 187.39 L 546.40 194.06 L 550.05 196.06 L 553.70 198.66 L 557.35 199.83 L 561.00 200.50 L 564.65 202.45 L 568.30 207.94 L 571.95 207.67 L 575.60 200.24 L 579.25 205.63 L 582.90 205.57 L 586.55 205.02 L 590.20 202.31 L 593.85 199.33 L 597.50 194.43 L 601.15 191.66 L 604.80 193.23 L 608.45 194.27 L 612.10 192.94 L 615.75 200.06 L 619.40 206.08 L 623.05 212.23 L 626.70 216.24 L 630.35 213.33 L 634.00 208.69 L 637.65 212.94 L 641.30 212.88 L 644.95 213.55 L 648.60 214.03 L 652.25 214.23 L 655.90 216.59 L 659.55 214.81 L 663.20 208.69 L 666.85 212.01 L 670.50 215.74 L 674.15 221.10 L 677.80 230.25 L 681.45 230.19 L 685.10 232.59 L 688.75 234.62 L 692.40 234.36 L 696.05 230.28 L 699.70 227.08 L 703.35 216.43 L 707.00 213.86 L 710.65 209.81 L 714.30 215.15 L 717.95 213.52 L 721.60 213.67 L 725.25 211.65 L 728.90 207.82 L 732.55 209.67 L 736.20 211.48 L 739.85 219.13 L 743.50 214.87 L 747.15 213.73 L 750.80 217.82 L 754.45 218.13 L 758.10 222.36 L 761.75 222.36 L 765.40 221.27 L 769.05 221.65 L 772.70 221.40 L 776.35 215.21 L 780.00 222.84" class="path-3" />
<path d="M 50.00 184.34 L 53.65 180.46 L 57.30 179.14 L 60.95 182.57 L 64.60 182.24 L 68.25 187.14 L 71.90 186.45 L 75.55 196.83 L 79.20 190.04 L 82.85 193.54 L 86.50 194.39 L 90.15 195.19 L 93.80 197.91 L 97.45 198.64 L 101.10 200.14 L 104.75 198.29 L 108.40 198.30 L 112.05 200.48 L 115.70 200.29 L 119.35 198.97 L 123.00 203.33 L 126.65 203.11 L 130.30 204.30 L 133.95 201.98 L 137.60 206.68 L 141.25 200.76 L 144.90 199.36 L 148.55 204.17 L 152.20 202.50 L 155.85 195.26 L 159.50 197.96 L 163.15 197.95 L 166.80 200.86 L 170.45 199.43 L 174.10 203.20 L 177.75 204.20 L 181.40 202.04 L 185.05 200.05 L 188.70 197.85 L 192.35 195.28 L 196.00 203.95 L 199.65 199.60 L 203.30 197.19 L 206.95 192.79 L 210.60 192.20 L 214.25 194.13 L 217.90 196.17 L 221.55 195.24 L 225.20 202.63 L 228.85 201.36 L 232.50 198.27 L 236.15 195.30 L 239.80 196.19 L 243.45 197.97 L 247.10 195.58 L 250.75 190.07 L 254.40 188.48 L 258.05 183.96 L 261.70 192.22 L 265.35 185.38 L 269.00 188.24 L 272.65 188.50 L 276.30 192.78 L 279.95 198.18 L 283.60 200.83 L 287.25 196.88 L 290.90 194.31 L 294.55 188.75 L 298.20 198.42 L 301.85 194.35 L 305.50 191.56 L 309.15 192.86 L 312.80 189.03 L 316.45 187.09 L 320.10 186.06 L 323.75 186.34 L 327.40 183.12 L 331.05 183.03 L 334.70 187.96 L 338.35 184.38 L 342.00 179.17 L 345.65 178.06 L 349.30 173.81 L 352.95 177.64 L 356.60 173.75 L 360.25 171.89 L 363.90 162.73 L 367.55 166.44 L 371.20 173.49 L 374.85 173.19 L 378.50 182.29 L 382.15 182.53 L 385.80 184.06 L 389.45 187.64 L 393.10 186.98 L 396.75 185.21 L 400.40 192.53 L 404.05 194.56 L 407.70 193.48 L 411.35 190.03 L 415.00 192.25 L 418.65 192.14 L 422.30 200.49 L 425.95 198.78 L 429.60 209.70 L 433.25 210.67 L 436.90 212.22 L 440.55 216.00 L 444.20 218.35 L 447.85 218.94 L 451.50 214.64 L 455.15 216.36 L 458.80 212.73 L 462.45 212.41 L 466.10 208.35 L 469.75 209.07 L 473.40 211.14 L 477.05 212.08 L 480.70 210.79 L 484.35 208.42 L 488.00 214.11 L 491.65 215.17 L 495.30 222.93 L 498.95 224.10 L 502.60 222.69 L 506.25 220.24 L 509.90 223.11 L 513.55 219.30 L 517.20 220.60 L 520.85 218.54 L 524.50 217.93 L 528.15 217.77 L 531.80 219.96 L 535.45 227.91 L 539.10 226.51 L 542.75 229.72 L 546.40 229.69 L 550.05 233.95 L 553.70 228.76 L 557.35 224.37 L 561.00 221.33 L 564.65 224.70 L 568.30 225.23 L 571.95 218.80 L 575.60 223.46 L 579.25 216.30 L 582.90 219.62 L 586.55 222.70 L 590.20 222.01 L 593.85 225.48 L 597.50 217.08 L 601.15 214.56 L 604.80 214.51 L 608.45 213.21 L 612.10 214.97 L 615.75 210.93 L 619.40 209.31 L 623.05 204.25 L 626.70 208.73 L 630.35 207.28 L 634.00 210.37 L 637.65 209.63 L 641.30 215.59 L 644.95 211.90 L 648.60 210.25 L 652.25 212.36 L 655.90 209.15 L 659.55 209.49 L 663.20 208.49 L 666.85 205.41 L 670.50 202.95 L 674.15 206.95 L 677.80 204.97 L 681.45 202.33 L 685.10 203.60 L 688.75 207.79 L 692.40 201.87 L 696.05 206.79 L 699.70 213.65 L 703.35 216.07 L 707.00 220.68 L 710.65 214.59 L 714.30 206.06 L 717.95 215.50 L 721.60 219.54 L 725.25 215.83 L 728.90 213.09 L 732.55 219.73 L 736.20 225.29 L 739.85 223.91 L 743.50 222.93 L 747.15 232.86 L 750.80 232.46 L 754.45 233.36 L 758.10 233.11 L 761.75 224.48 L 765.40 228.26 L 769.05 231.31 L 772.70 231.56 L 776.35 228.35 L 780.00 228.05" class="path-4" />
<line x1="50" y1="184.3" x2="780" y2="184.3" stroke="#4b5563" stroke-width="0.8" stroke-dasharray="6 3" />
</svg>