<svg xmlns="http://www.w3.org/2000/svg" viewBox="0 0 800 300" width="800" height="300">
<style>
.axis-line { stroke: #6b7280; stroke-width: 0.5; }
.axis-text { font-family: monospace; font-size: 11px; fill: #9ca3af; }
.title-text { font-family: monospace; font-size: 14px; fill: #d1d5db; font-weight: bold; }
.grid-line { stroke: #374151; stroke-width: 0.3; stroke-dasharray: 4 2; }
.path-0 { fill: none; stroke: #3b82f6; stroke-width: 2; stroke-linecap: round; opacity: 0.85; animation: draw-0 8s ease-in-out 0.0s infinite; stroke-dasharray: 1224; stroke-dashoffset: 1224;}
@keyframes draw-0 { 0% { stroke-dashoffset: 1224; } 38% { stroke-dashoffset: 0; } 62% { stroke-dashoffset: 0; } 100% { stroke-dashoffset: 1224; }}
.path-1 { fill: none; stroke: #ef4444; stroke-width: 2; stroke-linecap: round; opacity: 0.85; animation: draw-1 8s ease-in-out 0.4s infinite; stroke-dasharray: 1264; stroke-dashoffset: 1264;}
@keyframes draw-1 { 0% { stroke-dashoffset: 1264; } 38% { stroke-dashoffset: 0; } 62% { stroke-dashoffset: 0; } 100% { stroke-dashoffset: 1264; }}
.path-2 { fill: none; stroke: #22c55e; stroke-width: 2; stroke-linecap: round; opacity: 0.85; animation: draw-2 8s ease-in-out 0.8s infinite; stroke-dasharray: 1204; stroke-dashoffset: 1204;}
@keyframes draw-2 { 0% { stroke-dashoffset: 1204; } 38% { stroke-dashoffset: 0; } 62% { stroke-dashoffset: 0; } 100% { stroke-dashoffset: 1204; }}
.path-3 { fill: none; stroke: #f59e0b; stroke-width: 2; stroke-linecap: round; opacity: 0.85; animation: draw-3 8s ease-in-out 1.2000000000000002s infinite; stroke-dasharray: 1249; stroke-dashoffset: 1249;}
@keyframes draw-3 { 0% { stroke-dashoffset: 1249; } 38% { stroke-dashoffset: 0; } 62% { stroke-dashoffset: 0; } 100% { stroke-dashoffset: 1249; }}
.path-4 { fill: none; stroke: #a855f7; stroke-width: 2; stroke-linecap: round; opacity: 0.85; animation: draw-4 8s ease-in-out 1.6s infinite; stroke-dasharray: 1179; stroke-dashoffset: 1179;}
@keyframes draw-4 { 0% { stroke-dashoffset: 1179; } 38% { stroke-dashoffset: 0; } 62% { stroke-dashoffset: 0; } 100% { stroke-dashoffset: 1179; }}
</style>
<rect width="800" height="300" rx="8" fill="#0d1117" />
<line x1="50" y1="260.0" x2="780" y2="260.0" class="grid-line" />
<text x="44" y="264.0" text-anchor="end" class="axis-text">-1.6</text>
<line x1="50" y1="216.0" x2="780" y2="216.0" class="grid-line" />
<text x="44" y="220.0" text-anchor="end" class="axis-text">-1.1</text>
<line x1="50" y1="172.0" x2="780" y2="172.0" class="grid-line" />
<text x="44" y="176.0" text-anchor="end" class="axis-text">-0.5</text>
<line x1="50" y1="128.0" x2="780" y2="128.0" class="grid-line" />
<text x="44" y="132.0" text-anchor="end" class="axis-text">0.1</text>
<line x1="50" y1="84.0" x2="780" y2="84.0" class="grid-line" />
<text x="44" y="88.0" text-anchor="end" class="axis-text">0.6</text>
<line x1="50" y1="40.0" x2="780" y2="40.0" class="grid-line" />
<text x="44" y="44.0" text-anchor="end" class="axis-text">1.2</text>
<line x1="50.0" y1="40" x2="50.0" y2="260" class="grid-line" />
<line x1="196.0" y1="40" x2="196.0" y2="260" class="grid-line" />
<line x1="342.0" y1="40" x2="342.0" y2="260" class="grid-line" />
<line x1="488.0" y1="40" x2="488.0" y2="260" class="grid-line" />
<line x1="634.0" y1="40" x2="634.0" y2="260" class="grid-line" />
<line x1="780.0" y1="40" x2="780.0" y2="260" class="grid-line" />
<line x1="50" y1="260" x2="780" y2="260" class="axis-line" />
<line x1="50" y1="40" x2="50" y2="260" class="axis-line" />
<text x="400.0" y="295" text-anchor="middle" class="axis-text">t</text>
<text x="12" y="150.0" text-anchor="middle" class="axis-text" transform="rotate(-90 12 150.0)">W(t)</text>
<text x="400.0" y="22" text-anchor="middle" class="title-text">Brownian Motion</text>
<path d="M 50.00 133.38 L 53.65 130.02 L 57.30 114.50 L 60.95 124.33 L 64.60 127.12 L 68.25 129.06 L 71.90 128.83 L 75.55 134.83 L 79.20 129.90 L 82.85 127.63 L 86.50 123.46 L 90.15 128.46 L 93.80 136.62 L 97.45 129.98 L 101.10 138.68 L 104.75 139.57 L 108.40 145.36 L 112.05 136.25 L 115.70 139.20 L 119.35 142.70 L 123.00 141.91 L 126.65 143.05 L 130.30 139.96 L 133.95 148.59 L 137.60 154.86 L 141.25 166.58 L 144.90 169.42 L 148.55 164.36 L 152.20 168.72 L 155.85 170.60 L 159.50 172.04 L 163.15 170.34 L 166.80 166.47 L 170.45 159.84 L 174.10 160.40 L 177.75 153.61 L 181.40 149.28 L 185.05 153.99 L 188.70 160.19 L 192.35 167.65 L 196.00 160.91 L 199.65 156.20 L 203.30 154.78 L 206.95 150.04 L 210.60 152.10 L 214.25 145.97 L 217.90 139.85 L 221.55 130.87 L 225.20 122.37 L 228.85 123.07 L 232.50 127.61 L 236.15 130.55 L 239.80 130.16 L 243.45 120.42 L 247.10 116.48 L 250.75 116.73 L 254.40 119.90 L 258.05 116.28 L 261.70 116.89 L 265.35 112.59 L 269.00 117.97 L 272.65 121.59 L 276.30 121.78 L 279.95 125.04 L 283.60 133.13 L 287.25 127.05 L 290.90 127.14 L 294.55 123.08 L 298.20 123.86 L 301.85 119.22 L 305.50 120.65 L 309.15 119.38 L 312.80 124.82 L 316.45 124.08 L 320.10 120.50 L 323.75 129.91 L 327.40 129.98 L 331.05 125.97 L 334.70 119.00 L 338.35 124.25 L 342.00 132.56 L 345.65 108.57 L 349.30 110.02 L 352.95 105.21 L 356.60 99.37 L 360.25 91.77 L 363.90 89.77 L 367.55 89.81 L 371.20 91.98 L 374.85 97.60 L 378.50 103.96 L 382.15 99.39 L 385.80 101.57 L 389.45 110.61 L 393.10 118.56 L 396.75 117.52 L 400.40 129.78 L 404.05 126.80 L 407.70 124.25 L 411.35 119.84 L 415.00 115.24 L 418.65 123.53 L 422.30 128.67 L 425.95 130.08 L 429.60 127.47 L 433.25 129.36 L 436.90 126.56 L 440.55 126.03 L 444.20 118.14 L 447.85 122.65 L 451.50 121.04 L 455.15 123.41 L 458.80 135.97 L 462.45 133.64 L 466.10 132.36 L 469.75 121.49 L 473.40 122.17 L 477.05 120.78 L 480.70 127.10 L 484.35 130.61 L 488.00 137.91 L 491.65 142.29 L 495.30 142.01 L 498.95 142.42 L 502.60 150.34 L 506.25 142.82 L 509.90 150.53 L 513.55 145.42 L 517.20 149.13 L 520.85 151.73 L 524.50 154.94 L 528.15 157.31 L 531.80 164.60 L 535.45 168.58 L 539.10 166.14 L 542.75 168.52 L 546.40 170.23 L 550.05 172.43 L 553.70 168.21 L 557.35 165.63 L 561.00 156.64 L 564.65 147.37 L 568.30 149.99 L 571.95 146.51 L 575.60 152.23 L 579.25 149.62 L 582.90 147.38 L 586.55 150.40 L 590.20 148.38 L 593.85 149.06 L 597.50 152.59 L 601.15 157.33 L 604.80 165.35 L 608.45 182.13 L 612.10 173.77 L 615.75 173.65 L 619.40 168.72 L 623.05 171.62 L 626.70 178.63 L 630.35 188.11 L 634.00 182.36 L 637.65 183.55 L 641.30 186.34 L 644.95 174.60 L 648.60 179.19 L 652.25 178.38 L 655.90 181.34 L 659.55 182.81 L 663.20 170.77 L 666.85 166.49 L 670.50 167.10 L 674.15 167.03 L 677.80 171.69 L 681.45 165.30 L 685.10 161.41 L 688.75 157.58 L 692.40 163.31 L 696.05 163.40 L 699.70 165.46 L 703.35 173.29 L 707.00 168.03 L 710.65 159.31 L 714.30 163.14 L 717.95 160.81 L 721.60 158.39 L 725.25 159.41 L 728.90 159.62 L 732.55 155.55 L 736.20 154.91 L 739.85 155.72 L 743.50 153.74 L 747.15 155.03 L 750.80 153.89 L 754.45 158.05 L 758.10 154.71 L 761.75 157.51 L 765.40 159.25 L 769.05 157.60 L 772.70 147.48 L 776.35 142.46 L 780.00 142.71" class="path-0" />
<path d="M 50.00 133.38 L 53.65 141.31 L 57.30 147.20 L 60.95 147.69 L 64.60 147.45 L 68.25 151.41 L 71.90 152.68 L 75.55 145.52 L 79.20 147.04 L 82.85 149.20 L 86.50 146.71 L 90.15 140.49 L 93.80 143.17 L 97.45 135.73 L 101.10 142.63 L 104.75 138.85 L 108.40 136.68 L 112.05 136.04 L 115.70 134.69 L 119.35 129.64 L 123.00 132.90 L 126.65 138.28 L 130.30 134.47 L 133.95 132.47 L 137.60 130.45 L 141.25 135.52 L 144.90 137.61 L 148.55 146.44 L 152.20 146.73 L 155.85 152.50 L 159.50 142.90 L 163.15 138.51 L 166.80 141.09 L 170.45 134.82 L 174.10 138.83 L 177.75 141.80 L 181.40 144.31 L 185.05 133.71 L 188.70 133.81 L 192.35 125.52 L 196.00 119.18 L 199.65 111.80 L 203.30 113.45 L 206.95 120.49 L 210.60 130.11 L 214.25 130.48 L 217.90 132.21 L 221.55 128.69 L 225.20 127.43 L 228.85 132.13 L 232.50 132.82 L 236.15 125.00 L 239.80 129.98 L 243.45 137.92 L 247.10 144.16 L 250.75 150.48 L 254.40 145.31 L 258.05 151.15 L 261.70 145.72 L 265.35 157.38 L 269.00 159.24 L 272.65 151.24 L 276.30 153.85 L 279.95 155.88 L 283.60 155.08 L 287.25 157.54 L 290.90 158.07 L 294.55 154.31 L 298.20 150.81 L 301.85 148.66 L 305.50 141.03 L 309.15 124.35 L 312.80 126.73 L 316.45 125.88 L 320.10 130.01 L 323.75 133.38 L 327.40 128.51 L 331.05 126.63 L 334.70 134.60 L 338.35 134.59 L 342.00 132.02 L 345.65 140.74 L 349.30 147.97 L 352.95 153.03 L 356.60 150.26 L 360.25 152.88 L 363.90 151.92 L 367.55 160.49 L 371.20 158.20 L 374.85 157.46 L 378.50 150.27 L 382.15 145.08 L 385.80 133.54 L 389.45 141.16 L 393.10 149.22 L 396.75 139.76 L 400.40 141.97 L 404.05 140.29 L 407.70 123.29 L 411.35 132.92 L 415.00 135.95 L 418.65 124.88 L 422.30 120.55 L 425.95 116.56 L 429.60 111.12 L 433.25 110.38 L 436.90 114.29 L 440.55 115.64 L 444.20 113.58 L 447.85 120.56 L 451.50 133.76 L 455.15 122.96 L 458.80 135.49 L 462.45 140.02 L 466.10 149.73 L 469.75 151.57 L 473.40 151.93 L 477.05 147.49 L 480.70 150.19 L 484.35 153.97 L 488.00 151.28 L 491.65 155.80 L 495.30 155.80 L 498.95 147.02 L 502.60 148.71 L 506.25 143.95 L 509.90 137.28 L 513.55 127.22 L 517.20 126.06 L 520.85 126.50 L 524.50 137.04 L 528.15 139.76 L 531.80 147.49 L 535.45 149.23 L 539.10 139.33 L 542.75 135.49 L 546.40 137.77 L 550.05 144.66 L 553.70 137.77 L 557.35 137.23 L 561.00 136.84 L 564.65 132.72 L 568.30 131.54 L 571.95 135.17 L 575.60 135.97 L 579.25 134.51 L 582.90 140.16 L 586.55 150.05 L 590.20 157.09 L 593.85 149.61 L 597.50 143.72 L 601.15 149.25 L 604.80 139.56 L 608.45 144.00 L 612.10 138.05 L 615.75 138.97 L 619.40 137.46 L 623.05 137.92 L 626.70 132.84 L 630.35 131.80 L 634.00 130.33 L 637.65 132.40 L 641.30 134.31 L 644.95 132.89 L 648.60 138.14 L 652.25 129.60 L 655.90 131.15 L 659.55 129.29 L 663.20 124.93 L 666.85 127.17 L 670.50 132.71 L 674.15 128.83 L 677.80 118.01 L 681.45 111.52 L 685.10 109.04 L 688.75 107.26 L 692.40 107.44 L 696.05 114.20 L 699.70 107.06 L 703.35 101.83 L 707.00 96.87 L 710.65 93.97 L 714.30 82.66 L 717.95 83.49 L 721.60 76.71 L 725.25 77.10 L 728.90 79.78 L 732.55 93.98 L 736.20 92.09 L 739.85 99.14 L 743.50 107.76 L 747.15 108.67 L 750.80 110.67 L 754.45 115.86 L 758.10 118.47 L 761.75 116.74 L 765.40 108.81 L 769.05 113.72 L 772.70 103.26 L 776.35 101.40 L 780.00 99.50" class="path-1" />
<path d="M 50.00 133.38 L 53.65 133.28 L 57.30 127.21 L 60.95 129.63 L 64.60 128.72 L 68.25 135.49 L 71.90 141.72 L 75.55 143.47 L 79.20 138.06 L 82.85 144.79 L 86.50 142.93 L 90.15 144.21 L 93.80 144.45 L 97.45 141.45 L 101.10 148.53 L 104.75 140.38 L 108.40 146.52 L 112.05 145.98 L 115.70 140.79 L 119.35 145.51 L 123.00 147.14 L 126.65 148.63 L 130.30 141.08 L 133.95 140.30 L 137.60 144.15 L 141.25 139.35 L 144.90 137.96 L 148.55 137.14 L 152.20 135.75 L 155.85 129.76 L 159.50 129.52 L 163.15 135.68 L 166.80 129.92 L 170.45 122.69 L 174.10 125.04 L 177.75 128.57 L 181.40 128.86 L 185.05 118.26 L 188.70 110.25 L 192.35 113.83 L 196.00 110.39 L 199.65 111.36 L 203.30 116.56 L 206.95 113.98 L 210.60 118.02 L 214.25 114.18 L 217.90 123.75 L 221.55 117.05 L 225.20 111.72 L 228.85 118.64 L 232.50 116.70 L 236.15 115.78 L 239.80 116.43 L 243.45 123.74 L 247.10 125.01 L 250.75 118.45 L 254.40 118.26 L 258.05 121.22 L 261.70 126.22 L 265.35 134.17 L 269.00 127.31 L 272.65 131.17 L 276.30 124.79 L 279.95 115.00 L 283.60 115.92 L 287.25 112.79 L 290.90 116.47 L 294.55 124.25 L 298.20 128.30 L 301.85 125.43 L 305.50 125.24 L 309.15 128.40 L 312.80 123.01 L 316.45 131.52 L 320.10 134.31 L 323.75 134.43 L 327.40 141.01 L 331.05 143.91 L 334.70 153.18 L 338.35 148.30 L 342.00 160.49 L 345.65 162.31 L 349.30 162.79 L 352.95 163.72 L 356.60 160.87 L 360.25 162.49 L 363.90 159.75 L 367.55 153.97 L 371.20 161.56 L 374.85 167.63 L 378.50 169.18 L 382.15 179.08 L 385.80 177.09 L 389.45 175.18 L 393.10 173.78 L 396.75 174.91 L 400.40 174.06 L 404.05 174.12 L 407.70 173.83 L 411.35 177.71 L 415.00 185.79 L 418.65 179.93 L 422.30 172.00 L 425.95 179.21 L 429.60 178.95 L 433.25 181.78 L 436.90 184.01 L 440.55 183.07 L 444.20 178.67 L 447.85 177.52 L 451.50 187.18 L 455.15 188.07 L 458.80 194.73 L 462.45 192.21 L 466.10 186.02 L 469.75 200.29 L 473.40 191.69 L 477.05 198.91 L 480.70 198.78 L 484.35 198.60 L 488.00 200.79 L 491.65 204.62 L 495.30 216.44 L 498.95 223.07 L 502.60 225.21 L 506.25 227.56 L 509.90 229.19 L 513.55 226.37 L 517.20 212.52 L 520.85 214.99 L 524.50 225.62 L 528.15 226.87 L 531.80 232.21 L 535.45 232.58 L 539.10 226.81 L 542.75 231.32 L 546.40 230.69 L 550.05 233.30 L 553.70 232.47 L 557.35 232.62 L 561.00 234.62 L 564.65 227.99 L 568.30 225.58 L 571.95 217.33 L 575.60 208.66 L 579.25 217.96 L 582.90 219.66 L 586.55 211.98 L 590.20 228.75 L 593.85 223.98 L 597.50 220.73 L 601.15 220.98 L 604.80 222.08 L 608.45 220.27 L 612.10 211.86 L 615.75 207.95 L 619.40 207.23 L 623.05 204.13 L 626.70 201.77 L 630.35 204.57 L 634.00 199.38 L 637.65 201.31 L 641.30 204.58 L 644.95 202.86 L 648.60 203.95 L 652.25 206.18 L 655.90 196.96 L 659.55 201.79 L 663.20 210.52 L 666.85 212.59 L 670.50 214.33 L 674.15 210.60 L 677.80 205.96 L 681.45 201.91 L 685.10 200.60 L 688.75 199.34 L 692.40 195.53 L 696.05 198.44 L 699.70 200.44 L 703.35 196.07 L 707.00 194.45 L 710.65 190.18 L 714.30 195.39 L 717.95 193.76 L 721.60 195.90 L 725.25 208.18 L 728.90 206.94 L 732.55 206.49 L 736.20 205.33 L 739.85 209.05 L 743.50 202.75 L 747.15 209.67 L 750.80 197.27 L 754.45 200.26 L 758.10 202.75 L 761.75 197.39 L 765.40 204.91 L 769.05 203.60 L 772.70 193.48 L 776.35 208.03 L 780.00 203.56" class="path-2" />
<path d="M 50.00 133.38 L 53.65 131.57 L 57.30 135.63 L 60.95 126.29 L 64.60 118.31 L 68.25 121.86 L 71.90 117.02 L 75.55 110.82 L 79.20 114.43 L 82.85 119.09 L 86.50 111.54 L 90.15 100.57 L 93.80 103.89 L 97.45 112.24 L 101.10 119.79 L 104.75 121.12 L 108.40 125.62 L 112.05 126.61 L 115.70 131.64 L 119.35 133.29 L 123.00 123.31 L 126.65 138.53 L 130.30 141.92 L 133.95 134.94 L 137.60 132.11 L 141.25 134.03 L 144.90 137.32 L 148.55 128.71 L 152.20 127.40 L 155.85 132.19 L 159.50 133.84 L 163.15 124.48 L 166.80 124.68 L 170.45 124.46 L 174.10 131.16 L 177.75 138.82 L 181.40 145.07 L 185.05 148.58 L 188.70 146.79 L 192.35 138.50 L 196.00 138.51 L 199.65 143.16 L 203.30 155.01 L 206.95 145.75 L 210.60 138.85 L 214.25 140.28 L 217.90 124.00 L 221.55 127.91 L 225.20 128.59 L 228.85 127.70 L 232.50 124.65 L 236.15 122.94 L 239.80 118.94 L 243.45 121.12 L 247.10 124.03 L 250.75 121.64 L 254.40 126.09 L 258.05 133.80 L 261.70 125.69 L 265.35 120.21 L 269.00 110.49 L 272.65 112.00 L 276.30 110.52 L 279.95 106.97 L 283.60 106.23 L 287.25 118.27 L 290.90 118.63 L 294.55 123.11 L 298.20 130.98 L 301.85 129.32 L 305.50 127.82 L 309.15 132.41 L 312.80 131.59 L 316.45 129.67 L 320.10 128.44 L 323.75 124.56 L 327.40 126.11 L 331.05 123.51 L 334.70 126.57 L 338.35 116.51 L 342.00 107.49 L 345.65 113.12 L 349.30 113.97 L 352.95 116.25 L 356.60 111.67 L 360.25 110.45 L 363.90 103.63 L 367.55 102.42 L 371.20 106.10 L 374.85 100.23 L 378.50 103.43 L 382.15 109.48 L 385.80 112.57 L 389.45 110.16 L 393.10 103.47 L 396.75 99.48 L 400.40 96.67 L 404.05 99.62 L 407.70 91.96 L 411.35 88.10 L 415.00 86.34 L 418.65 84.21 L 422.30 86.80 L 425.95 98.73 L 429.60 103.93 L 433.25 111.42 L 436.90 104.49 L 440.55 105.01 L 444.20 119.52 L 447.85 116.21 L 451.50 115.99 L 455.15 120.31 L 458.80 120.50 L 462.45 121.87 L 466.10 121.35 L 469.75 127.65 L 473.40 118.48 L 477.05 116.48 L 480.70 114.06 L 484.35 115.63 L 488.00 112.18 L 491.65 119.64 L 495.30 118.51 L 498.95 124.73 L 502.60 124.43 L 506.25 124.82 L 509.90 124.41 L 513.55 130.32 L 517.20 127.45 L 520.85 124.96 L 524.50 119.90 L 528.15 123.75 L 531.80 118.32 L 535.45 105.61 L 539.10 94.42 L 542.75 97.66 L 546.40 97.82 L 550.05 95.05 L 553.70 89.88 L 557.35 87.06 L 561.00 86.95 L 564.65 91.47 L 568.30 88.23 L 571.95 97.52 L 575.60 102.84 L 579.25 99.70 L 582.90 96.26 L 586.55 89.57 L 590.20 85.12 L 593.85 89.10 L 597.50 83.21 L 601.15 82.49 L 604.80 87.26 L 608.45 94.86 L 612.10 98.97 L 615.75 92.83 L 619.40 87.49 L 623.05 78.73 L 626.70 79.13 L 630.35 71.84 L 634.00 73.51 L 637.65 74.96 L 641.30 65.38 L 644.95 69.11 L 648.60 67.10 L 652.25 69.91 L 655.90 67.61 L 659.55 77.94 L 663.20 90.86 L 666.85 89.38 L 670.50 91.65 L 674.15 85.91 L 677.80 87.33 L 681.45 83.26 L 685.10 87.68 L 688.75 81.59 L 692.40 79.93 L 696.05 84.60 L 699.70 86.81 L 703.35 100.55 L 707.00 108.13 L 710.65 107.69 L 714.30 111.03 L 717.95 112.06 L 721.60 114.18 L 725.25 122.77 L 728.90 132.22 L 732.55 126.36 L 736.20 132.08 L 739.85 121.94 L 743.50 119.60 L 747.15 124.72 L 750.80 130.61 L 754.45 131.99 L 758.10 135.34 L 761.75 133.18 L 765.40 127.83 L 769.05 133.74 L 772.70 140.95 L 776.35 145.44 L 780.00 146.99" class="path-3" />
<path d="M 50.00 133.38 L 53.65 129.20 L 57.30 129.87 L 60.95 130.15 L 64.60 140.53 L 68.25 135.31 L 71.90 138.55 L 75.55 138.90 L 79.20 148.08 L 82.85 149.01 L 86.50 156.99 L 90.15 155.58 L 93.80 156.23 L 97.45 157.85 L 101.10 167.77 L 104.75 159.60 L 108.40 155.48 L 112.05 159.30 L 115.70 159.02 L 119.35 159.35 L 123.00 158.06 L 126.65 158.65 L 130.30 164.16 L 133.95 163.16 L 137.60 166.62 L 141.25 163.16 L 144.90 161.55 L 148.55 163.03 L 152.20 166.63 L 155.85 164.84 L 159.50 165.55 L 163.15 167.83 L 166.80 176.44 L 170.45 179.41 L 174.10 188.15 L 177.75 197.47 L 181.40 207.57 L 185.05 210.51 L 188.70 212.78 L 192.35 225.94 L 196.00 222.82 L 199.65 219.24 L 203.30 223.95 L 206.95 215.59 L 210.60 210.62 L 214.25 211.18 L 217.90 210.03 L 221.55 206.11 L 225.20 196.02 L 228.85 199.27 L 232.50 193.40 L 236.15 188.53 L 239.80 195.28 L 243.45 201.51 L 247.10 204.75 L 250.75 213.18 L 254.40 202.38 L 258.05 202.15 L 261.70 203.36 L 265.35 205.27 L 269.00 212.55 L 272.65 209.09 L 276.30 208.62 L 279.95 206.52 L 283.60 205.00 L 287.25 207.87 L 290.90 201.67 L 294.55 195.07 L 298.20 191.25 L 301.85 194.29 L 305.50 196.85 L 309.15 185.57 L 312.80 184.12 L 316.45 185.15 L 320.10 180.20 L 323.75 184.06 L 327.40 193.60 L 331.05 191.86 L 334.70 192.93 L 338.35 183.86 L 342.00 173.19 L 345.65 170.92 L 349.30 176.45 L 352.95 178.96 L 356.60 167.00 L 360.25 168.28 L 363.90 168.99 L 367.55 171.41 L 371.20 179.61 L 374.85 182.77 L 378.50 180.13 L 382.15 179.70 L 385.80 183.40 L 389.45 185.29 L 393.10 186.49 L 396.75 189.88 L 400.40 194.51 L 404.05 195.02 L 407.70 188.96 L 411.35 189.17 L 415.00 182.04 L 418.65 182.59 L 422.30 182.34 L 425.95 185.12 L 429.60 189.06 L 433.25 182.91 L 436.90 185.67 L 440.55 187.60 L 444.20 193.06 L 447.85 195.74 L 451.50 192.88 L 455.15 191.86 L 458.80 191.25 L 462.45 192.97 L 466.10 197.13 L 469.75 199.36 L 473.40 201.71 L 477.05 201.02 L 480.70 211.16 L 484.35 210.49 L 488.00 216.41 L 491.65 214.32 L 495.30 219.12 L 498.95 216.33 L 502.60 209.91 L 506.25 205.25 L 509.90 213.77 L 513.55 217.25 L 517.20 212.37 L 520.85 204.07 L 524.50 200.70 L 528.15 202.73 L 531.80 204.82 L 535.45 206.28 L 539.10 214.12 L 542.75 207.06 L 546.40 214.04 L 550.05 208.22 L 553.70 200.02 L 557.35 198.78 L 561.00 196.02 L 564.65 192.87 L 568.30 198.27 L 571.95 192.99 L 575.60 189.18 L 579.25 180.64 L 582.90 174.89 L 586.55 170.29 L 590.20 178.32 L 593.85 177.20 L 597.50 186.15 L 601.15 186.27 L 604.80 192.36 L 608.45 199.40 L 612.10 198.44 L 615.75 195.82 L 619.40 189.44 L 623.05 182.50 L 626.70 182.49 L 630.35 186.55 L 634.00 189.25 L 637.65 185.38 L 641.30 190.52 L 644.95 184.56 L 648.60 187.15 L 652.25 185.09 L 655.90 185.78 L 659.55 195.22 L 663.20 192.93 L 666.85 185.16 L 670.50 190.06 L 674.15 185.68 L 677.80 183.17 L 681.45 186.03 L 685.10 194.23 L 688.75 187.46 L 692.40 186.14 L 696.05 185.83 L 699.70 186.89 L 703.35 177.27 L 707.00 170.94 L 710.65 160.37 L 714.30 158.16 L 717.95 160.84 L 721.60 161.07 L 725.25 167.28 L 728.90 161.79 L 732.55 168.14 L 736.20 164.80 L 739.85 171.13 L 743.50 173.41 L 747.15 174.54 L 750.80 169.53 L 754.45 168.90 L 758.10 173.67 L 761.75 172.42 L 765.40 171.58 L 769.05 177.20 L 772.70 175.18 L 776.35 180.60 L 780.00 180.18" class="path-4" />
<line x1="50" y1="133.4" x2="780" y2="133.4" stroke="#4b5563" stroke-width="0.8" stroke-dasharray="6 3" />
</svg>