<svg xmlns="http://www.w3.org/2000/svg" viewBox="0 0 800 300" width="800" height="300">
<style>
.axis-line { stroke: #6b7280; stroke-width: 0.5; }
.axis-text { font-family: monospace; font-size: 11px; fill: #9ca3af; }
.title-text { font-family: monospace; font-size: 14px; fill: #d1d5db; font-weight: bold; }
.grid-line { stroke: #374151; stroke-width: 0.3; stroke-dasharray: 4 2; }
.path-0 { fill: none; stroke: #3b82f6; stroke-width: 2; stroke-linecap: round; opacity: 0.85; animation: draw-0 3s ease-out 0.0s forwards; stroke-dasharray: 890; stroke-dashoffset: 890;}
@keyframes draw-0 { to { stroke-dashoffset: 0; }}
.path-1 { fill: none; stroke: #ef4444; stroke-width: 2; stroke-linecap: round; opacity: 0.85; animation: draw-1 3s ease-out 0.4s forwards; stroke-dasharray: 898; stroke-dashoffset: 898;}
@keyframes draw-1 { to { stroke-dashoffset: 0; }}
.path-2 { fill: none; stroke: #22c55e; stroke-width: 2; stroke-linecap: round; opacity: 0.85; animation: draw-2 3s ease-out 0.8s forwards; stroke-dasharray: 920; stroke-dashoffset: 920;}
@keyframes draw-2 { to { stroke-dashoffset: 0; }}
.path-3 { fill: none; stroke: #f59e0b; stroke-width: 2; stroke-linecap: round; opacity: 0.85; animation: draw-3 3s ease-out 1.2000000000000002s forwards; stroke-dasharray: 898; stroke-dashoffset: 898;}
@keyframes draw-3 { to { stroke-dashoffset: 0; }}
.path-4 { fill: none; stroke: #a855f7; stroke-width: 2; stroke-linecap: round; opacity: 0.85; animation: draw-4 3s ease-out 1.6s forwards; stroke-dasharray: 925; stroke-dashoffset: 925;}
@keyframes draw-4 { to { stroke-dashoffset: 0; }}
</style>
<rect width="800" height="300" rx="8" fill="#0d1117" />
<line x1="50" y1="260.0" x2="780" y2="260.0" class="grid-line" />
<text x="44" y="264.0" text-anchor="end" class="axis-text">-3.4</text>
<line x1="50" y1="216.0" x2="780" y2="216.0" class="grid-line" />
<text x="44" y="220.0" text-anchor="end" class="axis-text">-2.3</text>
<line x1="50" y1="172.0" x2="780" y2="172.0" class="grid-line" />
<text x="44" y="176.0" text-anchor="end" class="axis-text">-1.2</text>
<line x1="50" y1="128.0" x2="780" y2="128.0" class="grid-line" />
<text x="44" y="132.0" text-anchor="end" class="axis-text">-0.1</text>
<line x1="50" y1="84.0" x2="780" y2="84.0" class="grid-line" />
<text x="44" y="88.0" text-anchor="end" class="axis-text">1.0</text>
<line x1="50" y1="40.0" x2="780" y2="40.0" class="grid-line" />
<text x="44" y="44.0" text-anchor="end" class="axis-text">2.1</text>
<line x1="50.0" y1="40" x2="50.0" y2="260" class="grid-line" />
<line x1="196.0" y1="40" x2="196.0" y2="260" class="grid-line" />
<line x1="342.0" y1="40" x2="342.0" y2="260" class="grid-line" />
<line x1="488.0" y1="40" x2="488.0" y2="260" class="grid-line" />
<line x1="634.0" y1="40" x2="634.0" y2="260" class="grid-line" />
<line x1="780.0" y1="40" x2="780.0" y2="260" class="grid-line" />
<line x1="50" y1="260" x2="780" y2="260" class="axis-line" />
<line x1="50" y1="40" x2="50" y2="260" class="axis-line" />
<text x="400.0" y="295" text-anchor="middle" class="axis-text">t</text>
<text x="12" y="150.0" text-anchor="middle" class="axis-text" transform="rotate(-90 12 150.0)">W(t)</text>
<text x="400.0" y="22" text-anchor="middle" class="title-text">Brownian Motion</text>
<path d="M 50.00 123.67 L 53.65 124.00 L 57.30 124.37 L 60.95 126.67 L 64.60 122.58 L 68.25 122.71 L 71.90 122.92 L 75.55 124.36 L 79.20 122.99 L 82.85 121.96 L 86.50 125.18 L 90.15 120.09 L 93.80 114.27 L 97.45 117.45 L 101.10 116.84 L 104.75 115.40 L 108.40 115.43 L 112.05 116.12 L 115.70 113.86 L 119.35 116.29 L 123.00 113.33 L 126.65 114.03 L 130.30 113.43 L 133.95 109.07 L 137.60 112.67 L 141.25 112.05 L 144.90 113.96 L 148.55 115.37 L 152.20 117.47 L 155.85 121.38 L 159.50 122.67 L 163.15 122.57 L 166.80 121.42 L 170.45 121.48 L 174.10 119.40 L 177.75 117.81 L 181.40 121.48 L 185.05 125.06 L 188.70 129.52 L 192.35 127.20 L 196.00 129.33 L 199.65 126.84 L 203.30 130.22 L 206.95 131.67 L 210.60 134.01 L 214.25 133.89 L 217.90 133.90 L 221.55 128.68 L 225.20 125.76 L 228.85 124.38 L 232.50 124.20 L 236.15 125.57 L 239.80 125.57 L 243.45 127.56 L 247.10 127.78 L 250.75 128.46 L 254.40 129.08 L 258.05 131.51 L 261.70 127.92 L 265.35 132.74 L 269.00 131.77 L 272.65 132.91 L 276.30 132.55 L 279.95 134.72 L 283.60 132.67 L 287.25 129.46 L 290.90 128.85 L 294.55 133.30 L 298.20 134.00 L 301.85 133.64 L 305.50 135.73 L 309.15 140.39 L 312.80 137.30 L 316.45 137.90 L 320.10 135.34 L 323.75 136.15 L 327.40 131.99 L 331.05 132.21 L 334.70 137.89 L 338.35 140.84 L 342.00 140.50 L 345.65 142.54 L 349.30 143.24 L 352.95 142.48 L 356.60 144.68 L 360.25 143.37 L 363.90 145.30 L 367.55 142.33 L 371.20 140.12 L 374.85 141.67 L 378.50 140.69 L 382.15 142.92 L 385.80 136.35 L 389.45 137.07 L 393.10 136.18 L 396.75 136.73 L 400.40 133.39 L 404.05 138.96 L 407.70 139.46 L 411.35 139.20 L 415.00 139.68 L 418.65 141.65 L 422.30 145.61 L 425.95 143.91 L 429.60 142.14 L 433.25 142.61 L 436.90 142.16 L 440.55 137.93 L 444.20 133.17 L 447.85 137.57 L 451.50 133.91 L 455.15 135.96 L 458.80 136.18 L 462.45 137.15 L 466.10 139.63 L 469.75 140.96 L 473.40 144.41 L 477.05 146.77 L 480.70 146.98 L 484.35 149.55 L 488.00 152.25 L 491.65 152.67 L 495.30 154.19 L 498.95 155.15 L 502.60 153.22 L 506.25 153.22 L 509.90 159.21 L 513.55 160.72 L 517.20 159.19 L 520.85 154.72 L 524.50 155.27 L 528.15 157.32 L 531.80 159.00 L 535.45 160.05 L 539.10 160.97 L 542.75 159.25 L 546.40 161.50 L 550.05 162.92 L 553.70 159.18 L 557.35 158.35 L 561.00 162.21 L 564.65 162.30 L 568.30 164.31 L 571.95 163.53 L 575.60 164.26 L 579.25 163.02 L 582.90 164.01 L 586.55 167.96 L 590.20 169.44 L 593.85 170.73 L 597.50 167.69 L 601.15 169.49 L 604.80 169.91 L 608.45 176.29 L 612.10 180.02 L 615.75 180.60 L 619.40 180.87 L 623.05 181.13 L 626.70 182.17 L 630.35 177.23 L 634.00 181.16 L 637.65 176.03 L 641.30 177.87 L 644.95 179.09 L 648.60 175.49 L 652.25 177.02 L 655.90 178.15 L 659.55 178.33 L 663.20 175.94 L 666.85 179.71 L 670.50 179.14 L 674.15 178.97 L 677.80 177.08 L 681.45 182.97 L 685.10 182.28 L 688.75 189.23 L 692.40 186.61 L 696.05 185.94 L 699.70 184.42 L 703.35 181.69 L 707.00 185.24 L 710.65 185.83 L 714.30 183.46 L 717.95 183.90 L 721.60 186.80 L 725.25 186.07 L 728.90 185.94 L 732.55 187.94 L 736.20 192.33 L 739.85 194.28 L 743.50 197.44 L 747.15 196.81 L 750.80 197.68 L 754.45 193.56 L 758.10 193.38 L 761.75 197.54 L 765.40 193.70 L 769.05 197.75 L 772.70 195.16 L 776.35 197.55 L 780.00 192.15" class="path-0" />
<path d="M 50.00 123.67 L 53.65 119.75 L 57.30 121.64 L 60.95 123.98 L 64.60 127.72 L 68.25 123.37 L 71.90 127.60 L 75.55 124.81 L 79.20 120.27 L 82.85 115.96 L 86.50 111.29 L 90.15 110.22 L 93.80 111.21 L 97.45 111.50 L 101.10 108.10 L 104.75 106.21 L 108.40 100.29 L 112.05 98.26 L 115.70 99.78 L 119.35 99.05 L 123.00 90.30 L 126.65 91.47 L 130.30 91.71 L 133.95 93.32 L 137.60 95.03 L 141.25 98.88 L 144.90 97.49 L 148.55 98.06 L 152.20 101.58 L 155.85 103.98 L 159.50 104.46 L 163.15 105.76 L 166.80 104.17 L 170.45 107.39 L 174.10 108.81 L 177.75 108.69 L 181.40 110.23 L 185.05 109.41 L 188.70 113.66 L 192.35 113.39 L 196.00 112.76 L 199.65 116.04 L 203.30 115.48 L 206.95 114.99 L 210.60 116.35 L 214.25 113.45 L 217.90 112.20 L 221.55 114.16 L 225.20 110.72 L 228.85 111.52 L 232.50 108.15 L 236.15 110.49 L 239.80 108.69 L 243.45 114.25 L 247.10 113.86 L 250.75 115.83 L 254.40 114.00 L 258.05 122.32 L 261.70 120.24 L 265.35 123.75 L 269.00 121.59 L 272.65 120.75 L 276.30 120.35 L 279.95 120.80 L 283.60 123.19 L 287.25 120.19 L 290.90 120.60 L 294.55 120.62 L 298.20 118.83 L 301.85 114.47 L 305.50 114.93 L 309.15 115.81 L 312.80 108.30 L 316.45 108.89 L 320.10 108.05 L 323.75 108.71 L 327.40 108.40 L 331.05 113.39 L 334.70 110.00 L 338.35 107.13 L 342.00 104.91 L 345.65 101.16 L 349.30 98.94 L 352.95 96.63 L 356.60 94.82 L 360.25 91.47 L 363.90 92.30 L 367.55 93.14 L 371.20 91.71 L 374.85 88.48 L 378.50 87.76 L 382.15 86.96 L 385.80 83.17 L 389.45 86.37 L 393.10 81.84 L 396.75 80.72 L 400.40 78.98 L 404.05 74.76 L 407.70 76.81 L 411.35 74.92 L 415.00 73.07 L 418.65 72.71 L 422.30 75.60 L 425.95 78.01 L 429.60 77.97 L 433.25 75.71 L 436.90 77.98 L 440.55 76.60 L 444.20 69.30 L 447.85 70.31 L 451.50 75.12 L 455.15 74.50 L 458.80 70.99 L 462.45 70.64 L 466.10 69.84 L 469.75 72.22 L 473.40 76.15 L 477.05 78.02 L 480.70 75.99 L 484.35 73.40 L 488.00 73.94 L 491.65 73.95 L 495.30 73.03 L 498.95 70.63 L 502.60 71.75 L 506.25 73.43 L 509.90 75.02 L 513.55 76.37 L 517.20 76.71 L 520.85 75.47 L 524.50 77.09 L 528.15 77.58 L 531.80 80.53 L 535.45 78.58 L 539.10 81.41 L 542.75 79.04 L 546.40 74.30 L 550.05 74.92 L 553.70 74.75 L 557.35 72.52 L 561.00 75.72 L 564.65 75.97 L 568.30 69.64 L 571.95 70.81 L 575.60 72.12 L 579.25 72.01 L 582.90 74.23 L 586.55 76.68 L 590.20 77.96 L 593.85 76.38 L 597.50 71.28 L 601.15 65.38 L 604.80 68.30 L 608.45 71.90 L 612.10 74.10 L 615.75 73.03 L 619.40 73.30 L 623.05 72.76 L 626.70 72.25 L 630.35 71.43 L 634.00 68.81 L 637.65 73.42 L 641.30 73.03 L 644.95 77.99 L 648.60 77.53 L 652.25 79.26 L 655.90 81.89 L 659.55 80.42 L 663.20 77.88 L 666.85 79.66 L 670.50 81.63 L 674.15 87.41 L 677.80 80.71 L 681.45 79.97 L 685.10 78.03 L 688.75 78.33 L 692.40 80.20 L 696.05 80.52 L 699.70 81.52 L 703.35 86.91 L 707.00 84.17 L 710.65 84.35 L 714.30 81.27 L 717.95 78.80 L 721.60 75.78 L 725.25 73.98 L 728.90 74.15 L 732.55 76.58 L 736.20 77.90 L 739.85 76.01 L 743.50 80.31 L 747.15 82.58 L 750.80 82.34 L 754.45 82.72 L 758.10 80.30 L 761.75 80.22 L 765.40 82.03 L 769.05 82.67 L 772.70 83.04 L 776.35 83.99 L 780.00 84.17" class="path-1" />
<path d="M 50.00 123.67 L 53.65 123.78 L 57.30 122.99 L 60.95 121.97 L 64.60 120.27 L 68.25 123.08 L 71.90 122.16 L 75.55 116.92 L 79.20 111.94 L 82.85 110.11 L 86.50 110.98 L 90.15 111.99 L 93.80 116.50 L 97.45 116.89 L 101.10 118.01 L 104.75 124.16 L 108.40 123.19 L 112.05 122.47 L 115.70 121.69 L 119.35 115.75 L 123.00 117.34 L 126.65 118.62 L 130.30 119.43 L 133.95 116.84 L 137.60 121.35 L 141.25 120.32 L 144.90 123.57 L 148.55 124.90 L 152.20 131.08 L 155.85 131.60 L 159.50 132.91 L 163.15 134.66 L 166.80 135.11 L 170.45 138.21 L 174.10 135.53 L 177.75 133.19 L 181.40 132.61 L 185.05 133.66 L 188.70 133.46 L 192.35 135.51 L 196.00 137.12 L 199.65 135.19 L 203.30 136.13 L 206.95 135.51 L 210.60 138.77 L 214.25 133.24 L 217.90 133.86 L 221.55 133.46 L 225.20 135.20 L 228.85 136.81 L 232.50 134.47 L 236.15 134.78 L 239.80 132.78 L 243.45 134.37 L 247.10 136.14 L 250.75 135.58 L 254.40 134.13 L 258.05 136.62 L 261.70 130.18 L 265.35 130.27 L 269.00 133.02 L 272.65 135.41 L 276.30 133.00 L 279.95 129.81 L 283.60 130.34 L 287.25 131.97 L 290.90 134.02 L 294.55 134.62 L 298.20 132.17 L 301.85 129.43 L 305.50 131.16 L 309.15 135.33 L 312.80 136.14 L 316.45 133.23 L 320.10 129.12 L 323.75 123.53 L 327.40 124.65 L 331.05 120.70 L 334.70 119.36 L 338.35 128.84 L 342.00 132.19 L 345.65 130.16 L 349.30 129.44 L 352.95 127.72 L 356.60 125.69 L 360.25 124.78 L 363.90 122.07 L 367.55 119.77 L 371.20 113.66 L 374.85 115.42 L 378.50 118.45 L 382.15 120.21 L 385.80 117.24 L 389.45 112.97 L 393.10 112.81 L 396.75 114.67 L 400.40 115.39 L 404.05 113.12 L 407.70 114.33 L 411.35 117.45 L 415.00 119.07 L 418.65 116.38 L 422.30 114.00 L 425.95 112.74 L 429.60 117.29 L 433.25 119.29 L 436.90 118.89 L 440.55 122.54 L 444.20 125.61 L 447.85 126.64 L 451.50 129.61 L 455.15 124.68 L 458.80 127.31 L 462.45 128.17 L 466.10 130.18 L 469.75 128.02 L 473.40 128.82 L 477.05 121.60 L 480.70 121.25 L 484.35 120.26 L 488.00 119.19 L 491.65 115.69 L 495.30 111.60 L 498.95 111.59 L 502.60 112.57 L 506.25 112.40 L 509.90 108.26 L 513.55 113.90 L 517.20 116.38 L 520.85 118.40 L 524.50 121.18 L 528.15 122.78 L 531.80 120.07 L 535.45 116.80 L 539.10 114.74 L 542.75 115.29 L 546.40 118.38 L 550.05 121.05 L 553.70 124.09 L 557.35 127.45 L 561.00 129.75 L 564.65 133.93 L 568.30 133.32 L 571.95 137.42 L 575.60 136.93 L 579.25 140.84 L 582.90 136.50 L 586.55 136.58 L 590.20 132.56 L 593.85 129.12 L 597.50 128.67 L 601.15 127.99 L 604.80 125.42 L 608.45 126.54 L 612.10 127.49 L 615.75 126.97 L 619.40 121.84 L 623.05 122.92 L 626.70 123.80 L 630.35 126.52 L 634.00 127.79 L 637.65 131.69 L 641.30 136.04 L 644.95 138.13 L 648.60 141.13 L 652.25 149.43 L 655.90 147.85 L 659.55 145.54 L 663.20 144.23 L 666.85 148.53 L 670.50 145.85 L 674.15 143.05 L 677.80 142.73 L 681.45 142.22 L 685.10 145.61 L 688.75 147.32 L 692.40 150.85 L 696.05 146.42 L 699.70 146.25 L 703.35 143.50 L 707.00 143.63 L 710.65 146.03 L 714.30 144.19 L 717.95 144.88 L 721.60 145.36 L 725.25 149.65 L 728.90 147.99 L 732.55 150.09 L 736.20 144.62 L 739.85 139.89 L 743.50 133.70 L 747.15 127.54 L 750.80 124.97 L 754.45 122.87 L 758.10 122.06 L 761.75 118.36 L 765.40 117.79 L 769.05 114.10 L 772.70 114.55 L 776.35 120.53 L 780.00 118.81" class="path-2" />
<path d="M 50.00 123.67 L 53.65 121.25 L 57.30 119.20 L 60.95 117.19 L 64.60 118.15 L 68.25 114.78 L 71.90 115.07 L 75.55 112.99 L 79.20 109.64 L 82.85 109.15 L 86.50 108.54 L 90.15 110.94 L 93.80 111.60 L 97.45 107.34 L 101.10 108.93 L 104.75 111.83 L 108.40 110.96 L 112.05 110.45 L 115.70 113.28 L 119.35 113.99 L 123.00 111.91 L 126.65 107.28 L 130.30 103.09 L 133.95 102.81 L 137.60 102.27 L 141.25 102.35 L 144.90 103.42 L 148.55 98.49 L 152.20 101.07 L 155.85 103.13 L 159.50 103.59 L 163.15 105.79 L 166.80 106.02 L 170.45 104.70 L 174.10 104.98 L 177.75 106.01 L 181.40 101.13 L 185.05 105.00 L 188.70 107.21 L 192.35 108.23 L 196.00 108.23 L 199.65 105.72 L 203.30 107.63 L 206.95 108.60 L 210.60 113.07 L 214.25 113.71 L 217.90 117.27 L 221.55 115.26 L 225.20 113.66 L 228.85 113.03 L 232.50 112.96 L 236.15 111.60 L 239.80 112.91 L 243.45 117.27 L 247.10 115.80 L 250.75 120.01 L 254.40 124.27 L 258.05 127.26 L 261.70 125.87 L 265.35 124.38 L 269.00 126.86 L 272.65 125.65 L 276.30 123.76 L 279.95 125.63 L 283.60 125.29 L 287.25 124.84 L 290.90 126.07 L 294.55 125.34 L 298.20 128.85 L 301.85 128.52 L 305.50 132.95 L 309.15 128.82 L 312.80 127.39 L 316.45 123.85 L 320.10 124.86 L 323.75 124.09 L 327.40 121.21 L 331.05 118.43 L 334.70 119.17 L 338.35 123.82 L 342.00 127.41 L 345.65 125.79 L 349.30 128.42 L 352.95 128.37 L 356.60 125.77 L 360.25 124.86 L 363.90 124.22 L 367.55 124.59 L 371.20 124.27 L 374.85 124.88 L 378.50 128.24 L 382.15 125.44 L 385.80 120.34 L 389.45 120.74 L 393.10 119.92 L 396.75 126.31 L 400.40 123.91 L 404.05 129.37 L 407.70 129.23 L 411.35 126.48 L 415.00 128.13 L 418.65 128.47 L 422.30 132.19 L 425.95 132.71 L 429.60 135.39 L 433.25 136.05 L 436.90 135.44 L 440.55 143.53 L 444.20 144.60 L 447.85 148.45 L 451.50 151.16 L 455.15 152.74 L 458.80 159.94 L 462.45 165.35 L 466.10 170.81 L 469.75 169.84 L 473.40 168.09 L 477.05 165.79 L 480.70 172.14 L 484.35 172.95 L 488.00 169.52 L 491.65 169.37 L 495.30 164.69 L 498.95 159.84 L 502.60 165.01 L 506.25 163.15 L 509.90 164.54 L 513.55 166.47 L 517.20 166.04 L 520.85 167.40 L 524.50 169.93 L 528.15 164.81 L 531.80 161.54 L 535.45 158.61 L 539.10 163.47 L 542.75 162.29 L 546.40 162.75 L 550.05 163.90 L 553.70 162.09 L 557.35 161.31 L 561.00 157.95 L 564.65 158.92 L 568.30 158.24 L 571.95 156.20 L 575.60 160.64 L 579.25 157.32 L 582.90 156.49 L 586.55 157.92 L 590.20 161.68 L 593.85 161.56 L 597.50 160.54 L 601.15 163.68 L 604.80 163.59 L 608.45 163.89 L 612.10 162.25 L 615.75 160.48 L 619.40 163.31 L 623.05 161.53 L 626.70 160.81 L 630.35 161.42 L 634.00 170.39 L 637.65 170.15 L 641.30 167.72 L 644.95 166.35 L 648.60 167.64 L 652.25 167.07 L 655.90 165.07 L 659.55 166.92 L 663.20 166.07 L 666.85 169.39 L 670.50 166.18 L 674.15 164.44 L 677.80 167.86 L 681.45 166.81 L 685.10 165.87 L 688.75 167.26 L 692.40 166.89 L 696.05 168.36 L 699.70 169.14 L 703.35 164.88 L 707.00 166.66 L 710.65 163.60 L 714.30 159.27 L 717.95 156.51 L 721.60 156.72 L 725.25 153.23 L 728.90 151.67 L 732.55 151.46 L 736.20 150.72 L 739.85 148.14 L 743.50 147.50 L 747.15 147.53 L 750.80 150.36 L 754.45 150.81 L 758.10 147.91 L 761.75 146.03 L 765.40 148.94 L 769.05 151.37 L 772.70 149.99 L 776.35 145.39 L 780.00 150.50" class="path-3" />
<path d="M 50.00 123.67 L 53.65 120.54 L 57.30 119.01 L 60.95 122.09 L 64.60 118.64 L 68.25 116.63 L 71.90 115.71 L 75.55 115.63 L 79.20 114.32 L 82.85 116.74 L 86.50 123.38 L 90.15 130.77 L 93.80 132.22 L 97.45 130.76 L 101.10 131.55 L 104.75 135.38 L 108.40 134.04 L 112.05 127.45 L 115.70 124.73 L 119.35 128.89 L 123.00 128.55 L 126.65 131.78 L 130.30 134.18 L 133.95 136.32 L 137.60 138.50 L 141.25 139.11 L 144.90 145.71 L 148.55 147.84 L 152.20 147.81 L 155.85 146.23 L 159.50 146.56 L 163.15 147.53 L 166.80 149.97 L 170.45 151.02 L 174.10 147.13 L 177.75 147.49 L 181.40 144.21 L 185.05 141.72 L 188.70 143.60 L 192.35 139.98 L 196.00 146.11 L 199.65 149.83 L 203.30 155.60 L 206.95 159.54 L 210.60 165.84 L 214.25 166.83 L 217.90 165.37 L 221.55 167.28 L 225.20 166.40 L 228.85 167.43 L 232.50 164.68 L 236.15 164.39 L 239.80 164.76 L 243.45 164.94 L 247.10 166.69 L 250.75 168.66 L 254.40 169.36 L 258.05 163.80 L 261.70 164.41 L 265.35 167.21 L 269.00 167.43 L 272.65 161.61 L 276.30 161.70 L 279.95 157.60 L 283.60 157.67 L 287.25 156.83 L 290.90 157.75 L 294.55 154.63 L 298.20 154.03 L 301.85 155.60 L 305.50 153.59 L 309.15 149.96 L 312.80 156.29 L 316.45 157.50 L 320.10 153.56 L 323.75 158.78 L 327.40 158.94 L 331.05 163.69 L 334.70 162.65 L 338.35 166.28 L 342.00 162.90 L 345.65 163.67 L 349.30 165.16 L 352.95 165.62 L 356.60 166.85 L 360.25 165.86 L 363.90 165.95 L 367.55 166.10 L 371.20 166.70 L 374.85 163.48 L 378.50 168.94 L 382.15 167.55 L 385.80 169.24 L 389.45 171.72 L 393.10 171.62 L 396.75 173.06 L 400.40 171.45 L 404.05 168.81 L 407.70 173.85 L 411.35 175.54 L 415.00 175.70 L 418.65 178.18 L 422.30 180.59 L 425.95 181.32 L 429.60 178.24 L 433.25 179.68 L 436.90 182.69 L 440.55 178.93 L 444.20 176.50 L 447.85 172.80 L 451.50 171.45 L 455.15 172.66 L 458.80 173.91 L 462.45 176.95 L 466.10 180.86 L 469.75 179.49 L 473.40 178.89 L 477.05 178.52 L 480.70 182.86 L 484.35 188.12 L 488.00 193.43 L 491.65 193.10 L 495.30 191.89 L 498.95 196.76 L 502.60 199.53 L 506.25 199.55 L 509.90 202.03 L 513.55 200.37 L 517.20 202.55 L 520.85 205.31 L 524.50 211.43 L 528.15 211.27 L 531.80 217.30 L 535.45 215.14 L 539.10 213.20 L 542.75 216.21 L 546.40 212.25 L 550.05 209.98 L 553.70 207.11 L 557.35 206.50 L 561.00 202.13 L 564.65 206.27 L 568.30 211.21 L 571.95 207.28 L 575.60 209.67 L 579.25 210.19 L 582.90 209.87 L 586.55 218.80 L 590.20 221.39 L 593.85 218.47 L 597.50 225.40 L 601.15 229.49 L 604.80 223.61 L 608.45 221.62 L 612.10 227.39 L 615.75 225.18 L 619.40 223.47 L 623.05 225.63 L 626.70 223.54 L 630.35 226.02 L 634.00 220.44 L 637.65 216.91 L 641.30 219.83 L 644.95 220.18 L 648.60 222.42 L 652.25 222.60 L 655.90 219.38 L 659.55 219.73 L 663.20 219.03 L 666.85 219.78 L 670.50 220.24 L 674.15 219.35 L 677.80 219.98 L 681.45 217.88 L 685.10 218.61 L 688.75 219.47 L 692.40 218.74 L 696.05 221.13 L 699.70 219.09 L 703.35 215.65 L 707.00 217.55 L 710.65 217.18 L 714.30 215.14 L 717.95 217.34 L 721.60 218.47 L 725.25 221.76 L 728.90 220.51 L 732.55 223.46 L 736.20 224.08 L 739.85 229.10 L 743.50 231.41 L 747.15 232.53 L 750.80 234.13 L 754.45 234.62 L 758.10 233.12 L 761.75 229.36 L 765.40 224.89 L 769.05 225.21 L 772.70 224.87 L 776.35 223.58 L 780.00 224.34" class="path-4" />
<line x1="50" y1="123.7" x2="780" y2="123.7" stroke="#4b5563" stroke-width="0.8" stroke-dasharray="6 3" />
</svg>