<svg xmlns="http://www.w3.org/2000/svg" viewBox="0 0 800 300" width="800" height="300">
<style>
.axis-line { stroke: #6b7280; stroke-width: 0.5; }
.axis-text { font-family: monospace; font-size: 11px; fill: #9ca3af; }
.title-text { font-family: monospace; font-size: 14px; fill: #d1d5db; font-weight: bold; }
.grid-line { stroke: #374151; stroke-width: 0.3; stroke-dasharray: 4 2; }
.path-0 { fill: none; stroke: #3b82f6; stroke-width: 2; stroke-linecap: round; opacity: 0.85; animation: draw-0 8s ease-in-out 0.0s infinite; stroke-dasharray: 1059; stroke-dashoffset: 1059;}
@keyframes draw-0 { 0% { stroke-dashoffset: 1059; } 38% { stroke-dashoffset: 0; } 62% { stroke-dashoffset: 0; } 100% { stroke-dashoffset: 1059; }}
.path-1 { fill: none; stroke: #ef4444; stroke-width: 2; stroke-linecap: round; opacity: 0.85; animation: draw-1 8s ease-in-out 0.4s infinite; stroke-dasharray: 1091; stroke-dashoffset: 1091;}
@keyframes draw-1 { 0% { stroke-dashoffset: 1091; } 38% { stroke-dashoffset: 0; } 62% { stroke-dashoffset: 0; } 100% { stroke-dashoffset: 1091; }}
.path-2 { fill: none; stroke: #22c55e; stroke-width: 2; stroke-linecap: round; opacity: 0.85; animation: draw-2 8s ease-in-out 0.8s infinite; stroke-dasharray: 1096; stroke-dashoffset: 1096;}
@keyframes draw-2 { 0% { stroke-dashoffset: 1096; } 38% { stroke-dashoffset: 0; } 62% { stroke-dashoffset: 0; } 100% { stroke-dashoffset: 1096; }}
.path-3 { fill: none; stroke: #f59e0b; stroke-width: 2; stroke-linecap: round; opacity: 0.85; animation: draw-3 8s ease-in-out 1.2000000000000002s infinite; stroke-dasharray: 1077; stroke-dashoffset: 1077;}
@keyframes draw-3 { 0% { stroke-dashoffset: 1077; } 38% { stroke-dashoffset: 0; } 62% { stroke-dashoffset: 0; } 100% { stroke-dashoffset: 1077; }}
.path-4 { fill: none; stroke: #a855f7; stroke-width: 2; stroke-linecap: round; opacity: 0.85; animation: draw-4 8s ease-in-out 1.6s infinite; stroke-dasharray: 1066; stroke-dashoffset: 1066;}
@keyframes draw-4 { 0% { stroke-dashoffset: 1066; } 38% { stroke-dashoffset: 0; } 62% { stroke-dashoffset: 0; } 100% { stroke-dashoffset: 1066; }}
</style>
<rect width="800" height="300" rx="8" fill="#0d1117" />
<line x1="50" y1="260.0" x2="780" y2="260.0" class="grid-line" />
<text x="44" y="264.0" text-anchor="end" class="axis-text">-2.4</text>
<line x1="50" y1="216.0" x2="780" y2="216.0" class="grid-line" />
<text x="44" y="220.0" text-anchor="end" class="axis-text">-1.6</text>
<line x1="50" y1="172.0" x2="780" y2="172.0" class="grid-line" />
<text x="44" y="176.0" text-anchor="end" class="axis-text">-0.9</text>
<line x1="50" y1="128.0" x2="780" y2="128.0" class="grid-line" />
<text x="44" y="132.0" text-anchor="end" class="axis-text">-0.1</text>
<line x1="50" y1="84.0" x2="780" y2="84.0" class="grid-line" />
<text x="44" y="88.0" text-anchor="end" class="axis-text">0.6</text>
<line x1="50" y1="40.0" x2="780" y2="40.0" class="grid-line" />
<text x="44" y="44.0" text-anchor="end" class="axis-text">1.3</text>
<line x1="50.0" y1="40" x2="50.0" y2="260" class="grid-line" />
<line x1="196.0" y1="40" x2="196.0" y2="260" class="grid-line" />
<line x1="342.0" y1="40" x2="342.0" y2="260" class="grid-line" />
<line x1="488.0" y1="40" x2="488.0" y2="260" class="grid-line" />
<line x1="634.0" y1="40" x2="634.0" y2="260" class="grid-line" />
<line x1="780.0" y1="40" x2="780.0" y2="260" class="grid-line" />
<line x1="50" y1="260" x2="780" y2="260" class="axis-line" />
<line x1="50" y1="40" x2="50" y2="260" class="axis-line" />
<text x="400.0" y="295" text-anchor="middle" class="axis-text">t</text>
<text x="12" y="150.0" text-anchor="middle" class="axis-text" transform="rotate(-90 12 150.0)">W(t)</text>
<text x="400.0" y="22" text-anchor="middle" class="title-text">Brownian Motion</text>
<path d="M 50.00 119.85 L 53.65 116.16 L 57.30 116.14 L 60.95 124.20 L 64.60 119.03 L 68.25 121.20 L 71.90 125.96 L 75.55 128.58 L 79.20 126.83 L 82.85 128.95 L 86.50 128.23 L 90.15 124.32 L 93.80 118.73 L 97.45 112.78 L 101.10 112.44 L 104.75 108.39 L 108.40 108.25 L 112.05 112.41 L 115.70 112.41 L 119.35 110.09 L 123.00 109.33 L 126.65 105.21 L 130.30 98.02 L 133.95 92.64 L 137.60 97.96 L 141.25 100.20 L 144.90 98.74 L 148.55 103.03 L 152.20 105.74 L 155.85 104.09 L 159.50 105.16 L 163.15 109.40 L 166.80 102.87 L 170.45 99.33 L 174.10 99.74 L 177.75 97.89 L 181.40 102.86 L 185.05 95.39 L 188.70 97.63 L 192.35 100.21 L 196.00 99.70 L 199.65 94.05 L 203.30 92.15 L 206.95 96.93 L 210.60 94.33 L 214.25 95.19 L 217.90 97.27 L 221.55 93.09 L 225.20 102.00 L 228.85 93.56 L 232.50 97.34 L 236.15 92.75 L 239.80 95.01 L 243.45 94.09 L 247.10 88.27 L 250.75 91.53 L 254.40 86.57 L 258.05 84.99 L 261.70 82.67 L 265.35 79.15 L 269.00 83.76 L 272.65 85.44 L 276.30 86.81 L 279.95 81.63 L 283.60 81.90 L 287.25 79.30 L 290.90 77.86 L 294.55 75.94 L 298.20 78.91 L 301.85 84.97 L 305.50 88.95 L 309.15 93.06 L 312.80 95.65 L 316.45 95.19 L 320.10 88.12 L 323.75 86.71 L 327.40 87.85 L 331.05 90.36 L 334.70 90.82 L 338.35 90.12 L 342.00 82.50 L 345.65 85.79 L 349.30 86.61 L 352.95 89.89 L 356.60 92.72 L 360.25 88.54 L 363.90 87.03 L 367.55 81.67 L 371.20 90.70 L 374.85 90.80 L 378.50 89.43 L 382.15 92.36 L 385.80 94.14 L 389.45 96.40 L 393.10 93.26 L 396.75 99.77 L 400.40 100.70 L 404.05 107.74 L 407.70 105.10 L 411.35 94.86 L 415.00 100.46 L 418.65 96.85 L 422.30 98.02 L 425.95 100.27 L 429.60 97.44 L 433.25 93.91 L 436.90 98.31 L 440.55 91.93 L 444.20 90.21 L 447.85 85.92 L 451.50 97.29 L 455.15 93.28 L 458.80 92.37 L 462.45 99.66 L 466.10 99.37 L 469.75 91.88 L 473.40 89.33 L 477.05 84.57 L 480.70 80.23 L 484.35 84.55 L 488.00 86.00 L 491.65 87.19 L 495.30 80.44 L 498.95 81.17 L 502.60 76.91 L 506.25 81.58 L 509.90 78.27 L 513.55 78.50 L 517.20 82.57 L 520.85 77.12 L 524.50 76.02 L 528.15 70.61 L 531.80 71.41 L 535.45 73.28 L 539.10 77.52 L 542.75 79.74 L 546.40 82.09 L 550.05 83.83 L 553.70 81.39 L 557.35 80.92 L 561.00 87.36 L 564.65 83.81 L 568.30 85.57 L 571.95 82.64 L 575.60 85.25 L 579.25 85.64 L 582.90 79.10 L 586.55 80.79 L 590.20 81.20 L 593.85 76.97 L 597.50 76.00 L 601.15 84.12 L 604.80 86.45 L 608.45 86.96 L 612.10 79.02 L 615.75 82.12 L 619.40 79.27 L 623.05 75.88 L 626.70 73.52 L 630.35 68.40 L 634.00 68.22 L 637.65 73.61 L 641.30 70.41 L 644.95 70.62 L 648.60 68.21 L 652.25 69.26 L 655.90 77.89 L 659.55 82.44 L 663.20 80.81 L 666.85 84.22 L 670.50 79.78 L 674.15 83.56 L 677.80 85.46 L 681.45 93.74 L 685.10 97.40 L 688.75 89.33 L 692.40 87.42 L 696.05 87.83 L 699.70 83.39 L 703.35 87.05 L 707.00 88.50 L 710.65 86.21 L 714.30 81.16 L 717.95 79.29 L 721.60 80.00 L 725.25 75.87 L 728.90 73.49 L 732.55 72.59 L 736.20 73.46 L 739.85 76.10 L 743.50 77.93 L 747.15 83.43 L 750.80 77.60 L 754.45 73.55 L 758.10 82.76 L 761.75 84.00 L 765.40 92.12 L 769.05 95.54 L 772.70 97.01 L 776.35 95.65 L 780.00 90.66" class="path-0" />
<path d="M 50.00 119.85 L 53.65 127.55 L 57.30 123.43 L 60.95 131.18 L 64.60 133.69 L 68.25 133.50 L 71.90 135.94 L 75.55 133.40 L 79.20 135.08 L 82.85 133.75 L 86.50 129.93 L 90.15 123.11 L 93.80 126.02 L 97.45 123.62 L 101.10 127.47 L 104.75 132.96 L 108.40 132.99 L 112.05 137.25 L 115.70 137.24 L 119.35 138.75 L 123.00 144.12 L 126.65 139.22 L 130.30 138.45 L 133.95 134.53 L 137.60 138.81 L 141.25 132.47 L 144.90 137.45 L 148.55 137.28 L 152.20 134.74 L 155.85 128.83 L 159.50 128.16 L 163.15 125.76 L 166.80 125.89 L 170.45 130.09 L 174.10 125.04 L 177.75 118.41 L 181.40 113.92 L 185.05 116.07 L 188.70 119.79 L 192.35 123.37 L 196.00 118.85 L 199.65 127.27 L 203.30 126.03 L 206.95 125.88 L 210.60 130.76 L 214.25 134.05 L 217.90 132.61 L 221.55 135.97 L 225.20 137.01 L 228.85 133.16 L 232.50 132.82 L 236.15 132.80 L 239.80 128.20 L 243.45 124.48 L 247.10 121.11 L 250.75 118.54 L 254.40 127.22 L 258.05 128.46 L 261.70 125.49 L 265.35 118.80 L 269.00 116.71 L 272.65 122.47 L 276.30 137.45 L 279.95 141.96 L 283.60 148.68 L 287.25 141.17 L 290.90 140.26 L 294.55 138.59 L 298.20 147.61 L 301.85 152.38 L 305.50 148.06 L 309.15 150.89 L 312.80 149.05 L 316.45 146.07 L 320.10 139.37 L 323.75 134.76 L 327.40 126.70 L 331.05 121.46 L 334.70 125.72 L 338.35 122.61 L 342.00 120.14 L 345.65 121.26 L 349.30 120.53 L 352.95 123.89 L 356.60 136.22 L 360.25 138.22 L 363.90 143.16 L 367.55 147.21 L 371.20 151.33 L 374.85 147.41 L 378.50 142.47 L 382.15 143.44 L 385.80 138.80 L 389.45 135.57 L 393.10 139.03 L 396.75 142.66 L 400.40 146.06 L 404.05 137.15 L 407.70 134.86 L 411.35 125.51 L 415.00 127.24 L 418.65 128.24 L 422.30 122.44 L 425.95 120.94 L 429.60 117.68 L 433.25 112.52 L 436.90 109.49 L 440.55 112.12 L 444.20 115.65 L 447.85 118.82 L 451.50 108.04 L 455.15 109.90 L 458.80 112.77 L 462.45 116.00 L 466.10 114.81 L 469.75 117.36 L 473.40 120.10 L 477.05 121.69 L 480.70 125.60 L 484.35 122.64 L 488.00 120.96 L 491.65 129.85 L 495.30 127.15 L 498.95 126.80 L 502.60 124.11 L 506.25 124.98 L 509.90 123.16 L 513.55 120.70 L 517.20 122.00 L 520.85 123.96 L 524.50 120.50 L 528.15 127.21 L 531.80 129.75 L 535.45 133.45 L 539.10 135.28 L 542.75 136.72 L 546.40 135.52 L 550.05 135.03 L 553.70 136.62 L 557.35 132.89 L 561.00 130.82 L 564.65 126.98 L 568.30 122.52 L 571.95 120.63 L 575.60 124.65 L 579.25 132.46 L 582.90 125.00 L 586.55 116.44 L 590.20 120.57 L 593.85 124.70 L 597.50 121.34 L 601.15 121.67 L 604.80 123.84 L 608.45 121.49 L 612.10 124.15 L 615.75 121.90 L 619.40 119.20 L 623.05 119.90 L 626.70 116.69 L 630.35 114.43 L 634.00 123.26 L 637.65 115.44 L 641.30 110.56 L 644.95 105.18 L 648.60 104.80 L 652.25 109.05 L 655.90 108.03 L 659.55 112.95 L 663.20 108.39 L 666.85 110.85 L 670.50 119.39 L 674.15 114.50 L 677.80 117.16 L 681.45 112.97 L 685.10 110.69 L 688.75 110.15 L 692.40 109.68 L 696.05 117.66 L 699.70 122.22 L 703.35 121.41 L 707.00 117.74 L 710.65 120.78 L 714.30 120.15 L 717.95 115.93 L 721.60 116.95 L 725.25 116.29 L 728.90 120.04 L 732.55 120.87 L 736.20 116.76 L 739.85 126.55 L 743.50 131.68 L 747.15 127.98 L 750.80 129.54 L 754.45 127.88 L 758.10 132.44 L 761.75 134.23 L 765.40 135.58 L 769.05 130.26 L 772.70 125.59 L 776.35 120.02 L 780.00 123.21" class="path-1" />
<path d="M 50.00 119.85 L 53.65 116.95 L 57.30 111.98 L 60.95 107.78 L 64.60 108.33 L 68.25 101.57 L 71.90 102.65 L 75.55 98.35 L 79.20 93.15 L 82.85 94.44 L 86.50 91.00 L 90.15 89.71 L 93.80 93.19 L 97.45 92.90 L 101.10 90.60 L 104.75 85.16 L 108.40 86.49 L 112.05 84.73 L 115.70 87.36 L 119.35 93.38 L 123.00 88.43 L 126.65 89.43 L 130.30 84.81 L 133.95 82.03 L 137.60 80.63 L 141.25 85.84 L 144.90 83.10 L 148.55 88.17 L 152.20 85.23 L 155.85 89.93 L 159.50 97.42 L 163.15 89.88 L 166.80 84.06 L 170.45 82.91 L 174.10 90.10 L 177.75 91.40 L 181.40 99.74 L 185.05 104.41 L 188.70 105.16 L 192.35 99.19 L 196.00 104.87 L 199.65 105.90 L 203.30 107.56 L 206.95 103.46 L 210.60 93.06 L 214.25 97.00 L 217.90 93.86 L 221.55 99.92 L 225.20 97.52 L 228.85 94.16 L 232.50 90.57 L 236.15 91.66 L 239.80 97.81 L 243.45 101.44 L 247.10 110.59 L 250.75 109.32 L 254.40 104.23 L 258.05 97.30 L 261.70 97.45 L 265.35 102.56 L 269.00 101.73 L 272.65 103.47 L 276.30 106.29 L 279.95 106.96 L 283.60 104.51 L 287.25 100.77 L 290.90 107.35 L 294.55 108.15 L 298.20 108.51 L 301.85 114.91 L 305.50 116.20 L 309.15 119.13 L 312.80 118.53 L 316.45 121.52 L 320.10 119.86 L 323.75 123.99 L 327.40 123.81 L 331.05 122.35 L 334.70 123.91 L 338.35 125.05 L 342.00 127.38 L 345.65 124.46 L 349.30 116.10 L 352.95 114.21 L 356.60 114.22 L 360.25 112.86 L 363.90 121.49 L 367.55 117.66 L 371.20 119.79 L 374.85 118.57 L 378.50 116.56 L 382.15 117.13 L 385.80 111.16 L 389.45 108.77 L 393.10 118.31 L 396.75 122.81 L 400.40 121.74 L 404.05 117.73 L 407.70 121.91 L 411.35 125.05 L 415.00 126.43 L 418.65 133.65 L 422.30 131.34 L 425.95 135.81 L 429.60 131.59 L 433.25 128.91 L 436.90 124.67 L 440.55 119.11 L 444.20 122.22 L 447.85 127.00 L 451.50 135.12 L 455.15 131.32 L 458.80 134.55 L 462.45 133.48 L 466.10 130.87 L 469.75 128.74 L 473.40 131.57 L 477.05 123.78 L 480.70 119.74 L 484.35 121.09 L 488.00 124.62 L 491.65 125.61 L 495.30 137.45 L 498.95 136.83 L 502.60 135.80 L 506.25 131.28 L 509.90 136.42 L 513.55 136.38 L 517.20 142.29 L 520.85 146.82 L 524.50 156.99 L 528.15 157.70 L 531.80 154.09 L 535.45 155.68 L 539.10 148.35 L 542.75 153.95 L 546.40 156.06 L 550.05 153.80 L 553.70 149.90 L 557.35 149.57 L 561.00 147.68 L 564.65 142.51 L 568.30 144.03 L 571.95 140.02 L 575.60 133.69 L 579.25 132.25 L 582.90 124.22 L 586.55 128.79 L 590.20 129.70 L 593.85 136.07 L 597.50 131.54 L 601.15 131.52 L 604.80 134.98 L 608.45 134.89 L 612.10 135.59 L 615.75 134.79 L 619.40 136.92 L 623.05 134.19 L 626.70 134.00 L 630.35 132.14 L 634.00 135.12 L 637.65 145.69 L 641.30 146.77 L 644.95 149.32 L 648.60 139.13 L 652.25 136.80 L 655.90 129.82 L 659.55 133.42 L 663.20 132.28 L 666.85 132.00 L 670.50 127.90 L 674.15 121.64 L 677.80 125.74 L 681.45 123.91 L 685.10 128.70 L 688.75 128.11 L 692.40 130.38 L 696.05 127.89 L 699.70 127.00 L 703.35 122.65 L 707.00 118.07 L 710.65 114.41 L 714.30 117.01 L 717.95 120.24 L 721.60 120.80 L 725.25 114.97 L 728.90 126.04 L 732.55 138.30 L 736.20 132.78 L 739.85 126.57 L 743.50 131.05 L 747.15 128.38 L 750.80 129.67 L 754.45 128.27 L 758.10 125.62 L 761.75 128.33 L 765.40 132.77 L 769.05 139.15 L 772.70 141.13 L 776.35 135.83 L 780.00 143.32" class="path-2" />
<path d="M 50.00 119.85 L 53.65 109.36 L 57.30 104.78 L 60.95 108.46 L 64.60 104.35 L 68.25 111.33 L 71.90 108.64 L 75.55 108.98 L 79.20 109.34 L 82.85 108.24 L 86.50 104.09 L 90.15 102.88 L 93.80 100.41 L 97.45 107.06 L 101.10 102.81 L 104.75 96.62 L 108.40 95.01 L 112.05 100.05 L 115.70 96.64 L 119.35 94.53 L 123.00 91.88 L 126.65 93.55 L 130.30 98.42 L 133.95 101.78 L 137.60 99.33 L 141.25 97.35 L 144.90 97.55 L 148.55 91.28 L 152.20 96.53 L 155.85 91.81 L 159.50 94.84 L 163.15 98.29 L 166.80 107.18 L 170.45 102.86 L 174.10 100.54 L 177.75 101.96 L 181.40 102.89 L 185.05 111.88 L 188.70 117.03 L 192.35 111.03 L 196.00 110.01 L 199.65 109.35 L 203.30 115.06 L 206.95 110.56 L 210.60 102.36 L 214.25 96.17 L 217.90 94.17 L 221.55 86.50 L 225.20 82.55 L 228.85 80.40 L 232.50 77.88 L 236.15 80.84 L 239.80 83.20 L 243.45 84.25 L 247.10 80.13 L 250.75 71.86 L 254.40 70.65 L 258.05 65.38 L 261.70 68.23 L 265.35 68.21 L 269.00 66.68 L 272.65 69.26 L 276.30 72.57 L 279.95 70.09 L 283.60 71.12 L 287.25 84.04 L 290.90 77.94 L 294.55 72.73 L 298.20 69.72 L 301.85 68.99 L 305.50 69.85 L 309.15 76.18 L 312.80 80.59 L 316.45 71.48 L 320.10 82.44 L 323.75 88.65 L 327.40 88.62 L 331.05 95.88 L 334.70 104.11 L 338.35 105.61 L 342.00 101.00 L 345.65 100.20 L 349.30 89.54 L 352.95 94.31 L 356.60 95.21 L 360.25 98.11 L 363.90 96.84 L 367.55 96.46 L 371.20 92.13 L 374.85 87.67 L 378.50 92.57 L 382.15 87.21 L 385.80 83.67 L 389.45 81.91 L 393.10 83.73 L 396.75 79.09 L 400.40 81.92 L 404.05 81.45 L 407.70 83.32 L 411.35 86.11 L 415.00 81.25 L 418.65 76.94 L 422.30 79.43 L 425.95 80.73 L 429.60 81.67 L 433.25 86.08 L 436.90 92.80 L 440.55 104.02 L 444.20 108.54 L 447.85 108.30 L 451.50 107.75 L 455.15 115.40 L 458.80 117.93 L 462.45 117.31 L 466.10 119.22 L 469.75 122.89 L 473.40 122.91 L 477.05 121.26 L 480.70 119.67 L 484.35 115.65 L 488.00 120.04 L 491.65 116.25 L 495.30 116.92 L 498.95 116.66 L 502.60 115.91 L 506.25 112.33 L 509.90 121.03 L 513.55 118.50 L 517.20 116.54 L 520.85 118.85 L 524.50 116.86 L 528.15 114.49 L 531.80 117.80 L 535.45 115.60 L 539.10 119.09 L 542.75 115.86 L 546.40 115.22 L 550.05 113.51 L 553.70 112.40 L 557.35 117.92 L 561.00 118.09 L 564.65 114.62 L 568.30 113.07 L 571.95 115.75 L 575.60 117.51 L 579.25 119.77 L 582.90 118.82 L 586.55 113.79 L 590.20 120.47 L 593.85 125.56 L 597.50 124.49 L 601.15 125.71 L 604.80 127.01 L 608.45 127.64 L 612.10 124.31 L 615.75 127.87 L 619.40 128.18 L 623.05 135.63 L 626.70 133.76 L 630.35 132.73 L 634.00 135.26 L 637.65 142.42 L 641.30 152.47 L 644.95 147.74 L 648.60 146.36 L 652.25 148.25 L 655.90 153.39 L 659.55 160.18 L 663.20 157.36 L 666.85 160.00 L 670.50 154.93 L 674.15 160.92 L 677.80 163.71 L 681.45 164.74 L 685.10 166.13 L 688.75 164.97 L 692.40 160.62 L 696.05 161.87 L 699.70 157.48 L 703.35 162.66 L 707.00 164.75 L 710.65 169.81 L 714.30 170.19 L 717.95 171.79 L 721.60 171.64 L 725.25 163.26 L 728.90 153.54 L 732.55 152.20 L 736.20 152.98 L 739.85 150.02 L 743.50 150.07 L 747.15 152.43 L 750.80 153.03 L 754.45 157.59 L 758.10 160.12 L 761.75 157.69 L 765.40 152.50 L 769.05 148.19 L 772.70 146.71 L 776.35 151.05 L 780.00 154.26" class="path-3" />
<path d="M 50.00 119.85 L 53.65 120.84 L 57.30 120.06 L 60.95 117.38 L 64.60 115.63 L 68.25 123.51 L 71.90 126.40 L 75.55 132.66 L 79.20 136.78 L 82.85 129.58 L 86.50 133.79 L 90.15 134.68 L 93.80 134.90 L 97.45 139.78 L 101.10 150.39 L 104.75 146.44 L 108.40 152.71 L 112.05 151.26 L 115.70 151.06 L 119.35 150.01 L 123.00 154.78 L 126.65 155.29 L 130.30 156.83 L 133.95 152.62 L 137.60 154.11 L 141.25 162.08 L 144.90 162.24 L 148.55 155.13 L 152.20 150.84 L 155.85 152.42 L 159.50 155.44 L 163.15 149.82 L 166.80 154.09 L 170.45 158.23 L 174.10 158.42 L 177.75 161.81 L 181.40 157.98 L 185.05 163.12 L 188.70 164.70 L 192.35 161.44 L 196.00 162.88 L 199.65 160.22 L 203.30 161.02 L 206.95 159.65 L 210.60 155.84 L 214.25 158.05 L 217.90 159.99 L 221.55 162.88 L 225.20 153.59 L 228.85 158.00 L 232.50 162.12 L 236.15 158.80 L 239.80 159.64 L 243.45 158.01 L 247.10 155.51 L 250.75 152.73 L 254.40 167.12 L 258.05 167.57 L 261.70 172.25 L 265.35 163.66 L 269.00 168.20 L 272.65 170.79 L 276.30 169.69 L 279.95 170.44 L 283.60 174.73 L 287.25 179.40 L 290.90 180.36 L 294.55 188.64 L 298.20 190.65 L 301.85 193.33 L 305.50 196.61 L 309.15 188.85 L 312.80 193.80 L 316.45 192.76 L 320.10 190.08 L 323.75 190.61 L 327.40 190.16 L 331.05 191.06 L 334.70 184.71 L 338.35 183.73 L 342.00 189.50 L 345.65 187.63 L 349.30 189.27 L 352.95 181.46 L 356.60 183.69 L 360.25 187.17 L 363.90 190.95 L 367.55 189.63 L 371.20 193.22 L 374.85 187.34 L 378.50 186.50 L 382.15 191.29 L 385.80 192.65 L 389.45 197.33 L 393.10 194.11 L 396.75 192.97 L 400.40 197.00 L 404.05 197.59 L 407.70 199.83 L 411.35 198.71 L 415.00 198.66 L 418.65 198.16 L 422.30 200.34 L 425.95 202.67 L 429.60 202.75 L 433.25 207.88 L 436.90 209.43 L 440.55 212.56 L 444.20 221.56 L 447.85 215.27 L 451.50 215.18 L 455.15 218.05 L 458.80 215.22 L 462.45 221.34 L 466.10 216.27 L 469.75 222.76 L 473.40 228.89 L 477.05 233.36 L 480.70 231.10 L 484.35 234.62 L 488.00 226.18 L 491.65 219.39 L 495.30 219.21 L 498.95 215.50 L 502.60 213.07 L 506.25 209.94 L 509.90 209.57 L 513.55 202.01 L 517.20 204.48 L 520.85 202.78 L 524.50 199.11 L 528.15 201.04 L 531.80 199.65 L 535.45 203.38 L 539.10 200.49 L 542.75 211.82 L 546.40 210.40 L 550.05 203.84 L 553.70 202.91 L 557.35 203.69 L 561.00 200.64 L 564.65 199.12 L 568.30 201.29 L 571.95 202.51 L 575.60 203.90 L 579.25 202.96 L 582.90 200.14 L 586.55 201.21 L 590.20 201.11 L 593.85 208.47 L 597.50 205.99 L 601.15 199.23 L 604.80 197.68 L 608.45 199.69 L 612.10 200.20 L 615.75 204.57 L 619.40 199.59 L 623.05 200.59 L 626.70 198.13 L 630.35 203.84 L 634.00 199.94 L 637.65 195.61 L 641.30 191.95 L 644.95 191.32 L 648.60 194.75 L 652.25 195.07 L 655.90 195.15 L 659.55 206.49 L 663.20 206.67 L 666.85 207.80 L 670.50 202.53 L 674.15 200.00 L 677.80 195.66 L 681.45 191.68 L 685.10 189.92 L 688.75 186.35 L 692.40 180.87 L 696.05 181.82 L 699.70 178.01 L 703.35 177.26 L 707.00 176.91 L 710.65 174.55 L 714.30 170.11 L 717.95 163.21 L 721.60 165.46 L 725.25 157.69 L 728.90 156.29 L 732.55 154.74 L 736.20 160.43 L 739.85 161.65 L 743.50 164.86 L 747.15 147.79 L 750.80 145.69 L 754.45 150.31 L 758.10 147.98 L 761.75 146.45 L 765.40 141.31 L 769.05 141.23 L 772.70 142.92 L 776.35 134.58 L 780.00 135.90" class="path-4" />
<line x1="50" y1="119.8" x2="780" y2="119.8" stroke="#4b5563" stroke-width="0.8" stroke-dasharray="6 3" />
</svg>