<svg xmlns="http://www.w3.org/2000/svg" viewBox="0 0 800 300" width="800" height="300">
<style>
.axis-line { stroke: #6b7280; stroke-width: 0.5; }
.axis-text { font-family: monospace; font-size: 11px; fill: #9ca3af; }
.title-text { font-family: monospace; font-size: 14px; fill: #d1d5db; font-weight: bold; }
.grid-line { stroke: #374151; stroke-width: 0.3; stroke-dasharray: 4 2; }
.path-0 { fill: none; stroke: #3b82f6; stroke-width: 2; stroke-linecap: round; opacity: 0.85; animation: draw-0 8s ease-in-out 0.0s infinite; stroke-dasharray: 986; stroke-dashoffset: 986;}
@keyframes draw-0 { 0% { stroke-dashoffset: 986; } 38% { stroke-dashoffset: 0; } 62% { stroke-dashoffset: 0; } 100% { stroke-dashoffset: 986; }}
.path-1 { fill: none; stroke: #ef4444; stroke-width: 2; stroke-linecap: round; opacity: 0.85; animation: draw-1 8s ease-in-out 0.4s infinite; stroke-dasharray: 1012; stroke-dashoffset: 1012;}
@keyframes draw-1 { 0% { stroke-dashoffset: 1012; } 38% { stroke-dashoffset: 0; } 62% { stroke-dashoffset: 0; } 100% { stroke-dashoffset: 1012; }}
.path-2 { fill: none; stroke: #22c55e; stroke-width: 2; stroke-linecap: round; opacity: 0.85; animation: draw-2 8s ease-in-out 0.8s infinite; stroke-dasharray: 1018; stroke-dashoffset: 1018;}
@keyframes draw-2 { 0% { stroke-dashoffset: 1018; } 38% { stroke-dashoffset: 0; } 62% { stroke-dashoffset: 0; } 100% { stroke-dashoffset: 1018; }}
.path-3 { fill: none; stroke: #f59e0b; stroke-width: 2; stroke-linecap: round; opacity: 0.85; animation: draw-3 8s ease-in-out 1.2000000000000002s infinite; stroke-dasharray: 975; stroke-dashoffset: 975;}
@keyframes draw-3 { 0% { stroke-dashoffset: 975; } 38% { stroke-dashoffset: 0; } 62% { stroke-dashoffset: 0; } 100% { stroke-dashoffset: 975; }}
.path-4 { fill: none; stroke: #a855f7; stroke-width: 2; stroke-linecap: round; opacity: 0.85; animation: draw-4 8s ease-in-out 1.6s infinite; stroke-dasharray: 997; stroke-dashoffset: 997;}
@keyframes draw-4 { 0% { stroke-dashoffset: 997; } 38% { stroke-dashoffset: 0; } 62% { stroke-dashoffset: 0; } 100% { stroke-dashoffset: 997; }}
</style>
<rect width="800" height="300" rx="8" fill="#0d1117" />
<line x1="50" y1="260.0" x2="780" y2="260.0" class="grid-line" />
<text x="44" y="264.0" text-anchor="end" class="axis-text">-1.8</text>
<line x1="50" y1="216.0" x2="780" y2="216.0" class="grid-line" />
<text x="44" y="220.0" text-anchor="end" class="axis-text">-1.0</text>
<line x1="50" y1="172.0" x2="780" y2="172.0" class="grid-line" />
<text x="44" y="176.0" text-anchor="end" class="axis-text">-0.1</text>
<line x1="50" y1="128.0" x2="780" y2="128.0" class="grid-line" />
<text x="44" y="132.0" text-anchor="end" class="axis-text">0.7</text>
<line x1="50" y1="84.0" x2="780" y2="84.0" class="grid-line" />
<text x="44" y="88.0" text-anchor="end" class="axis-text">1.6</text>
<line x1="50" y1="40.0" x2="780" y2="40.0" class="grid-line" />
<text x="44" y="44.0" text-anchor="end" class="axis-text">2.4</text>
<line x1="50.0" y1="40" x2="50.0" y2="260" class="grid-line" />
<line x1="196.0" y1="40" x2="196.0" y2="260" class="grid-line" />
<line x1="342.0" y1="40" x2="342.0" y2="260" class="grid-line" />
<line x1="488.0" y1="40" x2="488.0" y2="260" class="grid-line" />
<line x1="634.0" y1="40" x2="634.0" y2="260" class="grid-line" />
<line x1="780.0" y1="40" x2="780.0" y2="260" class="grid-line" />
<line x1="50" y1="260" x2="780" y2="260" class="axis-line" />
<line x1="50" y1="40" x2="50" y2="260" class="axis-line" />
<text x="400.0" y="295" text-anchor="middle" class="axis-text">t</text>
<text x="12" y="150.0" text-anchor="middle" class="axis-text" transform="rotate(-90 12 150.0)">W(t)</text>
<text x="400.0" y="22" text-anchor="middle" class="title-text">Brownian Motion</text>
<path d="M 50.00 164.90 L 53.65 164.06 L 57.30 166.00 L 60.95 159.21 L 64.60 160.11 L 68.25 159.89 L 71.90 158.87 L 75.55 162.52 L 79.20 165.77 L 82.85 163.74 L 86.50 162.86 L 90.15 166.16 L 93.80 164.91 L 97.45 159.86 L 101.10 163.93 L 104.75 154.48 L 108.40 150.66 L 112.05 148.57 L 115.70 155.01 L 119.35 155.63 L 123.00 154.19 L 126.65 153.68 L 130.30 160.02 L 133.95 161.20 L 137.60 159.89 L 141.25 162.64 L 144.90 170.25 L 148.55 166.43 L 152.20 168.50 L 155.85 171.04 L 159.50 176.36 L 163.15 175.13 L 166.80 179.56 L 170.45 170.79 L 174.10 169.00 L 177.75 167.72 L 181.40 171.49 L 185.05 167.04 L 188.70 165.55 L 192.35 159.72 L 196.00 158.60 L 199.65 157.02 L 203.30 157.11 L 206.95 156.93 L 210.60 156.96 L 214.25 157.25 L 217.90 157.03 L 221.55 151.67 L 225.20 149.19 L 228.85 149.36 L 232.50 159.51 L 236.15 157.25 L 239.80 155.65 L 243.45 161.53 L 247.10 159.39 L 250.75 159.46 L 254.40 155.90 L 258.05 153.55 L 261.70 156.48 L 265.35 158.12 L 269.00 158.67 L 272.65 156.08 L 276.30 153.40 L 279.95 154.55 L 283.60 155.50 L 287.25 154.82 L 290.90 153.29 L 294.55 149.66 L 298.20 143.28 L 301.85 148.61 L 305.50 146.35 L 309.15 146.75 L 312.80 147.27 L 316.45 149.64 L 320.10 148.47 L 323.75 148.36 L 327.40 140.20 L 331.05 140.56 L 334.70 137.46 L 338.35 139.09 L 342.00 141.02 L 345.65 137.48 L 349.30 141.24 L 352.95 142.80 L 356.60 145.96 L 360.25 144.94 L 363.90 149.72 L 367.55 149.45 L 371.20 149.55 L 374.85 153.19 L 378.50 155.23 L 382.15 154.77 L 385.80 155.48 L 389.45 162.29 L 393.10 166.38 L 396.75 170.47 L 400.40 168.44 L 404.05 169.95 L 407.70 166.43 L 411.35 167.98 L 415.00 170.93 L 418.65 169.54 L 422.30 173.23 L 425.95 169.00 L 429.60 177.05 L 433.25 173.06 L 436.90 171.22 L 440.55 172.31 L 444.20 168.18 L 447.85 172.54 L 451.50 167.53 L 455.15 170.57 L 458.80 164.01 L 462.45 171.20 L 466.10 177.01 L 469.75 177.31 L 473.40 177.95 L 477.05 172.41 L 480.70 171.54 L 484.35 171.30 L 488.00 170.58 L 491.65 166.39 L 495.30 159.19 L 498.95 157.83 L 502.60 159.52 L 506.25 165.12 L 509.90 169.21 L 513.55 170.19 L 517.20 175.04 L 520.85 172.86 L 524.50 175.25 L 528.15 173.31 L 531.80 170.64 L 535.45 169.58 L 539.10 166.34 L 542.75 163.23 L 546.40 163.58 L 550.05 163.49 L 553.70 157.84 L 557.35 161.04 L 561.00 160.39 L 564.65 158.83 L 568.30 158.18 L 571.95 159.70 L 575.60 156.88 L 579.25 159.86 L 582.90 158.61 L 586.55 161.66 L 590.20 158.97 L 593.85 158.71 L 597.50 158.12 L 601.15 157.21 L 604.80 156.51 L 608.45 156.75 L 612.10 158.04 L 615.75 158.19 L 619.40 157.35 L 623.05 160.02 L 626.70 162.93 L 630.35 159.87 L 634.00 160.85 L 637.65 154.71 L 641.30 155.39 L 644.95 158.50 L 648.60 159.49 L 652.25 151.61 L 655.90 147.88 L 659.55 148.28 L 663.20 142.38 L 666.85 146.01 L 670.50 145.50 L 674.15 147.09 L 677.80 152.95 L 681.45 149.28 L 685.10 149.52 L 688.75 147.08 L 692.40 144.78 L 696.05 149.20 L 699.70 145.09 L 703.35 140.64 L 707.00 139.61 L 710.65 136.29 L 714.30 134.37 L 717.95 136.48 L 721.60 134.77 L 725.25 135.14 L 728.90 125.27 L 732.55 123.90 L 736.20 121.57 L 739.85 122.68 L 743.50 133.58 L 747.15 128.78 L 750.80 135.35 L 754.45 132.26 L 758.10 135.78 L 761.75 131.28 L 765.40 134.08 L 769.05 133.30 L 772.70 134.19 L 776.35 134.18 L 780.00 139.72" class="path-0" />
<path d="M 50.00 164.90 L 53.65 171.32 L 57.30 165.46 L 60.95 160.92 L 64.60 162.99 L 68.25 163.45 L 71.90 166.76 L 75.55 165.97 L 79.20 157.09 L 82.85 158.83 L 86.50 154.28 L 90.15 151.33 L 93.80 143.77 L 97.45 134.70 L 101.10 131.32 L 104.75 128.17 L 108.40 124.49 L 112.05 121.87 L 115.70 118.35 L 119.35 115.06 L 123.00 118.93 L 126.65 118.25 L 130.30 121.44 L 133.95 115.79 L 137.60 111.08 L 141.25 111.27 L 144.90 111.57 L 148.55 117.44 L 152.20 120.60 L 155.85 123.56 L 159.50 119.76 L 163.15 119.62 L 166.80 117.87 L 170.45 117.22 L 174.10 120.92 L 177.75 121.21 L 181.40 120.27 L 185.05 124.46 L 188.70 124.12 L 192.35 128.20 L 196.00 131.06 L 199.65 130.43 L 203.30 129.97 L 206.95 130.40 L 210.60 125.81 L 214.25 116.78 L 217.90 113.57 L 221.55 111.59 L 225.20 113.75 L 228.85 107.99 L 232.50 106.83 L 236.15 104.68 L 239.80 107.58 L 243.45 107.95 L 247.10 110.72 L 250.75 105.19 L 254.40 103.65 L 258.05 107.04 L 261.70 105.08 L 265.35 106.34 L 269.00 114.30 L 272.65 112.44 L 276.30 108.19 L 279.95 107.23 L 283.60 106.36 L 287.25 103.66 L 290.90 102.17 L 294.55 99.85 L 298.20 95.40 L 301.85 95.53 L 305.50 90.85 L 309.15 85.16 L 312.80 87.50 L 316.45 91.55 L 320.10 85.99 L 323.75 89.49 L 327.40 92.05 L 331.05 89.39 L 334.70 90.04 L 338.35 94.48 L 342.00 90.18 L 345.65 88.76 L 349.30 82.88 L 352.95 84.39 L 356.60 86.35 L 360.25 88.18 L 363.90 85.06 L 367.55 76.55 L 371.20 73.16 L 374.85 76.08 L 378.50 79.68 L 382.15 78.63 L 385.80 80.23 L 389.45 87.09 L 393.10 83.56 L 396.75 76.15 L 400.40 74.79 L 404.05 76.98 L 407.70 79.38 L 411.35 78.83 L 415.00 77.69 L 418.65 80.58 L 422.30 80.66 L 425.95 83.22 L 429.60 88.44 L 433.25 93.45 L 436.90 95.05 L 440.55 91.75 L 444.20 94.58 L 447.85 96.06 L 451.50 100.83 L 455.15 103.21 L 458.80 106.73 L 462.45 108.20 L 466.10 106.29 L 469.75 108.99 L 473.40 111.66 L 477.05 111.75 L 480.70 112.87 L 484.35 110.20 L 488.00 104.95 L 491.65 96.70 L 495.30 96.62 L 498.95 99.93 L 502.60 98.30 L 506.25 90.01 L 509.90 93.49 L 513.55 92.86 L 517.20 98.49 L 520.85 91.71 L 524.50 93.80 L 528.15 96.26 L 531.80 83.17 L 535.45 84.36 L 539.10 87.06 L 542.75 95.33 L 546.40 93.66 L 550.05 95.51 L 553.70 97.20 L 557.35 98.72 L 561.00 103.34 L 564.65 104.10 L 568.30 102.11 L 571.95 100.18 L 575.60 100.66 L 579.25 108.97 L 582.90 110.51 L 586.55 115.17 L 590.20 112.52 L 593.85 116.51 L 597.50 114.21 L 601.15 114.52 L 604.80 118.07 L 608.45 115.11 L 612.10 110.03 L 615.75 106.24 L 619.40 105.52 L 623.05 104.78 L 626.70 105.65 L 630.35 100.03 L 634.00 101.10 L 637.65 98.12 L 641.30 98.90 L 644.95 92.45 L 648.60 95.25 L 652.25 94.80 L 655.90 94.46 L 659.55 92.68 L 663.20 89.40 L 666.85 84.50 L 670.50 84.56 L 674.15 82.17 L 677.80 84.99 L 681.45 89.07 L 685.10 84.44 L 688.75 82.57 L 692.40 87.70 L 696.05 84.26 L 699.70 79.88 L 703.35 77.19 L 707.00 76.58 L 710.65 77.35 L 714.30 78.49 L 717.95 77.87 L 721.60 74.74 L 725.25 80.53 L 728.90 81.75 L 732.55 81.28 L 736.20 81.11 L 739.85 77.85 L 743.50 78.23 L 747.15 71.88 L 750.80 73.46 L 754.45 76.47 L 758.10 71.33 L 761.75 71.14 L 765.40 77.47 L 769.05 75.94 L 772.70 73.37 L 776.35 72.04 L 780.00 65.38" class="path-1" />
<path d="M 50.00 164.90 L 53.65 158.66 L 57.30 155.74 L 60.95 152.17 L 64.60 150.78 L 68.25 150.36 L 71.90 149.87 L 75.55 150.64 L 79.20 146.33 L 82.85 151.34 L 86.50 140.52 L 90.15 141.95 L 93.80 144.40 L 97.45 142.49 L 101.10 145.70 L 104.75 142.61 L 108.40 145.19 L 112.05 142.22 L 115.70 141.40 L 119.35 148.29 L 123.00 149.09 L 126.65 152.38 L 130.30 155.71 L 133.95 162.25 L 137.60 169.84 L 141.25 170.87 L 144.90 170.36 L 148.55 175.64 L 152.20 179.08 L 155.85 182.52 L 159.50 180.23 L 163.15 179.53 L 166.80 180.68 L 170.45 175.03 L 174.10 176.22 L 177.75 172.23 L 181.40 174.97 L 185.05 176.08 L 188.70 176.50 L 192.35 179.64 L 196.00 175.72 L 199.65 176.81 L 203.30 174.66 L 206.95 174.02 L 210.60 171.44 L 214.25 171.63 L 217.90 169.54 L 221.55 172.97 L 225.20 175.36 L 228.85 174.03 L 232.50 176.12 L 236.15 174.91 L 239.80 183.71 L 243.45 182.52 L 247.10 186.68 L 250.75 193.00 L 254.40 198.24 L 258.05 194.76 L 261.70 196.74 L 265.35 198.88 L 269.00 196.21 L 272.65 189.59 L 276.30 190.89 L 279.95 192.28 L 283.60 189.42 L 287.25 192.26 L 290.90 192.62 L 294.55 194.48 L 298.20 193.96 L 301.85 193.67 L 305.50 187.39 L 309.15 190.82 L 312.80 193.72 L 316.45 189.87 L 320.10 193.18 L 323.75 190.29 L 327.40 184.50 L 331.05 183.41 L 334.70 187.95 L 338.35 193.09 L 342.00 189.26 L 345.65 189.82 L 349.30 187.31 L 352.95 187.96 L 356.60 186.35 L 360.25 180.51 L 363.90 178.38 L 367.55 176.79 L 371.20 178.44 L 374.85 172.73 L 378.50 177.23 L 382.15 174.21 L 385.80 177.66 L 389.45 179.46 L 393.10 177.54 L 396.75 176.63 L 400.40 175.88 L 404.05 172.54 L 407.70 176.27 L 411.35 172.45 L 415.00 168.44 L 418.65 164.01 L 422.30 160.24 L 425.95 161.88 L 429.60 164.67 L 433.25 159.30 L 436.90 165.69 L 440.55 166.73 L 444.20 162.03 L 447.85 163.25 L 451.50 162.22 L 455.15 159.47 L 458.80 160.09 L 462.45 150.40 L 466.10 157.53 L 469.75 154.23 L 473.40 153.24 L 477.05 153.25 L 480.70 154.51 L 484.35 155.15 L 488.00 157.76 L 491.65 156.17 L 495.30 159.48 L 498.95 163.02 L 502.60 164.43 L 506.25 172.08 L 509.90 174.92 L 513.55 170.43 L 517.20 173.79 L 520.85 175.71 L 524.50 181.24 L 528.15 181.18 L 531.80 175.79 L 535.45 178.53 L 539.10 174.21 L 542.75 176.79 L 546.40 180.60 L 550.05 175.71 L 553.70 178.18 L 557.35 179.42 L 561.00 186.96 L 564.65 186.87 L 568.30 193.75 L 571.95 200.44 L 575.60 200.89 L 579.25 196.06 L 582.90 198.54 L 586.55 198.16 L 590.20 199.05 L 593.85 203.04 L 597.50 209.55 L 601.15 210.18 L 604.80 210.76 L 608.45 214.26 L 612.10 219.61 L 615.75 217.07 L 619.40 220.66 L 623.05 226.74 L 626.70 227.24 L 630.35 230.58 L 634.00 232.31 L 637.65 230.36 L 641.30 234.62 L 644.95 228.42 L 648.60 225.08 L 652.25 226.38 L 655.90 220.61 L 659.55 225.26 L 663.20 229.61 L 666.85 229.53 L 670.50 228.75 L 674.15 231.20 L 677.80 224.26 L 681.45 221.63 L 685.10 222.53 L 688.75 228.94 L 692.40 227.19 L 696.05 228.40 L 699.70 221.64 L 703.35 215.37 L 707.00 212.70 L 710.65 207.47 L 714.30 201.83 L 717.95 203.15 L 721.60 198.96 L 725.25 196.60 L 728.90 195.78 L 732.55 200.11 L 736.20 204.30 L 739.85 201.25 L 743.50 203.68 L 747.15 210.42 L 750.80 201.47 L 754.45 204.43 L 758.10 204.92 L 761.75 204.08 L 765.40 205.83 L 769.05 206.50 L 772.70 202.75 L 776.35 201.84 L 780.00 198.77" class="path-2" />
<path d="M 50.00 164.90 L 53.65 169.96 L 57.30 169.62 L 60.95 163.10 L 64.60 166.60 L 68.25 167.01 L 71.90 166.38 L 75.55 168.88 L 79.20 169.81 L 82.85 172.18 L 86.50 172.75 L 90.15 170.48 L 93.80 169.75 L 97.45 169.67 L 101.10 172.25 L 104.75 174.25 L 108.40 175.75 L 112.05 174.64 L 115.70 175.99 L 119.35 174.85 L 123.00 180.77 L 126.65 179.16 L 130.30 173.11 L 133.95 171.44 L 137.60 174.75 L 141.25 177.69 L 144.90 180.36 L 148.55 179.27 L 152.20 179.03 L 155.85 175.24 L 159.50 175.34 L 163.15 173.70 L 166.80 170.00 L 170.45 167.01 L 174.10 166.31 L 177.75 167.95 L 181.40 168.48 L 185.05 166.97 L 188.70 168.56 L 192.35 174.00 L 196.00 170.76 L 199.65 167.60 L 203.30 165.53 L 206.95 160.73 L 210.60 163.05 L 214.25 161.99 L 217.90 162.07 L 221.55 159.36 L 225.20 159.47 L 228.85 164.45 L 232.50 170.64 L 236.15 166.75 L 239.80 169.87 L 243.45 169.97 L 247.10 173.53 L 250.75 173.64 L 254.40 174.05 L 258.05 177.16 L 261.70 177.74 L 265.35 180.80 L 269.00 178.52 L 272.65 175.26 L 276.30 174.10 L 279.95 171.25 L 283.60 175.50 L 287.25 173.10 L 290.90 175.39 L 294.55 174.44 L 298.20 168.85 L 301.85 170.30 L 305.50 167.46 L 309.15 168.08 L 312.80 155.91 L 316.45 153.29 L 320.10 144.94 L 323.75 143.35 L 327.40 142.91 L 331.05 142.35 L 334.70 146.05 L 338.35 143.25 L 342.00 145.92 L 345.65 149.89 L 349.30 149.88 L 352.95 150.92 L 356.60 151.21 L 360.25 157.21 L 363.90 149.71 L 367.55 151.79 L 371.20 155.47 L 374.85 154.10 L 378.50 151.67 L 382.15 152.52 L 385.80 161.11 L 389.45 161.81 L 393.10 156.97 L 396.75 151.57 L 400.40 152.93 L 404.05 154.44 L 407.70 155.74 L 411.35 150.41 L 415.00 150.53 L 418.65 147.32 L 422.30 145.09 L 425.95 138.77 L 429.60 140.11 L 433.25 138.16 L 436.90 141.00 L 440.55 141.36 L 444.20 143.89 L 447.85 142.62 L 451.50 139.51 L 455.15 142.79 L 458.80 150.00 L 462.45 151.18 L 466.10 156.59 L 469.75 154.23 L 473.40 156.43 L 477.05 159.69 L 480.70 165.43 L 484.35 167.51 L 488.00 166.51 L 491.65 168.93 L 495.30 169.20 L 498.95 169.03 L 502.60 173.10 L 506.25 179.99 L 509.90 178.60 L 513.55 176.89 L 517.20 171.49 L 520.85 167.16 L 524.50 168.15 L 528.15 169.08 L 531.80 169.18 L 535.45 169.14 L 539.10 173.63 L 542.75 170.80 L 546.40 173.68 L 550.05 174.53 L 553.70 178.83 L 557.35 174.34 L 561.00 180.44 L 564.65 180.54 L 568.30 184.99 L 571.95 186.00 L 575.60 185.31 L 579.25 182.90 L 582.90 183.00 L 586.55 186.89 L 590.20 185.90 L 593.85 185.58 L 597.50 186.09 L 601.15 184.47 L 604.80 181.53 L 608.45 185.56 L 612.10 186.01 L 615.75 181.69 L 619.40 179.79 L 623.05 172.28 L 626.70 176.80 L 630.35 180.98 L 634.00 180.24 L 637.65 176.93 L 641.30 170.45 L 644.95 164.43 L 648.60 169.52 L 652.25 171.60 L 655.90 167.12 L 659.55 169.68 L 663.20 169.80 L 666.85 172.55 L 670.50 166.20 L 674.15 163.30 L 677.80 164.13 L 681.45 163.21 L 685.10 169.67 L 688.75 167.77 L 692.40 167.77 L 696.05 163.89 L 699.70 162.96 L 703.35 168.47 L 707.00 163.15 L 710.65 160.63 L 714.30 158.19 L 717.95 152.26 L 721.60 159.03 L 725.25 161.92 L 728.90 164.52 L 732.55 160.19 L 736.20 159.84 L 739.85 163.79 L 743.50 160.36 L 747.15 164.60 L 750.80 164.48 L 754.45 162.69 L 758.10 161.74 L 761.75 163.07 L 765.40 166.30 L 769.05 164.36 L 772.70 170.77 L 776.35 175.31 L 780.00 174.64" class="path-3" />
<path d="M 50.00 164.90 L 53.65 167.12 L 57.30 168.49 L 60.95 168.83 L 64.60 166.68 L 68.25 170.90 L 71.90 169.40 L 75.55 171.77 L 79.20 167.23 L 82.85 167.39 L 86.50 162.03 L 90.15 157.10 L 93.80 154.96 L 97.45 154.11 L 101.10 151.75 L 104.75 154.90 L 108.40 155.28 L 112.05 151.07 L 115.70 152.64 L 119.35 154.21 L 123.00 155.65 L 126.65 155.09 L 130.30 155.16 L 133.95 149.35 L 137.60 142.73 L 141.25 139.06 L 144.90 136.75 L 148.55 131.17 L 152.20 127.48 L 155.85 121.00 L 159.50 122.34 L 163.15 122.82 L 166.80 123.38 L 170.45 118.49 L 174.10 113.82 L 177.75 112.31 L 181.40 109.26 L 185.05 105.83 L 188.70 115.11 L 192.35 120.91 L 196.00 119.97 L 199.65 122.22 L 203.30 128.26 L 206.95 129.51 L 210.60 134.31 L 214.25 137.86 L 217.90 137.22 L 221.55 145.79 L 225.20 150.40 L 228.85 150.84 L 232.50 148.38 L 236.15 151.63 L 239.80 155.09 L 243.45 153.40 L 247.10 156.40 L 250.75 152.21 L 254.40 149.37 L 258.05 144.66 L 261.70 141.88 L 265.35 143.41 L 269.00 146.29 L 272.65 150.65 L 276.30 147.47 L 279.95 149.87 L 283.60 148.42 L 287.25 148.80 L 290.90 143.92 L 294.55 141.71 L 298.20 143.55 L 301.85 141.62 L 305.50 145.35 L 309.15 149.51 L 312.80 148.61 L 316.45 153.13 L 320.10 156.29 L 323.75 153.61 L 327.40 155.67 L 331.05 156.59 L 334.70 157.35 L 338.35 152.90 L 342.00 147.66 L 345.65 149.51 L 349.30 146.30 L 352.95 149.04 L 356.60 144.55 L 360.25 141.92 L 363.90 141.32 L 367.55 134.97 L 371.20 132.93 L 374.85 130.54 L 378.50 129.94 L 382.15 132.30 L 385.80 134.21 L 389.45 130.68 L 393.10 137.17 L 396.75 139.04 L 400.40 143.82 L 404.05 147.33 L 407.70 147.24 L 411.35 149.42 L 415.00 153.10 L 418.65 150.43 L 422.30 145.56 L 425.95 139.72 L 429.60 140.86 L 433.25 137.96 L 436.90 134.54 L 440.55 137.79 L 444.20 140.02 L 447.85 137.44 L 451.50 136.71 L 455.15 135.65 L 458.80 137.72 L 462.45 140.46 L 466.10 138.22 L 469.75 142.34 L 473.40 144.00 L 477.05 139.66 L 480.70 144.10 L 484.35 138.31 L 488.00 135.63 L 491.65 139.62 L 495.30 134.66 L 498.95 137.20 L 502.60 136.31 L 506.25 138.49 L 509.90 135.08 L 513.55 134.44 L 517.20 135.85 L 520.85 141.74 L 524.50 150.61 L 528.15 149.97 L 531.80 150.77 L 535.45 151.97 L 539.10 153.43 L 542.75 149.73 L 546.40 154.48 L 550.05 161.58 L 553.70 159.74 L 557.35 158.62 L 561.00 158.38 L 564.65 158.54 L 568.30 163.60 L 571.95 160.84 L 575.60 165.94 L 579.25 162.56 L 582.90 165.63 L 586.55 165.09 L 590.20 163.68 L 593.85 170.64 L 597.50 166.31 L 601.15 169.69 L 604.80 173.52 L 608.45 167.23 L 612.10 170.84 L 615.75 168.55 L 619.40 170.93 L 623.05 169.10 L 626.70 167.67 L 630.35 168.94 L 634.00 170.67 L 637.65 174.69 L 641.30 180.18 L 644.95 181.23 L 648.60 185.41 L 652.25 186.92 L 655.90 187.99 L 659.55 194.72 L 663.20 191.82 L 666.85 197.38 L 670.50 193.76 L 674.15 192.30 L 677.80 193.74 L 681.45 201.01 L 685.10 198.40 L 688.75 201.22 L 692.40 201.45 L 696.05 203.26 L 699.70 209.79 L 703.35 204.91 L 707.00 208.12 L 710.65 208.79 L 714.30 212.14 L 717.95 216.01 L 721.60 206.27 L 725.25 201.03 L 728.90 204.11 L 732.55 201.36 L 736.20 205.63 L 739.85 202.73 L 743.50 203.17 L 747.15 204.25 L 750.80 206.63 L 754.45 203.85 L 758.10 202.47 L 761.75 204.80 L 765.40 206.55 L 769.05 209.37 L 772.70 206.66 L 776.35 208.87 L 780.00 206.39" class="path-4" />
<line x1="50" y1="164.9" x2="780" y2="164.9" stroke="#4b5563" stroke-width="0.8" stroke-dasharray="6 3" />
</svg>