<svg xmlns="http://www.w3.org/2000/svg" viewBox="0 0 800 300" width="800" height="300">
<style>
.axis-line { stroke: #6b7280; stroke-width: 0.5; }
.axis-text { font-family: monospace; font-size: 11px; fill: #9ca3af; }
.title-text { font-family: monospace; font-size: 14px; fill: #d1d5db; font-weight: bold; }
.grid-line { stroke: #374151; stroke-width: 0.3; stroke-dasharray: 4 2; }
.path-0 { fill: none; stroke: #3b82f6; stroke-width: 2; stroke-linecap: round; opacity: 0.85; animation: draw-0 8s ease-in-out 0.0s infinite; stroke-dasharray: 1183; stroke-dashoffset: 1183;}
@keyframes draw-0 { 0% { stroke-dashoffset: 1183; } 38% { stroke-dashoffset: 0; } 62% { stroke-dashoffset: 0; } 100% { stroke-dashoffset: 1183; }}
.path-1 { fill: none; stroke: #ef4444; stroke-width: 2; stroke-linecap: round; opacity: 0.85; animation: draw-1 8s ease-in-out 0.4s infinite; stroke-dasharray: 1130; stroke-dashoffset: 1130;}
@keyframes draw-1 { 0% { stroke-dashoffset: 1130; } 38% { stroke-dashoffset: 0; } 62% { stroke-dashoffset: 0; } 100% { stroke-dashoffset: 1130; }}
.path-2 { fill: none; stroke: #22c55e; stroke-width: 2; stroke-linecap: round; opacity: 0.85; animation: draw-2 8s ease-in-out 0.8s infinite; stroke-dasharray: 1131; stroke-dashoffset: 1131;}
@keyframes draw-2 { 0% { stroke-dashoffset: 1131; } 38% { stroke-dashoffset: 0; } 62% { stroke-dashoffset: 0; } 100% { stroke-dashoffset: 1131; }}
.path-3 { fill: none; stroke: #f59e0b; stroke-width: 2; stroke-linecap: round; opacity: 0.85; animation: draw-3 8s ease-in-out 1.2000000000000002s infinite; stroke-dasharray: 1101; stroke-dashoffset: 1101;}
@keyframes draw-3 { 0% { stroke-dashoffset: 1101; } 38% { stroke-dashoffset: 0; } 62% { stroke-dashoffset: 0; } 100% { stroke-dashoffset: 1101; }}
.path-4 { fill: none; stroke: #a855f7; stroke-width: 2; stroke-linecap: round; opacity: 0.85; animation: draw-4 8s ease-in-out 1.6s infinite; stroke-dasharray: 1117; stroke-dashoffset: 1117;}
@keyframes draw-4 { 0% { stroke-dashoffset: 1117; } 38% { stroke-dashoffset: 0; } 62% { stroke-dashoffset: 0; } 100% { stroke-dashoffset: 1117; }}
</style>
<rect width="800" height="300" rx="8" fill="#0d1117" />
<line x1="50" y1="260.0" x2="780" y2="260.0" class="grid-line" />
<text x="44" y="264.0" text-anchor="end" class="axis-text">-1.0</text>
<line x1="50" y1="216.0" x2="780" y2="216.0" class="grid-line" />
<text x="44" y="220.0" text-anchor="end" class="axis-text">-0.3</text>
<line x1="50" y1="172.0" x2="780" y2="172.0" class="grid-line" />
<text x="44" y="176.0" text-anchor="end" class="axis-text">0.3</text>
<line x1="50" y1="128.0" x2="780" y2="128.0" class="grid-line" />
<text x="44" y="132.0" text-anchor="end" class="axis-text">0.9</text>
<line x1="50" y1="84.0" x2="780" y2="84.0" class="grid-line" />
<text x="44" y="88.0" text-anchor="end" class="axis-text">1.5</text>
<line x1="50" y1="40.0" x2="780" y2="40.0" class="grid-line" />
<text x="44" y="44.0" text-anchor="end" class="axis-text">2.2</text>
<line x1="50.0" y1="40" x2="50.0" y2="260" class="grid-line" />
<line x1="196.0" y1="40" x2="196.0" y2="260" class="grid-line" />
<line x1="342.0" y1="40" x2="342.0" y2="260" class="grid-line" />
<line x1="488.0" y1="40" x2="488.0" y2="260" class="grid-line" />
<line x1="634.0" y1="40" x2="634.0" y2="260" class="grid-line" />
<line x1="780.0" y1="40" x2="780.0" y2="260" class="grid-line" />
<line x1="50" y1="260" x2="780" y2="260" class="axis-line" />
<line x1="50" y1="40" x2="50" y2="260" class="axis-line" />
<text x="400.0" y="295" text-anchor="middle" class="axis-text">t</text>
<text x="12" y="150.0" text-anchor="middle" class="axis-text" transform="rotate(-90 12 150.0)">W(t)</text>
<text x="400.0" y="22" text-anchor="middle" class="title-text">Brownian Motion</text>
<path d="M 50.00 191.65 L 53.65 188.45 L 57.30 177.54 L 60.95 173.74 L 64.60 173.56 L 68.25 176.51 L 71.90 179.12 L 75.55 183.41 L 79.20 171.60 L 82.85 161.95 L 86.50 164.65 L 90.15 159.19 L 93.80 152.39 L 97.45 149.39 L 101.10 147.55 L 104.75 146.05 L 108.40 135.30 L 112.05 135.77 L 115.70 143.16 L 119.35 147.64 L 123.00 144.45 L 126.65 140.99 L 130.30 141.91 L 133.95 140.51 L 137.60 132.16 L 141.25 128.70 L 144.90 138.50 L 148.55 133.94 L 152.20 126.48 L 155.85 128.85 L 159.50 130.68 L 163.15 137.53 L 166.80 134.69 L 170.45 139.63 L 174.10 141.77 L 177.75 139.22 L 181.40 142.86 L 185.05 153.65 L 188.70 154.88 L 192.35 166.18 L 196.00 164.45 L 199.65 166.48 L 203.30 165.02 L 206.95 165.42 L 210.60 164.37 L 214.25 172.50 L 217.90 179.15 L 221.55 190.29 L 225.20 185.45 L 228.85 179.18 L 232.50 171.08 L 236.15 169.49 L 239.80 159.59 L 243.45 157.82 L 247.10 154.28 L 250.75 159.83 L 254.40 162.23 L 258.05 170.86 L 261.70 178.18 L 265.35 176.00 L 269.00 168.76 L 272.65 166.02 L 276.30 171.99 L 279.95 165.03 L 283.60 169.38 L 287.25 177.41 L 290.90 174.21 L 294.55 182.04 L 298.20 174.23 L 301.85 170.98 L 305.50 170.54 L 309.15 174.65 L 312.80 174.41 L 316.45 178.54 L 320.10 180.11 L 323.75 177.41 L 327.40 174.23 L 331.05 174.69 L 334.70 172.18 L 338.35 175.49 L 342.00 183.28 L 345.65 184.69 L 349.30 188.39 L 352.95 189.53 L 356.60 183.99 L 360.25 178.24 L 363.90 173.35 L 367.55 177.38 L 371.20 179.82 L 374.85 179.13 L 378.50 172.98 L 382.15 175.77 L 385.80 171.34 L 389.45 167.63 L 393.10 168.85 L 396.75 165.23 L 400.40 167.10 L 404.05 172.22 L 407.70 171.23 L 411.35 167.26 L 415.00 169.48 L 418.65 180.42 L 422.30 173.87 L 425.95 175.70 L 429.60 170.35 L 433.25 177.16 L 436.90 177.15 L 440.55 173.00 L 444.20 160.98 L 447.85 164.83 L 451.50 157.57 L 455.15 156.69 L 458.80 155.03 L 462.45 151.77 L 466.10 151.25 L 469.75 152.76 L 473.40 153.34 L 477.05 164.84 L 480.70 169.49 L 484.35 174.47 L 488.00 177.29 L 491.65 169.12 L 495.30 171.50 L 498.95 174.56 L 502.60 172.00 L 506.25 176.25 L 509.90 175.18 L 513.55 180.34 L 517.20 178.91 L 520.85 186.33 L 524.50 186.17 L 528.15 179.64 L 531.80 169.69 L 535.45 174.09 L 539.10 172.71 L 542.75 168.71 L 546.40 168.77 L 550.05 168.63 L 553.70 169.10 L 557.35 163.73 L 561.00 162.46 L 564.65 161.79 L 568.30 161.83 L 571.95 167.67 L 575.60 161.42 L 579.25 162.81 L 582.90 167.40 L 586.55 165.85 L 590.20 167.33 L 593.85 168.63 L 597.50 175.43 L 601.15 180.33 L 604.80 187.26 L 608.45 190.02 L 612.10 187.42 L 615.75 179.90 L 619.40 189.04 L 623.05 189.74 L 626.70 180.98 L 630.35 178.20 L 634.00 181.26 L 637.65 180.36 L 641.30 185.68 L 644.95 190.27 L 648.60 192.66 L 652.25 194.56 L 655.90 185.29 L 659.55 183.16 L 663.20 189.43 L 666.85 190.56 L 670.50 190.30 L 674.15 185.67 L 677.80 183.53 L 681.45 174.38 L 685.10 175.16 L 688.75 175.16 L 692.40 177.69 L 696.05 180.80 L 699.70 182.70 L 703.35 181.69 L 707.00 183.02 L 710.65 176.82 L 714.30 180.01 L 717.95 177.65 L 721.60 176.44 L 725.25 173.77 L 728.90 175.57 L 732.55 180.62 L 736.20 188.23 L 739.85 199.03 L 743.50 201.66 L 747.15 213.74 L 750.80 212.21 L 754.45 221.83 L 758.10 216.98 L 761.75 213.21 L 765.40 217.22 L 769.05 214.63 L 772.70 216.24 L 776.35 225.23 L 780.00 223.37" class="path-0" />
<path d="M 50.00 191.65 L 53.65 189.91 L 57.30 182.04 L 60.95 178.59 L 64.60 178.23 L 68.25 179.43 L 71.90 176.43 L 75.55 175.45 L 79.20 178.13 L 82.85 177.57 L 86.50 176.02 L 90.15 172.25 L 93.80 172.33 L 97.45 184.38 L 101.10 179.56 L 104.75 179.69 L 108.40 179.09 L 112.05 179.10 L 115.70 184.45 L 119.35 177.85 L 123.00 181.50 L 126.65 174.82 L 130.30 174.95 L 133.95 176.82 L 137.60 172.74 L 141.25 170.61 L 144.90 167.54 L 148.55 166.30 L 152.20 168.26 L 155.85 163.03 L 159.50 162.99 L 163.15 160.45 L 166.80 152.66 L 170.45 167.85 L 174.10 165.51 L 177.75 161.30 L 181.40 157.03 L 185.05 157.80 L 188.70 156.29 L 192.35 156.41 L 196.00 155.72 L 199.65 163.17 L 203.30 168.21 L 206.95 170.34 L 210.60 172.55 L 214.25 172.22 L 217.90 165.27 L 221.55 165.44 L 225.20 169.96 L 228.85 166.48 L 232.50 168.71 L 236.15 172.83 L 239.80 170.29 L 243.45 167.16 L 247.10 167.65 L 250.75 172.80 L 254.40 172.38 L 258.05 179.28 L 261.70 169.83 L 265.35 160.39 L 269.00 167.20 L 272.65 167.00 L 276.30 165.92 L 279.95 161.34 L 283.60 155.64 L 287.25 153.95 L 290.90 153.04 L 294.55 158.49 L 298.20 166.66 L 301.85 176.60 L 305.50 173.26 L 309.15 172.18 L 312.80 172.12 L 316.45 167.06 L 320.10 158.03 L 323.75 158.74 L 327.40 164.60 L 331.05 167.05 L 334.70 164.42 L 338.35 160.67 L 342.00 165.52 L 345.65 166.18 L 349.30 157.86 L 352.95 154.07 L 356.60 160.70 L 360.25 157.87 L 363.90 155.59 L 367.55 150.61 L 371.20 149.49 L 374.85 150.58 L 378.50 154.41 L 382.15 151.11 L 385.80 155.70 L 389.45 153.32 L 393.10 155.26 L 396.75 152.79 L 400.40 149.49 L 404.05 146.43 L 407.70 145.13 L 411.35 144.55 L 415.00 153.49 L 418.65 153.88 L 422.30 155.46 L 425.95 157.42 L 429.60 155.99 L 433.25 153.49 L 436.90 157.11 L 440.55 160.27 L 444.20 149.97 L 447.85 151.33 L 451.50 150.69 L 455.15 143.07 L 458.80 132.86 L 462.45 122.50 L 466.10 119.73 L 469.75 124.67 L 473.40 131.71 L 477.05 127.56 L 480.70 127.62 L 484.35 130.86 L 488.00 134.75 L 491.65 132.65 L 495.30 130.26 L 498.95 129.02 L 502.60 121.14 L 506.25 122.66 L 509.90 120.05 L 513.55 112.11 L 517.20 116.12 L 520.85 122.19 L 524.50 129.86 L 528.15 123.21 L 531.80 123.59 L 535.45 115.85 L 539.10 125.82 L 542.75 120.96 L 546.40 116.85 L 550.05 121.74 L 553.70 119.66 L 557.35 123.45 L 561.00 123.26 L 564.65 120.13 L 568.30 120.49 L 571.95 128.54 L 575.60 130.94 L 579.25 135.81 L 582.90 128.20 L 586.55 125.17 L 590.20 122.47 L 593.85 124.18 L 597.50 127.11 L 601.15 127.90 L 604.80 132.94 L 608.45 136.56 L 612.10 138.38 L 615.75 138.17 L 619.40 133.23 L 623.05 132.18 L 626.70 136.01 L 630.35 137.85 L 634.00 147.15 L 637.65 153.37 L 641.30 158.93 L 644.95 159.54 L 648.60 156.77 L 652.25 148.40 L 655.90 152.61 L 659.55 148.53 L 663.20 144.06 L 666.85 148.74 L 670.50 142.13 L 674.15 147.72 L 677.80 154.26 L 681.45 161.13 L 685.10 154.11 L 688.75 150.36 L 692.40 143.24 L 696.05 150.06 L 699.70 157.13 L 703.35 161.04 L 707.00 159.72 L 710.65 158.59 L 714.30 161.51 L 717.95 169.43 L 721.60 168.78 L 725.25 171.98 L 728.90 171.51 L 732.55 176.98 L 736.20 179.12 L 739.85 181.90 L 743.50 182.19 L 747.15 184.82 L 750.80 177.47 L 754.45 183.12 L 758.10 179.51 L 761.75 181.63 L 765.40 184.51 L 769.05 187.35 L 772.70 182.33 L 776.35 182.27 L 780.00 185.25" class="path-1" />
<path d="M 50.00 191.65 L 53.65 193.40 L 57.30 184.66 L 60.95 181.76 L 64.60 183.06 L 68.25 189.04 L 71.90 191.63 L 75.55 192.65 L 79.20 198.49 L 82.85 196.73 L 86.50 192.63 L 90.15 186.81 L 93.80 187.76 L 97.45 184.86 L 101.10 188.20 L 104.75 189.65 L 108.40 193.35 L 112.05 191.46 L 115.70 190.55 L 119.35 198.35 L 123.00 201.22 L 126.65 203.38 L 130.30 206.88 L 133.95 213.77 L 137.60 217.70 L 141.25 222.28 L 144.90 220.21 L 148.55 212.40 L 152.20 210.10 L 155.85 201.44 L 159.50 197.60 L 163.15 199.63 L 166.80 201.74 L 170.45 207.47 L 174.10 204.87 L 177.75 201.08 L 181.40 197.55 L 185.05 198.59 L 188.70 197.26 L 192.35 204.64 L 196.00 209.90 L 199.65 206.69 L 203.30 206.48 L 206.95 200.61 L 210.60 198.89 L 214.25 193.94 L 217.90 200.31 L 221.55 200.82 L 225.20 198.29 L 228.85 203.54 L 232.50 205.57 L 236.15 200.33 L 239.80 199.80 L 243.45 197.21 L 247.10 198.25 L 250.75 197.68 L 254.40 194.33 L 258.05 192.54 L 261.70 188.21 L 265.35 194.77 L 269.00 194.02 L 272.65 196.39 L 276.30 196.81 L 279.95 186.60 L 283.60 185.32 L 287.25 179.42 L 290.90 184.90 L 294.55 179.13 L 298.20 178.54 L 301.85 179.40 L 305.50 182.28 L 309.15 187.08 L 312.80 176.43 L 316.45 169.34 L 320.10 171.91 L 323.75 182.05 L 327.40 171.45 L 331.05 163.11 L 334.70 169.44 L 338.35 176.92 L 342.00 176.25 L 345.65 173.21 L 349.30 171.32 L 352.95 181.51 L 356.60 182.53 L 360.25 184.80 L 363.90 175.24 L 367.55 163.42 L 371.20 164.68 L 374.85 165.31 L 378.50 167.90 L 382.15 167.18 L 385.80 165.18 L 389.45 170.20 L 393.10 168.86 L 396.75 162.41 L 400.40 164.20 L 404.05 168.60 L 407.70 165.96 L 411.35 166.18 L 415.00 161.64 L 418.65 160.19 L 422.30 163.36 L 425.95 165.32 L 429.60 163.70 L 433.25 160.04 L 436.90 159.22 L 440.55 149.77 L 444.20 146.63 L 447.85 140.66 L 451.50 137.48 L 455.15 131.28 L 458.80 128.32 L 462.45 130.91 L 466.10 127.14 L 469.75 126.46 L 473.40 132.07 L 477.05 129.22 L 480.70 135.58 L 484.35 133.60 L 488.00 129.60 L 491.65 133.75 L 495.30 135.31 L 498.95 141.84 L 502.60 149.44 L 506.25 145.71 L 509.90 142.64 L 513.55 143.41 L 517.20 139.28 L 520.85 142.75 L 524.50 146.65 L 528.15 144.77 L 531.80 143.66 L 535.45 144.43 L 539.10 145.50 L 542.75 146.00 L 546.40 137.93 L 550.05 138.10 L 553.70 137.32 L 557.35 137.56 L 561.00 141.82 L 564.65 152.85 L 568.30 152.71 L 571.95 148.91 L 575.60 151.70 L 579.25 157.19 L 582.90 151.60 L 586.55 149.60 L 590.20 154.93 L 593.85 163.77 L 597.50 163.46 L 601.15 158.21 L 604.80 162.76 L 608.45 162.87 L 612.10 159.88 L 615.75 164.54 L 619.40 168.20 L 623.05 163.79 L 626.70 152.67 L 630.35 142.75 L 634.00 139.01 L 637.65 141.89 L 641.30 143.94 L 644.95 142.21 L 648.60 144.98 L 652.25 136.30 L 655.90 133.01 L 659.55 136.16 L 663.20 129.28 L 666.85 131.51 L 670.50 126.60 L 674.15 121.87 L 677.80 120.44 L 681.45 108.81 L 685.10 110.86 L 688.75 109.34 L 692.40 107.77 L 696.05 110.31 L 699.70 110.15 L 703.35 109.49 L 707.00 103.89 L 710.65 101.28 L 714.30 99.55 L 717.95 93.92 L 721.60 99.05 L 725.25 93.30 L 728.90 92.35 L 732.55 85.65 L 736.20 82.36 L 739.85 76.41 L 743.50 78.27 L 747.15 86.60 L 750.80 86.44 L 754.45 81.14 L 758.10 74.28 L 761.75 72.83 L 765.40 66.04 L 769.05 72.59 L 772.70 69.26 L 776.35 65.38 L 780.00 69.14" class="path-2" />
<path d="M 50.00 191.65 L 53.65 189.01 L 57.30 193.02 L 60.95 194.81 L 64.60 192.06 L 68.25 198.49 L 71.90 205.08 L 75.55 201.88 L 79.20 205.05 L 82.85 193.59 L 86.50 200.20 L 90.15 195.00 L 93.80 201.76 L 97.45 198.18 L 101.10 194.79 L 104.75 195.71 L 108.40 198.87 L 112.05 190.80 L 115.70 193.22 L 119.35 198.21 L 123.00 197.90 L 126.65 190.78 L 130.30 198.95 L 133.95 201.24 L 137.60 198.85 L 141.25 193.82 L 144.90 192.83 L 148.55 194.92 L 152.20 193.92 L 155.85 194.74 L 159.50 199.55 L 163.15 201.11 L 166.80 201.77 L 170.45 200.83 L 174.10 208.96 L 177.75 209.48 L 181.40 205.44 L 185.05 211.22 L 188.70 212.83 L 192.35 218.15 L 196.00 217.45 L 199.65 219.83 L 203.30 216.77 L 206.95 219.32 L 210.60 220.43 L 214.25 225.39 L 217.90 228.26 L 221.55 227.95 L 225.20 221.10 L 228.85 226.17 L 232.50 225.39 L 236.15 227.74 L 239.80 228.80 L 243.45 226.22 L 247.10 224.94 L 250.75 223.65 L 254.40 223.95 L 258.05 222.29 L 261.70 225.19 L 265.35 219.14 L 269.00 220.80 L 272.65 216.95 L 276.30 216.01 L 279.95 214.75 L 283.60 215.23 L 287.25 217.08 L 290.90 216.41 L 294.55 214.88 L 298.20 214.00 L 301.85 208.76 L 305.50 206.74 L 309.15 207.54 L 312.80 199.57 L 316.45 193.98 L 320.10 195.93 L 323.75 193.24 L 327.40 194.11 L 331.05 192.14 L 334.70 194.79 L 338.35 198.21 L 342.00 186.59 L 345.65 180.72 L 349.30 183.47 L 352.95 178.10 L 356.60 175.78 L 360.25 174.98 L 363.90 170.25 L 367.55 174.81 L 371.20 176.17 L 374.85 184.23 L 378.50 189.69 L 382.15 191.71 L 385.80 193.14 L 389.45 194.31 L 393.10 191.51 L 396.75 191.42 L 400.40 193.05 L 404.05 193.28 L 407.70 192.48 L 411.35 189.80 L 415.00 192.23 L 418.65 188.89 L 422.30 187.31 L 425.95 186.96 L 429.60 192.70 L 433.25 190.40 L 436.90 202.42 L 440.55 199.70 L 444.20 206.41 L 447.85 203.58 L 451.50 193.88 L 455.15 199.08 L 458.80 192.95 L 462.45 190.92 L 466.10 197.65 L 469.75 204.53 L 473.40 204.59 L 477.05 196.34 L 480.70 201.87 L 484.35 194.58 L 488.00 205.41 L 491.65 208.33 L 495.30 202.38 L 498.95 204.43 L 502.60 197.90 L 506.25 198.15 L 509.90 194.45 L 513.55 187.33 L 517.20 191.89 L 520.85 195.81 L 524.50 199.36 L 528.15 205.63 L 531.80 204.94 L 535.45 210.20 L 539.10 204.56 L 542.75 205.99 L 546.40 193.19 L 550.05 186.89 L 553.70 189.33 L 557.35 187.55 L 561.00 194.05 L 564.65 194.38 L 568.30 195.51 L 571.95 190.62 L 575.60 183.87 L 579.25 173.32 L 582.90 173.23 L 586.55 173.79 L 590.20 171.06 L 593.85 166.52 L 597.50 164.77 L 601.15 164.07 L 604.80 167.89 L 608.45 171.85 L 612.10 176.50 L 615.75 179.96 L 619.40 177.00 L 623.05 182.93 L 626.70 189.68 L 630.35 195.23 L 634.00 195.00 L 637.65 188.32 L 641.30 185.39 L 644.95 174.26 L 648.60 175.12 L 652.25 182.15 L 655.90 190.64 L 659.55 184.70 L 663.20 185.81 L 666.85 187.12 L 670.50 195.69 L 674.15 194.91 L 677.80 197.58 L 681.45 196.06 L 685.10 198.60 L 688.75 194.24 L 692.40 188.89 L 696.05 191.59 L 699.70 197.18 L 703.35 191.55 L 707.00 190.67 L 710.65 192.83 L 714.30 192.15 L 717.95 190.95 L 721.60 194.81 L 725.25 195.96 L 728.90 192.53 L 732.55 185.29 L 736.20 188.72 L 739.85 189.11 L 743.50 189.22 L 747.15 188.26 L 750.80 188.86 L 754.45 190.16 L 758.10 185.74 L 761.75 184.21 L 765.40 188.88 L 769.05 183.93 L 772.70 186.67 L 776.35 190.08 L 780.00 188.00" class="path-3" />
<path d="M 50.00 191.65 L 53.65 187.98 L 57.30 189.18 L 60.95 185.50 L 64.60 187.24 L 68.25 185.04 L 71.90 184.75 L 75.55 175.55 L 79.20 174.86 L 82.85 183.90 L 86.50 178.32 L 90.15 175.01 L 93.80 169.79 L 97.45 170.69 L 101.10 174.14 L 104.75 172.85 L 108.40 173.09 L 112.05 170.06 L 115.70 174.99 L 119.35 174.03 L 123.00 173.30 L 126.65 172.62 L 130.30 174.09 L 133.95 172.61 L 137.60 172.27 L 141.25 172.14 L 144.90 179.35 L 148.55 182.17 L 152.20 189.88 L 155.85 183.90 L 159.50 180.50 L 163.15 188.00 L 166.80 186.23 L 170.45 185.03 L 174.10 178.21 L 177.75 178.04 L 181.40 175.70 L 185.05 183.66 L 188.70 181.25 L 192.35 194.22 L 196.00 196.52 L 199.65 200.97 L 203.30 191.59 L 206.95 193.63 L 210.60 192.14 L 214.25 199.06 L 217.90 199.94 L 221.55 190.62 L 225.20 184.21 L 228.85 185.40 L 232.50 187.83 L 236.15 188.96 L 239.80 187.97 L 243.45 190.79 L 247.10 187.77 L 250.75 170.74 L 254.40 170.38 L 258.05 175.71 L 261.70 176.14 L 265.35 182.14 L 269.00 183.59 L 272.65 182.64 L 276.30 184.49 L 279.95 187.68 L 283.60 185.61 L 287.25 187.33 L 290.90 176.84 L 294.55 173.78 L 298.20 174.82 L 301.85 174.93 L 305.50 172.54 L 309.15 174.07 L 312.80 173.49 L 316.45 169.31 L 320.10 174.62 L 323.75 167.79 L 327.40 164.18 L 331.05 164.30 L 334.70 169.64 L 338.35 169.46 L 342.00 165.19 L 345.65 167.99 L 349.30 172.65 L 352.95 176.93 L 356.60 184.08 L 360.25 182.65 L 363.90 182.71 L 367.55 181.39 L 371.20 183.26 L 374.85 189.35 L 378.50 188.44 L 382.15 189.62 L 385.80 194.08 L 389.45 192.58 L 393.10 204.52 L 396.75 207.10 L 400.40 215.14 L 404.05 216.55 L 407.70 208.18 L 411.35 214.00 L 415.00 214.55 L 418.65 216.90 L 422.30 220.98 L 425.95 220.67 L 429.60 216.99 L 433.25 219.55 L 436.90 212.59 L 440.55 211.84 L 444.20 210.78 L 447.85 217.68 L 451.50 211.10 L 455.15 213.85 L 458.80 230.23 L 462.45 234.62 L 466.10 224.00 L 469.75 225.60 L 473.40 220.67 L 477.05 224.12 L 480.70 228.26 L 484.35 222.99 L 488.00 218.68 L 491.65 220.11 L 495.30 218.59 L 498.95 211.34 L 502.60 208.16 L 506.25 214.68 L 509.90 220.76 L 513.55 216.50 L 517.20 217.99 L 520.85 210.40 L 524.50 216.73 L 528.15 216.15 L 531.80 209.36 L 535.45 205.40 L 539.10 202.64 L 542.75 198.30 L 546.40 199.10 L 550.05 197.09 L 553.70 197.66 L 557.35 202.86 L 561.00 208.39 L 564.65 206.89 L 568.30 199.60 L 571.95 198.57 L 575.60 189.64 L 579.25 196.53 L 582.90 191.92 L 586.55 188.81 L 590.20 194.35 L 593.85 198.51 L 597.50 201.43 L 601.15 203.19 L 604.80 204.07 L 608.45 206.77 L 612.10 207.36 L 615.75 212.31 L 619.40 215.98 L 623.05 214.77 L 626.70 220.41 L 630.35 217.03 L 634.00 215.10 L 637.65 212.70 L 641.30 212.01 L 644.95 214.23 L 648.60 218.37 L 652.25 216.06 L 655.90 215.67 L 659.55 219.75 L 663.20 217.71 L 666.85 216.31 L 670.50 217.06 L 674.15 213.12 L 677.80 213.22 L 681.45 211.41 L 685.10 209.15 L 688.75 206.18 L 692.40 206.87 L 696.05 199.53 L 699.70 204.83 L 703.35 204.44 L 707.00 209.56 L 710.65 208.40 L 714.30 218.16 L 717.95 214.74 L 721.60 210.92 L 725.25 212.53 L 728.90 202.21 L 732.55 201.97 L 736.20 195.97 L 739.85 199.55 L 743.50 199.64 L 747.15 206.16 L 750.80 199.43 L 754.45 197.49 L 758.10 200.48 L 761.75 198.26 L 765.40 192.15 L 769.05 190.80 L 772.70 182.81 L 776.35 178.46 L 780.00 181.09" class="path-4" />
<line x1="50" y1="191.7" x2="780" y2="191.7" stroke="#4b5563" stroke-width="0.8" stroke-dasharray="6 3" />
</svg>