<svg xmlns="http://www.w3.org/2000/svg" viewBox="0 0 800 300" width="800" height="300">
<style>
.axis-line { stroke: #6b7280; stroke-width: 0.5; }
.axis-text { font-family: monospace; font-size: 11px; fill: #9ca3af; }
.title-text { font-family: monospace; font-size: 14px; fill: #d1d5db; font-weight: bold; }
.grid-line { stroke: #374151; stroke-width: 0.3; stroke-dasharray: 4 2; }
.path-0 { fill: none; stroke: #3b82f6; stroke-width: 2; stroke-linecap: round; opacity: 0.85; animation: draw-0 8s ease-in-out 0.0s infinite; stroke-dasharray: 1080; stroke-dashoffset: 1080;}
@keyframes draw-0 { 0% { stroke-dashoffset: 1080; } 38% { stroke-dashoffset: 0; } 62% { stroke-dashoffset: 0; } 100% { stroke-dashoffset: 1080; }}
.path-1 { fill: none; stroke: #ef4444; stroke-width: 2; stroke-linecap: round; opacity: 0.85; animation: draw-1 8s ease-in-out 0.4s infinite; stroke-dasharray: 1075; stroke-dashoffset: 1075;}
@keyframes draw-1 { 0% { stroke-dashoffset: 1075; } 38% { stroke-dashoffset: 0; } 62% { stroke-dashoffset: 0; } 100% { stroke-dashoffset: 1075; }}
.path-2 { fill: none; stroke: #22c55e; stroke-width: 2; stroke-linecap: round; opacity: 0.85; animation: draw-2 8s ease-in-out 0.8s infinite; stroke-dasharray: 1075; stroke-dashoffset: 1075;}
@keyframes draw-2 { 0% { stroke-dashoffset: 1075; } 38% { stroke-dashoffset: 0; } 62% { stroke-dashoffset: 0; } 100% { stroke-dashoffset: 1075; }}
.path-3 { fill: none; stroke: #f59e0b; stroke-width: 2; stroke-linecap: round; opacity: 0.85; animation: draw-3 8s ease-in-out 1.2000000000000002s infinite; stroke-dasharray: 1088; stroke-dashoffset: 1088;}
@keyframes draw-3 { 0% { stroke-dashoffset: 1088; } 38% { stroke-dashoffset: 0; } 62% { stroke-dashoffset: 0; } 100% { stroke-dashoffset: 1088; }}
.path-4 { fill: none; stroke: #a855f7; stroke-width: 2; stroke-linecap: round; opacity: 0.85; animation: draw-4 8s ease-in-out 1.6s infinite; stroke-dasharray: 1042; stroke-dashoffset: 1042;}
@keyframes draw-4 { 0% { stroke-dashoffset: 1042; } 38% { stroke-dashoffset: 0; } 62% { stroke-dashoffset: 0; } 100% { stroke-dashoffset: 1042; }}
</style>
<rect width="800" height="300" rx="8" fill="#0d1117" />
<line x1="50" y1="260.0" x2="780" y2="260.0" class="grid-line" />
<text x="44" y="264.0" text-anchor="end" class="axis-text">-2.1</text>
<line x1="50" y1="216.0" x2="780" y2="216.0" class="grid-line" />
<text x="44" y="220.0" text-anchor="end" class="axis-text">-1.4</text>
<line x1="50" y1="172.0" x2="780" y2="172.0" class="grid-line" />
<text x="44" y="176.0" text-anchor="end" class="axis-text">-0.6</text>
<line x1="50" y1="128.0" x2="780" y2="128.0" class="grid-line" />
<text x="44" y="132.0" text-anchor="end" class="axis-text">0.1</text>
<line x1="50" y1="84.0" x2="780" y2="84.0" class="grid-line" />
<text x="44" y="88.0" text-anchor="end" class="axis-text">0.8</text>
<line x1="50" y1="40.0" x2="780" y2="40.0" class="grid-line" />
<text x="44" y="44.0" text-anchor="end" class="axis-text">1.5</text>
<line x1="50.0" y1="40" x2="50.0" y2="260" class="grid-line" />
<line x1="196.0" y1="40" x2="196.0" y2="260" class="grid-line" />
<line x1="342.0" y1="40" x2="342.0" y2="260" class="grid-line" />
<line x1="488.0" y1="40" x2="488.0" y2="260" class="grid-line" />
<line x1="634.0" y1="40" x2="634.0" y2="260" class="grid-line" />
<line x1="780.0" y1="40" x2="780.0" y2="260" class="grid-line" />
<line x1="50" y1="260" x2="780" y2="260" class="axis-line" />
<line x1="50" y1="40" x2="50" y2="260" class="axis-line" />
<text x="400.0" y="295" text-anchor="middle" class="axis-text">t</text>
<text x="12" y="150.0" text-anchor="middle" class="axis-text" transform="rotate(-90 12 150.0)">W(t)</text>
<text x="400.0" y="22" text-anchor="middle" class="title-text">Brownian Motion</text>
<path d="M 50.00 132.33 L 53.65 131.19 L 57.30 124.74 L 60.95 125.53 L 64.60 130.53 L 68.25 122.66 L 71.90 122.52 L 75.55 123.59 L 79.20 130.37 L 82.85 135.10 L 86.50 131.59 L 90.15 134.71 L 93.80 131.62 L 97.45 135.94 L 101.10 135.31 L 104.75 139.43 L 108.40 137.32 L 112.05 141.38 L 115.70 141.49 L 119.35 143.44 L 123.00 145.68 L 126.65 146.17 L 130.30 156.37 L 133.95 158.85 L 137.60 156.52 L 141.25 156.66 L 144.90 158.36 L 148.55 162.07 L 152.20 161.36 L 155.85 158.88 L 159.50 164.36 L 163.15 163.19 L 166.80 170.96 L 170.45 173.73 L 174.10 172.43 L 177.75 183.23 L 181.40 189.11 L 185.05 194.10 L 188.70 188.31 L 192.35 181.82 L 196.00 174.36 L 199.65 169.84 L 203.30 174.95 L 206.95 175.99 L 210.60 175.17 L 214.25 179.04 L 217.90 164.31 L 221.55 166.01 L 225.20 163.07 L 228.85 164.74 L 232.50 162.42 L 236.15 158.62 L 239.80 157.50 L 243.45 157.03 L 247.10 156.67 L 250.75 154.27 L 254.40 155.28 L 258.05 159.68 L 261.70 158.06 L 265.35 163.71 L 269.00 160.30 L 272.65 163.66 L 276.30 166.74 L 279.95 165.98 L 283.60 163.32 L 287.25 166.07 L 290.90 167.39 L 294.55 168.00 L 298.20 170.82 L 301.85 166.68 L 305.50 170.71 L 309.15 171.10 L 312.80 165.26 L 316.45 156.84 L 320.10 165.20 L 323.75 168.36 L 327.40 168.31 L 331.05 169.78 L 334.70 174.76 L 338.35 181.59 L 342.00 185.52 L 345.65 191.06 L 349.30 190.41 L 352.95 190.43 L 356.60 191.69 L 360.25 192.62 L 363.90 193.87 L 367.55 199.27 L 371.20 197.35 L 374.85 197.57 L 378.50 189.46 L 382.15 193.66 L 385.80 193.81 L 389.45 187.00 L 393.10 175.90 L 396.75 177.81 L 400.40 181.18 L 404.05 176.66 L 407.70 185.97 L 411.35 185.59 L 415.00 189.77 L 418.65 187.57 L 422.30 182.96 L 425.95 177.50 L 429.60 182.27 L 433.25 181.44 L 436.90 172.20 L 440.55 170.28 L 444.20 168.89 L 447.85 167.88 L 451.50 172.30 L 455.15 171.82 L 458.80 172.79 L 462.45 175.13 L 466.10 174.92 L 469.75 168.60 L 473.40 168.14 L 477.05 166.04 L 480.70 161.38 L 484.35 161.47 L 488.00 163.45 L 491.65 163.61 L 495.30 159.44 L 498.95 162.61 L 502.60 161.56 L 506.25 167.27 L 509.90 163.41 L 513.55 165.14 L 517.20 168.02 L 520.85 157.24 L 524.50 158.37 L 528.15 164.93 L 531.80 161.01 L 535.45 158.81 L 539.10 165.79 L 542.75 167.56 L 546.40 161.41 L 550.05 163.41 L 553.70 163.36 L 557.35 160.81 L 561.00 163.33 L 564.65 159.90 L 568.30 164.30 L 571.95 164.63 L 575.60 157.84 L 579.25 161.23 L 582.90 159.53 L 586.55 159.38 L 590.20 162.45 L 593.85 162.06 L 597.50 165.97 L 601.15 154.46 L 604.80 151.81 L 608.45 153.10 L 612.10 158.37 L 615.75 154.32 L 619.40 151.78 L 623.05 145.96 L 626.70 145.87 L 630.35 150.43 L 634.00 152.99 L 637.65 155.60 L 641.30 154.20 L 644.95 152.83 L 648.60 151.82 L 652.25 149.98 L 655.90 155.24 L 659.55 156.05 L 663.20 155.77 L 666.85 155.53 L 670.50 151.36 L 674.15 151.61 L 677.80 151.65 L 681.45 148.69 L 685.10 143.66 L 688.75 143.19 L 692.40 149.17 L 696.05 149.03 L 699.70 149.77 L 703.35 147.44 L 707.00 144.01 L 710.65 139.28 L 714.30 137.36 L 717.95 141.00 L 721.60 134.46 L 725.25 143.39 L 728.90 136.10 L 732.55 134.13 L 736.20 125.45 L 739.85 118.98 L 743.50 121.00 L 747.15 123.80 L 750.80 121.31 L 754.45 120.83 L 758.10 116.05 L 761.75 111.05 L 765.40 106.74 L 769.05 113.89 L 772.70 115.53 L 776.35 122.04 L 780.00 110.12" class="path-0" />
<path d="M 50.00 132.33 L 53.65 127.43 L 57.30 124.33 L 60.95 123.97 L 64.60 123.75 L 68.25 115.78 L 71.90 112.76 L 75.55 111.38 L 79.20 114.12 L 82.85 120.29 L 86.50 130.31 L 90.15 124.49 L 93.80 125.57 L 97.45 123.88 L 101.10 124.77 L 104.75 120.84 L 108.40 113.03 L 112.05 111.21 L 115.70 116.92 L 119.35 116.19 L 123.00 124.01 L 126.65 127.32 L 130.30 120.15 L 133.95 118.91 L 137.60 118.17 L 141.25 117.96 L 144.90 117.76 L 148.55 126.30 L 152.20 125.27 L 155.85 124.45 L 159.50 119.60 L 163.15 125.52 L 166.80 126.00 L 170.45 130.04 L 174.10 130.21 L 177.75 127.80 L 181.40 135.49 L 185.05 146.48 L 188.70 150.59 L 192.35 156.93 L 196.00 152.24 L 199.65 150.18 L 203.30 146.56 L 206.95 144.74 L 210.60 142.91 L 214.25 145.98 L 217.90 146.31 L 221.55 137.94 L 225.20 137.72 L 228.85 139.33 L 232.50 146.65 L 236.15 143.01 L 239.80 145.14 L 243.45 148.83 L 247.10 142.88 L 250.75 147.49 L 254.40 150.48 L 258.05 150.44 L 261.70 158.78 L 265.35 153.37 L 269.00 156.91 L 272.65 149.72 L 276.30 145.29 L 279.95 154.63 L 283.60 147.49 L 287.25 139.32 L 290.90 139.39 L 294.55 135.25 L 298.20 131.09 L 301.85 128.96 L 305.50 133.32 L 309.15 132.81 L 312.80 131.68 L 316.45 131.94 L 320.10 131.19 L 323.75 133.60 L 327.40 132.54 L 331.05 130.65 L 334.70 139.72 L 338.35 143.57 L 342.00 144.64 L 345.65 134.35 L 349.30 134.53 L 352.95 138.36 L 356.60 135.41 L 360.25 140.33 L 363.90 139.24 L 367.55 143.64 L 371.20 152.55 L 374.85 146.42 L 378.50 145.59 L 382.15 143.40 L 385.80 139.38 L 389.45 142.01 L 393.10 144.51 L 396.75 135.95 L 400.40 133.48 L 404.05 133.07 L 407.70 134.26 L 411.35 138.55 L 415.00 133.09 L 418.65 133.72 L 422.30 132.09 L 425.95 122.52 L 429.60 122.66 L 433.25 120.90 L 436.90 123.94 L 440.55 121.70 L 444.20 112.61 L 447.85 116.27 L 451.50 119.34 L 455.15 124.05 L 458.80 125.05 L 462.45 127.36 L 466.10 116.84 L 469.75 119.07 L 473.40 115.02 L 477.05 113.98 L 480.70 112.92 L 484.35 112.57 L 488.00 112.79 L 491.65 121.45 L 495.30 119.61 L 498.95 119.02 L 502.60 118.38 L 506.25 121.35 L 509.90 117.16 L 513.55 107.97 L 517.20 111.21 L 520.85 110.47 L 524.50 109.03 L 528.15 109.57 L 531.80 108.33 L 535.45 112.62 L 539.10 114.42 L 542.75 113.22 L 546.40 105.74 L 550.05 108.31 L 553.70 108.55 L 557.35 108.99 L 561.00 113.27 L 564.65 115.55 L 568.30 116.04 L 571.95 115.48 L 575.60 112.97 L 579.25 107.74 L 582.90 109.28 L 586.55 117.60 L 590.20 120.28 L 593.85 123.54 L 597.50 122.17 L 601.15 122.62 L 604.80 122.00 L 608.45 119.09 L 612.10 118.72 L 615.75 110.60 L 619.40 111.94 L 623.05 104.78 L 626.70 109.12 L 630.35 115.75 L 634.00 116.42 L 637.65 119.75 L 641.30 112.41 L 644.95 109.99 L 648.60 113.40 L 652.25 113.10 L 655.90 113.11 L 659.55 107.74 L 663.20 109.99 L 666.85 107.20 L 670.50 109.26 L 674.15 110.71 L 677.80 113.02 L 681.45 114.42 L 685.10 116.08 L 688.75 117.40 L 692.40 118.68 L 696.05 120.36 L 699.70 122.23 L 703.35 116.84 L 707.00 116.00 L 710.65 113.24 L 714.30 101.46 L 717.95 97.89 L 721.60 97.39 L 725.25 93.46 L 728.90 93.73 L 732.55 92.87 L 736.20 86.77 L 739.85 86.04 L 743.50 85.44 L 747.15 79.61 L 750.80 80.24 L 754.45 87.54 L 758.10 82.15 L 761.75 81.51 L 765.40 79.33 L 769.05 78.82 L 772.70 75.97 L 776.35 70.53 L 780.00 65.38" class="path-1" />
<path d="M 50.00 132.33 L 53.65 129.18 L 57.30 126.71 L 60.95 124.56 L 64.60 126.22 L 68.25 123.19 L 71.90 112.67 L 75.55 114.38 L 79.20 120.08 L 82.85 123.26 L 86.50 117.02 L 90.15 109.41 L 93.80 104.48 L 97.45 102.98 L 101.10 102.73 L 104.75 114.12 L 108.40 117.92 L 112.05 120.51 L 115.70 113.90 L 119.35 122.69 L 123.00 119.58 L 126.65 120.67 L 130.30 122.34 L 133.95 123.11 L 137.60 126.92 L 141.25 120.48 L 144.90 121.56 L 148.55 125.27 L 152.20 124.10 L 155.85 120.41 L 159.50 120.67 L 163.15 117.90 L 166.80 115.67 L 170.45 120.55 L 174.10 119.94 L 177.75 121.11 L 181.40 129.72 L 185.05 125.74 L 188.70 128.23 L 192.35 131.28 L 196.00 128.21 L 199.65 131.26 L 203.30 129.91 L 206.95 128.26 L 210.60 129.43 L 214.25 140.86 L 217.90 146.43 L 221.55 146.56 L 225.20 152.50 L 228.85 149.32 L 232.50 143.83 L 236.15 142.06 L 239.80 142.87 L 243.45 144.13 L 247.10 145.07 L 250.75 142.38 L 254.40 147.59 L 258.05 150.62 L 261.70 153.70 L 265.35 155.45 L 269.00 155.23 L 272.65 155.30 L 276.30 160.48 L 279.95 155.97 L 283.60 151.94 L 287.25 153.05 L 290.90 158.00 L 294.55 160.63 L 298.20 157.26 L 301.85 156.10 L 305.50 150.22 L 309.15 144.81 L 312.80 140.27 L 316.45 145.03 L 320.10 136.07 L 323.75 138.71 L 327.40 138.37 L 331.05 139.36 L 334.70 137.28 L 338.35 135.07 L 342.00 133.65 L 345.65 131.27 L 349.30 128.62 L 352.95 132.05 L 356.60 131.11 L 360.25 126.88 L 363.90 130.80 L 367.55 127.57 L 371.20 128.80 L 374.85 132.90 L 378.50 140.37 L 382.15 139.60 L 385.80 134.57 L 389.45 137.43 L 393.10 131.73 L 396.75 136.75 L 400.40 132.97 L 404.05 140.11 L 407.70 135.65 L 411.35 133.73 L 415.00 131.97 L 418.65 124.02 L 422.30 120.86 L 425.95 114.48 L 429.60 122.45 L 433.25 126.81 L 436.90 125.58 L 440.55 129.23 L 444.20 130.42 L 447.85 137.52 L 451.50 144.54 L 455.15 148.13 L 458.80 151.81 L 462.45 151.07 L 466.10 154.94 L 469.75 155.59 L 473.40 163.59 L 477.05 168.25 L 480.70 167.09 L 484.35 162.49 L 488.00 164.13 L 491.65 163.82 L 495.30 164.39 L 498.95 166.84 L 502.60 168.52 L 506.25 175.08 L 509.90 174.79 L 513.55 171.48 L 517.20 169.89 L 520.85 179.99 L 524.50 175.33 L 528.15 178.97 L 531.80 174.79 L 535.45 173.43 L 539.10 176.71 L 542.75 179.06 L 546.40 172.33 L 550.05 170.58 L 553.70 173.16 L 557.35 165.63 L 561.00 164.49 L 564.65 163.72 L 568.30 162.57 L 571.95 166.74 L 575.60 170.60 L 579.25 178.80 L 582.90 170.05 L 586.55 172.32 L 590.20 176.09 L 593.85 172.44 L 597.50 166.56 L 601.15 169.41 L 604.80 173.31 L 608.45 176.41 L 612.10 178.55 L 615.75 180.46 L 619.40 189.14 L 623.05 188.36 L 626.70 185.97 L 630.35 191.23 L 634.00 184.89 L 637.65 188.83 L 641.30 191.66 L 644.95 198.44 L 648.60 204.11 L 652.25 206.85 L 655.90 202.33 L 659.55 203.51 L 663.20 206.40 L 666.85 208.99 L 670.50 209.77 L 674.15 210.19 L 677.80 216.50 L 681.45 215.54 L 685.10 217.84 L 688.75 211.71 L 692.40 205.58 L 696.05 206.88 L 699.70 204.34 L 703.35 202.44 L 707.00 197.41 L 710.65 194.36 L 714.30 191.04 L 717.95 196.97 L 721.60 200.40 L 725.25 200.78 L 728.90 201.47 L 732.55 205.06 L 736.20 202.48 L 739.85 207.99 L 743.50 213.55 L 747.15 216.37 L 750.80 218.00 L 754.45 222.58 L 758.10 220.62 L 761.75 220.46 L 765.40 224.94 L 769.05 229.38 L 772.70 232.42 L 776.35 234.62 L 780.00 232.51" class="path-2" />
<path d="M 50.00 132.33 L 53.65 136.74 L 57.30 139.65 L 60.95 137.02 L 64.60 134.16 L 68.25 138.44 L 71.90 137.00 L 75.55 140.57 L 79.20 144.40 L 82.85 136.06 L 86.50 141.15 L 90.15 136.36 L 93.80 135.40 L 97.45 135.49 L 101.10 128.43 L 104.75 131.88 L 108.40 132.22 L 112.05 127.86 L 115.70 132.15 L 119.35 140.10 L 123.00 146.17 L 126.65 135.92 L 130.30 132.97 L 133.95 130.00 L 137.60 126.15 L 141.25 121.47 L 144.90 123.38 L 148.55 132.86 L 152.20 130.00 L 155.85 127.72 L 159.50 125.22 L 163.15 120.35 L 166.80 118.92 L 170.45 116.78 L 174.10 118.63 L 177.75 119.39 L 181.40 122.04 L 185.05 131.17 L 188.70 133.28 L 192.35 129.13 L 196.00 129.59 L 199.65 134.16 L 203.30 131.91 L 206.95 135.63 L 210.60 132.38 L 214.25 129.49 L 217.90 135.90 L 221.55 131.32 L 225.20 135.33 L 228.85 134.35 L 232.50 136.26 L 236.15 137.07 L 239.80 145.45 L 243.45 141.24 L 247.10 142.56 L 250.75 144.08 L 254.40 136.39 L 258.05 132.53 L 261.70 133.23 L 265.35 123.18 L 269.00 114.67 L 272.65 115.51 L 276.30 117.91 L 279.95 108.65 L 283.60 108.51 L 287.25 117.23 L 290.90 114.12 L 294.55 107.95 L 298.20 113.07 L 301.85 107.53 L 305.50 111.26 L 309.15 104.24 L 312.80 103.48 L 316.45 105.41 L 320.10 101.53 L 323.75 97.25 L 327.40 96.61 L 331.05 91.67 L 334.70 93.82 L 338.35 87.79 L 342.00 89.56 L 345.65 88.41 L 349.30 93.37 L 352.95 99.22 L 356.60 107.99 L 360.25 117.54 L 363.90 118.21 L 367.55 118.87 L 371.20 127.24 L 374.85 124.22 L 378.50 120.05 L 382.15 123.18 L 385.80 120.61 L 389.45 121.38 L 393.10 119.40 L 396.75 117.08 L 400.40 111.69 L 404.05 113.31 L 407.70 113.12 L 411.35 116.18 L 415.00 117.01 L 418.65 117.09 L 422.30 115.11 L 425.95 112.26 L 429.60 107.12 L 433.25 105.26 L 436.90 107.84 L 440.55 111.95 L 444.20 114.83 L 447.85 114.05 L 451.50 113.32 L 455.15 114.47 L 458.80 117.81 L 462.45 116.68 L 466.10 122.65 L 469.75 120.46 L 473.40 121.37 L 477.05 128.28 L 480.70 126.55 L 484.35 123.34 L 488.00 120.14 L 491.65 115.87 L 495.30 107.56 L 498.95 106.99 L 502.60 105.24 L 506.25 105.15 L 509.90 117.36 L 513.55 113.87 L 517.20 117.56 L 520.85 110.15 L 524.50 107.26 L 528.15 111.76 L 531.80 111.96 L 535.45 104.76 L 539.10 108.43 L 542.75 112.15 L 546.40 108.81 L 550.05 107.71 L 553.70 113.76 L 557.35 114.24 L 561.00 115.32 L 564.65 110.99 L 568.30 109.27 L 571.95 100.26 L 575.60 104.76 L 579.25 109.05 L 582.90 107.50 L 586.55 104.71 L 590.20 104.60 L 593.85 104.21 L 597.50 103.23 L 601.15 104.85 L 604.80 101.25 L 608.45 104.14 L 612.10 105.52 L 615.75 108.82 L 619.40 110.78 L 623.05 110.58 L 626.70 111.09 L 630.35 111.89 L 634.00 115.90 L 637.65 108.71 L 641.30 105.72 L 644.95 110.17 L 648.60 109.52 L 652.25 107.74 L 655.90 105.59 L 659.55 111.37 L 663.20 108.44 L 666.85 113.73 L 670.50 110.30 L 674.15 109.91 L 677.80 111.07 L 681.45 108.06 L 685.10 105.29 L 688.75 112.43 L 692.40 117.18 L 696.05 120.63 L 699.70 117.48 L 703.35 118.43 L 707.00 122.43 L 710.65 120.11 L 714.30 119.27 L 717.95 120.26 L 721.60 129.70 L 725.25 120.92 L 728.90 117.73 L 732.55 118.67 L 736.20 115.18 L 739.85 105.91 L 743.50 109.55 L 747.15 110.90 L 750.80 119.01 L 754.45 123.86 L 758.10 123.85 L 761.75 119.05 L 765.40 124.29 L 769.05 120.94 L 772.70 126.89 L 776.35 124.40 L 780.00 119.88" class="path-3" />
<path d="M 50.00 132.33 L 53.65 137.54 L 57.30 131.81 L 60.95 132.92 L 64.60 129.44 L 68.25 139.62 L 71.90 145.26 L 75.55 147.67 L 79.20 149.49 L 82.85 146.44 L 86.50 142.60 L 90.15 138.97 L 93.80 132.48 L 97.45 136.70 L 101.10 133.10 L 104.75 132.36 L 108.40 128.18 L 112.05 129.69 L 115.70 135.65 L 119.35 143.70 L 123.00 137.60 L 126.65 141.11 L 130.30 146.06 L 133.95 144.80 L 137.60 144.26 L 141.25 146.93 L 144.90 150.78 L 148.55 151.91 L 152.20 148.88 L 155.85 142.71 L 159.50 150.38 L 163.15 149.45 L 166.80 144.89 L 170.45 146.08 L 174.10 143.40 L 177.75 144.44 L 181.40 134.81 L 185.05 128.40 L 188.70 131.16 L 192.35 124.86 L 196.00 128.25 L 199.65 125.07 L 203.30 129.29 L 206.95 129.21 L 210.60 128.72 L 214.25 130.52 L 217.90 132.99 L 221.55 133.06 L 225.20 136.18 L 228.85 138.28 L 232.50 141.91 L 236.15 141.15 L 239.80 142.94 L 243.45 144.51 L 247.10 144.48 L 250.75 145.91 L 254.40 144.44 L 258.05 143.89 L 261.70 142.63 L 265.35 143.53 L 269.00 147.68 L 272.65 147.23 L 276.30 149.89 L 279.95 155.21 L 283.60 149.26 L 287.25 155.61 L 290.90 156.26 L 294.55 156.67 L 298.20 160.02 L 301.85 152.39 L 305.50 148.84 L 309.15 150.76 L 312.80 151.87 L 316.45 151.28 L 320.10 150.06 L 323.75 154.69 L 327.40 158.12 L 331.05 166.95 L 334.70 167.07 L 338.35 166.58 L 342.00 161.05 L 345.65 163.81 L 349.30 164.67 L 352.95 173.57 L 356.60 167.67 L 360.25 162.75 L 363.90 157.92 L 367.55 151.38 L 371.20 145.77 L 374.85 150.24 L 378.50 151.03 L 382.15 155.27 L 385.80 154.32 L 389.45 154.39 L 393.10 150.40 L 396.75 148.83 L 400.40 144.72 L 404.05 139.34 L 407.70 144.53 L 411.35 146.61 L 415.00 145.51 L 418.65 145.51 L 422.30 144.36 L 425.95 143.47 L 429.60 140.43 L 433.25 138.12 L 436.90 148.59 L 440.55 150.78 L 444.20 156.13 L 447.85 160.16 L 451.50 160.20 L 455.15 161.44 L 458.80 159.15 L 462.45 157.53 L 466.10 150.65 L 469.75 159.52 L 473.40 152.48 L 477.05 152.11 L 480.70 150.52 L 484.35 153.04 L 488.00 155.44 L 491.65 158.45 L 495.30 158.03 L 498.95 157.30 L 502.60 158.57 L 506.25 162.24 L 509.90 162.47 L 513.55 167.59 L 517.20 167.54 L 520.85 167.47 L 524.50 169.79 L 528.15 169.69 L 531.80 167.52 L 535.45 171.55 L 539.10 167.45 L 542.75 167.87 L 546.40 167.71 L 550.05 168.82 L 553.70 170.09 L 557.35 167.66 L 561.00 169.70 L 564.65 172.48 L 568.30 170.72 L 571.95 174.37 L 575.60 176.17 L 579.25 170.76 L 582.90 172.62 L 586.55 169.08 L 590.20 166.29 L 593.85 169.03 L 597.50 170.16 L 601.15 170.23 L 604.80 172.39 L 608.45 168.51 L 612.10 161.18 L 615.75 160.68 L 619.40 163.14 L 623.05 159.67 L 626.70 162.00 L 630.35 161.31 L 634.00 161.73 L 637.65 158.23 L 641.30 158.24 L 644.95 163.48 L 648.60 162.35 L 652.25 161.82 L 655.90 175.45 L 659.55 175.53 L 663.20 177.69 L 666.85 175.83 L 670.50 183.67 L 674.15 187.36 L 677.80 189.93 L 681.45 187.43 L 685.10 187.18 L 688.75 181.23 L 692.40 184.84 L 696.05 180.66 L 699.70 175.14 L 703.35 176.91 L 707.00 170.45 L 710.65 162.02 L 714.30 166.13 L 717.95 157.09 L 721.60 155.79 L 725.25 155.24 L 728.90 162.91 L 732.55 162.78 L 736.20 163.65 L 739.85 166.77 L 743.50 164.26 L 747.15 167.27 L 750.80 163.25 L 754.45 155.22 L 758.10 150.78 L 761.75 147.05 L 765.40 151.57 L 769.05 155.26 L 772.70 161.59 L 776.35 160.43 L 780.00 158.19" class="path-4" />
<line x1="50" y1="132.3" x2="780" y2="132.3" stroke="#4b5563" stroke-width="0.8" stroke-dasharray="6 3" />
</svg>