<svg xmlns="http://www.w3.org/2000/svg" viewBox="0 0 800 300" width="800" height="300">
<style>
.axis-line { stroke: #6b7280; stroke-width: 0.5; }
.axis-text { font-family: monospace; font-size: 11px; fill: #9ca3af; }
.title-text { font-family: monospace; font-size: 14px; fill: #d1d5db; font-weight: bold; }
.grid-line { stroke: #374151; stroke-width: 0.3; stroke-dasharray: 4 2; }
.path-0 { fill: none; stroke: #3b82f6; stroke-width: 2; stroke-linecap: round; opacity: 0.85; animation: draw-0 8s ease-in-out 0.0s infinite; stroke-dasharray: 854; stroke-dashoffset: 854;}
@keyframes draw-0 { 0% { stroke-dashoffset: 854; } 38% { stroke-dashoffset: 0; } 62% { stroke-dashoffset: 0; } 100% { stroke-dashoffset: 854; }}
.path-1 { fill: none; stroke: #ef4444; stroke-width: 2; stroke-linecap: round; opacity: 0.85; animation: draw-1 8s ease-in-out 0.4s infinite; stroke-dasharray: 863; stroke-dashoffset: 863;}
@keyframes draw-1 { 0% { stroke-dashoffset: 863; } 38% { stroke-dashoffset: 0; } 62% { stroke-dashoffset: 0; } 100% { stroke-dashoffset: 863; }}
.path-2 { fill: none; stroke: #22c55e; stroke-width: 2; stroke-linecap: round; opacity: 0.85; animation: draw-2 8s ease-in-out 0.8s infinite; stroke-dasharray: 862; stroke-dashoffset: 862;}
@keyframes draw-2 { 0% { stroke-dashoffset: 862; } 38% { stroke-dashoffset: 0; } 62% { stroke-dashoffset: 0; } 100% { stroke-dashoffset: 862; }}
.path-3 { fill: none; stroke: #f59e0b; stroke-width: 2; stroke-linecap: round; opacity: 0.85; animation: draw-3 8s ease-in-out 1.2000000000000002s infinite; stroke-dasharray: 873; stroke-dashoffset: 873;}
@keyframes draw-3 { 0% { stroke-dashoffset: 873; } 38% { stroke-dashoffset: 0; } 62% { stroke-dashoffset: 0; } 100% { stroke-dashoffset: 873; }}
.path-4 { fill: none; stroke: #a855f7; stroke-width: 2; stroke-linecap: round; opacity: 0.85; animation: draw-4 8s ease-in-out 1.6s infinite; stroke-dasharray: 853; stroke-dashoffset: 853;}
@keyframes draw-4 { 0% { stroke-dashoffset: 853; } 38% { stroke-dashoffset: 0; } 62% { stroke-dashoffset: 0; } 100% { stroke-dashoffset: 853; }}
</style>
<rect width="800" height="300" rx="8" fill="#0d1117" />
<line x1="50" y1="260.0" x2="780" y2="260.0" class="grid-line" />
<text x="44" y="264.0" text-anchor="end" class="axis-text">-2.7</text>
<line x1="50" y1="216.0" x2="780" y2="216.0" class="grid-line" />
<text x="44" y="220.0" text-anchor="end" class="axis-text">-1.3</text>
<line x1="50" y1="172.0" x2="780" y2="172.0" class="grid-line" />
<text x="44" y="176.0" text-anchor="end" class="axis-text">0.1</text>
<line x1="50" y1="128.0" x2="780" y2="128.0" class="grid-line" />
<text x="44" y="132.0" text-anchor="end" class="axis-text">1.5</text>
<line x1="50" y1="84.0" x2="780" y2="84.0" class="grid-line" />
<text x="44" y="88.0" text-anchor="end" class="axis-text">2.9</text>
<line x1="50" y1="40.0" x2="780" y2="40.0" class="grid-line" />
<text x="44" y="44.0" text-anchor="end" class="axis-text">4.3</text>
<line x1="50.0" y1="40" x2="50.0" y2="260" class="grid-line" />
<line x1="196.0" y1="40" x2="196.0" y2="260" class="grid-line" />
<line x1="342.0" y1="40" x2="342.0" y2="260" class="grid-line" />
<line x1="488.0" y1="40" x2="488.0" y2="260" class="grid-line" />
<line x1="634.0" y1="40" x2="634.0" y2="260" class="grid-line" />
<line x1="780.0" y1="40" x2="780.0" y2="260" class="grid-line" />
<line x1="50" y1="260" x2="780" y2="260" class="axis-line" />
<line x1="50" y1="40" x2="50" y2="260" class="axis-line" />
<text x="400.0" y="295" text-anchor="middle" class="axis-text">t</text>
<text x="12" y="150.0" text-anchor="middle" class="axis-text" transform="rotate(-90 12 150.0)">W(t)</text>
<text x="400.0" y="22" text-anchor="middle" class="title-text">Brownian Motion</text>
<path d="M 50.00 173.79 L 53.65 175.84 L 57.30 179.58 L 60.95 178.67 L 64.60 182.61 L 68.25 180.39 L 71.90 178.97 L 75.55 178.49 L 79.20 179.66 L 82.85 181.65 L 86.50 181.70 L 90.15 182.51 L 93.80 180.15 L 97.45 181.78 L 101.10 185.68 L 104.75 186.26 L 108.40 185.98 L 112.05 186.91 L 115.70 184.65 L 119.35 184.96 L 123.00 187.11 L 126.65 182.62 L 130.30 181.86 L 133.95 181.88 L 137.60 180.12 L 141.25 180.76 L 144.90 180.59 L 148.55 180.21 L 152.20 177.45 L 155.85 178.63 L 159.50 181.54 L 163.15 179.29 L 166.80 183.83 L 170.45 183.05 L 174.10 183.58 L 177.75 181.53 L 181.40 182.28 L 185.05 180.40 L 188.70 178.56 L 192.35 181.14 L 196.00 181.72 L 199.65 180.02 L 203.30 183.14 L 206.95 188.44 L 210.60 189.12 L 214.25 187.14 L 217.90 188.44 L 221.55 189.93 L 225.20 190.04 L 228.85 189.09 L 232.50 192.20 L 236.15 191.06 L 239.80 190.65 L 243.45 191.40 L 247.10 188.89 L 250.75 187.90 L 254.40 182.63 L 258.05 182.67 L 261.70 186.70 L 265.35 191.10 L 269.00 192.05 L 272.65 190.35 L 276.30 188.58 L 279.95 185.11 L 283.60 188.45 L 287.25 187.51 L 290.90 185.41 L 294.55 183.01 L 298.20 183.75 L 301.85 185.62 L 305.50 186.40 L 309.15 187.54 L 312.80 184.67 L 316.45 184.30 L 320.10 183.94 L 323.75 181.76 L 327.40 181.23 L 331.05 177.45 L 334.70 174.96 L 338.35 179.29 L 342.00 179.31 L 345.65 179.52 L 349.30 182.07 L 352.95 178.40 L 356.60 176.21 L 360.25 178.93 L 363.90 181.50 L 367.55 180.94 L 371.20 176.61 L 374.85 173.20 L 378.50 177.31 L 382.15 174.73 L 385.80 173.40 L 389.45 178.51 L 393.10 180.95 L 396.75 184.96 L 400.40 184.44 L 404.05 185.74 L 407.70 186.47 L 411.35 183.86 L 415.00 183.84 L 418.65 186.82 L 422.30 187.72 L 425.95 189.70 L 429.60 188.64 L 433.25 187.16 L 436.90 184.25 L 440.55 183.92 L 444.20 184.92 L 447.85 188.84 L 451.50 187.64 L 455.15 187.06 L 458.80 187.04 L 462.45 185.11 L 466.10 184.94 L 469.75 183.55 L 473.40 184.49 L 477.05 180.74 L 480.70 181.87 L 484.35 181.38 L 488.00 181.41 L 491.65 180.23 L 495.30 179.63 L 498.95 176.63 L 502.60 176.04 L 506.25 174.74 L 509.90 174.22 L 513.55 172.82 L 517.20 174.30 L 520.85 176.60 L 524.50 177.12 L 528.15 178.52 L 531.80 179.35 L 535.45 179.53 L 539.10 176.83 L 542.75 179.27 L 546.40 179.09 L 550.05 177.60 L 553.70 172.50 L 557.35 170.85 L 561.00 169.93 L 564.65 169.17 L 568.30 173.58 L 571.95 175.24 L 575.60 171.72 L 579.25 174.00 L 582.90 178.65 L 586.55 178.95 L 590.20 179.50 L 593.85 183.93 L 597.50 183.27 L 601.15 183.89 L 604.80 183.81 L 608.45 185.65 L 612.10 185.43 L 615.75 185.38 L 619.40 186.30 L 623.05 186.82 L 626.70 186.75 L 630.35 184.86 L 634.00 180.48 L 637.65 178.27 L 641.30 178.25 L 644.95 176.25 L 648.60 181.20 L 652.25 178.11 L 655.90 175.27 L 659.55 174.14 L 663.20 172.39 L 666.85 175.13 L 670.50 176.16 L 674.15 177.53 L 677.80 175.39 L 681.45 174.93 L 685.10 177.98 L 688.75 177.41 L 692.40 172.69 L 696.05 173.95 L 699.70 170.92 L 703.35 170.00 L 707.00 168.67 L 710.65 172.76 L 714.30 168.96 L 717.95 168.47 L 721.60 168.35 L 725.25 170.70 L 728.90 170.90 L 732.55 166.50 L 736.20 167.48 L 739.85 165.23 L 743.50 166.30 L 747.15 166.02 L 750.80 168.46 L 754.45 166.87 L 758.10 167.02 L 761.75 170.06 L 765.40 169.02 L 769.05 169.00 L 772.70 169.42 L 776.35 169.91 L 780.00 170.99" class="path-0" />
<path d="M 50.00 173.79 L 53.65 173.73 L 57.30 168.18 L 60.95 164.71 L 64.60 161.09 L 68.25 157.77 L 71.90 160.51 L 75.55 159.89 L 79.20 161.10 L 82.85 161.66 L 86.50 164.61 L 90.15 166.37 L 93.80 169.28 L 97.45 168.84 L 101.10 169.83 L 104.75 174.04 L 108.40 175.50 L 112.05 175.42 L 115.70 172.21 L 119.35 172.98 L 123.00 172.42 L 126.65 173.09 L 130.30 171.88 L 133.95 171.35 L 137.60 172.77 L 141.25 172.87 L 144.90 167.72 L 148.55 163.87 L 152.20 161.13 L 155.85 161.19 L 159.50 155.88 L 163.15 154.56 L 166.80 149.83 L 170.45 152.33 L 174.10 153.43 L 177.75 156.78 L 181.40 155.99 L 185.05 154.17 L 188.70 153.17 L 192.35 155.19 L 196.00 155.06 L 199.65 151.71 L 203.30 148.92 L 206.95 149.61 L 210.60 151.28 L 214.25 150.39 L 217.90 145.16 L 221.55 145.20 L 225.20 146.11 L 228.85 142.51 L 232.50 140.68 L 236.15 142.71 L 239.80 145.00 L 243.45 142.59 L 247.10 142.23 L 250.75 143.83 L 254.40 144.18 L 258.05 142.15 L 261.70 139.56 L 265.35 137.21 L 269.00 133.05 L 272.65 133.11 L 276.30 134.51 L 279.95 135.26 L 283.60 131.57 L 287.25 134.69 L 290.90 133.57 L 294.55 131.17 L 298.20 134.96 L 301.85 131.57 L 305.50 132.55 L 309.15 134.14 L 312.80 129.26 L 316.45 127.48 L 320.10 128.04 L 323.75 124.13 L 327.40 121.57 L 331.05 119.84 L 334.70 118.36 L 338.35 118.37 L 342.00 115.50 L 345.65 114.40 L 349.30 111.81 L 352.95 109.91 L 356.60 111.42 L 360.25 108.81 L 363.90 111.83 L 367.55 110.26 L 371.20 110.06 L 374.85 110.97 L 378.50 111.40 L 382.15 109.97 L 385.80 105.85 L 389.45 105.91 L 393.10 104.88 L 396.75 105.06 L 400.40 102.60 L 404.05 104.19 L 407.70 105.16 L 411.35 103.56 L 415.00 102.75 L 418.65 103.13 L 422.30 102.56 L 425.95 100.73 L 429.60 95.55 L 433.25 93.60 L 436.90 94.98 L 440.55 93.60 L 444.20 92.01 L 447.85 95.17 L 451.50 97.19 L 455.15 93.92 L 458.80 96.90 L 462.45 96.75 L 466.10 92.81 L 469.75 95.43 L 473.40 95.82 L 477.05 96.10 L 480.70 97.12 L 484.35 95.01 L 488.00 98.46 L 491.65 98.63 L 495.30 100.44 L 498.95 100.53 L 502.60 102.84 L 506.25 108.77 L 509.90 109.27 L 513.55 108.81 L 517.20 111.91 L 520.85 110.82 L 524.50 111.85 L 528.15 112.61 L 531.80 117.21 L 535.45 112.86 L 539.10 111.83 L 542.75 112.57 L 546.40 113.94 L 550.05 113.24 L 553.70 112.31 L 557.35 110.85 L 561.00 109.62 L 564.65 108.29 L 568.30 104.95 L 571.95 107.47 L 575.60 105.93 L 579.25 104.13 L 582.90 104.16 L 586.55 101.63 L 590.20 102.99 L 593.85 103.99 L 597.50 102.19 L 601.15 98.41 L 604.80 96.77 L 608.45 99.07 L 612.10 98.12 L 615.75 101.99 L 619.40 101.15 L 623.05 100.76 L 626.70 100.54 L 630.35 97.03 L 634.00 93.61 L 637.65 91.72 L 641.30 93.57 L 644.95 92.12 L 648.60 91.23 L 652.25 89.03 L 655.90 90.35 L 659.55 91.25 L 663.20 89.46 L 666.85 86.07 L 670.50 86.15 L 674.15 84.87 L 677.80 85.29 L 681.45 82.24 L 685.10 82.08 L 688.75 83.56 L 692.40 86.01 L 696.05 86.52 L 699.70 86.08 L 703.35 85.19 L 707.00 83.59 L 710.65 78.57 L 714.30 77.60 L 717.95 74.42 L 721.60 73.09 L 725.25 69.54 L 728.90 67.69 L 732.55 68.24 L 736.20 70.62 L 739.85 69.48 L 743.50 67.66 L 747.15 70.97 L 750.80 70.60 L 754.45 65.38 L 758.10 67.26 L 761.75 68.10 L 765.40 71.71 L 769.05 71.61 L 772.70 73.93 L 776.35 72.27 L 780.00 73.44" class="path-1" />
<path d="M 50.00 173.79 L 53.65 172.37 L 57.30 173.09 L 60.95 171.32 L 64.60 174.23 L 68.25 176.08 L 71.90 174.88 L 75.55 174.18 L 79.20 168.21 L 82.85 168.86 L 86.50 169.94 L 90.15 170.16 L 93.80 173.08 L 97.45 170.53 L 101.10 173.65 L 104.75 172.20 L 108.40 173.19 L 112.05 173.73 L 115.70 177.21 L 119.35 174.75 L 123.00 174.95 L 126.65 177.78 L 130.30 177.13 L 133.95 175.23 L 137.60 174.45 L 141.25 174.73 L 144.90 173.45 L 148.55 176.00 L 152.20 174.45 L 155.85 174.22 L 159.50 172.31 L 163.15 173.17 L 166.80 171.38 L 170.45 172.95 L 174.10 176.13 L 177.75 175.91 L 181.40 174.64 L 185.05 174.23 L 188.70 176.51 L 192.35 173.63 L 196.00 177.66 L 199.65 178.02 L 203.30 181.95 L 206.95 183.45 L 210.60 186.76 L 214.25 187.72 L 217.90 189.50 L 221.55 189.61 L 225.20 190.76 L 228.85 190.43 L 232.50 191.97 L 236.15 191.60 L 239.80 189.67 L 243.45 188.48 L 247.10 189.41 L 250.75 189.24 L 254.40 190.52 L 258.05 184.57 L 261.70 182.80 L 265.35 180.40 L 269.00 179.32 L 272.65 180.93 L 276.30 181.51 L 279.95 183.86 L 283.60 183.57 L 287.25 183.04 L 290.90 186.00 L 294.55 188.08 L 298.20 189.96 L 301.85 187.20 L 305.50 190.74 L 309.15 196.65 L 312.80 197.23 L 316.45 203.91 L 320.10 200.17 L 323.75 201.73 L 327.40 204.56 L 331.05 206.40 L 334.70 203.10 L 338.35 203.03 L 342.00 204.04 L 345.65 205.71 L 349.30 201.97 L 352.95 200.98 L 356.60 204.98 L 360.25 206.40 L 363.90 203.91 L 367.55 202.49 L 371.20 201.11 L 374.85 201.13 L 378.50 203.11 L 382.15 205.45 L 385.80 204.26 L 389.45 203.03 L 393.10 203.48 L 396.75 204.63 L 400.40 206.89 L 404.05 208.81 L 407.70 207.86 L 411.35 207.38 L 415.00 209.62 L 418.65 208.22 L 422.30 208.86 L 425.95 210.40 L 429.60 210.80 L 433.25 210.50 L 436.90 209.67 L 440.55 212.64 L 444.20 214.59 L 447.85 213.56 L 451.50 210.48 L 455.15 203.51 L 458.80 207.22 L 462.45 205.85 L 466.10 209.65 L 469.75 209.38 L 473.40 212.59 L 477.05 213.21 L 480.70 210.94 L 484.35 210.49 L 488.00 209.71 L 491.65 209.47 L 495.30 211.14 L 498.95 213.08 L 502.60 211.79 L 506.25 208.90 L 509.90 204.99 L 513.55 203.29 L 517.20 200.46 L 520.85 204.18 L 524.50 203.99 L 528.15 207.78 L 531.80 211.62 L 535.45 213.51 L 539.10 215.93 L 542.75 218.76 L 546.40 217.37 L 550.05 216.16 L 553.70 217.09 L 557.35 217.15 L 561.00 217.65 L 564.65 218.96 L 568.30 219.96 L 571.95 219.49 L 575.60 219.48 L 579.25 215.49 L 582.90 219.04 L 586.55 218.46 L 590.20 217.35 L 593.85 216.02 L 597.50 217.64 L 601.15 217.23 L 604.80 215.57 L 608.45 212.70 L 612.10 214.14 L 615.75 215.15 L 619.40 218.05 L 623.05 220.10 L 626.70 223.66 L 630.35 222.83 L 634.00 223.82 L 637.65 224.08 L 641.30 229.80 L 644.95 230.36 L 648.60 230.70 L 652.25 225.39 L 655.90 222.77 L 659.55 222.32 L 663.20 221.63 L 666.85 220.21 L 670.50 216.07 L 674.15 219.29 L 677.80 224.18 L 681.45 225.65 L 685.10 225.97 L 688.75 228.93 L 692.40 228.22 L 696.05 225.26 L 699.70 223.44 L 703.35 223.36 L 707.00 224.87 L 710.65 226.10 L 714.30 230.77 L 717.95 233.28 L 721.60 233.71 L 725.25 232.96 L 728.90 233.22 L 732.55 234.62 L 736.20 234.05 L 739.85 233.91 L 743.50 230.41 L 747.15 228.69 L 750.80 232.32 L 754.45 232.52 L 758.10 231.82 L 761.75 230.60 L 765.40 226.85 L 769.05 224.66 L 772.70 230.84 L 776.35 229.78 L 780.00 226.85" class="path-2" />
<path d="M 50.00 173.79 L 53.65 174.15 L 57.30 174.40 L 60.95 168.92 L 64.60 165.08 L 68.25 162.69 L 71.90 160.09 L 75.55 161.82 L 79.20 163.17 L 82.85 166.81 L 86.50 168.12 L 90.15 171.87 L 93.80 170.84 L 97.45 176.29 L 101.10 178.39 L 104.75 183.57 L 108.40 185.41 L 112.05 184.48 L 115.70 184.20 L 119.35 181.59 L 123.00 178.08 L 126.65 176.64 L 130.30 176.52 L 133.95 180.09 L 137.60 178.58 L 141.25 181.39 L 144.90 182.67 L 148.55 180.23 L 152.20 184.70 L 155.85 184.51 L 159.50 187.57 L 163.15 188.16 L 166.80 189.05 L 170.45 190.49 L 174.10 195.57 L 177.75 195.17 L 181.40 198.14 L 185.05 196.59 L 188.70 193.41 L 192.35 194.08 L 196.00 195.10 L 199.65 198.81 L 203.30 193.91 L 206.95 189.99 L 210.60 190.54 L 214.25 191.82 L 217.90 187.72 L 221.55 182.02 L 225.20 184.03 L 228.85 181.79 L 232.50 183.50 L 236.15 184.91 L 239.80 187.75 L 243.45 188.56 L 247.10 188.19 L 250.75 189.03 L 254.40 187.73 L 258.05 189.14 L 261.70 189.55 L 265.35 188.93 L 269.00 188.63 L 272.65 184.76 L 276.30 183.29 L 279.95 185.22 L 283.60 184.39 L 287.25 186.21 L 290.90 185.04 L 294.55 186.97 L 298.20 191.59 L 301.85 191.45 L 305.50 191.08 L 309.15 191.82 L 312.80 193.16 L 316.45 198.63 L 320.10 202.47 L 323.75 202.22 L 327.40 202.25 L 331.05 199.41 L 334.70 197.59 L 338.35 195.84 L 342.00 199.90 L 345.65 204.98 L 349.30 204.75 L 352.95 205.92 L 356.60 206.64 L 360.25 205.98 L 363.90 204.41 L 367.55 205.62 L 371.20 204.73 L 374.85 201.21 L 378.50 205.44 L 382.15 205.00 L 385.80 205.43 L 389.45 204.07 L 393.10 200.23 L 396.75 199.40 L 400.40 200.09 L 404.05 200.84 L 407.70 198.99 L 411.35 197.86 L 415.00 199.79 L 418.65 199.03 L 422.30 196.72 L 425.95 197.27 L 429.60 199.21 L 433.25 197.63 L 436.90 192.75 L 440.55 189.10 L 444.20 191.91 L 447.85 192.74 L 451.50 193.51 L 455.15 194.68 L 458.80 197.19 L 462.45 200.20 L 466.10 200.46 L 469.75 196.81 L 473.40 199.47 L 477.05 195.04 L 480.70 189.37 L 484.35 189.24 L 488.00 190.39 L 491.65 188.99 L 495.30 188.59 L 498.95 188.16 L 502.60 188.76 L 506.25 189.59 L 509.90 186.55 L 513.55 190.31 L 517.20 194.45 L 520.85 191.64 L 524.50 188.49 L 528.15 187.63 L 531.80 187.90 L 535.45 189.19 L 539.10 190.90 L 542.75 187.81 L 546.40 188.14 L 550.05 188.01 L 553.70 187.06 L 557.35 186.56 L 561.00 186.53 L 564.65 192.78 L 568.30 190.25 L 571.95 192.49 L 575.60 190.05 L 579.25 190.32 L 582.90 188.52 L 586.55 190.82 L 590.20 192.64 L 593.85 195.08 L 597.50 194.05 L 601.15 192.49 L 604.80 190.36 L 608.45 190.53 L 612.10 192.17 L 615.75 190.24 L 619.40 192.90 L 623.05 193.75 L 626.70 190.70 L 630.35 189.96 L 634.00 191.67 L 637.65 194.33 L 641.30 192.75 L 644.95 191.96 L 648.60 192.32 L 652.25 189.49 L 655.90 187.85 L 659.55 189.78 L 663.20 186.65 L 666.85 187.71 L 670.50 183.98 L 674.15 184.06 L 677.80 187.73 L 681.45 184.58 L 685.10 184.10 L 688.75 186.45 L 692.40 188.06 L 696.05 188.31 L 699.70 188.05 L 703.35 192.25 L 707.00 192.46 L 710.65 195.06 L 714.30 194.78 L 717.95 191.48 L 721.60 195.30 L 725.25 193.56 L 728.90 196.09 L 732.55 194.52 L 736.20 192.41 L 739.85 195.29 L 743.50 194.71 L 747.15 197.72 L 750.80 197.07 L 754.45 199.55 L 758.10 197.19 L 761.75 193.26 L 765.40 191.84 L 769.05 193.83 L 772.70 193.07 L 776.35 192.73 L 780.00 192.07" class="path-3" />
<path d="M 50.00 173.79 L 53.65 173.50 L 57.30 173.08 L 60.95 176.94 L 64.60 181.05 L 68.25 181.34 L 71.90 181.50 L 75.55 181.83 L 79.20 179.89 L 82.85 183.06 L 86.50 186.16 L 90.15 186.63 L 93.80 188.91 L 97.45 188.84 L 101.10 187.20 L 104.75 188.34 L 108.40 186.16 L 112.05 184.63 L 115.70 184.60 L 119.35 183.68 L 123.00 184.83 L 126.65 185.04 L 130.30 182.69 L 133.95 184.72 L 137.60 185.58 L 141.25 186.86 L 144.90 186.22 L 148.55 186.48 L 152.20 184.93 L 155.85 181.18 L 159.50 180.16 L 163.15 177.26 L 166.80 175.17 L 170.45 172.13 L 174.10 173.15 L 177.75 174.04 L 181.40 170.61 L 185.05 171.74 L 188.70 172.39 L 192.35 173.25 L 196.00 173.29 L 199.65 173.35 L 203.30 174.12 L 206.95 173.90 L 210.60 174.01 L 214.25 178.69 L 217.90 175.84 L 221.55 178.02 L 225.20 183.59 L 228.85 184.61 L 232.50 184.65 L 236.15 184.44 L 239.80 183.63 L 243.45 189.32 L 247.10 188.84 L 250.75 190.76 L 254.40 189.86 L 258.05 191.35 L 261.70 191.97 L 265.35 188.76 L 269.00 186.98 L 272.65 186.77 L 276.30 190.54 L 279.95 191.90 L 283.60 189.04 L 287.25 187.95 L 290.90 191.86 L 294.55 191.75 L 298.20 189.86 L 301.85 189.45 L 305.50 189.55 L 309.15 193.21 L 312.80 191.85 L 316.45 195.33 L 320.10 194.77 L 323.75 195.11 L 327.40 195.05 L 331.05 198.85 L 334.70 196.84 L 338.35 200.13 L 342.00 199.67 L 345.65 195.46 L 349.30 191.77 L 352.95 191.49 L 356.60 187.03 L 360.25 191.40 L 363.90 187.39 L 367.55 185.83 L 371.20 185.30 L 374.85 184.29 L 378.50 187.60 L 382.15 188.95 L 385.80 193.60 L 389.45 193.14 L 393.10 192.33 L 396.75 197.16 L 400.40 197.68 L 404.05 198.42 L 407.70 198.39 L 411.35 194.36 L 415.00 192.35 L 418.65 190.65 L 422.30 188.39 L 425.95 189.77 L 429.60 191.72 L 433.25 194.75 L 436.90 193.73 L 440.55 196.75 L 444.20 196.50 L 447.85 194.82 L 451.50 196.12 L 455.15 194.92 L 458.80 196.13 L 462.45 200.46 L 466.10 202.68 L 469.75 204.54 L 473.40 204.33 L 477.05 205.91 L 480.70 204.87 L 484.35 206.97 L 488.00 206.50 L 491.65 203.83 L 495.30 204.03 L 498.95 200.23 L 502.60 197.66 L 506.25 199.43 L 509.90 195.64 L 513.55 195.53 L 517.20 195.12 L 520.85 196.58 L 524.50 195.44 L 528.15 197.44 L 531.80 201.26 L 535.45 199.78 L 539.10 198.83 L 542.75 198.36 L 546.40 195.24 L 550.05 195.13 L 553.70 194.57 L 557.35 192.15 L 561.00 193.01 L 564.65 193.06 L 568.30 195.47 L 571.95 192.84 L 575.60 195.13 L 579.25 194.75 L 582.90 190.09 L 586.55 186.57 L 590.20 185.55 L 593.85 186.40 L 597.50 186.56 L 601.15 188.85 L 604.80 187.29 L 608.45 186.90 L 612.10 191.71 L 615.75 193.68 L 619.40 192.50 L 623.05 192.12 L 626.70 193.54 L 630.35 189.98 L 634.00 188.63 L 637.65 190.82 L 641.30 187.37 L 644.95 187.15 L 648.60 187.48 L 652.25 190.77 L 655.90 190.16 L 659.55 188.88 L 663.20 190.16 L 666.85 191.16 L 670.50 194.97 L 674.15 196.35 L 677.80 196.67 L 681.45 194.44 L 685.10 193.76 L 688.75 193.25 L 692.40 192.57 L 696.05 194.50 L 699.70 192.60 L 703.35 189.84 L 707.00 194.84 L 710.65 192.39 L 714.30 196.11 L 717.95 198.94 L 721.60 200.08 L 725.25 200.00 L 728.90 197.73 L 732.55 195.82 L 736.20 194.18 L 739.85 193.68 L 743.50 193.53 L 747.15 194.36 L 750.80 196.78 L 754.45 194.68 L 758.10 194.93 L 761.75 192.99 L 765.40 193.42 L 769.05 192.22 L 772.70 195.12 L 776.35 197.39 L 780.00 201.37" class="path-4" />
<line x1="50" y1="173.8" x2="780" y2="173.8" stroke="#4b5563" stroke-width="0.8" stroke-dasharray="6 3" />
</svg>