<svg xmlns="http://www.w3.org/2000/svg" viewBox="0 0 800 300" width="800" height="300">
<style>
.axis-line { stroke: #6b7280; stroke-width: 0.5; }
.axis-text { font-family: monospace; font-size: 11px; fill: #9ca3af; }
.title-text { font-family: monospace; font-size: 14px; fill: #d1d5db; font-weight: bold; }
.grid-line { stroke: #374151; stroke-width: 0.3; stroke-dasharray: 4 2; }
.path-0 { fill: none; stroke: #3b82f6; stroke-width: 2; stroke-linecap: round; opacity: 0.85; animation: draw-0 8s ease-in-out 0.0s infinite; stroke-dasharray: 983; stroke-dashoffset: 983;}
@keyframes draw-0 { 0% { stroke-dashoffset: 983; } 38% { stroke-dashoffset: 0; } 62% { stroke-dashoffset: 0; } 100% { stroke-dashoffset: 983; }}
.path-1 { fill: none; stroke: #ef4444; stroke-width: 2; stroke-linecap: round; opacity: 0.85; animation: draw-1 8s ease-in-out 0.4s infinite; stroke-dasharray: 1011; stroke-dashoffset: 1011;}
@keyframes draw-1 { 0% { stroke-dashoffset: 1011; } 38% { stroke-dashoffset: 0; } 62% { stroke-dashoffset: 0; } 100% { stroke-dashoffset: 1011; }}
.path-2 { fill: none; stroke: #22c55e; stroke-width: 2; stroke-linecap: round; opacity: 0.85; animation: draw-2 8s ease-in-out 0.8s infinite; stroke-dasharray: 1061; stroke-dashoffset: 1061;}
@keyframes draw-2 { 0% { stroke-dashoffset: 1061; } 38% { stroke-dashoffset: 0; } 62% { stroke-dashoffset: 0; } 100% { stroke-dashoffset: 1061; }}
.path-3 { fill: none; stroke: #f59e0b; stroke-width: 2; stroke-linecap: round; opacity: 0.85; animation: draw-3 8s ease-in-out 1.2000000000000002s infinite; stroke-dasharray: 1015; stroke-dashoffset: 1015;}
@keyframes draw-3 { 0% { stroke-dashoffset: 1015; } 38% { stroke-dashoffset: 0; } 62% { stroke-dashoffset: 0; } 100% { stroke-dashoffset: 1015; }}
.path-4 { fill: none; stroke: #a855f7; stroke-width: 2; stroke-linecap: round; opacity: 0.85; animation: draw-4 8s ease-in-out 1.6s infinite; stroke-dasharray: 1010; stroke-dashoffset: 1010;}
@keyframes draw-4 { 0% { stroke-dashoffset: 1010; } 38% { stroke-dashoffset: 0; } 62% { stroke-dashoffset: 0; } 100% { stroke-dashoffset: 1010; }}
</style>
<rect width="800" height="300" rx="8" fill="#0d1117" />
<line x1="50" y1="260.0" x2="780" y2="260.0" class="grid-line" />
<text x="44" y="264.0" text-anchor="end" class="axis-text">-1.8</text>
<line x1="50" y1="216.0" x2="780" y2="216.0" class="grid-line" />
<text x="44" y="220.0" text-anchor="end" class="axis-text">-1.0</text>
<line x1="50" y1="172.0" x2="780" y2="172.0" class="grid-line" />
<text x="44" y="176.0" text-anchor="end" class="axis-text">-0.2</text>
<line x1="50" y1="128.0" x2="780" y2="128.0" class="grid-line" />
<text x="44" y="132.0" text-anchor="end" class="axis-text">0.6</text>
<line x1="50" y1="84.0" x2="780" y2="84.0" class="grid-line" />
<text x="44" y="88.0" text-anchor="end" class="axis-text">1.4</text>
<line x1="50" y1="40.0" x2="780" y2="40.0" class="grid-line" />
<text x="44" y="44.0" text-anchor="end" class="axis-text">2.2</text>
<line x1="50.0" y1="40" x2="50.0" y2="260" class="grid-line" />
<line x1="196.0" y1="40" x2="196.0" y2="260" class="grid-line" />
<line x1="342.0" y1="40" x2="342.0" y2="260" class="grid-line" />
<line x1="488.0" y1="40" x2="488.0" y2="260" class="grid-line" />
<line x1="634.0" y1="40" x2="634.0" y2="260" class="grid-line" />
<line x1="780.0" y1="40" x2="780.0" y2="260" class="grid-line" />
<line x1="50" y1="260" x2="780" y2="260" class="axis-line" />
<line x1="50" y1="40" x2="50" y2="260" class="axis-line" />
<text x="400.0" y="295" text-anchor="middle" class="axis-text">t</text>
<text x="12" y="150.0" text-anchor="middle" class="axis-text" transform="rotate(-90 12 150.0)">W(t)</text>
<text x="400.0" y="22" text-anchor="middle" class="title-text">Brownian Motion</text>
<path d="M 50.00 160.35 L 53.65 162.01 L 57.30 162.19 L 60.95 167.46 L 64.60 170.59 L 68.25 167.31 L 71.90 166.86 L 75.55 167.90 L 79.20 170.01 L 82.85 168.02 L 86.50 170.84 L 90.15 167.48 L 93.80 172.03 L 97.45 174.35 L 101.10 172.63 L 104.75 172.39 L 108.40 172.21 L 112.05 170.88 L 115.70 168.64 L 119.35 159.38 L 123.00 160.94 L 126.65 163.19 L 130.30 167.28 L 133.95 172.09 L 137.60 179.29 L 141.25 173.94 L 144.90 174.59 L 148.55 174.54 L 152.20 175.24 L 155.85 170.39 L 159.50 176.97 L 163.15 187.28 L 166.80 188.58 L 170.45 186.11 L 174.10 187.25 L 177.75 187.52 L 181.40 184.99 L 185.05 179.86 L 188.70 179.54 L 192.35 178.72 L 196.00 179.08 L 199.65 182.78 L 203.30 186.84 L 206.95 183.85 L 210.60 180.08 L 214.25 180.81 L 217.90 177.86 L 221.55 176.74 L 225.20 176.06 L 228.85 178.48 L 232.50 180.74 L 236.15 178.06 L 239.80 175.69 L 243.45 177.49 L 247.10 180.19 L 250.75 179.91 L 254.40 172.68 L 258.05 170.27 L 261.70 170.32 L 265.35 167.11 L 269.00 168.69 L 272.65 161.70 L 276.30 158.15 L 279.95 157.94 L 283.60 163.92 L 287.25 160.00 L 290.90 160.38 L 294.55 154.15 L 298.20 154.64 L 301.85 154.89 L 305.50 158.30 L 309.15 159.97 L 312.80 164.26 L 316.45 165.02 L 320.10 159.27 L 323.75 161.73 L 327.40 161.57 L 331.05 161.66 L 334.70 163.36 L 338.35 164.01 L 342.00 167.33 L 345.65 166.56 L 349.30 164.35 L 352.95 168.32 L 356.60 166.79 L 360.25 167.15 L 363.90 165.05 L 367.55 165.04 L 371.20 166.16 L 374.85 171.65 L 378.50 174.28 L 382.15 166.79 L 385.80 167.84 L 389.45 165.01 L 393.10 164.73 L 396.75 159.38 L 400.40 157.28 L 404.05 159.65 L 407.70 161.50 L 411.35 168.19 L 415.00 171.64 L 418.65 172.02 L 422.30 173.81 L 425.95 170.21 L 429.60 171.56 L 433.25 168.65 L 436.90 171.95 L 440.55 167.92 L 444.20 169.46 L 447.85 169.68 L 451.50 165.26 L 455.15 167.96 L 458.80 174.39 L 462.45 175.78 L 466.10 170.64 L 469.75 170.65 L 473.40 171.48 L 477.05 174.65 L 480.70 174.84 L 484.35 170.35 L 488.00 171.37 L 491.65 175.91 L 495.30 181.45 L 498.95 182.84 L 502.60 178.14 L 506.25 177.50 L 509.90 177.61 L 513.55 177.46 L 517.20 178.53 L 520.85 173.13 L 524.50 178.06 L 528.15 181.15 L 531.80 178.58 L 535.45 182.67 L 539.10 177.35 L 542.75 180.25 L 546.40 181.81 L 550.05 187.39 L 553.70 186.95 L 557.35 191.74 L 561.00 189.45 L 564.65 185.94 L 568.30 189.91 L 571.95 193.33 L 575.60 190.50 L 579.25 187.64 L 582.90 190.09 L 586.55 190.34 L 590.20 191.45 L 593.85 194.94 L 597.50 193.16 L 601.15 193.66 L 604.80 194.22 L 608.45 193.48 L 612.10 191.22 L 615.75 192.39 L 619.40 196.12 L 623.05 200.27 L 626.70 202.37 L 630.35 206.34 L 634.00 210.48 L 637.65 218.76 L 641.30 219.41 L 644.95 211.81 L 648.60 212.05 L 652.25 216.51 L 655.90 208.40 L 659.55 209.57 L 663.20 207.15 L 666.85 200.16 L 670.50 200.77 L 674.15 204.42 L 677.80 206.39 L 681.45 209.72 L 685.10 209.50 L 688.75 207.37 L 692.40 205.31 L 696.05 201.65 L 699.70 204.53 L 703.35 209.02 L 707.00 206.47 L 710.65 203.51 L 714.30 200.73 L 717.95 208.78 L 721.60 209.48 L 725.25 210.16 L 728.90 208.17 L 732.55 207.64 L 736.20 211.83 L 739.85 215.64 L 743.50 214.14 L 747.15 219.95 L 750.80 226.89 L 754.45 230.00 L 758.10 234.62 L 761.75 228.19 L 765.40 229.30 L 769.05 223.86 L 772.70 225.57 L 776.35 226.75 L 780.00 224.71" class="path-0" />
<path d="M 50.00 160.35 L 53.65 164.21 L 57.30 167.24 L 60.95 167.50 L 64.60 171.44 L 68.25 174.78 L 71.90 171.96 L 75.55 169.31 L 79.20 168.30 L 82.85 160.61 L 86.50 163.60 L 90.15 164.92 L 93.80 159.03 L 97.45 156.77 L 101.10 154.21 L 104.75 150.70 L 108.40 148.64 L 112.05 146.27 L 115.70 146.44 L 119.35 144.17 L 123.00 144.43 L 126.65 143.92 L 130.30 144.87 L 133.95 143.16 L 137.60 145.14 L 141.25 154.85 L 144.90 156.27 L 148.55 160.55 L 152.20 160.79 L 155.85 161.85 L 159.50 162.10 L 163.15 153.95 L 166.80 153.54 L 170.45 155.24 L 174.10 160.54 L 177.75 161.96 L 181.40 162.66 L 185.05 160.97 L 188.70 156.50 L 192.35 158.36 L 196.00 162.46 L 199.65 160.19 L 203.30 164.72 L 206.95 172.87 L 210.60 177.93 L 214.25 181.36 L 217.90 179.84 L 221.55 179.85 L 225.20 172.73 L 228.85 172.04 L 232.50 168.54 L 236.15 162.25 L 239.80 161.34 L 243.45 161.70 L 247.10 160.83 L 250.75 162.52 L 254.40 167.95 L 258.05 165.37 L 261.70 161.03 L 265.35 168.24 L 269.00 170.65 L 272.65 162.43 L 276.30 163.88 L 279.95 160.05 L 283.60 158.11 L 287.25 160.31 L 290.90 156.80 L 294.55 160.24 L 298.20 165.57 L 301.85 167.32 L 305.50 162.55 L 309.15 163.50 L 312.80 160.92 L 316.45 168.02 L 320.10 164.04 L 323.75 161.70 L 327.40 156.23 L 331.05 154.53 L 334.70 153.98 L 338.35 147.97 L 342.00 145.92 L 345.65 145.93 L 349.30 139.91 L 352.95 143.93 L 356.60 138.07 L 360.25 140.04 L 363.90 141.75 L 367.55 144.70 L 371.20 139.93 L 374.85 141.72 L 378.50 143.13 L 382.15 147.98 L 385.80 144.04 L 389.45 142.06 L 393.10 145.71 L 396.75 149.48 L 400.40 148.05 L 404.05 150.43 L 407.70 154.74 L 411.35 161.31 L 415.00 163.73 L 418.65 159.49 L 422.30 160.28 L 425.95 160.30 L 429.60 165.48 L 433.25 160.92 L 436.90 156.68 L 440.55 156.73 L 444.20 156.16 L 447.85 149.70 L 451.50 155.08 L 455.15 154.22 L 458.80 156.04 L 462.45 159.04 L 466.10 157.78 L 469.75 157.68 L 473.40 157.63 L 477.05 161.53 L 480.70 164.56 L 484.35 160.77 L 488.00 161.35 L 491.65 163.43 L 495.30 168.04 L 498.95 168.42 L 502.60 168.05 L 506.25 159.26 L 509.90 157.68 L 513.55 155.83 L 517.20 159.54 L 520.85 151.25 L 524.50 158.62 L 528.15 156.86 L 531.80 155.99 L 535.45 153.00 L 539.10 152.61 L 542.75 150.26 L 546.40 148.46 L 550.05 149.74 L 553.70 149.35 L 557.35 149.94 L 561.00 148.09 L 564.65 148.62 L 568.30 150.99 L 571.95 152.51 L 575.60 151.71 L 579.25 150.40 L 582.90 149.53 L 586.55 144.96 L 590.20 139.51 L 593.85 134.65 L 597.50 137.47 L 601.15 140.74 L 604.80 144.77 L 608.45 148.68 L 612.10 151.71 L 615.75 153.99 L 619.40 157.90 L 623.05 161.18 L 626.70 161.63 L 630.35 160.47 L 634.00 163.40 L 637.65 166.10 L 641.30 165.43 L 644.95 166.71 L 648.60 167.23 L 652.25 162.19 L 655.90 171.88 L 659.55 165.71 L 663.20 172.86 L 666.85 178.34 L 670.50 179.47 L 674.15 181.61 L 677.80 182.97 L 681.45 182.05 L 685.10 179.89 L 688.75 177.61 L 692.40 178.74 L 696.05 172.10 L 699.70 164.64 L 703.35 168.10 L 707.00 160.53 L 710.65 166.02 L 714.30 167.86 L 717.95 173.94 L 721.60 177.57 L 725.25 177.75 L 728.90 183.65 L 732.55 181.21 L 736.20 179.29 L 739.85 187.09 L 743.50 186.53 L 747.15 184.57 L 750.80 187.56 L 754.45 186.62 L 758.10 184.65 L 761.75 179.03 L 765.40 180.58 L 769.05 182.67 L 772.70 177.97 L 776.35 178.75 L 780.00 180.66" class="path-1" />
<path d="M 50.00 160.35 L 53.65 164.36 L 57.30 158.77 L 60.95 166.71 L 64.60 165.43 L 68.25 168.53 L 71.90 167.19 L 75.55 157.15 L 79.20 159.17 L 82.85 165.29 L 86.50 170.85 L 90.15 173.43 L 93.80 169.42 L 97.45 170.71 L 101.10 174.85 L 104.75 179.61 L 108.40 188.81 L 112.05 192.98 L 115.70 197.12 L 119.35 198.09 L 123.00 198.39 L 126.65 202.49 L 130.30 208.20 L 133.95 213.60 L 137.60 213.67 L 141.25 207.54 L 144.90 208.04 L 148.55 203.78 L 152.20 205.40 L 155.85 201.22 L 159.50 192.76 L 163.15 192.38 L 166.80 190.15 L 170.45 186.49 L 174.10 184.31 L 177.75 189.24 L 181.40 188.50 L 185.05 190.04 L 188.70 192.29 L 192.35 187.09 L 196.00 191.22 L 199.65 186.73 L 203.30 184.23 L 206.95 183.04 L 210.60 183.73 L 214.25 182.90 L 217.90 177.74 L 221.55 176.13 L 225.20 178.24 L 228.85 174.62 L 232.50 177.07 L 236.15 177.37 L 239.80 177.97 L 243.45 177.41 L 247.10 179.10 L 250.75 180.93 L 254.40 178.00 L 258.05 179.00 L 261.70 179.35 L 265.35 175.48 L 269.00 178.38 L 272.65 174.48 L 276.30 169.55 L 279.95 167.73 L 283.60 167.36 L 287.25 160.29 L 290.90 160.16 L 294.55 155.32 L 298.20 162.93 L 301.85 154.53 L 305.50 152.21 L 309.15 150.71 L 312.80 161.41 L 316.45 163.07 L 320.10 169.96 L 323.75 169.13 L 327.40 170.41 L 331.05 173.32 L 334.70 169.09 L 338.35 168.75 L 342.00 167.29 L 345.65 165.44 L 349.30 166.27 L 352.95 160.67 L 356.60 154.31 L 360.25 149.94 L 363.90 146.02 L 367.55 148.52 L 371.20 147.04 L 374.85 151.73 L 378.50 157.59 L 382.15 154.57 L 385.80 157.83 L 389.45 154.61 L 393.10 154.91 L 396.75 158.23 L 400.40 161.73 L 404.05 168.25 L 407.70 161.58 L 411.35 160.37 L 415.00 160.60 L 418.65 158.04 L 422.30 151.66 L 425.95 150.26 L 429.60 142.91 L 433.25 141.37 L 436.90 135.91 L 440.55 133.96 L 444.20 136.01 L 447.85 132.79 L 451.50 136.86 L 455.15 138.97 L 458.80 138.24 L 462.45 138.60 L 466.10 134.14 L 469.75 131.95 L 473.40 131.59 L 477.05 132.47 L 480.70 134.01 L 484.35 135.13 L 488.00 130.32 L 491.65 129.05 L 495.30 134.67 L 498.95 127.19 L 502.60 123.59 L 506.25 123.68 L 509.90 130.83 L 513.55 132.46 L 517.20 135.26 L 520.85 138.51 L 524.50 143.53 L 528.15 141.81 L 531.80 145.73 L 535.45 143.15 L 539.10 146.17 L 542.75 143.98 L 546.40 145.59 L 550.05 152.39 L 553.70 147.62 L 557.35 149.00 L 561.00 149.91 L 564.65 156.77 L 568.30 153.99 L 571.95 143.76 L 575.60 141.12 L 579.25 143.94 L 582.90 148.22 L 586.55 149.99 L 590.20 147.60 L 593.85 142.47 L 597.50 141.78 L 601.15 143.64 L 604.80 143.62 L 608.45 147.71 L 612.10 146.99 L 615.75 148.90 L 619.40 141.42 L 623.05 144.83 L 626.70 148.14 L 630.35 142.93 L 634.00 141.48 L 637.65 140.01 L 641.30 135.56 L 644.95 130.12 L 648.60 123.73 L 652.25 121.67 L 655.90 115.56 L 659.55 109.11 L 663.20 101.60 L 666.85 104.65 L 670.50 101.43 L 674.15 101.35 L 677.80 104.06 L 681.45 93.79 L 685.10 83.98 L 688.75 84.84 L 692.40 79.78 L 696.05 81.34 L 699.70 82.58 L 703.35 85.09 L 707.00 85.72 L 710.65 85.98 L 714.30 88.42 L 717.95 93.59 L 721.60 96.82 L 725.25 92.74 L 728.90 90.44 L 732.55 84.62 L 736.20 83.53 L 739.85 83.84 L 743.50 83.97 L 747.15 80.33 L 750.80 88.61 L 754.45 91.44 L 758.10 86.86 L 761.75 98.48 L 765.40 97.93 L 769.05 92.95 L 772.70 93.38 L 776.35 90.51 L 780.00 87.60" class="path-2" />
<path d="M 50.00 160.35 L 53.65 164.62 L 57.30 162.48 L 60.95 164.87 L 64.60 168.15 L 68.25 163.93 L 71.90 164.80 L 75.55 165.58 L 79.20 167.59 L 82.85 173.08 L 86.50 175.61 L 90.15 178.81 L 93.80 175.24 L 97.45 179.49 L 101.10 172.00 L 104.75 173.95 L 108.40 170.47 L 112.05 171.60 L 115.70 168.30 L 119.35 166.66 L 123.00 171.71 L 126.65 170.14 L 130.30 173.66 L 133.95 176.55 L 137.60 170.27 L 141.25 173.45 L 144.90 172.64 L 148.55 174.08 L 152.20 168.20 L 155.85 164.11 L 159.50 161.69 L 163.15 158.03 L 166.80 156.91 L 170.45 151.35 L 174.10 147.75 L 177.75 153.34 L 181.40 150.01 L 185.05 151.05 L 188.70 149.30 L 192.35 145.50 L 196.00 143.50 L 199.65 142.22 L 203.30 142.17 L 206.95 145.02 L 210.60 145.05 L 214.25 152.09 L 217.90 151.06 L 221.55 155.34 L 225.20 153.97 L 228.85 155.56 L 232.50 150.94 L 236.15 148.70 L 239.80 151.93 L 243.45 151.53 L 247.10 158.42 L 250.75 164.07 L 254.40 159.44 L 258.05 160.68 L 261.70 165.23 L 265.35 162.70 L 269.00 169.60 L 272.65 167.05 L 276.30 167.62 L 279.95 168.35 L 283.60 169.90 L 287.25 161.98 L 290.90 156.30 L 294.55 161.53 L 298.20 161.96 L 301.85 161.84 L 305.50 154.03 L 309.15 157.93 L 312.80 160.31 L 316.45 168.14 L 320.10 165.96 L 323.75 167.34 L 327.40 171.68 L 331.05 169.73 L 334.70 167.54 L 338.35 166.55 L 342.00 162.77 L 345.65 167.72 L 349.30 169.93 L 352.95 172.25 L 356.60 166.18 L 360.25 163.04 L 363.90 163.06 L 367.55 163.17 L 371.20 165.25 L 374.85 163.10 L 378.50 168.19 L 382.15 169.88 L 385.80 168.24 L 389.45 164.31 L 393.10 163.32 L 396.75 164.04 L 400.40 162.88 L 404.05 163.48 L 407.70 167.57 L 411.35 170.56 L 415.00 167.50 L 418.65 159.20 L 422.30 159.23 L 425.95 158.19 L 429.60 161.49 L 433.25 156.59 L 436.90 151.79 L 440.55 150.92 L 444.20 153.40 L 447.85 147.93 L 451.50 153.69 L 455.15 152.78 L 458.80 152.62 L 462.45 149.78 L 466.10 140.47 L 469.75 141.41 L 473.40 146.00 L 477.05 144.73 L 480.70 140.46 L 484.35 146.15 L 488.00 144.61 L 491.65 137.05 L 495.30 134.95 L 498.95 125.47 L 502.60 122.00 L 506.25 120.10 L 509.90 117.52 L 513.55 116.98 L 517.20 114.96 L 520.85 118.56 L 524.50 117.54 L 528.15 115.81 L 531.80 115.46 L 535.45 121.38 L 539.10 122.21 L 542.75 122.16 L 546.40 122.23 L 550.05 117.76 L 553.70 114.92 L 557.35 115.41 L 561.00 116.21 L 564.65 117.78 L 568.30 112.21 L 571.95 117.88 L 575.60 124.93 L 579.25 121.79 L 582.90 117.09 L 586.55 118.75 L 590.20 118.30 L 593.85 118.49 L 597.50 119.82 L 601.15 112.73 L 604.80 116.33 L 608.45 124.08 L 612.10 118.18 L 615.75 115.20 L 619.40 116.39 L 623.05 113.23 L 626.70 108.07 L 630.35 109.52 L 634.00 116.00 L 637.65 115.36 L 641.30 114.16 L 644.95 112.18 L 648.60 116.01 L 652.25 120.10 L 655.90 128.25 L 659.55 128.02 L 663.20 127.09 L 666.85 127.31 L 670.50 122.74 L 674.15 123.72 L 677.80 122.05 L 681.45 120.32 L 685.10 117.50 L 688.75 110.27 L 692.40 106.42 L 696.05 107.53 L 699.70 107.96 L 703.35 106.75 L 707.00 105.93 L 710.65 103.35 L 714.30 106.70 L 717.95 106.06 L 721.60 105.97 L 725.25 105.05 L 728.90 110.66 L 732.55 110.80 L 736.20 105.12 L 739.85 105.85 L 743.50 101.55 L 747.15 106.68 L 750.80 104.69 L 754.45 97.19 L 758.10 95.49 L 761.75 99.45 L 765.40 100.33 L 769.05 105.80 L 772.70 105.84 L 776.35 108.61 L 780.00 102.25" class="path-3" />
<path d="M 50.00 160.35 L 53.65 161.45 L 57.30 159.21 L 60.95 165.50 L 64.60 162.20 L 68.25 163.33 L 71.90 168.97 L 75.55 166.45 L 79.20 161.35 L 82.85 165.29 L 86.50 164.49 L 90.15 157.66 L 93.80 159.58 L 97.45 162.06 L 101.10 164.06 L 104.75 161.50 L 108.40 168.96 L 112.05 166.32 L 115.70 162.64 L 119.35 162.58 L 123.00 160.43 L 126.65 159.74 L 130.30 152.05 L 133.95 150.08 L 137.60 152.53 L 141.25 154.11 L 144.90 151.04 L 148.55 152.08 L 152.20 150.76 L 155.85 157.37 L 159.50 148.06 L 163.15 151.03 L 166.80 149.59 L 170.45 155.34 L 174.10 142.79 L 177.75 142.18 L 181.40 139.95 L 185.05 139.86 L 188.70 141.62 L 192.35 143.31 L 196.00 143.27 L 199.65 139.06 L 203.30 133.33 L 206.95 134.55 L 210.60 130.50 L 214.25 138.37 L 217.90 141.22 L 221.55 144.32 L 225.20 143.42 L 228.85 144.29 L 232.50 143.67 L 236.15 145.32 L 239.80 140.29 L 243.45 141.75 L 247.10 141.21 L 250.75 139.34 L 254.40 133.93 L 258.05 132.06 L 261.70 129.86 L 265.35 132.77 L 269.00 139.04 L 272.65 138.96 L 276.30 145.48 L 279.95 146.62 L 283.60 149.91 L 287.25 150.36 L 290.90 150.20 L 294.55 153.64 L 298.20 150.42 L 301.85 142.19 L 305.50 141.08 L 309.15 141.69 L 312.80 134.67 L 316.45 136.27 L 320.10 139.09 L 323.75 135.70 L 327.40 136.29 L 331.05 137.05 L 334.70 134.62 L 338.35 136.21 L 342.00 135.78 L 345.65 134.43 L 349.30 129.78 L 352.95 133.88 L 356.60 138.36 L 360.25 142.48 L 363.90 141.51 L 367.55 145.09 L 371.20 145.82 L 374.85 146.88 L 378.50 146.52 L 382.15 143.04 L 385.80 138.79 L 389.45 133.72 L 393.10 132.96 L 396.75 133.22 L 400.40 133.13 L 404.05 136.47 L 407.70 137.32 L 411.35 141.88 L 415.00 143.62 L 418.65 145.79 L 422.30 137.21 L 425.95 134.51 L 429.60 133.45 L 433.25 129.06 L 436.90 122.10 L 440.55 122.77 L 444.20 116.09 L 447.85 118.40 L 451.50 121.32 L 455.15 117.83 L 458.80 122.12 L 462.45 116.87 L 466.10 117.16 L 469.75 114.07 L 473.40 110.23 L 477.05 110.50 L 480.70 117.86 L 484.35 115.77 L 488.00 114.67 L 491.65 108.82 L 495.30 113.08 L 498.95 110.14 L 502.60 115.47 L 506.25 114.44 L 509.90 115.50 L 513.55 115.07 L 517.20 116.93 L 520.85 116.73 L 524.50 123.47 L 528.15 121.35 L 531.80 122.90 L 535.45 116.87 L 539.10 116.09 L 542.75 117.08 L 546.40 118.07 L 550.05 112.25 L 553.70 105.52 L 557.35 106.62 L 561.00 109.93 L 564.65 106.99 L 568.30 104.36 L 571.95 103.21 L 575.60 96.06 L 579.25 92.27 L 582.90 89.99 L 586.55 84.45 L 590.20 81.40 L 593.85 78.97 L 597.50 80.55 L 601.15 77.11 L 604.80 71.09 L 608.45 71.29 L 612.10 70.61 L 615.75 65.38 L 619.40 66.00 L 623.05 73.83 L 626.70 79.01 L 630.35 74.83 L 634.00 72.28 L 637.65 74.68 L 641.30 75.66 L 644.95 74.45 L 648.60 79.25 L 652.25 80.21 L 655.90 76.94 L 659.55 68.74 L 663.20 70.98 L 666.85 71.31 L 670.50 71.86 L 674.15 67.65 L 677.80 68.32 L 681.45 71.54 L 685.10 72.98 L 688.75 75.06 L 692.40 74.10 L 696.05 71.78 L 699.70 68.34 L 703.35 73.12 L 707.00 78.34 L 710.65 81.77 L 714.30 84.00 L 717.95 84.97 L 721.60 84.09 L 725.25 86.10 L 728.90 90.43 L 732.55 96.49 L 736.20 91.98 L 739.85 94.66 L 743.50 99.03 L 747.15 98.55 L 750.80 96.81 L 754.45 92.05 L 758.10 96.24 L 761.75 94.26 L 765.40 100.89 L 769.05 104.49 L 772.70 102.31 L 776.35 101.93 L 780.00 104.01" class="path-4" />
<line x1="50" y1="160.4" x2="780" y2="160.4" stroke="#4b5563" stroke-width="0.8" stroke-dasharray="6 3" />
</svg>