<svg xmlns="http://www.w3.org/2000/svg" viewBox="0 0 800 300" width="800" height="300">
<style>
.axis-line { stroke: #6b7280; stroke-width: 0.5; }
.axis-text { font-family: monospace; font-size: 11px; fill: #9ca3af; }
.title-text { font-family: monospace; font-size: 14px; fill: #d1d5db; font-weight: bold; }
.grid-line { stroke: #374151; stroke-width: 0.3; stroke-dasharray: 4 2; }
.path-0 { fill: none; stroke: #3b82f6; stroke-width: 2; stroke-linecap: round; opacity: 0.85; animation: draw-0 8s ease-in-out 0.0s infinite; stroke-dasharray: 1183; stroke-dashoffset: 1183;}
@keyframes draw-0 { 0% { stroke-dashoffset: 1183; } 38% { stroke-dashoffset: 0; } 62% { stroke-dashoffset: 0; } 100% { stroke-dashoffset: 1183; }}
.path-1 { fill: none; stroke: #ef4444; stroke-width: 2; stroke-linecap: round; opacity: 0.85; animation: draw-1 8s ease-in-out 0.4s infinite; stroke-dasharray: 1240; stroke-dashoffset: 1240;}
@keyframes draw-1 { 0% { stroke-dashoffset: 1240; } 38% { stroke-dashoffset: 0; } 62% { stroke-dashoffset: 0; } 100% { stroke-dashoffset: 1240; }}
.path-2 { fill: none; stroke: #22c55e; stroke-width: 2; stroke-linecap: round; opacity: 0.85; animation: draw-2 8s ease-in-out 0.8s infinite; stroke-dasharray: 1171; stroke-dashoffset: 1171;}
@keyframes draw-2 { 0% { stroke-dashoffset: 1171; } 38% { stroke-dashoffset: 0; } 62% { stroke-dashoffset: 0; } 100% { stroke-dashoffset: 1171; }}
.path-3 { fill: none; stroke: #f59e0b; stroke-width: 2; stroke-linecap: round; opacity: 0.85; animation: draw-3 8s ease-in-out 1.2000000000000002s infinite; stroke-dasharray: 1181; stroke-dashoffset: 1181;}
@keyframes draw-3 { 0% { stroke-dashoffset: 1181; } 38% { stroke-dashoffset: 0; } 62% { stroke-dashoffset: 0; } 100% { stroke-dashoffset: 1181; }}
.path-4 { fill: none; stroke: #a855f7; stroke-width: 2; stroke-linecap: round; opacity: 0.85; animation: draw-4 8s ease-in-out 1.6s infinite; stroke-dasharray: 1154; stroke-dashoffset: 1154;}
@keyframes draw-4 { 0% { stroke-dashoffset: 1154; } 38% { stroke-dashoffset: 0; } 62% { stroke-dashoffset: 0; } 100% { stroke-dashoffset: 1154; }}
</style>
<rect width="800" height="300" rx="8" fill="#0d1117" />
<line x1="50" y1="260.0" x2="780" y2="260.0" class="grid-line" />
<text x="44" y="264.0" text-anchor="end" class="axis-text">-1.4</text>
<line x1="50" y1="216.0" x2="780" y2="216.0" class="grid-line" />
<text x="44" y="220.0" text-anchor="end" class="axis-text">-0.8</text>
<line x1="50" y1="172.0" x2="780" y2="172.0" class="grid-line" />
<text x="44" y="176.0" text-anchor="end" class="axis-text">-0.2</text>
<line x1="50" y1="128.0" x2="780" y2="128.0" class="grid-line" />
<text x="44" y="132.0" text-anchor="end" class="axis-text">0.4</text>
<line x1="50" y1="84.0" x2="780" y2="84.0" class="grid-line" />
<text x="44" y="88.0" text-anchor="end" class="axis-text">1.0</text>
<line x1="50" y1="40.0" x2="780" y2="40.0" class="grid-line" />
<text x="44" y="44.0" text-anchor="end" class="axis-text">1.6</text>
<line x1="50.0" y1="40" x2="50.0" y2="260" class="grid-line" />
<line x1="196.0" y1="40" x2="196.0" y2="260" class="grid-line" />
<line x1="342.0" y1="40" x2="342.0" y2="260" class="grid-line" />
<line x1="488.0" y1="40" x2="488.0" y2="260" class="grid-line" />
<line x1="634.0" y1="40" x2="634.0" y2="260" class="grid-line" />
<line x1="780.0" y1="40" x2="780.0" y2="260" class="grid-line" />
<line x1="50" y1="260" x2="780" y2="260" class="axis-line" />
<line x1="50" y1="40" x2="50" y2="260" class="axis-line" />
<text x="400.0" y="295" text-anchor="middle" class="axis-text">t</text>
<text x="12" y="150.0" text-anchor="middle" class="axis-text" transform="rotate(-90 12 150.0)">W(t)</text>
<text x="400.0" y="22" text-anchor="middle" class="title-text">Brownian Motion</text>
<path d="M 50.00 156.94 L 53.65 151.53 L 57.30 151.03 L 60.95 157.29 L 64.60 156.93 L 68.25 156.24 L 71.90 156.87 L 75.55 151.60 L 79.20 148.95 L 82.85 146.94 L 86.50 151.59 L 90.15 153.80 L 93.80 147.80 L 97.45 147.30 L 101.10 148.47 L 104.75 151.71 L 108.40 147.90 L 112.05 152.04 L 115.70 147.52 L 119.35 148.45 L 123.00 141.72 L 126.65 139.13 L 130.30 143.34 L 133.95 141.07 L 137.60 141.88 L 141.25 142.80 L 144.90 134.02 L 148.55 138.75 L 152.20 138.86 L 155.85 138.53 L 159.50 131.63 L 163.15 134.91 L 166.80 138.86 L 170.45 130.30 L 174.10 131.82 L 177.75 127.66 L 181.40 128.00 L 185.05 126.32 L 188.70 129.97 L 192.35 130.57 L 196.00 120.63 L 199.65 116.48 L 203.30 132.45 L 206.95 132.16 L 210.60 132.96 L 214.25 140.56 L 217.90 141.86 L 221.55 141.34 L 225.20 143.83 L 228.85 146.25 L 232.50 147.32 L 236.15 149.30 L 239.80 145.34 L 243.45 133.83 L 247.10 136.88 L 250.75 149.54 L 254.40 149.80 L 258.05 145.91 L 261.70 148.44 L 265.35 155.61 L 269.00 156.29 L 272.65 160.74 L 276.30 148.07 L 279.95 139.21 L 283.60 125.83 L 287.25 131.58 L 290.90 136.57 L 294.55 137.74 L 298.20 134.08 L 301.85 139.50 L 305.50 138.16 L 309.15 136.41 L 312.80 141.95 L 316.45 142.84 L 320.10 142.20 L 323.75 142.05 L 327.40 132.60 L 331.05 124.56 L 334.70 121.56 L 338.35 117.60 L 342.00 120.71 L 345.65 122.20 L 349.30 123.12 L 352.95 134.83 L 356.60 141.60 L 360.25 135.54 L 363.90 133.25 L 367.55 137.62 L 371.20 141.03 L 374.85 142.85 L 378.50 137.37 L 382.15 133.82 L 385.80 139.81 L 389.45 150.02 L 393.10 145.91 L 396.75 145.37 L 400.40 146.61 L 404.05 139.55 L 407.70 146.50 L 411.35 147.55 L 415.00 142.92 L 418.65 137.37 L 422.30 139.84 L 425.95 146.51 L 429.60 141.24 L 433.25 138.69 L 436.90 135.53 L 440.55 142.02 L 444.20 144.42 L 447.85 140.47 L 451.50 139.04 L 455.15 144.90 L 458.80 148.10 L 462.45 154.62 L 466.10 167.31 L 469.75 169.05 L 473.40 173.18 L 477.05 171.40 L 480.70 169.22 L 484.35 170.33 L 488.00 169.21 L 491.65 165.28 L 495.30 168.26 L 498.95 160.07 L 502.60 164.64 L 506.25 168.94 L 509.90 169.64 L 513.55 161.53 L 517.20 149.38 L 520.85 157.93 L 524.50 160.49 L 528.15 166.23 L 531.80 169.50 L 535.45 165.81 L 539.10 162.76 L 542.75 160.26 L 546.40 172.00 L 550.05 171.79 L 553.70 182.89 L 557.35 188.61 L 561.00 193.58 L 564.65 193.34 L 568.30 182.63 L 571.95 177.33 L 575.60 172.88 L 579.25 173.14 L 582.90 168.60 L 586.55 171.90 L 590.20 161.53 L 593.85 161.27 L 597.50 163.39 L 601.15 159.78 L 604.80 158.83 L 608.45 154.89 L 612.10 150.89 L 615.75 151.13 L 619.40 151.82 L 623.05 147.70 L 626.70 143.21 L 630.35 141.37 L 634.00 141.47 L 637.65 134.42 L 641.30 136.52 L 644.95 135.63 L 648.60 146.59 L 652.25 145.28 L 655.90 147.22 L 659.55 158.97 L 663.20 159.34 L 666.85 161.30 L 670.50 159.53 L 674.15 163.05 L 677.80 157.30 L 681.45 155.71 L 685.10 156.47 L 688.75 150.60 L 692.40 151.55 L 696.05 151.10 L 699.70 150.47 L 703.35 152.07 L 707.00 146.93 L 710.65 148.76 L 714.30 135.07 L 717.95 130.11 L 721.60 127.74 L 725.25 133.84 L 728.90 141.02 L 732.55 145.86 L 736.20 144.49 L 739.85 148.95 L 743.50 142.73 L 747.15 137.60 L 750.80 133.28 L 754.45 130.12 L 758.10 133.81 L 761.75 136.99 L 765.40 136.88 L 769.05 134.52 L 772.70 142.71 L 776.35 136.82 L 780.00 130.36" class="path-0" />
<path d="M 50.00 156.94 L 53.65 160.85 L 57.30 161.94 L 60.95 156.32 L 64.60 149.00 L 68.25 155.69 L 71.90 158.50 L 75.55 148.77 L 79.20 148.06 L 82.85 155.74 L 86.50 147.50 L 90.15 144.20 L 93.80 149.79 L 97.45 156.66 L 101.10 158.41 L 104.75 156.67 L 108.40 155.43 L 112.05 149.39 L 115.70 136.79 L 119.35 133.73 L 123.00 123.27 L 126.65 118.85 L 130.30 119.39 L 133.95 123.15 L 137.60 122.61 L 141.25 117.16 L 144.90 121.61 L 148.55 117.49 L 152.20 125.18 L 155.85 119.92 L 159.50 124.51 L 163.15 134.45 L 166.80 134.56 L 170.45 125.47 L 174.10 127.17 L 177.75 126.86 L 181.40 125.73 L 185.05 126.99 L 188.70 128.07 L 192.35 118.40 L 196.00 116.01 L 199.65 120.20 L 203.30 114.11 L 206.95 110.39 L 210.60 109.04 L 214.25 108.12 L 217.90 107.40 L 221.55 109.47 L 225.20 118.10 L 228.85 122.03 L 232.50 118.44 L 236.15 116.79 L 239.80 114.54 L 243.45 112.43 L 247.10 104.34 L 250.75 98.12 L 254.40 96.35 L 258.05 84.16 L 261.70 91.16 L 265.35 83.30 L 269.00 84.70 L 272.65 81.22 L 276.30 78.23 L 279.95 82.48 L 283.60 75.87 L 287.25 78.22 L 290.90 81.94 L 294.55 79.39 L 298.20 75.81 L 301.85 65.38 L 305.50 73.80 L 309.15 83.42 L 312.80 85.70 L 316.45 92.91 L 320.10 96.86 L 323.75 91.98 L 327.40 93.25 L 331.05 90.72 L 334.70 97.76 L 338.35 107.66 L 342.00 100.13 L 345.65 101.26 L 349.30 102.39 L 352.95 92.82 L 356.60 94.16 L 360.25 92.55 L 363.90 86.55 L 367.55 79.25 L 371.20 83.97 L 374.85 82.91 L 378.50 84.64 L 382.15 82.57 L 385.80 74.38 L 389.45 84.73 L 393.10 87.33 L 396.75 89.15 L 400.40 93.91 L 404.05 90.13 L 407.70 92.80 L 411.35 99.91 L 415.00 101.34 L 418.65 101.50 L 422.30 94.50 L 425.95 92.65 L 429.60 97.97 L 433.25 97.65 L 436.90 88.80 L 440.55 90.69 L 444.20 95.02 L 447.85 97.11 L 451.50 101.21 L 455.15 100.21 L 458.80 104.67 L 462.45 98.09 L 466.10 103.10 L 469.75 102.75 L 473.40 89.86 L 477.05 99.64 L 480.70 103.69 L 484.35 94.39 L 488.00 94.87 L 491.65 92.66 L 495.30 95.07 L 498.95 97.91 L 502.60 98.28 L 506.25 93.00 L 509.90 102.68 L 513.55 96.73 L 517.20 97.37 L 520.85 94.83 L 524.50 95.28 L 528.15 97.44 L 531.80 93.31 L 535.45 85.63 L 539.10 88.25 L 542.75 93.96 L 546.40 89.13 L 550.05 88.74 L 553.70 95.06 L 557.35 95.76 L 561.00 93.39 L 564.65 91.83 L 568.30 86.78 L 571.95 78.58 L 575.60 82.07 L 579.25 73.00 L 582.90 76.58 L 586.55 72.60 L 590.20 73.80 L 593.85 70.74 L 597.50 70.95 L 601.15 79.06 L 604.80 79.99 L 608.45 79.60 L 612.10 75.88 L 615.75 80.62 L 619.40 80.74 L 623.05 79.10 L 626.70 74.92 L 630.35 81.29 L 634.00 91.70 L 637.65 97.08 L 641.30 87.48 L 644.95 88.72 L 648.60 92.02 L 652.25 89.37 L 655.90 91.26 L 659.55 97.92 L 663.20 101.29 L 666.85 107.95 L 670.50 103.67 L 674.15 108.75 L 677.80 110.15 L 681.45 113.86 L 685.10 114.91 L 688.75 96.42 L 692.40 91.53 L 696.05 80.56 L 699.70 75.22 L 703.35 72.05 L 707.00 79.60 L 710.65 86.62 L 714.30 81.73 L 717.95 84.45 L 721.60 86.83 L 725.25 80.73 L 728.90 85.71 L 732.55 85.20 L 736.20 79.80 L 739.85 76.09 L 743.50 81.95 L 747.15 87.85 L 750.80 91.77 L 754.45 101.58 L 758.10 106.80 L 761.75 94.96 L 765.40 91.24 L 769.05 97.42 L 772.70 94.46 L 776.35 85.26 L 780.00 88.04" class="path-1" />
<path d="M 50.00 156.94 L 53.65 151.98 L 57.30 147.28 L 60.95 148.35 L 64.60 146.62 L 68.25 156.13 L 71.90 158.58 L 75.55 158.07 L 79.20 159.04 L 82.85 163.10 L 86.50 161.86 L 90.15 160.84 L 93.80 158.96 L 97.45 161.36 L 101.10 161.93 L 104.75 161.28 L 108.40 161.55 L 112.05 160.25 L 115.70 163.51 L 119.35 160.22 L 123.00 155.54 L 126.65 152.50 L 130.30 157.22 L 133.95 160.05 L 137.60 164.63 L 141.25 160.69 L 144.90 167.09 L 148.55 173.99 L 152.20 173.88 L 155.85 174.11 L 159.50 176.92 L 163.15 173.69 L 166.80 169.47 L 170.45 175.72 L 174.10 177.06 L 177.75 174.29 L 181.40 191.56 L 185.05 193.81 L 188.70 192.77 L 192.35 195.25 L 196.00 193.51 L 199.65 187.69 L 203.30 189.68 L 206.95 194.00 L 210.60 189.33 L 214.25 188.45 L 217.90 195.05 L 221.55 198.44 L 225.20 198.94 L 228.85 201.54 L 232.50 196.29 L 236.15 194.75 L 239.80 199.53 L 243.45 198.06 L 247.10 198.22 L 250.75 202.71 L 254.40 208.37 L 258.05 202.01 L 261.70 200.71 L 265.35 198.24 L 269.00 200.29 L 272.65 204.82 L 276.30 203.86 L 279.95 199.02 L 283.60 212.64 L 287.25 215.24 L 290.90 213.41 L 294.55 204.54 L 298.20 205.53 L 301.85 210.70 L 305.50 204.92 L 309.15 209.26 L 312.80 203.97 L 316.45 208.30 L 320.10 202.73 L 323.75 197.36 L 327.40 196.88 L 331.05 193.79 L 334.70 195.77 L 338.35 199.54 L 342.00 197.85 L 345.65 204.26 L 349.30 201.52 L 352.95 203.18 L 356.60 218.13 L 360.25 211.34 L 363.90 207.39 L 367.55 204.23 L 371.20 211.22 L 374.85 220.23 L 378.50 221.38 L 382.15 216.94 L 385.80 214.53 L 389.45 216.33 L 393.10 206.92 L 396.75 205.53 L 400.40 205.29 L 404.05 197.22 L 407.70 199.19 L 411.35 198.55 L 415.00 185.01 L 418.65 194.30 L 422.30 182.43 L 425.95 182.57 L 429.60 183.13 L 433.25 179.47 L 436.90 191.93 L 440.55 190.83 L 444.20 188.41 L 447.85 189.36 L 451.50 190.72 L 455.15 194.66 L 458.80 193.04 L 462.45 200.90 L 466.10 203.66 L 469.75 200.17 L 473.40 212.74 L 477.05 216.13 L 480.70 216.43 L 484.35 211.49 L 488.00 203.88 L 491.65 206.53 L 495.30 215.32 L 498.95 206.87 L 502.60 203.17 L 506.25 195.23 L 509.90 191.98 L 513.55 201.87 L 517.20 201.68 L 520.85 200.97 L 524.50 201.11 L 528.15 198.89 L 531.80 197.33 L 535.45 201.35 L 539.10 196.16 L 542.75 190.38 L 546.40 190.54 L 550.05 194.69 L 553.70 208.07 L 557.35 202.97 L 561.00 203.83 L 564.65 205.39 L 568.30 204.63 L 571.95 195.83 L 575.60 183.24 L 579.25 186.83 L 582.90 183.01 L 586.55 183.19 L 590.20 179.12 L 593.85 185.70 L 597.50 182.60 L 601.15 183.57 L 604.80 191.62 L 608.45 182.44 L 612.10 190.73 L 615.75 181.39 L 619.40 175.81 L 623.05 177.07 L 626.70 178.33 L 630.35 183.36 L 634.00 187.28 L 637.65 196.62 L 641.30 195.06 L 644.95 191.13 L 648.60 196.01 L 652.25 193.47 L 655.90 196.65 L 659.55 199.65 L 663.20 196.90 L 666.85 198.19 L 670.50 196.98 L 674.15 194.20 L 677.80 199.72 L 681.45 191.99 L 685.10 185.68 L 688.75 185.53 L 692.40 187.48 L 696.05 186.63 L 699.70 189.49 L 703.35 180.44 L 707.00 177.44 L 710.65 169.21 L 714.30 170.63 L 717.95 164.50 L 721.60 172.85 L 725.25 174.43 L 728.90 172.46 L 732.55 169.57 L 736.20 166.62 L 739.85 172.60 L 743.50 178.49 L 747.15 179.30 L 750.80 178.64 L 754.45 178.22 L 758.10 176.95 L 761.75 175.57 L 765.40 175.58 L 769.05 173.57 L 772.70 181.52 L 776.35 181.39 L 780.00 173.30" class="path-2" />
<path d="M 50.00 156.94 L 53.65 146.56 L 57.30 150.07 L 60.95 151.54 L 64.60 147.77 L 68.25 156.38 L 71.90 140.87 L 75.55 131.95 L 79.20 135.99 L 82.85 142.14 L 86.50 131.88 L 90.15 137.07 L 93.80 133.95 L 97.45 126.89 L 101.10 128.83 L 104.75 125.09 L 108.40 127.28 L 112.05 128.98 L 115.70 128.88 L 119.35 131.11 L 123.00 130.74 L 126.65 133.73 L 130.30 131.73 L 133.95 128.08 L 137.60 118.94 L 141.25 123.80 L 144.90 132.42 L 148.55 134.10 L 152.20 140.88 L 155.85 145.84 L 159.50 144.37 L 163.15 141.85 L 166.80 142.45 L 170.45 141.04 L 174.10 141.91 L 177.75 138.15 L 181.40 130.73 L 185.05 123.67 L 188.70 128.22 L 192.35 130.26 L 196.00 123.83 L 199.65 121.54 L 203.30 126.21 L 206.95 135.40 L 210.60 131.61 L 214.25 135.96 L 217.90 137.76 L 221.55 140.23 L 225.20 142.19 L 228.85 147.23 L 232.50 150.74 L 236.15 154.38 L 239.80 153.23 L 243.45 159.77 L 247.10 152.60 L 250.75 144.21 L 254.40 145.64 L 258.05 145.67 L 261.70 133.31 L 265.35 136.82 L 269.00 141.50 L 272.65 136.04 L 276.30 131.89 L 279.95 129.60 L 283.60 130.03 L 287.25 130.14 L 290.90 127.62 L 294.55 125.09 L 298.20 121.81 L 301.85 123.21 L 305.50 119.54 L 309.15 113.44 L 312.80 124.22 L 316.45 128.64 L 320.10 131.64 L 323.75 136.57 L 327.40 136.36 L 331.05 142.33 L 334.70 137.85 L 338.35 137.21 L 342.00 141.18 L 345.65 133.99 L 349.30 144.64 L 352.95 141.67 L 356.60 141.72 L 360.25 135.66 L 363.90 135.19 L 367.55 140.41 L 371.20 133.16 L 374.85 128.67 L 378.50 136.98 L 382.15 135.67 L 385.80 138.70 L 389.45 146.53 L 393.10 144.93 L 396.75 149.94 L 400.40 156.91 L 404.05 158.01 L 407.70 157.58 L 411.35 156.03 L 415.00 158.25 L 418.65 157.96 L 422.30 171.82 L 425.95 179.06 L 429.60 174.64 L 433.25 181.31 L 436.90 182.17 L 440.55 182.77 L 444.20 184.51 L 447.85 186.72 L 451.50 181.36 L 455.15 180.71 L 458.80 174.21 L 462.45 187.12 L 466.10 191.67 L 469.75 191.05 L 473.40 191.77 L 477.05 199.64 L 480.70 200.46 L 484.35 200.49 L 488.00 192.31 L 491.65 192.26 L 495.30 193.60 L 498.95 189.66 L 502.60 199.32 L 506.25 199.97 L 509.90 207.29 L 513.55 203.08 L 517.20 205.94 L 520.85 202.59 L 524.50 205.54 L 528.15 209.12 L 531.80 205.94 L 535.45 204.09 L 539.10 213.63 L 542.75 210.90 L 546.40 208.79 L 550.05 211.45 L 553.70 213.60 L 557.35 209.02 L 561.00 212.16 L 564.65 212.82 L 568.30 209.30 L 571.95 205.68 L 575.60 215.32 L 579.25 218.15 L 582.90 214.20 L 586.55 213.46 L 590.20 215.49 L 593.85 224.57 L 597.50 229.02 L 601.15 231.56 L 604.80 232.33 L 608.45 234.62 L 612.10 232.86 L 615.75 224.46 L 619.40 227.76 L 623.05 220.16 L 626.70 215.49 L 630.35 212.44 L 634.00 213.83 L 637.65 209.06 L 641.30 207.48 L 644.95 209.97 L 648.60 215.17 L 652.25 220.48 L 655.90 220.88 L 659.55 223.33 L 663.20 224.85 L 666.85 221.16 L 670.50 209.99 L 674.15 205.69 L 677.80 208.06 L 681.45 200.99 L 685.10 195.00 L 688.75 202.57 L 692.40 211.97 L 696.05 209.04 L 699.70 199.46 L 703.35 200.34 L 707.00 196.10 L 710.65 192.88 L 714.30 198.05 L 717.95 190.90 L 721.60 188.39 L 725.25 188.96 L 728.90 194.61 L 732.55 196.41 L 736.20 197.52 L 739.85 194.20 L 743.50 194.68 L 747.15 185.39 L 750.80 191.55 L 754.45 199.15 L 758.10 200.29 L 761.75 206.47 L 765.40 204.73 L 769.05 201.51 L 772.70 203.83 L 776.35 200.60 L 780.00 203.60" class="path-3" />
<path d="M 50.00 156.94 L 53.65 163.81 L 57.30 162.50 L 60.95 163.08 L 64.60 158.84 L 68.25 156.94 L 71.90 149.64 L 75.55 150.46 L 79.20 142.89 L 82.85 151.73 L 86.50 144.39 L 90.15 144.70 L 93.80 151.29 L 97.45 140.51 L 101.10 139.24 L 104.75 142.02 L 108.40 142.20 L 112.05 138.20 L 115.70 137.04 L 119.35 142.65 L 123.00 140.20 L 126.65 132.22 L 130.30 127.00 L 133.95 143.46 L 137.60 146.69 L 141.25 155.06 L 144.90 148.23 L 148.55 142.48 L 152.20 138.90 L 155.85 137.62 L 159.50 133.13 L 163.15 145.18 L 166.80 155.30 L 170.45 158.40 L 174.10 155.20 L 177.75 161.54 L 181.40 165.43 L 185.05 164.79 L 188.70 164.67 L 192.35 169.09 L 196.00 157.64 L 199.65 152.22 L 203.30 158.59 L 206.95 167.36 L 210.60 169.22 L 214.25 174.68 L 217.90 179.68 L 221.55 188.25 L 225.20 189.61 L 228.85 189.17 L 232.50 187.05 L 236.15 187.33 L 239.80 184.42 L 243.45 180.84 L 247.10 173.43 L 250.75 176.43 L 254.40 171.41 L 258.05 169.84 L 261.70 165.85 L 265.35 161.48 L 269.00 172.56 L 272.65 175.37 L 276.30 172.01 L 279.95 166.53 L 283.60 164.66 L 287.25 158.00 L 290.90 160.14 L 294.55 161.82 L 298.20 157.64 L 301.85 159.26 L 305.50 162.28 L 309.15 164.44 L 312.80 173.84 L 316.45 171.76 L 320.10 177.57 L 323.75 176.88 L 327.40 179.78 L 331.05 177.46 L 334.70 181.63 L 338.35 181.93 L 342.00 174.50 L 345.65 174.05 L 349.30 173.56 L 352.95 174.58 L 356.60 169.14 L 360.25 166.22 L 363.90 169.70 L 367.55 166.09 L 371.20 168.14 L 374.85 166.66 L 378.50 171.35 L 382.15 169.90 L 385.80 166.62 L 389.45 167.49 L 393.10 170.55 L 396.75 165.47 L 400.40 164.26 L 404.05 164.17 L 407.70 164.38 L 411.35 166.25 L 415.00 164.94 L 418.65 167.40 L 422.30 164.61 L 425.95 159.59 L 429.60 159.30 L 433.25 162.22 L 436.90 165.12 L 440.55 167.21 L 444.20 161.53 L 447.85 159.18 L 451.50 160.05 L 455.15 167.32 L 458.80 167.81 L 462.45 167.64 L 466.10 169.35 L 469.75 169.76 L 473.40 170.52 L 477.05 180.21 L 480.70 185.26 L 484.35 181.11 L 488.00 172.15 L 491.65 169.10 L 495.30 162.83 L 498.95 164.46 L 502.60 156.78 L 506.25 166.11 L 509.90 164.19 L 513.55 159.45 L 517.20 157.68 L 520.85 155.12 L 524.50 154.27 L 528.15 159.95 L 531.80 147.06 L 535.45 142.74 L 539.10 142.23 L 542.75 131.52 L 546.40 130.83 L 550.05 138.75 L 553.70 133.80 L 557.35 132.62 L 561.00 134.05 L 564.65 130.87 L 568.30 129.35 L 571.95 123.58 L 575.60 125.48 L 579.25 120.47 L 582.90 113.26 L 586.55 111.64 L 590.20 117.19 L 593.85 113.59 L 597.50 109.07 L 601.15 111.84 L 604.80 115.05 L 608.45 115.36 L 612.10 112.00 L 615.75 102.85 L 619.40 102.35 L 623.05 102.53 L 626.70 99.04 L 630.35 106.94 L 634.00 104.63 L 637.65 101.78 L 641.30 100.93 L 644.95 94.86 L 648.60 83.35 L 652.25 90.89 L 655.90 98.06 L 659.55 96.11 L 663.20 109.27 L 666.85 106.42 L 670.50 104.36 L 674.15 104.85 L 677.80 107.95 L 681.45 104.97 L 685.10 102.38 L 688.75 96.37 L 692.40 97.13 L 696.05 93.46 L 699.70 90.57 L 703.35 89.38 L 707.00 89.35 L 710.65 93.75 L 714.30 98.78 L 717.95 98.42 L 721.60 98.18 L 725.25 101.83 L 728.90 108.61 L 732.55 102.85 L 736.20 109.25 L 739.85 106.69 L 743.50 110.68 L 747.15 110.80 L 750.80 108.33 L 754.45 119.45 L 758.10 124.63 L 761.75 123.26 L 765.40 127.57 L 769.05 129.83 L 772.70 132.96 L 776.35 134.67 L 780.00 136.80" class="path-4" />
<line x1="50" y1="156.9" x2="780" y2="156.9" stroke="#4b5563" stroke-width="0.8" stroke-dasharray="6 3" />
</svg>