<svg xmlns="http://www.w3.org/2000/svg" viewBox="0 0 800 300" width="800" height="300">
<style>
.axis-line { stroke: #6b7280; stroke-width: 0.5; }
.axis-text { font-family: monospace; font-size: 11px; fill: #9ca3af; }
.title-text { font-family: monospace; font-size: 14px; fill: #d1d5db; font-weight: bold; }
.grid-line { stroke: #374151; stroke-width: 0.3; stroke-dasharray: 4 2; }
.path-0 { fill: none; stroke: #3b82f6; stroke-width: 2; stroke-linecap: round; opacity: 0.85; animation: draw-0 8s ease-in-out 0.0s infinite; stroke-dasharray: 998; stroke-dashoffset: 998;}
@keyframes draw-0 { 0% { stroke-dashoffset: 998; } 38% { stroke-dashoffset: 0; } 62% { stroke-dashoffset: 0; } 100% { stroke-dashoffset: 998; }}
.path-1 { fill: none; stroke: #ef4444; stroke-width: 2; stroke-linecap: round; opacity: 0.85; animation: draw-1 8s ease-in-out 0.4s infinite; stroke-dasharray: 993; stroke-dashoffset: 993;}
@keyframes draw-1 { 0% { stroke-dashoffset: 993; } 38% { stroke-dashoffset: 0; } 62% { stroke-dashoffset: 0; } 100% { stroke-dashoffset: 993; }}
.path-2 { fill: none; stroke: #22c55e; stroke-width: 2; stroke-linecap: round; opacity: 0.85; animation: draw-2 8s ease-in-out 0.8s infinite; stroke-dasharray: 1011; stroke-dashoffset: 1011;}
@keyframes draw-2 { 0% { stroke-dashoffset: 1011; } 38% { stroke-dashoffset: 0; } 62% { stroke-dashoffset: 0; } 100% { stroke-dashoffset: 1011; }}
.path-3 { fill: none; stroke: #f59e0b; stroke-width: 2; stroke-linecap: round; opacity: 0.85; animation: draw-3 8s ease-in-out 1.2000000000000002s infinite; stroke-dasharray: 1004; stroke-dashoffset: 1004;}
@keyframes draw-3 { 0% { stroke-dashoffset: 1004; } 38% { stroke-dashoffset: 0; } 62% { stroke-dashoffset: 0; } 100% { stroke-dashoffset: 1004; }}
.path-4 { fill: none; stroke: #a855f7; stroke-width: 2; stroke-linecap: round; opacity: 0.85; animation: draw-4 8s ease-in-out 1.6s infinite; stroke-dasharray: 1010; stroke-dashoffset: 1010;}
@keyframes draw-4 { 0% { stroke-dashoffset: 1010; } 38% { stroke-dashoffset: 0; } 62% { stroke-dashoffset: 0; } 100% { stroke-dashoffset: 1010; }}
</style>
<rect width="800" height="300" rx="8" fill="#0d1117" />
<line x1="50" y1="260.0" x2="780" y2="260.0" class="grid-line" />
<text x="44" y="264.0" text-anchor="end" class="axis-text">-1.9</text>
<line x1="50" y1="216.0" x2="780" y2="216.0" class="grid-line" />
<text x="44" y="220.0" text-anchor="end" class="axis-text">-1.1</text>
<line x1="50" y1="172.0" x2="780" y2="172.0" class="grid-line" />
<text x="44" y="176.0" text-anchor="end" class="axis-text">-0.3</text>
<line x1="50" y1="128.0" x2="780" y2="128.0" class="grid-line" />
<text x="44" y="132.0" text-anchor="end" class="axis-text">0.5</text>
<line x1="50" y1="84.0" x2="780" y2="84.0" class="grid-line" />
<text x="44" y="88.0" text-anchor="end" class="axis-text">1.4</text>
<line x1="50" y1="40.0" x2="780" y2="40.0" class="grid-line" />
<text x="44" y="44.0" text-anchor="end" class="axis-text">2.2</text>
<line x1="50.0" y1="40" x2="50.0" y2="260" class="grid-line" />
<line x1="196.0" y1="40" x2="196.0" y2="260" class="grid-line" />
<line x1="342.0" y1="40" x2="342.0" y2="260" class="grid-line" />
<line x1="488.0" y1="40" x2="488.0" y2="260" class="grid-line" />
<line x1="634.0" y1="40" x2="634.0" y2="260" class="grid-line" />
<line x1="780.0" y1="40" x2="780.0" y2="260" class="grid-line" />
<line x1="50" y1="260" x2="780" y2="260" class="axis-line" />
<line x1="50" y1="40" x2="50" y2="260" class="axis-line" />
<text x="400.0" y="295" text-anchor="middle" class="axis-text">t</text>
<text x="12" y="150.0" text-anchor="middle" class="axis-text" transform="rotate(-90 12 150.0)">W(t)</text>
<text x="400.0" y="22" text-anchor="middle" class="title-text">Brownian Motion</text>
<path d="M 50.00 157.51 L 53.65 160.77 L 57.30 156.37 L 60.95 154.91 L 64.60 162.57 L 68.25 164.90 L 71.90 167.34 L 75.55 166.95 L 79.20 166.07 L 82.85 170.48 L 86.50 172.85 L 90.15 174.02 L 93.80 170.66 L 97.45 174.55 L 101.10 180.53 L 104.75 182.48 L 108.40 181.18 L 112.05 181.08 L 115.70 181.33 L 119.35 183.14 L 123.00 185.04 L 126.65 187.52 L 130.30 186.93 L 133.95 183.00 L 137.60 179.59 L 141.25 181.60 L 144.90 179.63 L 148.55 184.15 L 152.20 181.44 L 155.85 182.16 L 159.50 178.27 L 163.15 178.83 L 166.80 183.46 L 170.45 177.05 L 174.10 172.13 L 177.75 170.48 L 181.40 166.17 L 185.05 168.45 L 188.70 167.13 L 192.35 166.75 L 196.00 169.15 L 199.65 170.05 L 203.30 172.34 L 206.95 176.98 L 210.60 173.86 L 214.25 175.31 L 217.90 172.73 L 221.55 168.07 L 225.20 165.73 L 228.85 166.02 L 232.50 167.43 L 236.15 164.25 L 239.80 163.89 L 243.45 158.80 L 247.10 160.38 L 250.75 165.30 L 254.40 167.29 L 258.05 163.07 L 261.70 160.27 L 265.35 165.69 L 269.00 166.81 L 272.65 164.42 L 276.30 162.17 L 279.95 157.49 L 283.60 161.58 L 287.25 162.57 L 290.90 165.11 L 294.55 166.79 L 298.20 162.05 L 301.85 158.79 L 305.50 160.84 L 309.15 164.43 L 312.80 165.37 L 316.45 163.88 L 320.10 162.19 L 323.75 153.60 L 327.40 151.00 L 331.05 151.91 L 334.70 151.20 L 338.35 147.05 L 342.00 146.00 L 345.65 142.89 L 349.30 141.61 L 352.95 142.57 L 356.60 138.70 L 360.25 141.51 L 363.90 140.87 L 367.55 142.32 L 371.20 145.72 L 374.85 140.02 L 378.50 145.48 L 382.15 148.20 L 385.80 150.91 L 389.45 155.10 L 393.10 150.43 L 396.75 153.09 L 400.40 154.65 L 404.05 147.69 L 407.70 147.94 L 411.35 154.85 L 415.00 154.56 L 418.65 159.26 L 422.30 159.97 L 425.95 162.98 L 429.60 163.92 L 433.25 162.92 L 436.90 157.11 L 440.55 148.97 L 444.20 144.78 L 447.85 145.02 L 451.50 146.77 L 455.15 147.67 L 458.80 153.80 L 462.45 154.41 L 466.10 153.36 L 469.75 159.30 L 473.40 162.82 L 477.05 165.37 L 480.70 167.77 L 484.35 159.86 L 488.00 159.88 L 491.65 162.11 L 495.30 161.50 L 498.95 152.43 L 502.60 152.71 L 506.25 154.38 L 509.90 156.63 L 513.55 160.60 L 517.20 160.90 L 520.85 159.85 L 524.50 154.60 L 528.15 157.85 L 531.80 165.04 L 535.45 160.58 L 539.10 159.10 L 542.75 159.36 L 546.40 163.57 L 550.05 164.32 L 553.70 164.29 L 557.35 163.89 L 561.00 167.87 L 564.65 171.27 L 568.30 167.57 L 571.95 170.02 L 575.60 168.86 L 579.25 161.91 L 582.90 160.77 L 586.55 162.10 L 590.20 162.55 L 593.85 164.31 L 597.50 164.24 L 601.15 159.83 L 604.80 160.06 L 608.45 164.28 L 612.10 169.17 L 615.75 172.19 L 619.40 178.73 L 623.05 175.24 L 626.70 171.40 L 630.35 173.16 L 634.00 174.21 L 637.65 177.39 L 641.30 187.43 L 644.95 182.63 L 648.60 180.63 L 652.25 184.13 L 655.90 183.69 L 659.55 179.86 L 663.20 183.79 L 666.85 183.20 L 670.50 191.43 L 674.15 187.45 L 677.80 194.17 L 681.45 194.88 L 685.10 194.52 L 688.75 194.95 L 692.40 198.16 L 696.05 198.40 L 699.70 199.62 L 703.35 200.80 L 707.00 200.56 L 710.65 197.78 L 714.30 197.01 L 717.95 194.43 L 721.60 193.48 L 725.25 191.88 L 728.90 194.49 L 732.55 202.96 L 736.20 209.68 L 739.85 210.43 L 743.50 216.66 L 747.15 221.75 L 750.80 231.46 L 754.45 223.83 L 758.10 227.96 L 761.75 229.27 L 765.40 228.73 L 769.05 225.78 L 772.70 225.82 L 776.35 229.75 L 780.00 234.46" class="path-0" />
<path d="M 50.00 157.51 L 53.65 159.97 L 57.30 159.70 L 60.95 159.26 L 64.60 164.29 L 68.25 164.08 L 71.90 167.90 L 75.55 171.01 L 79.20 166.99 L 82.85 170.00 L 86.50 172.05 L 90.15 171.54 L 93.80 170.66 L 97.45 176.19 L 101.10 176.07 L 104.75 176.87 L 108.40 182.10 L 112.05 177.55 L 115.70 176.29 L 119.35 178.93 L 123.00 174.15 L 126.65 175.00 L 130.30 173.14 L 133.95 172.87 L 137.60 168.18 L 141.25 174.22 L 144.90 171.47 L 148.55 174.66 L 152.20 177.80 L 155.85 181.01 L 159.50 179.12 L 163.15 179.00 L 166.80 180.08 L 170.45 180.06 L 174.10 180.32 L 177.75 185.82 L 181.40 187.24 L 185.05 189.45 L 188.70 187.03 L 192.35 179.98 L 196.00 177.93 L 199.65 179.78 L 203.30 185.95 L 206.95 173.90 L 210.60 182.88 L 214.25 181.49 L 217.90 182.92 L 221.55 187.35 L 225.20 187.00 L 228.85 187.18 L 232.50 187.85 L 236.15 185.43 L 239.80 184.16 L 243.45 183.29 L 247.10 180.56 L 250.75 183.40 L 254.40 181.70 L 258.05 178.46 L 261.70 176.92 L 265.35 184.56 L 269.00 189.93 L 272.65 187.78 L 276.30 189.90 L 279.95 192.26 L 283.60 184.16 L 287.25 178.80 L 290.90 174.08 L 294.55 170.53 L 298.20 174.94 L 301.85 176.64 L 305.50 170.97 L 309.15 179.36 L 312.80 180.90 L 316.45 180.01 L 320.10 174.22 L 323.75 174.59 L 327.40 175.41 L 331.05 174.00 L 334.70 180.69 L 338.35 178.63 L 342.00 176.74 L 345.65 177.55 L 349.30 172.50 L 352.95 173.81 L 356.60 173.72 L 360.25 176.99 L 363.90 172.32 L 367.55 169.24 L 371.20 172.22 L 374.85 172.89 L 378.50 176.69 L 382.15 178.09 L 385.80 182.39 L 389.45 180.78 L 393.10 183.89 L 396.75 188.89 L 400.40 188.01 L 404.05 188.46 L 407.70 189.03 L 411.35 189.00 L 415.00 184.84 L 418.65 184.91 L 422.30 189.82 L 425.95 188.91 L 429.60 189.83 L 433.25 190.92 L 436.90 193.77 L 440.55 197.58 L 444.20 193.68 L 447.85 193.09 L 451.50 196.65 L 455.15 199.57 L 458.80 205.80 L 462.45 208.27 L 466.10 210.65 L 469.75 205.41 L 473.40 206.21 L 477.05 208.58 L 480.70 206.59 L 484.35 202.37 L 488.00 200.11 L 491.65 192.76 L 495.30 191.19 L 498.95 188.88 L 502.60 188.60 L 506.25 185.90 L 509.90 184.30 L 513.55 188.11 L 517.20 187.94 L 520.85 190.87 L 524.50 184.99 L 528.15 189.93 L 531.80 191.90 L 535.45 188.43 L 539.10 183.71 L 542.75 183.92 L 546.40 186.46 L 550.05 188.42 L 553.70 192.36 L 557.35 188.83 L 561.00 194.11 L 564.65 192.97 L 568.30 191.40 L 571.95 190.10 L 575.60 191.35 L 579.25 189.30 L 582.90 191.96 L 586.55 189.42 L 590.20 194.86 L 593.85 191.06 L 597.50 193.20 L 601.15 194.47 L 604.80 193.09 L 608.45 197.60 L 612.10 196.78 L 615.75 202.53 L 619.40 202.43 L 623.05 207.44 L 626.70 205.57 L 630.35 202.47 L 634.00 201.71 L 637.65 200.43 L 641.30 200.52 L 644.95 196.89 L 648.60 200.69 L 652.25 195.89 L 655.90 191.52 L 659.55 193.54 L 663.20 185.85 L 666.85 187.68 L 670.50 186.36 L 674.15 188.54 L 677.80 186.45 L 681.45 198.20 L 685.10 198.75 L 688.75 197.37 L 692.40 203.70 L 696.05 207.82 L 699.70 209.99 L 703.35 213.04 L 707.00 215.51 L 710.65 220.89 L 714.30 216.48 L 717.95 213.00 L 721.60 210.28 L 725.25 207.92 L 728.90 213.74 L 732.55 215.23 L 736.20 220.61 L 739.85 224.13 L 743.50 223.44 L 747.15 219.81 L 750.80 226.69 L 754.45 229.58 L 758.10 230.94 L 761.75 227.89 L 765.40 230.93 L 769.05 234.62 L 772.70 232.23 L 776.35 233.00 L 780.00 234.02" class="path-1" />
<path d="M 50.00 157.51 L 53.65 161.61 L 57.30 156.34 L 60.95 158.29 L 64.60 157.15 L 68.25 156.66 L 71.90 158.94 L 75.55 160.56 L 79.20 154.10 L 82.85 148.24 L 86.50 143.85 L 90.15 145.04 L 93.80 146.92 L 97.45 145.28 L 101.10 143.25 L 104.75 137.82 L 108.40 139.20 L 112.05 139.73 L 115.70 133.97 L 119.35 133.28 L 123.00 130.35 L 126.65 131.75 L 130.30 134.59 L 133.95 130.96 L 137.60 132.16 L 141.25 139.10 L 144.90 144.92 L 148.55 142.42 L 152.20 136.28 L 155.85 134.50 L 159.50 139.01 L 163.15 134.21 L 166.80 134.75 L 170.45 128.25 L 174.10 128.50 L 177.75 128.80 L 181.40 126.79 L 185.05 132.21 L 188.70 129.48 L 192.35 122.12 L 196.00 122.93 L 199.65 123.04 L 203.30 122.60 L 206.95 123.99 L 210.60 131.33 L 214.25 137.48 L 217.90 145.38 L 221.55 148.39 L 225.20 145.48 L 228.85 146.54 L 232.50 151.62 L 236.15 155.65 L 239.80 149.04 L 243.45 147.09 L 247.10 142.65 L 250.75 134.98 L 254.40 130.93 L 258.05 128.50 L 261.70 127.96 L 265.35 126.73 L 269.00 122.67 L 272.65 121.17 L 276.30 115.82 L 279.95 112.54 L 283.60 117.02 L 287.25 113.69 L 290.90 109.20 L 294.55 112.52 L 298.20 108.58 L 301.85 103.91 L 305.50 101.07 L 309.15 101.99 L 312.80 100.75 L 316.45 102.85 L 320.10 103.63 L 323.75 102.74 L 327.40 104.22 L 331.05 103.94 L 334.70 103.21 L 338.35 102.56 L 342.00 104.21 L 345.65 106.22 L 349.30 104.64 L 352.95 99.07 L 356.60 101.50 L 360.25 96.67 L 363.90 94.44 L 367.55 94.02 L 371.20 93.71 L 374.85 93.38 L 378.50 88.65 L 382.15 93.51 L 385.80 98.98 L 389.45 93.29 L 393.10 92.00 L 396.75 89.62 L 400.40 98.97 L 404.05 94.44 L 407.70 96.53 L 411.35 91.67 L 415.00 89.49 L 418.65 94.94 L 422.30 95.40 L 425.95 95.80 L 429.60 99.34 L 433.25 92.50 L 436.90 88.46 L 440.55 95.40 L 444.20 90.73 L 447.85 92.57 L 451.50 91.41 L 455.15 88.08 L 458.80 82.68 L 462.45 84.53 L 466.10 89.02 L 469.75 91.90 L 473.40 98.07 L 477.05 95.69 L 480.70 98.77 L 484.35 96.89 L 488.00 98.25 L 491.65 101.14 L 495.30 100.91 L 498.95 101.50 L 502.60 100.62 L 506.25 93.76 L 509.90 91.40 L 513.55 94.15 L 517.20 98.78 L 520.85 99.24 L 524.50 96.18 L 528.15 102.46 L 531.80 101.25 L 535.45 95.97 L 539.10 94.47 L 542.75 91.69 L 546.40 88.78 L 550.05 89.15 L 553.70 92.18 L 557.35 91.57 L 561.00 87.65 L 564.65 83.64 L 568.30 81.34 L 571.95 81.82 L 575.60 82.09 L 579.25 76.99 L 582.90 77.61 L 586.55 67.72 L 590.20 70.72 L 593.85 70.54 L 597.50 67.67 L 601.15 67.81 L 604.80 70.48 L 608.45 65.56 L 612.10 70.67 L 615.75 70.55 L 619.40 72.05 L 623.05 75.56 L 626.70 75.34 L 630.35 76.80 L 634.00 79.35 L 637.65 75.66 L 641.30 74.63 L 644.95 72.77 L 648.60 65.38 L 652.25 72.49 L 655.90 74.02 L 659.55 69.92 L 663.20 70.28 L 666.85 73.11 L 670.50 79.93 L 674.15 79.74 L 677.80 74.60 L 681.45 76.73 L 685.10 76.29 L 688.75 74.33 L 692.40 75.24 L 696.05 73.25 L 699.70 76.93 L 703.35 80.69 L 707.00 89.52 L 710.65 89.53 L 714.30 87.18 L 717.95 88.16 L 721.60 85.30 L 725.25 81.82 L 728.90 82.51 L 732.55 88.97 L 736.20 90.21 L 739.85 86.95 L 743.50 83.21 L 747.15 85.36 L 750.80 81.61 L 754.45 85.52 L 758.10 90.11 L 761.75 88.79 L 765.40 83.27 L 769.05 81.68 L 772.70 82.18 L 776.35 84.80 L 780.00 81.43" class="path-2" />
<path d="M 50.00 157.51 L 53.65 160.62 L 57.30 164.12 L 60.95 165.62 L 64.60 161.41 L 68.25 159.62 L 71.90 162.97 L 75.55 157.62 L 79.20 156.72 L 82.85 153.69 L 86.50 157.80 L 90.15 153.34 L 93.80 146.42 L 97.45 143.53 L 101.10 140.67 L 104.75 140.36 L 108.40 144.26 L 112.05 142.27 L 115.70 138.34 L 119.35 135.16 L 123.00 142.31 L 126.65 142.60 L 130.30 143.25 L 133.95 145.78 L 137.60 140.37 L 141.25 144.34 L 144.90 149.81 L 148.55 153.12 L 152.20 145.70 L 155.85 145.70 L 159.50 147.82 L 163.15 145.00 L 166.80 141.46 L 170.45 136.49 L 174.10 134.58 L 177.75 133.32 L 181.40 131.45 L 185.05 133.20 L 188.70 134.05 L 192.35 134.36 L 196.00 131.44 L 199.65 130.46 L 203.30 132.11 L 206.95 128.61 L 210.60 124.81 L 214.25 126.15 L 217.90 123.71 L 221.55 123.61 L 225.20 127.52 L 228.85 128.86 L 232.50 127.74 L 236.15 126.27 L 239.80 126.29 L 243.45 129.10 L 247.10 132.32 L 250.75 132.57 L 254.40 133.63 L 258.05 127.13 L 261.70 130.55 L 265.35 130.12 L 269.00 130.12 L 272.65 128.18 L 276.30 130.77 L 279.95 135.80 L 283.60 139.08 L 287.25 145.59 L 290.90 139.56 L 294.55 140.21 L 298.20 144.68 L 301.85 144.28 L 305.50 139.63 L 309.15 135.85 L 312.80 134.16 L 316.45 138.37 L 320.10 136.59 L 323.75 137.45 L 327.40 134.09 L 331.05 130.97 L 334.70 141.58 L 338.35 142.28 L 342.00 141.94 L 345.65 142.18 L 349.30 142.71 L 352.95 138.75 L 356.60 138.60 L 360.25 142.19 L 363.90 139.63 L 367.55 139.72 L 371.20 141.35 L 374.85 136.93 L 378.50 133.90 L 382.15 137.22 L 385.80 144.86 L 389.45 142.02 L 393.10 145.86 L 396.75 143.74 L 400.40 137.70 L 404.05 142.68 L 407.70 147.01 L 411.35 151.43 L 415.00 148.86 L 418.65 148.36 L 422.30 145.08 L 425.95 143.08 L 429.60 146.62 L 433.25 147.75 L 436.90 152.02 L 440.55 159.10 L 444.20 156.36 L 447.85 160.97 L 451.50 163.20 L 455.15 161.40 L 458.80 167.30 L 462.45 161.24 L 466.10 166.27 L 469.75 164.58 L 473.40 167.45 L 477.05 166.03 L 480.70 164.38 L 484.35 166.40 L 488.00 170.42 L 491.65 171.81 L 495.30 174.88 L 498.95 176.91 L 502.60 180.71 L 506.25 176.82 L 509.90 174.03 L 513.55 174.67 L 517.20 171.53 L 520.85 168.73 L 524.50 164.87 L 528.15 161.13 L 531.80 157.87 L 535.45 154.79 L 539.10 153.84 L 542.75 149.21 L 546.40 149.83 L 550.05 146.04 L 553.70 145.71 L 557.35 148.93 L 561.00 151.17 L 564.65 152.33 L 568.30 155.21 L 571.95 147.21 L 575.60 138.26 L 579.25 138.95 L 582.90 135.02 L 586.55 136.71 L 590.20 139.87 L 593.85 134.78 L 597.50 132.36 L 601.15 135.56 L 604.80 134.64 L 608.45 135.03 L 612.10 133.09 L 615.75 128.08 L 619.40 131.53 L 623.05 128.89 L 626.70 129.72 L 630.35 129.83 L 634.00 129.24 L 637.65 130.38 L 641.30 137.23 L 644.95 141.79 L 648.60 150.72 L 652.25 155.07 L 655.90 157.93 L 659.55 155.02 L 663.20 156.73 L 666.85 159.08 L 670.50 161.10 L 674.15 163.50 L 677.80 168.19 L 681.45 170.18 L 685.10 171.57 L 688.75 176.39 L 692.40 172.69 L 696.05 181.63 L 699.70 180.32 L 703.35 180.97 L 707.00 187.39 L 710.65 186.67 L 714.30 192.57 L 717.95 186.32 L 721.60 189.51 L 725.25 182.57 L 728.90 177.51 L 732.55 178.95 L 736.20 181.78 L 739.85 176.63 L 743.50 170.41 L 747.15 169.67 L 750.80 168.13 L 754.45 169.87 L 758.10 168.00 L 761.75 167.83 L 765.40 170.79 L 769.05 167.94 L 772.70 168.91 L 776.35 171.31 L 780.00 176.58" class="path-3" />
<path d="M 50.00 157.51 L 53.65 152.92 L 57.30 148.22 L 60.95 146.77 L 64.60 149.72 L 68.25 152.52 L 71.90 158.22 L 75.55 159.79 L 79.20 159.07 L 82.85 162.42 L 86.50 164.58 L 90.15 167.90 L 93.80 168.11 L 97.45 163.11 L 101.10 161.11 L 104.75 159.99 L 108.40 157.26 L 112.05 160.30 L 115.70 156.42 L 119.35 162.02 L 123.00 162.39 L 126.65 162.84 L 130.30 159.56 L 133.95 162.54 L 137.60 155.75 L 141.25 154.14 L 144.90 154.90 L 148.55 155.71 L 152.20 156.34 L 155.85 152.16 L 159.50 151.23 L 163.15 146.55 L 166.80 141.17 L 170.45 141.34 L 174.10 140.96 L 177.75 142.22 L 181.40 141.18 L 185.05 142.86 L 188.70 139.23 L 192.35 142.91 L 196.00 136.58 L 199.65 135.20 L 203.30 132.96 L 206.95 135.20 L 210.60 131.55 L 214.25 120.36 L 217.90 117.69 L 221.55 116.26 L 225.20 111.12 L 228.85 116.26 L 232.50 117.13 L 236.15 121.03 L 239.80 124.07 L 243.45 128.47 L 247.10 125.52 L 250.75 126.26 L 254.40 127.25 L 258.05 130.50 L 261.70 133.55 L 265.35 140.43 L 269.00 137.52 L 272.65 140.68 L 276.30 141.10 L 279.95 140.33 L 283.60 134.86 L 287.25 127.58 L 290.90 124.63 L 294.55 122.91 L 298.20 119.02 L 301.85 114.67 L 305.50 114.66 L 309.15 108.62 L 312.80 102.78 L 316.45 105.39 L 320.10 115.07 L 323.75 112.64 L 327.40 115.99 L 331.05 112.74 L 334.70 108.22 L 338.35 109.79 L 342.00 110.00 L 345.65 105.50 L 349.30 102.13 L 352.95 109.04 L 356.60 104.23 L 360.25 100.39 L 363.90 104.41 L 367.55 104.49 L 371.20 112.61 L 374.85 106.20 L 378.50 103.21 L 382.15 102.78 L 385.80 104.95 L 389.45 98.93 L 393.10 96.40 L 396.75 95.92 L 400.40 93.34 L 404.05 93.97 L 407.70 96.79 L 411.35 96.39 L 415.00 97.33 L 418.65 93.00 L 422.30 92.92 L 425.95 92.17 L 429.60 93.70 L 433.25 91.85 L 436.90 96.19 L 440.55 95.66 L 444.20 96.47 L 447.85 99.75 L 451.50 96.52 L 455.15 102.46 L 458.80 96.63 L 462.45 103.97 L 466.10 103.35 L 469.75 97.65 L 473.40 94.54 L 477.05 100.51 L 480.70 101.22 L 484.35 99.07 L 488.00 99.62 L 491.65 99.30 L 495.30 98.98 L 498.95 98.04 L 502.60 96.89 L 506.25 98.69 L 509.90 96.48 L 513.55 99.26 L 517.20 98.90 L 520.85 104.80 L 524.50 98.24 L 528.15 98.29 L 531.80 97.69 L 535.45 98.79 L 539.10 97.94 L 542.75 98.09 L 546.40 96.75 L 550.05 95.90 L 553.70 95.03 L 557.35 94.28 L 561.00 95.01 L 564.65 90.63 L 568.30 89.94 L 571.95 99.03 L 575.60 96.97 L 579.25 102.05 L 582.90 103.64 L 586.55 107.91 L 590.20 105.03 L 593.85 107.16 L 597.50 113.10 L 601.15 109.70 L 604.80 108.41 L 608.45 108.82 L 612.10 106.25 L 615.75 103.74 L 619.40 101.38 L 623.05 100.72 L 626.70 94.87 L 630.35 93.76 L 634.00 88.06 L 637.65 82.26 L 641.30 79.13 L 644.95 77.43 L 648.60 81.66 L 652.25 82.78 L 655.90 79.78 L 659.55 75.86 L 663.20 82.11 L 666.85 86.10 L 670.50 81.46 L 674.15 80.62 L 677.80 79.83 L 681.45 74.28 L 685.10 70.87 L 688.75 74.27 L 692.40 73.54 L 696.05 73.85 L 699.70 75.59 L 703.35 78.01 L 707.00 83.52 L 710.65 87.53 L 714.30 79.16 L 717.95 85.51 L 721.60 86.28 L 725.25 89.95 L 728.90 95.41 L 732.55 94.51 L 736.20 102.65 L 739.85 101.20 L 743.50 96.61 L 747.15 93.08 L 750.80 97.85 L 754.45 96.35 L 758.10 97.99 L 761.75 94.61 L 765.40 89.01 L 769.05 91.64 L 772.70 94.09 L 776.35 89.24 L 780.00 87.47" class="path-4" />
<line x1="50" y1="157.5" x2="780" y2="157.5" stroke="#4b5563" stroke-width="0.8" stroke-dasharray="6 3" />
</svg>