<svg xmlns="http://www.w3.org/2000/svg" viewBox="0 0 800 300" width="800" height="300">
<style>
.axis-line { stroke: #6b7280; stroke-width: 0.5; }
.axis-text { font-family: monospace; font-size: 11px; fill: #9ca3af; }
.title-text { font-family: monospace; font-size: 14px; fill: #d1d5db; font-weight: bold; }
.grid-line { stroke: #374151; stroke-width: 0.3; stroke-dasharray: 4 2; }
.path-0 { fill: none; stroke: #3b82f6; stroke-width: 2; stroke-linecap: round; opacity: 0.85; animation: draw-0 8s ease-in-out 0.0s infinite; stroke-dasharray: 1072; stroke-dashoffset: 1072;}
@keyframes draw-0 { 0% { stroke-dashoffset: 1072; } 38% { stroke-dashoffset: 0; } 62% { stroke-dashoffset: 0; } 100% { stroke-dashoffset: 1072; }}
.path-1 { fill: none; stroke: #ef4444; stroke-width: 2; stroke-linecap: round; opacity: 0.85; animation: draw-1 8s ease-in-out 0.4s infinite; stroke-dasharray: 1092; stroke-dashoffset: 1092;}
@keyframes draw-1 { 0% { stroke-dashoffset: 1092; } 38% { stroke-dashoffset: 0; } 62% { stroke-dashoffset: 0; } 100% { stroke-dashoffset: 1092; }}
.path-2 { fill: none; stroke: #22c55e; stroke-width: 2; stroke-linecap: round; opacity: 0.85; animation: draw-2 8s ease-in-out 0.8s infinite; stroke-dasharray: 1072; stroke-dashoffset: 1072;}
@keyframes draw-2 { 0% { stroke-dashoffset: 1072; } 38% { stroke-dashoffset: 0; } 62% { stroke-dashoffset: 0; } 100% { stroke-dashoffset: 1072; }}
.path-3 { fill: none; stroke: #f59e0b; stroke-width: 2; stroke-linecap: round; opacity: 0.85; animation: draw-3 8s ease-in-out 1.2000000000000002s infinite; stroke-dasharray: 1048; stroke-dashoffset: 1048;}
@keyframes draw-3 { 0% { stroke-dashoffset: 1048; } 38% { stroke-dashoffset: 0; } 62% { stroke-dashoffset: 0; } 100% { stroke-dashoffset: 1048; }}
.path-4 { fill: none; stroke: #a855f7; stroke-width: 2; stroke-linecap: round; opacity: 0.85; animation: draw-4 8s ease-in-out 1.6s infinite; stroke-dasharray: 1064; stroke-dashoffset: 1064;}
@keyframes draw-4 { 0% { stroke-dashoffset: 1064; } 38% { stroke-dashoffset: 0; } 62% { stroke-dashoffset: 0; } 100% { stroke-dashoffset: 1064; }}
</style>
<rect width="800" height="300" rx="8" fill="#0d1117" />
<line x1="50" y1="260.0" x2="780" y2="260.0" class="grid-line" />
<text x="44" y="264.0" text-anchor="end" class="axis-text">-2.2</text>
<line x1="50" y1="216.0" x2="780" y2="216.0" class="grid-line" />
<text x="44" y="220.0" text-anchor="end" class="axis-text">-1.5</text>
<line x1="50" y1="172.0" x2="780" y2="172.0" class="grid-line" />
<text x="44" y="176.0" text-anchor="end" class="axis-text">-0.8</text>
<line x1="50" y1="128.0" x2="780" y2="128.0" class="grid-line" />
<text x="44" y="132.0" text-anchor="end" class="axis-text">-0.1</text>
<line x1="50" y1="84.0" x2="780" y2="84.0" class="grid-line" />
<text x="44" y="88.0" text-anchor="end" class="axis-text">0.7</text>
<line x1="50" y1="40.0" x2="780" y2="40.0" class="grid-line" />
<text x="44" y="44.0" text-anchor="end" class="axis-text">1.4</text>
<line x1="50.0" y1="40" x2="50.0" y2="260" class="grid-line" />
<line x1="196.0" y1="40" x2="196.0" y2="260" class="grid-line" />
<line x1="342.0" y1="40" x2="342.0" y2="260" class="grid-line" />
<line x1="488.0" y1="40" x2="488.0" y2="260" class="grid-line" />
<line x1="634.0" y1="40" x2="634.0" y2="260" class="grid-line" />
<line x1="780.0" y1="40" x2="780.0" y2="260" class="grid-line" />
<line x1="50" y1="260" x2="780" y2="260" class="axis-line" />
<line x1="50" y1="40" x2="50" y2="260" class="axis-line" />
<text x="400.0" y="295" text-anchor="middle" class="axis-text">t</text>
<text x="12" y="150.0" text-anchor="middle" class="axis-text" transform="rotate(-90 12 150.0)">W(t)</text>
<text x="400.0" y="22" text-anchor="middle" class="title-text">Brownian Motion</text>
<path d="M 50.00 124.79 L 53.65 125.33 L 57.30 119.53 L 60.95 126.27 L 64.60 127.20 L 68.25 130.39 L 71.90 131.36 L 75.55 136.07 L 79.20 138.23 L 82.85 141.32 L 86.50 134.82 L 90.15 135.84 L 93.80 136.33 L 97.45 136.98 L 101.10 132.76 L 104.75 134.52 L 108.40 129.72 L 112.05 132.05 L 115.70 129.41 L 119.35 137.24 L 123.00 143.45 L 126.65 146.10 L 130.30 146.10 L 133.95 143.44 L 137.60 146.24 L 141.25 147.44 L 144.90 147.55 L 148.55 148.08 L 152.20 148.10 L 155.85 148.30 L 159.50 143.79 L 163.15 150.84 L 166.80 152.84 L 170.45 152.38 L 174.10 154.76 L 177.75 159.44 L 181.40 157.63 L 185.05 158.68 L 188.70 159.14 L 192.35 158.99 L 196.00 164.91 L 199.65 162.91 L 203.30 163.54 L 206.95 163.34 L 210.60 168.51 L 214.25 169.45 L 217.90 165.21 L 221.55 171.82 L 225.20 167.74 L 228.85 158.97 L 232.50 165.49 L 236.15 161.70 L 239.80 155.43 L 243.45 154.66 L 247.10 162.49 L 250.75 162.70 L 254.40 165.53 L 258.05 169.21 L 261.70 176.88 L 265.35 183.15 L 269.00 176.62 L 272.65 171.03 L 276.30 169.07 L 279.95 165.81 L 283.60 163.24 L 287.25 161.57 L 290.90 169.09 L 294.55 165.30 L 298.20 176.47 L 301.85 169.93 L 305.50 170.46 L 309.15 164.17 L 312.80 168.21 L 316.45 169.31 L 320.10 166.32 L 323.75 173.26 L 327.40 175.13 L 331.05 170.46 L 334.70 169.01 L 338.35 170.55 L 342.00 180.59 L 345.65 183.92 L 349.30 183.43 L 352.95 180.70 L 356.60 182.37 L 360.25 186.73 L 363.90 188.70 L 367.55 189.03 L 371.20 194.13 L 374.85 196.68 L 378.50 195.62 L 382.15 198.46 L 385.80 195.67 L 389.45 199.41 L 393.10 191.98 L 396.75 190.47 L 400.40 187.35 L 404.05 180.05 L 407.70 177.42 L 411.35 177.19 L 415.00 175.92 L 418.65 178.37 L 422.30 176.87 L 425.95 182.80 L 429.60 181.21 L 433.25 178.79 L 436.90 184.66 L 440.55 183.78 L 444.20 183.86 L 447.85 183.91 L 451.50 186.45 L 455.15 184.02 L 458.80 188.41 L 462.45 192.16 L 466.10 196.80 L 469.75 193.58 L 473.40 191.02 L 477.05 190.31 L 480.70 194.24 L 484.35 193.37 L 488.00 184.96 L 491.65 180.32 L 495.30 180.41 L 498.95 182.24 L 502.60 181.69 L 506.25 181.29 L 509.90 180.97 L 513.55 179.22 L 517.20 178.93 L 520.85 180.98 L 524.50 179.31 L 528.15 173.32 L 531.80 171.47 L 535.45 170.97 L 539.10 162.53 L 542.75 172.55 L 546.40 175.15 L 550.05 174.05 L 553.70 175.12 L 557.35 184.88 L 561.00 183.55 L 564.65 189.28 L 568.30 193.71 L 571.95 191.93 L 575.60 195.05 L 579.25 192.20 L 582.90 194.90 L 586.55 197.16 L 590.20 190.86 L 593.85 194.00 L 597.50 188.27 L 601.15 185.18 L 604.80 190.18 L 608.45 190.46 L 612.10 176.22 L 615.75 171.13 L 619.40 169.45 L 623.05 172.73 L 626.70 171.45 L 630.35 178.58 L 634.00 181.63 L 637.65 179.94 L 641.30 184.15 L 644.95 190.38 L 648.60 183.53 L 652.25 184.09 L 655.90 184.15 L 659.55 182.66 L 663.20 184.92 L 666.85 186.45 L 670.50 185.30 L 674.15 182.73 L 677.80 178.20 L 681.45 181.96 L 685.10 184.75 L 688.75 177.94 L 692.40 161.22 L 696.05 165.30 L 699.70 165.22 L 703.35 161.85 L 707.00 155.53 L 710.65 154.95 L 714.30 152.06 L 717.95 147.96 L 721.60 141.95 L 725.25 136.78 L 728.90 134.56 L 732.55 127.48 L 736.20 124.91 L 739.85 123.95 L 743.50 124.85 L 747.15 131.61 L 750.80 134.74 L 754.45 134.81 L 758.10 133.25 L 761.75 131.79 L 765.40 133.24 L 769.05 134.94 L 772.70 134.57 L 776.35 143.01 L 780.00 150.82" class="path-0" />
<path d="M 50.00 124.79 L 53.65 120.73 L 57.30 121.22 L 60.95 118.98 L 64.60 116.96 L 68.25 104.40 L 71.90 107.87 L 75.55 104.62 L 79.20 107.32 L 82.85 111.10 L 86.50 113.98 L 90.15 118.45 L 93.80 114.33 L 97.45 119.83 L 101.10 123.32 L 104.75 123.42 L 108.40 122.01 L 112.05 125.45 L 115.70 118.04 L 119.35 121.43 L 123.00 125.56 L 126.65 127.55 L 130.30 125.73 L 133.95 126.02 L 137.60 125.55 L 141.25 126.75 L 144.90 122.43 L 148.55 124.39 L 152.20 116.42 L 155.85 110.76 L 159.50 112.22 L 163.15 113.17 L 166.80 108.60 L 170.45 113.60 L 174.10 117.90 L 177.75 124.05 L 181.40 122.95 L 185.05 129.34 L 188.70 132.06 L 192.35 134.17 L 196.00 136.63 L 199.65 132.08 L 203.30 131.88 L 206.95 136.85 L 210.60 147.38 L 214.25 148.94 L 217.90 146.66 L 221.55 148.61 L 225.20 148.50 L 228.85 154.49 L 232.50 151.59 L 236.15 146.58 L 239.80 143.56 L 243.45 144.10 L 247.10 149.61 L 250.75 145.71 L 254.40 149.23 L 258.05 149.79 L 261.70 153.22 L 265.35 149.16 L 269.00 148.15 L 272.65 146.07 L 276.30 144.22 L 279.95 144.71 L 283.60 140.86 L 287.25 142.50 L 290.90 140.04 L 294.55 137.99 L 298.20 143.44 L 301.85 151.83 L 305.50 153.83 L 309.15 157.62 L 312.80 159.93 L 316.45 156.07 L 320.10 153.68 L 323.75 152.85 L 327.40 162.50 L 331.05 160.42 L 334.70 171.33 L 338.35 165.16 L 342.00 173.46 L 345.65 168.73 L 349.30 165.17 L 352.95 165.26 L 356.60 150.54 L 360.25 154.61 L 363.90 158.20 L 367.55 162.96 L 371.20 165.77 L 374.85 161.64 L 378.50 160.00 L 382.15 158.19 L 385.80 159.18 L 389.45 160.30 L 393.10 168.58 L 396.75 173.39 L 400.40 172.71 L 404.05 166.79 L 407.70 159.62 L 411.35 158.59 L 415.00 160.26 L 418.65 158.53 L 422.30 159.81 L 425.95 157.50 L 429.60 156.19 L 433.25 150.25 L 436.90 148.84 L 440.55 151.25 L 444.20 156.43 L 447.85 153.43 L 451.50 157.56 L 455.15 164.02 L 458.80 168.62 L 462.45 161.89 L 466.10 154.86 L 469.75 156.64 L 473.40 154.28 L 477.05 152.44 L 480.70 149.19 L 484.35 155.59 L 488.00 152.45 L 491.65 158.29 L 495.30 151.16 L 498.95 150.20 L 502.60 146.19 L 506.25 150.83 L 509.90 148.77 L 513.55 148.87 L 517.20 145.72 L 520.85 142.00 L 524.50 138.14 L 528.15 130.11 L 531.80 132.80 L 535.45 134.49 L 539.10 140.16 L 542.75 133.85 L 546.40 139.92 L 550.05 135.83 L 553.70 137.95 L 557.35 142.24 L 561.00 138.81 L 564.65 146.02 L 568.30 147.63 L 571.95 153.60 L 575.60 152.55 L 579.25 149.82 L 582.90 142.30 L 586.55 143.42 L 590.20 145.42 L 593.85 142.56 L 597.50 145.27 L 601.15 141.82 L 604.80 136.68 L 608.45 135.47 L 612.10 137.95 L 615.75 140.62 L 619.40 139.70 L 623.05 140.01 L 626.70 133.36 L 630.35 129.88 L 634.00 132.54 L 637.65 126.17 L 641.30 121.37 L 644.95 122.54 L 648.60 117.82 L 652.25 126.08 L 655.90 121.58 L 659.55 120.64 L 663.20 116.63 L 666.85 120.01 L 670.50 116.46 L 674.15 109.98 L 677.80 107.40 L 681.45 99.12 L 685.10 94.12 L 688.75 96.50 L 692.40 103.30 L 696.05 96.39 L 699.70 96.56 L 703.35 95.09 L 707.00 98.94 L 710.65 90.33 L 714.30 91.07 L 717.95 96.87 L 721.60 103.61 L 725.25 101.96 L 728.90 104.06 L 732.55 103.82 L 736.20 102.66 L 739.85 104.09 L 743.50 108.71 L 747.15 104.07 L 750.80 107.85 L 754.45 105.78 L 758.10 103.22 L 761.75 107.22 L 765.40 109.05 L 769.05 104.04 L 772.70 99.80 L 776.35 99.10 L 780.00 99.66" class="path-1" />
<path d="M 50.00 124.79 L 53.65 126.75 L 57.30 129.64 L 60.95 134.88 L 64.60 131.64 L 68.25 133.22 L 71.90 131.61 L 75.55 124.92 L 79.20 123.95 L 82.85 116.91 L 86.50 120.01 L 90.15 126.00 L 93.80 127.89 L 97.45 126.43 L 101.10 125.69 L 104.75 127.81 L 108.40 123.41 L 112.05 134.49 L 115.70 131.75 L 119.35 131.90 L 123.00 128.55 L 126.65 125.86 L 130.30 124.52 L 133.95 120.48 L 137.60 119.66 L 141.25 115.25 L 144.90 117.15 L 148.55 118.63 L 152.20 130.03 L 155.85 133.00 L 159.50 132.86 L 163.15 141.20 L 166.80 143.43 L 170.45 141.74 L 174.10 138.24 L 177.75 135.16 L 181.40 133.84 L 185.05 129.19 L 188.70 126.41 L 192.35 122.07 L 196.00 115.09 L 199.65 114.62 L 203.30 116.95 L 206.95 124.94 L 210.60 128.60 L 214.25 125.61 L 217.90 125.53 L 221.55 126.83 L 225.20 126.39 L 228.85 123.38 L 232.50 116.58 L 236.15 115.41 L 239.80 117.94 L 243.45 115.81 L 247.10 115.33 L 250.75 113.84 L 254.40 117.07 L 258.05 115.89 L 261.70 124.56 L 265.35 127.04 L 269.00 129.83 L 272.65 137.00 L 276.30 141.55 L 279.95 141.08 L 283.60 139.54 L 287.25 149.15 L 290.90 148.63 L 294.55 150.93 L 298.20 153.64 L 301.85 149.24 L 305.50 147.94 L 309.15 147.85 L 312.80 155.98 L 316.45 160.59 L 320.10 152.83 L 323.75 155.24 L 327.40 149.41 L 331.05 151.46 L 334.70 143.35 L 338.35 141.54 L 342.00 145.50 L 345.65 143.33 L 349.30 145.59 L 352.95 141.73 L 356.60 149.28 L 360.25 147.28 L 363.90 150.35 L 367.55 150.29 L 371.20 151.27 L 374.85 144.25 L 378.50 148.86 L 382.15 150.09 L 385.80 152.51 L 389.45 155.37 L 393.10 155.60 L 396.75 155.58 L 400.40 152.83 L 404.05 159.56 L 407.70 159.34 L 411.35 153.25 L 415.00 159.20 L 418.65 162.03 L 422.30 164.60 L 425.95 163.00 L 429.60 168.13 L 433.25 161.06 L 436.90 167.84 L 440.55 173.73 L 444.20 174.09 L 447.85 178.62 L 451.50 184.35 L 455.15 186.29 L 458.80 191.69 L 462.45 188.64 L 466.10 193.53 L 469.75 203.71 L 473.40 205.72 L 477.05 202.21 L 480.70 201.06 L 484.35 205.93 L 488.00 208.06 L 491.65 199.50 L 495.30 200.66 L 498.95 201.45 L 502.60 206.60 L 506.25 210.00 L 509.90 207.31 L 513.55 204.69 L 517.20 207.91 L 520.85 205.59 L 524.50 204.06 L 528.15 204.01 L 531.80 203.42 L 535.45 207.74 L 539.10 203.12 L 542.75 196.38 L 546.40 196.48 L 550.05 196.60 L 553.70 198.57 L 557.35 194.73 L 561.00 193.76 L 564.65 203.78 L 568.30 203.41 L 571.95 197.79 L 575.60 199.81 L 579.25 201.00 L 582.90 203.89 L 586.55 208.89 L 590.20 208.12 L 593.85 211.45 L 597.50 210.39 L 601.15 207.58 L 604.80 207.15 L 608.45 197.53 L 612.10 191.86 L 615.75 190.80 L 619.40 187.82 L 623.05 188.34 L 626.70 187.35 L 630.35 191.58 L 634.00 192.99 L 637.65 192.64 L 641.30 188.93 L 644.95 188.07 L 648.60 198.36 L 652.25 196.38 L 655.90 196.20 L 659.55 197.98 L 663.20 192.74 L 666.85 192.78 L 670.50 191.44 L 674.15 197.14 L 677.80 196.91 L 681.45 197.07 L 685.10 201.46 L 688.75 198.54 L 692.40 201.50 L 696.05 205.72 L 699.70 202.25 L 703.35 208.36 L 707.00 203.84 L 710.65 211.73 L 714.30 211.86 L 717.95 211.16 L 721.60 206.89 L 725.25 203.51 L 728.90 199.36 L 732.55 202.45 L 736.20 211.93 L 739.85 216.00 L 743.50 213.04 L 747.15 214.66 L 750.80 223.34 L 754.45 228.93 L 758.10 234.62 L 761.75 234.44 L 765.40 231.94 L 769.05 219.75 L 772.70 223.06 L 776.35 225.81 L 780.00 223.91" class="path-2" />
<path d="M 50.00 124.79 L 53.65 124.38 L 57.30 125.62 L 60.95 121.46 L 64.60 120.32 L 68.25 127.96 L 71.90 125.45 L 75.55 126.72 L 79.20 127.95 L 82.85 130.49 L 86.50 127.37 L 90.15 119.58 L 93.80 116.35 L 97.45 118.42 L 101.10 110.18 L 104.75 110.69 L 108.40 109.50 L 112.05 102.10 L 115.70 107.61 L 119.35 108.80 L 123.00 112.41 L 126.65 109.14 L 130.30 115.98 L 133.95 119.02 L 137.60 114.87 L 141.25 111.68 L 144.90 115.06 L 148.55 118.32 L 152.20 122.65 L 155.85 121.65 L 159.50 124.62 L 163.15 121.60 L 166.80 117.04 L 170.45 109.83 L 174.10 110.80 L 177.75 102.71 L 181.40 104.31 L 185.05 98.37 L 188.70 95.92 L 192.35 93.87 L 196.00 95.35 L 199.65 97.51 L 203.30 94.22 L 206.95 94.37 L 210.60 94.24 L 214.25 95.88 L 217.90 99.65 L 221.55 98.12 L 225.20 99.74 L 228.85 104.14 L 232.50 106.48 L 236.15 105.75 L 239.80 105.74 L 243.45 101.31 L 247.10 105.26 L 250.75 96.65 L 254.40 96.56 L 258.05 98.77 L 261.70 99.54 L 265.35 102.17 L 269.00 112.93 L 272.65 115.25 L 276.30 120.71 L 279.95 120.08 L 283.60 119.18 L 287.25 119.79 L 290.90 117.05 L 294.55 109.01 L 298.20 111.68 L 301.85 110.68 L 305.50 108.82 L 309.15 104.55 L 312.80 115.37 L 316.45 114.78 L 320.10 118.79 L 323.75 115.19 L 327.40 116.59 L 331.05 116.10 L 334.70 118.11 L 338.35 121.78 L 342.00 126.06 L 345.65 123.89 L 349.30 123.76 L 352.95 124.20 L 356.60 122.15 L 360.25 116.78 L 363.90 120.59 L 367.55 117.29 L 371.20 112.44 L 374.85 115.61 L 378.50 118.54 L 382.15 112.92 L 385.80 111.53 L 389.45 118.81 L 393.10 119.47 L 396.75 116.59 L 400.40 120.69 L 404.05 113.64 L 407.70 113.96 L 411.35 121.92 L 415.00 121.48 L 418.65 125.96 L 422.30 130.90 L 425.95 129.94 L 429.60 129.69 L 433.25 127.18 L 436.90 130.59 L 440.55 129.53 L 444.20 128.04 L 447.85 127.65 L 451.50 127.08 L 455.15 125.11 L 458.80 127.80 L 462.45 118.06 L 466.10 114.83 L 469.75 121.49 L 473.40 123.24 L 477.05 124.71 L 480.70 125.25 L 484.35 125.14 L 488.00 119.03 L 491.65 119.74 L 495.30 121.13 L 498.95 119.00 L 502.60 117.06 L 506.25 111.34 L 509.90 108.57 L 513.55 112.73 L 517.20 124.60 L 520.85 126.43 L 524.50 125.41 L 528.15 126.81 L 531.80 125.08 L 535.45 126.76 L 539.10 129.73 L 542.75 131.58 L 546.40 130.17 L 550.05 125.23 L 553.70 125.42 L 557.35 128.05 L 561.00 134.30 L 564.65 138.95 L 568.30 144.72 L 571.95 146.96 L 575.60 143.66 L 579.25 139.67 L 582.90 130.41 L 586.55 130.34 L 590.20 135.74 L 593.85 141.17 L 597.50 135.46 L 601.15 129.56 L 604.80 134.84 L 608.45 144.62 L 612.10 143.50 L 615.75 147.77 L 619.40 144.72 L 623.05 147.27 L 626.70 148.71 L 630.35 147.26 L 634.00 145.91 L 637.65 143.88 L 641.30 135.18 L 644.95 134.29 L 648.60 135.16 L 652.25 133.96 L 655.90 135.56 L 659.55 129.46 L 663.20 126.55 L 666.85 125.37 L 670.50 123.07 L 674.15 127.13 L 677.80 126.50 L 681.45 131.78 L 685.10 127.67 L 688.75 131.16 L 692.40 124.18 L 696.05 122.72 L 699.70 122.58 L 703.35 125.27 L 707.00 123.01 L 710.65 125.26 L 714.30 123.03 L 717.95 128.14 L 721.60 122.85 L 725.25 120.40 L 728.90 123.01 L 732.55 116.23 L 736.20 119.13 L 739.85 118.19 L 743.50 125.23 L 747.15 121.90 L 750.80 112.10 L 754.45 115.35 L 758.10 116.79 L 761.75 114.05 L 765.40 108.97 L 769.05 107.89 L 772.70 113.41 L 776.35 113.11 L 780.00 107.48" class="path-3" />
<path d="M 50.00 124.79 L 53.65 133.25 L 57.30 133.62 L 60.95 135.71 L 64.60 140.93 L 68.25 147.68 L 71.90 142.65 L 75.55 143.18 L 79.20 141.61 L 82.85 136.60 L 86.50 135.73 L 90.15 136.83 L 93.80 133.73 L 97.45 127.61 L 101.10 124.51 L 104.75 131.02 L 108.40 125.81 L 112.05 116.72 L 115.70 121.45 L 119.35 118.08 L 123.00 119.32 L 126.65 119.93 L 130.30 119.28 L 133.95 118.18 L 137.60 119.57 L 141.25 125.67 L 144.90 119.24 L 148.55 118.61 L 152.20 119.01 L 155.85 122.70 L 159.50 123.10 L 163.15 125.58 L 166.80 123.98 L 170.45 121.77 L 174.10 124.15 L 177.75 127.34 L 181.40 129.08 L 185.05 134.39 L 188.70 134.39 L 192.35 134.95 L 196.00 135.11 L 199.65 131.14 L 203.30 125.65 L 206.95 120.85 L 210.60 116.97 L 214.25 125.07 L 217.90 125.41 L 221.55 125.09 L 225.20 124.16 L 228.85 122.67 L 232.50 123.96 L 236.15 127.56 L 239.80 118.56 L 243.45 116.24 L 247.10 114.93 L 250.75 115.88 L 254.40 114.11 L 258.05 114.91 L 261.70 113.05 L 265.35 110.84 L 269.00 116.80 L 272.65 121.06 L 276.30 113.40 L 279.95 114.34 L 283.60 111.09 L 287.25 109.09 L 290.90 105.29 L 294.55 100.82 L 298.20 103.79 L 301.85 102.64 L 305.50 105.69 L 309.15 93.73 L 312.80 92.22 L 316.45 95.71 L 320.10 92.70 L 323.75 94.69 L 327.40 90.76 L 331.05 93.82 L 334.70 100.08 L 338.35 97.77 L 342.00 97.58 L 345.65 103.31 L 349.30 106.94 L 352.95 104.70 L 356.60 104.48 L 360.25 104.50 L 363.90 102.74 L 367.55 98.68 L 371.20 95.12 L 374.85 91.31 L 378.50 94.32 L 382.15 96.73 L 385.80 94.58 L 389.45 95.86 L 393.10 99.59 L 396.75 100.83 L 400.40 98.18 L 404.05 94.25 L 407.70 91.59 L 411.35 95.42 L 415.00 93.45 L 418.65 94.27 L 422.30 93.54 L 425.95 96.45 L 429.60 102.37 L 433.25 106.27 L 436.90 109.63 L 440.55 109.80 L 444.20 107.28 L 447.85 109.39 L 451.50 109.50 L 455.15 111.38 L 458.80 109.22 L 462.45 111.77 L 466.10 109.98 L 469.75 110.37 L 473.40 116.01 L 477.05 107.97 L 480.70 101.96 L 484.35 94.76 L 488.00 87.08 L 491.65 92.60 L 495.30 86.97 L 498.95 84.56 L 502.60 84.61 L 506.25 85.46 L 509.90 82.48 L 513.55 79.45 L 517.20 87.61 L 520.85 90.83 L 524.50 90.67 L 528.15 92.53 L 531.80 91.60 L 535.45 85.74 L 539.10 88.69 L 542.75 83.39 L 546.40 90.00 L 550.05 82.92 L 553.70 80.36 L 557.35 77.42 L 561.00 74.64 L 564.65 73.38 L 568.30 65.38 L 571.95 68.54 L 575.60 75.40 L 579.25 79.90 L 582.90 79.54 L 586.55 84.64 L 590.20 83.77 L 593.85 83.05 L 597.50 88.10 L 601.15 96.05 L 604.80 94.22 L 608.45 82.66 L 612.10 89.04 L 615.75 84.84 L 619.40 88.45 L 623.05 89.70 L 626.70 89.90 L 630.35 92.09 L 634.00 88.76 L 637.65 85.21 L 641.30 83.81 L 644.95 90.91 L 648.60 87.10 L 652.25 88.63 L 655.90 79.95 L 659.55 82.03 L 663.20 80.09 L 666.85 85.06 L 670.50 86.25 L 674.15 86.04 L 677.80 93.29 L 681.45 96.02 L 685.10 90.50 L 688.75 85.81 L 692.40 93.26 L 696.05 98.03 L 699.70 91.04 L 703.35 91.16 L 707.00 87.42 L 710.65 83.62 L 714.30 85.69 L 717.95 88.55 L 721.60 88.71 L 725.25 100.80 L 728.90 92.03 L 732.55 94.19 L 736.20 92.48 L 739.85 90.27 L 743.50 96.94 L 747.15 92.74 L 750.80 94.85 L 754.45 87.57 L 758.10 93.75 L 761.75 95.09 L 765.40 93.95 L 769.05 90.96 L 772.70 90.13 L 776.35 88.81 L 780.00 89.74" class="path-4" />
<line x1="50" y1="124.8" x2="780" y2="124.8" stroke="#4b5563" stroke-width="0.8" stroke-dasharray="6 3" />
</svg>