<svg xmlns="http://www.w3.org/2000/svg" viewBox="0 0 800 300" width="800" height="300">
<style>
.axis-line { stroke: #6b7280; stroke-width: 0.5; }
.axis-text { font-family: monospace; font-size: 11px; fill: #9ca3af; }
.title-text { font-family: monospace; font-size: 14px; fill: #d1d5db; font-weight: bold; }
.grid-line { stroke: #374151; stroke-width: 0.3; stroke-dasharray: 4 2; }
.path-0 { fill: none; stroke: #3b82f6; stroke-width: 2; stroke-linecap: round; opacity: 0.85; animation: draw-0 8s ease-in-out 0.0s infinite; stroke-dasharray: 1410; stroke-dashoffset: 1410;}
@keyframes draw-0 { 0% { stroke-dashoffset: 1410; } 38% { stroke-dashoffset: 0; } 62% { stroke-dashoffset: 0; } 100% { stroke-dashoffset: 1410; }}
.path-1 { fill: none; stroke: #ef4444; stroke-width: 2; stroke-linecap: round; opacity: 0.85; animation: draw-1 8s ease-in-out 0.4s infinite; stroke-dasharray: 1353; stroke-dashoffset: 1353;}
@keyframes draw-1 { 0% { stroke-dashoffset: 1353; } 38% { stroke-dashoffset: 0; } 62% { stroke-dashoffset: 0; } 100% { stroke-dashoffset: 1353; }}
.path-2 { fill: none; stroke: #22c55e; stroke-width: 2; stroke-linecap: round; opacity: 0.85; animation: draw-2 8s ease-in-out 0.8s infinite; stroke-dasharray: 1346; stroke-dashoffset: 1346;}
@keyframes draw-2 { 0% { stroke-dashoffset: 1346; } 38% { stroke-dashoffset: 0; } 62% { stroke-dashoffset: 0; } 100% { stroke-dashoffset: 1346; }}
.path-3 { fill: none; stroke: #f59e0b; stroke-width: 2; stroke-linecap: round; opacity: 0.85; animation: draw-3 8s ease-in-out 1.2000000000000002s infinite; stroke-dasharray: 1432; stroke-dashoffset: 1432;}
@keyframes draw-3 { 0% { stroke-dashoffset: 1432; } 38% { stroke-dashoffset: 0; } 62% { stroke-dashoffset: 0; } 100% { stroke-dashoffset: 1432; }}
.path-4 { fill: none; stroke: #a855f7; stroke-width: 2; stroke-linecap: round; opacity: 0.85; animation: draw-4 8s ease-in-out 1.6s infinite; stroke-dasharray: 1349; stroke-dashoffset: 1349;}
@keyframes draw-4 { 0% { stroke-dashoffset: 1349; } 38% { stroke-dashoffset: 0; } 62% { stroke-dashoffset: 0; } 100% { stroke-dashoffset: 1349; }}
</style>
<rect width="800" height="300" rx="8" fill="#0d1117" />
<line x1="50" y1="260.0" x2="780" y2="260.0" class="grid-line" />
<text x="44" y="264.0" text-anchor="end" class="axis-text">-1.2</text>
<line x1="50" y1="216.0" x2="780" y2="216.0" class="grid-line" />
<text x="44" y="220.0" text-anchor="end" class="axis-text">-0.7</text>
<line x1="50" y1="172.0" x2="780" y2="172.0" class="grid-line" />
<text x="44" y="176.0" text-anchor="end" class="axis-text">-0.2</text>
<line x1="50" y1="128.0" x2="780" y2="128.0" class="grid-line" />
<text x="44" y="132.0" text-anchor="end" class="axis-text">0.2</text>
<line x1="50" y1="84.0" x2="780" y2="84.0" class="grid-line" />
<text x="44" y="88.0" text-anchor="end" class="axis-text">0.7</text>
<line x1="50" y1="40.0" x2="780" y2="40.0" class="grid-line" />
<text x="44" y="44.0" text-anchor="end" class="axis-text">1.2</text>
<line x1="50.0" y1="40" x2="50.0" y2="260" class="grid-line" />
<line x1="196.0" y1="40" x2="196.0" y2="260" class="grid-line" />
<line x1="342.0" y1="40" x2="342.0" y2="260" class="grid-line" />
<line x1="488.0" y1="40" x2="488.0" y2="260" class="grid-line" />
<line x1="634.0" y1="40" x2="634.0" y2="260" class="grid-line" />
<line x1="780.0" y1="40" x2="780.0" y2="260" class="grid-line" />
<line x1="50" y1="260" x2="780" y2="260" class="axis-line" />
<line x1="50" y1="40" x2="50" y2="260" class="axis-line" />
<text x="400.0" y="295" text-anchor="middle" class="axis-text">t</text>
<text x="12" y="150.0" text-anchor="middle" class="axis-text" transform="rotate(-90 12 150.0)">W(t)</text>
<text x="400.0" y="22" text-anchor="middle" class="title-text">Brownian Motion</text>
<path d="M 50.00 150.74 L 53.65 153.35 L 57.30 154.30 L 60.95 162.69 L 64.60 156.34 L 68.25 146.22 L 71.90 143.86 L 75.55 144.50 L 79.20 147.08 L 82.85 143.75 L 86.50 146.74 L 90.15 149.12 L 93.80 158.11 L 97.45 158.67 L 101.10 163.43 L 104.75 160.03 L 108.40 162.12 L 112.05 166.66 L 115.70 162.87 L 119.35 160.62 L 123.00 162.25 L 126.65 160.59 L 130.30 156.65 L 133.95 139.47 L 137.60 137.29 L 141.25 138.00 L 144.90 142.25 L 148.55 132.54 L 152.20 142.52 L 155.85 138.78 L 159.50 127.52 L 163.15 119.23 L 166.80 121.68 L 170.45 118.49 L 174.10 122.97 L 177.75 132.87 L 181.40 136.87 L 185.05 139.14 L 188.70 127.94 L 192.35 123.25 L 196.00 127.25 L 199.65 123.95 L 203.30 130.31 L 206.95 139.49 L 210.60 142.28 L 214.25 149.51 L 217.90 143.86 L 221.55 144.46 L 225.20 150.87 L 228.85 154.68 L 232.50 162.58 L 236.15 175.62 L 239.80 174.57 L 243.45 165.44 L 247.10 166.94 L 250.75 162.81 L 254.40 172.75 L 258.05 180.67 L 261.70 189.12 L 265.35 180.76 L 269.00 177.12 L 272.65 175.46 L 276.30 174.67 L 279.95 174.12 L 283.60 183.42 L 287.25 195.59 L 290.90 198.63 L 294.55 204.75 L 298.20 208.97 L 301.85 204.27 L 305.50 212.71 L 309.15 213.95 L 312.80 204.83 L 316.45 195.68 L 320.10 183.85 L 323.75 190.24 L 327.40 195.26 L 331.05 201.72 L 334.70 204.08 L 338.35 196.24 L 342.00 192.04 L 345.65 188.23 L 349.30 176.72 L 352.95 172.90 L 356.60 180.69 L 360.25 172.34 L 363.90 179.52 L 367.55 181.26 L 371.20 190.62 L 374.85 195.32 L 378.50 193.11 L 382.15 190.10 L 385.80 189.92 L 389.45 195.25 L 393.10 206.42 L 396.75 194.49 L 400.40 196.63 L 404.05 194.97 L 407.70 202.27 L 411.35 208.72 L 415.00 227.91 L 418.65 220.68 L 422.30 221.97 L 425.95 214.88 L 429.60 217.72 L 433.25 226.58 L 436.90 219.30 L 440.55 233.39 L 444.20 234.62 L 447.85 234.15 L 451.50 225.95 L 455.15 217.40 L 458.80 211.77 L 462.45 212.69 L 466.10 211.05 L 469.75 205.82 L 473.40 207.22 L 477.05 210.57 L 480.70 211.05 L 484.35 205.10 L 488.00 213.02 L 491.65 216.23 L 495.30 224.24 L 498.95 230.10 L 502.60 232.92 L 506.25 228.74 L 509.90 229.74 L 513.55 228.69 L 517.20 226.95 L 520.85 214.76 L 524.50 216.62 L 528.15 228.91 L 531.80 218.59 L 535.45 216.48 L 539.10 229.05 L 542.75 225.55 L 546.40 221.49 L 550.05 214.26 L 553.70 217.11 L 557.35 217.73 L 561.00 205.06 L 564.65 204.52 L 568.30 210.49 L 571.95 199.10 L 575.60 194.23 L 579.25 183.99 L 582.90 187.97 L 586.55 193.79 L 590.20 188.89 L 593.85 181.68 L 597.50 191.96 L 601.15 197.12 L 604.80 199.62 L 608.45 180.63 L 612.10 174.78 L 615.75 168.74 L 619.40 169.84 L 623.05 170.18 L 626.70 168.41 L 630.35 158.70 L 634.00 156.44 L 637.65 164.69 L 641.30 156.71 L 644.95 149.57 L 648.60 166.94 L 652.25 166.57 L 655.90 163.11 L 659.55 172.13 L 663.20 179.38 L 666.85 175.87 L 670.50 179.72 L 674.15 183.89 L 677.80 186.04 L 681.45 193.38 L 685.10 175.40 L 688.75 173.72 L 692.40 169.13 L 696.05 171.79 L 699.70 175.09 L 703.35 169.60 L 707.00 172.95 L 710.65 167.01 L 714.30 176.80 L 717.95 186.38 L 721.60 185.84 L 725.25 175.14 L 728.90 174.38 L 732.55 168.61 L 736.20 171.63 L 739.85 163.33 L 743.50 164.93 L 747.15 169.76 L 750.80 169.25 L 754.45 158.00 L 758.10 163.60 L 761.75 158.54 L 765.40 160.27 L 769.05 151.62 L 772.70 154.10 L 776.35 149.95 L 780.00 153.84" class="path-0" />
<path d="M 50.00 150.74 L 53.65 148.87 L 57.30 152.69 L 60.95 160.55 L 64.60 163.70 L 68.25 162.40 L 71.90 150.32 L 75.55 148.34 L 79.20 148.25 L 82.85 144.66 L 86.50 141.59 L 90.15 137.68 L 93.80 127.00 L 97.45 123.60 L 101.10 127.01 L 104.75 116.29 L 108.40 124.02 L 112.05 121.10 L 115.70 119.06 L 119.35 122.82 L 123.00 122.27 L 126.65 135.08 L 130.30 141.61 L 133.95 134.05 L 137.60 134.37 L 141.25 120.82 L 144.90 116.64 L 148.55 113.04 L 152.20 119.05 L 155.85 126.39 L 159.50 136.31 L 163.15 142.05 L 166.80 145.72 L 170.45 151.35 L 174.10 149.85 L 177.75 149.88 L 181.40 146.11 L 185.05 143.30 L 188.70 139.16 L 192.35 136.10 L 196.00 134.04 L 199.65 134.19 L 203.30 120.68 L 206.95 116.36 L 210.60 105.40 L 214.25 117.59 L 217.90 126.73 L 221.55 134.97 L 225.20 134.28 L 228.85 134.76 L 232.50 128.27 L 236.15 127.91 L 239.80 131.45 L 243.45 131.40 L 247.10 120.44 L 250.75 123.87 L 254.40 130.50 L 258.05 142.89 L 261.70 142.53 L 265.35 141.58 L 269.00 140.14 L 272.65 139.22 L 276.30 138.78 L 279.95 143.74 L 283.60 144.43 L 287.25 129.86 L 290.90 121.08 L 294.55 119.16 L 298.20 114.44 L 301.85 121.91 L 305.50 121.86 L 309.15 110.92 L 312.80 118.91 L 316.45 131.60 L 320.10 135.87 L 323.75 134.21 L 327.40 129.51 L 331.05 133.60 L 334.70 128.90 L 338.35 133.76 L 342.00 128.19 L 345.65 128.37 L 349.30 129.27 L 352.95 133.73 L 356.60 138.01 L 360.25 140.79 L 363.90 138.35 L 367.55 141.34 L 371.20 146.70 L 374.85 146.85 L 378.50 138.48 L 382.15 140.95 L 385.80 145.01 L 389.45 141.21 L 393.10 135.64 L 396.75 126.23 L 400.40 120.42 L 404.05 118.06 L 407.70 120.96 L 411.35 110.13 L 415.00 101.56 L 418.65 102.54 L 422.30 97.52 L 425.95 110.36 L 429.60 104.28 L 433.25 99.84 L 436.90 92.02 L 440.55 94.12 L 444.20 89.70 L 447.85 100.89 L 451.50 104.79 L 455.15 111.24 L 458.80 117.71 L 462.45 125.13 L 466.10 132.22 L 469.75 132.16 L 473.40 133.82 L 477.05 135.29 L 480.70 144.63 L 484.35 143.29 L 488.00 143.51 L 491.65 137.99 L 495.30 140.42 L 498.95 137.87 L 502.60 143.30 L 506.25 134.21 L 509.90 139.71 L 513.55 143.88 L 517.20 131.82 L 520.85 141.90 L 524.50 155.22 L 528.15 155.95 L 531.80 153.19 L 535.45 153.14 L 539.10 146.87 L 542.75 148.78 L 546.40 143.30 L 550.05 146.99 L 553.70 147.46 L 557.35 157.81 L 561.00 160.92 L 564.65 167.41 L 568.30 166.60 L 571.95 172.48 L 575.60 179.16 L 579.25 184.26 L 582.90 193.33 L 586.55 193.87 L 590.20 199.02 L 593.85 209.49 L 597.50 198.21 L 601.15 197.77 L 604.80 192.99 L 608.45 197.45 L 612.10 195.99 L 615.75 191.84 L 619.40 195.51 L 623.05 188.48 L 626.70 196.98 L 630.35 195.50 L 634.00 190.48 L 637.65 181.34 L 641.30 184.54 L 644.95 183.49 L 648.60 198.36 L 652.25 189.78 L 655.90 195.41 L 659.55 183.71 L 663.20 181.14 L 666.85 171.07 L 670.50 162.26 L 674.15 170.01 L 677.80 162.03 L 681.45 149.46 L 685.10 165.93 L 688.75 164.85 L 692.40 157.84 L 696.05 152.92 L 699.70 142.64 L 703.35 145.21 L 707.00 149.66 L 710.65 152.27 L 714.30 147.58 L 717.95 145.50 L 721.60 157.27 L 725.25 153.89 L 728.90 158.17 L 732.55 150.39 L 736.20 146.14 L 739.85 147.38 L 743.50 146.24 L 747.15 145.15 L 750.80 141.16 L 754.45 151.75 L 758.10 148.19 L 761.75 150.09 L 765.40 147.11 L 769.05 152.34 L 772.70 155.49 L 776.35 158.64 L 780.00 154.48" class="path-1" />
<path d="M 50.00 150.74 L 53.65 147.82 L 57.30 132.77 L 60.95 132.56 L 64.60 137.57 L 68.25 146.31 L 71.90 146.63 L 75.55 135.52 L 79.20 128.62 L 82.85 138.63 L 86.50 144.55 L 90.15 148.78 L 93.80 147.39 L 97.45 139.92 L 101.10 152.46 L 104.75 146.55 L 108.40 155.64 L 112.05 156.86 L 115.70 151.50 L 119.35 158.80 L 123.00 147.86 L 126.65 155.16 L 130.30 158.34 L 133.95 173.23 L 137.60 174.24 L 141.25 166.84 L 144.90 161.12 L 148.55 156.80 L 152.20 158.54 L 155.85 156.39 L 159.50 150.59 L 163.15 148.32 L 166.80 157.82 L 170.45 154.68 L 174.10 164.48 L 177.75 166.60 L 181.40 160.56 L 185.05 163.35 L 188.70 162.02 L 192.35 170.04 L 196.00 157.55 L 199.65 152.67 L 203.30 154.54 L 206.95 153.59 L 210.60 158.53 L 214.25 164.40 L 217.90 174.58 L 221.55 170.24 L 225.20 178.99 L 228.85 189.53 L 232.50 187.49 L 236.15 185.27 L 239.80 189.07 L 243.45 181.82 L 247.10 184.44 L 250.75 180.84 L 254.40 192.57 L 258.05 199.38 L 261.70 199.35 L 265.35 194.95 L 269.00 196.56 L 272.65 195.39 L 276.30 184.14 L 279.95 173.86 L 283.60 172.09 L 287.25 183.23 L 290.90 183.10 L 294.55 187.55 L 298.20 189.80 L 301.85 187.04 L 305.50 194.63 L 309.15 190.39 L 312.80 184.65 L 316.45 190.00 L 320.10 193.48 L 323.75 192.00 L 327.40 189.88 L 331.05 187.31 L 334.70 176.24 L 338.35 178.74 L 342.00 179.56 L 345.65 180.09 L 349.30 174.51 L 352.95 171.28 L 356.60 172.50 L 360.25 188.41 L 363.90 192.10 L 367.55 177.84 L 371.20 176.16 L 374.85 176.78 L 378.50 180.24 L 382.15 185.97 L 385.80 179.09 L 389.45 173.09 L 393.10 175.20 L 396.75 175.27 L 400.40 175.83 L 404.05 164.45 L 407.70 160.78 L 411.35 155.16 L 415.00 165.68 L 418.65 173.47 L 422.30 168.96 L 425.95 169.33 L 429.60 171.52 L 433.25 168.46 L 436.90 168.30 L 440.55 166.24 L 444.20 164.25 L 447.85 154.55 L 451.50 154.48 L 455.15 150.73 L 458.80 145.07 L 462.45 148.91 L 466.10 135.10 L 469.75 137.34 L 473.40 148.04 L 477.05 142.73 L 480.70 140.60 L 484.35 143.91 L 488.00 143.50 L 491.65 147.03 L 495.30 141.17 L 498.95 136.37 L 502.60 128.48 L 506.25 133.20 L 509.90 141.74 L 513.55 137.62 L 517.20 141.99 L 520.85 144.58 L 524.50 137.87 L 528.15 155.73 L 531.80 162.06 L 535.45 164.54 L 539.10 178.40 L 542.75 174.25 L 546.40 176.52 L 550.05 174.89 L 553.70 162.07 L 557.35 184.66 L 561.00 185.12 L 564.65 189.33 L 568.30 184.88 L 571.95 185.90 L 575.60 180.78 L 579.25 182.71 L 582.90 190.86 L 586.55 196.16 L 590.20 199.08 L 593.85 193.07 L 597.50 191.13 L 601.15 191.24 L 604.80 199.20 L 608.45 192.70 L 612.10 187.73 L 615.75 187.12 L 619.40 182.43 L 623.05 182.13 L 626.70 170.66 L 630.35 165.09 L 634.00 158.31 L 637.65 152.99 L 641.30 139.83 L 644.95 133.92 L 648.60 127.14 L 652.25 130.66 L 655.90 135.36 L 659.55 129.34 L 663.20 138.40 L 666.85 134.10 L 670.50 124.56 L 674.15 128.24 L 677.80 132.66 L 681.45 136.07 L 685.10 135.32 L 688.75 138.47 L 692.40 142.68 L 696.05 146.51 L 699.70 145.29 L 703.35 139.96 L 707.00 138.16 L 710.65 145.16 L 714.30 142.19 L 717.95 132.68 L 721.60 130.07 L 725.25 135.83 L 728.90 136.69 L 732.55 142.13 L 736.20 131.97 L 739.85 134.50 L 743.50 135.61 L 747.15 136.32 L 750.80 136.48 L 754.45 138.77 L 758.10 141.26 L 761.75 140.14 L 765.40 147.66 L 769.05 151.14 L 772.70 147.34 L 776.35 141.88 L 780.00 146.98" class="path-2" />
<path d="M 50.00 150.74 L 53.65 153.19 L 57.30 160.80 L 60.95 154.14 L 64.60 141.79 L 68.25 138.65 L 71.90 126.04 L 75.55 117.30 L 79.20 111.74 L 82.85 107.12 L 86.50 111.29 L 90.15 114.98 L 93.80 106.66 L 97.45 106.63 L 101.10 96.11 L 104.75 88.41 L 108.40 86.43 L 112.05 84.88 L 115.70 78.56 L 119.35 84.77 L 123.00 93.67 L 126.65 89.39 L 130.30 84.82 L 133.95 83.93 L 137.60 85.12 L 141.25 89.81 L 144.90 90.84 L 148.55 91.47 L 152.20 92.99 L 155.85 98.11 L 159.50 104.87 L 163.15 99.12 L 166.80 81.33 L 170.45 72.06 L 174.10 72.13 L 177.75 72.39 L 181.40 80.69 L 185.05 86.23 L 188.70 81.23 L 192.35 74.58 L 196.00 65.38 L 199.65 79.26 L 203.30 90.43 L 206.95 95.69 L 210.60 103.84 L 214.25 87.14 L 217.90 90.51 L 221.55 92.73 L 225.20 89.34 L 228.85 94.85 L 232.50 93.92 L 236.15 104.02 L 239.80 110.32 L 243.45 115.12 L 247.10 118.03 L 250.75 114.43 L 254.40 128.07 L 258.05 108.22 L 261.70 105.99 L 265.35 108.94 L 269.00 116.70 L 272.65 125.50 L 276.30 129.66 L 279.95 145.55 L 283.60 150.85 L 287.25 156.67 L 290.90 160.42 L 294.55 160.23 L 298.20 165.74 L 301.85 159.95 L 305.50 151.15 L 309.15 151.94 L 312.80 158.05 L 316.45 146.04 L 320.10 144.29 L 323.75 146.09 L 327.40 149.12 L 331.05 157.19 L 334.70 154.17 L 338.35 150.58 L 342.00 153.39 L 345.65 156.45 L 349.30 169.20 L 352.95 172.58 L 356.60 174.65 L 360.25 168.32 L 363.90 176.05 L 367.55 172.87 L 371.20 181.16 L 374.85 176.42 L 378.50 165.48 L 382.15 159.74 L 385.80 163.67 L 389.45 161.05 L 393.10 149.14 L 396.75 144.99 L 400.40 143.92 L 404.05 137.58 L 407.70 142.93 L 411.35 143.37 L 415.00 147.84 L 418.65 147.99 L 422.30 140.60 L 425.95 134.97 L 429.60 125.97 L 433.25 116.78 L 436.90 117.94 L 440.55 115.15 L 444.20 115.19 L 447.85 108.51 L 451.50 98.55 L 455.15 110.44 L 458.80 105.83 L 462.45 116.29 L 466.10 123.83 L 469.75 133.00 L 473.40 139.20 L 477.05 136.46 L 480.70 138.36 L 484.35 134.66 L 488.00 136.93 L 491.65 134.71 L 495.30 128.71 L 498.95 137.14 L 502.60 125.37 L 506.25 117.62 L 509.90 109.42 L 513.55 115.45 L 517.20 121.33 L 520.85 128.27 L 524.50 133.12 L 528.15 140.89 L 531.80 135.77 L 535.45 136.13 L 539.10 129.44 L 542.75 119.92 L 546.40 121.77 L 550.05 122.25 L 553.70 109.38 L 557.35 109.35 L 561.00 107.18 L 564.65 115.22 L 568.30 107.52 L 571.95 110.29 L 575.60 108.76 L 579.25 106.82 L 582.90 115.91 L 586.55 120.20 L 590.20 114.86 L 593.85 108.64 L 597.50 106.60 L 601.15 108.10 L 604.80 112.23 L 608.45 119.53 L 612.10 111.56 L 615.75 115.27 L 619.40 117.08 L 623.05 115.45 L 626.70 119.54 L 630.35 140.66 L 634.00 134.08 L 637.65 131.30 L 641.30 122.21 L 644.95 122.84 L 648.60 126.77 L 652.25 127.67 L 655.90 135.18 L 659.55 143.72 L 663.20 139.06 L 666.85 138.26 L 670.50 138.51 L 674.15 149.44 L 677.80 156.81 L 681.45 150.99 L 685.10 164.18 L 688.75 174.65 L 692.40 172.69 L 696.05 173.36 L 699.70 168.83 L 703.35 173.96 L 707.00 180.50 L 710.65 177.88 L 714.30 176.95 L 717.95 181.14 L 721.60 187.76 L 725.25 194.26 L 728.90 198.03 L 732.55 179.81 L 736.20 176.13 L 739.85 180.02 L 743.50 191.25 L 747.15 194.41 L 750.80 196.83 L 754.45 206.20 L 758.10 204.65 L 761.75 189.34 L 765.40 193.20 L 769.05 196.81 L 772.70 201.17 L 776.35 197.23 L 780.00 201.96" class="path-3" />
<path d="M 50.00 150.74 L 53.65 149.70 L 57.30 145.10 L 60.95 148.03 L 64.60 142.82 L 68.25 140.02 L 71.90 148.06 L 75.55 150.77 L 79.20 165.29 L 82.85 170.61 L 86.50 174.09 L 90.15 162.46 L 93.80 170.13 L 97.45 167.29 L 101.10 168.01 L 104.75 161.92 L 108.40 167.31 L 112.05 172.70 L 115.70 170.97 L 119.35 173.20 L 123.00 171.95 L 126.65 166.58 L 130.30 164.13 L 133.95 163.38 L 137.60 168.68 L 141.25 171.53 L 144.90 177.13 L 148.55 179.65 L 152.20 176.36 L 155.85 166.86 L 159.50 161.99 L 163.15 163.48 L 166.80 172.17 L 170.45 173.29 L 174.10 182.78 L 177.75 188.77 L 181.40 198.27 L 185.05 189.79 L 188.70 178.56 L 192.35 191.17 L 196.00 197.74 L 199.65 195.43 L 203.30 212.66 L 206.95 198.95 L 210.60 199.65 L 214.25 199.24 L 217.90 203.99 L 221.55 212.61 L 225.20 207.22 L 228.85 210.22 L 232.50 199.94 L 236.15 196.12 L 239.80 194.20 L 243.45 188.94 L 247.10 184.73 L 250.75 191.25 L 254.40 196.86 L 258.05 197.58 L 261.70 197.79 L 265.35 201.98 L 269.00 208.74 L 272.65 206.26 L 276.30 210.68 L 279.95 205.14 L 283.60 196.30 L 287.25 190.70 L 290.90 178.76 L 294.55 177.12 L 298.20 174.23 L 301.85 174.99 L 305.50 182.53 L 309.15 183.39 L 312.80 187.60 L 316.45 191.84 L 320.10 196.72 L 323.75 201.53 L 327.40 201.39 L 331.05 197.91 L 334.70 199.17 L 338.35 190.00 L 342.00 197.39 L 345.65 192.90 L 349.30 197.33 L 352.95 198.14 L 356.60 205.16 L 360.25 198.88 L 363.90 201.77 L 367.55 203.61 L 371.20 201.01 L 374.85 195.86 L 378.50 191.85 L 382.15 205.65 L 385.80 209.53 L 389.45 208.09 L 393.10 218.80 L 396.75 211.88 L 400.40 209.43 L 404.05 211.79 L 407.70 207.63 L 411.35 207.67 L 415.00 214.00 L 418.65 222.40 L 422.30 215.06 L 425.95 212.54 L 429.60 216.26 L 433.25 226.97 L 436.90 224.95 L 440.55 219.88 L 444.20 233.50 L 447.85 218.98 L 451.50 220.08 L 455.15 225.38 L 458.80 216.00 L 462.45 219.38 L 466.10 218.08 L 469.75 217.32 L 473.40 226.85 L 477.05 219.26 L 480.70 217.90 L 484.35 220.27 L 488.00 226.43 L 491.65 226.82 L 495.30 231.85 L 498.95 223.79 L 502.60 224.73 L 506.25 215.82 L 509.90 204.96 L 513.55 206.50 L 517.20 196.93 L 520.85 188.50 L 524.50 194.30 L 528.15 197.24 L 531.80 205.05 L 535.45 189.20 L 539.10 189.97 L 542.75 178.63 L 546.40 187.34 L 550.05 184.56 L 553.70 198.08 L 557.35 207.57 L 561.00 203.29 L 564.65 207.40 L 568.30 212.07 L 571.95 213.88 L 575.60 208.50 L 579.25 209.72 L 582.90 208.35 L 586.55 209.37 L 590.20 200.74 L 593.85 205.05 L 597.50 212.95 L 601.15 205.44 L 604.80 202.50 L 608.45 210.21 L 612.10 202.20 L 615.75 202.94 L 619.40 196.61 L 623.05 203.20 L 626.70 202.52 L 630.35 206.70 L 634.00 206.72 L 637.65 216.91 L 641.30 213.70 L 644.95 221.79 L 648.60 229.46 L 652.25 228.97 L 655.90 227.46 L 659.55 210.99 L 663.20 210.56 L 666.85 205.63 L 670.50 205.99 L 674.15 208.93 L 677.80 207.77 L 681.45 219.08 L 685.10 219.01 L 688.75 225.54 L 692.40 223.05 L 696.05 217.83 L 699.70 208.67 L 703.35 215.07 L 707.00 224.83 L 710.65 222.98 L 714.30 223.98 L 717.95 214.01 L 721.60 215.34 L 725.25 213.26 L 728.90 206.53 L 732.55 199.73 L 736.20 201.60 L 739.85 198.32 L 743.50 195.88 L 747.15 200.16 L 750.80 200.99 L 754.45 210.87 L 758.10 204.73 L 761.75 200.33 L 765.40 200.44 L 769.05 195.53 L 772.70 197.62 L 776.35 187.77 L 780.00 190.09" class="path-4" />
<line x1="50" y1="150.7" x2="780" y2="150.7" stroke="#4b5563" stroke-width="0.8" stroke-dasharray="6 3" />
</svg>