<svg xmlns="http://www.w3.org/2000/svg" viewBox="0 0 800 300" width="800" height="300">
<style>
.axis-line { stroke: #6b7280; stroke-width: 0.5; }
.axis-text { font-family: monospace; font-size: 11px; fill: #9ca3af; }
.title-text { font-family: monospace; font-size: 14px; fill: #d1d5db; font-weight: bold; }
.grid-line { stroke: #374151; stroke-width: 0.3; stroke-dasharray: 4 2; }
.path-0 { fill: none; stroke: #3b82f6; stroke-width: 2; stroke-linecap: round; opacity: 0.85; animation: draw-0 8s ease-in-out 0.0s infinite; stroke-dasharray: 929; stroke-dashoffset: 929;}
@keyframes draw-0 { 0% { stroke-dashoffset: 929; } 38% { stroke-dashoffset: 0; } 62% { stroke-dashoffset: 0; } 100% { stroke-dashoffset: 929; }}
.path-1 { fill: none; stroke: #ef4444; stroke-width: 2; stroke-linecap: round; opacity: 0.85; animation: draw-1 8s ease-in-out 0.4s infinite; stroke-dasharray: 911; stroke-dashoffset: 911;}
@keyframes draw-1 { 0% { stroke-dashoffset: 911; } 38% { stroke-dashoffset: 0; } 62% { stroke-dashoffset: 0; } 100% { stroke-dashoffset: 911; }}
.path-2 { fill: none; stroke: #22c55e; stroke-width: 2; stroke-linecap: round; opacity: 0.85; animation: draw-2 8s ease-in-out 0.8s infinite; stroke-dasharray: 902; stroke-dashoffset: 902;}
@keyframes draw-2 { 0% { stroke-dashoffset: 902; } 38% { stroke-dashoffset: 0; } 62% { stroke-dashoffset: 0; } 100% { stroke-dashoffset: 902; }}
.path-3 { fill: none; stroke: #f59e0b; stroke-width: 2; stroke-linecap: round; opacity: 0.85; animation: draw-3 8s ease-in-out 1.2000000000000002s infinite; stroke-dasharray: 939; stroke-dashoffset: 939;}
@keyframes draw-3 { 0% { stroke-dashoffset: 939; } 38% { stroke-dashoffset: 0; } 62% { stroke-dashoffset: 0; } 100% { stroke-dashoffset: 939; }}
.path-4 { fill: none; stroke: #a855f7; stroke-width: 2; stroke-linecap: round; opacity: 0.85; animation: draw-4 8s ease-in-out 1.6s infinite; stroke-dasharray: 887; stroke-dashoffset: 887;}
@keyframes draw-4 { 0% { stroke-dashoffset: 887; } 38% { stroke-dashoffset: 0; } 62% { stroke-dashoffset: 0; } 100% { stroke-dashoffset: 887; }}
</style>
<rect width="800" height="300" rx="8" fill="#0d1117" />
<line x1="50" y1="260.0" x2="780" y2="260.0" class="grid-line" />
<text x="44" y="264.0" text-anchor="end" class="axis-text">-3.4</text>
<line x1="50" y1="216.0" x2="780" y2="216.0" class="grid-line" />
<text x="44" y="220.0" text-anchor="end" class="axis-text">-2.3</text>
<line x1="50" y1="172.0" x2="780" y2="172.0" class="grid-line" />
<text x="44" y="176.0" text-anchor="end" class="axis-text">-1.2</text>
<line x1="50" y1="128.0" x2="780" y2="128.0" class="grid-line" />
<text x="44" y="132.0" text-anchor="end" class="axis-text">-0.1</text>
<line x1="50" y1="84.0" x2="780" y2="84.0" class="grid-line" />
<text x="44" y="88.0" text-anchor="end" class="axis-text">1.0</text>
<line x1="50" y1="40.0" x2="780" y2="40.0" class="grid-line" />
<text x="44" y="44.0" text-anchor="end" class="axis-text">2.1</text>
<line x1="50.0" y1="40" x2="50.0" y2="260" class="grid-line" />
<line x1="196.0" y1="40" x2="196.0" y2="260" class="grid-line" />
<line x1="342.0" y1="40" x2="342.0" y2="260" class="grid-line" />
<line x1="488.0" y1="40" x2="488.0" y2="260" class="grid-line" />
<line x1="634.0" y1="40" x2="634.0" y2="260" class="grid-line" />
<line x1="780.0" y1="40" x2="780.0" y2="260" class="grid-line" />
<line x1="50" y1="260" x2="780" y2="260" class="axis-line" />
<line x1="50" y1="40" x2="50" y2="260" class="axis-line" />
<text x="400.0" y="295" text-anchor="middle" class="axis-text">t</text>
<text x="12" y="150.0" text-anchor="middle" class="axis-text" transform="rotate(-90 12 150.0)">W(t)</text>
<text x="400.0" y="22" text-anchor="middle" class="title-text">Brownian Motion</text>
<path d="M 50.00 123.51 L 53.65 117.08 L 57.30 118.81 L 60.95 116.67 L 64.60 115.34 L 68.25 112.54 L 71.90 110.06 L 75.55 110.24 L 79.20 114.52 L 82.85 112.82 L 86.50 113.40 L 90.15 111.73 L 93.80 108.85 L 97.45 106.11 L 101.10 100.87 L 104.75 103.65 L 108.40 106.30 L 112.05 109.17 L 115.70 111.93 L 119.35 112.25 L 123.00 108.40 L 126.65 109.50 L 130.30 110.21 L 133.95 111.68 L 137.60 111.72 L 141.25 113.06 L 144.90 117.49 L 148.55 113.85 L 152.20 109.53 L 155.85 111.78 L 159.50 114.48 L 163.15 110.65 L 166.80 111.30 L 170.45 113.27 L 174.10 110.58 L 177.75 109.36 L 181.40 106.99 L 185.05 107.19 L 188.70 112.76 L 192.35 110.17 L 196.00 110.67 L 199.65 116.36 L 203.30 113.13 L 206.95 109.86 L 210.60 113.50 L 214.25 112.16 L 217.90 113.90 L 221.55 107.80 L 225.20 103.89 L 228.85 106.54 L 232.50 105.96 L 236.15 105.21 L 239.80 101.44 L 243.45 96.68 L 247.10 98.25 L 250.75 101.91 L 254.40 100.42 L 258.05 98.72 L 261.70 101.19 L 265.35 102.16 L 269.00 97.74 L 272.65 95.00 L 276.30 96.32 L 279.95 98.85 L 283.60 99.85 L 287.25 101.29 L 290.90 106.47 L 294.55 107.21 L 298.20 117.55 L 301.85 112.42 L 305.50 110.14 L 309.15 113.09 L 312.80 111.24 L 316.45 112.67 L 320.10 117.73 L 323.75 118.45 L 327.40 116.61 L 331.05 119.11 L 334.70 115.66 L 338.35 112.71 L 342.00 109.39 L 345.65 106.04 L 349.30 110.58 L 352.95 112.58 L 356.60 117.86 L 360.25 121.72 L 363.90 119.50 L 367.55 120.36 L 371.20 116.69 L 374.85 120.18 L 378.50 120.88 L 382.15 119.51 L 385.80 120.84 L 389.45 115.12 L 393.10 112.91 L 396.75 111.68 L 400.40 112.33 L 404.05 111.91 L 407.70 115.15 L 411.35 116.67 L 415.00 119.28 L 418.65 115.07 L 422.30 116.09 L 425.95 115.41 L 429.60 113.90 L 433.25 117.24 L 436.90 119.23 L 440.55 119.74 L 444.20 121.57 L 447.85 118.11 L 451.50 121.46 L 455.15 121.63 L 458.80 123.85 L 462.45 125.87 L 466.10 126.83 L 469.75 128.42 L 473.40 130.71 L 477.05 129.23 L 480.70 129.14 L 484.35 128.50 L 488.00 132.26 L 491.65 130.50 L 495.30 128.31 L 498.95 131.72 L 502.60 132.01 L 506.25 127.62 L 509.90 126.23 L 513.55 125.12 L 517.20 128.32 L 520.85 131.95 L 524.50 135.14 L 528.15 132.42 L 531.80 136.73 L 535.45 137.23 L 539.10 140.41 L 542.75 139.48 L 546.40 147.33 L 550.05 150.34 L 553.70 152.42 L 557.35 153.28 L 561.00 158.62 L 564.65 159.89 L 568.30 159.64 L 571.95 155.71 L 575.60 156.60 L 579.25 164.31 L 582.90 162.36 L 586.55 164.65 L 590.20 166.46 L 593.85 162.75 L 597.50 160.54 L 601.15 156.35 L 604.80 153.61 L 608.45 152.42 L 612.10 151.52 L 615.75 150.99 L 619.40 146.60 L 623.05 146.50 L 626.70 145.74 L 630.35 142.96 L 634.00 139.84 L 637.65 140.64 L 641.30 139.25 L 644.95 138.20 L 648.60 141.82 L 652.25 138.33 L 655.90 138.43 L 659.55 141.90 L 663.20 137.60 L 666.85 138.64 L 670.50 140.01 L 674.15 138.51 L 677.80 136.19 L 681.45 133.35 L 685.10 138.80 L 688.75 140.28 L 692.40 140.64 L 696.05 141.28 L 699.70 143.37 L 703.35 146.40 L 707.00 150.24 L 710.65 147.82 L 714.30 146.38 L 717.95 149.29 L 721.60 149.10 L 725.25 153.20 L 728.90 153.40 L 732.55 153.93 L 736.20 142.87 L 739.85 139.66 L 743.50 139.69 L 747.15 138.37 L 750.80 140.45 L 754.45 141.76 L 758.10 140.73 L 761.75 144.45 L 765.40 144.39 L 769.05 144.53 L 772.70 144.49 L 776.35 147.09 L 780.00 151.77" class="path-0" />
<path d="M 50.00 123.51 L 53.65 120.70 L 57.30 123.30 L 60.95 121.08 L 64.60 124.91 L 68.25 128.20 L 71.90 124.66 L 75.55 125.22 L 79.20 122.67 L 82.85 119.71 L 86.50 119.50 L 90.15 121.55 L 93.80 125.40 L 97.45 132.56 L 101.10 132.30 L 104.75 133.29 L 108.40 131.01 L 112.05 133.11 L 115.70 133.09 L 119.35 134.27 L 123.00 129.02 L 126.65 128.35 L 130.30 127.43 L 133.95 127.58 L 137.60 126.99 L 141.25 129.75 L 144.90 125.22 L 148.55 126.50 L 152.20 129.48 L 155.85 127.39 L 159.50 125.57 L 163.15 121.82 L 166.80 125.22 L 170.45 128.26 L 174.10 123.60 L 177.75 124.95 L 181.40 128.04 L 185.05 128.87 L 188.70 126.63 L 192.35 123.42 L 196.00 125.43 L 199.65 132.82 L 203.30 132.19 L 206.95 126.65 L 210.60 124.74 L 214.25 128.03 L 217.90 127.58 L 221.55 124.72 L 225.20 121.67 L 228.85 118.35 L 232.50 120.88 L 236.15 122.08 L 239.80 120.24 L 243.45 125.00 L 247.10 129.42 L 250.75 128.25 L 254.40 129.85 L 258.05 128.64 L 261.70 131.03 L 265.35 136.02 L 269.00 129.90 L 272.65 129.52 L 276.30 129.53 L 279.95 127.67 L 283.60 124.77 L 287.25 123.15 L 290.90 119.79 L 294.55 122.60 L 298.20 122.79 L 301.85 119.33 L 305.50 122.46 L 309.15 122.59 L 312.80 123.25 L 316.45 126.62 L 320.10 128.20 L 323.75 128.43 L 327.40 130.32 L 331.05 128.35 L 334.70 130.34 L 338.35 131.04 L 342.00 129.49 L 345.65 129.95 L 349.30 129.40 L 352.95 128.52 L 356.60 127.16 L 360.25 127.83 L 363.90 130.05 L 367.55 130.22 L 371.20 131.81 L 374.85 127.06 L 378.50 123.39 L 382.15 123.42 L 385.80 121.36 L 389.45 121.47 L 393.10 119.77 L 396.75 119.69 L 400.40 120.72 L 404.05 120.22 L 407.70 117.45 L 411.35 118.82 L 415.00 114.96 L 418.65 114.44 L 422.30 111.73 L 425.95 112.63 L 429.60 110.51 L 433.25 104.87 L 436.90 106.45 L 440.55 109.19 L 444.20 110.17 L 447.85 108.14 L 451.50 109.41 L 455.15 109.81 L 458.80 104.94 L 462.45 100.98 L 466.10 100.18 L 469.75 101.96 L 473.40 99.77 L 477.05 104.35 L 480.70 102.73 L 484.35 102.92 L 488.00 98.18 L 491.65 95.81 L 495.30 99.19 L 498.95 97.98 L 502.60 96.11 L 506.25 102.11 L 509.90 101.23 L 513.55 96.31 L 517.20 95.04 L 520.85 94.88 L 524.50 96.79 L 528.15 94.04 L 531.80 95.96 L 535.45 94.03 L 539.10 98.21 L 542.75 98.31 L 546.40 100.40 L 550.05 93.40 L 553.70 95.48 L 557.35 94.52 L 561.00 94.30 L 564.65 97.68 L 568.30 93.87 L 571.95 94.30 L 575.60 98.88 L 579.25 102.47 L 582.90 98.33 L 586.55 91.38 L 590.20 90.67 L 593.85 90.44 L 597.50 87.21 L 601.15 84.48 L 604.80 85.50 L 608.45 85.39 L 612.10 84.54 L 615.75 83.65 L 619.40 81.78 L 623.05 80.00 L 626.70 78.95 L 630.35 79.88 L 634.00 80.14 L 637.65 79.65 L 641.30 78.00 L 644.95 76.90 L 648.60 78.48 L 652.25 75.26 L 655.90 73.85 L 659.55 75.06 L 663.20 78.59 L 666.85 81.50 L 670.50 83.01 L 674.15 88.39 L 677.80 87.08 L 681.45 88.58 L 685.10 86.13 L 688.75 87.76 L 692.40 82.54 L 696.05 82.87 L 699.70 83.91 L 703.35 79.35 L 707.00 80.82 L 710.65 79.48 L 714.30 85.59 L 717.95 80.71 L 721.60 81.37 L 725.25 77.95 L 728.90 75.07 L 732.55 71.89 L 736.20 75.32 L 739.85 77.93 L 743.50 78.73 L 747.15 74.57 L 750.80 71.72 L 754.45 65.38 L 758.10 67.32 L 761.75 67.46 L 765.40 72.50 L 769.05 71.78 L 772.70 72.57 L 776.35 76.07 L 780.00 76.45" class="path-1" />
<path d="M 50.00 123.51 L 53.65 124.35 L 57.30 122.71 L 60.95 124.46 L 64.60 126.11 L 68.25 127.28 L 71.90 129.70 L 75.55 129.36 L 79.20 125.86 L 82.85 126.28 L 86.50 123.92 L 90.15 123.36 L 93.80 122.29 L 97.45 128.21 L 101.10 131.77 L 104.75 132.72 L 108.40 130.70 L 112.05 129.95 L 115.70 129.02 L 119.35 129.11 L 123.00 130.54 L 126.65 127.88 L 130.30 121.11 L 133.95 125.02 L 137.60 126.06 L 141.25 126.99 L 144.90 121.75 L 148.55 120.66 L 152.20 122.99 L 155.85 125.47 L 159.50 123.10 L 163.15 124.40 L 166.80 125.10 L 170.45 124.32 L 174.10 123.50 L 177.75 126.17 L 181.40 126.42 L 185.05 127.17 L 188.70 127.69 L 192.35 130.46 L 196.00 133.57 L 199.65 132.12 L 203.30 128.98 L 206.95 129.67 L 210.60 131.41 L 214.25 130.70 L 217.90 130.00 L 221.55 128.45 L 225.20 127.14 L 228.85 136.66 L 232.50 135.41 L 236.15 138.68 L 239.80 142.51 L 243.45 148.66 L 247.10 148.53 L 250.75 144.09 L 254.40 145.45 L 258.05 148.63 L 261.70 148.67 L 265.35 145.58 L 269.00 144.26 L 272.65 144.91 L 276.30 146.99 L 279.95 145.38 L 283.60 145.89 L 287.25 148.44 L 290.90 148.40 L 294.55 147.83 L 298.20 152.82 L 301.85 156.96 L 305.50 154.13 L 309.15 152.12 L 312.80 154.06 L 316.45 152.97 L 320.10 150.69 L 323.75 152.61 L 327.40 155.48 L 331.05 158.45 L 334.70 157.78 L 338.35 155.27 L 342.00 152.99 L 345.65 157.87 L 349.30 159.71 L 352.95 165.26 L 356.60 170.00 L 360.25 169.34 L 363.90 167.49 L 367.55 167.10 L 371.20 175.02 L 374.85 175.10 L 378.50 175.37 L 382.15 176.91 L 385.80 176.69 L 389.45 177.02 L 393.10 176.03 L 396.75 172.70 L 400.40 171.61 L 404.05 173.74 L 407.70 177.21 L 411.35 180.18 L 415.00 178.88 L 418.65 186.50 L 422.30 188.23 L 425.95 190.07 L 429.60 189.71 L 433.25 186.80 L 436.90 185.12 L 440.55 182.74 L 444.20 183.41 L 447.85 179.43 L 451.50 181.55 L 455.15 185.24 L 458.80 185.76 L 462.45 183.03 L 466.10 182.71 L 469.75 182.66 L 473.40 183.58 L 477.05 183.69 L 480.70 179.48 L 484.35 177.23 L 488.00 175.71 L 491.65 177.52 L 495.30 178.55 L 498.95 179.84 L 502.60 178.85 L 506.25 172.63 L 509.90 168.12 L 513.55 165.20 L 517.20 164.41 L 520.85 164.88 L 524.50 164.31 L 528.15 171.27 L 531.80 172.02 L 535.45 174.53 L 539.10 169.15 L 542.75 168.73 L 546.40 167.16 L 550.05 167.61 L 553.70 170.38 L 557.35 175.11 L 561.00 173.84 L 564.65 174.68 L 568.30 174.17 L 571.95 176.00 L 575.60 183.38 L 579.25 184.44 L 582.90 185.69 L 586.55 185.33 L 590.20 178.85 L 593.85 182.51 L 597.50 182.27 L 601.15 181.71 L 604.80 183.43 L 608.45 189.64 L 612.10 187.65 L 615.75 185.46 L 619.40 187.52 L 623.05 187.19 L 626.70 182.93 L 630.35 178.31 L 634.00 176.73 L 637.65 178.49 L 641.30 181.13 L 644.95 178.83 L 648.60 180.87 L 652.25 184.97 L 655.90 186.59 L 659.55 185.04 L 663.20 187.08 L 666.85 183.33 L 670.50 185.09 L 674.15 186.23 L 677.80 192.35 L 681.45 191.15 L 685.10 188.43 L 688.75 190.82 L 692.40 190.85 L 696.05 191.82 L 699.70 193.24 L 703.35 192.93 L 707.00 192.19 L 710.65 193.77 L 714.30 191.70 L 717.95 185.53 L 721.60 180.85 L 725.25 176.71 L 728.90 175.51 L 732.55 172.81 L 736.20 171.96 L 739.85 174.03 L 743.50 174.71 L 747.15 178.25 L 750.80 178.76 L 754.45 177.34 L 758.10 176.02 L 761.75 179.17 L 765.40 179.52 L 769.05 177.68 L 772.70 176.69 L 776.35 177.58 L 780.00 176.11" class="path-2" />
<path d="M 50.00 123.51 L 53.65 124.76 L 57.30 127.87 L 60.95 128.76 L 64.60 127.61 L 68.25 128.75 L 71.90 126.68 L 75.55 131.76 L 79.20 128.71 L 82.85 131.00 L 86.50 135.35 L 90.15 135.59 L 93.80 132.77 L 97.45 136.23 L 101.10 133.42 L 104.75 130.40 L 108.40 131.46 L 112.05 134.59 L 115.70 135.21 L 119.35 141.26 L 123.00 140.21 L 126.65 139.78 L 130.30 136.03 L 133.95 135.42 L 137.60 139.27 L 141.25 136.76 L 144.90 141.51 L 148.55 142.52 L 152.20 144.71 L 155.85 144.71 L 159.50 147.97 L 163.15 148.06 L 166.80 151.10 L 170.45 154.13 L 174.10 152.37 L 177.75 150.43 L 181.40 146.14 L 185.05 147.90 L 188.70 150.98 L 192.35 156.80 L 196.00 156.75 L 199.65 151.62 L 203.30 149.23 L 206.95 147.16 L 210.60 150.31 L 214.25 153.13 L 217.90 153.84 L 221.55 150.09 L 225.20 147.19 L 228.85 151.21 L 232.50 144.61 L 236.15 140.42 L 239.80 147.12 L 243.45 143.39 L 247.10 145.90 L 250.75 147.84 L 254.40 145.78 L 258.05 144.75 L 261.70 145.86 L 265.35 149.80 L 269.00 150.63 L 272.65 150.86 L 276.30 149.96 L 279.95 153.91 L 283.60 155.16 L 287.25 155.57 L 290.90 156.87 L 294.55 158.95 L 298.20 160.47 L 301.85 164.47 L 305.50 158.54 L 309.15 165.42 L 312.80 164.54 L 316.45 167.87 L 320.10 167.41 L 323.75 163.97 L 327.40 162.70 L 331.05 165.68 L 334.70 171.33 L 338.35 165.90 L 342.00 164.54 L 345.65 169.65 L 349.30 167.76 L 352.95 170.64 L 356.60 172.35 L 360.25 171.08 L 363.90 171.02 L 367.55 172.37 L 371.20 171.78 L 374.85 175.55 L 378.50 170.66 L 382.15 176.37 L 385.80 179.44 L 389.45 176.11 L 393.10 174.55 L 396.75 172.35 L 400.40 166.22 L 404.05 161.55 L 407.70 164.05 L 411.35 161.02 L 415.00 163.62 L 418.65 162.05 L 422.30 160.25 L 425.95 164.67 L 429.60 164.22 L 433.25 165.28 L 436.90 163.52 L 440.55 164.90 L 444.20 166.32 L 447.85 168.45 L 451.50 163.24 L 455.15 164.07 L 458.80 158.99 L 462.45 157.51 L 466.10 156.99 L 469.75 159.60 L 473.40 157.03 L 477.05 163.37 L 480.70 167.23 L 484.35 169.90 L 488.00 171.51 L 491.65 178.08 L 495.30 177.63 L 498.95 178.66 L 502.60 182.17 L 506.25 180.80 L 509.90 184.03 L 513.55 185.18 L 517.20 188.14 L 520.85 190.94 L 524.50 192.13 L 528.15 194.36 L 531.80 196.53 L 535.45 200.97 L 539.10 204.43 L 542.75 205.87 L 546.40 209.64 L 550.05 209.84 L 553.70 210.83 L 557.35 210.02 L 561.00 203.51 L 564.65 199.54 L 568.30 202.70 L 571.95 198.10 L 575.60 203.41 L 579.25 202.90 L 582.90 202.99 L 586.55 197.37 L 590.20 196.48 L 593.85 201.73 L 597.50 204.96 L 601.15 204.44 L 604.80 204.63 L 608.45 209.16 L 612.10 208.67 L 615.75 214.23 L 619.40 215.12 L 623.05 212.96 L 626.70 215.49 L 630.35 218.37 L 634.00 220.73 L 637.65 221.42 L 641.30 219.60 L 644.95 224.29 L 648.60 227.59 L 652.25 228.43 L 655.90 228.30 L 659.55 230.59 L 663.20 230.82 L 666.85 232.02 L 670.50 230.18 L 674.15 227.23 L 677.80 227.36 L 681.45 226.31 L 685.10 225.25 L 688.75 225.79 L 692.40 230.80 L 696.05 228.89 L 699.70 231.06 L 703.35 230.24 L 707.00 228.94 L 710.65 229.93 L 714.30 228.60 L 717.95 229.64 L 721.60 231.48 L 725.25 234.62 L 728.90 231.18 L 732.55 227.77 L 736.20 225.00 L 739.85 219.50 L 743.50 217.92 L 747.15 213.38 L 750.80 211.29 L 754.45 212.16 L 758.10 211.70 L 761.75 207.10 L 765.40 208.63 L 769.05 206.21 L 772.70 204.91 L 776.35 206.92 L 780.00 202.65" class="path-3" />
<path d="M 50.00 123.51 L 53.65 124.87 L 57.30 129.12 L 60.95 132.33 L 64.60 133.08 L 68.25 132.80 L 71.90 135.34 L 75.55 136.29 L 79.20 136.70 L 82.85 135.99 L 86.50 134.09 L 90.15 132.38 L 93.80 131.90 L 97.45 136.63 L 101.10 137.31 L 104.75 138.82 L 108.40 134.26 L 112.05 132.48 L 115.70 134.45 L 119.35 136.96 L 123.00 140.67 L 126.65 142.28 L 130.30 141.08 L 133.95 138.53 L 137.60 135.97 L 141.25 134.06 L 144.90 132.75 L 148.55 132.33 L 152.20 130.90 L 155.85 132.48 L 159.50 135.71 L 163.15 136.63 L 166.80 132.12 L 170.45 134.49 L 174.10 136.40 L 177.75 142.30 L 181.40 142.61 L 185.05 139.49 L 188.70 136.40 L 192.35 139.40 L 196.00 137.19 L 199.65 139.61 L 203.30 144.10 L 206.95 146.14 L 210.60 146.41 L 214.25 146.37 L 217.90 142.75 L 221.55 142.91 L 225.20 142.05 L 228.85 147.97 L 232.50 148.27 L 236.15 151.22 L 239.80 150.20 L 243.45 148.96 L 247.10 149.68 L 250.75 151.94 L 254.40 157.66 L 258.05 155.71 L 261.70 156.59 L 265.35 156.89 L 269.00 155.21 L 272.65 158.79 L 276.30 160.71 L 279.95 161.49 L 283.60 161.73 L 287.25 161.10 L 290.90 160.50 L 294.55 159.32 L 298.20 161.19 L 301.85 169.07 L 305.50 166.60 L 309.15 171.56 L 312.80 173.50 L 316.45 175.69 L 320.10 172.87 L 323.75 171.67 L 327.40 172.48 L 331.05 175.68 L 334.70 177.87 L 338.35 179.82 L 342.00 182.10 L 345.65 180.00 L 349.30 173.99 L 352.95 175.68 L 356.60 176.36 L 360.25 173.53 L 363.90 170.31 L 367.55 170.63 L 371.20 167.73 L 374.85 162.33 L 378.50 163.78 L 382.15 164.16 L 385.80 164.76 L 389.45 165.27 L 393.10 164.52 L 396.75 160.93 L 400.40 159.90 L 404.05 156.68 L 407.70 156.66 L 411.35 156.49 L 415.00 160.39 L 418.65 161.21 L 422.30 160.22 L 425.95 158.96 L 429.60 160.99 L 433.25 157.30 L 436.90 156.28 L 440.55 160.43 L 444.20 155.57 L 447.85 156.32 L 451.50 158.54 L 455.15 157.89 L 458.80 166.41 L 462.45 162.83 L 466.10 161.79 L 469.75 164.98 L 473.40 168.77 L 477.05 169.57 L 480.70 167.04 L 484.35 162.60 L 488.00 161.12 L 491.65 160.66 L 495.30 162.93 L 498.95 166.06 L 502.60 166.91 L 506.25 164.97 L 509.90 167.05 L 513.55 166.51 L 517.20 163.53 L 520.85 167.80 L 524.50 165.73 L 528.15 167.47 L 531.80 165.55 L 535.45 169.40 L 539.10 171.06 L 542.75 167.99 L 546.40 164.19 L 550.05 163.85 L 553.70 162.91 L 557.35 163.84 L 561.00 164.49 L 564.65 164.90 L 568.30 160.62 L 571.95 161.36 L 575.60 162.33 L 579.25 162.53 L 582.90 163.07 L 586.55 157.41 L 590.20 155.73 L 593.85 154.61 L 597.50 153.22 L 601.15 150.12 L 604.80 149.25 L 608.45 149.37 L 612.10 150.43 L 615.75 150.40 L 619.40 147.56 L 623.05 147.59 L 626.70 148.30 L 630.35 147.50 L 634.00 148.79 L 637.65 148.04 L 641.30 146.51 L 644.95 149.39 L 648.60 145.16 L 652.25 146.21 L 655.90 148.84 L 659.55 145.57 L 663.20 144.93 L 666.85 146.52 L 670.50 145.79 L 674.15 144.56 L 677.80 146.80 L 681.45 150.09 L 685.10 148.54 L 688.75 143.21 L 692.40 144.79 L 696.05 142.97 L 699.70 141.20 L 703.35 143.57 L 707.00 141.51 L 710.65 139.83 L 714.30 139.35 L 717.95 137.86 L 721.60 134.65 L 725.25 130.13 L 728.90 123.32 L 732.55 127.18 L 736.20 126.93 L 739.85 126.23 L 743.50 124.57 L 747.15 119.24 L 750.80 120.15 L 754.45 119.25 L 758.10 118.58 L 761.75 118.00 L 765.40 119.69 L 769.05 120.07 L 772.70 119.08 L 776.35 122.65 L 780.00 125.25" class="path-4" />
<line x1="50" y1="123.5" x2="780" y2="123.5" stroke="#4b5563" stroke-width="0.8" stroke-dasharray="6 3" />
</svg>