<svg xmlns="http://www.w3.org/2000/svg" viewBox="0 0 800 300" width="800" height="300">
<style>
.axis-line { stroke: #6b7280; stroke-width: 0.5; }
.axis-text { font-family: monospace; font-size: 11px; fill: #9ca3af; }
.title-text { font-family: monospace; font-size: 14px; fill: #d1d5db; font-weight: bold; }
.grid-line { stroke: #374151; stroke-width: 0.3; stroke-dasharray: 4 2; }
.path-0 { fill: none; stroke: #3b82f6; stroke-width: 2; stroke-linecap: round; opacity: 0.85; animation: draw-0 8s ease-in-out 0.0s infinite; stroke-dasharray: 898; stroke-dashoffset: 898;}
@keyframes draw-0 { 0% { stroke-dashoffset: 898; } 38% { stroke-dashoffset: 0; } 62% { stroke-dashoffset: 0; } 100% { stroke-dashoffset: 898; }}
.path-1 { fill: none; stroke: #ef4444; stroke-width: 2; stroke-linecap: round; opacity: 0.85; animation: draw-1 8s ease-in-out 0.4s infinite; stroke-dasharray: 897; stroke-dashoffset: 897;}
@keyframes draw-1 { 0% { stroke-dashoffset: 897; } 38% { stroke-dashoffset: 0; } 62% { stroke-dashoffset: 0; } 100% { stroke-dashoffset: 897; }}
.path-2 { fill: none; stroke: #22c55e; stroke-width: 2; stroke-linecap: round; opacity: 0.85; animation: draw-2 8s ease-in-out 0.8s infinite; stroke-dasharray: 892; stroke-dashoffset: 892;}
@keyframes draw-2 { 0% { stroke-dashoffset: 892; } 38% { stroke-dashoffset: 0; } 62% { stroke-dashoffset: 0; } 100% { stroke-dashoffset: 892; }}
.path-3 { fill: none; stroke: #f59e0b; stroke-width: 2; stroke-linecap: round; opacity: 0.85; animation: draw-3 8s ease-in-out 1.2000000000000002s infinite; stroke-dasharray: 898; stroke-dashoffset: 898;}
@keyframes draw-3 { 0% { stroke-dashoffset: 898; } 38% { stroke-dashoffset: 0; } 62% { stroke-dashoffset: 0; } 100% { stroke-dashoffset: 898; }}
.path-4 { fill: none; stroke: #a855f7; stroke-width: 2; stroke-linecap: round; opacity: 0.85; animation: draw-4 8s ease-in-out 1.6s infinite; stroke-dasharray: 902; stroke-dashoffset: 902;}
@keyframes draw-4 { 0% { stroke-dashoffset: 902; } 38% { stroke-dashoffset: 0; } 62% { stroke-dashoffset: 0; } 100% { stroke-dashoffset: 902; }}
</style>
<rect width="800" height="300" rx="8" fill="#0d1117" />
<line x1="50" y1="260.0" x2="780" y2="260.0" class="grid-line" />
<text x="44" y="264.0" text-anchor="end" class="axis-text">-3.0</text>
<line x1="50" y1="216.0" x2="780" y2="216.0" class="grid-line" />
<text x="44" y="220.0" text-anchor="end" class="axis-text">-1.9</text>
<line x1="50" y1="172.0" x2="780" y2="172.0" class="grid-line" />
<text x="44" y="176.0" text-anchor="end" class="axis-text">-0.7</text>
<line x1="50" y1="128.0" x2="780" y2="128.0" class="grid-line" />
<text x="44" y="132.0" text-anchor="end" class="axis-text">0.4</text>
<line x1="50" y1="84.0" x2="780" y2="84.0" class="grid-line" />
<text x="44" y="88.0" text-anchor="end" class="axis-text">1.6</text>
<line x1="50" y1="40.0" x2="780" y2="40.0" class="grid-line" />
<text x="44" y="44.0" text-anchor="end" class="axis-text">2.7</text>
<line x1="50.0" y1="40" x2="50.0" y2="260" class="grid-line" />
<line x1="196.0" y1="40" x2="196.0" y2="260" class="grid-line" />
<line x1="342.0" y1="40" x2="342.0" y2="260" class="grid-line" />
<line x1="488.0" y1="40" x2="488.0" y2="260" class="grid-line" />
<line x1="634.0" y1="40" x2="634.0" y2="260" class="grid-line" />
<line x1="780.0" y1="40" x2="780.0" y2="260" class="grid-line" />
<line x1="50" y1="260" x2="780" y2="260" class="axis-line" />
<line x1="50" y1="40" x2="50" y2="260" class="axis-line" />
<text x="400.0" y="295" text-anchor="middle" class="axis-text">t</text>
<text x="12" y="150.0" text-anchor="middle" class="axis-text" transform="rotate(-90 12 150.0)">W(t)</text>
<text x="400.0" y="22" text-anchor="middle" class="title-text">Brownian Motion</text>
<path d="M 50.00 144.89 L 53.65 148.66 L 57.30 145.91 L 60.95 148.57 L 64.60 150.82 L 68.25 155.26 L 71.90 158.81 L 75.55 156.29 L 79.20 159.08 L 82.85 160.95 L 86.50 163.03 L 90.15 164.55 L 93.80 159.09 L 97.45 156.00 L 101.10 155.56 L 104.75 157.28 L 108.40 157.17 L 112.05 161.84 L 115.70 156.77 L 119.35 156.00 L 123.00 155.37 L 126.65 151.99 L 130.30 144.87 L 133.95 143.68 L 137.60 139.98 L 141.25 137.40 L 144.90 136.29 L 148.55 134.18 L 152.20 135.22 L 155.85 131.03 L 159.50 135.63 L 163.15 135.50 L 166.80 138.69 L 170.45 137.08 L 174.10 137.72 L 177.75 132.32 L 181.40 134.51 L 185.05 134.68 L 188.70 132.80 L 192.35 131.10 L 196.00 131.40 L 199.65 130.72 L 203.30 130.94 L 206.95 130.99 L 210.60 136.38 L 214.25 136.93 L 217.90 133.69 L 221.55 137.62 L 225.20 134.59 L 228.85 134.80 L 232.50 134.14 L 236.15 134.65 L 239.80 134.81 L 243.45 134.88 L 247.10 133.11 L 250.75 131.75 L 254.40 127.40 L 258.05 129.22 L 261.70 130.39 L 265.35 133.45 L 269.00 133.85 L 272.65 135.04 L 276.30 134.35 L 279.95 132.11 L 283.60 132.12 L 287.25 133.93 L 290.90 132.87 L 294.55 131.95 L 298.20 135.49 L 301.85 137.67 L 305.50 136.89 L 309.15 133.70 L 312.80 134.08 L 316.45 134.76 L 320.10 135.63 L 323.75 132.71 L 327.40 134.12 L 331.05 128.94 L 334.70 132.43 L 338.35 137.30 L 342.00 143.37 L 345.65 142.10 L 349.30 142.26 L 352.95 146.01 L 356.60 144.07 L 360.25 144.09 L 363.90 144.53 L 367.55 142.95 L 371.20 144.33 L 374.85 144.17 L 378.50 148.22 L 382.15 145.36 L 385.80 149.23 L 389.45 152.35 L 393.10 154.57 L 396.75 153.73 L 400.40 156.92 L 404.05 157.01 L 407.70 154.51 L 411.35 154.34 L 415.00 162.10 L 418.65 167.20 L 422.30 165.56 L 425.95 164.86 L 429.60 167.11 L 433.25 164.79 L 436.90 167.85 L 440.55 170.62 L 444.20 170.85 L 447.85 171.66 L 451.50 170.72 L 455.15 168.41 L 458.80 167.90 L 462.45 164.67 L 466.10 165.63 L 469.75 165.22 L 473.40 165.68 L 477.05 166.14 L 480.70 162.52 L 484.35 162.95 L 488.00 166.80 L 491.65 170.20 L 495.30 167.96 L 498.95 168.97 L 502.60 174.17 L 506.25 176.78 L 509.90 179.47 L 513.55 176.82 L 517.20 175.33 L 520.85 176.07 L 524.50 174.08 L 528.15 180.77 L 531.80 184.52 L 535.45 182.38 L 539.10 183.90 L 542.75 178.24 L 546.40 177.78 L 550.05 177.15 L 553.70 180.89 L 557.35 188.01 L 561.00 187.86 L 564.65 188.80 L 568.30 190.04 L 571.95 190.36 L 575.60 187.33 L 579.25 192.74 L 582.90 193.03 L 586.55 191.34 L 590.20 190.06 L 593.85 185.49 L 597.50 187.92 L 601.15 192.40 L 604.80 193.16 L 608.45 190.77 L 612.10 189.89 L 615.75 183.43 L 619.40 180.10 L 623.05 181.03 L 626.70 179.33 L 630.35 176.51 L 634.00 178.96 L 637.65 177.81 L 641.30 178.19 L 644.95 176.08 L 648.60 174.71 L 652.25 174.35 L 655.90 174.32 L 659.55 173.28 L 663.20 174.72 L 666.85 172.01 L 670.50 170.34 L 674.15 165.40 L 677.80 161.51 L 681.45 161.47 L 685.10 161.27 L 688.75 162.92 L 692.40 162.89 L 696.05 162.76 L 699.70 161.72 L 703.35 165.27 L 707.00 163.45 L 710.65 162.97 L 714.30 168.55 L 717.95 168.60 L 721.60 167.13 L 725.25 170.32 L 728.90 171.75 L 732.55 174.51 L 736.20 173.46 L 739.85 175.13 L 743.50 173.77 L 747.15 171.98 L 750.80 169.48 L 754.45 171.57 L 758.10 174.79 L 761.75 177.64 L 765.40 179.19 L 769.05 176.76 L 772.70 178.95 L 776.35 179.93 L 780.00 178.26" class="path-0" />
<path d="M 50.00 144.89 L 53.65 144.15 L 57.30 140.08 L 60.95 141.47 L 64.60 143.38 L 68.25 139.32 L 71.90 138.04 L 75.55 139.71 L 79.20 139.29 L 82.85 140.02 L 86.50 135.46 L 90.15 134.21 L 93.80 133.77 L 97.45 132.12 L 101.10 136.65 L 104.75 135.88 L 108.40 133.07 L 112.05 131.25 L 115.70 131.70 L 119.35 131.49 L 123.00 131.76 L 126.65 130.50 L 130.30 126.98 L 133.95 128.99 L 137.60 123.35 L 141.25 119.43 L 144.90 121.55 L 148.55 120.07 L 152.20 119.97 L 155.85 114.35 L 159.50 108.78 L 163.15 105.25 L 166.80 101.38 L 170.45 100.41 L 174.10 99.28 L 177.75 101.91 L 181.40 95.02 L 185.05 94.67 L 188.70 90.01 L 192.35 86.76 L 196.00 84.79 L 199.65 84.99 L 203.30 86.17 L 206.95 86.39 L 210.60 87.22 L 214.25 85.43 L 217.90 87.85 L 221.55 87.16 L 225.20 86.48 L 228.85 84.45 L 232.50 82.07 L 236.15 85.54 L 239.80 88.22 L 243.45 91.60 L 247.10 91.16 L 250.75 84.87 L 254.40 82.55 L 258.05 83.96 L 261.70 83.37 L 265.35 82.08 L 269.00 81.80 L 272.65 82.21 L 276.30 83.28 L 279.95 84.19 L 283.60 79.99 L 287.25 73.66 L 290.90 75.91 L 294.55 71.23 L 298.20 73.52 L 301.85 73.36 L 305.50 71.68 L 309.15 70.46 L 312.80 67.67 L 316.45 72.73 L 320.10 73.15 L 323.75 72.88 L 327.40 74.09 L 331.05 71.80 L 334.70 72.87 L 338.35 73.40 L 342.00 75.37 L 345.65 77.23 L 349.30 81.19 L 352.95 83.58 L 356.60 86.83 L 360.25 89.14 L 363.90 92.39 L 367.55 90.29 L 371.20 88.24 L 374.85 87.96 L 378.50 89.04 L 382.15 86.42 L 385.80 81.88 L 389.45 83.07 L 393.10 83.25 L 396.75 84.84 L 400.40 85.07 L 404.05 90.19 L 407.70 91.31 L 411.35 94.01 L 415.00 94.53 L 418.65 91.25 L 422.30 91.12 L 425.95 90.47 L 429.60 91.77 L 433.25 92.78 L 436.90 97.19 L 440.55 99.48 L 444.20 98.05 L 447.85 95.82 L 451.50 96.47 L 455.15 92.08 L 458.80 91.94 L 462.45 95.47 L 466.10 98.91 L 469.75 99.33 L 473.40 97.82 L 477.05 101.19 L 480.70 98.97 L 484.35 100.35 L 488.00 101.68 L 491.65 103.59 L 495.30 107.62 L 498.95 107.26 L 502.60 102.15 L 506.25 103.08 L 509.90 102.22 L 513.55 95.95 L 517.20 93.21 L 520.85 91.97 L 524.50 92.15 L 528.15 90.81 L 531.80 89.58 L 535.45 86.40 L 539.10 86.65 L 542.75 86.11 L 546.40 83.40 L 550.05 80.94 L 553.70 83.57 L 557.35 81.11 L 561.00 81.19 L 564.65 77.84 L 568.30 73.28 L 571.95 72.50 L 575.60 76.62 L 579.25 76.22 L 582.90 77.92 L 586.55 77.41 L 590.20 78.90 L 593.85 81.84 L 597.50 79.47 L 601.15 81.73 L 604.80 85.58 L 608.45 86.76 L 612.10 94.36 L 615.75 93.71 L 619.40 89.21 L 623.05 90.68 L 626.70 90.00 L 630.35 90.27 L 634.00 86.16 L 637.65 84.18 L 641.30 81.21 L 644.95 83.86 L 648.60 82.24 L 652.25 79.35 L 655.90 77.97 L 659.55 79.75 L 663.20 78.29 L 666.85 77.77 L 670.50 75.76 L 674.15 74.24 L 677.80 70.54 L 681.45 66.33 L 685.10 65.38 L 688.75 67.87 L 692.40 72.72 L 696.05 74.23 L 699.70 78.23 L 703.35 82.31 L 707.00 86.54 L 710.65 82.92 L 714.30 80.52 L 717.95 79.48 L 721.60 81.38 L 725.25 78.32 L 728.90 77.27 L 732.55 77.39 L 736.20 78.88 L 739.85 78.74 L 743.50 81.44 L 747.15 78.94 L 750.80 79.63 L 754.45 79.86 L 758.10 79.66 L 761.75 79.60 L 765.40 75.47 L 769.05 82.52 L 772.70 82.31 L 776.35 82.21 L 780.00 79.40" class="path-1" />
<path d="M 50.00 144.89 L 53.65 144.22 L 57.30 142.72 L 60.95 135.34 L 64.60 132.18 L 68.25 130.74 L 71.90 130.30 L 75.55 129.94 L 79.20 131.90 L 82.85 130.26 L 86.50 127.86 L 90.15 123.20 L 93.80 126.11 L 97.45 125.85 L 101.10 124.39 L 104.75 126.68 L 108.40 128.14 L 112.05 128.83 L 115.70 128.83 L 119.35 126.39 L 123.00 125.56 L 126.65 124.68 L 130.30 123.06 L 133.95 121.11 L 137.60 121.24 L 141.25 126.47 L 144.90 132.56 L 148.55 133.90 L 152.20 135.28 L 155.85 133.37 L 159.50 132.51 L 163.15 133.05 L 166.80 137.57 L 170.45 136.80 L 174.10 138.23 L 177.75 138.68 L 181.40 137.46 L 185.05 139.30 L 188.70 140.63 L 192.35 139.89 L 196.00 143.18 L 199.65 144.79 L 203.30 142.23 L 206.95 139.54 L 210.60 142.68 L 214.25 142.28 L 217.90 142.38 L 221.55 146.69 L 225.20 150.93 L 228.85 156.11 L 232.50 158.29 L 236.15 155.15 L 239.80 158.17 L 243.45 161.66 L 247.10 160.44 L 250.75 160.68 L 254.40 161.79 L 258.05 161.43 L 261.70 163.59 L 265.35 165.34 L 269.00 162.96 L 272.65 162.11 L 276.30 164.28 L 279.95 160.41 L 283.60 160.71 L 287.25 162.79 L 290.90 166.09 L 294.55 160.96 L 298.20 158.19 L 301.85 155.30 L 305.50 155.79 L 309.15 157.97 L 312.80 154.06 L 316.45 153.62 L 320.10 155.43 L 323.75 155.35 L 327.40 154.89 L 331.05 155.71 L 334.70 155.90 L 338.35 154.72 L 342.00 155.64 L 345.65 157.57 L 349.30 158.12 L 352.95 152.46 L 356.60 152.28 L 360.25 158.47 L 363.90 158.28 L 367.55 159.76 L 371.20 160.88 L 374.85 160.99 L 378.50 161.79 L 382.15 161.53 L 385.80 157.60 L 389.45 159.17 L 393.10 154.95 L 396.75 152.49 L 400.40 158.33 L 404.05 156.99 L 407.70 156.67 L 411.35 158.73 L 415.00 156.76 L 418.65 155.92 L 422.30 156.57 L 425.95 154.44 L 429.60 154.91 L 433.25 155.34 L 436.90 151.69 L 440.55 146.48 L 444.20 143.35 L 447.85 145.02 L 451.50 147.55 L 455.15 144.12 L 458.80 145.62 L 462.45 144.19 L 466.10 145.70 L 469.75 148.26 L 473.40 151.07 L 477.05 152.47 L 480.70 145.54 L 484.35 146.04 L 488.00 149.09 L 491.65 151.21 L 495.30 155.67 L 498.95 156.36 L 502.60 153.78 L 506.25 155.48 L 509.90 155.57 L 513.55 155.83 L 517.20 153.18 L 520.85 152.82 L 524.50 154.79 L 528.15 156.82 L 531.80 157.90 L 535.45 156.02 L 539.10 157.72 L 542.75 157.67 L 546.40 156.21 L 550.05 154.01 L 553.70 154.90 L 557.35 157.67 L 561.00 160.44 L 564.65 163.77 L 568.30 158.38 L 571.95 160.51 L 575.60 160.67 L 579.25 158.78 L 582.90 163.47 L 586.55 164.64 L 590.20 163.92 L 593.85 164.33 L 597.50 165.25 L 601.15 165.27 L 604.80 164.91 L 608.45 167.62 L 612.10 168.74 L 615.75 170.96 L 619.40 172.45 L 623.05 169.78 L 626.70 174.24 L 630.35 176.78 L 634.00 171.67 L 637.65 171.34 L 641.30 166.58 L 644.95 164.05 L 648.60 163.88 L 652.25 159.51 L 655.90 157.70 L 659.55 158.24 L 663.20 151.02 L 666.85 149.93 L 670.50 143.80 L 674.15 141.98 L 677.80 143.35 L 681.45 141.66 L 685.10 138.89 L 688.75 134.02 L 692.40 137.58 L 696.05 137.31 L 699.70 133.85 L 703.35 135.90 L 707.00 134.50 L 710.65 134.51 L 714.30 133.19 L 717.95 135.43 L 721.60 139.01 L 725.25 139.30 L 728.90 143.43 L 732.55 141.17 L 736.20 136.94 L 739.85 138.54 L 743.50 136.51 L 747.15 138.10 L 750.80 135.85 L 754.45 138.98 L 758.10 143.32 L 761.75 144.47 L 765.40 149.64 L 769.05 147.96 L 772.70 146.65 L 776.35 144.55 L 780.00 142.64" class="path-2" />
<path d="M 50.00 144.89 L 53.65 149.89 L 57.30 145.62 L 60.95 147.08 L 64.60 147.90 L 68.25 146.86 L 71.90 150.90 L 75.55 154.99 L 79.20 152.20 L 82.85 149.82 L 86.50 149.99 L 90.15 152.30 L 93.80 150.78 L 97.45 152.08 L 101.10 150.33 L 104.75 150.40 L 108.40 154.45 L 112.05 152.65 L 115.70 153.99 L 119.35 155.38 L 123.00 156.16 L 126.65 159.65 L 130.30 169.13 L 133.95 167.91 L 137.60 168.20 L 141.25 175.18 L 144.90 173.00 L 148.55 176.39 L 152.20 173.55 L 155.85 170.27 L 159.50 171.60 L 163.15 168.35 L 166.80 166.52 L 170.45 168.07 L 174.10 167.41 L 177.75 169.70 L 181.40 176.03 L 185.05 174.24 L 188.70 171.69 L 192.35 176.02 L 196.00 175.29 L 199.65 177.83 L 203.30 174.99 L 206.95 175.25 L 210.60 177.70 L 214.25 177.52 L 217.90 177.30 L 221.55 174.14 L 225.20 175.70 L 228.85 173.30 L 232.50 171.84 L 236.15 173.62 L 239.80 169.81 L 243.45 171.39 L 247.10 173.38 L 250.75 166.50 L 254.40 167.63 L 258.05 170.97 L 261.70 171.11 L 265.35 174.96 L 269.00 178.27 L 272.65 177.94 L 276.30 179.71 L 279.95 182.40 L 283.60 184.89 L 287.25 185.80 L 290.90 185.70 L 294.55 185.91 L 298.20 187.01 L 301.85 184.52 L 305.50 182.68 L 309.15 180.57 L 312.80 180.14 L 316.45 178.32 L 320.10 177.03 L 323.75 175.44 L 327.40 177.76 L 331.05 180.84 L 334.70 186.84 L 338.35 187.05 L 342.00 185.63 L 345.65 183.54 L 349.30 181.28 L 352.95 183.88 L 356.60 184.90 L 360.25 187.14 L 363.90 186.61 L 367.55 184.96 L 371.20 184.41 L 374.85 183.83 L 378.50 183.75 L 382.15 184.53 L 385.80 180.14 L 389.45 180.92 L 393.10 182.00 L 396.75 179.20 L 400.40 179.13 L 404.05 182.02 L 407.70 180.70 L 411.35 182.84 L 415.00 180.80 L 418.65 186.22 L 422.30 190.92 L 425.95 190.47 L 429.60 191.09 L 433.25 192.48 L 436.90 191.75 L 440.55 191.72 L 444.20 194.00 L 447.85 196.58 L 451.50 196.73 L 455.15 196.31 L 458.80 194.80 L 462.45 197.48 L 466.10 200.57 L 469.75 202.72 L 473.40 203.20 L 477.05 207.95 L 480.70 209.36 L 484.35 214.12 L 488.00 219.08 L 491.65 222.32 L 495.30 222.97 L 498.95 222.35 L 502.60 218.30 L 506.25 215.93 L 509.90 214.82 L 513.55 212.01 L 517.20 215.27 L 520.85 213.65 L 524.50 219.71 L 528.15 218.27 L 531.80 226.02 L 535.45 227.32 L 539.10 226.33 L 542.75 227.42 L 546.40 228.74 L 550.05 225.89 L 553.70 222.32 L 557.35 222.72 L 561.00 215.98 L 564.65 219.51 L 568.30 217.19 L 571.95 215.99 L 575.60 215.49 L 579.25 218.61 L 582.90 219.66 L 586.55 220.43 L 590.20 221.39 L 593.85 220.80 L 597.50 219.72 L 601.15 216.93 L 604.80 215.96 L 608.45 219.88 L 612.10 221.61 L 615.75 220.82 L 619.40 220.24 L 623.05 221.13 L 626.70 225.93 L 630.35 228.13 L 634.00 230.32 L 637.65 226.38 L 641.30 224.75 L 644.95 222.73 L 648.60 222.46 L 652.25 223.41 L 655.90 222.90 L 659.55 224.93 L 663.20 219.88 L 666.85 222.63 L 670.50 224.75 L 674.15 222.96 L 677.80 222.55 L 681.45 223.44 L 685.10 221.42 L 688.75 226.85 L 692.40 224.43 L 696.05 226.12 L 699.70 229.82 L 703.35 229.38 L 707.00 226.47 L 710.65 227.16 L 714.30 228.43 L 717.95 231.31 L 721.60 232.10 L 725.25 230.82 L 728.90 230.68 L 732.55 230.70 L 736.20 231.60 L 739.85 233.35 L 743.50 229.96 L 747.15 226.50 L 750.80 230.06 L 754.45 226.81 L 758.10 229.84 L 761.75 234.62 L 765.40 234.38 L 769.05 232.80 L 772.70 226.73 L 776.35 226.53 L 780.00 224.38" class="path-3" />
<path d="M 50.00 144.89 L 53.65 148.07 L 57.30 150.46 L 60.95 151.01 L 64.60 151.12 L 68.25 151.36 L 71.90 153.26 L 75.55 154.87 L 79.20 153.04 L 82.85 152.43 L 86.50 156.77 L 90.15 149.64 L 93.80 146.60 L 97.45 142.39 L 101.10 139.48 L 104.75 139.30 L 108.40 138.78 L 112.05 138.87 L 115.70 136.25 L 119.35 133.20 L 123.00 132.87 L 126.65 137.07 L 130.30 132.32 L 133.95 136.76 L 137.60 136.69 L 141.25 141.15 L 144.90 134.54 L 148.55 137.15 L 152.20 141.65 L 155.85 149.36 L 159.50 150.29 L 163.15 147.55 L 166.80 150.01 L 170.45 152.93 L 174.10 151.75 L 177.75 150.64 L 181.40 154.44 L 185.05 155.35 L 188.70 156.15 L 192.35 153.57 L 196.00 153.82 L 199.65 154.15 L 203.30 154.35 L 206.95 155.36 L 210.60 157.58 L 214.25 151.54 L 217.90 150.15 L 221.55 154.09 L 225.20 153.98 L 228.85 156.23 L 232.50 156.66 L 236.15 158.43 L 239.80 155.92 L 243.45 159.83 L 247.10 159.93 L 250.75 159.67 L 254.40 160.34 L 258.05 165.13 L 261.70 170.38 L 265.35 174.38 L 269.00 171.87 L 272.65 170.81 L 276.30 170.51 L 279.95 172.18 L 283.60 166.60 L 287.25 165.21 L 290.90 162.16 L 294.55 163.59 L 298.20 163.67 L 301.85 160.54 L 305.50 160.12 L 309.15 158.58 L 312.80 160.70 L 316.45 155.18 L 320.10 155.76 L 323.75 152.37 L 327.40 151.65 L 331.05 147.84 L 334.70 148.95 L 338.35 148.10 L 342.00 150.20 L 345.65 152.25 L 349.30 154.45 L 352.95 152.89 L 356.60 155.89 L 360.25 156.79 L 363.90 154.65 L 367.55 149.71 L 371.20 146.17 L 374.85 149.55 L 378.50 149.67 L 382.15 149.45 L 385.80 145.76 L 389.45 147.57 L 393.10 150.21 L 396.75 153.81 L 400.40 151.06 L 404.05 155.76 L 407.70 156.29 L 411.35 154.53 L 415.00 152.00 L 418.65 148.06 L 422.30 151.53 L 425.95 149.24 L 429.60 147.73 L 433.25 151.78 L 436.90 152.75 L 440.55 155.19 L 444.20 152.24 L 447.85 154.17 L 451.50 149.20 L 455.15 146.95 L 458.80 149.53 L 462.45 152.63 L 466.10 152.28 L 469.75 152.28 L 473.40 147.50 L 477.05 145.62 L 480.70 141.66 L 484.35 139.85 L 488.00 144.30 L 491.65 144.86 L 495.30 146.89 L 498.95 147.07 L 502.60 151.22 L 506.25 152.64 L 509.90 157.33 L 513.55 155.34 L 517.20 152.25 L 520.85 151.94 L 524.50 154.22 L 528.15 156.80 L 531.80 153.79 L 535.45 156.56 L 539.10 156.11 L 542.75 157.45 L 546.40 158.81 L 550.05 160.91 L 553.70 159.47 L 557.35 157.06 L 561.00 158.29 L 564.65 161.04 L 568.30 159.39 L 571.95 161.31 L 575.60 161.97 L 579.25 163.55 L 582.90 160.85 L 586.55 161.48 L 590.20 158.34 L 593.85 155.52 L 597.50 155.14 L 601.15 154.80 L 604.80 151.92 L 608.45 150.32 L 612.10 157.97 L 615.75 159.52 L 619.40 158.57 L 623.05 161.76 L 626.70 159.84 L 630.35 158.05 L 634.00 158.61 L 637.65 158.23 L 641.30 155.30 L 644.95 157.68 L 648.60 157.08 L 652.25 156.29 L 655.90 157.06 L 659.55 158.85 L 663.20 159.32 L 666.85 162.07 L 670.50 165.89 L 674.15 164.20 L 677.80 163.01 L 681.45 163.89 L 685.10 164.36 L 688.75 165.54 L 692.40 168.64 L 696.05 169.05 L 699.70 167.96 L 703.35 170.18 L 707.00 168.34 L 710.65 172.75 L 714.30 176.54 L 717.95 179.20 L 721.60 179.03 L 725.25 179.11 L 728.90 180.40 L 732.55 174.55 L 736.20 178.18 L 739.85 174.07 L 743.50 174.93 L 747.15 173.48 L 750.80 172.77 L 754.45 172.62 L 758.10 169.73 L 761.75 167.21 L 765.40 165.64 L 769.05 167.27 L 772.70 170.05 L 776.35 173.86 L 780.00 172.06" class="path-4" />
<line x1="50" y1="144.9" x2="780" y2="144.9" stroke="#4b5563" stroke-width="0.8" stroke-dasharray="6 3" />
</svg>