<svg xmlns="http://www.w3.org/2000/svg" viewBox="0 0 800 300" width="800" height="300">
<style>
.axis-line { stroke: #6b7280; stroke-width: 0.5; }
.axis-text { font-family: monospace; font-size: 11px; fill: #9ca3af; }
.title-text { font-family: monospace; font-size: 14px; fill: #d1d5db; font-weight: bold; }
.grid-line { stroke: #374151; stroke-width: 0.3; stroke-dasharray: 4 2; }
.path-0 { fill: none; stroke: #3b82f6; stroke-width: 2; stroke-linecap: round; opacity: 0.85; animation: draw-0 8s ease-in-out 0.0s infinite; stroke-dasharray: 964; stroke-dashoffset: 964;}
@keyframes draw-0 { 0% { stroke-dashoffset: 964; } 38% { stroke-dashoffset: 0; } 62% { stroke-dashoffset: 0; } 100% { stroke-dashoffset: 964; }}
.path-1 { fill: none; stroke: #ef4444; stroke-width: 2; stroke-linecap: round; opacity: 0.85; animation: draw-1 8s ease-in-out 0.4s infinite; stroke-dasharray: 1000; stroke-dashoffset: 1000;}
@keyframes draw-1 { 0% { stroke-dashoffset: 1000; } 38% { stroke-dashoffset: 0; } 62% { stroke-dashoffset: 0; } 100% { stroke-dashoffset: 1000; }}
.path-2 { fill: none; stroke: #22c55e; stroke-width: 2; stroke-linecap: round; opacity: 0.85; animation: draw-2 8s ease-in-out 0.8s infinite; stroke-dasharray: 995; stroke-dashoffset: 995;}
@keyframes draw-2 { 0% { stroke-dashoffset: 995; } 38% { stroke-dashoffset: 0; } 62% { stroke-dashoffset: 0; } 100% { stroke-dashoffset: 995; }}
.path-3 { fill: none; stroke: #f59e0b; stroke-width: 2; stroke-linecap: round; opacity: 0.85; animation: draw-3 8s ease-in-out 1.2000000000000002s infinite; stroke-dasharray: 992; stroke-dashoffset: 992;}
@keyframes draw-3 { 0% { stroke-dashoffset: 992; } 38% { stroke-dashoffset: 0; } 62% { stroke-dashoffset: 0; } 100% { stroke-dashoffset: 992; }}
.path-4 { fill: none; stroke: #a855f7; stroke-width: 2; stroke-linecap: round; opacity: 0.85; animation: draw-4 8s ease-in-out 1.6s infinite; stroke-dasharray: 1031; stroke-dashoffset: 1031;}
@keyframes draw-4 { 0% { stroke-dashoffset: 1031; } 38% { stroke-dashoffset: 0; } 62% { stroke-dashoffset: 0; } 100% { stroke-dashoffset: 1031; }}
</style>
<rect width="800" height="300" rx="8" fill="#0d1117" />
<line x1="50" y1="260.0" x2="780" y2="260.0" class="grid-line" />
<text x="44" y="264.0" text-anchor="end" class="axis-text">-1.7</text>
<line x1="50" y1="216.0" x2="780" y2="216.0" class="grid-line" />
<text x="44" y="220.0" text-anchor="end" class="axis-text">-0.8</text>
<line x1="50" y1="172.0" x2="780" y2="172.0" class="grid-line" />
<text x="44" y="176.0" text-anchor="end" class="axis-text">0.0</text>
<line x1="50" y1="128.0" x2="780" y2="128.0" class="grid-line" />
<text x="44" y="132.0" text-anchor="end" class="axis-text">0.9</text>
<line x1="50" y1="84.0" x2="780" y2="84.0" class="grid-line" />
<text x="44" y="88.0" text-anchor="end" class="axis-text">1.7</text>
<line x1="50" y1="40.0" x2="780" y2="40.0" class="grid-line" />
<text x="44" y="44.0" text-anchor="end" class="axis-text">2.5</text>
<line x1="50.0" y1="40" x2="50.0" y2="260" class="grid-line" />
<line x1="196.0" y1="40" x2="196.0" y2="260" class="grid-line" />
<line x1="342.0" y1="40" x2="342.0" y2="260" class="grid-line" />
<line x1="488.0" y1="40" x2="488.0" y2="260" class="grid-line" />
<line x1="634.0" y1="40" x2="634.0" y2="260" class="grid-line" />
<line x1="780.0" y1="40" x2="780.0" y2="260" class="grid-line" />
<line x1="50" y1="260" x2="780" y2="260" class="axis-line" />
<line x1="50" y1="40" x2="50" y2="260" class="axis-line" />
<text x="400.0" y="295" text-anchor="middle" class="axis-text">t</text>
<text x="12" y="150.0" text-anchor="middle" class="axis-text" transform="rotate(-90 12 150.0)">W(t)</text>
<text x="400.0" y="22" text-anchor="middle" class="title-text">Brownian Motion</text>
<path d="M 50.00 173.15 L 53.65 171.88 L 57.30 173.20 L 60.95 175.38 L 64.60 173.61 L 68.25 173.86 L 71.90 170.78 L 75.55 168.69 L 79.20 169.67 L 82.85 173.87 L 86.50 171.03 L 90.15 174.77 L 93.80 178.13 L 97.45 181.68 L 101.10 182.71 L 104.75 185.96 L 108.40 188.08 L 112.05 188.14 L 115.70 183.45 L 119.35 181.43 L 123.00 173.26 L 126.65 173.69 L 130.30 169.71 L 133.95 163.66 L 137.60 152.86 L 141.25 147.93 L 144.90 145.80 L 148.55 150.01 L 152.20 152.84 L 155.85 152.45 L 159.50 151.95 L 163.15 152.02 L 166.80 145.76 L 170.45 148.10 L 174.10 142.28 L 177.75 145.64 L 181.40 142.21 L 185.05 138.75 L 188.70 143.58 L 192.35 150.10 L 196.00 155.50 L 199.65 155.14 L 203.30 154.90 L 206.95 149.77 L 210.60 147.52 L 214.25 148.10 L 217.90 151.92 L 221.55 155.25 L 225.20 155.62 L 228.85 155.13 L 232.50 149.97 L 236.15 152.61 L 239.80 150.60 L 243.45 154.82 L 247.10 151.36 L 250.75 152.82 L 254.40 156.79 L 258.05 159.33 L 261.70 158.91 L 265.35 157.95 L 269.00 157.73 L 272.65 160.30 L 276.30 156.77 L 279.95 159.15 L 283.60 156.25 L 287.25 154.17 L 290.90 157.19 L 294.55 157.19 L 298.20 158.22 L 301.85 161.77 L 305.50 158.50 L 309.15 158.52 L 312.80 158.75 L 316.45 158.49 L 320.10 154.23 L 323.75 152.36 L 327.40 153.77 L 331.05 151.00 L 334.70 149.97 L 338.35 151.70 L 342.00 151.84 L 345.65 147.16 L 349.30 146.67 L 352.95 145.73 L 356.60 147.29 L 360.25 150.69 L 363.90 148.95 L 367.55 150.09 L 371.20 143.19 L 374.85 143.71 L 378.50 146.31 L 382.15 144.38 L 385.80 144.57 L 389.45 147.68 L 393.10 146.14 L 396.75 143.13 L 400.40 143.28 L 404.05 145.72 L 407.70 149.50 L 411.35 151.58 L 415.00 150.27 L 418.65 151.96 L 422.30 150.33 L 425.95 149.62 L 429.60 149.47 L 433.25 148.32 L 436.90 143.19 L 440.55 140.32 L 444.20 141.30 L 447.85 143.55 L 451.50 143.01 L 455.15 143.00 L 458.80 143.33 L 462.45 145.92 L 466.10 145.09 L 469.75 147.03 L 473.40 148.78 L 477.05 154.31 L 480.70 146.20 L 484.35 146.45 L 488.00 147.27 L 491.65 142.87 L 495.30 139.33 L 498.95 144.45 L 502.60 139.91 L 506.25 136.66 L 509.90 133.91 L 513.55 128.92 L 517.20 130.55 L 520.85 132.75 L 524.50 136.65 L 528.15 139.04 L 531.80 138.36 L 535.45 132.45 L 539.10 131.44 L 542.75 132.66 L 546.40 128.78 L 550.05 122.49 L 553.70 120.99 L 557.35 126.01 L 561.00 123.51 L 564.65 120.15 L 568.30 121.02 L 571.95 119.17 L 575.60 112.65 L 579.25 114.77 L 582.90 119.29 L 586.55 115.75 L 590.20 119.09 L 593.85 121.20 L 597.50 118.87 L 601.15 111.43 L 604.80 108.09 L 608.45 110.01 L 612.10 112.36 L 615.75 107.39 L 619.40 103.17 L 623.05 99.31 L 626.70 99.47 L 630.35 94.23 L 634.00 95.42 L 637.65 85.87 L 641.30 80.34 L 644.95 82.09 L 648.60 84.05 L 652.25 89.62 L 655.90 90.04 L 659.55 93.33 L 663.20 98.11 L 666.85 94.51 L 670.50 89.75 L 674.15 86.73 L 677.80 89.47 L 681.45 89.53 L 685.10 91.67 L 688.75 94.66 L 692.40 96.02 L 696.05 98.66 L 699.70 100.54 L 703.35 101.79 L 707.00 105.26 L 710.65 108.37 L 714.30 107.47 L 717.95 108.65 L 721.60 107.06 L 725.25 107.95 L 728.90 112.75 L 732.55 110.90 L 736.20 108.89 L 739.85 107.74 L 743.50 108.39 L 747.15 116.93 L 750.80 118.04 L 754.45 115.46 L 758.10 109.67 L 761.75 110.84 L 765.40 109.38 L 769.05 113.73 L 772.70 113.52 L 776.35 115.33 L 780.00 116.56" class="path-0" />
<path d="M 50.00 173.15 L 53.65 175.90 L 57.30 172.80 L 60.95 172.32 L 64.60 171.20 L 68.25 177.17 L 71.90 174.76 L 75.55 173.62 L 79.20 170.90 L 82.85 170.49 L 86.50 170.96 L 90.15 167.82 L 93.80 163.68 L 97.45 162.67 L 101.10 167.63 L 104.75 163.69 L 108.40 160.47 L 112.05 156.57 L 115.70 157.76 L 119.35 157.36 L 123.00 154.60 L 126.65 156.85 L 130.30 157.71 L 133.95 159.43 L 137.60 163.80 L 141.25 163.26 L 144.90 165.82 L 148.55 166.00 L 152.20 169.75 L 155.85 162.75 L 159.50 161.69 L 163.15 164.15 L 166.80 155.91 L 170.45 160.53 L 174.10 157.25 L 177.75 156.43 L 181.40 154.45 L 185.05 148.11 L 188.70 150.27 L 192.35 154.09 L 196.00 147.74 L 199.65 147.59 L 203.30 151.26 L 206.95 152.41 L 210.60 155.37 L 214.25 153.10 L 217.90 151.42 L 221.55 150.75 L 225.20 155.18 L 228.85 151.46 L 232.50 141.13 L 236.15 139.44 L 239.80 141.40 L 243.45 144.10 L 247.10 142.54 L 250.75 138.08 L 254.40 138.91 L 258.05 133.56 L 261.70 134.14 L 265.35 136.51 L 269.00 138.28 L 272.65 134.51 L 276.30 130.98 L 279.95 122.06 L 283.60 117.57 L 287.25 122.35 L 290.90 121.62 L 294.55 119.97 L 298.20 120.30 L 301.85 121.17 L 305.50 121.32 L 309.15 121.15 L 312.80 117.36 L 316.45 120.03 L 320.10 110.64 L 323.75 112.17 L 327.40 114.67 L 331.05 110.84 L 334.70 114.69 L 338.35 121.27 L 342.00 127.13 L 345.65 127.58 L 349.30 129.80 L 352.95 126.44 L 356.60 125.77 L 360.25 127.23 L 363.90 127.89 L 367.55 130.64 L 371.20 129.82 L 374.85 123.41 L 378.50 121.27 L 382.15 121.18 L 385.80 121.91 L 389.45 119.84 L 393.10 111.15 L 396.75 114.36 L 400.40 114.23 L 404.05 115.15 L 407.70 108.82 L 411.35 111.42 L 415.00 114.89 L 418.65 118.64 L 422.30 117.50 L 425.95 116.21 L 429.60 107.06 L 433.25 105.99 L 436.90 100.70 L 440.55 106.43 L 444.20 105.56 L 447.85 107.36 L 451.50 108.68 L 455.15 102.96 L 458.80 104.75 L 462.45 101.80 L 466.10 106.25 L 469.75 105.61 L 473.40 106.23 L 477.05 102.60 L 480.70 103.36 L 484.35 102.30 L 488.00 99.05 L 491.65 96.89 L 495.30 99.73 L 498.95 96.18 L 502.60 96.37 L 506.25 97.11 L 509.90 95.50 L 513.55 98.05 L 517.20 103.35 L 520.85 101.68 L 524.50 101.87 L 528.15 99.61 L 531.80 99.22 L 535.45 102.47 L 539.10 96.95 L 542.75 98.36 L 546.40 98.42 L 550.05 108.95 L 553.70 105.35 L 557.35 100.71 L 561.00 101.03 L 564.65 107.51 L 568.30 105.18 L 571.95 106.67 L 575.60 103.61 L 579.25 98.52 L 582.90 96.44 L 586.55 98.32 L 590.20 105.22 L 593.85 104.37 L 597.50 104.53 L 601.15 103.87 L 604.80 103.67 L 608.45 98.62 L 612.10 94.90 L 615.75 84.16 L 619.40 85.73 L 623.05 79.33 L 626.70 78.89 L 630.35 79.40 L 634.00 80.18 L 637.65 84.55 L 641.30 86.36 L 644.95 83.90 L 648.60 86.68 L 652.25 87.34 L 655.90 87.22 L 659.55 94.06 L 663.20 96.88 L 666.85 102.10 L 670.50 96.78 L 674.15 91.69 L 677.80 89.62 L 681.45 90.62 L 685.10 83.84 L 688.75 82.73 L 692.40 85.30 L 696.05 77.66 L 699.70 71.06 L 703.35 70.46 L 707.00 69.52 L 710.65 71.64 L 714.30 76.41 L 717.95 78.11 L 721.60 80.40 L 725.25 79.51 L 728.90 74.75 L 732.55 73.57 L 736.20 69.21 L 739.85 74.19 L 743.50 71.63 L 747.15 74.75 L 750.80 74.88 L 754.45 74.79 L 758.10 74.95 L 761.75 68.80 L 765.40 65.38 L 769.05 65.84 L 772.70 72.56 L 776.35 71.30 L 780.00 71.87" class="path-1" />
<path d="M 50.00 173.15 L 53.65 165.38 L 57.30 162.15 L 60.95 163.66 L 64.60 158.57 L 68.25 158.09 L 71.90 162.87 L 75.55 161.17 L 79.20 167.94 L 82.85 166.36 L 86.50 164.20 L 90.15 165.75 L 93.80 161.47 L 97.45 161.41 L 101.10 163.43 L 104.75 165.80 L 108.40 167.33 L 112.05 167.77 L 115.70 170.77 L 119.35 168.53 L 123.00 171.92 L 126.65 174.01 L 130.30 176.22 L 133.95 175.32 L 137.60 170.83 L 141.25 178.28 L 144.90 186.43 L 148.55 191.16 L 152.20 189.98 L 155.85 193.16 L 159.50 196.53 L 163.15 194.53 L 166.80 194.45 L 170.45 194.74 L 174.10 193.87 L 177.75 191.06 L 181.40 189.25 L 185.05 189.16 L 188.70 186.69 L 192.35 186.74 L 196.00 190.29 L 199.65 191.61 L 203.30 190.45 L 206.95 192.49 L 210.60 196.63 L 214.25 193.47 L 217.90 189.66 L 221.55 189.91 L 225.20 191.43 L 228.85 190.17 L 232.50 186.10 L 236.15 189.17 L 239.80 185.52 L 243.45 183.27 L 247.10 186.08 L 250.75 184.09 L 254.40 193.03 L 258.05 193.80 L 261.70 195.44 L 265.35 196.77 L 269.00 189.86 L 272.65 192.41 L 276.30 193.62 L 279.95 189.31 L 283.60 189.10 L 287.25 185.02 L 290.90 181.12 L 294.55 180.11 L 298.20 179.94 L 301.85 181.54 L 305.50 179.01 L 309.15 176.92 L 312.80 172.12 L 316.45 168.83 L 320.10 168.97 L 323.75 173.74 L 327.40 173.38 L 331.05 171.34 L 334.70 175.85 L 338.35 179.42 L 342.00 180.10 L 345.65 182.58 L 349.30 180.40 L 352.95 176.61 L 356.60 180.42 L 360.25 184.64 L 363.90 179.80 L 367.55 177.91 L 371.20 181.54 L 374.85 181.11 L 378.50 188.09 L 382.15 187.65 L 385.80 186.86 L 389.45 187.50 L 393.10 184.02 L 396.75 184.80 L 400.40 180.35 L 404.05 185.37 L 407.70 184.22 L 411.35 188.64 L 415.00 190.30 L 418.65 194.11 L 422.30 198.87 L 425.95 193.76 L 429.60 196.78 L 433.25 196.51 L 436.90 204.19 L 440.55 210.29 L 444.20 208.71 L 447.85 205.49 L 451.50 204.07 L 455.15 202.16 L 458.80 197.38 L 462.45 200.39 L 466.10 199.86 L 469.75 193.60 L 473.40 194.64 L 477.05 191.11 L 480.70 193.63 L 484.35 195.80 L 488.00 194.94 L 491.65 197.39 L 495.30 195.84 L 498.95 192.88 L 502.60 197.76 L 506.25 193.43 L 509.90 191.55 L 513.55 197.66 L 517.20 195.33 L 520.85 198.18 L 524.50 192.37 L 528.15 194.05 L 531.80 198.68 L 535.45 199.62 L 539.10 198.56 L 542.75 198.93 L 546.40 196.40 L 550.05 194.51 L 553.70 192.25 L 557.35 193.08 L 561.00 192.82 L 564.65 194.85 L 568.30 193.45 L 571.95 196.11 L 575.60 201.32 L 579.25 196.19 L 582.90 187.03 L 586.55 185.61 L 590.20 184.04 L 593.85 188.50 L 597.50 191.37 L 601.15 188.83 L 604.80 185.92 L 608.45 184.07 L 612.10 178.13 L 615.75 173.92 L 619.40 171.64 L 623.05 173.57 L 626.70 175.72 L 630.35 169.90 L 634.00 173.15 L 637.65 177.74 L 641.30 179.48 L 644.95 179.52 L 648.60 179.76 L 652.25 172.54 L 655.90 166.88 L 659.55 165.04 L 663.20 162.72 L 666.85 165.66 L 670.50 158.75 L 674.15 156.44 L 677.80 158.41 L 681.45 162.71 L 685.10 162.78 L 688.75 164.76 L 692.40 172.37 L 696.05 173.70 L 699.70 167.25 L 703.35 169.50 L 707.00 171.76 L 710.65 168.68 L 714.30 173.49 L 717.95 177.90 L 721.60 174.73 L 725.25 177.95 L 728.90 177.31 L 732.55 171.95 L 736.20 166.04 L 739.85 158.83 L 743.50 154.92 L 747.15 161.62 L 750.80 158.67 L 754.45 156.26 L 758.10 156.62 L 761.75 158.30 L 765.40 164.66 L 769.05 164.02 L 772.70 160.71 L 776.35 156.38 L 780.00 156.94" class="path-2" />
<path d="M 50.00 173.15 L 53.65 170.47 L 57.30 174.51 L 60.95 176.88 L 64.60 175.12 L 68.25 174.87 L 71.90 176.48 L 75.55 176.65 L 79.20 179.51 L 82.85 183.19 L 86.50 183.51 L 90.15 190.20 L 93.80 191.55 L 97.45 190.11 L 101.10 189.02 L 104.75 185.29 L 108.40 185.44 L 112.05 184.45 L 115.70 179.17 L 119.35 186.39 L 123.00 191.30 L 126.65 189.67 L 130.30 192.07 L 133.95 192.68 L 137.60 195.75 L 141.25 193.42 L 144.90 198.91 L 148.55 201.10 L 152.20 205.62 L 155.85 201.21 L 159.50 201.24 L 163.15 199.58 L 166.80 198.82 L 170.45 200.74 L 174.10 203.08 L 177.75 202.35 L 181.40 207.48 L 185.05 205.65 L 188.70 203.98 L 192.35 206.68 L 196.00 208.69 L 199.65 202.47 L 203.30 200.56 L 206.95 197.12 L 210.60 196.89 L 214.25 187.79 L 217.90 194.18 L 221.55 195.95 L 225.20 191.65 L 228.85 180.96 L 232.50 176.21 L 236.15 178.90 L 239.80 184.19 L 243.45 184.65 L 247.10 187.12 L 250.75 188.82 L 254.40 189.19 L 258.05 194.42 L 261.70 198.68 L 265.35 201.20 L 269.00 200.69 L 272.65 198.22 L 276.30 204.04 L 279.95 201.05 L 283.60 204.09 L 287.25 199.46 L 290.90 199.34 L 294.55 200.59 L 298.20 206.15 L 301.85 201.51 L 305.50 201.18 L 309.15 206.04 L 312.80 206.58 L 316.45 206.18 L 320.10 209.15 L 323.75 217.35 L 327.40 213.91 L 331.05 215.35 L 334.70 217.54 L 338.35 216.49 L 342.00 214.42 L 345.65 215.34 L 349.30 211.19 L 352.95 213.18 L 356.60 219.20 L 360.25 221.23 L 363.90 222.55 L 367.55 226.57 L 371.20 219.11 L 374.85 221.42 L 378.50 217.45 L 382.15 220.66 L 385.80 221.53 L 389.45 220.73 L 393.10 224.84 L 396.75 226.69 L 400.40 222.45 L 404.05 224.15 L 407.70 221.93 L 411.35 217.21 L 415.00 216.23 L 418.65 217.76 L 422.30 217.21 L 425.95 218.00 L 429.60 217.76 L 433.25 215.41 L 436.90 214.53 L 440.55 211.30 L 444.20 207.34 L 447.85 210.52 L 451.50 207.60 L 455.15 207.57 L 458.80 211.46 L 462.45 207.62 L 466.10 204.51 L 469.75 202.24 L 473.40 200.97 L 477.05 208.39 L 480.70 209.39 L 484.35 209.49 L 488.00 206.66 L 491.65 208.05 L 495.30 207.74 L 498.95 204.65 L 502.60 206.06 L 506.25 203.79 L 509.90 202.72 L 513.55 205.68 L 517.20 207.99 L 520.85 201.73 L 524.50 202.80 L 528.15 203.53 L 531.80 196.47 L 535.45 200.65 L 539.10 202.14 L 542.75 198.32 L 546.40 193.32 L 550.05 193.07 L 553.70 196.59 L 557.35 201.64 L 561.00 201.84 L 564.65 201.73 L 568.30 197.90 L 571.95 196.23 L 575.60 199.22 L 579.25 195.56 L 582.90 200.40 L 586.55 197.88 L 590.20 195.72 L 593.85 199.67 L 597.50 202.27 L 601.15 200.88 L 604.80 198.98 L 608.45 194.38 L 612.10 189.87 L 615.75 189.01 L 619.40 186.50 L 623.05 187.91 L 626.70 185.94 L 630.35 179.32 L 634.00 180.77 L 637.65 175.97 L 641.30 171.78 L 644.95 171.86 L 648.60 170.50 L 652.25 171.26 L 655.90 163.15 L 659.55 169.63 L 663.20 166.80 L 666.85 172.87 L 670.50 168.64 L 674.15 171.31 L 677.80 172.98 L 681.45 175.41 L 685.10 174.67 L 688.75 175.82 L 692.40 180.58 L 696.05 180.09 L 699.70 184.47 L 703.35 180.77 L 707.00 184.15 L 710.65 184.55 L 714.30 188.66 L 717.95 194.59 L 721.60 198.57 L 725.25 193.75 L 728.90 196.27 L 732.55 198.93 L 736.20 202.02 L 739.85 197.69 L 743.50 207.31 L 747.15 212.27 L 750.80 216.42 L 754.45 219.64 L 758.10 219.98 L 761.75 221.96 L 765.40 225.00 L 769.05 232.01 L 772.70 231.18 L 776.35 233.17 L 780.00 234.62" class="path-3" />
<path d="M 50.00 173.15 L 53.65 168.96 L 57.30 171.43 L 60.95 169.34 L 64.60 172.94 L 68.25 174.14 L 71.90 169.55 L 75.55 161.42 L 79.20 163.72 L 82.85 172.36 L 86.50 174.08 L 90.15 172.23 L 93.80 172.50 L 97.45 167.18 L 101.10 172.88 L 104.75 173.81 L 108.40 178.30 L 112.05 177.94 L 115.70 178.74 L 119.35 179.16 L 123.00 172.26 L 126.65 176.12 L 130.30 171.64 L 133.95 166.08 L 137.60 159.78 L 141.25 152.48 L 144.90 152.61 L 148.55 154.00 L 152.20 156.92 L 155.85 151.57 L 159.50 153.84 L 163.15 149.75 L 166.80 158.78 L 170.45 161.42 L 174.10 161.15 L 177.75 165.85 L 181.40 165.48 L 185.05 162.19 L 188.70 162.57 L 192.35 159.56 L 196.00 162.90 L 199.65 163.43 L 203.30 161.79 L 206.95 166.81 L 210.60 161.16 L 214.25 163.58 L 217.90 164.88 L 221.55 169.46 L 225.20 175.97 L 228.85 182.15 L 232.50 180.10 L 236.15 182.67 L 239.80 184.07 L 243.45 180.61 L 247.10 179.49 L 250.75 183.91 L 254.40 181.23 L 258.05 180.66 L 261.70 176.90 L 265.35 173.82 L 269.00 172.62 L 272.65 175.03 L 276.30 174.04 L 279.95 167.60 L 283.60 165.90 L 287.25 164.08 L 290.90 164.12 L 294.55 164.19 L 298.20 162.21 L 301.85 171.32 L 305.50 171.16 L 309.15 170.36 L 312.80 170.06 L 316.45 168.81 L 320.10 168.38 L 323.75 171.34 L 327.40 168.76 L 331.05 175.43 L 334.70 179.40 L 338.35 181.48 L 342.00 176.41 L 345.65 171.16 L 349.30 174.25 L 352.95 181.00 L 356.60 179.31 L 360.25 176.66 L 363.90 179.18 L 367.55 185.05 L 371.20 187.45 L 374.85 192.11 L 378.50 193.28 L 382.15 199.41 L 385.80 197.09 L 389.45 195.04 L 393.10 198.98 L 396.75 197.86 L 400.40 198.64 L 404.05 202.46 L 407.70 202.78 L 411.35 198.43 L 415.00 201.43 L 418.65 196.06 L 422.30 203.94 L 425.95 201.48 L 429.60 195.37 L 433.25 204.39 L 436.90 200.17 L 440.55 201.15 L 444.20 194.28 L 447.85 188.74 L 451.50 187.32 L 455.15 183.21 L 458.80 188.21 L 462.45 180.41 L 466.10 183.92 L 469.75 184.82 L 473.40 186.51 L 477.05 191.46 L 480.70 188.30 L 484.35 190.75 L 488.00 189.46 L 491.65 186.46 L 495.30 186.13 L 498.95 184.48 L 502.60 181.66 L 506.25 184.83 L 509.90 180.06 L 513.55 176.39 L 517.20 177.95 L 520.85 177.76 L 524.50 169.47 L 528.15 170.34 L 531.80 172.49 L 535.45 171.54 L 539.10 167.30 L 542.75 166.64 L 546.40 167.29 L 550.05 167.73 L 553.70 167.90 L 557.35 166.71 L 561.00 167.13 L 564.65 160.88 L 568.30 158.94 L 571.95 161.55 L 575.60 164.27 L 579.25 161.92 L 582.90 164.38 L 586.55 167.13 L 590.20 163.45 L 593.85 162.36 L 597.50 159.46 L 601.15 161.43 L 604.80 154.26 L 608.45 147.03 L 612.10 153.90 L 615.75 156.74 L 619.40 156.68 L 623.05 159.55 L 626.70 163.70 L 630.35 160.09 L 634.00 160.49 L 637.65 169.69 L 641.30 170.63 L 644.95 172.34 L 648.60 175.48 L 652.25 180.29 L 655.90 185.25 L 659.55 188.82 L 663.20 194.23 L 666.85 193.15 L 670.50 190.18 L 674.15 186.95 L 677.80 183.43 L 681.45 182.22 L 685.10 184.16 L 688.75 179.80 L 692.40 180.00 L 696.05 175.03 L 699.70 173.71 L 703.35 175.83 L 707.00 173.73 L 710.65 176.90 L 714.30 180.27 L 717.95 172.86 L 721.60 170.71 L 725.25 164.32 L 728.90 161.52 L 732.55 163.27 L 736.20 156.68 L 739.85 152.20 L 743.50 149.99 L 747.15 152.09 L 750.80 149.18 L 754.45 147.74 L 758.10 141.17 L 761.75 142.53 L 765.40 141.28 L 769.05 141.72 L 772.70 138.89 L 776.35 138.16 L 780.00 145.45" class="path-4" />
<line x1="50" y1="173.2" x2="780" y2="173.2" stroke="#4b5563" stroke-width="0.8" stroke-dasharray="6 3" />
</svg>