<svg xmlns="http://www.w3.org/2000/svg" viewBox="0 0 800 300" width="800" height="300">
<style>
.axis-line { stroke: #6b7280; stroke-width: 0.5; }
.axis-text { font-family: monospace; font-size: 11px; fill: #9ca3af; }
.title-text { font-family: monospace; font-size: 14px; fill: #d1d5db; font-weight: bold; }
.grid-line { stroke: #374151; stroke-width: 0.3; stroke-dasharray: 4 2; }
.path-0 { fill: none; stroke: #3b82f6; stroke-width: 2; stroke-linecap: round; opacity: 0.85; animation: draw-0 8s ease-in-out 0.0s infinite; stroke-dasharray: 1066; stroke-dashoffset: 1066;}
@keyframes draw-0 { 0% { stroke-dashoffset: 1066; } 38% { stroke-dashoffset: 0; } 62% { stroke-dashoffset: 0; } 100% { stroke-dashoffset: 1066; }}
.path-1 { fill: none; stroke: #ef4444; stroke-width: 2; stroke-linecap: round; opacity: 0.85; animation: draw-1 8s ease-in-out 0.4s infinite; stroke-dasharray: 1049; stroke-dashoffset: 1049;}
@keyframes draw-1 { 0% { stroke-dashoffset: 1049; } 38% { stroke-dashoffset: 0; } 62% { stroke-dashoffset: 0; } 100% { stroke-dashoffset: 1049; }}
.path-2 { fill: none; stroke: #22c55e; stroke-width: 2; stroke-linecap: round; opacity: 0.85; animation: draw-2 8s ease-in-out 0.8s infinite; stroke-dasharray: 1066; stroke-dashoffset: 1066;}
@keyframes draw-2 { 0% { stroke-dashoffset: 1066; } 38% { stroke-dashoffset: 0; } 62% { stroke-dashoffset: 0; } 100% { stroke-dashoffset: 1066; }}
.path-3 { fill: none; stroke: #f59e0b; stroke-width: 2; stroke-linecap: round; opacity: 0.85; animation: draw-3 8s ease-in-out 1.2000000000000002s infinite; stroke-dasharray: 1026; stroke-dashoffset: 1026;}
@keyframes draw-3 { 0% { stroke-dashoffset: 1026; } 38% { stroke-dashoffset: 0; } 62% { stroke-dashoffset: 0; } 100% { stroke-dashoffset: 1026; }}
.path-4 { fill: none; stroke: #a855f7; stroke-width: 2; stroke-linecap: round; opacity: 0.85; animation: draw-4 8s ease-in-out 1.6s infinite; stroke-dasharray: 1052; stroke-dashoffset: 1052;}
@keyframes draw-4 { 0% { stroke-dashoffset: 1052; } 38% { stroke-dashoffset: 0; } 62% { stroke-dashoffset: 0; } 100% { stroke-dashoffset: 1052; }}
</style>
<rect width="800" height="300" rx="8" fill="#0d1117" />
<line x1="50" y1="260.0" x2="780" y2="260.0" class="grid-line" />
<text x="44" y="264.0" text-anchor="end" class="axis-text">-1.7</text>
<line x1="50" y1="216.0" x2="780" y2="216.0" class="grid-line" />
<text x="44" y="220.0" text-anchor="end" class="axis-text">-0.9</text>
<line x1="50" y1="172.0" x2="780" y2="172.0" class="grid-line" />
<text x="44" y="176.0" text-anchor="end" class="axis-text">-0.2</text>
<line x1="50" y1="128.0" x2="780" y2="128.0" class="grid-line" />
<text x="44" y="132.0" text-anchor="end" class="axis-text">0.6</text>
<line x1="50" y1="84.0" x2="780" y2="84.0" class="grid-line" />
<text x="44" y="88.0" text-anchor="end" class="axis-text">1.4</text>
<line x1="50" y1="40.0" x2="780" y2="40.0" class="grid-line" />
<text x="44" y="44.0" text-anchor="end" class="axis-text">2.1</text>
<line x1="50.0" y1="40" x2="50.0" y2="260" class="grid-line" />
<line x1="196.0" y1="40" x2="196.0" y2="260" class="grid-line" />
<line x1="342.0" y1="40" x2="342.0" y2="260" class="grid-line" />
<line x1="488.0" y1="40" x2="488.0" y2="260" class="grid-line" />
<line x1="634.0" y1="40" x2="634.0" y2="260" class="grid-line" />
<line x1="780.0" y1="40" x2="780.0" y2="260" class="grid-line" />
<line x1="50" y1="260" x2="780" y2="260" class="axis-line" />
<line x1="50" y1="40" x2="50" y2="260" class="axis-line" />
<text x="400.0" y="295" text-anchor="middle" class="axis-text">t</text>
<text x="12" y="150.0" text-anchor="middle" class="axis-text" transform="rotate(-90 12 150.0)">W(t)</text>
<text x="400.0" y="22" text-anchor="middle" class="title-text">Brownian Motion</text>
<path d="M 50.00 162.08 L 53.65 149.57 L 57.30 151.28 L 60.95 141.97 L 64.60 145.54 L 68.25 148.23 L 71.90 147.61 L 75.55 154.57 L 79.20 159.90 L 82.85 157.08 L 86.50 155.30 L 90.15 156.44 L 93.80 150.56 L 97.45 149.02 L 101.10 146.33 L 104.75 148.15 L 108.40 147.15 L 112.05 141.34 L 115.70 139.65 L 119.35 135.78 L 123.00 140.01 L 126.65 148.54 L 130.30 148.34 L 133.95 145.19 L 137.60 147.24 L 141.25 144.31 L 144.90 150.61 L 148.55 147.95 L 152.20 146.31 L 155.85 145.53 L 159.50 149.98 L 163.15 152.35 L 166.80 159.76 L 170.45 165.14 L 174.10 159.21 L 177.75 164.69 L 181.40 165.69 L 185.05 164.34 L 188.70 169.13 L 192.35 168.03 L 196.00 167.75 L 199.65 167.36 L 203.30 173.30 L 206.95 171.68 L 210.60 173.66 L 214.25 182.03 L 217.90 185.89 L 221.55 185.60 L 225.20 184.00 L 228.85 188.18 L 232.50 189.12 L 236.15 186.04 L 239.80 178.14 L 243.45 174.68 L 247.10 179.91 L 250.75 181.27 L 254.40 179.42 L 258.05 187.26 L 261.70 180.75 L 265.35 190.82 L 269.00 193.51 L 272.65 196.68 L 276.30 202.10 L 279.95 202.73 L 283.60 205.44 L 287.25 202.01 L 290.90 203.24 L 294.55 205.02 L 298.20 201.73 L 301.85 202.31 L 305.50 199.13 L 309.15 199.47 L 312.80 198.83 L 316.45 194.94 L 320.10 196.08 L 323.75 197.30 L 327.40 190.42 L 331.05 190.51 L 334.70 190.05 L 338.35 188.14 L 342.00 189.85 L 345.65 188.19 L 349.30 177.41 L 352.95 175.29 L 356.60 166.92 L 360.25 166.36 L 363.90 170.40 L 367.55 159.50 L 371.20 161.64 L 374.85 154.05 L 378.50 151.33 L 382.15 150.33 L 385.80 148.61 L 389.45 154.65 L 393.10 145.27 L 396.75 145.69 L 400.40 147.54 L 404.05 143.11 L 407.70 138.72 L 411.35 141.15 L 415.00 140.97 L 418.65 136.59 L 422.30 131.47 L 425.95 139.75 L 429.60 140.65 L 433.25 137.35 L 436.90 140.72 L 440.55 144.71 L 444.20 140.43 L 447.85 141.15 L 451.50 146.15 L 455.15 140.54 L 458.80 139.13 L 462.45 137.23 L 466.10 134.34 L 469.75 136.36 L 473.40 138.51 L 477.05 140.71 L 480.70 145.15 L 484.35 141.27 L 488.00 139.75 L 491.65 138.63 L 495.30 143.11 L 498.95 143.50 L 502.60 149.77 L 506.25 146.42 L 509.90 149.84 L 513.55 146.11 L 517.20 142.91 L 520.85 138.66 L 524.50 139.86 L 528.15 141.80 L 531.80 135.96 L 535.45 130.38 L 539.10 130.90 L 542.75 128.31 L 546.40 126.86 L 550.05 126.91 L 553.70 117.60 L 557.35 115.84 L 561.00 117.59 L 564.65 119.51 L 568.30 114.57 L 571.95 110.99 L 575.60 113.10 L 579.25 112.62 L 582.90 108.09 L 586.55 102.67 L 590.20 101.32 L 593.85 107.79 L 597.50 103.84 L 601.15 108.94 L 604.80 104.52 L 608.45 106.48 L 612.10 107.77 L 615.75 113.16 L 619.40 112.57 L 623.05 107.28 L 626.70 111.52 L 630.35 108.06 L 634.00 107.96 L 637.65 108.30 L 641.30 110.48 L 644.95 104.29 L 648.60 109.81 L 652.25 114.55 L 655.90 115.80 L 659.55 115.43 L 663.20 116.11 L 666.85 119.34 L 670.50 120.45 L 674.15 115.97 L 677.80 116.23 L 681.45 109.91 L 685.10 99.77 L 688.75 96.52 L 692.40 102.14 L 696.05 99.52 L 699.70 95.92 L 703.35 94.51 L 707.00 100.69 L 710.65 106.51 L 714.30 104.11 L 717.95 108.75 L 721.60 110.80 L 725.25 114.88 L 728.90 113.17 L 732.55 110.92 L 736.20 117.47 L 739.85 121.21 L 743.50 117.06 L 747.15 117.11 L 750.80 115.30 L 754.45 118.12 L 758.10 124.26 L 761.75 123.90 L 765.40 122.33 L 769.05 120.59 L 772.70 120.33 L 776.35 122.76 L 780.00 115.56" class="path-0" />
<path d="M 50.00 162.08 L 53.65 165.98 L 57.30 167.65 L 60.95 170.80 L 64.60 171.38 L 68.25 178.10 L 71.90 175.86 L 75.55 173.19 L 79.20 175.09 L 82.85 181.56 L 86.50 181.38 L 90.15 179.11 L 93.80 176.52 L 97.45 175.48 L 101.10 178.00 L 104.75 180.52 L 108.40 182.13 L 112.05 178.00 L 115.70 176.08 L 119.35 176.28 L 123.00 178.79 L 126.65 184.80 L 130.30 181.34 L 133.95 182.30 L 137.60 180.62 L 141.25 188.82 L 144.90 178.81 L 148.55 172.77 L 152.20 180.83 L 155.85 176.87 L 159.50 176.97 L 163.15 169.81 L 166.80 169.79 L 170.45 175.74 L 174.10 176.10 L 177.75 170.94 L 181.40 166.54 L 185.05 160.59 L 188.70 161.38 L 192.35 165.37 L 196.00 160.59 L 199.65 165.36 L 203.30 164.71 L 206.95 160.64 L 210.60 160.70 L 214.25 165.30 L 217.90 163.08 L 221.55 161.68 L 225.20 164.27 L 228.85 155.02 L 232.50 155.80 L 236.15 159.12 L 239.80 158.53 L 243.45 153.94 L 247.10 143.89 L 250.75 137.26 L 254.40 141.32 L 258.05 135.93 L 261.70 133.60 L 265.35 139.01 L 269.00 134.49 L 272.65 136.16 L 276.30 135.14 L 279.95 137.48 L 283.60 141.27 L 287.25 142.77 L 290.90 139.71 L 294.55 142.70 L 298.20 144.03 L 301.85 141.88 L 305.50 144.00 L 309.15 138.55 L 312.80 136.68 L 316.45 133.64 L 320.10 139.54 L 323.75 141.57 L 327.40 143.16 L 331.05 140.95 L 334.70 146.37 L 338.35 150.10 L 342.00 141.95 L 345.65 139.69 L 349.30 144.07 L 352.95 134.27 L 356.60 140.22 L 360.25 138.86 L 363.90 136.58 L 367.55 130.29 L 371.20 130.44 L 374.85 129.73 L 378.50 131.91 L 382.15 124.99 L 385.80 126.12 L 389.45 126.45 L 393.10 123.18 L 396.75 117.37 L 400.40 117.94 L 404.05 126.18 L 407.70 123.06 L 411.35 123.42 L 415.00 125.27 L 418.65 117.68 L 422.30 116.20 L 425.95 119.33 L 429.60 118.95 L 433.25 117.00 L 436.90 121.60 L 440.55 118.89 L 444.20 122.11 L 447.85 123.86 L 451.50 127.89 L 455.15 129.76 L 458.80 132.50 L 462.45 138.20 L 466.10 137.53 L 469.75 139.52 L 473.40 137.92 L 477.05 139.53 L 480.70 143.96 L 484.35 148.46 L 488.00 144.35 L 491.65 137.06 L 495.30 136.96 L 498.95 141.33 L 502.60 149.55 L 506.25 154.42 L 509.90 153.80 L 513.55 154.32 L 517.20 152.90 L 520.85 153.54 L 524.50 150.71 L 528.15 149.75 L 531.80 147.19 L 535.45 146.01 L 539.10 147.50 L 542.75 148.04 L 546.40 141.97 L 550.05 144.83 L 553.70 143.13 L 557.35 144.21 L 561.00 143.26 L 564.65 143.85 L 568.30 139.59 L 571.95 139.46 L 575.60 141.57 L 579.25 143.96 L 582.90 147.37 L 586.55 148.62 L 590.20 151.00 L 593.85 146.95 L 597.50 145.89 L 601.15 141.68 L 604.80 141.74 L 608.45 142.51 L 612.10 140.38 L 615.75 131.22 L 619.40 132.27 L 623.05 130.12 L 626.70 130.20 L 630.35 139.64 L 634.00 145.62 L 637.65 148.24 L 641.30 141.82 L 644.95 148.15 L 648.60 152.92 L 652.25 156.13 L 655.90 156.71 L 659.55 156.88 L 663.20 160.45 L 666.85 159.25 L 670.50 153.37 L 674.15 153.69 L 677.80 154.43 L 681.45 152.79 L 685.10 152.16 L 688.75 149.96 L 692.40 146.28 L 696.05 145.56 L 699.70 137.71 L 703.35 132.10 L 707.00 135.50 L 710.65 137.47 L 714.30 143.57 L 717.95 148.97 L 721.60 152.54 L 725.25 149.35 L 728.90 154.03 L 732.55 146.89 L 736.20 145.50 L 739.85 151.71 L 743.50 157.28 L 747.15 155.84 L 750.80 151.11 L 754.45 146.26 L 758.10 149.01 L 761.75 141.75 L 765.40 148.44 L 769.05 148.11 L 772.70 150.81 L 776.35 154.47 L 780.00 154.49" class="path-1" />
<path d="M 50.00 162.08 L 53.65 158.81 L 57.30 167.03 L 60.95 166.75 L 64.60 167.96 L 68.25 167.91 L 71.90 174.73 L 75.55 180.47 L 79.20 175.83 L 82.85 174.60 L 86.50 179.27 L 90.15 184.11 L 93.80 186.17 L 97.45 189.53 L 101.10 194.06 L 104.75 201.49 L 108.40 200.74 L 112.05 198.00 L 115.70 195.91 L 119.35 188.15 L 123.00 186.32 L 126.65 185.04 L 130.30 183.77 L 133.95 190.57 L 137.60 188.97 L 141.25 192.50 L 144.90 203.58 L 148.55 208.12 L 152.20 202.98 L 155.85 201.70 L 159.50 200.62 L 163.15 206.40 L 166.80 211.93 L 170.45 211.56 L 174.10 208.37 L 177.75 218.51 L 181.40 222.05 L 185.05 219.90 L 188.70 221.41 L 192.35 230.58 L 196.00 225.59 L 199.65 217.72 L 203.30 221.39 L 206.95 224.51 L 210.60 225.04 L 214.25 234.62 L 217.90 226.71 L 221.55 217.34 L 225.20 217.99 L 228.85 215.14 L 232.50 207.02 L 236.15 202.18 L 239.80 200.50 L 243.45 196.51 L 247.10 192.56 L 250.75 195.10 L 254.40 198.93 L 258.05 207.81 L 261.70 200.13 L 265.35 195.27 L 269.00 197.03 L 272.65 203.29 L 276.30 206.33 L 279.95 202.07 L 283.60 200.79 L 287.25 200.65 L 290.90 199.43 L 294.55 182.23 L 298.20 180.32 L 301.85 180.10 L 305.50 178.98 L 309.15 181.03 L 312.80 183.00 L 316.45 184.03 L 320.10 185.76 L 323.75 184.29 L 327.40 186.00 L 331.05 179.94 L 334.70 178.85 L 338.35 178.31 L 342.00 175.90 L 345.65 173.36 L 349.30 163.74 L 352.95 162.06 L 356.60 162.76 L 360.25 167.76 L 363.90 167.01 L 367.55 163.31 L 371.20 157.96 L 374.85 160.99 L 378.50 161.49 L 382.15 156.94 L 385.80 159.95 L 389.45 157.85 L 393.10 156.61 L 396.75 158.90 L 400.40 154.26 L 404.05 157.36 L 407.70 161.30 L 411.35 165.48 L 415.00 166.40 L 418.65 162.00 L 422.30 157.62 L 425.95 155.79 L 429.60 156.53 L 433.25 162.82 L 436.90 164.03 L 440.55 161.04 L 444.20 161.91 L 447.85 160.68 L 451.50 162.76 L 455.15 164.38 L 458.80 157.12 L 462.45 155.54 L 466.10 154.59 L 469.75 146.51 L 473.40 149.31 L 477.05 149.11 L 480.70 151.69 L 484.35 157.13 L 488.00 157.84 L 491.65 164.18 L 495.30 159.78 L 498.95 157.85 L 502.60 158.88 L 506.25 168.16 L 509.90 169.70 L 513.55 175.27 L 517.20 178.27 L 520.85 176.49 L 524.50 178.29 L 528.15 177.59 L 531.80 175.68 L 535.45 175.95 L 539.10 175.95 L 542.75 169.18 L 546.40 167.37 L 550.05 167.38 L 553.70 164.31 L 557.35 161.61 L 561.00 160.80 L 564.65 163.86 L 568.30 167.37 L 571.95 163.73 L 575.60 155.60 L 579.25 158.80 L 582.90 157.75 L 586.55 158.16 L 590.20 160.85 L 593.85 155.26 L 597.50 156.18 L 601.15 155.47 L 604.80 154.12 L 608.45 156.22 L 612.10 158.03 L 615.75 157.89 L 619.40 156.46 L 623.05 154.31 L 626.70 151.86 L 630.35 157.29 L 634.00 158.49 L 637.65 159.16 L 641.30 163.10 L 644.95 170.73 L 648.60 169.13 L 652.25 169.03 L 655.90 163.51 L 659.55 159.29 L 663.20 160.67 L 666.85 165.82 L 670.50 164.93 L 674.15 170.67 L 677.80 166.83 L 681.45 165.36 L 685.10 166.94 L 688.75 170.95 L 692.40 168.19 L 696.05 170.45 L 699.70 173.47 L 703.35 171.51 L 707.00 174.32 L 710.65 168.86 L 714.30 167.57 L 717.95 164.89 L 721.60 162.78 L 725.25 164.31 L 728.90 168.85 L 732.55 168.13 L 736.20 164.79 L 739.85 155.31 L 743.50 150.52 L 747.15 149.82 L 750.80 155.05 L 754.45 156.84 L 758.10 163.95 L 761.75 172.87 L 765.40 176.90 L 769.05 173.46 L 772.70 172.41 L 776.35 176.06 L 780.00 172.67" class="path-2" />
<path d="M 50.00 162.08 L 53.65 161.35 L 57.30 158.68 L 60.95 152.90 L 64.60 152.04 L 68.25 161.76 L 71.90 158.06 L 75.55 156.53 L 79.20 161.28 L 82.85 162.58 L 86.50 155.79 L 90.15 154.73 L 93.80 156.09 L 97.45 154.60 L 101.10 156.24 L 104.75 161.11 L 108.40 165.28 L 112.05 163.94 L 115.70 160.80 L 119.35 160.69 L 123.00 162.36 L 126.65 160.28 L 130.30 155.46 L 133.95 153.70 L 137.60 153.84 L 141.25 152.91 L 144.90 157.87 L 148.55 159.80 L 152.20 159.78 L 155.85 161.67 L 159.50 160.85 L 163.15 168.95 L 166.80 161.80 L 170.45 162.65 L 174.10 165.60 L 177.75 171.24 L 181.40 165.03 L 185.05 165.98 L 188.70 166.27 L 192.35 171.17 L 196.00 174.09 L 199.65 174.74 L 203.30 179.28 L 206.95 178.66 L 210.60 175.80 L 214.25 184.10 L 217.90 187.68 L 221.55 189.32 L 225.20 185.51 L 228.85 185.20 L 232.50 183.80 L 236.15 176.52 L 239.80 182.32 L 243.45 176.22 L 247.10 179.13 L 250.75 180.09 L 254.40 179.68 L 258.05 179.49 L 261.70 185.22 L 265.35 181.48 L 269.00 185.02 L 272.65 186.92 L 276.30 188.38 L 279.95 191.30 L 283.60 190.33 L 287.25 186.46 L 290.90 181.85 L 294.55 169.74 L 298.20 170.65 L 301.85 172.33 L 305.50 167.98 L 309.15 170.00 L 312.80 165.89 L 316.45 171.58 L 320.10 169.43 L 323.75 164.86 L 327.40 160.70 L 331.05 162.40 L 334.70 163.96 L 338.35 161.25 L 342.00 159.14 L 345.65 149.84 L 349.30 148.12 L 352.95 149.41 L 356.60 148.74 L 360.25 147.13 L 363.90 149.88 L 367.55 145.20 L 371.20 143.14 L 374.85 149.11 L 378.50 153.16 L 382.15 146.77 L 385.80 147.76 L 389.45 155.99 L 393.10 152.88 L 396.75 155.23 L 400.40 152.44 L 404.05 153.01 L 407.70 150.38 L 411.35 152.50 L 415.00 147.93 L 418.65 149.56 L 422.30 146.95 L 425.95 141.14 L 429.60 139.28 L 433.25 144.95 L 436.90 146.06 L 440.55 140.22 L 444.20 139.86 L 447.85 138.22 L 451.50 135.74 L 455.15 136.74 L 458.80 137.83 L 462.45 143.88 L 466.10 140.01 L 469.75 135.99 L 473.40 136.86 L 477.05 139.44 L 480.70 146.30 L 484.35 151.47 L 488.00 154.23 L 491.65 157.87 L 495.30 154.32 L 498.95 155.59 L 502.60 156.36 L 506.25 152.59 L 509.90 155.21 L 513.55 151.93 L 517.20 155.12 L 520.85 157.77 L 524.50 156.24 L 528.15 157.91 L 531.80 150.52 L 535.45 147.56 L 539.10 141.22 L 542.75 137.93 L 546.40 134.30 L 550.05 131.86 L 553.70 133.69 L 557.35 128.68 L 561.00 126.24 L 564.65 127.30 L 568.30 128.67 L 571.95 133.29 L 575.60 130.99 L 579.25 130.18 L 582.90 132.34 L 586.55 128.71 L 590.20 129.02 L 593.85 120.52 L 597.50 118.28 L 601.15 117.94 L 604.80 114.06 L 608.45 109.30 L 612.10 108.54 L 615.75 118.03 L 619.40 120.67 L 623.05 122.52 L 626.70 124.47 L 630.35 129.99 L 634.00 135.71 L 637.65 137.65 L 641.30 140.87 L 644.95 138.60 L 648.60 140.06 L 652.25 139.15 L 655.90 134.76 L 659.55 131.45 L 663.20 126.68 L 666.85 129.47 L 670.50 130.23 L 674.15 130.29 L 677.80 122.58 L 681.45 124.80 L 685.10 127.89 L 688.75 128.71 L 692.40 118.74 L 696.05 116.70 L 699.70 117.91 L 703.35 120.74 L 707.00 117.70 L 710.65 117.21 L 714.30 120.59 L 717.95 124.07 L 721.60 118.96 L 725.25 120.87 L 728.90 121.24 L 732.55 121.87 L 736.20 122.19 L 739.85 127.60 L 743.50 127.48 L 747.15 125.82 L 750.80 129.08 L 754.45 136.02 L 758.10 130.07 L 761.75 128.07 L 765.40 123.34 L 769.05 126.75 L 772.70 125.08 L 776.35 123.19 L 780.00 131.73" class="path-3" />
<path d="M 50.00 162.08 L 53.65 159.81 L 57.30 159.81 L 60.95 154.66 L 64.60 154.81 L 68.25 155.93 L 71.90 154.01 L 75.55 152.75 L 79.20 152.19 L 82.85 152.54 L 86.50 153.68 L 90.15 157.95 L 93.80 156.70 L 97.45 152.65 L 101.10 153.53 L 104.75 146.70 L 108.40 146.67 L 112.05 146.36 L 115.70 153.82 L 119.35 158.64 L 123.00 167.26 L 126.65 169.34 L 130.30 171.44 L 133.95 167.18 L 137.60 173.13 L 141.25 176.57 L 144.90 174.64 L 148.55 171.43 L 152.20 173.49 L 155.85 168.67 L 159.50 168.12 L 163.15 168.26 L 166.80 167.33 L 170.45 171.34 L 174.10 176.94 L 177.75 177.72 L 181.40 183.78 L 185.05 180.99 L 188.70 177.94 L 192.35 176.00 L 196.00 175.88 L 199.65 169.37 L 203.30 167.88 L 206.95 171.99 L 210.60 177.63 L 214.25 180.78 L 217.90 179.56 L 221.55 181.20 L 225.20 171.89 L 228.85 173.70 L 232.50 172.79 L 236.15 170.99 L 239.80 168.47 L 243.45 163.11 L 247.10 158.33 L 250.75 157.85 L 254.40 158.25 L 258.05 154.20 L 261.70 146.92 L 265.35 141.68 L 269.00 139.51 L 272.65 135.42 L 276.30 135.35 L 279.95 132.49 L 283.60 125.82 L 287.25 126.94 L 290.90 122.79 L 294.55 120.46 L 298.20 125.06 L 301.85 135.05 L 305.50 135.89 L 309.15 133.91 L 312.80 133.42 L 316.45 129.77 L 320.10 130.48 L 323.75 131.88 L 327.40 131.97 L 331.05 134.77 L 334.70 132.31 L 338.35 138.60 L 342.00 135.73 L 345.65 134.40 L 349.30 131.62 L 352.95 130.38 L 356.60 127.55 L 360.25 131.42 L 363.90 123.77 L 367.55 128.64 L 371.20 135.91 L 374.85 138.81 L 378.50 134.41 L 382.15 132.79 L 385.80 130.29 L 389.45 131.56 L 393.10 122.81 L 396.75 115.45 L 400.40 109.90 L 404.05 105.41 L 407.70 107.28 L 411.35 113.89 L 415.00 116.32 L 418.65 106.55 L 422.30 103.48 L 425.95 101.33 L 429.60 101.08 L 433.25 105.43 L 436.90 98.13 L 440.55 91.99 L 444.20 85.45 L 447.85 89.18 L 451.50 91.51 L 455.15 93.20 L 458.80 90.40 L 462.45 100.68 L 466.10 93.23 L 469.75 96.13 L 473.40 93.22 L 477.05 90.94 L 480.70 96.24 L 484.35 92.85 L 488.00 93.69 L 491.65 94.05 L 495.30 95.25 L 498.95 94.02 L 502.60 95.32 L 506.25 98.24 L 509.90 94.17 L 513.55 92.84 L 517.20 87.94 L 520.85 83.61 L 524.50 86.52 L 528.15 88.68 L 531.80 93.09 L 535.45 97.45 L 539.10 92.12 L 542.75 93.17 L 546.40 85.39 L 550.05 77.60 L 553.70 82.67 L 557.35 83.93 L 561.00 84.50 L 564.65 81.03 L 568.30 80.01 L 571.95 84.64 L 575.60 80.25 L 579.25 76.38 L 582.90 85.70 L 586.55 86.33 L 590.20 82.02 L 593.85 85.25 L 597.50 82.57 L 601.15 83.53 L 604.80 88.27 L 608.45 86.72 L 612.10 86.83 L 615.75 88.55 L 619.40 92.31 L 623.05 85.86 L 626.70 82.96 L 630.35 84.55 L 634.00 83.17 L 637.65 87.72 L 641.30 84.00 L 644.95 87.84 L 648.60 90.16 L 652.25 83.13 L 655.90 87.50 L 659.55 86.32 L 663.20 86.44 L 666.85 90.72 L 670.50 88.62 L 674.15 81.45 L 677.80 79.12 L 681.45 91.97 L 685.10 91.24 L 688.75 87.61 L 692.40 87.92 L 696.05 87.09 L 699.70 84.09 L 703.35 85.31 L 707.00 79.75 L 710.65 76.29 L 714.30 78.49 L 717.95 81.43 L 721.60 81.96 L 725.25 70.41 L 728.90 74.43 L 732.55 74.35 L 736.20 76.53 L 739.85 78.87 L 743.50 77.89 L 747.15 77.59 L 750.80 70.93 L 754.45 68.95 L 758.10 67.56 L 761.75 67.67 L 765.40 68.34 L 769.05 65.56 L 772.70 65.38 L 776.35 69.66 L 780.00 72.09" class="path-4" />
<line x1="50" y1="162.1" x2="780" y2="162.1" stroke="#4b5563" stroke-width="0.8" stroke-dasharray="6 3" />
</svg>