<svg xmlns="http://www.w3.org/2000/svg" viewBox="0 0 800 300" width="800" height="300">
<style>
.axis-line { stroke: #6b7280; stroke-width: 0.5; }
.axis-text { font-family: monospace; font-size: 11px; fill: #9ca3af; }
.title-text { font-family: monospace; font-size: 14px; fill: #d1d5db; font-weight: bold; }
.grid-line { stroke: #374151; stroke-width: 0.3; stroke-dasharray: 4 2; }
.path-0 { fill: none; stroke: #3b82f6; stroke-width: 2; stroke-linecap: round; opacity: 0.85; animation: draw-0 8s ease-in-out 0.0s infinite; stroke-dasharray: 1064; stroke-dashoffset: 1064;}
@keyframes draw-0 { 0% { stroke-dashoffset: 1064; } 38% { stroke-dashoffset: 0; } 62% { stroke-dashoffset: 0; } 100% { stroke-dashoffset: 1064; }}
.path-1 { fill: none; stroke: #ef4444; stroke-width: 2; stroke-linecap: round; opacity: 0.85; animation: draw-1 8s ease-in-out 0.4s infinite; stroke-dasharray: 1053; stroke-dashoffset: 1053;}
@keyframes draw-1 { 0% { stroke-dashoffset: 1053; } 38% { stroke-dashoffset: 0; } 62% { stroke-dashoffset: 0; } 100% { stroke-dashoffset: 1053; }}
.path-2 { fill: none; stroke: #22c55e; stroke-width: 2; stroke-linecap: round; opacity: 0.85; animation: draw-2 8s ease-in-out 0.8s infinite; stroke-dasharray: 1076; stroke-dashoffset: 1076;}
@keyframes draw-2 { 0% { stroke-dashoffset: 1076; } 38% { stroke-dashoffset: 0; } 62% { stroke-dashoffset: 0; } 100% { stroke-dashoffset: 1076; }}
.path-3 { fill: none; stroke: #f59e0b; stroke-width: 2; stroke-linecap: round; opacity: 0.85; animation: draw-3 8s ease-in-out 1.2000000000000002s infinite; stroke-dasharray: 1045; stroke-dashoffset: 1045;}
@keyframes draw-3 { 0% { stroke-dashoffset: 1045; } 38% { stroke-dashoffset: 0; } 62% { stroke-dashoffset: 0; } 100% { stroke-dashoffset: 1045; }}
.path-4 { fill: none; stroke: #a855f7; stroke-width: 2; stroke-linecap: round; opacity: 0.85; animation: draw-4 8s ease-in-out 1.6s infinite; stroke-dasharray: 1040; stroke-dashoffset: 1040;}
@keyframes draw-4 { 0% { stroke-dashoffset: 1040; } 38% { stroke-dashoffset: 0; } 62% { stroke-dashoffset: 0; } 100% { stroke-dashoffset: 1040; }}
</style>
<rect width="800" height="300" rx="8" fill="#0d1117" />
<line x1="50" y1="260.0" x2="780" y2="260.0" class="grid-line" />
<text x="44" y="264.0" text-anchor="end" class="axis-text">-1.3</text>
<line x1="50" y1="216.0" x2="780" y2="216.0" class="grid-line" />
<text x="44" y="220.0" text-anchor="end" class="axis-text">-0.6</text>
<line x1="50" y1="172.0" x2="780" y2="172.0" class="grid-line" />
<text x="44" y="176.0" text-anchor="end" class="axis-text">0.2</text>
<line x1="50" y1="128.0" x2="780" y2="128.0" class="grid-line" />
<text x="44" y="132.0" text-anchor="end" class="axis-text">0.9</text>
<line x1="50" y1="84.0" x2="780" y2="84.0" class="grid-line" />
<text x="44" y="88.0" text-anchor="end" class="axis-text">1.7</text>
<line x1="50" y1="40.0" x2="780" y2="40.0" class="grid-line" />
<text x="44" y="44.0" text-anchor="end" class="axis-text">2.4</text>
<line x1="50.0" y1="40" x2="50.0" y2="260" class="grid-line" />
<line x1="196.0" y1="40" x2="196.0" y2="260" class="grid-line" />
<line x1="342.0" y1="40" x2="342.0" y2="260" class="grid-line" />
<line x1="488.0" y1="40" x2="488.0" y2="260" class="grid-line" />
<line x1="634.0" y1="40" x2="634.0" y2="260" class="grid-line" />
<line x1="780.0" y1="40" x2="780.0" y2="260" class="grid-line" />
<line x1="50" y1="260" x2="780" y2="260" class="axis-line" />
<line x1="50" y1="40" x2="50" y2="260" class="axis-line" />
<text x="400.0" y="295" text-anchor="middle" class="axis-text">t</text>
<text x="12" y="150.0" text-anchor="middle" class="axis-text" transform="rotate(-90 12 150.0)">W(t)</text>
<text x="400.0" y="22" text-anchor="middle" class="title-text">Brownian Motion</text>
<path d="M 50.00 182.57 L 53.65 177.22 L 57.30 179.61 L 60.95 181.41 L 64.60 174.79 L 68.25 174.44 L 71.90 177.52 L 75.55 179.71 L 79.20 181.28 L 82.85 182.08 L 86.50 186.07 L 90.15 188.25 L 93.80 186.37 L 97.45 185.30 L 101.10 182.45 L 104.75 188.45 L 108.40 189.71 L 112.05 190.81 L 115.70 188.21 L 119.35 181.47 L 123.00 181.87 L 126.65 175.33 L 130.30 175.62 L 133.95 172.10 L 137.60 164.93 L 141.25 163.06 L 144.90 160.76 L 148.55 162.91 L 152.20 162.37 L 155.85 161.75 L 159.50 163.03 L 163.15 165.40 L 166.80 166.99 L 170.45 161.34 L 174.10 165.05 L 177.75 162.94 L 181.40 169.19 L 185.05 169.48 L 188.70 168.00 L 192.35 164.70 L 196.00 167.23 L 199.65 172.27 L 203.30 172.35 L 206.95 166.03 L 210.60 165.31 L 214.25 162.17 L 217.90 167.16 L 221.55 176.20 L 225.20 172.63 L 228.85 173.87 L 232.50 168.78 L 236.15 175.14 L 239.80 172.54 L 243.45 175.67 L 247.10 177.51 L 250.75 178.15 L 254.40 183.87 L 258.05 183.43 L 261.70 185.84 L 265.35 194.51 L 269.00 194.86 L 272.65 190.04 L 276.30 191.25 L 279.95 196.25 L 283.60 190.50 L 287.25 194.52 L 290.90 196.65 L 294.55 190.50 L 298.20 190.86 L 301.85 186.11 L 305.50 189.10 L 309.15 191.37 L 312.80 196.42 L 316.45 192.26 L 320.10 192.77 L 323.75 189.55 L 327.40 184.33 L 331.05 190.69 L 334.70 193.14 L 338.35 192.56 L 342.00 194.44 L 345.65 200.58 L 349.30 203.90 L 352.95 209.40 L 356.60 208.31 L 360.25 211.30 L 363.90 203.75 L 367.55 201.35 L 371.20 196.57 L 374.85 196.85 L 378.50 194.00 L 382.15 197.56 L 385.80 191.70 L 389.45 191.90 L 393.10 197.59 L 396.75 205.94 L 400.40 203.13 L 404.05 202.46 L 407.70 206.12 L 411.35 201.14 L 415.00 197.83 L 418.65 196.57 L 422.30 205.09 L 425.95 208.17 L 429.60 209.90 L 433.25 216.24 L 436.90 219.50 L 440.55 224.73 L 444.20 221.39 L 447.85 226.74 L 451.50 226.87 L 455.15 218.00 L 458.80 213.31 L 462.45 211.14 L 466.10 212.37 L 469.75 215.42 L 473.40 218.35 L 477.05 213.15 L 480.70 216.20 L 484.35 214.30 L 488.00 212.57 L 491.65 210.73 L 495.30 205.28 L 498.95 195.10 L 502.60 195.13 L 506.25 191.90 L 509.90 192.56 L 513.55 190.75 L 517.20 187.56 L 520.85 186.39 L 524.50 186.05 L 528.15 185.22 L 531.80 185.74 L 535.45 186.92 L 539.10 187.30 L 542.75 187.61 L 546.40 188.29 L 550.05 196.25 L 553.70 202.67 L 557.35 195.35 L 561.00 198.46 L 564.65 202.36 L 568.30 205.20 L 571.95 205.05 L 575.60 208.80 L 579.25 211.49 L 582.90 211.02 L 586.55 201.63 L 590.20 197.23 L 593.85 199.90 L 597.50 202.81 L 601.15 209.23 L 604.80 211.15 L 608.45 216.26 L 612.10 212.51 L 615.75 205.19 L 619.40 212.90 L 623.05 216.06 L 626.70 213.40 L 630.35 216.79 L 634.00 209.93 L 637.65 210.56 L 641.30 205.31 L 644.95 204.20 L 648.60 203.55 L 652.25 206.90 L 655.90 212.41 L 659.55 217.99 L 663.20 222.83 L 666.85 225.86 L 670.50 226.49 L 674.15 222.50 L 677.80 223.29 L 681.45 221.91 L 685.10 219.60 L 688.75 217.93 L 692.40 222.76 L 696.05 226.37 L 699.70 233.19 L 703.35 228.68 L 707.00 226.19 L 710.65 231.22 L 714.30 231.19 L 717.95 226.50 L 721.60 222.42 L 725.25 225.97 L 728.90 225.09 L 732.55 223.61 L 736.20 216.33 L 739.85 227.88 L 743.50 231.96 L 747.15 221.49 L 750.80 217.88 L 754.45 216.51 L 758.10 215.39 L 761.75 211.48 L 765.40 216.81 L 769.05 215.77 L 772.70 211.58 L 776.35 215.02 L 780.00 214.09" class="path-0" />
<path d="M 50.00 182.57 L 53.65 181.50 L 57.30 178.76 L 60.95 178.07 L 64.60 179.04 L 68.25 173.38 L 71.90 173.70 L 75.55 172.62 L 79.20 170.40 L 82.85 168.64 L 86.50 165.83 L 90.15 167.70 L 93.80 169.22 L 97.45 167.88 L 101.10 168.77 L 104.75 163.50 L 108.40 161.96 L 112.05 162.38 L 115.70 163.88 L 119.35 171.65 L 123.00 166.92 L 126.65 170.00 L 130.30 170.64 L 133.95 161.80 L 137.60 162.83 L 141.25 162.93 L 144.90 156.05 L 148.55 161.03 L 152.20 158.05 L 155.85 160.09 L 159.50 165.21 L 163.15 169.09 L 166.80 172.34 L 170.45 177.79 L 174.10 170.03 L 177.75 170.79 L 181.40 173.94 L 185.05 175.69 L 188.70 181.75 L 192.35 181.63 L 196.00 175.16 L 199.65 166.95 L 203.30 171.92 L 206.95 169.21 L 210.60 173.02 L 214.25 173.69 L 217.90 173.09 L 221.55 173.60 L 225.20 167.28 L 228.85 168.50 L 232.50 169.79 L 236.15 176.26 L 239.80 179.28 L 243.45 179.43 L 247.10 177.71 L 250.75 177.76 L 254.40 174.23 L 258.05 172.73 L 261.70 176.12 L 265.35 174.11 L 269.00 172.31 L 272.65 172.66 L 276.30 175.69 L 279.95 178.79 L 283.60 179.32 L 287.25 179.73 L 290.90 176.93 L 294.55 178.10 L 298.20 182.68 L 301.85 186.70 L 305.50 192.17 L 309.15 190.85 L 312.80 189.37 L 316.45 188.93 L 320.10 196.81 L 323.75 203.35 L 327.40 199.91 L 331.05 201.19 L 334.70 197.01 L 338.35 197.60 L 342.00 188.52 L 345.65 196.30 L 349.30 195.12 L 352.95 191.62 L 356.60 193.53 L 360.25 199.58 L 363.90 206.23 L 367.55 205.45 L 371.20 197.82 L 374.85 194.98 L 378.50 195.95 L 382.15 185.02 L 385.80 180.71 L 389.45 182.76 L 393.10 181.62 L 396.75 186.19 L 400.40 186.12 L 404.05 181.99 L 407.70 186.27 L 411.35 187.31 L 415.00 191.61 L 418.65 195.32 L 422.30 196.16 L 425.95 197.02 L 429.60 190.55 L 433.25 191.29 L 436.90 188.41 L 440.55 190.02 L 444.20 202.68 L 447.85 204.21 L 451.50 202.24 L 455.15 203.22 L 458.80 202.70 L 462.45 203.53 L 466.10 190.71 L 469.75 190.23 L 473.40 190.21 L 477.05 191.70 L 480.70 196.58 L 484.35 200.64 L 488.00 198.25 L 491.65 200.60 L 495.30 197.89 L 498.95 201.19 L 502.60 205.65 L 506.25 207.95 L 509.90 211.55 L 513.55 216.74 L 517.20 216.25 L 520.85 222.84 L 524.50 225.54 L 528.15 221.58 L 531.80 211.31 L 535.45 214.47 L 539.10 216.64 L 542.75 221.03 L 546.40 219.49 L 550.05 218.47 L 553.70 217.98 L 557.35 217.18 L 561.00 221.14 L 564.65 225.43 L 568.30 216.45 L 571.95 218.42 L 575.60 221.91 L 579.25 218.16 L 582.90 222.47 L 586.55 221.92 L 590.20 216.86 L 593.85 211.00 L 597.50 211.05 L 601.15 211.12 L 604.80 210.72 L 608.45 212.96 L 612.10 215.21 L 615.75 213.40 L 619.40 203.09 L 623.05 200.77 L 626.70 204.10 L 630.35 210.96 L 634.00 210.70 L 637.65 209.70 L 641.30 212.56 L 644.95 211.20 L 648.60 212.83 L 652.25 210.88 L 655.90 211.06 L 659.55 211.61 L 663.20 208.85 L 666.85 205.67 L 670.50 205.07 L 674.15 205.24 L 677.80 200.06 L 681.45 202.86 L 685.10 204.73 L 688.75 202.37 L 692.40 206.41 L 696.05 202.87 L 699.70 205.30 L 703.35 209.62 L 707.00 215.72 L 710.65 211.03 L 714.30 205.06 L 717.95 204.31 L 721.60 213.24 L 725.25 219.20 L 728.90 223.50 L 732.55 228.04 L 736.20 231.50 L 739.85 227.69 L 743.50 224.93 L 747.15 229.68 L 750.80 225.43 L 754.45 226.58 L 758.10 231.12 L 761.75 233.42 L 765.40 230.25 L 769.05 221.67 L 772.70 233.89 L 776.35 229.61 L 780.00 232.31" class="path-1" />
<path d="M 50.00 182.57 L 53.65 193.07 L 57.30 192.03 L 60.95 185.70 L 64.60 184.96 L 68.25 189.71 L 71.90 189.05 L 75.55 187.04 L 79.20 184.89 L 82.85 176.54 L 86.50 175.28 L 90.15 178.31 L 93.80 173.69 L 97.45 174.25 L 101.10 173.78 L 104.75 172.08 L 108.40 169.18 L 112.05 172.57 L 115.70 176.46 L 119.35 179.87 L 123.00 177.22 L 126.65 181.45 L 130.30 177.23 L 133.95 174.43 L 137.60 177.69 L 141.25 184.23 L 144.90 179.38 L 148.55 183.24 L 152.20 181.33 L 155.85 176.02 L 159.50 176.54 L 163.15 172.37 L 166.80 173.58 L 170.45 175.81 L 174.10 179.74 L 177.75 179.04 L 181.40 187.92 L 185.05 188.40 L 188.70 181.87 L 192.35 183.03 L 196.00 189.60 L 199.65 192.45 L 203.30 194.60 L 206.95 202.20 L 210.60 197.25 L 214.25 194.17 L 217.90 194.12 L 221.55 191.33 L 225.20 189.08 L 228.85 189.14 L 232.50 186.88 L 236.15 186.97 L 239.80 193.23 L 243.45 188.88 L 247.10 189.93 L 250.75 182.02 L 254.40 185.41 L 258.05 184.33 L 261.70 192.01 L 265.35 193.05 L 269.00 189.31 L 272.65 193.06 L 276.30 196.88 L 279.95 197.84 L 283.60 202.17 L 287.25 204.80 L 290.90 206.65 L 294.55 203.19 L 298.20 211.95 L 301.85 207.30 L 305.50 204.06 L 309.15 200.09 L 312.80 199.62 L 316.45 196.09 L 320.10 193.05 L 323.75 190.91 L 327.40 195.61 L 331.05 191.67 L 334.70 189.04 L 338.35 191.98 L 342.00 196.65 L 345.65 202.04 L 349.30 205.63 L 352.95 209.04 L 356.60 215.25 L 360.25 215.92 L 363.90 213.64 L 367.55 214.33 L 371.20 214.78 L 374.85 214.50 L 378.50 222.02 L 382.15 219.87 L 385.80 215.83 L 389.45 214.67 L 393.10 215.77 L 396.75 223.87 L 400.40 228.97 L 404.05 226.91 L 407.70 231.93 L 411.35 232.10 L 415.00 231.51 L 418.65 231.18 L 422.30 230.66 L 425.95 227.48 L 429.60 224.61 L 433.25 224.26 L 436.90 220.03 L 440.55 216.28 L 444.20 209.36 L 447.85 209.23 L 451.50 210.87 L 455.15 209.24 L 458.80 219.52 L 462.45 219.46 L 466.10 218.58 L 469.75 213.37 L 473.40 213.36 L 477.05 211.89 L 480.70 211.06 L 484.35 213.25 L 488.00 213.56 L 491.65 216.79 L 495.30 223.03 L 498.95 226.31 L 502.60 217.72 L 506.25 218.58 L 509.90 220.24 L 513.55 213.06 L 517.20 220.96 L 520.85 225.64 L 524.50 224.07 L 528.15 228.83 L 531.80 234.11 L 535.45 227.58 L 539.10 234.62 L 542.75 222.57 L 546.40 217.87 L 550.05 222.05 L 553.70 224.52 L 557.35 216.36 L 561.00 213.12 L 564.65 211.40 L 568.30 210.21 L 571.95 213.88 L 575.60 216.24 L 579.25 213.13 L 582.90 201.02 L 586.55 197.58 L 590.20 200.33 L 593.85 197.85 L 597.50 207.90 L 601.15 207.27 L 604.80 210.22 L 608.45 214.92 L 612.10 219.26 L 615.75 214.62 L 619.40 212.21 L 623.05 212.82 L 626.70 215.99 L 630.35 218.32 L 634.00 220.28 L 637.65 218.65 L 641.30 217.07 L 644.95 220.07 L 648.60 218.07 L 652.25 223.06 L 655.90 223.71 L 659.55 221.30 L 663.20 223.07 L 666.85 217.41 L 670.50 222.76 L 674.15 221.15 L 677.80 218.60 L 681.45 215.41 L 685.10 215.70 L 688.75 208.28 L 692.40 211.76 L 696.05 206.72 L 699.70 208.66 L 703.35 213.06 L 707.00 213.76 L 710.65 205.78 L 714.30 198.77 L 717.95 200.14 L 721.60 197.91 L 725.25 203.92 L 728.90 210.15 L 732.55 208.78 L 736.20 212.88 L 739.85 207.62 L 743.50 207.17 L 747.15 210.08 L 750.80 206.90 L 754.45 214.18 L 758.10 212.25 L 761.75 208.04 L 765.40 212.46 L 769.05 219.08 L 772.70 218.24 L 776.35 220.31 L 780.00 214.28" class="path-2" />
<path d="M 50.00 182.57 L 53.65 178.42 L 57.30 168.61 L 60.95 174.90 L 64.60 171.47 L 68.25 169.80 L 71.90 164.77 L 75.55 169.47 L 79.20 171.18 L 82.85 172.31 L 86.50 174.08 L 90.15 174.31 L 93.80 174.90 L 97.45 175.74 L 101.10 176.41 L 104.75 173.79 L 108.40 177.09 L 112.05 175.98 L 115.70 179.97 L 119.35 179.13 L 123.00 184.24 L 126.65 185.97 L 130.30 189.56 L 133.95 187.05 L 137.60 186.03 L 141.25 185.55 L 144.90 184.22 L 148.55 193.97 L 152.20 197.14 L 155.85 196.30 L 159.50 192.40 L 163.15 194.23 L 166.80 196.65 L 170.45 200.37 L 174.10 197.63 L 177.75 195.32 L 181.40 195.27 L 185.05 197.55 L 188.70 192.17 L 192.35 192.00 L 196.00 191.84 L 199.65 182.36 L 203.30 181.19 L 206.95 186.90 L 210.60 187.21 L 214.25 184.18 L 217.90 182.63 L 221.55 190.16 L 225.20 186.97 L 228.85 186.15 L 232.50 182.60 L 236.15 188.04 L 239.80 188.82 L 243.45 187.64 L 247.10 188.77 L 250.75 186.67 L 254.40 179.82 L 258.05 172.30 L 261.70 166.75 L 265.35 164.52 L 269.00 164.03 L 272.65 166.40 L 276.30 162.94 L 279.95 161.43 L 283.60 161.91 L 287.25 156.37 L 290.90 150.91 L 294.55 149.98 L 298.20 144.42 L 301.85 138.88 L 305.50 141.73 L 309.15 139.56 L 312.80 137.36 L 316.45 142.84 L 320.10 130.81 L 323.75 133.41 L 327.40 135.27 L 331.05 134.01 L 334.70 140.76 L 338.35 147.66 L 342.00 147.39 L 345.65 147.02 L 349.30 144.89 L 352.95 141.59 L 356.60 139.71 L 360.25 140.73 L 363.90 138.43 L 367.55 141.72 L 371.20 147.41 L 374.85 152.67 L 378.50 153.30 L 382.15 158.92 L 385.80 156.73 L 389.45 154.88 L 393.10 154.18 L 396.75 150.37 L 400.40 149.73 L 404.05 153.36 L 407.70 148.76 L 411.35 147.57 L 415.00 140.16 L 418.65 139.02 L 422.30 143.79 L 425.95 142.56 L 429.60 137.57 L 433.25 136.40 L 436.90 137.08 L 440.55 136.65 L 444.20 140.90 L 447.85 143.47 L 451.50 136.70 L 455.15 137.45 L 458.80 133.24 L 462.45 143.76 L 466.10 145.71 L 469.75 147.10 L 473.40 149.85 L 477.05 152.52 L 480.70 148.51 L 484.35 151.54 L 488.00 144.38 L 491.65 149.46 L 495.30 142.95 L 498.95 131.93 L 502.60 131.34 L 506.25 131.00 L 509.90 132.94 L 513.55 130.55 L 517.20 124.58 L 520.85 119.33 L 524.50 116.70 L 528.15 113.68 L 531.80 111.14 L 535.45 108.46 L 539.10 108.73 L 542.75 109.38 L 546.40 104.67 L 550.05 110.17 L 553.70 114.30 L 557.35 117.03 L 561.00 117.40 L 564.65 111.29 L 568.30 105.55 L 571.95 102.96 L 575.60 108.77 L 579.25 111.92 L 582.90 116.89 L 586.55 119.22 L 590.20 125.21 L 593.85 122.67 L 597.50 126.85 L 601.15 126.36 L 604.80 120.04 L 608.45 120.59 L 612.10 125.76 L 615.75 124.21 L 619.40 129.33 L 623.05 130.65 L 626.70 128.45 L 630.35 135.34 L 634.00 133.12 L 637.65 140.39 L 641.30 138.13 L 644.95 137.13 L 648.60 133.29 L 652.25 138.45 L 655.90 142.81 L 659.55 144.62 L 663.20 144.95 L 666.85 140.03 L 670.50 146.78 L 674.15 146.85 L 677.80 153.80 L 681.45 155.99 L 685.10 156.75 L 688.75 160.00 L 692.40 162.44 L 696.05 159.15 L 699.70 151.20 L 703.35 151.88 L 707.00 152.40 L 710.65 150.40 L 714.30 151.24 L 717.95 149.28 L 721.60 139.46 L 725.25 138.33 L 728.90 139.75 L 732.55 140.17 L 736.20 137.77 L 739.85 136.03 L 743.50 142.30 L 747.15 143.10 L 750.80 146.16 L 754.45 149.59 L 758.10 153.24 L 761.75 150.04 L 765.40 157.64 L 769.05 160.81 L 772.70 157.12 L 776.35 156.21 L 780.00 159.04" class="path-3" />
<path d="M 50.00 182.57 L 53.65 186.96 L 57.30 185.64 L 60.95 187.29 L 64.60 189.04 L 68.25 187.30 L 71.90 181.19 L 75.55 180.45 L 79.20 179.21 L 82.85 177.78 L 86.50 176.24 L 90.15 177.94 L 93.80 181.40 L 97.45 183.16 L 101.10 178.36 L 104.75 181.27 L 108.40 178.49 L 112.05 174.39 L 115.70 172.34 L 119.35 172.38 L 123.00 170.60 L 126.65 173.83 L 130.30 175.64 L 133.95 166.87 L 137.60 169.09 L 141.25 170.68 L 144.90 169.50 L 148.55 170.45 L 152.20 172.64 L 155.85 168.06 L 159.50 167.30 L 163.15 163.00 L 166.80 168.85 L 170.45 170.37 L 174.10 164.61 L 177.75 153.81 L 181.40 146.25 L 185.05 148.79 L 188.70 145.43 L 192.35 139.36 L 196.00 140.11 L 199.65 141.76 L 203.30 142.95 L 206.95 143.87 L 210.60 144.62 L 214.25 142.42 L 217.90 131.28 L 221.55 128.03 L 225.20 130.05 L 228.85 133.18 L 232.50 133.20 L 236.15 136.82 L 239.80 138.04 L 243.45 140.06 L 247.10 142.06 L 250.75 137.95 L 254.40 139.70 L 258.05 134.46 L 261.70 132.90 L 265.35 129.99 L 269.00 129.32 L 272.65 131.24 L 276.30 136.14 L 279.95 139.84 L 283.60 141.32 L 287.25 143.61 L 290.90 137.56 L 294.55 134.44 L 298.20 134.38 L 301.85 140.42 L 305.50 142.30 L 309.15 135.95 L 312.80 134.17 L 316.45 130.63 L 320.10 132.35 L 323.75 123.85 L 327.40 124.49 L 331.05 122.39 L 334.70 118.03 L 338.35 115.21 L 342.00 109.30 L 345.65 99.92 L 349.30 96.52 L 352.95 92.72 L 356.60 90.87 L 360.25 99.60 L 363.90 106.42 L 367.55 111.51 L 371.20 110.43 L 374.85 107.66 L 378.50 109.47 L 382.15 107.58 L 385.80 109.06 L 389.45 107.42 L 393.10 99.28 L 396.75 93.09 L 400.40 95.90 L 404.05 94.32 L 407.70 98.41 L 411.35 98.53 L 415.00 99.70 L 418.65 99.07 L 422.30 102.33 L 425.95 107.20 L 429.60 107.22 L 433.25 106.02 L 436.90 105.84 L 440.55 104.71 L 444.20 111.15 L 447.85 106.94 L 451.50 99.04 L 455.15 100.74 L 458.80 93.44 L 462.45 99.87 L 466.10 102.45 L 469.75 109.25 L 473.40 116.40 L 477.05 120.64 L 480.70 124.76 L 484.35 118.99 L 488.00 117.34 L 491.65 116.36 L 495.30 116.67 L 498.95 118.98 L 502.60 122.97 L 506.25 124.69 L 509.90 121.45 L 513.55 120.47 L 517.20 127.97 L 520.85 122.57 L 524.50 123.25 L 528.15 121.75 L 531.80 118.32 L 535.45 118.99 L 539.10 113.18 L 542.75 106.70 L 546.40 108.08 L 550.05 111.40 L 553.70 118.14 L 557.35 116.45 L 561.00 116.29 L 564.65 113.06 L 568.30 116.42 L 571.95 119.48 L 575.60 120.60 L 579.25 125.68 L 582.90 128.09 L 586.55 127.69 L 590.20 125.54 L 593.85 123.67 L 597.50 126.46 L 601.15 131.23 L 604.80 127.71 L 608.45 128.58 L 612.10 123.52 L 615.75 119.25 L 619.40 124.47 L 623.05 115.63 L 626.70 113.03 L 630.35 108.06 L 634.00 107.61 L 637.65 106.26 L 641.30 105.89 L 644.95 103.59 L 648.60 102.41 L 652.25 103.57 L 655.90 104.51 L 659.55 99.35 L 663.20 101.19 L 666.85 96.89 L 670.50 96.63 L 674.15 96.18 L 677.80 97.76 L 681.45 96.24 L 685.10 100.46 L 688.75 96.33 L 692.40 98.21 L 696.05 96.23 L 699.70 94.05 L 703.35 90.95 L 707.00 86.26 L 710.65 87.25 L 714.30 76.65 L 717.95 76.83 L 721.60 65.38 L 725.25 68.87 L 728.90 71.17 L 732.55 71.67 L 736.20 74.20 L 739.85 84.73 L 743.50 82.94 L 747.15 81.05 L 750.80 79.74 L 754.45 76.94 L 758.10 84.07 L 761.75 88.89 L 765.40 86.92 L 769.05 90.51 L 772.70 94.77 L 776.35 96.40 L 780.00 101.44" class="path-4" />
<line x1="50" y1="182.6" x2="780" y2="182.6" stroke="#4b5563" stroke-width="0.8" stroke-dasharray="6 3" />
</svg>