<svg xmlns="http://www.w3.org/2000/svg" viewBox="0 0 800 300" width="800" height="300">
<style>
.axis-line { stroke: #6b7280; stroke-width: 0.5; }
.axis-text { font-family: monospace; font-size: 11px; fill: #9ca3af; }
.title-text { font-family: monospace; font-size: 14px; fill: #d1d5db; font-weight: bold; }
.grid-line { stroke: #374151; stroke-width: 0.3; stroke-dasharray: 4 2; }
.path-0 { fill: none; stroke: #3b82f6; stroke-width: 2; stroke-linecap: round; opacity: 0.85; animation: draw-0 8s ease-in-out 0.0s infinite; stroke-dasharray: 981; stroke-dashoffset: 981;}
@keyframes draw-0 { 0% { stroke-dashoffset: 981; } 38% { stroke-dashoffset: 0; } 62% { stroke-dashoffset: 0; } 100% { stroke-dashoffset: 981; }}
.path-1 { fill: none; stroke: #ef4444; stroke-width: 2; stroke-linecap: round; opacity: 0.85; animation: draw-1 8s ease-in-out 0.4s infinite; stroke-dasharray: 991; stroke-dashoffset: 991;}
@keyframes draw-1 { 0% { stroke-dashoffset: 991; } 38% { stroke-dashoffset: 0; } 62% { stroke-dashoffset: 0; } 100% { stroke-dashoffset: 991; }}
.path-2 { fill: none; stroke: #22c55e; stroke-width: 2; stroke-linecap: round; opacity: 0.85; animation: draw-2 8s ease-in-out 0.8s infinite; stroke-dasharray: 1016; stroke-dashoffset: 1016;}
@keyframes draw-2 { 0% { stroke-dashoffset: 1016; } 38% { stroke-dashoffset: 0; } 62% { stroke-dashoffset: 0; } 100% { stroke-dashoffset: 1016; }}
.path-3 { fill: none; stroke: #f59e0b; stroke-width: 2; stroke-linecap: round; opacity: 0.85; animation: draw-3 8s ease-in-out 1.2000000000000002s infinite; stroke-dasharray: 986; stroke-dashoffset: 986;}
@keyframes draw-3 { 0% { stroke-dashoffset: 986; } 38% { stroke-dashoffset: 0; } 62% { stroke-dashoffset: 0; } 100% { stroke-dashoffset: 986; }}
.path-4 { fill: none; stroke: #a855f7; stroke-width: 2; stroke-linecap: round; opacity: 0.85; animation: draw-4 8s ease-in-out 1.6s infinite; stroke-dasharray: 987; stroke-dashoffset: 987;}
@keyframes draw-4 { 0% { stroke-dashoffset: 987; } 38% { stroke-dashoffset: 0; } 62% { stroke-dashoffset: 0; } 100% { stroke-dashoffset: 987; }}
</style>
<rect width="800" height="300" rx="8" fill="#0d1117" />
<line x1="50" y1="260.0" x2="780" y2="260.0" class="grid-line" />
<text x="44" y="264.0" text-anchor="end" class="axis-text">-3.2</text>
<line x1="50" y1="216.0" x2="780" y2="216.0" class="grid-line" />
<text x="44" y="220.0" text-anchor="end" class="axis-text">-2.3</text>
<line x1="50" y1="172.0" x2="780" y2="172.0" class="grid-line" />
<text x="44" y="176.0" text-anchor="end" class="axis-text">-1.5</text>
<line x1="50" y1="128.0" x2="780" y2="128.0" class="grid-line" />
<text x="44" y="132.0" text-anchor="end" class="axis-text">-0.6</text>
<line x1="50" y1="84.0" x2="780" y2="84.0" class="grid-line" />
<text x="44" y="88.0" text-anchor="end" class="axis-text">0.2</text>
<line x1="50" y1="40.0" x2="780" y2="40.0" class="grid-line" />
<text x="44" y="44.0" text-anchor="end" class="axis-text">1.1</text>
<line x1="50.0" y1="40" x2="50.0" y2="260" class="grid-line" />
<line x1="196.0" y1="40" x2="196.0" y2="260" class="grid-line" />
<line x1="342.0" y1="40" x2="342.0" y2="260" class="grid-line" />
<line x1="488.0" y1="40" x2="488.0" y2="260" class="grid-line" />
<line x1="634.0" y1="40" x2="634.0" y2="260" class="grid-line" />
<line x1="780.0" y1="40" x2="780.0" y2="260" class="grid-line" />
<line x1="50" y1="260" x2="780" y2="260" class="axis-line" />
<line x1="50" y1="40" x2="50" y2="260" class="axis-line" />
<text x="400.0" y="295" text-anchor="middle" class="axis-text">t</text>
<text x="12" y="150.0" text-anchor="middle" class="axis-text" transform="rotate(-90 12 150.0)">W(t)</text>
<text x="400.0" y="22" text-anchor="middle" class="title-text">Brownian Motion</text>
<path d="M 50.00 95.44 L 53.65 91.70 L 57.30 92.18 L 60.95 91.03 L 64.60 92.27 L 68.25 90.72 L 71.90 86.07 L 75.55 87.42 L 79.20 88.75 L 82.85 87.51 L 86.50 83.44 L 90.15 79.76 L 93.80 84.98 L 97.45 83.37 L 101.10 87.82 L 104.75 89.86 L 108.40 83.71 L 112.05 88.33 L 115.70 83.90 L 119.35 91.38 L 123.00 94.99 L 126.65 93.94 L 130.30 100.63 L 133.95 98.91 L 137.60 97.13 L 141.25 100.43 L 144.90 100.91 L 148.55 98.16 L 152.20 100.57 L 155.85 99.35 L 159.50 98.56 L 163.15 95.62 L 166.80 94.35 L 170.45 95.79 L 174.10 95.18 L 177.75 92.73 L 181.40 95.44 L 185.05 98.77 L 188.70 97.43 L 192.35 92.92 L 196.00 94.45 L 199.65 93.20 L 203.30 93.40 L 206.95 93.55 L 210.60 94.56 L 214.25 100.97 L 217.90 105.06 L 221.55 104.41 L 225.20 100.18 L 228.85 108.19 L 232.50 110.84 L 236.15 107.65 L 239.80 113.95 L 243.45 104.76 L 247.10 107.51 L 250.75 106.69 L 254.40 98.34 L 258.05 95.56 L 261.70 98.42 L 265.35 97.87 L 269.00 98.24 L 272.65 91.19 L 276.30 91.06 L 279.95 92.14 L 283.60 90.85 L 287.25 97.92 L 290.90 95.12 L 294.55 105.46 L 298.20 109.02 L 301.85 110.34 L 305.50 109.60 L 309.15 117.36 L 312.80 119.15 L 316.45 117.82 L 320.10 116.35 L 323.75 116.32 L 327.40 117.76 L 331.05 114.60 L 334.70 118.41 L 338.35 118.14 L 342.00 114.72 L 345.65 112.63 L 349.30 113.68 L 352.95 110.63 L 356.60 110.33 L 360.25 104.98 L 363.90 101.96 L 367.55 102.15 L 371.20 101.79 L 374.85 102.75 L 378.50 103.72 L 382.15 107.55 L 385.80 104.29 L 389.45 104.91 L 393.10 105.38 L 396.75 107.53 L 400.40 109.88 L 404.05 112.68 L 407.70 117.93 L 411.35 115.47 L 415.00 112.05 L 418.65 119.88 L 422.30 123.50 L 425.95 129.32 L 429.60 124.15 L 433.25 122.86 L 436.90 123.39 L 440.55 117.90 L 444.20 109.37 L 447.85 104.18 L 451.50 108.93 L 455.15 111.06 L 458.80 111.79 L 462.45 111.09 L 466.10 108.11 L 469.75 112.60 L 473.40 115.31 L 477.05 114.53 L 480.70 115.57 L 484.35 121.39 L 488.00 119.39 L 491.65 117.39 L 495.30 117.83 L 498.95 113.94 L 502.60 111.48 L 506.25 110.00 L 509.90 108.91 L 513.55 110.09 L 517.20 110.36 L 520.85 103.82 L 524.50 102.39 L 528.15 97.71 L 531.80 97.59 L 535.45 100.92 L 539.10 95.34 L 542.75 93.45 L 546.40 92.16 L 550.05 88.27 L 553.70 90.66 L 557.35 84.37 L 561.00 86.69 L 564.65 88.32 L 568.30 92.41 L 571.95 94.38 L 575.60 92.96 L 579.25 87.66 L 582.90 86.08 L 586.55 82.21 L 590.20 81.51 L 593.85 78.72 L 597.50 76.77 L 601.15 77.99 L 604.80 82.00 L 608.45 83.65 L 612.10 83.45 L 615.75 84.38 L 619.40 82.82 L 623.05 77.13 L 626.70 77.79 L 630.35 74.14 L 634.00 73.21 L 637.65 73.06 L 641.30 73.36 L 644.95 75.73 L 648.60 76.77 L 652.25 82.48 L 655.90 84.90 L 659.55 83.12 L 663.20 78.07 L 666.85 77.38 L 670.50 75.24 L 674.15 84.19 L 677.80 88.03 L 681.45 82.63 L 685.10 81.46 L 688.75 78.93 L 692.40 81.44 L 696.05 78.68 L 699.70 77.01 L 703.35 74.54 L 707.00 72.91 L 710.65 72.41 L 714.30 73.38 L 717.95 72.12 L 721.60 74.28 L 725.25 71.32 L 728.90 75.32 L 732.55 74.16 L 736.20 80.40 L 739.85 72.61 L 743.50 76.32 L 747.15 82.87 L 750.80 81.85 L 754.45 83.35 L 758.10 82.94 L 761.75 81.32 L 765.40 79.46 L 769.05 77.27 L 772.70 78.80 L 776.35 77.32 L 780.00 81.83" class="path-0" />
<path d="M 50.00 95.44 L 53.65 89.29 L 57.30 91.22 L 60.95 88.58 L 64.60 87.31 L 68.25 82.72 L 71.90 82.08 L 75.55 79.96 L 79.20 75.60 L 82.85 73.28 L 86.50 73.32 L 90.15 71.69 L 93.80 75.67 L 97.45 69.91 L 101.10 69.34 L 104.75 69.05 L 108.40 73.38 L 112.05 78.93 L 115.70 75.97 L 119.35 77.37 L 123.00 81.19 L 126.65 84.19 L 130.30 83.36 L 133.95 78.35 L 137.60 77.75 L 141.25 84.18 L 144.90 89.02 L 148.55 92.98 L 152.20 98.96 L 155.85 104.48 L 159.50 103.49 L 163.15 101.12 L 166.80 105.16 L 170.45 102.77 L 174.10 102.89 L 177.75 103.51 L 181.40 110.86 L 185.05 109.69 L 188.70 112.23 L 192.35 109.47 L 196.00 114.46 L 199.65 117.24 L 203.30 111.16 L 206.95 112.49 L 210.60 112.84 L 214.25 109.04 L 217.90 111.77 L 221.55 113.43 L 225.20 110.33 L 228.85 108.43 L 232.50 111.00 L 236.15 118.67 L 239.80 120.17 L 243.45 114.99 L 247.10 115.93 L 250.75 119.93 L 254.40 123.27 L 258.05 122.88 L 261.70 121.50 L 265.35 124.41 L 269.00 124.27 L 272.65 124.02 L 276.30 125.45 L 279.95 126.64 L 283.60 128.35 L 287.25 132.68 L 290.90 135.61 L 294.55 143.02 L 298.20 139.93 L 301.85 140.76 L 305.50 138.85 L 309.15 139.70 L 312.80 139.52 L 316.45 136.76 L 320.10 129.94 L 323.75 126.84 L 327.40 125.32 L 331.05 129.79 L 334.70 131.58 L 338.35 128.98 L 342.00 134.72 L 345.65 136.51 L 349.30 135.44 L 352.95 130.40 L 356.60 139.21 L 360.25 139.58 L 363.90 140.45 L 367.55 147.18 L 371.20 146.93 L 374.85 149.10 L 378.50 151.07 L 382.15 154.36 L 385.80 159.09 L 389.45 152.61 L 393.10 158.82 L 396.75 160.73 L 400.40 161.92 L 404.05 165.90 L 407.70 167.26 L 411.35 162.01 L 415.00 166.09 L 418.65 163.61 L 422.30 166.58 L 425.95 173.63 L 429.60 174.60 L 433.25 172.71 L 436.90 171.16 L 440.55 169.67 L 444.20 165.58 L 447.85 163.78 L 451.50 163.41 L 455.15 165.29 L 458.80 166.35 L 462.45 173.30 L 466.10 173.41 L 469.75 169.14 L 473.40 171.03 L 477.05 172.28 L 480.70 172.30 L 484.35 169.66 L 488.00 170.93 L 491.65 174.64 L 495.30 171.07 L 498.95 172.95 L 502.60 172.12 L 506.25 173.16 L 509.90 176.86 L 513.55 176.68 L 517.20 182.54 L 520.85 186.24 L 524.50 185.42 L 528.15 188.55 L 531.80 183.81 L 535.45 181.72 L 539.10 181.61 L 542.75 177.32 L 546.40 175.80 L 550.05 179.15 L 553.70 179.05 L 557.35 174.89 L 561.00 174.12 L 564.65 175.80 L 568.30 172.50 L 571.95 171.24 L 575.60 173.80 L 579.25 171.76 L 582.90 178.73 L 586.55 182.52 L 590.20 184.28 L 593.85 182.92 L 597.50 183.30 L 601.15 184.89 L 604.80 182.24 L 608.45 185.45 L 612.10 196.08 L 615.75 197.13 L 619.40 201.04 L 623.05 199.84 L 626.70 198.90 L 630.35 195.98 L 634.00 199.79 L 637.65 200.73 L 641.30 198.69 L 644.95 197.93 L 648.60 199.98 L 652.25 199.02 L 655.90 196.53 L 659.55 200.15 L 663.20 196.60 L 666.85 194.12 L 670.50 193.42 L 674.15 198.96 L 677.80 196.20 L 681.45 199.22 L 685.10 204.03 L 688.75 203.98 L 692.40 206.12 L 696.05 201.41 L 699.70 202.70 L 703.35 203.48 L 707.00 204.76 L 710.65 204.36 L 714.30 208.74 L 717.95 209.31 L 721.60 214.61 L 725.25 211.18 L 728.90 215.84 L 732.55 224.97 L 736.20 220.68 L 739.85 216.81 L 743.50 219.47 L 747.15 213.03 L 750.80 218.53 L 754.45 216.45 L 758.10 221.43 L 761.75 218.88 L 765.40 214.67 L 769.05 216.86 L 772.70 214.96 L 776.35 217.51 L 780.00 227.54" class="path-1" />
<path d="M 50.00 95.44 L 53.65 101.43 L 57.30 99.60 L 60.95 102.21 L 64.60 101.11 L 68.25 100.52 L 71.90 104.07 L 75.55 108.80 L 79.20 106.37 L 82.85 106.93 L 86.50 102.12 L 90.15 100.93 L 93.80 100.77 L 97.45 100.77 L 101.10 104.46 L 104.75 109.44 L 108.40 110.06 L 112.05 113.29 L 115.70 112.26 L 119.35 113.87 L 123.00 117.63 L 126.65 118.06 L 130.30 109.11 L 133.95 110.54 L 137.60 108.31 L 141.25 109.27 L 144.90 112.56 L 148.55 114.30 L 152.20 114.45 L 155.85 111.95 L 159.50 113.64 L 163.15 107.89 L 166.80 105.95 L 170.45 114.48 L 174.10 116.19 L 177.75 116.24 L 181.40 115.22 L 185.05 111.66 L 188.70 109.04 L 192.35 108.58 L 196.00 112.06 L 199.65 114.30 L 203.30 116.94 L 206.95 118.76 L 210.60 123.38 L 214.25 131.15 L 217.90 128.93 L 221.55 131.50 L 225.20 126.95 L 228.85 132.31 L 232.50 130.40 L 236.15 133.41 L 239.80 131.64 L 243.45 136.42 L 247.10 126.26 L 250.75 132.70 L 254.40 136.44 L 258.05 143.04 L 261.70 139.94 L 265.35 139.34 L 269.00 135.96 L 272.65 129.37 L 276.30 132.25 L 279.95 131.76 L 283.60 131.31 L 287.25 137.99 L 290.90 141.10 L 294.55 143.99 L 298.20 144.66 L 301.85 146.96 L 305.50 150.19 L 309.15 148.71 L 312.80 148.33 L 316.45 158.37 L 320.10 159.17 L 323.75 158.02 L 327.40 158.89 L 331.05 163.68 L 334.70 163.69 L 338.35 168.89 L 342.00 165.15 L 345.65 165.49 L 349.30 165.42 L 352.95 161.71 L 356.60 166.68 L 360.25 159.00 L 363.90 153.56 L 367.55 151.31 L 371.20 155.19 L 374.85 150.93 L 378.50 147.88 L 382.15 147.32 L 385.80 146.48 L 389.45 145.44 L 393.10 146.93 L 396.75 146.08 L 400.40 141.59 L 404.05 137.09 L 407.70 141.69 L 411.35 144.50 L 415.00 149.34 L 418.65 151.05 L 422.30 154.70 L 425.95 153.46 L 429.60 146.41 L 433.25 146.36 L 436.90 144.12 L 440.55 143.97 L 444.20 144.51 L 447.85 145.43 L 451.50 150.06 L 455.15 147.78 L 458.80 151.14 L 462.45 148.62 L 466.10 151.96 L 469.75 159.39 L 473.40 163.32 L 477.05 167.16 L 480.70 169.85 L 484.35 166.56 L 488.00 164.05 L 491.65 162.76 L 495.30 161.28 L 498.95 166.78 L 502.60 169.85 L 506.25 168.40 L 509.90 164.01 L 513.55 170.78 L 517.20 174.50 L 520.85 182.24 L 524.50 186.23 L 528.15 184.65 L 531.80 182.74 L 535.45 185.67 L 539.10 189.38 L 542.75 188.50 L 546.40 187.51 L 550.05 186.71 L 553.70 186.08 L 557.35 189.44 L 561.00 194.09 L 564.65 188.89 L 568.30 187.74 L 571.95 189.23 L 575.60 186.06 L 579.25 188.27 L 582.90 192.80 L 586.55 194.17 L 590.20 197.30 L 593.85 195.76 L 597.50 201.03 L 601.15 205.49 L 604.80 206.51 L 608.45 201.22 L 612.10 204.00 L 615.75 199.97 L 619.40 201.38 L 623.05 200.06 L 626.70 197.52 L 630.35 189.20 L 634.00 189.52 L 637.65 190.02 L 641.30 195.06 L 644.95 197.73 L 648.60 191.28 L 652.25 189.15 L 655.90 187.35 L 659.55 184.73 L 663.20 185.02 L 666.85 190.54 L 670.50 198.88 L 674.15 195.53 L 677.80 196.84 L 681.45 199.47 L 685.10 208.62 L 688.75 208.79 L 692.40 210.11 L 696.05 207.80 L 699.70 211.85 L 703.35 218.04 L 707.00 220.39 L 710.65 212.65 L 714.30 217.44 L 717.95 215.52 L 721.60 218.21 L 725.25 216.92 L 728.90 217.03 L 732.55 216.93 L 736.20 216.35 L 739.85 227.36 L 743.50 230.11 L 747.15 226.88 L 750.80 230.18 L 754.45 234.62 L 758.10 230.32 L 761.75 231.28 L 765.40 225.27 L 769.05 225.89 L 772.70 225.03 L 776.35 225.88 L 780.00 229.37" class="path-2" />
<path d="M 50.00 95.44 L 53.65 97.83 L 57.30 102.12 L 60.95 104.24 L 64.60 102.80 L 68.25 103.14 L 71.90 102.74 L 75.55 102.73 L 79.20 101.98 L 82.85 100.18 L 86.50 101.84 L 90.15 105.04 L 93.80 101.11 L 97.45 102.55 L 101.10 104.31 L 104.75 108.54 L 108.40 111.53 L 112.05 109.46 L 115.70 107.66 L 119.35 103.96 L 123.00 102.15 L 126.65 99.43 L 130.30 99.32 L 133.95 94.78 L 137.60 97.86 L 141.25 102.47 L 144.90 102.07 L 148.55 95.56 L 152.20 98.16 L 155.85 95.72 L 159.50 92.19 L 163.15 91.07 L 166.80 93.03 L 170.45 91.18 L 174.10 93.72 L 177.75 89.99 L 181.40 90.64 L 185.05 87.94 L 188.70 89.48 L 192.35 90.70 L 196.00 91.86 L 199.65 95.24 L 203.30 98.83 L 206.95 91.60 L 210.60 94.21 L 214.25 95.10 L 217.90 92.33 L 221.55 92.04 L 225.20 92.85 L 228.85 101.15 L 232.50 105.07 L 236.15 106.55 L 239.80 104.12 L 243.45 102.28 L 247.10 101.45 L 250.75 100.86 L 254.40 102.99 L 258.05 106.11 L 261.70 102.75 L 265.35 105.09 L 269.00 102.05 L 272.65 99.96 L 276.30 99.00 L 279.95 104.32 L 283.60 100.97 L 287.25 94.94 L 290.90 95.52 L 294.55 90.07 L 298.20 86.43 L 301.85 87.63 L 305.50 88.96 L 309.15 92.44 L 312.80 89.49 L 316.45 84.70 L 320.10 81.76 L 323.75 76.34 L 327.40 73.28 L 331.05 68.69 L 334.70 73.07 L 338.35 75.29 L 342.00 79.38 L 345.65 77.22 L 349.30 80.01 L 352.95 80.75 L 356.60 79.27 L 360.25 83.06 L 363.90 86.71 L 367.55 88.72 L 371.20 86.30 L 374.85 85.35 L 378.50 91.08 L 382.15 93.70 L 385.80 97.04 L 389.45 100.97 L 393.10 103.78 L 396.75 110.45 L 400.40 109.43 L 404.05 109.73 L 407.70 115.61 L 411.35 116.23 L 415.00 113.55 L 418.65 108.50 L 422.30 106.88 L 425.95 107.87 L 429.60 115.54 L 433.25 109.68 L 436.90 112.85 L 440.55 111.35 L 444.20 114.65 L 447.85 113.87 L 451.50 111.25 L 455.15 115.57 L 458.80 111.23 L 462.45 107.03 L 466.10 109.49 L 469.75 106.57 L 473.40 108.23 L 477.05 106.55 L 480.70 103.11 L 484.35 107.23 L 488.00 108.68 L 491.65 109.06 L 495.30 103.25 L 498.95 109.10 L 502.60 115.77 L 506.25 109.40 L 509.90 104.84 L 513.55 103.04 L 517.20 100.03 L 520.85 97.80 L 524.50 105.08 L 528.15 99.54 L 531.80 98.48 L 535.45 92.34 L 539.10 94.81 L 542.75 97.41 L 546.40 97.51 L 550.05 104.17 L 553.70 111.31 L 557.35 110.68 L 561.00 110.29 L 564.65 115.32 L 568.30 120.94 L 571.95 122.04 L 575.60 115.56 L 579.25 115.54 L 582.90 111.08 L 586.55 110.64 L 590.20 110.61 L 593.85 111.30 L 597.50 113.09 L 601.15 111.46 L 604.80 111.91 L 608.45 106.98 L 612.10 105.13 L 615.75 105.12 L 619.40 103.46 L 623.05 98.74 L 626.70 98.29 L 630.35 100.15 L 634.00 99.02 L 637.65 102.92 L 641.30 105.41 L 644.95 109.93 L 648.60 105.82 L 652.25 113.66 L 655.90 115.38 L 659.55 115.39 L 663.20 116.95 L 666.85 112.64 L 670.50 114.58 L 674.15 113.11 L 677.80 111.19 L 681.45 111.07 L 685.10 106.36 L 688.75 107.87 L 692.40 101.79 L 696.05 101.44 L 699.70 98.88 L 703.35 95.35 L 707.00 102.43 L 710.65 97.99 L 714.30 100.96 L 717.95 93.97 L 721.60 89.36 L 725.25 91.10 L 728.90 88.32 L 732.55 84.12 L 736.20 87.09 L 739.85 92.17 L 743.50 90.36 L 747.15 92.61 L 750.80 94.12 L 754.45 90.59 L 758.10 92.77 L 761.75 92.51 L 765.40 98.37 L 769.05 96.13 L 772.70 97.96 L 776.35 94.23 L 780.00 95.07" class="path-3" />
<path d="M 50.00 95.44 L 53.65 93.02 L 57.30 90.78 L 60.95 90.16 L 64.60 95.60 L 68.25 95.53 L 71.90 95.02 L 75.55 99.96 L 79.20 97.35 L 82.85 95.92 L 86.50 90.69 L 90.15 85.11 L 93.80 91.57 L 97.45 87.30 L 101.10 97.14 L 104.75 100.78 L 108.40 103.19 L 112.05 105.52 L 115.70 105.64 L 119.35 111.50 L 123.00 110.90 L 126.65 109.12 L 130.30 105.26 L 133.95 104.27 L 137.60 102.23 L 141.25 105.46 L 144.90 114.16 L 148.55 120.64 L 152.20 125.38 L 155.85 124.31 L 159.50 126.49 L 163.15 125.19 L 166.80 121.30 L 170.45 120.22 L 174.10 124.63 L 177.75 123.29 L 181.40 124.11 L 185.05 125.96 L 188.70 120.36 L 192.35 116.91 L 196.00 119.11 L 199.65 120.02 L 203.30 120.63 L 206.95 125.27 L 210.60 125.59 L 214.25 124.57 L 217.90 129.86 L 221.55 132.54 L 225.20 134.89 L 228.85 140.51 L 232.50 140.05 L 236.15 133.65 L 239.80 133.70 L 243.45 133.36 L 247.10 133.04 L 250.75 137.44 L 254.40 133.71 L 258.05 134.13 L 261.70 135.75 L 265.35 137.64 L 269.00 136.37 L 272.65 133.85 L 276.30 131.75 L 279.95 127.64 L 283.60 126.19 L 287.25 123.53 L 290.90 121.31 L 294.55 116.15 L 298.20 114.75 L 301.85 116.87 L 305.50 118.88 L 309.15 120.51 L 312.80 120.47 L 316.45 120.46 L 320.10 122.44 L 323.75 123.76 L 327.40 118.78 L 331.05 117.80 L 334.70 112.28 L 338.35 114.59 L 342.00 116.77 L 345.65 118.67 L 349.30 125.93 L 352.95 128.41 L 356.60 124.37 L 360.25 122.82 L 363.90 121.68 L 367.55 125.59 L 371.20 132.04 L 374.85 128.67 L 378.50 129.19 L 382.15 133.43 L 385.80 128.75 L 389.45 124.84 L 393.10 126.37 L 396.75 122.87 L 400.40 124.08 L 404.05 123.74 L 407.70 122.96 L 411.35 123.32 L 415.00 123.16 L 418.65 124.16 L 422.30 126.27 L 425.95 125.74 L 429.60 122.09 L 433.25 111.11 L 436.90 108.77 L 440.55 110.72 L 444.20 114.09 L 447.85 115.84 L 451.50 118.18 L 455.15 115.20 L 458.80 119.91 L 462.45 121.26 L 466.10 124.93 L 469.75 123.08 L 473.40 121.28 L 477.05 118.22 L 480.70 114.49 L 484.35 117.60 L 488.00 120.48 L 491.65 116.75 L 495.30 117.83 L 498.95 119.24 L 502.60 116.43 L 506.25 114.57 L 509.90 112.40 L 513.55 113.34 L 517.20 114.20 L 520.85 114.75 L 524.50 109.79 L 528.15 112.36 L 531.80 103.13 L 535.45 101.88 L 539.10 100.73 L 542.75 103.00 L 546.40 107.00 L 550.05 109.14 L 553.70 109.23 L 557.35 107.16 L 561.00 104.95 L 564.65 104.76 L 568.30 100.29 L 571.95 97.48 L 575.60 95.76 L 579.25 94.65 L 582.90 90.58 L 586.55 92.70 L 590.20 89.26 L 593.85 86.90 L 597.50 85.30 L 601.15 81.81 L 604.80 89.33 L 608.45 90.68 L 612.10 94.88 L 615.75 91.36 L 619.40 100.19 L 623.05 100.47 L 626.70 101.96 L 630.35 99.44 L 634.00 97.03 L 637.65 98.18 L 641.30 94.62 L 644.95 98.88 L 648.60 95.55 L 652.25 100.05 L 655.90 103.98 L 659.55 102.86 L 663.20 104.84 L 666.85 100.49 L 670.50 94.04 L 674.15 93.84 L 677.80 89.30 L 681.45 83.69 L 685.10 83.54 L 688.75 89.16 L 692.40 95.43 L 696.05 90.24 L 699.70 91.15 L 703.35 93.98 L 707.00 92.52 L 710.65 91.84 L 714.30 94.61 L 717.95 96.70 L 721.60 100.08 L 725.25 90.88 L 728.90 88.49 L 732.55 92.79 L 736.20 88.34 L 739.85 93.52 L 743.50 91.53 L 747.15 85.66 L 750.80 82.70 L 754.45 81.86 L 758.10 79.94 L 761.75 78.70 L 765.40 80.87 L 769.05 79.39 L 772.70 72.18 L 776.35 68.99 L 780.00 65.38" class="path-4" />
<line x1="50" y1="95.4" x2="780" y2="95.4" stroke="#4b5563" stroke-width="0.8" stroke-dasharray="6 3" />
</svg>