<svg xmlns="http://www.w3.org/2000/svg" viewBox="0 0 800 300" width="800" height="300">
<style>
.axis-line { stroke: #6b7280; stroke-width: 0.5; }
.axis-text { font-family: monospace; font-size: 11px; fill: #9ca3af; }
.title-text { font-family: monospace; font-size: 14px; fill: #d1d5db; font-weight: bold; }
.grid-line { stroke: #374151; stroke-width: 0.3; stroke-dasharray: 4 2; }
.path-0 { fill: none; stroke: #3b82f6; stroke-width: 2; stroke-linecap: round; opacity: 0.85; animation: draw-0 8s ease-in-out 0.0s infinite; stroke-dasharray: 1063; stroke-dashoffset: 1063;}
@keyframes draw-0 { 0% { stroke-dashoffset: 1063; } 38% { stroke-dashoffset: 0; } 62% { stroke-dashoffset: 0; } 100% { stroke-dashoffset: 1063; }}
.path-1 { fill: none; stroke: #ef4444; stroke-width: 2; stroke-linecap: round; opacity: 0.85; animation: draw-1 8s ease-in-out 0.4s infinite; stroke-dasharray: 1075; stroke-dashoffset: 1075;}
@keyframes draw-1 { 0% { stroke-dashoffset: 1075; } 38% { stroke-dashoffset: 0; } 62% { stroke-dashoffset: 0; } 100% { stroke-dashoffset: 1075; }}
.path-2 { fill: none; stroke: #22c55e; stroke-width: 2; stroke-linecap: round; opacity: 0.85; animation: draw-2 8s ease-in-out 0.8s infinite; stroke-dasharray: 1102; stroke-dashoffset: 1102;}
@keyframes draw-2 { 0% { stroke-dashoffset: 1102; } 38% { stroke-dashoffset: 0; } 62% { stroke-dashoffset: 0; } 100% { stroke-dashoffset: 1102; }}
.path-3 { fill: none; stroke: #f59e0b; stroke-width: 2; stroke-linecap: round; opacity: 0.85; animation: draw-3 8s ease-in-out 1.2000000000000002s infinite; stroke-dasharray: 1085; stroke-dashoffset: 1085;}
@keyframes draw-3 { 0% { stroke-dashoffset: 1085; } 38% { stroke-dashoffset: 0; } 62% { stroke-dashoffset: 0; } 100% { stroke-dashoffset: 1085; }}
.path-4 { fill: none; stroke: #a855f7; stroke-width: 2; stroke-linecap: round; opacity: 0.85; animation: draw-4 8s ease-in-out 1.6s infinite; stroke-dasharray: 1098; stroke-dashoffset: 1098;}
@keyframes draw-4 { 0% { stroke-dashoffset: 1098; } 38% { stroke-dashoffset: 0; } 62% { stroke-dashoffset: 0; } 100% { stroke-dashoffset: 1098; }}
</style>
<rect width="800" height="300" rx="8" fill="#0d1117" />
<line x1="50" y1="260.0" x2="780" y2="260.0" class="grid-line" />
<text x="44" y="264.0" text-anchor="end" class="axis-text">-1.7</text>
<line x1="50" y1="216.0" x2="780" y2="216.0" class="grid-line" />
<text x="44" y="220.0" text-anchor="end" class="axis-text">-1.0</text>
<line x1="50" y1="172.0" x2="780" y2="172.0" class="grid-line" />
<text x="44" y="176.0" text-anchor="end" class="axis-text">-0.3</text>
<line x1="50" y1="128.0" x2="780" y2="128.0" class="grid-line" />
<text x="44" y="132.0" text-anchor="end" class="axis-text">0.5</text>
<line x1="50" y1="84.0" x2="780" y2="84.0" class="grid-line" />
<text x="44" y="88.0" text-anchor="end" class="axis-text">1.2</text>
<line x1="50" y1="40.0" x2="780" y2="40.0" class="grid-line" />
<text x="44" y="44.0" text-anchor="end" class="axis-text">1.9</text>
<line x1="50.0" y1="40" x2="50.0" y2="260" class="grid-line" />
<line x1="196.0" y1="40" x2="196.0" y2="260" class="grid-line" />
<line x1="342.0" y1="40" x2="342.0" y2="260" class="grid-line" />
<line x1="488.0" y1="40" x2="488.0" y2="260" class="grid-line" />
<line x1="634.0" y1="40" x2="634.0" y2="260" class="grid-line" />
<line x1="780.0" y1="40" x2="780.0" y2="260" class="grid-line" />
<line x1="50" y1="260" x2="780" y2="260" class="axis-line" />
<line x1="50" y1="40" x2="50" y2="260" class="axis-line" />
<text x="400.0" y="295" text-anchor="middle" class="axis-text">t</text>
<text x="12" y="150.0" text-anchor="middle" class="axis-text" transform="rotate(-90 12 150.0)">W(t)</text>
<text x="400.0" y="22" text-anchor="middle" class="title-text">Brownian Motion</text>
<path d="M 50.00 156.28 L 53.65 149.90 L 57.30 151.68 L 60.95 150.54 L 64.60 154.09 L 68.25 153.92 L 71.90 151.83 L 75.55 153.36 L 79.20 152.37 L 82.85 150.58 L 86.50 152.54 L 90.15 153.06 L 93.80 160.43 L 97.45 158.69 L 101.10 159.97 L 104.75 161.48 L 108.40 161.04 L 112.05 166.66 L 115.70 165.77 L 119.35 156.24 L 123.00 154.87 L 126.65 150.78 L 130.30 149.06 L 133.95 149.13 L 137.60 143.71 L 141.25 143.47 L 144.90 150.24 L 148.55 149.10 L 152.20 153.40 L 155.85 162.46 L 159.50 163.91 L 163.15 167.29 L 166.80 166.83 L 170.45 163.42 L 174.10 161.46 L 177.75 163.94 L 181.40 166.50 L 185.05 173.09 L 188.70 173.47 L 192.35 171.87 L 196.00 169.93 L 199.65 167.75 L 203.30 165.58 L 206.95 163.05 L 210.60 156.53 L 214.25 153.13 L 217.90 151.80 L 221.55 150.07 L 225.20 149.24 L 228.85 144.49 L 232.50 137.28 L 236.15 132.17 L 239.80 131.37 L 243.45 120.27 L 247.10 121.35 L 250.75 120.87 L 254.40 118.17 L 258.05 115.98 L 261.70 116.64 L 265.35 126.81 L 269.00 119.60 L 272.65 121.05 L 276.30 121.25 L 279.95 126.00 L 283.60 116.86 L 287.25 118.81 L 290.90 116.28 L 294.55 111.04 L 298.20 106.32 L 301.85 106.88 L 305.50 112.10 L 309.15 113.70 L 312.80 110.44 L 316.45 102.53 L 320.10 102.62 L 323.75 94.46 L 327.40 88.13 L 331.05 96.06 L 334.70 94.36 L 338.35 93.15 L 342.00 89.40 L 345.65 98.28 L 349.30 96.67 L 352.95 96.90 L 356.60 97.01 L 360.25 97.61 L 363.90 96.86 L 367.55 86.53 L 371.20 89.37 L 374.85 91.33 L 378.50 88.74 L 382.15 85.16 L 385.80 87.83 L 389.45 92.25 L 393.10 90.32 L 396.75 93.77 L 400.40 86.17 L 404.05 92.62 L 407.70 98.64 L 411.35 101.60 L 415.00 94.40 L 418.65 95.03 L 422.30 89.97 L 425.95 85.83 L 429.60 81.24 L 433.25 75.94 L 436.90 73.84 L 440.55 69.38 L 444.20 71.99 L 447.85 67.81 L 451.50 73.19 L 455.15 75.14 L 458.80 75.83 L 462.45 77.47 L 466.10 84.05 L 469.75 83.06 L 473.40 79.31 L 477.05 82.00 L 480.70 79.75 L 484.35 84.67 L 488.00 86.57 L 491.65 90.29 L 495.30 81.60 L 498.95 79.35 L 502.60 84.13 L 506.25 79.94 L 509.90 81.34 L 513.55 86.08 L 517.20 91.97 L 520.85 97.02 L 524.50 97.69 L 528.15 99.54 L 531.80 85.90 L 535.45 81.07 L 539.10 88.05 L 542.75 84.16 L 546.40 81.05 L 550.05 78.30 L 553.70 81.25 L 557.35 83.42 L 561.00 88.08 L 564.65 87.03 L 568.30 87.22 L 571.95 84.56 L 575.60 75.82 L 579.25 72.62 L 582.90 68.80 L 586.55 72.03 L 590.20 70.34 L 593.85 68.03 L 597.50 69.58 L 601.15 75.33 L 604.80 78.30 L 608.45 87.04 L 612.10 85.14 L 615.75 88.84 L 619.40 89.20 L 623.05 86.08 L 626.70 85.51 L 630.35 86.26 L 634.00 82.02 L 637.65 84.35 L 641.30 88.14 L 644.95 90.56 L 648.60 96.15 L 652.25 92.19 L 655.90 93.81 L 659.55 93.11 L 663.20 87.90 L 666.85 88.33 L 670.50 90.25 L 674.15 90.04 L 677.80 91.87 L 681.45 92.03 L 685.10 95.71 L 688.75 95.51 L 692.40 97.99 L 696.05 99.70 L 699.70 97.86 L 703.35 91.10 L 707.00 92.66 L 710.65 88.26 L 714.30 83.05 L 717.95 81.61 L 721.60 84.94 L 725.25 82.23 L 728.90 72.70 L 732.55 67.56 L 736.20 69.37 L 739.85 73.82 L 743.50 68.68 L 747.15 65.38 L 750.80 68.56 L 754.45 72.84 L 758.10 76.34 L 761.75 73.08 L 765.40 71.93 L 769.05 69.53 L 772.70 66.39 L 776.35 69.32 L 780.00 66.84" class="path-0" />
<path d="M 50.00 156.28 L 53.65 158.72 L 57.30 147.71 L 60.95 139.15 L 64.60 138.26 L 68.25 135.43 L 71.90 139.97 L 75.55 139.11 L 79.20 142.43 L 82.85 147.85 L 86.50 147.39 L 90.15 144.05 L 93.80 143.17 L 97.45 143.19 L 101.10 138.74 L 104.75 142.10 L 108.40 142.55 L 112.05 152.59 L 115.70 148.81 L 119.35 151.65 L 123.00 147.79 L 126.65 151.12 L 130.30 151.52 L 133.95 147.14 L 137.60 144.27 L 141.25 139.49 L 144.90 136.94 L 148.55 131.74 L 152.20 130.28 L 155.85 132.82 L 159.50 126.72 L 163.15 132.22 L 166.80 124.81 L 170.45 117.36 L 174.10 115.70 L 177.75 110.33 L 181.40 110.70 L 185.05 116.53 L 188.70 115.25 L 192.35 117.98 L 196.00 115.65 L 199.65 118.99 L 203.30 127.08 L 206.95 128.23 L 210.60 128.73 L 214.25 133.18 L 217.90 133.72 L 221.55 130.90 L 225.20 137.64 L 228.85 135.17 L 232.50 133.94 L 236.15 140.07 L 239.80 141.33 L 243.45 141.38 L 247.10 144.53 L 250.75 144.38 L 254.40 138.89 L 258.05 131.90 L 261.70 139.83 L 265.35 141.71 L 269.00 149.45 L 272.65 155.72 L 276.30 159.55 L 279.95 158.81 L 283.60 158.26 L 287.25 162.19 L 290.90 153.23 L 294.55 157.44 L 298.20 161.69 L 301.85 161.93 L 305.50 163.62 L 309.15 163.98 L 312.80 167.25 L 316.45 168.54 L 320.10 173.64 L 323.75 169.64 L 327.40 178.02 L 331.05 171.29 L 334.70 179.70 L 338.35 174.56 L 342.00 175.12 L 345.65 175.52 L 349.30 172.80 L 352.95 180.70 L 356.60 177.59 L 360.25 178.05 L 363.90 179.22 L 367.55 182.52 L 371.20 173.91 L 374.85 175.84 L 378.50 180.20 L 382.15 180.99 L 385.80 177.88 L 389.45 178.42 L 393.10 173.96 L 396.75 169.89 L 400.40 170.72 L 404.05 168.42 L 407.70 171.30 L 411.35 170.37 L 415.00 173.06 L 418.65 177.98 L 422.30 177.60 L 425.95 173.21 L 429.60 173.84 L 433.25 177.49 L 436.90 175.71 L 440.55 170.28 L 444.20 169.94 L 447.85 179.32 L 451.50 185.27 L 455.15 182.95 L 458.80 181.28 L 462.45 173.35 L 466.10 174.61 L 469.75 170.85 L 473.40 179.47 L 477.05 177.25 L 480.70 182.61 L 484.35 181.16 L 488.00 181.35 L 491.65 179.32 L 495.30 187.37 L 498.95 190.43 L 502.60 184.64 L 506.25 186.37 L 509.90 175.12 L 513.55 171.38 L 517.20 177.43 L 520.85 175.61 L 524.50 178.28 L 528.15 173.69 L 531.80 164.56 L 535.45 167.18 L 539.10 160.40 L 542.75 163.64 L 546.40 165.87 L 550.05 164.91 L 553.70 170.04 L 557.35 169.28 L 561.00 162.27 L 564.65 164.60 L 568.30 162.66 L 571.95 163.22 L 575.60 160.47 L 579.25 164.09 L 582.90 163.34 L 586.55 165.22 L 590.20 165.16 L 593.85 157.54 L 597.50 156.19 L 601.15 153.03 L 604.80 155.57 L 608.45 150.11 L 612.10 151.27 L 615.75 155.02 L 619.40 155.84 L 623.05 158.19 L 626.70 153.23 L 630.35 152.09 L 634.00 148.30 L 637.65 146.17 L 641.30 143.56 L 644.95 136.12 L 648.60 129.95 L 652.25 128.93 L 655.90 128.05 L 659.55 128.03 L 663.20 121.37 L 666.85 122.42 L 670.50 125.63 L 674.15 129.00 L 677.80 130.35 L 681.45 133.86 L 685.10 129.45 L 688.75 128.07 L 692.40 127.92 L 696.05 127.88 L 699.70 125.78 L 703.35 131.81 L 707.00 125.80 L 710.65 119.56 L 714.30 120.57 L 717.95 117.87 L 721.60 119.46 L 725.25 114.13 L 728.90 116.72 L 732.55 125.20 L 736.20 125.87 L 739.85 122.06 L 743.50 119.85 L 747.15 115.39 L 750.80 117.48 L 754.45 121.10 L 758.10 115.27 L 761.75 117.82 L 765.40 115.54 L 769.05 115.52 L 772.70 112.18 L 776.35 112.52 L 780.00 111.17" class="path-1" />
<path d="M 50.00 156.28 L 53.65 149.21 L 57.30 153.36 L 60.95 152.39 L 64.60 156.33 L 68.25 159.52 L 71.90 168.06 L 75.55 162.21 L 79.20 169.93 L 82.85 166.53 L 86.50 164.70 L 90.15 163.19 L 93.80 164.31 L 97.45 159.09 L 101.10 157.33 L 104.75 161.21 L 108.40 160.05 L 112.05 151.70 L 115.70 152.77 L 119.35 149.16 L 123.00 150.16 L 126.65 153.13 L 130.30 151.49 L 133.95 149.73 L 137.60 152.17 L 141.25 154.84 L 144.90 166.43 L 148.55 169.42 L 152.20 170.79 L 155.85 172.84 L 159.50 175.67 L 163.15 179.72 L 166.80 175.46 L 170.45 181.08 L 174.10 174.14 L 177.75 171.64 L 181.40 174.34 L 185.05 172.06 L 188.70 167.96 L 192.35 174.72 L 196.00 169.18 L 199.65 166.67 L 203.30 166.57 L 206.95 160.39 L 210.60 155.06 L 214.25 148.27 L 217.90 161.46 L 221.55 164.25 L 225.20 165.78 L 228.85 162.70 L 232.50 159.17 L 236.15 167.28 L 239.80 166.43 L 243.45 165.30 L 247.10 162.90 L 250.75 161.69 L 254.40 161.49 L 258.05 156.84 L 261.70 160.50 L 265.35 161.39 L 269.00 157.12 L 272.65 160.91 L 276.30 158.73 L 279.95 154.22 L 283.60 147.14 L 287.25 141.04 L 290.90 134.59 L 294.55 132.02 L 298.20 131.13 L 301.85 126.39 L 305.50 121.60 L 309.15 122.77 L 312.80 128.13 L 316.45 124.92 L 320.10 120.93 L 323.75 122.39 L 327.40 127.40 L 331.05 122.91 L 334.70 120.07 L 338.35 124.36 L 342.00 117.93 L 345.65 122.61 L 349.30 124.40 L 352.95 127.36 L 356.60 131.54 L 360.25 132.15 L 363.90 128.03 L 367.55 131.44 L 371.20 124.75 L 374.85 128.32 L 378.50 127.19 L 382.15 120.33 L 385.80 125.13 L 389.45 128.66 L 393.10 127.19 L 396.75 127.82 L 400.40 131.75 L 404.05 133.48 L 407.70 128.01 L 411.35 123.46 L 415.00 124.03 L 418.65 127.53 L 422.30 134.38 L 425.95 140.36 L 429.60 140.68 L 433.25 135.58 L 436.90 138.50 L 440.55 134.46 L 444.20 134.70 L 447.85 137.35 L 451.50 143.17 L 455.15 149.94 L 458.80 148.33 L 462.45 154.78 L 466.10 164.13 L 469.75 162.67 L 473.40 155.29 L 477.05 166.17 L 480.70 162.84 L 484.35 167.31 L 488.00 161.34 L 491.65 166.47 L 495.30 173.58 L 498.95 175.20 L 502.60 174.23 L 506.25 168.12 L 509.90 166.59 L 513.55 169.01 L 517.20 171.98 L 520.85 167.47 L 524.50 168.25 L 528.15 167.79 L 531.80 170.81 L 535.45 173.18 L 539.10 174.67 L 542.75 174.89 L 546.40 181.71 L 550.05 184.57 L 553.70 186.84 L 557.35 186.45 L 561.00 192.26 L 564.65 187.28 L 568.30 187.41 L 571.95 187.07 L 575.60 189.40 L 579.25 191.93 L 582.90 198.46 L 586.55 196.56 L 590.20 199.64 L 593.85 208.62 L 597.50 207.39 L 601.15 206.82 L 604.80 195.52 L 608.45 198.75 L 612.10 203.12 L 615.75 203.13 L 619.40 200.91 L 623.05 204.14 L 626.70 201.98 L 630.35 198.76 L 634.00 196.07 L 637.65 196.22 L 641.30 196.58 L 644.95 196.55 L 648.60 198.58 L 652.25 206.55 L 655.90 196.58 L 659.55 201.93 L 663.20 197.63 L 666.85 186.87 L 670.50 185.49 L 674.15 183.50 L 677.80 187.73 L 681.45 198.33 L 685.10 199.88 L 688.75 200.94 L 692.40 197.19 L 696.05 198.92 L 699.70 199.92 L 703.35 210.13 L 707.00 213.17 L 710.65 215.64 L 714.30 214.80 L 717.95 215.47 L 721.60 220.07 L 725.25 218.79 L 728.90 222.98 L 732.55 225.88 L 736.20 219.99 L 739.85 220.88 L 743.50 221.26 L 747.15 226.01 L 750.80 233.11 L 754.45 230.30 L 758.10 233.73 L 761.75 228.28 L 765.40 229.98 L 769.05 234.47 L 772.70 234.50 L 776.35 233.02 L 780.00 234.62" class="path-2" />
<path d="M 50.00 156.28 L 53.65 156.67 L 57.30 160.93 L 60.95 163.71 L 64.60 164.14 L 68.25 166.97 L 71.90 159.90 L 75.55 157.75 L 79.20 154.61 L 82.85 151.58 L 86.50 145.19 L 90.15 136.51 L 93.80 141.02 L 97.45 142.43 L 101.10 147.71 L 104.75 151.88 L 108.40 153.29 L 112.05 145.46 L 115.70 145.42 L 119.35 138.73 L 123.00 143.18 L 126.65 144.65 L 130.30 146.23 L 133.95 154.33 L 137.60 155.34 L 141.25 147.82 L 144.90 148.18 L 148.55 141.39 L 152.20 136.78 L 155.85 138.11 L 159.50 142.40 L 163.15 144.44 L 166.80 146.06 L 170.45 149.40 L 174.10 151.43 L 177.75 151.78 L 181.40 157.41 L 185.05 158.30 L 188.70 152.88 L 192.35 154.10 L 196.00 149.30 L 199.65 151.70 L 203.30 149.20 L 206.95 143.49 L 210.60 142.17 L 214.25 151.13 L 217.90 151.02 L 221.55 155.28 L 225.20 147.95 L 228.85 149.12 L 232.50 150.53 L 236.15 148.34 L 239.80 144.03 L 243.45 131.55 L 247.10 136.02 L 250.75 133.53 L 254.40 137.25 L 258.05 136.03 L 261.70 125.37 L 265.35 120.14 L 269.00 119.70 L 272.65 120.77 L 276.30 118.66 L 279.95 112.62 L 283.60 108.86 L 287.25 109.49 L 290.90 108.90 L 294.55 113.91 L 298.20 117.56 L 301.85 116.02 L 305.50 115.21 L 309.15 108.89 L 312.80 105.15 L 316.45 107.93 L 320.10 107.34 L 323.75 104.89 L 327.40 105.02 L 331.05 109.80 L 334.70 111.55 L 338.35 117.89 L 342.00 119.53 L 345.65 111.95 L 349.30 115.84 L 352.95 119.27 L 356.60 124.72 L 360.25 128.38 L 363.90 127.70 L 367.55 131.64 L 371.20 140.02 L 374.85 133.39 L 378.50 135.51 L 382.15 136.58 L 385.80 139.11 L 389.45 135.97 L 393.10 125.48 L 396.75 123.17 L 400.40 116.44 L 404.05 121.12 L 407.70 118.52 L 411.35 118.91 L 415.00 114.66 L 418.65 120.63 L 422.30 120.85 L 425.95 123.73 L 429.60 128.93 L 433.25 121.90 L 436.90 124.31 L 440.55 121.60 L 444.20 125.36 L 447.85 123.04 L 451.50 123.25 L 455.15 125.42 L 458.80 121.08 L 462.45 119.84 L 466.10 129.62 L 469.75 125.61 L 473.40 128.97 L 477.05 128.00 L 480.70 119.57 L 484.35 117.33 L 488.00 121.32 L 491.65 123.04 L 495.30 128.38 L 498.95 134.32 L 502.60 136.99 L 506.25 131.91 L 509.90 135.15 L 513.55 128.29 L 517.20 130.08 L 520.85 130.46 L 524.50 133.67 L 528.15 126.88 L 531.80 124.02 L 535.45 120.73 L 539.10 116.71 L 542.75 113.18 L 546.40 113.30 L 550.05 112.26 L 553.70 112.56 L 557.35 109.82 L 561.00 108.10 L 564.65 107.45 L 568.30 107.05 L 571.95 107.30 L 575.60 111.46 L 579.25 112.97 L 582.90 105.24 L 586.55 109.39 L 590.20 110.27 L 593.85 112.67 L 597.50 111.57 L 601.15 113.62 L 604.80 109.77 L 608.45 104.11 L 612.10 113.23 L 615.75 115.26 L 619.40 118.01 L 623.05 114.33 L 626.70 111.61 L 630.35 115.22 L 634.00 111.91 L 637.65 117.52 L 641.30 115.65 L 644.95 120.91 L 648.60 119.95 L 652.25 112.11 L 655.90 109.48 L 659.55 118.35 L 663.20 116.63 L 666.85 118.34 L 670.50 118.84 L 674.15 119.86 L 677.80 113.70 L 681.45 119.15 L 685.10 110.80 L 688.75 114.93 L 692.40 109.77 L 696.05 110.02 L 699.70 104.79 L 703.35 102.99 L 707.00 98.82 L 710.65 103.17 L 714.30 93.80 L 717.95 87.93 L 721.60 88.56 L 725.25 84.17 L 728.90 83.63 L 732.55 80.55 L 736.20 82.64 L 739.85 86.94 L 743.50 90.86 L 747.15 93.69 L 750.80 88.63 L 754.45 86.04 L 758.10 89.85 L 761.75 92.36 L 765.40 92.64 L 769.05 91.33 L 772.70 90.46 L 776.35 98.03 L 780.00 96.32" class="path-3" />
<path d="M 50.00 156.28 L 53.65 148.44 L 57.30 143.30 L 60.95 145.97 L 64.60 147.07 L 68.25 153.60 L 71.90 152.89 L 75.55 157.26 L 79.20 155.69 L 82.85 155.78 L 86.50 149.85 L 90.15 158.12 L 93.80 156.74 L 97.45 150.76 L 101.10 150.29 L 104.75 152.69 L 108.40 155.29 L 112.05 156.17 L 115.70 150.98 L 119.35 143.99 L 123.00 139.38 L 126.65 136.46 L 130.30 137.18 L 133.95 134.06 L 137.60 135.19 L 141.25 136.65 L 144.90 132.70 L 148.55 137.57 L 152.20 135.74 L 155.85 132.94 L 159.50 128.01 L 163.15 133.80 L 166.80 128.64 L 170.45 130.95 L 174.10 129.05 L 177.75 126.32 L 181.40 127.18 L 185.05 117.37 L 188.70 117.15 L 192.35 116.63 L 196.00 114.15 L 199.65 123.77 L 203.30 126.56 L 206.95 131.88 L 210.60 137.91 L 214.25 140.98 L 217.90 137.98 L 221.55 134.64 L 225.20 136.79 L 228.85 138.99 L 232.50 136.09 L 236.15 139.03 L 239.80 138.76 L 243.45 137.03 L 247.10 135.75 L 250.75 131.75 L 254.40 125.77 L 258.05 129.52 L 261.70 133.74 L 265.35 127.05 L 269.00 124.86 L 272.65 121.50 L 276.30 124.38 L 279.95 128.32 L 283.60 125.44 L 287.25 122.08 L 290.90 124.91 L 294.55 123.68 L 298.20 132.05 L 301.85 131.72 L 305.50 139.00 L 309.15 144.73 L 312.80 153.33 L 316.45 153.51 L 320.10 150.76 L 323.75 153.16 L 327.40 142.63 L 331.05 146.07 L 334.70 146.05 L 338.35 146.19 L 342.00 141.89 L 345.65 137.20 L 349.30 143.27 L 352.95 149.71 L 356.60 153.37 L 360.25 149.05 L 363.90 147.63 L 367.55 140.27 L 371.20 140.63 L 374.85 141.16 L 378.50 142.12 L 382.15 147.01 L 385.80 141.61 L 389.45 142.27 L 393.10 146.65 L 396.75 141.42 L 400.40 153.10 L 404.05 160.78 L 407.70 166.98 L 411.35 166.79 L 415.00 167.87 L 418.65 168.97 L 422.30 168.42 L 425.95 160.92 L 429.60 155.07 L 433.25 150.21 L 436.90 139.95 L 440.55 137.79 L 444.20 136.36 L 447.85 131.44 L 451.50 130.02 L 455.15 128.89 L 458.80 129.03 L 462.45 133.92 L 466.10 143.09 L 469.75 138.78 L 473.40 135.23 L 477.05 142.64 L 480.70 145.46 L 484.35 141.76 L 488.00 139.83 L 491.65 145.45 L 495.30 145.55 L 498.95 148.26 L 502.60 148.35 L 506.25 141.94 L 509.90 137.97 L 513.55 142.97 L 517.20 131.26 L 520.85 135.26 L 524.50 129.20 L 528.15 135.78 L 531.80 134.56 L 535.45 139.26 L 539.10 136.05 L 542.75 138.07 L 546.40 139.20 L 550.05 134.91 L 553.70 144.27 L 557.35 138.72 L 561.00 141.69 L 564.65 144.23 L 568.30 138.86 L 571.95 138.27 L 575.60 136.25 L 579.25 137.17 L 582.90 139.03 L 586.55 144.32 L 590.20 142.47 L 593.85 141.97 L 597.50 138.48 L 601.15 136.78 L 604.80 135.33 L 608.45 135.47 L 612.10 142.90 L 615.75 145.99 L 619.40 147.72 L 623.05 150.18 L 626.70 148.52 L 630.35 148.34 L 634.00 146.61 L 637.65 150.09 L 641.30 145.67 L 644.95 148.31 L 648.60 146.10 L 652.25 140.98 L 655.90 139.04 L 659.55 124.88 L 663.20 129.16 L 666.85 126.71 L 670.50 128.74 L 674.15 128.76 L 677.80 132.13 L 681.45 132.31 L 685.10 138.05 L 688.75 134.54 L 692.40 137.47 L 696.05 138.98 L 699.70 137.26 L 703.35 133.34 L 707.00 125.03 L 710.65 123.44 L 714.30 117.91 L 717.95 120.91 L 721.60 124.08 L 725.25 124.65 L 728.90 128.72 L 732.55 130.62 L 736.20 129.07 L 739.85 126.37 L 743.50 125.49 L 747.15 131.58 L 750.80 128.54 L 754.45 116.07 L 758.10 110.02 L 761.75 109.66 L 765.40 109.88 L 769.05 109.68 L 772.70 104.92 L 776.35 109.39 L 780.00 113.88" class="path-4" />
<line x1="50" y1="156.3" x2="780" y2="156.3" stroke="#4b5563" stroke-width="0.8" stroke-dasharray="6 3" />
</svg>