<svg xmlns="http://www.w3.org/2000/svg" viewBox="0 0 800 300" width="800" height="300">
<style>
.axis-line { stroke: #6b7280; stroke-width: 0.5; }
.axis-text { font-family: monospace; font-size: 11px; fill: #9ca3af; }
.title-text { font-family: monospace; font-size: 14px; fill: #d1d5db; font-weight: bold; }
.grid-line { stroke: #374151; stroke-width: 0.3; stroke-dasharray: 4 2; }
.path-0 { fill: none; stroke: #3b82f6; stroke-width: 2; stroke-linecap: round; opacity: 0.85; animation: draw-0 8s ease-in-out 0.0s infinite; stroke-dasharray: 1134; stroke-dashoffset: 1134;}
@keyframes draw-0 { 0% { stroke-dashoffset: 1134; } 38% { stroke-dashoffset: 0; } 62% { stroke-dashoffset: 0; } 100% { stroke-dashoffset: 1134; }}
.path-1 { fill: none; stroke: #ef4444; stroke-width: 2; stroke-linecap: round; opacity: 0.85; animation: draw-1 8s ease-in-out 0.4s infinite; stroke-dasharray: 1239; stroke-dashoffset: 1239;}
@keyframes draw-1 { 0% { stroke-dashoffset: 1239; } 38% { stroke-dashoffset: 0; } 62% { stroke-dashoffset: 0; } 100% { stroke-dashoffset: 1239; }}
.path-2 { fill: none; stroke: #22c55e; stroke-width: 2; stroke-linecap: round; opacity: 0.85; animation: draw-2 8s ease-in-out 0.8s infinite; stroke-dasharray: 1184; stroke-dashoffset: 1184;}
@keyframes draw-2 { 0% { stroke-dashoffset: 1184; } 38% { stroke-dashoffset: 0; } 62% { stroke-dashoffset: 0; } 100% { stroke-dashoffset: 1184; }}
.path-3 { fill: none; stroke: #f59e0b; stroke-width: 2; stroke-linecap: round; opacity: 0.85; animation: draw-3 8s ease-in-out 1.2000000000000002s infinite; stroke-dasharray: 1159; stroke-dashoffset: 1159;}
@keyframes draw-3 { 0% { stroke-dashoffset: 1159; } 38% { stroke-dashoffset: 0; } 62% { stroke-dashoffset: 0; } 100% { stroke-dashoffset: 1159; }}
.path-4 { fill: none; stroke: #a855f7; stroke-width: 2; stroke-linecap: round; opacity: 0.85; animation: draw-4 8s ease-in-out 1.6s infinite; stroke-dasharray: 1128; stroke-dashoffset: 1128;}
@keyframes draw-4 { 0% { stroke-dashoffset: 1128; } 38% { stroke-dashoffset: 0; } 62% { stroke-dashoffset: 0; } 100% { stroke-dashoffset: 1128; }}
</style>
<rect width="800" height="300" rx="8" fill="#0d1117" />
<line x1="50" y1="260.0" x2="780" y2="260.0" class="grid-line" />
<text x="44" y="264.0" text-anchor="end" class="axis-text">-1.2</text>
<line x1="50" y1="216.0" x2="780" y2="216.0" class="grid-line" />
<text x="44" y="220.0" text-anchor="end" class="axis-text">-0.6</text>
<line x1="50" y1="172.0" x2="780" y2="172.0" class="grid-line" />
<text x="44" y="176.0" text-anchor="end" class="axis-text">0.0</text>
<line x1="50" y1="128.0" x2="780" y2="128.0" class="grid-line" />
<text x="44" y="132.0" text-anchor="end" class="axis-text">0.6</text>
<line x1="50" y1="84.0" x2="780" y2="84.0" class="grid-line" />
<text x="44" y="88.0" text-anchor="end" class="axis-text">1.2</text>
<line x1="50" y1="40.0" x2="780" y2="40.0" class="grid-line" />
<text x="44" y="44.0" text-anchor="end" class="axis-text">1.9</text>
<line x1="50.0" y1="40" x2="50.0" y2="260" class="grid-line" />
<line x1="196.0" y1="40" x2="196.0" y2="260" class="grid-line" />
<line x1="342.0" y1="40" x2="342.0" y2="260" class="grid-line" />
<line x1="488.0" y1="40" x2="488.0" y2="260" class="grid-line" />
<line x1="634.0" y1="40" x2="634.0" y2="260" class="grid-line" />
<line x1="780.0" y1="40" x2="780.0" y2="260" class="grid-line" />
<line x1="50" y1="260" x2="780" y2="260" class="axis-line" />
<line x1="50" y1="40" x2="50" y2="260" class="axis-line" />
<text x="400.0" y="295" text-anchor="middle" class="axis-text">t</text>
<text x="12" y="150.0" text-anchor="middle" class="axis-text" transform="rotate(-90 12 150.0)">W(t)</text>
<text x="400.0" y="22" text-anchor="middle" class="title-text">Brownian Motion</text>
<path d="M 50.00 173.03 L 53.65 169.82 L 57.30 174.26 L 60.95 184.34 L 64.60 181.05 L 68.25 174.28 L 71.90 179.88 L 75.55 178.23 L 79.20 182.60 L 82.85 177.41 L 86.50 167.50 L 90.15 168.64 L 93.80 169.18 L 97.45 173.82 L 101.10 167.99 L 104.75 170.08 L 108.40 167.79 L 112.05 168.44 L 115.70 176.25 L 119.35 174.41 L 123.00 169.26 L 126.65 169.66 L 130.30 173.69 L 133.95 174.14 L 137.60 173.67 L 141.25 171.54 L 144.90 165.65 L 148.55 162.60 L 152.20 154.99 L 155.85 151.82 L 159.50 143.13 L 163.15 143.94 L 166.80 144.15 L 170.45 144.89 L 174.10 137.76 L 177.75 134.08 L 181.40 133.26 L 185.05 130.91 L 188.70 126.87 L 192.35 134.13 L 196.00 131.17 L 199.65 129.35 L 203.30 126.85 L 206.95 137.17 L 210.60 135.52 L 214.25 131.96 L 217.90 131.40 L 221.55 121.52 L 225.20 122.20 L 228.85 119.14 L 232.50 117.74 L 236.15 121.61 L 239.80 126.41 L 243.45 122.99 L 247.10 121.43 L 250.75 119.66 L 254.40 117.51 L 258.05 115.16 L 261.70 122.90 L 265.35 120.81 L 269.00 116.96 L 272.65 117.90 L 276.30 120.58 L 279.95 124.35 L 283.60 128.40 L 287.25 119.84 L 290.90 124.92 L 294.55 124.29 L 298.20 125.24 L 301.85 129.65 L 305.50 131.95 L 309.15 126.42 L 312.80 129.98 L 316.45 126.96 L 320.10 124.29 L 323.75 128.67 L 327.40 128.72 L 331.05 126.41 L 334.70 131.54 L 338.35 130.75 L 342.00 135.01 L 345.65 130.99 L 349.30 135.84 L 352.95 137.51 L 356.60 130.90 L 360.25 140.17 L 363.90 141.24 L 367.55 138.41 L 371.20 136.31 L 374.85 141.43 L 378.50 143.21 L 382.15 140.58 L 385.80 132.71 L 389.45 130.39 L 393.10 137.35 L 396.75 138.85 L 400.40 133.50 L 404.05 138.16 L 407.70 142.17 L 411.35 138.44 L 415.00 139.81 L 418.65 139.17 L 422.30 144.83 L 425.95 146.14 L 429.60 147.55 L 433.25 145.53 L 436.90 142.10 L 440.55 140.45 L 444.20 141.29 L 447.85 141.71 L 451.50 140.71 L 455.15 139.25 L 458.80 129.93 L 462.45 137.84 L 466.10 133.24 L 469.75 127.87 L 473.40 131.18 L 477.05 125.84 L 480.70 120.00 L 484.35 121.58 L 488.00 121.48 L 491.65 121.15 L 495.30 128.75 L 498.95 135.13 L 502.60 139.46 L 506.25 140.26 L 509.90 148.17 L 513.55 144.31 L 517.20 141.42 L 520.85 127.10 L 524.50 129.35 L 528.15 131.97 L 531.80 131.95 L 535.45 135.94 L 539.10 138.20 L 542.75 143.96 L 546.40 139.58 L 550.05 135.85 L 553.70 136.24 L 557.35 140.43 L 561.00 137.02 L 564.65 138.03 L 568.30 144.03 L 571.95 140.68 L 575.60 149.69 L 579.25 148.03 L 582.90 150.61 L 586.55 156.10 L 590.20 144.61 L 593.85 140.70 L 597.50 128.56 L 601.15 136.89 L 604.80 137.13 L 608.45 132.63 L 612.10 122.28 L 615.75 125.32 L 619.40 125.23 L 623.05 129.94 L 626.70 127.33 L 630.35 120.67 L 634.00 118.87 L 637.65 113.73 L 641.30 117.58 L 644.95 118.62 L 648.60 120.09 L 652.25 124.20 L 655.90 129.54 L 659.55 134.30 L 663.20 135.95 L 666.85 130.20 L 670.50 126.14 L 674.15 129.59 L 677.80 126.97 L 681.45 133.28 L 685.10 135.94 L 688.75 136.75 L 692.40 135.16 L 696.05 131.22 L 699.70 136.59 L 703.35 149.51 L 707.00 150.56 L 710.65 144.70 L 714.30 141.23 L 717.95 131.24 L 721.60 136.25 L 725.25 137.42 L 728.90 138.23 L 732.55 136.97 L 736.20 133.64 L 739.85 127.06 L 743.50 127.88 L 747.15 126.04 L 750.80 125.21 L 754.45 129.03 L 758.10 138.11 L 761.75 137.98 L 765.40 144.15 L 769.05 136.65 L 772.70 145.26 L 776.35 141.95 L 780.00 139.68" class="path-0" />
<path d="M 50.00 173.03 L 53.65 174.93 L 57.30 171.93 L 60.95 178.40 L 64.60 179.59 L 68.25 172.74 L 71.90 164.74 L 75.55 164.41 L 79.20 159.41 L 82.85 149.95 L 86.50 162.28 L 90.15 166.15 L 93.80 164.40 L 97.45 160.52 L 101.10 161.92 L 104.75 160.21 L 108.40 167.42 L 112.05 168.97 L 115.70 161.39 L 119.35 160.85 L 123.00 168.69 L 126.65 163.56 L 130.30 162.18 L 133.95 164.78 L 137.60 172.50 L 141.25 174.87 L 144.90 186.46 L 148.55 184.37 L 152.20 189.67 L 155.85 188.88 L 159.50 189.32 L 163.15 186.49 L 166.80 188.17 L 170.45 191.31 L 174.10 193.23 L 177.75 200.03 L 181.40 193.99 L 185.05 191.85 L 188.70 196.39 L 192.35 195.77 L 196.00 192.10 L 199.65 191.25 L 203.30 191.75 L 206.95 197.63 L 210.60 194.80 L 214.25 192.83 L 217.90 199.99 L 221.55 202.38 L 225.20 192.26 L 228.85 184.70 L 232.50 182.09 L 236.15 174.73 L 239.80 180.49 L 243.45 180.19 L 247.10 181.01 L 250.75 186.15 L 254.40 189.21 L 258.05 190.80 L 261.70 193.98 L 265.35 193.94 L 269.00 191.76 L 272.65 181.20 L 276.30 177.41 L 279.95 178.73 L 283.60 178.46 L 287.25 174.37 L 290.90 170.91 L 294.55 172.16 L 298.20 169.17 L 301.85 171.67 L 305.50 165.84 L 309.15 176.03 L 312.80 182.74 L 316.45 186.09 L 320.10 188.99 L 323.75 187.78 L 327.40 176.00 L 331.05 180.38 L 334.70 173.74 L 338.35 166.73 L 342.00 162.86 L 345.65 162.27 L 349.30 164.71 L 352.95 159.12 L 356.60 157.79 L 360.25 161.44 L 363.90 163.58 L 367.55 164.98 L 371.20 160.96 L 374.85 148.94 L 378.50 148.38 L 382.15 148.27 L 385.80 150.75 L 389.45 151.51 L 393.10 150.61 L 396.75 155.70 L 400.40 159.16 L 404.05 152.05 L 407.70 144.88 L 411.35 144.00 L 415.00 146.26 L 418.65 148.11 L 422.30 140.84 L 425.95 134.17 L 429.60 130.79 L 433.25 127.37 L 436.90 131.30 L 440.55 136.81 L 444.20 123.60 L 447.85 116.30 L 451.50 110.37 L 455.15 109.23 L 458.80 106.57 L 462.45 96.16 L 466.10 84.55 L 469.75 75.72 L 473.40 79.44 L 477.05 79.84 L 480.70 78.75 L 484.35 89.46 L 488.00 99.14 L 491.65 102.86 L 495.30 107.90 L 498.95 109.36 L 502.60 103.97 L 506.25 103.27 L 509.90 108.58 L 513.55 113.99 L 517.20 102.69 L 520.85 109.30 L 524.50 111.64 L 528.15 112.76 L 531.80 116.19 L 535.45 112.96 L 539.10 117.90 L 542.75 114.59 L 546.40 117.82 L 550.05 118.61 L 553.70 118.73 L 557.35 116.45 L 561.00 119.76 L 564.65 111.76 L 568.30 117.55 L 571.95 106.54 L 575.60 115.06 L 579.25 126.94 L 582.90 122.72 L 586.55 117.12 L 590.20 113.36 L 593.85 125.04 L 597.50 126.30 L 601.15 117.46 L 604.80 122.95 L 608.45 120.22 L 612.10 128.16 L 615.75 123.39 L 619.40 126.99 L 623.05 123.41 L 626.70 126.03 L 630.35 130.58 L 634.00 121.75 L 637.65 114.07 L 641.30 118.39 L 644.95 111.58 L 648.60 109.84 L 652.25 118.39 L 655.90 114.41 L 659.55 118.25 L 663.20 121.65 L 666.85 113.64 L 670.50 113.00 L 674.15 121.26 L 677.80 117.08 L 681.45 117.86 L 685.10 117.22 L 688.75 123.75 L 692.40 119.42 L 696.05 112.21 L 699.70 107.43 L 703.35 98.78 L 707.00 98.39 L 710.65 88.93 L 714.30 80.81 L 717.95 82.80 L 721.60 83.05 L 725.25 88.10 L 728.90 78.56 L 732.55 68.57 L 736.20 74.49 L 739.85 75.18 L 743.50 78.99 L 747.15 72.98 L 750.80 72.33 L 754.45 71.06 L 758.10 66.84 L 761.75 65.38 L 765.40 72.49 L 769.05 79.58 L 772.70 79.60 L 776.35 89.24 L 780.00 88.36" class="path-1" />
<path d="M 50.00 173.03 L 53.65 168.67 L 57.30 165.53 L 60.95 159.97 L 64.60 166.93 L 68.25 167.00 L 71.90 167.63 L 75.55 171.55 L 79.20 166.84 L 82.85 169.77 L 86.50 170.14 L 90.15 156.63 L 93.80 158.50 L 97.45 151.19 L 101.10 149.08 L 104.75 149.85 L 108.40 150.67 L 112.05 147.43 L 115.70 142.54 L 119.35 155.09 L 123.00 159.15 L 126.65 156.96 L 130.30 156.36 L 133.95 153.61 L 137.60 148.51 L 141.25 142.58 L 144.90 156.09 L 148.55 157.58 L 152.20 167.79 L 155.85 171.50 L 159.50 164.47 L 163.15 173.50 L 166.80 169.55 L 170.45 176.97 L 174.10 177.48 L 177.75 177.30 L 181.40 176.72 L 185.05 179.26 L 188.70 186.79 L 192.35 182.74 L 196.00 196.35 L 199.65 196.93 L 203.30 201.66 L 206.95 201.55 L 210.60 207.66 L 214.25 213.16 L 217.90 210.99 L 221.55 208.22 L 225.20 202.28 L 228.85 198.25 L 232.50 195.38 L 236.15 186.10 L 239.80 189.66 L 243.45 187.68 L 247.10 196.38 L 250.75 202.18 L 254.40 193.74 L 258.05 184.77 L 261.70 181.54 L 265.35 180.65 L 269.00 181.25 L 272.65 176.57 L 276.30 175.39 L 279.95 174.79 L 283.60 176.02 L 287.25 159.01 L 290.90 164.04 L 294.55 163.59 L 298.20 158.88 L 301.85 172.85 L 305.50 170.70 L 309.15 181.22 L 312.80 181.29 L 316.45 182.06 L 320.10 178.34 L 323.75 178.60 L 327.40 169.05 L 331.05 170.80 L 334.70 174.94 L 338.35 178.43 L 342.00 181.99 L 345.65 179.68 L 349.30 180.42 L 352.95 175.07 L 356.60 177.97 L 360.25 172.79 L 363.90 178.57 L 367.55 183.47 L 371.20 187.93 L 374.85 187.09 L 378.50 182.21 L 382.15 179.89 L 385.80 179.64 L 389.45 178.02 L 393.10 179.85 L 396.75 176.35 L 400.40 183.81 L 404.05 182.65 L 407.70 189.96 L 411.35 193.17 L 415.00 193.11 L 418.65 194.47 L 422.30 195.49 L 425.95 184.52 L 429.60 189.08 L 433.25 189.03 L 436.90 185.49 L 440.55 184.12 L 444.20 177.68 L 447.85 180.85 L 451.50 189.13 L 455.15 194.22 L 458.80 192.13 L 462.45 191.64 L 466.10 188.61 L 469.75 190.20 L 473.40 198.72 L 477.05 201.15 L 480.70 193.21 L 484.35 193.53 L 488.00 184.07 L 491.65 182.42 L 495.30 182.30 L 498.95 192.50 L 502.60 190.57 L 506.25 190.17 L 509.90 192.60 L 513.55 185.02 L 517.20 185.67 L 520.85 187.38 L 524.50 178.83 L 528.15 169.19 L 531.80 165.54 L 535.45 162.82 L 539.10 162.40 L 542.75 159.29 L 546.40 149.26 L 550.05 151.65 L 553.70 159.19 L 557.35 158.19 L 561.00 165.67 L 564.65 167.56 L 568.30 166.37 L 571.95 167.20 L 575.60 159.25 L 579.25 156.23 L 582.90 154.24 L 586.55 152.93 L 590.20 143.02 L 593.85 150.31 L 597.50 151.75 L 601.15 155.91 L 604.80 149.45 L 608.45 151.08 L 612.10 145.90 L 615.75 145.38 L 619.40 151.23 L 623.05 153.19 L 626.70 154.24 L 630.35 150.29 L 634.00 149.77 L 637.65 140.82 L 641.30 141.53 L 644.95 132.68 L 648.60 135.21 L 652.25 128.36 L 655.90 128.54 L 659.55 127.55 L 663.20 131.94 L 666.85 126.19 L 670.50 120.68 L 674.15 123.53 L 677.80 119.98 L 681.45 117.31 L 685.10 119.91 L 688.75 122.50 L 692.40 122.58 L 696.05 123.89 L 699.70 129.11 L 703.35 129.73 L 707.00 122.85 L 710.65 122.58 L 714.30 115.45 L 717.95 115.38 L 721.60 112.98 L 725.25 105.35 L 728.90 106.80 L 732.55 91.54 L 736.20 87.04 L 739.85 89.97 L 743.50 89.33 L 747.15 88.25 L 750.80 85.10 L 754.45 88.70 L 758.10 87.61 L 761.75 95.10 L 765.40 94.81 L 769.05 103.33 L 772.70 102.24 L 776.35 107.75 L 780.00 110.27" class="path-2" />
<path d="M 50.00 173.03 L 53.65 174.80 L 57.30 178.18 L 60.95 180.94 L 64.60 179.37 L 68.25 182.78 L 71.90 190.75 L 75.55 192.60 L 79.20 192.58 L 82.85 190.24 L 86.50 184.94 L 90.15 189.08 L 93.80 189.58 L 97.45 198.23 L 101.10 200.13 L 104.75 201.03 L 108.40 200.35 L 112.05 200.04 L 115.70 199.32 L 119.35 203.92 L 123.00 200.28 L 126.65 190.90 L 130.30 187.86 L 133.95 192.84 L 137.60 190.93 L 141.25 201.30 L 144.90 204.57 L 148.55 209.97 L 152.20 213.18 L 155.85 216.23 L 159.50 217.37 L 163.15 212.58 L 166.80 215.61 L 170.45 221.13 L 174.10 219.97 L 177.75 224.37 L 181.40 224.02 L 185.05 222.77 L 188.70 221.98 L 192.35 218.53 L 196.00 214.60 L 199.65 209.42 L 203.30 206.63 L 206.95 208.85 L 210.60 204.41 L 214.25 203.75 L 217.90 214.09 L 221.55 218.69 L 225.20 215.53 L 228.85 213.10 L 232.50 210.92 L 236.15 214.99 L 239.80 207.88 L 243.45 208.26 L 247.10 202.07 L 250.75 199.86 L 254.40 197.42 L 258.05 191.66 L 261.70 185.56 L 265.35 176.91 L 269.00 179.50 L 272.65 181.62 L 276.30 181.83 L 279.95 187.39 L 283.60 188.06 L 287.25 188.58 L 290.90 180.04 L 294.55 180.56 L 298.20 183.49 L 301.85 175.14 L 305.50 178.67 L 309.15 180.07 L 312.80 181.32 L 316.45 174.17 L 320.10 170.70 L 323.75 174.58 L 327.40 175.83 L 331.05 180.05 L 334.70 183.66 L 338.35 184.90 L 342.00 196.05 L 345.65 188.48 L 349.30 187.21 L 352.95 191.04 L 356.60 192.16 L 360.25 196.97 L 363.90 188.93 L 367.55 184.53 L 371.20 188.39 L 374.85 186.56 L 378.50 185.80 L 382.15 180.63 L 385.80 188.79 L 389.45 188.90 L 393.10 183.03 L 396.75 177.23 L 400.40 177.05 L 404.05 167.65 L 407.70 166.94 L 411.35 166.08 L 415.00 170.26 L 418.65 165.43 L 422.30 168.48 L 425.95 166.05 L 429.60 170.61 L 433.25 170.86 L 436.90 172.75 L 440.55 175.88 L 444.20 183.09 L 447.85 178.29 L 451.50 174.93 L 455.15 177.89 L 458.80 176.96 L 462.45 173.22 L 466.10 178.04 L 469.75 174.61 L 473.40 181.47 L 477.05 173.53 L 480.70 168.16 L 484.35 173.73 L 488.00 163.35 L 491.65 169.09 L 495.30 166.53 L 498.95 168.33 L 502.60 168.32 L 506.25 166.18 L 509.90 169.23 L 513.55 168.12 L 517.20 163.24 L 520.85 165.36 L 524.50 160.43 L 528.15 162.53 L 531.80 157.80 L 535.45 158.33 L 539.10 151.51 L 542.75 146.38 L 546.40 149.77 L 550.05 154.54 L 553.70 163.06 L 557.35 156.08 L 561.00 153.74 L 564.65 161.83 L 568.30 174.21 L 571.95 179.53 L 575.60 179.23 L 579.25 193.98 L 582.90 190.87 L 586.55 193.59 L 590.20 191.37 L 593.85 188.73 L 597.50 190.83 L 601.15 197.86 L 604.80 192.93 L 608.45 192.46 L 612.10 193.86 L 615.75 195.38 L 619.40 191.61 L 623.05 197.12 L 626.70 193.13 L 630.35 196.96 L 634.00 182.38 L 637.65 185.28 L 641.30 188.12 L 644.95 192.30 L 648.60 200.17 L 652.25 208.28 L 655.90 214.74 L 659.55 213.85 L 663.20 221.74 L 666.85 219.60 L 670.50 220.39 L 674.15 232.52 L 677.80 232.42 L 681.45 231.00 L 685.10 230.16 L 688.75 221.19 L 692.40 225.20 L 696.05 219.88 L 699.70 221.75 L 703.35 221.75 L 707.00 213.83 L 710.65 213.87 L 714.30 210.68 L 717.95 211.08 L 721.60 204.46 L 725.25 208.09 L 728.90 220.21 L 732.55 216.77 L 736.20 217.83 L 739.85 212.02 L 743.50 212.33 L 747.15 210.45 L 750.80 207.88 L 754.45 203.61 L 758.10 208.72 L 761.75 212.11 L 765.40 210.93 L 769.05 199.40 L 772.70 201.21 L 776.35 199.22 L 780.00 211.58" class="path-3" />
<path d="M 50.00 173.03 L 53.65 173.87 L 57.30 171.41 L 60.95 169.90 L 64.60 165.92 L 68.25 167.84 L 71.90 171.21 L 75.55 178.42 L 79.20 174.10 L 82.85 180.67 L 86.50 176.31 L 90.15 172.73 L 93.80 171.03 L 97.45 175.12 L 101.10 171.01 L 104.75 169.15 L 108.40 169.60 L 112.05 170.50 L 115.70 162.67 L 119.35 170.20 L 123.00 177.04 L 126.65 181.66 L 130.30 187.25 L 133.95 183.38 L 137.60 185.25 L 141.25 182.78 L 144.90 186.53 L 148.55 175.88 L 152.20 174.81 L 155.85 176.52 L 159.50 182.40 L 163.15 183.98 L 166.80 185.70 L 170.45 190.13 L 174.10 187.79 L 177.75 195.69 L 181.40 187.90 L 185.05 200.85 L 188.70 201.77 L 192.35 203.03 L 196.00 204.03 L 199.65 204.45 L 203.30 209.49 L 206.95 202.13 L 210.60 209.79 L 214.25 208.60 L 217.90 208.90 L 221.55 214.91 L 225.20 216.12 L 228.85 218.39 L 232.50 227.37 L 236.15 218.82 L 239.80 212.30 L 243.45 200.15 L 247.10 195.76 L 250.75 198.20 L 254.40 195.15 L 258.05 190.34 L 261.70 196.98 L 265.35 192.68 L 269.00 197.73 L 272.65 191.30 L 276.30 194.11 L 279.95 197.33 L 283.60 204.12 L 287.25 201.22 L 290.90 203.66 L 294.55 212.00 L 298.20 216.08 L 301.85 198.93 L 305.50 214.56 L 309.15 225.48 L 312.80 221.48 L 316.45 223.63 L 320.10 223.85 L 323.75 228.15 L 327.40 226.77 L 331.05 234.62 L 334.70 229.88 L 338.35 225.87 L 342.00 218.89 L 345.65 219.91 L 349.30 219.22 L 352.95 217.09 L 356.60 212.80 L 360.25 207.18 L 363.90 208.63 L 367.55 209.80 L 371.20 200.84 L 374.85 196.88 L 378.50 197.91 L 382.15 203.17 L 385.80 204.15 L 389.45 203.96 L 393.10 199.69 L 396.75 200.72 L 400.40 200.04 L 404.05 202.20 L 407.70 209.63 L 411.35 210.01 L 415.00 211.08 L 418.65 206.00 L 422.30 211.31 L 425.95 218.07 L 429.60 214.50 L 433.25 205.68 L 436.90 204.57 L 440.55 206.72 L 444.20 207.33 L 447.85 208.37 L 451.50 205.62 L 455.15 206.86 L 458.80 208.32 L 462.45 213.64 L 466.10 208.82 L 469.75 207.22 L 473.40 207.73 L 477.05 210.91 L 480.70 209.79 L 484.35 207.45 L 488.00 212.15 L 491.65 214.63 L 495.30 216.27 L 498.95 219.12 L 502.60 219.03 L 506.25 216.97 L 509.90 215.27 L 513.55 213.28 L 517.20 217.85 L 520.85 221.06 L 524.50 220.26 L 528.15 218.62 L 531.80 220.17 L 535.45 217.98 L 539.10 222.90 L 542.75 217.48 L 546.40 213.50 L 550.05 215.67 L 553.70 210.92 L 557.35 208.23 L 561.00 211.13 L 564.65 204.82 L 568.30 203.02 L 571.95 207.56 L 575.60 205.89 L 579.25 202.85 L 582.90 202.67 L 586.55 199.74 L 590.20 200.88 L 593.85 194.96 L 597.50 206.55 L 601.15 201.67 L 604.80 203.21 L 608.45 200.07 L 612.10 197.95 L 615.75 191.34 L 619.40 186.84 L 623.05 185.47 L 626.70 190.20 L 630.35 192.77 L 634.00 191.98 L 637.65 190.84 L 641.30 193.76 L 644.95 202.00 L 648.60 200.54 L 652.25 193.70 L 655.90 191.84 L 659.55 187.48 L 663.20 195.53 L 666.85 194.88 L 670.50 202.73 L 674.15 206.75 L 677.80 205.93 L 681.45 205.28 L 685.10 202.87 L 688.75 197.38 L 692.40 205.32 L 696.05 202.54 L 699.70 206.13 L 703.35 207.70 L 707.00 211.09 L 710.65 207.76 L 714.30 212.25 L 717.95 214.80 L 721.60 217.35 L 725.25 221.76 L 728.90 221.64 L 732.55 221.51 L 736.20 222.93 L 739.85 222.32 L 743.50 221.01 L 747.15 228.55 L 750.80 222.89 L 754.45 226.79 L 758.10 223.19 L 761.75 221.52 L 765.40 222.84 L 769.05 229.29 L 772.70 221.02 L 776.35 213.58 L 780.00 213.71" class="path-4" />
<line x1="50" y1="173.0" x2="780" y2="173.0" stroke="#4b5563" stroke-width="0.8" stroke-dasharray="6 3" />
</svg>