<svg xmlns="http://www.w3.org/2000/svg" viewBox="0 0 800 300" width="800" height="300">
<style>
.axis-line { stroke: #6b7280; stroke-width: 0.5; }
.axis-text { font-family: monospace; font-size: 11px; fill: #9ca3af; }
.title-text { font-family: monospace; font-size: 14px; fill: #d1d5db; font-weight: bold; }
.grid-line { stroke: #374151; stroke-width: 0.3; stroke-dasharray: 4 2; }
.path-0 { fill: none; stroke: #3b82f6; stroke-width: 2; stroke-linecap: round; opacity: 0.85; animation: draw-0 8s ease-in-out 0.0s infinite; stroke-dasharray: 1319; stroke-dashoffset: 1319;}
@keyframes draw-0 { 0% { stroke-dashoffset: 1319; } 38% { stroke-dashoffset: 0; } 62% { stroke-dashoffset: 0; } 100% { stroke-dashoffset: 1319; }}
.path-1 { fill: none; stroke: #ef4444; stroke-width: 2; stroke-linecap: round; opacity: 0.85; animation: draw-1 8s ease-in-out 0.4s infinite; stroke-dasharray: 1362; stroke-dashoffset: 1362;}
@keyframes draw-1 { 0% { stroke-dashoffset: 1362; } 38% { stroke-dashoffset: 0; } 62% { stroke-dashoffset: 0; } 100% { stroke-dashoffset: 1362; }}
.path-2 { fill: none; stroke: #22c55e; stroke-width: 2; stroke-linecap: round; opacity: 0.85; animation: draw-2 8s ease-in-out 0.8s infinite; stroke-dasharray: 1403; stroke-dashoffset: 1403;}
@keyframes draw-2 { 0% { stroke-dashoffset: 1403; } 38% { stroke-dashoffset: 0; } 62% { stroke-dashoffset: 0; } 100% { stroke-dashoffset: 1403; }}
.path-3 { fill: none; stroke: #f59e0b; stroke-width: 2; stroke-linecap: round; opacity: 0.85; animation: draw-3 8s ease-in-out 1.2000000000000002s infinite; stroke-dasharray: 1317; stroke-dashoffset: 1317;}
@keyframes draw-3 { 0% { stroke-dashoffset: 1317; } 38% { stroke-dashoffset: 0; } 62% { stroke-dashoffset: 0; } 100% { stroke-dashoffset: 1317; }}
.path-4 { fill: none; stroke: #a855f7; stroke-width: 2; stroke-linecap: round; opacity: 0.85; animation: draw-4 8s ease-in-out 1.6s infinite; stroke-dasharray: 1357; stroke-dashoffset: 1357;}
@keyframes draw-4 { 0% { stroke-dashoffset: 1357; } 38% { stroke-dashoffset: 0; } 62% { stroke-dashoffset: 0; } 100% { stroke-dashoffset: 1357; }}
</style>
<rect width="800" height="300" rx="8" fill="#0d1117" />
<line x1="50" y1="260.0" x2="780" y2="260.0" class="grid-line" />
<text x="44" y="264.0" text-anchor="end" class="axis-text">-1.0</text>
<line x1="50" y1="216.0" x2="780" y2="216.0" class="grid-line" />
<text x="44" y="220.0" text-anchor="end" class="axis-text">-0.5</text>
<line x1="50" y1="172.0" x2="780" y2="172.0" class="grid-line" />
<text x="44" y="176.0" text-anchor="end" class="axis-text">-0.0</text>
<line x1="50" y1="128.0" x2="780" y2="128.0" class="grid-line" />
<text x="44" y="132.0" text-anchor="end" class="axis-text">0.5</text>
<line x1="50" y1="84.0" x2="780" y2="84.0" class="grid-line" />
<text x="44" y="88.0" text-anchor="end" class="axis-text">1.0</text>
<line x1="50" y1="40.0" x2="780" y2="40.0" class="grid-line" />
<text x="44" y="44.0" text-anchor="end" class="axis-text">1.4</text>
<line x1="50.0" y1="40" x2="50.0" y2="260" class="grid-line" />
<line x1="196.0" y1="40" x2="196.0" y2="260" class="grid-line" />
<line x1="342.0" y1="40" x2="342.0" y2="260" class="grid-line" />
<line x1="488.0" y1="40" x2="488.0" y2="260" class="grid-line" />
<line x1="634.0" y1="40" x2="634.0" y2="260" class="grid-line" />
<line x1="780.0" y1="40" x2="780.0" y2="260" class="grid-line" />
<line x1="50" y1="260" x2="780" y2="260" class="axis-line" />
<line x1="50" y1="40" x2="50" y2="260" class="axis-line" />
<text x="400.0" y="295" text-anchor="middle" class="axis-text">t</text>
<text x="12" y="150.0" text-anchor="middle" class="axis-text" transform="rotate(-90 12 150.0)">W(t)</text>
<text x="400.0" y="22" text-anchor="middle" class="title-text">Brownian Motion</text>
<path d="M 50.00 171.40 L 53.65 177.17 L 57.30 178.65 L 60.95 177.89 L 64.60 175.16 L 68.25 189.04 L 71.90 197.55 L 75.55 208.36 L 79.20 199.32 L 82.85 192.37 L 86.50 197.00 L 90.15 203.56 L 93.80 211.68 L 97.45 213.61 L 101.10 220.00 L 104.75 223.14 L 108.40 219.67 L 112.05 227.93 L 115.70 213.66 L 119.35 211.47 L 123.00 221.00 L 126.65 216.67 L 130.30 221.67 L 133.95 220.94 L 137.60 218.11 L 141.25 220.84 L 144.90 225.92 L 148.55 225.42 L 152.20 224.94 L 155.85 218.47 L 159.50 218.98 L 163.15 223.69 L 166.80 219.34 L 170.45 214.04 L 174.10 212.36 L 177.75 208.90 L 181.40 208.81 L 185.05 215.21 L 188.70 204.55 L 192.35 203.78 L 196.00 200.07 L 199.65 192.53 L 203.30 193.03 L 206.95 184.11 L 210.60 177.93 L 214.25 172.07 L 217.90 177.43 L 221.55 178.34 L 225.20 180.61 L 228.85 174.97 L 232.50 169.21 L 236.15 169.24 L 239.80 177.47 L 243.45 171.84 L 247.10 174.02 L 250.75 179.56 L 254.40 176.68 L 258.05 178.18 L 261.70 174.07 L 265.35 162.91 L 269.00 164.15 L 272.65 171.44 L 276.30 172.27 L 279.95 169.68 L 283.60 163.66 L 287.25 166.09 L 290.90 158.62 L 294.55 166.40 L 298.20 167.45 L 301.85 168.46 L 305.50 166.37 L 309.15 165.86 L 312.80 164.04 L 316.45 172.02 L 320.10 170.02 L 323.75 179.88 L 327.40 179.41 L 331.05 173.94 L 334.70 172.43 L 338.35 186.19 L 342.00 178.14 L 345.65 178.35 L 349.30 171.31 L 352.95 172.40 L 356.60 176.48 L 360.25 178.02 L 363.90 185.41 L 367.55 200.46 L 371.20 200.87 L 374.85 201.87 L 378.50 202.79 L 382.15 198.93 L 385.80 196.77 L 389.45 199.51 L 393.10 198.65 L 396.75 200.34 L 400.40 204.54 L 404.05 205.36 L 407.70 205.01 L 411.35 201.22 L 415.00 200.79 L 418.65 193.69 L 422.30 192.33 L 425.95 184.56 L 429.60 179.59 L 433.25 167.85 L 436.90 161.05 L 440.55 152.78 L 444.20 152.12 L 447.85 158.03 L 451.50 167.17 L 455.15 173.74 L 458.80 171.72 L 462.45 176.82 L 466.10 179.13 L 469.75 175.56 L 473.40 165.26 L 477.05 156.08 L 480.70 167.97 L 484.35 159.53 L 488.00 167.02 L 491.65 162.19 L 495.30 160.14 L 498.95 159.89 L 502.60 161.44 L 506.25 146.00 L 509.90 147.34 L 513.55 137.18 L 517.20 139.18 L 520.85 137.38 L 524.50 129.48 L 528.15 131.24 L 531.80 132.92 L 535.45 138.30 L 539.10 143.19 L 542.75 145.03 L 546.40 134.03 L 550.05 133.76 L 553.70 135.93 L 557.35 116.21 L 561.00 118.58 L 564.65 115.47 L 568.30 113.54 L 571.95 113.29 L 575.60 112.15 L 579.25 108.22 L 582.90 114.39 L 586.55 103.67 L 590.20 112.60 L 593.85 112.55 L 597.50 102.25 L 601.15 98.57 L 604.80 95.67 L 608.45 102.94 L 612.10 99.91 L 615.75 92.96 L 619.40 105.58 L 623.05 99.46 L 626.70 97.60 L 630.35 91.18 L 634.00 92.98 L 637.65 94.97 L 641.30 103.41 L 644.95 103.48 L 648.60 100.00 L 652.25 106.49 L 655.90 116.89 L 659.55 120.61 L 663.20 111.95 L 666.85 108.52 L 670.50 103.24 L 674.15 103.03 L 677.80 100.68 L 681.45 101.86 L 685.10 105.70 L 688.75 100.64 L 692.40 84.48 L 696.05 78.05 L 699.70 74.84 L 703.35 78.60 L 707.00 94.18 L 710.65 93.19 L 714.30 83.58 L 717.95 81.11 L 721.60 79.39 L 725.25 69.81 L 728.90 80.40 L 732.55 74.59 L 736.20 73.00 L 739.85 72.94 L 743.50 67.32 L 747.15 69.12 L 750.80 68.42 L 754.45 65.38 L 758.10 79.36 L 761.75 77.91 L 765.40 89.86 L 769.05 94.48 L 772.70 86.63 L 776.35 82.38 L 780.00 75.38" class="path-0" />
<path d="M 50.00 171.40 L 53.65 169.62 L 57.30 170.21 L 60.95 173.98 L 64.60 167.96 L 68.25 178.34 L 71.90 180.65 L 75.55 191.43 L 79.20 194.58 L 82.85 190.10 L 86.50 181.37 L 90.15 177.24 L 93.80 177.89 L 97.45 184.33 L 101.10 189.27 L 104.75 183.69 L 108.40 191.72 L 112.05 185.79 L 115.70 173.41 L 119.35 168.52 L 123.00 166.54 L 126.65 161.48 L 130.30 158.99 L 133.95 150.81 L 137.60 136.77 L 141.25 131.07 L 144.90 134.52 L 148.55 129.03 L 152.20 135.03 L 155.85 134.75 L 159.50 135.94 L 163.15 141.36 L 166.80 145.69 L 170.45 151.96 L 174.10 147.08 L 177.75 153.06 L 181.40 148.83 L 185.05 156.90 L 188.70 162.99 L 192.35 159.41 L 196.00 157.28 L 199.65 162.65 L 203.30 154.19 L 206.95 150.88 L 210.60 146.64 L 214.25 128.45 L 217.90 132.92 L 221.55 114.57 L 225.20 126.24 L 228.85 130.57 L 232.50 142.26 L 236.15 140.00 L 239.80 130.67 L 243.45 134.47 L 247.10 142.81 L 250.75 135.69 L 254.40 128.62 L 258.05 117.41 L 261.70 125.94 L 265.35 128.00 L 269.00 121.30 L 272.65 119.23 L 276.30 114.12 L 279.95 113.19 L 283.60 116.42 L 287.25 115.32 L 290.90 117.86 L 294.55 117.74 L 298.20 117.08 L 301.85 115.85 L 305.50 106.82 L 309.15 109.28 L 312.80 102.98 L 316.45 90.51 L 320.10 89.12 L 323.75 87.65 L 327.40 77.27 L 331.05 95.05 L 334.70 88.99 L 338.35 85.40 L 342.00 94.41 L 345.65 88.35 L 349.30 91.07 L 352.95 100.62 L 356.60 96.00 L 360.25 91.78 L 363.90 95.15 L 367.55 96.31 L 371.20 108.00 L 374.85 102.79 L 378.50 99.75 L 382.15 100.42 L 385.80 91.03 L 389.45 92.72 L 393.10 83.20 L 396.75 87.32 L 400.40 81.71 L 404.05 89.38 L 407.70 87.40 L 411.35 77.28 L 415.00 86.28 L 418.65 97.20 L 422.30 96.83 L 425.95 104.06 L 429.60 101.31 L 433.25 103.96 L 436.90 104.33 L 440.55 114.13 L 444.20 115.47 L 447.85 115.12 L 451.50 117.08 L 455.15 117.07 L 458.80 133.26 L 462.45 140.23 L 466.10 140.56 L 469.75 140.05 L 473.40 145.05 L 477.05 140.89 L 480.70 148.35 L 484.35 140.55 L 488.00 141.70 L 491.65 136.65 L 495.30 136.48 L 498.95 133.11 L 502.60 131.73 L 506.25 119.38 L 509.90 106.71 L 513.55 114.55 L 517.20 112.41 L 520.85 112.60 L 524.50 107.02 L 528.15 114.72 L 531.80 112.32 L 535.45 121.00 L 539.10 117.75 L 542.75 115.25 L 546.40 110.68 L 550.05 103.33 L 553.70 96.07 L 557.35 104.22 L 561.00 98.45 L 564.65 105.82 L 568.30 112.49 L 571.95 123.24 L 575.60 122.24 L 579.25 128.08 L 582.90 125.31 L 586.55 119.42 L 590.20 119.66 L 593.85 117.79 L 597.50 123.58 L 601.15 132.53 L 604.80 138.49 L 608.45 139.04 L 612.10 134.63 L 615.75 129.14 L 619.40 131.01 L 623.05 131.42 L 626.70 133.98 L 630.35 131.40 L 634.00 117.89 L 637.65 115.28 L 641.30 116.50 L 644.95 110.66 L 648.60 104.92 L 652.25 102.74 L 655.90 102.12 L 659.55 109.58 L 663.20 99.90 L 666.85 95.61 L 670.50 99.15 L 674.15 100.22 L 677.80 107.22 L 681.45 107.75 L 685.10 98.18 L 688.75 96.84 L 692.40 92.99 L 696.05 106.19 L 699.70 100.92 L 703.35 113.46 L 707.00 118.39 L 710.65 122.30 L 714.30 123.47 L 717.95 113.62 L 721.60 111.89 L 725.25 111.73 L 728.90 104.52 L 732.55 103.73 L 736.20 109.20 L 739.85 92.70 L 743.50 92.32 L 747.15 87.74 L 750.80 89.06 L 754.45 89.53 L 758.10 90.07 L 761.75 87.20 L 765.40 80.03 L 769.05 81.87 L 772.70 77.11 L 776.35 74.88 L 780.00 77.61" class="path-1" />
<path d="M 50.00 171.40 L 53.65 160.06 L 57.30 159.25 L 60.95 162.09 L 64.60 166.25 L 68.25 166.36 L 71.90 165.74 L 75.55 160.09 L 79.20 162.01 L 82.85 162.93 L 86.50 167.87 L 90.15 160.52 L 93.80 167.77 L 97.45 151.62 L 101.10 166.84 L 104.75 163.60 L 108.40 173.78 L 112.05 176.54 L 115.70 170.77 L 119.35 157.30 L 123.00 151.00 L 126.65 159.31 L 130.30 162.60 L 133.95 167.73 L 137.60 163.12 L 141.25 171.07 L 144.90 165.57 L 148.55 172.40 L 152.20 165.83 L 155.85 165.26 L 159.50 166.54 L 163.15 161.17 L 166.80 162.89 L 170.45 158.70 L 174.10 157.09 L 177.75 155.63 L 181.40 162.78 L 185.05 154.88 L 188.70 156.87 L 192.35 159.00 L 196.00 158.85 L 199.65 158.37 L 203.30 173.69 L 206.95 172.38 L 210.60 170.63 L 214.25 172.71 L 217.90 161.00 L 221.55 163.51 L 225.20 163.19 L 228.85 172.59 L 232.50 162.97 L 236.15 163.44 L 239.80 165.78 L 243.45 157.89 L 247.10 144.30 L 250.75 136.38 L 254.40 141.37 L 258.05 141.47 L 261.70 139.00 L 265.35 130.24 L 269.00 130.72 L 272.65 134.49 L 276.30 134.55 L 279.95 142.94 L 283.60 139.74 L 287.25 148.29 L 290.90 152.50 L 294.55 151.30 L 298.20 148.85 L 301.85 158.05 L 305.50 156.81 L 309.15 150.07 L 312.80 153.96 L 316.45 150.74 L 320.10 136.06 L 323.75 142.04 L 327.40 144.77 L 331.05 145.33 L 334.70 152.00 L 338.35 146.56 L 342.00 148.97 L 345.65 141.86 L 349.30 146.50 L 352.95 143.15 L 356.60 151.33 L 360.25 160.59 L 363.90 156.79 L 367.55 149.38 L 371.20 140.77 L 374.85 144.73 L 378.50 137.71 L 382.15 140.69 L 385.80 164.33 L 389.45 151.89 L 393.10 149.20 L 396.75 154.21 L 400.40 155.43 L 404.05 150.47 L 407.70 152.83 L 411.35 156.62 L 415.00 168.43 L 418.65 182.29 L 422.30 178.19 L 425.95 173.60 L 429.60 175.82 L 433.25 177.29 L 436.90 173.27 L 440.55 157.26 L 444.20 159.10 L 447.85 159.04 L 451.50 155.25 L 455.15 145.36 L 458.80 149.10 L 462.45 153.75 L 466.10 157.00 L 469.75 153.10 L 473.40 166.45 L 477.05 172.64 L 480.70 174.24 L 484.35 173.67 L 488.00 177.70 L 491.65 182.96 L 495.30 192.48 L 498.95 192.63 L 502.60 190.76 L 506.25 178.89 L 509.90 170.84 L 513.55 161.48 L 517.20 168.57 L 520.85 174.38 L 524.50 174.02 L 528.15 168.53 L 531.80 165.97 L 535.45 155.60 L 539.10 155.49 L 542.75 162.77 L 546.40 170.26 L 550.05 169.98 L 553.70 178.36 L 557.35 173.01 L 561.00 163.92 L 564.65 183.65 L 568.30 182.41 L 571.95 170.24 L 575.60 172.49 L 579.25 172.28 L 582.90 172.60 L 586.55 181.36 L 590.20 179.85 L 593.85 184.69 L 597.50 189.04 L 601.15 202.20 L 604.80 200.91 L 608.45 205.75 L 612.10 199.18 L 615.75 192.52 L 619.40 180.44 L 623.05 175.71 L 626.70 173.84 L 630.35 166.94 L 634.00 174.69 L 637.65 174.75 L 641.30 175.69 L 644.95 174.23 L 648.60 159.98 L 652.25 166.08 L 655.90 161.46 L 659.55 155.81 L 663.20 161.67 L 666.85 158.53 L 670.50 160.47 L 674.15 165.39 L 677.80 162.13 L 681.45 137.16 L 685.10 136.01 L 688.75 131.13 L 692.40 134.11 L 696.05 140.43 L 699.70 143.23 L 703.35 145.98 L 707.00 145.43 L 710.65 153.46 L 714.30 144.73 L 717.95 142.59 L 721.60 150.41 L 725.25 154.43 L 728.90 157.17 L 732.55 163.83 L 736.20 155.36 L 739.85 156.19 L 743.50 154.57 L 747.15 159.36 L 750.80 157.10 L 754.45 154.78 L 758.10 148.16 L 761.75 150.01 L 765.40 140.13 L 769.05 124.17 L 772.70 121.68 L 776.35 115.18 L 780.00 109.46" class="path-2" />
<path d="M 50.00 171.40 L 53.65 157.74 L 57.30 145.10 L 60.95 141.37 L 64.60 127.91 L 68.25 128.05 L 71.90 143.23 L 75.55 141.76 L 79.20 135.47 L 82.85 138.76 L 86.50 139.28 L 90.15 145.09 L 93.80 151.23 L 97.45 148.59 L 101.10 147.73 L 104.75 143.48 L 108.40 137.59 L 112.05 137.20 L 115.70 138.96 L 119.35 137.60 L 123.00 148.25 L 126.65 144.08 L 130.30 142.41 L 133.95 141.39 L 137.60 132.85 L 141.25 119.45 L 144.90 123.75 L 148.55 128.85 L 152.20 124.55 L 155.85 128.81 L 159.50 135.90 L 163.15 139.52 L 166.80 136.46 L 170.45 132.70 L 174.10 139.14 L 177.75 145.24 L 181.40 144.33 L 185.05 142.83 L 188.70 149.87 L 192.35 155.22 L 196.00 168.10 L 199.65 159.64 L 203.30 158.87 L 206.95 163.37 L 210.60 157.96 L 214.25 152.09 L 217.90 158.01 L 221.55 156.23 L 225.20 152.50 L 228.85 152.00 L 232.50 158.27 L 236.15 165.57 L 239.80 154.17 L 243.45 165.75 L 247.10 155.39 L 250.75 158.68 L 254.40 165.99 L 258.05 162.50 L 261.70 154.56 L 265.35 161.57 L 269.00 165.56 L 272.65 161.76 L 276.30 157.03 L 279.95 156.45 L 283.60 156.39 L 287.25 154.63 L 290.90 148.07 L 294.55 150.36 L 298.20 152.74 L 301.85 153.95 L 305.50 160.45 L 309.15 158.48 L 312.80 161.53 L 316.45 167.89 L 320.10 156.41 L 323.75 151.68 L 327.40 148.92 L 331.05 144.45 L 334.70 143.16 L 338.35 139.49 L 342.00 137.38 L 345.65 131.99 L 349.30 134.96 L 352.95 145.75 L 356.60 154.60 L 360.25 161.99 L 363.90 162.39 L 367.55 155.13 L 371.20 161.61 L 374.85 165.28 L 378.50 170.16 L 382.15 169.02 L 385.80 155.11 L 389.45 151.57 L 393.10 150.94 L 396.75 151.06 L 400.40 152.86 L 404.05 154.60 L 407.70 153.43 L 411.35 147.52 L 415.00 144.66 L 418.65 137.04 L 422.30 130.79 L 425.95 131.75 L 429.60 126.00 L 433.25 125.90 L 436.90 122.82 L 440.55 127.59 L 444.20 123.10 L 447.85 131.80 L 451.50 130.74 L 455.15 135.55 L 458.80 138.38 L 462.45 142.12 L 466.10 142.06 L 469.75 140.62 L 473.40 154.90 L 477.05 149.89 L 480.70 155.83 L 484.35 165.99 L 488.00 156.20 L 491.65 165.25 L 495.30 164.04 L 498.95 158.71 L 502.60 160.59 L 506.25 170.25 L 509.90 173.79 L 513.55 165.69 L 517.20 160.87 L 520.85 166.77 L 524.50 168.37 L 528.15 167.76 L 531.80 164.04 L 535.45 154.71 L 539.10 149.05 L 542.75 155.77 L 546.40 169.87 L 550.05 165.78 L 553.70 157.89 L 557.35 147.23 L 561.00 154.57 L 564.65 155.16 L 568.30 160.55 L 571.95 159.73 L 575.60 157.60 L 579.25 144.35 L 582.90 136.28 L 586.55 132.07 L 590.20 125.02 L 593.85 134.05 L 597.50 126.77 L 601.15 129.19 L 604.80 134.56 L 608.45 134.53 L 612.10 126.41 L 615.75 122.34 L 619.40 137.35 L 623.05 144.03 L 626.70 138.87 L 630.35 136.14 L 634.00 131.49 L 637.65 140.15 L 641.30 142.90 L 644.95 141.25 L 648.60 143.06 L 652.25 144.40 L 655.90 143.46 L 659.55 150.12 L 663.20 154.06 L 666.85 162.09 L 670.50 163.09 L 674.15 160.90 L 677.80 159.26 L 681.45 164.00 L 685.10 167.50 L 688.75 164.67 L 692.40 174.99 L 696.05 178.70 L 699.70 174.42 L 703.35 170.35 L 707.00 165.09 L 710.65 155.05 L 714.30 160.87 L 717.95 160.69 L 721.60 158.86 L 725.25 162.77 L 728.90 163.79 L 732.55 166.20 L 736.20 168.97 L 739.85 162.22 L 743.50 158.80 L 747.15 163.52 L 750.80 162.11 L 754.45 157.02 L 758.10 161.36 L 761.75 154.31 L 765.40 168.35 L 769.05 167.92 L 772.70 169.13 L 776.35 162.93 L 780.00 156.78" class="path-3" />
<path d="M 50.00 171.40 L 53.65 182.40 L 57.30 181.27 L 60.95 184.85 L 64.60 192.49 L 68.25 182.10 L 71.90 185.28 L 75.55 189.26 L 79.20 185.74 L 82.85 189.83 L 86.50 188.12 L 90.15 196.57 L 93.80 203.36 L 97.45 196.12 L 101.10 195.07 L 104.75 205.75 L 108.40 210.42 L 112.05 221.86 L 115.70 227.60 L 119.35 234.62 L 123.00 230.64 L 126.65 230.90 L 130.30 225.20 L 133.95 225.14 L 137.60 227.27 L 141.25 225.29 L 144.90 217.85 L 148.55 218.60 L 152.20 218.53 L 155.85 208.11 L 159.50 222.95 L 163.15 218.43 L 166.80 217.35 L 170.45 221.54 L 174.10 223.66 L 177.75 221.10 L 181.40 219.97 L 185.05 219.38 L 188.70 222.34 L 192.35 221.76 L 196.00 220.84 L 199.65 223.71 L 203.30 222.64 L 206.95 226.13 L 210.60 222.60 L 214.25 227.05 L 217.90 228.14 L 221.55 222.95 L 225.20 212.32 L 228.85 203.25 L 232.50 204.41 L 236.15 205.43 L 239.80 202.92 L 243.45 192.63 L 247.10 189.09 L 250.75 185.84 L 254.40 182.93 L 258.05 183.96 L 261.70 186.33 L 265.35 199.21 L 269.00 199.00 L 272.65 198.29 L 276.30 198.03 L 279.95 200.26 L 283.60 195.43 L 287.25 198.99 L 290.90 197.72 L 294.55 192.48 L 298.20 199.94 L 301.85 197.81 L 305.50 194.04 L 309.15 194.91 L 312.80 197.96 L 316.45 187.82 L 320.10 182.12 L 323.75 174.95 L 327.40 179.97 L 331.05 178.99 L 334.70 174.79 L 338.35 176.69 L 342.00 177.15 L 345.65 177.33 L 349.30 183.98 L 352.95 191.70 L 356.60 189.99 L 360.25 193.90 L 363.90 190.75 L 367.55 185.03 L 371.20 170.11 L 374.85 170.98 L 378.50 172.43 L 382.15 176.60 L 385.80 179.07 L 389.45 169.51 L 393.10 176.98 L 396.75 167.67 L 400.40 161.44 L 404.05 153.14 L 407.70 143.16 L 411.35 149.25 L 415.00 161.99 L 418.65 174.38 L 422.30 176.41 L 425.95 166.20 L 429.60 163.71 L 433.25 165.65 L 436.90 181.33 L 440.55 184.86 L 444.20 184.02 L 447.85 184.14 L 451.50 176.10 L 455.15 170.31 L 458.80 178.85 L 462.45 185.28 L 466.10 191.92 L 469.75 193.64 L 473.40 188.04 L 477.05 200.10 L 480.70 197.76 L 484.35 197.30 L 488.00 185.70 L 491.65 187.04 L 495.30 198.81 L 498.95 207.56 L 502.60 211.56 L 506.25 206.00 L 509.90 216.74 L 513.55 221.59 L 517.20 220.93 L 520.85 218.64 L 524.50 214.44 L 528.15 221.25 L 531.80 213.01 L 535.45 201.21 L 539.10 208.14 L 542.75 211.88 L 546.40 210.23 L 550.05 215.83 L 553.70 223.59 L 557.35 209.12 L 561.00 213.54 L 564.65 215.82 L 568.30 215.73 L 571.95 214.66 L 575.60 227.66 L 579.25 230.82 L 582.90 227.19 L 586.55 233.15 L 590.20 218.78 L 593.85 220.24 L 597.50 221.09 L 601.15 225.37 L 604.80 217.26 L 608.45 213.89 L 612.10 214.42 L 615.75 222.38 L 619.40 223.18 L 623.05 212.31 L 626.70 209.26 L 630.35 204.09 L 634.00 213.72 L 637.65 216.65 L 641.30 216.11 L 644.95 215.21 L 648.60 215.83 L 652.25 219.06 L 655.90 231.34 L 659.55 222.35 L 663.20 224.19 L 666.85 219.90 L 670.50 225.96 L 674.15 232.95 L 677.80 232.43 L 681.45 222.96 L 685.10 212.77 L 688.75 209.38 L 692.40 191.66 L 696.05 178.19 L 699.70 185.15 L 703.35 188.60 L 707.00 185.58 L 710.65 176.79 L 714.30 164.56 L 717.95 172.27 L 721.60 172.22 L 725.25 173.98 L 728.90 169.90 L 732.55 162.21 L 736.20 169.72 L 739.85 177.42 L 743.50 175.09 L 747.15 165.30 L 750.80 161.15 L 754.45 158.23 L 758.10 159.46 L 761.75 152.65 L 765.40 149.90 L 769.05 140.76 L 772.70 135.00 L 776.35 133.25 L 780.00 124.96" class="path-4" />
<line x1="50" y1="171.4" x2="780" y2="171.4" stroke="#4b5563" stroke-width="0.8" stroke-dasharray="6 3" />
</svg>