<svg xmlns="http://www.w3.org/2000/svg" viewBox="0 0 800 300" width="800" height="300">
<style>
.axis-line { stroke: #6b7280; stroke-width: 0.5; }
.axis-text { font-family: monospace; font-size: 11px; fill: #9ca3af; }
.title-text { font-family: monospace; font-size: 14px; fill: #d1d5db; font-weight: bold; }
.grid-line { stroke: #374151; stroke-width: 0.3; stroke-dasharray: 4 2; }
.path-0 { fill: none; stroke: #3b82f6; stroke-width: 2; stroke-linecap: round; opacity: 0.85; animation: draw-0 8s ease-in-out 0.0s infinite; stroke-dasharray: 1245; stroke-dashoffset: 1245;}
@keyframes draw-0 { 0% { stroke-dashoffset: 1245; } 38% { stroke-dashoffset: 0; } 62% { stroke-dashoffset: 0; } 100% { stroke-dashoffset: 1245; }}
.path-1 { fill: none; stroke: #ef4444; stroke-width: 2; stroke-linecap: round; opacity: 0.85; animation: draw-1 8s ease-in-out 0.4s infinite; stroke-dasharray: 1359; stroke-dashoffset: 1359;}
@keyframes draw-1 { 0% { stroke-dashoffset: 1359; } 38% { stroke-dashoffset: 0; } 62% { stroke-dashoffset: 0; } 100% { stroke-dashoffset: 1359; }}
.path-2 { fill: none; stroke: #22c55e; stroke-width: 2; stroke-linecap: round; opacity: 0.85; animation: draw-2 8s ease-in-out 0.8s infinite; stroke-dasharray: 1345; stroke-dashoffset: 1345;}
@keyframes draw-2 { 0% { stroke-dashoffset: 1345; } 38% { stroke-dashoffset: 0; } 62% { stroke-dashoffset: 0; } 100% { stroke-dashoffset: 1345; }}
.path-3 { fill: none; stroke: #f59e0b; stroke-width: 2; stroke-linecap: round; opacity: 0.85; animation: draw-3 8s ease-in-out 1.2000000000000002s infinite; stroke-dasharray: 1259; stroke-dashoffset: 1259;}
@keyframes draw-3 { 0% { stroke-dashoffset: 1259; } 38% { stroke-dashoffset: 0; } 62% { stroke-dashoffset: 0; } 100% { stroke-dashoffset: 1259; }}
.path-4 { fill: none; stroke: #a855f7; stroke-width: 2; stroke-linecap: round; opacity: 0.85; animation: draw-4 8s ease-in-out 1.6s infinite; stroke-dasharray: 1304; stroke-dashoffset: 1304;}
@keyframes draw-4 { 0% { stroke-dashoffset: 1304; } 38% { stroke-dashoffset: 0; } 62% { stroke-dashoffset: 0; } 100% { stroke-dashoffset: 1304; }}
</style>
<rect width="800" height="300" rx="8" fill="#0d1117" />
<line x1="50" y1="260.0" x2="780" y2="260.0" class="grid-line" />
<text x="44" y="264.0" text-anchor="end" class="axis-text">-0.8</text>
<line x1="50" y1="216.0" x2="780" y2="216.0" class="grid-line" />
<text x="44" y="220.0" text-anchor="end" class="axis-text">-0.3</text>
<line x1="50" y1="172.0" x2="780" y2="172.0" class="grid-line" />
<text x="44" y="176.0" text-anchor="end" class="axis-text">0.3</text>
<line x1="50" y1="128.0" x2="780" y2="128.0" class="grid-line" />
<text x="44" y="132.0" text-anchor="end" class="axis-text">0.8</text>
<line x1="50" y1="84.0" x2="780" y2="84.0" class="grid-line" />
<text x="44" y="88.0" text-anchor="end" class="axis-text">1.3</text>
<line x1="50" y1="40.0" x2="780" y2="40.0" class="grid-line" />
<text x="44" y="44.0" text-anchor="end" class="axis-text">1.9</text>
<line x1="50.0" y1="40" x2="50.0" y2="260" class="grid-line" />
<line x1="196.0" y1="40" x2="196.0" y2="260" class="grid-line" />
<line x1="342.0" y1="40" x2="342.0" y2="260" class="grid-line" />
<line x1="488.0" y1="40" x2="488.0" y2="260" class="grid-line" />
<line x1="634.0" y1="40" x2="634.0" y2="260" class="grid-line" />
<line x1="780.0" y1="40" x2="780.0" y2="260" class="grid-line" />
<line x1="50" y1="260" x2="780" y2="260" class="axis-line" />
<line x1="50" y1="40" x2="50" y2="260" class="axis-line" />
<text x="400.0" y="295" text-anchor="middle" class="axis-text">t</text>
<text x="12" y="150.0" text-anchor="middle" class="axis-text" transform="rotate(-90 12 150.0)">W(t)</text>
<text x="400.0" y="22" text-anchor="middle" class="title-text">Brownian Motion</text>
<path d="M 50.00 193.01 L 53.65 196.40 L 57.30 194.72 L 60.95 197.08 L 64.60 190.79 L 68.25 189.52 L 71.90 192.92 L 75.55 192.73 L 79.20 197.31 L 82.85 196.90 L 86.50 188.82 L 90.15 173.88 L 93.80 175.46 L 97.45 171.03 L 101.10 165.70 L 104.75 159.67 L 108.40 160.68 L 112.05 159.50 L 115.70 144.25 L 119.35 145.90 L 123.00 148.18 L 126.65 145.80 L 130.30 152.51 L 133.95 155.70 L 137.60 152.02 L 141.25 147.28 L 144.90 141.10 L 148.55 137.31 L 152.20 139.95 L 155.85 142.01 L 159.50 149.34 L 163.15 148.83 L 166.80 147.86 L 170.45 132.08 L 174.10 129.18 L 177.75 125.31 L 181.40 119.63 L 185.05 115.50 L 188.70 121.36 L 192.35 114.21 L 196.00 129.06 L 199.65 130.53 L 203.30 134.59 L 206.95 134.72 L 210.60 133.89 L 214.25 137.03 L 217.90 139.29 L 221.55 145.66 L 225.20 150.22 L 228.85 160.73 L 232.50 157.64 L 236.15 158.46 L 239.80 156.98 L 243.45 162.73 L 247.10 164.34 L 250.75 171.86 L 254.40 161.66 L 258.05 167.37 L 261.70 175.01 L 265.35 174.93 L 269.00 180.31 L 272.65 181.85 L 276.30 183.67 L 279.95 170.85 L 283.60 176.32 L 287.25 178.38 L 290.90 173.63 L 294.55 169.60 L 298.20 169.11 L 301.85 167.48 L 305.50 159.45 L 309.15 158.17 L 312.80 165.97 L 316.45 169.59 L 320.10 171.69 L 323.75 174.78 L 327.40 165.60 L 331.05 169.00 L 334.70 177.81 L 338.35 182.39 L 342.00 177.74 L 345.65 173.27 L 349.30 172.72 L 352.95 169.83 L 356.60 171.41 L 360.25 167.28 L 363.90 166.57 L 367.55 166.39 L 371.20 168.54 L 374.85 174.69 L 378.50 167.16 L 382.15 168.94 L 385.80 170.72 L 389.45 172.53 L 393.10 169.47 L 396.75 176.18 L 400.40 176.29 L 404.05 192.67 L 407.70 182.13 L 411.35 174.34 L 415.00 178.68 L 418.65 176.51 L 422.30 174.04 L 425.95 164.91 L 429.60 162.53 L 433.25 154.44 L 436.90 154.27 L 440.55 161.78 L 444.20 163.62 L 447.85 169.20 L 451.50 178.12 L 455.15 168.87 L 458.80 167.15 L 462.45 167.51 L 466.10 168.67 L 469.75 165.24 L 473.40 169.21 L 477.05 171.40 L 480.70 176.21 L 484.35 186.06 L 488.00 189.55 L 491.65 186.53 L 495.30 186.34 L 498.95 183.97 L 502.60 194.82 L 506.25 183.07 L 509.90 183.89 L 513.55 176.39 L 517.20 172.88 L 520.85 172.54 L 524.50 169.05 L 528.15 174.52 L 531.80 168.47 L 535.45 167.32 L 539.10 159.97 L 542.75 160.98 L 546.40 162.02 L 550.05 164.65 L 553.70 160.75 L 557.35 164.20 L 561.00 162.22 L 564.65 158.15 L 568.30 157.86 L 571.95 151.26 L 575.60 160.46 L 579.25 153.43 L 582.90 154.59 L 586.55 152.73 L 590.20 147.39 L 593.85 145.80 L 597.50 135.52 L 601.15 126.19 L 604.80 121.39 L 608.45 131.03 L 612.10 131.01 L 615.75 131.47 L 619.40 126.00 L 623.05 124.44 L 626.70 123.78 L 630.35 124.57 L 634.00 125.85 L 637.65 125.40 L 641.30 120.79 L 644.95 118.69 L 648.60 118.85 L 652.25 119.83 L 655.90 110.63 L 659.55 110.50 L 663.20 120.03 L 666.85 128.25 L 670.50 128.73 L 674.15 124.18 L 677.80 121.28 L 681.45 118.98 L 685.10 133.90 L 688.75 141.06 L 692.40 142.70 L 696.05 150.57 L 699.70 150.72 L 703.35 145.09 L 707.00 141.95 L 710.65 143.25 L 714.30 149.68 L 717.95 148.41 L 721.60 145.14 L 725.25 144.00 L 728.90 145.45 L 732.55 156.77 L 736.20 164.81 L 739.85 152.91 L 743.50 146.79 L 747.15 163.40 L 750.80 168.91 L 754.45 162.89 L 758.10 164.48 L 761.75 168.97 L 765.40 162.23 L 769.05 159.59 L 772.70 165.00 L 776.35 158.21 L 780.00 156.83" class="path-0" />
<path d="M 50.00 193.01 L 53.65 199.37 L 57.30 197.72 L 60.95 191.07 L 64.60 189.39 L 68.25 188.74 L 71.90 193.06 L 75.55 179.17 L 79.20 181.80 L 82.85 180.59 L 86.50 172.62 L 90.15 165.83 L 93.80 161.31 L 97.45 170.77 L 101.10 172.96 L 104.75 179.33 L 108.40 180.22 L 112.05 175.44 L 115.70 167.85 L 119.35 171.84 L 123.00 161.61 L 126.65 154.67 L 130.30 149.55 L 133.95 158.76 L 137.60 155.69 L 141.25 156.95 L 144.90 157.75 L 148.55 157.92 L 152.20 158.06 L 155.85 158.65 L 159.50 159.54 L 163.15 158.77 L 166.80 156.74 L 170.45 163.74 L 174.10 160.00 L 177.75 160.64 L 181.40 156.51 L 185.05 163.31 L 188.70 154.15 L 192.35 153.57 L 196.00 149.50 L 199.65 132.54 L 203.30 134.40 L 206.95 142.42 L 210.60 133.30 L 214.25 132.93 L 217.90 129.73 L 221.55 138.29 L 225.20 135.00 L 228.85 135.53 L 232.50 122.91 L 236.15 110.32 L 239.80 104.72 L 243.45 120.17 L 247.10 121.93 L 250.75 123.77 L 254.40 130.90 L 258.05 132.23 L 261.70 130.19 L 265.35 129.11 L 269.00 130.08 L 272.65 131.61 L 276.30 137.53 L 279.95 136.54 L 283.60 129.69 L 287.25 133.02 L 290.90 145.13 L 294.55 137.39 L 298.20 137.51 L 301.85 136.82 L 305.50 150.00 L 309.15 147.45 L 312.80 146.06 L 316.45 136.36 L 320.10 138.60 L 323.75 124.08 L 327.40 123.69 L 331.05 127.38 L 334.70 139.70 L 338.35 155.96 L 342.00 153.17 L 345.65 149.28 L 349.30 140.63 L 352.95 130.30 L 356.60 129.91 L 360.25 134.47 L 363.90 144.99 L 367.55 135.91 L 371.20 133.55 L 374.85 134.79 L 378.50 139.47 L 382.15 131.14 L 385.80 124.54 L 389.45 130.68 L 393.10 134.41 L 396.75 125.25 L 400.40 120.12 L 404.05 120.92 L 407.70 121.88 L 411.35 139.73 L 415.00 140.05 L 418.65 132.00 L 422.30 129.86 L 425.95 136.81 L 429.60 132.88 L 433.25 138.51 L 436.90 134.14 L 440.55 129.84 L 444.20 131.91 L 447.85 125.01 L 451.50 117.99 L 455.15 118.59 L 458.80 116.07 L 462.45 119.30 L 466.10 120.32 L 469.75 112.36 L 473.40 110.04 L 477.05 110.75 L 480.70 103.91 L 484.35 99.17 L 488.00 100.99 L 491.65 103.96 L 495.30 91.67 L 498.95 87.02 L 502.60 91.36 L 506.25 86.92 L 509.90 86.42 L 513.55 96.04 L 517.20 102.66 L 520.85 101.61 L 524.50 99.90 L 528.15 108.18 L 531.80 101.00 L 535.45 93.87 L 539.10 88.95 L 542.75 74.63 L 546.40 65.68 L 550.05 77.18 L 553.70 77.52 L 557.35 70.21 L 561.00 66.89 L 564.65 73.60 L 568.30 78.65 L 571.95 70.14 L 575.60 74.74 L 579.25 65.38 L 582.90 85.14 L 586.55 85.90 L 590.20 88.94 L 593.85 91.51 L 597.50 83.49 L 601.15 76.20 L 604.80 74.49 L 608.45 75.31 L 612.10 76.96 L 615.75 84.47 L 619.40 84.40 L 623.05 91.52 L 626.70 97.11 L 630.35 98.15 L 634.00 107.73 L 637.65 110.69 L 641.30 115.35 L 644.95 110.96 L 648.60 112.71 L 652.25 117.74 L 655.90 122.61 L 659.55 123.64 L 663.20 123.55 L 666.85 129.57 L 670.50 123.45 L 674.15 128.55 L 677.80 129.66 L 681.45 134.79 L 685.10 128.87 L 688.75 138.27 L 692.40 142.52 L 696.05 143.35 L 699.70 147.01 L 703.35 147.67 L 707.00 147.93 L 710.65 153.25 L 714.30 138.13 L 717.95 146.62 L 721.60 146.79 L 725.25 138.03 L 728.90 142.56 L 732.55 142.34 L 736.20 134.64 L 739.85 134.37 L 743.50 141.12 L 747.15 143.49 L 750.80 137.75 L 754.45 131.20 L 758.10 132.96 L 761.75 132.07 L 765.40 140.00 L 769.05 149.27 L 772.70 128.56 L 776.35 133.58 L 780.00 135.68" class="path-1" />
<path d="M 50.00 193.01 L 53.65 186.99 L 57.30 180.06 L 60.95 175.90 L 64.60 162.80 L 68.25 159.56 L 71.90 163.05 L 75.55 155.40 L 79.20 164.54 L 82.85 156.56 L 86.50 163.61 L 90.15 166.51 L 93.80 173.50 L 97.45 169.34 L 101.10 161.26 L 104.75 165.25 L 108.40 165.32 L 112.05 160.23 L 115.70 155.41 L 119.35 141.92 L 123.00 135.17 L 126.65 134.05 L 130.30 131.86 L 133.95 134.35 L 137.60 136.95 L 141.25 132.18 L 144.90 128.55 L 148.55 129.94 L 152.20 137.33 L 155.85 137.64 L 159.50 138.99 L 163.15 128.23 L 166.80 118.68 L 170.45 112.65 L 174.10 119.02 L 177.75 120.02 L 181.40 123.62 L 185.05 120.48 L 188.70 115.80 L 192.35 115.35 L 196.00 119.76 L 199.65 116.14 L 203.30 108.56 L 206.95 115.53 L 210.60 116.94 L 214.25 121.93 L 217.90 126.99 L 221.55 120.11 L 225.20 122.36 L 228.85 128.36 L 232.50 140.35 L 236.15 139.63 L 239.80 131.17 L 243.45 124.70 L 247.10 128.83 L 250.75 133.10 L 254.40 129.69 L 258.05 144.38 L 261.70 146.58 L 265.35 146.66 L 269.00 153.64 L 272.65 146.54 L 276.30 151.51 L 279.95 167.74 L 283.60 170.55 L 287.25 168.95 L 290.90 168.47 L 294.55 169.81 L 298.20 174.24 L 301.85 181.07 L 305.50 170.41 L 309.15 160.58 L 312.80 162.50 L 316.45 164.48 L 320.10 161.95 L 323.75 164.68 L 327.40 167.20 L 331.05 164.49 L 334.70 158.90 L 338.35 153.92 L 342.00 159.02 L 345.65 150.76 L 349.30 149.31 L 352.95 160.18 L 356.60 162.78 L 360.25 169.20 L 363.90 163.19 L 367.55 151.70 L 371.20 154.06 L 374.85 149.19 L 378.50 148.98 L 382.15 140.88 L 385.80 148.06 L 389.45 137.48 L 393.10 147.07 L 396.75 151.97 L 400.40 142.61 L 404.05 143.51 L 407.70 144.89 L 411.35 155.11 L 415.00 150.35 L 418.65 145.30 L 422.30 155.93 L 425.95 156.97 L 429.60 155.85 L 433.25 164.90 L 436.90 169.10 L 440.55 165.94 L 444.20 171.69 L 447.85 183.14 L 451.50 190.93 L 455.15 190.49 L 458.80 183.45 L 462.45 192.93 L 466.10 187.96 L 469.75 187.41 L 473.40 180.32 L 477.05 180.95 L 480.70 179.01 L 484.35 193.05 L 488.00 188.38 L 491.65 190.82 L 495.30 189.93 L 498.95 187.84 L 502.60 184.31 L 506.25 181.65 L 509.90 179.98 L 513.55 174.96 L 517.20 162.60 L 520.85 166.28 L 524.50 167.99 L 528.15 170.69 L 531.80 152.44 L 535.45 170.51 L 539.10 183.70 L 542.75 185.90 L 546.40 187.76 L 550.05 181.00 L 553.70 182.45 L 557.35 179.61 L 561.00 171.65 L 564.65 176.79 L 568.30 180.82 L 571.95 177.54 L 575.60 174.30 L 579.25 174.04 L 582.90 173.17 L 586.55 178.73 L 590.20 177.60 L 593.85 180.96 L 597.50 187.84 L 601.15 187.81 L 604.80 171.11 L 608.45 169.67 L 612.10 177.38 L 615.75 172.67 L 619.40 179.72 L 623.05 179.79 L 626.70 179.45 L 630.35 182.23 L 634.00 191.36 L 637.65 194.42 L 641.30 204.10 L 644.95 196.47 L 648.60 194.95 L 652.25 186.45 L 655.90 176.57 L 659.55 171.94 L 663.20 161.77 L 666.85 163.26 L 670.50 153.08 L 674.15 150.91 L 677.80 153.39 L 681.45 156.01 L 685.10 155.73 L 688.75 164.84 L 692.40 172.48 L 696.05 170.23 L 699.70 167.58 L 703.35 175.10 L 707.00 172.59 L 710.65 168.15 L 714.30 178.30 L 717.95 184.36 L 721.60 185.68 L 725.25 174.69 L 728.90 174.70 L 732.55 181.24 L 736.20 181.20 L 739.85 185.67 L 743.50 186.05 L 747.15 181.65 L 750.80 175.02 L 754.45 175.06 L 758.10 180.85 L 761.75 179.71 L 765.40 172.59 L 769.05 172.02 L 772.70 163.80 L 776.35 167.45 L 780.00 166.06" class="path-2" />
<path d="M 50.00 193.01 L 53.65 189.73 L 57.30 189.66 L 60.95 197.77 L 64.60 196.41 L 68.25 185.96 L 71.90 183.71 L 75.55 180.48 L 79.20 177.13 L 82.85 170.60 L 86.50 167.57 L 90.15 172.16 L 93.80 172.25 L 97.45 163.80 L 101.10 163.67 L 104.75 157.70 L 108.40 156.35 L 112.05 155.72 L 115.70 157.44 L 119.35 157.12 L 123.00 163.84 L 126.65 155.89 L 130.30 153.37 L 133.95 154.41 L 137.60 154.60 L 141.25 146.94 L 144.90 141.05 L 148.55 143.48 L 152.20 142.77 L 155.85 150.20 L 159.50 157.12 L 163.15 161.90 L 166.80 162.86 L 170.45 156.94 L 174.10 167.17 L 177.75 170.44 L 181.40 165.58 L 185.05 165.97 L 188.70 163.86 L 192.35 164.44 L 196.00 177.09 L 199.65 173.55 L 203.30 169.71 L 206.95 172.65 L 210.60 179.58 L 214.25 164.33 L 217.90 152.61 L 221.55 150.53 L 225.20 140.51 L 228.85 141.51 L 232.50 136.14 L 236.15 147.13 L 239.80 146.14 L 243.45 145.10 L 247.10 142.03 L 250.75 146.44 L 254.40 145.67 L 258.05 142.45 L 261.70 148.36 L 265.35 161.55 L 269.00 161.57 L 272.65 160.15 L 276.30 163.69 L 279.95 166.39 L 283.60 162.79 L 287.25 161.69 L 290.90 167.39 L 294.55 168.08 L 298.20 169.05 L 301.85 174.52 L 305.50 163.87 L 309.15 164.80 L 312.80 163.80 L 316.45 167.78 L 320.10 161.11 L 323.75 157.91 L 327.40 167.09 L 331.05 177.65 L 334.70 180.91 L 338.35 175.65 L 342.00 176.27 L 345.65 178.62 L 349.30 176.14 L 352.95 183.34 L 356.60 181.05 L 360.25 190.07 L 363.90 189.81 L 367.55 186.95 L 371.20 186.42 L 374.85 177.79 L 378.50 182.59 L 382.15 179.10 L 385.80 179.35 L 389.45 174.78 L 393.10 173.01 L 396.75 169.39 L 400.40 170.88 L 404.05 169.87 L 407.70 174.86 L 411.35 174.81 L 415.00 181.27 L 418.65 172.42 L 422.30 172.31 L 425.95 171.21 L 429.60 159.86 L 433.25 152.71 L 436.90 157.70 L 440.55 161.47 L 444.20 172.67 L 447.85 177.88 L 451.50 170.71 L 455.15 168.31 L 458.80 160.46 L 462.45 170.69 L 466.10 164.21 L 469.75 153.10 L 473.40 153.99 L 477.05 164.09 L 480.70 174.09 L 484.35 172.11 L 488.00 168.30 L 491.65 178.91 L 495.30 167.91 L 498.95 163.74 L 502.60 161.77 L 506.25 155.24 L 509.90 154.97 L 513.55 144.07 L 517.20 153.06 L 520.85 143.70 L 524.50 141.25 L 528.15 140.07 L 531.80 139.10 L 535.45 148.65 L 539.10 159.34 L 542.75 151.73 L 546.40 149.14 L 550.05 142.94 L 553.70 131.01 L 557.35 124.29 L 561.00 128.07 L 564.65 130.67 L 568.30 129.41 L 571.95 132.78 L 575.60 130.42 L 579.25 128.38 L 582.90 129.10 L 586.55 128.49 L 590.20 129.39 L 593.85 133.28 L 597.50 136.93 L 601.15 136.83 L 604.80 138.82 L 608.45 141.88 L 612.10 143.50 L 615.75 146.50 L 619.40 157.30 L 623.05 154.14 L 626.70 158.28 L 630.35 154.75 L 634.00 156.91 L 637.65 168.98 L 641.30 168.53 L 644.95 180.38 L 648.60 184.73 L 652.25 185.31 L 655.90 181.72 L 659.55 181.90 L 663.20 175.95 L 666.85 187.37 L 670.50 188.51 L 674.15 184.23 L 677.80 178.47 L 681.45 176.50 L 685.10 181.22 L 688.75 174.36 L 692.40 179.36 L 696.05 179.79 L 699.70 178.91 L 703.35 180.46 L 707.00 177.64 L 710.65 170.03 L 714.30 166.30 L 717.95 171.28 L 721.60 173.47 L 725.25 182.33 L 728.90 176.14 L 732.55 178.60 L 736.20 176.21 L 739.85 176.37 L 743.50 170.53 L 747.15 175.78 L 750.80 174.29 L 754.45 189.75 L 758.10 194.59 L 761.75 189.92 L 765.40 195.48 L 769.05 205.05 L 772.70 202.07 L 776.35 206.52 L 780.00 206.55" class="path-3" />
<path d="M 50.00 193.01 L 53.65 184.81 L 57.30 189.77 L 60.95 190.59 L 64.60 188.21 L 68.25 191.95 L 71.90 200.17 L 75.55 191.86 L 79.20 188.90 L 82.85 192.76 L 86.50 189.23 L 90.15 185.37 L 93.80 190.45 L 97.45 202.38 L 101.10 200.30 L 104.75 200.49 L 108.40 206.06 L 112.05 198.03 L 115.70 194.94 L 119.35 199.15 L 123.00 214.42 L 126.65 205.09 L 130.30 204.99 L 133.95 197.08 L 137.60 190.08 L 141.25 180.48 L 144.90 183.98 L 148.55 198.00 L 152.20 198.74 L 155.85 198.61 L 159.50 206.99 L 163.15 213.62 L 166.80 221.19 L 170.45 218.98 L 174.10 212.85 L 177.75 205.27 L 181.40 199.87 L 185.05 199.06 L 188.70 196.84 L 192.35 197.85 L 196.00 193.61 L 199.65 189.51 L 203.30 189.54 L 206.95 189.22 L 210.60 190.22 L 214.25 203.28 L 217.90 202.62 L 221.55 192.26 L 225.20 188.49 L 228.85 190.35 L 232.50 190.05 L 236.15 195.18 L 239.80 191.29 L 243.45 196.26 L 247.10 196.69 L 250.75 196.90 L 254.40 197.17 L 258.05 203.98 L 261.70 201.38 L 265.35 206.86 L 269.00 201.17 L 272.65 208.32 L 276.30 212.50 L 279.95 208.65 L 283.60 210.00 L 287.25 204.00 L 290.90 203.36 L 294.55 215.22 L 298.20 219.46 L 301.85 215.72 L 305.50 220.16 L 309.15 220.64 L 312.80 232.17 L 316.45 230.69 L 320.10 228.27 L 323.75 231.13 L 327.40 231.98 L 331.05 232.79 L 334.70 234.62 L 338.35 232.48 L 342.00 233.14 L 345.65 223.04 L 349.30 217.51 L 352.95 203.09 L 356.60 205.91 L 360.25 198.64 L 363.90 196.97 L 367.55 201.05 L 371.20 211.53 L 374.85 205.84 L 378.50 200.87 L 382.15 193.89 L 385.80 191.20 L 389.45 194.46 L 393.10 197.06 L 396.75 195.32 L 400.40 200.22 L 404.05 199.35 L 407.70 189.85 L 411.35 187.46 L 415.00 198.02 L 418.65 197.27 L 422.30 193.78 L 425.95 192.82 L 429.60 195.06 L 433.25 190.42 L 436.90 191.88 L 440.55 188.82 L 444.20 184.96 L 447.85 186.59 L 451.50 183.56 L 455.15 178.66 L 458.80 182.51 L 462.45 189.25 L 466.10 197.18 L 469.75 200.67 L 473.40 209.24 L 477.05 203.56 L 480.70 199.60 L 484.35 202.17 L 488.00 198.45 L 491.65 195.34 L 495.30 193.04 L 498.95 179.82 L 502.60 178.66 L 506.25 162.83 L 509.90 170.65 L 513.55 169.01 L 517.20 168.61 L 520.85 169.28 L 524.50 167.49 L 528.15 168.30 L 531.80 161.98 L 535.45 152.16 L 539.10 158.63 L 542.75 155.11 L 546.40 153.84 L 550.05 145.74 L 553.70 149.86 L 557.35 159.19 L 561.00 142.78 L 564.65 139.35 L 568.30 142.49 L 571.95 140.65 L 575.60 150.50 L 579.25 147.47 L 582.90 144.98 L 586.55 136.04 L 590.20 131.31 L 593.85 129.83 L 597.50 139.73 L 601.15 142.37 L 604.80 146.65 L 608.45 148.09 L 612.10 152.41 L 615.75 161.38 L 619.40 162.15 L 623.05 158.31 L 626.70 157.57 L 630.35 149.48 L 634.00 159.76 L 637.65 167.09 L 641.30 161.28 L 644.95 154.23 L 648.60 151.75 L 652.25 152.15 L 655.90 156.84 L 659.55 157.61 L 663.20 161.08 L 666.85 160.90 L 670.50 168.26 L 674.15 159.94 L 677.80 167.66 L 681.45 177.87 L 685.10 174.66 L 688.75 184.56 L 692.40 179.69 L 696.05 184.51 L 699.70 195.17 L 703.35 186.39 L 707.00 176.53 L 710.65 169.76 L 714.30 161.44 L 717.95 168.31 L 721.60 155.83 L 725.25 152.07 L 728.90 160.86 L 732.55 155.00 L 736.20 151.24 L 739.85 158.11 L 743.50 154.34 L 747.15 155.99 L 750.80 144.97 L 754.45 147.39 L 758.10 143.92 L 761.75 141.71 L 765.40 135.60 L 769.05 134.65 L 772.70 131.35 L 776.35 135.45 L 780.00 130.35" class="path-4" />
<line x1="50" y1="193.0" x2="780" y2="193.0" stroke="#4b5563" stroke-width="0.8" stroke-dasharray="6 3" />
</svg>