<svg xmlns="http://www.w3.org/2000/svg" viewBox="0 0 800 300" width="800" height="300">
<style>
.axis-line { stroke: #6b7280; stroke-width: 0.5; }
.axis-text { font-family: monospace; font-size: 11px; fill: #9ca3af; }
.title-text { font-family: monospace; font-size: 14px; fill: #d1d5db; font-weight: bold; }
.grid-line { stroke: #374151; stroke-width: 0.3; stroke-dasharray: 4 2; }
.path-0 { fill: none; stroke: #3b82f6; stroke-width: 2; stroke-linecap: round; opacity: 0.85; animation: draw-0 8s ease-in-out 0.0s infinite; stroke-dasharray: 1119; stroke-dashoffset: 1119;}
@keyframes draw-0 { 0% { stroke-dashoffset: 1119; } 38% { stroke-dashoffset: 0; } 62% { stroke-dashoffset: 0; } 100% { stroke-dashoffset: 1119; }}
.path-1 { fill: none; stroke: #ef4444; stroke-width: 2; stroke-linecap: round; opacity: 0.85; animation: draw-1 8s ease-in-out 0.4s infinite; stroke-dasharray: 1108; stroke-dashoffset: 1108;}
@keyframes draw-1 { 0% { stroke-dashoffset: 1108; } 38% { stroke-dashoffset: 0; } 62% { stroke-dashoffset: 0; } 100% { stroke-dashoffset: 1108; }}
.path-2 { fill: none; stroke: #22c55e; stroke-width: 2; stroke-linecap: round; opacity: 0.85; animation: draw-2 8s ease-in-out 0.8s infinite; stroke-dasharray: 1121; stroke-dashoffset: 1121;}
@keyframes draw-2 { 0% { stroke-dashoffset: 1121; } 38% { stroke-dashoffset: 0; } 62% { stroke-dashoffset: 0; } 100% { stroke-dashoffset: 1121; }}
.path-3 { fill: none; stroke: #f59e0b; stroke-width: 2; stroke-linecap: round; opacity: 0.85; animation: draw-3 8s ease-in-out 1.2000000000000002s infinite; stroke-dasharray: 1103; stroke-dashoffset: 1103;}
@keyframes draw-3 { 0% { stroke-dashoffset: 1103; } 38% { stroke-dashoffset: 0; } 62% { stroke-dashoffset: 0; } 100% { stroke-dashoffset: 1103; }}
.path-4 { fill: none; stroke: #a855f7; stroke-width: 2; stroke-linecap: round; opacity: 0.85; animation: draw-4 8s ease-in-out 1.6s infinite; stroke-dasharray: 1120; stroke-dashoffset: 1120;}
@keyframes draw-4 { 0% { stroke-dashoffset: 1120; } 38% { stroke-dashoffset: 0; } 62% { stroke-dashoffset: 0; } 100% { stroke-dashoffset: 1120; }}
</style>
<rect width="800" height="300" rx="8" fill="#0d1117" />
<line x1="50" y1="260.0" x2="780" y2="260.0" class="grid-line" />
<text x="44" y="264.0" text-anchor="end" class="axis-text">-1.7</text>
<line x1="50" y1="216.0" x2="780" y2="216.0" class="grid-line" />
<text x="44" y="220.0" text-anchor="end" class="axis-text">-1.1</text>
<line x1="50" y1="172.0" x2="780" y2="172.0" class="grid-line" />
<text x="44" y="176.0" text-anchor="end" class="axis-text">-0.4</text>
<line x1="50" y1="128.0" x2="780" y2="128.0" class="grid-line" />
<text x="44" y="132.0" text-anchor="end" class="axis-text">0.3</text>
<line x1="50" y1="84.0" x2="780" y2="84.0" class="grid-line" />
<text x="44" y="88.0" text-anchor="end" class="axis-text">0.9</text>
<line x1="50" y1="40.0" x2="780" y2="40.0" class="grid-line" />
<text x="44" y="44.0" text-anchor="end" class="axis-text">1.6</text>
<line x1="50.0" y1="40" x2="50.0" y2="260" class="grid-line" />
<line x1="196.0" y1="40" x2="196.0" y2="260" class="grid-line" />
<line x1="342.0" y1="40" x2="342.0" y2="260" class="grid-line" />
<line x1="488.0" y1="40" x2="488.0" y2="260" class="grid-line" />
<line x1="634.0" y1="40" x2="634.0" y2="260" class="grid-line" />
<line x1="780.0" y1="40" x2="780.0" y2="260" class="grid-line" />
<line x1="50" y1="260" x2="780" y2="260" class="axis-line" />
<line x1="50" y1="40" x2="50" y2="260" class="axis-line" />
<text x="400.0" y="295" text-anchor="middle" class="axis-text">t</text>
<text x="12" y="150.0" text-anchor="middle" class="axis-text" transform="rotate(-90 12 150.0)">W(t)</text>
<text x="400.0" y="22" text-anchor="middle" class="title-text">Brownian Motion</text>
<path d="M 50.00 145.02 L 53.65 137.30 L 57.30 143.57 L 60.95 141.62 L 64.60 130.59 L 68.25 135.36 L 71.90 135.99 L 75.55 144.18 L 79.20 142.03 L 82.85 138.39 L 86.50 133.87 L 90.15 122.65 L 93.80 122.65 L 97.45 122.74 L 101.10 119.24 L 104.75 117.84 L 108.40 118.39 L 112.05 113.86 L 115.70 110.18 L 119.35 121.56 L 123.00 114.85 L 126.65 108.68 L 130.30 104.38 L 133.95 104.65 L 137.60 112.15 L 141.25 109.38 L 144.90 105.66 L 148.55 109.29 L 152.20 107.44 L 155.85 100.76 L 159.50 99.29 L 163.15 95.94 L 166.80 94.77 L 170.45 99.82 L 174.10 96.95 L 177.75 96.46 L 181.40 99.19 L 185.05 97.04 L 188.70 96.19 L 192.35 95.99 L 196.00 100.36 L 199.65 93.71 L 203.30 98.37 L 206.95 97.68 L 210.60 98.79 L 214.25 96.40 L 217.90 99.32 L 221.55 107.98 L 225.20 109.04 L 228.85 105.44 L 232.50 107.13 L 236.15 104.18 L 239.80 106.22 L 243.45 108.58 L 247.10 109.99 L 250.75 104.16 L 254.40 107.63 L 258.05 106.92 L 261.70 105.61 L 265.35 103.70 L 269.00 102.71 L 272.65 110.82 L 276.30 105.94 L 279.95 105.33 L 283.60 108.47 L 287.25 108.00 L 290.90 114.03 L 294.55 111.25 L 298.20 113.54 L 301.85 108.48 L 305.50 111.67 L 309.15 103.29 L 312.80 101.18 L 316.45 96.99 L 320.10 91.84 L 323.75 92.71 L 327.40 91.59 L 331.05 91.69 L 334.70 94.67 L 338.35 104.41 L 342.00 106.89 L 345.65 115.69 L 349.30 106.86 L 352.95 109.63 L 356.60 113.62 L 360.25 114.91 L 363.90 114.61 L 367.55 117.38 L 371.20 119.71 L 374.85 122.98 L 378.50 126.21 L 382.15 137.48 L 385.80 135.72 L 389.45 129.12 L 393.10 134.45 L 396.75 127.32 L 400.40 127.82 L 404.05 121.19 L 407.70 116.05 L 411.35 115.05 L 415.00 112.31 L 418.65 117.57 L 422.30 114.29 L 425.95 115.27 L 429.60 110.83 L 433.25 109.84 L 436.90 111.06 L 440.55 107.62 L 444.20 105.87 L 447.85 110.63 L 451.50 114.25 L 455.15 109.66 L 458.80 122.29 L 462.45 119.02 L 466.10 118.85 L 469.75 120.48 L 473.40 121.38 L 477.05 127.97 L 480.70 132.22 L 484.35 138.07 L 488.00 128.43 L 491.65 126.80 L 495.30 135.98 L 498.95 130.00 L 502.60 131.66 L 506.25 125.45 L 509.90 120.02 L 513.55 117.70 L 517.20 116.03 L 520.85 117.48 L 524.50 110.09 L 528.15 116.31 L 531.80 109.67 L 535.45 113.33 L 539.10 121.95 L 542.75 115.34 L 546.40 115.57 L 550.05 118.87 L 553.70 118.38 L 557.35 118.75 L 561.00 119.83 L 564.65 122.47 L 568.30 117.51 L 571.95 116.71 L 575.60 110.67 L 579.25 119.61 L 582.90 119.47 L 586.55 116.40 L 590.20 116.53 L 593.85 114.71 L 597.50 115.22 L 601.15 112.56 L 604.80 104.27 L 608.45 102.99 L 612.10 104.76 L 615.75 106.33 L 619.40 112.93 L 623.05 117.32 L 626.70 115.85 L 630.35 113.08 L 634.00 120.06 L 637.65 116.45 L 641.30 106.98 L 644.95 106.30 L 648.60 105.07 L 652.25 112.23 L 655.90 114.17 L 659.55 113.21 L 663.20 117.31 L 666.85 113.68 L 670.50 112.95 L 674.15 103.81 L 677.80 107.95 L 681.45 110.39 L 685.10 103.41 L 688.75 106.02 L 692.40 103.22 L 696.05 96.44 L 699.70 95.66 L 703.35 91.98 L 707.00 86.69 L 710.65 87.28 L 714.30 84.91 L 717.95 83.29 L 721.60 79.62 L 725.25 81.87 L 728.90 82.08 L 732.55 95.21 L 736.20 92.12 L 739.85 96.65 L 743.50 92.83 L 747.15 91.75 L 750.80 93.79 L 754.45 90.57 L 758.10 94.90 L 761.75 97.29 L 765.40 93.37 L 769.05 87.55 L 772.70 80.66 L 776.35 83.48 L 780.00 83.24" class="path-0" />
<path d="M 50.00 145.02 L 53.65 147.76 L 57.30 151.05 L 60.95 148.04 L 64.60 145.27 L 68.25 143.70 L 71.90 143.98 L 75.55 140.00 L 79.20 143.86 L 82.85 152.32 L 86.50 149.74 L 90.15 150.48 L 93.80 154.55 L 97.45 161.37 L 101.10 158.85 L 104.75 149.60 L 108.40 144.51 L 112.05 140.43 L 115.70 146.89 L 119.35 146.74 L 123.00 145.33 L 126.65 154.43 L 130.30 155.09 L 133.95 155.91 L 137.60 159.67 L 141.25 155.74 L 144.90 154.54 L 148.55 151.55 L 152.20 158.88 L 155.85 155.68 L 159.50 156.85 L 163.15 158.80 L 166.80 163.56 L 170.45 152.35 L 174.10 148.10 L 177.75 142.91 L 181.40 142.74 L 185.05 141.62 L 188.70 140.37 L 192.35 136.20 L 196.00 136.43 L 199.65 142.92 L 203.30 152.26 L 206.95 152.52 L 210.60 160.54 L 214.25 160.14 L 217.90 162.08 L 221.55 157.50 L 225.20 161.48 L 228.85 166.34 L 232.50 166.55 L 236.15 170.72 L 239.80 168.61 L 243.45 165.98 L 247.10 169.34 L 250.75 168.02 L 254.40 167.28 L 258.05 174.97 L 261.70 180.83 L 265.35 180.68 L 269.00 181.95 L 272.65 183.93 L 276.30 176.29 L 279.95 180.77 L 283.60 181.82 L 287.25 187.41 L 290.90 186.03 L 294.55 187.50 L 298.20 197.35 L 301.85 201.53 L 305.50 207.78 L 309.15 207.08 L 312.80 209.32 L 316.45 216.49 L 320.10 214.84 L 323.75 219.66 L 327.40 209.86 L 331.05 208.10 L 334.70 212.92 L 338.35 213.27 L 342.00 213.42 L 345.65 211.23 L 349.30 214.96 L 352.95 216.71 L 356.60 211.90 L 360.25 216.27 L 363.90 219.77 L 367.55 226.16 L 371.20 227.71 L 374.85 226.80 L 378.50 226.77 L 382.15 234.62 L 385.80 228.26 L 389.45 232.89 L 393.10 229.01 L 396.75 223.59 L 400.40 218.25 L 404.05 218.79 L 407.70 221.54 L 411.35 221.20 L 415.00 217.59 L 418.65 215.58 L 422.30 212.00 L 425.95 212.95 L 429.60 214.20 L 433.25 214.12 L 436.90 218.58 L 440.55 215.79 L 444.20 207.95 L 447.85 207.91 L 451.50 200.13 L 455.15 201.81 L 458.80 202.97 L 462.45 196.78 L 466.10 201.39 L 469.75 192.36 L 473.40 187.00 L 477.05 189.46 L 480.70 197.66 L 484.35 203.89 L 488.00 211.41 L 491.65 206.50 L 495.30 207.09 L 498.95 201.81 L 502.60 204.17 L 506.25 198.63 L 509.90 198.34 L 513.55 200.97 L 517.20 196.08 L 520.85 195.88 L 524.50 196.96 L 528.15 195.82 L 531.80 192.30 L 535.45 190.42 L 539.10 188.59 L 542.75 185.35 L 546.40 184.00 L 550.05 178.21 L 553.70 177.06 L 557.35 177.78 L 561.00 176.86 L 564.65 183.82 L 568.30 181.37 L 571.95 171.28 L 575.60 182.49 L 579.25 179.17 L 582.90 179.44 L 586.55 180.54 L 590.20 179.84 L 593.85 175.41 L 597.50 178.27 L 601.15 178.44 L 604.80 186.03 L 608.45 184.91 L 612.10 183.93 L 615.75 181.09 L 619.40 177.42 L 623.05 181.84 L 626.70 187.29 L 630.35 184.34 L 634.00 190.24 L 637.65 188.84 L 641.30 183.98 L 644.95 188.98 L 648.60 185.22 L 652.25 183.47 L 655.90 174.67 L 659.55 177.80 L 663.20 178.46 L 666.85 173.81 L 670.50 179.08 L 674.15 184.34 L 677.80 184.78 L 681.45 173.54 L 685.10 177.30 L 688.75 177.42 L 692.40 175.64 L 696.05 183.35 L 699.70 180.77 L 703.35 183.07 L 707.00 186.60 L 710.65 192.84 L 714.30 192.95 L 717.95 195.92 L 721.60 200.43 L 725.25 207.17 L 728.90 203.89 L 732.55 201.64 L 736.20 196.12 L 739.85 198.52 L 743.50 196.94 L 747.15 197.17 L 750.80 200.32 L 754.45 205.84 L 758.10 210.96 L 761.75 198.85 L 765.40 198.43 L 769.05 198.14 L 772.70 195.42 L 776.35 191.49 L 780.00 181.95" class="path-1" />
<path d="M 50.00 145.02 L 53.65 139.45 L 57.30 140.90 L 60.95 144.21 L 64.60 134.24 L 68.25 135.41 L 71.90 124.51 L 75.55 122.14 L 79.20 127.67 L 82.85 125.15 L 86.50 126.03 L 90.15 133.75 L 93.80 129.73 L 97.45 130.50 L 101.10 135.43 L 104.75 133.85 L 108.40 129.42 L 112.05 123.93 L 115.70 121.52 L 119.35 129.06 L 123.00 134.09 L 126.65 138.35 L 130.30 137.58 L 133.95 139.65 L 137.60 146.60 L 141.25 139.54 L 144.90 137.61 L 148.55 126.67 L 152.20 123.47 L 155.85 127.00 L 159.50 133.97 L 163.15 128.61 L 166.80 117.76 L 170.45 110.77 L 174.10 109.40 L 177.75 110.24 L 181.40 107.51 L 185.05 108.03 L 188.70 107.54 L 192.35 107.59 L 196.00 107.07 L 199.65 110.11 L 203.30 114.10 L 206.95 114.61 L 210.60 119.05 L 214.25 117.64 L 217.90 118.81 L 221.55 116.25 L 225.20 113.50 L 228.85 112.18 L 232.50 111.48 L 236.15 109.01 L 239.80 113.42 L 243.45 116.11 L 247.10 111.03 L 250.75 110.69 L 254.40 105.03 L 258.05 101.97 L 261.70 103.94 L 265.35 102.83 L 269.00 106.67 L 272.65 112.66 L 276.30 112.55 L 279.95 112.59 L 283.60 113.85 L 287.25 105.36 L 290.90 101.50 L 294.55 98.72 L 298.20 94.33 L 301.85 89.55 L 305.50 87.43 L 309.15 86.67 L 312.80 84.81 L 316.45 79.38 L 320.10 86.69 L 323.75 89.77 L 327.40 96.05 L 331.05 101.70 L 334.70 95.99 L 338.35 96.39 L 342.00 95.03 L 345.65 99.21 L 349.30 100.24 L 352.95 94.46 L 356.60 101.73 L 360.25 99.05 L 363.90 95.73 L 367.55 97.13 L 371.20 92.08 L 374.85 89.63 L 378.50 89.15 L 382.15 84.95 L 385.80 83.02 L 389.45 79.38 L 393.10 84.99 L 396.75 80.88 L 400.40 86.43 L 404.05 86.02 L 407.70 88.60 L 411.35 89.40 L 415.00 90.50 L 418.65 85.39 L 422.30 89.80 L 425.95 89.65 L 429.60 93.27 L 433.25 91.56 L 436.90 93.07 L 440.55 93.73 L 444.20 90.87 L 447.85 92.08 L 451.50 98.36 L 455.15 101.93 L 458.80 100.19 L 462.45 99.35 L 466.10 98.03 L 469.75 89.31 L 473.40 92.15 L 477.05 81.48 L 480.70 83.82 L 484.35 83.42 L 488.00 87.66 L 491.65 88.79 L 495.30 96.63 L 498.95 102.46 L 502.60 108.90 L 506.25 112.86 L 509.90 108.33 L 513.55 101.92 L 517.20 93.98 L 520.85 95.89 L 524.50 86.34 L 528.15 89.97 L 531.80 90.77 L 535.45 92.73 L 539.10 97.50 L 542.75 99.94 L 546.40 96.86 L 550.05 92.32 L 553.70 82.94 L 557.35 78.16 L 561.00 70.23 L 564.65 66.75 L 568.30 68.26 L 571.95 66.47 L 575.60 71.37 L 579.25 72.60 L 582.90 67.25 L 586.55 72.84 L 590.20 69.97 L 593.85 71.64 L 597.50 74.51 L 601.15 71.62 L 604.80 72.82 L 608.45 75.54 L 612.10 73.54 L 615.75 80.72 L 619.40 77.86 L 623.05 83.87 L 626.70 86.85 L 630.35 90.84 L 634.00 91.24 L 637.65 86.25 L 641.30 81.31 L 644.95 82.88 L 648.60 74.70 L 652.25 74.77 L 655.90 83.15 L 659.55 74.45 L 663.20 75.83 L 666.85 74.39 L 670.50 81.69 L 674.15 80.64 L 677.80 81.67 L 681.45 75.35 L 685.10 82.57 L 688.75 75.37 L 692.40 84.74 L 696.05 88.74 L 699.70 91.91 L 703.35 99.26 L 707.00 107.78 L 710.65 104.12 L 714.30 110.39 L 717.95 113.88 L 721.60 107.42 L 725.25 109.31 L 728.90 106.51 L 732.55 107.88 L 736.20 106.82 L 739.85 106.93 L 743.50 112.80 L 747.15 124.17 L 750.80 124.29 L 754.45 125.43 L 758.10 128.55 L 761.75 128.58 L 765.40 123.06 L 769.05 120.22 L 772.70 117.23 L 776.35 112.31 L 780.00 106.07" class="path-2" />
<path d="M 50.00 145.02 L 53.65 148.47 L 57.30 147.40 L 60.95 152.79 L 64.60 150.88 L 68.25 150.87 L 71.90 148.87 L 75.55 151.57 L 79.20 146.82 L 82.85 141.86 L 86.50 143.71 L 90.15 139.69 L 93.80 138.74 L 97.45 137.14 L 101.10 140.03 L 104.75 140.68 L 108.40 141.03 L 112.05 151.95 L 115.70 149.53 L 119.35 140.39 L 123.00 142.02 L 126.65 146.23 L 130.30 150.71 L 133.95 152.29 L 137.60 143.57 L 141.25 144.21 L 144.90 150.35 L 148.55 145.96 L 152.20 144.81 L 155.85 150.04 L 159.50 150.62 L 163.15 146.33 L 166.80 142.66 L 170.45 138.81 L 174.10 139.08 L 177.75 133.26 L 181.40 137.54 L 185.05 133.86 L 188.70 129.99 L 192.35 126.30 L 196.00 132.54 L 199.65 131.79 L 203.30 130.48 L 206.95 132.97 L 210.60 128.50 L 214.25 128.81 L 217.90 128.88 L 221.55 128.40 L 225.20 126.74 L 228.85 122.23 L 232.50 111.54 L 236.15 111.05 L 239.80 113.29 L 243.45 117.21 L 247.10 120.31 L 250.75 114.93 L 254.40 118.33 L 258.05 113.43 L 261.70 113.55 L 265.35 114.31 L 269.00 115.84 L 272.65 107.67 L 276.30 100.57 L 279.95 100.35 L 283.60 95.20 L 287.25 94.68 L 290.90 100.87 L 294.55 104.05 L 298.20 100.57 L 301.85 107.11 L 305.50 105.25 L 309.15 112.77 L 312.80 119.02 L 316.45 130.24 L 320.10 125.65 L 323.75 118.89 L 327.40 125.85 L 331.05 131.02 L 334.70 125.96 L 338.35 119.72 L 342.00 117.80 L 345.65 115.03 L 349.30 114.32 L 352.95 111.98 L 356.60 111.52 L 360.25 102.99 L 363.90 101.85 L 367.55 101.68 L 371.20 104.57 L 374.85 105.71 L 378.50 105.64 L 382.15 100.31 L 385.80 107.42 L 389.45 110.67 L 393.10 107.05 L 396.75 104.75 L 400.40 103.66 L 404.05 106.25 L 407.70 113.10 L 411.35 104.36 L 415.00 108.23 L 418.65 106.75 L 422.30 103.41 L 425.95 101.58 L 429.60 102.10 L 433.25 100.27 L 436.90 102.80 L 440.55 105.37 L 444.20 110.14 L 447.85 106.68 L 451.50 109.35 L 455.15 108.73 L 458.80 101.94 L 462.45 100.43 L 466.10 103.73 L 469.75 103.52 L 473.40 105.90 L 477.05 106.08 L 480.70 107.56 L 484.35 100.99 L 488.00 95.52 L 491.65 98.61 L 495.30 93.19 L 498.95 100.43 L 502.60 99.69 L 506.25 94.63 L 509.90 91.19 L 513.55 94.90 L 517.20 92.47 L 520.85 86.84 L 524.50 88.51 L 528.15 80.06 L 531.80 80.23 L 535.45 76.58 L 539.10 78.16 L 542.75 87.20 L 546.40 82.51 L 550.05 81.80 L 553.70 76.02 L 557.35 71.44 L 561.00 65.38 L 564.65 69.92 L 568.30 73.97 L 571.95 84.04 L 575.60 88.01 L 579.25 79.41 L 582.90 80.25 L 586.55 78.54 L 590.20 80.90 L 593.85 73.39 L 597.50 76.79 L 601.15 76.81 L 604.80 77.07 L 608.45 76.66 L 612.10 80.59 L 615.75 83.59 L 619.40 81.67 L 623.05 81.03 L 626.70 84.77 L 630.35 88.65 L 634.00 81.94 L 637.65 81.35 L 641.30 81.87 L 644.95 82.65 L 648.60 89.93 L 652.25 94.60 L 655.90 90.32 L 659.55 101.15 L 663.20 101.52 L 666.85 95.83 L 670.50 98.32 L 674.15 100.18 L 677.80 97.80 L 681.45 95.61 L 685.10 92.84 L 688.75 94.19 L 692.40 92.20 L 696.05 99.31 L 699.70 101.33 L 703.35 102.91 L 707.00 99.94 L 710.65 104.24 L 714.30 96.82 L 717.95 92.18 L 721.60 96.27 L 725.25 99.04 L 728.90 101.37 L 732.55 101.25 L 736.20 95.41 L 739.85 93.62 L 743.50 89.67 L 747.15 100.19 L 750.80 101.56 L 754.45 104.15 L 758.10 103.26 L 761.75 93.52 L 765.40 86.09 L 769.05 86.73 L 772.70 94.13 L 776.35 97.92 L 780.00 89.69" class="path-3" />
<path d="M 50.00 145.02 L 53.65 142.96 L 57.30 143.85 L 60.95 142.99 L 64.60 146.49 L 68.25 151.32 L 71.90 146.73 L 75.55 149.76 L 79.20 144.57 L 82.85 146.61 L 86.50 150.72 L 90.15 150.12 L 93.80 152.06 L 97.45 140.19 L 101.10 138.41 L 104.75 135.27 L 108.40 135.85 L 112.05 130.74 L 115.70 128.12 L 119.35 133.19 L 123.00 137.30 L 126.65 138.82 L 130.30 138.64 L 133.95 141.97 L 137.60 146.26 L 141.25 150.31 L 144.90 152.75 L 148.55 153.81 L 152.20 156.05 L 155.85 156.92 L 159.50 160.78 L 163.15 163.61 L 166.80 162.39 L 170.45 161.41 L 174.10 155.84 L 177.75 162.32 L 181.40 162.45 L 185.05 158.39 L 188.70 160.08 L 192.35 158.84 L 196.00 160.16 L 199.65 156.99 L 203.30 159.81 L 206.95 161.78 L 210.60 162.42 L 214.25 169.72 L 217.90 172.05 L 221.55 172.73 L 225.20 163.86 L 228.85 160.44 L 232.50 160.41 L 236.15 152.42 L 239.80 156.40 L 243.45 149.74 L 247.10 150.15 L 250.75 140.68 L 254.40 137.16 L 258.05 148.43 L 261.70 149.14 L 265.35 142.98 L 269.00 144.90 L 272.65 140.95 L 276.30 143.34 L 279.95 144.13 L 283.60 142.42 L 287.25 147.90 L 290.90 160.76 L 294.55 162.49 L 298.20 160.47 L 301.85 154.29 L 305.50 147.31 L 309.15 144.80 L 312.80 140.60 L 316.45 144.66 L 320.10 152.86 L 323.75 151.80 L 327.40 148.08 L 331.05 138.48 L 334.70 139.05 L 338.35 144.19 L 342.00 150.36 L 345.65 153.80 L 349.30 148.47 L 352.95 138.04 L 356.60 138.97 L 360.25 142.96 L 363.90 140.01 L 367.55 127.99 L 371.20 119.78 L 374.85 119.78 L 378.50 117.55 L 382.15 115.50 L 385.80 113.41 L 389.45 111.62 L 393.10 112.08 L 396.75 110.94 L 400.40 108.98 L 404.05 116.72 L 407.70 122.36 L 411.35 124.27 L 415.00 119.90 L 418.65 123.31 L 422.30 124.54 L 425.95 116.48 L 429.60 115.98 L 433.25 110.93 L 436.90 115.49 L 440.55 107.22 L 444.20 108.49 L 447.85 113.79 L 451.50 118.13 L 455.15 113.76 L 458.80 117.43 L 462.45 118.82 L 466.10 116.58 L 469.75 113.95 L 473.40 113.79 L 477.05 112.22 L 480.70 114.33 L 484.35 112.41 L 488.00 109.12 L 491.65 115.25 L 495.30 110.49 L 498.95 119.87 L 502.60 117.28 L 506.25 125.96 L 509.90 136.46 L 513.55 137.58 L 517.20 138.79 L 520.85 135.57 L 524.50 136.03 L 528.15 133.56 L 531.80 133.84 L 535.45 125.79 L 539.10 127.05 L 542.75 131.77 L 546.40 132.12 L 550.05 135.09 L 553.70 132.64 L 557.35 124.99 L 561.00 131.24 L 564.65 132.00 L 568.30 126.47 L 571.95 133.40 L 575.60 133.11 L 579.25 132.62 L 582.90 134.23 L 586.55 136.14 L 590.20 137.74 L 593.85 141.96 L 597.50 141.55 L 601.15 149.96 L 604.80 152.71 L 608.45 150.02 L 612.10 145.84 L 615.75 148.09 L 619.40 150.32 L 623.05 148.65 L 626.70 148.74 L 630.35 151.77 L 634.00 153.31 L 637.65 149.60 L 641.30 143.97 L 644.95 147.39 L 648.60 151.39 L 652.25 145.47 L 655.90 150.78 L 659.55 144.39 L 663.20 135.28 L 666.85 131.34 L 670.50 134.46 L 674.15 134.22 L 677.80 139.81 L 681.45 146.94 L 685.10 148.37 L 688.75 150.94 L 692.40 143.87 L 696.05 137.12 L 699.70 142.84 L 703.35 139.38 L 707.00 147.58 L 710.65 142.72 L 714.30 139.09 L 717.95 137.29 L 721.60 136.61 L 725.25 132.26 L 728.90 136.33 L 732.55 134.49 L 736.20 129.85 L 739.85 122.74 L 743.50 137.05 L 747.15 143.75 L 750.80 145.78 L 754.45 148.28 L 758.10 150.91 L 761.75 151.40 L 765.40 147.38 L 769.05 144.67 L 772.70 142.70 L 776.35 138.50 L 780.00 134.28" class="path-4" />
<line x1="50" y1="145.0" x2="780" y2="145.0" stroke="#4b5563" stroke-width="0.8" stroke-dasharray="6 3" />
</svg>