<svg xmlns="http://www.w3.org/2000/svg" viewBox="0 0 800 300" width="800" height="300">
<style>
.axis-line { stroke: #6b7280; stroke-width: 0.5; }
.axis-text { font-family: monospace; font-size: 11px; fill: #9ca3af; }
.title-text { font-family: monospace; font-size: 14px; fill: #d1d5db; font-weight: bold; }
.grid-line { stroke: #374151; stroke-width: 0.3; stroke-dasharray: 4 2; }
.path-0 { fill: none; stroke: #3b82f6; stroke-width: 2; stroke-linecap: round; opacity: 0.85; animation: draw-0 8s ease-in-out 0.0s infinite; stroke-dasharray: 1005; stroke-dashoffset: 1005;}
@keyframes draw-0 { 0% { stroke-dashoffset: 1005; } 38% { stroke-dashoffset: 0; } 62% { stroke-dashoffset: 0; } 100% { stroke-dashoffset: 1005; }}
.path-1 { fill: none; stroke: #ef4444; stroke-width: 2; stroke-linecap: round; opacity: 0.85; animation: draw-1 8s ease-in-out 0.4s infinite; stroke-dasharray: 961; stroke-dashoffset: 961;}
@keyframes draw-1 { 0% { stroke-dashoffset: 961; } 38% { stroke-dashoffset: 0; } 62% { stroke-dashoffset: 0; } 100% { stroke-dashoffset: 961; }}
.path-2 { fill: none; stroke: #22c55e; stroke-width: 2; stroke-linecap: round; opacity: 0.85; animation: draw-2 8s ease-in-out 0.8s infinite; stroke-dasharray: 993; stroke-dashoffset: 993;}
@keyframes draw-2 { 0% { stroke-dashoffset: 993; } 38% { stroke-dashoffset: 0; } 62% { stroke-dashoffset: 0; } 100% { stroke-dashoffset: 993; }}
.path-3 { fill: none; stroke: #f59e0b; stroke-width: 2; stroke-linecap: round; opacity: 0.85; animation: draw-3 8s ease-in-out 1.2000000000000002s infinite; stroke-dasharray: 971; stroke-dashoffset: 971;}
@keyframes draw-3 { 0% { stroke-dashoffset: 971; } 38% { stroke-dashoffset: 0; } 62% { stroke-dashoffset: 0; } 100% { stroke-dashoffset: 971; }}
.path-4 { fill: none; stroke: #a855f7; stroke-width: 2; stroke-linecap: round; opacity: 0.85; animation: draw-4 8s ease-in-out 1.6s infinite; stroke-dasharray: 994; stroke-dashoffset: 994;}
@keyframes draw-4 { 0% { stroke-dashoffset: 994; } 38% { stroke-dashoffset: 0; } 62% { stroke-dashoffset: 0; } 100% { stroke-dashoffset: 994; }}
</style>
<rect width="800" height="300" rx="8" fill="#0d1117" />
<line x1="50" y1="260.0" x2="780" y2="260.0" class="grid-line" />
<text x="44" y="264.0" text-anchor="end" class="axis-text">-2.0</text>
<line x1="50" y1="216.0" x2="780" y2="216.0" class="grid-line" />
<text x="44" y="220.0" text-anchor="end" class="axis-text">-1.1</text>
<line x1="50" y1="172.0" x2="780" y2="172.0" class="grid-line" />
<text x="44" y="176.0" text-anchor="end" class="axis-text">-0.2</text>
<line x1="50" y1="128.0" x2="780" y2="128.0" class="grid-line" />
<text x="44" y="132.0" text-anchor="end" class="axis-text">0.7</text>
<line x1="50" y1="84.0" x2="780" y2="84.0" class="grid-line" />
<text x="44" y="88.0" text-anchor="end" class="axis-text">1.6</text>
<line x1="50" y1="40.0" x2="780" y2="40.0" class="grid-line" />
<text x="44" y="44.0" text-anchor="end" class="axis-text">2.5</text>
<line x1="50.0" y1="40" x2="50.0" y2="260" class="grid-line" />
<line x1="196.0" y1="40" x2="196.0" y2="260" class="grid-line" />
<line x1="342.0" y1="40" x2="342.0" y2="260" class="grid-line" />
<line x1="488.0" y1="40" x2="488.0" y2="260" class="grid-line" />
<line x1="634.0" y1="40" x2="634.0" y2="260" class="grid-line" />
<line x1="780.0" y1="40" x2="780.0" y2="260" class="grid-line" />
<line x1="50" y1="260" x2="780" y2="260" class="axis-line" />
<line x1="50" y1="40" x2="50" y2="260" class="axis-line" />
<text x="400.0" y="295" text-anchor="middle" class="axis-text">t</text>
<text x="12" y="150.0" text-anchor="middle" class="axis-text" transform="rotate(-90 12 150.0)">W(t)</text>
<text x="400.0" y="22" text-anchor="middle" class="title-text">Brownian Motion</text>
<path d="M 50.00 162.41 L 53.65 163.75 L 57.30 171.63 L 60.95 171.20 L 64.60 172.19 L 68.25 165.25 L 71.90 160.71 L 75.55 160.25 L 79.20 167.96 L 82.85 171.07 L 86.50 170.66 L 90.15 176.12 L 93.80 175.09 L 97.45 170.33 L 101.10 172.46 L 104.75 167.48 L 108.40 167.79 L 112.05 168.55 L 115.70 166.17 L 119.35 172.13 L 123.00 172.29 L 126.65 171.48 L 130.30 167.84 L 133.95 167.38 L 137.60 164.37 L 141.25 161.47 L 144.90 154.34 L 148.55 155.73 L 152.20 156.35 L 155.85 153.62 L 159.50 156.10 L 163.15 157.08 L 166.80 155.41 L 170.45 150.18 L 174.10 148.20 L 177.75 144.26 L 181.40 141.36 L 185.05 142.84 L 188.70 135.54 L 192.35 128.69 L 196.00 123.81 L 199.65 123.85 L 203.30 128.05 L 206.95 129.79 L 210.60 128.51 L 214.25 131.40 L 217.90 128.53 L 221.55 127.74 L 225.20 115.44 L 228.85 114.88 L 232.50 113.63 L 236.15 113.89 L 239.80 116.12 L 243.45 109.99 L 247.10 103.24 L 250.75 100.89 L 254.40 97.84 L 258.05 98.12 L 261.70 99.51 L 265.35 97.15 L 269.00 95.11 L 272.65 90.58 L 276.30 88.23 L 279.95 92.72 L 283.60 90.06 L 287.25 97.46 L 290.90 98.80 L 294.55 105.05 L 298.20 101.90 L 301.85 98.59 L 305.50 106.50 L 309.15 103.85 L 312.80 99.09 L 316.45 92.38 L 320.10 87.83 L 323.75 89.01 L 327.40 83.55 L 331.05 79.15 L 334.70 78.41 L 338.35 79.65 L 342.00 76.70 L 345.65 72.77 L 349.30 71.31 L 352.95 68.72 L 356.60 71.96 L 360.25 72.15 L 363.90 71.49 L 367.55 73.57 L 371.20 73.42 L 374.85 73.68 L 378.50 76.98 L 382.15 81.55 L 385.80 79.88 L 389.45 78.69 L 393.10 73.26 L 396.75 71.24 L 400.40 75.87 L 404.05 76.48 L 407.70 78.65 L 411.35 82.97 L 415.00 81.01 L 418.65 83.81 L 422.30 87.85 L 425.95 87.49 L 429.60 90.01 L 433.25 95.60 L 436.90 96.25 L 440.55 92.30 L 444.20 95.94 L 447.85 96.93 L 451.50 96.34 L 455.15 93.95 L 458.80 92.59 L 462.45 90.89 L 466.10 91.54 L 469.75 92.96 L 473.40 88.06 L 477.05 89.47 L 480.70 86.55 L 484.35 78.01 L 488.00 76.78 L 491.65 76.72 L 495.30 76.21 L 498.95 77.29 L 502.60 77.74 L 506.25 84.77 L 509.90 87.42 L 513.55 89.10 L 517.20 87.81 L 520.85 84.32 L 524.50 87.40 L 528.15 92.13 L 531.80 98.85 L 535.45 98.41 L 539.10 103.61 L 542.75 106.41 L 546.40 101.99 L 550.05 102.67 L 553.70 104.34 L 557.35 106.87 L 561.00 108.31 L 564.65 102.71 L 568.30 102.14 L 571.95 99.37 L 575.60 96.63 L 579.25 101.24 L 582.90 99.35 L 586.55 98.30 L 590.20 98.32 L 593.85 97.88 L 597.50 94.91 L 601.15 90.54 L 604.80 84.71 L 608.45 88.21 L 612.10 85.94 L 615.75 82.00 L 619.40 81.28 L 623.05 76.57 L 626.70 77.71 L 630.35 74.23 L 634.00 77.18 L 637.65 81.38 L 641.30 86.04 L 644.95 89.63 L 648.60 86.46 L 652.25 86.19 L 655.90 83.18 L 659.55 81.09 L 663.20 82.65 L 666.85 78.01 L 670.50 71.86 L 674.15 76.99 L 677.80 81.11 L 681.45 81.79 L 685.10 78.70 L 688.75 71.00 L 692.40 75.69 L 696.05 81.10 L 699.70 83.01 L 703.35 78.88 L 707.00 73.90 L 710.65 71.11 L 714.30 66.50 L 717.95 65.38 L 721.60 69.99 L 725.25 72.46 L 728.90 73.63 L 732.55 79.30 L 736.20 75.74 L 739.85 75.70 L 743.50 75.38 L 747.15 73.35 L 750.80 77.37 L 754.45 78.41 L 758.10 76.83 L 761.75 83.70 L 765.40 82.34 L 769.05 79.66 L 772.70 87.61 L 776.35 84.93 L 780.00 83.94" class="path-0" />
<path d="M 50.00 162.41 L 53.65 157.65 L 57.30 157.50 L 60.95 159.05 L 64.60 161.78 L 68.25 159.20 L 71.90 155.71 L 75.55 155.24 L 79.20 149.45 L 82.85 149.02 L 86.50 145.19 L 90.15 149.38 L 93.80 147.67 L 97.45 144.54 L 101.10 147.04 L 104.75 144.53 L 108.40 145.01 L 112.05 144.73 L 115.70 147.63 L 119.35 150.13 L 123.00 151.25 L 126.65 157.84 L 130.30 158.10 L 133.95 162.67 L 137.60 160.85 L 141.25 160.07 L 144.90 158.21 L 148.55 154.07 L 152.20 154.74 L 155.85 155.25 L 159.50 152.22 L 163.15 151.66 L 166.80 156.22 L 170.45 158.53 L 174.10 154.44 L 177.75 158.99 L 181.40 163.29 L 185.05 159.85 L 188.70 160.21 L 192.35 171.11 L 196.00 167.51 L 199.65 169.04 L 203.30 165.60 L 206.95 163.90 L 210.60 169.14 L 214.25 170.43 L 217.90 172.92 L 221.55 173.65 L 225.20 172.47 L 228.85 174.65 L 232.50 172.40 L 236.15 175.14 L 239.80 173.70 L 243.45 180.09 L 247.10 181.11 L 250.75 180.62 L 254.40 178.40 L 258.05 175.31 L 261.70 173.92 L 265.35 174.01 L 269.00 176.16 L 272.65 179.44 L 276.30 181.57 L 279.95 183.78 L 283.60 175.97 L 287.25 181.44 L 290.90 179.10 L 294.55 183.15 L 298.20 187.32 L 301.85 192.80 L 305.50 191.31 L 309.15 192.31 L 312.80 192.63 L 316.45 197.71 L 320.10 203.39 L 323.75 201.68 L 327.40 192.40 L 331.05 190.25 L 334.70 190.75 L 338.35 185.40 L 342.00 185.23 L 345.65 180.93 L 349.30 179.61 L 352.95 179.42 L 356.60 180.37 L 360.25 184.66 L 363.90 188.04 L 367.55 184.87 L 371.20 177.41 L 374.85 177.87 L 378.50 180.99 L 382.15 183.50 L 385.80 185.02 L 389.45 185.39 L 393.10 183.40 L 396.75 186.09 L 400.40 191.80 L 404.05 187.44 L 407.70 190.92 L 411.35 193.28 L 415.00 197.31 L 418.65 196.49 L 422.30 196.07 L 425.95 195.08 L 429.60 194.87 L 433.25 191.49 L 436.90 180.95 L 440.55 173.20 L 444.20 173.28 L 447.85 177.65 L 451.50 175.73 L 455.15 172.42 L 458.80 169.83 L 462.45 174.15 L 466.10 178.09 L 469.75 181.63 L 473.40 179.12 L 477.05 181.35 L 480.70 176.51 L 484.35 179.66 L 488.00 181.23 L 491.65 179.30 L 495.30 185.03 L 498.95 185.76 L 502.60 187.20 L 506.25 184.96 L 509.90 184.75 L 513.55 187.79 L 517.20 188.82 L 520.85 189.63 L 524.50 190.64 L 528.15 193.03 L 531.80 197.54 L 535.45 196.41 L 539.10 197.82 L 542.75 205.68 L 546.40 208.37 L 550.05 210.67 L 553.70 209.38 L 557.35 213.38 L 561.00 212.38 L 564.65 211.08 L 568.30 213.33 L 571.95 216.86 L 575.60 223.18 L 579.25 225.27 L 582.90 225.28 L 586.55 225.47 L 590.20 219.88 L 593.85 218.14 L 597.50 218.27 L 601.15 222.22 L 604.80 219.29 L 608.45 221.56 L 612.10 217.40 L 615.75 219.44 L 619.40 219.03 L 623.05 219.87 L 626.70 218.73 L 630.35 218.06 L 634.00 215.73 L 637.65 219.66 L 641.30 220.24 L 644.95 216.31 L 648.60 210.64 L 652.25 211.22 L 655.90 205.13 L 659.55 207.82 L 663.20 210.07 L 666.85 211.12 L 670.50 210.71 L 674.15 211.46 L 677.80 214.85 L 681.45 218.44 L 685.10 222.28 L 688.75 221.98 L 692.40 224.35 L 696.05 226.94 L 699.70 226.59 L 703.35 219.39 L 707.00 216.77 L 710.65 216.87 L 714.30 218.03 L 717.95 220.82 L 721.60 220.16 L 725.25 220.44 L 728.90 218.21 L 732.55 214.57 L 736.20 217.65 L 739.85 222.24 L 743.50 222.88 L 747.15 222.08 L 750.80 224.64 L 754.45 223.92 L 758.10 222.93 L 761.75 229.03 L 765.40 228.80 L 769.05 230.54 L 772.70 234.62 L 776.35 233.64 L 780.00 234.00" class="path-1" />
<path d="M 50.00 162.41 L 53.65 162.99 L 57.30 168.05 L 60.95 173.08 L 64.60 172.51 L 68.25 174.85 L 71.90 173.18 L 75.55 175.59 L 79.20 180.08 L 82.85 184.27 L 86.50 186.17 L 90.15 182.32 L 93.80 181.83 L 97.45 181.72 L 101.10 188.86 L 104.75 188.14 L 108.40 190.88 L 112.05 188.14 L 115.70 190.58 L 119.35 187.06 L 123.00 189.92 L 126.65 186.60 L 130.30 190.46 L 133.95 193.31 L 137.60 193.02 L 141.25 193.41 L 144.90 201.33 L 148.55 198.62 L 152.20 202.80 L 155.85 202.14 L 159.50 198.97 L 163.15 202.15 L 166.80 200.57 L 170.45 196.19 L 174.10 199.07 L 177.75 204.16 L 181.40 205.61 L 185.05 208.07 L 188.70 210.16 L 192.35 214.97 L 196.00 216.01 L 199.65 214.92 L 203.30 208.74 L 206.95 210.43 L 210.60 213.48 L 214.25 215.47 L 217.90 211.51 L 221.55 211.85 L 225.20 205.99 L 228.85 204.75 L 232.50 207.74 L 236.15 206.59 L 239.80 197.33 L 243.45 196.95 L 247.10 197.77 L 250.75 196.04 L 254.40 195.49 L 258.05 199.81 L 261.70 203.18 L 265.35 205.03 L 269.00 205.56 L 272.65 210.19 L 276.30 214.24 L 279.95 214.44 L 283.60 217.05 L 287.25 219.52 L 290.90 216.17 L 294.55 216.26 L 298.20 213.33 L 301.85 220.05 L 305.50 219.43 L 309.15 213.94 L 312.80 209.08 L 316.45 207.55 L 320.10 207.88 L 323.75 206.47 L 327.40 210.51 L 331.05 206.91 L 334.70 209.65 L 338.35 219.19 L 342.00 214.42 L 345.65 215.26 L 349.30 216.31 L 352.95 217.25 L 356.60 220.13 L 360.25 217.31 L 363.90 214.59 L 367.55 219.98 L 371.20 220.84 L 374.85 223.02 L 378.50 228.66 L 382.15 230.53 L 385.80 226.09 L 389.45 227.06 L 393.10 229.76 L 396.75 228.91 L 400.40 223.27 L 404.05 225.29 L 407.70 224.70 L 411.35 227.39 L 415.00 231.86 L 418.65 233.16 L 422.30 233.12 L 425.95 233.24 L 429.60 226.45 L 433.25 227.83 L 436.90 227.39 L 440.55 219.22 L 444.20 224.24 L 447.85 218.16 L 451.50 219.50 L 455.15 221.35 L 458.80 221.00 L 462.45 217.01 L 466.10 212.83 L 469.75 210.19 L 473.40 210.47 L 477.05 211.23 L 480.70 209.17 L 484.35 215.17 L 488.00 216.52 L 491.65 212.05 L 495.30 212.79 L 498.95 212.22 L 502.60 204.07 L 506.25 200.64 L 509.90 202.27 L 513.55 199.55 L 517.20 196.34 L 520.85 201.86 L 524.50 202.89 L 528.15 201.85 L 531.80 208.43 L 535.45 204.17 L 539.10 206.62 L 542.75 206.10 L 546.40 209.97 L 550.05 215.33 L 553.70 212.52 L 557.35 210.11 L 561.00 207.00 L 564.65 211.22 L 568.30 212.71 L 571.95 215.36 L 575.60 217.46 L 579.25 217.77 L 582.90 226.28 L 586.55 230.47 L 590.20 228.66 L 593.85 225.38 L 597.50 230.64 L 601.15 233.45 L 604.80 228.12 L 608.45 233.59 L 612.10 229.08 L 615.75 220.28 L 619.40 219.12 L 623.05 217.03 L 626.70 219.33 L 630.35 218.30 L 634.00 217.56 L 637.65 208.60 L 641.30 211.36 L 644.95 207.67 L 648.60 211.53 L 652.25 210.38 L 655.90 205.82 L 659.55 206.88 L 663.20 209.23 L 666.85 206.75 L 670.50 210.29 L 674.15 212.66 L 677.80 211.34 L 681.45 207.66 L 685.10 204.50 L 688.75 206.08 L 692.40 203.30 L 696.05 207.77 L 699.70 210.27 L 703.35 211.11 L 707.00 209.88 L 710.65 210.75 L 714.30 212.30 L 717.95 214.92 L 721.60 213.69 L 725.25 208.80 L 728.90 201.57 L 732.55 198.80 L 736.20 197.45 L 739.85 195.62 L 743.50 196.92 L 747.15 197.04 L 750.80 200.44 L 754.45 202.74 L 758.10 208.09 L 761.75 203.23 L 765.40 200.88 L 769.05 197.15 L 772.70 191.84 L 776.35 191.81 L 780.00 194.55" class="path-2" />
<path d="M 50.00 162.41 L 53.65 166.04 L 57.30 160.17 L 60.95 156.89 L 64.60 156.21 L 68.25 157.69 L 71.90 157.39 L 75.55 152.82 L 79.20 151.24 L 82.85 151.61 L 86.50 157.29 L 90.15 158.77 L 93.80 158.26 L 97.45 155.23 L 101.10 150.83 L 104.75 152.22 L 108.40 151.82 L 112.05 153.81 L 115.70 151.89 L 119.35 152.56 L 123.00 152.61 L 126.65 148.26 L 130.30 149.47 L 133.95 150.63 L 137.60 148.02 L 141.25 145.17 L 144.90 150.73 L 148.55 151.58 L 152.20 154.90 L 155.85 152.93 L 159.50 143.08 L 163.15 139.01 L 166.80 136.63 L 170.45 136.04 L 174.10 134.38 L 177.75 130.25 L 181.40 128.35 L 185.05 124.19 L 188.70 123.91 L 192.35 122.97 L 196.00 123.82 L 199.65 122.41 L 203.30 119.72 L 206.95 126.32 L 210.60 130.18 L 214.25 132.62 L 217.90 127.97 L 221.55 132.68 L 225.20 133.26 L 228.85 133.30 L 232.50 136.28 L 236.15 140.94 L 239.80 142.71 L 243.45 146.29 L 247.10 144.16 L 250.75 142.40 L 254.40 137.59 L 258.05 133.24 L 261.70 136.25 L 265.35 137.64 L 269.00 137.32 L 272.65 135.35 L 276.30 135.60 L 279.95 136.15 L 283.60 140.73 L 287.25 139.56 L 290.90 136.53 L 294.55 130.75 L 298.20 134.47 L 301.85 134.05 L 305.50 128.57 L 309.15 136.03 L 312.80 139.92 L 316.45 141.40 L 320.10 146.03 L 323.75 143.60 L 327.40 142.38 L 331.05 140.71 L 334.70 139.89 L 338.35 136.00 L 342.00 140.50 L 345.65 147.37 L 349.30 148.01 L 352.95 145.63 L 356.60 147.95 L 360.25 151.48 L 363.90 158.69 L 367.55 159.27 L 371.20 154.65 L 374.85 157.05 L 378.50 158.21 L 382.15 148.78 L 385.80 146.15 L 389.45 143.17 L 393.10 144.80 L 396.75 148.55 L 400.40 146.85 L 404.05 146.80 L 407.70 142.31 L 411.35 148.19 L 415.00 153.63 L 418.65 154.62 L 422.30 151.57 L 425.95 148.87 L 429.60 151.84 L 433.25 151.00 L 436.90 158.67 L 440.55 161.82 L 444.20 160.11 L 447.85 162.68 L 451.50 163.26 L 455.15 169.18 L 458.80 168.64 L 462.45 170.75 L 466.10 171.96 L 469.75 177.28 L 473.40 179.64 L 477.05 178.81 L 480.70 181.23 L 484.35 179.55 L 488.00 183.40 L 491.65 181.74 L 495.30 183.27 L 498.95 187.91 L 502.60 190.10 L 506.25 190.81 L 509.90 196.73 L 513.55 195.17 L 517.20 191.75 L 520.85 191.93 L 524.50 197.11 L 528.15 200.57 L 531.80 199.68 L 535.45 198.06 L 539.10 196.06 L 542.75 192.32 L 546.40 191.76 L 550.05 191.05 L 553.70 190.47 L 557.35 186.83 L 561.00 189.59 L 564.65 193.58 L 568.30 190.95 L 571.95 188.87 L 575.60 190.90 L 579.25 187.26 L 582.90 193.35 L 586.55 194.50 L 590.20 197.49 L 593.85 198.98 L 597.50 201.02 L 601.15 199.62 L 604.80 204.26 L 608.45 201.03 L 612.10 200.55 L 615.75 196.80 L 619.40 197.31 L 623.05 198.10 L 626.70 196.72 L 630.35 197.28 L 634.00 197.43 L 637.65 195.27 L 641.30 201.48 L 644.95 200.18 L 648.60 203.39 L 652.25 205.66 L 655.90 206.41 L 659.55 203.65 L 663.20 202.19 L 666.85 205.28 L 670.50 198.56 L 674.15 201.28 L 677.80 205.53 L 681.45 212.96 L 685.10 209.81 L 688.75 207.00 L 692.40 206.82 L 696.05 209.58 L 699.70 213.67 L 703.35 216.68 L 707.00 218.96 L 710.65 223.23 L 714.30 224.34 L 717.95 223.29 L 721.60 218.90 L 725.25 215.09 L 728.90 208.49 L 732.55 206.44 L 736.20 203.13 L 739.85 202.77 L 743.50 199.15 L 747.15 198.52 L 750.80 198.70 L 754.45 194.03 L 758.10 188.23 L 761.75 189.93 L 765.40 192.85 L 769.05 188.23 L 772.70 185.45 L 776.35 181.73 L 780.00 179.29" class="path-3" />
<path d="M 50.00 162.41 L 53.65 165.43 L 57.30 167.83 L 60.95 171.43 L 64.60 171.03 L 68.25 168.35 L 71.90 167.86 L 75.55 169.09 L 79.20 171.06 L 82.85 172.30 L 86.50 178.99 L 90.15 180.40 L 93.80 180.90 L 97.45 188.04 L 101.10 188.15 L 104.75 190.48 L 108.40 191.93 L 112.05 194.80 L 115.70 188.28 L 119.35 194.16 L 123.00 196.99 L 126.65 190.92 L 130.30 190.15 L 133.95 192.68 L 137.60 188.96 L 141.25 185.04 L 144.90 183.16 L 148.55 182.10 L 152.20 184.15 L 155.85 183.61 L 159.50 180.85 L 163.15 180.92 L 166.80 182.53 L 170.45 180.35 L 174.10 178.89 L 177.75 179.60 L 181.40 182.54 L 185.05 180.50 L 188.70 180.86 L 192.35 176.72 L 196.00 181.29 L 199.65 181.30 L 203.30 177.32 L 206.95 182.20 L 210.60 183.12 L 214.25 182.20 L 217.90 177.04 L 221.55 168.63 L 225.20 173.55 L 228.85 175.78 L 232.50 171.99 L 236.15 170.90 L 239.80 177.84 L 243.45 181.12 L 247.10 177.81 L 250.75 178.00 L 254.40 174.02 L 258.05 176.66 L 261.70 173.83 L 265.35 176.66 L 269.00 172.99 L 272.65 167.80 L 276.30 162.31 L 279.95 156.02 L 283.60 153.72 L 287.25 155.28 L 290.90 150.99 L 294.55 155.15 L 298.20 156.87 L 301.85 152.80 L 305.50 154.22 L 309.15 155.39 L 312.80 155.50 L 316.45 157.34 L 320.10 155.50 L 323.75 151.34 L 327.40 153.96 L 331.05 158.26 L 334.70 162.69 L 338.35 163.74 L 342.00 164.43 L 345.65 155.84 L 349.30 155.26 L 352.95 155.53 L 356.60 150.45 L 360.25 144.37 L 363.90 146.64 L 367.55 150.53 L 371.20 155.44 L 374.85 156.88 L 378.50 156.53 L 382.15 158.25 L 385.80 155.44 L 389.45 157.07 L 393.10 158.23 L 396.75 160.33 L 400.40 157.54 L 404.05 157.80 L 407.70 155.11 L 411.35 153.74 L 415.00 149.47 L 418.65 146.85 L 422.30 151.27 L 425.95 141.09 L 429.60 139.17 L 433.25 142.10 L 436.90 143.00 L 440.55 142.69 L 444.20 145.94 L 447.85 144.02 L 451.50 140.12 L 455.15 140.84 L 458.80 147.16 L 462.45 150.92 L 466.10 148.83 L 469.75 149.81 L 473.40 150.53 L 477.05 150.85 L 480.70 148.43 L 484.35 142.22 L 488.00 140.47 L 491.65 144.33 L 495.30 138.86 L 498.95 132.07 L 502.60 125.88 L 506.25 125.65 L 509.90 125.95 L 513.55 131.30 L 517.20 128.91 L 520.85 125.79 L 524.50 123.79 L 528.15 126.23 L 531.80 125.57 L 535.45 126.57 L 539.10 121.19 L 542.75 124.54 L 546.40 123.58 L 550.05 125.80 L 553.70 126.18 L 557.35 124.21 L 561.00 120.89 L 564.65 119.11 L 568.30 123.95 L 571.95 126.01 L 575.60 126.19 L 579.25 128.27 L 582.90 126.86 L 586.55 126.16 L 590.20 130.03 L 593.85 128.72 L 597.50 131.65 L 601.15 124.75 L 604.80 125.18 L 608.45 127.83 L 612.10 135.13 L 615.75 139.93 L 619.40 141.46 L 623.05 137.52 L 626.70 136.11 L 630.35 134.53 L 634.00 135.48 L 637.65 130.92 L 641.30 128.27 L 644.95 123.63 L 648.60 120.04 L 652.25 120.68 L 655.90 123.10 L 659.55 119.45 L 663.20 120.84 L 666.85 117.12 L 670.50 122.71 L 674.15 131.96 L 677.80 135.13 L 681.45 137.06 L 685.10 137.19 L 688.75 130.34 L 692.40 128.99 L 696.05 132.32 L 699.70 132.36 L 703.35 125.32 L 707.00 130.80 L 710.65 130.24 L 714.30 134.38 L 717.95 133.94 L 721.60 138.34 L 725.25 141.85 L 728.90 141.85 L 732.55 144.96 L 736.20 150.35 L 739.85 148.55 L 743.50 152.76 L 747.15 150.90 L 750.80 154.73 L 754.45 151.49 L 758.10 153.37 L 761.75 150.01 L 765.40 145.15 L 769.05 139.68 L 772.70 137.15 L 776.35 141.15 L 780.00 134.97" class="path-4" />
<line x1="50" y1="162.4" x2="780" y2="162.4" stroke="#4b5563" stroke-width="0.8" stroke-dasharray="6 3" />
</svg>