<svg xmlns="http://www.w3.org/2000/svg" viewBox="0 0 800 300" width="800" height="300">
<style>
.axis-line { stroke: #6b7280; stroke-width: 0.5; }
.axis-text { font-family: monospace; font-size: 11px; fill: #9ca3af; }
.title-text { font-family: monospace; font-size: 14px; fill: #d1d5db; font-weight: bold; }
.grid-line { stroke: #374151; stroke-width: 0.3; stroke-dasharray: 4 2; }
.path-0 { fill: none; stroke: #3b82f6; stroke-width: 2; stroke-linecap: round; opacity: 0.85; animation: draw-0 8s ease-in-out 0.0s infinite; stroke-dasharray: 1032; stroke-dashoffset: 1032;}
@keyframes draw-0 { 0% { stroke-dashoffset: 1032; } 38% { stroke-dashoffset: 0; } 62% { stroke-dashoffset: 0; } 100% { stroke-dashoffset: 1032; }}
.path-1 { fill: none; stroke: #ef4444; stroke-width: 2; stroke-linecap: round; opacity: 0.85; animation: draw-1 8s ease-in-out 0.4s infinite; stroke-dasharray: 1043; stroke-dashoffset: 1043;}
@keyframes draw-1 { 0% { stroke-dashoffset: 1043; } 38% { stroke-dashoffset: 0; } 62% { stroke-dashoffset: 0; } 100% { stroke-dashoffset: 1043; }}
.path-2 { fill: none; stroke: #22c55e; stroke-width: 2; stroke-linecap: round; opacity: 0.85; animation: draw-2 8s ease-in-out 0.8s infinite; stroke-dasharray: 1026; stroke-dashoffset: 1026;}
@keyframes draw-2 { 0% { stroke-dashoffset: 1026; } 38% { stroke-dashoffset: 0; } 62% { stroke-dashoffset: 0; } 100% { stroke-dashoffset: 1026; }}
.path-3 { fill: none; stroke: #f59e0b; stroke-width: 2; stroke-linecap: round; opacity: 0.85; animation: draw-3 8s ease-in-out 1.2000000000000002s infinite; stroke-dasharray: 1099; stroke-dashoffset: 1099;}
@keyframes draw-3 { 0% { stroke-dashoffset: 1099; } 38% { stroke-dashoffset: 0; } 62% { stroke-dashoffset: 0; } 100% { stroke-dashoffset: 1099; }}
.path-4 { fill: none; stroke: #a855f7; stroke-width: 2; stroke-linecap: round; opacity: 0.85; animation: draw-4 8s ease-in-out 1.6s infinite; stroke-dasharray: 1075; stroke-dashoffset: 1075;}
@keyframes draw-4 { 0% { stroke-dashoffset: 1075; } 38% { stroke-dashoffset: 0; } 62% { stroke-dashoffset: 0; } 100% { stroke-dashoffset: 1075; }}
</style>
<rect width="800" height="300" rx="8" fill="#0d1117" />
<line x1="50" y1="260.0" x2="780" y2="260.0" class="grid-line" />
<text x="44" y="264.0" text-anchor="end" class="axis-text">-1.6</text>
<line x1="50" y1="216.0" x2="780" y2="216.0" class="grid-line" />
<text x="44" y="220.0" text-anchor="end" class="axis-text">-0.9</text>
<line x1="50" y1="172.0" x2="780" y2="172.0" class="grid-line" />
<text x="44" y="176.0" text-anchor="end" class="axis-text">-0.2</text>
<line x1="50" y1="128.0" x2="780" y2="128.0" class="grid-line" />
<text x="44" y="132.0" text-anchor="end" class="axis-text">0.6</text>
<line x1="50" y1="84.0" x2="780" y2="84.0" class="grid-line" />
<text x="44" y="88.0" text-anchor="end" class="axis-text">1.3</text>
<line x1="50" y1="40.0" x2="780" y2="40.0" class="grid-line" />
<text x="44" y="44.0" text-anchor="end" class="axis-text">2.0</text>
<line x1="50.0" y1="40" x2="50.0" y2="260" class="grid-line" />
<line x1="196.0" y1="40" x2="196.0" y2="260" class="grid-line" />
<line x1="342.0" y1="40" x2="342.0" y2="260" class="grid-line" />
<line x1="488.0" y1="40" x2="488.0" y2="260" class="grid-line" />
<line x1="634.0" y1="40" x2="634.0" y2="260" class="grid-line" />
<line x1="780.0" y1="40" x2="780.0" y2="260" class="grid-line" />
<line x1="50" y1="260" x2="780" y2="260" class="axis-line" />
<line x1="50" y1="40" x2="50" y2="260" class="axis-line" />
<text x="400.0" y="295" text-anchor="middle" class="axis-text">t</text>
<text x="12" y="150.0" text-anchor="middle" class="axis-text" transform="rotate(-90 12 150.0)">W(t)</text>
<text x="400.0" y="22" text-anchor="middle" class="title-text">Brownian Motion</text>
<path d="M 50.00 162.45 L 53.65 159.78 L 57.30 159.29 L 60.95 159.52 L 64.60 154.69 L 68.25 163.64 L 71.90 162.92 L 75.55 160.24 L 79.20 168.08 L 82.85 162.98 L 86.50 165.83 L 90.15 162.33 L 93.80 163.19 L 97.45 164.90 L 101.10 157.28 L 104.75 152.12 L 108.40 144.99 L 112.05 140.40 L 115.70 144.85 L 119.35 141.18 L 123.00 139.34 L 126.65 142.07 L 130.30 143.86 L 133.95 138.21 L 137.60 140.04 L 141.25 138.73 L 144.90 134.06 L 148.55 129.71 L 152.20 127.30 L 155.85 127.57 L 159.50 124.23 L 163.15 123.43 L 166.80 125.45 L 170.45 121.05 L 174.10 121.45 L 177.75 127.85 L 181.40 123.13 L 185.05 114.44 L 188.70 111.88 L 192.35 119.39 L 196.00 123.29 L 199.65 121.48 L 203.30 118.28 L 206.95 119.00 L 210.60 115.25 L 214.25 112.64 L 217.90 110.37 L 221.55 109.93 L 225.20 111.05 L 228.85 111.62 L 232.50 115.18 L 236.15 113.97 L 239.80 117.56 L 243.45 115.68 L 247.10 116.18 L 250.75 111.62 L 254.40 115.31 L 258.05 111.78 L 261.70 109.17 L 265.35 103.11 L 269.00 110.31 L 272.65 108.35 L 276.30 113.16 L 279.95 107.88 L 283.60 104.43 L 287.25 106.79 L 290.90 103.56 L 294.55 99.92 L 298.20 107.35 L 301.85 112.08 L 305.50 110.73 L 309.15 109.66 L 312.80 114.31 L 316.45 115.48 L 320.10 115.28 L 323.75 113.97 L 327.40 113.32 L 331.05 113.97 L 334.70 111.95 L 338.35 111.97 L 342.00 104.61 L 345.65 105.69 L 349.30 104.36 L 352.95 103.07 L 356.60 100.62 L 360.25 104.54 L 363.90 109.57 L 367.55 105.47 L 371.20 105.90 L 374.85 103.71 L 378.50 110.78 L 382.15 104.42 L 385.80 107.51 L 389.45 98.56 L 393.10 94.71 L 396.75 95.65 L 400.40 98.10 L 404.05 100.74 L 407.70 100.66 L 411.35 92.08 L 415.00 88.62 L 418.65 85.88 L 422.30 86.91 L 425.95 91.99 L 429.60 92.09 L 433.25 96.63 L 436.90 89.33 L 440.55 89.36 L 444.20 92.71 L 447.85 86.73 L 451.50 91.75 L 455.15 97.15 L 458.80 105.26 L 462.45 102.01 L 466.10 98.49 L 469.75 97.97 L 473.40 105.49 L 477.05 106.36 L 480.70 107.34 L 484.35 110.06 L 488.00 107.10 L 491.65 103.99 L 495.30 110.78 L 498.95 111.88 L 502.60 118.98 L 506.25 119.97 L 509.90 115.07 L 513.55 115.99 L 517.20 122.32 L 520.85 121.51 L 524.50 125.22 L 528.15 125.00 L 531.80 127.32 L 535.45 128.19 L 539.10 120.91 L 542.75 118.25 L 546.40 118.36 L 550.05 119.00 L 553.70 120.81 L 557.35 123.83 L 561.00 126.09 L 564.65 134.83 L 568.30 130.73 L 571.95 127.95 L 575.60 132.15 L 579.25 134.56 L 582.90 136.66 L 586.55 137.73 L 590.20 145.93 L 593.85 142.29 L 597.50 148.01 L 601.15 143.58 L 604.80 142.74 L 608.45 142.78 L 612.10 149.14 L 615.75 143.71 L 619.40 146.96 L 623.05 151.02 L 626.70 149.17 L 630.35 149.20 L 634.00 145.34 L 637.65 149.52 L 641.30 151.46 L 644.95 148.77 L 648.60 149.57 L 652.25 149.68 L 655.90 153.05 L 659.55 151.23 L 663.20 149.21 L 666.85 148.05 L 670.50 145.05 L 674.15 144.37 L 677.80 143.77 L 681.45 149.76 L 685.10 147.75 L 688.75 146.00 L 692.40 142.64 L 696.05 143.47 L 699.70 149.11 L 703.35 148.95 L 707.00 146.30 L 710.65 148.44 L 714.30 145.54 L 717.95 148.45 L 721.60 150.64 L 725.25 155.59 L 728.90 158.54 L 732.55 160.64 L 736.20 160.29 L 739.85 153.45 L 743.50 154.68 L 747.15 149.62 L 750.80 150.97 L 754.45 154.80 L 758.10 159.83 L 761.75 164.08 L 765.40 166.22 L 769.05 167.54 L 772.70 165.61 L 776.35 164.78 L 780.00 169.81" class="path-0" />
<path d="M 50.00 162.45 L 53.65 163.05 L 57.30 160.92 L 60.95 165.33 L 64.60 167.56 L 68.25 160.59 L 71.90 151.15 L 75.55 151.27 L 79.20 154.90 L 82.85 157.15 L 86.50 151.12 L 90.15 151.42 L 93.80 155.69 L 97.45 153.27 L 101.10 157.01 L 104.75 155.81 L 108.40 151.73 L 112.05 153.89 L 115.70 158.22 L 119.35 163.44 L 123.00 163.66 L 126.65 162.48 L 130.30 165.77 L 133.95 167.01 L 137.60 165.09 L 141.25 171.18 L 144.90 175.55 L 148.55 169.15 L 152.20 162.02 L 155.85 164.59 L 159.50 160.07 L 163.15 158.47 L 166.80 160.25 L 170.45 161.50 L 174.10 162.40 L 177.75 155.82 L 181.40 155.76 L 185.05 152.65 L 188.70 154.37 L 192.35 162.01 L 196.00 160.73 L 199.65 159.37 L 203.30 158.12 L 206.95 162.48 L 210.60 155.61 L 214.25 155.20 L 217.90 152.23 L 221.55 152.91 L 225.20 149.98 L 228.85 148.28 L 232.50 142.08 L 236.15 141.10 L 239.80 141.26 L 243.45 139.37 L 247.10 129.61 L 250.75 130.69 L 254.40 128.72 L 258.05 123.65 L 261.70 121.29 L 265.35 109.16 L 269.00 104.16 L 272.65 100.52 L 276.30 104.73 L 279.95 106.51 L 283.60 98.90 L 287.25 102.50 L 290.90 102.78 L 294.55 106.06 L 298.20 112.56 L 301.85 110.84 L 305.50 111.81 L 309.15 105.20 L 312.80 109.73 L 316.45 101.96 L 320.10 99.86 L 323.75 94.17 L 327.40 90.55 L 331.05 84.83 L 334.70 88.45 L 338.35 88.37 L 342.00 89.20 L 345.65 90.20 L 349.30 84.22 L 352.95 86.25 L 356.60 80.49 L 360.25 76.29 L 363.90 70.90 L 367.55 71.51 L 371.20 70.82 L 374.85 73.49 L 378.50 79.39 L 382.15 82.88 L 385.80 83.50 L 389.45 80.49 L 393.10 86.02 L 396.75 88.74 L 400.40 87.59 L 404.05 77.53 L 407.70 83.61 L 411.35 81.91 L 415.00 80.47 L 418.65 72.79 L 422.30 71.11 L 425.95 70.77 L 429.60 72.69 L 433.25 74.97 L 436.90 73.24 L 440.55 76.30 L 444.20 73.47 L 447.85 78.79 L 451.50 80.45 L 455.15 82.81 L 458.80 90.73 L 462.45 89.31 L 466.10 94.75 L 469.75 88.85 L 473.40 88.94 L 477.05 86.55 L 480.70 78.22 L 484.35 80.58 L 488.00 79.41 L 491.65 77.93 L 495.30 78.47 L 498.95 78.05 L 502.60 78.01 L 506.25 79.56 L 509.90 77.91 L 513.55 75.25 L 517.20 84.72 L 520.85 86.55 L 524.50 88.40 L 528.15 87.07 L 531.80 85.67 L 535.45 87.91 L 539.10 86.57 L 542.75 89.35 L 546.40 86.49 L 550.05 84.19 L 553.70 86.02 L 557.35 84.22 L 561.00 77.73 L 564.65 80.52 L 568.30 80.64 L 571.95 85.50 L 575.60 82.70 L 579.25 82.42 L 582.90 78.95 L 586.55 82.97 L 590.20 79.12 L 593.85 76.78 L 597.50 75.12 L 601.15 77.98 L 604.80 73.37 L 608.45 71.45 L 612.10 71.70 L 615.75 71.36 L 619.40 77.51 L 623.05 80.62 L 626.70 80.49 L 630.35 81.75 L 634.00 87.61 L 637.65 92.51 L 641.30 92.80 L 644.95 90.14 L 648.60 85.75 L 652.25 81.66 L 655.90 84.99 L 659.55 88.49 L 663.20 88.03 L 666.85 88.47 L 670.50 87.71 L 674.15 77.98 L 677.80 74.25 L 681.45 74.12 L 685.10 65.38 L 688.75 71.01 L 692.40 68.68 L 696.05 72.41 L 699.70 77.75 L 703.35 77.36 L 707.00 83.17 L 710.65 84.24 L 714.30 81.02 L 717.95 74.80 L 721.60 72.16 L 725.25 72.15 L 728.90 69.45 L 732.55 73.75 L 736.20 74.05 L 739.85 73.45 L 743.50 77.79 L 747.15 79.44 L 750.80 79.73 L 754.45 85.87 L 758.10 90.04 L 761.75 83.17 L 765.40 77.04 L 769.05 79.86 L 772.70 84.52 L 776.35 82.65 L 780.00 86.16" class="path-1" />
<path d="M 50.00 162.45 L 53.65 163.21 L 57.30 166.92 L 60.95 159.30 L 64.60 156.20 L 68.25 158.84 L 71.90 160.19 L 75.55 153.48 L 79.20 153.96 L 82.85 159.35 L 86.50 150.88 L 90.15 150.88 L 93.80 145.33 L 97.45 145.52 L 101.10 146.02 L 104.75 142.11 L 108.40 143.18 L 112.05 152.03 L 115.70 155.18 L 119.35 151.26 L 123.00 155.36 L 126.65 160.69 L 130.30 164.67 L 133.95 162.31 L 137.60 158.77 L 141.25 159.28 L 144.90 163.36 L 148.55 160.66 L 152.20 164.59 L 155.85 165.59 L 159.50 170.92 L 163.15 178.77 L 166.80 179.67 L 170.45 180.17 L 174.10 179.81 L 177.75 181.78 L 181.40 178.47 L 185.05 177.68 L 188.70 182.27 L 192.35 180.97 L 196.00 183.36 L 199.65 183.31 L 203.30 184.75 L 206.95 188.93 L 210.60 188.79 L 214.25 189.77 L 217.90 195.27 L 221.55 197.79 L 225.20 200.76 L 228.85 192.34 L 232.50 191.56 L 236.15 185.81 L 239.80 187.67 L 243.45 184.43 L 247.10 183.50 L 250.75 185.09 L 254.40 184.67 L 258.05 179.91 L 261.70 180.58 L 265.35 175.85 L 269.00 181.17 L 272.65 180.64 L 276.30 180.95 L 279.95 183.48 L 283.60 185.43 L 287.25 186.63 L 290.90 188.46 L 294.55 188.52 L 298.20 187.57 L 301.85 194.43 L 305.50 196.48 L 309.15 203.26 L 312.80 201.63 L 316.45 205.16 L 320.10 200.45 L 323.75 197.35 L 327.40 197.70 L 331.05 200.59 L 334.70 198.96 L 338.35 193.84 L 342.00 196.11 L 345.65 191.91 L 349.30 194.07 L 352.95 190.64 L 356.60 186.66 L 360.25 177.41 L 363.90 175.09 L 367.55 174.41 L 371.20 172.78 L 374.85 170.53 L 378.50 170.85 L 382.15 173.02 L 385.80 168.80 L 389.45 171.30 L 393.10 167.46 L 396.75 174.40 L 400.40 174.32 L 404.05 173.16 L 407.70 173.02 L 411.35 176.31 L 415.00 179.21 L 418.65 178.48 L 422.30 179.01 L 425.95 173.88 L 429.60 171.89 L 433.25 168.90 L 436.90 165.36 L 440.55 158.89 L 444.20 158.20 L 447.85 150.59 L 451.50 152.60 L 455.15 146.78 L 458.80 158.09 L 462.45 157.23 L 466.10 159.10 L 469.75 158.09 L 473.40 153.64 L 477.05 148.93 L 480.70 152.83 L 484.35 148.64 L 488.00 141.69 L 491.65 139.65 L 495.30 141.18 L 498.95 137.07 L 502.60 126.68 L 506.25 125.86 L 509.90 126.40 L 513.55 130.91 L 517.20 128.63 L 520.85 129.44 L 524.50 134.73 L 528.15 138.11 L 531.80 134.79 L 535.45 136.84 L 539.10 143.83 L 542.75 138.29 L 546.40 137.72 L 550.05 140.26 L 553.70 138.78 L 557.35 138.59 L 561.00 142.29 L 564.65 144.25 L 568.30 146.34 L 571.95 153.29 L 575.60 155.03 L 579.25 153.93 L 582.90 155.41 L 586.55 151.03 L 590.20 150.52 L 593.85 146.49 L 597.50 149.63 L 601.15 152.26 L 604.80 155.15 L 608.45 152.29 L 612.10 154.44 L 615.75 152.51 L 619.40 156.37 L 623.05 169.19 L 626.70 168.27 L 630.35 168.43 L 634.00 171.83 L 637.65 168.93 L 641.30 166.14 L 644.95 169.51 L 648.60 166.38 L 652.25 163.16 L 655.90 161.60 L 659.55 159.57 L 663.20 156.77 L 666.85 152.19 L 670.50 150.48 L 674.15 156.53 L 677.80 149.42 L 681.45 154.19 L 685.10 153.96 L 688.75 161.01 L 692.40 159.49 L 696.05 155.64 L 699.70 154.76 L 703.35 149.03 L 707.00 152.83 L 710.65 155.35 L 714.30 156.71 L 717.95 159.52 L 721.60 162.07 L 725.25 163.22 L 728.90 161.19 L 732.55 161.26 L 736.20 155.93 L 739.85 158.28 L 743.50 161.61 L 747.15 164.38 L 750.80 169.41 L 754.45 173.94 L 758.10 171.05 L 761.75 177.07 L 765.40 177.08 L 769.05 183.62 L 772.70 178.14 L 776.35 182.49 L 780.00 181.71" class="path-2" />
<path d="M 50.00 162.45 L 53.65 160.82 L 57.30 163.75 L 60.95 163.07 L 64.60 158.31 L 68.25 158.10 L 71.90 152.35 L 75.55 146.83 L 79.20 154.09 L 82.85 158.70 L 86.50 153.51 L 90.15 152.32 L 93.80 149.35 L 97.45 148.69 L 101.10 157.77 L 104.75 158.81 L 108.40 160.61 L 112.05 164.98 L 115.70 163.53 L 119.35 161.88 L 123.00 164.26 L 126.65 158.26 L 130.30 157.80 L 133.95 157.74 L 137.60 155.29 L 141.25 156.59 L 144.90 147.79 L 148.55 148.22 L 152.20 149.01 L 155.85 147.05 L 159.50 148.98 L 163.15 151.71 L 166.80 149.30 L 170.45 153.72 L 174.10 146.18 L 177.75 144.77 L 181.40 144.90 L 185.05 142.59 L 188.70 140.41 L 192.35 139.25 L 196.00 135.66 L 199.65 135.85 L 203.30 141.80 L 206.95 143.85 L 210.60 136.14 L 214.25 136.94 L 217.90 148.13 L 221.55 152.42 L 225.20 143.97 L 228.85 134.08 L 232.50 125.62 L 236.15 124.75 L 239.80 128.29 L 243.45 127.81 L 247.10 125.68 L 250.75 126.37 L 254.40 130.31 L 258.05 128.58 L 261.70 120.84 L 265.35 117.15 L 269.00 127.39 L 272.65 127.88 L 276.30 133.59 L 279.95 129.87 L 283.60 132.38 L 287.25 130.96 L 290.90 133.65 L 294.55 140.89 L 298.20 141.20 L 301.85 145.11 L 305.50 144.99 L 309.15 144.48 L 312.80 139.29 L 316.45 134.76 L 320.10 135.89 L 323.75 140.34 L 327.40 142.75 L 331.05 144.84 L 334.70 149.21 L 338.35 143.76 L 342.00 152.66 L 345.65 150.34 L 349.30 151.21 L 352.95 144.52 L 356.60 144.31 L 360.25 144.86 L 363.90 140.42 L 367.55 143.83 L 371.20 146.35 L 374.85 145.55 L 378.50 150.18 L 382.15 148.42 L 385.80 150.88 L 389.45 149.58 L 393.10 153.85 L 396.75 153.99 L 400.40 159.82 L 404.05 162.02 L 407.70 166.70 L 411.35 168.68 L 415.00 164.04 L 418.65 161.02 L 422.30 163.31 L 425.95 164.52 L 429.60 168.10 L 433.25 169.03 L 436.90 169.98 L 440.55 162.64 L 444.20 164.99 L 447.85 167.46 L 451.50 167.07 L 455.15 167.32 L 458.80 166.88 L 462.45 170.57 L 466.10 174.89 L 469.75 173.36 L 473.40 169.96 L 477.05 170.70 L 480.70 158.64 L 484.35 153.21 L 488.00 149.15 L 491.65 150.72 L 495.30 154.25 L 498.95 161.04 L 502.60 161.11 L 506.25 160.09 L 509.90 173.56 L 513.55 173.09 L 517.20 172.82 L 520.85 179.59 L 524.50 179.39 L 528.15 175.31 L 531.80 183.20 L 535.45 184.57 L 539.10 180.19 L 542.75 182.25 L 546.40 180.39 L 550.05 179.91 L 553.70 179.56 L 557.35 169.86 L 561.00 170.48 L 564.65 172.25 L 568.30 178.69 L 571.95 174.10 L 575.60 170.44 L 579.25 161.68 L 582.90 162.35 L 586.55 164.00 L 590.20 164.21 L 593.85 160.54 L 597.50 150.83 L 601.15 162.08 L 604.80 170.71 L 608.45 163.69 L 612.10 162.58 L 615.75 166.50 L 619.40 170.55 L 623.05 178.66 L 626.70 172.81 L 630.35 168.81 L 634.00 170.98 L 637.65 174.87 L 641.30 178.45 L 644.95 179.23 L 648.60 180.87 L 652.25 180.63 L 655.90 190.04 L 659.55 187.38 L 663.20 191.16 L 666.85 200.09 L 670.50 191.59 L 674.15 191.62 L 677.80 188.28 L 681.45 183.73 L 685.10 187.99 L 688.75 191.91 L 692.40 193.98 L 696.05 196.07 L 699.70 194.12 L 703.35 196.47 L 707.00 203.07 L 710.65 208.24 L 714.30 211.08 L 717.95 219.35 L 721.60 224.77 L 725.25 224.61 L 728.90 215.09 L 732.55 218.96 L 736.20 219.31 L 739.85 217.58 L 743.50 217.20 L 747.15 219.30 L 750.80 216.34 L 754.45 223.55 L 758.10 229.14 L 761.75 223.93 L 765.40 223.94 L 769.05 226.89 L 772.70 231.94 L 776.35 233.88 L 780.00 233.34" class="path-3" />
<path d="M 50.00 162.45 L 53.65 161.01 L 57.30 151.28 L 60.95 145.97 L 64.60 146.05 L 68.25 142.54 L 71.90 145.63 L 75.55 140.91 L 79.20 144.39 L 82.85 148.69 L 86.50 147.70 L 90.15 148.25 L 93.80 145.29 L 97.45 151.86 L 101.10 157.62 L 104.75 163.72 L 108.40 161.68 L 112.05 156.59 L 115.70 162.08 L 119.35 157.28 L 123.00 162.09 L 126.65 154.94 L 130.30 164.15 L 133.95 156.85 L 137.60 151.14 L 141.25 153.60 L 144.90 147.43 L 148.55 155.24 L 152.20 153.35 L 155.85 153.75 L 159.50 153.22 L 163.15 149.59 L 166.80 147.67 L 170.45 148.99 L 174.10 146.66 L 177.75 154.60 L 181.40 164.03 L 185.05 157.84 L 188.70 150.12 L 192.35 151.08 L 196.00 147.45 L 199.65 143.82 L 203.30 140.12 L 206.95 138.69 L 210.60 131.53 L 214.25 131.55 L 217.90 129.07 L 221.55 129.90 L 225.20 124.86 L 228.85 129.94 L 232.50 133.05 L 236.15 136.51 L 239.80 133.67 L 243.45 135.76 L 247.10 136.54 L 250.75 139.17 L 254.40 145.48 L 258.05 146.04 L 261.70 136.39 L 265.35 140.32 L 269.00 137.96 L 272.65 137.06 L 276.30 134.64 L 279.95 134.18 L 283.60 128.71 L 287.25 128.42 L 290.90 134.63 L 294.55 143.79 L 298.20 137.17 L 301.85 139.91 L 305.50 137.29 L 309.15 136.59 L 312.80 136.73 L 316.45 139.52 L 320.10 149.62 L 323.75 151.12 L 327.40 149.22 L 331.05 145.68 L 334.70 147.85 L 338.35 156.76 L 342.00 153.64 L 345.65 150.79 L 349.30 149.17 L 352.95 155.66 L 356.60 159.61 L 360.25 162.38 L 363.90 162.75 L 367.55 170.00 L 371.20 168.86 L 374.85 170.48 L 378.50 167.11 L 382.15 162.44 L 385.80 165.50 L 389.45 166.72 L 393.10 172.92 L 396.75 175.11 L 400.40 173.05 L 404.05 164.65 L 407.70 166.04 L 411.35 167.28 L 415.00 169.80 L 418.65 170.20 L 422.30 165.29 L 425.95 165.69 L 429.60 166.01 L 433.25 163.11 L 436.90 165.99 L 440.55 171.08 L 444.20 166.99 L 447.85 163.29 L 451.50 162.29 L 455.15 168.13 L 458.80 168.36 L 462.45 170.97 L 466.10 174.81 L 469.75 171.26 L 473.40 175.73 L 477.05 178.06 L 480.70 175.31 L 484.35 173.07 L 488.00 173.52 L 491.65 171.42 L 495.30 167.62 L 498.95 168.61 L 502.60 174.38 L 506.25 175.28 L 509.90 181.18 L 513.55 183.03 L 517.20 183.14 L 520.85 183.25 L 524.50 181.54 L 528.15 181.76 L 531.80 183.46 L 535.45 180.85 L 539.10 179.67 L 542.75 181.62 L 546.40 176.15 L 550.05 175.87 L 553.70 172.80 L 557.35 172.20 L 561.00 181.56 L 564.65 182.79 L 568.30 186.51 L 571.95 188.48 L 575.60 188.41 L 579.25 185.44 L 582.90 185.81 L 586.55 178.68 L 590.20 177.24 L 593.85 174.85 L 597.50 178.48 L 601.15 175.05 L 604.80 179.27 L 608.45 176.30 L 612.10 171.40 L 615.75 170.04 L 619.40 169.97 L 623.05 178.14 L 626.70 180.61 L 630.35 185.83 L 634.00 195.40 L 637.65 203.00 L 641.30 201.00 L 644.95 197.42 L 648.60 197.31 L 652.25 195.88 L 655.90 192.75 L 659.55 195.14 L 663.20 199.71 L 666.85 209.36 L 670.50 200.44 L 674.15 200.83 L 677.80 210.94 L 681.45 210.02 L 685.10 204.93 L 688.75 203.35 L 692.40 208.95 L 696.05 204.84 L 699.70 207.39 L 703.35 209.25 L 707.00 215.94 L 710.65 215.35 L 714.30 219.67 L 717.95 224.18 L 721.60 217.41 L 725.25 215.93 L 728.90 212.63 L 732.55 218.99 L 736.20 216.70 L 739.85 217.51 L 743.50 218.23 L 747.15 217.93 L 750.80 220.58 L 754.45 222.50 L 758.10 218.75 L 761.75 221.03 L 765.40 225.62 L 769.05 226.19 L 772.70 229.89 L 776.35 232.76 L 780.00 234.62" class="path-4" />
<line x1="50" y1="162.5" x2="780" y2="162.5" stroke="#4b5563" stroke-width="0.8" stroke-dasharray="6 3" />
</svg>