<svg xmlns="http://www.w3.org/2000/svg" viewBox="0 0 800 300" width="800" height="300">
<style>
.axis-line { stroke: #6b7280; stroke-width: 0.5; }
.axis-text { font-family: monospace; font-size: 11px; fill: #9ca3af; }
.title-text { font-family: monospace; font-size: 14px; fill: #d1d5db; font-weight: bold; }
.grid-line { stroke: #374151; stroke-width: 0.3; stroke-dasharray: 4 2; }
.path-0 { fill: none; stroke: #3b82f6; stroke-width: 2; stroke-linecap: round; opacity: 0.85; animation: draw-0 8s ease-in-out 0.0s infinite; stroke-dasharray: 974; stroke-dashoffset: 974;}
@keyframes draw-0 { 0% { stroke-dashoffset: 974; } 38% { stroke-dashoffset: 0; } 62% { stroke-dashoffset: 0; } 100% { stroke-dashoffset: 974; }}
.path-1 { fill: none; stroke: #ef4444; stroke-width: 2; stroke-linecap: round; opacity: 0.85; animation: draw-1 8s ease-in-out 0.4s infinite; stroke-dasharray: 959; stroke-dashoffset: 959;}
@keyframes draw-1 { 0% { stroke-dashoffset: 959; } 38% { stroke-dashoffset: 0; } 62% { stroke-dashoffset: 0; } 100% { stroke-dashoffset: 959; }}
.path-2 { fill: none; stroke: #22c55e; stroke-width: 2; stroke-linecap: round; opacity: 0.85; animation: draw-2 8s ease-in-out 0.8s infinite; stroke-dasharray: 1003; stroke-dashoffset: 1003;}
@keyframes draw-2 { 0% { stroke-dashoffset: 1003; } 38% { stroke-dashoffset: 0; } 62% { stroke-dashoffset: 0; } 100% { stroke-dashoffset: 1003; }}
.path-3 { fill: none; stroke: #f59e0b; stroke-width: 2; stroke-linecap: round; opacity: 0.85; animation: draw-3 8s ease-in-out 1.2000000000000002s infinite; stroke-dasharray: 991; stroke-dashoffset: 991;}
@keyframes draw-3 { 0% { stroke-dashoffset: 991; } 38% { stroke-dashoffset: 0; } 62% { stroke-dashoffset: 0; } 100% { stroke-dashoffset: 991; }}
.path-4 { fill: none; stroke: #a855f7; stroke-width: 2; stroke-linecap: round; opacity: 0.85; animation: draw-4 8s ease-in-out 1.6s infinite; stroke-dasharray: 971; stroke-dashoffset: 971;}
@keyframes draw-4 { 0% { stroke-dashoffset: 971; } 38% { stroke-dashoffset: 0; } 62% { stroke-dashoffset: 0; } 100% { stroke-dashoffset: 971; }}
</style>
<rect width="800" height="300" rx="8" fill="#0d1117" />
<line x1="50" y1="260.0" x2="780" y2="260.0" class="grid-line" />
<text x="44" y="264.0" text-anchor="end" class="axis-text">-2.2</text>
<line x1="50" y1="216.0" x2="780" y2="216.0" class="grid-line" />
<text x="44" y="220.0" text-anchor="end" class="axis-text">-1.4</text>
<line x1="50" y1="172.0" x2="780" y2="172.0" class="grid-line" />
<text x="44" y="176.0" text-anchor="end" class="axis-text">-0.5</text>
<line x1="50" y1="128.0" x2="780" y2="128.0" class="grid-line" />
<text x="44" y="132.0" text-anchor="end" class="axis-text">0.4</text>
<line x1="50" y1="84.0" x2="780" y2="84.0" class="grid-line" />
<text x="44" y="88.0" text-anchor="end" class="axis-text">1.2</text>
<line x1="50" y1="40.0" x2="780" y2="40.0" class="grid-line" />
<text x="44" y="44.0" text-anchor="end" class="axis-text">2.1</text>
<line x1="50.0" y1="40" x2="50.0" y2="260" class="grid-line" />
<line x1="196.0" y1="40" x2="196.0" y2="260" class="grid-line" />
<line x1="342.0" y1="40" x2="342.0" y2="260" class="grid-line" />
<line x1="488.0" y1="40" x2="488.0" y2="260" class="grid-line" />
<line x1="634.0" y1="40" x2="634.0" y2="260" class="grid-line" />
<line x1="780.0" y1="40" x2="780.0" y2="260" class="grid-line" />
<line x1="50" y1="260" x2="780" y2="260" class="axis-line" />
<line x1="50" y1="40" x2="50" y2="260" class="axis-line" />
<text x="400.0" y="295" text-anchor="middle" class="axis-text">t</text>
<text x="12" y="150.0" text-anchor="middle" class="axis-text" transform="rotate(-90 12 150.0)">W(t)</text>
<text x="400.0" y="22" text-anchor="middle" class="title-text">Brownian Motion</text>
<path d="M 50.00 146.55 L 53.65 148.45 L 57.30 153.04 L 60.95 153.02 L 64.60 150.30 L 68.25 156.79 L 71.90 160.52 L 75.55 162.82 L 79.20 155.56 L 82.85 153.92 L 86.50 153.42 L 90.15 151.65 L 93.80 153.65 L 97.45 154.85 L 101.10 156.66 L 104.75 159.83 L 108.40 157.76 L 112.05 159.08 L 115.70 149.74 L 119.35 150.40 L 123.00 146.78 L 126.65 157.03 L 130.30 160.90 L 133.95 158.78 L 137.60 163.31 L 141.25 166.93 L 144.90 165.56 L 148.55 165.26 L 152.20 163.38 L 155.85 162.86 L 159.50 154.38 L 163.15 153.42 L 166.80 158.09 L 170.45 157.49 L 174.10 163.73 L 177.75 162.53 L 181.40 160.21 L 185.05 164.44 L 188.70 158.35 L 192.35 163.76 L 196.00 163.97 L 199.65 160.77 L 203.30 159.00 L 206.95 157.02 L 210.60 157.38 L 214.25 155.79 L 217.90 152.85 L 221.55 151.11 L 225.20 151.55 L 228.85 146.74 L 232.50 154.46 L 236.15 155.66 L 239.80 150.97 L 243.45 149.95 L 247.10 155.93 L 250.75 157.13 L 254.40 156.24 L 258.05 152.85 L 261.70 157.54 L 265.35 158.35 L 269.00 156.61 L 272.65 159.63 L 276.30 164.97 L 279.95 162.63 L 283.60 165.92 L 287.25 166.23 L 290.90 163.57 L 294.55 161.36 L 298.20 159.03 L 301.85 163.44 L 305.50 166.46 L 309.15 171.43 L 312.80 167.18 L 316.45 165.28 L 320.10 164.53 L 323.75 161.17 L 327.40 159.55 L 331.05 158.86 L 334.70 159.32 L 338.35 155.99 L 342.00 158.22 L 345.65 159.27 L 349.30 160.92 L 352.95 161.42 L 356.60 158.67 L 360.25 158.53 L 363.90 160.53 L 367.55 161.68 L 371.20 159.45 L 374.85 157.44 L 378.50 152.30 L 382.15 153.33 L 385.80 151.04 L 389.45 151.49 L 393.10 151.73 L 396.75 155.30 L 400.40 153.44 L 404.05 151.60 L 407.70 157.54 L 411.35 160.02 L 415.00 162.40 L 418.65 159.44 L 422.30 162.44 L 425.95 170.56 L 429.60 172.99 L 433.25 171.14 L 436.90 173.78 L 440.55 170.66 L 444.20 171.01 L 447.85 169.55 L 451.50 166.61 L 455.15 167.52 L 458.80 167.27 L 462.45 167.93 L 466.10 167.69 L 469.75 167.50 L 473.40 171.14 L 477.05 177.26 L 480.70 176.61 L 484.35 181.04 L 488.00 183.87 L 491.65 186.86 L 495.30 193.15 L 498.95 194.24 L 502.60 190.55 L 506.25 192.15 L 509.90 190.64 L 513.55 191.50 L 517.20 183.14 L 520.85 182.13 L 524.50 183.08 L 528.15 188.02 L 531.80 190.20 L 535.45 191.54 L 539.10 195.73 L 542.75 189.44 L 546.40 187.71 L 550.05 191.18 L 553.70 182.94 L 557.35 185.81 L 561.00 191.54 L 564.65 192.76 L 568.30 195.30 L 571.95 187.34 L 575.60 186.25 L 579.25 184.51 L 582.90 181.77 L 586.55 184.79 L 590.20 183.88 L 593.85 182.43 L 597.50 184.31 L 601.15 191.61 L 604.80 192.90 L 608.45 198.19 L 612.10 197.67 L 615.75 201.57 L 619.40 201.50 L 623.05 205.02 L 626.70 203.05 L 630.35 203.56 L 634.00 202.57 L 637.65 205.52 L 641.30 207.76 L 644.95 204.48 L 648.60 195.64 L 652.25 197.70 L 655.90 199.63 L 659.55 201.48 L 663.20 197.86 L 666.85 195.62 L 670.50 201.04 L 674.15 201.16 L 677.80 200.33 L 681.45 196.89 L 685.10 195.89 L 688.75 197.97 L 692.40 200.59 L 696.05 196.53 L 699.70 195.57 L 703.35 191.04 L 707.00 195.76 L 710.65 194.25 L 714.30 189.30 L 717.95 195.07 L 721.60 196.71 L 725.25 194.36 L 728.90 195.24 L 732.55 192.11 L 736.20 185.36 L 739.85 180.70 L 743.50 178.40 L 747.15 174.91 L 750.80 174.37 L 754.45 173.75 L 758.10 172.21 L 761.75 170.15 L 765.40 171.19 L 769.05 167.32 L 772.70 166.15 L 776.35 165.84 L 780.00 164.71" class="path-0" />
<path d="M 50.00 146.55 L 53.65 146.82 L 57.30 139.02 L 60.95 140.43 L 64.60 143.46 L 68.25 145.12 L 71.90 147.86 L 75.55 153.07 L 79.20 152.14 L 82.85 157.14 L 86.50 154.08 L 90.15 153.20 L 93.80 159.01 L 97.45 157.45 L 101.10 158.31 L 104.75 156.06 L 108.40 154.15 L 112.05 151.01 L 115.70 149.59 L 119.35 153.18 L 123.00 154.80 L 126.65 159.83 L 130.30 159.07 L 133.95 161.26 L 137.60 162.50 L 141.25 162.70 L 144.90 169.97 L 148.55 171.15 L 152.20 169.74 L 155.85 174.31 L 159.50 175.68 L 163.15 180.09 L 166.80 183.68 L 170.45 182.44 L 174.10 181.55 L 177.75 178.43 L 181.40 180.64 L 185.05 187.52 L 188.70 186.30 L 192.35 181.56 L 196.00 174.82 L 199.65 179.03 L 203.30 181.08 L 206.95 182.76 L 210.60 185.78 L 214.25 192.46 L 217.90 193.59 L 221.55 195.24 L 225.20 192.82 L 228.85 190.02 L 232.50 193.81 L 236.15 193.54 L 239.80 196.00 L 243.45 195.10 L 247.10 193.67 L 250.75 193.48 L 254.40 194.78 L 258.05 196.84 L 261.70 201.53 L 265.35 198.93 L 269.00 199.76 L 272.65 198.64 L 276.30 200.58 L 279.95 198.62 L 283.60 196.32 L 287.25 198.38 L 290.90 197.81 L 294.55 199.68 L 298.20 200.61 L 301.85 199.90 L 305.50 197.98 L 309.15 204.10 L 312.80 203.64 L 316.45 198.09 L 320.10 196.44 L 323.75 198.08 L 327.40 200.54 L 331.05 199.57 L 334.70 198.28 L 338.35 197.61 L 342.00 194.27 L 345.65 192.23 L 349.30 196.51 L 352.95 198.17 L 356.60 196.23 L 360.25 197.49 L 363.90 198.78 L 367.55 201.79 L 371.20 197.99 L 374.85 198.29 L 378.50 195.05 L 382.15 199.16 L 385.80 197.61 L 389.45 199.61 L 393.10 199.77 L 396.75 205.36 L 400.40 210.94 L 404.05 212.84 L 407.70 217.33 L 411.35 220.33 L 415.00 220.85 L 418.65 219.07 L 422.30 219.62 L 425.95 221.12 L 429.60 221.54 L 433.25 224.02 L 436.90 227.70 L 440.55 225.49 L 444.20 227.10 L 447.85 225.73 L 451.50 224.81 L 455.15 225.89 L 458.80 228.67 L 462.45 226.08 L 466.10 222.91 L 469.75 219.07 L 473.40 218.46 L 477.05 214.59 L 480.70 210.28 L 484.35 211.23 L 488.00 209.51 L 491.65 210.17 L 495.30 211.25 L 498.95 210.31 L 502.60 206.95 L 506.25 204.32 L 509.90 204.99 L 513.55 207.37 L 517.20 212.96 L 520.85 209.59 L 524.50 208.37 L 528.15 211.34 L 531.80 213.24 L 535.45 212.60 L 539.10 213.60 L 542.75 212.62 L 546.40 211.98 L 550.05 217.85 L 553.70 216.28 L 557.35 217.08 L 561.00 218.23 L 564.65 220.32 L 568.30 217.25 L 571.95 213.34 L 575.60 213.55 L 579.25 207.45 L 582.90 206.80 L 586.55 213.64 L 590.20 216.45 L 593.85 216.34 L 597.50 209.99 L 601.15 214.19 L 604.80 214.29 L 608.45 216.78 L 612.10 215.81 L 615.75 212.43 L 619.40 210.21 L 623.05 211.15 L 626.70 213.25 L 630.35 209.35 L 634.00 213.63 L 637.65 212.74 L 641.30 207.17 L 644.95 216.93 L 648.60 218.44 L 652.25 215.95 L 655.90 211.68 L 659.55 213.67 L 663.20 225.03 L 666.85 223.44 L 670.50 229.27 L 674.15 228.23 L 677.80 229.21 L 681.45 223.03 L 685.10 221.55 L 688.75 219.91 L 692.40 220.36 L 696.05 221.69 L 699.70 217.66 L 703.35 217.64 L 707.00 218.43 L 710.65 219.40 L 714.30 221.83 L 717.95 223.01 L 721.60 231.70 L 725.25 223.06 L 728.90 224.63 L 732.55 222.17 L 736.20 224.77 L 739.85 223.81 L 743.50 217.15 L 747.15 212.56 L 750.80 212.47 L 754.45 219.24 L 758.10 219.58 L 761.75 229.13 L 765.40 228.82 L 769.05 231.02 L 772.70 228.65 L 776.35 234.62 L 780.00 233.84" class="path-1" />
<path d="M 50.00 146.55 L 53.65 148.09 L 57.30 152.09 L 60.95 150.41 L 64.60 150.33 L 68.25 157.43 L 71.90 150.28 L 75.55 150.69 L 79.20 152.46 L 82.85 147.40 L 86.50 146.18 L 90.15 151.73 L 93.80 150.53 L 97.45 155.17 L 101.10 152.86 L 104.75 152.63 L 108.40 153.28 L 112.05 152.83 L 115.70 155.71 L 119.35 157.11 L 123.00 155.02 L 126.65 156.78 L 130.30 155.20 L 133.95 149.40 L 137.60 145.62 L 141.25 143.10 L 144.90 140.73 L 148.55 139.61 L 152.20 137.83 L 155.85 135.88 L 159.50 134.33 L 163.15 135.51 L 166.80 136.95 L 170.45 132.99 L 174.10 129.70 L 177.75 135.80 L 181.40 132.88 L 185.05 132.92 L 188.70 128.87 L 192.35 131.44 L 196.00 130.76 L 199.65 129.51 L 203.30 127.02 L 206.95 125.00 L 210.60 128.47 L 214.25 125.07 L 217.90 127.76 L 221.55 132.71 L 225.20 129.61 L 228.85 132.13 L 232.50 122.63 L 236.15 114.46 L 239.80 122.26 L 243.45 124.69 L 247.10 117.23 L 250.75 118.36 L 254.40 119.90 L 258.05 122.24 L 261.70 117.30 L 265.35 121.02 L 269.00 117.81 L 272.65 126.09 L 276.30 121.78 L 279.95 121.42 L 283.60 126.99 L 287.25 129.59 L 290.90 127.24 L 294.55 126.22 L 298.20 131.43 L 301.85 130.03 L 305.50 128.07 L 309.15 129.85 L 312.80 127.08 L 316.45 124.45 L 320.10 123.12 L 323.75 133.08 L 327.40 133.47 L 331.05 133.67 L 334.70 130.43 L 338.35 132.40 L 342.00 128.48 L 345.65 131.08 L 349.30 128.98 L 352.95 125.29 L 356.60 129.16 L 360.25 128.84 L 363.90 126.47 L 367.55 128.30 L 371.20 118.87 L 374.85 115.91 L 378.50 120.62 L 382.15 125.54 L 385.80 121.56 L 389.45 119.89 L 393.10 121.30 L 396.75 120.34 L 400.40 118.93 L 404.05 118.33 L 407.70 117.39 L 411.35 123.03 L 415.00 117.78 L 418.65 116.72 L 422.30 121.21 L 425.95 119.41 L 429.60 122.94 L 433.25 114.30 L 436.90 110.62 L 440.55 109.50 L 444.20 107.47 L 447.85 106.24 L 451.50 105.64 L 455.15 106.09 L 458.80 107.32 L 462.45 108.64 L 466.10 105.41 L 469.75 102.99 L 473.40 102.38 L 477.05 100.11 L 480.70 103.81 L 484.35 102.71 L 488.00 103.31 L 491.65 94.93 L 495.30 100.47 L 498.95 93.93 L 502.60 91.51 L 506.25 84.47 L 509.90 85.70 L 513.55 91.63 L 517.20 96.00 L 520.85 92.43 L 524.50 91.20 L 528.15 89.24 L 531.80 86.29 L 535.45 80.85 L 539.10 84.88 L 542.75 87.51 L 546.40 91.09 L 550.05 87.15 L 553.70 90.08 L 557.35 92.82 L 561.00 92.13 L 564.65 96.28 L 568.30 92.39 L 571.95 93.57 L 575.60 94.42 L 579.25 94.32 L 582.90 93.11 L 586.55 98.23 L 590.20 98.77 L 593.85 100.04 L 597.50 106.06 L 601.15 103.37 L 604.80 104.00 L 608.45 106.97 L 612.10 103.22 L 615.75 110.69 L 619.40 111.73 L 623.05 114.25 L 626.70 109.75 L 630.35 109.29 L 634.00 104.55 L 637.65 103.17 L 641.30 106.12 L 644.95 107.45 L 648.60 111.59 L 652.25 116.51 L 655.90 120.63 L 659.55 116.50 L 663.20 118.65 L 666.85 118.35 L 670.50 115.83 L 674.15 108.15 L 677.80 107.84 L 681.45 105.21 L 685.10 106.06 L 688.75 100.49 L 692.40 101.19 L 696.05 97.33 L 699.70 99.16 L 703.35 94.49 L 707.00 91.64 L 710.65 92.79 L 714.30 97.28 L 717.95 92.81 L 721.60 91.08 L 725.25 86.35 L 728.90 85.04 L 732.55 86.09 L 736.20 78.70 L 739.85 74.60 L 743.50 72.53 L 747.15 73.56 L 750.80 71.16 L 754.45 69.44 L 758.10 68.11 L 761.75 66.54 L 765.40 65.38 L 769.05 71.62 L 772.70 68.24 L 776.35 74.88 L 780.00 74.77" class="path-2" />
<path d="M 50.00 146.55 L 53.65 144.36 L 57.30 147.13 L 60.95 153.27 L 64.60 160.32 L 68.25 162.54 L 71.90 160.49 L 75.55 167.36 L 79.20 167.65 L 82.85 171.76 L 86.50 169.06 L 90.15 165.98 L 93.80 173.72 L 97.45 181.82 L 101.10 180.73 L 104.75 184.90 L 108.40 186.38 L 112.05 188.84 L 115.70 183.28 L 119.35 177.74 L 123.00 181.51 L 126.65 179.97 L 130.30 177.22 L 133.95 180.41 L 137.60 179.19 L 141.25 177.96 L 144.90 169.33 L 148.55 165.68 L 152.20 164.99 L 155.85 160.04 L 159.50 153.31 L 163.15 155.10 L 166.80 153.26 L 170.45 159.96 L 174.10 160.13 L 177.75 163.97 L 181.40 160.14 L 185.05 157.43 L 188.70 151.86 L 192.35 152.16 L 196.00 151.70 L 199.65 149.26 L 203.30 146.34 L 206.95 148.85 L 210.60 149.02 L 214.25 152.02 L 217.90 149.63 L 221.55 147.41 L 225.20 144.35 L 228.85 139.45 L 232.50 138.21 L 236.15 139.41 L 239.80 135.38 L 243.45 133.13 L 247.10 129.34 L 250.75 128.72 L 254.40 126.09 L 258.05 125.57 L 261.70 129.57 L 265.35 126.30 L 269.00 122.70 L 272.65 123.96 L 276.30 125.63 L 279.95 123.36 L 283.60 127.74 L 287.25 133.16 L 290.90 131.63 L 294.55 129.96 L 298.20 134.86 L 301.85 136.04 L 305.50 138.72 L 309.15 139.41 L 312.80 140.00 L 316.45 149.06 L 320.10 146.10 L 323.75 140.95 L 327.40 143.59 L 331.05 142.34 L 334.70 145.60 L 338.35 147.30 L 342.00 148.92 L 345.65 146.68 L 349.30 144.81 L 352.95 143.23 L 356.60 145.06 L 360.25 140.78 L 363.90 138.50 L 367.55 132.37 L 371.20 139.44 L 374.85 140.71 L 378.50 145.90 L 382.15 147.25 L 385.80 143.23 L 389.45 143.15 L 393.10 139.89 L 396.75 138.33 L 400.40 136.93 L 404.05 141.99 L 407.70 137.23 L 411.35 132.80 L 415.00 134.84 L 418.65 137.71 L 422.30 133.16 L 425.95 140.62 L 429.60 141.39 L 433.25 139.38 L 436.90 139.52 L 440.55 137.90 L 444.20 138.61 L 447.85 139.04 L 451.50 136.28 L 455.15 137.04 L 458.80 134.87 L 462.45 131.93 L 466.10 132.17 L 469.75 137.27 L 473.40 131.57 L 477.05 133.82 L 480.70 133.14 L 484.35 128.70 L 488.00 132.99 L 491.65 137.60 L 495.30 134.46 L 498.95 127.92 L 502.60 132.85 L 506.25 129.05 L 509.90 126.02 L 513.55 127.19 L 517.20 127.88 L 520.85 132.73 L 524.50 128.20 L 528.15 129.16 L 531.80 129.15 L 535.45 125.81 L 539.10 119.04 L 542.75 119.77 L 546.40 115.74 L 550.05 116.55 L 553.70 118.59 L 557.35 120.04 L 561.00 120.91 L 564.65 124.13 L 568.30 115.05 L 571.95 117.62 L 575.60 119.83 L 579.25 123.21 L 582.90 125.86 L 586.55 125.91 L 590.20 128.18 L 593.85 134.89 L 597.50 131.74 L 601.15 126.16 L 604.80 126.79 L 608.45 121.93 L 612.10 121.18 L 615.75 120.58 L 619.40 123.79 L 623.05 123.38 L 626.70 127.06 L 630.35 124.06 L 634.00 123.28 L 637.65 120.78 L 641.30 118.11 L 644.95 117.96 L 648.60 118.33 L 652.25 114.18 L 655.90 117.76 L 659.55 119.57 L 663.20 121.29 L 666.85 118.86 L 670.50 121.39 L 674.15 116.80 L 677.80 120.94 L 681.45 116.47 L 685.10 113.36 L 688.75 116.16 L 692.40 119.43 L 696.05 122.65 L 699.70 125.17 L 703.35 131.40 L 707.00 135.99 L 710.65 131.56 L 714.30 137.32 L 717.95 135.09 L 721.60 135.23 L 725.25 133.48 L 728.90 133.39 L 732.55 128.11 L 736.20 125.37 L 739.85 125.54 L 743.50 126.13 L 747.15 125.69 L 750.80 124.29 L 754.45 127.90 L 758.10 128.34 L 761.75 125.38 L 765.40 120.65 L 769.05 118.18 L 772.70 120.04 L 776.35 119.59 L 780.00 118.95" class="path-3" />
<path d="M 50.00 146.55 L 53.65 149.63 L 57.30 151.81 L 60.95 153.03 L 64.60 156.13 L 68.25 154.60 L 71.90 157.63 L 75.55 159.80 L 79.20 153.71 L 82.85 145.84 L 86.50 143.47 L 90.15 145.11 L 93.80 146.64 L 97.45 143.46 L 101.10 138.28 L 104.75 139.88 L 108.40 141.97 L 112.05 139.72 L 115.70 137.53 L 119.35 129.59 L 123.00 128.59 L 126.65 126.89 L 130.30 125.21 L 133.95 118.53 L 137.60 119.96 L 141.25 118.81 L 144.90 112.65 L 148.55 109.87 L 152.20 117.89 L 155.85 116.58 L 159.50 111.87 L 163.15 112.40 L 166.80 111.97 L 170.45 112.28 L 174.10 110.41 L 177.75 117.18 L 181.40 122.34 L 185.05 119.44 L 188.70 118.05 L 192.35 125.29 L 196.00 123.35 L 199.65 125.03 L 203.30 119.85 L 206.95 120.53 L 210.60 125.46 L 214.25 122.86 L 217.90 122.52 L 221.55 122.82 L 225.20 124.42 L 228.85 120.91 L 232.50 118.19 L 236.15 117.64 L 239.80 118.93 L 243.45 116.85 L 247.10 117.77 L 250.75 115.04 L 254.40 115.28 L 258.05 112.65 L 261.70 111.00 L 265.35 110.62 L 269.00 110.52 L 272.65 108.01 L 276.30 103.93 L 279.95 100.94 L 283.60 101.87 L 287.25 102.82 L 290.90 101.55 L 294.55 97.76 L 298.20 94.66 L 301.85 92.43 L 305.50 92.45 L 309.15 92.15 L 312.80 90.14 L 316.45 87.85 L 320.10 91.35 L 323.75 87.52 L 327.40 93.71 L 331.05 97.22 L 334.70 97.64 L 338.35 97.56 L 342.00 93.81 L 345.65 92.56 L 349.30 94.81 L 352.95 93.42 L 356.60 92.83 L 360.25 95.10 L 363.90 90.33 L 367.55 94.83 L 371.20 102.97 L 374.85 105.62 L 378.50 98.99 L 382.15 96.49 L 385.80 96.61 L 389.45 95.76 L 393.10 93.98 L 396.75 90.42 L 400.40 89.58 L 404.05 89.88 L 407.70 89.50 L 411.35 90.36 L 415.00 87.95 L 418.65 85.65 L 422.30 86.19 L 425.95 91.60 L 429.60 98.75 L 433.25 99.38 L 436.90 102.08 L 440.55 100.66 L 444.20 95.44 L 447.85 90.28 L 451.50 90.68 L 455.15 89.36 L 458.80 86.93 L 462.45 86.50 L 466.10 84.62 L 469.75 92.44 L 473.40 95.39 L 477.05 100.29 L 480.70 102.40 L 484.35 104.14 L 488.00 103.53 L 491.65 105.62 L 495.30 113.83 L 498.95 115.55 L 502.60 117.26 L 506.25 125.59 L 509.90 124.73 L 513.55 125.90 L 517.20 123.38 L 520.85 124.81 L 524.50 129.49 L 528.15 127.91 L 531.80 121.50 L 535.45 117.37 L 539.10 112.51 L 542.75 117.07 L 546.40 122.13 L 550.05 119.29 L 553.70 116.79 L 557.35 111.02 L 561.00 109.13 L 564.65 108.29 L 568.30 106.55 L 571.95 107.70 L 575.60 106.54 L 579.25 106.97 L 582.90 112.04 L 586.55 112.08 L 590.20 108.70 L 593.85 115.94 L 597.50 120.27 L 601.15 122.09 L 604.80 125.49 L 608.45 124.36 L 612.10 125.01 L 615.75 126.67 L 619.40 130.72 L 623.05 133.99 L 626.70 137.17 L 630.35 130.43 L 634.00 136.78 L 637.65 142.07 L 641.30 139.33 L 644.95 141.17 L 648.60 137.81 L 652.25 141.10 L 655.90 144.99 L 659.55 141.51 L 663.20 141.82 L 666.85 143.92 L 670.50 146.36 L 674.15 143.76 L 677.80 141.59 L 681.45 138.64 L 685.10 136.29 L 688.75 135.36 L 692.40 134.24 L 696.05 136.05 L 699.70 139.85 L 703.35 139.55 L 707.00 137.96 L 710.65 132.02 L 714.30 134.13 L 717.95 129.79 L 721.60 125.82 L 725.25 130.96 L 728.90 125.28 L 732.55 127.98 L 736.20 128.38 L 739.85 130.20 L 743.50 130.19 L 747.15 131.10 L 750.80 133.62 L 754.45 132.47 L 758.10 131.90 L 761.75 130.08 L 765.40 135.04 L 769.05 130.28 L 772.70 131.55 L 776.35 130.84 L 780.00 132.68" class="path-4" />
<line x1="50" y1="146.6" x2="780" y2="146.6" stroke="#4b5563" stroke-width="0.8" stroke-dasharray="6 3" />
</svg>