<svg xmlns="http://www.w3.org/2000/svg" viewBox="0 0 800 300" width="800" height="300">
<style>
.axis-line { stroke: #6b7280; stroke-width: 0.5; }
.axis-text { font-family: monospace; font-size: 11px; fill: #9ca3af; }
.title-text { font-family: monospace; font-size: 14px; fill: #d1d5db; font-weight: bold; }
.grid-line { stroke: #374151; stroke-width: 0.3; stroke-dasharray: 4 2; }
.path-0 { fill: none; stroke: #3b82f6; stroke-width: 2; stroke-linecap: round; opacity: 0.85; animation: draw-0 8s ease-in-out 0.0s infinite; stroke-dasharray: 986; stroke-dashoffset: 986;}
@keyframes draw-0 { 0% { stroke-dashoffset: 986; } 38% { stroke-dashoffset: 0; } 62% { stroke-dashoffset: 0; } 100% { stroke-dashoffset: 986; }}
.path-1 { fill: none; stroke: #ef4444; stroke-width: 2; stroke-linecap: round; opacity: 0.85; animation: draw-1 8s ease-in-out 0.4s infinite; stroke-dasharray: 1013; stroke-dashoffset: 1013;}
@keyframes draw-1 { 0% { stroke-dashoffset: 1013; } 38% { stroke-dashoffset: 0; } 62% { stroke-dashoffset: 0; } 100% { stroke-dashoffset: 1013; }}
.path-2 { fill: none; stroke: #22c55e; stroke-width: 2; stroke-linecap: round; opacity: 0.85; animation: draw-2 8s ease-in-out 0.8s infinite; stroke-dasharray: 1044; stroke-dashoffset: 1044;}
@keyframes draw-2 { 0% { stroke-dashoffset: 1044; } 38% { stroke-dashoffset: 0; } 62% { stroke-dashoffset: 0; } 100% { stroke-dashoffset: 1044; }}
.path-3 { fill: none; stroke: #f59e0b; stroke-width: 2; stroke-linecap: round; opacity: 0.85; animation: draw-3 8s ease-in-out 1.2000000000000002s infinite; stroke-dasharray: 1034; stroke-dashoffset: 1034;}
@keyframes draw-3 { 0% { stroke-dashoffset: 1034; } 38% { stroke-dashoffset: 0; } 62% { stroke-dashoffset: 0; } 100% { stroke-dashoffset: 1034; }}
.path-4 { fill: none; stroke: #a855f7; stroke-width: 2; stroke-linecap: round; opacity: 0.85; animation: draw-4 8s ease-in-out 1.6s infinite; stroke-dasharray: 998; stroke-dashoffset: 998;}
@keyframes draw-4 { 0% { stroke-dashoffset: 998; } 38% { stroke-dashoffset: 0; } 62% { stroke-dashoffset: 0; } 100% { stroke-dashoffset: 998; }}
</style>
<rect width="800" height="300" rx="8" fill="#0d1117" />
<line x1="50" y1="260.0" x2="780" y2="260.0" class="grid-line" />
<text x="44" y="264.0" text-anchor="end" class="axis-text">-2.0</text>
<line x1="50" y1="216.0" x2="780" y2="216.0" class="grid-line" />
<text x="44" y="220.0" text-anchor="end" class="axis-text">-1.2</text>
<line x1="50" y1="172.0" x2="780" y2="172.0" class="grid-line" />
<text x="44" y="176.0" text-anchor="end" class="axis-text">-0.4</text>
<line x1="50" y1="128.0" x2="780" y2="128.0" class="grid-line" />
<text x="44" y="132.0" text-anchor="end" class="axis-text">0.4</text>
<line x1="50" y1="84.0" x2="780" y2="84.0" class="grid-line" />
<text x="44" y="88.0" text-anchor="end" class="axis-text">1.2</text>
<line x1="50" y1="40.0" x2="780" y2="40.0" class="grid-line" />
<text x="44" y="44.0" text-anchor="end" class="axis-text">2.0</text>
<line x1="50.0" y1="40" x2="50.0" y2="260" class="grid-line" />
<line x1="196.0" y1="40" x2="196.0" y2="260" class="grid-line" />
<line x1="342.0" y1="40" x2="342.0" y2="260" class="grid-line" />
<line x1="488.0" y1="40" x2="488.0" y2="260" class="grid-line" />
<line x1="634.0" y1="40" x2="634.0" y2="260" class="grid-line" />
<line x1="780.0" y1="40" x2="780.0" y2="260" class="grid-line" />
<line x1="50" y1="260" x2="780" y2="260" class="axis-line" />
<line x1="50" y1="40" x2="50" y2="260" class="axis-line" />
<text x="400.0" y="295" text-anchor="middle" class="axis-text">t</text>
<text x="12" y="150.0" text-anchor="middle" class="axis-text" transform="rotate(-90 12 150.0)">W(t)</text>
<text x="400.0" y="22" text-anchor="middle" class="title-text">Brownian Motion</text>
<path d="M 50.00 151.63 L 53.65 155.53 L 57.30 153.01 L 60.95 161.05 L 64.60 158.32 L 68.25 159.63 L 71.90 165.46 L 75.55 157.60 L 79.20 157.77 L 82.85 152.09 L 86.50 147.32 L 90.15 157.03 L 93.80 156.35 L 97.45 155.27 L 101.10 162.36 L 104.75 160.19 L 108.40 157.80 L 112.05 154.15 L 115.70 155.12 L 119.35 153.17 L 123.00 150.79 L 126.65 148.12 L 130.30 155.43 L 133.95 162.38 L 137.60 164.88 L 141.25 162.75 L 144.90 154.96 L 148.55 155.08 L 152.20 159.99 L 155.85 158.86 L 159.50 155.33 L 163.15 155.27 L 166.80 155.42 L 170.45 156.62 L 174.10 154.69 L 177.75 152.25 L 181.40 147.29 L 185.05 145.02 L 188.70 146.85 L 192.35 143.52 L 196.00 140.95 L 199.65 144.73 L 203.30 151.09 L 206.95 149.10 L 210.60 146.13 L 214.25 147.94 L 217.90 147.13 L 221.55 148.39 L 225.20 148.78 L 228.85 142.78 L 232.50 143.52 L 236.15 149.24 L 239.80 151.20 L 243.45 151.46 L 247.10 154.74 L 250.75 156.45 L 254.40 155.68 L 258.05 150.03 L 261.70 153.61 L 265.35 154.95 L 269.00 157.89 L 272.65 166.19 L 276.30 166.07 L 279.95 166.90 L 283.60 168.90 L 287.25 164.73 L 290.90 162.20 L 294.55 163.65 L 298.20 167.77 L 301.85 166.74 L 305.50 167.22 L 309.15 169.77 L 312.80 173.78 L 316.45 172.77 L 320.10 176.61 L 323.75 179.58 L 327.40 179.19 L 331.05 179.73 L 334.70 178.82 L 338.35 183.18 L 342.00 179.96 L 345.65 184.34 L 349.30 177.56 L 352.95 174.93 L 356.60 176.00 L 360.25 175.59 L 363.90 170.21 L 367.55 170.25 L 371.20 165.80 L 374.85 172.73 L 378.50 174.33 L 382.15 179.70 L 385.80 178.02 L 389.45 178.24 L 393.10 181.78 L 396.75 188.01 L 400.40 191.25 L 404.05 195.12 L 407.70 186.04 L 411.35 184.83 L 415.00 187.27 L 418.65 190.26 L 422.30 191.34 L 425.95 193.11 L 429.60 190.62 L 433.25 187.29 L 436.90 181.29 L 440.55 180.82 L 444.20 184.50 L 447.85 184.79 L 451.50 185.80 L 455.15 184.04 L 458.80 185.69 L 462.45 187.49 L 466.10 190.61 L 469.75 190.59 L 473.40 189.36 L 477.05 189.83 L 480.70 189.94 L 484.35 186.11 L 488.00 185.90 L 491.65 191.45 L 495.30 194.23 L 498.95 194.29 L 502.60 192.74 L 506.25 188.64 L 509.90 182.92 L 513.55 178.93 L 517.20 177.73 L 520.85 174.41 L 524.50 177.18 L 528.15 176.96 L 531.80 176.27 L 535.45 183.25 L 539.10 181.67 L 542.75 188.14 L 546.40 187.98 L 550.05 190.46 L 553.70 191.88 L 557.35 190.51 L 561.00 192.00 L 564.65 194.30 L 568.30 197.25 L 571.95 194.40 L 575.60 189.93 L 579.25 188.01 L 582.90 189.80 L 586.55 190.22 L 590.20 193.42 L 593.85 189.30 L 597.50 187.14 L 601.15 188.95 L 604.80 190.03 L 608.45 186.20 L 612.10 184.49 L 615.75 182.09 L 619.40 176.01 L 623.05 175.83 L 626.70 172.74 L 630.35 167.03 L 634.00 160.79 L 637.65 165.71 L 641.30 167.21 L 644.95 163.92 L 648.60 160.38 L 652.25 161.80 L 655.90 164.56 L 659.55 164.04 L 663.20 167.30 L 666.85 162.67 L 670.50 150.81 L 674.15 146.66 L 677.80 146.60 L 681.45 142.63 L 685.10 145.83 L 688.75 150.60 L 692.40 152.85 L 696.05 155.95 L 699.70 155.42 L 703.35 151.83 L 707.00 148.50 L 710.65 148.48 L 714.30 149.29 L 717.95 142.67 L 721.60 141.89 L 725.25 139.23 L 728.90 136.36 L 732.55 137.17 L 736.20 135.62 L 739.85 139.09 L 743.50 143.40 L 747.15 140.42 L 750.80 140.91 L 754.45 142.75 L 758.10 145.49 L 761.75 146.15 L 765.40 147.03 L 769.05 144.36 L 772.70 145.19 L 776.35 147.29 L 780.00 145.97" class="path-0" />
<path d="M 50.00 151.63 L 53.65 151.56 L 57.30 149.34 L 60.95 139.98 L 64.60 138.35 L 68.25 136.24 L 71.90 138.61 L 75.55 140.48 L 79.20 142.21 L 82.85 138.91 L 86.50 144.87 L 90.15 151.34 L 93.80 155.17 L 97.45 156.52 L 101.10 159.07 L 104.75 156.33 L 108.40 156.31 L 112.05 156.80 L 115.70 158.56 L 119.35 161.59 L 123.00 156.73 L 126.65 157.90 L 130.30 159.82 L 133.95 162.76 L 137.60 168.50 L 141.25 164.36 L 144.90 168.46 L 148.55 167.55 L 152.20 166.83 L 155.85 162.47 L 159.50 160.48 L 163.15 168.56 L 166.80 164.63 L 170.45 166.11 L 174.10 161.20 L 177.75 164.79 L 181.40 167.54 L 185.05 164.16 L 188.70 167.72 L 192.35 168.68 L 196.00 169.69 L 199.65 170.56 L 203.30 173.13 L 206.95 167.33 L 210.60 167.23 L 214.25 172.59 L 217.90 170.92 L 221.55 168.14 L 225.20 168.58 L 228.85 165.37 L 232.50 160.12 L 236.15 171.91 L 239.80 178.56 L 243.45 181.26 L 247.10 186.68 L 250.75 188.76 L 254.40 185.95 L 258.05 187.54 L 261.70 189.63 L 265.35 186.28 L 269.00 184.04 L 272.65 181.46 L 276.30 187.36 L 279.95 183.06 L 283.60 180.59 L 287.25 176.81 L 290.90 180.52 L 294.55 175.17 L 298.20 174.09 L 301.85 171.57 L 305.50 170.82 L 309.15 178.65 L 312.80 172.67 L 316.45 173.19 L 320.10 174.93 L 323.75 171.96 L 327.40 171.25 L 331.05 174.05 L 334.70 174.80 L 338.35 176.29 L 342.00 177.93 L 345.65 179.17 L 349.30 179.94 L 352.95 177.88 L 356.60 178.86 L 360.25 175.39 L 363.90 176.88 L 367.55 175.61 L 371.20 165.95 L 374.85 162.88 L 378.50 160.82 L 382.15 167.67 L 385.80 170.51 L 389.45 174.00 L 393.10 171.12 L 396.75 172.22 L 400.40 176.59 L 404.05 175.71 L 407.70 177.70 L 411.35 178.11 L 415.00 179.50 L 418.65 181.16 L 422.30 182.20 L 425.95 186.80 L 429.60 184.01 L 433.25 177.49 L 436.90 178.71 L 440.55 178.12 L 444.20 177.62 L 447.85 179.63 L 451.50 174.98 L 455.15 176.06 L 458.80 181.74 L 462.45 180.77 L 466.10 168.89 L 469.75 176.28 L 473.40 181.61 L 477.05 175.10 L 480.70 176.92 L 484.35 176.51 L 488.00 181.04 L 491.65 183.42 L 495.30 186.23 L 498.95 178.33 L 502.60 180.23 L 506.25 174.68 L 509.90 174.00 L 513.55 170.12 L 517.20 171.64 L 520.85 168.58 L 524.50 173.02 L 528.15 173.40 L 531.80 170.97 L 535.45 170.76 L 539.10 162.58 L 542.75 169.48 L 546.40 170.52 L 550.05 170.02 L 553.70 173.57 L 557.35 176.80 L 561.00 179.53 L 564.65 177.03 L 568.30 178.78 L 571.95 181.07 L 575.60 178.34 L 579.25 172.30 L 582.90 171.24 L 586.55 167.09 L 590.20 167.06 L 593.85 164.77 L 597.50 166.44 L 601.15 167.74 L 604.80 168.75 L 608.45 166.53 L 612.10 161.73 L 615.75 167.20 L 619.40 167.26 L 623.05 173.37 L 626.70 175.45 L 630.35 178.10 L 634.00 179.13 L 637.65 180.82 L 641.30 187.67 L 644.95 184.25 L 648.60 191.76 L 652.25 187.53 L 655.90 189.37 L 659.55 189.19 L 663.20 192.77 L 666.85 189.20 L 670.50 185.06 L 674.15 189.84 L 677.80 186.43 L 681.45 192.81 L 685.10 195.79 L 688.75 196.33 L 692.40 192.99 L 696.05 193.93 L 699.70 192.25 L 703.35 190.25 L 707.00 189.65 L 710.65 192.30 L 714.30 189.97 L 717.95 201.38 L 721.60 204.29 L 725.25 207.03 L 728.90 205.86 L 732.55 210.78 L 736.20 213.04 L 739.85 208.84 L 743.50 207.22 L 747.15 207.43 L 750.80 208.59 L 754.45 210.89 L 758.10 210.28 L 761.75 216.36 L 765.40 215.38 L 769.05 215.93 L 772.70 215.04 L 776.35 216.87 L 780.00 224.12" class="path-1" />
<path d="M 50.00 151.63 L 53.65 161.01 L 57.30 156.41 L 60.95 157.16 L 64.60 151.70 L 68.25 154.09 L 71.90 159.77 L 75.55 158.00 L 79.20 156.99 L 82.85 162.31 L 86.50 167.11 L 90.15 173.93 L 93.80 175.51 L 97.45 178.57 L 101.10 179.39 L 104.75 184.04 L 108.40 189.65 L 112.05 188.38 L 115.70 187.88 L 119.35 177.62 L 123.00 176.57 L 126.65 168.97 L 130.30 172.34 L 133.95 174.78 L 137.60 170.13 L 141.25 166.70 L 144.90 168.17 L 148.55 173.18 L 152.20 174.88 L 155.85 179.01 L 159.50 178.82 L 163.15 176.86 L 166.80 177.59 L 170.45 179.88 L 174.10 185.44 L 177.75 186.93 L 181.40 181.42 L 185.05 175.29 L 188.70 174.60 L 192.35 174.94 L 196.00 171.67 L 199.65 173.31 L 203.30 167.86 L 206.95 161.10 L 210.60 163.74 L 214.25 168.34 L 217.90 170.78 L 221.55 180.19 L 225.20 182.45 L 228.85 186.61 L 232.50 185.39 L 236.15 187.38 L 239.80 187.76 L 243.45 191.87 L 247.10 190.22 L 250.75 187.61 L 254.40 186.63 L 258.05 188.92 L 261.70 183.01 L 265.35 176.90 L 269.00 178.87 L 272.65 184.03 L 276.30 186.10 L 279.95 193.02 L 283.60 194.65 L 287.25 191.21 L 290.90 196.08 L 294.55 195.26 L 298.20 198.38 L 301.85 206.38 L 305.50 207.65 L 309.15 209.49 L 312.80 216.05 L 316.45 214.39 L 320.10 214.19 L 323.75 214.83 L 327.40 214.36 L 331.05 221.16 L 334.70 219.35 L 338.35 217.38 L 342.00 218.53 L 345.65 213.36 L 349.30 212.81 L 352.95 214.03 L 356.60 211.36 L 360.25 201.15 L 363.90 204.42 L 367.55 204.38 L 371.20 207.12 L 374.85 211.50 L 378.50 208.28 L 382.15 211.82 L 385.80 214.05 L 389.45 218.92 L 393.10 216.51 L 396.75 219.63 L 400.40 223.54 L 404.05 225.61 L 407.70 226.08 L 411.35 226.13 L 415.00 223.40 L 418.65 223.17 L 422.30 229.54 L 425.95 232.55 L 429.60 220.60 L 433.25 224.63 L 436.90 227.28 L 440.55 227.30 L 444.20 232.43 L 447.85 231.80 L 451.50 231.37 L 455.15 234.62 L 458.80 231.82 L 462.45 231.80 L 466.10 228.12 L 469.75 229.78 L 473.40 232.82 L 477.05 227.88 L 480.70 223.79 L 484.35 219.65 L 488.00 221.61 L 491.65 226.69 L 495.30 221.56 L 498.95 224.72 L 502.60 227.59 L 506.25 227.27 L 509.90 221.50 L 513.55 220.31 L 517.20 221.26 L 520.85 218.74 L 524.50 214.64 L 528.15 223.27 L 531.80 221.97 L 535.45 216.36 L 539.10 213.20 L 542.75 208.72 L 546.40 201.55 L 550.05 209.37 L 553.70 211.25 L 557.35 209.45 L 561.00 208.15 L 564.65 209.10 L 568.30 209.47 L 571.95 213.66 L 575.60 215.42 L 579.25 221.89 L 582.90 220.51 L 586.55 221.11 L 590.20 218.07 L 593.85 215.72 L 597.50 215.55 L 601.15 208.24 L 604.80 212.96 L 608.45 212.65 L 612.10 203.49 L 615.75 202.80 L 619.40 197.55 L 623.05 191.35 L 626.70 197.71 L 630.35 197.57 L 634.00 194.88 L 637.65 196.76 L 641.30 195.97 L 644.95 198.65 L 648.60 197.72 L 652.25 198.81 L 655.90 200.22 L 659.55 202.04 L 663.20 197.86 L 666.85 200.63 L 670.50 194.51 L 674.15 197.48 L 677.80 200.57 L 681.45 197.45 L 685.10 193.84 L 688.75 190.22 L 692.40 186.31 L 696.05 182.63 L 699.70 187.72 L 703.35 194.71 L 707.00 196.59 L 710.65 191.32 L 714.30 186.88 L 717.95 188.31 L 721.60 186.25 L 725.25 180.57 L 728.90 174.54 L 732.55 172.98 L 736.20 176.12 L 739.85 173.73 L 743.50 173.66 L 747.15 174.96 L 750.80 180.21 L 754.45 175.84 L 758.10 179.23 L 761.75 177.75 L 765.40 175.10 L 769.05 179.22 L 772.70 180.01 L 776.35 183.95 L 780.00 182.70" class="path-2" />
<path d="M 50.00 151.63 L 53.65 152.73 L 57.30 152.63 L 60.95 153.74 L 64.60 149.17 L 68.25 145.45 L 71.90 145.41 L 75.55 145.92 L 79.20 140.41 L 82.85 138.94 L 86.50 135.73 L 90.15 134.26 L 93.80 136.96 L 97.45 132.69 L 101.10 134.42 L 104.75 125.79 L 108.40 124.71 L 112.05 128.79 L 115.70 124.22 L 119.35 121.90 L 123.00 120.24 L 126.65 123.89 L 130.30 121.71 L 133.95 119.96 L 137.60 124.05 L 141.25 120.67 L 144.90 118.35 L 148.55 115.72 L 152.20 122.79 L 155.85 118.17 L 159.50 124.57 L 163.15 124.78 L 166.80 123.87 L 170.45 122.31 L 174.10 124.91 L 177.75 128.89 L 181.40 133.56 L 185.05 137.16 L 188.70 138.05 L 192.35 142.42 L 196.00 148.23 L 199.65 144.68 L 203.30 146.19 L 206.95 148.08 L 210.60 152.02 L 214.25 145.52 L 217.90 142.96 L 221.55 142.56 L 225.20 149.67 L 228.85 150.59 L 232.50 146.78 L 236.15 150.55 L 239.80 152.57 L 243.45 153.06 L 247.10 148.41 L 250.75 147.11 L 254.40 146.75 L 258.05 147.86 L 261.70 141.46 L 265.35 142.10 L 269.00 136.76 L 272.65 135.96 L 276.30 129.82 L 279.95 124.20 L 283.60 126.83 L 287.25 126.64 L 290.90 130.76 L 294.55 131.26 L 298.20 131.54 L 301.85 133.28 L 305.50 131.62 L 309.15 130.50 L 312.80 129.61 L 316.45 133.30 L 320.10 133.62 L 323.75 131.75 L 327.40 129.54 L 331.05 134.41 L 334.70 135.43 L 338.35 132.27 L 342.00 129.90 L 345.65 127.99 L 349.30 134.23 L 352.95 139.48 L 356.60 142.66 L 360.25 139.95 L 363.90 142.86 L 367.55 136.11 L 371.20 132.55 L 374.85 127.60 L 378.50 127.85 L 382.15 125.82 L 385.80 117.06 L 389.45 120.45 L 393.10 120.83 L 396.75 123.69 L 400.40 122.57 L 404.05 129.86 L 407.70 135.83 L 411.35 131.02 L 415.00 124.88 L 418.65 123.17 L 422.30 128.47 L 425.95 123.77 L 429.60 118.38 L 433.25 117.13 L 436.90 122.16 L 440.55 120.49 L 444.20 116.47 L 447.85 109.57 L 451.50 102.99 L 455.15 106.84 L 458.80 109.34 L 462.45 107.91 L 466.10 99.56 L 469.75 103.65 L 473.40 92.42 L 477.05 90.01 L 480.70 90.70 L 484.35 86.80 L 488.00 92.56 L 491.65 97.94 L 495.30 101.87 L 498.95 97.99 L 502.60 100.53 L 506.25 106.12 L 509.90 102.94 L 513.55 100.44 L 517.20 108.74 L 520.85 112.33 L 524.50 111.77 L 528.15 99.47 L 531.80 98.22 L 535.45 99.77 L 539.10 100.54 L 542.75 101.61 L 546.40 104.77 L 550.05 109.90 L 553.70 113.06 L 557.35 110.02 L 561.00 106.34 L 564.65 105.92 L 568.30 104.89 L 571.95 104.55 L 575.60 107.96 L 579.25 103.49 L 582.90 96.29 L 586.55 102.37 L 590.20 98.05 L 593.85 101.06 L 597.50 97.35 L 601.15 88.92 L 604.80 90.19 L 608.45 84.31 L 612.10 87.23 L 615.75 82.54 L 619.40 78.68 L 623.05 78.36 L 626.70 77.55 L 630.35 76.40 L 634.00 73.35 L 637.65 74.55 L 641.30 79.18 L 644.95 79.28 L 648.60 79.18 L 652.25 83.69 L 655.90 84.77 L 659.55 89.14 L 663.20 82.23 L 666.85 83.79 L 670.50 85.71 L 674.15 87.38 L 677.80 81.30 L 681.45 83.10 L 685.10 88.57 L 688.75 84.50 L 692.40 86.69 L 696.05 83.64 L 699.70 78.99 L 703.35 81.75 L 707.00 83.25 L 710.65 82.90 L 714.30 80.60 L 717.95 77.65 L 721.60 73.07 L 725.25 72.64 L 728.90 77.22 L 732.55 76.02 L 736.20 80.23 L 739.85 79.92 L 743.50 83.31 L 747.15 80.16 L 750.80 79.41 L 754.45 80.79 L 758.10 76.39 L 761.75 76.02 L 765.40 69.23 L 769.05 68.62 L 772.70 66.85 L 776.35 65.38 L 780.00 67.44" class="path-3" />
<path d="M 50.00 151.63 L 53.65 144.38 L 57.30 148.20 L 60.95 148.38 L 64.60 151.48 L 68.25 158.05 L 71.90 154.07 L 75.55 154.20 L 79.20 152.46 L 82.85 153.80 L 86.50 151.76 L 90.15 153.37 L 93.80 154.88 L 97.45 160.90 L 101.10 164.99 L 104.75 167.02 L 108.40 166.76 L 112.05 170.74 L 115.70 167.92 L 119.35 167.95 L 123.00 162.63 L 126.65 162.42 L 130.30 164.99 L 133.95 166.83 L 137.60 165.08 L 141.25 160.04 L 144.90 160.44 L 148.55 162.11 L 152.20 159.39 L 155.85 158.14 L 159.50 156.76 L 163.15 154.43 L 166.80 155.00 L 170.45 146.00 L 174.10 146.22 L 177.75 147.37 L 181.40 144.19 L 185.05 140.32 L 188.70 143.74 L 192.35 145.60 L 196.00 143.11 L 199.65 148.22 L 203.30 149.78 L 206.95 152.44 L 210.60 152.08 L 214.25 152.15 L 217.90 151.93 L 221.55 154.39 L 225.20 145.08 L 228.85 142.08 L 232.50 144.11 L 236.15 146.16 L 239.80 142.51 L 243.45 143.65 L 247.10 145.27 L 250.75 138.92 L 254.40 137.61 L 258.05 136.88 L 261.70 145.58 L 265.35 144.61 L 269.00 142.49 L 272.65 144.00 L 276.30 145.41 L 279.95 142.95 L 283.60 145.12 L 287.25 137.36 L 290.90 136.91 L 294.55 139.91 L 298.20 138.56 L 301.85 135.47 L 305.50 138.85 L 309.15 142.16 L 312.80 142.58 L 316.45 138.19 L 320.10 133.47 L 323.75 140.91 L 327.40 140.30 L 331.05 141.97 L 334.70 141.14 L 338.35 140.89 L 342.00 134.41 L 345.65 134.10 L 349.30 130.88 L 352.95 126.26 L 356.60 121.62 L 360.25 122.87 L 363.90 120.05 L 367.55 115.12 L 371.20 113.79 L 374.85 116.68 L 378.50 109.86 L 382.15 105.69 L 385.80 104.35 L 389.45 105.69 L 393.10 101.11 L 396.75 94.90 L 400.40 93.44 L 404.05 96.94 L 407.70 95.93 L 411.35 93.71 L 415.00 93.90 L 418.65 91.25 L 422.30 92.23 L 425.95 95.59 L 429.60 102.44 L 433.25 103.43 L 436.90 106.94 L 440.55 108.69 L 444.20 113.81 L 447.85 109.29 L 451.50 113.17 L 455.15 114.20 L 458.80 111.16 L 462.45 108.36 L 466.10 102.81 L 469.75 104.84 L 473.40 107.39 L 477.05 109.92 L 480.70 111.13 L 484.35 105.22 L 488.00 109.53 L 491.65 106.88 L 495.30 114.42 L 498.95 119.90 L 502.60 119.46 L 506.25 122.92 L 509.90 128.98 L 513.55 126.25 L 517.20 132.42 L 520.85 135.21 L 524.50 137.12 L 528.15 135.65 L 531.80 126.94 L 535.45 136.08 L 539.10 138.98 L 542.75 143.82 L 546.40 143.52 L 550.05 138.18 L 553.70 140.71 L 557.35 139.59 L 561.00 144.39 L 564.65 141.45 L 568.30 139.67 L 571.95 143.25 L 575.60 151.54 L 579.25 156.74 L 582.90 162.15 L 586.55 165.16 L 590.20 158.24 L 593.85 158.91 L 597.50 163.04 L 601.15 163.29 L 604.80 165.97 L 608.45 165.74 L 612.10 164.29 L 615.75 165.86 L 619.40 166.26 L 623.05 162.56 L 626.70 157.99 L 630.35 157.41 L 634.00 161.30 L 637.65 168.15 L 641.30 166.69 L 644.95 163.50 L 648.60 164.73 L 652.25 167.51 L 655.90 165.83 L 659.55 163.62 L 663.20 162.06 L 666.85 160.68 L 670.50 153.43 L 674.15 155.55 L 677.80 158.75 L 681.45 160.96 L 685.10 157.55 L 688.75 156.23 L 692.40 159.03 L 696.05 156.06 L 699.70 153.07 L 703.35 149.47 L 707.00 153.49 L 710.65 157.30 L 714.30 164.85 L 717.95 166.34 L 721.60 168.08 L 725.25 167.30 L 728.90 161.34 L 732.55 161.29 L 736.20 161.10 L 739.85 161.54 L 743.50 160.69 L 747.15 161.98 L 750.80 159.63 L 754.45 159.51 L 758.10 156.72 L 761.75 159.43 L 765.40 164.42 L 769.05 163.22 L 772.70 165.56 L 776.35 168.29 L 780.00 167.39" class="path-4" />
<line x1="50" y1="151.6" x2="780" y2="151.6" stroke="#4b5563" stroke-width="0.8" stroke-dasharray="6 3" />
</svg>