<svg xmlns="http://www.w3.org/2000/svg" viewBox="0 0 800 300" width="800" height="300">
<style>
.axis-line { stroke: #6b7280; stroke-width: 0.5; }
.axis-text { font-family: monospace; font-size: 11px; fill: #9ca3af; }
.title-text { font-family: monospace; font-size: 14px; fill: #d1d5db; font-weight: bold; }
.grid-line { stroke: #374151; stroke-width: 0.3; stroke-dasharray: 4 2; }
.path-0 { fill: none; stroke: #3b82f6; stroke-width: 2; stroke-linecap: round; opacity: 0.85; animation: draw-0 8s ease-in-out 0.0s infinite; stroke-dasharray: 1004; stroke-dashoffset: 1004;}
@keyframes draw-0 { 0% { stroke-dashoffset: 1004; } 38% { stroke-dashoffset: 0; } 62% { stroke-dashoffset: 0; } 100% { stroke-dashoffset: 1004; }}
.path-1 { fill: none; stroke: #ef4444; stroke-width: 2; stroke-linecap: round; opacity: 0.85; animation: draw-1 8s ease-in-out 0.4s infinite; stroke-dasharray: 1039; stroke-dashoffset: 1039;}
@keyframes draw-1 { 0% { stroke-dashoffset: 1039; } 38% { stroke-dashoffset: 0; } 62% { stroke-dashoffset: 0; } 100% { stroke-dashoffset: 1039; }}
.path-2 { fill: none; stroke: #22c55e; stroke-width: 2; stroke-linecap: round; opacity: 0.85; animation: draw-2 8s ease-in-out 0.8s infinite; stroke-dasharray: 1022; stroke-dashoffset: 1022;}
@keyframes draw-2 { 0% { stroke-dashoffset: 1022; } 38% { stroke-dashoffset: 0; } 62% { stroke-dashoffset: 0; } 100% { stroke-dashoffset: 1022; }}
.path-3 { fill: none; stroke: #f59e0b; stroke-width: 2; stroke-linecap: round; opacity: 0.85; animation: draw-3 8s ease-in-out 1.2000000000000002s infinite; stroke-dasharray: 1047; stroke-dashoffset: 1047;}
@keyframes draw-3 { 0% { stroke-dashoffset: 1047; } 38% { stroke-dashoffset: 0; } 62% { stroke-dashoffset: 0; } 100% { stroke-dashoffset: 1047; }}
.path-4 { fill: none; stroke: #a855f7; stroke-width: 2; stroke-linecap: round; opacity: 0.85; animation: draw-4 8s ease-in-out 1.6s infinite; stroke-dasharray: 1028; stroke-dashoffset: 1028;}
@keyframes draw-4 { 0% { stroke-dashoffset: 1028; } 38% { stroke-dashoffset: 0; } 62% { stroke-dashoffset: 0; } 100% { stroke-dashoffset: 1028; }}
</style>
<rect width="800" height="300" rx="8" fill="#0d1117" />
<line x1="50" y1="260.0" x2="780" y2="260.0" class="grid-line" />
<text x="44" y="264.0" text-anchor="end" class="axis-text">-2.1</text>
<line x1="50" y1="216.0" x2="780" y2="216.0" class="grid-line" />
<text x="44" y="220.0" text-anchor="end" class="axis-text">-1.3</text>
<line x1="50" y1="172.0" x2="780" y2="172.0" class="grid-line" />
<text x="44" y="176.0" text-anchor="end" class="axis-text">-0.5</text>
<line x1="50" y1="128.0" x2="780" y2="128.0" class="grid-line" />
<text x="44" y="132.0" text-anchor="end" class="axis-text">0.3</text>
<line x1="50" y1="84.0" x2="780" y2="84.0" class="grid-line" />
<text x="44" y="88.0" text-anchor="end" class="axis-text">1.1</text>
<line x1="50" y1="40.0" x2="780" y2="40.0" class="grid-line" />
<text x="44" y="44.0" text-anchor="end" class="axis-text">1.9</text>
<line x1="50.0" y1="40" x2="50.0" y2="260" class="grid-line" />
<line x1="196.0" y1="40" x2="196.0" y2="260" class="grid-line" />
<line x1="342.0" y1="40" x2="342.0" y2="260" class="grid-line" />
<line x1="488.0" y1="40" x2="488.0" y2="260" class="grid-line" />
<line x1="634.0" y1="40" x2="634.0" y2="260" class="grid-line" />
<line x1="780.0" y1="40" x2="780.0" y2="260" class="grid-line" />
<line x1="50" y1="260" x2="780" y2="260" class="axis-line" />
<line x1="50" y1="40" x2="50" y2="260" class="axis-line" />
<text x="400.0" y="295" text-anchor="middle" class="axis-text">t</text>
<text x="12" y="150.0" text-anchor="middle" class="axis-text" transform="rotate(-90 12 150.0)">W(t)</text>
<text x="400.0" y="22" text-anchor="middle" class="title-text">Brownian Motion</text>
<path d="M 50.00 143.97 L 53.65 147.08 L 57.30 145.43 L 60.95 140.99 L 64.60 141.48 L 68.25 138.78 L 71.90 135.20 L 75.55 138.73 L 79.20 133.04 L 82.85 133.12 L 86.50 132.09 L 90.15 130.72 L 93.80 132.60 L 97.45 138.32 L 101.10 140.96 L 104.75 138.83 L 108.40 134.35 L 112.05 136.00 L 115.70 131.76 L 119.35 134.67 L 123.00 140.01 L 126.65 139.63 L 130.30 135.71 L 133.95 134.88 L 137.60 134.37 L 141.25 141.08 L 144.90 143.74 L 148.55 147.71 L 152.20 145.47 L 155.85 148.40 L 159.50 149.10 L 163.15 150.65 L 166.80 149.41 L 170.45 145.49 L 174.10 141.76 L 177.75 134.97 L 181.40 137.13 L 185.05 133.35 L 188.70 133.19 L 192.35 133.25 L 196.00 139.92 L 199.65 133.92 L 203.30 140.26 L 206.95 141.57 L 210.60 140.84 L 214.25 143.70 L 217.90 143.79 L 221.55 144.92 L 225.20 141.97 L 228.85 143.28 L 232.50 144.55 L 236.15 138.70 L 239.80 143.38 L 243.45 142.83 L 247.10 147.36 L 250.75 148.82 L 254.40 142.44 L 258.05 140.04 L 261.70 139.89 L 265.35 140.73 L 269.00 141.33 L 272.65 139.18 L 276.30 143.65 L 279.95 134.29 L 283.60 134.58 L 287.25 133.63 L 290.90 140.01 L 294.55 136.65 L 298.20 138.84 L 301.85 137.25 L 305.50 138.89 L 309.15 136.91 L 312.80 137.00 L 316.45 134.86 L 320.10 128.37 L 323.75 126.11 L 327.40 127.80 L 331.05 129.44 L 334.70 125.20 L 338.35 124.26 L 342.00 127.97 L 345.65 127.30 L 349.30 122.30 L 352.95 125.33 L 356.60 125.72 L 360.25 122.46 L 363.90 120.33 L 367.55 125.01 L 371.20 125.25 L 374.85 129.85 L 378.50 127.88 L 382.15 126.52 L 385.80 134.90 L 389.45 135.11 L 393.10 134.59 L 396.75 132.44 L 400.40 132.40 L 404.05 129.48 L 407.70 128.32 L 411.35 129.72 L 415.00 133.91 L 418.65 137.27 L 422.30 131.55 L 425.95 131.07 L 429.60 137.68 L 433.25 140.07 L 436.90 138.65 L 440.55 143.24 L 444.20 143.72 L 447.85 146.18 L 451.50 148.61 L 455.15 148.75 L 458.80 144.76 L 462.45 150.80 L 466.10 152.75 L 469.75 152.99 L 473.40 154.44 L 477.05 150.69 L 480.70 146.94 L 484.35 139.74 L 488.00 142.84 L 491.65 146.75 L 495.30 142.52 L 498.95 144.89 L 502.60 142.64 L 506.25 146.65 L 509.90 143.57 L 513.55 150.75 L 517.20 147.39 L 520.85 153.69 L 524.50 154.81 L 528.15 155.76 L 531.80 150.17 L 535.45 160.21 L 539.10 167.63 L 542.75 168.12 L 546.40 173.94 L 550.05 174.17 L 553.70 178.24 L 557.35 173.23 L 561.00 169.69 L 564.65 166.80 L 568.30 172.52 L 571.95 170.14 L 575.60 171.57 L 579.25 166.28 L 582.90 164.65 L 586.55 162.17 L 590.20 161.36 L 593.85 154.16 L 597.50 153.32 L 601.15 152.39 L 604.80 153.01 L 608.45 155.53 L 612.10 148.61 L 615.75 147.18 L 619.40 145.83 L 623.05 145.03 L 626.70 147.80 L 630.35 146.78 L 634.00 146.48 L 637.65 143.35 L 641.30 147.06 L 644.95 143.73 L 648.60 142.86 L 652.25 137.32 L 655.90 135.42 L 659.55 134.40 L 663.20 138.82 L 666.85 137.34 L 670.50 138.79 L 674.15 135.98 L 677.80 133.93 L 681.45 130.01 L 685.10 136.38 L 688.75 135.13 L 692.40 136.01 L 696.05 139.73 L 699.70 134.17 L 703.35 143.09 L 707.00 132.06 L 710.65 123.30 L 714.30 121.76 L 717.95 118.68 L 721.60 118.38 L 725.25 117.33 L 728.90 113.31 L 732.55 111.84 L 736.20 107.54 L 739.85 109.91 L 743.50 105.48 L 747.15 107.74 L 750.80 108.97 L 754.45 111.40 L 758.10 111.51 L 761.75 112.25 L 765.40 108.94 L 769.05 111.54 L 772.70 110.65 L 776.35 104.08 L 780.00 104.47" class="path-0" />
<path d="M 50.00 143.97 L 53.65 149.05 L 57.30 144.82 L 60.95 146.53 L 64.60 150.92 L 68.25 154.74 L 71.90 157.74 L 75.55 156.93 L 79.20 156.90 L 82.85 155.43 L 86.50 151.87 L 90.15 156.04 L 93.80 153.39 L 97.45 154.96 L 101.10 150.45 L 104.75 150.08 L 108.40 154.52 L 112.05 164.36 L 115.70 159.69 L 119.35 161.37 L 123.00 160.07 L 126.65 163.69 L 130.30 169.57 L 133.95 169.86 L 137.60 172.33 L 141.25 176.90 L 144.90 169.04 L 148.55 167.52 L 152.20 170.73 L 155.85 170.66 L 159.50 170.12 L 163.15 168.90 L 166.80 171.01 L 170.45 165.42 L 174.10 170.97 L 177.75 171.43 L 181.40 168.33 L 185.05 173.39 L 188.70 177.19 L 192.35 176.84 L 196.00 177.18 L 199.65 176.29 L 203.30 174.07 L 206.95 174.73 L 210.60 169.39 L 214.25 173.40 L 217.90 168.12 L 221.55 169.15 L 225.20 171.00 L 228.85 170.03 L 232.50 162.77 L 236.15 165.23 L 239.80 160.67 L 243.45 155.01 L 247.10 145.72 L 250.75 152.60 L 254.40 154.54 L 258.05 153.57 L 261.70 157.21 L 265.35 157.38 L 269.00 153.98 L 272.65 156.11 L 276.30 160.22 L 279.95 153.99 L 283.60 154.46 L 287.25 153.27 L 290.90 154.31 L 294.55 155.25 L 298.20 160.33 L 301.85 164.84 L 305.50 157.06 L 309.15 154.19 L 312.80 148.07 L 316.45 146.00 L 320.10 153.46 L 323.75 155.47 L 327.40 150.92 L 331.05 157.33 L 334.70 161.55 L 338.35 159.57 L 342.00 161.90 L 345.65 160.43 L 349.30 164.67 L 352.95 169.13 L 356.60 176.03 L 360.25 174.83 L 363.90 172.41 L 367.55 171.29 L 371.20 172.73 L 374.85 174.78 L 378.50 170.42 L 382.15 167.99 L 385.80 158.66 L 389.45 159.44 L 393.10 158.22 L 396.75 154.71 L 400.40 158.18 L 404.05 157.06 L 407.70 159.43 L 411.35 162.12 L 415.00 161.50 L 418.65 163.36 L 422.30 165.79 L 425.95 168.32 L 429.60 170.93 L 433.25 172.54 L 436.90 168.28 L 440.55 174.28 L 444.20 177.00 L 447.85 182.13 L 451.50 190.46 L 455.15 194.23 L 458.80 198.96 L 462.45 202.47 L 466.10 199.37 L 469.75 202.25 L 473.40 199.03 L 477.05 198.52 L 480.70 194.47 L 484.35 200.16 L 488.00 199.74 L 491.65 194.81 L 495.30 197.76 L 498.95 200.19 L 502.60 200.02 L 506.25 210.45 L 509.90 207.01 L 513.55 208.37 L 517.20 208.35 L 520.85 206.61 L 524.50 207.04 L 528.15 207.33 L 531.80 201.21 L 535.45 199.21 L 539.10 198.20 L 542.75 201.74 L 546.40 196.48 L 550.05 202.48 L 553.70 194.43 L 557.35 199.03 L 561.00 196.31 L 564.65 198.48 L 568.30 199.36 L 571.95 193.49 L 575.60 191.84 L 579.25 190.13 L 582.90 189.80 L 586.55 192.53 L 590.20 191.10 L 593.85 196.37 L 597.50 196.93 L 601.15 197.93 L 604.80 200.58 L 608.45 201.60 L 612.10 195.94 L 615.75 193.57 L 619.40 192.89 L 623.05 198.09 L 626.70 201.42 L 630.35 197.83 L 634.00 201.40 L 637.65 203.99 L 641.30 201.07 L 644.95 202.44 L 648.60 205.52 L 652.25 206.43 L 655.90 205.36 L 659.55 215.97 L 663.20 227.62 L 666.85 231.58 L 670.50 234.62 L 674.15 229.93 L 677.80 227.87 L 681.45 225.80 L 685.10 222.05 L 688.75 223.92 L 692.40 225.89 L 696.05 230.69 L 699.70 226.27 L 703.35 223.01 L 707.00 218.89 L 710.65 214.13 L 714.30 215.87 L 717.95 215.15 L 721.60 217.04 L 725.25 216.51 L 728.90 212.72 L 732.55 212.95 L 736.20 209.27 L 739.85 205.99 L 743.50 200.52 L 747.15 198.40 L 750.80 198.93 L 754.45 196.88 L 758.10 192.60 L 761.75 187.93 L 765.40 196.70 L 769.05 192.83 L 772.70 189.48 L 776.35 190.30 L 780.00 198.11" class="path-1" />
<path d="M 50.00 143.97 L 53.65 142.20 L 57.30 142.89 L 60.95 139.99 L 64.60 138.05 L 68.25 134.39 L 71.90 141.10 L 75.55 141.87 L 79.20 137.51 L 82.85 142.75 L 86.50 149.74 L 90.15 148.25 L 93.80 155.45 L 97.45 155.87 L 101.10 159.85 L 104.75 158.53 L 108.40 165.66 L 112.05 165.22 L 115.70 166.42 L 119.35 159.82 L 123.00 160.80 L 126.65 166.60 L 130.30 161.41 L 133.95 160.33 L 137.60 152.22 L 141.25 145.64 L 144.90 139.07 L 148.55 137.05 L 152.20 132.91 L 155.85 132.64 L 159.50 130.06 L 163.15 123.22 L 166.80 121.73 L 170.45 117.32 L 174.10 114.07 L 177.75 117.34 L 181.40 120.88 L 185.05 117.57 L 188.70 118.09 L 192.35 112.03 L 196.00 110.02 L 199.65 110.01 L 203.30 105.94 L 206.95 103.10 L 210.60 103.07 L 214.25 99.97 L 217.90 93.03 L 221.55 89.23 L 225.20 98.27 L 228.85 91.85 L 232.50 93.02 L 236.15 93.97 L 239.80 90.79 L 243.45 96.00 L 247.10 94.04 L 250.75 93.86 L 254.40 95.11 L 258.05 94.73 L 261.70 100.53 L 265.35 101.39 L 269.00 105.64 L 272.65 102.89 L 276.30 105.33 L 279.95 108.46 L 283.60 103.23 L 287.25 99.00 L 290.90 102.67 L 294.55 108.59 L 298.20 109.59 L 301.85 105.52 L 305.50 107.07 L 309.15 108.33 L 312.80 103.03 L 316.45 106.99 L 320.10 106.98 L 323.75 113.17 L 327.40 117.34 L 331.05 114.97 L 334.70 118.40 L 338.35 118.71 L 342.00 122.84 L 345.65 127.19 L 349.30 134.45 L 352.95 133.13 L 356.60 137.31 L 360.25 134.42 L 363.90 131.44 L 367.55 136.37 L 371.20 134.14 L 374.85 137.21 L 378.50 133.56 L 382.15 136.42 L 385.80 135.56 L 389.45 140.14 L 393.10 140.16 L 396.75 137.78 L 400.40 139.21 L 404.05 138.50 L 407.70 145.50 L 411.35 148.60 L 415.00 143.91 L 418.65 144.79 L 422.30 141.32 L 425.95 142.20 L 429.60 135.76 L 433.25 138.74 L 436.90 138.73 L 440.55 139.19 L 444.20 141.97 L 447.85 146.35 L 451.50 148.92 L 455.15 150.96 L 458.80 151.75 L 462.45 150.07 L 466.10 160.03 L 469.75 161.78 L 473.40 169.54 L 477.05 162.24 L 480.70 158.82 L 484.35 161.59 L 488.00 164.94 L 491.65 167.43 L 495.30 166.35 L 498.95 169.66 L 502.60 169.93 L 506.25 171.43 L 509.90 171.99 L 513.55 172.29 L 517.20 170.60 L 520.85 168.74 L 524.50 163.63 L 528.15 165.53 L 531.80 164.90 L 535.45 164.53 L 539.10 170.35 L 542.75 170.24 L 546.40 175.55 L 550.05 179.61 L 553.70 187.61 L 557.35 182.57 L 561.00 182.80 L 564.65 184.68 L 568.30 184.00 L 571.95 180.28 L 575.60 185.97 L 579.25 187.05 L 582.90 181.44 L 586.55 183.70 L 590.20 175.89 L 593.85 177.10 L 597.50 184.05 L 601.15 184.14 L 604.80 183.63 L 608.45 183.64 L 612.10 185.63 L 615.75 183.40 L 619.40 183.65 L 623.05 182.13 L 626.70 182.91 L 630.35 185.35 L 634.00 188.61 L 637.65 185.71 L 641.30 192.27 L 644.95 192.42 L 648.60 190.62 L 652.25 193.33 L 655.90 199.19 L 659.55 198.12 L 663.20 202.61 L 666.85 202.22 L 670.50 201.49 L 674.15 196.25 L 677.80 195.67 L 681.45 198.53 L 685.10 204.11 L 688.75 203.63 L 692.40 200.61 L 696.05 200.73 L 699.70 205.39 L 703.35 210.44 L 707.00 211.74 L 710.65 210.38 L 714.30 207.41 L 717.95 207.25 L 721.60 205.86 L 725.25 204.32 L 728.90 195.85 L 732.55 202.36 L 736.20 204.17 L 739.85 207.57 L 743.50 205.06 L 747.15 208.11 L 750.80 203.35 L 754.45 199.41 L 758.10 205.54 L 761.75 205.89 L 765.40 205.65 L 769.05 206.80 L 772.70 209.45 L 776.35 213.21 L 780.00 212.49" class="path-2" />
<path d="M 50.00 143.97 L 53.65 139.47 L 57.30 139.32 L 60.95 148.49 L 64.60 148.14 L 68.25 148.06 L 71.90 146.28 L 75.55 144.43 L 79.20 146.85 L 82.85 143.68 L 86.50 146.62 L 90.15 152.08 L 93.80 150.01 L 97.45 150.54 L 101.10 158.42 L 104.75 159.85 L 108.40 161.81 L 112.05 159.06 L 115.70 164.21 L 119.35 158.28 L 123.00 155.12 L 126.65 155.88 L 130.30 150.53 L 133.95 152.56 L 137.60 156.00 L 141.25 157.76 L 144.90 162.07 L 148.55 154.74 L 152.20 159.90 L 155.85 155.95 L 159.50 155.12 L 163.15 155.43 L 166.80 150.33 L 170.45 152.30 L 174.10 150.33 L 177.75 145.37 L 181.40 148.04 L 185.05 144.12 L 188.70 142.72 L 192.35 144.83 L 196.00 140.81 L 199.65 139.43 L 203.30 133.48 L 206.95 127.17 L 210.60 122.69 L 214.25 123.43 L 217.90 124.65 L 221.55 125.88 L 225.20 128.46 L 228.85 135.67 L 232.50 136.15 L 236.15 133.61 L 239.80 135.01 L 243.45 132.92 L 247.10 121.86 L 250.75 115.95 L 254.40 121.58 L 258.05 120.43 L 261.70 119.87 L 265.35 117.51 L 269.00 117.28 L 272.65 109.76 L 276.30 107.83 L 279.95 112.99 L 283.60 115.09 L 287.25 117.47 L 290.90 119.23 L 294.55 122.38 L 298.20 113.34 L 301.85 111.10 L 305.50 114.40 L 309.15 113.43 L 312.80 116.31 L 316.45 113.84 L 320.10 108.15 L 323.75 106.93 L 327.40 100.67 L 331.05 100.93 L 334.70 103.86 L 338.35 111.70 L 342.00 115.01 L 345.65 123.18 L 349.30 123.03 L 352.95 126.18 L 356.60 123.70 L 360.25 127.82 L 363.90 126.77 L 367.55 123.86 L 371.20 123.82 L 374.85 124.17 L 378.50 119.64 L 382.15 119.89 L 385.80 125.23 L 389.45 121.24 L 393.10 121.47 L 396.75 123.31 L 400.40 123.00 L 404.05 125.30 L 407.70 122.85 L 411.35 119.46 L 415.00 115.78 L 418.65 114.82 L 422.30 120.26 L 425.95 126.75 L 429.60 131.92 L 433.25 133.64 L 436.90 139.75 L 440.55 136.93 L 444.20 135.93 L 447.85 126.86 L 451.50 133.39 L 455.15 126.67 L 458.80 120.48 L 462.45 121.32 L 466.10 119.35 L 469.75 120.21 L 473.40 119.20 L 477.05 117.11 L 480.70 118.48 L 484.35 124.34 L 488.00 124.71 L 491.65 124.67 L 495.30 126.91 L 498.95 131.54 L 502.60 127.97 L 506.25 123.05 L 509.90 120.27 L 513.55 125.47 L 517.20 129.36 L 520.85 136.29 L 524.50 134.63 L 528.15 133.73 L 531.80 131.90 L 535.45 129.58 L 539.10 126.48 L 542.75 133.46 L 546.40 136.54 L 550.05 136.47 L 553.70 135.80 L 557.35 133.73 L 561.00 133.06 L 564.65 134.14 L 568.30 134.32 L 571.95 141.19 L 575.60 139.60 L 579.25 142.25 L 582.90 141.75 L 586.55 140.70 L 590.20 146.73 L 593.85 142.37 L 597.50 145.01 L 601.15 142.68 L 604.80 138.07 L 608.45 125.14 L 612.10 125.84 L 615.75 126.95 L 619.40 130.49 L 623.05 130.88 L 626.70 122.24 L 630.35 122.12 L 634.00 125.48 L 637.65 129.16 L 641.30 127.48 L 644.95 129.79 L 648.60 125.64 L 652.25 119.94 L 655.90 110.96 L 659.55 117.64 L 663.20 121.06 L 666.85 122.66 L 670.50 119.72 L 674.15 113.02 L 677.80 114.67 L 681.45 115.94 L 685.10 124.38 L 688.75 122.09 L 692.40 119.01 L 696.05 113.19 L 699.70 118.41 L 703.35 123.13 L 707.00 123.26 L 710.65 126.55 L 714.30 124.50 L 717.95 128.08 L 721.60 129.78 L 725.25 122.30 L 728.90 119.17 L 732.55 116.57 L 736.20 115.22 L 739.85 114.87 L 743.50 112.27 L 747.15 106.62 L 750.80 102.58 L 754.45 106.05 L 758.10 108.23 L 761.75 113.33 L 765.40 114.40 L 769.05 114.30 L 772.70 114.21 L 776.35 122.12 L 780.00 121.64" class="path-3" />
<path d="M 50.00 143.97 L 53.65 140.24 L 57.30 135.65 L 60.95 128.68 L 64.60 124.90 L 68.25 128.05 L 71.90 126.70 L 75.55 128.14 L 79.20 124.38 L 82.85 126.91 L 86.50 123.55 L 90.15 122.46 L 93.80 121.07 L 97.45 115.74 L 101.10 109.56 L 104.75 103.47 L 108.40 106.52 L 112.05 108.25 L 115.70 102.39 L 119.35 101.16 L 123.00 97.45 L 126.65 98.80 L 130.30 102.01 L 133.95 101.03 L 137.60 95.21 L 141.25 94.37 L 144.90 89.47 L 148.55 90.34 L 152.20 84.43 L 155.85 84.18 L 159.50 84.18 L 163.15 81.45 L 166.80 84.64 L 170.45 86.00 L 174.10 76.38 L 177.75 79.00 L 181.40 77.89 L 185.05 74.27 L 188.70 73.01 L 192.35 65.38 L 196.00 65.61 L 199.65 70.53 L 203.30 73.73 L 206.95 72.99 L 210.60 77.87 L 214.25 77.10 L 217.90 80.61 L 221.55 85.16 L 225.20 82.12 L 228.85 78.92 L 232.50 83.51 L 236.15 89.36 L 239.80 95.10 L 243.45 89.53 L 247.10 90.49 L 250.75 88.36 L 254.40 89.35 L 258.05 87.19 L 261.70 92.21 L 265.35 97.62 L 269.00 96.00 L 272.65 93.01 L 276.30 96.36 L 279.95 96.20 L 283.60 97.06 L 287.25 92.03 L 290.90 89.50 L 294.55 87.52 L 298.20 89.06 L 301.85 88.67 L 305.50 88.93 L 309.15 88.46 L 312.80 88.28 L 316.45 84.04 L 320.10 83.61 L 323.75 84.56 L 327.40 87.31 L 331.05 89.34 L 334.70 91.68 L 338.35 93.64 L 342.00 96.50 L 345.65 95.50 L 349.30 103.62 L 352.95 100.13 L 356.60 100.10 L 360.25 107.49 L 363.90 113.39 L 367.55 111.15 L 371.20 110.06 L 374.85 107.81 L 378.50 101.47 L 382.15 99.63 L 385.80 95.98 L 389.45 83.60 L 393.10 85.59 L 396.75 90.37 L 400.40 95.42 L 404.05 94.33 L 407.70 95.19 L 411.35 101.72 L 415.00 103.73 L 418.65 109.24 L 422.30 110.05 L 425.95 103.07 L 429.60 111.52 L 433.25 105.10 L 436.90 106.98 L 440.55 110.21 L 444.20 109.38 L 447.85 106.18 L 451.50 107.88 L 455.15 105.63 L 458.80 103.79 L 462.45 105.03 L 466.10 112.20 L 469.75 108.14 L 473.40 105.06 L 477.05 108.52 L 480.70 113.09 L 484.35 115.53 L 488.00 115.89 L 491.65 116.44 L 495.30 120.13 L 498.95 115.34 L 502.60 116.82 L 506.25 112.18 L 509.90 106.90 L 513.55 105.61 L 517.20 107.65 L 520.85 97.49 L 524.50 104.73 L 528.15 108.50 L 531.80 110.87 L 535.45 105.75 L 539.10 102.80 L 542.75 103.12 L 546.40 107.04 L 550.05 108.21 L 553.70 110.99 L 557.35 113.81 L 561.00 116.65 L 564.65 123.22 L 568.30 123.55 L 571.95 122.15 L 575.60 120.99 L 579.25 124.48 L 582.90 121.42 L 586.55 118.49 L 590.20 119.89 L 593.85 123.58 L 597.50 128.29 L 601.15 129.99 L 604.80 127.46 L 608.45 126.05 L 612.10 127.86 L 615.75 130.73 L 619.40 134.70 L 623.05 128.26 L 626.70 131.07 L 630.35 128.47 L 634.00 128.10 L 637.65 129.05 L 641.30 121.74 L 644.95 116.56 L 648.60 121.77 L 652.25 123.57 L 655.90 125.79 L 659.55 125.84 L 663.20 127.18 L 666.85 129.22 L 670.50 136.38 L 674.15 139.39 L 677.80 137.95 L 681.45 136.59 L 685.10 131.28 L 688.75 126.29 L 692.40 122.24 L 696.05 120.58 L 699.70 117.84 L 703.35 120.03 L 707.00 116.34 L 710.65 111.43 L 714.30 112.99 L 717.95 114.75 L 721.60 114.84 L 725.25 110.45 L 728.90 107.75 L 732.55 111.13 L 736.20 112.67 L 739.85 119.31 L 743.50 112.47 L 747.15 116.95 L 750.80 124.33 L 754.45 121.44 L 758.10 116.96 L 761.75 113.33 L 765.40 112.82 L 769.05 113.49 L 772.70 116.10 L 776.35 113.54 L 780.00 116.14" class="path-4" />
<line x1="50" y1="144.0" x2="780" y2="144.0" stroke="#4b5563" stroke-width="0.8" stroke-dasharray="6 3" />
</svg>