<svg xmlns="http://www.w3.org/2000/svg" viewBox="0 0 800 300" width="800" height="300">
<style>
.axis-line { stroke: #6b7280; stroke-width: 0.5; }
.axis-text { font-family: monospace; font-size: 11px; fill: #9ca3af; }
.title-text { font-family: monospace; font-size: 14px; fill: #d1d5db; font-weight: bold; }
.grid-line { stroke: #374151; stroke-width: 0.3; stroke-dasharray: 4 2; }
.path-0 { fill: none; stroke: #3b82f6; stroke-width: 2; stroke-linecap: round; opacity: 0.85; animation: draw-0 8s ease-in-out 0.0s infinite; stroke-dasharray: 1204; stroke-dashoffset: 1204;}
@keyframes draw-0 { 0% { stroke-dashoffset: 1204; } 38% { stroke-dashoffset: 0; } 62% { stroke-dashoffset: 0; } 100% { stroke-dashoffset: 1204; }}
.path-1 { fill: none; stroke: #ef4444; stroke-width: 2; stroke-linecap: round; opacity: 0.85; animation: draw-1 8s ease-in-out 0.4s infinite; stroke-dasharray: 1206; stroke-dashoffset: 1206;}
@keyframes draw-1 { 0% { stroke-dashoffset: 1206; } 38% { stroke-dashoffset: 0; } 62% { stroke-dashoffset: 0; } 100% { stroke-dashoffset: 1206; }}
.path-2 { fill: none; stroke: #22c55e; stroke-width: 2; stroke-linecap: round; opacity: 0.85; animation: draw-2 8s ease-in-out 0.8s infinite; stroke-dasharray: 1183; stroke-dashoffset: 1183;}
@keyframes draw-2 { 0% { stroke-dashoffset: 1183; } 38% { stroke-dashoffset: 0; } 62% { stroke-dashoffset: 0; } 100% { stroke-dashoffset: 1183; }}
.path-3 { fill: none; stroke: #f59e0b; stroke-width: 2; stroke-linecap: round; opacity: 0.85; animation: draw-3 8s ease-in-out 1.2000000000000002s infinite; stroke-dasharray: 1220; stroke-dashoffset: 1220;}
@keyframes draw-3 { 0% { stroke-dashoffset: 1220; } 38% { stroke-dashoffset: 0; } 62% { stroke-dashoffset: 0; } 100% { stroke-dashoffset: 1220; }}
.path-4 { fill: none; stroke: #a855f7; stroke-width: 2; stroke-linecap: round; opacity: 0.85; animation: draw-4 8s ease-in-out 1.6s infinite; stroke-dasharray: 1210; stroke-dashoffset: 1210;}
@keyframes draw-4 { 0% { stroke-dashoffset: 1210; } 38% { stroke-dashoffset: 0; } 62% { stroke-dashoffset: 0; } 100% { stroke-dashoffset: 1210; }}
</style>
<rect width="800" height="300" rx="8" fill="#0d1117" />
<line x1="50" y1="260.0" x2="780" y2="260.0" class="grid-line" />
<text x="44" y="264.0" text-anchor="end" class="axis-text">-1.3</text>
<line x1="50" y1="216.0" x2="780" y2="216.0" class="grid-line" />
<text x="44" y="220.0" text-anchor="end" class="axis-text">-0.7</text>
<line x1="50" y1="172.0" x2="780" y2="172.0" class="grid-line" />
<text x="44" y="176.0" text-anchor="end" class="axis-text">-0.1</text>
<line x1="50" y1="128.0" x2="780" y2="128.0" class="grid-line" />
<text x="44" y="132.0" text-anchor="end" class="axis-text">0.5</text>
<line x1="50" y1="84.0" x2="780" y2="84.0" class="grid-line" />
<text x="44" y="88.0" text-anchor="end" class="axis-text">1.0</text>
<line x1="50" y1="40.0" x2="780" y2="40.0" class="grid-line" />
<text x="44" y="44.0" text-anchor="end" class="axis-text">1.6</text>
<line x1="50.0" y1="40" x2="50.0" y2="260" class="grid-line" />
<line x1="196.0" y1="40" x2="196.0" y2="260" class="grid-line" />
<line x1="342.0" y1="40" x2="342.0" y2="260" class="grid-line" />
<line x1="488.0" y1="40" x2="488.0" y2="260" class="grid-line" />
<line x1="634.0" y1="40" x2="634.0" y2="260" class="grid-line" />
<line x1="780.0" y1="40" x2="780.0" y2="260" class="grid-line" />
<line x1="50" y1="260" x2="780" y2="260" class="axis-line" />
<line x1="50" y1="40" x2="50" y2="260" class="axis-line" />
<text x="400.0" y="295" text-anchor="middle" class="axis-text">t</text>
<text x="12" y="150.0" text-anchor="middle" class="axis-text" transform="rotate(-90 12 150.0)">W(t)</text>
<text x="400.0" y="22" text-anchor="middle" class="title-text">Brownian Motion</text>
<path d="M 50.00 162.57 L 53.65 162.59 L 57.30 165.19 L 60.95 169.61 L 64.60 174.93 L 68.25 166.79 L 71.90 169.30 L 75.55 169.98 L 79.20 166.52 L 82.85 172.73 L 86.50 169.89 L 90.15 165.65 L 93.80 164.82 L 97.45 167.78 L 101.10 161.26 L 104.75 167.14 L 108.40 163.34 L 112.05 161.56 L 115.70 155.30 L 119.35 149.43 L 123.00 149.10 L 126.65 148.68 L 130.30 144.62 L 133.95 136.60 L 137.60 146.62 L 141.25 146.65 L 144.90 133.03 L 148.55 136.45 L 152.20 139.76 L 155.85 150.03 L 159.50 158.20 L 163.15 159.36 L 166.80 162.54 L 170.45 157.42 L 174.10 162.91 L 177.75 152.40 L 181.40 146.67 L 185.05 138.96 L 188.70 135.73 L 192.35 143.73 L 196.00 148.89 L 199.65 150.93 L 203.30 151.67 L 206.95 156.15 L 210.60 146.92 L 214.25 143.58 L 217.90 145.93 L 221.55 146.82 L 225.20 146.99 L 228.85 148.08 L 232.50 143.19 L 236.15 136.66 L 239.80 138.42 L 243.45 140.44 L 247.10 137.85 L 250.75 141.00 L 254.40 145.48 L 258.05 148.10 L 261.70 142.63 L 265.35 143.17 L 269.00 147.45 L 272.65 152.16 L 276.30 150.35 L 279.95 154.81 L 283.60 150.87 L 287.25 146.87 L 290.90 148.58 L 294.55 147.24 L 298.20 141.01 L 301.85 140.88 L 305.50 149.40 L 309.15 148.18 L 312.80 147.37 L 316.45 151.26 L 320.10 157.20 L 323.75 156.07 L 327.40 151.25 L 331.05 143.12 L 334.70 154.61 L 338.35 155.82 L 342.00 155.95 L 345.65 153.91 L 349.30 148.34 L 352.95 146.75 L 356.60 142.05 L 360.25 142.72 L 363.90 148.08 L 367.55 139.94 L 371.20 137.42 L 374.85 132.61 L 378.50 125.76 L 382.15 132.52 L 385.80 133.21 L 389.45 135.34 L 393.10 137.63 L 396.75 138.20 L 400.40 135.48 L 404.05 137.95 L 407.70 141.02 L 411.35 152.72 L 415.00 149.83 L 418.65 157.59 L 422.30 157.73 L 425.95 151.14 L 429.60 139.93 L 433.25 143.48 L 436.90 155.97 L 440.55 155.03 L 444.20 155.73 L 447.85 150.70 L 451.50 152.10 L 455.15 142.87 L 458.80 138.52 L 462.45 141.52 L 466.10 149.92 L 469.75 142.65 L 473.40 148.54 L 477.05 150.78 L 480.70 143.68 L 484.35 145.30 L 488.00 146.99 L 491.65 154.68 L 495.30 152.10 L 498.95 155.90 L 502.60 161.52 L 506.25 166.41 L 509.90 164.67 L 513.55 162.71 L 517.20 170.75 L 520.85 171.77 L 524.50 166.90 L 528.15 179.70 L 531.80 182.05 L 535.45 184.74 L 539.10 190.51 L 542.75 185.86 L 546.40 178.33 L 550.05 175.45 L 553.70 169.63 L 557.35 163.59 L 561.00 165.41 L 564.65 170.97 L 568.30 170.51 L 571.95 171.82 L 575.60 173.00 L 579.25 180.62 L 582.90 178.01 L 586.55 164.80 L 590.20 159.58 L 593.85 163.97 L 597.50 168.54 L 601.15 173.41 L 604.80 170.49 L 608.45 163.29 L 612.10 161.23 L 615.75 167.23 L 619.40 163.45 L 623.05 165.81 L 626.70 162.78 L 630.35 157.70 L 634.00 149.87 L 637.65 159.89 L 641.30 151.78 L 644.95 152.40 L 648.60 160.65 L 652.25 165.70 L 655.90 157.52 L 659.55 153.27 L 663.20 148.83 L 666.85 147.96 L 670.50 147.58 L 674.15 144.08 L 677.80 146.27 L 681.45 137.79 L 685.10 138.48 L 688.75 134.55 L 692.40 142.66 L 696.05 145.07 L 699.70 145.95 L 703.35 151.25 L 707.00 147.17 L 710.65 144.06 L 714.30 143.56 L 717.95 149.00 L 721.60 153.07 L 725.25 147.14 L 728.90 141.68 L 732.55 153.11 L 736.20 153.69 L 739.85 155.61 L 743.50 156.96 L 747.15 155.19 L 750.80 157.90 L 754.45 153.35 L 758.10 150.07 L 761.75 148.27 L 765.40 141.84 L 769.05 135.96 L 772.70 138.26 L 776.35 137.90 L 780.00 129.06" class="path-0" />
<path d="M 50.00 162.57 L 53.65 156.75 L 57.30 151.26 L 60.95 154.14 L 64.60 155.95 L 68.25 154.09 L 71.90 148.71 L 75.55 154.12 L 79.20 154.40 L 82.85 151.69 L 86.50 161.92 L 90.15 159.85 L 93.80 157.77 L 97.45 153.37 L 101.10 144.85 L 104.75 145.95 L 108.40 154.58 L 112.05 145.66 L 115.70 143.30 L 119.35 135.99 L 123.00 129.99 L 126.65 116.11 L 130.30 112.95 L 133.95 124.23 L 137.60 130.66 L 141.25 131.91 L 144.90 130.78 L 148.55 141.79 L 152.20 153.33 L 155.85 144.25 L 159.50 145.51 L 163.15 148.26 L 166.80 150.66 L 170.45 153.17 L 174.10 151.49 L 177.75 155.37 L 181.40 155.85 L 185.05 159.64 L 188.70 164.89 L 192.35 170.20 L 196.00 171.25 L 199.65 181.72 L 203.30 180.68 L 206.95 176.06 L 210.60 178.87 L 214.25 184.05 L 217.90 188.51 L 221.55 186.67 L 225.20 186.67 L 228.85 184.69 L 232.50 181.46 L 236.15 181.79 L 239.80 181.14 L 243.45 189.63 L 247.10 186.80 L 250.75 174.66 L 254.40 173.62 L 258.05 177.71 L 261.70 171.02 L 265.35 177.84 L 269.00 183.93 L 272.65 187.84 L 276.30 183.01 L 279.95 179.91 L 283.60 179.45 L 287.25 186.36 L 290.90 183.20 L 294.55 188.45 L 298.20 195.49 L 301.85 191.11 L 305.50 191.85 L 309.15 193.04 L 312.80 192.21 L 316.45 189.76 L 320.10 188.79 L 323.75 191.20 L 327.40 193.89 L 331.05 190.82 L 334.70 187.30 L 338.35 183.29 L 342.00 188.73 L 345.65 191.09 L 349.30 185.78 L 352.95 184.82 L 356.60 190.98 L 360.25 187.00 L 363.90 176.41 L 367.55 174.21 L 371.20 173.64 L 374.85 170.95 L 378.50 177.03 L 382.15 175.28 L 385.80 174.17 L 389.45 175.12 L 393.10 179.57 L 396.75 182.04 L 400.40 171.48 L 404.05 164.49 L 407.70 166.33 L 411.35 178.76 L 415.00 180.84 L 418.65 186.37 L 422.30 195.02 L 425.95 186.51 L 429.60 173.72 L 433.25 173.40 L 436.90 171.14 L 440.55 173.08 L 444.20 173.24 L 447.85 168.78 L 451.50 170.97 L 455.15 173.73 L 458.80 168.52 L 462.45 162.02 L 466.10 156.28 L 469.75 156.52 L 473.40 154.71 L 477.05 162.49 L 480.70 156.29 L 484.35 158.45 L 488.00 155.18 L 491.65 154.61 L 495.30 160.05 L 498.95 159.83 L 502.60 157.30 L 506.25 158.53 L 509.90 157.41 L 513.55 157.27 L 517.20 154.81 L 520.85 153.26 L 524.50 159.90 L 528.15 157.64 L 531.80 167.36 L 535.45 172.75 L 539.10 168.72 L 542.75 158.53 L 546.40 161.01 L 550.05 154.99 L 553.70 159.33 L 557.35 159.37 L 561.00 164.51 L 564.65 165.03 L 568.30 161.68 L 571.95 165.79 L 575.60 174.85 L 579.25 176.34 L 582.90 180.06 L 586.55 174.03 L 590.20 175.81 L 593.85 167.18 L 597.50 164.46 L 601.15 173.53 L 604.80 177.47 L 608.45 170.74 L 612.10 171.30 L 615.75 168.68 L 619.40 168.51 L 623.05 163.62 L 626.70 166.52 L 630.35 168.75 L 634.00 172.10 L 637.65 163.94 L 641.30 160.24 L 644.95 165.18 L 648.60 162.42 L 652.25 157.10 L 655.90 152.54 L 659.55 162.90 L 663.20 160.06 L 666.85 156.35 L 670.50 165.68 L 674.15 165.31 L 677.80 167.61 L 681.45 169.46 L 685.10 174.79 L 688.75 175.96 L 692.40 175.64 L 696.05 170.66 L 699.70 176.79 L 703.35 168.49 L 707.00 168.16 L 710.65 167.40 L 714.30 170.13 L 717.95 171.57 L 721.60 178.56 L 725.25 182.37 L 728.90 181.86 L 732.55 189.63 L 736.20 198.29 L 739.85 201.89 L 743.50 201.27 L 747.15 210.06 L 750.80 198.89 L 754.45 202.18 L 758.10 198.57 L 761.75 206.83 L 765.40 210.19 L 769.05 204.69 L 772.70 194.07 L 776.35 194.87 L 780.00 185.79" class="path-1" />
<path d="M 50.00 162.57 L 53.65 157.42 L 57.30 157.53 L 60.95 161.71 L 64.60 159.26 L 68.25 162.30 L 71.90 169.83 L 75.55 176.56 L 79.20 177.80 L 82.85 183.36 L 86.50 187.14 L 90.15 187.55 L 93.80 193.49 L 97.45 201.43 L 101.10 206.57 L 104.75 206.58 L 108.40 206.59 L 112.05 221.15 L 115.70 220.52 L 119.35 218.64 L 123.00 219.14 L 126.65 211.92 L 130.30 216.42 L 133.95 222.95 L 137.60 227.93 L 141.25 229.97 L 144.90 234.62 L 148.55 230.07 L 152.20 222.03 L 155.85 226.84 L 159.50 223.60 L 163.15 224.22 L 166.80 218.16 L 170.45 213.25 L 174.10 216.43 L 177.75 212.41 L 181.40 214.12 L 185.05 223.08 L 188.70 221.99 L 192.35 220.22 L 196.00 219.72 L 199.65 219.96 L 203.30 205.81 L 206.95 201.77 L 210.60 199.95 L 214.25 208.43 L 217.90 206.45 L 221.55 199.15 L 225.20 201.25 L 228.85 202.36 L 232.50 197.99 L 236.15 200.17 L 239.80 196.04 L 243.45 189.53 L 247.10 192.31 L 250.75 193.97 L 254.40 195.77 L 258.05 202.86 L 261.70 207.35 L 265.35 205.88 L 269.00 212.11 L 272.65 209.53 L 276.30 216.43 L 279.95 216.44 L 283.60 211.17 L 287.25 207.81 L 290.90 212.55 L 294.55 207.53 L 298.20 206.35 L 301.85 205.26 L 305.50 190.87 L 309.15 190.33 L 312.80 191.29 L 316.45 184.97 L 320.10 186.13 L 323.75 178.36 L 327.40 171.06 L 331.05 165.36 L 334.70 167.96 L 338.35 156.96 L 342.00 165.53 L 345.65 163.52 L 349.30 159.76 L 352.95 153.93 L 356.60 152.73 L 360.25 160.42 L 363.90 155.47 L 367.55 155.84 L 371.20 144.16 L 374.85 135.28 L 378.50 139.47 L 382.15 136.84 L 385.80 139.85 L 389.45 138.37 L 393.10 133.66 L 396.75 127.40 L 400.40 126.08 L 404.05 124.55 L 407.70 122.04 L 411.35 128.17 L 415.00 135.12 L 418.65 131.90 L 422.30 131.88 L 425.95 131.88 L 429.60 121.48 L 433.25 122.21 L 436.90 123.81 L 440.55 122.62 L 444.20 125.72 L 447.85 125.67 L 451.50 127.36 L 455.15 136.58 L 458.80 127.91 L 462.45 118.02 L 466.10 111.80 L 469.75 118.95 L 473.40 117.49 L 477.05 113.23 L 480.70 109.80 L 484.35 106.02 L 488.00 101.70 L 491.65 92.60 L 495.30 91.89 L 498.95 93.23 L 502.60 86.16 L 506.25 91.97 L 509.90 90.03 L 513.55 83.95 L 517.20 81.04 L 520.85 76.81 L 524.50 83.46 L 528.15 82.71 L 531.80 90.91 L 535.45 94.49 L 539.10 91.25 L 542.75 83.11 L 546.40 89.85 L 550.05 91.48 L 553.70 86.03 L 557.35 87.58 L 561.00 81.59 L 564.65 82.85 L 568.30 82.68 L 571.95 82.10 L 575.60 89.13 L 579.25 91.40 L 582.90 91.92 L 586.55 90.73 L 590.20 93.23 L 593.85 90.81 L 597.50 91.41 L 601.15 95.70 L 604.80 85.75 L 608.45 77.23 L 612.10 70.39 L 615.75 72.95 L 619.40 69.37 L 623.05 69.70 L 626.70 71.13 L 630.35 75.92 L 634.00 80.02 L 637.65 80.25 L 641.30 83.63 L 644.95 80.05 L 648.60 75.48 L 652.25 82.36 L 655.90 88.58 L 659.55 88.51 L 663.20 87.90 L 666.85 90.09 L 670.50 84.73 L 674.15 90.75 L 677.80 86.16 L 681.45 80.25 L 685.10 76.20 L 688.75 74.01 L 692.40 74.81 L 696.05 71.46 L 699.70 76.49 L 703.35 82.47 L 707.00 70.78 L 710.65 65.38 L 714.30 67.36 L 717.95 77.60 L 721.60 78.51 L 725.25 86.05 L 728.90 85.97 L 732.55 89.81 L 736.20 77.28 L 739.85 73.16 L 743.50 76.61 L 747.15 78.73 L 750.80 76.07 L 754.45 77.66 L 758.10 72.45 L 761.75 72.79 L 765.40 72.01 L 769.05 69.17 L 772.70 70.90 L 776.35 78.81 L 780.00 78.60" class="path-2" />
<path d="M 50.00 162.57 L 53.65 163.15 L 57.30 167.67 L 60.95 170.98 L 64.60 163.32 L 68.25 168.32 L 71.90 171.43 L 75.55 169.76 L 79.20 173.99 L 82.85 167.30 L 86.50 170.26 L 90.15 177.89 L 93.80 189.79 L 97.45 191.18 L 101.10 188.35 L 104.75 195.13 L 108.40 187.45 L 112.05 190.10 L 115.70 182.73 L 119.35 181.04 L 123.00 174.57 L 126.65 178.35 L 130.30 177.31 L 133.95 171.40 L 137.60 169.38 L 141.25 166.16 L 144.90 165.48 L 148.55 163.48 L 152.20 158.19 L 155.85 152.98 L 159.50 150.54 L 163.15 158.95 L 166.80 158.63 L 170.45 158.04 L 174.10 147.12 L 177.75 145.36 L 181.40 137.41 L 185.05 139.76 L 188.70 142.08 L 192.35 140.98 L 196.00 139.67 L 199.65 146.10 L 203.30 139.43 L 206.95 133.91 L 210.60 131.29 L 214.25 133.20 L 217.90 135.88 L 221.55 130.04 L 225.20 129.38 L 228.85 136.07 L 232.50 146.14 L 236.15 158.68 L 239.80 147.69 L 243.45 154.99 L 247.10 160.68 L 250.75 158.22 L 254.40 152.99 L 258.05 161.98 L 261.70 152.97 L 265.35 145.83 L 269.00 147.13 L 272.65 147.55 L 276.30 143.68 L 279.95 150.27 L 283.60 150.00 L 287.25 163.46 L 290.90 162.23 L 294.55 167.36 L 298.20 169.79 L 301.85 175.43 L 305.50 174.23 L 309.15 181.41 L 312.80 179.63 L 316.45 181.95 L 320.10 189.54 L 323.75 187.78 L 327.40 191.46 L 331.05 188.37 L 334.70 180.13 L 338.35 186.08 L 342.00 188.51 L 345.65 200.28 L 349.30 206.37 L 352.95 204.38 L 356.60 193.46 L 360.25 197.47 L 363.90 191.89 L 367.55 195.76 L 371.20 195.62 L 374.85 189.47 L 378.50 192.33 L 382.15 191.29 L 385.80 194.12 L 389.45 187.63 L 393.10 183.38 L 396.75 188.79 L 400.40 182.79 L 404.05 180.95 L 407.70 180.35 L 411.35 181.96 L 415.00 175.31 L 418.65 180.54 L 422.30 178.45 L 425.95 181.99 L 429.60 179.38 L 433.25 188.04 L 436.90 191.39 L 440.55 184.35 L 444.20 179.62 L 447.85 178.84 L 451.50 180.81 L 455.15 177.11 L 458.80 171.09 L 462.45 182.17 L 466.10 178.11 L 469.75 176.92 L 473.40 172.19 L 477.05 170.97 L 480.70 164.07 L 484.35 163.84 L 488.00 171.69 L 491.65 174.24 L 495.30 176.49 L 498.95 175.32 L 502.60 181.37 L 506.25 182.06 L 509.90 189.20 L 513.55 183.83 L 517.20 186.07 L 520.85 180.13 L 524.50 184.46 L 528.15 185.15 L 531.80 192.36 L 535.45 182.90 L 539.10 182.47 L 542.75 177.78 L 546.40 181.84 L 550.05 181.56 L 553.70 184.87 L 557.35 190.98 L 561.00 186.36 L 564.65 186.07 L 568.30 193.24 L 571.95 191.60 L 575.60 187.97 L 579.25 183.27 L 582.90 185.52 L 586.55 188.80 L 590.20 188.11 L 593.85 186.81 L 597.50 180.45 L 601.15 179.77 L 604.80 182.41 L 608.45 170.05 L 612.10 160.33 L 615.75 152.58 L 619.40 154.69 L 623.05 162.21 L 626.70 155.92 L 630.35 152.37 L 634.00 151.71 L 637.65 143.86 L 641.30 144.75 L 644.95 141.77 L 648.60 149.12 L 652.25 148.60 L 655.90 143.69 L 659.55 144.86 L 663.20 141.02 L 666.85 139.80 L 670.50 137.11 L 674.15 143.51 L 677.80 146.79 L 681.45 142.29 L 685.10 143.69 L 688.75 135.42 L 692.40 133.88 L 696.05 128.73 L 699.70 135.88 L 703.35 125.38 L 707.00 133.63 L 710.65 127.06 L 714.30 135.55 L 717.95 136.27 L 721.60 142.64 L 725.25 142.72 L 728.90 152.31 L 732.55 150.52 L 736.20 150.21 L 739.85 152.91 L 743.50 149.74 L 747.15 150.03 L 750.80 156.55 L 754.45 156.78 L 758.10 164.43 L 761.75 164.89 L 765.40 164.76 L 769.05 168.22 L 772.70 178.56 L 776.35 184.53 L 780.00 181.79" class="path-3" />
<path d="M 50.00 162.57 L 53.65 166.72 L 57.30 163.58 L 60.95 157.98 L 64.60 153.40 L 68.25 147.49 L 71.90 149.99 L 75.55 140.59 L 79.20 145.11 L 82.85 150.61 L 86.50 145.12 L 90.15 141.40 L 93.80 137.71 L 97.45 140.46 L 101.10 137.64 L 104.75 131.71 L 108.40 133.98 L 112.05 131.66 L 115.70 139.36 L 119.35 138.03 L 123.00 142.43 L 126.65 149.09 L 130.30 153.24 L 133.95 152.01 L 137.60 156.00 L 141.25 151.61 L 144.90 153.51 L 148.55 152.59 L 152.20 148.02 L 155.85 142.11 L 159.50 144.73 L 163.15 139.68 L 166.80 128.32 L 170.45 127.36 L 174.10 125.44 L 177.75 133.04 L 181.40 143.41 L 185.05 139.18 L 188.70 138.88 L 192.35 131.65 L 196.00 131.13 L 199.65 125.64 L 203.30 126.88 L 206.95 124.59 L 210.60 126.16 L 214.25 130.54 L 217.90 125.98 L 221.55 128.68 L 225.20 126.21 L 228.85 131.10 L 232.50 130.86 L 236.15 146.16 L 239.80 146.45 L 243.45 146.70 L 247.10 144.34 L 250.75 146.65 L 254.40 143.97 L 258.05 148.01 L 261.70 143.27 L 265.35 138.73 L 269.00 136.86 L 272.65 137.31 L 276.30 154.45 L 279.95 144.40 L 283.60 143.71 L 287.25 131.53 L 290.90 132.37 L 294.55 132.73 L 298.20 136.18 L 301.85 139.51 L 305.50 147.07 L 309.15 141.43 L 312.80 143.75 L 316.45 143.39 L 320.10 135.31 L 323.75 134.44 L 327.40 138.10 L 331.05 142.22 L 334.70 129.52 L 338.35 140.50 L 342.00 140.22 L 345.65 131.38 L 349.30 132.33 L 352.95 131.11 L 356.60 130.94 L 360.25 130.06 L 363.90 127.13 L 367.55 132.82 L 371.20 130.79 L 374.85 124.02 L 378.50 128.45 L 382.15 126.21 L 385.80 135.78 L 389.45 136.98 L 393.10 131.44 L 396.75 133.13 L 400.40 123.68 L 404.05 126.47 L 407.70 135.07 L 411.35 139.38 L 415.00 136.12 L 418.65 134.85 L 422.30 127.55 L 425.95 134.42 L 429.60 129.59 L 433.25 125.39 L 436.90 120.88 L 440.55 116.52 L 444.20 120.75 L 447.85 124.55 L 451.50 122.02 L 455.15 126.35 L 458.80 123.06 L 462.45 126.37 L 466.10 121.75 L 469.75 120.88 L 473.40 123.17 L 477.05 117.66 L 480.70 117.03 L 484.35 111.58 L 488.00 120.96 L 491.65 126.40 L 495.30 128.46 L 498.95 119.18 L 502.60 121.74 L 506.25 124.51 L 509.90 119.84 L 513.55 117.46 L 517.20 121.67 L 520.85 114.85 L 524.50 108.91 L 528.15 117.30 L 531.80 116.98 L 535.45 110.53 L 539.10 115.12 L 542.75 112.72 L 546.40 107.54 L 550.05 95.54 L 553.70 96.68 L 557.35 103.29 L 561.00 108.49 L 564.65 117.69 L 568.30 121.22 L 571.95 123.32 L 575.60 124.26 L 579.25 120.19 L 582.90 119.22 L 586.55 118.83 L 590.20 120.59 L 593.85 115.25 L 597.50 111.48 L 601.15 113.25 L 604.80 115.23 L 608.45 115.55 L 612.10 110.35 L 615.75 102.62 L 619.40 91.77 L 623.05 90.78 L 626.70 88.56 L 630.35 94.09 L 634.00 96.37 L 637.65 104.31 L 641.30 98.51 L 644.95 92.48 L 648.60 96.42 L 652.25 113.23 L 655.90 109.96 L 659.55 112.39 L 663.20 111.79 L 666.85 120.24 L 670.50 123.38 L 674.15 125.12 L 677.80 128.57 L 681.45 138.72 L 685.10 140.46 L 688.75 139.02 L 692.40 144.03 L 696.05 146.16 L 699.70 147.48 L 703.35 150.45 L 707.00 155.72 L 710.65 161.83 L 714.30 165.18 L 717.95 158.58 L 721.60 154.45 L 725.25 143.13 L 728.90 137.53 L 732.55 137.95 L 736.20 136.41 L 739.85 140.45 L 743.50 134.83 L 747.15 132.28 L 750.80 137.59 L 754.45 147.46 L 758.10 148.18 L 761.75 147.87 L 765.40 158.80 L 769.05 164.17 L 772.70 168.48 L 776.35 168.66 L 780.00 168.09" class="path-4" />
<line x1="50" y1="162.6" x2="780" y2="162.6" stroke="#4b5563" stroke-width="0.8" stroke-dasharray="6 3" />
</svg>