<svg xmlns="http://www.w3.org/2000/svg" viewBox="0 0 800 300" width="800" height="300">
<style>
.axis-line { stroke: #6b7280; stroke-width: 0.5; }
.axis-text { font-family: monospace; font-size: 11px; fill: #9ca3af; }
.title-text { font-family: monospace; font-size: 14px; fill: #d1d5db; font-weight: bold; }
.grid-line { stroke: #374151; stroke-width: 0.3; stroke-dasharray: 4 2; }
.path-0 { fill: none; stroke: #3b82f6; stroke-width: 2; stroke-linecap: round; opacity: 0.85; animation: draw-0 8s ease-in-out 0.0s infinite; stroke-dasharray: 1121; stroke-dashoffset: 1121;}
@keyframes draw-0 { 0% { stroke-dashoffset: 1121; } 38% { stroke-dashoffset: 0; } 62% { stroke-dashoffset: 0; } 100% { stroke-dashoffset: 1121; }}
.path-1 { fill: none; stroke: #ef4444; stroke-width: 2; stroke-linecap: round; opacity: 0.85; animation: draw-1 8s ease-in-out 0.4s infinite; stroke-dasharray: 1123; stroke-dashoffset: 1123;}
@keyframes draw-1 { 0% { stroke-dashoffset: 1123; } 38% { stroke-dashoffset: 0; } 62% { stroke-dashoffset: 0; } 100% { stroke-dashoffset: 1123; }}
.path-2 { fill: none; stroke: #22c55e; stroke-width: 2; stroke-linecap: round; opacity: 0.85; animation: draw-2 8s ease-in-out 0.8s infinite; stroke-dasharray: 1170; stroke-dashoffset: 1170;}
@keyframes draw-2 { 0% { stroke-dashoffset: 1170; } 38% { stroke-dashoffset: 0; } 62% { stroke-dashoffset: 0; } 100% { stroke-dashoffset: 1170; }}
.path-3 { fill: none; stroke: #f59e0b; stroke-width: 2; stroke-linecap: round; opacity: 0.85; animation: draw-3 8s ease-in-out 1.2000000000000002s infinite; stroke-dasharray: 1163; stroke-dashoffset: 1163;}
@keyframes draw-3 { 0% { stroke-dashoffset: 1163; } 38% { stroke-dashoffset: 0; } 62% { stroke-dashoffset: 0; } 100% { stroke-dashoffset: 1163; }}
.path-4 { fill: none; stroke: #a855f7; stroke-width: 2; stroke-linecap: round; opacity: 0.85; animation: draw-4 8s ease-in-out 1.6s infinite; stroke-dasharray: 1189; stroke-dashoffset: 1189;}
@keyframes draw-4 { 0% { stroke-dashoffset: 1189; } 38% { stroke-dashoffset: 0; } 62% { stroke-dashoffset: 0; } 100% { stroke-dashoffset: 1189; }}
</style>
<rect width="800" height="300" rx="8" fill="#0d1117" />
<line x1="50" y1="260.0" x2="780" y2="260.0" class="grid-line" />
<text x="44" y="264.0" text-anchor="end" class="axis-text">-1.7</text>
<line x1="50" y1="216.0" x2="780" y2="216.0" class="grid-line" />
<text x="44" y="220.0" text-anchor="end" class="axis-text">-1.1</text>
<line x1="50" y1="172.0" x2="780" y2="172.0" class="grid-line" />
<text x="44" y="176.0" text-anchor="end" class="axis-text">-0.4</text>
<line x1="50" y1="128.0" x2="780" y2="128.0" class="grid-line" />
<text x="44" y="132.0" text-anchor="end" class="axis-text">0.2</text>
<line x1="50" y1="84.0" x2="780" y2="84.0" class="grid-line" />
<text x="44" y="88.0" text-anchor="end" class="axis-text">0.8</text>
<line x1="50" y1="40.0" x2="780" y2="40.0" class="grid-line" />
<text x="44" y="44.0" text-anchor="end" class="axis-text">1.5</text>
<line x1="50.0" y1="40" x2="50.0" y2="260" class="grid-line" />
<line x1="196.0" y1="40" x2="196.0" y2="260" class="grid-line" />
<line x1="342.0" y1="40" x2="342.0" y2="260" class="grid-line" />
<line x1="488.0" y1="40" x2="488.0" y2="260" class="grid-line" />
<line x1="634.0" y1="40" x2="634.0" y2="260" class="grid-line" />
<line x1="780.0" y1="40" x2="780.0" y2="260" class="grid-line" />
<line x1="50" y1="260" x2="780" y2="260" class="axis-line" />
<line x1="50" y1="40" x2="50" y2="260" class="axis-line" />
<text x="400.0" y="295" text-anchor="middle" class="axis-text">t</text>
<text x="12" y="150.0" text-anchor="middle" class="axis-text" transform="rotate(-90 12 150.0)">W(t)</text>
<text x="400.0" y="22" text-anchor="middle" class="title-text">Brownian Motion</text>
<path d="M 50.00 142.93 L 53.65 140.89 L 57.30 137.71 L 60.95 141.78 L 64.60 137.55 L 68.25 133.63 L 71.90 136.78 L 75.55 131.45 L 79.20 126.09 L 82.85 128.01 L 86.50 126.54 L 90.15 127.04 L 93.80 122.25 L 97.45 119.76 L 101.10 110.20 L 104.75 107.87 L 108.40 109.77 L 112.05 111.60 L 115.70 113.50 L 119.35 112.47 L 123.00 115.58 L 126.65 122.21 L 130.30 123.53 L 133.95 122.95 L 137.60 120.33 L 141.25 118.53 L 144.90 126.23 L 148.55 126.93 L 152.20 130.77 L 155.85 126.68 L 159.50 125.75 L 163.15 123.51 L 166.80 120.12 L 170.45 117.19 L 174.10 109.87 L 177.75 102.02 L 181.40 103.55 L 185.05 103.87 L 188.70 105.98 L 192.35 102.29 L 196.00 103.25 L 199.65 110.63 L 203.30 113.82 L 206.95 113.11 L 210.60 111.40 L 214.25 114.40 L 217.90 124.81 L 221.55 123.44 L 225.20 124.27 L 228.85 119.94 L 232.50 121.54 L 236.15 122.47 L 239.80 118.64 L 243.45 118.51 L 247.10 123.73 L 250.75 120.38 L 254.40 121.32 L 258.05 123.04 L 261.70 133.89 L 265.35 123.22 L 269.00 124.68 L 272.65 128.05 L 276.30 130.47 L 279.95 128.38 L 283.60 128.46 L 287.25 131.11 L 290.90 137.89 L 294.55 136.19 L 298.20 135.92 L 301.85 127.89 L 305.50 124.29 L 309.15 129.17 L 312.80 126.45 L 316.45 115.04 L 320.10 114.80 L 323.75 116.34 L 327.40 113.85 L 331.05 117.29 L 334.70 118.39 L 338.35 117.54 L 342.00 113.83 L 345.65 101.44 L 349.30 100.00 L 352.95 107.80 L 356.60 108.20 L 360.25 110.37 L 363.90 110.77 L 367.55 112.01 L 371.20 106.90 L 374.85 100.37 L 378.50 104.70 L 382.15 104.41 L 385.80 99.72 L 389.45 100.84 L 393.10 100.05 L 396.75 109.78 L 400.40 117.05 L 404.05 116.93 L 407.70 115.85 L 411.35 116.49 L 415.00 118.92 L 418.65 116.64 L 422.30 116.24 L 425.95 112.13 L 429.60 112.30 L 433.25 113.78 L 436.90 111.97 L 440.55 110.44 L 444.20 108.55 L 447.85 104.08 L 451.50 103.28 L 455.15 101.24 L 458.80 102.98 L 462.45 94.68 L 466.10 85.98 L 469.75 72.40 L 473.40 66.22 L 477.05 69.03 L 480.70 69.46 L 484.35 69.50 L 488.00 69.04 L 491.65 70.28 L 495.30 74.42 L 498.95 74.35 L 502.60 69.69 L 506.25 72.37 L 509.90 65.38 L 513.55 72.54 L 517.20 80.18 L 520.85 81.27 L 524.50 87.67 L 528.15 81.08 L 531.80 79.16 L 535.45 80.60 L 539.10 83.27 L 542.75 87.21 L 546.40 90.24 L 550.05 88.38 L 553.70 88.20 L 557.35 97.89 L 561.00 96.24 L 564.65 103.75 L 568.30 111.13 L 571.95 114.98 L 575.60 116.90 L 579.25 124.90 L 582.90 130.99 L 586.55 136.46 L 590.20 132.52 L 593.85 131.20 L 597.50 133.75 L 601.15 139.07 L 604.80 146.16 L 608.45 145.50 L 612.10 138.86 L 615.75 132.84 L 619.40 130.59 L 623.05 131.87 L 626.70 131.99 L 630.35 133.11 L 634.00 137.48 L 637.65 133.01 L 641.30 136.45 L 644.95 138.00 L 648.60 134.68 L 652.25 131.18 L 655.90 131.45 L 659.55 134.08 L 663.20 126.55 L 666.85 125.55 L 670.50 127.82 L 674.15 141.73 L 677.80 144.67 L 681.45 147.15 L 685.10 153.00 L 688.75 151.64 L 692.40 155.40 L 696.05 157.52 L 699.70 159.33 L 703.35 147.48 L 707.00 153.68 L 710.65 150.40 L 714.30 149.15 L 717.95 151.58 L 721.60 155.92 L 725.25 164.28 L 728.90 165.00 L 732.55 171.07 L 736.20 177.03 L 739.85 169.61 L 743.50 176.31 L 747.15 170.75 L 750.80 168.68 L 754.45 174.77 L 758.10 176.57 L 761.75 173.79 L 765.40 163.19 L 769.05 155.04 L 772.70 156.04 L 776.35 151.26 L 780.00 139.59" class="path-0" />
<path d="M 50.00 142.93 L 53.65 141.10 L 57.30 147.95 L 60.95 154.09 L 64.60 152.50 L 68.25 153.80 L 71.90 150.96 L 75.55 154.74 L 79.20 153.79 L 82.85 152.74 L 86.50 150.83 L 90.15 143.31 L 93.80 140.80 L 97.45 142.81 L 101.10 143.41 L 104.75 138.54 L 108.40 139.23 L 112.05 133.82 L 115.70 140.85 L 119.35 146.53 L 123.00 149.45 L 126.65 150.53 L 130.30 144.13 L 133.95 143.12 L 137.60 151.16 L 141.25 153.42 L 144.90 163.58 L 148.55 171.21 L 152.20 174.27 L 155.85 171.08 L 159.50 170.21 L 163.15 171.59 L 166.80 166.69 L 170.45 161.48 L 174.10 153.51 L 177.75 159.46 L 181.40 158.04 L 185.05 153.72 L 188.70 144.17 L 192.35 145.53 L 196.00 144.17 L 199.65 145.19 L 203.30 140.26 L 206.95 142.72 L 210.60 144.18 L 214.25 146.22 L 217.90 139.53 L 221.55 146.58 L 225.20 147.86 L 228.85 138.11 L 232.50 147.70 L 236.15 155.91 L 239.80 162.47 L 243.45 162.21 L 247.10 159.69 L 250.75 161.57 L 254.40 165.28 L 258.05 167.71 L 261.70 170.28 L 265.35 167.51 L 269.00 167.51 L 272.65 165.17 L 276.30 162.69 L 279.95 165.71 L 283.60 166.54 L 287.25 163.01 L 290.90 158.42 L 294.55 154.15 L 298.20 158.36 L 301.85 163.67 L 305.50 164.73 L 309.15 165.50 L 312.80 160.79 L 316.45 165.03 L 320.10 157.94 L 323.75 162.33 L 327.40 163.10 L 331.05 158.81 L 334.70 156.20 L 338.35 158.28 L 342.00 149.31 L 345.65 143.16 L 349.30 147.60 L 352.95 152.84 L 356.60 151.33 L 360.25 154.58 L 363.90 158.00 L 367.55 157.44 L 371.20 161.20 L 374.85 160.00 L 378.50 153.69 L 382.15 153.62 L 385.80 146.65 L 389.45 142.61 L 393.10 144.84 L 396.75 141.28 L 400.40 145.04 L 404.05 154.69 L 407.70 157.89 L 411.35 161.01 L 415.00 158.82 L 418.65 165.00 L 422.30 171.14 L 425.95 172.94 L 429.60 165.64 L 433.25 164.76 L 436.90 162.52 L 440.55 164.08 L 444.20 162.19 L 447.85 166.49 L 451.50 159.94 L 455.15 165.29 L 458.80 157.78 L 462.45 153.63 L 466.10 151.48 L 469.75 152.23 L 473.40 152.01 L 477.05 146.81 L 480.70 145.44 L 484.35 141.82 L 488.00 137.60 L 491.65 132.80 L 495.30 139.38 L 498.95 136.58 L 502.60 130.62 L 506.25 135.78 L 509.90 132.66 L 513.55 140.51 L 517.20 144.31 L 520.85 146.31 L 524.50 149.06 L 528.15 151.52 L 531.80 154.15 L 535.45 156.40 L 539.10 156.94 L 542.75 157.76 L 546.40 159.68 L 550.05 157.85 L 553.70 154.23 L 557.35 159.38 L 561.00 157.78 L 564.65 163.07 L 568.30 172.05 L 571.95 174.96 L 575.60 169.84 L 579.25 167.99 L 582.90 173.89 L 586.55 175.30 L 590.20 182.07 L 593.85 176.12 L 597.50 180.79 L 601.15 179.33 L 604.80 176.51 L 608.45 187.44 L 612.10 178.24 L 615.75 181.66 L 619.40 184.65 L 623.05 185.22 L 626.70 179.28 L 630.35 185.02 L 634.00 184.87 L 637.65 182.28 L 641.30 185.28 L 644.95 181.90 L 648.60 183.61 L 652.25 176.61 L 655.90 179.81 L 659.55 184.01 L 663.20 189.84 L 666.85 200.47 L 670.50 204.69 L 674.15 203.35 L 677.80 199.54 L 681.45 204.94 L 685.10 208.18 L 688.75 210.41 L 692.40 205.24 L 696.05 200.98 L 699.70 203.11 L 703.35 203.92 L 707.00 199.86 L 710.65 213.00 L 714.30 216.28 L 717.95 220.44 L 721.60 214.73 L 725.25 212.47 L 728.90 221.81 L 732.55 223.13 L 736.20 230.33 L 739.85 229.79 L 743.50 226.85 L 747.15 225.22 L 750.80 227.21 L 754.45 222.48 L 758.10 218.72 L 761.75 220.64 L 765.40 227.93 L 769.05 227.92 L 772.70 228.69 L 776.35 231.33 L 780.00 234.62" class="path-1" />
<path d="M 50.00 142.93 L 53.65 138.95 L 57.30 150.48 L 60.95 158.31 L 64.60 158.97 L 68.25 164.07 L 71.90 161.00 L 75.55 155.69 L 79.20 161.68 L 82.85 164.83 L 86.50 168.23 L 90.15 171.09 L 93.80 166.70 L 97.45 164.48 L 101.10 167.66 L 104.75 163.08 L 108.40 157.94 L 112.05 162.20 L 115.70 154.01 L 119.35 157.82 L 123.00 160.11 L 126.65 157.68 L 130.30 156.67 L 133.95 155.65 L 137.60 149.36 L 141.25 147.86 L 144.90 149.76 L 148.55 143.94 L 152.20 142.65 L 155.85 144.96 L 159.50 145.82 L 163.15 144.41 L 166.80 143.25 L 170.45 137.79 L 174.10 128.56 L 177.75 129.89 L 181.40 126.00 L 185.05 120.82 L 188.70 126.23 L 192.35 126.18 L 196.00 120.67 L 199.65 126.51 L 203.30 131.70 L 206.95 131.76 L 210.60 128.85 L 214.25 136.09 L 217.90 134.74 L 221.55 134.99 L 225.20 138.95 L 228.85 143.78 L 232.50 144.02 L 236.15 142.32 L 239.80 148.62 L 243.45 141.80 L 247.10 136.55 L 250.75 130.55 L 254.40 127.46 L 258.05 131.50 L 261.70 128.94 L 265.35 129.55 L 269.00 137.81 L 272.65 133.87 L 276.30 132.72 L 279.95 135.25 L 283.60 136.34 L 287.25 133.52 L 290.90 147.76 L 294.55 151.73 L 298.20 148.27 L 301.85 156.27 L 305.50 150.67 L 309.15 156.32 L 312.80 162.09 L 316.45 165.58 L 320.10 168.31 L 323.75 160.48 L 327.40 159.85 L 331.05 167.36 L 334.70 170.92 L 338.35 173.94 L 342.00 173.13 L 345.65 186.64 L 349.30 185.20 L 352.95 185.91 L 356.60 181.32 L 360.25 170.09 L 363.90 174.95 L 367.55 178.84 L 371.20 184.50 L 374.85 183.39 L 378.50 180.97 L 382.15 176.17 L 385.80 172.13 L 389.45 179.92 L 393.10 184.89 L 396.75 182.11 L 400.40 175.96 L 404.05 174.98 L 407.70 180.92 L 411.35 180.63 L 415.00 185.54 L 418.65 189.95 L 422.30 187.06 L 425.95 175.54 L 429.60 176.42 L 433.25 181.51 L 436.90 186.36 L 440.55 180.21 L 444.20 174.68 L 447.85 176.46 L 451.50 174.24 L 455.15 177.48 L 458.80 178.40 L 462.45 181.39 L 466.10 186.84 L 469.75 186.71 L 473.40 185.74 L 477.05 180.35 L 480.70 172.43 L 484.35 172.40 L 488.00 171.04 L 491.65 177.18 L 495.30 174.21 L 498.95 181.19 L 502.60 176.96 L 506.25 176.54 L 509.90 180.10 L 513.55 180.59 L 517.20 181.26 L 520.85 185.91 L 524.50 184.56 L 528.15 184.69 L 531.80 174.07 L 535.45 168.72 L 539.10 165.60 L 542.75 169.51 L 546.40 168.66 L 550.05 166.15 L 553.70 166.95 L 557.35 176.47 L 561.00 176.84 L 564.65 174.62 L 568.30 168.66 L 571.95 168.59 L 575.60 171.32 L 579.25 169.79 L 582.90 166.38 L 586.55 163.43 L 590.20 159.44 L 593.85 162.10 L 597.50 160.69 L 601.15 161.58 L 604.80 162.52 L 608.45 159.07 L 612.10 168.40 L 615.75 175.13 L 619.40 171.93 L 623.05 177.03 L 626.70 174.04 L 630.35 169.94 L 634.00 178.49 L 637.65 182.08 L 641.30 186.62 L 644.95 183.97 L 648.60 190.52 L 652.25 188.57 L 655.90 182.75 L 659.55 180.80 L 663.20 174.77 L 666.85 167.67 L 670.50 163.91 L 674.15 151.49 L 677.80 152.63 L 681.45 148.05 L 685.10 149.17 L 688.75 148.55 L 692.40 143.61 L 696.05 141.16 L 699.70 145.32 L 703.35 143.17 L 707.00 138.76 L 710.65 130.34 L 714.30 126.61 L 717.95 128.81 L 721.60 136.22 L 725.25 141.30 L 728.90 138.21 L 732.55 139.81 L 736.20 129.02 L 739.85 118.04 L 743.50 105.73 L 747.15 111.29 L 750.80 99.04 L 754.45 101.63 L 758.10 97.37 L 761.75 103.29 L 765.40 105.42 L 769.05 102.66 L 772.70 100.36 L 776.35 93.62 L 780.00 95.84" class="path-2" />
<path d="M 50.00 142.93 L 53.65 149.63 L 57.30 145.41 L 60.95 149.50 L 64.60 150.49 L 68.25 148.69 L 71.90 153.85 L 75.55 157.85 L 79.20 157.28 L 82.85 161.59 L 86.50 157.62 L 90.15 163.60 L 93.80 155.37 L 97.45 156.38 L 101.10 156.52 L 104.75 165.34 L 108.40 167.90 L 112.05 167.88 L 115.70 163.55 L 119.35 169.49 L 123.00 170.66 L 126.65 169.48 L 130.30 165.84 L 133.95 168.42 L 137.60 160.74 L 141.25 168.04 L 144.90 156.36 L 148.55 159.04 L 152.20 160.02 L 155.85 161.63 L 159.50 168.42 L 163.15 164.20 L 166.80 165.32 L 170.45 172.88 L 174.10 177.71 L 177.75 172.45 L 181.40 168.87 L 185.05 169.33 L 188.70 175.08 L 192.35 183.22 L 196.00 191.76 L 199.65 194.31 L 203.30 198.60 L 206.95 199.95 L 210.60 204.28 L 214.25 196.94 L 217.90 195.58 L 221.55 197.86 L 225.20 191.15 L 228.85 182.58 L 232.50 179.27 L 236.15 181.43 L 239.80 181.66 L 243.45 180.21 L 247.10 188.62 L 250.75 184.83 L 254.40 190.42 L 258.05 196.00 L 261.70 191.19 L 265.35 189.82 L 269.00 190.70 L 272.65 193.57 L 276.30 189.76 L 279.95 192.56 L 283.60 186.24 L 287.25 187.46 L 290.90 188.23 L 294.55 190.76 L 298.20 187.80 L 301.85 196.08 L 305.50 199.57 L 309.15 200.79 L 312.80 199.59 L 316.45 201.94 L 320.10 198.36 L 323.75 204.63 L 327.40 211.73 L 331.05 218.77 L 334.70 221.47 L 338.35 229.75 L 342.00 229.05 L 345.65 232.06 L 349.30 223.93 L 352.95 213.83 L 356.60 216.79 L 360.25 216.12 L 363.90 219.89 L 367.55 219.02 L 371.20 206.85 L 374.85 213.93 L 378.50 209.51 L 382.15 213.23 L 385.80 212.36 L 389.45 208.76 L 393.10 202.84 L 396.75 199.83 L 400.40 190.53 L 404.05 192.53 L 407.70 199.79 L 411.35 200.56 L 415.00 192.19 L 418.65 186.51 L 422.30 191.72 L 425.95 200.14 L 429.60 204.53 L 433.25 189.42 L 436.90 196.51 L 440.55 200.45 L 444.20 194.04 L 447.85 187.69 L 451.50 197.33 L 455.15 188.47 L 458.80 184.65 L 462.45 183.28 L 466.10 184.93 L 469.75 183.69 L 473.40 183.41 L 477.05 180.66 L 480.70 171.79 L 484.35 172.40 L 488.00 172.57 L 491.65 170.52 L 495.30 173.83 L 498.95 177.24 L 502.60 175.07 L 506.25 173.64 L 509.90 179.58 L 513.55 175.33 L 517.20 180.20 L 520.85 187.45 L 524.50 184.92 L 528.15 195.24 L 531.80 196.26 L 535.45 195.95 L 539.10 200.51 L 542.75 196.93 L 546.40 192.97 L 550.05 186.83 L 553.70 184.46 L 557.35 186.53 L 561.00 186.60 L 564.65 189.31 L 568.30 189.44 L 571.95 193.01 L 575.60 191.99 L 579.25 192.72 L 582.90 191.33 L 586.55 194.45 L 590.20 191.25 L 593.85 186.76 L 597.50 184.57 L 601.15 191.11 L 604.80 191.10 L 608.45 187.32 L 612.10 181.86 L 615.75 178.39 L 619.40 181.25 L 623.05 179.52 L 626.70 175.26 L 630.35 176.11 L 634.00 188.72 L 637.65 188.19 L 641.30 188.99 L 644.95 182.68 L 648.60 181.97 L 652.25 184.68 L 655.90 191.41 L 659.55 193.65 L 663.20 197.89 L 666.85 189.00 L 670.50 189.65 L 674.15 192.96 L 677.80 184.80 L 681.45 192.54 L 685.10 189.55 L 688.75 191.13 L 692.40 191.18 L 696.05 188.50 L 699.70 184.82 L 703.35 179.83 L 707.00 178.12 L 710.65 188.41 L 714.30 184.98 L 717.95 185.72 L 721.60 185.95 L 725.25 187.06 L 728.90 196.31 L 732.55 201.85 L 736.20 205.64 L 739.85 201.29 L 743.50 201.42 L 747.15 209.32 L 750.80 212.71 L 754.45 214.89 L 758.10 211.75 L 761.75 207.61 L 765.40 209.97 L 769.05 214.41 L 772.70 210.77 L 776.35 211.90 L 780.00 217.82" class="path-3" />
<path d="M 50.00 142.93 L 53.65 140.42 L 57.30 131.26 L 60.95 135.00 L 64.60 134.30 L 68.25 134.74 L 71.90 136.06 L 75.55 129.89 L 79.20 133.55 L 82.85 144.28 L 86.50 142.00 L 90.15 140.51 L 93.80 133.16 L 97.45 133.98 L 101.10 133.97 L 104.75 120.12 L 108.40 116.18 L 112.05 121.64 L 115.70 133.20 L 119.35 126.61 L 123.00 119.23 L 126.65 125.12 L 130.30 116.63 L 133.95 113.61 L 137.60 113.36 L 141.25 117.50 L 144.90 123.90 L 148.55 115.60 L 152.20 109.28 L 155.85 115.80 L 159.50 108.19 L 163.15 112.69 L 166.80 116.20 L 170.45 118.47 L 174.10 114.81 L 177.75 117.03 L 181.40 115.55 L 185.05 112.24 L 188.70 112.43 L 192.35 117.22 L 196.00 124.22 L 199.65 124.43 L 203.30 117.89 L 206.95 129.04 L 210.60 129.03 L 214.25 134.30 L 217.90 128.47 L 221.55 134.62 L 225.20 134.94 L 228.85 128.15 L 232.50 138.20 L 236.15 128.97 L 239.80 117.92 L 243.45 119.86 L 247.10 114.58 L 250.75 116.74 L 254.40 119.12 L 258.05 111.81 L 261.70 118.23 L 265.35 117.53 L 269.00 119.81 L 272.65 123.15 L 276.30 119.57 L 279.95 121.63 L 283.60 129.27 L 287.25 126.63 L 290.90 124.36 L 294.55 131.02 L 298.20 130.95 L 301.85 124.07 L 305.50 123.48 L 309.15 132.04 L 312.80 133.02 L 316.45 121.66 L 320.10 124.57 L 323.75 119.49 L 327.40 115.87 L 331.05 120.19 L 334.70 121.99 L 338.35 125.45 L 342.00 132.21 L 345.65 125.25 L 349.30 116.95 L 352.95 113.59 L 356.60 110.46 L 360.25 110.21 L 363.90 112.23 L 367.55 111.12 L 371.20 110.27 L 374.85 105.84 L 378.50 105.80 L 382.15 111.21 L 385.80 109.41 L 389.45 110.43 L 393.10 109.34 L 396.75 110.13 L 400.40 104.36 L 404.05 109.03 L 407.70 111.78 L 411.35 122.39 L 415.00 135.00 L 418.65 133.94 L 422.30 134.24 L 425.95 133.69 L 429.60 137.59 L 433.25 135.51 L 436.90 145.64 L 440.55 143.23 L 444.20 145.24 L 447.85 142.86 L 451.50 142.75 L 455.15 138.21 L 458.80 137.82 L 462.45 141.46 L 466.10 142.56 L 469.75 143.92 L 473.40 142.42 L 477.05 141.89 L 480.70 139.36 L 484.35 141.45 L 488.00 149.57 L 491.65 148.11 L 495.30 148.81 L 498.95 151.94 L 502.60 154.95 L 506.25 147.74 L 509.90 158.55 L 513.55 164.89 L 517.20 161.18 L 520.85 158.22 L 524.50 155.65 L 528.15 157.29 L 531.80 153.74 L 535.45 149.20 L 539.10 147.30 L 542.75 144.99 L 546.40 156.39 L 550.05 154.36 L 553.70 157.48 L 557.35 160.72 L 561.00 155.98 L 564.65 152.68 L 568.30 160.55 L 571.95 158.27 L 575.60 160.87 L 579.25 156.99 L 582.90 158.87 L 586.55 165.09 L 590.20 163.66 L 593.85 166.63 L 597.50 169.29 L 601.15 165.56 L 604.80 162.53 L 608.45 170.35 L 612.10 173.85 L 615.75 176.72 L 619.40 168.27 L 623.05 165.81 L 626.70 158.84 L 630.35 169.43 L 634.00 169.10 L 637.65 172.64 L 641.30 176.15 L 644.95 185.98 L 648.60 185.61 L 652.25 187.13 L 655.90 192.25 L 659.55 182.87 L 663.20 181.86 L 666.85 186.38 L 670.50 179.42 L 674.15 171.02 L 677.80 166.89 L 681.45 162.48 L 685.10 168.34 L 688.75 165.61 L 692.40 170.96 L 696.05 171.82 L 699.70 164.70 L 703.35 171.10 L 707.00 168.43 L 710.65 171.56 L 714.30 167.57 L 717.95 170.29 L 721.60 170.64 L 725.25 170.16 L 728.90 178.07 L 732.55 181.13 L 736.20 186.13 L 739.85 183.12 L 743.50 188.33 L 747.15 191.73 L 750.80 187.15 L 754.45 193.57 L 758.10 196.53 L 761.75 201.11 L 765.40 203.03 L 769.05 199.87 L 772.70 192.15 L 776.35 190.27 L 780.00 195.85" class="path-4" />
<line x1="50" y1="142.9" x2="780" y2="142.9" stroke="#4b5563" stroke-width="0.8" stroke-dasharray="6 3" />
</svg>