<svg xmlns="http://www.w3.org/2000/svg" viewBox="0 0 800 300" width="800" height="300">
<style>
.axis-line { stroke: #6b7280; stroke-width: 0.5; }
.axis-text { font-family: monospace; font-size: 11px; fill: #9ca3af; }
.title-text { font-family: monospace; font-size: 14px; fill: #d1d5db; font-weight: bold; }
.grid-line { stroke: #374151; stroke-width: 0.3; stroke-dasharray: 4 2; }
.path-0 { fill: none; stroke: #3b82f6; stroke-width: 2; stroke-linecap: round; opacity: 0.85; animation: draw-0 8s ease-in-out 0.0s infinite; stroke-dasharray: 1154; stroke-dashoffset: 1154;}
@keyframes draw-0 { 0% { stroke-dashoffset: 1154; } 38% { stroke-dashoffset: 0; } 62% { stroke-dashoffset: 0; } 100% { stroke-dashoffset: 1154; }}
.path-1 { fill: none; stroke: #ef4444; stroke-width: 2; stroke-linecap: round; opacity: 0.85; animation: draw-1 8s ease-in-out 0.4s infinite; stroke-dasharray: 1207; stroke-dashoffset: 1207;}
@keyframes draw-1 { 0% { stroke-dashoffset: 1207; } 38% { stroke-dashoffset: 0; } 62% { stroke-dashoffset: 0; } 100% { stroke-dashoffset: 1207; }}
.path-2 { fill: none; stroke: #22c55e; stroke-width: 2; stroke-linecap: round; opacity: 0.85; animation: draw-2 8s ease-in-out 0.8s infinite; stroke-dasharray: 1193; stroke-dashoffset: 1193;}
@keyframes draw-2 { 0% { stroke-dashoffset: 1193; } 38% { stroke-dashoffset: 0; } 62% { stroke-dashoffset: 0; } 100% { stroke-dashoffset: 1193; }}
.path-3 { fill: none; stroke: #f59e0b; stroke-width: 2; stroke-linecap: round; opacity: 0.85; animation: draw-3 8s ease-in-out 1.2000000000000002s infinite; stroke-dasharray: 1125; stroke-dashoffset: 1125;}
@keyframes draw-3 { 0% { stroke-dashoffset: 1125; } 38% { stroke-dashoffset: 0; } 62% { stroke-dashoffset: 0; } 100% { stroke-dashoffset: 1125; }}
.path-4 { fill: none; stroke: #a855f7; stroke-width: 2; stroke-linecap: round; opacity: 0.85; animation: draw-4 8s ease-in-out 1.6s infinite; stroke-dasharray: 1158; stroke-dashoffset: 1158;}
@keyframes draw-4 { 0% { stroke-dashoffset: 1158; } 38% { stroke-dashoffset: 0; } 62% { stroke-dashoffset: 0; } 100% { stroke-dashoffset: 1158; }}
</style>
<rect width="800" height="300" rx="8" fill="#0d1117" />
<line x1="50" y1="260.0" x2="780" y2="260.0" class="grid-line" />
<text x="44" y="264.0" text-anchor="end" class="axis-text">-1.5</text>
<line x1="50" y1="216.0" x2="780" y2="216.0" class="grid-line" />
<text x="44" y="220.0" text-anchor="end" class="axis-text">-0.8</text>
<line x1="50" y1="172.0" x2="780" y2="172.0" class="grid-line" />
<text x="44" y="176.0" text-anchor="end" class="axis-text">-0.2</text>
<line x1="50" y1="128.0" x2="780" y2="128.0" class="grid-line" />
<text x="44" y="132.0" text-anchor="end" class="axis-text">0.4</text>
<line x1="50" y1="84.0" x2="780" y2="84.0" class="grid-line" />
<text x="44" y="88.0" text-anchor="end" class="axis-text">1.0</text>
<line x1="50" y1="40.0" x2="780" y2="40.0" class="grid-line" />
<text x="44" y="44.0" text-anchor="end" class="axis-text">1.6</text>
<line x1="50.0" y1="40" x2="50.0" y2="260" class="grid-line" />
<line x1="196.0" y1="40" x2="196.0" y2="260" class="grid-line" />
<line x1="342.0" y1="40" x2="342.0" y2="260" class="grid-line" />
<line x1="488.0" y1="40" x2="488.0" y2="260" class="grid-line" />
<line x1="634.0" y1="40" x2="634.0" y2="260" class="grid-line" />
<line x1="780.0" y1="40" x2="780.0" y2="260" class="grid-line" />
<line x1="50" y1="260" x2="780" y2="260" class="axis-line" />
<line x1="50" y1="40" x2="50" y2="260" class="axis-line" />
<text x="400.0" y="295" text-anchor="middle" class="axis-text">t</text>
<text x="12" y="150.0" text-anchor="middle" class="axis-text" transform="rotate(-90 12 150.0)">W(t)</text>
<text x="400.0" y="22" text-anchor="middle" class="title-text">Brownian Motion</text>
<path d="M 50.00 155.20 L 53.65 152.63 L 57.30 158.15 L 60.95 156.68 L 64.60 152.96 L 68.25 150.14 L 71.90 144.40 L 75.55 141.92 L 79.20 140.63 L 82.85 138.20 L 86.50 129.28 L 90.15 133.44 L 93.80 136.70 L 97.45 139.36 L 101.10 146.40 L 104.75 141.45 L 108.40 145.39 L 112.05 147.92 L 115.70 141.37 L 119.35 139.77 L 123.00 133.07 L 126.65 133.86 L 130.30 133.41 L 133.95 137.64 L 137.60 140.54 L 141.25 143.40 L 144.90 155.24 L 148.55 149.49 L 152.20 155.21 L 155.85 154.93 L 159.50 154.81 L 163.15 157.13 L 166.80 161.41 L 170.45 165.35 L 174.10 164.31 L 177.75 145.43 L 181.40 140.19 L 185.05 140.88 L 188.70 145.95 L 192.35 147.27 L 196.00 141.63 L 199.65 144.48 L 203.30 158.64 L 206.95 159.18 L 210.60 154.52 L 214.25 157.91 L 217.90 171.31 L 221.55 173.62 L 225.20 174.87 L 228.85 170.70 L 232.50 162.12 L 236.15 169.08 L 239.80 163.62 L 243.45 165.78 L 247.10 158.60 L 250.75 156.53 L 254.40 153.26 L 258.05 159.56 L 261.70 162.92 L 265.35 164.19 L 269.00 162.76 L 272.65 169.72 L 276.30 171.10 L 279.95 170.73 L 283.60 177.93 L 287.25 175.57 L 290.90 178.99 L 294.55 189.32 L 298.20 186.86 L 301.85 182.48 L 305.50 177.64 L 309.15 171.27 L 312.80 167.58 L 316.45 165.13 L 320.10 170.11 L 323.75 166.62 L 327.40 166.18 L 331.05 171.09 L 334.70 163.28 L 338.35 162.30 L 342.00 163.29 L 345.65 162.76 L 349.30 153.68 L 352.95 147.67 L 356.60 144.33 L 360.25 140.06 L 363.90 140.85 L 367.55 142.81 L 371.20 145.99 L 374.85 149.09 L 378.50 148.53 L 382.15 148.78 L 385.80 153.18 L 389.45 153.01 L 393.10 150.13 L 396.75 150.16 L 400.40 148.44 L 404.05 148.65 L 407.70 143.02 L 411.35 138.15 L 415.00 143.55 L 418.65 135.94 L 422.30 131.91 L 425.95 136.11 L 429.60 138.68 L 433.25 136.28 L 436.90 133.13 L 440.55 128.56 L 444.20 120.09 L 447.85 120.59 L 451.50 117.58 L 455.15 110.89 L 458.80 117.42 L 462.45 124.95 L 466.10 128.25 L 469.75 129.62 L 473.40 126.51 L 477.05 130.82 L 480.70 131.28 L 484.35 133.52 L 488.00 132.12 L 491.65 123.90 L 495.30 121.18 L 498.95 125.10 L 502.60 120.41 L 506.25 121.94 L 509.90 129.68 L 513.55 136.45 L 517.20 135.30 L 520.85 137.83 L 524.50 135.05 L 528.15 134.11 L 531.80 135.36 L 535.45 136.05 L 539.10 145.36 L 542.75 147.24 L 546.40 143.75 L 550.05 142.08 L 553.70 136.07 L 557.35 144.25 L 561.00 137.84 L 564.65 133.34 L 568.30 138.57 L 571.95 134.08 L 575.60 126.99 L 579.25 118.44 L 582.90 119.05 L 586.55 120.34 L 590.20 122.24 L 593.85 125.76 L 597.50 125.20 L 601.15 122.11 L 604.80 123.94 L 608.45 120.54 L 612.10 112.37 L 615.75 109.00 L 619.40 114.89 L 623.05 105.42 L 626.70 106.18 L 630.35 115.83 L 634.00 109.87 L 637.65 107.06 L 641.30 99.22 L 644.95 95.98 L 648.60 94.79 L 652.25 107.14 L 655.90 113.95 L 659.55 119.14 L 663.20 106.89 L 666.85 101.78 L 670.50 95.68 L 674.15 102.93 L 677.80 106.08 L 681.45 105.31 L 685.10 102.25 L 688.75 105.01 L 692.40 107.87 L 696.05 109.29 L 699.70 111.21 L 703.35 112.43 L 707.00 118.46 L 710.65 113.82 L 714.30 116.94 L 717.95 112.46 L 721.60 111.63 L 725.25 110.57 L 728.90 104.17 L 732.55 103.20 L 736.20 99.88 L 739.85 97.43 L 743.50 95.60 L 747.15 99.29 L 750.80 100.99 L 754.45 101.58 L 758.10 100.35 L 761.75 106.40 L 765.40 105.00 L 769.05 103.79 L 772.70 108.34 L 776.35 101.53 L 780.00 101.67" class="path-0" />
<path d="M 50.00 155.20 L 53.65 149.01 L 57.30 145.73 L 60.95 147.62 L 64.60 148.81 L 68.25 139.96 L 71.90 139.57 L 75.55 137.88 L 79.20 144.57 L 82.85 143.56 L 86.50 140.40 L 90.15 143.34 L 93.80 139.65 L 97.45 143.12 L 101.10 144.01 L 104.75 149.27 L 108.40 147.22 L 112.05 155.50 L 115.70 150.69 L 119.35 144.26 L 123.00 152.12 L 126.65 154.72 L 130.30 166.60 L 133.95 173.12 L 137.60 177.41 L 141.25 170.27 L 144.90 179.01 L 148.55 174.24 L 152.20 168.18 L 155.85 169.33 L 159.50 173.92 L 163.15 180.99 L 166.80 185.05 L 170.45 186.49 L 174.10 182.26 L 177.75 186.59 L 181.40 183.83 L 185.05 181.01 L 188.70 174.62 L 192.35 179.43 L 196.00 183.41 L 199.65 187.91 L 203.30 190.76 L 206.95 172.22 L 210.60 167.88 L 214.25 163.42 L 217.90 168.17 L 221.55 167.07 L 225.20 169.82 L 228.85 173.51 L 232.50 182.96 L 236.15 184.68 L 239.80 187.58 L 243.45 181.80 L 247.10 188.16 L 250.75 180.56 L 254.40 182.07 L 258.05 184.31 L 261.70 180.26 L 265.35 176.05 L 269.00 181.20 L 272.65 177.42 L 276.30 176.23 L 279.95 175.55 L 283.60 172.02 L 287.25 161.71 L 290.90 171.54 L 294.55 173.99 L 298.20 170.80 L 301.85 170.75 L 305.50 170.06 L 309.15 185.31 L 312.80 191.73 L 316.45 187.43 L 320.10 183.70 L 323.75 172.97 L 327.40 168.45 L 331.05 175.59 L 334.70 170.51 L 338.35 178.43 L 342.00 180.05 L 345.65 184.89 L 349.30 181.70 L 352.95 179.95 L 356.60 183.56 L 360.25 185.05 L 363.90 192.67 L 367.55 194.94 L 371.20 198.13 L 374.85 192.41 L 378.50 192.76 L 382.15 189.44 L 385.80 193.47 L 389.45 207.67 L 393.10 209.65 L 396.75 208.98 L 400.40 209.80 L 404.05 215.64 L 407.70 218.58 L 411.35 217.47 L 415.00 213.51 L 418.65 211.62 L 422.30 218.32 L 425.95 217.17 L 429.60 213.53 L 433.25 214.42 L 436.90 219.05 L 440.55 217.21 L 444.20 218.18 L 447.85 219.15 L 451.50 227.79 L 455.15 232.74 L 458.80 234.10 L 462.45 232.03 L 466.10 233.03 L 469.75 227.30 L 473.40 227.58 L 477.05 226.46 L 480.70 233.08 L 484.35 228.44 L 488.00 231.24 L 491.65 234.62 L 495.30 227.32 L 498.95 226.82 L 502.60 219.03 L 506.25 222.92 L 509.90 219.90 L 513.55 224.86 L 517.20 225.43 L 520.85 222.68 L 524.50 220.78 L 528.15 226.38 L 531.80 223.32 L 535.45 215.05 L 539.10 207.41 L 542.75 208.30 L 546.40 203.50 L 550.05 206.28 L 553.70 190.11 L 557.35 192.30 L 561.00 184.15 L 564.65 174.40 L 568.30 167.97 L 571.95 171.32 L 575.60 173.39 L 579.25 167.15 L 582.90 173.59 L 586.55 173.74 L 590.20 173.24 L 593.85 173.09 L 597.50 175.30 L 601.15 172.13 L 604.80 177.21 L 608.45 178.30 L 612.10 182.21 L 615.75 177.73 L 619.40 177.36 L 623.05 176.84 L 626.70 177.07 L 630.35 189.71 L 634.00 188.97 L 637.65 186.82 L 641.30 177.79 L 644.95 169.82 L 648.60 174.10 L 652.25 172.31 L 655.90 167.92 L 659.55 172.78 L 663.20 172.01 L 666.85 177.88 L 670.50 173.67 L 674.15 167.75 L 677.80 159.56 L 681.45 159.96 L 685.10 156.56 L 688.75 156.37 L 692.40 155.27 L 696.05 149.58 L 699.70 147.21 L 703.35 150.42 L 707.00 154.38 L 710.65 155.74 L 714.30 163.61 L 717.95 160.11 L 721.60 170.92 L 725.25 174.81 L 728.90 174.27 L 732.55 181.06 L 736.20 183.48 L 739.85 182.88 L 743.50 172.54 L 747.15 178.10 L 750.80 181.87 L 754.45 181.39 L 758.10 177.04 L 761.75 180.50 L 765.40 185.19 L 769.05 177.25 L 772.70 184.05 L 776.35 197.04 L 780.00 192.80" class="path-1" />
<path d="M 50.00 155.20 L 53.65 157.12 L 57.30 161.27 L 60.95 159.48 L 64.60 164.34 L 68.25 171.07 L 71.90 174.30 L 75.55 175.25 L 79.20 183.75 L 82.85 190.43 L 86.50 192.58 L 90.15 200.69 L 93.80 195.34 L 97.45 198.00 L 101.10 192.46 L 104.75 197.84 L 108.40 204.67 L 112.05 204.04 L 115.70 206.10 L 119.35 207.78 L 123.00 211.56 L 126.65 217.05 L 130.30 208.91 L 133.95 199.95 L 137.60 196.13 L 141.25 192.22 L 144.90 182.65 L 148.55 188.29 L 152.20 190.21 L 155.85 196.38 L 159.50 202.18 L 163.15 197.28 L 166.80 202.26 L 170.45 202.11 L 174.10 203.05 L 177.75 199.86 L 181.40 197.15 L 185.05 206.95 L 188.70 198.82 L 192.35 199.81 L 196.00 192.85 L 199.65 192.14 L 203.30 193.35 L 206.95 199.90 L 210.60 202.65 L 214.25 200.95 L 217.90 201.68 L 221.55 199.00 L 225.20 186.95 L 228.85 191.38 L 232.50 183.31 L 236.15 179.56 L 239.80 169.53 L 243.45 169.02 L 247.10 166.98 L 250.75 168.53 L 254.40 159.04 L 258.05 161.80 L 261.70 153.44 L 265.35 150.27 L 269.00 147.52 L 272.65 144.75 L 276.30 148.73 L 279.95 148.34 L 283.60 145.59 L 287.25 143.99 L 290.90 143.97 L 294.55 141.77 L 298.20 150.18 L 301.85 144.16 L 305.50 142.07 L 309.15 133.37 L 312.80 132.63 L 316.45 124.64 L 320.10 134.12 L 323.75 145.75 L 327.40 141.85 L 331.05 142.68 L 334.70 139.86 L 338.35 134.02 L 342.00 144.76 L 345.65 146.37 L 349.30 143.17 L 352.95 140.39 L 356.60 139.93 L 360.25 139.38 L 363.90 137.32 L 367.55 132.72 L 371.20 136.45 L 374.85 134.34 L 378.50 132.21 L 382.15 125.72 L 385.80 124.25 L 389.45 132.20 L 393.10 127.35 L 396.75 118.63 L 400.40 117.13 L 404.05 125.35 L 407.70 133.41 L 411.35 139.50 L 415.00 146.65 L 418.65 143.69 L 422.30 146.98 L 425.95 136.15 L 429.60 132.50 L 433.25 133.86 L 436.90 138.80 L 440.55 140.50 L 444.20 145.12 L 447.85 137.59 L 451.50 135.89 L 455.15 138.93 L 458.80 134.13 L 462.45 124.70 L 466.10 122.61 L 469.75 120.02 L 473.40 119.63 L 477.05 120.92 L 480.70 114.43 L 484.35 116.26 L 488.00 112.66 L 491.65 117.37 L 495.30 124.44 L 498.95 121.98 L 502.60 122.28 L 506.25 120.72 L 509.90 125.55 L 513.55 126.37 L 517.20 125.03 L 520.85 123.79 L 524.50 120.83 L 528.15 116.04 L 531.80 122.62 L 535.45 124.62 L 539.10 117.77 L 542.75 126.55 L 546.40 138.30 L 550.05 137.09 L 553.70 133.72 L 557.35 130.39 L 561.00 129.28 L 564.65 137.45 L 568.30 139.62 L 571.95 136.30 L 575.60 141.66 L 579.25 139.31 L 582.90 143.72 L 586.55 144.69 L 590.20 139.79 L 593.85 140.47 L 597.50 140.39 L 601.15 142.61 L 604.80 147.79 L 608.45 160.72 L 612.10 155.82 L 615.75 164.29 L 619.40 168.87 L 623.05 169.06 L 626.70 170.08 L 630.35 167.17 L 634.00 172.47 L 637.65 174.25 L 641.30 179.25 L 644.95 181.06 L 648.60 179.33 L 652.25 177.53 L 655.90 177.29 L 659.55 176.64 L 663.20 181.73 L 666.85 177.48 L 670.50 174.60 L 674.15 174.99 L 677.80 174.65 L 681.45 166.16 L 685.10 174.45 L 688.75 167.15 L 692.40 175.15 L 696.05 179.34 L 699.70 179.98 L 703.35 187.68 L 707.00 181.64 L 710.65 194.57 L 714.30 194.81 L 717.95 195.43 L 721.60 194.47 L 725.25 201.91 L 728.90 199.77 L 732.55 194.76 L 736.20 202.93 L 739.85 208.95 L 743.50 209.95 L 747.15 211.66 L 750.80 218.15 L 754.45 210.87 L 758.10 211.43 L 761.75 217.45 L 765.40 217.78 L 769.05 215.42 L 772.70 213.99 L 776.35 221.29 L 780.00 217.93" class="path-2" />
<path d="M 50.00 155.20 L 53.65 150.84 L 57.30 148.04 L 60.95 153.02 L 64.60 160.02 L 68.25 156.67 L 71.90 154.35 L 75.55 156.82 L 79.20 158.95 L 82.85 166.70 L 86.50 163.27 L 90.15 156.66 L 93.80 157.69 L 97.45 164.82 L 101.10 150.41 L 104.75 156.32 L 108.40 155.88 L 112.05 152.76 L 115.70 156.11 L 119.35 156.19 L 123.00 154.22 L 126.65 164.63 L 130.30 161.86 L 133.95 152.40 L 137.60 147.46 L 141.25 148.49 L 144.90 150.95 L 148.55 158.83 L 152.20 162.43 L 155.85 167.63 L 159.50 171.51 L 163.15 169.98 L 166.80 169.28 L 170.45 162.33 L 174.10 158.03 L 177.75 152.17 L 181.40 155.56 L 185.05 150.64 L 188.70 143.05 L 192.35 142.99 L 196.00 143.69 L 199.65 149.14 L 203.30 149.83 L 206.95 145.18 L 210.60 146.42 L 214.25 144.75 L 217.90 147.69 L 221.55 149.43 L 225.20 150.09 L 228.85 150.68 L 232.50 151.43 L 236.15 153.86 L 239.80 151.14 L 243.45 149.82 L 247.10 147.16 L 250.75 145.12 L 254.40 142.16 L 258.05 146.34 L 261.70 146.75 L 265.35 144.57 L 269.00 134.18 L 272.65 140.21 L 276.30 140.41 L 279.95 142.17 L 283.60 137.91 L 287.25 131.71 L 290.90 140.08 L 294.55 138.22 L 298.20 136.85 L 301.85 142.75 L 305.50 141.86 L 309.15 131.10 L 312.80 128.99 L 316.45 133.13 L 320.10 133.96 L 323.75 134.83 L 327.40 132.79 L 331.05 136.09 L 334.70 139.31 L 338.35 136.84 L 342.00 135.87 L 345.65 138.13 L 349.30 135.11 L 352.95 133.94 L 356.60 137.00 L 360.25 135.51 L 363.90 136.31 L 367.55 134.87 L 371.20 129.73 L 374.85 133.22 L 378.50 126.51 L 382.15 118.85 L 385.80 120.91 L 389.45 115.59 L 393.10 117.53 L 396.75 108.58 L 400.40 109.84 L 404.05 108.49 L 407.70 100.93 L 411.35 101.54 L 415.00 102.51 L 418.65 102.98 L 422.30 101.63 L 425.95 100.43 L 429.60 98.43 L 433.25 99.73 L 436.90 89.61 L 440.55 86.69 L 444.20 92.22 L 447.85 89.64 L 451.50 94.98 L 455.15 93.51 L 458.80 95.91 L 462.45 105.60 L 466.10 98.59 L 469.75 96.90 L 473.40 109.08 L 477.05 107.42 L 480.70 117.20 L 484.35 120.20 L 488.00 125.58 L 491.65 123.52 L 495.30 121.40 L 498.95 119.51 L 502.60 119.08 L 506.25 113.76 L 509.90 112.48 L 513.55 110.09 L 517.20 103.76 L 520.85 100.73 L 524.50 98.78 L 528.15 99.03 L 531.80 101.55 L 535.45 95.24 L 539.10 93.37 L 542.75 93.68 L 546.40 90.17 L 550.05 82.23 L 553.70 77.35 L 557.35 70.42 L 561.00 74.82 L 564.65 69.76 L 568.30 77.17 L 571.95 86.10 L 575.60 88.81 L 579.25 84.79 L 582.90 85.79 L 586.55 89.81 L 590.20 89.58 L 593.85 88.57 L 597.50 82.16 L 601.15 86.35 L 604.80 90.74 L 608.45 82.40 L 612.10 85.77 L 615.75 84.17 L 619.40 80.34 L 623.05 83.55 L 626.70 76.35 L 630.35 85.31 L 634.00 76.86 L 637.65 70.40 L 641.30 71.82 L 644.95 70.67 L 648.60 68.60 L 652.25 65.38 L 655.90 68.70 L 659.55 66.99 L 663.20 68.40 L 666.85 71.14 L 670.50 69.19 L 674.15 71.37 L 677.80 88.93 L 681.45 92.43 L 685.10 91.87 L 688.75 99.15 L 692.40 101.43 L 696.05 96.20 L 699.70 94.97 L 703.35 89.88 L 707.00 94.49 L 710.65 88.03 L 714.30 86.38 L 717.95 85.55 L 721.60 81.91 L 725.25 82.98 L 728.90 77.84 L 732.55 73.23 L 736.20 69.29 L 739.85 76.76 L 743.50 82.04 L 747.15 81.25 L 750.80 87.30 L 754.45 79.91 L 758.10 77.83 L 761.75 75.22 L 765.40 81.51 L 769.05 76.56 L 772.70 78.11 L 776.35 75.81 L 780.00 73.80" class="path-3" />
<path d="M 50.00 155.20 L 53.65 154.66 L 57.30 158.06 L 60.95 158.02 L 64.60 157.78 L 68.25 149.90 L 71.90 156.15 L 75.55 156.54 L 79.20 151.04 L 82.85 157.16 L 86.50 170.09 L 90.15 168.90 L 93.80 169.56 L 97.45 167.44 L 101.10 164.10 L 104.75 159.79 L 108.40 163.29 L 112.05 173.00 L 115.70 166.68 L 119.35 168.51 L 123.00 162.30 L 126.65 163.07 L 130.30 161.89 L 133.95 161.19 L 137.60 156.37 L 141.25 150.62 L 144.90 147.68 L 148.55 152.34 L 152.20 161.75 L 155.85 165.30 L 159.50 164.13 L 163.15 167.31 L 166.80 156.73 L 170.45 158.24 L 174.10 157.26 L 177.75 155.41 L 181.40 151.83 L 185.05 150.55 L 188.70 151.07 L 192.35 144.45 L 196.00 146.99 L 199.65 132.69 L 203.30 133.78 L 206.95 130.04 L 210.60 130.26 L 214.25 125.67 L 217.90 125.00 L 221.55 120.09 L 225.20 127.17 L 228.85 128.98 L 232.50 136.11 L 236.15 129.93 L 239.80 124.36 L 243.45 125.80 L 247.10 128.88 L 250.75 134.49 L 254.40 138.30 L 258.05 139.51 L 261.70 136.88 L 265.35 140.72 L 269.00 139.20 L 272.65 137.10 L 276.30 134.75 L 279.95 132.23 L 283.60 129.85 L 287.25 130.66 L 290.90 132.15 L 294.55 126.47 L 298.20 134.32 L 301.85 136.84 L 305.50 139.15 L 309.15 137.37 L 312.80 138.97 L 316.45 132.10 L 320.10 128.14 L 323.75 136.59 L 327.40 132.58 L 331.05 128.16 L 334.70 132.22 L 338.35 129.15 L 342.00 127.18 L 345.65 127.88 L 349.30 129.37 L 352.95 139.34 L 356.60 136.78 L 360.25 139.53 L 363.90 140.95 L 367.55 141.36 L 371.20 138.62 L 374.85 134.94 L 378.50 130.68 L 382.15 130.78 L 385.80 127.51 L 389.45 120.63 L 393.10 123.78 L 396.75 118.97 L 400.40 121.25 L 404.05 113.16 L 407.70 117.60 L 411.35 125.93 L 415.00 128.70 L 418.65 130.74 L 422.30 125.95 L 425.95 125.66 L 429.60 137.20 L 433.25 133.19 L 436.90 122.64 L 440.55 113.79 L 444.20 113.15 L 447.85 118.64 L 451.50 120.54 L 455.15 120.65 L 458.80 132.32 L 462.45 130.14 L 466.10 121.39 L 469.75 119.57 L 473.40 122.90 L 477.05 123.86 L 480.70 119.62 L 484.35 120.93 L 488.00 109.51 L 491.65 103.39 L 495.30 107.19 L 498.95 115.06 L 502.60 115.12 L 506.25 117.16 L 509.90 127.82 L 513.55 124.40 L 517.20 136.68 L 520.85 135.37 L 524.50 146.48 L 528.15 144.42 L 531.80 147.23 L 535.45 147.39 L 539.10 147.42 L 542.75 147.58 L 546.40 140.78 L 550.05 149.55 L 553.70 143.12 L 557.35 146.46 L 561.00 143.67 L 564.65 154.45 L 568.30 157.25 L 571.95 155.86 L 575.60 157.75 L 579.25 154.37 L 582.90 160.08 L 586.55 168.47 L 590.20 161.69 L 593.85 167.15 L 597.50 163.44 L 601.15 163.13 L 604.80 164.86 L 608.45 167.06 L 612.10 172.15 L 615.75 166.02 L 619.40 155.25 L 623.05 147.75 L 626.70 147.06 L 630.35 143.80 L 634.00 142.15 L 637.65 141.84 L 641.30 141.23 L 644.95 136.12 L 648.60 131.28 L 652.25 123.73 L 655.90 114.18 L 659.55 112.94 L 663.20 108.58 L 666.85 104.47 L 670.50 110.70 L 674.15 113.43 L 677.80 115.16 L 681.45 112.87 L 685.10 113.68 L 688.75 111.65 L 692.40 109.24 L 696.05 106.23 L 699.70 104.76 L 703.35 108.75 L 707.00 108.20 L 710.65 112.00 L 714.30 117.55 L 717.95 122.32 L 721.60 123.84 L 725.25 126.67 L 728.90 121.01 L 732.55 122.36 L 736.20 117.41 L 739.85 121.44 L 743.50 127.68 L 747.15 131.72 L 750.80 126.35 L 754.45 124.03 L 758.10 123.77 L 761.75 135.32 L 765.40 133.20 L 769.05 129.05 L 772.70 129.52 L 776.35 129.85 L 780.00 127.45" class="path-4" />
<line x1="50" y1="155.2" x2="780" y2="155.2" stroke="#4b5563" stroke-width="0.8" stroke-dasharray="6 3" />
</svg>