<svg xmlns="http://www.w3.org/2000/svg" viewBox="0 0 800 300" width="800" height="300">
<style>
.axis-line { stroke: #6b7280; stroke-width: 0.5; }
.axis-text { font-family: monospace; font-size: 11px; fill: #9ca3af; }
.title-text { font-family: monospace; font-size: 14px; fill: #d1d5db; font-weight: bold; }
.grid-line { stroke: #374151; stroke-width: 0.3; stroke-dasharray: 4 2; }
.path-0 { fill: none; stroke: #3b82f6; stroke-width: 2; stroke-linecap: round; opacity: 0.85; animation: draw-0 8s ease-in-out 0.0s infinite; stroke-dasharray: 952; stroke-dashoffset: 952;}
@keyframes draw-0 { 0% { stroke-dashoffset: 952; } 38% { stroke-dashoffset: 0; } 62% { stroke-dashoffset: 0; } 100% { stroke-dashoffset: 952; }}
.path-1 { fill: none; stroke: #ef4444; stroke-width: 2; stroke-linecap: round; opacity: 0.85; animation: draw-1 8s ease-in-out 0.4s infinite; stroke-dasharray: 993; stroke-dashoffset: 993;}
@keyframes draw-1 { 0% { stroke-dashoffset: 993; } 38% { stroke-dashoffset: 0; } 62% { stroke-dashoffset: 0; } 100% { stroke-dashoffset: 993; }}
.path-2 { fill: none; stroke: #22c55e; stroke-width: 2; stroke-linecap: round; opacity: 0.85; animation: draw-2 8s ease-in-out 0.8s infinite; stroke-dasharray: 980; stroke-dashoffset: 980;}
@keyframes draw-2 { 0% { stroke-dashoffset: 980; } 38% { stroke-dashoffset: 0; } 62% { stroke-dashoffset: 0; } 100% { stroke-dashoffset: 980; }}
.path-3 { fill: none; stroke: #f59e0b; stroke-width: 2; stroke-linecap: round; opacity: 0.85; animation: draw-3 8s ease-in-out 1.2000000000000002s infinite; stroke-dasharray: 1019; stroke-dashoffset: 1019;}
@keyframes draw-3 { 0% { stroke-dashoffset: 1019; } 38% { stroke-dashoffset: 0; } 62% { stroke-dashoffset: 0; } 100% { stroke-dashoffset: 1019; }}
.path-4 { fill: none; stroke: #a855f7; stroke-width: 2; stroke-linecap: round; opacity: 0.85; animation: draw-4 8s ease-in-out 1.6s infinite; stroke-dasharray: 968; stroke-dashoffset: 968;}
@keyframes draw-4 { 0% { stroke-dashoffset: 968; } 38% { stroke-dashoffset: 0; } 62% { stroke-dashoffset: 0; } 100% { stroke-dashoffset: 968; }}
</style>
<rect width="800" height="300" rx="8" fill="#0d1117" />
<line x1="50" y1="260.0" x2="780" y2="260.0" class="grid-line" />
<text x="44" y="264.0" text-anchor="end" class="axis-text">-1.5</text>
<line x1="50" y1="216.0" x2="780" y2="216.0" class="grid-line" />
<text x="44" y="220.0" text-anchor="end" class="axis-text">-0.6</text>
<line x1="50" y1="172.0" x2="780" y2="172.0" class="grid-line" />
<text x="44" y="176.0" text-anchor="end" class="axis-text">0.2</text>
<line x1="50" y1="128.0" x2="780" y2="128.0" class="grid-line" />
<text x="44" y="132.0" text-anchor="end" class="axis-text">1.1</text>
<line x1="50" y1="84.0" x2="780" y2="84.0" class="grid-line" />
<text x="44" y="88.0" text-anchor="end" class="axis-text">2.0</text>
<line x1="50" y1="40.0" x2="780" y2="40.0" class="grid-line" />
<text x="44" y="44.0" text-anchor="end" class="axis-text">2.8</text>
<line x1="50.0" y1="40" x2="50.0" y2="260" class="grid-line" />
<line x1="196.0" y1="40" x2="196.0" y2="260" class="grid-line" />
<line x1="342.0" y1="40" x2="342.0" y2="260" class="grid-line" />
<line x1="488.0" y1="40" x2="488.0" y2="260" class="grid-line" />
<line x1="634.0" y1="40" x2="634.0" y2="260" class="grid-line" />
<line x1="780.0" y1="40" x2="780.0" y2="260" class="grid-line" />
<line x1="50" y1="260" x2="780" y2="260" class="axis-line" />
<line x1="50" y1="40" x2="50" y2="260" class="axis-line" />
<text x="400.0" y="295" text-anchor="middle" class="axis-text">t</text>
<text x="12" y="150.0" text-anchor="middle" class="axis-text" transform="rotate(-90 12 150.0)">W(t)</text>
<text x="400.0" y="22" text-anchor="middle" class="title-text">Brownian Motion</text>
<path d="M 50.00 183.27 L 53.65 182.01 L 57.30 184.71 L 60.95 189.98 L 64.60 190.87 L 68.25 187.63 L 71.90 188.88 L 75.55 187.51 L 79.20 182.45 L 82.85 181.47 L 86.50 183.39 L 90.15 183.11 L 93.80 181.45 L 97.45 182.32 L 101.10 180.79 L 104.75 179.27 L 108.40 181.75 L 112.05 181.08 L 115.70 183.21 L 119.35 184.78 L 123.00 192.21 L 126.65 194.58 L 130.30 197.60 L 133.95 195.60 L 137.60 195.01 L 141.25 195.09 L 144.90 194.72 L 148.55 188.95 L 152.20 193.67 L 155.85 191.51 L 159.50 187.42 L 163.15 186.57 L 166.80 183.22 L 170.45 180.14 L 174.10 185.29 L 177.75 188.71 L 181.40 188.83 L 185.05 192.35 L 188.70 192.13 L 192.35 187.71 L 196.00 186.34 L 199.65 182.47 L 203.30 179.45 L 206.95 180.80 L 210.60 179.90 L 214.25 180.36 L 217.90 179.04 L 221.55 175.77 L 225.20 180.26 L 228.85 180.40 L 232.50 181.99 L 236.15 188.32 L 239.80 184.35 L 243.45 182.46 L 247.10 178.94 L 250.75 177.59 L 254.40 180.04 L 258.05 174.84 L 261.70 178.23 L 265.35 182.36 L 269.00 183.04 L 272.65 184.29 L 276.30 181.54 L 279.95 179.17 L 283.60 183.34 L 287.25 183.05 L 290.90 175.33 L 294.55 177.77 L 298.20 178.03 L 301.85 176.05 L 305.50 174.80 L 309.15 177.97 L 312.80 180.83 L 316.45 179.42 L 320.10 182.15 L 323.75 181.03 L 327.40 183.70 L 331.05 183.69 L 334.70 179.67 L 338.35 176.27 L 342.00 174.58 L 345.65 174.36 L 349.30 169.20 L 352.95 166.20 L 356.60 163.33 L 360.25 165.87 L 363.90 163.66 L 367.55 164.79 L 371.20 164.02 L 374.85 164.09 L 378.50 168.32 L 382.15 168.58 L 385.80 167.42 L 389.45 166.17 L 393.10 157.39 L 396.75 158.53 L 400.40 159.68 L 404.05 161.50 L 407.70 162.40 L 411.35 161.61 L 415.00 159.33 L 418.65 162.20 L 422.30 158.32 L 425.95 154.25 L 429.60 150.27 L 433.25 151.05 L 436.90 149.52 L 440.55 152.55 L 444.20 146.09 L 447.85 145.78 L 451.50 144.69 L 455.15 146.31 L 458.80 150.49 L 462.45 150.40 L 466.10 146.97 L 469.75 145.57 L 473.40 146.45 L 477.05 152.14 L 480.70 149.18 L 484.35 152.57 L 488.00 150.00 L 491.65 148.23 L 495.30 152.57 L 498.95 154.62 L 502.60 157.38 L 506.25 163.61 L 509.90 160.84 L 513.55 154.81 L 517.20 155.24 L 520.85 156.95 L 524.50 158.80 L 528.15 157.11 L 531.80 155.18 L 535.45 153.79 L 539.10 152.85 L 542.75 152.46 L 546.40 153.96 L 550.05 153.79 L 553.70 154.21 L 557.35 151.94 L 561.00 156.46 L 564.65 150.61 L 568.30 149.44 L 571.95 146.34 L 575.60 153.63 L 579.25 155.79 L 582.90 154.67 L 586.55 148.84 L 590.20 154.05 L 593.85 157.23 L 597.50 158.02 L 601.15 146.22 L 604.80 151.30 L 608.45 149.65 L 612.10 151.95 L 615.75 145.78 L 619.40 152.05 L 623.05 153.61 L 626.70 154.01 L 630.35 149.98 L 634.00 153.72 L 637.65 155.00 L 641.30 156.20 L 644.95 153.33 L 648.60 152.47 L 652.25 153.21 L 655.90 154.35 L 659.55 147.68 L 663.20 148.69 L 666.85 152.93 L 670.50 152.76 L 674.15 151.07 L 677.80 152.36 L 681.45 145.88 L 685.10 145.73 L 688.75 150.14 L 692.40 147.19 L 696.05 141.52 L 699.70 144.27 L 703.35 140.17 L 707.00 139.11 L 710.65 138.90 L 714.30 142.95 L 717.95 145.99 L 721.60 144.44 L 725.25 144.19 L 728.90 143.42 L 732.55 139.65 L 736.20 136.84 L 739.85 135.42 L 743.50 136.52 L 747.15 140.95 L 750.80 138.85 L 754.45 135.95 L 758.10 136.81 L 761.75 134.47 L 765.40 131.52 L 769.05 122.59 L 772.70 124.98 L 776.35 126.01 L 780.00 128.24" class="path-0" />
<path d="M 50.00 183.27 L 53.65 186.79 L 57.30 184.88 L 60.95 182.18 L 64.60 178.76 L 68.25 175.26 L 71.90 176.14 L 75.55 178.85 L 79.20 176.34 L 82.85 176.29 L 86.50 172.46 L 90.15 172.82 L 93.80 171.25 L 97.45 172.54 L 101.10 177.89 L 104.75 178.85 L 108.40 178.25 L 112.05 177.37 L 115.70 177.92 L 119.35 176.08 L 123.00 173.82 L 126.65 174.46 L 130.30 168.98 L 133.95 171.33 L 137.60 172.53 L 141.25 174.88 L 144.90 173.82 L 148.55 174.71 L 152.20 177.70 L 155.85 174.11 L 159.50 175.92 L 163.15 176.86 L 166.80 176.94 L 170.45 175.86 L 174.10 179.11 L 177.75 179.00 L 181.40 178.03 L 185.05 178.34 L 188.70 181.56 L 192.35 187.82 L 196.00 190.47 L 199.65 195.44 L 203.30 195.22 L 206.95 197.30 L 210.60 200.05 L 214.25 202.95 L 217.90 204.79 L 221.55 196.03 L 225.20 190.99 L 228.85 191.44 L 232.50 186.90 L 236.15 183.81 L 239.80 183.99 L 243.45 183.84 L 247.10 178.59 L 250.75 179.69 L 254.40 186.08 L 258.05 190.28 L 261.70 186.01 L 265.35 187.04 L 269.00 182.26 L 272.65 177.04 L 276.30 185.28 L 279.95 180.01 L 283.60 183.13 L 287.25 187.16 L 290.90 182.12 L 294.55 185.77 L 298.20 187.81 L 301.85 183.59 L 305.50 186.41 L 309.15 189.35 L 312.80 190.64 L 316.45 186.14 L 320.10 187.84 L 323.75 187.48 L 327.40 195.95 L 331.05 201.20 L 334.70 200.79 L 338.35 197.74 L 342.00 202.97 L 345.65 199.71 L 349.30 196.24 L 352.95 202.81 L 356.60 202.45 L 360.25 203.09 L 363.90 201.36 L 367.55 200.48 L 371.20 198.77 L 374.85 191.86 L 378.50 190.42 L 382.15 187.73 L 385.80 194.57 L 389.45 197.77 L 393.10 200.79 L 396.75 208.23 L 400.40 207.57 L 404.05 213.05 L 407.70 215.01 L 411.35 210.44 L 415.00 210.22 L 418.65 212.53 L 422.30 212.14 L 425.95 212.93 L 429.60 209.77 L 433.25 213.29 L 436.90 212.63 L 440.55 214.74 L 444.20 214.10 L 447.85 207.30 L 451.50 203.98 L 455.15 198.56 L 458.80 199.97 L 462.45 202.32 L 466.10 199.62 L 469.75 200.47 L 473.40 201.66 L 477.05 197.27 L 480.70 195.86 L 484.35 196.38 L 488.00 198.49 L 491.65 200.27 L 495.30 196.07 L 498.95 189.17 L 502.60 186.60 L 506.25 182.43 L 509.90 184.78 L 513.55 186.82 L 517.20 181.57 L 520.85 178.30 L 524.50 177.10 L 528.15 177.33 L 531.80 171.12 L 535.45 172.55 L 539.10 170.28 L 542.75 172.49 L 546.40 176.83 L 550.05 173.44 L 553.70 172.02 L 557.35 172.95 L 561.00 172.62 L 564.65 172.32 L 568.30 176.65 L 571.95 180.41 L 575.60 179.39 L 579.25 179.88 L 582.90 171.29 L 586.55 175.48 L 590.20 172.81 L 593.85 171.85 L 597.50 169.52 L 601.15 164.97 L 604.80 162.28 L 608.45 166.95 L 612.10 165.47 L 615.75 161.20 L 619.40 160.59 L 623.05 156.36 L 626.70 160.67 L 630.35 162.51 L 634.00 166.08 L 637.65 158.32 L 641.30 155.55 L 644.95 145.73 L 648.60 146.44 L 652.25 144.22 L 655.90 145.05 L 659.55 146.99 L 663.20 147.05 L 666.85 147.13 L 670.50 139.15 L 674.15 137.01 L 677.80 136.65 L 681.45 137.52 L 685.10 137.62 L 688.75 134.53 L 692.40 140.54 L 696.05 133.15 L 699.70 131.25 L 703.35 127.22 L 707.00 119.94 L 710.65 123.04 L 714.30 121.64 L 717.95 128.68 L 721.60 122.69 L 725.25 122.84 L 728.90 119.73 L 732.55 117.32 L 736.20 120.03 L 739.85 117.60 L 743.50 121.69 L 747.15 123.89 L 750.80 130.15 L 754.45 132.45 L 758.10 132.41 L 761.75 135.57 L 765.40 133.36 L 769.05 133.60 L 772.70 136.42 L 776.35 141.59 L 780.00 141.50" class="path-1" />
<path d="M 50.00 183.27 L 53.65 184.44 L 57.30 189.94 L 60.95 193.32 L 64.60 194.60 L 68.25 199.06 L 71.90 196.82 L 75.55 194.56 L 79.20 195.25 L 82.85 194.47 L 86.50 192.43 L 90.15 190.51 L 93.80 195.35 L 97.45 191.17 L 101.10 186.84 L 104.75 190.28 L 108.40 193.05 L 112.05 192.40 L 115.70 191.83 L 119.35 192.03 L 123.00 192.93 L 126.65 191.37 L 130.30 189.60 L 133.95 190.49 L 137.60 191.22 L 141.25 192.60 L 144.90 199.33 L 148.55 204.65 L 152.20 201.81 L 155.85 200.49 L 159.50 194.12 L 163.15 199.25 L 166.80 202.80 L 170.45 202.01 L 174.10 202.36 L 177.75 198.52 L 181.40 199.29 L 185.05 200.03 L 188.70 199.04 L 192.35 197.09 L 196.00 198.07 L 199.65 192.65 L 203.30 187.05 L 206.95 187.77 L 210.60 186.75 L 214.25 183.95 L 217.90 180.97 L 221.55 175.41 L 225.20 175.94 L 228.85 177.03 L 232.50 170.71 L 236.15 166.81 L 239.80 165.30 L 243.45 168.92 L 247.10 168.67 L 250.75 160.79 L 254.40 161.65 L 258.05 158.05 L 261.70 161.21 L 265.35 161.30 L 269.00 160.28 L 272.65 167.28 L 276.30 171.12 L 279.95 168.62 L 283.60 167.45 L 287.25 163.33 L 290.90 158.88 L 294.55 162.96 L 298.20 163.78 L 301.85 163.89 L 305.50 160.91 L 309.15 158.79 L 312.80 161.88 L 316.45 157.10 L 320.10 156.44 L 323.75 158.35 L 327.40 148.64 L 331.05 145.69 L 334.70 146.82 L 338.35 141.36 L 342.00 144.96 L 345.65 142.40 L 349.30 143.62 L 352.95 144.63 L 356.60 147.65 L 360.25 143.85 L 363.90 149.55 L 367.55 148.80 L 371.20 151.21 L 374.85 153.93 L 378.50 156.62 L 382.15 153.90 L 385.80 151.57 L 389.45 149.55 L 393.10 144.26 L 396.75 143.61 L 400.40 138.46 L 404.05 139.11 L 407.70 134.54 L 411.35 135.99 L 415.00 138.54 L 418.65 142.54 L 422.30 146.81 L 425.95 148.31 L 429.60 152.75 L 433.25 146.86 L 436.90 147.45 L 440.55 147.26 L 444.20 150.02 L 447.85 143.47 L 451.50 142.00 L 455.15 146.87 L 458.80 142.44 L 462.45 140.66 L 466.10 132.96 L 469.75 134.67 L 473.40 127.33 L 477.05 123.78 L 480.70 121.08 L 484.35 119.71 L 488.00 118.75 L 491.65 123.98 L 495.30 123.47 L 498.95 120.77 L 502.60 117.16 L 506.25 116.17 L 509.90 110.65 L 513.55 103.86 L 517.20 98.52 L 520.85 96.09 L 524.50 95.79 L 528.15 94.53 L 531.80 94.52 L 535.45 97.21 L 539.10 97.48 L 542.75 92.65 L 546.40 87.70 L 550.05 86.51 L 553.70 82.35 L 557.35 79.14 L 561.00 74.81 L 564.65 73.22 L 568.30 67.01 L 571.95 65.98 L 575.60 65.38 L 579.25 66.45 L 582.90 68.47 L 586.55 65.49 L 590.20 66.52 L 593.85 72.92 L 597.50 70.20 L 601.15 71.94 L 604.80 70.51 L 608.45 70.90 L 612.10 71.31 L 615.75 69.90 L 619.40 68.78 L 623.05 69.52 L 626.70 73.31 L 630.35 73.86 L 634.00 84.44 L 637.65 81.03 L 641.30 78.64 L 644.95 82.24 L 648.60 84.14 L 652.25 88.84 L 655.90 92.01 L 659.55 88.68 L 663.20 90.91 L 666.85 89.90 L 670.50 84.31 L 674.15 92.12 L 677.80 91.51 L 681.45 94.14 L 685.10 95.86 L 688.75 97.50 L 692.40 99.58 L 696.05 105.99 L 699.70 108.70 L 703.35 102.25 L 707.00 107.39 L 710.65 106.60 L 714.30 104.68 L 717.95 103.24 L 721.60 105.82 L 725.25 106.54 L 728.90 99.86 L 732.55 98.30 L 736.20 98.29 L 739.85 97.09 L 743.50 99.04 L 747.15 96.35 L 750.80 94.25 L 754.45 93.93 L 758.10 98.14 L 761.75 97.73 L 765.40 96.88 L 769.05 93.51 L 772.70 93.00 L 776.35 90.24 L 780.00 86.69" class="path-2" />
<path d="M 50.00 183.27 L 53.65 176.55 L 57.30 178.95 L 60.95 180.38 L 64.60 179.28 L 68.25 179.04 L 71.90 182.84 L 75.55 185.25 L 79.20 181.59 L 82.85 181.85 L 86.50 185.85 L 90.15 191.21 L 93.80 196.46 L 97.45 202.59 L 101.10 204.99 L 104.75 206.89 L 108.40 206.90 L 112.05 202.55 L 115.70 204.68 L 119.35 203.78 L 123.00 195.16 L 126.65 200.96 L 130.30 206.79 L 133.95 212.21 L 137.60 210.16 L 141.25 209.66 L 144.90 209.37 L 148.55 204.12 L 152.20 209.16 L 155.85 206.28 L 159.50 215.18 L 163.15 214.37 L 166.80 214.24 L 170.45 211.04 L 174.10 212.43 L 177.75 214.53 L 181.40 211.35 L 185.05 214.37 L 188.70 216.15 L 192.35 217.70 L 196.00 213.55 L 199.65 210.98 L 203.30 206.61 L 206.95 204.14 L 210.60 207.08 L 214.25 211.53 L 217.90 214.21 L 221.55 216.99 L 225.20 219.11 L 228.85 220.90 L 232.50 216.25 L 236.15 213.61 L 239.80 201.07 L 243.45 199.18 L 247.10 200.21 L 250.75 203.12 L 254.40 203.14 L 258.05 200.76 L 261.70 204.25 L 265.35 200.14 L 269.00 199.21 L 272.65 201.14 L 276.30 202.36 L 279.95 207.07 L 283.60 200.07 L 287.25 197.88 L 290.90 190.40 L 294.55 186.46 L 298.20 185.27 L 301.85 187.71 L 305.50 185.24 L 309.15 186.17 L 312.80 186.63 L 316.45 189.74 L 320.10 194.47 L 323.75 199.12 L 327.40 201.22 L 331.05 201.36 L 334.70 193.44 L 338.35 198.21 L 342.00 207.26 L 345.65 208.69 L 349.30 211.63 L 352.95 215.42 L 356.60 215.32 L 360.25 216.85 L 363.90 212.34 L 367.55 210.33 L 371.20 213.94 L 374.85 217.59 L 378.50 222.38 L 382.15 224.78 L 385.80 226.23 L 389.45 232.95 L 393.10 234.62 L 396.75 232.82 L 400.40 227.51 L 404.05 226.79 L 407.70 221.59 L 411.35 227.20 L 415.00 223.82 L 418.65 220.31 L 422.30 221.64 L 425.95 225.58 L 429.60 224.51 L 433.25 228.81 L 436.90 231.60 L 440.55 228.60 L 444.20 229.70 L 447.85 229.34 L 451.50 221.01 L 455.15 221.40 L 458.80 219.00 L 462.45 211.73 L 466.10 213.58 L 469.75 211.03 L 473.40 211.61 L 477.05 205.66 L 480.70 208.05 L 484.35 211.24 L 488.00 207.13 L 491.65 210.35 L 495.30 212.16 L 498.95 215.06 L 502.60 215.07 L 506.25 222.22 L 509.90 228.59 L 513.55 227.24 L 517.20 221.14 L 520.85 224.79 L 524.50 222.10 L 528.15 221.43 L 531.80 222.23 L 535.45 210.33 L 539.10 216.07 L 542.75 213.65 L 546.40 209.23 L 550.05 210.25 L 553.70 209.54 L 557.35 207.94 L 561.00 205.70 L 564.65 201.74 L 568.30 198.93 L 571.95 201.55 L 575.60 200.66 L 579.25 205.66 L 582.90 200.65 L 586.55 212.08 L 590.20 212.23 L 593.85 215.20 L 597.50 210.00 L 601.15 204.50 L 604.80 204.27 L 608.45 202.96 L 612.10 199.47 L 615.75 199.59 L 619.40 198.26 L 623.05 195.43 L 626.70 197.60 L 630.35 197.28 L 634.00 198.17 L 637.65 201.16 L 641.30 202.69 L 644.95 197.64 L 648.60 197.80 L 652.25 198.35 L 655.90 200.34 L 659.55 197.20 L 663.20 197.23 L 666.85 193.21 L 670.50 194.95 L 674.15 195.51 L 677.80 195.98 L 681.45 194.55 L 685.10 191.84 L 688.75 193.66 L 692.40 194.09 L 696.05 189.36 L 699.70 194.06 L 703.35 196.61 L 707.00 195.53 L 710.65 197.67 L 714.30 194.44 L 717.95 186.30 L 721.60 181.22 L 725.25 178.82 L 728.90 183.00 L 732.55 184.00 L 736.20 183.83 L 739.85 184.08 L 743.50 181.26 L 747.15 174.08 L 750.80 178.05 L 754.45 183.38 L 758.10 181.41 L 761.75 178.33 L 765.40 182.25 L 769.05 182.84 L 772.70 184.43 L 776.35 188.11 L 780.00 187.19" class="path-3" />
<path d="M 50.00 183.27 L 53.65 183.25 L 57.30 182.21 L 60.95 183.14 L 64.60 179.16 L 68.25 169.21 L 71.90 168.33 L 75.55 167.02 L 79.20 163.77 L 82.85 167.33 L 86.50 164.20 L 90.15 163.48 L 93.80 163.64 L 97.45 167.91 L 101.10 172.88 L 104.75 175.00 L 108.40 172.83 L 112.05 168.44 L 115.70 172.89 L 119.35 176.10 L 123.00 172.53 L 126.65 168.74 L 130.30 168.64 L 133.95 172.12 L 137.60 170.91 L 141.25 168.53 L 144.90 169.81 L 148.55 172.56 L 152.20 174.69 L 155.85 174.25 L 159.50 176.51 L 163.15 179.39 L 166.80 182.98 L 170.45 185.13 L 174.10 185.11 L 177.75 182.25 L 181.40 188.91 L 185.05 185.15 L 188.70 184.83 L 192.35 183.60 L 196.00 185.23 L 199.65 185.35 L 203.30 191.43 L 206.95 196.56 L 210.60 198.34 L 214.25 197.59 L 217.90 194.06 L 221.55 194.89 L 225.20 193.46 L 228.85 190.32 L 232.50 185.54 L 236.15 176.43 L 239.80 176.79 L 243.45 177.14 L 247.10 171.19 L 250.75 167.08 L 254.40 166.97 L 258.05 171.43 L 261.70 172.37 L 265.35 172.18 L 269.00 169.57 L 272.65 173.48 L 276.30 175.98 L 279.95 174.45 L 283.60 173.79 L 287.25 167.50 L 290.90 163.69 L 294.55 165.31 L 298.20 166.86 L 301.85 166.34 L 305.50 167.94 L 309.15 171.64 L 312.80 166.96 L 316.45 168.61 L 320.10 169.24 L 323.75 174.02 L 327.40 174.91 L 331.05 180.29 L 334.70 177.98 L 338.35 175.60 L 342.00 175.92 L 345.65 175.77 L 349.30 177.63 L 352.95 175.34 L 356.60 176.53 L 360.25 174.46 L 363.90 175.60 L 367.55 172.93 L 371.20 175.81 L 374.85 169.52 L 378.50 167.87 L 382.15 175.79 L 385.80 180.61 L 389.45 186.00 L 393.10 183.36 L 396.75 180.59 L 400.40 177.24 L 404.05 179.29 L 407.70 187.36 L 411.35 186.83 L 415.00 191.67 L 418.65 192.16 L 422.30 193.94 L 425.95 199.95 L 429.60 197.19 L 433.25 205.69 L 436.90 206.22 L 440.55 205.76 L 444.20 202.63 L 447.85 206.36 L 451.50 203.71 L 455.15 200.25 L 458.80 197.01 L 462.45 197.52 L 466.10 200.90 L 469.75 200.90 L 473.40 199.95 L 477.05 207.17 L 480.70 216.00 L 484.35 220.86 L 488.00 219.39 L 491.65 219.45 L 495.30 219.96 L 498.95 215.92 L 502.60 213.88 L 506.25 212.14 L 509.90 210.29 L 513.55 208.41 L 517.20 208.97 L 520.85 208.17 L 524.50 204.75 L 528.15 205.07 L 531.80 202.18 L 535.45 204.61 L 539.10 206.06 L 542.75 204.87 L 546.40 205.12 L 550.05 204.66 L 553.70 201.57 L 557.35 198.46 L 561.00 200.04 L 564.65 199.40 L 568.30 202.60 L 571.95 200.98 L 575.60 203.18 L 579.25 208.67 L 582.90 211.41 L 586.55 206.14 L 590.20 212.26 L 593.85 207.15 L 597.50 206.80 L 601.15 207.28 L 604.80 208.34 L 608.45 207.14 L 612.10 206.50 L 615.75 201.77 L 619.40 199.36 L 623.05 197.84 L 626.70 198.41 L 630.35 196.10 L 634.00 197.53 L 637.65 194.46 L 641.30 200.29 L 644.95 200.26 L 648.60 198.28 L 652.25 192.51 L 655.90 189.66 L 659.55 196.08 L 663.20 194.04 L 666.85 193.15 L 670.50 202.08 L 674.15 204.19 L 677.80 204.91 L 681.45 202.94 L 685.10 204.70 L 688.75 211.08 L 692.40 209.32 L 696.05 209.47 L 699.70 207.21 L 703.35 207.08 L 707.00 202.08 L 710.65 198.41 L 714.30 199.20 L 717.95 199.13 L 721.60 200.15 L 725.25 197.51 L 728.90 201.65 L 732.55 204.94 L 736.20 203.52 L 739.85 203.30 L 743.50 205.19 L 747.15 203.51 L 750.80 203.15 L 754.45 202.98 L 758.10 207.98 L 761.75 214.03 L 765.40 210.37 L 769.05 214.08 L 772.70 215.54 L 776.35 209.78 L 780.00 214.22" class="path-4" />
<line x1="50" y1="183.3" x2="780" y2="183.3" stroke="#4b5563" stroke-width="0.8" stroke-dasharray="6 3" />
</svg>