<svg xmlns="http://www.w3.org/2000/svg" viewBox="0 0 800 300" width="800" height="300">
<style>
.axis-line { stroke: #6b7280; stroke-width: 0.5; }
.axis-text { font-family: monospace; font-size: 11px; fill: #9ca3af; }
.title-text { font-family: monospace; font-size: 14px; fill: #d1d5db; font-weight: bold; }
.grid-line { stroke: #374151; stroke-width: 0.3; stroke-dasharray: 4 2; }
.path-0 { fill: none; stroke: #3b82f6; stroke-width: 2; stroke-linecap: round; opacity: 0.85; animation: draw-0 8s ease-in-out 0.0s infinite; stroke-dasharray: 1044; stroke-dashoffset: 1044;}
@keyframes draw-0 { 0% { stroke-dashoffset: 1044; } 38% { stroke-dashoffset: 0; } 62% { stroke-dashoffset: 0; } 100% { stroke-dashoffset: 1044; }}
.path-1 { fill: none; stroke: #ef4444; stroke-width: 2; stroke-linecap: round; opacity: 0.85; animation: draw-1 8s ease-in-out 0.4s infinite; stroke-dasharray: 1019; stroke-dashoffset: 1019;}
@keyframes draw-1 { 0% { stroke-dashoffset: 1019; } 38% { stroke-dashoffset: 0; } 62% { stroke-dashoffset: 0; } 100% { stroke-dashoffset: 1019; }}
.path-2 { fill: none; stroke: #22c55e; stroke-width: 2; stroke-linecap: round; opacity: 0.85; animation: draw-2 8s ease-in-out 0.8s infinite; stroke-dasharray: 1046; stroke-dashoffset: 1046;}
@keyframes draw-2 { 0% { stroke-dashoffset: 1046; } 38% { stroke-dashoffset: 0; } 62% { stroke-dashoffset: 0; } 100% { stroke-dashoffset: 1046; }}
.path-3 { fill: none; stroke: #f59e0b; stroke-width: 2; stroke-linecap: round; opacity: 0.85; animation: draw-3 8s ease-in-out 1.2000000000000002s infinite; stroke-dasharray: 1032; stroke-dashoffset: 1032;}
@keyframes draw-3 { 0% { stroke-dashoffset: 1032; } 38% { stroke-dashoffset: 0; } 62% { stroke-dashoffset: 0; } 100% { stroke-dashoffset: 1032; }}
.path-4 { fill: none; stroke: #a855f7; stroke-width: 2; stroke-linecap: round; opacity: 0.85; animation: draw-4 8s ease-in-out 1.6s infinite; stroke-dasharray: 1024; stroke-dashoffset: 1024;}
@keyframes draw-4 { 0% { stroke-dashoffset: 1024; } 38% { stroke-dashoffset: 0; } 62% { stroke-dashoffset: 0; } 100% { stroke-dashoffset: 1024; }}
</style>
<rect width="800" height="300" rx="8" fill="#0d1117" />
<line x1="50" y1="260.0" x2="780" y2="260.0" class="grid-line" />
<text x="44" y="264.0" text-anchor="end" class="axis-text">-1.8</text>
<line x1="50" y1="216.0" x2="780" y2="216.0" class="grid-line" />
<text x="44" y="220.0" text-anchor="end" class="axis-text">-1.0</text>
<line x1="50" y1="172.0" x2="780" y2="172.0" class="grid-line" />
<text x="44" y="176.0" text-anchor="end" class="axis-text">-0.2</text>
<line x1="50" y1="128.0" x2="780" y2="128.0" class="grid-line" />
<text x="44" y="132.0" text-anchor="end" class="axis-text">0.6</text>
<line x1="50" y1="84.0" x2="780" y2="84.0" class="grid-line" />
<text x="44" y="88.0" text-anchor="end" class="axis-text">1.4</text>
<line x1="50" y1="40.0" x2="780" y2="40.0" class="grid-line" />
<text x="44" y="44.0" text-anchor="end" class="axis-text">2.2</text>
<line x1="50.0" y1="40" x2="50.0" y2="260" class="grid-line" />
<line x1="196.0" y1="40" x2="196.0" y2="260" class="grid-line" />
<line x1="342.0" y1="40" x2="342.0" y2="260" class="grid-line" />
<line x1="488.0" y1="40" x2="488.0" y2="260" class="grid-line" />
<line x1="634.0" y1="40" x2="634.0" y2="260" class="grid-line" />
<line x1="780.0" y1="40" x2="780.0" y2="260" class="grid-line" />
<line x1="50" y1="260" x2="780" y2="260" class="axis-line" />
<line x1="50" y1="40" x2="50" y2="260" class="axis-line" />
<text x="400.0" y="295" text-anchor="middle" class="axis-text">t</text>
<text x="12" y="150.0" text-anchor="middle" class="axis-text" transform="rotate(-90 12 150.0)">W(t)</text>
<text x="400.0" y="22" text-anchor="middle" class="title-text">Brownian Motion</text>
<path d="M 50.00 160.45 L 53.65 156.51 L 57.30 154.91 L 60.95 148.57 L 64.60 155.51 L 68.25 159.11 L 71.90 154.20 L 75.55 148.47 L 79.20 146.41 L 82.85 141.59 L 86.50 151.03 L 90.15 149.67 L 93.80 148.76 L 97.45 147.12 L 101.10 145.78 L 104.75 147.57 L 108.40 145.29 L 112.05 137.34 L 115.70 141.35 L 119.35 133.21 L 123.00 128.26 L 126.65 125.56 L 130.30 129.49 L 133.95 128.68 L 137.60 124.69 L 141.25 126.83 L 144.90 128.65 L 148.55 131.42 L 152.20 127.19 L 155.85 132.23 L 159.50 133.37 L 163.15 133.86 L 166.80 136.25 L 170.45 137.29 L 174.10 135.20 L 177.75 140.15 L 181.40 137.52 L 185.05 132.89 L 188.70 132.48 L 192.35 126.85 L 196.00 131.61 L 199.65 127.32 L 203.30 134.66 L 206.95 132.22 L 210.60 126.00 L 214.25 122.41 L 217.90 123.74 L 221.55 121.17 L 225.20 119.02 L 228.85 117.77 L 232.50 120.74 L 236.15 122.20 L 239.80 123.07 L 243.45 123.55 L 247.10 119.57 L 250.75 122.26 L 254.40 126.17 L 258.05 116.70 L 261.70 119.38 L 265.35 124.79 L 269.00 121.25 L 272.65 123.10 L 276.30 127.80 L 279.95 128.60 L 283.60 124.07 L 287.25 121.63 L 290.90 112.66 L 294.55 111.75 L 298.20 115.53 L 301.85 121.13 L 305.50 116.91 L 309.15 117.02 L 312.80 118.17 L 316.45 120.70 L 320.10 119.47 L 323.75 120.11 L 327.40 121.92 L 331.05 113.87 L 334.70 111.33 L 338.35 105.51 L 342.00 108.42 L 345.65 110.19 L 349.30 108.77 L 352.95 105.74 L 356.60 106.51 L 360.25 112.49 L 363.90 116.00 L 367.55 111.94 L 371.20 114.24 L 374.85 114.52 L 378.50 118.82 L 382.15 127.61 L 385.80 130.64 L 389.45 134.21 L 393.10 138.52 L 396.75 134.44 L 400.40 138.76 L 404.05 139.29 L 407.70 143.81 L 411.35 143.16 L 415.00 137.29 L 418.65 138.90 L 422.30 137.05 L 425.95 138.36 L 429.60 140.13 L 433.25 139.39 L 436.90 137.09 L 440.55 141.07 L 444.20 144.25 L 447.85 149.11 L 451.50 149.97 L 455.15 154.91 L 458.80 152.64 L 462.45 153.48 L 466.10 151.97 L 469.75 146.64 L 473.40 140.15 L 477.05 150.82 L 480.70 153.78 L 484.35 151.90 L 488.00 155.44 L 491.65 156.48 L 495.30 152.61 L 498.95 145.99 L 502.60 148.72 L 506.25 143.23 L 509.90 143.02 L 513.55 135.71 L 517.20 143.78 L 520.85 143.05 L 524.50 142.36 L 528.15 136.89 L 531.80 136.87 L 535.45 128.77 L 539.10 129.28 L 542.75 132.84 L 546.40 128.37 L 550.05 126.41 L 553.70 125.50 L 557.35 126.48 L 561.00 127.78 L 564.65 133.86 L 568.30 129.88 L 571.95 130.89 L 575.60 138.23 L 579.25 137.56 L 582.90 133.90 L 586.55 133.89 L 590.20 133.05 L 593.85 136.76 L 597.50 132.68 L 601.15 131.56 L 604.80 134.17 L 608.45 134.09 L 612.10 134.75 L 615.75 132.37 L 619.40 138.76 L 623.05 136.86 L 626.70 138.76 L 630.35 142.95 L 634.00 138.96 L 637.65 132.22 L 641.30 132.95 L 644.95 136.51 L 648.60 135.85 L 652.25 132.06 L 655.90 135.11 L 659.55 138.17 L 663.20 144.73 L 666.85 143.36 L 670.50 144.60 L 674.15 146.72 L 677.80 149.45 L 681.45 146.60 L 685.10 149.18 L 688.75 151.77 L 692.40 150.26 L 696.05 146.15 L 699.70 152.03 L 703.35 150.16 L 707.00 153.73 L 710.65 161.53 L 714.30 157.89 L 717.95 158.02 L 721.60 161.13 L 725.25 166.59 L 728.90 163.31 L 732.55 162.00 L 736.20 166.17 L 739.85 156.10 L 743.50 152.29 L 747.15 153.41 L 750.80 150.24 L 754.45 149.22 L 758.10 144.32 L 761.75 142.17 L 765.40 142.80 L 769.05 146.45 L 772.70 138.64 L 776.35 136.32 L 780.00 135.21" class="path-0" />
<path d="M 50.00 160.45 L 53.65 157.64 L 57.30 161.63 L 60.95 156.62 L 64.60 160.31 L 68.25 162.79 L 71.90 158.17 L 75.55 151.91 L 79.20 148.12 L 82.85 145.39 L 86.50 151.99 L 90.15 157.32 L 93.80 159.17 L 97.45 164.35 L 101.10 162.30 L 104.75 156.53 L 108.40 162.99 L 112.05 166.89 L 115.70 163.81 L 119.35 159.25 L 123.00 153.85 L 126.65 153.58 L 130.30 152.74 L 133.95 150.64 L 137.60 146.03 L 141.25 146.53 L 144.90 145.81 L 148.55 146.24 L 152.20 147.15 L 155.85 148.45 L 159.50 147.42 L 163.15 145.04 L 166.80 147.11 L 170.45 146.23 L 174.10 146.67 L 177.75 140.13 L 181.40 144.20 L 185.05 145.58 L 188.70 143.43 L 192.35 136.63 L 196.00 140.86 L 199.65 140.32 L 203.30 135.80 L 206.95 135.32 L 210.60 136.93 L 214.25 135.84 L 217.90 130.06 L 221.55 130.90 L 225.20 134.34 L 228.85 134.93 L 232.50 134.45 L 236.15 136.07 L 239.80 133.33 L 243.45 135.61 L 247.10 143.68 L 250.75 142.07 L 254.40 145.13 L 258.05 142.21 L 261.70 134.09 L 265.35 127.42 L 269.00 129.55 L 272.65 133.03 L 276.30 129.28 L 279.95 132.21 L 283.60 138.01 L 287.25 138.01 L 290.90 134.76 L 294.55 138.46 L 298.20 130.54 L 301.85 127.71 L 305.50 126.33 L 309.15 119.15 L 312.80 117.40 L 316.45 115.00 L 320.10 116.93 L 323.75 122.86 L 327.40 119.99 L 331.05 123.91 L 334.70 126.85 L 338.35 126.80 L 342.00 120.32 L 345.65 125.46 L 349.30 120.90 L 352.95 118.34 L 356.60 117.07 L 360.25 121.32 L 363.90 123.29 L 367.55 119.10 L 371.20 117.81 L 374.85 115.91 L 378.50 119.71 L 382.15 115.58 L 385.80 117.07 L 389.45 114.86 L 393.10 111.23 L 396.75 103.80 L 400.40 106.57 L 404.05 105.98 L 407.70 107.12 L 411.35 103.34 L 415.00 99.67 L 418.65 97.49 L 422.30 101.89 L 425.95 100.92 L 429.60 101.22 L 433.25 97.03 L 436.90 99.49 L 440.55 99.14 L 444.20 99.48 L 447.85 101.45 L 451.50 101.06 L 455.15 102.32 L 458.80 102.84 L 462.45 101.74 L 466.10 103.33 L 469.75 101.70 L 473.40 93.16 L 477.05 99.27 L 480.70 94.73 L 484.35 95.41 L 488.00 98.49 L 491.65 100.61 L 495.30 99.81 L 498.95 96.32 L 502.60 95.95 L 506.25 90.52 L 509.90 93.61 L 513.55 93.32 L 517.20 92.48 L 520.85 97.02 L 524.50 94.67 L 528.15 94.69 L 531.80 94.53 L 535.45 91.45 L 539.10 82.78 L 542.75 78.65 L 546.40 78.89 L 550.05 74.99 L 553.70 77.87 L 557.35 86.53 L 561.00 90.92 L 564.65 88.37 L 568.30 84.03 L 571.95 89.15 L 575.60 85.37 L 579.25 87.99 L 582.90 90.56 L 586.55 85.73 L 590.20 88.81 L 593.85 86.05 L 597.50 88.62 L 601.15 92.06 L 604.80 95.99 L 608.45 99.48 L 612.10 100.61 L 615.75 101.93 L 619.40 106.51 L 623.05 103.89 L 626.70 95.48 L 630.35 96.98 L 634.00 89.08 L 637.65 93.83 L 641.30 93.15 L 644.95 88.47 L 648.60 89.80 L 652.25 88.87 L 655.90 84.76 L 659.55 86.18 L 663.20 87.32 L 666.85 90.11 L 670.50 88.02 L 674.15 87.74 L 677.80 84.48 L 681.45 87.66 L 685.10 87.13 L 688.75 87.38 L 692.40 83.04 L 696.05 84.49 L 699.70 86.88 L 703.35 85.39 L 707.00 74.82 L 710.65 67.43 L 714.30 65.79 L 717.95 69.43 L 721.60 66.64 L 725.25 69.83 L 728.90 69.12 L 732.55 76.98 L 736.20 82.00 L 739.85 86.09 L 743.50 81.71 L 747.15 80.41 L 750.80 78.49 L 754.45 82.64 L 758.10 74.65 L 761.75 73.22 L 765.40 68.67 L 769.05 65.38 L 772.70 67.28 L 776.35 67.41 L 780.00 65.97" class="path-1" />
<path d="M 50.00 160.45 L 53.65 159.02 L 57.30 162.83 L 60.95 160.60 L 64.60 165.54 L 68.25 169.66 L 71.90 158.27 L 75.55 156.10 L 79.20 158.56 L 82.85 157.38 L 86.50 161.86 L 90.15 159.93 L 93.80 163.21 L 97.45 168.52 L 101.10 169.39 L 104.75 165.85 L 108.40 165.23 L 112.05 163.50 L 115.70 159.48 L 119.35 158.45 L 123.00 155.66 L 126.65 155.49 L 130.30 154.82 L 133.95 147.56 L 137.60 154.57 L 141.25 155.08 L 144.90 152.88 L 148.55 152.37 L 152.20 150.94 L 155.85 148.77 L 159.50 146.50 L 163.15 139.31 L 166.80 136.07 L 170.45 142.21 L 174.10 137.54 L 177.75 141.78 L 181.40 141.71 L 185.05 145.71 L 188.70 144.74 L 192.35 144.96 L 196.00 147.71 L 199.65 149.20 L 203.30 150.20 L 206.95 141.60 L 210.60 141.27 L 214.25 135.87 L 217.90 129.06 L 221.55 132.35 L 225.20 138.34 L 228.85 136.42 L 232.50 138.88 L 236.15 138.47 L 239.80 135.83 L 243.45 136.51 L 247.10 147.64 L 250.75 146.39 L 254.40 149.96 L 258.05 152.00 L 261.70 155.04 L 265.35 163.04 L 269.00 160.85 L 272.65 154.36 L 276.30 152.13 L 279.95 157.00 L 283.60 156.69 L 287.25 155.77 L 290.90 156.60 L 294.55 156.00 L 298.20 160.65 L 301.85 161.61 L 305.50 170.41 L 309.15 165.75 L 312.80 168.05 L 316.45 174.36 L 320.10 171.87 L 323.75 166.93 L 327.40 166.08 L 331.05 159.03 L 334.70 158.95 L 338.35 157.25 L 342.00 154.55 L 345.65 157.11 L 349.30 165.29 L 352.95 172.18 L 356.60 177.07 L 360.25 177.11 L 363.90 177.46 L 367.55 172.89 L 371.20 173.12 L 374.85 167.13 L 378.50 161.28 L 382.15 158.27 L 385.80 152.51 L 389.45 155.59 L 393.10 157.77 L 396.75 158.19 L 400.40 162.20 L 404.05 158.21 L 407.70 160.12 L 411.35 162.29 L 415.00 165.30 L 418.65 173.52 L 422.30 178.32 L 425.95 181.15 L 429.60 177.64 L 433.25 180.64 L 436.90 176.87 L 440.55 174.94 L 444.20 173.49 L 447.85 177.64 L 451.50 178.84 L 455.15 170.53 L 458.80 163.78 L 462.45 159.07 L 466.10 159.00 L 469.75 159.85 L 473.40 164.66 L 477.05 165.19 L 480.70 170.55 L 484.35 173.08 L 488.00 166.24 L 491.65 162.03 L 495.30 163.52 L 498.95 166.90 L 502.60 168.21 L 506.25 169.34 L 509.90 171.50 L 513.55 172.56 L 517.20 180.04 L 520.85 175.61 L 524.50 173.10 L 528.15 174.77 L 531.80 174.44 L 535.45 173.88 L 539.10 168.18 L 542.75 166.83 L 546.40 161.69 L 550.05 158.06 L 553.70 162.07 L 557.35 160.55 L 561.00 161.42 L 564.65 163.49 L 568.30 163.71 L 571.95 167.42 L 575.60 169.09 L 579.25 172.08 L 582.90 168.55 L 586.55 169.13 L 590.20 167.73 L 593.85 174.80 L 597.50 173.97 L 601.15 169.07 L 604.80 165.05 L 608.45 163.47 L 612.10 166.87 L 615.75 172.47 L 619.40 174.96 L 623.05 177.11 L 626.70 180.52 L 630.35 179.53 L 634.00 180.26 L 637.65 175.78 L 641.30 179.21 L 644.95 176.59 L 648.60 177.10 L 652.25 177.62 L 655.90 171.46 L 659.55 174.02 L 663.20 170.75 L 666.85 173.54 L 670.50 178.44 L 674.15 176.85 L 677.80 178.10 L 681.45 175.10 L 685.10 176.93 L 688.75 178.77 L 692.40 185.38 L 696.05 188.23 L 699.70 188.86 L 703.35 194.04 L 707.00 190.89 L 710.65 196.85 L 714.30 201.32 L 717.95 197.63 L 721.60 198.85 L 725.25 202.38 L 728.90 208.07 L 732.55 208.00 L 736.20 203.00 L 739.85 198.77 L 743.50 191.80 L 747.15 187.72 L 750.80 196.15 L 754.45 199.25 L 758.10 194.65 L 761.75 196.40 L 765.40 202.67 L 769.05 196.83 L 772.70 197.68 L 776.35 199.31 L 780.00 207.26" class="path-2" />
<path d="M 50.00 160.45 L 53.65 161.69 L 57.30 160.95 L 60.95 161.92 L 64.60 167.90 L 68.25 162.54 L 71.90 160.54 L 75.55 166.12 L 79.20 164.20 L 82.85 159.93 L 86.50 164.17 L 90.15 159.21 L 93.80 163.92 L 97.45 158.75 L 101.10 157.81 L 104.75 161.61 L 108.40 168.47 L 112.05 175.56 L 115.70 181.03 L 119.35 184.78 L 123.00 186.71 L 126.65 176.96 L 130.30 179.69 L 133.95 175.73 L 137.60 173.75 L 141.25 178.49 L 144.90 179.90 L 148.55 182.75 L 152.20 179.47 L 155.85 178.93 L 159.50 178.16 L 163.15 176.89 L 166.80 174.09 L 170.45 169.59 L 174.10 168.39 L 177.75 173.65 L 181.40 174.37 L 185.05 172.75 L 188.70 178.82 L 192.35 180.42 L 196.00 182.49 L 199.65 174.55 L 203.30 170.32 L 206.95 174.37 L 210.60 179.89 L 214.25 184.08 L 217.90 183.99 L 221.55 187.06 L 225.20 180.99 L 228.85 178.48 L 232.50 176.86 L 236.15 176.32 L 239.80 175.69 L 243.45 171.87 L 247.10 175.04 L 250.75 169.66 L 254.40 168.96 L 258.05 172.45 L 261.70 167.89 L 265.35 171.09 L 269.00 167.55 L 272.65 171.20 L 276.30 169.63 L 279.95 168.42 L 283.60 168.70 L 287.25 174.26 L 290.90 178.01 L 294.55 184.23 L 298.20 186.06 L 301.85 186.20 L 305.50 187.33 L 309.15 189.10 L 312.80 187.53 L 316.45 191.08 L 320.10 198.82 L 323.75 201.30 L 327.40 200.80 L 331.05 200.27 L 334.70 200.22 L 338.35 198.91 L 342.00 195.66 L 345.65 197.40 L 349.30 196.69 L 352.95 197.40 L 356.60 196.72 L 360.25 190.69 L 363.90 187.17 L 367.55 192.41 L 371.20 191.45 L 374.85 192.54 L 378.50 194.38 L 382.15 198.51 L 385.80 197.45 L 389.45 193.60 L 393.10 194.05 L 396.75 205.72 L 400.40 195.48 L 404.05 196.21 L 407.70 198.42 L 411.35 197.14 L 415.00 192.98 L 418.65 191.69 L 422.30 194.30 L 425.95 197.79 L 429.60 192.16 L 433.25 195.79 L 436.90 196.85 L 440.55 190.36 L 444.20 189.13 L 447.85 190.35 L 451.50 195.26 L 455.15 191.75 L 458.80 197.90 L 462.45 205.53 L 466.10 203.51 L 469.75 202.80 L 473.40 203.93 L 477.05 209.39 L 480.70 210.99 L 484.35 212.19 L 488.00 208.86 L 491.65 210.36 L 495.30 206.24 L 498.95 205.36 L 502.60 211.46 L 506.25 213.42 L 509.90 211.78 L 513.55 210.11 L 517.20 209.00 L 520.85 216.87 L 524.50 219.20 L 528.15 219.56 L 531.80 222.60 L 535.45 219.65 L 539.10 221.98 L 542.75 221.87 L 546.40 216.95 L 550.05 222.02 L 553.70 218.31 L 557.35 216.24 L 561.00 213.52 L 564.65 215.17 L 568.30 217.14 L 571.95 215.45 L 575.60 218.66 L 579.25 222.05 L 582.90 217.54 L 586.55 221.56 L 590.20 220.07 L 593.85 212.40 L 597.50 209.62 L 601.15 204.29 L 604.80 200.81 L 608.45 205.51 L 612.10 198.49 L 615.75 199.55 L 619.40 206.16 L 623.05 204.54 L 626.70 202.56 L 630.35 196.78 L 634.00 195.46 L 637.65 196.88 L 641.30 195.64 L 644.95 201.40 L 648.60 199.49 L 652.25 196.52 L 655.90 194.35 L 659.55 195.94 L 663.20 200.60 L 666.85 197.11 L 670.50 195.72 L 674.15 197.75 L 677.80 209.37 L 681.45 209.14 L 685.10 208.57 L 688.75 206.29 L 692.40 212.23 L 696.05 217.46 L 699.70 214.79 L 703.35 214.41 L 707.00 217.32 L 710.65 214.60 L 714.30 220.74 L 717.95 224.12 L 721.60 220.99 L 725.25 215.40 L 728.90 223.80 L 732.55 219.08 L 736.20 220.37 L 739.85 225.65 L 743.50 227.40 L 747.15 224.03 L 750.80 225.38 L 754.45 225.49 L 758.10 231.97 L 761.75 233.69 L 765.40 234.62 L 769.05 225.73 L 772.70 224.23 L 776.35 223.38 L 780.00 222.26" class="path-3" />
<path d="M 50.00 160.45 L 53.65 156.76 L 57.30 162.22 L 60.95 161.89 L 64.60 163.88 L 68.25 159.82 L 71.90 155.47 L 75.55 153.09 L 79.20 147.40 L 82.85 142.44 L 86.50 142.58 L 90.15 144.14 L 93.80 146.50 L 97.45 151.93 L 101.10 147.37 L 104.75 151.34 L 108.40 152.84 L 112.05 153.38 L 115.70 161.29 L 119.35 159.33 L 123.00 152.14 L 126.65 151.67 L 130.30 148.72 L 133.95 149.28 L 137.60 148.06 L 141.25 156.23 L 144.90 156.82 L 148.55 155.93 L 152.20 159.72 L 155.85 153.47 L 159.50 151.01 L 163.15 147.78 L 166.80 146.92 L 170.45 144.89 L 174.10 144.79 L 177.75 137.92 L 181.40 136.57 L 185.05 136.06 L 188.70 131.86 L 192.35 130.33 L 196.00 125.61 L 199.65 134.85 L 203.30 136.67 L 206.95 136.95 L 210.60 130.30 L 214.25 128.61 L 217.90 123.84 L 221.55 130.40 L 225.20 127.34 L 228.85 124.88 L 232.50 129.02 L 236.15 128.94 L 239.80 123.05 L 243.45 122.68 L 247.10 127.12 L 250.75 133.30 L 254.40 131.91 L 258.05 135.97 L 261.70 135.44 L 265.35 133.31 L 269.00 125.21 L 272.65 130.64 L 276.30 134.48 L 279.95 136.92 L 283.60 142.54 L 287.25 136.57 L 290.90 131.70 L 294.55 132.68 L 298.20 129.79 L 301.85 131.04 L 305.50 127.70 L 309.15 128.69 L 312.80 129.71 L 316.45 126.72 L 320.10 128.27 L 323.75 133.78 L 327.40 140.06 L 331.05 133.45 L 334.70 133.99 L 338.35 136.61 L 342.00 136.46 L 345.65 138.36 L 349.30 143.65 L 352.95 145.80 L 356.60 144.79 L 360.25 142.74 L 363.90 145.05 L 367.55 151.46 L 371.20 152.29 L 374.85 152.24 L 378.50 149.50 L 382.15 149.08 L 385.80 150.21 L 389.45 145.57 L 393.10 145.42 L 396.75 147.28 L 400.40 147.62 L 404.05 146.79 L 407.70 140.38 L 411.35 141.99 L 415.00 150.74 L 418.65 146.94 L 422.30 137.34 L 425.95 134.34 L 429.60 138.88 L 433.25 138.18 L 436.90 141.12 L 440.55 141.46 L 444.20 143.93 L 447.85 143.15 L 451.50 145.74 L 455.15 143.95 L 458.80 148.11 L 462.45 152.12 L 466.10 155.54 L 469.75 154.17 L 473.40 157.96 L 477.05 154.89 L 480.70 153.64 L 484.35 148.46 L 488.00 135.36 L 491.65 140.27 L 495.30 136.70 L 498.95 136.78 L 502.60 133.15 L 506.25 129.59 L 509.90 131.21 L 513.55 129.45 L 517.20 128.79 L 520.85 126.51 L 524.50 131.62 L 528.15 136.16 L 531.80 133.12 L 535.45 128.89 L 539.10 134.64 L 542.75 131.54 L 546.40 131.96 L 550.05 132.37 L 553.70 132.01 L 557.35 132.97 L 561.00 131.81 L 564.65 129.04 L 568.30 128.18 L 571.95 122.65 L 575.60 121.13 L 579.25 119.98 L 582.90 118.78 L 586.55 114.79 L 590.20 113.69 L 593.85 105.13 L 597.50 111.68 L 601.15 106.27 L 604.80 104.94 L 608.45 104.92 L 612.10 107.55 L 615.75 108.55 L 619.40 110.14 L 623.05 103.62 L 626.70 99.76 L 630.35 101.05 L 634.00 106.08 L 637.65 104.47 L 641.30 104.84 L 644.95 107.77 L 648.60 108.23 L 652.25 110.00 L 655.90 105.92 L 659.55 112.34 L 663.20 114.64 L 666.85 115.85 L 670.50 111.65 L 674.15 112.54 L 677.80 112.92 L 681.45 118.34 L 685.10 119.75 L 688.75 124.16 L 692.40 127.21 L 696.05 126.70 L 699.70 131.43 L 703.35 134.61 L 707.00 131.05 L 710.65 133.45 L 714.30 134.85 L 717.95 138.05 L 721.60 137.73 L 725.25 142.30 L 728.90 142.29 L 732.55 139.93 L 736.20 134.29 L 739.85 139.41 L 743.50 140.81 L 747.15 145.32 L 750.80 149.46 L 754.45 148.60 L 758.10 161.96 L 761.75 163.32 L 765.40 164.21 L 769.05 160.24 L 772.70 159.52 L 776.35 162.92 L 780.00 159.29" class="path-4" />
<line x1="50" y1="160.5" x2="780" y2="160.5" stroke="#4b5563" stroke-width="0.8" stroke-dasharray="6 3" />
</svg>