<svg xmlns="http://www.w3.org/2000/svg" viewBox="0 0 800 300" width="800" height="300">
<style>
.axis-line { stroke: #6b7280; stroke-width: 0.5; }
.axis-text { font-family: monospace; font-size: 11px; fill: #9ca3af; }
.title-text { font-family: monospace; font-size: 14px; fill: #d1d5db; font-weight: bold; }
.grid-line { stroke: #374151; stroke-width: 0.3; stroke-dasharray: 4 2; }
.path-0 { fill: none; stroke: #3b82f6; stroke-width: 2; stroke-linecap: round; opacity: 0.85; animation: draw-0 8s ease-in-out 0.0s infinite; stroke-dasharray: 1076; stroke-dashoffset: 1076;}
@keyframes draw-0 { 0% { stroke-dashoffset: 1076; } 38% { stroke-dashoffset: 0; } 62% { stroke-dashoffset: 0; } 100% { stroke-dashoffset: 1076; }}
.path-1 { fill: none; stroke: #ef4444; stroke-width: 2; stroke-linecap: round; opacity: 0.85; animation: draw-1 8s ease-in-out 0.4s infinite; stroke-dasharray: 1070; stroke-dashoffset: 1070;}
@keyframes draw-1 { 0% { stroke-dashoffset: 1070; } 38% { stroke-dashoffset: 0; } 62% { stroke-dashoffset: 0; } 100% { stroke-dashoffset: 1070; }}
.path-2 { fill: none; stroke: #22c55e; stroke-width: 2; stroke-linecap: round; opacity: 0.85; animation: draw-2 8s ease-in-out 0.8s infinite; stroke-dasharray: 1049; stroke-dashoffset: 1049;}
@keyframes draw-2 { 0% { stroke-dashoffset: 1049; } 38% { stroke-dashoffset: 0; } 62% { stroke-dashoffset: 0; } 100% { stroke-dashoffset: 1049; }}
.path-3 { fill: none; stroke: #f59e0b; stroke-width: 2; stroke-linecap: round; opacity: 0.85; animation: draw-3 8s ease-in-out 1.2000000000000002s infinite; stroke-dasharray: 1091; stroke-dashoffset: 1091;}
@keyframes draw-3 { 0% { stroke-dashoffset: 1091; } 38% { stroke-dashoffset: 0; } 62% { stroke-dashoffset: 0; } 100% { stroke-dashoffset: 1091; }}
.path-4 { fill: none; stroke: #a855f7; stroke-width: 2; stroke-linecap: round; opacity: 0.85; animation: draw-4 8s ease-in-out 1.6s infinite; stroke-dasharray: 1060; stroke-dashoffset: 1060;}
@keyframes draw-4 { 0% { stroke-dashoffset: 1060; } 38% { stroke-dashoffset: 0; } 62% { stroke-dashoffset: 0; } 100% { stroke-dashoffset: 1060; }}
</style>
<rect width="800" height="300" rx="8" fill="#0d1117" />
<line x1="50" y1="260.0" x2="780" y2="260.0" class="grid-line" />
<text x="44" y="264.0" text-anchor="end" class="axis-text">-2.1</text>
<line x1="50" y1="216.0" x2="780" y2="216.0" class="grid-line" />
<text x="44" y="220.0" text-anchor="end" class="axis-text">-1.4</text>
<line x1="50" y1="172.0" x2="780" y2="172.0" class="grid-line" />
<text x="44" y="176.0" text-anchor="end" class="axis-text">-0.6</text>
<line x1="50" y1="128.0" x2="780" y2="128.0" class="grid-line" />
<text x="44" y="132.0" text-anchor="end" class="axis-text">0.1</text>
<line x1="50" y1="84.0" x2="780" y2="84.0" class="grid-line" />
<text x="44" y="88.0" text-anchor="end" class="axis-text">0.8</text>
<line x1="50" y1="40.0" x2="780" y2="40.0" class="grid-line" />
<text x="44" y="44.0" text-anchor="end" class="axis-text">1.5</text>
<line x1="50.0" y1="40" x2="50.0" y2="260" class="grid-line" />
<line x1="196.0" y1="40" x2="196.0" y2="260" class="grid-line" />
<line x1="342.0" y1="40" x2="342.0" y2="260" class="grid-line" />
<line x1="488.0" y1="40" x2="488.0" y2="260" class="grid-line" />
<line x1="634.0" y1="40" x2="634.0" y2="260" class="grid-line" />
<line x1="780.0" y1="40" x2="780.0" y2="260" class="grid-line" />
<line x1="50" y1="260" x2="780" y2="260" class="axis-line" />
<line x1="50" y1="40" x2="50" y2="260" class="axis-line" />
<text x="400.0" y="295" text-anchor="middle" class="axis-text">t</text>
<text x="12" y="150.0" text-anchor="middle" class="axis-text" transform="rotate(-90 12 150.0)">W(t)</text>
<text x="400.0" y="22" text-anchor="middle" class="title-text">Brownian Motion</text>
<path d="M 50.00 133.18 L 53.65 128.11 L 57.30 125.38 L 60.95 119.01 L 64.60 112.12 L 68.25 112.45 L 71.90 113.72 L 75.55 114.07 L 79.20 111.01 L 82.85 110.14 L 86.50 104.11 L 90.15 102.80 L 93.80 102.93 L 97.45 97.63 L 101.10 95.06 L 104.75 88.61 L 108.40 88.87 L 112.05 95.29 L 115.70 95.47 L 119.35 95.82 L 123.00 91.56 L 126.65 97.74 L 130.30 93.48 L 133.95 90.52 L 137.60 83.43 L 141.25 78.65 L 144.90 76.05 L 148.55 84.12 L 152.20 79.03 L 155.85 75.03 L 159.50 79.69 L 163.15 82.80 L 166.80 78.25 L 170.45 82.13 L 174.10 82.62 L 177.75 88.53 L 181.40 82.88 L 185.05 88.44 L 188.70 86.88 L 192.35 87.93 L 196.00 81.99 L 199.65 82.05 L 203.30 81.98 L 206.95 86.04 L 210.60 83.34 L 214.25 83.98 L 217.90 84.95 L 221.55 82.79 L 225.20 82.04 L 228.85 85.71 L 232.50 86.18 L 236.15 82.64 L 239.80 80.95 L 243.45 77.21 L 247.10 72.05 L 250.75 71.29 L 254.40 65.38 L 258.05 68.16 L 261.70 65.96 L 265.35 68.23 L 269.00 67.83 L 272.65 66.32 L 276.30 71.14 L 279.95 70.78 L 283.60 74.31 L 287.25 83.95 L 290.90 85.15 L 294.55 83.97 L 298.20 85.50 L 301.85 92.41 L 305.50 89.96 L 309.15 89.66 L 312.80 88.23 L 316.45 88.38 L 320.10 89.68 L 323.75 85.31 L 327.40 79.52 L 331.05 80.89 L 334.70 81.12 L 338.35 81.51 L 342.00 73.81 L 345.65 74.31 L 349.30 72.84 L 352.95 77.47 L 356.60 81.14 L 360.25 85.52 L 363.90 87.98 L 367.55 85.69 L 371.20 84.75 L 374.85 90.47 L 378.50 92.01 L 382.15 98.79 L 385.80 103.15 L 389.45 108.11 L 393.10 113.82 L 396.75 115.90 L 400.40 119.39 L 404.05 113.94 L 407.70 113.88 L 411.35 118.46 L 415.00 113.72 L 418.65 112.32 L 422.30 106.53 L 425.95 108.89 L 429.60 110.40 L 433.25 117.80 L 436.90 117.79 L 440.55 117.11 L 444.20 117.08 L 447.85 110.33 L 451.50 109.56 L 455.15 113.11 L 458.80 116.28 L 462.45 111.66 L 466.10 107.33 L 469.75 118.56 L 473.40 115.65 L 477.05 112.63 L 480.70 112.49 L 484.35 107.46 L 488.00 111.60 L 491.65 107.88 L 495.30 110.31 L 498.95 111.06 L 502.60 112.75 L 506.25 115.97 L 509.90 112.81 L 513.55 110.73 L 517.20 112.76 L 520.85 111.20 L 524.50 111.51 L 528.15 112.45 L 531.80 105.68 L 535.45 102.30 L 539.10 103.05 L 542.75 103.37 L 546.40 102.57 L 550.05 100.58 L 553.70 102.50 L 557.35 97.18 L 561.00 103.55 L 564.65 109.01 L 568.30 116.10 L 571.95 114.88 L 575.60 117.72 L 579.25 108.82 L 582.90 108.43 L 586.55 114.79 L 590.20 118.99 L 593.85 114.10 L 597.50 107.09 L 601.15 97.51 L 604.80 91.11 L 608.45 88.04 L 612.10 86.33 L 615.75 87.12 L 619.40 82.62 L 623.05 87.35 L 626.70 84.35 L 630.35 86.37 L 634.00 96.48 L 637.65 103.37 L 641.30 98.55 L 644.95 106.84 L 648.60 114.18 L 652.25 111.83 L 655.90 105.73 L 659.55 96.21 L 663.20 101.01 L 666.85 101.96 L 670.50 100.72 L 674.15 98.76 L 677.80 99.96 L 681.45 93.46 L 685.10 90.08 L 688.75 88.42 L 692.40 92.98 L 696.05 89.10 L 699.70 93.75 L 703.35 95.63 L 707.00 97.66 L 710.65 94.13 L 714.30 97.91 L 717.95 99.89 L 721.60 92.76 L 725.25 95.47 L 728.90 106.47 L 732.55 115.26 L 736.20 116.01 L 739.85 112.52 L 743.50 116.82 L 747.15 115.06 L 750.80 114.60 L 754.45 107.78 L 758.10 107.86 L 761.75 114.64 L 765.40 116.18 L 769.05 113.87 L 772.70 113.71 L 776.35 115.11 L 780.00 112.34" class="path-0" />
<path d="M 50.00 133.18 L 53.65 135.16 L 57.30 140.38 L 60.95 138.26 L 64.60 138.75 L 68.25 143.62 L 71.90 145.47 L 75.55 147.13 L 79.20 151.40 L 82.85 143.37 L 86.50 147.57 L 90.15 144.42 L 93.80 141.40 L 97.45 142.59 L 101.10 137.12 L 104.75 135.40 L 108.40 132.99 L 112.05 131.37 L 115.70 135.70 L 119.35 140.68 L 123.00 142.50 L 126.65 147.01 L 130.30 146.71 L 133.95 141.51 L 137.60 137.41 L 141.25 139.99 L 144.90 142.25 L 148.55 140.36 L 152.20 137.15 L 155.85 140.33 L 159.50 135.71 L 163.15 145.25 L 166.80 145.23 L 170.45 147.01 L 174.10 146.74 L 177.75 141.65 L 181.40 150.57 L 185.05 151.38 L 188.70 150.82 L 192.35 157.70 L 196.00 164.65 L 199.65 164.81 L 203.30 165.72 L 206.95 168.26 L 210.60 167.46 L 214.25 171.86 L 217.90 166.69 L 221.55 176.01 L 225.20 175.49 L 228.85 178.98 L 232.50 184.56 L 236.15 177.57 L 239.80 178.57 L 243.45 180.69 L 247.10 184.23 L 250.75 178.66 L 254.40 185.26 L 258.05 186.53 L 261.70 183.95 L 265.35 183.35 L 269.00 181.31 L 272.65 177.04 L 276.30 170.10 L 279.95 173.80 L 283.60 167.73 L 287.25 177.70 L 290.90 180.78 L 294.55 182.13 L 298.20 183.91 L 301.85 185.00 L 305.50 180.33 L 309.15 175.26 L 312.80 167.96 L 316.45 163.01 L 320.10 158.95 L 323.75 153.88 L 327.40 154.36 L 331.05 158.59 L 334.70 162.53 L 338.35 160.80 L 342.00 159.18 L 345.65 155.37 L 349.30 152.43 L 352.95 163.96 L 356.60 168.55 L 360.25 167.46 L 363.90 174.74 L 367.55 177.78 L 371.20 177.15 L 374.85 181.42 L 378.50 189.78 L 382.15 190.80 L 385.80 187.75 L 389.45 184.72 L 393.10 176.82 L 396.75 177.43 L 400.40 176.77 L 404.05 170.64 L 407.70 178.24 L 411.35 183.84 L 415.00 187.50 L 418.65 185.08 L 422.30 187.95 L 425.95 190.95 L 429.60 191.93 L 433.25 185.64 L 436.90 185.57 L 440.55 179.61 L 444.20 175.08 L 447.85 167.24 L 451.50 159.61 L 455.15 161.38 L 458.80 163.13 L 462.45 161.64 L 466.10 157.39 L 469.75 159.09 L 473.40 160.23 L 477.05 167.17 L 480.70 169.71 L 484.35 171.05 L 488.00 164.40 L 491.65 171.52 L 495.30 174.49 L 498.95 174.00 L 502.60 174.35 L 506.25 174.33 L 509.90 174.56 L 513.55 175.26 L 517.20 178.66 L 520.85 182.79 L 524.50 178.77 L 528.15 184.23 L 531.80 180.29 L 535.45 179.57 L 539.10 182.61 L 542.75 186.29 L 546.40 190.41 L 550.05 193.91 L 553.70 197.85 L 557.35 194.72 L 561.00 196.83 L 564.65 191.74 L 568.30 190.45 L 571.95 189.65 L 575.60 191.19 L 579.25 189.39 L 582.90 188.55 L 586.55 185.63 L 590.20 177.25 L 593.85 180.95 L 597.50 180.30 L 601.15 179.10 L 604.80 177.33 L 608.45 169.66 L 612.10 172.52 L 615.75 177.56 L 619.40 169.48 L 623.05 167.60 L 626.70 167.50 L 630.35 165.87 L 634.00 159.98 L 637.65 162.60 L 641.30 158.93 L 644.95 161.90 L 648.60 162.95 L 652.25 162.75 L 655.90 157.34 L 659.55 154.12 L 663.20 151.72 L 666.85 152.33 L 670.50 151.98 L 674.15 157.77 L 677.80 154.91 L 681.45 161.09 L 685.10 155.14 L 688.75 153.32 L 692.40 149.04 L 696.05 148.01 L 699.70 155.39 L 703.35 159.88 L 707.00 169.41 L 710.65 164.80 L 714.30 166.68 L 717.95 173.76 L 721.60 175.14 L 725.25 173.51 L 728.90 172.49 L 732.55 173.04 L 736.20 175.29 L 739.85 177.42 L 743.50 182.03 L 747.15 178.83 L 750.80 181.64 L 754.45 182.85 L 758.10 190.24 L 761.75 187.94 L 765.40 189.78 L 769.05 190.94 L 772.70 187.98 L 776.35 190.22 L 780.00 191.36" class="path-1" />
<path d="M 50.00 133.18 L 53.65 131.47 L 57.30 135.97 L 60.95 140.66 L 64.60 139.83 L 68.25 142.94 L 71.90 142.82 L 75.55 147.25 L 79.20 143.24 L 82.85 139.16 L 86.50 137.96 L 90.15 141.53 L 93.80 149.18 L 97.45 153.12 L 101.10 156.12 L 104.75 152.67 L 108.40 146.18 L 112.05 144.77 L 115.70 151.25 L 119.35 157.09 L 123.00 161.79 L 126.65 161.08 L 130.30 172.17 L 133.95 173.04 L 137.60 167.33 L 141.25 170.23 L 144.90 170.28 L 148.55 167.57 L 152.20 173.98 L 155.85 178.34 L 159.50 181.58 L 163.15 181.73 L 166.80 175.98 L 170.45 176.02 L 174.10 180.40 L 177.75 174.19 L 181.40 167.16 L 185.05 170.03 L 188.70 164.40 L 192.35 164.04 L 196.00 164.77 L 199.65 159.89 L 203.30 164.67 L 206.95 160.54 L 210.60 164.79 L 214.25 168.92 L 217.90 168.26 L 221.55 172.46 L 225.20 179.92 L 228.85 173.20 L 232.50 173.30 L 236.15 169.17 L 239.80 169.69 L 243.45 177.44 L 247.10 178.41 L 250.75 178.42 L 254.40 179.54 L 258.05 174.48 L 261.70 175.74 L 265.35 175.23 L 269.00 172.34 L 272.65 167.88 L 276.30 168.40 L 279.95 168.32 L 283.60 172.09 L 287.25 169.64 L 290.90 176.28 L 294.55 172.06 L 298.20 176.32 L 301.85 172.04 L 305.50 165.68 L 309.15 167.91 L 312.80 165.58 L 316.45 161.62 L 320.10 162.92 L 323.75 166.62 L 327.40 167.09 L 331.05 165.22 L 334.70 166.58 L 338.35 167.21 L 342.00 162.23 L 345.65 159.25 L 349.30 151.07 L 352.95 150.94 L 356.60 147.10 L 360.25 153.01 L 363.90 154.01 L 367.55 155.64 L 371.20 150.41 L 374.85 145.10 L 378.50 152.39 L 382.15 154.55 L 385.80 155.81 L 389.45 157.36 L 393.10 154.86 L 396.75 152.52 L 400.40 151.41 L 404.05 148.90 L 407.70 143.33 L 411.35 143.96 L 415.00 139.46 L 418.65 131.78 L 422.30 127.60 L 425.95 126.61 L 429.60 127.67 L 433.25 130.84 L 436.90 132.47 L 440.55 134.93 L 444.20 130.81 L 447.85 133.04 L 451.50 135.27 L 455.15 139.27 L 458.80 137.60 L 462.45 139.91 L 466.10 135.26 L 469.75 127.06 L 473.40 123.11 L 477.05 133.15 L 480.70 142.24 L 484.35 151.42 L 488.00 155.18 L 491.65 151.84 L 495.30 152.77 L 498.95 143.94 L 502.60 139.58 L 506.25 140.07 L 509.90 142.37 L 513.55 139.14 L 517.20 132.66 L 520.85 128.41 L 524.50 133.31 L 528.15 135.91 L 531.80 135.14 L 535.45 129.02 L 539.10 129.79 L 542.75 131.84 L 546.40 129.64 L 550.05 127.03 L 553.70 128.80 L 557.35 130.33 L 561.00 127.38 L 564.65 124.93 L 568.30 126.49 L 571.95 123.34 L 575.60 124.66 L 579.25 129.54 L 582.90 130.76 L 586.55 132.49 L 590.20 136.71 L 593.85 128.83 L 597.50 129.55 L 601.15 128.09 L 604.80 128.02 L 608.45 132.41 L 612.10 136.87 L 615.75 137.18 L 619.40 136.07 L 623.05 139.98 L 626.70 138.65 L 630.35 143.08 L 634.00 141.92 L 637.65 138.89 L 641.30 131.78 L 644.95 132.69 L 648.60 134.41 L 652.25 133.87 L 655.90 136.96 L 659.55 135.05 L 663.20 127.98 L 666.85 128.44 L 670.50 136.05 L 674.15 135.89 L 677.80 141.31 L 681.45 136.94 L 685.10 143.00 L 688.75 145.60 L 692.40 150.88 L 696.05 148.11 L 699.70 150.20 L 703.35 149.01 L 707.00 148.10 L 710.65 148.43 L 714.30 148.07 L 717.95 143.91 L 721.60 144.05 L 725.25 145.26 L 728.90 145.54 L 732.55 140.47 L 736.20 140.05 L 739.85 146.60 L 743.50 142.47 L 747.15 138.54 L 750.80 140.38 L 754.45 145.39 L 758.10 147.66 L 761.75 146.01 L 765.40 143.84 L 769.05 146.81 L 772.70 146.94 L 776.35 152.90 L 780.00 149.57" class="path-2" />
<path d="M 50.00 133.18 L 53.65 132.29 L 57.30 137.29 L 60.95 139.37 L 64.60 140.92 L 68.25 142.64 L 71.90 135.47 L 75.55 137.18 L 79.20 130.09 L 82.85 127.02 L 86.50 124.91 L 90.15 123.33 L 93.80 126.13 L 97.45 135.48 L 101.10 134.73 L 104.75 135.66 L 108.40 131.46 L 112.05 137.58 L 115.70 130.02 L 119.35 127.39 L 123.00 123.34 L 126.65 124.85 L 130.30 126.48 L 133.95 126.03 L 137.60 121.84 L 141.25 117.83 L 144.90 125.13 L 148.55 119.73 L 152.20 122.70 L 155.85 134.60 L 159.50 136.44 L 163.15 132.95 L 166.80 133.04 L 170.45 134.23 L 174.10 134.85 L 177.75 136.29 L 181.40 143.56 L 185.05 147.65 L 188.70 138.97 L 192.35 143.53 L 196.00 144.48 L 199.65 145.76 L 203.30 154.08 L 206.95 148.09 L 210.60 149.88 L 214.25 154.85 L 217.90 151.55 L 221.55 157.54 L 225.20 165.80 L 228.85 170.37 L 232.50 169.00 L 236.15 169.83 L 239.80 177.06 L 243.45 176.96 L 247.10 180.42 L 250.75 188.22 L 254.40 185.29 L 258.05 180.01 L 261.70 184.96 L 265.35 186.16 L 269.00 184.76 L 272.65 184.92 L 276.30 179.98 L 279.95 186.19 L 283.60 185.94 L 287.25 183.08 L 290.90 191.81 L 294.55 193.85 L 298.20 194.70 L 301.85 190.74 L 305.50 203.42 L 309.15 196.46 L 312.80 199.02 L 316.45 199.60 L 320.10 193.66 L 323.75 191.85 L 327.40 196.38 L 331.05 197.14 L 334.70 204.27 L 338.35 208.79 L 342.00 212.43 L 345.65 218.89 L 349.30 224.25 L 352.95 224.76 L 356.60 225.86 L 360.25 231.19 L 363.90 227.09 L 367.55 225.86 L 371.20 232.47 L 374.85 232.65 L 378.50 234.62 L 382.15 229.08 L 385.80 225.66 L 389.45 220.95 L 393.10 218.19 L 396.75 216.26 L 400.40 218.10 L 404.05 225.77 L 407.70 216.69 L 411.35 212.24 L 415.00 215.79 L 418.65 212.75 L 422.30 218.97 L 425.95 222.94 L 429.60 218.53 L 433.25 215.62 L 436.90 208.43 L 440.55 208.04 L 444.20 204.97 L 447.85 207.32 L 451.50 208.02 L 455.15 210.04 L 458.80 217.44 L 462.45 201.80 L 466.10 196.11 L 469.75 200.15 L 473.40 199.36 L 477.05 192.76 L 480.70 191.02 L 484.35 194.71 L 488.00 193.56 L 491.65 188.59 L 495.30 190.16 L 498.95 193.28 L 502.60 187.34 L 506.25 190.11 L 509.90 183.97 L 513.55 186.12 L 517.20 181.93 L 520.85 176.44 L 524.50 178.41 L 528.15 182.42 L 531.80 179.37 L 535.45 182.16 L 539.10 179.57 L 542.75 176.89 L 546.40 178.00 L 550.05 174.33 L 553.70 173.31 L 557.35 177.31 L 561.00 182.11 L 564.65 180.88 L 568.30 176.69 L 571.95 173.05 L 575.60 174.11 L 579.25 170.72 L 582.90 167.99 L 586.55 161.68 L 590.20 166.08 L 593.85 167.50 L 597.50 166.30 L 601.15 169.94 L 604.80 175.33 L 608.45 175.15 L 612.10 177.58 L 615.75 172.78 L 619.40 176.55 L 623.05 177.21 L 626.70 176.91 L 630.35 175.29 L 634.00 175.45 L 637.65 172.48 L 641.30 166.48 L 644.95 162.49 L 648.60 161.81 L 652.25 158.32 L 655.90 157.76 L 659.55 157.30 L 663.20 157.82 L 666.85 151.85 L 670.50 157.44 L 674.15 158.50 L 677.80 154.40 L 681.45 151.66 L 685.10 155.46 L 688.75 159.51 L 692.40 161.81 L 696.05 164.55 L 699.70 163.75 L 703.35 159.92 L 707.00 155.41 L 710.65 154.44 L 714.30 152.64 L 717.95 148.12 L 721.60 147.97 L 725.25 144.34 L 728.90 142.14 L 732.55 143.95 L 736.20 139.27 L 739.85 143.27 L 743.50 148.86 L 747.15 140.97 L 750.80 147.32 L 754.45 146.31 L 758.10 147.29 L 761.75 143.33 L 765.40 147.59 L 769.05 142.79 L 772.70 138.92 L 776.35 136.20 L 780.00 140.55" class="path-3" />
<path d="M 50.00 133.18 L 53.65 130.99 L 57.30 140.46 L 60.95 141.43 L 64.60 140.67 L 68.25 143.04 L 71.90 136.83 L 75.55 141.35 L 79.20 142.50 L 82.85 146.41 L 86.50 148.17 L 90.15 148.95 L 93.80 146.49 L 97.45 149.56 L 101.10 149.78 L 104.75 148.43 L 108.40 141.74 L 112.05 143.57 L 115.70 143.30 L 119.35 143.34 L 123.00 141.29 L 126.65 141.05 L 130.30 146.48 L 133.95 147.68 L 137.60 150.70 L 141.25 145.74 L 144.90 137.98 L 148.55 141.45 L 152.20 142.94 L 155.85 135.59 L 159.50 139.87 L 163.15 136.61 L 166.80 139.20 L 170.45 140.84 L 174.10 139.30 L 177.75 140.76 L 181.40 143.25 L 185.05 141.64 L 188.70 147.70 L 192.35 152.79 L 196.00 149.47 L 199.65 151.35 L 203.30 156.17 L 206.95 162.12 L 210.60 162.19 L 214.25 159.60 L 217.90 158.59 L 221.55 157.01 L 225.20 150.33 L 228.85 151.73 L 232.50 152.77 L 236.15 152.17 L 239.80 156.19 L 243.45 154.06 L 247.10 155.12 L 250.75 162.64 L 254.40 156.91 L 258.05 158.48 L 261.70 154.48 L 265.35 159.54 L 269.00 164.35 L 272.65 162.79 L 276.30 163.76 L 279.95 164.26 L 283.60 161.80 L 287.25 156.55 L 290.90 158.67 L 294.55 158.79 L 298.20 155.50 L 301.85 152.08 L 305.50 153.60 L 309.15 156.26 L 312.80 157.07 L 316.45 164.35 L 320.10 164.95 L 323.75 168.05 L 327.40 166.49 L 331.05 157.71 L 334.70 159.95 L 338.35 164.87 L 342.00 171.40 L 345.65 178.89 L 349.30 178.15 L 352.95 181.38 L 356.60 184.33 L 360.25 185.56 L 363.90 180.84 L 367.55 175.91 L 371.20 183.87 L 374.85 192.68 L 378.50 190.79 L 382.15 193.23 L 385.80 187.50 L 389.45 182.56 L 393.10 184.58 L 396.75 184.60 L 400.40 185.31 L 404.05 187.35 L 407.70 186.57 L 411.35 185.85 L 415.00 178.94 L 418.65 178.70 L 422.30 176.74 L 425.95 179.14 L 429.60 172.01 L 433.25 169.67 L 436.90 169.23 L 440.55 180.26 L 444.20 185.05 L 447.85 191.71 L 451.50 188.59 L 455.15 186.67 L 458.80 187.94 L 462.45 187.59 L 466.10 193.28 L 469.75 195.16 L 473.40 198.56 L 477.05 198.68 L 480.70 201.30 L 484.35 209.23 L 488.00 214.95 L 491.65 210.68 L 495.30 214.88 L 498.95 218.70 L 502.60 218.73 L 506.25 216.91 L 509.90 224.48 L 513.55 220.76 L 517.20 220.41 L 520.85 220.49 L 524.50 221.61 L 528.15 220.77 L 531.80 216.06 L 535.45 211.14 L 539.10 207.66 L 542.75 203.11 L 546.40 201.51 L 550.05 204.71 L 553.70 203.15 L 557.35 203.12 L 561.00 203.22 L 564.65 203.25 L 568.30 198.86 L 571.95 191.61 L 575.60 193.87 L 579.25 192.74 L 582.90 187.06 L 586.55 185.52 L 590.20 177.86 L 593.85 178.27 L 597.50 182.06 L 601.15 186.46 L 604.80 176.71 L 608.45 175.70 L 612.10 168.31 L 615.75 163.26 L 619.40 155.23 L 623.05 153.15 L 626.70 155.48 L 630.35 156.40 L 634.00 154.74 L 637.65 152.08 L 641.30 144.77 L 644.95 142.75 L 648.60 145.69 L 652.25 141.12 L 655.90 137.49 L 659.55 125.79 L 663.20 119.12 L 666.85 125.26 L 670.50 130.31 L 674.15 131.30 L 677.80 123.16 L 681.45 122.05 L 685.10 121.65 L 688.75 119.87 L 692.40 125.01 L 696.05 130.20 L 699.70 131.13 L 703.35 133.16 L 707.00 129.47 L 710.65 131.84 L 714.30 124.48 L 717.95 125.01 L 721.60 125.98 L 725.25 120.75 L 728.90 119.47 L 732.55 121.78 L 736.20 120.88 L 739.85 118.40 L 743.50 117.09 L 747.15 121.19 L 750.80 117.20 L 754.45 124.82 L 758.10 123.32 L 761.75 127.43 L 765.40 125.63 L 769.05 125.83 L 772.70 118.86 L 776.35 109.90 L 780.00 112.64" class="path-4" />
<line x1="50" y1="133.2" x2="780" y2="133.2" stroke="#4b5563" stroke-width="0.8" stroke-dasharray="6 3" />
</svg>