<svg xmlns="http://www.w3.org/2000/svg" viewBox="0 0 800 300" width="800" height="300">
<style>
.axis-line { stroke: #6b7280; stroke-width: 0.5; }
.axis-text { font-family: monospace; font-size: 11px; fill: #9ca3af; }
.title-text { font-family: monospace; font-size: 14px; fill: #d1d5db; font-weight: bold; }
.grid-line { stroke: #374151; stroke-width: 0.3; stroke-dasharray: 4 2; }
.path-0 { fill: none; stroke: #3b82f6; stroke-width: 2; stroke-linecap: round; opacity: 0.85; animation: draw-0 8s ease-in-out 0.0s infinite; stroke-dasharray: 909; stroke-dashoffset: 909;}
@keyframes draw-0 { 0% { stroke-dashoffset: 909; } 38% { stroke-dashoffset: 0; } 62% { stroke-dashoffset: 0; } 100% { stroke-dashoffset: 909; }}
.path-1 { fill: none; stroke: #ef4444; stroke-width: 2; stroke-linecap: round; opacity: 0.85; animation: draw-1 8s ease-in-out 0.4s infinite; stroke-dasharray: 919; stroke-dashoffset: 919;}
@keyframes draw-1 { 0% { stroke-dashoffset: 919; } 38% { stroke-dashoffset: 0; } 62% { stroke-dashoffset: 0; } 100% { stroke-dashoffset: 919; }}
.path-2 { fill: none; stroke: #22c55e; stroke-width: 2; stroke-linecap: round; opacity: 0.85; animation: draw-2 8s ease-in-out 0.8s infinite; stroke-dasharray: 913; stroke-dashoffset: 913;}
@keyframes draw-2 { 0% { stroke-dashoffset: 913; } 38% { stroke-dashoffset: 0; } 62% { stroke-dashoffset: 0; } 100% { stroke-dashoffset: 913; }}
.path-3 { fill: none; stroke: #f59e0b; stroke-width: 2; stroke-linecap: round; opacity: 0.85; animation: draw-3 8s ease-in-out 1.2000000000000002s infinite; stroke-dasharray: 908; stroke-dashoffset: 908;}
@keyframes draw-3 { 0% { stroke-dashoffset: 908; } 38% { stroke-dashoffset: 0; } 62% { stroke-dashoffset: 0; } 100% { stroke-dashoffset: 908; }}
.path-4 { fill: none; stroke: #a855f7; stroke-width: 2; stroke-linecap: round; opacity: 0.85; animation: draw-4 8s ease-in-out 1.6s infinite; stroke-dasharray: 908; stroke-dashoffset: 908;}
@keyframes draw-4 { 0% { stroke-dashoffset: 908; } 38% { stroke-dashoffset: 0; } 62% { stroke-dashoffset: 0; } 100% { stroke-dashoffset: 908; }}
</style>
<rect width="800" height="300" rx="8" fill="#0d1117" />
<line x1="50" y1="260.0" x2="780" y2="260.0" class="grid-line" />
<text x="44" y="264.0" text-anchor="end" class="axis-text">-3.2</text>
<line x1="50" y1="216.0" x2="780" y2="216.0" class="grid-line" />
<text x="44" y="220.0" text-anchor="end" class="axis-text">-2.1</text>
<line x1="50" y1="172.0" x2="780" y2="172.0" class="grid-line" />
<text x="44" y="176.0" text-anchor="end" class="axis-text">-0.9</text>
<line x1="50" y1="128.0" x2="780" y2="128.0" class="grid-line" />
<text x="44" y="132.0" text-anchor="end" class="axis-text">0.2</text>
<line x1="50" y1="84.0" x2="780" y2="84.0" class="grid-line" />
<text x="44" y="88.0" text-anchor="end" class="axis-text">1.3</text>
<line x1="50" y1="40.0" x2="780" y2="40.0" class="grid-line" />
<text x="44" y="44.0" text-anchor="end" class="axis-text">2.5</text>
<line x1="50.0" y1="40" x2="50.0" y2="260" class="grid-line" />
<line x1="196.0" y1="40" x2="196.0" y2="260" class="grid-line" />
<line x1="342.0" y1="40" x2="342.0" y2="260" class="grid-line" />
<line x1="488.0" y1="40" x2="488.0" y2="260" class="grid-line" />
<line x1="634.0" y1="40" x2="634.0" y2="260" class="grid-line" />
<line x1="780.0" y1="40" x2="780.0" y2="260" class="grid-line" />
<line x1="50" y1="260" x2="780" y2="260" class="axis-line" />
<line x1="50" y1="40" x2="50" y2="260" class="axis-line" />
<text x="400.0" y="295" text-anchor="middle" class="axis-text">t</text>
<text x="12" y="150.0" text-anchor="middle" class="axis-text" transform="rotate(-90 12 150.0)">W(t)</text>
<text x="400.0" y="22" text-anchor="middle" class="title-text">Brownian Motion</text>
<path d="M 50.00 135.54 L 53.65 141.39 L 57.30 143.20 L 60.95 148.45 L 64.60 149.52 L 68.25 152.33 L 71.90 152.91 L 75.55 154.00 L 79.20 156.01 L 82.85 154.89 L 86.50 151.23 L 90.15 152.25 L 93.80 150.05 L 97.45 149.51 L 101.10 149.61 L 104.75 143.12 L 108.40 143.99 L 112.05 143.08 L 115.70 142.90 L 119.35 143.81 L 123.00 144.06 L 126.65 145.46 L 130.30 145.82 L 133.95 148.20 L 137.60 150.60 L 141.25 149.53 L 144.90 149.42 L 148.55 149.73 L 152.20 149.62 L 155.85 152.17 L 159.50 149.88 L 163.15 149.18 L 166.80 146.01 L 170.45 150.52 L 174.10 148.79 L 177.75 150.07 L 181.40 152.40 L 185.05 145.95 L 188.70 152.12 L 192.35 154.06 L 196.00 157.56 L 199.65 158.41 L 203.30 155.37 L 206.95 159.89 L 210.60 162.67 L 214.25 158.63 L 217.90 157.83 L 221.55 156.85 L 225.20 155.17 L 228.85 151.07 L 232.50 154.14 L 236.15 152.76 L 239.80 152.20 L 243.45 149.82 L 247.10 152.71 L 250.75 147.84 L 254.40 147.93 L 258.05 150.44 L 261.70 150.62 L 265.35 148.93 L 269.00 146.45 L 272.65 143.63 L 276.30 141.96 L 279.95 143.18 L 283.60 142.38 L 287.25 150.70 L 290.90 153.84 L 294.55 156.15 L 298.20 150.36 L 301.85 148.77 L 305.50 150.57 L 309.15 151.19 L 312.80 152.44 L 316.45 157.11 L 320.10 157.91 L 323.75 155.81 L 327.40 155.65 L 331.05 158.44 L 334.70 155.49 L 338.35 155.65 L 342.00 156.82 L 345.65 153.47 L 349.30 153.59 L 352.95 151.27 L 356.60 152.71 L 360.25 154.17 L 363.90 157.27 L 367.55 156.64 L 371.20 161.23 L 374.85 159.98 L 378.50 159.72 L 382.15 157.03 L 385.80 153.99 L 389.45 152.85 L 393.10 157.48 L 396.75 156.86 L 400.40 161.06 L 404.05 158.87 L 407.70 161.57 L 411.35 160.45 L 415.00 161.46 L 418.65 165.30 L 422.30 160.66 L 425.95 160.39 L 429.60 158.83 L 433.25 160.03 L 436.90 166.46 L 440.55 166.46 L 444.20 164.74 L 447.85 164.72 L 451.50 162.87 L 455.15 163.08 L 458.80 163.87 L 462.45 169.16 L 466.10 171.93 L 469.75 174.71 L 473.40 172.06 L 477.05 171.25 L 480.70 173.97 L 484.35 171.72 L 488.00 172.54 L 491.65 168.87 L 495.30 168.72 L 498.95 165.33 L 502.60 166.29 L 506.25 163.92 L 509.90 166.69 L 513.55 170.30 L 517.20 172.69 L 520.85 171.03 L 524.50 172.07 L 528.15 176.05 L 531.80 176.82 L 535.45 182.05 L 539.10 182.75 L 542.75 185.97 L 546.40 183.04 L 550.05 184.22 L 553.70 186.76 L 557.35 185.88 L 561.00 183.57 L 564.65 182.19 L 568.30 190.91 L 571.95 188.67 L 575.60 189.85 L 579.25 195.64 L 582.90 195.16 L 586.55 194.35 L 590.20 195.38 L 593.85 194.93 L 597.50 191.37 L 601.15 193.13 L 604.80 192.43 L 608.45 196.17 L 612.10 193.87 L 615.75 192.55 L 619.40 193.01 L 623.05 194.44 L 626.70 195.18 L 630.35 201.78 L 634.00 201.76 L 637.65 207.16 L 641.30 202.85 L 644.95 201.32 L 648.60 200.02 L 652.25 200.44 L 655.90 193.78 L 659.55 192.06 L 663.20 196.54 L 666.85 195.06 L 670.50 194.75 L 674.15 195.49 L 677.80 193.71 L 681.45 194.10 L 685.10 195.08 L 688.75 197.01 L 692.40 193.65 L 696.05 192.96 L 699.70 193.03 L 703.35 193.98 L 707.00 189.55 L 710.65 191.31 L 714.30 185.01 L 717.95 183.01 L 721.60 189.32 L 725.25 189.17 L 728.90 191.48 L 732.55 194.96 L 736.20 193.46 L 739.85 197.86 L 743.50 198.94 L 747.15 196.44 L 750.80 193.16 L 754.45 196.96 L 758.10 197.11 L 761.75 192.77 L 765.40 192.16 L 769.05 191.18 L 772.70 187.45 L 776.35 185.48 L 780.00 184.43" class="path-0" />
<path d="M 50.00 135.54 L 53.65 138.26 L 57.30 138.42 L 60.95 135.64 L 64.60 132.70 L 68.25 132.11 L 71.90 131.06 L 75.55 131.24 L 79.20 134.18 L 82.85 132.18 L 86.50 132.91 L 90.15 128.52 L 93.80 127.06 L 97.45 130.72 L 101.10 130.32 L 104.75 131.23 L 108.40 131.80 L 112.05 128.76 L 115.70 132.23 L 119.35 131.12 L 123.00 134.01 L 126.65 131.72 L 130.30 134.10 L 133.95 135.59 L 137.60 135.05 L 141.25 137.81 L 144.90 133.81 L 148.55 133.96 L 152.20 136.66 L 155.85 130.69 L 159.50 125.69 L 163.15 124.07 L 166.80 123.04 L 170.45 121.67 L 174.10 124.40 L 177.75 128.14 L 181.40 129.53 L 185.05 121.78 L 188.70 117.25 L 192.35 115.97 L 196.00 117.15 L 199.65 117.51 L 203.30 116.81 L 206.95 115.35 L 210.60 112.01 L 214.25 112.40 L 217.90 108.97 L 221.55 116.37 L 225.20 117.67 L 228.85 114.93 L 232.50 110.65 L 236.15 106.18 L 239.80 106.18 L 243.45 106.74 L 247.10 106.76 L 250.75 107.21 L 254.40 110.09 L 258.05 111.77 L 261.70 114.73 L 265.35 114.29 L 269.00 115.20 L 272.65 110.08 L 276.30 110.25 L 279.95 105.01 L 283.60 105.44 L 287.25 101.59 L 290.90 106.54 L 294.55 109.79 L 298.20 105.24 L 301.85 100.03 L 305.50 98.77 L 309.15 99.63 L 312.80 97.91 L 316.45 98.53 L 320.10 96.40 L 323.75 91.93 L 327.40 96.27 L 331.05 93.22 L 334.70 94.47 L 338.35 95.03 L 342.00 91.10 L 345.65 90.87 L 349.30 82.97 L 352.95 83.47 L 356.60 82.18 L 360.25 80.47 L 363.90 88.80 L 367.55 89.85 L 371.20 94.66 L 374.85 91.20 L 378.50 88.60 L 382.15 93.63 L 385.80 93.14 L 389.45 88.58 L 393.10 87.22 L 396.75 87.12 L 400.40 88.66 L 404.05 87.65 L 407.70 90.57 L 411.35 93.81 L 415.00 94.17 L 418.65 90.38 L 422.30 91.54 L 425.95 91.75 L 429.60 93.55 L 433.25 98.14 L 436.90 96.12 L 440.55 98.71 L 444.20 94.42 L 447.85 97.47 L 451.50 95.83 L 455.15 98.36 L 458.80 103.81 L 462.45 103.88 L 466.10 105.92 L 469.75 106.49 L 473.40 101.59 L 477.05 99.34 L 480.70 95.18 L 484.35 92.95 L 488.00 91.64 L 491.65 87.89 L 495.30 85.06 L 498.95 83.38 L 502.60 84.79 L 506.25 83.31 L 509.90 78.82 L 513.55 79.95 L 517.20 79.99 L 520.85 83.19 L 524.50 84.15 L 528.15 86.24 L 531.80 90.71 L 535.45 99.81 L 539.10 94.75 L 542.75 93.90 L 546.40 96.78 L 550.05 101.03 L 553.70 100.88 L 557.35 106.35 L 561.00 106.12 L 564.65 105.79 L 568.30 106.09 L 571.95 106.95 L 575.60 107.19 L 579.25 108.65 L 582.90 108.60 L 586.55 109.08 L 590.20 108.03 L 593.85 104.20 L 597.50 105.81 L 601.15 105.68 L 604.80 108.54 L 608.45 109.74 L 612.10 112.45 L 615.75 111.39 L 619.40 109.27 L 623.05 109.78 L 626.70 109.09 L 630.35 108.79 L 634.00 107.65 L 637.65 109.48 L 641.30 110.43 L 644.95 109.07 L 648.60 106.46 L 652.25 106.42 L 655.90 108.53 L 659.55 112.84 L 663.20 112.57 L 666.85 112.11 L 670.50 107.90 L 674.15 107.04 L 677.80 106.98 L 681.45 107.58 L 685.10 104.35 L 688.75 103.23 L 692.40 99.87 L 696.05 100.52 L 699.70 96.65 L 703.35 97.33 L 707.00 99.43 L 710.65 100.10 L 714.30 101.61 L 717.95 96.61 L 721.60 90.97 L 725.25 91.78 L 728.90 91.39 L 732.55 90.58 L 736.20 88.13 L 739.85 86.55 L 743.50 79.40 L 747.15 73.14 L 750.80 74.62 L 754.45 74.26 L 758.10 70.13 L 761.75 68.46 L 765.40 69.46 L 769.05 66.23 L 772.70 68.62 L 776.35 65.38 L 780.00 66.03" class="path-1" />
<path d="M 50.00 135.54 L 53.65 133.13 L 57.30 132.43 L 60.95 129.28 L 64.60 129.98 L 68.25 128.92 L 71.90 129.46 L 75.55 131.39 L 79.20 136.16 L 82.85 132.78 L 86.50 137.85 L 90.15 141.43 L 93.80 145.16 L 97.45 142.60 L 101.10 141.35 L 104.75 141.75 L 108.40 145.32 L 112.05 144.19 L 115.70 143.21 L 119.35 141.37 L 123.00 145.42 L 126.65 144.08 L 130.30 145.14 L 133.95 148.02 L 137.60 152.82 L 141.25 155.88 L 144.90 153.30 L 148.55 153.53 L 152.20 154.90 L 155.85 151.58 L 159.50 151.18 L 163.15 152.85 L 166.80 158.50 L 170.45 157.56 L 174.10 155.32 L 177.75 157.17 L 181.40 156.53 L 185.05 152.66 L 188.70 151.08 L 192.35 151.82 L 196.00 144.12 L 199.65 147.53 L 203.30 146.29 L 206.95 145.18 L 210.60 147.13 L 214.25 145.90 L 217.90 142.70 L 221.55 142.02 L 225.20 144.49 L 228.85 139.32 L 232.50 140.43 L 236.15 141.63 L 239.80 140.29 L 243.45 136.83 L 247.10 136.32 L 250.75 130.19 L 254.40 130.44 L 258.05 131.68 L 261.70 136.70 L 265.35 134.06 L 269.00 135.22 L 272.65 137.86 L 276.30 141.05 L 279.95 136.46 L 283.60 134.71 L 287.25 133.85 L 290.90 134.27 L 294.55 132.08 L 298.20 127.49 L 301.85 126.63 L 305.50 128.63 L 309.15 127.14 L 312.80 129.01 L 316.45 130.96 L 320.10 130.56 L 323.75 135.44 L 327.40 132.10 L 331.05 131.32 L 334.70 130.77 L 338.35 135.04 L 342.00 137.31 L 345.65 135.60 L 349.30 144.75 L 352.95 138.93 L 356.60 136.62 L 360.25 139.06 L 363.90 140.93 L 367.55 136.09 L 371.20 139.18 L 374.85 146.16 L 378.50 146.57 L 382.15 149.53 L 385.80 151.42 L 389.45 150.15 L 393.10 149.16 L 396.75 147.59 L 400.40 145.60 L 404.05 149.93 L 407.70 153.31 L 411.35 153.48 L 415.00 153.89 L 418.65 157.48 L 422.30 155.13 L 425.95 150.37 L 429.60 157.65 L 433.25 161.36 L 436.90 158.67 L 440.55 157.87 L 444.20 155.70 L 447.85 154.66 L 451.50 149.82 L 455.15 154.00 L 458.80 150.55 L 462.45 151.47 L 466.10 154.77 L 469.75 149.46 L 473.40 149.55 L 477.05 149.07 L 480.70 146.70 L 484.35 145.20 L 488.00 146.34 L 491.65 144.04 L 495.30 143.88 L 498.95 141.55 L 502.60 140.97 L 506.25 142.98 L 509.90 141.40 L 513.55 142.56 L 517.20 141.47 L 520.85 142.71 L 524.50 141.89 L 528.15 141.79 L 531.80 142.87 L 535.45 139.49 L 539.10 141.06 L 542.75 138.58 L 546.40 130.35 L 550.05 129.57 L 553.70 129.39 L 557.35 135.04 L 561.00 134.03 L 564.65 136.96 L 568.30 139.04 L 571.95 134.40 L 575.60 135.00 L 579.25 130.87 L 582.90 132.38 L 586.55 133.74 L 590.20 136.27 L 593.85 139.24 L 597.50 139.86 L 601.15 134.56 L 604.80 134.31 L 608.45 132.70 L 612.10 133.36 L 615.75 127.01 L 619.40 126.35 L 623.05 127.17 L 626.70 128.98 L 630.35 129.82 L 634.00 131.43 L 637.65 133.41 L 641.30 130.49 L 644.95 130.28 L 648.60 132.16 L 652.25 129.18 L 655.90 128.44 L 659.55 131.80 L 663.20 134.57 L 666.85 136.24 L 670.50 137.00 L 674.15 134.48 L 677.80 131.44 L 681.45 135.62 L 685.10 135.08 L 688.75 134.27 L 692.40 138.33 L 696.05 136.77 L 699.70 132.60 L 703.35 132.27 L 707.00 130.87 L 710.65 133.41 L 714.30 130.25 L 717.95 133.41 L 721.60 136.55 L 725.25 136.05 L 728.90 140.42 L 732.55 141.62 L 736.20 142.63 L 739.85 143.64 L 743.50 143.24 L 747.15 145.16 L 750.80 145.32 L 754.45 147.96 L 758.10 151.49 L 761.75 153.21 L 765.40 150.81 L 769.05 148.40 L 772.70 149.13 L 776.35 148.11 L 780.00 150.63" class="path-2" />
<path d="M 50.00 135.54 L 53.65 131.48 L 57.30 130.17 L 60.95 127.47 L 64.60 127.57 L 68.25 130.36 L 71.90 134.73 L 75.55 136.12 L 79.20 135.66 L 82.85 135.05 L 86.50 137.36 L 90.15 137.95 L 93.80 139.76 L 97.45 140.24 L 101.10 139.80 L 104.75 140.15 L 108.40 143.17 L 112.05 145.20 L 115.70 144.18 L 119.35 145.20 L 123.00 149.03 L 126.65 153.48 L 130.30 149.79 L 133.95 149.42 L 137.60 148.38 L 141.25 147.79 L 144.90 150.81 L 148.55 153.30 L 152.20 155.07 L 155.85 151.53 L 159.50 151.17 L 163.15 149.15 L 166.80 157.10 L 170.45 152.31 L 174.10 151.46 L 177.75 151.06 L 181.40 151.90 L 185.05 147.81 L 188.70 145.14 L 192.35 144.10 L 196.00 142.07 L 199.65 143.12 L 203.30 140.95 L 206.95 138.76 L 210.60 138.66 L 214.25 140.49 L 217.90 144.20 L 221.55 142.50 L 225.20 140.20 L 228.85 140.65 L 232.50 145.12 L 236.15 149.51 L 239.80 147.53 L 243.45 150.21 L 247.10 147.89 L 250.75 149.55 L 254.40 146.58 L 258.05 145.67 L 261.70 145.75 L 265.35 145.58 L 269.00 141.05 L 272.65 140.68 L 276.30 140.04 L 279.95 142.26 L 283.60 142.13 L 287.25 147.10 L 290.90 144.51 L 294.55 142.98 L 298.20 146.80 L 301.85 150.72 L 305.50 151.29 L 309.15 148.27 L 312.80 148.67 L 316.45 149.96 L 320.10 153.57 L 323.75 153.34 L 327.40 153.83 L 331.05 157.32 L 334.70 161.19 L 338.35 158.28 L 342.00 161.54 L 345.65 161.15 L 349.30 166.04 L 352.95 164.34 L 356.60 162.10 L 360.25 158.36 L 363.90 156.88 L 367.55 156.47 L 371.20 154.60 L 374.85 159.37 L 378.50 160.60 L 382.15 163.24 L 385.80 158.18 L 389.45 155.82 L 393.10 161.79 L 396.75 156.71 L 400.40 154.05 L 404.05 157.96 L 407.70 152.49 L 411.35 148.83 L 415.00 149.58 L 418.65 145.98 L 422.30 151.44 L 425.95 148.85 L 429.60 145.70 L 433.25 145.01 L 436.90 144.67 L 440.55 144.32 L 444.20 136.93 L 447.85 136.44 L 451.50 134.83 L 455.15 135.52 L 458.80 133.29 L 462.45 131.94 L 466.10 129.95 L 469.75 132.70 L 473.40 132.70 L 477.05 130.43 L 480.70 131.47 L 484.35 133.05 L 488.00 132.48 L 491.65 131.66 L 495.30 134.61 L 498.95 130.67 L 502.60 135.98 L 506.25 134.80 L 509.90 136.02 L 513.55 134.41 L 517.20 135.41 L 520.85 135.09 L 524.50 136.02 L 528.15 135.29 L 531.80 135.07 L 535.45 135.41 L 539.10 133.95 L 542.75 133.73 L 546.40 136.81 L 550.05 138.84 L 553.70 139.54 L 557.35 137.11 L 561.00 138.18 L 564.65 139.15 L 568.30 142.54 L 571.95 142.97 L 575.60 142.29 L 579.25 139.51 L 582.90 148.24 L 586.55 146.30 L 590.20 143.46 L 593.85 144.86 L 597.50 146.18 L 601.15 147.32 L 604.80 147.71 L 608.45 146.61 L 612.10 150.00 L 615.75 150.79 L 619.40 149.55 L 623.05 148.90 L 626.70 151.69 L 630.35 148.91 L 634.00 143.42 L 637.65 145.33 L 641.30 146.06 L 644.95 142.74 L 648.60 135.53 L 652.25 137.50 L 655.90 138.55 L 659.55 142.53 L 663.20 145.35 L 666.85 145.77 L 670.50 148.44 L 674.15 143.23 L 677.80 140.92 L 681.45 137.72 L 685.10 131.12 L 688.75 128.96 L 692.40 130.02 L 696.05 131.65 L 699.70 127.61 L 703.35 126.17 L 707.00 129.71 L 710.65 131.23 L 714.30 133.88 L 717.95 128.79 L 721.60 128.45 L 725.25 124.28 L 728.90 122.14 L 732.55 117.07 L 736.20 115.32 L 739.85 115.42 L 743.50 111.37 L 747.15 112.40 L 750.80 109.90 L 754.45 110.55 L 758.10 108.69 L 761.75 106.33 L 765.40 106.87 L 769.05 105.30 L 772.70 101.96 L 776.35 97.44 L 780.00 99.27" class="path-3" />
<path d="M 50.00 135.54 L 53.65 137.98 L 57.30 141.67 L 60.95 137.79 L 64.60 141.98 L 68.25 140.72 L 71.90 142.46 L 75.55 137.04 L 79.20 133.25 L 82.85 138.39 L 86.50 135.51 L 90.15 136.80 L 93.80 134.12 L 97.45 135.81 L 101.10 141.16 L 104.75 144.29 L 108.40 140.74 L 112.05 136.45 L 115.70 138.83 L 119.35 134.57 L 123.00 139.21 L 126.65 139.71 L 130.30 142.89 L 133.95 148.07 L 137.60 146.26 L 141.25 148.55 L 144.90 147.18 L 148.55 142.95 L 152.20 141.14 L 155.85 142.34 L 159.50 139.38 L 163.15 138.29 L 166.80 141.96 L 170.45 144.13 L 174.10 143.51 L 177.75 144.73 L 181.40 142.14 L 185.05 141.71 L 188.70 142.71 L 192.35 142.49 L 196.00 141.47 L 199.65 139.16 L 203.30 145.14 L 206.95 146.01 L 210.60 143.53 L 214.25 143.66 L 217.90 146.24 L 221.55 146.79 L 225.20 147.31 L 228.85 143.89 L 232.50 145.65 L 236.15 153.01 L 239.80 150.23 L 243.45 155.60 L 247.10 155.29 L 250.75 153.83 L 254.40 158.92 L 258.05 157.12 L 261.70 158.81 L 265.35 159.64 L 269.00 159.72 L 272.65 160.07 L 276.30 160.14 L 279.95 161.68 L 283.60 168.63 L 287.25 169.00 L 290.90 169.70 L 294.55 166.89 L 298.20 167.16 L 301.85 167.12 L 305.50 169.13 L 309.15 169.50 L 312.80 172.39 L 316.45 174.35 L 320.10 173.31 L 323.75 174.93 L 327.40 176.31 L 331.05 179.11 L 334.70 178.60 L 338.35 180.27 L 342.00 179.54 L 345.65 178.08 L 349.30 176.93 L 352.95 177.27 L 356.60 179.17 L 360.25 180.99 L 363.90 178.93 L 367.55 181.74 L 371.20 181.17 L 374.85 182.13 L 378.50 182.58 L 382.15 180.71 L 385.80 182.09 L 389.45 179.91 L 393.10 182.37 L 396.75 182.04 L 400.40 183.33 L 404.05 182.02 L 407.70 183.70 L 411.35 184.24 L 415.00 184.62 L 418.65 178.22 L 422.30 178.24 L 425.95 179.40 L 429.60 176.26 L 433.25 173.51 L 436.90 173.22 L 440.55 178.16 L 444.20 179.38 L 447.85 181.98 L 451.50 183.20 L 455.15 184.70 L 458.80 188.33 L 462.45 188.19 L 466.10 193.27 L 469.75 196.08 L 473.40 196.70 L 477.05 197.15 L 480.70 194.63 L 484.35 197.41 L 488.00 202.05 L 491.65 205.00 L 495.30 208.57 L 498.95 212.32 L 502.60 212.74 L 506.25 211.16 L 509.90 204.02 L 513.55 202.69 L 517.20 209.95 L 520.85 209.51 L 524.50 210.07 L 528.15 208.49 L 531.80 208.38 L 535.45 209.24 L 539.10 213.20 L 542.75 217.28 L 546.40 216.56 L 550.05 219.37 L 553.70 223.62 L 557.35 224.54 L 561.00 226.39 L 564.65 224.34 L 568.30 225.04 L 571.95 224.08 L 575.60 228.65 L 579.25 227.80 L 582.90 223.16 L 586.55 223.69 L 590.20 224.39 L 593.85 223.46 L 597.50 227.17 L 601.15 227.47 L 604.80 223.41 L 608.45 228.34 L 612.10 231.91 L 615.75 234.62 L 619.40 233.25 L 623.05 231.04 L 626.70 228.70 L 630.35 226.51 L 634.00 220.20 L 637.65 224.10 L 641.30 222.78 L 644.95 221.92 L 648.60 221.00 L 652.25 214.42 L 655.90 214.61 L 659.55 217.87 L 663.20 221.17 L 666.85 215.68 L 670.50 215.11 L 674.15 210.87 L 677.80 206.96 L 681.45 209.34 L 685.10 213.23 L 688.75 214.09 L 692.40 214.35 L 696.05 213.60 L 699.70 216.96 L 703.35 216.35 L 707.00 214.84 L 710.65 211.40 L 714.30 211.50 L 717.95 214.26 L 721.60 214.47 L 725.25 217.82 L 728.90 219.22 L 732.55 222.28 L 736.20 220.79 L 739.85 218.94 L 743.50 219.68 L 747.15 220.04 L 750.80 216.64 L 754.45 212.23 L 758.10 212.94 L 761.75 216.10 L 765.40 216.48 L 769.05 214.72 L 772.70 218.42 L 776.35 218.94 L 780.00 218.17" class="path-4" />
<line x1="50" y1="135.5" x2="780" y2="135.5" stroke="#4b5563" stroke-width="0.8" stroke-dasharray="6 3" />
</svg>