<svg xmlns="http://www.w3.org/2000/svg" viewBox="0 0 800 300" width="800" height="300">
<style>
.axis-line { stroke: #6b7280; stroke-width: 0.5; }
.axis-text { font-family: monospace; font-size: 11px; fill: #9ca3af; }
.title-text { font-family: monospace; font-size: 14px; fill: #d1d5db; font-weight: bold; }
.grid-line { stroke: #374151; stroke-width: 0.3; stroke-dasharray: 4 2; }
.path-0 { fill: none; stroke: #3b82f6; stroke-width: 2; stroke-linecap: round; opacity: 0.85; animation: draw-0 8s ease-in-out 0.0s infinite; stroke-dasharray: 1067; stroke-dashoffset: 1067;}
@keyframes draw-0 { 0% { stroke-dashoffset: 1067; } 38% { stroke-dashoffset: 0; } 62% { stroke-dashoffset: 0; } 100% { stroke-dashoffset: 1067; }}
.path-1 { fill: none; stroke: #ef4444; stroke-width: 2; stroke-linecap: round; opacity: 0.85; animation: draw-1 8s ease-in-out 0.4s infinite; stroke-dasharray: 1102; stroke-dashoffset: 1102;}
@keyframes draw-1 { 0% { stroke-dashoffset: 1102; } 38% { stroke-dashoffset: 0; } 62% { stroke-dashoffset: 0; } 100% { stroke-dashoffset: 1102; }}
.path-2 { fill: none; stroke: #22c55e; stroke-width: 2; stroke-linecap: round; opacity: 0.85; animation: draw-2 8s ease-in-out 0.8s infinite; stroke-dasharray: 1137; stroke-dashoffset: 1137;}
@keyframes draw-2 { 0% { stroke-dashoffset: 1137; } 38% { stroke-dashoffset: 0; } 62% { stroke-dashoffset: 0; } 100% { stroke-dashoffset: 1137; }}
.path-3 { fill: none; stroke: #f59e0b; stroke-width: 2; stroke-linecap: round; opacity: 0.85; animation: draw-3 8s ease-in-out 1.2000000000000002s infinite; stroke-dasharray: 1112; stroke-dashoffset: 1112;}
@keyframes draw-3 { 0% { stroke-dashoffset: 1112; } 38% { stroke-dashoffset: 0; } 62% { stroke-dashoffset: 0; } 100% { stroke-dashoffset: 1112; }}
.path-4 { fill: none; stroke: #a855f7; stroke-width: 2; stroke-linecap: round; opacity: 0.85; animation: draw-4 8s ease-in-out 1.6s infinite; stroke-dasharray: 1134; stroke-dashoffset: 1134;}
@keyframes draw-4 { 0% { stroke-dashoffset: 1134; } 38% { stroke-dashoffset: 0; } 62% { stroke-dashoffset: 0; } 100% { stroke-dashoffset: 1134; }}
</style>
<rect width="800" height="300" rx="8" fill="#0d1117" />
<line x1="50" y1="260.0" x2="780" y2="260.0" class="grid-line" />
<text x="44" y="264.0" text-anchor="end" class="axis-text">-1.3</text>
<line x1="50" y1="216.0" x2="780" y2="216.0" class="grid-line" />
<text x="44" y="220.0" text-anchor="end" class="axis-text">-0.7</text>
<line x1="50" y1="172.0" x2="780" y2="172.0" class="grid-line" />
<text x="44" y="176.0" text-anchor="end" class="axis-text">0.0</text>
<line x1="50" y1="128.0" x2="780" y2="128.0" class="grid-line" />
<text x="44" y="132.0" text-anchor="end" class="axis-text">0.7</text>
<line x1="50" y1="84.0" x2="780" y2="84.0" class="grid-line" />
<text x="44" y="88.0" text-anchor="end" class="axis-text">1.3</text>
<line x1="50" y1="40.0" x2="780" y2="40.0" class="grid-line" />
<text x="44" y="44.0" text-anchor="end" class="axis-text">2.0</text>
<line x1="50.0" y1="40" x2="50.0" y2="260" class="grid-line" />
<line x1="196.0" y1="40" x2="196.0" y2="260" class="grid-line" />
<line x1="342.0" y1="40" x2="342.0" y2="260" class="grid-line" />
<line x1="488.0" y1="40" x2="488.0" y2="260" class="grid-line" />
<line x1="634.0" y1="40" x2="634.0" y2="260" class="grid-line" />
<line x1="780.0" y1="40" x2="780.0" y2="260" class="grid-line" />
<line x1="50" y1="260" x2="780" y2="260" class="axis-line" />
<line x1="50" y1="40" x2="50" y2="260" class="axis-line" />
<text x="400.0" y="295" text-anchor="middle" class="axis-text">t</text>
<text x="12" y="150.0" text-anchor="middle" class="axis-text" transform="rotate(-90 12 150.0)">W(t)</text>
<text x="400.0" y="22" text-anchor="middle" class="title-text">Brownian Motion</text>
<path d="M 50.00 172.10 L 53.65 164.85 L 57.30 160.26 L 60.95 154.80 L 64.60 157.12 L 68.25 153.40 L 71.90 151.45 L 75.55 140.45 L 79.20 139.00 L 82.85 139.94 L 86.50 136.67 L 90.15 128.35 L 93.80 135.34 L 97.45 138.44 L 101.10 141.83 L 104.75 145.18 L 108.40 152.89 L 112.05 152.93 L 115.70 150.77 L 119.35 146.91 L 123.00 151.23 L 126.65 148.76 L 130.30 147.88 L 133.95 145.89 L 137.60 151.06 L 141.25 150.90 L 144.90 150.99 L 148.55 149.63 L 152.20 149.82 L 155.85 153.04 L 159.50 152.76 L 163.15 147.71 L 166.80 151.50 L 170.45 148.60 L 174.10 148.88 L 177.75 148.58 L 181.40 145.84 L 185.05 143.64 L 188.70 147.10 L 192.35 150.48 L 196.00 150.59 L 199.65 154.53 L 203.30 155.06 L 206.95 149.60 L 210.60 151.91 L 214.25 149.78 L 217.90 160.88 L 221.55 164.43 L 225.20 167.92 L 228.85 172.80 L 232.50 169.06 L 236.15 166.32 L 239.80 163.30 L 243.45 162.98 L 247.10 167.41 L 250.75 165.49 L 254.40 163.28 L 258.05 163.91 L 261.70 167.01 L 265.35 167.13 L 269.00 168.37 L 272.65 167.77 L 276.30 167.56 L 279.95 168.20 L 283.60 173.35 L 287.25 177.63 L 290.90 169.40 L 294.55 173.08 L 298.20 171.48 L 301.85 171.10 L 305.50 174.92 L 309.15 177.73 L 312.80 176.00 L 316.45 171.10 L 320.10 167.25 L 323.75 159.93 L 327.40 160.05 L 331.05 161.02 L 334.70 160.16 L 338.35 153.78 L 342.00 159.64 L 345.65 167.11 L 349.30 167.27 L 352.95 175.50 L 356.60 173.17 L 360.25 177.64 L 363.90 171.81 L 367.55 174.28 L 371.20 179.92 L 374.85 186.17 L 378.50 188.06 L 382.15 186.48 L 385.80 184.06 L 389.45 185.21 L 393.10 184.05 L 396.75 184.34 L 400.40 179.79 L 404.05 189.61 L 407.70 189.15 L 411.35 187.09 L 415.00 189.64 L 418.65 188.52 L 422.30 185.11 L 425.95 187.34 L 429.60 186.79 L 433.25 185.74 L 436.90 190.53 L 440.55 191.46 L 444.20 188.11 L 447.85 190.33 L 451.50 191.86 L 455.15 193.32 L 458.80 188.44 L 462.45 189.41 L 466.10 188.86 L 469.75 193.17 L 473.40 197.50 L 477.05 193.38 L 480.70 186.69 L 484.35 188.35 L 488.00 189.89 L 491.65 201.87 L 495.30 205.86 L 498.95 206.13 L 502.60 208.25 L 506.25 209.54 L 509.90 210.32 L 513.55 218.13 L 517.20 208.95 L 520.85 207.17 L 524.50 210.01 L 528.15 206.17 L 531.80 208.10 L 535.45 206.44 L 539.10 200.04 L 542.75 194.99 L 546.40 196.46 L 550.05 196.87 L 553.70 209.46 L 557.35 207.64 L 561.00 204.58 L 564.65 201.58 L 568.30 194.80 L 571.95 198.60 L 575.60 198.52 L 579.25 189.19 L 582.90 193.91 L 586.55 189.47 L 590.20 192.01 L 593.85 193.98 L 597.50 198.87 L 601.15 197.14 L 604.80 195.91 L 608.45 198.08 L 612.10 201.50 L 615.75 199.83 L 619.40 205.15 L 623.05 212.25 L 626.70 214.90 L 630.35 216.66 L 634.00 219.79 L 637.65 220.26 L 641.30 213.36 L 644.95 208.93 L 648.60 205.64 L 652.25 200.05 L 655.90 203.30 L 659.55 201.24 L 663.20 204.99 L 666.85 200.57 L 670.50 200.80 L 674.15 205.78 L 677.80 199.22 L 681.45 210.31 L 685.10 206.91 L 688.75 201.03 L 692.40 206.15 L 696.05 204.28 L 699.70 205.33 L 703.35 203.09 L 707.00 199.96 L 710.65 199.79 L 714.30 199.86 L 717.95 196.02 L 721.60 193.08 L 725.25 193.52 L 728.90 186.78 L 732.55 186.46 L 736.20 188.06 L 739.85 185.44 L 743.50 194.30 L 747.15 200.83 L 750.80 201.81 L 754.45 206.21 L 758.10 207.72 L 761.75 215.39 L 765.40 225.21 L 769.05 225.05 L 772.70 227.57 L 776.35 233.03 L 780.00 234.62" class="path-0" />
<path d="M 50.00 172.10 L 53.65 164.40 L 57.30 159.29 L 60.95 162.36 L 64.60 156.18 L 68.25 160.14 L 71.90 159.84 L 75.55 162.99 L 79.20 157.57 L 82.85 156.20 L 86.50 155.92 L 90.15 150.01 L 93.80 157.33 L 97.45 156.25 L 101.10 161.25 L 104.75 156.79 L 108.40 156.52 L 112.05 161.23 L 115.70 172.81 L 119.35 177.75 L 123.00 176.38 L 126.65 174.04 L 130.30 176.09 L 133.95 170.67 L 137.60 171.70 L 141.25 167.51 L 144.90 163.76 L 148.55 160.41 L 152.20 157.35 L 155.85 145.18 L 159.50 145.41 L 163.15 150.11 L 166.80 141.39 L 170.45 148.67 L 174.10 147.45 L 177.75 141.26 L 181.40 138.39 L 185.05 140.05 L 188.70 141.87 L 192.35 142.28 L 196.00 139.24 L 199.65 142.54 L 203.30 135.27 L 206.95 137.78 L 210.60 141.11 L 214.25 139.12 L 217.90 142.93 L 221.55 139.75 L 225.20 140.24 L 228.85 140.82 L 232.50 132.42 L 236.15 124.36 L 239.80 126.43 L 243.45 127.44 L 247.10 122.17 L 250.75 116.87 L 254.40 120.36 L 258.05 119.52 L 261.70 118.33 L 265.35 124.07 L 269.00 129.43 L 272.65 134.13 L 276.30 134.80 L 279.95 142.09 L 283.60 146.13 L 287.25 143.70 L 290.90 140.69 L 294.55 140.92 L 298.20 136.31 L 301.85 142.78 L 305.50 143.91 L 309.15 146.81 L 312.80 150.65 L 316.45 146.65 L 320.10 141.46 L 323.75 138.60 L 327.40 140.49 L 331.05 140.34 L 334.70 137.61 L 338.35 132.81 L 342.00 126.49 L 345.65 131.74 L 349.30 136.62 L 352.95 130.20 L 356.60 130.65 L 360.25 128.39 L 363.90 128.61 L 367.55 120.97 L 371.20 123.98 L 374.85 136.98 L 378.50 139.37 L 382.15 138.20 L 385.80 135.51 L 389.45 130.94 L 393.10 135.32 L 396.75 131.12 L 400.40 131.01 L 404.05 132.08 L 407.70 133.69 L 411.35 136.66 L 415.00 128.80 L 418.65 126.14 L 422.30 122.66 L 425.95 122.70 L 429.60 126.23 L 433.25 132.55 L 436.90 126.81 L 440.55 132.14 L 444.20 128.02 L 447.85 125.52 L 451.50 125.19 L 455.15 129.51 L 458.80 132.52 L 462.45 140.03 L 466.10 131.96 L 469.75 132.26 L 473.40 139.04 L 477.05 138.20 L 480.70 139.49 L 484.35 136.37 L 488.00 134.33 L 491.65 134.65 L 495.30 140.58 L 498.95 135.58 L 502.60 130.12 L 506.25 136.15 L 509.90 138.75 L 513.55 138.02 L 517.20 133.79 L 520.85 135.70 L 524.50 122.61 L 528.15 118.11 L 531.80 110.08 L 535.45 110.66 L 539.10 110.71 L 542.75 110.43 L 546.40 112.04 L 550.05 118.77 L 553.70 119.73 L 557.35 117.69 L 561.00 111.73 L 564.65 111.92 L 568.30 108.72 L 571.95 104.06 L 575.60 103.19 L 579.25 96.47 L 582.90 91.11 L 586.55 96.45 L 590.20 92.58 L 593.85 83.95 L 597.50 93.52 L 601.15 93.09 L 604.80 89.73 L 608.45 94.70 L 612.10 100.15 L 615.75 92.18 L 619.40 92.50 L 623.05 93.64 L 626.70 93.02 L 630.35 95.85 L 634.00 98.05 L 637.65 100.83 L 641.30 106.69 L 644.95 109.89 L 648.60 105.97 L 652.25 102.36 L 655.90 107.86 L 659.55 105.18 L 663.20 105.77 L 666.85 108.10 L 670.50 106.45 L 674.15 108.55 L 677.80 108.06 L 681.45 108.08 L 685.10 105.39 L 688.75 101.85 L 692.40 94.17 L 696.05 93.71 L 699.70 90.88 L 703.35 95.02 L 707.00 96.41 L 710.65 102.05 L 714.30 100.48 L 717.95 94.74 L 721.60 95.41 L 725.25 91.27 L 728.90 93.57 L 732.55 95.47 L 736.20 101.43 L 739.85 99.22 L 743.50 96.87 L 747.15 98.79 L 750.80 94.82 L 754.45 90.96 L 758.10 90.71 L 761.75 88.45 L 765.40 86.68 L 769.05 89.19 L 772.70 83.59 L 776.35 88.88 L 780.00 96.78" class="path-1" />
<path d="M 50.00 172.10 L 53.65 174.07 L 57.30 175.37 L 60.95 166.29 L 64.60 163.75 L 68.25 160.66 L 71.90 165.46 L 75.55 158.94 L 79.20 158.37 L 82.85 159.19 L 86.50 162.60 L 90.15 158.55 L 93.80 163.20 L 97.45 158.15 L 101.10 163.22 L 104.75 160.74 L 108.40 158.32 L 112.05 157.59 L 115.70 155.70 L 119.35 156.10 L 123.00 152.45 L 126.65 154.38 L 130.30 163.52 L 133.95 166.61 L 137.60 166.10 L 141.25 164.42 L 144.90 159.55 L 148.55 157.21 L 152.20 165.34 L 155.85 169.15 L 159.50 172.81 L 163.15 174.14 L 166.80 175.80 L 170.45 188.17 L 174.10 190.83 L 177.75 192.27 L 181.40 184.73 L 185.05 178.61 L 188.70 174.01 L 192.35 165.76 L 196.00 167.29 L 199.65 160.91 L 203.30 159.83 L 206.95 161.59 L 210.60 150.99 L 214.25 141.40 L 217.90 137.57 L 221.55 143.10 L 225.20 148.85 L 228.85 145.33 L 232.50 140.71 L 236.15 148.40 L 239.80 157.35 L 243.45 157.47 L 247.10 166.03 L 250.75 170.01 L 254.40 169.22 L 258.05 181.15 L 261.70 177.01 L 265.35 172.31 L 269.00 169.31 L 272.65 161.21 L 276.30 160.89 L 279.95 155.76 L 283.60 155.13 L 287.25 150.90 L 290.90 149.70 L 294.55 147.39 L 298.20 154.29 L 301.85 158.35 L 305.50 158.28 L 309.15 161.48 L 312.80 170.10 L 316.45 175.49 L 320.10 172.81 L 323.75 161.00 L 327.40 165.69 L 331.05 165.99 L 334.70 165.56 L 338.35 163.24 L 342.00 162.43 L 345.65 162.85 L 349.30 160.91 L 352.95 159.35 L 356.60 162.89 L 360.25 161.10 L 363.90 160.33 L 367.55 162.94 L 371.20 163.20 L 374.85 173.32 L 378.50 173.40 L 382.15 175.13 L 385.80 174.07 L 389.45 181.56 L 393.10 178.13 L 396.75 179.99 L 400.40 178.84 L 404.05 180.31 L 407.70 176.74 L 411.35 177.77 L 415.00 174.92 L 418.65 174.94 L 422.30 173.71 L 425.95 169.42 L 429.60 164.53 L 433.25 159.33 L 436.90 148.57 L 440.55 152.01 L 444.20 151.75 L 447.85 151.05 L 451.50 143.19 L 455.15 140.97 L 458.80 144.06 L 462.45 140.01 L 466.10 141.52 L 469.75 144.95 L 473.40 139.47 L 477.05 143.55 L 480.70 143.81 L 484.35 143.27 L 488.00 126.28 L 491.65 123.93 L 495.30 126.85 L 498.95 124.86 L 502.60 124.39 L 506.25 119.98 L 509.90 113.87 L 513.55 117.98 L 517.20 117.54 L 520.85 117.45 L 524.50 119.19 L 528.15 113.58 L 531.80 118.81 L 535.45 109.85 L 539.10 102.38 L 542.75 97.50 L 546.40 104.83 L 550.05 106.72 L 553.70 106.79 L 557.35 112.33 L 561.00 118.10 L 564.65 120.12 L 568.30 117.53 L 571.95 122.20 L 575.60 125.75 L 579.25 126.38 L 582.90 130.02 L 586.55 126.13 L 590.20 114.20 L 593.85 113.97 L 597.50 112.79 L 601.15 116.92 L 604.80 111.32 L 608.45 115.43 L 612.10 115.90 L 615.75 111.69 L 619.40 113.95 L 623.05 118.92 L 626.70 119.50 L 630.35 112.02 L 634.00 114.94 L 637.65 111.28 L 641.30 101.09 L 644.95 106.42 L 648.60 108.18 L 652.25 118.16 L 655.90 114.26 L 659.55 114.04 L 663.20 115.47 L 666.85 113.00 L 670.50 109.85 L 674.15 107.43 L 677.80 112.33 L 681.45 107.94 L 685.10 106.30 L 688.75 108.24 L 692.40 109.32 L 696.05 116.52 L 699.70 111.19 L 703.35 106.72 L 707.00 105.43 L 710.65 114.17 L 714.30 116.40 L 717.95 123.72 L 721.60 124.75 L 725.25 126.26 L 728.90 130.38 L 732.55 133.51 L 736.20 132.22 L 739.85 126.85 L 743.50 129.73 L 747.15 128.30 L 750.80 131.24 L 754.45 133.19 L 758.10 120.21 L 761.75 121.45 L 765.40 122.38 L 769.05 115.98 L 772.70 115.42 L 776.35 115.33 L 780.00 124.24" class="path-2" />
<path d="M 50.00 172.10 L 53.65 177.77 L 57.30 178.43 L 60.95 183.92 L 64.60 177.77 L 68.25 177.45 L 71.90 184.12 L 75.55 181.57 L 79.20 184.14 L 82.85 188.18 L 86.50 192.87 L 90.15 196.57 L 93.80 199.53 L 97.45 202.50 L 101.10 190.10 L 104.75 189.49 L 108.40 186.49 L 112.05 180.94 L 115.70 183.56 L 119.35 175.66 L 123.00 169.44 L 126.65 171.80 L 130.30 170.68 L 133.95 164.25 L 137.60 158.83 L 141.25 157.21 L 144.90 150.20 L 148.55 150.33 L 152.20 148.68 L 155.85 157.35 L 159.50 156.32 L 163.15 148.12 L 166.80 151.07 L 170.45 142.46 L 174.10 139.97 L 177.75 137.95 L 181.40 138.03 L 185.05 133.33 L 188.70 137.00 L 192.35 140.43 L 196.00 139.03 L 199.65 141.02 L 203.30 143.34 L 206.95 149.91 L 210.60 146.23 L 214.25 146.53 L 217.90 147.15 L 221.55 142.24 L 225.20 139.85 L 228.85 144.38 L 232.50 139.30 L 236.15 141.34 L 239.80 132.41 L 243.45 141.86 L 247.10 144.28 L 250.75 142.73 L 254.40 135.15 L 258.05 136.32 L 261.70 139.28 L 265.35 136.08 L 269.00 140.46 L 272.65 146.04 L 276.30 144.79 L 279.95 144.27 L 283.60 149.91 L 287.25 144.81 L 290.90 148.95 L 294.55 143.06 L 298.20 148.05 L 301.85 144.72 L 305.50 141.17 L 309.15 134.42 L 312.80 135.48 L 316.45 137.19 L 320.10 138.26 L 323.75 141.38 L 327.40 144.00 L 331.05 143.07 L 334.70 139.64 L 338.35 137.82 L 342.00 140.78 L 345.65 146.85 L 349.30 144.74 L 352.95 141.96 L 356.60 139.51 L 360.25 143.01 L 363.90 151.21 L 367.55 153.39 L 371.20 148.12 L 374.85 146.21 L 378.50 155.22 L 382.15 154.07 L 385.80 161.48 L 389.45 157.89 L 393.10 159.99 L 396.75 163.09 L 400.40 165.64 L 404.05 165.60 L 407.70 161.92 L 411.35 163.36 L 415.00 165.66 L 418.65 156.05 L 422.30 155.10 L 425.95 162.00 L 429.60 160.42 L 433.25 154.16 L 436.90 148.67 L 440.55 150.38 L 444.20 142.64 L 447.85 139.80 L 451.50 140.30 L 455.15 141.81 L 458.80 142.36 L 462.45 140.49 L 466.10 134.29 L 469.75 131.84 L 473.40 128.90 L 477.05 120.73 L 480.70 117.94 L 484.35 126.90 L 488.00 123.36 L 491.65 118.12 L 495.30 120.55 L 498.95 120.74 L 502.60 124.93 L 506.25 123.71 L 509.90 116.03 L 513.55 110.51 L 517.20 106.34 L 520.85 112.64 L 524.50 112.33 L 528.15 110.73 L 531.80 109.90 L 535.45 107.38 L 539.10 110.41 L 542.75 106.50 L 546.40 103.62 L 550.05 99.07 L 553.70 104.93 L 557.35 112.20 L 561.00 113.12 L 564.65 112.81 L 568.30 119.50 L 571.95 112.70 L 575.60 114.54 L 579.25 114.15 L 582.90 115.55 L 586.55 108.65 L 590.20 106.24 L 593.85 106.57 L 597.50 107.14 L 601.15 107.17 L 604.80 111.47 L 608.45 115.60 L 612.10 110.53 L 615.75 113.32 L 619.40 112.54 L 623.05 112.63 L 626.70 103.00 L 630.35 96.08 L 634.00 91.57 L 637.65 87.13 L 641.30 89.66 L 644.95 89.70 L 648.60 87.76 L 652.25 89.17 L 655.90 93.01 L 659.55 95.91 L 663.20 105.45 L 666.85 105.69 L 670.50 99.69 L 674.15 99.93 L 677.80 102.25 L 681.45 97.01 L 685.10 105.90 L 688.75 108.72 L 692.40 109.44 L 696.05 110.80 L 699.70 105.52 L 703.35 107.88 L 707.00 110.50 L 710.65 115.49 L 714.30 122.48 L 717.95 123.11 L 721.60 114.74 L 725.25 110.77 L 728.90 107.24 L 732.55 110.33 L 736.20 107.13 L 739.85 103.15 L 743.50 98.60 L 747.15 97.58 L 750.80 95.98 L 754.45 90.62 L 758.10 88.13 L 761.75 85.60 L 765.40 81.66 L 769.05 78.18 L 772.70 65.38 L 776.35 70.05 L 780.00 76.69" class="path-3" />
<path d="M 50.00 172.10 L 53.65 165.25 L 57.30 164.88 L 60.95 161.19 L 64.60 154.07 L 68.25 159.20 L 71.90 161.73 L 75.55 157.21 L 79.20 151.98 L 82.85 148.18 L 86.50 143.16 L 90.15 140.81 L 93.80 145.14 L 97.45 152.58 L 101.10 145.59 L 104.75 139.96 L 108.40 132.81 L 112.05 135.07 L 115.70 138.83 L 119.35 136.68 L 123.00 138.20 L 126.65 137.95 L 130.30 142.21 L 133.95 141.26 L 137.60 144.73 L 141.25 144.05 L 144.90 137.46 L 148.55 141.10 L 152.20 140.32 L 155.85 138.19 L 159.50 141.31 L 163.15 151.91 L 166.80 156.92 L 170.45 160.27 L 174.10 164.01 L 177.75 167.43 L 181.40 160.46 L 185.05 155.69 L 188.70 150.52 L 192.35 150.26 L 196.00 147.98 L 199.65 149.98 L 203.30 135.24 L 206.95 140.49 L 210.60 141.91 L 214.25 138.82 L 217.90 138.93 L 221.55 137.96 L 225.20 133.52 L 228.85 134.12 L 232.50 129.39 L 236.15 133.03 L 239.80 125.22 L 243.45 117.23 L 247.10 120.59 L 250.75 117.92 L 254.40 114.74 L 258.05 117.16 L 261.70 113.38 L 265.35 107.44 L 269.00 103.36 L 272.65 102.75 L 276.30 102.75 L 279.95 107.53 L 283.60 111.13 L 287.25 122.26 L 290.90 120.11 L 294.55 123.89 L 298.20 123.68 L 301.85 126.81 L 305.50 118.74 L 309.15 111.41 L 312.80 108.41 L 316.45 109.82 L 320.10 103.12 L 323.75 97.08 L 327.40 102.28 L 331.05 97.03 L 334.70 92.84 L 338.35 98.89 L 342.00 98.52 L 345.65 100.90 L 349.30 103.05 L 352.95 96.12 L 356.60 101.65 L 360.25 98.66 L 363.90 100.75 L 367.55 90.89 L 371.20 92.82 L 374.85 99.42 L 378.50 96.97 L 382.15 104.17 L 385.80 110.57 L 389.45 103.47 L 393.10 96.82 L 396.75 103.92 L 400.40 94.43 L 404.05 94.18 L 407.70 100.91 L 411.35 102.53 L 415.00 100.00 L 418.65 98.16 L 422.30 103.05 L 425.95 101.79 L 429.60 102.82 L 433.25 97.70 L 436.90 96.26 L 440.55 88.27 L 444.20 85.83 L 447.85 92.24 L 451.50 99.40 L 455.15 98.35 L 458.80 97.52 L 462.45 104.63 L 466.10 99.18 L 469.75 99.43 L 473.40 97.37 L 477.05 88.42 L 480.70 97.78 L 484.35 97.32 L 488.00 100.65 L 491.65 104.42 L 495.30 108.02 L 498.95 113.01 L 502.60 112.93 L 506.25 118.80 L 509.90 121.97 L 513.55 118.10 L 517.20 115.35 L 520.85 111.36 L 524.50 110.66 L 528.15 109.94 L 531.80 107.08 L 535.45 111.52 L 539.10 110.67 L 542.75 105.43 L 546.40 105.55 L 550.05 105.03 L 553.70 103.70 L 557.35 99.76 L 561.00 100.30 L 564.65 103.27 L 568.30 109.36 L 571.95 108.35 L 575.60 101.11 L 579.25 97.61 L 582.90 87.90 L 586.55 89.88 L 590.20 98.88 L 593.85 98.37 L 597.50 102.86 L 601.15 102.79 L 604.80 103.62 L 608.45 103.90 L 612.10 98.92 L 615.75 99.53 L 619.40 101.53 L 623.05 103.33 L 626.70 103.09 L 630.35 93.80 L 634.00 96.69 L 637.65 92.77 L 641.30 90.81 L 644.95 97.31 L 648.60 98.58 L 652.25 101.95 L 655.90 100.38 L 659.55 101.56 L 663.20 101.39 L 666.85 98.85 L 670.50 104.38 L 674.15 103.31 L 677.80 105.40 L 681.45 110.86 L 685.10 101.97 L 688.75 101.04 L 692.40 107.73 L 696.05 109.13 L 699.70 111.53 L 703.35 112.39 L 707.00 112.94 L 710.65 115.16 L 714.30 121.98 L 717.95 116.94 L 721.60 114.31 L 725.25 104.87 L 728.90 101.03 L 732.55 97.03 L 736.20 96.35 L 739.85 94.39 L 743.50 95.30 L 747.15 96.95 L 750.80 87.92 L 754.45 81.71 L 758.10 87.37 L 761.75 90.68 L 765.40 89.47 L 769.05 86.50 L 772.70 98.54 L 776.35 100.14 L 780.00 96.99" class="path-4" />
<line x1="50" y1="172.1" x2="780" y2="172.1" stroke="#4b5563" stroke-width="0.8" stroke-dasharray="6 3" />
</svg>