<svg xmlns="http://www.w3.org/2000/svg" viewBox="0 0 800 300" width="800" height="300">
<style>
.axis-line { stroke: #6b7280; stroke-width: 0.5; }
.axis-text { font-family: monospace; font-size: 11px; fill: #9ca3af; }
.title-text { font-family: monospace; font-size: 14px; fill: #d1d5db; font-weight: bold; }
.grid-line { stroke: #374151; stroke-width: 0.3; stroke-dasharray: 4 2; }
.path-0 { fill: none; stroke: #3b82f6; stroke-width: 2; stroke-linecap: round; opacity: 0.85; animation: draw-0 8s ease-in-out 0.0s infinite; stroke-dasharray: 1346; stroke-dashoffset: 1346;}
@keyframes draw-0 { 0% { stroke-dashoffset: 1346; } 38% { stroke-dashoffset: 0; } 62% { stroke-dashoffset: 0; } 100% { stroke-dashoffset: 1346; }}
.path-1 { fill: none; stroke: #ef4444; stroke-width: 2; stroke-linecap: round; opacity: 0.85; animation: draw-1 8s ease-in-out 0.4s infinite; stroke-dasharray: 1498; stroke-dashoffset: 1498;}
@keyframes draw-1 { 0% { stroke-dashoffset: 1498; } 38% { stroke-dashoffset: 0; } 62% { stroke-dashoffset: 0; } 100% { stroke-dashoffset: 1498; }}
.path-2 { fill: none; stroke: #22c55e; stroke-width: 2; stroke-linecap: round; opacity: 0.85; animation: draw-2 8s ease-in-out 0.8s infinite; stroke-dasharray: 1477; stroke-dashoffset: 1477;}
@keyframes draw-2 { 0% { stroke-dashoffset: 1477; } 38% { stroke-dashoffset: 0; } 62% { stroke-dashoffset: 0; } 100% { stroke-dashoffset: 1477; }}
.path-3 { fill: none; stroke: #f59e0b; stroke-width: 2; stroke-linecap: round; opacity: 0.85; animation: draw-3 8s ease-in-out 1.2000000000000002s infinite; stroke-dasharray: 1404; stroke-dashoffset: 1404;}
@keyframes draw-3 { 0% { stroke-dashoffset: 1404; } 38% { stroke-dashoffset: 0; } 62% { stroke-dashoffset: 0; } 100% { stroke-dashoffset: 1404; }}
.path-4 { fill: none; stroke: #a855f7; stroke-width: 2; stroke-linecap: round; opacity: 0.85; animation: draw-4 8s ease-in-out 1.6s infinite; stroke-dasharray: 1270; stroke-dashoffset: 1270;}
@keyframes draw-4 { 0% { stroke-dashoffset: 1270; } 38% { stroke-dashoffset: 0; } 62% { stroke-dashoffset: 0; } 100% { stroke-dashoffset: 1270; }}
</style>
<rect width="800" height="300" rx="8" fill="#0d1117" />
<line x1="50" y1="260.0" x2="780" y2="260.0" class="grid-line" />
<text x="44" y="264.0" text-anchor="end" class="axis-text">-1.7</text>
<line x1="50" y1="216.0" x2="780" y2="216.0" class="grid-line" />
<text x="44" y="220.0" text-anchor="end" class="axis-text">-1.2</text>
<line x1="50" y1="172.0" x2="780" y2="172.0" class="grid-line" />
<text x="44" y="176.0" text-anchor="end" class="axis-text">-0.7</text>
<line x1="50" y1="128.0" x2="780" y2="128.0" class="grid-line" />
<text x="44" y="132.0" text-anchor="end" class="axis-text">-0.3</text>
<line x1="50" y1="84.0" x2="780" y2="84.0" class="grid-line" />
<text x="44" y="88.0" text-anchor="end" class="axis-text">0.2</text>
<line x1="50" y1="40.0" x2="780" y2="40.0" class="grid-line" />
<text x="44" y="44.0" text-anchor="end" class="axis-text">0.7</text>
<line x1="50.0" y1="40" x2="50.0" y2="260" class="grid-line" />
<line x1="196.0" y1="40" x2="196.0" y2="260" class="grid-line" />
<line x1="342.0" y1="40" x2="342.0" y2="260" class="grid-line" />
<line x1="488.0" y1="40" x2="488.0" y2="260" class="grid-line" />
<line x1="634.0" y1="40" x2="634.0" y2="260" class="grid-line" />
<line x1="780.0" y1="40" x2="780.0" y2="260" class="grid-line" />
<line x1="50" y1="260" x2="780" y2="260" class="axis-line" />
<line x1="50" y1="40" x2="50" y2="260" class="axis-line" />
<text x="400.0" y="295" text-anchor="middle" class="axis-text">t</text>
<text x="12" y="150.0" text-anchor="middle" class="axis-text" transform="rotate(-90 12 150.0)">W(t)</text>
<text x="400.0" y="22" text-anchor="middle" class="title-text">Brownian Motion</text>
<path d="M 50.00 103.19 L 53.65 107.21 L 57.30 113.74 L 60.95 117.40 L 64.60 130.21 L 68.25 128.09 L 71.90 125.88 L 75.55 135.44 L 79.20 138.33 L 82.85 141.38 L 86.50 147.05 L 90.15 137.77 L 93.80 124.43 L 97.45 129.24 L 101.10 133.20 L 104.75 143.29 L 108.40 133.70 L 112.05 127.90 L 115.70 129.24 L 119.35 129.84 L 123.00 131.97 L 126.65 134.01 L 130.30 125.86 L 133.95 127.03 L 137.60 127.09 L 141.25 129.64 L 144.90 121.64 L 148.55 131.53 L 152.20 144.40 L 155.85 139.58 L 159.50 149.65 L 163.15 149.24 L 166.80 155.07 L 170.45 152.82 L 174.10 149.94 L 177.75 147.71 L 181.40 147.64 L 185.05 141.64 L 188.70 141.69 L 192.35 140.31 L 196.00 137.30 L 199.65 141.80 L 203.30 134.82 L 206.95 143.86 L 210.60 143.01 L 214.25 142.93 L 217.90 147.57 L 221.55 144.02 L 225.20 145.77 L 228.85 143.36 L 232.50 145.44 L 236.15 141.49 L 239.80 136.24 L 243.45 139.73 L 247.10 128.96 L 250.75 133.92 L 254.40 128.01 L 258.05 127.71 L 261.70 122.81 L 265.35 125.60 L 269.00 122.74 L 272.65 114.46 L 276.30 106.24 L 279.95 97.63 L 283.60 100.75 L 287.25 113.60 L 290.90 117.98 L 294.55 115.40 L 298.20 109.78 L 301.85 108.70 L 305.50 108.42 L 309.15 101.42 L 312.80 99.87 L 316.45 96.84 L 320.10 109.55 L 323.75 113.36 L 327.40 114.65 L 331.05 113.17 L 334.70 106.62 L 338.35 117.34 L 342.00 114.21 L 345.65 108.36 L 349.30 101.23 L 352.95 97.63 L 356.60 96.26 L 360.25 104.24 L 363.90 106.99 L 367.55 116.07 L 371.20 120.07 L 374.85 129.17 L 378.50 124.09 L 382.15 120.75 L 385.80 118.21 L 389.45 124.06 L 393.10 127.24 L 396.75 120.33 L 400.40 122.70 L 404.05 128.14 L 407.70 136.16 L 411.35 126.54 L 415.00 129.61 L 418.65 133.81 L 422.30 129.36 L 425.95 139.37 L 429.60 146.00 L 433.25 146.58 L 436.90 150.09 L 440.55 141.92 L 444.20 142.84 L 447.85 137.08 L 451.50 126.29 L 455.15 123.20 L 458.80 120.53 L 462.45 123.13 L 466.10 123.41 L 469.75 119.80 L 473.40 121.18 L 477.05 120.54 L 480.70 118.91 L 484.35 117.01 L 488.00 125.22 L 491.65 126.59 L 495.30 132.42 L 498.95 137.53 L 502.60 148.15 L 506.25 154.92 L 509.90 162.86 L 513.55 163.10 L 517.20 150.13 L 520.85 160.29 L 524.50 152.81 L 528.15 151.79 L 531.80 145.70 L 535.45 145.84 L 539.10 150.18 L 542.75 152.93 L 546.40 164.84 L 550.05 165.31 L 553.70 162.73 L 557.35 153.95 L 561.00 151.77 L 564.65 148.38 L 568.30 147.50 L 571.95 153.65 L 575.60 155.51 L 579.25 151.87 L 582.90 159.64 L 586.55 151.15 L 590.20 138.89 L 593.85 144.06 L 597.50 145.67 L 601.15 149.04 L 604.80 149.41 L 608.45 145.68 L 612.10 140.35 L 615.75 134.58 L 619.40 137.04 L 623.05 133.99 L 626.70 141.79 L 630.35 142.13 L 634.00 141.58 L 637.65 135.37 L 641.30 126.41 L 644.95 129.68 L 648.60 120.09 L 652.25 111.70 L 655.90 105.55 L 659.55 104.53 L 663.20 113.57 L 666.85 101.27 L 670.50 93.97 L 674.15 101.12 L 677.80 101.43 L 681.45 85.01 L 685.10 77.33 L 688.75 84.86 L 692.40 98.44 L 696.05 94.05 L 699.70 83.60 L 703.35 78.56 L 707.00 79.31 L 710.65 73.42 L 714.30 65.58 L 717.95 72.31 L 721.60 75.67 L 725.25 81.31 L 728.90 74.55 L 732.55 69.67 L 736.20 80.30 L 739.85 82.15 L 743.50 88.77 L 747.15 89.20 L 750.80 85.10 L 754.45 80.99 L 758.10 96.09 L 761.75 102.18 L 765.40 102.40 L 769.05 106.55 L 772.70 114.87 L 776.35 130.45 L 780.00 131.33" class="path-0" />
<path d="M 50.00 103.19 L 53.65 113.95 L 57.30 120.48 L 60.95 119.61 L 64.60 124.90 L 68.25 122.84 L 71.90 126.64 L 75.55 121.79 L 79.20 129.88 L 82.85 133.65 L 86.50 124.49 L 90.15 118.66 L 93.80 117.70 L 97.45 122.59 L 101.10 136.37 L 104.75 146.92 L 108.40 151.48 L 112.05 153.85 L 115.70 151.19 L 119.35 146.95 L 123.00 150.39 L 126.65 142.42 L 130.30 130.32 L 133.95 126.82 L 137.60 133.64 L 141.25 134.52 L 144.90 138.42 L 148.55 139.01 L 152.20 145.97 L 155.85 151.36 L 159.50 158.02 L 163.15 164.04 L 166.80 161.17 L 170.45 151.68 L 174.10 154.11 L 177.75 155.91 L 181.40 156.52 L 185.05 153.85 L 188.70 139.41 L 192.35 143.00 L 196.00 133.66 L 199.65 130.14 L 203.30 115.77 L 206.95 113.22 L 210.60 104.33 L 214.25 102.68 L 217.90 96.13 L 221.55 92.79 L 225.20 89.75 L 228.85 81.99 L 232.50 84.50 L 236.15 77.68 L 239.80 75.05 L 243.45 80.75 L 247.10 94.81 L 250.75 90.32 L 254.40 101.39 L 258.05 112.23 L 261.70 121.41 L 265.35 124.48 L 269.00 131.18 L 272.65 136.29 L 276.30 139.62 L 279.95 145.03 L 283.60 136.01 L 287.25 130.76 L 290.90 123.17 L 294.55 126.41 L 298.20 124.21 L 301.85 127.06 L 305.50 135.93 L 309.15 119.21 L 312.80 109.73 L 316.45 117.89 L 320.10 103.36 L 323.75 88.73 L 327.40 99.36 L 331.05 91.01 L 334.70 95.18 L 338.35 104.91 L 342.00 111.77 L 345.65 120.30 L 349.30 114.71 L 352.95 106.96 L 356.60 115.13 L 360.25 100.47 L 363.90 89.37 L 367.55 94.99 L 371.20 104.51 L 374.85 95.46 L 378.50 106.69 L 382.15 106.36 L 385.80 107.41 L 389.45 111.18 L 393.10 123.36 L 396.75 124.75 L 400.40 129.80 L 404.05 133.20 L 407.70 128.30 L 411.35 135.16 L 415.00 135.94 L 418.65 126.14 L 422.30 128.42 L 425.95 127.92 L 429.60 134.44 L 433.25 145.28 L 436.90 142.72 L 440.55 144.33 L 444.20 145.33 L 447.85 138.90 L 451.50 163.13 L 455.15 165.04 L 458.80 169.29 L 462.45 166.04 L 466.10 164.90 L 469.75 161.35 L 473.40 161.99 L 477.05 148.79 L 480.70 152.80 L 484.35 140.11 L 488.00 147.88 L 491.65 152.64 L 495.30 156.25 L 498.95 149.34 L 502.60 131.97 L 506.25 136.83 L 509.90 144.38 L 513.55 140.89 L 517.20 134.07 L 520.85 121.13 L 524.50 123.30 L 528.15 121.36 L 531.80 125.15 L 535.45 142.94 L 539.10 143.85 L 542.75 144.47 L 546.40 147.55 L 550.05 153.73 L 553.70 153.68 L 557.35 152.11 L 561.00 143.01 L 564.65 147.90 L 568.30 142.45 L 571.95 143.62 L 575.60 129.31 L 579.25 129.06 L 582.90 133.50 L 586.55 131.44 L 590.20 141.17 L 593.85 141.44 L 597.50 148.88 L 601.15 134.70 L 604.80 139.63 L 608.45 141.46 L 612.10 142.91 L 615.75 145.76 L 619.40 148.37 L 623.05 151.74 L 626.70 138.06 L 630.35 134.77 L 634.00 126.86 L 637.65 118.02 L 641.30 122.82 L 644.95 114.41 L 648.60 106.65 L 652.25 117.25 L 655.90 122.82 L 659.55 132.50 L 663.20 129.53 L 666.85 128.34 L 670.50 131.99 L 674.15 139.84 L 677.80 132.49 L 681.45 121.93 L 685.10 120.41 L 688.75 126.07 L 692.40 127.28 L 696.05 142.69 L 699.70 141.15 L 703.35 131.60 L 707.00 140.55 L 710.65 147.75 L 714.30 157.43 L 717.95 161.92 L 721.60 169.03 L 725.25 162.89 L 728.90 157.21 L 732.55 147.04 L 736.20 148.85 L 739.85 154.68 L 743.50 156.26 L 747.15 156.02 L 750.80 159.64 L 754.45 162.10 L 758.10 173.84 L 761.75 172.31 L 765.40 168.90 L 769.05 161.81 L 772.70 158.87 L 776.35 159.61 L 780.00 174.70" class="path-1" />
<path d="M 50.00 103.19 L 53.65 104.05 L 57.30 106.73 L 60.95 98.75 L 64.60 96.60 L 68.25 94.47 L 71.90 109.33 L 75.55 106.08 L 79.20 103.67 L 82.85 107.04 L 86.50 118.49 L 90.15 103.89 L 93.80 109.39 L 97.45 115.59 L 101.10 113.18 L 104.75 127.06 L 108.40 129.80 L 112.05 123.53 L 115.70 128.28 L 119.35 111.77 L 123.00 101.85 L 126.65 109.51 L 130.30 117.42 L 133.95 115.74 L 137.60 107.60 L 141.25 93.43 L 144.90 99.92 L 148.55 104.57 L 152.20 106.16 L 155.85 117.07 L 159.50 109.75 L 163.15 115.21 L 166.80 119.49 L 170.45 115.55 L 174.10 114.25 L 177.75 111.52 L 181.40 120.69 L 185.05 130.40 L 188.70 140.79 L 192.35 129.25 L 196.00 122.08 L 199.65 124.65 L 203.30 129.42 L 206.95 131.72 L 210.60 136.53 L 214.25 140.70 L 217.90 142.00 L 221.55 139.41 L 225.20 152.74 L 228.85 155.06 L 232.50 153.04 L 236.15 155.57 L 239.80 150.41 L 243.45 140.08 L 247.10 135.47 L 250.75 130.69 L 254.40 121.45 L 258.05 120.58 L 261.70 123.83 L 265.35 129.57 L 269.00 133.01 L 272.65 136.69 L 276.30 137.68 L 279.95 140.99 L 283.60 143.49 L 287.25 146.52 L 290.90 157.86 L 294.55 148.37 L 298.20 138.68 L 301.85 141.11 L 305.50 141.23 L 309.15 148.30 L 312.80 136.56 L 316.45 130.44 L 320.10 127.33 L 323.75 117.91 L 327.40 107.47 L 331.05 96.42 L 334.70 95.85 L 338.35 103.91 L 342.00 103.90 L 345.65 119.07 L 349.30 110.16 L 352.95 112.31 L 356.60 117.59 L 360.25 118.36 L 363.90 119.72 L 367.55 129.63 L 371.20 134.86 L 374.85 124.88 L 378.50 126.75 L 382.15 129.84 L 385.80 134.00 L 389.45 130.46 L 393.10 117.43 L 396.75 114.56 L 400.40 119.04 L 404.05 121.14 L 407.70 126.81 L 411.35 130.28 L 415.00 133.71 L 418.65 133.88 L 422.30 135.70 L 425.95 127.38 L 429.60 127.58 L 433.25 139.89 L 436.90 136.55 L 440.55 134.77 L 444.20 132.79 L 447.85 143.45 L 451.50 138.17 L 455.15 144.11 L 458.80 150.29 L 462.45 156.63 L 466.10 143.15 L 469.75 142.33 L 473.40 140.92 L 477.05 141.56 L 480.70 133.47 L 484.35 132.13 L 488.00 137.08 L 491.65 139.31 L 495.30 143.38 L 498.95 134.34 L 502.60 125.65 L 506.25 135.99 L 509.90 129.52 L 513.55 128.33 L 517.20 128.81 L 520.85 138.48 L 524.50 133.90 L 528.15 136.27 L 531.80 119.01 L 535.45 117.67 L 539.10 112.75 L 542.75 110.05 L 546.40 104.27 L 550.05 106.50 L 553.70 96.52 L 557.35 86.00 L 561.00 79.19 L 564.65 85.46 L 568.30 78.84 L 571.95 80.64 L 575.60 68.30 L 579.25 69.98 L 582.90 72.84 L 586.55 69.84 L 590.20 65.38 L 593.85 66.01 L 597.50 65.39 L 601.15 82.54 L 604.80 76.60 L 608.45 69.99 L 612.10 72.49 L 615.75 83.64 L 619.40 89.63 L 623.05 106.98 L 626.70 107.41 L 630.35 103.16 L 634.00 101.83 L 637.65 98.29 L 641.30 100.69 L 644.95 98.95 L 648.60 81.59 L 652.25 88.61 L 655.90 94.69 L 659.55 84.59 L 663.20 86.61 L 666.85 93.15 L 670.50 99.56 L 674.15 96.35 L 677.80 111.68 L 681.45 117.33 L 685.10 103.90 L 688.75 104.91 L 692.40 98.63 L 696.05 104.69 L 699.70 85.32 L 703.35 98.61 L 707.00 98.36 L 710.65 104.59 L 714.30 102.92 L 717.95 95.54 L 721.60 97.67 L 725.25 89.38 L 728.90 86.81 L 732.55 97.18 L 736.20 77.99 L 739.85 81.76 L 743.50 79.56 L 747.15 92.61 L 750.80 101.26 L 754.45 93.57 L 758.10 76.37 L 761.75 79.25 L 765.40 80.38 L 769.05 79.12 L 772.70 77.82 L 776.35 81.54 L 780.00 84.61" class="path-2" />
<path d="M 50.00 103.19 L 53.65 115.24 L 57.30 108.46 L 60.95 114.85 L 64.60 112.68 L 68.25 114.76 L 71.90 116.39 L 75.55 122.47 L 79.20 123.45 L 82.85 124.47 L 86.50 116.37 L 90.15 110.16 L 93.80 108.62 L 97.45 117.37 L 101.10 116.76 L 104.75 129.81 L 108.40 128.78 L 112.05 127.95 L 115.70 128.74 L 119.35 130.54 L 123.00 124.49 L 126.65 123.76 L 130.30 123.06 L 133.95 117.83 L 137.60 119.73 L 141.25 125.42 L 144.90 138.25 L 148.55 131.69 L 152.20 132.79 L 155.85 126.83 L 159.50 137.24 L 163.15 145.11 L 166.80 152.66 L 170.45 164.46 L 174.10 165.32 L 177.75 165.46 L 181.40 172.68 L 185.05 174.29 L 188.70 172.19 L 192.35 168.30 L 196.00 160.39 L 199.65 163.56 L 203.30 175.07 L 206.95 184.26 L 210.60 170.13 L 214.25 165.50 L 217.90 184.16 L 221.55 174.87 L 225.20 185.98 L 228.85 196.96 L 232.50 197.48 L 236.15 201.81 L 239.80 194.33 L 243.45 202.95 L 247.10 203.65 L 250.75 201.98 L 254.40 199.41 L 258.05 197.01 L 261.70 201.99 L 265.35 204.82 L 269.00 199.48 L 272.65 200.42 L 276.30 195.16 L 279.95 187.27 L 283.60 185.21 L 287.25 175.96 L 290.90 168.02 L 294.55 166.78 L 298.20 174.90 L 301.85 174.70 L 305.50 170.15 L 309.15 172.38 L 312.80 166.02 L 316.45 173.89 L 320.10 175.04 L 323.75 175.32 L 327.40 188.59 L 331.05 188.19 L 334.70 188.79 L 338.35 197.76 L 342.00 190.39 L 345.65 196.29 L 349.30 207.30 L 352.95 204.74 L 356.60 192.23 L 360.25 187.03 L 363.90 184.31 L 367.55 201.02 L 371.20 192.04 L 374.85 202.59 L 378.50 192.69 L 382.15 189.58 L 385.80 194.00 L 389.45 186.14 L 393.10 183.06 L 396.75 177.91 L 400.40 172.68 L 404.05 158.63 L 407.70 172.23 L 411.35 175.02 L 415.00 177.87 L 418.65 178.03 L 422.30 175.39 L 425.95 168.83 L 429.60 181.58 L 433.25 182.33 L 436.90 179.89 L 440.55 182.55 L 444.20 201.55 L 447.85 202.92 L 451.50 196.96 L 455.15 193.00 L 458.80 192.64 L 462.45 187.82 L 466.10 192.26 L 469.75 198.57 L 473.40 180.23 L 477.05 198.47 L 480.70 203.16 L 484.35 198.81 L 488.00 201.77 L 491.65 207.19 L 495.30 200.08 L 498.95 204.13 L 502.60 208.57 L 506.25 205.45 L 509.90 211.82 L 513.55 216.30 L 517.20 214.09 L 520.85 224.41 L 524.50 218.71 L 528.15 226.64 L 531.80 232.88 L 535.45 234.62 L 539.10 228.59 L 542.75 222.84 L 546.40 223.48 L 550.05 219.80 L 553.70 212.70 L 557.35 212.58 L 561.00 214.11 L 564.65 218.42 L 568.30 216.02 L 571.95 222.36 L 575.60 223.38 L 579.25 225.98 L 582.90 224.74 L 586.55 218.83 L 590.20 215.98 L 593.85 215.27 L 597.50 214.44 L 601.15 217.00 L 604.80 220.07 L 608.45 207.11 L 612.10 215.82 L 615.75 212.04 L 619.40 198.13 L 623.05 204.58 L 626.70 198.15 L 630.35 197.03 L 634.00 191.13 L 637.65 198.12 L 641.30 197.43 L 644.95 194.31 L 648.60 193.63 L 652.25 188.55 L 655.90 185.32 L 659.55 176.88 L 663.20 179.12 L 666.85 185.75 L 670.50 181.08 L 674.15 196.91 L 677.80 194.40 L 681.45 198.90 L 685.10 198.53 L 688.75 196.69 L 692.40 180.01 L 696.05 185.97 L 699.70 180.50 L 703.35 175.04 L 707.00 173.07 L 710.65 164.65 L 714.30 167.64 L 717.95 159.28 L 721.60 164.19 L 725.25 162.99 L 728.90 174.61 L 732.55 173.11 L 736.20 179.14 L 739.85 188.82 L 743.50 188.05 L 747.15 182.67 L 750.80 184.80 L 754.45 190.53 L 758.10 194.65 L 761.75 196.60 L 765.40 188.09 L 769.05 198.74 L 772.70 206.41 L 776.35 199.86 L 780.00 201.73" class="path-3" />
<path d="M 50.00 103.19 L 53.65 103.91 L 57.30 101.65 L 60.95 111.71 L 64.60 112.08 L 68.25 119.60 L 71.90 127.20 L 75.55 135.38 L 79.20 141.10 L 82.85 140.68 L 86.50 148.79 L 90.15 140.53 L 93.80 149.35 L 97.45 150.55 L 101.10 142.54 L 104.75 149.83 L 108.40 155.38 L 112.05 154.09 L 115.70 159.69 L 119.35 156.27 L 123.00 155.40 L 126.65 160.98 L 130.30 153.28 L 133.95 148.64 L 137.60 153.31 L 141.25 147.01 L 144.90 154.02 L 148.55 152.06 L 152.20 155.77 L 155.85 151.82 L 159.50 145.91 L 163.15 142.07 L 166.80 140.93 L 170.45 134.67 L 174.10 132.03 L 177.75 134.64 L 181.40 135.99 L 185.05 145.37 L 188.70 150.37 L 192.35 145.83 L 196.00 148.87 L 199.65 144.53 L 203.30 143.71 L 206.95 148.48 L 210.60 141.54 L 214.25 135.76 L 217.90 139.78 L 221.55 140.17 L 225.20 143.64 L 228.85 132.32 L 232.50 128.42 L 236.15 122.21 L 239.80 117.00 L 243.45 112.81 L 247.10 112.06 L 250.75 108.25 L 254.40 108.91 L 258.05 125.20 L 261.70 134.14 L 265.35 132.15 L 269.00 126.62 L 272.65 123.72 L 276.30 125.61 L 279.95 133.90 L 283.60 142.44 L 287.25 137.10 L 290.90 148.77 L 294.55 144.67 L 298.20 155.49 L 301.85 161.23 L 305.50 161.22 L 309.15 155.38 L 312.80 158.32 L 316.45 160.67 L 320.10 155.34 L 323.75 162.23 L 327.40 160.59 L 331.05 161.84 L 334.70 164.23 L 338.35 148.58 L 342.00 147.99 L 345.65 141.08 L 349.30 146.96 L 352.95 151.82 L 356.60 154.56 L 360.25 156.53 L 363.90 149.20 L 367.55 150.41 L 371.20 152.19 L 374.85 144.75 L 378.50 145.14 L 382.15 142.02 L 385.80 144.26 L 389.45 139.98 L 393.10 146.41 L 396.75 160.37 L 400.40 166.14 L 404.05 166.48 L 407.70 164.78 L 411.35 163.67 L 415.00 159.01 L 418.65 165.81 L 422.30 163.02 L 425.95 164.98 L 429.60 168.70 L 433.25 166.00 L 436.90 153.20 L 440.55 145.26 L 444.20 146.67 L 447.85 152.67 L 451.50 148.24 L 455.15 152.68 L 458.80 145.66 L 462.45 146.79 L 466.10 144.85 L 469.75 143.43 L 473.40 145.60 L 477.05 133.30 L 480.70 127.02 L 484.35 139.56 L 488.00 145.76 L 491.65 142.63 L 495.30 147.89 L 498.95 146.28 L 502.60 146.29 L 506.25 144.65 L 509.90 136.60 L 513.55 136.90 L 517.20 144.46 L 520.85 142.77 L 524.50 139.19 L 528.15 149.83 L 531.80 144.69 L 535.45 142.92 L 539.10 146.51 L 542.75 134.32 L 546.40 136.73 L 550.05 141.55 L 553.70 144.35 L 557.35 138.43 L 561.00 140.81 L 564.65 143.28 L 568.30 145.31 L 571.95 152.41 L 575.60 145.37 L 579.25 138.19 L 582.90 133.80 L 586.55 128.79 L 590.20 116.63 L 593.85 114.19 L 597.50 118.49 L 601.15 114.61 L 604.80 112.71 L 608.45 114.03 L 612.10 102.07 L 615.75 100.71 L 619.40 108.03 L 623.05 117.04 L 626.70 122.11 L 630.35 122.52 L 634.00 119.15 L 637.65 114.38 L 641.30 128.42 L 644.95 129.99 L 648.60 134.86 L 652.25 142.01 L 655.90 136.28 L 659.55 142.85 L 663.20 137.86 L 666.85 134.41 L 670.50 126.23 L 674.15 129.22 L 677.80 133.54 L 681.45 128.66 L 685.10 121.09 L 688.75 118.33 L 692.40 122.99 L 696.05 121.00 L 699.70 121.65 L 703.35 125.05 L 707.00 116.40 L 710.65 112.37 L 714.30 109.33 L 717.95 112.69 L 721.60 108.91 L 725.25 109.39 L 728.90 108.76 L 732.55 106.62 L 736.20 105.74 L 739.85 100.19 L 743.50 100.36 L 747.15 104.24 L 750.80 98.12 L 754.45 109.61 L 758.10 107.14 L 761.75 111.80 L 765.40 108.82 L 769.05 102.66 L 772.70 111.30 L 776.35 113.12 L 780.00 112.90" class="path-4" />
<line x1="50" y1="103.2" x2="780" y2="103.2" stroke="#4b5563" stroke-width="0.8" stroke-dasharray="6 3" />
</svg>