<svg xmlns="http://www.w3.org/2000/svg" viewBox="0 0 800 300" width="800" height="300">
<style>
.axis-line { stroke: #6b7280; stroke-width: 0.5; }
.axis-text { font-family: monospace; font-size: 11px; fill: #9ca3af; }
.title-text { font-family: monospace; font-size: 14px; fill: #d1d5db; font-weight: bold; }
.grid-line { stroke: #374151; stroke-width: 0.3; stroke-dasharray: 4 2; }
.path-0 { fill: none; stroke: #3b82f6; stroke-width: 2; stroke-linecap: round; opacity: 0.85; animation: draw-0 8s ease-in-out 0.0s infinite; stroke-dasharray: 1159; stroke-dashoffset: 1159;}
@keyframes draw-0 { 0% { stroke-dashoffset: 1159; } 38% { stroke-dashoffset: 0; } 62% { stroke-dashoffset: 0; } 100% { stroke-dashoffset: 1159; }}
.path-1 { fill: none; stroke: #ef4444; stroke-width: 2; stroke-linecap: round; opacity: 0.85; animation: draw-1 8s ease-in-out 0.4s infinite; stroke-dasharray: 1058; stroke-dashoffset: 1058;}
@keyframes draw-1 { 0% { stroke-dashoffset: 1058; } 38% { stroke-dashoffset: 0; } 62% { stroke-dashoffset: 0; } 100% { stroke-dashoffset: 1058; }}
.path-2 { fill: none; stroke: #22c55e; stroke-width: 2; stroke-linecap: round; opacity: 0.85; animation: draw-2 8s ease-in-out 0.8s infinite; stroke-dasharray: 1053; stroke-dashoffset: 1053;}
@keyframes draw-2 { 0% { stroke-dashoffset: 1053; } 38% { stroke-dashoffset: 0; } 62% { stroke-dashoffset: 0; } 100% { stroke-dashoffset: 1053; }}
.path-3 { fill: none; stroke: #f59e0b; stroke-width: 2; stroke-linecap: round; opacity: 0.85; animation: draw-3 8s ease-in-out 1.2000000000000002s infinite; stroke-dasharray: 1166; stroke-dashoffset: 1166;}
@keyframes draw-3 { 0% { stroke-dashoffset: 1166; } 38% { stroke-dashoffset: 0; } 62% { stroke-dashoffset: 0; } 100% { stroke-dashoffset: 1166; }}
.path-4 { fill: none; stroke: #a855f7; stroke-width: 2; stroke-linecap: round; opacity: 0.85; animation: draw-4 8s ease-in-out 1.6s infinite; stroke-dasharray: 1087; stroke-dashoffset: 1087;}
@keyframes draw-4 { 0% { stroke-dashoffset: 1087; } 38% { stroke-dashoffset: 0; } 62% { stroke-dashoffset: 0; } 100% { stroke-dashoffset: 1087; }}
</style>
<rect width="800" height="300" rx="8" fill="#0d1117" />
<line x1="50" y1="260.0" x2="780" y2="260.0" class="grid-line" />
<text x="44" y="264.0" text-anchor="end" class="axis-text">-1.6</text>
<line x1="50" y1="216.0" x2="780" y2="216.0" class="grid-line" />
<text x="44" y="220.0" text-anchor="end" class="axis-text">-0.9</text>
<line x1="50" y1="172.0" x2="780" y2="172.0" class="grid-line" />
<text x="44" y="176.0" text-anchor="end" class="axis-text">-0.3</text>
<line x1="50" y1="128.0" x2="780" y2="128.0" class="grid-line" />
<text x="44" y="132.0" text-anchor="end" class="axis-text">0.4</text>
<line x1="50" y1="84.0" x2="780" y2="84.0" class="grid-line" />
<text x="44" y="88.0" text-anchor="end" class="axis-text">1.1</text>
<line x1="50" y1="40.0" x2="780" y2="40.0" class="grid-line" />
<text x="44" y="44.0" text-anchor="end" class="axis-text">1.8</text>
<line x1="50.0" y1="40" x2="50.0" y2="260" class="grid-line" />
<line x1="196.0" y1="40" x2="196.0" y2="260" class="grid-line" />
<line x1="342.0" y1="40" x2="342.0" y2="260" class="grid-line" />
<line x1="488.0" y1="40" x2="488.0" y2="260" class="grid-line" />
<line x1="634.0" y1="40" x2="634.0" y2="260" class="grid-line" />
<line x1="780.0" y1="40" x2="780.0" y2="260" class="grid-line" />
<line x1="50" y1="260" x2="780" y2="260" class="axis-line" />
<line x1="50" y1="40" x2="50" y2="260" class="axis-line" />
<text x="400.0" y="295" text-anchor="middle" class="axis-text">t</text>
<text x="12" y="150.0" text-anchor="middle" class="axis-text" transform="rotate(-90 12 150.0)">W(t)</text>
<text x="400.0" y="22" text-anchor="middle" class="title-text">Brownian Motion</text>
<path d="M 50.00 155.38 L 53.65 157.76 L 57.30 157.84 L 60.95 156.13 L 64.60 152.52 L 68.25 152.67 L 71.90 147.46 L 75.55 151.62 L 79.20 149.07 L 82.85 153.28 L 86.50 160.31 L 90.15 160.94 L 93.80 156.32 L 97.45 148.97 L 101.10 155.17 L 104.75 148.82 L 108.40 140.33 L 112.05 139.10 L 115.70 137.08 L 119.35 139.58 L 123.00 144.83 L 126.65 146.30 L 130.30 148.67 L 133.95 147.93 L 137.60 154.59 L 141.25 152.16 L 144.90 149.85 L 148.55 147.60 L 152.20 156.43 L 155.85 156.23 L 159.50 151.36 L 163.15 145.84 L 166.80 145.40 L 170.45 148.52 L 174.10 150.59 L 177.75 152.22 L 181.40 158.60 L 185.05 159.20 L 188.70 155.96 L 192.35 153.22 L 196.00 164.61 L 199.65 166.49 L 203.30 163.48 L 206.95 170.13 L 210.60 173.39 L 214.25 178.24 L 217.90 172.21 L 221.55 164.31 L 225.20 164.67 L 228.85 173.93 L 232.50 176.37 L 236.15 172.16 L 239.80 174.40 L 243.45 173.44 L 247.10 175.11 L 250.75 174.51 L 254.40 177.53 L 258.05 164.98 L 261.70 157.50 L 265.35 154.47 L 269.00 151.52 L 272.65 156.49 L 276.30 158.91 L 279.95 161.65 L 283.60 157.46 L 287.25 153.00 L 290.90 158.80 L 294.55 157.65 L 298.20 163.10 L 301.85 169.93 L 305.50 167.57 L 309.15 161.40 L 312.80 168.32 L 316.45 176.14 L 320.10 174.34 L 323.75 168.76 L 327.40 167.07 L 331.05 171.68 L 334.70 179.42 L 338.35 182.17 L 342.00 184.03 L 345.65 186.44 L 349.30 186.50 L 352.95 184.52 L 356.60 180.17 L 360.25 187.18 L 363.90 185.78 L 367.55 181.16 L 371.20 180.22 L 374.85 189.68 L 378.50 191.06 L 382.15 195.85 L 385.80 193.03 L 389.45 195.01 L 393.10 192.21 L 396.75 198.43 L 400.40 200.29 L 404.05 199.46 L 407.70 201.97 L 411.35 202.66 L 415.00 192.77 L 418.65 197.15 L 422.30 202.67 L 425.95 203.86 L 429.60 211.69 L 433.25 203.55 L 436.90 212.63 L 440.55 210.03 L 444.20 213.76 L 447.85 212.42 L 451.50 218.76 L 455.15 212.20 L 458.80 214.56 L 462.45 205.87 L 466.10 212.69 L 469.75 211.91 L 473.40 205.47 L 477.05 205.66 L 480.70 215.39 L 484.35 211.07 L 488.00 213.89 L 491.65 214.49 L 495.30 215.05 L 498.95 219.14 L 502.60 227.11 L 506.25 221.31 L 509.90 221.81 L 513.55 220.75 L 517.20 217.41 L 520.85 219.63 L 524.50 214.58 L 528.15 210.54 L 531.80 213.10 L 535.45 217.45 L 539.10 223.30 L 542.75 219.24 L 546.40 225.46 L 550.05 224.42 L 553.70 219.12 L 557.35 210.34 L 561.00 211.29 L 564.65 209.76 L 568.30 208.95 L 571.95 208.16 L 575.60 204.99 L 579.25 203.72 L 582.90 206.29 L 586.55 203.45 L 590.20 197.65 L 593.85 186.23 L 597.50 186.52 L 601.15 182.71 L 604.80 179.25 L 608.45 180.38 L 612.10 175.76 L 615.75 188.19 L 619.40 185.12 L 623.05 183.63 L 626.70 182.33 L 630.35 178.29 L 634.00 186.43 L 637.65 179.76 L 641.30 167.65 L 644.95 162.02 L 648.60 162.73 L 652.25 171.69 L 655.90 171.27 L 659.55 162.88 L 663.20 163.67 L 666.85 159.18 L 670.50 159.24 L 674.15 157.11 L 677.80 160.46 L 681.45 154.16 L 685.10 154.68 L 688.75 160.83 L 692.40 151.39 L 696.05 153.12 L 699.70 145.18 L 703.35 143.09 L 707.00 139.27 L 710.65 139.59 L 714.30 144.14 L 717.95 145.30 L 721.60 138.38 L 725.25 139.60 L 728.90 144.40 L 732.55 142.45 L 736.20 141.31 L 739.85 138.92 L 743.50 139.29 L 747.15 147.77 L 750.80 142.20 L 754.45 133.73 L 758.10 131.15 L 761.75 133.35 L 765.40 135.24 L 769.05 140.68 L 772.70 143.09 L 776.35 149.72 L 780.00 157.41" class="path-0" />
<path d="M 50.00 155.38 L 53.65 151.36 L 57.30 145.19 L 60.95 142.88 L 64.60 137.48 L 68.25 138.87 L 71.90 143.90 L 75.55 141.28 L 79.20 136.25 L 82.85 137.30 L 86.50 134.31 L 90.15 133.49 L 93.80 123.01 L 97.45 127.75 L 101.10 118.53 L 104.75 117.37 L 108.40 114.99 L 112.05 117.33 L 115.70 115.43 L 119.35 122.62 L 123.00 119.68 L 126.65 115.77 L 130.30 113.78 L 133.95 106.63 L 137.60 106.26 L 141.25 109.65 L 144.90 107.69 L 148.55 107.55 L 152.20 110.46 L 155.85 108.49 L 159.50 102.78 L 163.15 104.78 L 166.80 104.47 L 170.45 111.77 L 174.10 112.31 L 177.75 112.65 L 181.40 111.31 L 185.05 113.49 L 188.70 112.45 L 192.35 104.70 L 196.00 105.27 L 199.65 108.32 L 203.30 109.13 L 206.95 109.17 L 210.60 111.52 L 214.25 104.11 L 217.90 100.45 L 221.55 100.67 L 225.20 103.54 L 228.85 107.76 L 232.50 108.45 L 236.15 105.27 L 239.80 101.31 L 243.45 107.17 L 247.10 111.24 L 250.75 114.14 L 254.40 114.22 L 258.05 108.82 L 261.70 109.89 L 265.35 104.10 L 269.00 103.38 L 272.65 106.71 L 276.30 105.88 L 279.95 105.37 L 283.60 104.92 L 287.25 104.30 L 290.90 97.34 L 294.55 96.15 L 298.20 96.84 L 301.85 99.42 L 305.50 93.04 L 309.15 90.56 L 312.80 94.17 L 316.45 90.13 L 320.10 90.02 L 323.75 84.01 L 327.40 90.44 L 331.05 92.97 L 334.70 101.91 L 338.35 99.89 L 342.00 100.97 L 345.65 102.29 L 349.30 103.02 L 352.95 110.40 L 356.60 113.69 L 360.25 119.07 L 363.90 120.39 L 367.55 120.06 L 371.20 125.56 L 374.85 120.34 L 378.50 120.59 L 382.15 121.83 L 385.80 121.30 L 389.45 116.97 L 393.10 118.22 L 396.75 112.82 L 400.40 117.15 L 404.05 115.98 L 407.70 116.61 L 411.35 115.86 L 415.00 118.33 L 418.65 117.77 L 422.30 121.74 L 425.95 124.08 L 429.60 113.80 L 433.25 114.01 L 436.90 108.40 L 440.55 103.12 L 444.20 105.73 L 447.85 108.69 L 451.50 105.07 L 455.15 113.42 L 458.80 119.79 L 462.45 115.28 L 466.10 121.67 L 469.75 118.55 L 473.40 119.91 L 477.05 117.04 L 480.70 117.02 L 484.35 113.42 L 488.00 109.25 L 491.65 106.19 L 495.30 105.70 L 498.95 99.12 L 502.60 91.06 L 506.25 95.81 L 509.90 94.03 L 513.55 79.23 L 517.20 83.61 L 520.85 84.16 L 524.50 85.96 L 528.15 89.68 L 531.80 89.88 L 535.45 91.46 L 539.10 92.12 L 542.75 94.28 L 546.40 91.01 L 550.05 95.93 L 553.70 97.48 L 557.35 95.98 L 561.00 94.56 L 564.65 95.58 L 568.30 99.75 L 571.95 98.37 L 575.60 98.00 L 579.25 93.63 L 582.90 87.01 L 586.55 85.78 L 590.20 84.59 L 593.85 77.51 L 597.50 65.38 L 601.15 68.07 L 604.80 69.24 L 608.45 75.16 L 612.10 79.15 L 615.75 78.59 L 619.40 77.78 L 623.05 80.41 L 626.70 83.69 L 630.35 86.70 L 634.00 80.87 L 637.65 77.25 L 641.30 80.32 L 644.95 84.36 L 648.60 82.85 L 652.25 87.98 L 655.90 87.17 L 659.55 88.20 L 663.20 98.03 L 666.85 106.17 L 670.50 106.68 L 674.15 107.86 L 677.80 111.65 L 681.45 106.21 L 685.10 103.37 L 688.75 103.43 L 692.40 97.82 L 696.05 99.20 L 699.70 102.45 L 703.35 105.58 L 707.00 104.47 L 710.65 106.05 L 714.30 104.96 L 717.95 100.04 L 721.60 103.17 L 725.25 97.19 L 728.90 96.40 L 732.55 87.04 L 736.20 83.11 L 739.85 90.17 L 743.50 88.69 L 747.15 95.71 L 750.80 94.34 L 754.45 91.85 L 758.10 91.64 L 761.75 90.45 L 765.40 85.76 L 769.05 84.52 L 772.70 91.21 L 776.35 88.79 L 780.00 94.16" class="path-1" />
<path d="M 50.00 155.38 L 53.65 148.56 L 57.30 149.09 L 60.95 153.87 L 64.60 150.02 L 68.25 148.49 L 71.90 153.79 L 75.55 153.90 L 79.20 154.16 L 82.85 154.75 L 86.50 157.93 L 90.15 153.70 L 93.80 153.84 L 97.45 151.72 L 101.10 144.94 L 104.75 139.80 L 108.40 137.92 L 112.05 137.02 L 115.70 138.38 L 119.35 133.26 L 123.00 128.93 L 126.65 126.84 L 130.30 124.97 L 133.95 123.56 L 137.60 123.35 L 141.25 129.87 L 144.90 135.46 L 148.55 142.29 L 152.20 137.77 L 155.85 140.78 L 159.50 135.84 L 163.15 131.12 L 166.80 131.19 L 170.45 129.40 L 174.10 123.13 L 177.75 129.31 L 181.40 125.12 L 185.05 134.17 L 188.70 132.85 L 192.35 138.18 L 196.00 140.25 L 199.65 138.02 L 203.30 144.27 L 206.95 149.56 L 210.60 149.55 L 214.25 159.32 L 217.90 157.70 L 221.55 160.55 L 225.20 166.13 L 228.85 166.85 L 232.50 165.02 L 236.15 168.93 L 239.80 166.73 L 243.45 170.33 L 247.10 173.15 L 250.75 176.78 L 254.40 180.31 L 258.05 185.29 L 261.70 189.50 L 265.35 190.89 L 269.00 189.07 L 272.65 196.65 L 276.30 194.90 L 279.95 194.52 L 283.60 190.87 L 287.25 190.41 L 290.90 196.35 L 294.55 197.38 L 298.20 198.72 L 301.85 194.71 L 305.50 199.14 L 309.15 199.61 L 312.80 200.73 L 316.45 194.49 L 320.10 197.19 L 323.75 196.22 L 327.40 192.71 L 331.05 193.46 L 334.70 199.86 L 338.35 199.82 L 342.00 194.89 L 345.65 196.91 L 349.30 200.16 L 352.95 198.13 L 356.60 199.04 L 360.25 203.23 L 363.90 202.68 L 367.55 216.00 L 371.20 212.97 L 374.85 216.10 L 378.50 207.27 L 382.15 205.61 L 385.80 212.39 L 389.45 206.12 L 393.10 207.82 L 396.75 207.80 L 400.40 210.52 L 404.05 206.22 L 407.70 199.53 L 411.35 197.76 L 415.00 194.56 L 418.65 198.15 L 422.30 201.60 L 425.95 195.77 L 429.60 197.63 L 433.25 190.27 L 436.90 185.46 L 440.55 188.53 L 444.20 193.93 L 447.85 193.62 L 451.50 190.97 L 455.15 199.47 L 458.80 192.85 L 462.45 192.25 L 466.10 196.38 L 469.75 199.59 L 473.40 201.30 L 477.05 204.84 L 480.70 204.02 L 484.35 205.36 L 488.00 215.42 L 491.65 214.92 L 495.30 216.73 L 498.95 217.63 L 502.60 220.46 L 506.25 217.76 L 509.90 217.08 L 513.55 211.72 L 517.20 213.37 L 520.85 204.47 L 524.50 203.82 L 528.15 207.95 L 531.80 207.91 L 535.45 207.07 L 539.10 211.24 L 542.75 212.79 L 546.40 208.26 L 550.05 205.23 L 553.70 210.76 L 557.35 210.61 L 561.00 204.42 L 564.65 205.11 L 568.30 205.25 L 571.95 204.04 L 575.60 204.73 L 579.25 204.60 L 582.90 206.47 L 586.55 211.62 L 590.20 213.72 L 593.85 217.37 L 597.50 218.22 L 601.15 220.09 L 604.80 224.22 L 608.45 222.58 L 612.10 217.02 L 615.75 215.26 L 619.40 217.54 L 623.05 216.03 L 626.70 219.23 L 630.35 214.54 L 634.00 211.50 L 637.65 210.46 L 641.30 209.20 L 644.95 207.47 L 648.60 203.79 L 652.25 210.85 L 655.90 209.57 L 659.55 207.52 L 663.20 205.93 L 666.85 199.35 L 670.50 196.53 L 674.15 204.22 L 677.80 212.40 L 681.45 209.66 L 685.10 221.88 L 688.75 219.44 L 692.40 218.59 L 696.05 216.78 L 699.70 219.55 L 703.35 224.94 L 707.00 221.44 L 710.65 215.07 L 714.30 213.48 L 717.95 214.13 L 721.60 212.17 L 725.25 206.66 L 728.90 203.72 L 732.55 203.40 L 736.20 203.77 L 739.85 211.97 L 743.50 205.55 L 747.15 207.06 L 750.80 211.16 L 754.45 210.58 L 758.10 209.63 L 761.75 214.22 L 765.40 208.74 L 769.05 205.98 L 772.70 206.56 L 776.35 208.74 L 780.00 210.50" class="path-2" />
<path d="M 50.00 155.38 L 53.65 160.82 L 57.30 159.49 L 60.95 165.35 L 64.60 160.59 L 68.25 161.30 L 71.90 166.89 L 75.55 172.00 L 79.20 170.05 L 82.85 175.27 L 86.50 175.24 L 90.15 176.56 L 93.80 173.24 L 97.45 169.71 L 101.10 173.94 L 104.75 170.77 L 108.40 172.05 L 112.05 166.12 L 115.70 159.78 L 119.35 164.49 L 123.00 167.23 L 126.65 176.12 L 130.30 179.01 L 133.95 175.71 L 137.60 175.49 L 141.25 174.53 L 144.90 181.26 L 148.55 184.61 L 152.20 183.35 L 155.85 179.63 L 159.50 177.56 L 163.15 185.91 L 166.80 187.63 L 170.45 187.66 L 174.10 194.52 L 177.75 189.81 L 181.40 182.94 L 185.05 181.75 L 188.70 175.39 L 192.35 170.66 L 196.00 171.87 L 199.65 179.83 L 203.30 176.93 L 206.95 182.14 L 210.60 185.60 L 214.25 184.61 L 217.90 188.36 L 221.55 191.63 L 225.20 185.18 L 228.85 185.62 L 232.50 180.94 L 236.15 182.46 L 239.80 179.96 L 243.45 190.76 L 247.10 189.53 L 250.75 198.14 L 254.40 194.74 L 258.05 190.58 L 261.70 186.68 L 265.35 184.37 L 269.00 191.93 L 272.65 192.67 L 276.30 202.13 L 279.95 198.64 L 283.60 197.74 L 287.25 194.83 L 290.90 191.63 L 294.55 184.87 L 298.20 179.12 L 301.85 180.51 L 305.50 190.31 L 309.15 195.75 L 312.80 198.48 L 316.45 196.74 L 320.10 200.51 L 323.75 201.88 L 327.40 200.66 L 331.05 200.11 L 334.70 198.29 L 338.35 200.96 L 342.00 205.00 L 345.65 213.90 L 349.30 213.76 L 352.95 221.09 L 356.60 224.39 L 360.25 218.32 L 363.90 213.28 L 367.55 216.00 L 371.20 212.90 L 374.85 212.74 L 378.50 211.09 L 382.15 218.99 L 385.80 227.38 L 389.45 230.73 L 393.10 222.36 L 396.75 227.63 L 400.40 234.62 L 404.05 229.92 L 407.70 230.55 L 411.35 225.53 L 415.00 223.18 L 418.65 220.59 L 422.30 217.60 L 425.95 226.85 L 429.60 224.72 L 433.25 214.75 L 436.90 214.08 L 440.55 213.66 L 444.20 205.09 L 447.85 206.54 L 451.50 207.83 L 455.15 213.46 L 458.80 211.10 L 462.45 213.83 L 466.10 218.19 L 469.75 214.54 L 473.40 210.27 L 477.05 222.29 L 480.70 217.90 L 484.35 211.36 L 488.00 211.12 L 491.65 216.14 L 495.30 202.49 L 498.95 205.14 L 502.60 198.61 L 506.25 205.37 L 509.90 214.69 L 513.55 223.76 L 517.20 222.04 L 520.85 213.42 L 524.50 209.36 L 528.15 208.93 L 531.80 214.69 L 535.45 209.74 L 539.10 207.12 L 542.75 210.84 L 546.40 212.42 L 550.05 217.75 L 553.70 217.37 L 557.35 221.07 L 561.00 215.90 L 564.65 216.08 L 568.30 213.87 L 571.95 207.72 L 575.60 205.70 L 579.25 196.75 L 582.90 199.55 L 586.55 198.41 L 590.20 195.48 L 593.85 196.28 L 597.50 195.93 L 601.15 207.32 L 604.80 204.85 L 608.45 208.94 L 612.10 209.30 L 615.75 202.49 L 619.40 201.31 L 623.05 205.44 L 626.70 207.08 L 630.35 201.48 L 634.00 195.60 L 637.65 190.66 L 641.30 193.67 L 644.95 201.34 L 648.60 199.14 L 652.25 197.78 L 655.90 187.66 L 659.55 190.32 L 663.20 188.44 L 666.85 189.59 L 670.50 183.89 L 674.15 185.52 L 677.80 182.87 L 681.45 183.90 L 685.10 182.47 L 688.75 184.73 L 692.40 187.31 L 696.05 193.75 L 699.70 200.85 L 703.35 195.70 L 707.00 195.87 L 710.65 193.60 L 714.30 188.35 L 717.95 189.29 L 721.60 200.00 L 725.25 204.23 L 728.90 199.82 L 732.55 196.55 L 736.20 205.24 L 739.85 202.78 L 743.50 204.88 L 747.15 209.73 L 750.80 218.85 L 754.45 220.78 L 758.10 215.20 L 761.75 210.04 L 765.40 211.37 L 769.05 203.47 L 772.70 207.30 L 776.35 213.74 L 780.00 215.61" class="path-3" />
<path d="M 50.00 155.38 L 53.65 165.54 L 57.30 161.10 L 60.95 151.39 L 64.60 155.06 L 68.25 144.42 L 71.90 140.20 L 75.55 141.95 L 79.20 146.24 L 82.85 155.81 L 86.50 154.67 L 90.15 156.61 L 93.80 156.82 L 97.45 152.79 L 101.10 155.45 L 104.75 153.48 L 108.40 156.89 L 112.05 154.57 L 115.70 153.79 L 119.35 157.41 L 123.00 165.60 L 126.65 159.84 L 130.30 167.69 L 133.95 165.06 L 137.60 162.50 L 141.25 163.87 L 144.90 164.07 L 148.55 163.85 L 152.20 158.38 L 155.85 156.90 L 159.50 162.37 L 163.15 163.55 L 166.80 164.61 L 170.45 160.10 L 174.10 172.25 L 177.75 173.19 L 181.40 174.93 L 185.05 169.86 L 188.70 176.30 L 192.35 173.78 L 196.00 178.34 L 199.65 179.23 L 203.30 176.69 L 206.95 175.13 L 210.60 170.91 L 214.25 173.57 L 217.90 174.50 L 221.55 172.72 L 225.20 173.66 L 228.85 170.23 L 232.50 168.04 L 236.15 171.33 L 239.80 166.43 L 243.45 168.73 L 247.10 174.47 L 250.75 171.34 L 254.40 175.29 L 258.05 171.20 L 261.70 173.86 L 265.35 172.51 L 269.00 166.19 L 272.65 166.99 L 276.30 162.68 L 279.95 163.78 L 283.60 154.02 L 287.25 151.25 L 290.90 144.87 L 294.55 145.59 L 298.20 140.31 L 301.85 140.15 L 305.50 143.35 L 309.15 144.88 L 312.80 140.39 L 316.45 139.12 L 320.10 142.95 L 323.75 142.42 L 327.40 145.26 L 331.05 145.50 L 334.70 145.90 L 338.35 136.19 L 342.00 143.56 L 345.65 149.44 L 349.30 147.32 L 352.95 154.31 L 356.60 152.58 L 360.25 157.83 L 363.90 156.97 L 367.55 162.23 L 371.20 161.06 L 374.85 159.46 L 378.50 165.51 L 382.15 166.34 L 385.80 164.57 L 389.45 166.58 L 393.10 164.25 L 396.75 161.70 L 400.40 161.81 L 404.05 165.24 L 407.70 167.35 L 411.35 164.94 L 415.00 170.86 L 418.65 163.25 L 422.30 156.76 L 425.95 159.88 L 429.60 164.33 L 433.25 165.52 L 436.90 161.25 L 440.55 169.65 L 444.20 178.21 L 447.85 178.13 L 451.50 165.28 L 455.15 168.50 L 458.80 166.18 L 462.45 159.42 L 466.10 159.70 L 469.75 156.95 L 473.40 158.54 L 477.05 158.45 L 480.70 161.36 L 484.35 167.70 L 488.00 158.53 L 491.65 157.63 L 495.30 155.72 L 498.95 156.01 L 502.60 156.30 L 506.25 160.85 L 509.90 167.39 L 513.55 163.70 L 517.20 163.57 L 520.85 158.93 L 524.50 163.80 L 528.15 166.14 L 531.80 166.99 L 535.45 162.56 L 539.10 158.44 L 542.75 156.61 L 546.40 160.17 L 550.05 157.60 L 553.70 160.29 L 557.35 161.03 L 561.00 166.75 L 564.65 166.74 L 568.30 168.99 L 571.95 167.68 L 575.60 171.16 L 579.25 174.73 L 582.90 170.99 L 586.55 173.06 L 590.20 172.57 L 593.85 175.37 L 597.50 179.03 L 601.15 172.39 L 604.80 169.58 L 608.45 171.37 L 612.10 166.88 L 615.75 165.19 L 619.40 160.64 L 623.05 159.53 L 626.70 156.06 L 630.35 164.81 L 634.00 160.88 L 637.65 160.32 L 641.30 157.78 L 644.95 155.26 L 648.60 153.67 L 652.25 155.63 L 655.90 160.13 L 659.55 155.85 L 663.20 152.64 L 666.85 157.92 L 670.50 153.47 L 674.15 150.99 L 677.80 147.62 L 681.45 144.70 L 685.10 143.98 L 688.75 147.72 L 692.40 149.11 L 696.05 150.20 L 699.70 152.01 L 703.35 157.99 L 707.00 162.28 L 710.65 173.75 L 714.30 169.01 L 717.95 166.39 L 721.60 167.54 L 725.25 165.82 L 728.90 168.18 L 732.55 163.69 L 736.20 159.36 L 739.85 167.33 L 743.50 168.94 L 747.15 164.59 L 750.80 158.00 L 754.45 162.92 L 758.10 162.03 L 761.75 165.16 L 765.40 165.59 L 769.05 168.71 L 772.70 162.71 L 776.35 171.32 L 780.00 162.08" class="path-4" />
<line x1="50" y1="155.4" x2="780" y2="155.4" stroke="#4b5563" stroke-width="0.8" stroke-dasharray="6 3" />
</svg>