<svg xmlns="http://www.w3.org/2000/svg" viewBox="0 0 800 300" width="800" height="300">
<style>
.axis-line { stroke: #6b7280; stroke-width: 0.5; }
.axis-text { font-family: monospace; font-size: 11px; fill: #9ca3af; }
.title-text { font-family: monospace; font-size: 14px; fill: #d1d5db; font-weight: bold; }
.grid-line { stroke: #374151; stroke-width: 0.3; stroke-dasharray: 4 2; }
.path-0 { fill: none; stroke: #3b82f6; stroke-width: 2; stroke-linecap: round; opacity: 0.85; animation: draw-0 8s ease-in-out 0.0s infinite; stroke-dasharray: 1177; stroke-dashoffset: 1177;}
@keyframes draw-0 { 0% { stroke-dashoffset: 1177; } 38% { stroke-dashoffset: 0; } 62% { stroke-dashoffset: 0; } 100% { stroke-dashoffset: 1177; }}
.path-1 { fill: none; stroke: #ef4444; stroke-width: 2; stroke-linecap: round; opacity: 0.85; animation: draw-1 8s ease-in-out 0.4s infinite; stroke-dasharray: 1120; stroke-dashoffset: 1120;}
@keyframes draw-1 { 0% { stroke-dashoffset: 1120; } 38% { stroke-dashoffset: 0; } 62% { stroke-dashoffset: 0; } 100% { stroke-dashoffset: 1120; }}
.path-2 { fill: none; stroke: #22c55e; stroke-width: 2; stroke-linecap: round; opacity: 0.85; animation: draw-2 8s ease-in-out 0.8s infinite; stroke-dasharray: 1259; stroke-dashoffset: 1259;}
@keyframes draw-2 { 0% { stroke-dashoffset: 1259; } 38% { stroke-dashoffset: 0; } 62% { stroke-dashoffset: 0; } 100% { stroke-dashoffset: 1259; }}
.path-3 { fill: none; stroke: #f59e0b; stroke-width: 2; stroke-linecap: round; opacity: 0.85; animation: draw-3 8s ease-in-out 1.2000000000000002s infinite; stroke-dasharray: 1138; stroke-dashoffset: 1138;}
@keyframes draw-3 { 0% { stroke-dashoffset: 1138; } 38% { stroke-dashoffset: 0; } 62% { stroke-dashoffset: 0; } 100% { stroke-dashoffset: 1138; }}
.path-4 { fill: none; stroke: #a855f7; stroke-width: 2; stroke-linecap: round; opacity: 0.85; animation: draw-4 8s ease-in-out 1.6s infinite; stroke-dasharray: 1209; stroke-dashoffset: 1209;}
@keyframes draw-4 { 0% { stroke-dashoffset: 1209; } 38% { stroke-dashoffset: 0; } 62% { stroke-dashoffset: 0; } 100% { stroke-dashoffset: 1209; }}
</style>
<rect width="800" height="300" rx="8" fill="#0d1117" />
<line x1="50" y1="260.0" x2="780" y2="260.0" class="grid-line" />
<text x="44" y="264.0" text-anchor="end" class="axis-text">-0.8</text>
<line x1="50" y1="216.0" x2="780" y2="216.0" class="grid-line" />
<text x="44" y="220.0" text-anchor="end" class="axis-text">-0.3</text>
<line x1="50" y1="172.0" x2="780" y2="172.0" class="grid-line" />
<text x="44" y="176.0" text-anchor="end" class="axis-text">0.3</text>
<line x1="50" y1="128.0" x2="780" y2="128.0" class="grid-line" />
<text x="44" y="132.0" text-anchor="end" class="axis-text">0.9</text>
<line x1="50" y1="84.0" x2="780" y2="84.0" class="grid-line" />
<text x="44" y="88.0" text-anchor="end" class="axis-text">1.5</text>
<line x1="50" y1="40.0" x2="780" y2="40.0" class="grid-line" />
<text x="44" y="44.0" text-anchor="end" class="axis-text">2.1</text>
<line x1="50.0" y1="40" x2="50.0" y2="260" class="grid-line" />
<line x1="196.0" y1="40" x2="196.0" y2="260" class="grid-line" />
<line x1="342.0" y1="40" x2="342.0" y2="260" class="grid-line" />
<line x1="488.0" y1="40" x2="488.0" y2="260" class="grid-line" />
<line x1="634.0" y1="40" x2="634.0" y2="260" class="grid-line" />
<line x1="780.0" y1="40" x2="780.0" y2="260" class="grid-line" />
<line x1="50" y1="260" x2="780" y2="260" class="axis-line" />
<line x1="50" y1="40" x2="50" y2="260" class="axis-line" />
<text x="400.0" y="295" text-anchor="middle" class="axis-text">t</text>
<text x="12" y="150.0" text-anchor="middle" class="axis-text" transform="rotate(-90 12 150.0)">W(t)</text>
<text x="400.0" y="22" text-anchor="middle" class="title-text">Brownian Motion</text>
<path d="M 50.00 197.29 L 53.65 207.42 L 57.30 201.37 L 60.95 196.10 L 64.60 201.61 L 68.25 197.84 L 71.90 191.64 L 75.55 191.98 L 79.20 201.54 L 82.85 194.39 L 86.50 185.86 L 90.15 189.28 L 93.80 190.74 L 97.45 202.76 L 101.10 203.12 L 104.75 200.05 L 108.40 201.82 L 112.05 198.26 L 115.70 195.37 L 119.35 188.68 L 123.00 196.90 L 126.65 202.11 L 130.30 193.55 L 133.95 191.58 L 137.60 193.96 L 141.25 196.75 L 144.90 199.68 L 148.55 195.53 L 152.20 194.24 L 155.85 188.29 L 159.50 184.39 L 163.15 177.59 L 166.80 180.37 L 170.45 182.21 L 174.10 186.69 L 177.75 178.11 L 181.40 175.04 L 185.05 177.10 L 188.70 183.47 L 192.35 184.16 L 196.00 181.24 L 199.65 175.47 L 203.30 179.09 L 206.95 179.83 L 210.60 183.42 L 214.25 178.71 L 217.90 178.83 L 221.55 177.05 L 225.20 183.49 L 228.85 184.46 L 232.50 182.12 L 236.15 185.24 L 239.80 188.64 L 243.45 187.45 L 247.10 194.12 L 250.75 195.72 L 254.40 197.20 L 258.05 204.63 L 261.70 206.07 L 265.35 220.25 L 269.00 217.65 L 272.65 212.52 L 276.30 209.84 L 279.95 208.75 L 283.60 217.75 L 287.25 218.29 L 290.90 217.31 L 294.55 211.57 L 298.20 206.38 L 301.85 206.21 L 305.50 206.01 L 309.15 199.10 L 312.80 194.17 L 316.45 187.32 L 320.10 184.38 L 323.75 182.62 L 327.40 181.25 L 331.05 184.36 L 334.70 173.38 L 338.35 170.91 L 342.00 165.56 L 345.65 171.57 L 349.30 165.72 L 352.95 160.80 L 356.60 168.30 L 360.25 173.55 L 363.90 174.46 L 367.55 174.76 L 371.20 187.55 L 374.85 184.60 L 378.50 176.68 L 382.15 181.18 L 385.80 178.28 L 389.45 174.98 L 393.10 182.27 L 396.75 193.53 L 400.40 197.60 L 404.05 200.98 L 407.70 195.81 L 411.35 187.07 L 415.00 191.30 L 418.65 187.93 L 422.30 191.69 L 425.95 186.61 L 429.60 180.83 L 433.25 177.70 L 436.90 174.37 L 440.55 174.06 L 444.20 179.43 L 447.85 178.52 L 451.50 180.14 L 455.15 184.60 L 458.80 184.65 L 462.45 186.67 L 466.10 190.78 L 469.75 193.81 L 473.40 192.73 L 477.05 197.28 L 480.70 200.58 L 484.35 200.04 L 488.00 202.63 L 491.65 201.00 L 495.30 194.95 L 498.95 195.43 L 502.60 198.37 L 506.25 200.73 L 509.90 200.51 L 513.55 197.03 L 517.20 186.27 L 520.85 180.30 L 524.50 178.76 L 528.15 179.08 L 531.80 176.89 L 535.45 180.48 L 539.10 183.67 L 542.75 181.35 L 546.40 189.21 L 550.05 182.28 L 553.70 188.45 L 557.35 192.29 L 561.00 190.32 L 564.65 187.54 L 568.30 185.65 L 571.95 184.51 L 575.60 179.42 L 579.25 180.23 L 582.90 173.70 L 586.55 172.94 L 590.20 172.37 L 593.85 177.83 L 597.50 173.26 L 601.15 167.68 L 604.80 171.44 L 608.45 167.70 L 612.10 164.91 L 615.75 157.35 L 619.40 154.41 L 623.05 160.21 L 626.70 157.58 L 630.35 154.55 L 634.00 158.47 L 637.65 153.32 L 641.30 145.18 L 644.95 143.31 L 648.60 142.50 L 652.25 132.51 L 655.90 129.89 L 659.55 121.15 L 663.20 106.99 L 666.85 105.95 L 670.50 98.36 L 674.15 99.63 L 677.80 95.44 L 681.45 88.99 L 685.10 92.78 L 688.75 100.89 L 692.40 101.56 L 696.05 86.86 L 699.70 83.65 L 703.35 88.41 L 707.00 83.57 L 710.65 89.40 L 714.30 81.50 L 717.95 84.74 L 721.60 78.34 L 725.25 77.93 L 728.90 78.56 L 732.55 78.27 L 736.20 80.75 L 739.85 81.20 L 743.50 81.69 L 747.15 78.75 L 750.80 75.48 L 754.45 80.66 L 758.10 72.15 L 761.75 65.67 L 765.40 70.30 L 769.05 67.55 L 772.70 65.38 L 776.35 67.59 L 780.00 67.14" class="path-0" />
<path d="M 50.00 197.29 L 53.65 200.93 L 57.30 201.30 L 60.95 196.33 L 64.60 190.97 L 68.25 189.35 L 71.90 183.54 L 75.55 187.94 L 79.20 186.32 L 82.85 184.73 L 86.50 193.27 L 90.15 196.53 L 93.80 193.67 L 97.45 192.66 L 101.10 193.15 L 104.75 200.32 L 108.40 208.50 L 112.05 203.08 L 115.70 205.15 L 119.35 204.73 L 123.00 208.39 L 126.65 210.19 L 130.30 211.48 L 133.95 212.55 L 137.60 215.58 L 141.25 216.55 L 144.90 219.58 L 148.55 210.36 L 152.20 211.54 L 155.85 216.14 L 159.50 216.96 L 163.15 212.79 L 166.80 211.05 L 170.45 208.95 L 174.10 212.56 L 177.75 208.02 L 181.40 212.17 L 185.05 212.43 L 188.70 208.74 L 192.35 202.21 L 196.00 192.28 L 199.65 194.22 L 203.30 199.69 L 206.95 192.01 L 210.60 186.94 L 214.25 190.57 L 217.90 188.85 L 221.55 190.39 L 225.20 192.13 L 228.85 194.59 L 232.50 193.47 L 236.15 188.82 L 239.80 184.92 L 243.45 188.96 L 247.10 186.28 L 250.75 196.94 L 254.40 196.31 L 258.05 206.67 L 261.70 201.66 L 265.35 209.73 L 269.00 214.43 L 272.65 222.88 L 276.30 221.78 L 279.95 222.13 L 283.60 220.47 L 287.25 215.36 L 290.90 216.67 L 294.55 214.38 L 298.20 211.59 L 301.85 217.63 L 305.50 204.65 L 309.15 209.50 L 312.80 205.14 L 316.45 202.93 L 320.10 196.45 L 323.75 198.90 L 327.40 198.58 L 331.05 200.48 L 334.70 200.48 L 338.35 201.77 L 342.00 183.88 L 345.65 186.54 L 349.30 185.10 L 352.95 188.61 L 356.60 185.99 L 360.25 189.82 L 363.90 189.56 L 367.55 190.70 L 371.20 193.78 L 374.85 193.33 L 378.50 192.74 L 382.15 185.83 L 385.80 193.69 L 389.45 188.39 L 393.10 177.72 L 396.75 176.40 L 400.40 177.08 L 404.05 177.78 L 407.70 177.19 L 411.35 177.84 L 415.00 182.85 L 418.65 178.80 L 422.30 185.10 L 425.95 183.01 L 429.60 175.95 L 433.25 168.70 L 436.90 171.04 L 440.55 171.87 L 444.20 180.20 L 447.85 174.08 L 451.50 173.19 L 455.15 173.14 L 458.80 169.05 L 462.45 168.28 L 466.10 161.27 L 469.75 157.71 L 473.40 157.92 L 477.05 161.95 L 480.70 165.85 L 484.35 167.11 L 488.00 166.05 L 491.65 162.52 L 495.30 157.47 L 498.95 155.69 L 502.60 155.26 L 506.25 156.08 L 509.90 153.57 L 513.55 155.68 L 517.20 155.82 L 520.85 160.08 L 524.50 161.50 L 528.15 165.00 L 531.80 163.81 L 535.45 169.79 L 539.10 171.85 L 542.75 172.66 L 546.40 174.67 L 550.05 182.74 L 553.70 177.27 L 557.35 173.65 L 561.00 167.53 L 564.65 173.88 L 568.30 178.43 L 571.95 178.05 L 575.60 175.98 L 579.25 173.78 L 582.90 167.76 L 586.55 168.83 L 590.20 171.73 L 593.85 166.80 L 597.50 164.92 L 601.15 155.12 L 604.80 147.58 L 608.45 148.06 L 612.10 149.02 L 615.75 147.67 L 619.40 146.82 L 623.05 159.50 L 626.70 170.41 L 630.35 164.26 L 634.00 169.86 L 637.65 169.07 L 641.30 159.52 L 644.95 174.89 L 648.60 173.56 L 652.25 172.31 L 655.90 164.56 L 659.55 169.16 L 663.20 169.27 L 666.85 165.57 L 670.50 167.38 L 674.15 170.99 L 677.80 171.57 L 681.45 169.88 L 685.10 173.06 L 688.75 167.23 L 692.40 165.74 L 696.05 164.34 L 699.70 164.07 L 703.35 156.56 L 707.00 153.13 L 710.65 146.22 L 714.30 142.29 L 717.95 137.10 L 721.60 142.87 L 725.25 142.92 L 728.90 138.33 L 732.55 135.31 L 736.20 135.34 L 739.85 137.16 L 743.50 134.45 L 747.15 132.62 L 750.80 128.06 L 754.45 128.94 L 758.10 130.51 L 761.75 132.12 L 765.40 133.78 L 769.05 125.03 L 772.70 116.80 L 776.35 116.90 L 780.00 113.19" class="path-1" />
<path d="M 50.00 197.29 L 53.65 191.79 L 57.30 192.46 L 60.95 197.72 L 64.60 201.44 L 68.25 189.87 L 71.90 197.21 L 75.55 196.56 L 79.20 202.59 L 82.85 198.81 L 86.50 195.28 L 90.15 192.71 L 93.80 191.33 L 97.45 193.37 L 101.10 194.40 L 104.75 197.58 L 108.40 204.14 L 112.05 203.36 L 115.70 194.13 L 119.35 196.83 L 123.00 193.72 L 126.65 195.66 L 130.30 195.18 L 133.95 200.31 L 137.60 198.59 L 141.25 198.81 L 144.90 198.23 L 148.55 197.92 L 152.20 197.37 L 155.85 192.57 L 159.50 199.53 L 163.15 203.33 L 166.80 201.61 L 170.45 201.54 L 174.10 205.04 L 177.75 209.59 L 181.40 210.09 L 185.05 206.56 L 188.70 201.57 L 192.35 203.84 L 196.00 205.35 L 199.65 220.25 L 203.30 214.81 L 206.95 210.55 L 210.60 209.85 L 214.25 208.39 L 217.90 216.57 L 221.55 207.40 L 225.20 200.60 L 228.85 209.21 L 232.50 209.18 L 236.15 207.08 L 239.80 198.11 L 243.45 199.76 L 247.10 194.59 L 250.75 188.49 L 254.40 187.44 L 258.05 197.38 L 261.70 187.58 L 265.35 187.61 L 269.00 183.71 L 272.65 184.27 L 276.30 173.13 L 279.95 184.07 L 283.60 179.72 L 287.25 172.59 L 290.90 180.06 L 294.55 186.69 L 298.20 179.04 L 301.85 178.71 L 305.50 174.89 L 309.15 173.13 L 312.80 175.45 L 316.45 175.56 L 320.10 171.60 L 323.75 169.88 L 327.40 161.94 L 331.05 153.39 L 334.70 139.57 L 338.35 136.00 L 342.00 137.39 L 345.65 143.85 L 349.30 143.04 L 352.95 138.38 L 356.60 133.97 L 360.25 131.76 L 363.90 132.02 L 367.55 134.38 L 371.20 142.62 L 374.85 135.86 L 378.50 143.29 L 382.15 140.65 L 385.80 139.12 L 389.45 142.37 L 393.10 129.66 L 396.75 128.78 L 400.40 120.51 L 404.05 118.41 L 407.70 112.93 L 411.35 117.39 L 415.00 117.72 L 418.65 121.06 L 422.30 123.14 L 425.95 119.55 L 429.60 118.76 L 433.25 119.84 L 436.90 118.48 L 440.55 120.69 L 444.20 117.39 L 447.85 112.01 L 451.50 116.92 L 455.15 113.91 L 458.80 104.63 L 462.45 103.00 L 466.10 110.18 L 469.75 110.53 L 473.40 112.82 L 477.05 109.55 L 480.70 99.37 L 484.35 105.81 L 488.00 113.70 L 491.65 104.51 L 495.30 109.51 L 498.95 115.14 L 502.60 122.55 L 506.25 138.18 L 509.90 140.55 L 513.55 149.94 L 517.20 151.15 L 520.85 147.41 L 524.50 158.83 L 528.15 164.70 L 531.80 164.48 L 535.45 170.13 L 539.10 172.25 L 542.75 175.44 L 546.40 170.62 L 550.05 169.03 L 553.70 164.16 L 557.35 150.28 L 561.00 159.58 L 564.65 168.22 L 568.30 177.43 L 571.95 166.69 L 575.60 166.65 L 579.25 167.78 L 582.90 175.96 L 586.55 168.79 L 590.20 169.67 L 593.85 164.78 L 597.50 171.25 L 601.15 165.36 L 604.80 150.96 L 608.45 141.30 L 612.10 142.20 L 615.75 141.71 L 619.40 139.83 L 623.05 139.00 L 626.70 141.43 L 630.35 146.97 L 634.00 149.02 L 637.65 156.16 L 641.30 148.19 L 644.95 143.94 L 648.60 144.16 L 652.25 145.35 L 655.90 146.72 L 659.55 142.83 L 663.20 141.15 L 666.85 128.54 L 670.50 114.32 L 674.15 110.87 L 677.80 105.55 L 681.45 105.89 L 685.10 102.21 L 688.75 102.79 L 692.40 102.96 L 696.05 103.28 L 699.70 105.47 L 703.35 102.78 L 707.00 98.69 L 710.65 100.88 L 714.30 106.93 L 717.95 119.37 L 721.60 120.58 L 725.25 122.93 L 728.90 114.09 L 732.55 118.55 L 736.20 111.13 L 739.85 114.33 L 743.50 103.22 L 747.15 98.82 L 750.80 97.85 L 754.45 104.16 L 758.10 107.16 L 761.75 100.80 L 765.40 102.02 L 769.05 97.55 L 772.70 91.41 L 776.35 97.90 L 780.00 96.29" class="path-2" />
<path d="M 50.00 197.29 L 53.65 190.46 L 57.30 193.28 L 60.95 185.55 L 64.60 187.80 L 68.25 198.60 L 71.90 203.49 L 75.55 206.30 L 79.20 206.74 L 82.85 201.07 L 86.50 201.54 L 90.15 192.16 L 93.80 193.01 L 97.45 195.64 L 101.10 197.76 L 104.75 202.44 L 108.40 202.19 L 112.05 200.71 L 115.70 193.42 L 119.35 187.11 L 123.00 181.52 L 126.65 178.90 L 130.30 181.41 L 133.95 177.31 L 137.60 175.50 L 141.25 176.09 L 144.90 182.97 L 148.55 186.85 L 152.20 190.55 L 155.85 195.56 L 159.50 190.38 L 163.15 191.03 L 166.80 187.08 L 170.45 186.74 L 174.10 184.60 L 177.75 177.10 L 181.40 179.89 L 185.05 180.88 L 188.70 180.84 L 192.35 182.27 L 196.00 179.79 L 199.65 182.97 L 203.30 188.08 L 206.95 192.69 L 210.60 195.40 L 214.25 197.73 L 217.90 198.55 L 221.55 194.69 L 225.20 196.59 L 228.85 195.25 L 232.50 192.20 L 236.15 198.33 L 239.80 193.25 L 243.45 196.79 L 247.10 200.91 L 250.75 204.78 L 254.40 202.76 L 258.05 207.91 L 261.70 220.34 L 265.35 222.58 L 269.00 224.11 L 272.65 232.50 L 276.30 229.11 L 279.95 221.07 L 283.60 221.87 L 287.25 221.08 L 290.90 222.90 L 294.55 221.91 L 298.20 220.73 L 301.85 221.17 L 305.50 234.62 L 309.15 228.81 L 312.80 224.17 L 316.45 223.11 L 320.10 219.25 L 323.75 219.40 L 327.40 222.03 L 331.05 223.18 L 334.70 210.08 L 338.35 208.18 L 342.00 216.38 L 345.65 217.71 L 349.30 203.51 L 352.95 210.78 L 356.60 216.63 L 360.25 219.50 L 363.90 215.82 L 367.55 213.15 L 371.20 200.75 L 374.85 204.26 L 378.50 201.68 L 382.15 202.72 L 385.80 204.02 L 389.45 204.79 L 393.10 201.14 L 396.75 202.21 L 400.40 197.28 L 404.05 198.23 L 407.70 200.19 L 411.35 199.85 L 415.00 206.22 L 418.65 207.35 L 422.30 216.44 L 425.95 213.03 L 429.60 212.52 L 433.25 213.65 L 436.90 212.44 L 440.55 217.02 L 444.20 211.19 L 447.85 208.80 L 451.50 215.30 L 455.15 214.31 L 458.80 214.74 L 462.45 219.37 L 466.10 219.16 L 469.75 213.68 L 473.40 217.86 L 477.05 213.32 L 480.70 217.45 L 484.35 219.18 L 488.00 216.60 L 491.65 207.89 L 495.30 214.23 L 498.95 213.19 L 502.60 209.10 L 506.25 196.58 L 509.90 195.48 L 513.55 188.36 L 517.20 185.35 L 520.85 188.08 L 524.50 190.82 L 528.15 189.94 L 531.80 180.56 L 535.45 187.03 L 539.10 184.38 L 542.75 189.00 L 546.40 200.08 L 550.05 196.66 L 553.70 206.32 L 557.35 204.99 L 561.00 206.70 L 564.65 221.05 L 568.30 217.54 L 571.95 216.02 L 575.60 225.52 L 579.25 221.36 L 582.90 221.91 L 586.55 217.01 L 590.20 215.59 L 593.85 212.97 L 597.50 208.68 L 601.15 206.51 L 604.80 206.49 L 608.45 196.44 L 612.10 195.50 L 615.75 198.14 L 619.40 190.07 L 623.05 189.36 L 626.70 196.82 L 630.35 195.98 L 634.00 202.38 L 637.65 199.59 L 641.30 193.39 L 644.95 188.02 L 648.60 189.36 L 652.25 190.21 L 655.90 185.62 L 659.55 185.51 L 663.20 186.00 L 666.85 188.01 L 670.50 187.50 L 674.15 198.21 L 677.80 199.28 L 681.45 208.31 L 685.10 207.05 L 688.75 209.67 L 692.40 204.33 L 696.05 205.84 L 699.70 201.65 L 703.35 202.24 L 707.00 211.48 L 710.65 209.07 L 714.30 206.99 L 717.95 205.06 L 721.60 206.58 L 725.25 210.89 L 728.90 210.51 L 732.55 204.94 L 736.20 199.90 L 739.85 201.14 L 743.50 196.14 L 747.15 189.47 L 750.80 188.64 L 754.45 181.62 L 758.10 180.01 L 761.75 181.43 L 765.40 176.63 L 769.05 180.88 L 772.70 180.89 L 776.35 180.91 L 780.00 180.59" class="path-3" />
<path d="M 50.00 197.29 L 53.65 206.32 L 57.30 205.06 L 60.95 203.58 L 64.60 197.53 L 68.25 201.65 L 71.90 197.86 L 75.55 203.07 L 79.20 199.81 L 82.85 201.25 L 86.50 201.47 L 90.15 205.68 L 93.80 203.07 L 97.45 190.69 L 101.10 182.02 L 104.75 183.05 L 108.40 180.15 L 112.05 176.52 L 115.70 174.17 L 119.35 177.73 L 123.00 178.49 L 126.65 171.22 L 130.30 174.61 L 133.95 174.81 L 137.60 169.92 L 141.25 175.59 L 144.90 174.64 L 148.55 164.93 L 152.20 159.85 L 155.85 161.83 L 159.50 157.23 L 163.15 151.02 L 166.80 159.51 L 170.45 155.84 L 174.10 155.15 L 177.75 163.70 L 181.40 161.63 L 185.05 156.06 L 188.70 163.85 L 192.35 161.82 L 196.00 166.79 L 199.65 162.50 L 203.30 152.19 L 206.95 157.80 L 210.60 158.44 L 214.25 147.66 L 217.90 147.24 L 221.55 149.56 L 225.20 152.22 L 228.85 157.15 L 232.50 158.53 L 236.15 162.29 L 239.80 168.92 L 243.45 167.67 L 247.10 174.51 L 250.75 172.84 L 254.40 174.93 L 258.05 180.88 L 261.70 175.52 L 265.35 188.44 L 269.00 189.91 L 272.65 197.44 L 276.30 192.07 L 279.95 193.82 L 283.60 197.62 L 287.25 195.63 L 290.90 197.02 L 294.55 204.54 L 298.20 207.64 L 301.85 217.91 L 305.50 217.57 L 309.15 220.27 L 312.80 222.13 L 316.45 219.21 L 320.10 220.71 L 323.75 221.54 L 327.40 227.22 L 331.05 218.27 L 334.70 216.22 L 338.35 217.68 L 342.00 219.32 L 345.65 221.37 L 349.30 213.01 L 352.95 219.47 L 356.60 215.62 L 360.25 216.64 L 363.90 220.80 L 367.55 222.15 L 371.20 208.49 L 374.85 208.91 L 378.50 203.83 L 382.15 204.27 L 385.80 209.53 L 389.45 204.31 L 393.10 187.45 L 396.75 190.83 L 400.40 200.78 L 404.05 201.79 L 407.70 208.48 L 411.35 218.39 L 415.00 217.17 L 418.65 211.54 L 422.30 210.56 L 425.95 207.83 L 429.60 205.95 L 433.25 196.02 L 436.90 195.29 L 440.55 197.41 L 444.20 198.04 L 447.85 207.68 L 451.50 203.91 L 455.15 205.98 L 458.80 211.54 L 462.45 216.56 L 466.10 213.80 L 469.75 211.79 L 473.40 218.23 L 477.05 217.63 L 480.70 218.83 L 484.35 218.75 L 488.00 218.05 L 491.65 211.91 L 495.30 219.08 L 498.95 216.63 L 502.60 219.52 L 506.25 216.41 L 509.90 213.90 L 513.55 211.74 L 517.20 219.96 L 520.85 225.99 L 524.50 218.48 L 528.15 207.09 L 531.80 211.01 L 535.45 207.01 L 539.10 207.15 L 542.75 207.96 L 546.40 201.80 L 550.05 202.74 L 553.70 205.66 L 557.35 202.79 L 561.00 195.88 L 564.65 192.37 L 568.30 183.46 L 571.95 180.29 L 575.60 176.62 L 579.25 180.20 L 582.90 182.94 L 586.55 179.74 L 590.20 172.02 L 593.85 179.94 L 597.50 173.56 L 601.15 170.44 L 604.80 159.95 L 608.45 154.34 L 612.10 154.42 L 615.75 163.33 L 619.40 170.84 L 623.05 171.47 L 626.70 174.36 L 630.35 177.49 L 634.00 179.20 L 637.65 186.95 L 641.30 189.70 L 644.95 197.57 L 648.60 206.13 L 652.25 206.83 L 655.90 214.34 L 659.55 209.03 L 663.20 206.72 L 666.85 203.55 L 670.50 198.19 L 674.15 200.04 L 677.80 206.04 L 681.45 203.93 L 685.10 204.00 L 688.75 214.12 L 692.40 216.88 L 696.05 213.65 L 699.70 219.25 L 703.35 217.59 L 707.00 218.73 L 710.65 215.70 L 714.30 217.65 L 717.95 215.87 L 721.60 217.54 L 725.25 214.16 L 728.90 205.52 L 732.55 201.42 L 736.20 198.90 L 739.85 205.84 L 743.50 202.85 L 747.15 203.03 L 750.80 200.28 L 754.45 213.39 L 758.10 207.54 L 761.75 203.31 L 765.40 203.14 L 769.05 206.95 L 772.70 200.56 L 776.35 191.47 L 780.00 186.97" class="path-4" />
<line x1="50" y1="197.3" x2="780" y2="197.3" stroke="#4b5563" stroke-width="0.8" stroke-dasharray="6 3" />
</svg>