<svg xmlns="http://www.w3.org/2000/svg" viewBox="0 0 800 300" width="800" height="300">
<style>
.axis-line { stroke: #6b7280; stroke-width: 0.5; }
.axis-text { font-family: monospace; font-size: 11px; fill: #9ca3af; }
.title-text { font-family: monospace; font-size: 14px; fill: #d1d5db; font-weight: bold; }
.grid-line { stroke: #374151; stroke-width: 0.3; stroke-dasharray: 4 2; }
.path-0 { fill: none; stroke: #3b82f6; stroke-width: 2; stroke-linecap: round; opacity: 0.85; animation: draw-0 8s ease-in-out 0.0s infinite; stroke-dasharray: 935; stroke-dashoffset: 935;}
@keyframes draw-0 { 0% { stroke-dashoffset: 935; } 38% { stroke-dashoffset: 0; } 62% { stroke-dashoffset: 0; } 100% { stroke-dashoffset: 935; }}
.path-1 { fill: none; stroke: #ef4444; stroke-width: 2; stroke-linecap: round; opacity: 0.85; animation: draw-1 8s ease-in-out 0.4s infinite; stroke-dasharray: 923; stroke-dashoffset: 923;}
@keyframes draw-1 { 0% { stroke-dashoffset: 923; } 38% { stroke-dashoffset: 0; } 62% { stroke-dashoffset: 0; } 100% { stroke-dashoffset: 923; }}
.path-2 { fill: none; stroke: #22c55e; stroke-width: 2; stroke-linecap: round; opacity: 0.85; animation: draw-2 8s ease-in-out 0.8s infinite; stroke-dasharray: 960; stroke-dashoffset: 960;}
@keyframes draw-2 { 0% { stroke-dashoffset: 960; } 38% { stroke-dashoffset: 0; } 62% { stroke-dashoffset: 0; } 100% { stroke-dashoffset: 960; }}
.path-3 { fill: none; stroke: #f59e0b; stroke-width: 2; stroke-linecap: round; opacity: 0.85; animation: draw-3 8s ease-in-out 1.2000000000000002s infinite; stroke-dasharray: 964; stroke-dashoffset: 964;}
@keyframes draw-3 { 0% { stroke-dashoffset: 964; } 38% { stroke-dashoffset: 0; } 62% { stroke-dashoffset: 0; } 100% { stroke-dashoffset: 964; }}
.path-4 { fill: none; stroke: #a855f7; stroke-width: 2; stroke-linecap: round; opacity: 0.85; animation: draw-4 8s ease-in-out 1.6s infinite; stroke-dasharray: 932; stroke-dashoffset: 932;}
@keyframes draw-4 { 0% { stroke-dashoffset: 932; } 38% { stroke-dashoffset: 0; } 62% { stroke-dashoffset: 0; } 100% { stroke-dashoffset: 932; }}
</style>
<rect width="800" height="300" rx="8" fill="#0d1117" />
<line x1="50" y1="260.0" x2="780" y2="260.0" class="grid-line" />
<text x="44" y="264.0" text-anchor="end" class="axis-text">-2.4</text>
<line x1="50" y1="216.0" x2="780" y2="216.0" class="grid-line" />
<text x="44" y="220.0" text-anchor="end" class="axis-text">-1.4</text>
<line x1="50" y1="172.0" x2="780" y2="172.0" class="grid-line" />
<text x="44" y="176.0" text-anchor="end" class="axis-text">-0.4</text>
<line x1="50" y1="128.0" x2="780" y2="128.0" class="grid-line" />
<text x="44" y="132.0" text-anchor="end" class="axis-text">0.5</text>
<line x1="50" y1="84.0" x2="780" y2="84.0" class="grid-line" />
<text x="44" y="88.0" text-anchor="end" class="axis-text">1.5</text>
<line x1="50" y1="40.0" x2="780" y2="40.0" class="grid-line" />
<text x="44" y="44.0" text-anchor="end" class="axis-text">2.5</text>
<line x1="50.0" y1="40" x2="50.0" y2="260" class="grid-line" />
<line x1="196.0" y1="40" x2="196.0" y2="260" class="grid-line" />
<line x1="342.0" y1="40" x2="342.0" y2="260" class="grid-line" />
<line x1="488.0" y1="40" x2="488.0" y2="260" class="grid-line" />
<line x1="634.0" y1="40" x2="634.0" y2="260" class="grid-line" />
<line x1="780.0" y1="40" x2="780.0" y2="260" class="grid-line" />
<line x1="50" y1="260" x2="780" y2="260" class="axis-line" />
<line x1="50" y1="40" x2="50" y2="260" class="axis-line" />
<text x="400.0" y="295" text-anchor="middle" class="axis-text">t</text>
<text x="12" y="150.0" text-anchor="middle" class="axis-text" transform="rotate(-90 12 150.0)">W(t)</text>
<text x="400.0" y="22" text-anchor="middle" class="title-text">Brownian Motion</text>
<path d="M 50.00 152.72 L 53.65 153.37 L 57.30 147.32 L 60.95 151.62 L 64.60 154.64 L 68.25 148.74 L 71.90 149.24 L 75.55 150.58 L 79.20 157.80 L 82.85 158.82 L 86.50 159.60 L 90.15 159.07 L 93.80 158.46 L 97.45 158.36 L 101.10 161.83 L 104.75 164.27 L 108.40 159.71 L 112.05 159.50 L 115.70 162.67 L 119.35 167.45 L 123.00 167.26 L 126.65 164.23 L 130.30 161.85 L 133.95 161.30 L 137.60 161.91 L 141.25 165.48 L 144.90 166.74 L 148.55 168.50 L 152.20 168.49 L 155.85 163.50 L 159.50 162.00 L 163.15 159.72 L 166.80 162.40 L 170.45 160.13 L 174.10 166.53 L 177.75 168.32 L 181.40 167.48 L 185.05 171.10 L 188.70 170.39 L 192.35 168.28 L 196.00 167.14 L 199.65 158.17 L 203.30 157.78 L 206.95 158.35 L 210.60 157.02 L 214.25 153.23 L 217.90 154.06 L 221.55 147.79 L 225.20 149.00 L 228.85 150.74 L 232.50 144.06 L 236.15 145.07 L 239.80 137.30 L 243.45 142.50 L 247.10 144.17 L 250.75 138.35 L 254.40 133.99 L 258.05 136.68 L 261.70 138.84 L 265.35 135.05 L 269.00 136.16 L 272.65 133.04 L 276.30 131.57 L 279.95 130.94 L 283.60 132.34 L 287.25 132.70 L 290.90 132.16 L 294.55 131.84 L 298.20 137.76 L 301.85 137.08 L 305.50 136.86 L 309.15 139.44 L 312.80 141.04 L 316.45 136.63 L 320.10 136.05 L 323.75 133.69 L 327.40 129.41 L 331.05 127.79 L 334.70 127.94 L 338.35 125.79 L 342.00 125.92 L 345.65 127.39 L 349.30 120.80 L 352.95 117.29 L 356.60 121.85 L 360.25 127.33 L 363.90 127.50 L 367.55 122.31 L 371.20 123.69 L 374.85 124.88 L 378.50 122.35 L 382.15 121.81 L 385.80 117.83 L 389.45 118.14 L 393.10 115.37 L 396.75 113.94 L 400.40 113.81 L 404.05 113.56 L 407.70 116.63 L 411.35 116.63 L 415.00 117.72 L 418.65 115.72 L 422.30 115.93 L 425.95 111.32 L 429.60 110.83 L 433.25 114.69 L 436.90 119.39 L 440.55 115.20 L 444.20 115.81 L 447.85 119.88 L 451.50 115.54 L 455.15 118.09 L 458.80 118.87 L 462.45 113.17 L 466.10 114.99 L 469.75 115.53 L 473.40 111.32 L 477.05 106.58 L 480.70 103.14 L 484.35 102.40 L 488.00 104.93 L 491.65 111.95 L 495.30 112.72 L 498.95 114.69 L 502.60 117.06 L 506.25 110.72 L 509.90 114.36 L 513.55 114.34 L 517.20 114.55 L 520.85 114.53 L 524.50 116.78 L 528.15 110.74 L 531.80 114.75 L 535.45 115.34 L 539.10 114.83 L 542.75 115.05 L 546.40 117.21 L 550.05 113.95 L 553.70 112.65 L 557.35 115.77 L 561.00 116.48 L 564.65 117.69 L 568.30 118.01 L 571.95 120.93 L 575.60 121.95 L 579.25 124.82 L 582.90 127.65 L 586.55 125.55 L 590.20 123.83 L 593.85 121.29 L 597.50 121.75 L 601.15 121.16 L 604.80 120.39 L 608.45 122.38 L 612.10 119.10 L 615.75 118.90 L 619.40 116.98 L 623.05 112.56 L 626.70 111.82 L 630.35 109.78 L 634.00 107.38 L 637.65 105.54 L 641.30 105.30 L 644.95 101.91 L 648.60 103.15 L 652.25 104.37 L 655.90 102.08 L 659.55 99.78 L 663.20 94.73 L 666.85 94.59 L 670.50 94.67 L 674.15 94.61 L 677.80 94.25 L 681.45 92.33 L 685.10 95.89 L 688.75 95.43 L 692.40 92.97 L 696.05 92.24 L 699.70 89.39 L 703.35 88.88 L 707.00 90.97 L 710.65 91.43 L 714.30 95.61 L 717.95 94.60 L 721.60 87.27 L 725.25 90.87 L 728.90 96.06 L 732.55 97.40 L 736.20 91.65 L 739.85 89.48 L 743.50 83.90 L 747.15 91.34 L 750.80 90.87 L 754.45 92.20 L 758.10 90.30 L 761.75 88.14 L 765.40 88.53 L 769.05 94.60 L 772.70 96.31 L 776.35 97.22 L 780.00 94.93" class="path-0" />
<path d="M 50.00 152.72 L 53.65 145.89 L 57.30 150.00 L 60.95 149.26 L 64.60 142.91 L 68.25 143.88 L 71.90 143.91 L 75.55 151.72 L 79.20 153.47 L 82.85 154.66 L 86.50 154.42 L 90.15 155.50 L 93.80 157.06 L 97.45 161.79 L 101.10 158.54 L 104.75 153.37 L 108.40 153.39 L 112.05 153.31 L 115.70 155.76 L 119.35 153.72 L 123.00 153.22 L 126.65 154.82 L 130.30 154.42 L 133.95 153.68 L 137.60 154.23 L 141.25 150.19 L 144.90 151.53 L 148.55 148.35 L 152.20 146.74 L 155.85 147.80 L 159.50 151.82 L 163.15 151.78 L 166.80 155.84 L 170.45 152.30 L 174.10 154.45 L 177.75 147.36 L 181.40 148.24 L 185.05 150.82 L 188.70 151.37 L 192.35 156.33 L 196.00 158.69 L 199.65 162.91 L 203.30 166.15 L 206.95 167.11 L 210.60 170.70 L 214.25 170.07 L 217.90 173.42 L 221.55 172.19 L 225.20 167.47 L 228.85 162.78 L 232.50 159.96 L 236.15 155.90 L 239.80 150.34 L 243.45 151.39 L 247.10 146.67 L 250.75 145.68 L 254.40 143.17 L 258.05 142.96 L 261.70 143.35 L 265.35 144.53 L 269.00 145.81 L 272.65 145.87 L 276.30 144.31 L 279.95 144.34 L 283.60 143.44 L 287.25 144.94 L 290.90 144.25 L 294.55 142.66 L 298.20 139.89 L 301.85 143.06 L 305.50 141.64 L 309.15 146.03 L 312.80 145.95 L 316.45 142.29 L 320.10 148.30 L 323.75 153.19 L 327.40 155.14 L 331.05 159.61 L 334.70 159.36 L 338.35 159.59 L 342.00 158.48 L 345.65 158.51 L 349.30 160.66 L 352.95 161.16 L 356.60 163.06 L 360.25 162.45 L 363.90 161.85 L 367.55 161.61 L 371.20 165.56 L 374.85 161.79 L 378.50 165.68 L 382.15 161.49 L 385.80 162.92 L 389.45 168.74 L 393.10 171.37 L 396.75 174.14 L 400.40 177.02 L 404.05 173.38 L 407.70 171.29 L 411.35 174.89 L 415.00 177.51 L 418.65 172.90 L 422.30 172.25 L 425.95 168.21 L 429.60 166.46 L 433.25 162.70 L 436.90 164.04 L 440.55 161.68 L 444.20 164.06 L 447.85 161.90 L 451.50 167.66 L 455.15 170.92 L 458.80 168.46 L 462.45 170.22 L 466.10 176.01 L 469.75 172.99 L 473.40 172.84 L 477.05 169.19 L 480.70 167.29 L 484.35 168.06 L 488.00 165.37 L 491.65 164.30 L 495.30 171.82 L 498.95 175.79 L 502.60 175.48 L 506.25 172.56 L 509.90 172.71 L 513.55 172.06 L 517.20 173.78 L 520.85 173.08 L 524.50 173.43 L 528.15 170.67 L 531.80 171.68 L 535.45 173.62 L 539.10 169.48 L 542.75 167.38 L 546.40 161.85 L 550.05 168.57 L 553.70 170.22 L 557.35 175.93 L 561.00 177.69 L 564.65 181.68 L 568.30 180.41 L 571.95 181.58 L 575.60 181.51 L 579.25 181.38 L 582.90 181.57 L 586.55 183.06 L 590.20 185.71 L 593.85 185.15 L 597.50 188.68 L 601.15 193.57 L 604.80 191.48 L 608.45 189.17 L 612.10 189.84 L 615.75 189.84 L 619.40 189.76 L 623.05 190.64 L 626.70 191.09 L 630.35 194.26 L 634.00 196.34 L 637.65 195.20 L 641.30 198.10 L 644.95 197.10 L 648.60 200.43 L 652.25 200.36 L 655.90 199.57 L 659.55 201.64 L 663.20 204.23 L 666.85 207.93 L 670.50 206.94 L 674.15 204.44 L 677.80 205.31 L 681.45 204.56 L 685.10 202.28 L 688.75 202.33 L 692.40 199.41 L 696.05 201.24 L 699.70 200.21 L 703.35 199.65 L 707.00 199.72 L 710.65 207.57 L 714.30 208.15 L 717.95 213.22 L 721.60 212.48 L 725.25 215.33 L 728.90 214.03 L 732.55 213.31 L 736.20 215.67 L 739.85 215.34 L 743.50 218.06 L 747.15 218.59 L 750.80 221.06 L 754.45 219.69 L 758.10 221.11 L 761.75 218.32 L 765.40 221.69 L 769.05 219.20 L 772.70 226.49 L 776.35 232.83 L 780.00 234.62" class="path-1" />
<path d="M 50.00 152.72 L 53.65 147.83 L 57.30 147.75 L 60.95 146.82 L 64.60 143.87 L 68.25 145.74 L 71.90 146.07 L 75.55 152.51 L 79.20 153.17 L 82.85 150.66 L 86.50 152.18 L 90.15 152.27 L 93.80 151.40 L 97.45 157.83 L 101.10 162.63 L 104.75 168.07 L 108.40 166.15 L 112.05 168.57 L 115.70 168.56 L 119.35 166.29 L 123.00 162.36 L 126.65 167.40 L 130.30 169.20 L 133.95 171.20 L 137.60 170.88 L 141.25 166.65 L 144.90 168.33 L 148.55 165.49 L 152.20 168.67 L 155.85 168.93 L 159.50 163.90 L 163.15 157.87 L 166.80 155.24 L 170.45 152.40 L 174.10 149.29 L 177.75 149.89 L 181.40 143.84 L 185.05 139.40 L 188.70 136.86 L 192.35 134.73 L 196.00 134.04 L 199.65 132.15 L 203.30 128.44 L 206.95 133.10 L 210.60 129.99 L 214.25 128.12 L 217.90 129.26 L 221.55 127.20 L 225.20 124.83 L 228.85 126.55 L 232.50 126.43 L 236.15 126.79 L 239.80 129.61 L 243.45 122.61 L 247.10 120.49 L 250.75 124.52 L 254.40 121.53 L 258.05 120.20 L 261.70 121.86 L 265.35 123.47 L 269.00 123.84 L 272.65 125.87 L 276.30 126.84 L 279.95 125.28 L 283.60 122.17 L 287.25 120.13 L 290.90 120.51 L 294.55 122.31 L 298.20 118.54 L 301.85 120.07 L 305.50 114.76 L 309.15 110.48 L 312.80 104.17 L 316.45 102.69 L 320.10 103.76 L 323.75 100.17 L 327.40 100.10 L 331.05 100.05 L 334.70 101.49 L 338.35 101.16 L 342.00 96.20 L 345.65 99.61 L 349.30 96.33 L 352.95 92.37 L 356.60 88.36 L 360.25 91.01 L 363.90 92.40 L 367.55 100.49 L 371.20 99.58 L 374.85 96.53 L 378.50 94.52 L 382.15 94.21 L 385.80 92.69 L 389.45 92.68 L 393.10 95.63 L 396.75 94.71 L 400.40 97.68 L 404.05 93.56 L 407.70 92.57 L 411.35 92.07 L 415.00 90.66 L 418.65 92.52 L 422.30 89.91 L 425.95 90.84 L 429.60 88.87 L 433.25 89.33 L 436.90 84.62 L 440.55 88.77 L 444.20 83.41 L 447.85 86.32 L 451.50 92.09 L 455.15 92.84 L 458.80 93.29 L 462.45 89.14 L 466.10 91.49 L 469.75 86.58 L 473.40 81.32 L 477.05 85.08 L 480.70 90.63 L 484.35 89.75 L 488.00 90.47 L 491.65 92.90 L 495.30 91.54 L 498.95 88.06 L 502.60 92.95 L 506.25 91.53 L 509.90 90.34 L 513.55 87.18 L 517.20 81.62 L 520.85 82.19 L 524.50 87.33 L 528.15 83.95 L 531.80 89.87 L 535.45 87.53 L 539.10 83.36 L 542.75 80.83 L 546.40 82.53 L 550.05 83.43 L 553.70 79.76 L 557.35 79.39 L 561.00 79.61 L 564.65 75.76 L 568.30 73.92 L 571.95 78.32 L 575.60 76.94 L 579.25 81.39 L 582.90 86.96 L 586.55 92.47 L 590.20 90.46 L 593.85 87.56 L 597.50 91.71 L 601.15 88.54 L 604.80 88.82 L 608.45 86.02 L 612.10 84.65 L 615.75 78.13 L 619.40 77.83 L 623.05 81.42 L 626.70 74.18 L 630.35 70.11 L 634.00 74.83 L 637.65 74.91 L 641.30 70.20 L 644.95 71.35 L 648.60 65.90 L 652.25 66.08 L 655.90 67.19 L 659.55 65.38 L 663.20 69.04 L 666.85 73.77 L 670.50 73.29 L 674.15 72.14 L 677.80 70.11 L 681.45 65.66 L 685.10 71.35 L 688.75 73.24 L 692.40 76.63 L 696.05 79.03 L 699.70 79.67 L 703.35 82.14 L 707.00 87.10 L 710.65 85.69 L 714.30 86.65 L 717.95 81.05 L 721.60 77.83 L 725.25 79.60 L 728.90 79.80 L 732.55 83.72 L 736.20 85.49 L 739.85 79.83 L 743.50 81.67 L 747.15 84.01 L 750.80 84.18 L 754.45 88.12 L 758.10 85.98 L 761.75 82.60 L 765.40 81.75 L 769.05 82.11 L 772.70 84.33 L 776.35 87.22 L 780.00 82.63" class="path-2" />
<path d="M 50.00 152.72 L 53.65 152.64 L 57.30 154.52 L 60.95 150.14 L 64.60 148.09 L 68.25 143.95 L 71.90 147.38 L 75.55 141.92 L 79.20 138.58 L 82.85 136.79 L 86.50 130.70 L 90.15 130.04 L 93.80 125.93 L 97.45 122.99 L 101.10 118.18 L 104.75 112.17 L 108.40 111.81 L 112.05 113.74 L 115.70 115.80 L 119.35 114.28 L 123.00 120.40 L 126.65 122.84 L 130.30 127.20 L 133.95 131.24 L 137.60 130.35 L 141.25 128.82 L 144.90 126.61 L 148.55 127.61 L 152.20 127.46 L 155.85 126.73 L 159.50 127.27 L 163.15 130.80 L 166.80 132.79 L 170.45 139.19 L 174.10 140.83 L 177.75 141.30 L 181.40 136.63 L 185.05 140.49 L 188.70 139.58 L 192.35 137.55 L 196.00 136.96 L 199.65 138.26 L 203.30 137.38 L 206.95 140.76 L 210.60 142.74 L 214.25 138.25 L 217.90 138.27 L 221.55 140.32 L 225.20 145.02 L 228.85 142.27 L 232.50 148.03 L 236.15 145.97 L 239.80 145.76 L 243.45 148.12 L 247.10 148.79 L 250.75 155.15 L 254.40 154.09 L 258.05 159.71 L 261.70 154.93 L 265.35 160.05 L 269.00 165.50 L 272.65 167.58 L 276.30 166.74 L 279.95 169.34 L 283.60 169.94 L 287.25 168.48 L 290.90 168.31 L 294.55 165.29 L 298.20 162.91 L 301.85 166.09 L 305.50 170.51 L 309.15 167.81 L 312.80 162.96 L 316.45 160.32 L 320.10 156.54 L 323.75 165.46 L 327.40 162.38 L 331.05 158.64 L 334.70 154.37 L 338.35 153.88 L 342.00 156.18 L 345.65 160.76 L 349.30 154.89 L 352.95 161.61 L 356.60 160.21 L 360.25 159.65 L 363.90 158.74 L 367.55 158.51 L 371.20 155.14 L 374.85 154.97 L 378.50 151.85 L 382.15 155.23 L 385.80 155.02 L 389.45 152.18 L 393.10 152.03 L 396.75 150.48 L 400.40 148.44 L 404.05 149.19 L 407.70 156.07 L 411.35 156.44 L 415.00 152.64 L 418.65 151.11 L 422.30 146.35 L 425.95 141.83 L 429.60 143.84 L 433.25 142.49 L 436.90 144.65 L 440.55 142.66 L 444.20 147.04 L 447.85 153.52 L 451.50 156.21 L 455.15 156.33 L 458.80 157.39 L 462.45 153.61 L 466.10 152.77 L 469.75 146.68 L 473.40 145.18 L 477.05 148.75 L 480.70 148.06 L 484.35 146.64 L 488.00 147.06 L 491.65 149.14 L 495.30 148.42 L 498.95 150.19 L 502.60 147.02 L 506.25 151.49 L 509.90 146.29 L 513.55 147.35 L 517.20 155.17 L 520.85 156.04 L 524.50 157.55 L 528.15 158.82 L 531.80 154.88 L 535.45 153.96 L 539.10 156.06 L 542.75 158.12 L 546.40 162.27 L 550.05 156.02 L 553.70 158.14 L 557.35 161.55 L 561.00 161.96 L 564.65 162.27 L 568.30 160.47 L 571.95 164.76 L 575.60 166.33 L 579.25 173.86 L 582.90 177.97 L 586.55 179.80 L 590.20 180.62 L 593.85 177.79 L 597.50 179.63 L 601.15 182.23 L 604.80 180.84 L 608.45 185.30 L 612.10 183.50 L 615.75 183.87 L 619.40 183.72 L 623.05 180.30 L 626.70 178.60 L 630.35 174.93 L 634.00 174.88 L 637.65 174.83 L 641.30 175.57 L 644.95 176.10 L 648.60 177.73 L 652.25 174.67 L 655.90 178.86 L 659.55 183.09 L 663.20 183.21 L 666.85 188.65 L 670.50 195.13 L 674.15 197.75 L 677.80 197.57 L 681.45 195.63 L 685.10 200.07 L 688.75 196.55 L 692.40 199.20 L 696.05 203.12 L 699.70 199.90 L 703.35 202.11 L 707.00 205.38 L 710.65 206.45 L 714.30 201.53 L 717.95 202.64 L 721.60 208.73 L 725.25 206.20 L 728.90 202.79 L 732.55 201.58 L 736.20 199.37 L 739.85 196.46 L 743.50 198.46 L 747.15 199.61 L 750.80 203.67 L 754.45 197.71 L 758.10 200.88 L 761.75 200.45 L 765.40 200.40 L 769.05 194.97 L 772.70 193.22 L 776.35 197.27 L 780.00 199.77" class="path-3" />
<path d="M 50.00 152.72 L 53.65 146.19 L 57.30 144.10 L 60.95 147.72 L 64.60 151.15 L 68.25 150.78 L 71.90 147.53 L 75.55 150.37 L 79.20 153.48 L 82.85 150.90 L 86.50 151.82 L 90.15 149.10 L 93.80 145.72 L 97.45 143.82 L 101.10 145.43 L 104.75 145.84 L 108.40 153.77 L 112.05 158.61 L 115.70 154.31 L 119.35 155.09 L 123.00 156.78 L 126.65 154.74 L 130.30 155.53 L 133.95 158.62 L 137.60 156.08 L 141.25 152.25 L 144.90 155.09 L 148.55 156.38 L 152.20 151.78 L 155.85 151.27 L 159.50 147.48 L 163.15 144.84 L 166.80 144.25 L 170.45 140.51 L 174.10 138.57 L 177.75 137.19 L 181.40 134.96 L 185.05 135.83 L 188.70 140.45 L 192.35 145.41 L 196.00 145.22 L 199.65 147.25 L 203.30 147.23 L 206.95 148.73 L 210.60 147.82 L 214.25 147.59 L 217.90 151.38 L 221.55 149.79 L 225.20 147.73 L 228.85 147.63 L 232.50 145.78 L 236.15 140.38 L 239.80 144.12 L 243.45 143.00 L 247.10 144.51 L 250.75 139.50 L 254.40 142.25 L 258.05 144.70 L 261.70 146.99 L 265.35 145.38 L 269.00 147.08 L 272.65 150.68 L 276.30 148.62 L 279.95 146.69 L 283.60 149.77 L 287.25 151.51 L 290.90 153.75 L 294.55 151.53 L 298.20 149.02 L 301.85 149.42 L 305.50 148.11 L 309.15 147.64 L 312.80 142.03 L 316.45 141.27 L 320.10 137.63 L 323.75 135.16 L 327.40 137.31 L 331.05 133.47 L 334.70 130.80 L 338.35 135.65 L 342.00 135.40 L 345.65 135.00 L 349.30 132.57 L 352.95 131.78 L 356.60 131.93 L 360.25 133.08 L 363.90 134.86 L 367.55 132.24 L 371.20 135.99 L 374.85 135.45 L 378.50 138.47 L 382.15 137.00 L 385.80 137.65 L 389.45 140.21 L 393.10 140.24 L 396.75 145.36 L 400.40 144.85 L 404.05 142.65 L 407.70 147.60 L 411.35 152.52 L 415.00 153.10 L 418.65 144.30 L 422.30 145.59 L 425.95 148.74 L 429.60 149.33 L 433.25 149.45 L 436.90 146.76 L 440.55 144.46 L 444.20 142.03 L 447.85 140.32 L 451.50 138.45 L 455.15 141.34 L 458.80 141.68 L 462.45 142.26 L 466.10 143.61 L 469.75 139.60 L 473.40 139.15 L 477.05 136.63 L 480.70 135.77 L 484.35 132.53 L 488.00 133.42 L 491.65 131.66 L 495.30 132.16 L 498.95 134.19 L 502.60 132.89 L 506.25 135.47 L 509.90 138.14 L 513.55 137.15 L 517.20 136.49 L 520.85 139.64 L 524.50 144.41 L 528.15 143.73 L 531.80 139.95 L 535.45 140.34 L 539.10 143.57 L 542.75 139.66 L 546.40 144.90 L 550.05 148.02 L 553.70 149.87 L 557.35 154.78 L 561.00 157.35 L 564.65 152.71 L 568.30 144.00 L 571.95 139.46 L 575.60 143.47 L 579.25 144.34 L 582.90 143.44 L 586.55 141.53 L 590.20 139.07 L 593.85 140.15 L 597.50 137.36 L 601.15 135.14 L 604.80 131.78 L 608.45 134.88 L 612.10 133.24 L 615.75 138.05 L 619.40 131.55 L 623.05 131.05 L 626.70 129.20 L 630.35 125.03 L 634.00 125.39 L 637.65 126.83 L 641.30 125.78 L 644.95 123.63 L 648.60 120.80 L 652.25 116.90 L 655.90 117.19 L 659.55 113.35 L 663.20 106.67 L 666.85 105.00 L 670.50 109.39 L 674.15 111.70 L 677.80 112.94 L 681.45 112.89 L 685.10 111.37 L 688.75 110.68 L 692.40 111.50 L 696.05 113.85 L 699.70 104.16 L 703.35 103.69 L 707.00 102.63 L 710.65 105.04 L 714.30 101.23 L 717.95 101.83 L 721.60 102.03 L 725.25 100.79 L 728.90 104.75 L 732.55 107.50 L 736.20 112.43 L 739.85 115.12 L 743.50 112.78 L 747.15 111.08 L 750.80 104.59 L 754.45 102.61 L 758.10 107.04 L 761.75 109.91 L 765.40 113.64 L 769.05 111.68 L 772.70 108.51 L 776.35 112.33 L 780.00 113.53" class="path-4" />
<line x1="50" y1="152.7" x2="780" y2="152.7" stroke="#4b5563" stroke-width="0.8" stroke-dasharray="6 3" />
</svg>