<svg xmlns="http://www.w3.org/2000/svg" viewBox="0 0 800 300" width="800" height="300">
<style>
.axis-line { stroke: #6b7280; stroke-width: 0.5; }
.axis-text { font-family: monospace; font-size: 11px; fill: #9ca3af; }
.title-text { font-family: monospace; font-size: 14px; fill: #d1d5db; font-weight: bold; }
.grid-line { stroke: #374151; stroke-width: 0.3; stroke-dasharray: 4 2; }
.path-0 { fill: none; stroke: #3b82f6; stroke-width: 2; stroke-linecap: round; opacity: 0.85; animation: draw-0 8s ease-in-out 0.0s infinite; stroke-dasharray: 1088; stroke-dashoffset: 1088;}
@keyframes draw-0 { 0% { stroke-dashoffset: 1088; } 38% { stroke-dashoffset: 0; } 62% { stroke-dashoffset: 0; } 100% { stroke-dashoffset: 1088; }}
.path-1 { fill: none; stroke: #ef4444; stroke-width: 2; stroke-linecap: round; opacity: 0.85; animation: draw-1 8s ease-in-out 0.4s infinite; stroke-dasharray: 1066; stroke-dashoffset: 1066;}
@keyframes draw-1 { 0% { stroke-dashoffset: 1066; } 38% { stroke-dashoffset: 0; } 62% { stroke-dashoffset: 0; } 100% { stroke-dashoffset: 1066; }}
.path-2 { fill: none; stroke: #22c55e; stroke-width: 2; stroke-linecap: round; opacity: 0.85; animation: draw-2 8s ease-in-out 0.8s infinite; stroke-dasharray: 1081; stroke-dashoffset: 1081;}
@keyframes draw-2 { 0% { stroke-dashoffset: 1081; } 38% { stroke-dashoffset: 0; } 62% { stroke-dashoffset: 0; } 100% { stroke-dashoffset: 1081; }}
.path-3 { fill: none; stroke: #f59e0b; stroke-width: 2; stroke-linecap: round; opacity: 0.85; animation: draw-3 8s ease-in-out 1.2000000000000002s infinite; stroke-dasharray: 1047; stroke-dashoffset: 1047;}
@keyframes draw-3 { 0% { stroke-dashoffset: 1047; } 38% { stroke-dashoffset: 0; } 62% { stroke-dashoffset: 0; } 100% { stroke-dashoffset: 1047; }}
.path-4 { fill: none; stroke: #a855f7; stroke-width: 2; stroke-linecap: round; opacity: 0.85; animation: draw-4 8s ease-in-out 1.6s infinite; stroke-dasharray: 1077; stroke-dashoffset: 1077;}
@keyframes draw-4 { 0% { stroke-dashoffset: 1077; } 38% { stroke-dashoffset: 0; } 62% { stroke-dashoffset: 0; } 100% { stroke-dashoffset: 1077; }}
</style>
<rect width="800" height="300" rx="8" fill="#0d1117" />
<line x1="50" y1="260.0" x2="780" y2="260.0" class="grid-line" />
<text x="44" y="264.0" text-anchor="end" class="axis-text">-2.5</text>
<line x1="50" y1="216.0" x2="780" y2="216.0" class="grid-line" />
<text x="44" y="220.0" text-anchor="end" class="axis-text">-1.8</text>
<line x1="50" y1="172.0" x2="780" y2="172.0" class="grid-line" />
<text x="44" y="176.0" text-anchor="end" class="axis-text">-1.1</text>
<line x1="50" y1="128.0" x2="780" y2="128.0" class="grid-line" />
<text x="44" y="132.0" text-anchor="end" class="axis-text">-0.4</text>
<line x1="50" y1="84.0" x2="780" y2="84.0" class="grid-line" />
<text x="44" y="88.0" text-anchor="end" class="axis-text">0.3</text>
<line x1="50" y1="40.0" x2="780" y2="40.0" class="grid-line" />
<text x="44" y="44.0" text-anchor="end" class="axis-text">1.0</text>
<line x1="50.0" y1="40" x2="50.0" y2="260" class="grid-line" />
<line x1="196.0" y1="40" x2="196.0" y2="260" class="grid-line" />
<line x1="342.0" y1="40" x2="342.0" y2="260" class="grid-line" />
<line x1="488.0" y1="40" x2="488.0" y2="260" class="grid-line" />
<line x1="634.0" y1="40" x2="634.0" y2="260" class="grid-line" />
<line x1="780.0" y1="40" x2="780.0" y2="260" class="grid-line" />
<line x1="50" y1="260" x2="780" y2="260" class="axis-line" />
<line x1="50" y1="40" x2="50" y2="260" class="axis-line" />
<text x="400.0" y="295" text-anchor="middle" class="axis-text">t</text>
<text x="12" y="150.0" text-anchor="middle" class="axis-text" transform="rotate(-90 12 150.0)">W(t)</text>
<text x="400.0" y="22" text-anchor="middle" class="title-text">Brownian Motion</text>
<path d="M 50.00 103.33 L 53.65 100.73 L 57.30 97.54 L 60.95 99.43 L 64.60 92.54 L 68.25 89.95 L 71.90 96.15 L 75.55 98.84 L 79.20 104.00 L 82.85 102.36 L 86.50 104.36 L 90.15 99.77 L 93.80 100.54 L 97.45 99.87 L 101.10 96.67 L 104.75 100.72 L 108.40 102.80 L 112.05 107.65 L 115.70 109.82 L 119.35 112.24 L 123.00 113.67 L 126.65 108.72 L 130.30 110.72 L 133.95 121.06 L 137.60 113.69 L 141.25 114.40 L 144.90 120.44 L 148.55 119.29 L 152.20 112.51 L 155.85 113.66 L 159.50 103.40 L 163.15 104.33 L 166.80 106.03 L 170.45 109.21 L 174.10 106.98 L 177.75 108.67 L 181.40 113.76 L 185.05 109.80 L 188.70 109.76 L 192.35 106.32 L 196.00 110.21 L 199.65 118.01 L 203.30 127.37 L 206.95 126.86 L 210.60 133.69 L 214.25 131.08 L 217.90 131.08 L 221.55 131.16 L 225.20 131.51 L 228.85 134.58 L 232.50 134.83 L 236.15 129.93 L 239.80 124.04 L 243.45 125.69 L 247.10 122.56 L 250.75 125.29 L 254.40 127.16 L 258.05 129.57 L 261.70 131.54 L 265.35 137.02 L 269.00 135.18 L 272.65 141.93 L 276.30 138.12 L 279.95 136.66 L 283.60 141.76 L 287.25 143.90 L 290.90 136.39 L 294.55 141.53 L 298.20 140.68 L 301.85 128.41 L 305.50 128.98 L 309.15 132.77 L 312.80 133.10 L 316.45 125.51 L 320.10 125.31 L 323.75 126.30 L 327.40 124.68 L 331.05 123.50 L 334.70 122.82 L 338.35 125.83 L 342.00 122.48 L 345.65 121.15 L 349.30 117.95 L 352.95 110.52 L 356.60 106.03 L 360.25 107.04 L 363.90 107.18 L 367.55 102.01 L 371.20 99.67 L 374.85 103.06 L 378.50 106.94 L 382.15 114.39 L 385.80 119.32 L 389.45 122.20 L 393.10 118.66 L 396.75 116.81 L 400.40 121.39 L 404.05 125.82 L 407.70 125.73 L 411.35 126.50 L 415.00 131.20 L 418.65 129.79 L 422.30 135.58 L 425.95 135.95 L 429.60 134.59 L 433.25 134.52 L 436.90 132.13 L 440.55 127.37 L 444.20 120.20 L 447.85 121.95 L 451.50 121.25 L 455.15 121.23 L 458.80 123.04 L 462.45 120.84 L 466.10 122.33 L 469.75 122.64 L 473.40 123.75 L 477.05 133.00 L 480.70 131.61 L 484.35 132.26 L 488.00 137.17 L 491.65 140.67 L 495.30 145.16 L 498.95 146.27 L 502.60 149.30 L 506.25 152.88 L 509.90 147.49 L 513.55 147.14 L 517.20 145.14 L 520.85 143.92 L 524.50 145.29 L 528.15 138.97 L 531.80 137.01 L 535.45 137.09 L 539.10 136.48 L 542.75 148.24 L 546.40 144.41 L 550.05 152.71 L 553.70 162.74 L 557.35 153.54 L 561.00 154.17 L 564.65 143.32 L 568.30 146.94 L 571.95 148.44 L 575.60 141.64 L 579.25 146.98 L 582.90 154.68 L 586.55 149.55 L 590.20 150.11 L 593.85 149.05 L 597.50 149.76 L 601.15 155.70 L 604.80 163.06 L 608.45 161.46 L 612.10 165.80 L 615.75 168.01 L 619.40 174.43 L 623.05 176.92 L 626.70 172.80 L 630.35 170.54 L 634.00 171.32 L 637.65 171.96 L 641.30 175.96 L 644.95 175.39 L 648.60 177.27 L 652.25 181.45 L 655.90 183.70 L 659.55 177.24 L 663.20 175.21 L 666.85 169.51 L 670.50 174.35 L 674.15 174.03 L 677.80 167.06 L 681.45 154.04 L 685.10 147.14 L 688.75 152.57 L 692.40 147.14 L 696.05 149.67 L 699.70 151.50 L 703.35 152.53 L 707.00 158.65 L 710.65 158.95 L 714.30 161.18 L 717.95 165.02 L 721.60 162.39 L 725.25 160.75 L 728.90 155.34 L 732.55 152.33 L 736.20 153.39 L 739.85 156.22 L 743.50 162.27 L 747.15 170.21 L 750.80 165.36 L 754.45 176.55 L 758.10 174.02 L 761.75 173.24 L 765.40 168.75 L 769.05 171.35 L 772.70 175.71 L 776.35 175.98 L 780.00 177.55" class="path-0" />
<path d="M 50.00 103.33 L 53.65 102.62 L 57.30 93.49 L 60.95 88.31 L 64.60 93.21 L 68.25 93.99 L 71.90 101.92 L 75.55 101.97 L 79.20 103.52 L 82.85 102.87 L 86.50 100.86 L 90.15 102.29 L 93.80 114.06 L 97.45 119.09 L 101.10 125.75 L 104.75 126.86 L 108.40 127.36 L 112.05 127.03 L 115.70 128.27 L 119.35 129.08 L 123.00 127.89 L 126.65 127.67 L 130.30 120.79 L 133.95 122.45 L 137.60 129.89 L 141.25 131.23 L 144.90 136.11 L 148.55 137.00 L 152.20 129.26 L 155.85 132.51 L 159.50 133.99 L 163.15 135.93 L 166.80 135.87 L 170.45 135.93 L 174.10 130.51 L 177.75 135.04 L 181.40 139.49 L 185.05 138.88 L 188.70 134.79 L 192.35 149.27 L 196.00 141.60 L 199.65 145.69 L 203.30 147.35 L 206.95 147.79 L 210.60 150.75 L 214.25 153.22 L 217.90 152.10 L 221.55 154.02 L 225.20 156.10 L 228.85 156.50 L 232.50 146.70 L 236.15 145.20 L 239.80 143.87 L 243.45 146.23 L 247.10 145.37 L 250.75 148.77 L 254.40 149.70 L 258.05 140.60 L 261.70 143.80 L 265.35 140.43 L 269.00 139.19 L 272.65 142.65 L 276.30 150.37 L 279.95 151.21 L 283.60 158.23 L 287.25 154.74 L 290.90 147.60 L 294.55 146.05 L 298.20 147.11 L 301.85 145.81 L 305.50 143.21 L 309.15 143.09 L 312.80 145.57 L 316.45 155.89 L 320.10 156.34 L 323.75 162.07 L 327.40 161.43 L 331.05 161.94 L 334.70 157.37 L 338.35 157.72 L 342.00 149.87 L 345.65 143.65 L 349.30 141.97 L 352.95 140.97 L 356.60 138.14 L 360.25 139.28 L 363.90 134.84 L 367.55 138.29 L 371.20 141.66 L 374.85 145.97 L 378.50 140.27 L 382.15 140.76 L 385.80 131.88 L 389.45 143.63 L 393.10 140.65 L 396.75 139.18 L 400.40 139.30 L 404.05 139.31 L 407.70 142.00 L 411.35 145.88 L 415.00 150.64 L 418.65 145.95 L 422.30 147.85 L 425.95 147.21 L 429.60 148.35 L 433.25 150.88 L 436.90 158.60 L 440.55 163.06 L 444.20 158.28 L 447.85 161.18 L 451.50 160.81 L 455.15 160.81 L 458.80 163.41 L 462.45 168.13 L 466.10 170.82 L 469.75 170.20 L 473.40 168.94 L 477.05 167.16 L 480.70 169.33 L 484.35 165.82 L 488.00 171.13 L 491.65 168.46 L 495.30 173.92 L 498.95 180.33 L 502.60 181.47 L 506.25 177.71 L 509.90 184.37 L 513.55 182.47 L 517.20 182.02 L 520.85 183.68 L 524.50 182.12 L 528.15 186.10 L 531.80 181.73 L 535.45 174.23 L 539.10 169.54 L 542.75 170.38 L 546.40 167.21 L 550.05 171.13 L 553.70 171.96 L 557.35 174.82 L 561.00 169.51 L 564.65 172.21 L 568.30 175.12 L 571.95 176.50 L 575.60 180.67 L 579.25 180.93 L 582.90 180.39 L 586.55 177.28 L 590.20 175.83 L 593.85 177.33 L 597.50 175.65 L 601.15 174.70 L 604.80 168.16 L 608.45 161.69 L 612.10 161.08 L 615.75 168.89 L 619.40 167.37 L 623.05 169.09 L 626.70 170.00 L 630.35 161.69 L 634.00 163.56 L 637.65 171.85 L 641.30 175.39 L 644.95 172.05 L 648.60 172.02 L 652.25 177.69 L 655.90 170.24 L 659.55 171.15 L 663.20 173.95 L 666.85 177.64 L 670.50 179.29 L 674.15 171.53 L 677.80 172.20 L 681.45 172.37 L 685.10 167.73 L 688.75 171.34 L 692.40 171.35 L 696.05 165.74 L 699.70 162.33 L 703.35 162.98 L 707.00 166.72 L 710.65 162.06 L 714.30 154.54 L 717.95 162.74 L 721.60 160.12 L 725.25 166.42 L 728.90 166.25 L 732.55 166.08 L 736.20 166.29 L 739.85 161.71 L 743.50 164.27 L 747.15 163.92 L 750.80 165.86 L 754.45 167.83 L 758.10 172.90 L 761.75 177.17 L 765.40 169.82 L 769.05 171.84 L 772.70 172.56 L 776.35 168.35 L 780.00 176.27" class="path-1" />
<path d="M 50.00 103.33 L 53.65 109.45 L 57.30 108.91 L 60.95 105.78 L 64.60 104.69 L 68.25 101.25 L 71.90 98.03 L 75.55 97.27 L 79.20 96.72 L 82.85 92.84 L 86.50 88.57 L 90.15 83.43 L 93.80 88.03 L 97.45 86.34 L 101.10 81.56 L 104.75 77.60 L 108.40 78.55 L 112.05 81.41 L 115.70 89.89 L 119.35 85.67 L 123.00 90.39 L 126.65 91.78 L 130.30 93.11 L 133.95 94.90 L 137.60 90.38 L 141.25 94.50 L 144.90 102.30 L 148.55 103.30 L 152.20 106.00 L 155.85 106.49 L 159.50 112.19 L 163.15 114.15 L 166.80 119.21 L 170.45 117.03 L 174.10 115.01 L 177.75 115.42 L 181.40 113.83 L 185.05 113.70 L 188.70 115.99 L 192.35 117.26 L 196.00 118.50 L 199.65 114.54 L 203.30 113.22 L 206.95 118.10 L 210.60 113.84 L 214.25 106.93 L 217.90 101.03 L 221.55 99.93 L 225.20 92.69 L 228.85 88.46 L 232.50 92.50 L 236.15 94.44 L 239.80 91.96 L 243.45 88.40 L 247.10 90.81 L 250.75 89.88 L 254.40 91.57 L 258.05 87.92 L 261.70 90.58 L 265.35 84.37 L 269.00 88.57 L 272.65 85.55 L 276.30 88.17 L 279.95 89.10 L 283.60 95.03 L 287.25 89.40 L 290.90 90.52 L 294.55 92.45 L 298.20 91.55 L 301.85 86.03 L 305.50 89.71 L 309.15 81.33 L 312.80 85.56 L 316.45 87.28 L 320.10 88.98 L 323.75 88.86 L 327.40 91.31 L 331.05 93.53 L 334.70 89.46 L 338.35 89.49 L 342.00 90.05 L 345.65 89.86 L 349.30 89.75 L 352.95 93.81 L 356.60 95.55 L 360.25 94.07 L 363.90 89.33 L 367.55 90.51 L 371.20 96.45 L 374.85 100.70 L 378.50 106.05 L 382.15 107.72 L 385.80 110.53 L 389.45 102.04 L 393.10 96.82 L 396.75 97.30 L 400.40 94.91 L 404.05 102.40 L 407.70 101.38 L 411.35 103.54 L 415.00 106.41 L 418.65 101.37 L 422.30 89.55 L 425.95 86.80 L 429.60 84.98 L 433.25 90.17 L 436.90 87.87 L 440.55 83.10 L 444.20 84.33 L 447.85 89.12 L 451.50 90.63 L 455.15 86.02 L 458.80 83.86 L 462.45 77.93 L 466.10 79.98 L 469.75 82.13 L 473.40 77.96 L 477.05 68.11 L 480.70 65.38 L 484.35 69.79 L 488.00 74.50 L 491.65 75.56 L 495.30 75.00 L 498.95 78.66 L 502.60 69.78 L 506.25 67.85 L 509.90 66.26 L 513.55 71.04 L 517.20 79.29 L 520.85 87.78 L 524.50 92.11 L 528.15 95.50 L 531.80 100.40 L 535.45 105.09 L 539.10 103.65 L 542.75 108.19 L 546.40 104.34 L 550.05 107.12 L 553.70 109.67 L 557.35 112.08 L 561.00 111.33 L 564.65 110.83 L 568.30 124.61 L 571.95 125.42 L 575.60 120.78 L 579.25 126.07 L 582.90 119.59 L 586.55 118.92 L 590.20 119.62 L 593.85 121.73 L 597.50 117.18 L 601.15 122.76 L 604.80 120.47 L 608.45 119.38 L 612.10 120.32 L 615.75 127.11 L 619.40 122.83 L 623.05 123.26 L 626.70 116.47 L 630.35 103.34 L 634.00 105.54 L 637.65 111.19 L 641.30 107.38 L 644.95 102.91 L 648.60 102.77 L 652.25 102.63 L 655.90 108.05 L 659.55 113.83 L 663.20 112.04 L 666.85 113.79 L 670.50 108.06 L 674.15 106.18 L 677.80 99.16 L 681.45 98.93 L 685.10 97.76 L 688.75 102.70 L 692.40 109.97 L 696.05 112.86 L 699.70 109.72 L 703.35 104.12 L 707.00 104.62 L 710.65 96.87 L 714.30 98.67 L 717.95 99.51 L 721.60 99.65 L 725.25 97.47 L 728.90 100.19 L 732.55 107.88 L 736.20 110.33 L 739.85 104.02 L 743.50 103.05 L 747.15 111.11 L 750.80 112.21 L 754.45 99.94 L 758.10 94.88 L 761.75 89.03 L 765.40 90.11 L 769.05 84.98 L 772.70 81.44 L 776.35 81.22 L 780.00 79.25" class="path-2" />
<path d="M 50.00 103.33 L 53.65 100.47 L 57.30 98.79 L 60.95 98.56 L 64.60 93.65 L 68.25 95.90 L 71.90 93.44 L 75.55 89.00 L 79.20 85.67 L 82.85 84.97 L 86.50 90.08 L 90.15 88.37 L 93.80 93.16 L 97.45 93.97 L 101.10 96.92 L 104.75 91.64 L 108.40 95.29 L 112.05 96.68 L 115.70 99.54 L 119.35 99.51 L 123.00 101.46 L 126.65 99.27 L 130.30 98.72 L 133.95 97.76 L 137.60 100.28 L 141.25 101.16 L 144.90 103.17 L 148.55 103.76 L 152.20 109.12 L 155.85 108.27 L 159.50 110.53 L 163.15 109.38 L 166.80 100.96 L 170.45 101.50 L 174.10 106.31 L 177.75 111.03 L 181.40 110.55 L 185.05 116.27 L 188.70 115.93 L 192.35 120.63 L 196.00 123.81 L 199.65 117.83 L 203.30 107.72 L 206.95 117.93 L 210.60 118.26 L 214.25 116.75 L 217.90 118.00 L 221.55 123.24 L 225.20 122.32 L 228.85 126.19 L 232.50 133.34 L 236.15 137.84 L 239.80 136.99 L 243.45 139.95 L 247.10 134.30 L 250.75 137.74 L 254.40 129.41 L 258.05 127.85 L 261.70 131.21 L 265.35 128.11 L 269.00 132.32 L 272.65 127.39 L 276.30 130.97 L 279.95 133.20 L 283.60 131.24 L 287.25 130.52 L 290.90 123.55 L 294.55 123.25 L 298.20 114.14 L 301.85 117.63 L 305.50 119.69 L 309.15 117.59 L 312.80 124.63 L 316.45 131.45 L 320.10 127.03 L 323.75 125.64 L 327.40 117.73 L 331.05 126.55 L 334.70 125.37 L 338.35 124.57 L 342.00 126.23 L 345.65 124.96 L 349.30 122.06 L 352.95 119.00 L 356.60 116.58 L 360.25 111.56 L 363.90 114.42 L 367.55 116.89 L 371.20 115.93 L 374.85 119.25 L 378.50 116.79 L 382.15 118.32 L 385.80 117.60 L 389.45 122.64 L 393.10 123.52 L 396.75 125.26 L 400.40 125.80 L 404.05 128.39 L 407.70 127.76 L 411.35 130.93 L 415.00 131.61 L 418.65 140.13 L 422.30 143.10 L 425.95 150.41 L 429.60 148.49 L 433.25 151.87 L 436.90 146.80 L 440.55 148.99 L 444.20 149.42 L 447.85 153.34 L 451.50 149.95 L 455.15 150.19 L 458.80 148.88 L 462.45 150.39 L 466.10 154.61 L 469.75 146.96 L 473.40 152.83 L 477.05 151.97 L 480.70 150.43 L 484.35 154.26 L 488.00 163.91 L 491.65 164.21 L 495.30 161.57 L 498.95 168.93 L 502.60 169.54 L 506.25 176.18 L 509.90 180.63 L 513.55 181.85 L 517.20 180.75 L 520.85 187.37 L 524.50 183.54 L 528.15 175.51 L 531.80 174.94 L 535.45 175.02 L 539.10 170.61 L 542.75 170.56 L 546.40 172.00 L 550.05 169.48 L 553.70 171.50 L 557.35 172.34 L 561.00 181.36 L 564.65 183.09 L 568.30 182.88 L 571.95 180.49 L 575.60 177.71 L 579.25 178.01 L 582.90 180.39 L 586.55 185.83 L 590.20 192.31 L 593.85 197.57 L 597.50 197.89 L 601.15 192.88 L 604.80 189.58 L 608.45 190.34 L 612.10 188.54 L 615.75 183.52 L 619.40 184.53 L 623.05 185.65 L 626.70 180.91 L 630.35 182.34 L 634.00 181.57 L 637.65 186.55 L 641.30 190.07 L 644.95 196.43 L 648.60 194.88 L 652.25 194.08 L 655.90 189.18 L 659.55 192.54 L 663.20 200.66 L 666.85 201.54 L 670.50 206.53 L 674.15 209.11 L 677.80 211.37 L 681.45 206.59 L 685.10 217.33 L 688.75 221.64 L 692.40 219.96 L 696.05 217.99 L 699.70 214.82 L 703.35 210.36 L 707.00 219.18 L 710.65 220.08 L 714.30 220.92 L 717.95 213.85 L 721.60 215.72 L 725.25 218.11 L 728.90 216.80 L 732.55 221.09 L 736.20 217.93 L 739.85 218.41 L 743.50 221.72 L 747.15 225.97 L 750.80 227.14 L 754.45 228.26 L 758.10 234.62 L 761.75 232.93 L 765.40 225.16 L 769.05 229.95 L 772.70 230.53 L 776.35 231.43 L 780.00 226.64" class="path-3" />
<path d="M 50.00 103.33 L 53.65 89.99 L 57.30 98.90 L 60.95 93.64 L 64.60 101.82 L 68.25 107.69 L 71.90 107.92 L 75.55 114.95 L 79.20 116.90 L 82.85 119.77 L 86.50 121.27 L 90.15 118.83 L 93.80 123.28 L 97.45 122.77 L 101.10 130.10 L 104.75 133.58 L 108.40 127.04 L 112.05 131.60 L 115.70 133.08 L 119.35 127.15 L 123.00 125.16 L 126.65 120.27 L 130.30 126.79 L 133.95 133.50 L 137.60 129.37 L 141.25 131.05 L 144.90 126.12 L 148.55 129.26 L 152.20 126.10 L 155.85 130.75 L 159.50 136.36 L 163.15 130.39 L 166.80 130.92 L 170.45 127.03 L 174.10 134.23 L 177.75 136.55 L 181.40 131.88 L 185.05 134.25 L 188.70 130.80 L 192.35 128.32 L 196.00 129.04 L 199.65 131.98 L 203.30 136.33 L 206.95 135.53 L 210.60 135.52 L 214.25 133.58 L 217.90 131.74 L 221.55 123.69 L 225.20 124.06 L 228.85 119.69 L 232.50 119.45 L 236.15 125.32 L 239.80 125.33 L 243.45 127.30 L 247.10 122.25 L 250.75 123.06 L 254.40 125.09 L 258.05 125.13 L 261.70 120.93 L 265.35 123.94 L 269.00 125.73 L 272.65 127.23 L 276.30 129.44 L 279.95 135.59 L 283.60 131.64 L 287.25 129.77 L 290.90 127.91 L 294.55 132.18 L 298.20 128.98 L 301.85 124.85 L 305.50 123.24 L 309.15 124.84 L 312.80 126.40 L 316.45 126.17 L 320.10 125.53 L 323.75 134.78 L 327.40 135.93 L 331.05 144.19 L 334.70 142.16 L 338.35 145.11 L 342.00 146.85 L 345.65 152.08 L 349.30 150.12 L 352.95 150.97 L 356.60 154.03 L 360.25 157.46 L 363.90 156.79 L 367.55 158.26 L 371.20 155.16 L 374.85 161.73 L 378.50 164.77 L 382.15 163.61 L 385.80 163.46 L 389.45 162.83 L 393.10 159.31 L 396.75 161.32 L 400.40 170.45 L 404.05 174.19 L 407.70 179.90 L 411.35 177.11 L 415.00 178.71 L 418.65 176.03 L 422.30 176.25 L 425.95 176.86 L 429.60 174.36 L 433.25 181.04 L 436.90 179.12 L 440.55 189.04 L 444.20 190.15 L 447.85 185.56 L 451.50 180.94 L 455.15 179.05 L 458.80 177.34 L 462.45 173.37 L 466.10 174.09 L 469.75 175.69 L 473.40 175.61 L 477.05 164.00 L 480.70 163.91 L 484.35 170.83 L 488.00 163.09 L 491.65 162.29 L 495.30 157.68 L 498.95 153.49 L 502.60 157.19 L 506.25 153.66 L 509.90 156.73 L 513.55 155.32 L 517.20 153.16 L 520.85 154.01 L 524.50 149.48 L 528.15 149.74 L 531.80 149.20 L 535.45 148.66 L 539.10 147.92 L 542.75 150.61 L 546.40 155.00 L 550.05 157.51 L 553.70 155.03 L 557.35 155.15 L 561.00 160.60 L 564.65 160.10 L 568.30 151.22 L 571.95 149.05 L 575.60 149.93 L 579.25 152.93 L 582.90 149.44 L 586.55 151.21 L 590.20 149.98 L 593.85 154.90 L 597.50 167.53 L 601.15 162.14 L 604.80 166.90 L 608.45 163.51 L 612.10 165.15 L 615.75 167.99 L 619.40 158.68 L 623.05 167.91 L 626.70 165.51 L 630.35 167.94 L 634.00 166.40 L 637.65 166.60 L 641.30 165.90 L 644.95 170.56 L 648.60 168.24 L 652.25 173.17 L 655.90 173.49 L 659.55 178.97 L 663.20 175.07 L 666.85 171.89 L 670.50 167.57 L 674.15 166.06 L 677.80 166.57 L 681.45 166.83 L 685.10 163.77 L 688.75 160.55 L 692.40 160.27 L 696.05 167.90 L 699.70 164.28 L 703.35 171.86 L 707.00 167.82 L 710.65 172.74 L 714.30 166.71 L 717.95 166.16 L 721.60 165.29 L 725.25 172.14 L 728.90 177.31 L 732.55 179.50 L 736.20 170.39 L 739.85 171.86 L 743.50 178.00 L 747.15 180.26 L 750.80 180.45 L 754.45 186.99 L 758.10 192.91 L 761.75 199.15 L 765.40 205.31 L 769.05 205.23 L 772.70 206.96 L 776.35 207.32 L 780.00 201.98" class="path-4" />
<line x1="50" y1="103.3" x2="780" y2="103.3" stroke="#4b5563" stroke-width="0.8" stroke-dasharray="6 3" />
</svg>