<svg xmlns="http://www.w3.org/2000/svg" viewBox="0 0 800 300" width="800" height="300">
<style>
.axis-line { stroke: #6b7280; stroke-width: 0.5; }
.axis-text { font-family: monospace; font-size: 11px; fill: #9ca3af; }
.title-text { font-family: monospace; font-size: 14px; fill: #d1d5db; font-weight: bold; }
.grid-line { stroke: #374151; stroke-width: 0.3; stroke-dasharray: 4 2; }
.path-0 { fill: none; stroke: #3b82f6; stroke-width: 2; stroke-linecap: round; opacity: 0.85; animation: draw-0 8s ease-in-out 0.0s infinite; stroke-dasharray: 1009; stroke-dashoffset: 1009;}
@keyframes draw-0 { 0% { stroke-dashoffset: 1009; } 38% { stroke-dashoffset: 0; } 62% { stroke-dashoffset: 0; } 100% { stroke-dashoffset: 1009; }}
.path-1 { fill: none; stroke: #ef4444; stroke-width: 2; stroke-linecap: round; opacity: 0.85; animation: draw-1 8s ease-in-out 0.4s infinite; stroke-dasharray: 1061; stroke-dashoffset: 1061;}
@keyframes draw-1 { 0% { stroke-dashoffset: 1061; } 38% { stroke-dashoffset: 0; } 62% { stroke-dashoffset: 0; } 100% { stroke-dashoffset: 1061; }}
.path-2 { fill: none; stroke: #22c55e; stroke-width: 2; stroke-linecap: round; opacity: 0.85; animation: draw-2 8s ease-in-out 0.8s infinite; stroke-dasharray: 1092; stroke-dashoffset: 1092;}
@keyframes draw-2 { 0% { stroke-dashoffset: 1092; } 38% { stroke-dashoffset: 0; } 62% { stroke-dashoffset: 0; } 100% { stroke-dashoffset: 1092; }}
.path-3 { fill: none; stroke: #f59e0b; stroke-width: 2; stroke-linecap: round; opacity: 0.85; animation: draw-3 8s ease-in-out 1.2000000000000002s infinite; stroke-dasharray: 1074; stroke-dashoffset: 1074;}
@keyframes draw-3 { 0% { stroke-dashoffset: 1074; } 38% { stroke-dashoffset: 0; } 62% { stroke-dashoffset: 0; } 100% { stroke-dashoffset: 1074; }}
.path-4 { fill: none; stroke: #a855f7; stroke-width: 2; stroke-linecap: round; opacity: 0.85; animation: draw-4 8s ease-in-out 1.6s infinite; stroke-dasharray: 1050; stroke-dashoffset: 1050;}
@keyframes draw-4 { 0% { stroke-dashoffset: 1050; } 38% { stroke-dashoffset: 0; } 62% { stroke-dashoffset: 0; } 100% { stroke-dashoffset: 1050; }}
</style>
<rect width="800" height="300" rx="8" fill="#0d1117" />
<line x1="50" y1="260.0" x2="780" y2="260.0" class="grid-line" />
<text x="44" y="264.0" text-anchor="end" class="axis-text">-2.0</text>
<line x1="50" y1="216.0" x2="780" y2="216.0" class="grid-line" />
<text x="44" y="220.0" text-anchor="end" class="axis-text">-1.2</text>
<line x1="50" y1="172.0" x2="780" y2="172.0" class="grid-line" />
<text x="44" y="176.0" text-anchor="end" class="axis-text">-0.5</text>
<line x1="50" y1="128.0" x2="780" y2="128.0" class="grid-line" />
<text x="44" y="132.0" text-anchor="end" class="axis-text">0.2</text>
<line x1="50" y1="84.0" x2="780" y2="84.0" class="grid-line" />
<text x="44" y="88.0" text-anchor="end" class="axis-text">0.9</text>
<line x1="50" y1="40.0" x2="780" y2="40.0" class="grid-line" />
<text x="44" y="44.0" text-anchor="end" class="axis-text">1.7</text>
<line x1="50.0" y1="40" x2="50.0" y2="260" class="grid-line" />
<line x1="196.0" y1="40" x2="196.0" y2="260" class="grid-line" />
<line x1="342.0" y1="40" x2="342.0" y2="260" class="grid-line" />
<line x1="488.0" y1="40" x2="488.0" y2="260" class="grid-line" />
<line x1="634.0" y1="40" x2="634.0" y2="260" class="grid-line" />
<line x1="780.0" y1="40" x2="780.0" y2="260" class="grid-line" />
<line x1="50" y1="260" x2="780" y2="260" class="axis-line" />
<line x1="50" y1="40" x2="50" y2="260" class="axis-line" />
<text x="400.0" y="295" text-anchor="middle" class="axis-text">t</text>
<text x="12" y="150.0" text-anchor="middle" class="axis-text" transform="rotate(-90 12 150.0)">W(t)</text>
<text x="400.0" y="22" text-anchor="middle" class="title-text">Brownian Motion</text>
<path d="M 50.00 141.19 L 53.65 142.25 L 57.30 141.52 L 60.95 142.15 L 64.60 142.42 L 68.25 142.58 L 71.90 144.23 L 75.55 138.51 L 79.20 138.75 L 82.85 140.56 L 86.50 137.27 L 90.15 133.89 L 93.80 135.45 L 97.45 134.18 L 101.10 138.57 L 104.75 142.55 L 108.40 141.11 L 112.05 142.45 L 115.70 146.55 L 119.35 148.97 L 123.00 153.24 L 126.65 142.56 L 130.30 146.20 L 133.95 149.73 L 137.60 154.86 L 141.25 150.52 L 144.90 150.81 L 148.55 155.21 L 152.20 155.28 L 155.85 157.64 L 159.50 157.46 L 163.15 154.39 L 166.80 153.89 L 170.45 152.46 L 174.10 154.81 L 177.75 153.74 L 181.40 150.22 L 185.05 150.39 L 188.70 152.70 L 192.35 150.22 L 196.00 150.77 L 199.65 146.26 L 203.30 143.16 L 206.95 144.72 L 210.60 148.42 L 214.25 148.45 L 217.90 151.87 L 221.55 151.36 L 225.20 154.96 L 228.85 157.17 L 232.50 154.65 L 236.15 156.09 L 239.80 154.10 L 243.45 155.23 L 247.10 147.97 L 250.75 145.46 L 254.40 144.65 L 258.05 141.17 L 261.70 141.02 L 265.35 135.21 L 269.00 135.73 L 272.65 131.71 L 276.30 131.62 L 279.95 134.24 L 283.60 137.69 L 287.25 135.95 L 290.90 139.66 L 294.55 135.83 L 298.20 130.32 L 301.85 128.15 L 305.50 132.00 L 309.15 132.33 L 312.80 129.57 L 316.45 128.53 L 320.10 128.85 L 323.75 132.73 L 327.40 145.44 L 331.05 147.13 L 334.70 146.81 L 338.35 152.15 L 342.00 148.31 L 345.65 146.47 L 349.30 148.51 L 352.95 153.10 L 356.60 152.96 L 360.25 150.05 L 363.90 147.24 L 367.55 143.24 L 371.20 146.78 L 374.85 139.66 L 378.50 136.48 L 382.15 131.57 L 385.80 131.12 L 389.45 133.84 L 393.10 129.39 L 396.75 129.44 L 400.40 130.76 L 404.05 124.09 L 407.70 128.79 L 411.35 131.84 L 415.00 125.88 L 418.65 125.91 L 422.30 122.50 L 425.95 125.41 L 429.60 123.45 L 433.25 127.39 L 436.90 127.11 L 440.55 128.13 L 444.20 126.75 L 447.85 127.41 L 451.50 133.23 L 455.15 136.44 L 458.80 134.91 L 462.45 135.25 L 466.10 130.37 L 469.75 128.25 L 473.40 135.27 L 477.05 138.48 L 480.70 140.53 L 484.35 143.32 L 488.00 144.35 L 491.65 146.41 L 495.30 141.77 L 498.95 145.28 L 502.60 144.21 L 506.25 145.82 L 509.90 145.72 L 513.55 145.07 L 517.20 146.14 L 520.85 144.08 L 524.50 146.40 L 528.15 146.51 L 531.80 145.93 L 535.45 143.85 L 539.10 141.41 L 542.75 141.53 L 546.40 142.83 L 550.05 142.78 L 553.70 143.99 L 557.35 144.08 L 561.00 142.46 L 564.65 144.23 L 568.30 141.38 L 571.95 143.62 L 575.60 137.46 L 579.25 140.28 L 582.90 144.43 L 586.55 143.55 L 590.20 138.09 L 593.85 128.66 L 597.50 124.29 L 601.15 127.37 L 604.80 134.26 L 608.45 135.17 L 612.10 142.06 L 615.75 136.03 L 619.40 134.27 L 623.05 130.12 L 626.70 133.87 L 630.35 133.03 L 634.00 128.94 L 637.65 129.45 L 641.30 127.93 L 644.95 129.61 L 648.60 122.81 L 652.25 122.36 L 655.90 119.72 L 659.55 129.91 L 663.20 130.60 L 666.85 135.46 L 670.50 129.50 L 674.15 125.40 L 677.80 123.15 L 681.45 122.67 L 685.10 120.46 L 688.75 124.57 L 692.40 129.91 L 696.05 123.59 L 699.70 130.76 L 703.35 135.30 L 707.00 133.15 L 710.65 135.22 L 714.30 130.11 L 717.95 128.40 L 721.60 129.92 L 725.25 125.50 L 728.90 128.61 L 732.55 132.11 L 736.20 137.55 L 739.85 131.84 L 743.50 132.70 L 747.15 129.77 L 750.80 126.96 L 754.45 129.46 L 758.10 135.39 L 761.75 131.11 L 765.40 122.17 L 769.05 113.45 L 772.70 107.38 L 776.35 101.02 L 780.00 107.09" class="path-0" />
<path d="M 50.00 141.19 L 53.65 143.47 L 57.30 145.70 L 60.95 149.10 L 64.60 149.92 L 68.25 154.94 L 71.90 153.15 L 75.55 154.72 L 79.20 151.31 L 82.85 147.84 L 86.50 146.92 L 90.15 145.67 L 93.80 143.07 L 97.45 137.19 L 101.10 138.81 L 104.75 139.66 L 108.40 136.65 L 112.05 135.68 L 115.70 134.27 L 119.35 134.24 L 123.00 137.35 L 126.65 142.78 L 130.30 142.90 L 133.95 150.41 L 137.60 149.08 L 141.25 146.51 L 144.90 144.21 L 148.55 143.78 L 152.20 139.76 L 155.85 141.54 L 159.50 145.67 L 163.15 148.47 L 166.80 145.46 L 170.45 143.25 L 174.10 141.53 L 177.75 140.66 L 181.40 139.04 L 185.05 133.85 L 188.70 136.60 L 192.35 133.09 L 196.00 130.97 L 199.65 132.77 L 203.30 132.12 L 206.95 128.07 L 210.60 134.71 L 214.25 139.59 L 217.90 136.08 L 221.55 136.00 L 225.20 135.83 L 228.85 136.93 L 232.50 133.10 L 236.15 132.18 L 239.80 131.02 L 243.45 130.33 L 247.10 137.55 L 250.75 133.75 L 254.40 128.40 L 258.05 122.54 L 261.70 115.42 L 265.35 115.58 L 269.00 122.37 L 272.65 119.79 L 276.30 123.12 L 279.95 127.30 L 283.60 126.88 L 287.25 125.63 L 290.90 121.55 L 294.55 122.95 L 298.20 110.33 L 301.85 114.13 L 305.50 110.06 L 309.15 113.93 L 312.80 114.73 L 316.45 116.10 L 320.10 112.15 L 323.75 112.61 L 327.40 103.27 L 331.05 99.71 L 334.70 100.52 L 338.35 99.72 L 342.00 102.94 L 345.65 102.24 L 349.30 98.72 L 352.95 102.45 L 356.60 101.19 L 360.25 104.39 L 363.90 100.03 L 367.55 106.62 L 371.20 113.78 L 374.85 116.60 L 378.50 115.82 L 382.15 111.86 L 385.80 118.40 L 389.45 114.74 L 393.10 125.56 L 396.75 123.85 L 400.40 121.00 L 404.05 127.41 L 407.70 118.47 L 411.35 115.06 L 415.00 116.56 L 418.65 118.29 L 422.30 121.34 L 425.95 117.82 L 429.60 114.69 L 433.25 126.07 L 436.90 121.42 L 440.55 119.39 L 444.20 114.21 L 447.85 115.31 L 451.50 106.05 L 455.15 91.31 L 458.80 91.78 L 462.45 88.15 L 466.10 90.76 L 469.75 86.92 L 473.40 90.09 L 477.05 87.18 L 480.70 84.98 L 484.35 79.89 L 488.00 80.05 L 491.65 76.54 L 495.30 78.03 L 498.95 72.51 L 502.60 76.55 L 506.25 73.95 L 509.90 67.56 L 513.55 74.08 L 517.20 71.37 L 520.85 65.38 L 524.50 67.32 L 528.15 66.22 L 531.80 70.92 L 535.45 70.90 L 539.10 72.64 L 542.75 68.56 L 546.40 68.08 L 550.05 71.88 L 553.70 76.61 L 557.35 73.78 L 561.00 74.51 L 564.65 75.60 L 568.30 76.55 L 571.95 80.89 L 575.60 82.63 L 579.25 86.16 L 582.90 86.71 L 586.55 89.83 L 590.20 95.15 L 593.85 90.72 L 597.50 84.58 L 601.15 81.53 L 604.80 84.56 L 608.45 86.32 L 612.10 94.12 L 615.75 87.85 L 619.40 85.65 L 623.05 81.42 L 626.70 76.61 L 630.35 81.77 L 634.00 87.03 L 637.65 82.47 L 641.30 77.46 L 644.95 82.90 L 648.60 80.76 L 652.25 74.68 L 655.90 74.18 L 659.55 78.11 L 663.20 85.23 L 666.85 83.54 L 670.50 88.80 L 674.15 90.93 L 677.80 86.65 L 681.45 91.60 L 685.10 96.50 L 688.75 98.25 L 692.40 101.69 L 696.05 102.51 L 699.70 105.54 L 703.35 102.80 L 707.00 109.00 L 710.65 108.23 L 714.30 105.50 L 717.95 98.78 L 721.60 98.87 L 725.25 100.70 L 728.90 105.47 L 732.55 103.25 L 736.20 106.21 L 739.85 109.43 L 743.50 107.20 L 747.15 112.71 L 750.80 109.18 L 754.45 108.54 L 758.10 108.45 L 761.75 103.19 L 765.40 106.91 L 769.05 111.68 L 772.70 106.37 L 776.35 100.85 L 780.00 98.00" class="path-1" />
<path d="M 50.00 141.19 L 53.65 146.45 L 57.30 145.66 L 60.95 145.21 L 64.60 145.29 L 68.25 145.64 L 71.90 156.94 L 75.55 158.24 L 79.20 160.17 L 82.85 162.48 L 86.50 166.74 L 90.15 167.36 L 93.80 163.37 L 97.45 166.10 L 101.10 163.23 L 104.75 165.45 L 108.40 166.75 L 112.05 174.98 L 115.70 179.43 L 119.35 165.64 L 123.00 173.17 L 126.65 173.17 L 130.30 173.19 L 133.95 176.16 L 137.60 176.06 L 141.25 174.72 L 144.90 172.95 L 148.55 175.81 L 152.20 175.50 L 155.85 175.00 L 159.50 173.44 L 163.15 174.78 L 166.80 168.09 L 170.45 165.12 L 174.10 156.94 L 177.75 155.87 L 181.40 158.24 L 185.05 162.44 L 188.70 158.60 L 192.35 162.58 L 196.00 169.21 L 199.65 176.37 L 203.30 175.50 L 206.95 170.12 L 210.60 177.80 L 214.25 179.25 L 217.90 189.34 L 221.55 192.84 L 225.20 191.80 L 228.85 191.14 L 232.50 188.91 L 236.15 181.18 L 239.80 183.00 L 243.45 186.67 L 247.10 192.74 L 250.75 193.63 L 254.40 192.02 L 258.05 190.50 L 261.70 192.67 L 265.35 185.50 L 269.00 187.37 L 272.65 196.79 L 276.30 194.37 L 279.95 192.90 L 283.60 195.43 L 287.25 190.95 L 290.90 189.05 L 294.55 189.20 L 298.20 190.69 L 301.85 191.86 L 305.50 185.96 L 309.15 185.26 L 312.80 187.34 L 316.45 187.97 L 320.10 180.66 L 323.75 182.69 L 327.40 180.76 L 331.05 186.58 L 334.70 183.05 L 338.35 179.03 L 342.00 181.46 L 345.65 177.74 L 349.30 182.13 L 352.95 176.75 L 356.60 183.55 L 360.25 189.03 L 363.90 195.32 L 367.55 189.44 L 371.20 191.20 L 374.85 193.10 L 378.50 191.66 L 382.15 190.78 L 385.80 188.45 L 389.45 192.98 L 393.10 183.91 L 396.75 190.07 L 400.40 192.83 L 404.05 191.32 L 407.70 192.55 L 411.35 188.95 L 415.00 190.37 L 418.65 188.21 L 422.30 187.23 L 425.95 186.58 L 429.60 184.47 L 433.25 179.37 L 436.90 174.65 L 440.55 175.53 L 444.20 182.50 L 447.85 172.64 L 451.50 169.13 L 455.15 162.90 L 458.80 164.73 L 462.45 168.68 L 466.10 168.01 L 469.75 166.92 L 473.40 168.72 L 477.05 168.31 L 480.70 175.71 L 484.35 171.06 L 488.00 164.41 L 491.65 171.43 L 495.30 170.05 L 498.95 173.52 L 502.60 171.54 L 506.25 171.25 L 509.90 177.41 L 513.55 181.54 L 517.20 192.44 L 520.85 192.26 L 524.50 197.13 L 528.15 191.96 L 531.80 198.64 L 535.45 206.03 L 539.10 208.46 L 542.75 215.55 L 546.40 218.49 L 550.05 216.36 L 553.70 221.35 L 557.35 221.75 L 561.00 223.71 L 564.65 224.70 L 568.30 230.35 L 571.95 234.62 L 575.60 231.92 L 579.25 226.77 L 582.90 224.04 L 586.55 231.33 L 590.20 232.71 L 593.85 234.54 L 597.50 233.21 L 601.15 229.34 L 604.80 226.79 L 608.45 222.31 L 612.10 229.37 L 615.75 225.49 L 619.40 220.71 L 623.05 217.06 L 626.70 217.86 L 630.35 211.99 L 634.00 204.90 L 637.65 200.90 L 641.30 199.92 L 644.95 198.66 L 648.60 205.46 L 652.25 201.54 L 655.90 203.83 L 659.55 198.98 L 663.20 196.32 L 666.85 193.59 L 670.50 199.87 L 674.15 199.34 L 677.80 197.85 L 681.45 188.17 L 685.10 191.54 L 688.75 187.65 L 692.40 184.08 L 696.05 181.63 L 699.70 175.72 L 703.35 168.07 L 707.00 164.96 L 710.65 164.56 L 714.30 167.43 L 717.95 171.80 L 721.60 174.81 L 725.25 176.52 L 728.90 178.38 L 732.55 186.01 L 736.20 193.23 L 739.85 197.01 L 743.50 193.47 L 747.15 197.84 L 750.80 195.41 L 754.45 197.48 L 758.10 197.11 L 761.75 196.23 L 765.40 198.75 L 769.05 188.72 L 772.70 186.81 L 776.35 187.28 L 780.00 185.97" class="path-2" />
<path d="M 50.00 141.19 L 53.65 140.69 L 57.30 149.08 L 60.95 150.52 L 64.60 151.73 L 68.25 147.25 L 71.90 144.33 L 75.55 144.02 L 79.20 136.59 L 82.85 134.42 L 86.50 134.76 L 90.15 129.82 L 93.80 128.17 L 97.45 130.07 L 101.10 134.59 L 104.75 137.49 L 108.40 134.73 L 112.05 131.68 L 115.70 139.33 L 119.35 145.33 L 123.00 141.96 L 126.65 136.60 L 130.30 141.72 L 133.95 141.90 L 137.60 141.81 L 141.25 145.26 L 144.90 142.22 L 148.55 140.86 L 152.20 145.81 L 155.85 150.57 L 159.50 152.55 L 163.15 152.86 L 166.80 154.01 L 170.45 148.50 L 174.10 151.05 L 177.75 140.71 L 181.40 141.83 L 185.05 155.06 L 188.70 147.97 L 192.35 147.83 L 196.00 149.19 L 199.65 144.98 L 203.30 146.84 L 206.95 140.02 L 210.60 137.35 L 214.25 135.65 L 217.90 135.48 L 221.55 133.63 L 225.20 134.51 L 228.85 126.27 L 232.50 124.42 L 236.15 123.39 L 239.80 119.64 L 243.45 116.17 L 247.10 116.58 L 250.75 119.01 L 254.40 119.20 L 258.05 121.55 L 261.70 121.86 L 265.35 122.50 L 269.00 120.58 L 272.65 122.85 L 276.30 120.99 L 279.95 123.61 L 283.60 120.16 L 287.25 125.75 L 290.90 121.93 L 294.55 115.30 L 298.20 119.19 L 301.85 118.64 L 305.50 114.48 L 309.15 109.84 L 312.80 109.05 L 316.45 101.21 L 320.10 102.11 L 323.75 96.43 L 327.40 100.60 L 331.05 100.65 L 334.70 98.99 L 338.35 103.09 L 342.00 107.15 L 345.65 106.83 L 349.30 103.12 L 352.95 106.16 L 356.60 110.11 L 360.25 107.42 L 363.90 109.44 L 367.55 109.04 L 371.20 109.62 L 374.85 110.81 L 378.50 109.88 L 382.15 109.23 L 385.80 111.32 L 389.45 110.31 L 393.10 105.43 L 396.75 97.28 L 400.40 100.73 L 404.05 105.20 L 407.70 104.01 L 411.35 101.13 L 415.00 105.17 L 418.65 100.87 L 422.30 100.39 L 425.95 104.29 L 429.60 98.75 L 433.25 96.70 L 436.90 96.16 L 440.55 96.00 L 444.20 101.36 L 447.85 102.82 L 451.50 98.50 L 455.15 99.14 L 458.80 97.15 L 462.45 93.92 L 466.10 108.89 L 469.75 102.27 L 473.40 105.29 L 477.05 106.86 L 480.70 114.06 L 484.35 116.26 L 488.00 112.02 L 491.65 113.61 L 495.30 112.44 L 498.95 112.02 L 502.60 107.87 L 506.25 106.92 L 509.90 103.27 L 513.55 100.76 L 517.20 103.33 L 520.85 98.26 L 524.50 104.59 L 528.15 100.53 L 531.80 104.44 L 535.45 98.37 L 539.10 103.02 L 542.75 103.60 L 546.40 100.54 L 550.05 108.53 L 553.70 102.13 L 557.35 100.29 L 561.00 97.97 L 564.65 98.01 L 568.30 100.46 L 571.95 110.61 L 575.60 107.91 L 579.25 108.58 L 582.90 106.80 L 586.55 116.19 L 590.20 116.94 L 593.85 102.88 L 597.50 103.11 L 601.15 100.62 L 604.80 99.62 L 608.45 108.32 L 612.10 113.73 L 615.75 109.28 L 619.40 110.86 L 623.05 112.08 L 626.70 112.31 L 630.35 115.17 L 634.00 113.19 L 637.65 113.10 L 641.30 116.28 L 644.95 110.03 L 648.60 111.50 L 652.25 108.16 L 655.90 117.02 L 659.55 119.97 L 663.20 106.60 L 666.85 111.25 L 670.50 114.67 L 674.15 108.90 L 677.80 108.91 L 681.45 105.85 L 685.10 110.40 L 688.75 108.15 L 692.40 112.47 L 696.05 119.14 L 699.70 118.53 L 703.35 120.14 L 707.00 132.29 L 710.65 134.86 L 714.30 136.95 L 717.95 131.15 L 721.60 131.72 L 725.25 128.96 L 728.90 122.31 L 732.55 120.39 L 736.20 122.15 L 739.85 120.13 L 743.50 123.07 L 747.15 117.62 L 750.80 116.05 L 754.45 115.53 L 758.10 115.33 L 761.75 115.65 L 765.40 125.93 L 769.05 123.44 L 772.70 129.27 L 776.35 131.74 L 780.00 136.35" class="path-3" />
<path d="M 50.00 141.19 L 53.65 143.14 L 57.30 152.48 L 60.95 161.68 L 64.60 162.29 L 68.25 158.95 L 71.90 153.83 L 75.55 150.42 L 79.20 144.58 L 82.85 143.27 L 86.50 134.94 L 90.15 132.41 L 93.80 129.09 L 97.45 130.48 L 101.10 123.20 L 104.75 116.30 L 108.40 117.50 L 112.05 114.63 L 115.70 109.65 L 119.35 116.79 L 123.00 115.54 L 126.65 115.08 L 130.30 117.45 L 133.95 116.00 L 137.60 121.26 L 141.25 120.79 L 144.90 119.34 L 148.55 122.26 L 152.20 119.80 L 155.85 113.90 L 159.50 122.71 L 163.15 120.90 L 166.80 126.37 L 170.45 126.38 L 174.10 126.94 L 177.75 133.61 L 181.40 132.51 L 185.05 133.48 L 188.70 132.41 L 192.35 129.95 L 196.00 123.31 L 199.65 120.85 L 203.30 124.42 L 206.95 112.55 L 210.60 110.60 L 214.25 111.97 L 217.90 111.32 L 221.55 113.10 L 225.20 114.25 L 228.85 117.97 L 232.50 116.19 L 236.15 115.88 L 239.80 116.01 L 243.45 116.33 L 247.10 112.70 L 250.75 114.49 L 254.40 113.29 L 258.05 107.68 L 261.70 108.38 L 265.35 111.24 L 269.00 106.92 L 272.65 106.25 L 276.30 109.52 L 279.95 113.61 L 283.60 112.80 L 287.25 109.90 L 290.90 110.94 L 294.55 114.01 L 298.20 112.17 L 301.85 109.84 L 305.50 107.98 L 309.15 99.46 L 312.80 97.78 L 316.45 102.47 L 320.10 101.41 L 323.75 97.31 L 327.40 98.51 L 331.05 98.42 L 334.70 101.01 L 338.35 97.80 L 342.00 94.27 L 345.65 101.90 L 349.30 104.98 L 352.95 106.59 L 356.60 106.20 L 360.25 107.55 L 363.90 105.41 L 367.55 110.05 L 371.20 117.18 L 374.85 115.78 L 378.50 117.28 L 382.15 122.17 L 385.80 120.11 L 389.45 121.61 L 393.10 124.23 L 396.75 129.43 L 400.40 121.25 L 404.05 124.95 L 407.70 125.90 L 411.35 122.94 L 415.00 122.41 L 418.65 134.49 L 422.30 128.66 L 425.95 130.27 L 429.60 125.16 L 433.25 121.87 L 436.90 118.89 L 440.55 125.36 L 444.20 126.55 L 447.85 129.94 L 451.50 121.34 L 455.15 123.27 L 458.80 121.52 L 462.45 112.23 L 466.10 110.37 L 469.75 107.25 L 473.40 111.83 L 477.05 111.33 L 480.70 115.21 L 484.35 114.64 L 488.00 119.88 L 491.65 120.94 L 495.30 115.30 L 498.95 123.29 L 502.60 122.29 L 506.25 131.89 L 509.90 134.97 L 513.55 137.15 L 517.20 137.07 L 520.85 134.90 L 524.50 129.75 L 528.15 125.82 L 531.80 122.22 L 535.45 120.33 L 539.10 121.64 L 542.75 119.65 L 546.40 111.55 L 550.05 110.69 L 553.70 111.20 L 557.35 115.17 L 561.00 115.80 L 564.65 110.82 L 568.30 112.52 L 571.95 112.90 L 575.60 110.68 L 579.25 109.08 L 582.90 110.22 L 586.55 111.24 L 590.20 112.94 L 593.85 105.75 L 597.50 102.24 L 601.15 105.48 L 604.80 102.69 L 608.45 106.37 L 612.10 110.10 L 615.75 114.91 L 619.40 114.99 L 623.05 122.63 L 626.70 124.47 L 630.35 131.51 L 634.00 127.03 L 637.65 127.87 L 641.30 128.94 L 644.95 125.16 L 648.60 120.29 L 652.25 125.03 L 655.90 123.71 L 659.55 124.01 L 663.20 125.23 L 666.85 128.34 L 670.50 134.16 L 674.15 136.37 L 677.80 133.35 L 681.45 135.56 L 685.10 130.76 L 688.75 134.66 L 692.40 140.82 L 696.05 135.53 L 699.70 135.84 L 703.35 129.28 L 707.00 133.59 L 710.65 138.12 L 714.30 132.30 L 717.95 136.54 L 721.60 138.70 L 725.25 143.06 L 728.90 141.66 L 732.55 143.01 L 736.20 146.83 L 739.85 150.92 L 743.50 156.04 L 747.15 160.20 L 750.80 162.84 L 754.45 161.71 L 758.10 153.19 L 761.75 153.76 L 765.40 151.79 L 769.05 148.72 L 772.70 148.04 L 776.35 147.18 L 780.00 144.37" class="path-4" />
<line x1="50" y1="141.2" x2="780" y2="141.2" stroke="#4b5563" stroke-width="0.8" stroke-dasharray="6 3" />
</svg>