<svg xmlns="http://www.w3.org/2000/svg" viewBox="0 0 800 300" width="800" height="300">
<style>
.axis-line { stroke: #6b7280; stroke-width: 0.5; }
.axis-text { font-family: monospace; font-size: 11px; fill: #9ca3af; }
.title-text { font-family: monospace; font-size: 14px; fill: #d1d5db; font-weight: bold; }
.grid-line { stroke: #374151; stroke-width: 0.3; stroke-dasharray: 4 2; }
.path-0 { fill: none; stroke: #3b82f6; stroke-width: 2; stroke-linecap: round; opacity: 0.85; animation: draw-0 8s ease-in-out 0.0s infinite; stroke-dasharray: 1013; stroke-dashoffset: 1013;}
@keyframes draw-0 { 0% { stroke-dashoffset: 1013; } 38% { stroke-dashoffset: 0; } 62% { stroke-dashoffset: 0; } 100% { stroke-dashoffset: 1013; }}
.path-1 { fill: none; stroke: #ef4444; stroke-width: 2; stroke-linecap: round; opacity: 0.85; animation: draw-1 8s ease-in-out 0.4s infinite; stroke-dasharray: 1047; stroke-dashoffset: 1047;}
@keyframes draw-1 { 0% { stroke-dashoffset: 1047; } 38% { stroke-dashoffset: 0; } 62% { stroke-dashoffset: 0; } 100% { stroke-dashoffset: 1047; }}
.path-2 { fill: none; stroke: #22c55e; stroke-width: 2; stroke-linecap: round; opacity: 0.85; animation: draw-2 8s ease-in-out 0.8s infinite; stroke-dasharray: 1031; stroke-dashoffset: 1031;}
@keyframes draw-2 { 0% { stroke-dashoffset: 1031; } 38% { stroke-dashoffset: 0; } 62% { stroke-dashoffset: 0; } 100% { stroke-dashoffset: 1031; }}
.path-3 { fill: none; stroke: #f59e0b; stroke-width: 2; stroke-linecap: round; opacity: 0.85; animation: draw-3 8s ease-in-out 1.2000000000000002s infinite; stroke-dasharray: 1028; stroke-dashoffset: 1028;}
@keyframes draw-3 { 0% { stroke-dashoffset: 1028; } 38% { stroke-dashoffset: 0; } 62% { stroke-dashoffset: 0; } 100% { stroke-dashoffset: 1028; }}
.path-4 { fill: none; stroke: #a855f7; stroke-width: 2; stroke-linecap: round; opacity: 0.85; animation: draw-4 8s ease-in-out 1.6s infinite; stroke-dasharray: 1019; stroke-dashoffset: 1019;}
@keyframes draw-4 { 0% { stroke-dashoffset: 1019; } 38% { stroke-dashoffset: 0; } 62% { stroke-dashoffset: 0; } 100% { stroke-dashoffset: 1019; }}
</style>
<rect width="800" height="300" rx="8" fill="#0d1117" />
<line x1="50" y1="260.0" x2="780" y2="260.0" class="grid-line" />
<text x="44" y="264.0" text-anchor="end" class="axis-text">-2.4</text>
<line x1="50" y1="216.0" x2="780" y2="216.0" class="grid-line" />
<text x="44" y="220.0" text-anchor="end" class="axis-text">-1.7</text>
<line x1="50" y1="172.0" x2="780" y2="172.0" class="grid-line" />
<text x="44" y="176.0" text-anchor="end" class="axis-text">-0.9</text>
<line x1="50" y1="128.0" x2="780" y2="128.0" class="grid-line" />
<text x="44" y="132.0" text-anchor="end" class="axis-text">-0.1</text>
<line x1="50" y1="84.0" x2="780" y2="84.0" class="grid-line" />
<text x="44" y="88.0" text-anchor="end" class="axis-text">0.6</text>
<line x1="50" y1="40.0" x2="780" y2="40.0" class="grid-line" />
<text x="44" y="44.0" text-anchor="end" class="axis-text">1.4</text>
<line x1="50.0" y1="40" x2="50.0" y2="260" class="grid-line" />
<line x1="196.0" y1="40" x2="196.0" y2="260" class="grid-line" />
<line x1="342.0" y1="40" x2="342.0" y2="260" class="grid-line" />
<line x1="488.0" y1="40" x2="488.0" y2="260" class="grid-line" />
<line x1="634.0" y1="40" x2="634.0" y2="260" class="grid-line" />
<line x1="780.0" y1="40" x2="780.0" y2="260" class="grid-line" />
<line x1="50" y1="260" x2="780" y2="260" class="axis-line" />
<line x1="50" y1="40" x2="50" y2="260" class="axis-line" />
<text x="400.0" y="295" text-anchor="middle" class="axis-text">t</text>
<text x="12" y="150.0" text-anchor="middle" class="axis-text" transform="rotate(-90 12 150.0)">W(t)</text>
<text x="400.0" y="22" text-anchor="middle" class="title-text">Brownian Motion</text>
<path d="M 50.00 120.11 L 53.65 127.29 L 57.30 127.06 L 60.95 134.16 L 64.60 132.76 L 68.25 135.29 L 71.90 133.92 L 75.55 134.22 L 79.20 132.78 L 82.85 128.46 L 86.50 130.09 L 90.15 123.95 L 93.80 132.08 L 97.45 128.28 L 101.10 125.47 L 104.75 128.81 L 108.40 125.32 L 112.05 122.38 L 115.70 126.93 L 119.35 131.34 L 123.00 129.67 L 126.65 128.90 L 130.30 130.45 L 133.95 137.81 L 137.60 138.56 L 141.25 143.52 L 144.90 144.33 L 148.55 147.62 L 152.20 146.67 L 155.85 143.75 L 159.50 142.09 L 163.15 142.10 L 166.80 138.82 L 170.45 142.17 L 174.10 142.04 L 177.75 145.69 L 181.40 146.78 L 185.05 144.41 L 188.70 147.42 L 192.35 151.78 L 196.00 151.64 L 199.65 150.10 L 203.30 152.03 L 206.95 151.40 L 210.60 147.41 L 214.25 152.90 L 217.90 162.08 L 221.55 159.26 L 225.20 157.65 L 228.85 162.58 L 232.50 158.68 L 236.15 156.55 L 239.80 150.23 L 243.45 153.31 L 247.10 151.67 L 250.75 141.29 L 254.40 139.18 L 258.05 147.35 L 261.70 140.01 L 265.35 140.62 L 269.00 136.08 L 272.65 128.18 L 276.30 132.42 L 279.95 132.76 L 283.60 139.12 L 287.25 135.60 L 290.90 134.14 L 294.55 133.85 L 298.20 133.33 L 301.85 136.26 L 305.50 141.66 L 309.15 143.55 L 312.80 140.45 L 316.45 143.07 L 320.10 143.79 L 323.75 144.14 L 327.40 154.67 L 331.05 154.38 L 334.70 158.51 L 338.35 151.38 L 342.00 147.87 L 345.65 146.85 L 349.30 150.06 L 352.95 150.93 L 356.60 155.90 L 360.25 153.21 L 363.90 151.90 L 367.55 149.59 L 371.20 146.79 L 374.85 142.32 L 378.50 135.96 L 382.15 137.23 L 385.80 138.01 L 389.45 140.49 L 393.10 139.98 L 396.75 136.48 L 400.40 134.75 L 404.05 136.58 L 407.70 137.76 L 411.35 142.44 L 415.00 138.58 L 418.65 139.95 L 422.30 142.45 L 425.95 142.86 L 429.60 145.10 L 433.25 153.89 L 436.90 153.13 L 440.55 146.20 L 444.20 150.95 L 447.85 148.50 L 451.50 146.79 L 455.15 148.99 L 458.80 153.35 L 462.45 154.95 L 466.10 152.76 L 469.75 151.15 L 473.40 153.61 L 477.05 154.57 L 480.70 153.25 L 484.35 155.91 L 488.00 158.77 L 491.65 157.59 L 495.30 160.56 L 498.95 165.01 L 502.60 164.78 L 506.25 165.07 L 509.90 168.05 L 513.55 172.36 L 517.20 169.06 L 520.85 163.12 L 524.50 162.03 L 528.15 154.40 L 531.80 157.02 L 535.45 155.71 L 539.10 158.10 L 542.75 161.20 L 546.40 165.76 L 550.05 168.09 L 553.70 162.12 L 557.35 164.65 L 561.00 168.98 L 564.65 171.25 L 568.30 170.87 L 571.95 166.15 L 575.60 167.86 L 579.25 171.74 L 582.90 173.01 L 586.55 164.13 L 590.20 157.70 L 593.85 161.65 L 597.50 158.32 L 601.15 157.85 L 604.80 157.86 L 608.45 153.56 L 612.10 152.86 L 615.75 151.13 L 619.40 151.72 L 623.05 149.78 L 626.70 149.51 L 630.35 150.69 L 634.00 155.54 L 637.65 152.28 L 641.30 153.20 L 644.95 151.87 L 648.60 150.27 L 652.25 148.57 L 655.90 144.79 L 659.55 139.58 L 663.20 141.06 L 666.85 139.92 L 670.50 136.84 L 674.15 131.62 L 677.80 130.81 L 681.45 132.36 L 685.10 129.52 L 688.75 134.11 L 692.40 143.03 L 696.05 143.95 L 699.70 149.11 L 703.35 149.24 L 707.00 153.99 L 710.65 154.37 L 714.30 152.59 L 717.95 152.03 L 721.60 145.60 L 725.25 153.47 L 728.90 153.48 L 732.55 147.93 L 736.20 144.18 L 739.85 138.53 L 743.50 135.67 L 747.15 140.17 L 750.80 141.91 L 754.45 145.44 L 758.10 147.28 L 761.75 141.81 L 765.40 140.89 L 769.05 139.58 L 772.70 139.20 L 776.35 140.60 L 780.00 139.33" class="path-0" />
<path d="M 50.00 120.11 L 53.65 119.06 L 57.30 122.31 L 60.95 112.25 L 64.60 113.67 L 68.25 110.10 L 71.90 106.21 L 75.55 112.63 L 79.20 113.15 L 82.85 110.42 L 86.50 113.62 L 90.15 112.41 L 93.80 107.48 L 97.45 112.86 L 101.10 108.21 L 104.75 114.85 L 108.40 120.48 L 112.05 126.84 L 115.70 128.95 L 119.35 124.29 L 123.00 115.96 L 126.65 111.17 L 130.30 110.08 L 133.95 110.71 L 137.60 111.47 L 141.25 119.87 L 144.90 122.10 L 148.55 128.88 L 152.20 123.72 L 155.85 127.07 L 159.50 129.57 L 163.15 129.36 L 166.80 134.04 L 170.45 130.95 L 174.10 129.09 L 177.75 129.63 L 181.40 125.88 L 185.05 126.77 L 188.70 125.68 L 192.35 126.04 L 196.00 123.13 L 199.65 124.88 L 203.30 123.67 L 206.95 118.29 L 210.60 119.43 L 214.25 126.20 L 217.90 127.63 L 221.55 127.47 L 225.20 132.19 L 228.85 132.88 L 232.50 134.41 L 236.15 132.33 L 239.80 134.59 L 243.45 134.09 L 247.10 134.73 L 250.75 134.28 L 254.40 135.63 L 258.05 138.66 L 261.70 129.18 L 265.35 126.90 L 269.00 125.86 L 272.65 125.17 L 276.30 119.21 L 279.95 116.16 L 283.60 110.86 L 287.25 117.45 L 290.90 120.59 L 294.55 118.59 L 298.20 116.64 L 301.85 118.26 L 305.50 116.15 L 309.15 115.19 L 312.80 116.96 L 316.45 115.49 L 320.10 111.82 L 323.75 117.20 L 327.40 116.58 L 331.05 119.63 L 334.70 119.25 L 338.35 117.62 L 342.00 117.79 L 345.65 123.95 L 349.30 124.94 L 352.95 127.89 L 356.60 126.79 L 360.25 119.40 L 363.90 114.50 L 367.55 105.47 L 371.20 101.76 L 374.85 100.79 L 378.50 96.24 L 382.15 96.16 L 385.80 90.20 L 389.45 87.58 L 393.10 89.83 L 396.75 87.91 L 400.40 89.07 L 404.05 91.48 L 407.70 90.48 L 411.35 86.49 L 415.00 89.33 L 418.65 83.43 L 422.30 83.71 L 425.95 84.30 L 429.60 75.32 L 433.25 68.80 L 436.90 65.38 L 440.55 67.69 L 444.20 69.87 L 447.85 74.54 L 451.50 75.65 L 455.15 74.56 L 458.80 70.79 L 462.45 76.38 L 466.10 83.21 L 469.75 84.71 L 473.40 84.82 L 477.05 91.85 L 480.70 93.63 L 484.35 92.71 L 488.00 98.61 L 491.65 104.81 L 495.30 109.69 L 498.95 106.87 L 502.60 107.24 L 506.25 106.96 L 509.90 109.95 L 513.55 111.25 L 517.20 112.13 L 520.85 116.64 L 524.50 123.06 L 528.15 126.23 L 531.80 132.14 L 535.45 133.89 L 539.10 129.29 L 542.75 128.77 L 546.40 132.83 L 550.05 135.11 L 553.70 140.61 L 557.35 142.86 L 561.00 145.50 L 564.65 142.91 L 568.30 139.34 L 571.95 136.76 L 575.60 147.76 L 579.25 144.74 L 582.90 142.55 L 586.55 147.10 L 590.20 154.38 L 593.85 150.09 L 597.50 150.41 L 601.15 149.23 L 604.80 152.09 L 608.45 150.85 L 612.10 157.78 L 615.75 156.18 L 619.40 157.35 L 623.05 150.04 L 626.70 151.85 L 630.35 155.08 L 634.00 154.90 L 637.65 151.77 L 641.30 145.61 L 644.95 149.66 L 648.60 144.17 L 652.25 144.41 L 655.90 141.79 L 659.55 148.94 L 663.20 151.29 L 666.85 153.56 L 670.50 155.86 L 674.15 151.22 L 677.80 147.29 L 681.45 144.57 L 685.10 151.72 L 688.75 153.89 L 692.40 155.05 L 696.05 155.23 L 699.70 157.83 L 703.35 147.84 L 707.00 153.58 L 710.65 150.89 L 714.30 150.96 L 717.95 150.22 L 721.60 148.74 L 725.25 148.39 L 728.90 150.97 L 732.55 144.79 L 736.20 141.92 L 739.85 141.64 L 743.50 147.28 L 747.15 151.84 L 750.80 158.89 L 754.45 164.23 L 758.10 170.31 L 761.75 163.68 L 765.40 166.46 L 769.05 163.42 L 772.70 164.20 L 776.35 168.63 L 780.00 167.74" class="path-1" />
<path d="M 50.00 120.11 L 53.65 120.82 L 57.30 120.22 L 60.95 118.90 L 64.60 120.76 L 68.25 120.69 L 71.90 116.00 L 75.55 118.19 L 79.20 114.30 L 82.85 118.04 L 86.50 119.26 L 90.15 122.10 L 93.80 121.02 L 97.45 121.90 L 101.10 122.75 L 104.75 123.56 L 108.40 128.82 L 112.05 132.33 L 115.70 137.59 L 119.35 136.09 L 123.00 135.09 L 126.65 137.92 L 130.30 139.56 L 133.95 142.48 L 137.60 142.21 L 141.25 147.22 L 144.90 144.29 L 148.55 148.16 L 152.20 142.81 L 155.85 137.38 L 159.50 142.08 L 163.15 146.91 L 166.80 152.51 L 170.45 159.64 L 174.10 156.91 L 177.75 166.28 L 181.40 166.46 L 185.05 170.42 L 188.70 166.78 L 192.35 164.66 L 196.00 169.50 L 199.65 167.61 L 203.30 166.65 L 206.95 168.80 L 210.60 165.57 L 214.25 162.40 L 217.90 162.33 L 221.55 158.68 L 225.20 166.07 L 228.85 168.63 L 232.50 172.67 L 236.15 177.76 L 239.80 178.69 L 243.45 180.90 L 247.10 179.68 L 250.75 177.69 L 254.40 172.67 L 258.05 171.35 L 261.70 174.77 L 265.35 174.20 L 269.00 175.45 L 272.65 180.32 L 276.30 173.81 L 279.95 173.07 L 283.60 178.29 L 287.25 169.43 L 290.90 163.37 L 294.55 163.14 L 298.20 165.09 L 301.85 164.50 L 305.50 163.58 L 309.15 165.05 L 312.80 169.62 L 316.45 167.03 L 320.10 164.07 L 323.75 170.79 L 327.40 172.92 L 331.05 162.48 L 334.70 161.28 L 338.35 158.14 L 342.00 156.71 L 345.65 154.88 L 349.30 156.44 L 352.95 163.84 L 356.60 162.37 L 360.25 163.35 L 363.90 168.26 L 367.55 173.87 L 371.20 173.69 L 374.85 176.13 L 378.50 178.67 L 382.15 173.10 L 385.80 177.49 L 389.45 179.75 L 393.10 184.55 L 396.75 183.43 L 400.40 180.42 L 404.05 180.99 L 407.70 193.11 L 411.35 192.02 L 415.00 194.01 L 418.65 197.85 L 422.30 194.68 L 425.95 195.20 L 429.60 191.01 L 433.25 188.10 L 436.90 190.84 L 440.55 195.00 L 444.20 194.45 L 447.85 200.42 L 451.50 200.72 L 455.15 197.09 L 458.80 204.29 L 462.45 203.27 L 466.10 208.33 L 469.75 207.49 L 473.40 211.94 L 477.05 214.83 L 480.70 211.69 L 484.35 212.84 L 488.00 204.99 L 491.65 201.54 L 495.30 198.68 L 498.95 202.39 L 502.60 200.91 L 506.25 208.11 L 509.90 212.72 L 513.55 208.40 L 517.20 199.60 L 520.85 203.15 L 524.50 200.44 L 528.15 198.95 L 531.80 200.49 L 535.45 209.27 L 539.10 209.98 L 542.75 204.53 L 546.40 203.42 L 550.05 201.49 L 553.70 199.26 L 557.35 200.20 L 561.00 200.36 L 564.65 200.98 L 568.30 205.76 L 571.95 205.09 L 575.60 206.01 L 579.25 214.07 L 582.90 221.58 L 586.55 221.14 L 590.20 224.69 L 593.85 226.44 L 597.50 230.68 L 601.15 229.91 L 604.80 230.18 L 608.45 228.17 L 612.10 223.86 L 615.75 221.47 L 619.40 221.35 L 623.05 222.20 L 626.70 225.13 L 630.35 229.99 L 634.00 230.23 L 637.65 226.34 L 641.30 227.92 L 644.95 234.62 L 648.60 234.17 L 652.25 233.28 L 655.90 231.22 L 659.55 226.78 L 663.20 223.99 L 666.85 224.38 L 670.50 221.63 L 674.15 218.52 L 677.80 205.68 L 681.45 204.44 L 685.10 207.04 L 688.75 205.10 L 692.40 206.56 L 696.05 203.62 L 699.70 197.43 L 703.35 192.52 L 707.00 196.47 L 710.65 201.42 L 714.30 209.13 L 717.95 206.78 L 721.60 210.05 L 725.25 206.71 L 728.90 207.74 L 732.55 209.53 L 736.20 202.24 L 739.85 200.45 L 743.50 193.35 L 747.15 193.21 L 750.80 193.45 L 754.45 192.41 L 758.10 193.74 L 761.75 190.64 L 765.40 188.71 L 769.05 183.14 L 772.70 177.43 L 776.35 175.27 L 780.00 176.20" class="path-2" />
<path d="M 50.00 120.11 L 53.65 115.73 L 57.30 110.26 L 60.95 108.07 L 64.60 104.28 L 68.25 102.86 L 71.90 101.90 L 75.55 103.38 L 79.20 104.40 L 82.85 97.67 L 86.50 97.44 L 90.15 98.64 L 93.80 104.57 L 97.45 99.46 L 101.10 98.21 L 104.75 95.90 L 108.40 96.01 L 112.05 87.23 L 115.70 84.94 L 119.35 89.70 L 123.00 89.91 L 126.65 93.55 L 130.30 94.53 L 133.95 91.14 L 137.60 87.67 L 141.25 83.15 L 144.90 82.32 L 148.55 81.64 L 152.20 83.66 L 155.85 80.50 L 159.50 80.70 L 163.15 79.64 L 166.80 82.95 L 170.45 87.95 L 174.10 83.56 L 177.75 86.78 L 181.40 87.74 L 185.05 91.47 L 188.70 93.22 L 192.35 92.54 L 196.00 93.32 L 199.65 94.77 L 203.30 92.66 L 206.95 90.07 L 210.60 94.08 L 214.25 92.31 L 217.90 96.29 L 221.55 92.63 L 225.20 97.35 L 228.85 99.23 L 232.50 93.94 L 236.15 92.60 L 239.80 92.30 L 243.45 99.56 L 247.10 98.42 L 250.75 100.54 L 254.40 102.73 L 258.05 99.14 L 261.70 98.34 L 265.35 96.71 L 269.00 93.89 L 272.65 87.37 L 276.30 86.32 L 279.95 92.84 L 283.60 97.80 L 287.25 100.39 L 290.90 96.55 L 294.55 90.88 L 298.20 90.65 L 301.85 88.57 L 305.50 88.58 L 309.15 93.51 L 312.80 96.21 L 316.45 99.20 L 320.10 100.14 L 323.75 94.68 L 327.40 92.76 L 331.05 92.55 L 334.70 92.72 L 338.35 101.37 L 342.00 94.14 L 345.65 86.12 L 349.30 89.10 L 352.95 90.65 L 356.60 92.21 L 360.25 80.25 L 363.90 79.57 L 367.55 80.64 L 371.20 83.28 L 374.85 83.49 L 378.50 84.21 L 382.15 82.36 L 385.80 78.94 L 389.45 78.87 L 393.10 77.20 L 396.75 81.73 L 400.40 82.82 L 404.05 85.62 L 407.70 86.87 L 411.35 86.96 L 415.00 83.68 L 418.65 82.68 L 422.30 75.64 L 425.95 75.53 L 429.60 80.45 L 433.25 87.14 L 436.90 83.83 L 440.55 89.14 L 444.20 89.21 L 447.85 92.21 L 451.50 88.59 L 455.15 97.75 L 458.80 96.88 L 462.45 100.18 L 466.10 103.15 L 469.75 105.98 L 473.40 102.46 L 477.05 94.13 L 480.70 95.39 L 484.35 97.73 L 488.00 96.50 L 491.65 95.17 L 495.30 94.92 L 498.95 97.17 L 502.60 93.51 L 506.25 95.56 L 509.90 101.00 L 513.55 105.71 L 517.20 109.35 L 520.85 110.45 L 524.50 109.88 L 528.15 109.14 L 531.80 110.85 L 535.45 112.76 L 539.10 108.58 L 542.75 106.76 L 546.40 113.09 L 550.05 114.02 L 553.70 107.20 L 557.35 117.66 L 561.00 114.97 L 564.65 112.07 L 568.30 115.50 L 571.95 116.93 L 575.60 113.41 L 579.25 117.34 L 582.90 120.68 L 586.55 120.10 L 590.20 121.99 L 593.85 127.79 L 597.50 131.97 L 601.15 130.54 L 604.80 135.49 L 608.45 133.50 L 612.10 130.63 L 615.75 125.48 L 619.40 123.26 L 623.05 125.74 L 626.70 120.21 L 630.35 120.53 L 634.00 123.64 L 637.65 125.36 L 641.30 123.36 L 644.95 126.58 L 648.60 132.20 L 652.25 131.99 L 655.90 131.66 L 659.55 132.08 L 663.20 122.24 L 666.85 121.94 L 670.50 121.06 L 674.15 116.66 L 677.80 125.45 L 681.45 124.50 L 685.10 121.02 L 688.75 110.77 L 692.40 107.86 L 696.05 103.56 L 699.70 101.81 L 703.35 104.47 L 707.00 109.66 L 710.65 111.81 L 714.30 113.47 L 717.95 115.77 L 721.60 119.90 L 725.25 117.66 L 728.90 127.90 L 732.55 130.39 L 736.20 133.20 L 739.85 134.17 L 743.50 129.13 L 747.15 139.68 L 750.80 145.71 L 754.45 146.16 L 758.10 140.80 L 761.75 138.72 L 765.40 137.78 L 769.05 131.28 L 772.70 127.17 L 776.35 129.92 L 780.00 132.35" class="path-3" />
<path d="M 50.00 120.11 L 53.65 115.04 L 57.30 110.60 L 60.95 113.28 L 64.60 115.53 L 68.25 116.36 L 71.90 112.61 L 75.55 114.92 L 79.20 111.97 L 82.85 108.49 L 86.50 107.84 L 90.15 110.61 L 93.80 116.48 L 97.45 118.19 L 101.10 116.76 L 104.75 119.44 L 108.40 117.58 L 112.05 117.33 L 115.70 121.21 L 119.35 122.91 L 123.00 125.84 L 126.65 128.38 L 130.30 121.00 L 133.95 118.66 L 137.60 125.96 L 141.25 122.32 L 144.90 118.02 L 148.55 122.94 L 152.20 124.04 L 155.85 122.08 L 159.50 123.68 L 163.15 125.59 L 166.80 126.79 L 170.45 125.80 L 174.10 125.51 L 177.75 126.34 L 181.40 129.41 L 185.05 118.39 L 188.70 118.92 L 192.35 124.27 L 196.00 117.20 L 199.65 111.21 L 203.30 110.49 L 206.95 106.27 L 210.60 104.46 L 214.25 107.97 L 217.90 107.99 L 221.55 108.93 L 225.20 107.56 L 228.85 110.29 L 232.50 110.68 L 236.15 111.78 L 239.80 108.98 L 243.45 111.04 L 247.10 111.48 L 250.75 109.39 L 254.40 115.40 L 258.05 115.18 L 261.70 114.51 L 265.35 110.78 L 269.00 108.73 L 272.65 112.76 L 276.30 110.92 L 279.95 101.79 L 283.60 100.79 L 287.25 95.53 L 290.90 91.24 L 294.55 87.49 L 298.20 85.06 L 301.85 84.19 L 305.50 87.48 L 309.15 88.02 L 312.80 82.94 L 316.45 87.58 L 320.10 90.69 L 323.75 89.42 L 327.40 90.90 L 331.05 89.79 L 334.70 86.88 L 338.35 95.61 L 342.00 93.75 L 345.65 97.06 L 349.30 95.03 L 352.95 91.37 L 356.60 94.18 L 360.25 94.69 L 363.90 95.40 L 367.55 93.23 L 371.20 91.89 L 374.85 93.48 L 378.50 97.41 L 382.15 98.36 L 385.80 100.27 L 389.45 99.12 L 393.10 98.78 L 396.75 106.83 L 400.40 105.65 L 404.05 110.31 L 407.70 118.01 L 411.35 115.79 L 415.00 110.68 L 418.65 110.31 L 422.30 112.93 L 425.95 114.18 L 429.60 115.62 L 433.25 117.05 L 436.90 126.38 L 440.55 128.50 L 444.20 123.43 L 447.85 125.25 L 451.50 126.89 L 455.15 130.55 L 458.80 132.32 L 462.45 130.12 L 466.10 132.19 L 469.75 127.45 L 473.40 125.14 L 477.05 132.50 L 480.70 125.46 L 484.35 119.59 L 488.00 120.40 L 491.65 116.03 L 495.30 116.56 L 498.95 111.40 L 502.60 111.36 L 506.25 116.92 L 509.90 114.32 L 513.55 123.19 L 517.20 131.70 L 520.85 127.87 L 524.50 123.03 L 528.15 121.47 L 531.80 120.89 L 535.45 121.86 L 539.10 124.00 L 542.75 125.14 L 546.40 116.71 L 550.05 118.33 L 553.70 121.62 L 557.35 121.79 L 561.00 119.35 L 564.65 117.08 L 568.30 119.15 L 571.95 112.72 L 575.60 113.59 L 579.25 104.91 L 582.90 111.30 L 586.55 107.63 L 590.20 109.44 L 593.85 111.23 L 597.50 114.12 L 601.15 118.06 L 604.80 124.94 L 608.45 124.40 L 612.10 124.10 L 615.75 111.87 L 619.40 112.75 L 623.05 118.93 L 626.70 119.86 L 630.35 121.80 L 634.00 121.28 L 637.65 121.46 L 641.30 126.12 L 644.95 130.03 L 648.60 125.63 L 652.25 125.76 L 655.90 126.11 L 659.55 127.64 L 663.20 134.38 L 666.85 126.96 L 670.50 127.11 L 674.15 124.43 L 677.80 120.92 L 681.45 124.11 L 685.10 129.50 L 688.75 133.90 L 692.40 133.27 L 696.05 129.98 L 699.70 128.94 L 703.35 124.43 L 707.00 124.04 L 710.65 120.31 L 714.30 113.27 L 717.95 114.59 L 721.60 116.39 L 725.25 119.84 L 728.90 119.53 L 732.55 122.40 L 736.20 114.91 L 739.85 112.38 L 743.50 113.27 L 747.15 110.82 L 750.80 110.73 L 754.45 117.75 L 758.10 112.89 L 761.75 112.65 L 765.40 113.90 L 769.05 117.12 L 772.70 120.21 L 776.35 122.41 L 780.00 124.09" class="path-4" />
<line x1="50" y1="120.1" x2="780" y2="120.1" stroke="#4b5563" stroke-width="0.8" stroke-dasharray="6 3" />
</svg>