<svg xmlns="http://www.w3.org/2000/svg" viewBox="0 0 800 300" width="800" height="300">
<style>
.axis-line { stroke: #6b7280; stroke-width: 0.5; }
.axis-text { font-family: monospace; font-size: 11px; fill: #9ca3af; }
.title-text { font-family: monospace; font-size: 14px; fill: #d1d5db; font-weight: bold; }
.grid-line { stroke: #374151; stroke-width: 0.3; stroke-dasharray: 4 2; }
.path-0 { fill: none; stroke: #3b82f6; stroke-width: 2; stroke-linecap: round; opacity: 0.85; animation: draw-0 8s ease-in-out 0.0s infinite; stroke-dasharray: 937; stroke-dashoffset: 937;}
@keyframes draw-0 { 0% { stroke-dashoffset: 937; } 38% { stroke-dashoffset: 0; } 62% { stroke-dashoffset: 0; } 100% { stroke-dashoffset: 937; }}
.path-1 { fill: none; stroke: #ef4444; stroke-width: 2; stroke-linecap: round; opacity: 0.85; animation: draw-1 8s ease-in-out 0.4s infinite; stroke-dasharray: 910; stroke-dashoffset: 910;}
@keyframes draw-1 { 0% { stroke-dashoffset: 910; } 38% { stroke-dashoffset: 0; } 62% { stroke-dashoffset: 0; } 100% { stroke-dashoffset: 910; }}
.path-2 { fill: none; stroke: #22c55e; stroke-width: 2; stroke-linecap: round; opacity: 0.85; animation: draw-2 8s ease-in-out 0.8s infinite; stroke-dasharray: 976; stroke-dashoffset: 976;}
@keyframes draw-2 { 0% { stroke-dashoffset: 976; } 38% { stroke-dashoffset: 0; } 62% { stroke-dashoffset: 0; } 100% { stroke-dashoffset: 976; }}
.path-3 { fill: none; stroke: #f59e0b; stroke-width: 2; stroke-linecap: round; opacity: 0.85; animation: draw-3 8s ease-in-out 1.2000000000000002s infinite; stroke-dasharray: 940; stroke-dashoffset: 940;}
@keyframes draw-3 { 0% { stroke-dashoffset: 940; } 38% { stroke-dashoffset: 0; } 62% { stroke-dashoffset: 0; } 100% { stroke-dashoffset: 940; }}
.path-4 { fill: none; stroke: #a855f7; stroke-width: 2; stroke-linecap: round; opacity: 0.85; animation: draw-4 8s ease-in-out 1.6s infinite; stroke-dasharray: 937; stroke-dashoffset: 937;}
@keyframes draw-4 { 0% { stroke-dashoffset: 937; } 38% { stroke-dashoffset: 0; } 62% { stroke-dashoffset: 0; } 100% { stroke-dashoffset: 937; }}
</style>
<rect width="800" height="300" rx="8" fill="#0d1117" />
<line x1="50" y1="260.0" x2="780" y2="260.0" class="grid-line" />
<text x="44" y="264.0" text-anchor="end" class="axis-text">-2.5</text>
<line x1="50" y1="216.0" x2="780" y2="216.0" class="grid-line" />
<text x="44" y="220.0" text-anchor="end" class="axis-text">-1.5</text>
<line x1="50" y1="172.0" x2="780" y2="172.0" class="grid-line" />
<text x="44" y="176.0" text-anchor="end" class="axis-text">-0.5</text>
<line x1="50" y1="128.0" x2="780" y2="128.0" class="grid-line" />
<text x="44" y="132.0" text-anchor="end" class="axis-text">0.5</text>
<line x1="50" y1="84.0" x2="780" y2="84.0" class="grid-line" />
<text x="44" y="88.0" text-anchor="end" class="axis-text">1.5</text>
<line x1="50" y1="40.0" x2="780" y2="40.0" class="grid-line" />
<text x="44" y="44.0" text-anchor="end" class="axis-text">2.5</text>
<line x1="50.0" y1="40" x2="50.0" y2="260" class="grid-line" />
<line x1="196.0" y1="40" x2="196.0" y2="260" class="grid-line" />
<line x1="342.0" y1="40" x2="342.0" y2="260" class="grid-line" />
<line x1="488.0" y1="40" x2="488.0" y2="260" class="grid-line" />
<line x1="634.0" y1="40" x2="634.0" y2="260" class="grid-line" />
<line x1="780.0" y1="40" x2="780.0" y2="260" class="grid-line" />
<line x1="50" y1="260" x2="780" y2="260" class="axis-line" />
<line x1="50" y1="40" x2="50" y2="260" class="axis-line" />
<text x="400.0" y="295" text-anchor="middle" class="axis-text">t</text>
<text x="12" y="150.0" text-anchor="middle" class="axis-text" transform="rotate(-90 12 150.0)">W(t)</text>
<text x="400.0" y="22" text-anchor="middle" class="title-text">Brownian Motion</text>
<path d="M 50.00 150.01 L 53.65 151.73 L 57.30 153.50 L 60.95 155.18 L 64.60 156.49 L 68.25 153.03 L 71.90 155.40 L 75.55 154.82 L 79.20 152.35 L 82.85 152.12 L 86.50 152.14 L 90.15 154.18 L 93.80 149.48 L 97.45 150.01 L 101.10 151.58 L 104.75 150.87 L 108.40 149.68 L 112.05 148.52 L 115.70 151.64 L 119.35 151.35 L 123.00 154.94 L 126.65 148.64 L 130.30 148.61 L 133.95 152.33 L 137.60 154.79 L 141.25 152.52 L 144.90 160.33 L 148.55 163.82 L 152.20 160.22 L 155.85 159.75 L 159.50 161.40 L 163.15 161.92 L 166.80 160.16 L 170.45 159.19 L 174.10 161.66 L 177.75 163.68 L 181.40 173.38 L 185.05 170.84 L 188.70 170.11 L 192.35 171.96 L 196.00 171.91 L 199.65 176.89 L 203.30 179.62 L 206.95 181.76 L 210.60 179.18 L 214.25 178.50 L 217.90 177.64 L 221.55 178.79 L 225.20 178.30 L 228.85 178.76 L 232.50 175.11 L 236.15 178.19 L 239.80 177.81 L 243.45 173.12 L 247.10 176.99 L 250.75 173.03 L 254.40 174.63 L 258.05 177.87 L 261.70 174.83 L 265.35 176.55 L 269.00 173.93 L 272.65 168.14 L 276.30 174.12 L 279.95 179.38 L 283.60 175.98 L 287.25 176.45 L 290.90 177.33 L 294.55 177.19 L 298.20 175.05 L 301.85 170.11 L 305.50 171.29 L 309.15 169.69 L 312.80 169.86 L 316.45 171.07 L 320.10 170.59 L 323.75 180.41 L 327.40 180.18 L 331.05 180.69 L 334.70 183.34 L 338.35 178.18 L 342.00 177.44 L 345.65 180.69 L 349.30 179.35 L 352.95 179.28 L 356.60 184.49 L 360.25 181.08 L 363.90 178.09 L 367.55 185.27 L 371.20 185.43 L 374.85 187.07 L 378.50 187.11 L 382.15 182.61 L 385.80 186.72 L 389.45 186.80 L 393.10 186.91 L 396.75 184.85 L 400.40 189.90 L 404.05 189.99 L 407.70 188.19 L 411.35 185.00 L 415.00 185.26 L 418.65 185.63 L 422.30 179.86 L 425.95 180.05 L 429.60 178.74 L 433.25 173.35 L 436.90 176.95 L 440.55 180.83 L 444.20 176.06 L 447.85 174.05 L 451.50 173.00 L 455.15 172.14 L 458.80 171.27 L 462.45 170.73 L 466.10 166.51 L 469.75 172.93 L 473.40 166.19 L 477.05 164.01 L 480.70 159.51 L 484.35 161.79 L 488.00 167.74 L 491.65 168.12 L 495.30 164.60 L 498.95 164.52 L 502.60 164.30 L 506.25 160.60 L 509.90 156.70 L 513.55 159.21 L 517.20 160.44 L 520.85 162.21 L 524.50 161.73 L 528.15 158.81 L 531.80 162.11 L 535.45 160.51 L 539.10 156.38 L 542.75 158.31 L 546.40 156.82 L 550.05 151.39 L 553.70 150.52 L 557.35 153.72 L 561.00 150.28 L 564.65 147.88 L 568.30 151.79 L 571.95 155.53 L 575.60 160.59 L 579.25 159.87 L 582.90 156.34 L 586.55 159.75 L 590.20 159.98 L 593.85 156.68 L 597.50 154.39 L 601.15 153.88 L 604.80 159.13 L 608.45 162.76 L 612.10 163.94 L 615.75 164.72 L 619.40 165.66 L 623.05 165.12 L 626.70 166.11 L 630.35 164.78 L 634.00 162.30 L 637.65 169.70 L 641.30 176.44 L 644.95 174.43 L 648.60 173.73 L 652.25 172.19 L 655.90 166.20 L 659.55 170.66 L 663.20 168.16 L 666.85 169.69 L 670.50 171.23 L 674.15 167.33 L 677.80 165.17 L 681.45 165.38 L 685.10 162.52 L 688.75 161.78 L 692.40 162.32 L 696.05 160.44 L 699.70 159.71 L 703.35 159.37 L 707.00 157.42 L 710.65 157.33 L 714.30 159.39 L 717.95 160.92 L 721.60 160.83 L 725.25 159.82 L 728.90 156.01 L 732.55 158.93 L 736.20 156.85 L 739.85 159.08 L 743.50 156.71 L 747.15 152.00 L 750.80 149.26 L 754.45 144.70 L 758.10 143.00 L 761.75 142.49 L 765.40 144.27 L 769.05 145.92 L 772.70 141.27 L 776.35 138.07 L 780.00 139.35" class="path-0" />
<path d="M 50.00 150.01 L 53.65 150.13 L 57.30 146.99 L 60.95 146.83 L 64.60 147.14 L 68.25 149.25 L 71.90 154.13 L 75.55 152.67 L 79.20 152.59 L 82.85 152.18 L 86.50 154.40 L 90.15 152.51 L 93.80 153.36 L 97.45 158.16 L 101.10 155.44 L 104.75 150.07 L 108.40 152.28 L 112.05 152.84 L 115.70 152.77 L 119.35 153.35 L 123.00 152.50 L 126.65 150.23 L 130.30 148.20 L 133.95 140.10 L 137.60 143.91 L 141.25 139.53 L 144.90 139.33 L 148.55 144.02 L 152.20 144.39 L 155.85 141.28 L 159.50 144.06 L 163.15 138.05 L 166.80 139.76 L 170.45 136.42 L 174.10 138.84 L 177.75 137.89 L 181.40 135.86 L 185.05 135.47 L 188.70 131.55 L 192.35 131.26 L 196.00 130.20 L 199.65 125.66 L 203.30 126.23 L 206.95 131.85 L 210.60 134.67 L 214.25 138.08 L 217.90 141.53 L 221.55 141.73 L 225.20 138.48 L 228.85 138.95 L 232.50 133.31 L 236.15 133.80 L 239.80 133.88 L 243.45 133.61 L 247.10 138.20 L 250.75 138.75 L 254.40 131.35 L 258.05 137.10 L 261.70 139.86 L 265.35 137.11 L 269.00 138.30 L 272.65 138.19 L 276.30 142.51 L 279.95 146.61 L 283.60 149.24 L 287.25 145.98 L 290.90 144.79 L 294.55 145.17 L 298.20 147.41 L 301.85 145.18 L 305.50 150.50 L 309.15 152.47 L 312.80 147.74 L 316.45 149.01 L 320.10 146.22 L 323.75 150.06 L 327.40 146.98 L 331.05 149.43 L 334.70 151.37 L 338.35 153.42 L 342.00 154.49 L 345.65 147.86 L 349.30 145.36 L 352.95 143.65 L 356.60 146.63 L 360.25 148.28 L 363.90 152.10 L 367.55 156.56 L 371.20 156.20 L 374.85 156.78 L 378.50 160.71 L 382.15 159.29 L 385.80 162.20 L 389.45 156.21 L 393.10 157.64 L 396.75 157.32 L 400.40 156.80 L 404.05 153.26 L 407.70 150.96 L 411.35 150.16 L 415.00 149.10 L 418.65 149.65 L 422.30 147.21 L 425.95 145.92 L 429.60 144.98 L 433.25 142.94 L 436.90 139.63 L 440.55 138.72 L 444.20 137.44 L 447.85 140.75 L 451.50 139.76 L 455.15 140.77 L 458.80 141.70 L 462.45 139.13 L 466.10 139.43 L 469.75 141.80 L 473.40 142.98 L 477.05 145.60 L 480.70 143.72 L 484.35 142.48 L 488.00 139.71 L 491.65 143.24 L 495.30 144.70 L 498.95 145.41 L 502.60 149.28 L 506.25 145.68 L 509.90 142.63 L 513.55 147.53 L 517.20 150.65 L 520.85 148.11 L 524.50 151.25 L 528.15 151.66 L 531.80 150.17 L 535.45 150.10 L 539.10 147.35 L 542.75 150.75 L 546.40 144.77 L 550.05 145.41 L 553.70 145.08 L 557.35 141.32 L 561.00 140.02 L 564.65 139.87 L 568.30 140.46 L 571.95 142.63 L 575.60 150.21 L 579.25 148.90 L 582.90 150.95 L 586.55 150.30 L 590.20 152.00 L 593.85 155.78 L 597.50 155.48 L 601.15 151.74 L 604.80 152.95 L 608.45 156.40 L 612.10 156.99 L 615.75 159.19 L 619.40 155.87 L 623.05 154.69 L 626.70 152.95 L 630.35 148.93 L 634.00 147.77 L 637.65 150.76 L 641.30 148.98 L 644.95 152.77 L 648.60 151.95 L 652.25 152.21 L 655.90 155.44 L 659.55 155.12 L 663.20 154.96 L 666.85 153.72 L 670.50 154.19 L 674.15 151.25 L 677.80 154.04 L 681.45 155.51 L 685.10 152.94 L 688.75 149.97 L 692.40 149.85 L 696.05 145.09 L 699.70 146.43 L 703.35 147.05 L 707.00 147.63 L 710.65 150.41 L 714.30 149.02 L 717.95 147.47 L 721.60 145.19 L 725.25 145.58 L 728.90 140.81 L 732.55 140.37 L 736.20 144.10 L 739.85 143.25 L 743.50 144.39 L 747.15 142.84 L 750.80 143.54 L 754.45 143.18 L 758.10 146.38 L 761.75 142.85 L 765.40 136.66 L 769.05 135.86 L 772.70 137.39 L 776.35 140.56 L 780.00 137.32" class="path-1" />
<path d="M 50.00 150.01 L 53.65 149.55 L 57.30 148.90 L 60.95 146.16 L 64.60 146.06 L 68.25 148.81 L 71.90 151.27 L 75.55 148.43 L 79.20 143.43 L 82.85 140.70 L 86.50 141.10 L 90.15 144.12 L 93.80 139.14 L 97.45 138.19 L 101.10 138.31 L 104.75 140.34 L 108.40 135.61 L 112.05 138.09 L 115.70 139.69 L 119.35 142.29 L 123.00 138.02 L 126.65 143.33 L 130.30 145.30 L 133.95 144.59 L 137.60 149.23 L 141.25 144.44 L 144.90 147.43 L 148.55 149.74 L 152.20 149.64 L 155.85 150.29 L 159.50 145.80 L 163.15 141.28 L 166.80 135.43 L 170.45 137.38 L 174.10 134.36 L 177.75 127.50 L 181.40 124.27 L 185.05 121.59 L 188.70 123.24 L 192.35 129.77 L 196.00 126.21 L 199.65 120.12 L 203.30 117.48 L 206.95 114.81 L 210.60 111.22 L 214.25 112.42 L 217.90 111.12 L 221.55 107.35 L 225.20 102.78 L 228.85 98.48 L 232.50 104.75 L 236.15 104.52 L 239.80 110.65 L 243.45 110.81 L 247.10 108.85 L 250.75 110.81 L 254.40 102.97 L 258.05 103.29 L 261.70 101.38 L 265.35 103.41 L 269.00 103.67 L 272.65 100.84 L 276.30 100.58 L 279.95 100.19 L 283.60 104.83 L 287.25 107.27 L 290.90 109.15 L 294.55 107.91 L 298.20 111.41 L 301.85 115.16 L 305.50 113.99 L 309.15 108.06 L 312.80 108.37 L 316.45 108.00 L 320.10 108.03 L 323.75 113.14 L 327.40 119.22 L 331.05 121.94 L 334.70 119.11 L 338.35 122.66 L 342.00 114.52 L 345.65 108.36 L 349.30 107.12 L 352.95 108.00 L 356.60 106.48 L 360.25 104.99 L 363.90 100.26 L 367.55 99.04 L 371.20 99.79 L 374.85 96.34 L 378.50 95.95 L 382.15 97.42 L 385.80 96.27 L 389.45 96.73 L 393.10 89.37 L 396.75 93.53 L 400.40 97.30 L 404.05 89.87 L 407.70 92.25 L 411.35 92.11 L 415.00 94.14 L 418.65 88.24 L 422.30 91.37 L 425.95 92.87 L 429.60 96.20 L 433.25 99.92 L 436.90 100.99 L 440.55 103.82 L 444.20 105.18 L 447.85 102.35 L 451.50 104.22 L 455.15 101.80 L 458.80 100.88 L 462.45 101.72 L 466.10 102.09 L 469.75 103.02 L 473.40 103.52 L 477.05 100.63 L 480.70 101.58 L 484.35 100.24 L 488.00 98.67 L 491.65 96.66 L 495.30 95.23 L 498.95 99.50 L 502.60 95.98 L 506.25 99.83 L 509.90 93.64 L 513.55 89.09 L 517.20 86.87 L 520.85 80.36 L 524.50 79.09 L 528.15 76.34 L 531.80 79.76 L 535.45 75.88 L 539.10 77.67 L 542.75 76.23 L 546.40 73.85 L 550.05 72.40 L 553.70 73.63 L 557.35 76.43 L 561.00 80.75 L 564.65 84.28 L 568.30 87.19 L 571.95 87.76 L 575.60 86.77 L 579.25 83.42 L 582.90 78.64 L 586.55 71.75 L 590.20 69.55 L 593.85 74.25 L 597.50 72.03 L 601.15 74.94 L 604.80 73.82 L 608.45 72.35 L 612.10 70.53 L 615.75 65.38 L 619.40 67.78 L 623.05 67.79 L 626.70 72.89 L 630.35 70.46 L 634.00 72.73 L 637.65 73.59 L 641.30 75.41 L 644.95 74.71 L 648.60 75.86 L 652.25 78.63 L 655.90 87.21 L 659.55 87.83 L 663.20 86.27 L 666.85 92.13 L 670.50 93.45 L 674.15 92.35 L 677.80 98.19 L 681.45 104.39 L 685.10 108.49 L 688.75 111.01 L 692.40 108.75 L 696.05 107.32 L 699.70 105.62 L 703.35 105.04 L 707.00 97.73 L 710.65 105.81 L 714.30 108.63 L 717.95 112.53 L 721.60 113.06 L 725.25 116.71 L 728.90 121.56 L 732.55 124.87 L 736.20 127.43 L 739.85 125.86 L 743.50 125.75 L 747.15 127.28 L 750.80 131.78 L 754.45 133.32 L 758.10 136.68 L 761.75 134.90 L 765.40 132.20 L 769.05 126.66 L 772.70 129.44 L 776.35 130.25 L 780.00 132.51" class="path-2" />
<path d="M 50.00 150.01 L 53.65 153.74 L 57.30 151.05 L 60.95 149.59 L 64.60 147.32 L 68.25 150.62 L 71.90 151.92 L 75.55 152.76 L 79.20 146.47 L 82.85 140.26 L 86.50 137.61 L 90.15 138.96 L 93.80 133.38 L 97.45 131.64 L 101.10 136.10 L 104.75 141.32 L 108.40 139.49 L 112.05 141.95 L 115.70 143.72 L 119.35 144.44 L 123.00 146.92 L 126.65 150.65 L 130.30 153.35 L 133.95 153.13 L 137.60 154.39 L 141.25 151.73 L 144.90 153.50 L 148.55 151.52 L 152.20 147.22 L 155.85 146.76 L 159.50 141.97 L 163.15 142.74 L 166.80 136.43 L 170.45 140.27 L 174.10 141.91 L 177.75 146.78 L 181.40 147.75 L 185.05 140.46 L 188.70 140.26 L 192.35 139.95 L 196.00 138.87 L 199.65 142.86 L 203.30 147.37 L 206.95 143.44 L 210.60 142.05 L 214.25 142.66 L 217.90 145.66 L 221.55 144.60 L 225.20 139.84 L 228.85 140.56 L 232.50 141.01 L 236.15 134.20 L 239.80 131.95 L 243.45 129.78 L 247.10 131.37 L 250.75 126.67 L 254.40 125.08 L 258.05 122.60 L 261.70 114.91 L 265.35 122.12 L 269.00 122.31 L 272.65 124.68 L 276.30 121.30 L 279.95 121.95 L 283.60 122.20 L 287.25 122.06 L 290.90 124.03 L 294.55 129.43 L 298.20 130.57 L 301.85 127.34 L 305.50 124.84 L 309.15 126.34 L 312.80 127.89 L 316.45 124.89 L 320.10 127.83 L 323.75 127.79 L 327.40 125.91 L 331.05 126.44 L 334.70 130.89 L 338.35 133.82 L 342.00 129.55 L 345.65 129.56 L 349.30 130.83 L 352.95 130.80 L 356.60 127.37 L 360.25 132.53 L 363.90 133.35 L 367.55 132.72 L 371.20 128.85 L 374.85 130.24 L 378.50 129.58 L 382.15 129.67 L 385.80 128.14 L 389.45 128.73 L 393.10 128.18 L 396.75 126.03 L 400.40 122.52 L 404.05 118.90 L 407.70 115.58 L 411.35 115.74 L 415.00 116.12 L 418.65 122.03 L 422.30 124.56 L 425.95 124.07 L 429.60 123.45 L 433.25 123.92 L 436.90 122.90 L 440.55 125.59 L 444.20 127.63 L 447.85 129.97 L 451.50 137.52 L 455.15 139.19 L 458.80 143.61 L 462.45 142.13 L 466.10 139.16 L 469.75 139.19 L 473.40 143.75 L 477.05 140.72 L 480.70 146.90 L 484.35 146.74 L 488.00 149.53 L 491.65 149.64 L 495.30 150.38 L 498.95 151.08 L 502.60 148.78 L 506.25 145.29 L 509.90 144.52 L 513.55 144.12 L 517.20 140.63 L 520.85 144.95 L 524.50 146.45 L 528.15 149.22 L 531.80 150.15 L 535.45 147.83 L 539.10 147.96 L 542.75 146.78 L 546.40 144.21 L 550.05 143.01 L 553.70 142.44 L 557.35 146.60 L 561.00 144.04 L 564.65 144.76 L 568.30 141.41 L 571.95 142.48 L 575.60 147.46 L 579.25 151.44 L 582.90 151.27 L 586.55 151.55 L 590.20 147.63 L 593.85 145.66 L 597.50 144.81 L 601.15 146.35 L 604.80 145.00 L 608.45 148.34 L 612.10 146.39 L 615.75 154.64 L 619.40 155.37 L 623.05 157.42 L 626.70 157.67 L 630.35 157.36 L 634.00 155.08 L 637.65 155.41 L 641.30 154.45 L 644.95 150.05 L 648.60 140.42 L 652.25 143.73 L 655.90 143.46 L 659.55 143.44 L 663.20 144.70 L 666.85 152.25 L 670.50 152.45 L 674.15 150.95 L 677.80 149.50 L 681.45 150.62 L 685.10 152.76 L 688.75 153.38 L 692.40 157.11 L 696.05 153.51 L 699.70 147.84 L 703.35 152.30 L 707.00 150.40 L 710.65 148.29 L 714.30 149.79 L 717.95 149.69 L 721.60 148.56 L 725.25 146.75 L 728.90 141.88 L 732.55 139.63 L 736.20 136.68 L 739.85 138.29 L 743.50 129.67 L 747.15 124.66 L 750.80 126.39 L 754.45 128.33 L 758.10 134.09 L 761.75 131.94 L 765.40 133.01 L 769.05 135.86 L 772.70 136.80 L 776.35 132.05 L 780.00 133.38" class="path-3" />
<path d="M 50.00 150.01 L 53.65 146.37 L 57.30 139.87 L 60.95 142.65 L 64.60 141.99 L 68.25 140.14 L 71.90 142.52 L 75.55 137.95 L 79.20 143.52 L 82.85 142.91 L 86.50 145.70 L 90.15 142.46 L 93.80 142.90 L 97.45 145.49 L 101.10 149.07 L 104.75 148.99 L 108.40 149.92 L 112.05 157.25 L 115.70 157.44 L 119.35 160.91 L 123.00 160.67 L 126.65 159.00 L 130.30 155.00 L 133.95 159.55 L 137.60 161.24 L 141.25 164.45 L 144.90 165.83 L 148.55 171.67 L 152.20 171.77 L 155.85 176.40 L 159.50 175.86 L 163.15 174.32 L 166.80 173.52 L 170.45 172.43 L 174.10 169.11 L 177.75 166.97 L 181.40 165.98 L 185.05 170.68 L 188.70 174.47 L 192.35 168.33 L 196.00 165.38 L 199.65 167.13 L 203.30 164.73 L 206.95 165.06 L 210.60 167.32 L 214.25 165.25 L 217.90 164.20 L 221.55 163.61 L 225.20 165.58 L 228.85 167.78 L 232.50 169.48 L 236.15 164.92 L 239.80 162.25 L 243.45 166.72 L 247.10 171.34 L 250.75 171.38 L 254.40 175.38 L 258.05 178.11 L 261.70 172.28 L 265.35 169.07 L 269.00 173.88 L 272.65 174.69 L 276.30 179.47 L 279.95 180.22 L 283.60 174.99 L 287.25 175.48 L 290.90 174.75 L 294.55 178.12 L 298.20 182.34 L 301.85 185.85 L 305.50 184.13 L 309.15 185.34 L 312.80 182.46 L 316.45 179.79 L 320.10 178.97 L 323.75 175.07 L 327.40 178.09 L 331.05 178.58 L 334.70 178.43 L 338.35 179.75 L 342.00 180.93 L 345.65 178.36 L 349.30 179.13 L 352.95 178.22 L 356.60 181.35 L 360.25 182.85 L 363.90 178.82 L 367.55 179.00 L 371.20 179.74 L 374.85 182.76 L 378.50 181.93 L 382.15 185.33 L 385.80 184.36 L 389.45 182.21 L 393.10 182.00 L 396.75 182.20 L 400.40 182.18 L 404.05 179.32 L 407.70 178.68 L 411.35 175.68 L 415.00 179.11 L 418.65 179.43 L 422.30 181.49 L 425.95 179.63 L 429.60 175.33 L 433.25 176.79 L 436.90 176.62 L 440.55 176.52 L 444.20 170.68 L 447.85 177.01 L 451.50 177.35 L 455.15 180.39 L 458.80 180.24 L 462.45 184.08 L 466.10 191.48 L 469.75 198.99 L 473.40 199.41 L 477.05 205.93 L 480.70 205.71 L 484.35 207.48 L 488.00 209.30 L 491.65 208.40 L 495.30 207.87 L 498.95 207.62 L 502.60 206.80 L 506.25 206.18 L 509.90 204.59 L 513.55 202.22 L 517.20 198.86 L 520.85 195.79 L 524.50 195.85 L 528.15 196.09 L 531.80 199.69 L 535.45 200.30 L 539.10 198.65 L 542.75 200.63 L 546.40 203.28 L 550.05 199.29 L 553.70 195.05 L 557.35 195.15 L 561.00 199.96 L 564.65 204.17 L 568.30 206.60 L 571.95 207.97 L 575.60 209.76 L 579.25 206.54 L 582.90 207.66 L 586.55 206.66 L 590.20 208.09 L 593.85 210.29 L 597.50 211.64 L 601.15 218.41 L 604.80 218.99 L 608.45 222.40 L 612.10 222.83 L 615.75 220.46 L 619.40 218.29 L 623.05 218.79 L 626.70 220.44 L 630.35 214.58 L 634.00 219.34 L 637.65 219.94 L 641.30 219.22 L 644.95 220.66 L 648.60 225.84 L 652.25 230.58 L 655.90 224.62 L 659.55 221.14 L 663.20 224.14 L 666.85 229.66 L 670.50 227.92 L 674.15 226.27 L 677.80 224.88 L 681.45 228.26 L 685.10 229.52 L 688.75 227.05 L 692.40 227.50 L 696.05 227.51 L 699.70 231.00 L 703.35 234.62 L 707.00 233.18 L 710.65 226.32 L 714.30 231.73 L 717.95 232.39 L 721.60 229.59 L 725.25 228.66 L 728.90 227.85 L 732.55 229.19 L 736.20 225.37 L 739.85 223.62 L 743.50 224.54 L 747.15 222.00 L 750.80 214.22 L 754.45 212.26 L 758.10 208.09 L 761.75 201.55 L 765.40 203.32 L 769.05 201.09 L 772.70 202.81 L 776.35 203.48 L 780.00 203.28" class="path-4" />
<line x1="50" y1="150.0" x2="780" y2="150.0" stroke="#4b5563" stroke-width="0.8" stroke-dasharray="6 3" />
</svg>