<svg xmlns="http://www.w3.org/2000/svg" viewBox="0 0 800 300" width="800" height="300">
<style>
.axis-line { stroke: #6b7280; stroke-width: 0.5; }
.axis-text { font-family: monospace; font-size: 11px; fill: #9ca3af; }
.title-text { font-family: monospace; font-size: 14px; fill: #d1d5db; font-weight: bold; }
.grid-line { stroke: #374151; stroke-width: 0.3; stroke-dasharray: 4 2; }
.path-0 { fill: none; stroke: #3b82f6; stroke-width: 2; stroke-linecap: round; opacity: 0.85; animation: draw-0 8s ease-in-out 0.0s infinite; stroke-dasharray: 923; stroke-dashoffset: 923;}
@keyframes draw-0 { 0% { stroke-dashoffset: 923; } 38% { stroke-dashoffset: 0; } 62% { stroke-dashoffset: 0; } 100% { stroke-dashoffset: 923; }}
.path-1 { fill: none; stroke: #ef4444; stroke-width: 2; stroke-linecap: round; opacity: 0.85; animation: draw-1 8s ease-in-out 0.4s infinite; stroke-dasharray: 972; stroke-dashoffset: 972;}
@keyframes draw-1 { 0% { stroke-dashoffset: 972; } 38% { stroke-dashoffset: 0; } 62% { stroke-dashoffset: 0; } 100% { stroke-dashoffset: 972; }}
.path-2 { fill: none; stroke: #22c55e; stroke-width: 2; stroke-linecap: round; opacity: 0.85; animation: draw-2 8s ease-in-out 0.8s infinite; stroke-dasharray: 948; stroke-dashoffset: 948;}
@keyframes draw-2 { 0% { stroke-dashoffset: 948; } 38% { stroke-dashoffset: 0; } 62% { stroke-dashoffset: 0; } 100% { stroke-dashoffset: 948; }}
.path-3 { fill: none; stroke: #f59e0b; stroke-width: 2; stroke-linecap: round; opacity: 0.85; animation: draw-3 8s ease-in-out 1.2000000000000002s infinite; stroke-dasharray: 937; stroke-dashoffset: 937;}
@keyframes draw-3 { 0% { stroke-dashoffset: 937; } 38% { stroke-dashoffset: 0; } 62% { stroke-dashoffset: 0; } 100% { stroke-dashoffset: 937; }}
.path-4 { fill: none; stroke: #a855f7; stroke-width: 2; stroke-linecap: round; opacity: 0.85; animation: draw-4 8s ease-in-out 1.6s infinite; stroke-dasharray: 917; stroke-dashoffset: 917;}
@keyframes draw-4 { 0% { stroke-dashoffset: 917; } 38% { stroke-dashoffset: 0; } 62% { stroke-dashoffset: 0; } 100% { stroke-dashoffset: 917; }}
</style>
<rect width="800" height="300" rx="8" fill="#0d1117" />
<line x1="50" y1="260.0" x2="780" y2="260.0" class="grid-line" />
<text x="44" y="264.0" text-anchor="end" class="axis-text">-2.7</text>
<line x1="50" y1="216.0" x2="780" y2="216.0" class="grid-line" />
<text x="44" y="220.0" text-anchor="end" class="axis-text">-1.7</text>
<line x1="50" y1="172.0" x2="780" y2="172.0" class="grid-line" />
<text x="44" y="176.0" text-anchor="end" class="axis-text">-0.7</text>
<line x1="50" y1="128.0" x2="780" y2="128.0" class="grid-line" />
<text x="44" y="132.0" text-anchor="end" class="axis-text">0.3</text>
<line x1="50" y1="84.0" x2="780" y2="84.0" class="grid-line" />
<text x="44" y="88.0" text-anchor="end" class="axis-text">1.3</text>
<line x1="50" y1="40.0" x2="780" y2="40.0" class="grid-line" />
<text x="44" y="44.0" text-anchor="end" class="axis-text">2.3</text>
<line x1="50.0" y1="40" x2="50.0" y2="260" class="grid-line" />
<line x1="196.0" y1="40" x2="196.0" y2="260" class="grid-line" />
<line x1="342.0" y1="40" x2="342.0" y2="260" class="grid-line" />
<line x1="488.0" y1="40" x2="488.0" y2="260" class="grid-line" />
<line x1="634.0" y1="40" x2="634.0" y2="260" class="grid-line" />
<line x1="780.0" y1="40" x2="780.0" y2="260" class="grid-line" />
<line x1="50" y1="260" x2="780" y2="260" class="axis-line" />
<line x1="50" y1="40" x2="50" y2="260" class="axis-line" />
<text x="400.0" y="295" text-anchor="middle" class="axis-text">t</text>
<text x="12" y="150.0" text-anchor="middle" class="axis-text" transform="rotate(-90 12 150.0)">W(t)</text>
<text x="400.0" y="22" text-anchor="middle" class="title-text">Brownian Motion</text>
<path d="M 50.00 139.72 L 53.65 146.74 L 57.30 148.99 L 60.95 148.41 L 64.60 150.50 L 68.25 152.44 L 71.90 155.76 L 75.55 154.27 L 79.20 156.23 L 82.85 158.20 L 86.50 157.60 L 90.15 155.16 L 93.80 147.94 L 97.45 147.69 L 101.10 149.30 L 104.75 152.43 L 108.40 154.67 L 112.05 160.97 L 115.70 158.17 L 119.35 156.36 L 123.00 158.89 L 126.65 160.56 L 130.30 165.39 L 133.95 163.00 L 137.60 160.26 L 141.25 160.79 L 144.90 164.42 L 148.55 163.22 L 152.20 160.50 L 155.85 158.95 L 159.50 160.76 L 163.15 159.72 L 166.80 163.12 L 170.45 168.44 L 174.10 169.14 L 177.75 167.29 L 181.40 171.72 L 185.05 173.43 L 188.70 172.36 L 192.35 175.87 L 196.00 173.57 L 199.65 173.00 L 203.30 170.04 L 206.95 170.24 L 210.60 167.85 L 214.25 164.81 L 217.90 167.38 L 221.55 163.54 L 225.20 165.21 L 228.85 163.91 L 232.50 165.24 L 236.15 165.78 L 239.80 165.59 L 243.45 163.90 L 247.10 169.85 L 250.75 166.15 L 254.40 167.37 L 258.05 171.17 L 261.70 170.85 L 265.35 172.47 L 269.00 170.24 L 272.65 171.79 L 276.30 172.45 L 279.95 175.42 L 283.60 172.96 L 287.25 171.23 L 290.90 170.71 L 294.55 171.49 L 298.20 170.60 L 301.85 174.05 L 305.50 184.06 L 309.15 183.91 L 312.80 186.47 L 316.45 189.75 L 320.10 188.73 L 323.75 192.20 L 327.40 191.35 L 331.05 194.48 L 334.70 198.43 L 338.35 199.57 L 342.00 199.62 L 345.65 199.29 L 349.30 204.24 L 352.95 208.96 L 356.60 206.45 L 360.25 203.35 L 363.90 211.15 L 367.55 212.53 L 371.20 214.13 L 374.85 217.42 L 378.50 220.48 L 382.15 218.36 L 385.80 220.27 L 389.45 219.32 L 393.10 221.36 L 396.75 225.02 L 400.40 225.71 L 404.05 222.93 L 407.70 221.23 L 411.35 219.03 L 415.00 219.47 L 418.65 217.21 L 422.30 220.64 L 425.95 220.68 L 429.60 217.10 L 433.25 220.31 L 436.90 227.36 L 440.55 227.64 L 444.20 231.47 L 447.85 231.73 L 451.50 230.58 L 455.15 230.61 L 458.80 231.66 L 462.45 229.61 L 466.10 228.49 L 469.75 224.51 L 473.40 229.10 L 477.05 229.90 L 480.70 231.72 L 484.35 230.41 L 488.00 227.93 L 491.65 228.79 L 495.30 232.82 L 498.95 230.75 L 502.60 234.62 L 506.25 231.61 L 509.90 225.86 L 513.55 227.54 L 517.20 224.19 L 520.85 224.93 L 524.50 223.52 L 528.15 223.33 L 531.80 218.38 L 535.45 221.94 L 539.10 228.03 L 542.75 229.56 L 546.40 230.91 L 550.05 231.44 L 553.70 233.55 L 557.35 231.33 L 561.00 229.66 L 564.65 222.68 L 568.30 220.31 L 571.95 222.36 L 575.60 225.57 L 579.25 220.61 L 582.90 223.92 L 586.55 225.18 L 590.20 223.26 L 593.85 221.54 L 597.50 217.01 L 601.15 217.92 L 604.80 220.77 L 608.45 222.71 L 612.10 220.97 L 615.75 221.02 L 619.40 216.88 L 623.05 214.90 L 626.70 218.27 L 630.35 220.42 L 634.00 218.74 L 637.65 217.74 L 641.30 218.23 L 644.95 217.06 L 648.60 216.65 L 652.25 219.17 L 655.90 222.69 L 659.55 223.96 L 663.20 225.03 L 666.85 226.11 L 670.50 228.33 L 674.15 226.81 L 677.80 223.95 L 681.45 225.77 L 685.10 221.25 L 688.75 220.90 L 692.40 220.44 L 696.05 219.59 L 699.70 223.16 L 703.35 224.10 L 707.00 223.54 L 710.65 224.36 L 714.30 222.61 L 717.95 218.88 L 721.60 215.92 L 725.25 210.19 L 728.90 210.99 L 732.55 210.98 L 736.20 212.09 L 739.85 210.05 L 743.50 217.85 L 747.15 214.59 L 750.80 218.43 L 754.45 215.25 L 758.10 221.07 L 761.75 220.34 L 765.40 222.58 L 769.05 218.77 L 772.70 217.35 L 776.35 215.98 L 780.00 209.69" class="path-0" />
<path d="M 50.00 139.72 L 53.65 136.06 L 57.30 131.67 L 60.95 135.78 L 64.60 134.31 L 68.25 134.88 L 71.90 139.44 L 75.55 143.35 L 79.20 148.80 L 82.85 155.99 L 86.50 160.92 L 90.15 159.07 L 93.80 153.56 L 97.45 149.42 L 101.10 150.39 L 104.75 147.36 L 108.40 143.44 L 112.05 142.02 L 115.70 136.73 L 119.35 139.03 L 123.00 138.24 L 126.65 140.69 L 130.30 139.71 L 133.95 138.78 L 137.60 140.06 L 141.25 145.81 L 144.90 143.43 L 148.55 147.62 L 152.20 143.88 L 155.85 142.95 L 159.50 139.78 L 163.15 143.15 L 166.80 140.25 L 170.45 134.22 L 174.10 133.23 L 177.75 131.54 L 181.40 131.28 L 185.05 137.50 L 188.70 138.30 L 192.35 134.31 L 196.00 130.96 L 199.65 134.79 L 203.30 135.47 L 206.95 132.49 L 210.60 132.78 L 214.25 133.53 L 217.90 126.81 L 221.55 123.59 L 225.20 125.17 L 228.85 124.30 L 232.50 122.38 L 236.15 119.70 L 239.80 118.67 L 243.45 116.53 L 247.10 118.73 L 250.75 120.40 L 254.40 127.66 L 258.05 129.13 L 261.70 126.62 L 265.35 126.53 L 269.00 121.73 L 272.65 126.53 L 276.30 120.75 L 279.95 115.37 L 283.60 111.55 L 287.25 110.63 L 290.90 111.69 L 294.55 113.33 L 298.20 113.75 L 301.85 113.34 L 305.50 116.56 L 309.15 114.51 L 312.80 112.13 L 316.45 111.48 L 320.10 109.86 L 323.75 104.26 L 327.40 103.65 L 331.05 101.37 L 334.70 103.47 L 338.35 105.32 L 342.00 98.42 L 345.65 97.06 L 349.30 91.96 L 352.95 85.91 L 356.60 85.09 L 360.25 84.54 L 363.90 81.74 L 367.55 81.81 L 371.20 82.03 L 374.85 79.31 L 378.50 78.69 L 382.15 79.57 L 385.80 73.88 L 389.45 85.08 L 393.10 84.78 L 396.75 85.11 L 400.40 86.47 L 404.05 84.50 L 407.70 81.74 L 411.35 79.19 L 415.00 76.28 L 418.65 73.59 L 422.30 75.47 L 425.95 79.32 L 429.60 77.92 L 433.25 85.07 L 436.90 80.29 L 440.55 83.20 L 444.20 80.17 L 447.85 82.68 L 451.50 81.89 L 455.15 86.59 L 458.80 92.68 L 462.45 88.76 L 466.10 93.23 L 469.75 96.44 L 473.40 96.77 L 477.05 99.95 L 480.70 98.95 L 484.35 103.00 L 488.00 101.59 L 491.65 103.39 L 495.30 100.83 L 498.95 93.19 L 502.60 101.16 L 506.25 102.93 L 509.90 98.71 L 513.55 98.58 L 517.20 98.26 L 520.85 102.97 L 524.50 102.72 L 528.15 107.52 L 531.80 102.53 L 535.45 104.74 L 539.10 108.57 L 542.75 111.36 L 546.40 114.78 L 550.05 111.77 L 553.70 117.78 L 557.35 117.91 L 561.00 122.61 L 564.65 122.37 L 568.30 121.90 L 571.95 124.04 L 575.60 121.08 L 579.25 120.78 L 582.90 123.41 L 586.55 116.96 L 590.20 117.02 L 593.85 114.36 L 597.50 116.93 L 601.15 111.49 L 604.80 110.46 L 608.45 110.89 L 612.10 108.09 L 615.75 109.97 L 619.40 109.60 L 623.05 107.29 L 626.70 106.98 L 630.35 103.70 L 634.00 106.28 L 637.65 102.60 L 641.30 100.68 L 644.95 97.51 L 648.60 98.12 L 652.25 97.46 L 655.90 98.66 L 659.55 98.65 L 663.20 98.74 L 666.85 102.35 L 670.50 95.71 L 674.15 93.69 L 677.80 87.87 L 681.45 86.63 L 685.10 95.90 L 688.75 94.46 L 692.40 95.20 L 696.05 96.22 L 699.70 96.51 L 703.35 93.26 L 707.00 93.56 L 710.65 89.59 L 714.30 90.76 L 717.95 93.44 L 721.60 98.85 L 725.25 100.24 L 728.90 102.18 L 732.55 101.01 L 736.20 99.35 L 739.85 96.23 L 743.50 95.61 L 747.15 98.30 L 750.80 95.08 L 754.45 93.53 L 758.10 93.04 L 761.75 91.69 L 765.40 88.28 L 769.05 89.18 L 772.70 85.97 L 776.35 89.32 L 780.00 84.23" class="path-1" />
<path d="M 50.00 139.72 L 53.65 144.47 L 57.30 137.53 L 60.95 136.78 L 64.60 132.34 L 68.25 126.78 L 71.90 132.35 L 75.55 133.80 L 79.20 131.24 L 82.85 135.33 L 86.50 140.47 L 90.15 139.24 L 93.80 136.47 L 97.45 135.16 L 101.10 135.62 L 104.75 141.61 L 108.40 139.11 L 112.05 136.40 L 115.70 136.56 L 119.35 134.98 L 123.00 134.28 L 126.65 136.82 L 130.30 141.62 L 133.95 139.60 L 137.60 130.77 L 141.25 129.19 L 144.90 131.28 L 148.55 129.18 L 152.20 124.35 L 155.85 125.90 L 159.50 123.36 L 163.15 124.98 L 166.80 123.91 L 170.45 121.96 L 174.10 118.79 L 177.75 112.93 L 181.40 114.88 L 185.05 121.74 L 188.70 119.77 L 192.35 115.87 L 196.00 115.42 L 199.65 114.79 L 203.30 109.53 L 206.95 106.83 L 210.60 107.14 L 214.25 103.15 L 217.90 106.48 L 221.55 108.26 L 225.20 111.35 L 228.85 115.02 L 232.50 121.22 L 236.15 125.54 L 239.80 124.35 L 243.45 120.94 L 247.10 122.36 L 250.75 125.33 L 254.40 129.11 L 258.05 131.16 L 261.70 131.58 L 265.35 130.15 L 269.00 133.71 L 272.65 138.04 L 276.30 135.96 L 279.95 133.49 L 283.60 128.97 L 287.25 124.37 L 290.90 120.10 L 294.55 124.14 L 298.20 129.95 L 301.85 124.57 L 305.50 125.96 L 309.15 127.12 L 312.80 125.94 L 316.45 120.16 L 320.10 111.66 L 323.75 112.89 L 327.40 114.51 L 331.05 112.22 L 334.70 114.95 L 338.35 114.34 L 342.00 114.51 L 345.65 114.24 L 349.30 119.94 L 352.95 123.91 L 356.60 128.19 L 360.25 128.62 L 363.90 128.93 L 367.55 127.84 L 371.20 133.20 L 374.85 134.74 L 378.50 138.04 L 382.15 136.53 L 385.80 133.23 L 389.45 128.52 L 393.10 124.90 L 396.75 126.82 L 400.40 126.02 L 404.05 128.55 L 407.70 126.43 L 411.35 130.15 L 415.00 130.36 L 418.65 130.20 L 422.30 127.93 L 425.95 126.61 L 429.60 129.29 L 433.25 130.20 L 436.90 130.55 L 440.55 131.87 L 444.20 132.92 L 447.85 132.05 L 451.50 136.34 L 455.15 141.90 L 458.80 143.74 L 462.45 141.49 L 466.10 143.96 L 469.75 143.30 L 473.40 145.45 L 477.05 142.74 L 480.70 140.36 L 484.35 141.52 L 488.00 140.54 L 491.65 142.05 L 495.30 136.99 L 498.95 134.43 L 502.60 131.01 L 506.25 133.54 L 509.90 134.64 L 513.55 133.59 L 517.20 138.45 L 520.85 139.17 L 524.50 143.32 L 528.15 143.67 L 531.80 142.31 L 535.45 148.00 L 539.10 154.23 L 542.75 150.13 L 546.40 153.83 L 550.05 154.41 L 553.70 156.01 L 557.35 154.95 L 561.00 157.86 L 564.65 158.97 L 568.30 157.04 L 571.95 157.02 L 575.60 157.39 L 579.25 155.38 L 582.90 156.97 L 586.55 160.35 L 590.20 160.19 L 593.85 165.78 L 597.50 168.07 L 601.15 171.13 L 604.80 174.51 L 608.45 171.86 L 612.10 173.55 L 615.75 173.54 L 619.40 173.77 L 623.05 171.91 L 626.70 174.13 L 630.35 171.93 L 634.00 171.05 L 637.65 169.45 L 641.30 169.10 L 644.95 169.65 L 648.60 174.59 L 652.25 173.00 L 655.90 179.06 L 659.55 182.67 L 663.20 190.32 L 666.85 187.91 L 670.50 188.48 L 674.15 187.04 L 677.80 190.14 L 681.45 195.25 L 685.10 196.31 L 688.75 199.53 L 692.40 201.72 L 696.05 203.72 L 699.70 207.81 L 703.35 205.14 L 707.00 203.44 L 710.65 199.33 L 714.30 197.12 L 717.95 197.88 L 721.60 198.30 L 725.25 201.00 L 728.90 203.40 L 732.55 199.63 L 736.20 203.85 L 739.85 202.27 L 743.50 203.69 L 747.15 202.20 L 750.80 202.19 L 754.45 198.31 L 758.10 196.94 L 761.75 200.25 L 765.40 200.50 L 769.05 203.65 L 772.70 202.59 L 776.35 203.18 L 780.00 204.82" class="path-2" />
<path d="M 50.00 139.72 L 53.65 140.01 L 57.30 138.75 L 60.95 135.60 L 64.60 135.91 L 68.25 136.95 L 71.90 136.44 L 75.55 133.86 L 79.20 136.82 L 82.85 141.96 L 86.50 145.22 L 90.15 145.06 L 93.80 143.21 L 97.45 143.31 L 101.10 144.40 L 104.75 147.60 L 108.40 147.05 L 112.05 145.53 L 115.70 142.78 L 119.35 139.97 L 123.00 142.50 L 126.65 135.72 L 130.30 135.22 L 133.95 131.95 L 137.60 131.00 L 141.25 125.88 L 144.90 124.57 L 148.55 125.79 L 152.20 124.55 L 155.85 127.66 L 159.50 122.47 L 163.15 119.37 L 166.80 125.15 L 170.45 121.48 L 174.10 118.83 L 177.75 118.52 L 181.40 121.86 L 185.05 121.61 L 188.70 117.65 L 192.35 121.96 L 196.00 123.37 L 199.65 122.03 L 203.30 116.22 L 206.95 115.78 L 210.60 110.73 L 214.25 108.77 L 217.90 103.89 L 221.55 102.27 L 225.20 98.55 L 228.85 98.13 L 232.50 98.58 L 236.15 103.78 L 239.80 101.15 L 243.45 103.82 L 247.10 102.01 L 250.75 98.08 L 254.40 96.56 L 258.05 91.25 L 261.70 93.65 L 265.35 94.49 L 269.00 94.39 L 272.65 86.37 L 276.30 85.60 L 279.95 84.24 L 283.60 83.42 L 287.25 81.98 L 290.90 83.47 L 294.55 75.48 L 298.20 78.22 L 301.85 79.65 L 305.50 81.66 L 309.15 77.27 L 312.80 78.20 L 316.45 75.28 L 320.10 73.78 L 323.75 72.55 L 327.40 65.86 L 331.05 68.47 L 334.70 66.14 L 338.35 72.23 L 342.00 73.03 L 345.65 69.75 L 349.30 70.64 L 352.95 65.38 L 356.60 67.26 L 360.25 69.45 L 363.90 73.20 L 367.55 75.58 L 371.20 67.74 L 374.85 69.29 L 378.50 69.79 L 382.15 73.71 L 385.80 74.17 L 389.45 75.87 L 393.10 78.50 L 396.75 76.75 L 400.40 76.96 L 404.05 76.70 L 407.70 76.29 L 411.35 77.85 L 415.00 81.24 L 418.65 76.99 L 422.30 77.66 L 425.95 80.73 L 429.60 82.63 L 433.25 77.87 L 436.90 79.32 L 440.55 77.80 L 444.20 78.44 L 447.85 79.26 L 451.50 83.21 L 455.15 80.68 L 458.80 80.09 L 462.45 77.27 L 466.10 78.36 L 469.75 74.65 L 473.40 73.29 L 477.05 71.41 L 480.70 72.19 L 484.35 79.12 L 488.00 76.30 L 491.65 75.20 L 495.30 77.45 L 498.95 74.86 L 502.60 72.36 L 506.25 68.69 L 509.90 70.25 L 513.55 73.68 L 517.20 74.96 L 520.85 77.97 L 524.50 76.88 L 528.15 80.71 L 531.80 82.44 L 535.45 82.68 L 539.10 86.42 L 542.75 88.06 L 546.40 90.72 L 550.05 87.42 L 553.70 92.39 L 557.35 86.28 L 561.00 88.94 L 564.65 89.85 L 568.30 96.63 L 571.95 94.48 L 575.60 99.69 L 579.25 96.08 L 582.90 89.32 L 586.55 90.83 L 590.20 86.69 L 593.85 89.46 L 597.50 92.79 L 601.15 93.96 L 604.80 93.95 L 608.45 90.40 L 612.10 89.79 L 615.75 88.79 L 619.40 94.06 L 623.05 95.52 L 626.70 98.34 L 630.35 94.94 L 634.00 95.09 L 637.65 91.93 L 641.30 90.02 L 644.95 89.20 L 648.60 91.06 L 652.25 91.29 L 655.90 87.71 L 659.55 86.48 L 663.20 86.47 L 666.85 87.87 L 670.50 89.35 L 674.15 87.79 L 677.80 93.59 L 681.45 96.92 L 685.10 96.48 L 688.75 92.11 L 692.40 94.03 L 696.05 91.75 L 699.70 92.26 L 703.35 99.35 L 707.00 100.88 L 710.65 98.68 L 714.30 99.15 L 717.95 100.34 L 721.60 103.10 L 725.25 102.77 L 728.90 105.60 L 732.55 101.40 L 736.20 98.30 L 739.85 97.25 L 743.50 99.02 L 747.15 97.01 L 750.80 98.41 L 754.45 96.16 L 758.10 94.97 L 761.75 100.27 L 765.40 95.00 L 769.05 97.89 L 772.70 98.94 L 776.35 97.65 L 780.00 93.64" class="path-3" />
<path d="M 50.00 139.72 L 53.65 142.91 L 57.30 150.53 L 60.95 152.44 L 64.60 152.34 L 68.25 154.45 L 71.90 152.96 L 75.55 152.64 L 79.20 153.76 L 82.85 153.00 L 86.50 152.32 L 90.15 159.89 L 93.80 155.75 L 97.45 153.52 L 101.10 159.27 L 104.75 156.46 L 108.40 157.38 L 112.05 149.10 L 115.70 148.36 L 119.35 147.70 L 123.00 152.58 L 126.65 148.60 L 130.30 149.26 L 133.95 152.10 L 137.60 153.78 L 141.25 153.99 L 144.90 149.34 L 148.55 143.55 L 152.20 145.21 L 155.85 148.30 L 159.50 145.78 L 163.15 145.57 L 166.80 144.12 L 170.45 142.98 L 174.10 141.89 L 177.75 143.13 L 181.40 137.90 L 185.05 140.22 L 188.70 139.93 L 192.35 142.52 L 196.00 148.98 L 199.65 152.03 L 203.30 150.90 L 206.95 145.99 L 210.60 144.59 L 214.25 147.02 L 217.90 151.03 L 221.55 145.41 L 225.20 143.93 L 228.85 145.41 L 232.50 141.76 L 236.15 142.59 L 239.80 145.25 L 243.45 143.63 L 247.10 148.10 L 250.75 149.60 L 254.40 152.10 L 258.05 152.24 L 261.70 152.86 L 265.35 155.83 L 269.00 156.80 L 272.65 158.41 L 276.30 158.99 L 279.95 153.81 L 283.60 159.67 L 287.25 161.15 L 290.90 158.75 L 294.55 160.04 L 298.20 157.71 L 301.85 159.12 L 305.50 166.48 L 309.15 164.29 L 312.80 163.15 L 316.45 160.91 L 320.10 163.77 L 323.75 162.43 L 327.40 162.83 L 331.05 159.74 L 334.70 161.50 L 338.35 159.62 L 342.00 157.62 L 345.65 154.42 L 349.30 155.74 L 352.95 158.26 L 356.60 155.20 L 360.25 155.72 L 363.90 159.69 L 367.55 159.61 L 371.20 158.87 L 374.85 155.79 L 378.50 159.10 L 382.15 157.66 L 385.80 155.23 L 389.45 154.45 L 393.10 154.11 L 396.75 148.61 L 400.40 147.41 L 404.05 144.78 L 407.70 140.55 L 411.35 139.02 L 415.00 137.48 L 418.65 137.28 L 422.30 137.45 L 425.95 146.73 L 429.60 147.49 L 433.25 144.88 L 436.90 143.16 L 440.55 143.47 L 444.20 142.80 L 447.85 139.47 L 451.50 137.72 L 455.15 134.77 L 458.80 132.67 L 462.45 130.22 L 466.10 127.38 L 469.75 128.71 L 473.40 128.39 L 477.05 130.70 L 480.70 137.26 L 484.35 135.30 L 488.00 133.96 L 491.65 136.74 L 495.30 137.03 L 498.95 133.27 L 502.60 133.10 L 506.25 131.65 L 509.90 134.95 L 513.55 133.66 L 517.20 134.41 L 520.85 137.67 L 524.50 133.09 L 528.15 130.52 L 531.80 128.82 L 535.45 131.19 L 539.10 132.86 L 542.75 132.93 L 546.40 133.83 L 550.05 134.00 L 553.70 134.35 L 557.35 135.21 L 561.00 138.04 L 564.65 139.55 L 568.30 139.64 L 571.95 139.37 L 575.60 135.49 L 579.25 136.84 L 582.90 136.90 L 586.55 136.43 L 590.20 137.84 L 593.85 140.45 L 597.50 139.18 L 601.15 140.88 L 604.80 142.27 L 608.45 142.84 L 612.10 140.95 L 615.75 136.63 L 619.40 137.84 L 623.05 135.50 L 626.70 135.65 L 630.35 135.74 L 634.00 136.77 L 637.65 133.17 L 641.30 130.59 L 644.95 129.50 L 648.60 134.14 L 652.25 134.98 L 655.90 135.09 L 659.55 133.73 L 663.20 136.51 L 666.85 131.90 L 670.50 133.57 L 674.15 133.30 L 677.80 131.74 L 681.45 136.77 L 685.10 139.35 L 688.75 143.03 L 692.40 147.14 L 696.05 145.01 L 699.70 150.84 L 703.35 150.00 L 707.00 148.75 L 710.65 150.97 L 714.30 152.39 L 717.95 154.62 L 721.60 155.06 L 725.25 151.47 L 728.90 149.58 L 732.55 144.95 L 736.20 147.16 L 739.85 154.99 L 743.50 152.84 L 747.15 152.31 L 750.80 150.21 L 754.45 155.69 L 758.10 158.87 L 761.75 157.02 L 765.40 152.71 L 769.05 154.60 L 772.70 150.84 L 776.35 155.21 L 780.00 154.73" class="path-4" />
<line x1="50" y1="139.7" x2="780" y2="139.7" stroke="#4b5563" stroke-width="0.8" stroke-dasharray="6 3" />
</svg>