<svg xmlns="http://www.w3.org/2000/svg" viewBox="0 0 800 300" width="800" height="300">
<style>
.axis-line { stroke: #6b7280; stroke-width: 0.5; }
.axis-text { font-family: monospace; font-size: 11px; fill: #9ca3af; }
.title-text { font-family: monospace; font-size: 14px; fill: #d1d5db; font-weight: bold; }
.grid-line { stroke: #374151; stroke-width: 0.3; stroke-dasharray: 4 2; }
.path-0 { fill: none; stroke: #3b82f6; stroke-width: 2; stroke-linecap: round; opacity: 0.85; animation: draw-0 8s ease-in-out 0.0s infinite; stroke-dasharray: 858; stroke-dashoffset: 858;}
@keyframes draw-0 { 0% { stroke-dashoffset: 858; } 38% { stroke-dashoffset: 0; } 62% { stroke-dashoffset: 0; } 100% { stroke-dashoffset: 858; }}
.path-1 { fill: none; stroke: #ef4444; stroke-width: 2; stroke-linecap: round; opacity: 0.85; animation: draw-1 8s ease-in-out 0.4s infinite; stroke-dasharray: 840; stroke-dashoffset: 840;}
@keyframes draw-1 { 0% { stroke-dashoffset: 840; } 38% { stroke-dashoffset: 0; } 62% { stroke-dashoffset: 0; } 100% { stroke-dashoffset: 840; }}
.path-2 { fill: none; stroke: #22c55e; stroke-width: 2; stroke-linecap: round; opacity: 0.85; animation: draw-2 8s ease-in-out 0.8s infinite; stroke-dasharray: 843; stroke-dashoffset: 843;}
@keyframes draw-2 { 0% { stroke-dashoffset: 843; } 38% { stroke-dashoffset: 0; } 62% { stroke-dashoffset: 0; } 100% { stroke-dashoffset: 843; }}
.path-3 { fill: none; stroke: #f59e0b; stroke-width: 2; stroke-linecap: round; opacity: 0.85; animation: draw-3 8s ease-in-out 1.2000000000000002s infinite; stroke-dasharray: 858; stroke-dashoffset: 858;}
@keyframes draw-3 { 0% { stroke-dashoffset: 858; } 38% { stroke-dashoffset: 0; } 62% { stroke-dashoffset: 0; } 100% { stroke-dashoffset: 858; }}
.path-4 { fill: none; stroke: #a855f7; stroke-width: 2; stroke-linecap: round; opacity: 0.85; animation: draw-4 8s ease-in-out 1.6s infinite; stroke-dasharray: 844; stroke-dashoffset: 844;}
@keyframes draw-4 { 0% { stroke-dashoffset: 844; } 38% { stroke-dashoffset: 0; } 62% { stroke-dashoffset: 0; } 100% { stroke-dashoffset: 844; }}
</style>
<rect width="800" height="300" rx="8" fill="#0d1117" />
<line x1="50" y1="260.0" x2="780" y2="260.0" class="grid-line" />
<text x="44" y="264.0" text-anchor="end" class="axis-text">-4.0</text>
<line x1="50" y1="216.0" x2="780" y2="216.0" class="grid-line" />
<text x="44" y="220.0" text-anchor="end" class="axis-text">-2.5</text>
<line x1="50" y1="172.0" x2="780" y2="172.0" class="grid-line" />
<text x="44" y="176.0" text-anchor="end" class="axis-text">-1.1</text>
<line x1="50" y1="128.0" x2="780" y2="128.0" class="grid-line" />
<text x="44" y="132.0" text-anchor="end" class="axis-text">0.4</text>
<line x1="50" y1="84.0" x2="780" y2="84.0" class="grid-line" />
<text x="44" y="88.0" text-anchor="end" class="axis-text">1.8</text>
<line x1="50" y1="40.0" x2="780" y2="40.0" class="grid-line" />
<text x="44" y="44.0" text-anchor="end" class="axis-text">3.2</text>
<line x1="50.0" y1="40" x2="50.0" y2="260" class="grid-line" />
<line x1="196.0" y1="40" x2="196.0" y2="260" class="grid-line" />
<line x1="342.0" y1="40" x2="342.0" y2="260" class="grid-line" />
<line x1="488.0" y1="40" x2="488.0" y2="260" class="grid-line" />
<line x1="634.0" y1="40" x2="634.0" y2="260" class="grid-line" />
<line x1="780.0" y1="40" x2="780.0" y2="260" class="grid-line" />
<line x1="50" y1="260" x2="780" y2="260" class="axis-line" />
<line x1="50" y1="40" x2="50" y2="260" class="axis-line" />
<text x="400.0" y="295" text-anchor="middle" class="axis-text">t</text>
<text x="12" y="150.0" text-anchor="middle" class="axis-text" transform="rotate(-90 12 150.0)">W(t)</text>
<text x="400.0" y="22" text-anchor="middle" class="title-text">Brownian Motion</text>
<path d="M 50.00 138.73 L 53.65 139.38 L 57.30 142.24 L 60.95 145.13 L 64.60 146.55 L 68.25 145.44 L 71.90 145.03 L 75.55 145.31 L 79.20 141.29 L 82.85 144.24 L 86.50 141.98 L 90.15 140.04 L 93.80 136.89 L 97.45 135.83 L 101.10 133.66 L 104.75 133.51 L 108.40 136.73 L 112.05 139.33 L 115.70 141.70 L 119.35 143.66 L 123.00 141.26 L 126.65 143.25 L 130.30 143.98 L 133.95 142.22 L 137.60 143.92 L 141.25 142.17 L 144.90 143.65 L 148.55 145.43 L 152.20 145.03 L 155.85 144.67 L 159.50 147.76 L 163.15 146.49 L 166.80 145.85 L 170.45 148.48 L 174.10 148.03 L 177.75 149.23 L 181.40 146.49 L 185.05 143.35 L 188.70 140.55 L 192.35 146.05 L 196.00 147.83 L 199.65 148.20 L 203.30 148.25 L 206.95 152.52 L 210.60 146.79 L 214.25 146.91 L 217.90 144.42 L 221.55 143.80 L 225.20 146.46 L 228.85 148.28 L 232.50 145.34 L 236.15 150.31 L 239.80 150.75 L 243.45 149.59 L 247.10 148.02 L 250.75 143.67 L 254.40 142.87 L 258.05 144.28 L 261.70 143.51 L 265.35 145.73 L 269.00 147.30 L 272.65 149.76 L 276.30 146.93 L 279.95 148.09 L 283.60 148.24 L 287.25 148.87 L 290.90 152.61 L 294.55 151.94 L 298.20 146.17 L 301.85 146.29 L 305.50 149.99 L 309.15 149.02 L 312.80 147.18 L 316.45 145.03 L 320.10 143.57 L 323.75 139.77 L 327.40 139.69 L 331.05 141.96 L 334.70 142.92 L 338.35 142.49 L 342.00 143.05 L 345.65 142.68 L 349.30 143.72 L 352.95 143.65 L 356.60 144.12 L 360.25 140.63 L 363.90 138.64 L 367.55 140.91 L 371.20 142.84 L 374.85 139.08 L 378.50 136.84 L 382.15 133.63 L 385.80 133.15 L 389.45 130.84 L 393.10 129.66 L 396.75 129.40 L 400.40 128.33 L 404.05 129.30 L 407.70 130.91 L 411.35 132.38 L 415.00 133.28 L 418.65 136.67 L 422.30 140.42 L 425.95 143.29 L 429.60 142.15 L 433.25 145.19 L 436.90 145.61 L 440.55 145.50 L 444.20 146.11 L 447.85 142.77 L 451.50 144.19 L 455.15 143.04 L 458.80 144.14 L 462.45 145.53 L 466.10 147.49 L 469.75 147.73 L 473.40 147.24 L 477.05 144.77 L 480.70 144.85 L 484.35 143.24 L 488.00 140.09 L 491.65 136.41 L 495.30 133.50 L 498.95 130.95 L 502.60 134.04 L 506.25 137.06 L 509.90 135.58 L 513.55 133.88 L 517.20 136.45 L 520.85 138.36 L 524.50 137.52 L 528.15 140.38 L 531.80 140.05 L 535.45 137.98 L 539.10 138.33 L 542.75 141.99 L 546.40 141.07 L 550.05 142.62 L 553.70 142.74 L 557.35 142.60 L 561.00 139.81 L 564.65 141.38 L 568.30 140.60 L 571.95 141.41 L 575.60 138.26 L 579.25 142.32 L 582.90 141.74 L 586.55 139.23 L 590.20 135.92 L 593.85 137.53 L 597.50 140.10 L 601.15 141.57 L 604.80 142.98 L 608.45 141.25 L 612.10 141.30 L 615.75 139.46 L 619.40 138.33 L 623.05 135.93 L 626.70 136.98 L 630.35 138.13 L 634.00 140.35 L 637.65 136.35 L 641.30 135.79 L 644.95 137.79 L 648.60 140.93 L 652.25 140.73 L 655.90 144.44 L 659.55 142.52 L 663.20 144.89 L 666.85 145.91 L 670.50 143.31 L 674.15 141.53 L 677.80 145.03 L 681.45 145.61 L 685.10 148.31 L 688.75 148.70 L 692.40 152.19 L 696.05 153.95 L 699.70 154.54 L 703.35 150.89 L 707.00 154.69 L 710.65 154.91 L 714.30 153.71 L 717.95 151.41 L 721.60 151.96 L 725.25 149.16 L 728.90 147.55 L 732.55 148.09 L 736.20 147.84 L 739.85 148.95 L 743.50 152.09 L 747.15 150.68 L 750.80 147.68 L 754.45 147.42 L 758.10 147.13 L 761.75 148.89 L 765.40 149.63 L 769.05 144.61 L 772.70 141.18 L 776.35 141.49 L 780.00 135.76" class="path-0" />
<path d="M 50.00 138.73 L 53.65 139.48 L 57.30 139.69 L 60.95 142.95 L 64.60 141.49 L 68.25 143.83 L 71.90 138.68 L 75.55 138.83 L 79.20 138.21 L 82.85 136.28 L 86.50 133.54 L 90.15 134.46 L 93.80 134.07 L 97.45 135.80 L 101.10 135.25 L 104.75 134.67 L 108.40 133.95 L 112.05 133.77 L 115.70 135.20 L 119.35 134.35 L 123.00 134.41 L 126.65 131.50 L 130.30 132.04 L 133.95 130.15 L 137.60 132.93 L 141.25 132.49 L 144.90 134.19 L 148.55 135.39 L 152.20 133.67 L 155.85 133.05 L 159.50 134.82 L 163.15 134.91 L 166.80 135.08 L 170.45 135.35 L 174.10 133.15 L 177.75 133.16 L 181.40 133.25 L 185.05 135.10 L 188.70 135.33 L 192.35 132.58 L 196.00 133.45 L 199.65 137.55 L 203.30 138.67 L 206.95 138.13 L 210.60 137.23 L 214.25 140.52 L 217.90 136.06 L 221.55 134.85 L 225.20 136.84 L 228.85 134.25 L 232.50 135.60 L 236.15 136.17 L 239.80 133.71 L 243.45 133.37 L 247.10 129.64 L 250.75 126.86 L 254.40 129.06 L 258.05 128.53 L 261.70 127.27 L 265.35 128.92 L 269.00 129.61 L 272.65 128.85 L 276.30 130.53 L 279.95 127.71 L 283.60 124.10 L 287.25 122.14 L 290.90 123.08 L 294.55 125.43 L 298.20 126.05 L 301.85 124.45 L 305.50 127.53 L 309.15 123.67 L 312.80 123.03 L 316.45 119.86 L 320.10 119.50 L 323.75 122.65 L 327.40 122.65 L 331.05 118.27 L 334.70 118.14 L 338.35 118.85 L 342.00 121.80 L 345.65 122.12 L 349.30 122.99 L 352.95 123.55 L 356.60 128.43 L 360.25 128.35 L 363.90 127.33 L 367.55 126.44 L 371.20 126.17 L 374.85 124.17 L 378.50 120.37 L 382.15 120.18 L 385.80 119.68 L 389.45 121.39 L 393.10 123.48 L 396.75 122.51 L 400.40 124.36 L 404.05 123.64 L 407.70 124.91 L 411.35 123.83 L 415.00 125.47 L 418.65 124.90 L 422.30 124.51 L 425.95 122.15 L 429.60 117.57 L 433.25 116.66 L 436.90 117.59 L 440.55 115.74 L 444.20 116.03 L 447.85 117.75 L 451.50 117.02 L 455.15 114.57 L 458.80 119.94 L 462.45 120.29 L 466.10 119.54 L 469.75 121.63 L 473.40 118.56 L 477.05 115.63 L 480.70 119.37 L 484.35 117.91 L 488.00 116.01 L 491.65 117.26 L 495.30 116.27 L 498.95 119.41 L 502.60 119.30 L 506.25 119.69 L 509.90 120.79 L 513.55 123.35 L 517.20 122.94 L 520.85 124.78 L 524.50 124.21 L 528.15 125.57 L 531.80 122.68 L 535.45 126.86 L 539.10 131.36 L 542.75 134.84 L 546.40 134.70 L 550.05 134.41 L 553.70 132.00 L 557.35 136.56 L 561.00 137.63 L 564.65 137.17 L 568.30 137.97 L 571.95 138.41 L 575.60 139.54 L 579.25 141.64 L 582.90 138.56 L 586.55 140.31 L 590.20 140.05 L 593.85 142.09 L 597.50 145.84 L 601.15 147.13 L 604.80 150.35 L 608.45 149.47 L 612.10 148.10 L 615.75 145.56 L 619.40 142.94 L 623.05 141.63 L 626.70 137.04 L 630.35 138.24 L 634.00 137.13 L 637.65 137.33 L 641.30 134.31 L 644.95 136.84 L 648.60 134.84 L 652.25 135.25 L 655.90 135.50 L 659.55 135.71 L 663.20 137.59 L 666.85 138.24 L 670.50 137.75 L 674.15 135.58 L 677.80 137.97 L 681.45 135.80 L 685.10 138.46 L 688.75 139.14 L 692.40 140.44 L 696.05 144.15 L 699.70 145.10 L 703.35 147.09 L 707.00 146.37 L 710.65 145.88 L 714.30 144.71 L 717.95 148.73 L 721.60 151.18 L 725.25 151.50 L 728.90 153.32 L 732.55 151.43 L 736.20 149.39 L 739.85 148.24 L 743.50 144.30 L 747.15 141.72 L 750.80 141.07 L 754.45 139.70 L 758.10 138.42 L 761.75 137.60 L 765.40 137.62 L 769.05 135.03 L 772.70 137.85 L 776.35 138.44 L 780.00 140.90" class="path-1" />
<path d="M 50.00 138.73 L 53.65 139.03 L 57.30 141.41 L 60.95 142.33 L 64.60 140.99 L 68.25 142.01 L 71.90 143.92 L 75.55 141.85 L 79.20 143.61 L 82.85 146.77 L 86.50 147.78 L 90.15 147.18 L 93.80 147.29 L 97.45 150.72 L 101.10 151.82 L 104.75 150.94 L 108.40 151.23 L 112.05 148.38 L 115.70 148.96 L 119.35 148.91 L 123.00 149.68 L 126.65 148.92 L 130.30 149.46 L 133.95 152.61 L 137.60 155.13 L 141.25 155.28 L 144.90 153.17 L 148.55 156.35 L 152.20 158.70 L 155.85 158.84 L 159.50 161.91 L 163.15 161.99 L 166.80 162.74 L 170.45 164.43 L 174.10 161.77 L 177.75 159.10 L 181.40 157.94 L 185.05 162.01 L 188.70 158.68 L 192.35 159.94 L 196.00 158.58 L 199.65 158.06 L 203.30 158.79 L 206.95 160.61 L 210.60 161.01 L 214.25 163.17 L 217.90 163.81 L 221.55 163.56 L 225.20 163.83 L 228.85 163.96 L 232.50 166.84 L 236.15 168.34 L 239.80 169.43 L 243.45 171.04 L 247.10 176.93 L 250.75 178.79 L 254.40 180.77 L 258.05 183.93 L 261.70 184.30 L 265.35 185.56 L 269.00 186.90 L 272.65 186.65 L 276.30 184.26 L 279.95 184.23 L 283.60 186.53 L 287.25 187.21 L 290.90 191.39 L 294.55 188.60 L 298.20 188.29 L 301.85 188.97 L 305.50 193.16 L 309.15 195.25 L 312.80 198.79 L 316.45 200.42 L 320.10 199.90 L 323.75 197.18 L 327.40 199.12 L 331.05 201.31 L 334.70 199.14 L 338.35 198.14 L 342.00 196.97 L 345.65 198.19 L 349.30 198.30 L 352.95 197.53 L 356.60 196.50 L 360.25 193.66 L 363.90 193.84 L 367.55 198.34 L 371.20 200.56 L 374.85 202.52 L 378.50 205.27 L 382.15 209.26 L 385.80 206.08 L 389.45 205.53 L 393.10 207.13 L 396.75 206.06 L 400.40 206.91 L 404.05 206.98 L 407.70 207.34 L 411.35 210.37 L 415.00 209.71 L 418.65 209.92 L 422.30 209.39 L 425.95 211.72 L 429.60 211.23 L 433.25 209.41 L 436.90 208.21 L 440.55 209.11 L 444.20 209.54 L 447.85 206.49 L 451.50 205.77 L 455.15 206.38 L 458.80 203.11 L 462.45 200.40 L 466.10 204.36 L 469.75 207.35 L 473.40 206.67 L 477.05 207.32 L 480.70 206.86 L 484.35 205.23 L 488.00 204.77 L 491.65 204.78 L 495.30 208.04 L 498.95 213.31 L 502.60 211.88 L 506.25 215.16 L 509.90 210.90 L 513.55 209.67 L 517.20 210.88 L 520.85 208.50 L 524.50 208.32 L 528.15 206.19 L 531.80 208.75 L 535.45 207.37 L 539.10 210.30 L 542.75 213.48 L 546.40 215.08 L 550.05 213.70 L 553.70 215.46 L 557.35 213.86 L 561.00 213.22 L 564.65 210.86 L 568.30 210.50 L 571.95 206.07 L 575.60 205.48 L 579.25 208.03 L 582.90 205.23 L 586.55 204.41 L 590.20 203.84 L 593.85 206.78 L 597.50 204.66 L 601.15 204.53 L 604.80 205.71 L 608.45 205.66 L 612.10 206.96 L 615.75 207.03 L 619.40 209.01 L 623.05 209.67 L 626.70 208.53 L 630.35 209.39 L 634.00 208.99 L 637.65 206.93 L 641.30 209.23 L 644.95 210.38 L 648.60 205.25 L 652.25 206.81 L 655.90 206.21 L 659.55 208.13 L 663.20 209.25 L 666.85 213.35 L 670.50 217.72 L 674.15 214.82 L 677.80 217.41 L 681.45 218.96 L 685.10 221.96 L 688.75 220.67 L 692.40 223.08 L 696.05 224.56 L 699.70 224.99 L 703.35 226.33 L 707.00 225.77 L 710.65 227.04 L 714.30 226.51 L 717.95 226.05 L 721.60 223.28 L 725.25 226.23 L 728.90 227.70 L 732.55 227.08 L 736.20 228.73 L 739.85 223.57 L 743.50 226.55 L 747.15 227.45 L 750.80 229.66 L 754.45 229.32 L 758.10 228.07 L 761.75 231.73 L 765.40 234.62 L 769.05 233.45 L 772.70 231.19 L 776.35 230.17 L 780.00 231.85" class="path-2" />
<path d="M 50.00 138.73 L 53.65 137.65 L 57.30 137.50 L 60.95 141.38 L 64.60 143.09 L 68.25 140.76 L 71.90 138.94 L 75.55 138.85 L 79.20 137.18 L 82.85 140.54 L 86.50 136.64 L 90.15 137.39 L 93.80 133.91 L 97.45 135.49 L 101.10 138.25 L 104.75 137.94 L 108.40 140.42 L 112.05 138.94 L 115.70 139.43 L 119.35 140.31 L 123.00 141.42 L 126.65 141.99 L 130.30 139.86 L 133.95 141.00 L 137.60 144.42 L 141.25 140.36 L 144.90 139.96 L 148.55 140.46 L 152.20 143.93 L 155.85 145.03 L 159.50 145.55 L 163.15 144.55 L 166.80 147.81 L 170.45 149.70 L 174.10 149.65 L 177.75 152.08 L 181.40 149.56 L 185.05 153.06 L 188.70 149.11 L 192.35 149.11 L 196.00 154.29 L 199.65 156.67 L 203.30 160.18 L 206.95 157.57 L 210.60 158.54 L 214.25 160.89 L 217.90 163.53 L 221.55 162.94 L 225.20 159.02 L 228.85 156.80 L 232.50 157.05 L 236.15 154.54 L 239.80 153.14 L 243.45 153.16 L 247.10 152.83 L 250.75 153.52 L 254.40 156.08 L 258.05 159.65 L 261.70 158.63 L 265.35 164.59 L 269.00 169.05 L 272.65 166.07 L 276.30 165.76 L 279.95 171.04 L 283.60 175.00 L 287.25 175.15 L 290.90 179.88 L 294.55 180.70 L 298.20 181.26 L 301.85 177.51 L 305.50 177.13 L 309.15 177.67 L 312.80 176.06 L 316.45 174.83 L 320.10 172.93 L 323.75 173.27 L 327.40 174.85 L 331.05 176.53 L 334.70 177.66 L 338.35 179.18 L 342.00 183.14 L 345.65 181.37 L 349.30 181.06 L 352.95 178.72 L 356.60 178.18 L 360.25 174.05 L 363.90 171.49 L 367.55 171.12 L 371.20 171.57 L 374.85 172.02 L 378.50 174.14 L 382.15 173.18 L 385.80 174.00 L 389.45 175.34 L 393.10 176.03 L 396.75 175.82 L 400.40 177.40 L 404.05 177.40 L 407.70 180.99 L 411.35 181.77 L 415.00 185.13 L 418.65 184.73 L 422.30 182.04 L 425.95 183.87 L 429.60 183.71 L 433.25 184.79 L 436.90 185.20 L 440.55 183.31 L 444.20 183.55 L 447.85 185.54 L 451.50 184.24 L 455.15 186.67 L 458.80 187.46 L 462.45 190.00 L 466.10 188.69 L 469.75 188.81 L 473.40 187.68 L 477.05 187.22 L 480.70 185.38 L 484.35 181.06 L 488.00 179.51 L 491.65 177.77 L 495.30 179.38 L 498.95 178.27 L 502.60 180.00 L 506.25 177.79 L 509.90 181.58 L 513.55 180.59 L 517.20 180.96 L 520.85 177.39 L 524.50 179.74 L 528.15 180.00 L 531.80 181.85 L 535.45 181.05 L 539.10 181.62 L 542.75 183.26 L 546.40 181.92 L 550.05 183.60 L 553.70 182.43 L 557.35 181.79 L 561.00 177.97 L 564.65 174.36 L 568.30 177.44 L 571.95 178.69 L 575.60 180.95 L 579.25 180.64 L 582.90 182.91 L 586.55 181.41 L 590.20 181.21 L 593.85 185.05 L 597.50 184.33 L 601.15 179.88 L 604.80 184.33 L 608.45 183.78 L 612.10 183.94 L 615.75 186.31 L 619.40 186.70 L 623.05 186.02 L 626.70 188.36 L 630.35 192.49 L 634.00 198.11 L 637.65 197.85 L 641.30 200.45 L 644.95 200.47 L 648.60 206.99 L 652.25 208.08 L 655.90 206.09 L 659.55 206.27 L 663.20 204.25 L 666.85 201.49 L 670.50 202.35 L 674.15 203.33 L 677.80 202.36 L 681.45 201.81 L 685.10 199.19 L 688.75 198.67 L 692.40 199.24 L 696.05 197.46 L 699.70 195.15 L 703.35 197.99 L 707.00 200.19 L 710.65 201.85 L 714.30 199.73 L 717.95 200.34 L 721.60 198.68 L 725.25 199.18 L 728.90 200.36 L 732.55 197.99 L 736.20 196.06 L 739.85 195.37 L 743.50 192.06 L 747.15 188.46 L 750.80 189.14 L 754.45 188.19 L 758.10 186.27 L 761.75 182.86 L 765.40 186.08 L 769.05 183.93 L 772.70 182.49 L 776.35 181.25 L 780.00 178.87" class="path-3" />
<path d="M 50.00 138.73 L 53.65 138.85 L 57.30 139.45 L 60.95 135.54 L 64.60 135.49 L 68.25 138.12 L 71.90 138.54 L 75.55 137.68 L 79.20 134.54 L 82.85 130.95 L 86.50 130.29 L 90.15 128.51 L 93.80 130.37 L 97.45 128.67 L 101.10 127.96 L 104.75 131.57 L 108.40 130.57 L 112.05 130.24 L 115.70 128.22 L 119.35 129.22 L 123.00 127.52 L 126.65 130.48 L 130.30 132.85 L 133.95 133.48 L 137.60 133.16 L 141.25 130.79 L 144.90 129.77 L 148.55 133.28 L 152.20 128.46 L 155.85 126.74 L 159.50 125.53 L 163.15 125.87 L 166.80 126.05 L 170.45 125.64 L 174.10 126.07 L 177.75 124.31 L 181.40 122.50 L 185.05 125.73 L 188.70 127.38 L 192.35 124.29 L 196.00 123.51 L 199.65 120.49 L 203.30 119.83 L 206.95 117.99 L 210.60 117.28 L 214.25 119.15 L 217.90 117.54 L 221.55 116.72 L 225.20 115.94 L 228.85 114.69 L 232.50 111.97 L 236.15 113.94 L 239.80 113.10 L 243.45 109.60 L 247.10 106.14 L 250.75 107.27 L 254.40 104.66 L 258.05 104.15 L 261.70 101.02 L 265.35 100.75 L 269.00 102.45 L 272.65 100.91 L 276.30 104.05 L 279.95 102.44 L 283.60 101.37 L 287.25 96.27 L 290.90 94.51 L 294.55 96.59 L 298.20 98.49 L 301.85 98.33 L 305.50 98.79 L 309.15 99.11 L 312.80 96.64 L 316.45 96.08 L 320.10 94.43 L 323.75 94.64 L 327.40 94.38 L 331.05 94.39 L 334.70 92.51 L 338.35 91.88 L 342.00 88.16 L 345.65 88.63 L 349.30 92.67 L 352.95 92.99 L 356.60 91.31 L 360.25 90.56 L 363.90 92.03 L 367.55 90.80 L 371.20 89.20 L 374.85 89.22 L 378.50 89.44 L 382.15 88.47 L 385.80 84.08 L 389.45 84.01 L 393.10 88.40 L 396.75 89.03 L 400.40 87.65 L 404.05 85.54 L 407.70 83.90 L 411.35 77.29 L 415.00 81.21 L 418.65 79.31 L 422.30 79.37 L 425.95 75.55 L 429.60 75.84 L 433.25 74.99 L 436.90 75.99 L 440.55 80.60 L 444.20 80.39 L 447.85 80.28 L 451.50 78.21 L 455.15 79.71 L 458.80 81.23 L 462.45 79.52 L 466.10 80.65 L 469.75 80.05 L 473.40 76.62 L 477.05 71.39 L 480.70 75.66 L 484.35 72.89 L 488.00 73.03 L 491.65 72.17 L 495.30 72.15 L 498.95 71.73 L 502.60 73.68 L 506.25 68.70 L 509.90 69.49 L 513.55 68.36 L 517.20 68.88 L 520.85 71.38 L 524.50 74.93 L 528.15 71.80 L 531.80 71.72 L 535.45 69.73 L 539.10 66.98 L 542.75 67.61 L 546.40 66.72 L 550.05 66.44 L 553.70 66.94 L 557.35 66.44 L 561.00 66.11 L 564.65 67.78 L 568.30 66.28 L 571.95 66.34 L 575.60 68.31 L 579.25 69.34 L 582.90 69.43 L 586.55 69.60 L 590.20 69.52 L 593.85 69.07 L 597.50 65.78 L 601.15 69.10 L 604.80 68.81 L 608.45 65.96 L 612.10 66.00 L 615.75 65.38 L 619.40 65.92 L 623.05 70.57 L 626.70 72.89 L 630.35 74.04 L 634.00 74.46 L 637.65 76.89 L 641.30 77.12 L 644.95 74.27 L 648.60 72.11 L 652.25 70.71 L 655.90 68.34 L 659.55 68.85 L 663.20 67.14 L 666.85 70.42 L 670.50 72.89 L 674.15 73.90 L 677.80 78.20 L 681.45 77.28 L 685.10 77.71 L 688.75 77.69 L 692.40 76.59 L 696.05 73.94 L 699.70 71.42 L 703.35 74.46 L 707.00 75.78 L 710.65 82.57 L 714.30 81.22 L 717.95 81.02 L 721.60 79.51 L 725.25 76.99 L 728.90 76.43 L 732.55 78.63 L 736.20 79.22 L 739.85 80.28 L 743.50 80.17 L 747.15 78.71 L 750.80 82.92 L 754.45 83.05 L 758.10 82.57 L 761.75 82.18 L 765.40 82.69 L 769.05 82.42 L 772.70 83.14 L 776.35 81.29 L 780.00 84.40" class="path-4" />
<line x1="50" y1="138.7" x2="780" y2="138.7" stroke="#4b5563" stroke-width="0.8" stroke-dasharray="6 3" />
</svg>