<svg xmlns="http://www.w3.org/2000/svg" viewBox="0 0 800 300" width="800" height="300">
<style>
.axis-line { stroke: #6b7280; stroke-width: 0.5; }
.axis-text { font-family: monospace; font-size: 11px; fill: #9ca3af; }
.title-text { font-family: monospace; font-size: 14px; fill: #d1d5db; font-weight: bold; }
.grid-line { stroke: #374151; stroke-width: 0.3; stroke-dasharray: 4 2; }
.path-0 { fill: none; stroke: #3b82f6; stroke-width: 2; stroke-linecap: round; opacity: 0.85; animation: draw-0 8s ease-in-out 0.0s infinite; stroke-dasharray: 1007; stroke-dashoffset: 1007;}
@keyframes draw-0 { 0% { stroke-dashoffset: 1007; } 38% { stroke-dashoffset: 0; } 62% { stroke-dashoffset: 0; } 100% { stroke-dashoffset: 1007; }}
.path-1 { fill: none; stroke: #ef4444; stroke-width: 2; stroke-linecap: round; opacity: 0.85; animation: draw-1 8s ease-in-out 0.4s infinite; stroke-dasharray: 998; stroke-dashoffset: 998;}
@keyframes draw-1 { 0% { stroke-dashoffset: 998; } 38% { stroke-dashoffset: 0; } 62% { stroke-dashoffset: 0; } 100% { stroke-dashoffset: 998; }}
.path-2 { fill: none; stroke: #22c55e; stroke-width: 2; stroke-linecap: round; opacity: 0.85; animation: draw-2 8s ease-in-out 0.8s infinite; stroke-dasharray: 994; stroke-dashoffset: 994;}
@keyframes draw-2 { 0% { stroke-dashoffset: 994; } 38% { stroke-dashoffset: 0; } 62% { stroke-dashoffset: 0; } 100% { stroke-dashoffset: 994; }}
.path-3 { fill: none; stroke: #f59e0b; stroke-width: 2; stroke-linecap: round; opacity: 0.85; animation: draw-3 8s ease-in-out 1.2000000000000002s infinite; stroke-dasharray: 1000; stroke-dashoffset: 1000;}
@keyframes draw-3 { 0% { stroke-dashoffset: 1000; } 38% { stroke-dashoffset: 0; } 62% { stroke-dashoffset: 0; } 100% { stroke-dashoffset: 1000; }}
.path-4 { fill: none; stroke: #a855f7; stroke-width: 2; stroke-linecap: round; opacity: 0.85; animation: draw-4 8s ease-in-out 1.6s infinite; stroke-dasharray: 963; stroke-dashoffset: 963;}
@keyframes draw-4 { 0% { stroke-dashoffset: 963; } 38% { stroke-dashoffset: 0; } 62% { stroke-dashoffset: 0; } 100% { stroke-dashoffset: 963; }}
</style>
<rect width="800" height="300" rx="8" fill="#0d1117" />
<line x1="50" y1="260.0" x2="780" y2="260.0" class="grid-line" />
<text x="44" y="264.0" text-anchor="end" class="axis-text">-2.3</text>
<line x1="50" y1="216.0" x2="780" y2="216.0" class="grid-line" />
<text x="44" y="220.0" text-anchor="end" class="axis-text">-1.5</text>
<line x1="50" y1="172.0" x2="780" y2="172.0" class="grid-line" />
<text x="44" y="176.0" text-anchor="end" class="axis-text">-0.6</text>
<line x1="50" y1="128.0" x2="780" y2="128.0" class="grid-line" />
<text x="44" y="132.0" text-anchor="end" class="axis-text">0.2</text>
<line x1="50" y1="84.0" x2="780" y2="84.0" class="grid-line" />
<text x="44" y="88.0" text-anchor="end" class="axis-text">1.1</text>
<line x1="50" y1="40.0" x2="780" y2="40.0" class="grid-line" />
<text x="44" y="44.0" text-anchor="end" class="axis-text">1.9</text>
<line x1="50.0" y1="40" x2="50.0" y2="260" class="grid-line" />
<line x1="196.0" y1="40" x2="196.0" y2="260" class="grid-line" />
<line x1="342.0" y1="40" x2="342.0" y2="260" class="grid-line" />
<line x1="488.0" y1="40" x2="488.0" y2="260" class="grid-line" />
<line x1="634.0" y1="40" x2="634.0" y2="260" class="grid-line" />
<line x1="780.0" y1="40" x2="780.0" y2="260" class="grid-line" />
<line x1="50" y1="260" x2="780" y2="260" class="axis-line" />
<line x1="50" y1="40" x2="50" y2="260" class="axis-line" />
<text x="400.0" y="295" text-anchor="middle" class="axis-text">t</text>
<text x="12" y="150.0" text-anchor="middle" class="axis-text" transform="rotate(-90 12 150.0)">W(t)</text>
<text x="400.0" y="22" text-anchor="middle" class="title-text">Brownian Motion</text>
<path d="M 50.00 139.91 L 53.65 142.95 L 57.30 144.57 L 60.95 144.52 L 64.60 144.44 L 68.25 145.92 L 71.90 153.26 L 75.55 152.96 L 79.20 150.89 L 82.85 147.71 L 86.50 149.95 L 90.15 150.19 L 93.80 145.68 L 97.45 147.22 L 101.10 146.78 L 104.75 141.59 L 108.40 145.68 L 112.05 140.25 L 115.70 138.24 L 119.35 139.10 L 123.00 126.45 L 126.65 120.94 L 130.30 123.21 L 133.95 119.81 L 137.60 116.80 L 141.25 111.94 L 144.90 115.60 L 148.55 106.97 L 152.20 101.11 L 155.85 100.24 L 159.50 97.02 L 163.15 100.60 L 166.80 102.61 L 170.45 101.41 L 174.10 107.91 L 177.75 107.48 L 181.40 103.73 L 185.05 106.00 L 188.70 106.28 L 192.35 102.25 L 196.00 106.50 L 199.65 109.08 L 203.30 101.19 L 206.95 100.95 L 210.60 102.13 L 214.25 107.77 L 217.90 104.65 L 221.55 106.85 L 225.20 108.73 L 228.85 110.74 L 232.50 102.30 L 236.15 102.79 L 239.80 98.44 L 243.45 94.28 L 247.10 96.75 L 250.75 95.27 L 254.40 91.81 L 258.05 95.59 L 261.70 95.51 L 265.35 94.37 L 269.00 94.90 L 272.65 100.29 L 276.30 95.95 L 279.95 94.18 L 283.60 99.54 L 287.25 105.31 L 290.90 101.99 L 294.55 104.58 L 298.20 102.09 L 301.85 110.67 L 305.50 105.68 L 309.15 104.50 L 312.80 99.78 L 316.45 95.22 L 320.10 99.28 L 323.75 101.14 L 327.40 106.73 L 331.05 112.17 L 334.70 114.82 L 338.35 115.43 L 342.00 119.69 L 345.65 120.53 L 349.30 122.37 L 352.95 125.34 L 356.60 121.10 L 360.25 123.02 L 363.90 123.28 L 367.55 122.86 L 371.20 121.09 L 374.85 118.50 L 378.50 122.90 L 382.15 121.62 L 385.80 121.80 L 389.45 119.63 L 393.10 118.15 L 396.75 123.03 L 400.40 126.59 L 404.05 127.53 L 407.70 128.15 L 411.35 128.58 L 415.00 130.53 L 418.65 130.72 L 422.30 131.91 L 425.95 127.57 L 429.60 125.22 L 433.25 125.20 L 436.90 125.24 L 440.55 120.89 L 444.20 121.04 L 447.85 121.29 L 451.50 123.12 L 455.15 122.93 L 458.80 123.30 L 462.45 125.04 L 466.10 119.76 L 469.75 111.55 L 473.40 111.32 L 477.05 111.08 L 480.70 112.09 L 484.35 114.43 L 488.00 111.81 L 491.65 114.38 L 495.30 109.65 L 498.95 102.17 L 502.60 106.99 L 506.25 107.31 L 509.90 107.42 L 513.55 105.21 L 517.20 102.76 L 520.85 103.87 L 524.50 104.52 L 528.15 106.45 L 531.80 110.71 L 535.45 113.02 L 539.10 116.59 L 542.75 110.83 L 546.40 108.44 L 550.05 114.18 L 553.70 116.62 L 557.35 108.74 L 561.00 107.50 L 564.65 104.88 L 568.30 105.39 L 571.95 106.86 L 575.60 107.80 L 579.25 111.83 L 582.90 110.58 L 586.55 114.42 L 590.20 115.73 L 593.85 114.07 L 597.50 114.36 L 601.15 112.98 L 604.80 109.18 L 608.45 105.83 L 612.10 111.79 L 615.75 113.25 L 619.40 117.11 L 623.05 114.52 L 626.70 112.24 L 630.35 119.30 L 634.00 113.42 L 637.65 118.29 L 641.30 120.68 L 644.95 121.67 L 648.60 115.74 L 652.25 121.48 L 655.90 117.56 L 659.55 122.68 L 663.20 117.71 L 666.85 112.81 L 670.50 109.98 L 674.15 109.26 L 677.80 110.07 L 681.45 101.80 L 685.10 98.87 L 688.75 99.81 L 692.40 103.97 L 696.05 102.55 L 699.70 102.94 L 703.35 98.21 L 707.00 94.32 L 710.65 98.54 L 714.30 104.94 L 717.95 108.85 L 721.60 102.85 L 725.25 100.57 L 728.90 96.90 L 732.55 93.17 L 736.20 94.80 L 739.85 87.13 L 743.50 83.99 L 747.15 80.83 L 750.80 81.65 L 754.45 78.17 L 758.10 76.40 L 761.75 71.80 L 765.40 69.94 L 769.05 71.58 L 772.70 71.38 L 776.35 68.02 L 780.00 65.38" class="path-0" />
<path d="M 50.00 139.91 L 53.65 144.66 L 57.30 151.30 L 60.95 158.15 L 64.60 160.92 L 68.25 158.70 L 71.90 165.35 L 75.55 164.48 L 79.20 164.08 L 82.85 156.32 L 86.50 159.85 L 90.15 163.45 L 93.80 167.25 L 97.45 168.93 L 101.10 170.52 L 104.75 165.81 L 108.40 166.29 L 112.05 169.43 L 115.70 171.18 L 119.35 176.05 L 123.00 176.11 L 126.65 176.07 L 130.30 177.19 L 133.95 181.29 L 137.60 181.40 L 141.25 182.53 L 144.90 182.28 L 148.55 181.58 L 152.20 177.44 L 155.85 179.30 L 159.50 177.99 L 163.15 173.87 L 166.80 175.54 L 170.45 180.69 L 174.10 185.09 L 177.75 184.71 L 181.40 175.66 L 185.05 175.06 L 188.70 172.03 L 192.35 171.56 L 196.00 178.27 L 199.65 171.77 L 203.30 168.35 L 206.95 167.44 L 210.60 168.74 L 214.25 171.52 L 217.90 167.48 L 221.55 167.38 L 225.20 169.04 L 228.85 170.58 L 232.50 169.33 L 236.15 168.55 L 239.80 162.05 L 243.45 162.27 L 247.10 167.13 L 250.75 162.68 L 254.40 167.77 L 258.05 167.08 L 261.70 173.38 L 265.35 175.22 L 269.00 175.40 L 272.65 179.11 L 276.30 177.03 L 279.95 174.59 L 283.60 177.01 L 287.25 176.50 L 290.90 170.97 L 294.55 174.09 L 298.20 176.25 L 301.85 175.23 L 305.50 171.22 L 309.15 175.50 L 312.80 176.85 L 316.45 177.35 L 320.10 184.09 L 323.75 175.91 L 327.40 174.33 L 331.05 181.32 L 334.70 181.77 L 338.35 177.29 L 342.00 183.64 L 345.65 177.52 L 349.30 181.09 L 352.95 182.00 L 356.60 174.76 L 360.25 177.18 L 363.90 175.97 L 367.55 175.72 L 371.20 172.46 L 374.85 179.01 L 378.50 180.89 L 382.15 177.34 L 385.80 178.86 L 389.45 179.18 L 393.10 186.01 L 396.75 181.51 L 400.40 181.03 L 404.05 179.25 L 407.70 181.12 L 411.35 186.02 L 415.00 190.18 L 418.65 197.05 L 422.30 195.70 L 425.95 194.85 L 429.60 192.74 L 433.25 196.54 L 436.90 193.91 L 440.55 193.23 L 444.20 191.18 L 447.85 187.42 L 451.50 184.95 L 455.15 186.60 L 458.80 189.49 L 462.45 185.90 L 466.10 181.92 L 469.75 184.49 L 473.40 182.42 L 477.05 183.50 L 480.70 181.80 L 484.35 189.09 L 488.00 178.14 L 491.65 172.46 L 495.30 176.76 L 498.95 179.39 L 502.60 179.95 L 506.25 178.50 L 509.90 179.93 L 513.55 177.26 L 517.20 178.16 L 520.85 172.86 L 524.50 175.61 L 528.15 174.58 L 531.80 176.55 L 535.45 175.09 L 539.10 180.46 L 542.75 185.65 L 546.40 191.93 L 550.05 197.66 L 553.70 195.51 L 557.35 197.59 L 561.00 205.60 L 564.65 202.12 L 568.30 197.97 L 571.95 202.37 L 575.60 202.80 L 579.25 202.90 L 582.90 203.23 L 586.55 205.52 L 590.20 204.15 L 593.85 205.74 L 597.50 202.03 L 601.15 203.30 L 604.80 209.26 L 608.45 208.56 L 612.10 208.60 L 615.75 213.53 L 619.40 215.78 L 623.05 219.26 L 626.70 216.91 L 630.35 219.57 L 634.00 222.86 L 637.65 226.28 L 641.30 225.90 L 644.95 225.39 L 648.60 228.76 L 652.25 231.27 L 655.90 234.62 L 659.55 232.77 L 663.20 229.36 L 666.85 227.92 L 670.50 231.81 L 674.15 230.37 L 677.80 231.71 L 681.45 228.25 L 685.10 228.17 L 688.75 234.04 L 692.40 234.19 L 696.05 228.85 L 699.70 222.49 L 703.35 223.92 L 707.00 222.40 L 710.65 222.73 L 714.30 219.37 L 717.95 215.35 L 721.60 215.01 L 725.25 216.41 L 728.90 213.12 L 732.55 212.31 L 736.20 210.29 L 739.85 211.81 L 743.50 207.39 L 747.15 203.71 L 750.80 205.50 L 754.45 203.51 L 758.10 207.27 L 761.75 208.35 L 765.40 206.73 L 769.05 203.80 L 772.70 201.64 L 776.35 197.65 L 780.00 194.04" class="path-1" />
<path d="M 50.00 139.91 L 53.65 143.35 L 57.30 140.83 L 60.95 140.48 L 64.60 138.47 L 68.25 136.25 L 71.90 134.07 L 75.55 135.48 L 79.20 134.02 L 82.85 132.34 L 86.50 127.17 L 90.15 128.60 L 93.80 128.94 L 97.45 131.53 L 101.10 136.12 L 104.75 130.97 L 108.40 132.02 L 112.05 136.36 L 115.70 141.95 L 119.35 140.10 L 123.00 141.76 L 126.65 144.42 L 130.30 149.41 L 133.95 153.50 L 137.60 153.04 L 141.25 154.61 L 144.90 152.26 L 148.55 159.03 L 152.20 155.13 L 155.85 155.88 L 159.50 154.59 L 163.15 157.67 L 166.80 156.96 L 170.45 157.55 L 174.10 158.53 L 177.75 159.40 L 181.40 160.06 L 185.05 166.79 L 188.70 166.87 L 192.35 170.14 L 196.00 176.14 L 199.65 173.48 L 203.30 171.77 L 206.95 169.25 L 210.60 167.19 L 214.25 165.38 L 217.90 177.23 L 221.55 177.24 L 225.20 179.71 L 228.85 184.81 L 232.50 180.74 L 236.15 179.07 L 239.80 180.46 L 243.45 184.98 L 247.10 189.47 L 250.75 186.27 L 254.40 182.09 L 258.05 179.41 L 261.70 177.30 L 265.35 183.13 L 269.00 185.83 L 272.65 182.96 L 276.30 183.43 L 279.95 185.66 L 283.60 188.62 L 287.25 192.22 L 290.90 187.05 L 294.55 184.23 L 298.20 181.83 L 301.85 186.40 L 305.50 187.95 L 309.15 185.29 L 312.80 189.33 L 316.45 180.89 L 320.10 184.53 L 323.75 187.17 L 327.40 183.76 L 331.05 174.48 L 334.70 174.38 L 338.35 172.98 L 342.00 171.84 L 345.65 168.70 L 349.30 166.88 L 352.95 164.62 L 356.60 167.29 L 360.25 167.00 L 363.90 166.74 L 367.55 168.98 L 371.20 170.06 L 374.85 171.11 L 378.50 173.45 L 382.15 169.21 L 385.80 168.61 L 389.45 171.78 L 393.10 164.74 L 396.75 161.22 L 400.40 163.68 L 404.05 165.18 L 407.70 164.73 L 411.35 163.20 L 415.00 164.29 L 418.65 164.10 L 422.30 170.65 L 425.95 171.27 L 429.60 168.55 L 433.25 172.58 L 436.90 171.19 L 440.55 168.42 L 444.20 168.12 L 447.85 170.21 L 451.50 174.76 L 455.15 169.17 L 458.80 168.50 L 462.45 165.66 L 466.10 166.36 L 469.75 168.54 L 473.40 162.25 L 477.05 163.80 L 480.70 156.98 L 484.35 144.33 L 488.00 150.54 L 491.65 147.18 L 495.30 152.58 L 498.95 153.11 L 502.60 153.15 L 506.25 152.93 L 509.90 147.92 L 513.55 150.73 L 517.20 149.17 L 520.85 148.64 L 524.50 140.36 L 528.15 141.53 L 531.80 140.87 L 535.45 145.95 L 539.10 147.33 L 542.75 143.60 L 546.40 142.53 L 550.05 139.83 L 553.70 135.98 L 557.35 138.39 L 561.00 137.06 L 564.65 138.31 L 568.30 133.49 L 571.95 138.11 L 575.60 133.57 L 579.25 137.38 L 582.90 139.88 L 586.55 134.26 L 590.20 135.01 L 593.85 136.00 L 597.50 133.31 L 601.15 128.32 L 604.80 129.31 L 608.45 127.42 L 612.10 133.32 L 615.75 134.16 L 619.40 135.42 L 623.05 136.63 L 626.70 130.52 L 630.35 124.38 L 634.00 121.91 L 637.65 124.86 L 641.30 125.57 L 644.95 120.67 L 648.60 118.50 L 652.25 112.38 L 655.90 111.08 L 659.55 108.14 L 663.20 109.21 L 666.85 111.94 L 670.50 119.00 L 674.15 120.42 L 677.80 116.52 L 681.45 116.38 L 685.10 117.71 L 688.75 113.01 L 692.40 114.85 L 696.05 116.68 L 699.70 111.97 L 703.35 109.50 L 707.00 109.78 L 710.65 103.40 L 714.30 99.64 L 717.95 101.33 L 721.60 100.45 L 725.25 95.85 L 728.90 96.55 L 732.55 99.60 L 736.20 101.52 L 739.85 99.24 L 743.50 99.97 L 747.15 91.05 L 750.80 95.56 L 754.45 91.36 L 758.10 93.23 L 761.75 94.79 L 765.40 94.16 L 769.05 101.80 L 772.70 103.93 L 776.35 101.34 L 780.00 98.76" class="path-2" />
<path d="M 50.00 139.91 L 53.65 139.07 L 57.30 137.73 L 60.95 132.21 L 64.60 134.22 L 68.25 142.50 L 71.90 142.85 L 75.55 143.80 L 79.20 145.08 L 82.85 144.89 L 86.50 143.51 L 90.15 141.25 L 93.80 144.13 L 97.45 145.95 L 101.10 149.67 L 104.75 153.67 L 108.40 154.18 L 112.05 160.19 L 115.70 157.28 L 119.35 158.44 L 123.00 160.58 L 126.65 154.17 L 130.30 149.43 L 133.95 145.64 L 137.60 143.74 L 141.25 149.93 L 144.90 150.13 L 148.55 148.18 L 152.20 151.00 L 155.85 156.30 L 159.50 164.19 L 163.15 173.02 L 166.80 169.55 L 170.45 170.47 L 174.10 167.98 L 177.75 167.86 L 181.40 167.89 L 185.05 167.22 L 188.70 168.85 L 192.35 168.98 L 196.00 171.24 L 199.65 169.69 L 203.30 169.64 L 206.95 168.93 L 210.60 170.90 L 214.25 168.25 L 217.90 169.46 L 221.55 170.25 L 225.20 167.45 L 228.85 167.22 L 232.50 169.52 L 236.15 165.30 L 239.80 168.29 L 243.45 170.18 L 247.10 167.46 L 250.75 166.54 L 254.40 167.98 L 258.05 173.55 L 261.70 167.83 L 265.35 176.53 L 269.00 176.28 L 272.65 171.74 L 276.30 171.30 L 279.95 174.31 L 283.60 177.05 L 287.25 184.07 L 290.90 184.89 L 294.55 187.40 L 298.20 184.77 L 301.85 185.12 L 305.50 194.08 L 309.15 193.00 L 312.80 197.62 L 316.45 193.66 L 320.10 190.94 L 323.75 190.86 L 327.40 196.30 L 331.05 189.92 L 334.70 191.37 L 338.35 185.14 L 342.00 186.24 L 345.65 179.57 L 349.30 179.66 L 352.95 172.46 L 356.60 175.61 L 360.25 176.94 L 363.90 171.48 L 367.55 170.51 L 371.20 170.60 L 374.85 169.94 L 378.50 165.65 L 382.15 169.53 L 385.80 162.77 L 389.45 159.63 L 393.10 156.62 L 396.75 155.03 L 400.40 157.60 L 404.05 155.49 L 407.70 156.39 L 411.35 158.58 L 415.00 158.46 L 418.65 161.07 L 422.30 160.20 L 425.95 157.49 L 429.60 156.04 L 433.25 163.36 L 436.90 162.41 L 440.55 157.65 L 444.20 159.88 L 447.85 161.10 L 451.50 166.86 L 455.15 165.61 L 458.80 159.71 L 462.45 163.52 L 466.10 166.12 L 469.75 168.81 L 473.40 170.00 L 477.05 172.99 L 480.70 175.34 L 484.35 179.05 L 488.00 177.79 L 491.65 172.76 L 495.30 170.72 L 498.95 171.77 L 502.60 168.85 L 506.25 166.04 L 509.90 164.45 L 513.55 168.79 L 517.20 174.30 L 520.85 176.49 L 524.50 171.72 L 528.15 176.43 L 531.80 171.93 L 535.45 166.64 L 539.10 168.61 L 542.75 169.54 L 546.40 167.94 L 550.05 169.96 L 553.70 170.71 L 557.35 173.02 L 561.00 168.39 L 564.65 170.61 L 568.30 173.49 L 571.95 175.82 L 575.60 176.54 L 579.25 176.58 L 582.90 177.09 L 586.55 174.81 L 590.20 174.63 L 593.85 172.86 L 597.50 167.82 L 601.15 169.61 L 604.80 173.64 L 608.45 178.80 L 612.10 185.13 L 615.75 185.15 L 619.40 179.50 L 623.05 173.93 L 626.70 176.45 L 630.35 180.58 L 634.00 183.80 L 637.65 182.54 L 641.30 177.91 L 644.95 186.91 L 648.60 193.02 L 652.25 193.69 L 655.90 193.76 L 659.55 188.19 L 663.20 188.55 L 666.85 189.13 L 670.50 184.40 L 674.15 186.82 L 677.80 191.34 L 681.45 188.81 L 685.10 183.08 L 688.75 182.55 L 692.40 188.49 L 696.05 191.64 L 699.70 190.24 L 703.35 188.15 L 707.00 188.02 L 710.65 186.05 L 714.30 182.78 L 717.95 179.53 L 721.60 181.36 L 725.25 186.26 L 728.90 185.95 L 732.55 180.93 L 736.20 180.16 L 739.85 176.31 L 743.50 179.95 L 747.15 178.97 L 750.80 168.68 L 754.45 174.03 L 758.10 175.59 L 761.75 171.49 L 765.40 170.54 L 769.05 169.75 L 772.70 163.70 L 776.35 162.74 L 780.00 166.77" class="path-3" />
<path d="M 50.00 139.91 L 53.65 135.55 L 57.30 136.13 L 60.95 142.04 L 64.60 142.07 L 68.25 141.52 L 71.90 141.64 L 75.55 141.99 L 79.20 144.44 L 82.85 148.27 L 86.50 143.75 L 90.15 149.36 L 93.80 148.89 L 97.45 146.83 L 101.10 146.31 L 104.75 148.28 L 108.40 145.01 L 112.05 145.97 L 115.70 145.03 L 119.35 149.03 L 123.00 148.84 L 126.65 147.57 L 130.30 150.79 L 133.95 158.00 L 137.60 158.59 L 141.25 160.28 L 144.90 160.91 L 148.55 159.11 L 152.20 162.73 L 155.85 158.46 L 159.50 159.27 L 163.15 151.56 L 166.80 151.15 L 170.45 152.52 L 174.10 155.18 L 177.75 159.21 L 181.40 159.85 L 185.05 163.34 L 188.70 163.90 L 192.35 164.31 L 196.00 174.55 L 199.65 172.28 L 203.30 169.61 L 206.95 171.56 L 210.60 180.19 L 214.25 187.63 L 217.90 185.95 L 221.55 186.39 L 225.20 183.55 L 228.85 182.20 L 232.50 180.46 L 236.15 181.23 L 239.80 180.43 L 243.45 178.97 L 247.10 178.88 L 250.75 175.83 L 254.40 173.37 L 258.05 171.95 L 261.70 172.44 L 265.35 174.85 L 269.00 173.13 L 272.65 171.56 L 276.30 174.94 L 279.95 176.52 L 283.60 180.00 L 287.25 185.81 L 290.90 187.97 L 294.55 190.75 L 298.20 195.45 L 301.85 199.94 L 305.50 196.38 L 309.15 195.40 L 312.80 196.05 L 316.45 197.99 L 320.10 193.35 L 323.75 193.16 L 327.40 191.93 L 331.05 187.49 L 334.70 185.08 L 338.35 188.83 L 342.00 194.69 L 345.65 196.96 L 349.30 196.58 L 352.95 193.81 L 356.60 191.95 L 360.25 192.37 L 363.90 192.36 L 367.55 193.89 L 371.20 202.62 L 374.85 201.13 L 378.50 203.42 L 382.15 204.07 L 385.80 201.82 L 389.45 199.85 L 393.10 199.57 L 396.75 202.12 L 400.40 197.61 L 404.05 202.10 L 407.70 202.12 L 411.35 196.91 L 415.00 195.62 L 418.65 199.77 L 422.30 200.46 L 425.95 201.33 L 429.60 203.37 L 433.25 206.57 L 436.90 207.66 L 440.55 200.16 L 444.20 203.42 L 447.85 204.85 L 451.50 210.22 L 455.15 221.17 L 458.80 226.90 L 462.45 229.02 L 466.10 229.10 L 469.75 224.77 L 473.40 220.64 L 477.05 220.29 L 480.70 218.89 L 484.35 216.27 L 488.00 215.70 L 491.65 212.45 L 495.30 212.19 L 498.95 212.17 L 502.60 209.69 L 506.25 211.30 L 509.90 212.29 L 513.55 211.04 L 517.20 214.06 L 520.85 211.45 L 524.50 209.81 L 528.15 209.15 L 531.80 213.18 L 535.45 216.78 L 539.10 224.92 L 542.75 227.53 L 546.40 229.63 L 550.05 229.76 L 553.70 229.11 L 557.35 228.00 L 561.00 227.91 L 564.65 222.21 L 568.30 224.19 L 571.95 224.93 L 575.60 224.85 L 579.25 222.74 L 582.90 219.07 L 586.55 217.84 L 590.20 222.32 L 593.85 216.00 L 597.50 222.32 L 601.15 220.97 L 604.80 217.36 L 608.45 215.89 L 612.10 217.74 L 615.75 222.58 L 619.40 227.87 L 623.05 226.23 L 626.70 223.91 L 630.35 225.83 L 634.00 224.87 L 637.65 230.11 L 641.30 223.64 L 644.95 219.94 L 648.60 225.57 L 652.25 227.34 L 655.90 226.90 L 659.55 222.28 L 663.20 223.78 L 666.85 218.16 L 670.50 219.41 L 674.15 216.27 L 677.80 218.91 L 681.45 219.84 L 685.10 223.77 L 688.75 222.00 L 692.40 222.50 L 696.05 226.28 L 699.70 222.52 L 703.35 229.07 L 707.00 233.72 L 710.65 229.42 L 714.30 229.60 L 717.95 226.45 L 721.60 222.99 L 725.25 222.24 L 728.90 219.51 L 732.55 215.27 L 736.20 214.48 L 739.85 215.53 L 743.50 215.46 L 747.15 212.53 L 750.80 216.75 L 754.45 219.76 L 758.10 224.30 L 761.75 221.53 L 765.40 222.28 L 769.05 217.92 L 772.70 216.16 L 776.35 214.64 L 780.00 212.86" class="path-4" />
<line x1="50" y1="139.9" x2="780" y2="139.9" stroke="#4b5563" stroke-width="0.8" stroke-dasharray="6 3" />
</svg>