<svg xmlns="http://www.w3.org/2000/svg" viewBox="0 0 800 300" width="800" height="300">
<style>
.axis-line { stroke: #6b7280; stroke-width: 0.5; }
.axis-text { font-family: monospace; font-size: 11px; fill: #9ca3af; }
.title-text { font-family: monospace; font-size: 14px; fill: #d1d5db; font-weight: bold; }
.grid-line { stroke: #374151; stroke-width: 0.3; stroke-dasharray: 4 2; }
.path-0 { fill: none; stroke: #3b82f6; stroke-width: 2; stroke-linecap: round; opacity: 0.85; animation: draw-0 8s ease-in-out 0.0s infinite; stroke-dasharray: 1072; stroke-dashoffset: 1072;}
@keyframes draw-0 { 0% { stroke-dashoffset: 1072; } 38% { stroke-dashoffset: 0; } 62% { stroke-dashoffset: 0; } 100% { stroke-dashoffset: 1072; }}
.path-1 { fill: none; stroke: #ef4444; stroke-width: 2; stroke-linecap: round; opacity: 0.85; animation: draw-1 8s ease-in-out 0.4s infinite; stroke-dasharray: 1059; stroke-dashoffset: 1059;}
@keyframes draw-1 { 0% { stroke-dashoffset: 1059; } 38% { stroke-dashoffset: 0; } 62% { stroke-dashoffset: 0; } 100% { stroke-dashoffset: 1059; }}
.path-2 { fill: none; stroke: #22c55e; stroke-width: 2; stroke-linecap: round; opacity: 0.85; animation: draw-2 8s ease-in-out 0.8s infinite; stroke-dasharray: 1071; stroke-dashoffset: 1071;}
@keyframes draw-2 { 0% { stroke-dashoffset: 1071; } 38% { stroke-dashoffset: 0; } 62% { stroke-dashoffset: 0; } 100% { stroke-dashoffset: 1071; }}
.path-3 { fill: none; stroke: #f59e0b; stroke-width: 2; stroke-linecap: round; opacity: 0.85; animation: draw-3 8s ease-in-out 1.2000000000000002s infinite; stroke-dasharray: 1128; stroke-dashoffset: 1128;}
@keyframes draw-3 { 0% { stroke-dashoffset: 1128; } 38% { stroke-dashoffset: 0; } 62% { stroke-dashoffset: 0; } 100% { stroke-dashoffset: 1128; }}
.path-4 { fill: none; stroke: #a855f7; stroke-width: 2; stroke-linecap: round; opacity: 0.85; animation: draw-4 8s ease-in-out 1.6s infinite; stroke-dasharray: 1065; stroke-dashoffset: 1065;}
@keyframes draw-4 { 0% { stroke-dashoffset: 1065; } 38% { stroke-dashoffset: 0; } 62% { stroke-dashoffset: 0; } 100% { stroke-dashoffset: 1065; }}
</style>
<rect width="800" height="300" rx="8" fill="#0d1117" />
<line x1="50" y1="260.0" x2="780" y2="260.0" class="grid-line" />
<text x="44" y="264.0" text-anchor="end" class="axis-text">-2.2</text>
<line x1="50" y1="216.0" x2="780" y2="216.0" class="grid-line" />
<text x="44" y="220.0" text-anchor="end" class="axis-text">-1.5</text>
<line x1="50" y1="172.0" x2="780" y2="172.0" class="grid-line" />
<text x="44" y="176.0" text-anchor="end" class="axis-text">-0.8</text>
<line x1="50" y1="128.0" x2="780" y2="128.0" class="grid-line" />
<text x="44" y="132.0" text-anchor="end" class="axis-text">-0.1</text>
<line x1="50" y1="84.0" x2="780" y2="84.0" class="grid-line" />
<text x="44" y="88.0" text-anchor="end" class="axis-text">0.7</text>
<line x1="50" y1="40.0" x2="780" y2="40.0" class="grid-line" />
<text x="44" y="44.0" text-anchor="end" class="axis-text">1.4</text>
<line x1="50.0" y1="40" x2="50.0" y2="260" class="grid-line" />
<line x1="196.0" y1="40" x2="196.0" y2="260" class="grid-line" />
<line x1="342.0" y1="40" x2="342.0" y2="260" class="grid-line" />
<line x1="488.0" y1="40" x2="488.0" y2="260" class="grid-line" />
<line x1="634.0" y1="40" x2="634.0" y2="260" class="grid-line" />
<line x1="780.0" y1="40" x2="780.0" y2="260" class="grid-line" />
<line x1="50" y1="260" x2="780" y2="260" class="axis-line" />
<line x1="50" y1="40" x2="50" y2="260" class="axis-line" />
<text x="400.0" y="295" text-anchor="middle" class="axis-text">t</text>
<text x="12" y="150.0" text-anchor="middle" class="axis-text" transform="rotate(-90 12 150.0)">W(t)</text>
<text x="400.0" y="22" text-anchor="middle" class="title-text">Brownian Motion</text>
<path d="M 50.00 124.55 L 53.65 128.88 L 57.30 122.43 L 60.95 120.78 L 64.60 117.37 L 68.25 121.32 L 71.90 123.97 L 75.55 123.89 L 79.20 131.11 L 82.85 133.75 L 86.50 128.07 L 90.15 127.60 L 93.80 126.05 L 97.45 122.99 L 101.10 125.12 L 104.75 120.37 L 108.40 124.26 L 112.05 122.18 L 115.70 113.40 L 119.35 111.08 L 123.00 120.52 L 126.65 118.92 L 130.30 111.82 L 133.95 112.66 L 137.60 112.54 L 141.25 118.21 L 144.90 118.82 L 148.55 125.90 L 152.20 127.38 L 155.85 124.93 L 159.50 129.31 L 163.15 131.10 L 166.80 125.80 L 170.45 127.98 L 174.10 133.30 L 177.75 130.49 L 181.40 131.33 L 185.05 129.92 L 188.70 135.75 L 192.35 137.78 L 196.00 135.52 L 199.65 134.55 L 203.30 142.31 L 206.95 149.45 L 210.60 152.66 L 214.25 150.51 L 217.90 151.15 L 221.55 151.12 L 225.20 151.72 L 228.85 157.57 L 232.50 164.65 L 236.15 163.22 L 239.80 166.67 L 243.45 169.50 L 247.10 166.51 L 250.75 169.71 L 254.40 169.63 L 258.05 171.71 L 261.70 174.39 L 265.35 172.72 L 269.00 167.22 L 272.65 175.01 L 276.30 168.45 L 279.95 174.60 L 283.60 170.86 L 287.25 173.79 L 290.90 173.81 L 294.55 173.69 L 298.20 181.61 L 301.85 186.36 L 305.50 192.13 L 309.15 191.72 L 312.80 189.57 L 316.45 196.59 L 320.10 195.16 L 323.75 195.63 L 327.40 189.24 L 331.05 188.21 L 334.70 191.00 L 338.35 194.08 L 342.00 189.66 L 345.65 181.14 L 349.30 177.96 L 352.95 176.83 L 356.60 187.60 L 360.25 189.95 L 363.90 194.78 L 367.55 191.11 L 371.20 191.02 L 374.85 196.36 L 378.50 199.43 L 382.15 199.05 L 385.80 198.09 L 389.45 197.80 L 393.10 201.86 L 396.75 208.23 L 400.40 202.46 L 404.05 204.87 L 407.70 209.56 L 411.35 208.58 L 415.00 210.49 L 418.65 219.34 L 422.30 221.96 L 425.95 216.53 L 429.60 212.99 L 433.25 220.08 L 436.90 216.68 L 440.55 224.05 L 444.20 224.46 L 447.85 225.47 L 451.50 225.15 L 455.15 223.87 L 458.80 227.17 L 462.45 234.62 L 466.10 225.69 L 469.75 221.03 L 473.40 220.62 L 477.05 217.58 L 480.70 215.19 L 484.35 212.66 L 488.00 222.16 L 491.65 223.27 L 495.30 226.25 L 498.95 226.85 L 502.60 228.49 L 506.25 222.93 L 509.90 216.00 L 513.55 218.26 L 517.20 222.64 L 520.85 216.35 L 524.50 217.17 L 528.15 218.02 L 531.80 222.18 L 535.45 216.38 L 539.10 214.94 L 542.75 209.87 L 546.40 209.50 L 550.05 204.93 L 553.70 203.83 L 557.35 195.01 L 561.00 196.25 L 564.65 191.80 L 568.30 190.23 L 571.95 193.64 L 575.60 195.22 L 579.25 197.26 L 582.90 199.23 L 586.55 201.16 L 590.20 204.98 L 593.85 202.04 L 597.50 205.99 L 601.15 205.35 L 604.80 207.14 L 608.45 206.86 L 612.10 204.45 L 615.75 201.74 L 619.40 200.41 L 623.05 203.09 L 626.70 206.36 L 630.35 204.52 L 634.00 207.77 L 637.65 212.38 L 641.30 207.53 L 644.95 205.56 L 648.60 207.60 L 652.25 198.01 L 655.90 196.18 L 659.55 199.13 L 663.20 196.91 L 666.85 191.24 L 670.50 193.13 L 674.15 198.96 L 677.80 193.59 L 681.45 185.01 L 685.10 185.53 L 688.75 182.82 L 692.40 172.41 L 696.05 178.20 L 699.70 175.50 L 703.35 169.25 L 707.00 173.18 L 710.65 173.05 L 714.30 170.84 L 717.95 175.19 L 721.60 170.89 L 725.25 169.71 L 728.90 163.86 L 732.55 162.30 L 736.20 166.04 L 739.85 164.43 L 743.50 162.13 L 747.15 161.44 L 750.80 162.42 L 754.45 161.16 L 758.10 163.57 L 761.75 169.49 L 765.40 178.02 L 769.05 180.89 L 772.70 183.42 L 776.35 181.76 L 780.00 182.78" class="path-0" />
<path d="M 50.00 124.55 L 53.65 125.88 L 57.30 119.92 L 60.95 123.65 L 64.60 121.76 L 68.25 115.60 L 71.90 107.84 L 75.55 104.81 L 79.20 104.79 L 82.85 105.90 L 86.50 104.91 L 90.15 106.00 L 93.80 107.78 L 97.45 106.17 L 101.10 104.85 L 104.75 103.86 L 108.40 104.89 L 112.05 106.26 L 115.70 106.97 L 119.35 102.48 L 123.00 103.90 L 126.65 107.61 L 130.30 107.30 L 133.95 106.34 L 137.60 109.76 L 141.25 104.88 L 144.90 105.82 L 148.55 104.77 L 152.20 98.66 L 155.85 89.48 L 159.50 89.31 L 163.15 90.31 L 166.80 89.14 L 170.45 89.21 L 174.10 92.44 L 177.75 97.34 L 181.40 102.08 L 185.05 101.50 L 188.70 102.07 L 192.35 105.98 L 196.00 107.63 L 199.65 112.47 L 203.30 113.73 L 206.95 117.27 L 210.60 116.83 L 214.25 121.31 L 217.90 125.32 L 221.55 126.08 L 225.20 123.86 L 228.85 121.30 L 232.50 119.48 L 236.15 123.96 L 239.80 118.92 L 243.45 119.07 L 247.10 119.16 L 250.75 118.15 L 254.40 119.55 L 258.05 121.92 L 261.70 123.79 L 265.35 119.18 L 269.00 121.09 L 272.65 119.13 L 276.30 120.89 L 279.95 120.45 L 283.60 122.17 L 287.25 123.86 L 290.90 119.90 L 294.55 121.13 L 298.20 117.72 L 301.85 121.07 L 305.50 113.95 L 309.15 113.59 L 312.80 114.29 L 316.45 118.72 L 320.10 121.00 L 323.75 117.51 L 327.40 117.80 L 331.05 118.40 L 334.70 128.79 L 338.35 122.24 L 342.00 118.23 L 345.65 125.89 L 349.30 123.48 L 352.95 118.79 L 356.60 122.22 L 360.25 125.60 L 363.90 120.52 L 367.55 117.65 L 371.20 111.80 L 374.85 101.65 L 378.50 98.87 L 382.15 98.56 L 385.80 91.93 L 389.45 88.51 L 393.10 83.57 L 396.75 88.71 L 400.40 95.09 L 404.05 98.75 L 407.70 102.98 L 411.35 92.83 L 415.00 97.68 L 418.65 92.90 L 422.30 90.56 L 425.95 87.99 L 429.60 81.41 L 433.25 84.48 L 436.90 79.41 L 440.55 80.20 L 444.20 72.83 L 447.85 74.06 L 451.50 76.21 L 455.15 76.96 L 458.80 78.57 L 462.45 78.76 L 466.10 78.41 L 469.75 78.35 L 473.40 72.07 L 477.05 75.08 L 480.70 78.63 L 484.35 78.16 L 488.00 79.49 L 491.65 86.24 L 495.30 86.61 L 498.95 88.66 L 502.60 91.55 L 506.25 90.51 L 509.90 88.38 L 513.55 90.43 L 517.20 94.12 L 520.85 91.70 L 524.50 80.98 L 528.15 80.39 L 531.80 86.23 L 535.45 87.22 L 539.10 91.69 L 542.75 98.54 L 546.40 97.44 L 550.05 97.52 L 553.70 96.84 L 557.35 88.66 L 561.00 87.57 L 564.65 94.65 L 568.30 88.06 L 571.95 94.45 L 575.60 90.49 L 579.25 96.35 L 582.90 101.67 L 586.55 98.73 L 590.20 92.76 L 593.85 87.47 L 597.50 79.39 L 601.15 77.55 L 604.80 78.22 L 608.45 79.34 L 612.10 74.06 L 615.75 71.03 L 619.40 73.53 L 623.05 77.07 L 626.70 70.27 L 630.35 76.52 L 634.00 71.36 L 637.65 74.35 L 641.30 68.13 L 644.95 68.91 L 648.60 65.38 L 652.25 70.95 L 655.90 73.79 L 659.55 74.54 L 663.20 75.30 L 666.85 80.58 L 670.50 83.08 L 674.15 80.53 L 677.80 81.42 L 681.45 81.16 L 685.10 79.27 L 688.75 77.12 L 692.40 76.30 L 696.05 80.99 L 699.70 85.59 L 703.35 90.36 L 707.00 93.59 L 710.65 88.34 L 714.30 91.25 L 717.95 94.83 L 721.60 99.00 L 725.25 107.10 L 728.90 107.42 L 732.55 109.23 L 736.20 108.01 L 739.85 99.66 L 743.50 101.38 L 747.15 98.53 L 750.80 101.30 L 754.45 92.69 L 758.10 99.59 L 761.75 107.77 L 765.40 115.14 L 769.05 116.89 L 772.70 123.97 L 776.35 122.24 L 780.00 117.78" class="path-1" />
<path d="M 50.00 124.55 L 53.65 130.83 L 57.30 133.72 L 60.95 134.93 L 64.60 132.81 L 68.25 142.35 L 71.90 146.08 L 75.55 156.02 L 79.20 159.02 L 82.85 164.25 L 86.50 162.23 L 90.15 158.51 L 93.80 150.01 L 97.45 146.17 L 101.10 147.57 L 104.75 156.80 L 108.40 157.01 L 112.05 161.82 L 115.70 165.49 L 119.35 167.30 L 123.00 172.66 L 126.65 172.49 L 130.30 178.35 L 133.95 185.93 L 137.60 186.11 L 141.25 183.96 L 144.90 186.70 L 148.55 183.82 L 152.20 189.20 L 155.85 183.15 L 159.50 183.13 L 163.15 185.03 L 166.80 185.30 L 170.45 177.03 L 174.10 173.29 L 177.75 168.80 L 181.40 169.50 L 185.05 166.98 L 188.70 165.08 L 192.35 167.39 L 196.00 171.82 L 199.65 167.70 L 203.30 173.05 L 206.95 172.35 L 210.60 175.21 L 214.25 174.06 L 217.90 176.42 L 221.55 179.52 L 225.20 176.64 L 228.85 180.36 L 232.50 181.62 L 236.15 180.20 L 239.80 184.36 L 243.45 189.78 L 247.10 181.97 L 250.75 176.68 L 254.40 178.98 L 258.05 177.46 L 261.70 173.01 L 265.35 172.27 L 269.00 177.87 L 272.65 179.85 L 276.30 181.45 L 279.95 183.36 L 283.60 184.36 L 287.25 182.63 L 290.90 184.83 L 294.55 185.00 L 298.20 181.20 L 301.85 183.76 L 305.50 184.77 L 309.15 178.78 L 312.80 182.76 L 316.45 180.33 L 320.10 172.10 L 323.75 169.98 L 327.40 167.63 L 331.05 168.59 L 334.70 165.85 L 338.35 168.07 L 342.00 167.03 L 345.65 160.11 L 349.30 166.90 L 352.95 166.60 L 356.60 168.88 L 360.25 173.11 L 363.90 174.11 L 367.55 173.01 L 371.20 176.18 L 374.85 177.41 L 378.50 181.69 L 382.15 181.89 L 385.80 178.94 L 389.45 178.59 L 393.10 189.90 L 396.75 193.38 L 400.40 195.96 L 404.05 201.37 L 407.70 203.61 L 411.35 201.18 L 415.00 197.42 L 418.65 192.74 L 422.30 191.02 L 425.95 188.35 L 429.60 188.30 L 433.25 180.42 L 436.90 177.32 L 440.55 181.42 L 444.20 176.89 L 447.85 178.33 L 451.50 177.63 L 455.15 177.76 L 458.80 181.69 L 462.45 178.28 L 466.10 184.04 L 469.75 186.07 L 473.40 178.23 L 477.05 183.69 L 480.70 186.51 L 484.35 178.98 L 488.00 178.84 L 491.65 183.41 L 495.30 185.52 L 498.95 188.42 L 502.60 185.87 L 506.25 184.17 L 509.90 189.17 L 513.55 186.88 L 517.20 186.42 L 520.85 188.21 L 524.50 189.97 L 528.15 185.53 L 531.80 197.77 L 535.45 192.64 L 539.10 188.46 L 542.75 192.45 L 546.40 189.82 L 550.05 188.96 L 553.70 192.05 L 557.35 187.15 L 561.00 186.72 L 564.65 187.05 L 568.30 194.22 L 571.95 188.43 L 575.60 190.04 L 579.25 185.76 L 582.90 188.89 L 586.55 193.03 L 590.20 192.39 L 593.85 197.91 L 597.50 203.47 L 601.15 198.55 L 604.80 203.87 L 608.45 199.95 L 612.10 205.29 L 615.75 212.72 L 619.40 217.20 L 623.05 217.10 L 626.70 216.43 L 630.35 218.31 L 634.00 216.83 L 637.65 219.28 L 641.30 219.00 L 644.95 222.03 L 648.60 222.91 L 652.25 222.07 L 655.90 226.64 L 659.55 223.78 L 663.20 223.65 L 666.85 223.47 L 670.50 221.11 L 674.15 215.60 L 677.80 212.68 L 681.45 210.97 L 685.10 210.57 L 688.75 202.77 L 692.40 205.73 L 696.05 201.27 L 699.70 195.20 L 703.35 200.63 L 707.00 196.59 L 710.65 202.32 L 714.30 201.98 L 717.95 190.24 L 721.60 191.19 L 725.25 197.09 L 728.90 198.72 L 732.55 192.75 L 736.20 188.24 L 739.85 188.27 L 743.50 184.19 L 747.15 193.66 L 750.80 190.20 L 754.45 191.56 L 758.10 192.48 L 761.75 192.43 L 765.40 187.71 L 769.05 179.78 L 772.70 182.48 L 776.35 173.91 L 780.00 173.05" class="path-2" />
<path d="M 50.00 124.55 L 53.65 126.51 L 57.30 133.89 L 60.95 134.03 L 64.60 145.51 L 68.25 137.35 L 71.90 137.30 L 75.55 141.43 L 79.20 139.00 L 82.85 141.97 L 86.50 146.77 L 90.15 142.09 L 93.80 135.50 L 97.45 127.83 L 101.10 121.79 L 104.75 123.52 L 108.40 121.11 L 112.05 116.22 L 115.70 117.27 L 119.35 114.89 L 123.00 124.33 L 126.65 128.07 L 130.30 126.55 L 133.95 116.26 L 137.60 116.66 L 141.25 113.41 L 144.90 114.94 L 148.55 116.18 L 152.20 114.47 L 155.85 108.57 L 159.50 110.79 L 163.15 104.88 L 166.80 111.78 L 170.45 118.33 L 174.10 115.52 L 177.75 109.54 L 181.40 118.81 L 185.05 118.00 L 188.70 117.96 L 192.35 115.98 L 196.00 102.39 L 199.65 104.93 L 203.30 105.55 L 206.95 105.02 L 210.60 103.74 L 214.25 99.72 L 217.90 107.92 L 221.55 116.86 L 225.20 117.89 L 228.85 119.53 L 232.50 113.66 L 236.15 113.20 L 239.80 113.79 L 243.45 114.50 L 247.10 118.09 L 250.75 125.95 L 254.40 119.70 L 258.05 110.57 L 261.70 114.62 L 265.35 115.40 L 269.00 114.01 L 272.65 119.38 L 276.30 118.88 L 279.95 121.57 L 283.60 123.82 L 287.25 126.60 L 290.90 129.92 L 294.55 132.04 L 298.20 128.39 L 301.85 127.66 L 305.50 125.45 L 309.15 126.75 L 312.80 125.93 L 316.45 125.09 L 320.10 124.14 L 323.75 128.38 L 327.40 127.42 L 331.05 117.61 L 334.70 112.45 L 338.35 114.15 L 342.00 113.30 L 345.65 111.10 L 349.30 113.47 L 352.95 111.93 L 356.60 117.63 L 360.25 123.45 L 363.90 132.71 L 367.55 131.63 L 371.20 132.46 L 374.85 133.69 L 378.50 134.50 L 382.15 126.32 L 385.80 136.11 L 389.45 138.20 L 393.10 141.01 L 396.75 135.54 L 400.40 137.25 L 404.05 139.54 L 407.70 142.20 L 411.35 148.47 L 415.00 149.03 L 418.65 155.49 L 422.30 164.92 L 425.95 163.95 L 429.60 162.41 L 433.25 159.76 L 436.90 158.72 L 440.55 160.87 L 444.20 158.49 L 447.85 151.11 L 451.50 152.84 L 455.15 154.14 L 458.80 157.85 L 462.45 158.91 L 466.10 162.37 L 469.75 171.95 L 473.40 161.91 L 477.05 159.29 L 480.70 157.89 L 484.35 153.92 L 488.00 157.42 L 491.65 157.00 L 495.30 164.70 L 498.95 160.13 L 502.60 160.78 L 506.25 160.77 L 509.90 159.56 L 513.55 160.49 L 517.20 153.96 L 520.85 145.84 L 524.50 137.43 L 528.15 138.57 L 531.80 149.16 L 535.45 143.65 L 539.10 148.57 L 542.75 149.35 L 546.40 148.67 L 550.05 151.92 L 553.70 157.27 L 557.35 161.47 L 561.00 161.33 L 564.65 165.29 L 568.30 158.17 L 571.95 161.55 L 575.60 161.44 L 579.25 158.47 L 582.90 149.84 L 586.55 151.38 L 590.20 147.66 L 593.85 149.89 L 597.50 153.23 L 601.15 148.40 L 604.80 144.62 L 608.45 139.76 L 612.10 138.28 L 615.75 139.69 L 619.40 142.18 L 623.05 151.56 L 626.70 149.45 L 630.35 148.43 L 634.00 142.53 L 637.65 142.16 L 641.30 137.53 L 644.95 136.54 L 648.60 137.55 L 652.25 134.77 L 655.90 130.99 L 659.55 120.99 L 663.20 116.72 L 666.85 113.80 L 670.50 112.12 L 674.15 110.98 L 677.80 105.19 L 681.45 108.56 L 685.10 109.18 L 688.75 100.30 L 692.40 107.89 L 696.05 112.46 L 699.70 119.05 L 703.35 112.47 L 707.00 112.92 L 710.65 118.14 L 714.30 127.69 L 717.95 127.60 L 721.60 126.19 L 725.25 130.08 L 728.90 129.86 L 732.55 126.20 L 736.20 130.33 L 739.85 128.49 L 743.50 129.58 L 747.15 125.91 L 750.80 120.66 L 754.45 128.92 L 758.10 125.57 L 761.75 128.21 L 765.40 130.66 L 769.05 127.75 L 772.70 131.62 L 776.35 128.32 L 780.00 137.17" class="path-3" />
<path d="M 50.00 124.55 L 53.65 126.30 L 57.30 124.24 L 60.95 123.95 L 64.60 115.27 L 68.25 120.31 L 71.90 113.72 L 75.55 111.08 L 79.20 110.87 L 82.85 110.24 L 86.50 116.42 L 90.15 115.50 L 93.80 118.62 L 97.45 126.56 L 101.10 131.80 L 104.75 133.25 L 108.40 132.07 L 112.05 132.14 L 115.70 127.45 L 119.35 127.74 L 123.00 134.02 L 126.65 139.76 L 130.30 135.34 L 133.95 136.65 L 137.60 141.02 L 141.25 136.26 L 144.90 135.88 L 148.55 128.01 L 152.20 124.32 L 155.85 127.25 L 159.50 122.02 L 163.15 124.51 L 166.80 122.13 L 170.45 118.31 L 174.10 122.87 L 177.75 114.64 L 181.40 110.85 L 185.05 107.30 L 188.70 105.44 L 192.35 105.57 L 196.00 102.49 L 199.65 104.26 L 203.30 99.03 L 206.95 99.91 L 210.60 96.65 L 214.25 94.41 L 217.90 99.20 L 221.55 99.59 L 225.20 100.56 L 228.85 103.60 L 232.50 106.19 L 236.15 105.01 L 239.80 105.87 L 243.45 103.95 L 247.10 107.42 L 250.75 109.11 L 254.40 109.23 L 258.05 108.64 L 261.70 111.88 L 265.35 115.87 L 269.00 125.36 L 272.65 121.95 L 276.30 124.91 L 279.95 115.74 L 283.60 109.09 L 287.25 111.07 L 290.90 114.12 L 294.55 114.36 L 298.20 116.99 L 301.85 118.55 L 305.50 123.85 L 309.15 126.19 L 312.80 124.17 L 316.45 119.51 L 320.10 115.86 L 323.75 115.02 L 327.40 121.99 L 331.05 124.05 L 334.70 127.98 L 338.35 125.97 L 342.00 121.41 L 345.65 125.70 L 349.30 131.00 L 352.95 126.07 L 356.60 128.70 L 360.25 124.96 L 363.90 125.47 L 367.55 121.47 L 371.20 121.81 L 374.85 121.18 L 378.50 119.49 L 382.15 111.70 L 385.80 107.42 L 389.45 102.88 L 393.10 104.66 L 396.75 100.79 L 400.40 106.01 L 404.05 105.84 L 407.70 104.72 L 411.35 105.96 L 415.00 115.06 L 418.65 115.89 L 422.30 106.50 L 425.95 110.28 L 429.60 110.79 L 433.25 108.35 L 436.90 100.79 L 440.55 98.66 L 444.20 97.18 L 447.85 100.81 L 451.50 102.20 L 455.15 100.24 L 458.80 99.35 L 462.45 93.29 L 466.10 99.03 L 469.75 92.46 L 473.40 91.26 L 477.05 95.82 L 480.70 92.22 L 484.35 96.88 L 488.00 97.03 L 491.65 98.60 L 495.30 97.95 L 498.95 91.45 L 502.60 100.77 L 506.25 105.62 L 509.90 105.25 L 513.55 100.89 L 517.20 100.94 L 520.85 96.12 L 524.50 96.74 L 528.15 93.57 L 531.80 90.49 L 535.45 91.29 L 539.10 83.92 L 542.75 86.37 L 546.40 85.34 L 550.05 89.01 L 553.70 91.19 L 557.35 91.48 L 561.00 95.57 L 564.65 93.71 L 568.30 90.50 L 571.95 83.47 L 575.60 78.65 L 579.25 83.68 L 582.90 82.00 L 586.55 74.89 L 590.20 80.66 L 593.85 77.89 L 597.50 76.15 L 601.15 74.71 L 604.80 70.80 L 608.45 74.31 L 612.10 81.14 L 615.75 75.85 L 619.40 76.34 L 623.05 77.12 L 626.70 83.29 L 630.35 79.33 L 634.00 75.86 L 637.65 73.01 L 641.30 72.45 L 644.95 74.60 L 648.60 75.90 L 652.25 74.40 L 655.90 79.56 L 659.55 79.05 L 663.20 66.70 L 666.85 69.60 L 670.50 70.29 L 674.15 70.96 L 677.80 68.32 L 681.45 69.03 L 685.10 67.52 L 688.75 74.55 L 692.40 76.28 L 696.05 75.81 L 699.70 78.42 L 703.35 73.32 L 707.00 76.75 L 710.65 73.11 L 714.30 68.12 L 717.95 75.96 L 721.60 75.26 L 725.25 74.84 L 728.90 71.19 L 732.55 79.27 L 736.20 82.29 L 739.85 85.92 L 743.50 92.55 L 747.15 95.52 L 750.80 102.00 L 754.45 92.89 L 758.10 97.23 L 761.75 96.40 L 765.40 105.63 L 769.05 100.47 L 772.70 99.36 L 776.35 99.69 L 780.00 101.18" class="path-4" />
<line x1="50" y1="124.6" x2="780" y2="124.6" stroke="#4b5563" stroke-width="0.8" stroke-dasharray="6 3" />
</svg>