<svg xmlns="http://www.w3.org/2000/svg" viewBox="0 0 800 300" width="800" height="300">
<style>
.axis-line { stroke: #6b7280; stroke-width: 0.5; }
.axis-text { font-family: monospace; font-size: 11px; fill: #9ca3af; }
.title-text { font-family: monospace; font-size: 14px; fill: #d1d5db; font-weight: bold; }
.grid-line { stroke: #374151; stroke-width: 0.3; stroke-dasharray: 4 2; }
.path-0 { fill: none; stroke: #3b82f6; stroke-width: 2; stroke-linecap: round; opacity: 0.85; animation: draw-0 8s ease-in-out 0.0s infinite; stroke-dasharray: 1156; stroke-dashoffset: 1156;}
@keyframes draw-0 { 0% { stroke-dashoffset: 1156; } 38% { stroke-dashoffset: 0; } 62% { stroke-dashoffset: 0; } 100% { stroke-dashoffset: 1156; }}
.path-1 { fill: none; stroke: #ef4444; stroke-width: 2; stroke-linecap: round; opacity: 0.85; animation: draw-1 8s ease-in-out 0.4s infinite; stroke-dasharray: 1098; stroke-dashoffset: 1098;}
@keyframes draw-1 { 0% { stroke-dashoffset: 1098; } 38% { stroke-dashoffset: 0; } 62% { stroke-dashoffset: 0; } 100% { stroke-dashoffset: 1098; }}
.path-2 { fill: none; stroke: #22c55e; stroke-width: 2; stroke-linecap: round; opacity: 0.85; animation: draw-2 8s ease-in-out 0.8s infinite; stroke-dasharray: 1120; stroke-dashoffset: 1120;}
@keyframes draw-2 { 0% { stroke-dashoffset: 1120; } 38% { stroke-dashoffset: 0; } 62% { stroke-dashoffset: 0; } 100% { stroke-dashoffset: 1120; }}
.path-3 { fill: none; stroke: #f59e0b; stroke-width: 2; stroke-linecap: round; opacity: 0.85; animation: draw-3 8s ease-in-out 1.2000000000000002s infinite; stroke-dasharray: 1087; stroke-dashoffset: 1087;}
@keyframes draw-3 { 0% { stroke-dashoffset: 1087; } 38% { stroke-dashoffset: 0; } 62% { stroke-dashoffset: 0; } 100% { stroke-dashoffset: 1087; }}
.path-4 { fill: none; stroke: #a855f7; stroke-width: 2; stroke-linecap: round; opacity: 0.85; animation: draw-4 8s ease-in-out 1.6s infinite; stroke-dasharray: 1099; stroke-dashoffset: 1099;}
@keyframes draw-4 { 0% { stroke-dashoffset: 1099; } 38% { stroke-dashoffset: 0; } 62% { stroke-dashoffset: 0; } 100% { stroke-dashoffset: 1099; }}
</style>
<rect width="800" height="300" rx="8" fill="#0d1117" />
<line x1="50" y1="260.0" x2="780" y2="260.0" class="grid-line" />
<text x="44" y="264.0" text-anchor="end" class="axis-text">-2.2</text>
<line x1="50" y1="216.0" x2="780" y2="216.0" class="grid-line" />
<text x="44" y="220.0" text-anchor="end" class="axis-text">-1.5</text>
<line x1="50" y1="172.0" x2="780" y2="172.0" class="grid-line" />
<text x="44" y="176.0" text-anchor="end" class="axis-text">-0.8</text>
<line x1="50" y1="128.0" x2="780" y2="128.0" class="grid-line" />
<text x="44" y="132.0" text-anchor="end" class="axis-text">-0.1</text>
<line x1="50" y1="84.0" x2="780" y2="84.0" class="grid-line" />
<text x="44" y="88.0" text-anchor="end" class="axis-text">0.6</text>
<line x1="50" y1="40.0" x2="780" y2="40.0" class="grid-line" />
<text x="44" y="44.0" text-anchor="end" class="axis-text">1.3</text>
<line x1="50.0" y1="40" x2="50.0" y2="260" class="grid-line" />
<line x1="196.0" y1="40" x2="196.0" y2="260" class="grid-line" />
<line x1="342.0" y1="40" x2="342.0" y2="260" class="grid-line" />
<line x1="488.0" y1="40" x2="488.0" y2="260" class="grid-line" />
<line x1="634.0" y1="40" x2="634.0" y2="260" class="grid-line" />
<line x1="780.0" y1="40" x2="780.0" y2="260" class="grid-line" />
<line x1="50" y1="260" x2="780" y2="260" class="axis-line" />
<line x1="50" y1="40" x2="50" y2="260" class="axis-line" />
<text x="400.0" y="295" text-anchor="middle" class="axis-text">t</text>
<text x="12" y="150.0" text-anchor="middle" class="axis-text" transform="rotate(-90 12 150.0)">W(t)</text>
<text x="400.0" y="22" text-anchor="middle" class="title-text">Brownian Motion</text>
<path d="M 50.00 119.50 L 53.65 124.07 L 57.30 124.08 L 60.95 124.56 L 64.60 121.45 L 68.25 120.92 L 71.90 112.02 L 75.55 110.72 L 79.20 114.71 L 82.85 113.31 L 86.50 103.17 L 90.15 107.84 L 93.80 101.65 L 97.45 104.61 L 101.10 101.68 L 104.75 95.44 L 108.40 92.61 L 112.05 90.89 L 115.70 84.15 L 119.35 69.93 L 123.00 76.88 L 126.65 71.99 L 130.30 70.82 L 133.95 73.95 L 137.60 72.46 L 141.25 70.75 L 144.90 79.55 L 148.55 84.42 L 152.20 87.53 L 155.85 91.37 L 159.50 84.91 L 163.15 86.45 L 166.80 83.53 L 170.45 86.94 L 174.10 78.62 L 177.75 78.93 L 181.40 81.19 L 185.05 81.08 L 188.70 84.00 L 192.35 87.84 L 196.00 87.50 L 199.65 85.11 L 203.30 88.58 L 206.95 90.92 L 210.60 85.03 L 214.25 85.74 L 217.90 94.03 L 221.55 102.23 L 225.20 105.62 L 228.85 110.19 L 232.50 112.84 L 236.15 107.98 L 239.80 109.60 L 243.45 112.87 L 247.10 108.90 L 250.75 104.37 L 254.40 100.47 L 258.05 110.40 L 261.70 111.87 L 265.35 110.32 L 269.00 115.44 L 272.65 112.14 L 276.30 111.84 L 279.95 120.56 L 283.60 110.43 L 287.25 117.12 L 290.90 117.99 L 294.55 115.19 L 298.20 118.54 L 301.85 119.07 L 305.50 125.36 L 309.15 124.36 L 312.80 122.93 L 316.45 134.69 L 320.10 137.92 L 323.75 136.45 L 327.40 138.54 L 331.05 144.92 L 334.70 151.81 L 338.35 162.14 L 342.00 157.85 L 345.65 161.45 L 349.30 165.49 L 352.95 165.61 L 356.60 179.15 L 360.25 178.65 L 363.90 180.05 L 367.55 178.54 L 371.20 175.46 L 374.85 167.55 L 378.50 163.05 L 382.15 167.74 L 385.80 173.39 L 389.45 184.85 L 393.10 180.90 L 396.75 186.77 L 400.40 188.86 L 404.05 191.07 L 407.70 194.85 L 411.35 186.88 L 415.00 192.46 L 418.65 190.16 L 422.30 188.91 L 425.95 200.11 L 429.60 209.92 L 433.25 214.51 L 436.90 218.35 L 440.55 216.90 L 444.20 221.15 L 447.85 216.76 L 451.50 209.25 L 455.15 213.99 L 458.80 219.62 L 462.45 214.38 L 466.10 215.18 L 469.75 212.11 L 473.40 215.90 L 477.05 226.40 L 480.70 222.76 L 484.35 222.19 L 488.00 213.72 L 491.65 209.54 L 495.30 208.58 L 498.95 204.31 L 502.60 205.22 L 506.25 205.96 L 509.90 204.82 L 513.55 204.37 L 517.20 204.08 L 520.85 202.92 L 524.50 202.68 L 528.15 197.04 L 531.80 204.85 L 535.45 201.85 L 539.10 197.10 L 542.75 196.17 L 546.40 202.11 L 550.05 191.94 L 553.70 190.78 L 557.35 197.93 L 561.00 200.01 L 564.65 200.31 L 568.30 191.97 L 571.95 195.44 L 575.60 190.45 L 579.25 186.96 L 582.90 193.59 L 586.55 196.33 L 590.20 188.12 L 593.85 189.02 L 597.50 190.75 L 601.15 185.33 L 604.80 187.66 L 608.45 182.18 L 612.10 180.33 L 615.75 177.28 L 619.40 182.37 L 623.05 184.19 L 626.70 182.00 L 630.35 178.98 L 634.00 185.92 L 637.65 182.73 L 641.30 181.86 L 644.95 190.60 L 648.60 190.46 L 652.25 184.03 L 655.90 188.01 L 659.55 193.16 L 663.20 193.72 L 666.85 197.63 L 670.50 201.60 L 674.15 203.06 L 677.80 206.62 L 681.45 208.96 L 685.10 208.16 L 688.75 210.13 L 692.40 211.95 L 696.05 209.94 L 699.70 211.57 L 703.35 206.27 L 707.00 202.84 L 710.65 201.19 L 714.30 202.16 L 717.95 210.17 L 721.60 207.71 L 725.25 219.68 L 728.90 216.17 L 732.55 220.41 L 736.20 220.51 L 739.85 222.74 L 743.50 222.79 L 747.15 220.88 L 750.80 219.35 L 754.45 221.27 L 758.10 223.20 L 761.75 228.01 L 765.40 220.60 L 769.05 217.87 L 772.70 222.84 L 776.35 227.86 L 780.00 234.62" class="path-0" />
<path d="M 50.00 119.50 L 53.65 126.73 L 57.30 126.82 L 60.95 132.36 L 64.60 129.57 L 68.25 135.14 L 71.90 131.60 L 75.55 130.46 L 79.20 135.42 L 82.85 135.88 L 86.50 133.91 L 90.15 132.49 L 93.80 136.31 L 97.45 135.58 L 101.10 140.85 L 104.75 143.94 L 108.40 145.23 L 112.05 144.30 L 115.70 142.61 L 119.35 150.66 L 123.00 147.45 L 126.65 152.97 L 130.30 160.73 L 133.95 161.32 L 137.60 161.27 L 141.25 163.39 L 144.90 158.33 L 148.55 154.13 L 152.20 152.34 L 155.85 150.12 L 159.50 154.41 L 163.15 144.96 L 166.80 144.63 L 170.45 136.90 L 174.10 142.56 L 177.75 143.26 L 181.40 141.25 L 185.05 132.34 L 188.70 130.21 L 192.35 128.69 L 196.00 127.50 L 199.65 135.01 L 203.30 133.48 L 206.95 126.65 L 210.60 124.64 L 214.25 128.07 L 217.90 125.81 L 221.55 126.57 L 225.20 121.78 L 228.85 111.09 L 232.50 109.45 L 236.15 99.32 L 239.80 104.19 L 243.45 96.70 L 247.10 97.45 L 250.75 92.47 L 254.40 85.50 L 258.05 85.59 L 261.70 89.94 L 265.35 86.61 L 269.00 86.44 L 272.65 89.68 L 276.30 87.66 L 279.95 89.22 L 283.60 93.39 L 287.25 93.36 L 290.90 90.82 L 294.55 97.35 L 298.20 106.00 L 301.85 110.16 L 305.50 114.63 L 309.15 121.22 L 312.80 122.02 L 316.45 116.16 L 320.10 124.67 L 323.75 129.57 L 327.40 122.35 L 331.05 128.32 L 334.70 136.58 L 338.35 143.31 L 342.00 141.79 L 345.65 144.44 L 349.30 143.80 L 352.95 144.50 L 356.60 139.33 L 360.25 133.48 L 363.90 133.22 L 367.55 131.65 L 371.20 122.93 L 374.85 123.82 L 378.50 117.23 L 382.15 118.20 L 385.80 117.13 L 389.45 115.68 L 393.10 124.20 L 396.75 122.21 L 400.40 125.01 L 404.05 119.76 L 407.70 122.07 L 411.35 126.41 L 415.00 126.56 L 418.65 131.54 L 422.30 126.82 L 425.95 125.89 L 429.60 125.93 L 433.25 127.31 L 436.90 125.47 L 440.55 121.14 L 444.20 118.47 L 447.85 127.01 L 451.50 120.00 L 455.15 114.75 L 458.80 99.37 L 462.45 101.41 L 466.10 96.57 L 469.75 91.03 L 473.40 88.54 L 477.05 95.97 L 480.70 94.72 L 484.35 95.67 L 488.00 92.38 L 491.65 93.62 L 495.30 97.12 L 498.95 101.82 L 502.60 100.16 L 506.25 100.20 L 509.90 101.26 L 513.55 103.94 L 517.20 105.51 L 520.85 110.89 L 524.50 116.45 L 528.15 114.37 L 531.80 108.63 L 535.45 103.27 L 539.10 98.09 L 542.75 98.06 L 546.40 94.36 L 550.05 92.02 L 553.70 93.67 L 557.35 94.69 L 561.00 92.59 L 564.65 91.82 L 568.30 98.73 L 571.95 85.72 L 575.60 80.24 L 579.25 86.27 L 582.90 89.38 L 586.55 89.61 L 590.20 89.20 L 593.85 88.89 L 597.50 87.35 L 601.15 89.74 L 604.80 87.60 L 608.45 88.97 L 612.10 93.46 L 615.75 91.90 L 619.40 92.74 L 623.05 85.27 L 626.70 86.64 L 630.35 85.28 L 634.00 81.65 L 637.65 83.39 L 641.30 86.91 L 644.95 87.60 L 648.60 87.03 L 652.25 93.95 L 655.90 96.30 L 659.55 96.47 L 663.20 96.57 L 666.85 95.05 L 670.50 100.90 L 674.15 96.71 L 677.80 96.51 L 681.45 92.43 L 685.10 89.60 L 688.75 96.16 L 692.40 91.01 L 696.05 89.49 L 699.70 82.31 L 703.35 84.09 L 707.00 86.21 L 710.65 88.29 L 714.30 90.22 L 717.95 96.23 L 721.60 92.25 L 725.25 100.53 L 728.90 97.57 L 732.55 97.17 L 736.20 96.70 L 739.85 101.08 L 743.50 102.65 L 747.15 109.31 L 750.80 105.85 L 754.45 104.17 L 758.10 101.45 L 761.75 108.15 L 765.40 108.83 L 769.05 111.06 L 772.70 106.13 L 776.35 99.35 L 780.00 97.40" class="path-1" />
<path d="M 50.00 119.50 L 53.65 115.96 L 57.30 112.77 L 60.95 106.44 L 64.60 113.58 L 68.25 119.39 L 71.90 116.49 L 75.55 117.68 L 79.20 121.31 L 82.85 122.72 L 86.50 124.92 L 90.15 121.62 L 93.80 120.76 L 97.45 106.30 L 101.10 102.04 L 104.75 105.87 L 108.40 103.40 L 112.05 99.38 L 115.70 98.64 L 119.35 104.39 L 123.00 103.57 L 126.65 107.26 L 130.30 98.98 L 133.95 100.72 L 137.60 97.31 L 141.25 99.13 L 144.90 103.40 L 148.55 100.98 L 152.20 100.25 L 155.85 94.56 L 159.50 91.78 L 163.15 86.78 L 166.80 79.11 L 170.45 76.88 L 174.10 75.78 L 177.75 77.22 L 181.40 75.13 L 185.05 76.55 L 188.70 78.24 L 192.35 82.03 L 196.00 79.74 L 199.65 83.80 L 203.30 80.81 L 206.95 80.25 L 210.60 80.87 L 214.25 77.70 L 217.90 81.53 L 221.55 84.26 L 225.20 88.65 L 228.85 81.01 L 232.50 85.73 L 236.15 81.62 L 239.80 71.22 L 243.45 65.86 L 247.10 65.38 L 250.75 67.93 L 254.40 76.73 L 258.05 81.17 L 261.70 81.47 L 265.35 68.77 L 269.00 76.48 L 272.65 71.42 L 276.30 77.34 L 279.95 86.57 L 283.60 92.34 L 287.25 92.36 L 290.90 89.87 L 294.55 88.48 L 298.20 80.28 L 301.85 80.99 L 305.50 78.29 L 309.15 81.67 L 312.80 82.89 L 316.45 89.90 L 320.10 86.83 L 323.75 87.67 L 327.40 88.88 L 331.05 102.03 L 334.70 98.06 L 338.35 95.86 L 342.00 100.62 L 345.65 98.74 L 349.30 94.69 L 352.95 94.54 L 356.60 100.32 L 360.25 102.98 L 363.90 108.11 L 367.55 107.51 L 371.20 92.81 L 374.85 90.32 L 378.50 85.53 L 382.15 88.36 L 385.80 84.87 L 389.45 87.84 L 393.10 88.58 L 396.75 95.99 L 400.40 101.78 L 404.05 105.24 L 407.70 105.31 L 411.35 107.41 L 415.00 108.71 L 418.65 113.12 L 422.30 115.94 L 425.95 111.11 L 429.60 115.88 L 433.25 112.95 L 436.90 113.22 L 440.55 114.88 L 444.20 111.98 L 447.85 112.55 L 451.50 117.65 L 455.15 122.48 L 458.80 126.53 L 462.45 124.73 L 466.10 121.99 L 469.75 124.30 L 473.40 120.84 L 477.05 118.73 L 480.70 113.25 L 484.35 109.71 L 488.00 112.16 L 491.65 108.85 L 495.30 118.11 L 498.95 117.55 L 502.60 110.04 L 506.25 112.16 L 509.90 116.81 L 513.55 117.79 L 517.20 120.33 L 520.85 119.64 L 524.50 117.55 L 528.15 118.08 L 531.80 117.67 L 535.45 115.97 L 539.10 122.05 L 542.75 118.61 L 546.40 124.27 L 550.05 125.14 L 553.70 119.30 L 557.35 111.14 L 561.00 115.00 L 564.65 115.69 L 568.30 112.77 L 571.95 115.31 L 575.60 127.91 L 579.25 127.13 L 582.90 124.01 L 586.55 118.11 L 590.20 119.70 L 593.85 110.25 L 597.50 101.57 L 601.15 104.71 L 604.80 109.63 L 608.45 96.67 L 612.10 98.33 L 615.75 103.76 L 619.40 106.58 L 623.05 99.98 L 626.70 101.69 L 630.35 103.42 L 634.00 104.26 L 637.65 109.06 L 641.30 107.53 L 644.95 109.00 L 648.60 111.55 L 652.25 111.40 L 655.90 109.84 L 659.55 105.18 L 663.20 109.32 L 666.85 112.26 L 670.50 117.84 L 674.15 121.50 L 677.80 113.11 L 681.45 113.38 L 685.10 111.17 L 688.75 112.37 L 692.40 104.02 L 696.05 93.75 L 699.70 92.30 L 703.35 92.12 L 707.00 98.31 L 710.65 92.99 L 714.30 96.45 L 717.95 96.23 L 721.60 100.39 L 725.25 93.46 L 728.90 98.60 L 732.55 101.41 L 736.20 107.71 L 739.85 104.22 L 743.50 101.66 L 747.15 100.45 L 750.80 95.02 L 754.45 98.63 L 758.10 99.15 L 761.75 92.53 L 765.40 90.32 L 769.05 88.16 L 772.70 91.84 L 776.35 90.67 L 780.00 90.83" class="path-2" />
<path d="M 50.00 119.50 L 53.65 125.30 L 57.30 123.45 L 60.95 120.48 L 64.60 127.40 L 68.25 129.53 L 71.90 129.52 L 75.55 121.91 L 79.20 121.70 L 82.85 115.33 L 86.50 113.30 L 90.15 112.03 L 93.80 113.00 L 97.45 108.90 L 101.10 112.45 L 104.75 117.82 L 108.40 117.93 L 112.05 111.59 L 115.70 116.07 L 119.35 119.06 L 123.00 122.84 L 126.65 119.09 L 130.30 123.60 L 133.95 119.70 L 137.60 121.59 L 141.25 111.08 L 144.90 110.86 L 148.55 113.46 L 152.20 115.39 L 155.85 119.92 L 159.50 129.82 L 163.15 122.13 L 166.80 121.47 L 170.45 123.07 L 174.10 122.97 L 177.75 122.57 L 181.40 127.59 L 185.05 127.88 L 188.70 138.95 L 192.35 137.39 L 196.00 142.43 L 199.65 145.08 L 203.30 146.38 L 206.95 151.49 L 210.60 151.46 L 214.25 150.60 L 217.90 151.06 L 221.55 149.87 L 225.20 150.44 L 228.85 145.93 L 232.50 138.74 L 236.15 136.31 L 239.80 135.19 L 243.45 137.30 L 247.10 140.95 L 250.75 145.45 L 254.40 150.01 L 258.05 150.55 L 261.70 149.11 L 265.35 141.04 L 269.00 140.95 L 272.65 137.52 L 276.30 134.36 L 279.95 132.34 L 283.60 134.73 L 287.25 131.88 L 290.90 132.42 L 294.55 132.11 L 298.20 134.75 L 301.85 130.66 L 305.50 129.61 L 309.15 138.27 L 312.80 140.10 L 316.45 144.22 L 320.10 145.05 L 323.75 148.86 L 327.40 147.50 L 331.05 149.86 L 334.70 144.91 L 338.35 138.99 L 342.00 141.25 L 345.65 146.99 L 349.30 151.01 L 352.95 147.86 L 356.60 150.02 L 360.25 155.80 L 363.90 145.40 L 367.55 141.78 L 371.20 140.69 L 374.85 145.29 L 378.50 142.21 L 382.15 141.72 L 385.80 138.50 L 389.45 141.43 L 393.10 142.51 L 396.75 151.01 L 400.40 160.17 L 404.05 164.50 L 407.70 173.27 L 411.35 171.89 L 415.00 173.43 L 418.65 166.04 L 422.30 169.76 L 425.95 162.67 L 429.60 166.34 L 433.25 174.65 L 436.90 173.17 L 440.55 165.35 L 444.20 166.73 L 447.85 169.34 L 451.50 165.53 L 455.15 171.99 L 458.80 176.91 L 462.45 168.18 L 466.10 169.50 L 469.75 175.71 L 473.40 181.96 L 477.05 183.38 L 480.70 181.20 L 484.35 179.74 L 488.00 182.51 L 491.65 185.60 L 495.30 196.49 L 498.95 193.25 L 502.60 188.61 L 506.25 189.75 L 509.90 186.23 L 513.55 190.05 L 517.20 188.77 L 520.85 181.70 L 524.50 176.02 L 528.15 168.05 L 531.80 167.78 L 535.45 160.46 L 539.10 162.10 L 542.75 159.31 L 546.40 156.82 L 550.05 159.05 L 553.70 163.86 L 557.35 169.28 L 561.00 167.15 L 564.65 168.41 L 568.30 162.14 L 571.95 166.02 L 575.60 166.19 L 579.25 163.24 L 582.90 162.34 L 586.55 162.77 L 590.20 154.65 L 593.85 154.21 L 597.50 150.80 L 601.15 150.25 L 604.80 145.46 L 608.45 141.39 L 612.10 141.99 L 615.75 139.18 L 619.40 139.76 L 623.05 143.16 L 626.70 147.17 L 630.35 150.49 L 634.00 150.44 L 637.65 156.58 L 641.30 150.83 L 644.95 147.17 L 648.60 140.20 L 652.25 139.88 L 655.90 131.96 L 659.55 129.14 L 663.20 133.33 L 666.85 131.29 L 670.50 120.73 L 674.15 118.59 L 677.80 120.37 L 681.45 122.22 L 685.10 123.74 L 688.75 125.28 L 692.40 119.46 L 696.05 118.06 L 699.70 127.30 L 703.35 129.90 L 707.00 131.02 L 710.65 131.77 L 714.30 131.50 L 717.95 132.66 L 721.60 137.33 L 725.25 136.64 L 728.90 136.23 L 732.55 134.61 L 736.20 131.99 L 739.85 133.14 L 743.50 130.71 L 747.15 122.48 L 750.80 116.42 L 754.45 126.13 L 758.10 126.39 L 761.75 128.17 L 765.40 130.28 L 769.05 127.02 L 772.70 126.05 L 776.35 129.47 L 780.00 133.23" class="path-3" />
<path d="M 50.00 119.50 L 53.65 123.65 L 57.30 118.46 L 60.95 121.84 L 64.60 124.01 L 68.25 123.32 L 71.90 114.52 L 75.55 113.02 L 79.20 112.36 L 82.85 110.07 L 86.50 109.04 L 90.15 104.33 L 93.80 106.94 L 97.45 114.81 L 101.10 121.24 L 104.75 122.64 L 108.40 126.33 L 112.05 121.29 L 115.70 123.75 L 119.35 123.39 L 123.00 115.00 L 126.65 112.07 L 130.30 114.80 L 133.95 117.10 L 137.60 117.39 L 141.25 122.43 L 144.90 121.30 L 148.55 124.62 L 152.20 128.99 L 155.85 121.69 L 159.50 122.02 L 163.15 118.59 L 166.80 115.76 L 170.45 118.92 L 174.10 117.72 L 177.75 121.06 L 181.40 124.47 L 185.05 124.59 L 188.70 124.96 L 192.35 119.49 L 196.00 117.21 L 199.65 118.17 L 203.30 117.62 L 206.95 111.56 L 210.60 114.77 L 214.25 115.36 L 217.90 118.85 L 221.55 122.32 L 225.20 118.40 L 228.85 121.12 L 232.50 126.39 L 236.15 117.03 L 239.80 122.25 L 243.45 124.52 L 247.10 122.85 L 250.75 119.64 L 254.40 111.88 L 258.05 114.72 L 261.70 107.53 L 265.35 109.23 L 269.00 106.93 L 272.65 110.62 L 276.30 117.30 L 279.95 112.65 L 283.60 98.76 L 287.25 98.33 L 290.90 104.98 L 294.55 107.97 L 298.20 111.64 L 301.85 112.59 L 305.50 109.38 L 309.15 103.31 L 312.80 106.09 L 316.45 103.87 L 320.10 98.82 L 323.75 99.20 L 327.40 105.46 L 331.05 103.51 L 334.70 104.84 L 338.35 106.95 L 342.00 106.20 L 345.65 108.10 L 349.30 105.30 L 352.95 112.28 L 356.60 107.86 L 360.25 102.13 L 363.90 112.82 L 367.55 108.24 L 371.20 116.02 L 374.85 100.05 L 378.50 97.06 L 382.15 95.68 L 385.80 95.02 L 389.45 93.84 L 393.10 91.73 L 396.75 98.50 L 400.40 96.62 L 404.05 93.68 L 407.70 96.32 L 411.35 101.32 L 415.00 100.89 L 418.65 94.53 L 422.30 90.87 L 425.95 85.10 L 429.60 88.36 L 433.25 86.19 L 436.90 89.55 L 440.55 86.91 L 444.20 89.33 L 447.85 90.22 L 451.50 92.43 L 455.15 92.60 L 458.80 94.86 L 462.45 90.37 L 466.10 90.00 L 469.75 92.67 L 473.40 89.15 L 477.05 82.77 L 480.70 83.30 L 484.35 88.29 L 488.00 85.02 L 491.65 92.63 L 495.30 92.39 L 498.95 94.99 L 502.60 96.09 L 506.25 100.62 L 509.90 103.94 L 513.55 99.23 L 517.20 95.56 L 520.85 91.61 L 524.50 97.34 L 528.15 90.84 L 531.80 91.52 L 535.45 92.22 L 539.10 91.25 L 542.75 93.65 L 546.40 93.48 L 550.05 99.89 L 553.70 97.70 L 557.35 102.07 L 561.00 106.26 L 564.65 107.20 L 568.30 101.42 L 571.95 99.16 L 575.60 104.90 L 579.25 101.19 L 582.90 107.39 L 586.55 104.61 L 590.20 111.41 L 593.85 114.24 L 597.50 114.54 L 601.15 120.95 L 604.80 121.63 L 608.45 119.68 L 612.10 117.07 L 615.75 119.07 L 619.40 124.04 L 623.05 127.69 L 626.70 134.26 L 630.35 137.96 L 634.00 144.27 L 637.65 141.20 L 641.30 133.88 L 644.95 122.87 L 648.60 127.11 L 652.25 123.81 L 655.90 125.83 L 659.55 132.42 L 663.20 127.96 L 666.85 132.02 L 670.50 133.49 L 674.15 135.09 L 677.80 139.50 L 681.45 145.10 L 685.10 144.21 L 688.75 146.97 L 692.40 156.80 L 696.05 157.27 L 699.70 165.08 L 703.35 160.09 L 707.00 151.42 L 710.65 149.96 L 714.30 149.80 L 717.95 147.47 L 721.60 147.97 L 725.25 150.12 L 728.90 153.36 L 732.55 160.15 L 736.20 157.20 L 739.85 155.91 L 743.50 161.81 L 747.15 169.43 L 750.80 166.19 L 754.45 166.39 L 758.10 169.34 L 761.75 168.69 L 765.40 157.67 L 769.05 155.49 L 772.70 159.96 L 776.35 158.21 L 780.00 158.25" class="path-4" />
<line x1="50" y1="119.5" x2="780" y2="119.5" stroke="#4b5563" stroke-width="0.8" stroke-dasharray="6 3" />
</svg>