<svg xmlns="http://www.w3.org/2000/svg" viewBox="0 0 800 300" width="800" height="300">
<style>
.axis-line { stroke: #6b7280; stroke-width: 0.5; }
.axis-text { font-family: monospace; font-size: 11px; fill: #9ca3af; }
.title-text { font-family: monospace; font-size: 14px; fill: #d1d5db; font-weight: bold; }
.grid-line { stroke: #374151; stroke-width: 0.3; stroke-dasharray: 4 2; }
.path-0 { fill: none; stroke: #3b82f6; stroke-width: 2; stroke-linecap: round; opacity: 0.85; animation: draw-0 8s ease-in-out 0.0s infinite; stroke-dasharray: 917; stroke-dashoffset: 917;}
@keyframes draw-0 { 0% { stroke-dashoffset: 917; } 38% { stroke-dashoffset: 0; } 62% { stroke-dashoffset: 0; } 100% { stroke-dashoffset: 917; }}
.path-1 { fill: none; stroke: #ef4444; stroke-width: 2; stroke-linecap: round; opacity: 0.85; animation: draw-1 8s ease-in-out 0.4s infinite; stroke-dasharray: 889; stroke-dashoffset: 889;}
@keyframes draw-1 { 0% { stroke-dashoffset: 889; } 38% { stroke-dashoffset: 0; } 62% { stroke-dashoffset: 0; } 100% { stroke-dashoffset: 889; }}
.path-2 { fill: none; stroke: #22c55e; stroke-width: 2; stroke-linecap: round; opacity: 0.85; animation: draw-2 8s ease-in-out 0.8s infinite; stroke-dasharray: 900; stroke-dashoffset: 900;}
@keyframes draw-2 { 0% { stroke-dashoffset: 900; } 38% { stroke-dashoffset: 0; } 62% { stroke-dashoffset: 0; } 100% { stroke-dashoffset: 900; }}
.path-3 { fill: none; stroke: #f59e0b; stroke-width: 2; stroke-linecap: round; opacity: 0.85; animation: draw-3 8s ease-in-out 1.2000000000000002s infinite; stroke-dasharray: 911; stroke-dashoffset: 911;}
@keyframes draw-3 { 0% { stroke-dashoffset: 911; } 38% { stroke-dashoffset: 0; } 62% { stroke-dashoffset: 0; } 100% { stroke-dashoffset: 911; }}
.path-4 { fill: none; stroke: #a855f7; stroke-width: 2; stroke-linecap: round; opacity: 0.85; animation: draw-4 8s ease-in-out 1.6s infinite; stroke-dasharray: 924; stroke-dashoffset: 924;}
@keyframes draw-4 { 0% { stroke-dashoffset: 924; } 38% { stroke-dashoffset: 0; } 62% { stroke-dashoffset: 0; } 100% { stroke-dashoffset: 924; }}
</style>
<rect width="800" height="300" rx="8" fill="#0d1117" />
<line x1="50" y1="260.0" x2="780" y2="260.0" class="grid-line" />
<text x="44" y="264.0" text-anchor="end" class="axis-text">-2.4</text>
<line x1="50" y1="216.0" x2="780" y2="216.0" class="grid-line" />
<text x="44" y="220.0" text-anchor="end" class="axis-text">-1.2</text>
<line x1="50" y1="172.0" x2="780" y2="172.0" class="grid-line" />
<text x="44" y="176.0" text-anchor="end" class="axis-text">-0.1</text>
<line x1="50" y1="128.0" x2="780" y2="128.0" class="grid-line" />
<text x="44" y="132.0" text-anchor="end" class="axis-text">1.0</text>
<line x1="50" y1="84.0" x2="780" y2="84.0" class="grid-line" />
<text x="44" y="88.0" text-anchor="end" class="axis-text">2.2</text>
<line x1="50" y1="40.0" x2="780" y2="40.0" class="grid-line" />
<text x="44" y="44.0" text-anchor="end" class="axis-text">3.3</text>
<line x1="50.0" y1="40" x2="50.0" y2="260" class="grid-line" />
<line x1="196.0" y1="40" x2="196.0" y2="260" class="grid-line" />
<line x1="342.0" y1="40" x2="342.0" y2="260" class="grid-line" />
<line x1="488.0" y1="40" x2="488.0" y2="260" class="grid-line" />
<line x1="634.0" y1="40" x2="634.0" y2="260" class="grid-line" />
<line x1="780.0" y1="40" x2="780.0" y2="260" class="grid-line" />
<line x1="50" y1="260" x2="780" y2="260" class="axis-line" />
<line x1="50" y1="40" x2="50" y2="260" class="axis-line" />
<text x="400.0" y="295" text-anchor="middle" class="axis-text">t</text>
<text x="12" y="150.0" text-anchor="middle" class="axis-text" transform="rotate(-90 12 150.0)">W(t)</text>
<text x="400.0" y="22" text-anchor="middle" class="title-text">Brownian Motion</text>
<path d="M 50.00 168.23 L 53.65 170.25 L 57.30 168.75 L 60.95 173.85 L 64.60 173.95 L 68.25 172.33 L 71.90 171.91 L 75.55 172.17 L 79.20 172.01 L 82.85 172.17 L 86.50 182.15 L 90.15 182.63 L 93.80 179.25 L 97.45 181.83 L 101.10 182.83 L 104.75 182.56 L 108.40 174.92 L 112.05 172.69 L 115.70 173.62 L 119.35 177.21 L 123.00 182.42 L 126.65 187.35 L 130.30 188.55 L 133.95 190.10 L 137.60 187.24 L 141.25 187.82 L 144.90 191.96 L 148.55 193.56 L 152.20 199.08 L 155.85 199.12 L 159.50 199.47 L 163.15 199.86 L 166.80 199.43 L 170.45 197.01 L 174.10 199.39 L 177.75 202.59 L 181.40 205.00 L 185.05 203.25 L 188.70 208.56 L 192.35 204.58 L 196.00 207.05 L 199.65 205.67 L 203.30 207.57 L 206.95 208.64 L 210.60 208.73 L 214.25 216.98 L 217.90 219.47 L 221.55 218.85 L 225.20 221.85 L 228.85 219.24 L 232.50 221.33 L 236.15 220.21 L 239.80 214.61 L 243.45 211.74 L 247.10 209.79 L 250.75 211.69 L 254.40 209.78 L 258.05 207.96 L 261.70 208.41 L 265.35 207.11 L 269.00 205.77 L 272.65 206.58 L 276.30 208.62 L 279.95 209.41 L 283.60 204.62 L 287.25 204.57 L 290.90 203.66 L 294.55 203.87 L 298.20 199.31 L 301.85 202.77 L 305.50 206.32 L 309.15 206.06 L 312.80 205.56 L 316.45 207.31 L 320.10 207.98 L 323.75 211.29 L 327.40 210.95 L 331.05 209.67 L 334.70 209.60 L 338.35 213.63 L 342.00 212.78 L 345.65 214.82 L 349.30 211.18 L 352.95 215.63 L 356.60 218.10 L 360.25 219.26 L 363.90 219.89 L 367.55 217.97 L 371.20 216.44 L 374.85 215.34 L 378.50 212.07 L 382.15 210.52 L 385.80 211.02 L 389.45 214.63 L 393.10 216.72 L 396.75 214.86 L 400.40 219.48 L 404.05 223.42 L 407.70 223.46 L 411.35 223.12 L 415.00 228.18 L 418.65 225.48 L 422.30 222.57 L 425.95 219.39 L 429.60 216.59 L 433.25 213.14 L 436.90 220.08 L 440.55 219.06 L 444.20 226.81 L 447.85 227.31 L 451.50 225.37 L 455.15 224.85 L 458.80 228.26 L 462.45 228.74 L 466.10 230.95 L 469.75 229.37 L 473.40 227.45 L 477.05 223.88 L 480.70 221.75 L 484.35 223.42 L 488.00 219.15 L 491.65 221.08 L 495.30 219.28 L 498.95 217.76 L 502.60 218.22 L 506.25 218.27 L 509.90 216.26 L 513.55 217.83 L 517.20 215.79 L 520.85 216.95 L 524.50 214.97 L 528.15 217.39 L 531.80 211.37 L 535.45 215.01 L 539.10 221.91 L 542.75 222.87 L 546.40 220.68 L 550.05 220.17 L 553.70 223.64 L 557.35 224.91 L 561.00 218.77 L 564.65 221.47 L 568.30 218.35 L 571.95 222.45 L 575.60 223.21 L 579.25 222.95 L 582.90 224.40 L 586.55 224.87 L 590.20 226.31 L 593.85 224.27 L 597.50 222.99 L 601.15 222.83 L 604.80 220.40 L 608.45 216.92 L 612.10 220.45 L 615.75 219.96 L 619.40 222.27 L 623.05 221.35 L 626.70 222.78 L 630.35 223.77 L 634.00 226.50 L 637.65 227.52 L 641.30 229.31 L 644.95 231.97 L 648.60 232.33 L 652.25 228.07 L 655.90 224.10 L 659.55 226.08 L 663.20 224.49 L 666.85 223.10 L 670.50 226.61 L 674.15 228.26 L 677.80 230.56 L 681.45 230.30 L 685.10 228.57 L 688.75 229.47 L 692.40 234.62 L 696.05 233.25 L 699.70 233.42 L 703.35 225.48 L 707.00 223.74 L 710.65 219.53 L 714.30 222.70 L 717.95 224.20 L 721.60 226.82 L 725.25 227.19 L 728.90 220.98 L 732.55 220.22 L 736.20 224.19 L 739.85 222.79 L 743.50 216.79 L 747.15 219.46 L 750.80 220.74 L 754.45 222.29 L 758.10 226.10 L 761.75 229.08 L 765.40 226.69 L 769.05 221.71 L 772.70 223.02 L 776.35 222.36 L 780.00 221.06" class="path-0" />
<path d="M 50.00 168.23 L 53.65 168.28 L 57.30 168.35 L 60.95 173.58 L 64.60 172.25 L 68.25 172.41 L 71.90 171.30 L 75.55 169.59 L 79.20 170.96 L 82.85 165.08 L 86.50 159.85 L 90.15 157.03 L 93.80 157.55 L 97.45 156.56 L 101.10 163.34 L 104.75 166.41 L 108.40 168.53 L 112.05 165.14 L 115.70 163.54 L 119.35 166.71 L 123.00 171.12 L 126.65 170.62 L 130.30 169.78 L 133.95 169.41 L 137.60 168.74 L 141.25 171.92 L 144.90 171.10 L 148.55 171.23 L 152.20 170.45 L 155.85 166.88 L 159.50 171.83 L 163.15 173.73 L 166.80 175.66 L 170.45 173.64 L 174.10 176.07 L 177.75 179.00 L 181.40 172.47 L 185.05 171.79 L 188.70 170.35 L 192.35 167.54 L 196.00 166.99 L 199.65 167.87 L 203.30 168.45 L 206.95 170.78 L 210.60 170.81 L 214.25 173.65 L 217.90 174.67 L 221.55 177.26 L 225.20 175.09 L 228.85 177.23 L 232.50 181.52 L 236.15 179.52 L 239.80 181.24 L 243.45 179.53 L 247.10 181.06 L 250.75 184.50 L 254.40 188.54 L 258.05 187.09 L 261.70 183.89 L 265.35 185.49 L 269.00 186.64 L 272.65 181.54 L 276.30 182.71 L 279.95 186.27 L 283.60 187.19 L 287.25 186.74 L 290.90 189.63 L 294.55 190.03 L 298.20 195.75 L 301.85 196.03 L 305.50 194.57 L 309.15 189.95 L 312.80 187.78 L 316.45 189.08 L 320.10 190.61 L 323.75 190.41 L 327.40 191.80 L 331.05 193.08 L 334.70 191.76 L 338.35 194.64 L 342.00 191.50 L 345.65 189.77 L 349.30 193.96 L 352.95 196.43 L 356.60 198.83 L 360.25 199.27 L 363.90 192.55 L 367.55 191.67 L 371.20 192.45 L 374.85 188.57 L 378.50 189.01 L 382.15 189.71 L 385.80 192.02 L 389.45 193.86 L 393.10 196.86 L 396.75 198.40 L 400.40 193.11 L 404.05 187.87 L 407.70 185.27 L 411.35 188.86 L 415.00 189.76 L 418.65 188.11 L 422.30 192.50 L 425.95 191.47 L 429.60 193.04 L 433.25 194.40 L 436.90 194.65 L 440.55 197.33 L 444.20 198.36 L 447.85 196.05 L 451.50 196.28 L 455.15 195.76 L 458.80 196.69 L 462.45 200.57 L 466.10 203.91 L 469.75 206.67 L 473.40 208.22 L 477.05 208.00 L 480.70 208.41 L 484.35 207.88 L 488.00 208.99 L 491.65 211.79 L 495.30 209.88 L 498.95 212.54 L 502.60 212.25 L 506.25 208.10 L 509.90 210.03 L 513.55 208.43 L 517.20 205.95 L 520.85 201.95 L 524.50 202.34 L 528.15 204.80 L 531.80 203.82 L 535.45 204.01 L 539.10 203.52 L 542.75 199.73 L 546.40 199.97 L 550.05 200.18 L 553.70 199.48 L 557.35 202.32 L 561.00 201.52 L 564.65 200.09 L 568.30 201.10 L 571.95 199.47 L 575.60 204.96 L 579.25 203.44 L 582.90 200.94 L 586.55 202.00 L 590.20 200.85 L 593.85 200.48 L 597.50 197.99 L 601.15 197.32 L 604.80 193.77 L 608.45 195.32 L 612.10 192.94 L 615.75 190.15 L 619.40 190.43 L 623.05 188.46 L 626.70 183.36 L 630.35 180.11 L 634.00 184.52 L 637.65 184.66 L 641.30 182.82 L 644.95 183.08 L 648.60 184.29 L 652.25 188.05 L 655.90 188.10 L 659.55 194.14 L 663.20 192.42 L 666.85 194.66 L 670.50 195.10 L 674.15 189.47 L 677.80 191.01 L 681.45 190.02 L 685.10 190.98 L 688.75 194.80 L 692.40 198.60 L 696.05 197.91 L 699.70 197.20 L 703.35 198.80 L 707.00 201.30 L 710.65 198.97 L 714.30 199.57 L 717.95 198.26 L 721.60 198.75 L 725.25 195.41 L 728.90 195.64 L 732.55 199.76 L 736.20 198.96 L 739.85 199.65 L 743.50 197.31 L 747.15 197.51 L 750.80 202.94 L 754.45 204.23 L 758.10 200.75 L 761.75 202.21 L 765.40 201.10 L 769.05 204.54 L 772.70 202.30 L 776.35 197.60 L 780.00 196.62" class="path-1" />
<path d="M 50.00 168.23 L 53.65 167.73 L 57.30 166.31 L 60.95 165.79 L 64.60 164.41 L 68.25 167.42 L 71.90 175.04 L 75.55 173.37 L 79.20 174.14 L 82.85 172.49 L 86.50 168.80 L 90.15 170.85 L 93.80 168.46 L 97.45 169.46 L 101.10 170.22 L 104.75 167.42 L 108.40 164.39 L 112.05 159.63 L 115.70 161.66 L 119.35 160.53 L 123.00 160.54 L 126.65 157.77 L 130.30 156.34 L 133.95 153.20 L 137.60 152.75 L 141.25 150.16 L 144.90 153.36 L 148.55 155.37 L 152.20 156.67 L 155.85 156.67 L 159.50 156.49 L 163.15 157.60 L 166.80 158.41 L 170.45 154.62 L 174.10 156.82 L 177.75 158.82 L 181.40 154.30 L 185.05 155.81 L 188.70 158.71 L 192.35 161.63 L 196.00 158.81 L 199.65 159.05 L 203.30 155.06 L 206.95 158.15 L 210.60 157.38 L 214.25 154.47 L 217.90 149.71 L 221.55 149.01 L 225.20 151.27 L 228.85 153.66 L 232.50 155.37 L 236.15 156.58 L 239.80 161.46 L 243.45 159.24 L 247.10 162.53 L 250.75 161.94 L 254.40 161.21 L 258.05 160.36 L 261.70 163.06 L 265.35 158.66 L 269.00 153.20 L 272.65 147.25 L 276.30 144.84 L 279.95 144.78 L 283.60 144.03 L 287.25 143.76 L 290.90 148.79 L 294.55 149.10 L 298.20 150.01 L 301.85 149.43 L 305.50 147.96 L 309.15 149.13 L 312.80 150.82 L 316.45 148.12 L 320.10 145.67 L 323.75 148.08 L 327.40 147.79 L 331.05 147.66 L 334.70 148.80 L 338.35 150.54 L 342.00 151.80 L 345.65 153.79 L 349.30 158.49 L 352.95 158.05 L 356.60 153.76 L 360.25 156.64 L 363.90 152.82 L 367.55 147.90 L 371.20 146.23 L 374.85 146.96 L 378.50 145.27 L 382.15 137.31 L 385.80 135.30 L 389.45 132.79 L 393.10 132.37 L 396.75 132.15 L 400.40 133.89 L 404.05 133.49 L 407.70 134.06 L 411.35 135.75 L 415.00 135.72 L 418.65 131.20 L 422.30 139.10 L 425.95 140.08 L 429.60 138.16 L 433.25 140.93 L 436.90 143.53 L 440.55 141.72 L 444.20 141.54 L 447.85 142.44 L 451.50 143.25 L 455.15 141.42 L 458.80 138.18 L 462.45 135.51 L 466.10 131.65 L 469.75 133.65 L 473.40 134.23 L 477.05 130.65 L 480.70 128.44 L 484.35 129.90 L 488.00 130.14 L 491.65 130.81 L 495.30 131.42 L 498.95 133.15 L 502.60 130.17 L 506.25 128.11 L 509.90 129.30 L 513.55 132.01 L 517.20 134.60 L 520.85 132.10 L 524.50 126.86 L 528.15 129.95 L 531.80 131.74 L 535.45 130.74 L 539.10 129.10 L 542.75 129.38 L 546.40 129.88 L 550.05 129.49 L 553.70 130.97 L 557.35 127.51 L 561.00 127.00 L 564.65 121.63 L 568.30 122.30 L 571.95 119.54 L 575.60 119.26 L 579.25 123.79 L 582.90 120.94 L 586.55 117.45 L 590.20 111.96 L 593.85 110.27 L 597.50 106.03 L 601.15 101.75 L 604.80 94.85 L 608.45 94.83 L 612.10 101.05 L 615.75 104.78 L 619.40 105.16 L 623.05 98.98 L 626.70 99.16 L 630.35 94.79 L 634.00 95.48 L 637.65 92.83 L 641.30 95.76 L 644.95 93.51 L 648.60 94.60 L 652.25 97.46 L 655.90 99.28 L 659.55 102.04 L 663.20 98.26 L 666.85 97.26 L 670.50 95.03 L 674.15 93.98 L 677.80 93.78 L 681.45 93.76 L 685.10 92.04 L 688.75 96.00 L 692.40 98.03 L 696.05 95.84 L 699.70 95.33 L 703.35 95.68 L 707.00 94.98 L 710.65 97.11 L 714.30 98.92 L 717.95 94.71 L 721.60 92.36 L 725.25 94.31 L 728.90 100.89 L 732.55 100.52 L 736.20 102.77 L 739.85 105.12 L 743.50 106.68 L 747.15 101.65 L 750.80 104.18 L 754.45 103.68 L 758.10 102.95 L 761.75 104.02 L 765.40 104.82 L 769.05 104.62 L 772.70 102.43 L 776.35 103.21 L 780.00 102.32" class="path-2" />
<path d="M 50.00 168.23 L 53.65 166.43 L 57.30 163.14 L 60.95 159.16 L 64.60 155.60 L 68.25 155.98 L 71.90 155.61 L 75.55 155.36 L 79.20 154.51 L 82.85 159.13 L 86.50 162.14 L 90.15 157.72 L 93.80 154.52 L 97.45 151.30 L 101.10 154.05 L 104.75 159.04 L 108.40 154.17 L 112.05 155.75 L 115.70 155.24 L 119.35 155.73 L 123.00 151.85 L 126.65 156.32 L 130.30 163.29 L 133.95 167.53 L 137.60 166.60 L 141.25 166.56 L 144.90 168.71 L 148.55 172.36 L 152.20 170.92 L 155.85 169.62 L 159.50 165.84 L 163.15 165.92 L 166.80 164.42 L 170.45 165.65 L 174.10 168.97 L 177.75 172.63 L 181.40 173.91 L 185.05 172.27 L 188.70 172.89 L 192.35 172.53 L 196.00 173.55 L 199.65 172.21 L 203.30 171.19 L 206.95 170.81 L 210.60 175.40 L 214.25 173.58 L 217.90 178.08 L 221.55 182.64 L 225.20 182.97 L 228.85 189.78 L 232.50 190.72 L 236.15 193.50 L 239.80 195.40 L 243.45 199.36 L 247.10 198.56 L 250.75 199.08 L 254.40 200.78 L 258.05 199.16 L 261.70 200.36 L 265.35 196.17 L 269.00 197.19 L 272.65 195.37 L 276.30 195.94 L 279.95 199.78 L 283.60 195.95 L 287.25 195.34 L 290.90 199.58 L 294.55 193.02 L 298.20 190.69 L 301.85 192.38 L 305.50 191.61 L 309.15 185.16 L 312.80 185.68 L 316.45 186.64 L 320.10 183.19 L 323.75 190.59 L 327.40 190.87 L 331.05 194.26 L 334.70 193.38 L 338.35 190.59 L 342.00 190.93 L 345.65 193.51 L 349.30 192.85 L 352.95 192.07 L 356.60 192.93 L 360.25 192.73 L 363.90 196.72 L 367.55 200.75 L 371.20 201.70 L 374.85 197.78 L 378.50 202.86 L 382.15 202.43 L 385.80 199.05 L 389.45 201.86 L 393.10 198.99 L 396.75 199.33 L 400.40 197.78 L 404.05 197.67 L 407.70 193.23 L 411.35 191.44 L 415.00 192.62 L 418.65 195.77 L 422.30 194.50 L 425.95 191.87 L 429.60 194.65 L 433.25 192.11 L 436.90 191.35 L 440.55 186.00 L 444.20 182.88 L 447.85 184.08 L 451.50 184.69 L 455.15 186.06 L 458.80 179.93 L 462.45 179.21 L 466.10 180.27 L 469.75 180.12 L 473.40 177.50 L 477.05 181.11 L 480.70 177.04 L 484.35 176.61 L 488.00 174.56 L 491.65 171.39 L 495.30 169.17 L 498.95 171.09 L 502.60 169.30 L 506.25 166.06 L 509.90 167.22 L 513.55 163.41 L 517.20 163.28 L 520.85 161.59 L 524.50 163.19 L 528.15 165.49 L 531.80 166.23 L 535.45 168.35 L 539.10 167.32 L 542.75 168.63 L 546.40 173.30 L 550.05 173.02 L 553.70 173.08 L 557.35 170.49 L 561.00 170.27 L 564.65 171.53 L 568.30 174.24 L 571.95 172.85 L 575.60 173.34 L 579.25 171.65 L 582.90 175.87 L 586.55 176.57 L 590.20 175.54 L 593.85 177.92 L 597.50 174.32 L 601.15 173.58 L 604.80 176.11 L 608.45 172.54 L 612.10 171.70 L 615.75 171.40 L 619.40 174.23 L 623.05 173.37 L 626.70 176.41 L 630.35 173.94 L 634.00 168.55 L 637.65 171.91 L 641.30 170.34 L 644.95 167.12 L 648.60 165.16 L 652.25 165.65 L 655.90 164.41 L 659.55 164.84 L 663.20 159.61 L 666.85 155.86 L 670.50 158.39 L 674.15 154.54 L 677.80 150.51 L 681.45 153.35 L 685.10 149.46 L 688.75 145.93 L 692.40 145.07 L 696.05 142.76 L 699.70 139.84 L 703.35 138.54 L 707.00 136.12 L 710.65 133.76 L 714.30 138.10 L 717.95 140.55 L 721.60 135.38 L 725.25 137.96 L 728.90 139.37 L 732.55 136.61 L 736.20 138.87 L 739.85 133.34 L 743.50 131.94 L 747.15 134.37 L 750.80 136.44 L 754.45 133.98 L 758.10 134.23 L 761.75 134.37 L 765.40 134.42 L 769.05 132.04 L 772.70 129.09 L 776.35 131.72 L 780.00 130.90" class="path-3" />
<path d="M 50.00 168.23 L 53.65 167.60 L 57.30 166.41 L 60.95 165.71 L 64.60 165.57 L 68.25 168.06 L 71.90 165.92 L 75.55 163.62 L 79.20 165.29 L 82.85 169.22 L 86.50 171.40 L 90.15 169.52 L 93.80 160.81 L 97.45 158.42 L 101.10 160.19 L 104.75 164.81 L 108.40 158.09 L 112.05 158.81 L 115.70 161.26 L 119.35 165.22 L 123.00 160.91 L 126.65 159.36 L 130.30 156.22 L 133.95 151.26 L 137.60 155.68 L 141.25 149.45 L 144.90 152.48 L 148.55 149.94 L 152.20 149.27 L 155.85 151.29 L 159.50 149.64 L 163.15 143.72 L 166.80 148.62 L 170.45 143.81 L 174.10 141.45 L 177.75 139.30 L 181.40 133.16 L 185.05 137.52 L 188.70 140.81 L 192.35 135.49 L 196.00 134.75 L 199.65 134.60 L 203.30 137.23 L 206.95 141.85 L 210.60 138.91 L 214.25 135.04 L 217.90 133.96 L 221.55 136.67 L 225.20 135.76 L 228.85 133.46 L 232.50 131.28 L 236.15 128.36 L 239.80 122.80 L 243.45 121.98 L 247.10 124.67 L 250.75 123.53 L 254.40 118.14 L 258.05 115.73 L 261.70 112.65 L 265.35 110.37 L 269.00 109.09 L 272.65 104.95 L 276.30 106.01 L 279.95 106.58 L 283.60 105.21 L 287.25 107.02 L 290.90 108.49 L 294.55 108.28 L 298.20 106.70 L 301.85 107.34 L 305.50 105.54 L 309.15 105.75 L 312.80 109.03 L 316.45 106.26 L 320.10 102.14 L 323.75 97.99 L 327.40 97.10 L 331.05 100.86 L 334.70 103.84 L 338.35 104.66 L 342.00 105.28 L 345.65 102.22 L 349.30 100.09 L 352.95 98.63 L 356.60 99.37 L 360.25 94.53 L 363.90 98.12 L 367.55 101.22 L 371.20 102.64 L 374.85 103.51 L 378.50 103.08 L 382.15 105.90 L 385.80 106.96 L 389.45 109.22 L 393.10 108.85 L 396.75 110.43 L 400.40 109.18 L 404.05 107.52 L 407.70 102.35 L 411.35 99.91 L 415.00 100.93 L 418.65 98.88 L 422.30 99.11 L 425.95 99.34 L 429.60 95.41 L 433.25 91.46 L 436.90 89.76 L 440.55 90.81 L 444.20 94.41 L 447.85 93.79 L 451.50 95.27 L 455.15 91.99 L 458.80 89.75 L 462.45 89.17 L 466.10 85.72 L 469.75 86.28 L 473.40 84.76 L 477.05 84.13 L 480.70 87.49 L 484.35 80.18 L 488.00 82.59 L 491.65 83.22 L 495.30 82.63 L 498.95 81.98 L 502.60 81.08 L 506.25 83.22 L 509.90 81.59 L 513.55 79.42 L 517.20 86.91 L 520.85 88.93 L 524.50 90.18 L 528.15 90.48 L 531.80 91.54 L 535.45 90.44 L 539.10 86.47 L 542.75 82.34 L 546.40 82.00 L 550.05 83.68 L 553.70 85.75 L 557.35 85.59 L 561.00 83.40 L 564.65 83.73 L 568.30 79.75 L 571.95 79.52 L 575.60 77.51 L 579.25 76.76 L 582.90 75.39 L 586.55 77.12 L 590.20 77.73 L 593.85 77.18 L 597.50 78.33 L 601.15 83.11 L 604.80 86.10 L 608.45 89.80 L 612.10 89.34 L 615.75 88.75 L 619.40 88.48 L 623.05 89.06 L 626.70 79.99 L 630.35 81.15 L 634.00 81.41 L 637.65 79.69 L 641.30 81.12 L 644.95 79.89 L 648.60 76.23 L 652.25 76.48 L 655.90 77.07 L 659.55 78.62 L 663.20 80.38 L 666.85 82.60 L 670.50 79.44 L 674.15 79.04 L 677.80 80.63 L 681.45 86.10 L 685.10 84.46 L 688.75 82.96 L 692.40 76.91 L 696.05 74.14 L 699.70 74.85 L 703.35 74.21 L 707.00 72.02 L 710.65 69.98 L 714.30 65.38 L 717.95 70.95 L 721.60 68.47 L 725.25 71.24 L 728.90 71.78 L 732.55 69.24 L 736.20 73.83 L 739.85 73.13 L 743.50 80.82 L 747.15 75.56 L 750.80 74.42 L 754.45 75.32 L 758.10 79.47 L 761.75 74.12 L 765.40 77.57 L 769.05 74.73 L 772.70 74.79 L 776.35 74.86 L 780.00 78.37" class="path-4" />
<line x1="50" y1="168.2" x2="780" y2="168.2" stroke="#4b5563" stroke-width="0.8" stroke-dasharray="6 3" />
</svg>