<svg xmlns="http://www.w3.org/2000/svg" viewBox="0 0 800 300" width="800" height="300">
<style>
.axis-line { stroke: #6b7280; stroke-width: 0.5; }
.axis-text { font-family: monospace; font-size: 11px; fill: #9ca3af; }
.title-text { font-family: monospace; font-size: 14px; fill: #d1d5db; font-weight: bold; }
.grid-line { stroke: #374151; stroke-width: 0.3; stroke-dasharray: 4 2; }
.path-0 { fill: none; stroke: #3b82f6; stroke-width: 2; stroke-linecap: round; opacity: 0.85; animation: draw-0 8s ease-in-out 0.0s infinite; stroke-dasharray: 1072; stroke-dashoffset: 1072;}
@keyframes draw-0 { 0% { stroke-dashoffset: 1072; } 38% { stroke-dashoffset: 0; } 62% { stroke-dashoffset: 0; } 100% { stroke-dashoffset: 1072; }}
.path-1 { fill: none; stroke: #ef4444; stroke-width: 2; stroke-linecap: round; opacity: 0.85; animation: draw-1 8s ease-in-out 0.4s infinite; stroke-dasharray: 1093; stroke-dashoffset: 1093;}
@keyframes draw-1 { 0% { stroke-dashoffset: 1093; } 38% { stroke-dashoffset: 0; } 62% { stroke-dashoffset: 0; } 100% { stroke-dashoffset: 1093; }}
.path-2 { fill: none; stroke: #22c55e; stroke-width: 2; stroke-linecap: round; opacity: 0.85; animation: draw-2 8s ease-in-out 0.8s infinite; stroke-dasharray: 1040; stroke-dashoffset: 1040;}
@keyframes draw-2 { 0% { stroke-dashoffset: 1040; } 38% { stroke-dashoffset: 0; } 62% { stroke-dashoffset: 0; } 100% { stroke-dashoffset: 1040; }}
.path-3 { fill: none; stroke: #f59e0b; stroke-width: 2; stroke-linecap: round; opacity: 0.85; animation: draw-3 8s ease-in-out 1.2000000000000002s infinite; stroke-dasharray: 1066; stroke-dashoffset: 1066;}
@keyframes draw-3 { 0% { stroke-dashoffset: 1066; } 38% { stroke-dashoffset: 0; } 62% { stroke-dashoffset: 0; } 100% { stroke-dashoffset: 1066; }}
.path-4 { fill: none; stroke: #a855f7; stroke-width: 2; stroke-linecap: round; opacity: 0.85; animation: draw-4 8s ease-in-out 1.6s infinite; stroke-dasharray: 1063; stroke-dashoffset: 1063;}
@keyframes draw-4 { 0% { stroke-dashoffset: 1063; } 38% { stroke-dashoffset: 0; } 62% { stroke-dashoffset: 0; } 100% { stroke-dashoffset: 1063; }}
</style>
<rect width="800" height="300" rx="8" fill="#0d1117" />
<line x1="50" y1="260.0" x2="780" y2="260.0" class="grid-line" />
<text x="44" y="264.0" text-anchor="end" class="axis-text">-1.1</text>
<line x1="50" y1="216.0" x2="780" y2="216.0" class="grid-line" />
<text x="44" y="220.0" text-anchor="end" class="axis-text">-0.4</text>
<line x1="50" y1="172.0" x2="780" y2="172.0" class="grid-line" />
<text x="44" y="176.0" text-anchor="end" class="axis-text">0.3</text>
<line x1="50" y1="128.0" x2="780" y2="128.0" class="grid-line" />
<text x="44" y="132.0" text-anchor="end" class="axis-text">1.1</text>
<line x1="50" y1="84.0" x2="780" y2="84.0" class="grid-line" />
<text x="44" y="88.0" text-anchor="end" class="axis-text">1.8</text>
<line x1="50" y1="40.0" x2="780" y2="40.0" class="grid-line" />
<text x="44" y="44.0" text-anchor="end" class="axis-text">2.5</text>
<line x1="50.0" y1="40" x2="50.0" y2="260" class="grid-line" />
<line x1="196.0" y1="40" x2="196.0" y2="260" class="grid-line" />
<line x1="342.0" y1="40" x2="342.0" y2="260" class="grid-line" />
<line x1="488.0" y1="40" x2="488.0" y2="260" class="grid-line" />
<line x1="634.0" y1="40" x2="634.0" y2="260" class="grid-line" />
<line x1="780.0" y1="40" x2="780.0" y2="260" class="grid-line" />
<line x1="50" y1="260" x2="780" y2="260" class="axis-line" />
<line x1="50" y1="40" x2="50" y2="260" class="axis-line" />
<text x="400.0" y="295" text-anchor="middle" class="axis-text">t</text>
<text x="12" y="150.0" text-anchor="middle" class="axis-text" transform="rotate(-90 12 150.0)">W(t)</text>
<text x="400.0" y="22" text-anchor="middle" class="title-text">Brownian Motion</text>
<path d="M 50.00 191.65 L 53.65 193.66 L 57.30 197.11 L 60.95 192.93 L 64.60 198.25 L 68.25 196.94 L 71.90 192.43 L 75.55 185.71 L 79.20 184.32 L 82.85 179.69 L 86.50 176.42 L 90.15 179.70 L 93.80 183.35 L 97.45 185.35 L 101.10 181.67 L 104.75 186.50 L 108.40 180.62 L 112.05 177.54 L 115.70 179.46 L 119.35 174.48 L 123.00 177.37 L 126.65 178.78 L 130.30 174.07 L 133.95 180.52 L 137.60 184.55 L 141.25 184.33 L 144.90 181.42 L 148.55 177.25 L 152.20 179.21 L 155.85 172.41 L 159.50 167.60 L 163.15 175.94 L 166.80 176.49 L 170.45 179.84 L 174.10 176.14 L 177.75 174.61 L 181.40 166.65 L 185.05 167.78 L 188.70 163.59 L 192.35 167.49 L 196.00 172.05 L 199.65 181.15 L 203.30 182.91 L 206.95 184.65 L 210.60 176.67 L 214.25 174.64 L 217.90 177.20 L 221.55 171.18 L 225.20 177.21 L 228.85 176.46 L 232.50 178.78 L 236.15 174.17 L 239.80 168.95 L 243.45 176.86 L 247.10 173.81 L 250.75 175.76 L 254.40 176.40 L 258.05 178.91 L 261.70 180.17 L 265.35 182.63 L 269.00 185.59 L 272.65 183.15 L 276.30 181.42 L 279.95 183.61 L 283.60 185.96 L 287.25 184.44 L 290.90 187.41 L 294.55 187.71 L 298.20 194.92 L 301.85 200.98 L 305.50 205.85 L 309.15 197.96 L 312.80 196.48 L 316.45 192.92 L 320.10 189.65 L 323.75 188.00 L 327.40 182.92 L 331.05 184.03 L 334.70 189.93 L 338.35 186.28 L 342.00 184.23 L 345.65 188.04 L 349.30 184.40 L 352.95 184.29 L 356.60 183.85 L 360.25 187.28 L 363.90 190.92 L 367.55 183.93 L 371.20 186.95 L 374.85 187.57 L 378.50 189.92 L 382.15 189.07 L 385.80 186.00 L 389.45 180.19 L 393.10 177.98 L 396.75 174.20 L 400.40 175.22 L 404.05 171.68 L 407.70 172.64 L 411.35 165.55 L 415.00 161.73 L 418.65 162.45 L 422.30 159.67 L 425.95 165.13 L 429.60 162.67 L 433.25 157.45 L 436.90 156.31 L 440.55 145.82 L 444.20 146.72 L 447.85 156.52 L 451.50 153.48 L 455.15 141.25 L 458.80 145.09 L 462.45 146.50 L 466.10 144.19 L 469.75 138.52 L 473.40 133.74 L 477.05 136.33 L 480.70 138.55 L 484.35 137.80 L 488.00 144.82 L 491.65 147.15 L 495.30 152.71 L 498.95 149.67 L 502.60 148.00 L 506.25 153.66 L 509.90 150.77 L 513.55 145.70 L 517.20 145.92 L 520.85 144.56 L 524.50 148.45 L 528.15 148.11 L 531.80 151.54 L 535.45 149.34 L 539.10 154.16 L 542.75 156.02 L 546.40 160.78 L 550.05 157.07 L 553.70 159.81 L 557.35 160.80 L 561.00 155.87 L 564.65 156.69 L 568.30 157.80 L 571.95 158.00 L 575.60 154.71 L 579.25 148.57 L 582.90 154.47 L 586.55 153.68 L 590.20 146.09 L 593.85 142.95 L 597.50 140.55 L 601.15 135.60 L 604.80 139.22 L 608.45 137.84 L 612.10 137.57 L 615.75 140.16 L 619.40 137.52 L 623.05 133.26 L 626.70 125.84 L 630.35 123.71 L 634.00 118.71 L 637.65 119.75 L 641.30 113.29 L 644.95 112.18 L 648.60 114.59 L 652.25 120.17 L 655.90 123.68 L 659.55 131.54 L 663.20 132.53 L 666.85 142.42 L 670.50 144.20 L 674.15 144.45 L 677.80 140.36 L 681.45 140.39 L 685.10 130.78 L 688.75 137.55 L 692.40 132.10 L 696.05 128.97 L 699.70 128.04 L 703.35 129.83 L 707.00 132.12 L 710.65 127.17 L 714.30 128.07 L 717.95 127.44 L 721.60 130.19 L 725.25 131.10 L 728.90 128.92 L 732.55 124.98 L 736.20 123.97 L 739.85 124.01 L 743.50 122.40 L 747.15 119.76 L 750.80 117.64 L 754.45 116.65 L 758.10 118.57 L 761.75 107.87 L 765.40 111.39 L 769.05 119.86 L 772.70 119.66 L 776.35 124.04 L 780.00 128.93" class="path-0" />
<path d="M 50.00 191.65 L 53.65 188.96 L 57.30 190.17 L 60.95 184.21 L 64.60 182.49 L 68.25 187.93 L 71.90 192.51 L 75.55 190.13 L 79.20 189.28 L 82.85 180.88 L 86.50 174.22 L 90.15 174.99 L 93.80 168.65 L 97.45 156.81 L 101.10 163.83 L 104.75 157.47 L 108.40 153.22 L 112.05 144.72 L 115.70 142.00 L 119.35 139.80 L 123.00 142.46 L 126.65 143.08 L 130.30 138.68 L 133.95 145.48 L 137.60 154.19 L 141.25 163.39 L 144.90 165.27 L 148.55 168.77 L 152.20 171.07 L 155.85 169.89 L 159.50 173.45 L 163.15 165.17 L 166.80 169.14 L 170.45 169.43 L 174.10 170.74 L 177.75 167.14 L 181.40 166.13 L 185.05 163.39 L 188.70 161.56 L 192.35 167.46 L 196.00 173.55 L 199.65 169.79 L 203.30 164.89 L 206.95 170.43 L 210.60 164.68 L 214.25 162.84 L 217.90 166.72 L 221.55 164.97 L 225.20 166.07 L 228.85 164.91 L 232.50 165.19 L 236.15 169.42 L 239.80 175.62 L 243.45 177.45 L 247.10 181.05 L 250.75 180.03 L 254.40 182.20 L 258.05 185.80 L 261.70 183.71 L 265.35 187.16 L 269.00 192.06 L 272.65 189.75 L 276.30 190.66 L 279.95 196.35 L 283.60 194.94 L 287.25 191.71 L 290.90 193.90 L 294.55 189.03 L 298.20 185.68 L 301.85 186.75 L 305.50 186.45 L 309.15 184.41 L 312.80 191.49 L 316.45 193.05 L 320.10 188.56 L 323.75 190.57 L 327.40 186.75 L 331.05 183.84 L 334.70 184.02 L 338.35 187.47 L 342.00 183.88 L 345.65 183.87 L 349.30 183.45 L 352.95 186.24 L 356.60 184.98 L 360.25 179.77 L 363.90 185.85 L 367.55 192.00 L 371.20 199.12 L 374.85 198.52 L 378.50 198.68 L 382.15 192.81 L 385.80 198.38 L 389.45 198.85 L 393.10 197.59 L 396.75 184.97 L 400.40 180.96 L 404.05 185.03 L 407.70 178.34 L 411.35 175.54 L 415.00 179.17 L 418.65 171.38 L 422.30 176.06 L 425.95 184.43 L 429.60 182.19 L 433.25 183.79 L 436.90 187.95 L 440.55 192.70 L 444.20 193.66 L 447.85 201.94 L 451.50 201.17 L 455.15 202.34 L 458.80 205.53 L 462.45 202.65 L 466.10 204.07 L 469.75 205.92 L 473.40 214.56 L 477.05 222.85 L 480.70 219.66 L 484.35 225.73 L 488.00 229.76 L 491.65 232.80 L 495.30 231.82 L 498.95 231.04 L 502.60 228.15 L 506.25 223.96 L 509.90 226.45 L 513.55 215.91 L 517.20 213.60 L 520.85 221.07 L 524.50 228.32 L 528.15 227.52 L 531.80 227.97 L 535.45 229.99 L 539.10 233.23 L 542.75 231.66 L 546.40 231.49 L 550.05 232.84 L 553.70 231.16 L 557.35 234.62 L 561.00 230.07 L 564.65 225.30 L 568.30 223.11 L 571.95 222.32 L 575.60 216.39 L 579.25 211.25 L 582.90 210.06 L 586.55 203.53 L 590.20 198.99 L 593.85 201.08 L 597.50 197.51 L 601.15 203.75 L 604.80 196.80 L 608.45 194.56 L 612.10 194.54 L 615.75 191.78 L 619.40 195.30 L 623.05 193.67 L 626.70 196.31 L 630.35 191.93 L 634.00 194.57 L 637.65 194.66 L 641.30 202.84 L 644.95 198.03 L 648.60 192.48 L 652.25 191.83 L 655.90 196.86 L 659.55 199.24 L 663.20 196.30 L 666.85 200.24 L 670.50 204.28 L 674.15 205.93 L 677.80 203.31 L 681.45 207.02 L 685.10 212.90 L 688.75 215.03 L 692.40 213.73 L 696.05 210.39 L 699.70 211.82 L 703.35 217.13 L 707.00 220.65 L 710.65 213.45 L 714.30 215.04 L 717.95 210.87 L 721.60 207.02 L 725.25 210.59 L 728.90 215.37 L 732.55 220.23 L 736.20 215.79 L 739.85 215.64 L 743.50 220.40 L 747.15 215.08 L 750.80 211.02 L 754.45 214.09 L 758.10 214.60 L 761.75 220.73 L 765.40 216.14 L 769.05 214.64 L 772.70 217.88 L 776.35 222.80 L 780.00 219.72" class="path-1" />
<path d="M 50.00 191.65 L 53.65 195.92 L 57.30 194.54 L 60.95 196.62 L 64.60 198.34 L 68.25 202.53 L 71.90 196.15 L 75.55 198.44 L 79.20 198.21 L 82.85 195.97 L 86.50 189.38 L 90.15 188.70 L 93.80 183.76 L 97.45 175.84 L 101.10 176.65 L 104.75 180.11 L 108.40 175.10 L 112.05 174.81 L 115.70 180.11 L 119.35 180.67 L 123.00 186.25 L 126.65 184.63 L 130.30 179.62 L 133.95 181.46 L 137.60 177.72 L 141.25 174.04 L 144.90 174.15 L 148.55 177.51 L 152.20 175.48 L 155.85 178.12 L 159.50 174.04 L 163.15 171.50 L 166.80 170.78 L 170.45 169.22 L 174.10 169.65 L 177.75 171.79 L 181.40 172.13 L 185.05 168.46 L 188.70 174.04 L 192.35 174.63 L 196.00 174.10 L 199.65 175.87 L 203.30 173.90 L 206.95 179.58 L 210.60 180.35 L 214.25 175.94 L 217.90 185.00 L 221.55 185.18 L 225.20 184.74 L 228.85 189.38 L 232.50 194.26 L 236.15 195.92 L 239.80 201.06 L 243.45 199.91 L 247.10 205.64 L 250.75 202.22 L 254.40 197.84 L 258.05 190.26 L 261.70 186.31 L 265.35 188.31 L 269.00 193.98 L 272.65 195.86 L 276.30 194.28 L 279.95 193.00 L 283.60 192.78 L 287.25 193.95 L 290.90 196.96 L 294.55 200.06 L 298.20 205.87 L 301.85 205.90 L 305.50 201.98 L 309.15 213.86 L 312.80 208.58 L 316.45 203.26 L 320.10 200.18 L 323.75 201.22 L 327.40 193.02 L 331.05 191.77 L 334.70 191.35 L 338.35 191.80 L 342.00 190.05 L 345.65 194.65 L 349.30 197.73 L 352.95 191.55 L 356.60 190.00 L 360.25 194.47 L 363.90 195.08 L 367.55 185.34 L 371.20 186.13 L 374.85 192.16 L 378.50 187.33 L 382.15 191.95 L 385.80 189.73 L 389.45 191.07 L 393.10 187.02 L 396.75 180.71 L 400.40 178.32 L 404.05 183.79 L 407.70 183.56 L 411.35 183.36 L 415.00 185.78 L 418.65 181.71 L 422.30 178.79 L 425.95 185.96 L 429.60 190.00 L 433.25 183.44 L 436.90 189.04 L 440.55 188.82 L 444.20 189.81 L 447.85 192.49 L 451.50 195.55 L 455.15 196.87 L 458.80 200.08 L 462.45 190.32 L 466.10 202.09 L 469.75 205.01 L 473.40 200.52 L 477.05 196.81 L 480.70 195.87 L 484.35 196.64 L 488.00 193.63 L 491.65 195.83 L 495.30 193.97 L 498.95 191.28 L 502.60 193.64 L 506.25 188.98 L 509.90 187.43 L 513.55 185.64 L 517.20 190.05 L 520.85 197.38 L 524.50 195.27 L 528.15 194.36 L 531.80 189.44 L 535.45 182.84 L 539.10 179.89 L 542.75 182.20 L 546.40 183.76 L 550.05 182.17 L 553.70 186.72 L 557.35 187.34 L 561.00 192.46 L 564.65 193.79 L 568.30 194.21 L 571.95 198.70 L 575.60 200.35 L 579.25 199.76 L 582.90 202.32 L 586.55 204.35 L 590.20 199.24 L 593.85 193.71 L 597.50 198.81 L 601.15 202.91 L 604.80 195.76 L 608.45 195.42 L 612.10 199.82 L 615.75 206.44 L 619.40 211.93 L 623.05 210.71 L 626.70 203.49 L 630.35 204.69 L 634.00 208.71 L 637.65 209.19 L 641.30 212.09 L 644.95 210.17 L 648.60 209.73 L 652.25 207.98 L 655.90 206.85 L 659.55 207.77 L 663.20 206.50 L 666.85 205.27 L 670.50 203.54 L 674.15 205.89 L 677.80 207.80 L 681.45 209.38 L 685.10 205.59 L 688.75 205.24 L 692.40 208.78 L 696.05 204.57 L 699.70 205.69 L 703.35 205.14 L 707.00 203.04 L 710.65 197.37 L 714.30 202.07 L 717.95 200.55 L 721.60 197.09 L 725.25 195.83 L 728.90 197.91 L 732.55 198.60 L 736.20 196.11 L 739.85 194.14 L 743.50 189.05 L 747.15 184.02 L 750.80 186.42 L 754.45 179.62 L 758.10 184.93 L 761.75 184.31 L 765.40 180.47 L 769.05 178.48 L 772.70 187.03 L 776.35 177.90 L 780.00 182.55" class="path-2" />
<path d="M 50.00 191.65 L 53.65 195.24 L 57.30 196.93 L 60.95 202.79 L 64.60 200.49 L 68.25 197.45 L 71.90 193.88 L 75.55 191.31 L 79.20 188.52 L 82.85 183.26 L 86.50 184.24 L 90.15 183.71 L 93.80 188.19 L 97.45 188.05 L 101.10 188.95 L 104.75 183.30 L 108.40 187.16 L 112.05 177.77 L 115.70 171.23 L 119.35 173.26 L 123.00 174.46 L 126.65 175.83 L 130.30 177.80 L 133.95 181.43 L 137.60 173.08 L 141.25 162.50 L 144.90 158.07 L 148.55 162.38 L 152.20 161.96 L 155.85 160.09 L 159.50 160.15 L 163.15 160.47 L 166.80 152.93 L 170.45 152.27 L 174.10 152.52 L 177.75 141.90 L 181.40 144.29 L 185.05 147.85 L 188.70 144.83 L 192.35 141.27 L 196.00 142.29 L 199.65 139.57 L 203.30 139.20 L 206.95 141.06 L 210.60 135.03 L 214.25 132.47 L 217.90 133.79 L 221.55 128.29 L 225.20 124.93 L 228.85 126.87 L 232.50 124.39 L 236.15 136.94 L 239.80 131.69 L 243.45 124.20 L 247.10 120.28 L 250.75 120.39 L 254.40 117.17 L 258.05 115.07 L 261.70 122.28 L 265.35 118.58 L 269.00 120.31 L 272.65 120.15 L 276.30 117.40 L 279.95 120.50 L 283.60 117.01 L 287.25 123.83 L 290.90 131.31 L 294.55 136.99 L 298.20 134.01 L 301.85 137.33 L 305.50 135.33 L 309.15 137.26 L 312.80 134.02 L 316.45 132.45 L 320.10 130.57 L 323.75 130.01 L 327.40 131.91 L 331.05 134.24 L 334.70 133.46 L 338.35 132.77 L 342.00 138.00 L 345.65 137.50 L 349.30 134.53 L 352.95 136.37 L 356.60 132.07 L 360.25 131.10 L 363.90 131.71 L 367.55 138.16 L 371.20 139.92 L 374.85 127.62 L 378.50 128.29 L 382.15 132.25 L 385.80 135.85 L 389.45 141.40 L 393.10 134.98 L 396.75 138.09 L 400.40 145.41 L 404.05 149.27 L 407.70 148.14 L 411.35 144.13 L 415.00 150.27 L 418.65 148.49 L 422.30 146.95 L 425.95 141.12 L 429.60 143.01 L 433.25 135.44 L 436.90 133.52 L 440.55 132.11 L 444.20 133.52 L 447.85 129.04 L 451.50 127.94 L 455.15 122.79 L 458.80 136.42 L 462.45 135.36 L 466.10 129.66 L 469.75 128.45 L 473.40 125.11 L 477.05 124.57 L 480.70 124.24 L 484.35 121.32 L 488.00 118.19 L 491.65 116.39 L 495.30 119.90 L 498.95 117.36 L 502.60 121.24 L 506.25 111.16 L 509.90 110.32 L 513.55 107.35 L 517.20 106.84 L 520.85 105.22 L 524.50 105.69 L 528.15 105.92 L 531.80 106.80 L 535.45 109.86 L 539.10 108.83 L 542.75 103.32 L 546.40 108.56 L 550.05 110.86 L 553.70 109.31 L 557.35 106.59 L 561.00 100.24 L 564.65 95.21 L 568.30 96.08 L 571.95 94.88 L 575.60 92.67 L 579.25 94.76 L 582.90 88.38 L 586.55 89.46 L 590.20 89.46 L 593.85 88.45 L 597.50 86.53 L 601.15 83.27 L 604.80 77.35 L 608.45 76.07 L 612.10 75.10 L 615.75 80.26 L 619.40 70.77 L 623.05 65.93 L 626.70 65.38 L 630.35 69.25 L 634.00 77.97 L 637.65 77.89 L 641.30 83.92 L 644.95 79.49 L 648.60 84.30 L 652.25 87.83 L 655.90 88.37 L 659.55 89.98 L 663.20 96.99 L 666.85 90.36 L 670.50 96.38 L 674.15 102.59 L 677.80 106.08 L 681.45 109.32 L 685.10 107.71 L 688.75 104.51 L 692.40 110.20 L 696.05 109.52 L 699.70 103.60 L 703.35 107.32 L 707.00 106.30 L 710.65 103.54 L 714.30 105.60 L 717.95 107.47 L 721.60 107.41 L 725.25 110.62 L 728.90 109.05 L 732.55 105.66 L 736.20 102.56 L 739.85 104.63 L 743.50 99.85 L 747.15 100.95 L 750.80 99.33 L 754.45 108.21 L 758.10 110.96 L 761.75 106.66 L 765.40 104.34 L 769.05 105.73 L 772.70 98.18 L 776.35 90.77 L 780.00 91.74" class="path-3" />
<path d="M 50.00 191.65 L 53.65 191.77 L 57.30 190.54 L 60.95 187.61 L 64.60 193.02 L 68.25 200.17 L 71.90 196.36 L 75.55 198.76 L 79.20 190.52 L 82.85 183.50 L 86.50 179.47 L 90.15 182.88 L 93.80 179.84 L 97.45 176.43 L 101.10 176.93 L 104.75 183.30 L 108.40 186.09 L 112.05 190.88 L 115.70 188.75 L 119.35 185.02 L 123.00 189.95 L 126.65 190.38 L 130.30 185.34 L 133.95 189.37 L 137.60 194.95 L 141.25 196.54 L 144.90 197.49 L 148.55 197.81 L 152.20 202.86 L 155.85 199.62 L 159.50 196.61 L 163.15 201.16 L 166.80 209.73 L 170.45 208.64 L 174.10 207.37 L 177.75 200.02 L 181.40 194.46 L 185.05 193.09 L 188.70 196.79 L 192.35 197.81 L 196.00 203.69 L 199.65 202.01 L 203.30 201.03 L 206.95 195.85 L 210.60 189.26 L 214.25 192.96 L 217.90 190.74 L 221.55 189.30 L 225.20 187.65 L 228.85 183.15 L 232.50 186.27 L 236.15 187.80 L 239.80 189.72 L 243.45 186.77 L 247.10 192.23 L 250.75 186.04 L 254.40 185.85 L 258.05 184.43 L 261.70 185.79 L 265.35 183.75 L 269.00 174.58 L 272.65 172.86 L 276.30 176.39 L 279.95 180.47 L 283.60 180.26 L 287.25 190.99 L 290.90 188.41 L 294.55 191.42 L 298.20 195.83 L 301.85 193.38 L 305.50 190.46 L 309.15 187.69 L 312.80 194.63 L 316.45 198.54 L 320.10 203.96 L 323.75 210.21 L 327.40 213.85 L 331.05 216.90 L 334.70 211.80 L 338.35 217.07 L 342.00 211.97 L 345.65 207.85 L 349.30 208.45 L 352.95 205.99 L 356.60 197.97 L 360.25 200.65 L 363.90 205.58 L 367.55 203.47 L 371.20 213.56 L 374.85 212.62 L 378.50 213.71 L 382.15 215.20 L 385.80 214.77 L 389.45 218.41 L 393.10 214.91 L 396.75 211.12 L 400.40 213.18 L 404.05 208.68 L 407.70 205.30 L 411.35 201.65 L 415.00 196.32 L 418.65 198.71 L 422.30 198.75 L 425.95 195.45 L 429.60 197.97 L 433.25 200.51 L 436.90 195.55 L 440.55 195.20 L 444.20 188.88 L 447.85 186.41 L 451.50 191.59 L 455.15 196.50 L 458.80 200.32 L 462.45 196.60 L 466.10 191.91 L 469.75 192.14 L 473.40 196.41 L 477.05 200.53 L 480.70 201.94 L 484.35 199.54 L 488.00 197.75 L 491.65 188.90 L 495.30 191.29 L 498.95 193.99 L 502.60 196.56 L 506.25 192.66 L 509.90 195.66 L 513.55 198.00 L 517.20 198.88 L 520.85 190.23 L 524.50 181.13 L 528.15 183.12 L 531.80 184.80 L 535.45 185.10 L 539.10 186.71 L 542.75 191.69 L 546.40 195.45 L 550.05 200.12 L 553.70 197.96 L 557.35 204.36 L 561.00 210.21 L 564.65 213.71 L 568.30 212.79 L 571.95 207.89 L 575.60 201.94 L 579.25 204.52 L 582.90 198.64 L 586.55 194.11 L 590.20 197.73 L 593.85 196.75 L 597.50 196.83 L 601.15 203.08 L 604.80 206.73 L 608.45 208.26 L 612.10 204.40 L 615.75 199.08 L 619.40 198.98 L 623.05 200.45 L 626.70 201.88 L 630.35 199.23 L 634.00 197.15 L 637.65 195.39 L 641.30 193.17 L 644.95 194.30 L 648.60 202.51 L 652.25 204.49 L 655.90 204.06 L 659.55 204.64 L 663.20 200.98 L 666.85 198.90 L 670.50 197.91 L 674.15 200.34 L 677.80 197.86 L 681.45 192.81 L 685.10 187.70 L 688.75 183.29 L 692.40 183.57 L 696.05 177.04 L 699.70 181.89 L 703.35 183.97 L 707.00 183.77 L 710.65 185.01 L 714.30 183.71 L 717.95 182.44 L 721.60 181.88 L 725.25 184.91 L 728.90 186.51 L 732.55 189.09 L 736.20 184.59 L 739.85 183.44 L 743.50 192.26 L 747.15 195.31 L 750.80 189.45 L 754.45 196.54 L 758.10 197.51 L 761.75 199.16 L 765.40 200.00 L 769.05 205.10 L 772.70 209.50 L 776.35 208.19 L 780.00 197.45" class="path-4" />
<line x1="50" y1="191.6" x2="780" y2="191.6" stroke="#4b5563" stroke-width="0.8" stroke-dasharray="6 3" />
</svg>