<svg xmlns="http://www.w3.org/2000/svg" viewBox="0 0 800 300" width="800" height="300">
<style>
.axis-line { stroke: #6b7280; stroke-width: 0.5; }
.axis-text { font-family: monospace; font-size: 11px; fill: #9ca3af; }
.title-text { font-family: monospace; font-size: 14px; fill: #d1d5db; font-weight: bold; }
.grid-line { stroke: #374151; stroke-width: 0.3; stroke-dasharray: 4 2; }
.path-0 { fill: none; stroke: #3b82f6; stroke-width: 2; stroke-linecap: round; opacity: 0.85; animation: draw-0 8s ease-in-out 0.0s infinite; stroke-dasharray: 948; stroke-dashoffset: 948;}
@keyframes draw-0 { 0% { stroke-dashoffset: 948; } 38% { stroke-dashoffset: 0; } 62% { stroke-dashoffset: 0; } 100% { stroke-dashoffset: 948; }}
.path-1 { fill: none; stroke: #ef4444; stroke-width: 2; stroke-linecap: round; opacity: 0.85; animation: draw-1 8s ease-in-out 0.4s infinite; stroke-dasharray: 972; stroke-dashoffset: 972;}
@keyframes draw-1 { 0% { stroke-dashoffset: 972; } 38% { stroke-dashoffset: 0; } 62% { stroke-dashoffset: 0; } 100% { stroke-dashoffset: 972; }}
.path-2 { fill: none; stroke: #22c55e; stroke-width: 2; stroke-linecap: round; opacity: 0.85; animation: draw-2 8s ease-in-out 0.8s infinite; stroke-dasharray: 976; stroke-dashoffset: 976;}
@keyframes draw-2 { 0% { stroke-dashoffset: 976; } 38% { stroke-dashoffset: 0; } 62% { stroke-dashoffset: 0; } 100% { stroke-dashoffset: 976; }}
.path-3 { fill: none; stroke: #f59e0b; stroke-width: 2; stroke-linecap: round; opacity: 0.85; animation: draw-3 8s ease-in-out 1.2000000000000002s infinite; stroke-dasharray: 988; stroke-dashoffset: 988;}
@keyframes draw-3 { 0% { stroke-dashoffset: 988; } 38% { stroke-dashoffset: 0; } 62% { stroke-dashoffset: 0; } 100% { stroke-dashoffset: 988; }}
.path-4 { fill: none; stroke: #a855f7; stroke-width: 2; stroke-linecap: round; opacity: 0.85; animation: draw-4 8s ease-in-out 1.6s infinite; stroke-dasharray: 975; stroke-dashoffset: 975;}
@keyframes draw-4 { 0% { stroke-dashoffset: 975; } 38% { stroke-dashoffset: 0; } 62% { stroke-dashoffset: 0; } 100% { stroke-dashoffset: 975; }}
</style>
<rect width="800" height="300" rx="8" fill="#0d1117" />
<line x1="50" y1="260.0" x2="780" y2="260.0" class="grid-line" />
<text x="44" y="264.0" text-anchor="end" class="axis-text">-2.2</text>
<line x1="50" y1="216.0" x2="780" y2="216.0" class="grid-line" />
<text x="44" y="220.0" text-anchor="end" class="axis-text">-1.2</text>
<line x1="50" y1="172.0" x2="780" y2="172.0" class="grid-line" />
<text x="44" y="176.0" text-anchor="end" class="axis-text">-0.3</text>
<line x1="50" y1="128.0" x2="780" y2="128.0" class="grid-line" />
<text x="44" y="132.0" text-anchor="end" class="axis-text">0.7</text>
<line x1="50" y1="84.0" x2="780" y2="84.0" class="grid-line" />
<text x="44" y="88.0" text-anchor="end" class="axis-text">1.6</text>
<line x1="50" y1="40.0" x2="780" y2="40.0" class="grid-line" />
<text x="44" y="44.0" text-anchor="end" class="axis-text">2.6</text>
<line x1="50.0" y1="40" x2="50.0" y2="260" class="grid-line" />
<line x1="196.0" y1="40" x2="196.0" y2="260" class="grid-line" />
<line x1="342.0" y1="40" x2="342.0" y2="260" class="grid-line" />
<line x1="488.0" y1="40" x2="488.0" y2="260" class="grid-line" />
<line x1="634.0" y1="40" x2="634.0" y2="260" class="grid-line" />
<line x1="780.0" y1="40" x2="780.0" y2="260" class="grid-line" />
<line x1="50" y1="260" x2="780" y2="260" class="axis-line" />
<line x1="50" y1="40" x2="50" y2="260" class="axis-line" />
<text x="400.0" y="295" text-anchor="middle" class="axis-text">t</text>
<text x="12" y="150.0" text-anchor="middle" class="axis-text" transform="rotate(-90 12 150.0)">W(t)</text>
<text x="400.0" y="22" text-anchor="middle" class="title-text">Brownian Motion</text>
<path d="M 50.00 158.72 L 53.65 156.24 L 57.30 150.34 L 60.95 157.23 L 64.60 159.13 L 68.25 158.83 L 71.90 156.90 L 75.55 152.92 L 79.20 157.65 L 82.85 158.75 L 86.50 158.29 L 90.15 157.79 L 93.80 162.43 L 97.45 157.78 L 101.10 152.94 L 104.75 152.76 L 108.40 151.80 L 112.05 147.61 L 115.70 147.32 L 119.35 140.10 L 123.00 140.34 L 126.65 143.72 L 130.30 144.19 L 133.95 146.26 L 137.60 146.38 L 141.25 144.71 L 144.90 143.23 L 148.55 141.19 L 152.20 145.13 L 155.85 142.39 L 159.50 144.05 L 163.15 147.51 L 166.80 151.53 L 170.45 158.85 L 174.10 163.29 L 177.75 166.30 L 181.40 167.66 L 185.05 168.61 L 188.70 170.34 L 192.35 163.85 L 196.00 161.75 L 199.65 166.35 L 203.30 164.26 L 206.95 161.00 L 210.60 163.96 L 214.25 163.48 L 217.90 160.64 L 221.55 159.63 L 225.20 164.29 L 228.85 162.74 L 232.50 164.42 L 236.15 157.92 L 239.80 156.20 L 243.45 153.87 L 247.10 151.72 L 250.75 147.01 L 254.40 146.92 L 258.05 147.55 L 261.70 142.83 L 265.35 145.59 L 269.00 144.17 L 272.65 139.82 L 276.30 139.66 L 279.95 135.08 L 283.60 132.66 L 287.25 134.19 L 290.90 131.63 L 294.55 134.12 L 298.20 130.06 L 301.85 127.42 L 305.50 124.48 L 309.15 124.12 L 312.80 132.34 L 316.45 137.78 L 320.10 135.69 L 323.75 137.37 L 327.40 140.36 L 331.05 138.25 L 334.70 140.69 L 338.35 141.43 L 342.00 140.78 L 345.65 143.24 L 349.30 148.99 L 352.95 145.37 L 356.60 143.33 L 360.25 142.83 L 363.90 141.52 L 367.55 144.79 L 371.20 149.80 L 374.85 147.81 L 378.50 152.11 L 382.15 156.34 L 385.80 156.84 L 389.45 157.50 L 393.10 157.58 L 396.75 153.99 L 400.40 153.03 L 404.05 147.81 L 407.70 147.93 L 411.35 149.81 L 415.00 155.74 L 418.65 155.90 L 422.30 157.24 L 425.95 153.51 L 429.60 153.12 L 433.25 152.32 L 436.90 146.45 L 440.55 149.01 L 444.20 149.82 L 447.85 144.99 L 451.50 145.42 L 455.15 146.48 L 458.80 139.60 L 462.45 144.26 L 466.10 148.58 L 469.75 147.41 L 473.40 148.69 L 477.05 153.00 L 480.70 151.57 L 484.35 154.11 L 488.00 157.78 L 491.65 157.87 L 495.30 160.26 L 498.95 164.39 L 502.60 162.67 L 506.25 161.77 L 509.90 163.30 L 513.55 160.34 L 517.20 165.02 L 520.85 163.26 L 524.50 160.08 L 528.15 160.83 L 531.80 162.79 L 535.45 158.07 L 539.10 152.91 L 542.75 146.67 L 546.40 143.63 L 550.05 141.28 L 553.70 143.13 L 557.35 139.40 L 561.00 137.25 L 564.65 141.94 L 568.30 143.44 L 571.95 145.38 L 575.60 144.93 L 579.25 147.32 L 582.90 147.28 L 586.55 144.19 L 590.20 146.84 L 593.85 141.40 L 597.50 141.47 L 601.15 139.00 L 604.80 134.14 L 608.45 132.02 L 612.10 127.67 L 615.75 130.47 L 619.40 129.03 L 623.05 127.71 L 626.70 129.69 L 630.35 125.33 L 634.00 120.28 L 637.65 121.56 L 641.30 123.22 L 644.95 125.69 L 648.60 131.58 L 652.25 134.15 L 655.90 135.77 L 659.55 139.69 L 663.20 139.81 L 666.85 141.95 L 670.50 140.85 L 674.15 142.13 L 677.80 140.32 L 681.45 142.25 L 685.10 142.12 L 688.75 139.75 L 692.40 141.90 L 696.05 136.96 L 699.70 134.46 L 703.35 138.06 L 707.00 136.32 L 710.65 136.26 L 714.30 137.56 L 717.95 135.53 L 721.60 132.99 L 725.25 136.64 L 728.90 142.07 L 732.55 143.24 L 736.20 137.46 L 739.85 141.05 L 743.50 139.04 L 747.15 138.53 L 750.80 138.45 L 754.45 138.89 L 758.10 139.40 L 761.75 140.77 L 765.40 140.82 L 769.05 140.37 L 772.70 137.76 L 776.35 137.00 L 780.00 139.05" class="path-0" />
<path d="M 50.00 158.72 L 53.65 155.67 L 57.30 158.97 L 60.95 155.75 L 64.60 153.31 L 68.25 152.89 L 71.90 148.28 L 75.55 152.44 L 79.20 150.08 L 82.85 153.07 L 86.50 151.37 L 90.15 151.70 L 93.80 152.14 L 97.45 151.38 L 101.10 150.95 L 104.75 147.95 L 108.40 150.16 L 112.05 152.53 L 115.70 154.31 L 119.35 153.02 L 123.00 151.01 L 126.65 150.38 L 130.30 155.57 L 133.95 160.33 L 137.60 158.45 L 141.25 162.77 L 144.90 158.22 L 148.55 163.09 L 152.20 163.96 L 155.85 163.44 L 159.50 160.95 L 163.15 163.03 L 166.80 164.46 L 170.45 161.94 L 174.10 161.80 L 177.75 166.38 L 181.40 165.00 L 185.05 168.28 L 188.70 174.74 L 192.35 176.64 L 196.00 177.03 L 199.65 171.94 L 203.30 176.77 L 206.95 173.31 L 210.60 175.44 L 214.25 168.23 L 217.90 163.71 L 221.55 170.86 L 225.20 170.33 L 228.85 174.57 L 232.50 174.34 L 236.15 163.52 L 239.80 167.61 L 243.45 162.74 L 247.10 164.92 L 250.75 165.68 L 254.40 161.09 L 258.05 162.39 L 261.70 162.34 L 265.35 161.46 L 269.00 160.36 L 272.65 154.89 L 276.30 159.88 L 279.95 157.75 L 283.60 159.81 L 287.25 165.16 L 290.90 166.48 L 294.55 170.84 L 298.20 175.94 L 301.85 176.25 L 305.50 167.63 L 309.15 167.04 L 312.80 169.96 L 316.45 175.13 L 320.10 178.50 L 323.75 179.29 L 327.40 176.02 L 331.05 174.78 L 334.70 178.02 L 338.35 180.30 L 342.00 180.05 L 345.65 181.98 L 349.30 178.92 L 352.95 182.89 L 356.60 180.71 L 360.25 179.44 L 363.90 182.95 L 367.55 188.39 L 371.20 188.14 L 374.85 194.01 L 378.50 193.40 L 382.15 195.47 L 385.80 190.87 L 389.45 192.51 L 393.10 191.05 L 396.75 191.98 L 400.40 189.49 L 404.05 190.47 L 407.70 188.23 L 411.35 195.63 L 415.00 198.46 L 418.65 198.61 L 422.30 200.38 L 425.95 204.94 L 429.60 204.52 L 433.25 203.56 L 436.90 205.25 L 440.55 203.36 L 444.20 203.23 L 447.85 201.46 L 451.50 201.97 L 455.15 202.61 L 458.80 203.09 L 462.45 203.24 L 466.10 197.09 L 469.75 198.72 L 473.40 195.39 L 477.05 194.77 L 480.70 191.26 L 484.35 188.30 L 488.00 185.29 L 491.65 185.96 L 495.30 190.39 L 498.95 185.70 L 502.60 190.59 L 506.25 189.25 L 509.90 195.41 L 513.55 197.50 L 517.20 189.76 L 520.85 188.57 L 524.50 188.68 L 528.15 184.46 L 531.80 189.00 L 535.45 193.59 L 539.10 193.25 L 542.75 189.33 L 546.40 185.20 L 550.05 185.62 L 553.70 185.05 L 557.35 187.90 L 561.00 184.94 L 564.65 185.36 L 568.30 188.04 L 571.95 190.71 L 575.60 188.41 L 579.25 191.96 L 582.90 191.84 L 586.55 192.58 L 590.20 194.33 L 593.85 194.51 L 597.50 193.83 L 601.15 192.21 L 604.80 191.08 L 608.45 190.45 L 612.10 193.32 L 615.75 196.57 L 619.40 195.53 L 623.05 199.71 L 626.70 208.91 L 630.35 210.61 L 634.00 214.61 L 637.65 220.07 L 641.30 223.46 L 644.95 227.11 L 648.60 223.43 L 652.25 231.40 L 655.90 221.44 L 659.55 220.29 L 663.20 215.65 L 666.85 218.55 L 670.50 214.41 L 674.15 216.20 L 677.80 213.69 L 681.45 213.71 L 685.10 212.14 L 688.75 212.82 L 692.40 210.76 L 696.05 213.05 L 699.70 211.73 L 703.35 205.22 L 707.00 205.23 L 710.65 208.75 L 714.30 212.25 L 717.95 215.47 L 721.60 216.85 L 725.25 214.87 L 728.90 218.78 L 732.55 214.48 L 736.20 216.01 L 739.85 221.64 L 743.50 224.36 L 747.15 222.30 L 750.80 223.34 L 754.45 226.49 L 758.10 227.63 L 761.75 227.91 L 765.40 230.53 L 769.05 230.06 L 772.70 228.03 L 776.35 231.00 L 780.00 234.62" class="path-1" />
<path d="M 50.00 158.72 L 53.65 158.50 L 57.30 159.73 L 60.95 163.78 L 64.60 165.23 L 68.25 171.17 L 71.90 174.25 L 75.55 171.15 L 79.20 168.55 L 82.85 169.45 L 86.50 169.83 L 90.15 175.39 L 93.80 178.12 L 97.45 181.84 L 101.10 181.47 L 104.75 186.49 L 108.40 190.50 L 112.05 192.42 L 115.70 193.10 L 119.35 195.66 L 123.00 196.95 L 126.65 197.28 L 130.30 197.25 L 133.95 197.14 L 137.60 196.30 L 141.25 196.78 L 144.90 195.66 L 148.55 190.78 L 152.20 188.60 L 155.85 186.87 L 159.50 187.66 L 163.15 191.57 L 166.80 185.45 L 170.45 188.83 L 174.10 188.49 L 177.75 185.52 L 181.40 186.64 L 185.05 190.24 L 188.70 193.87 L 192.35 191.50 L 196.00 191.95 L 199.65 187.18 L 203.30 187.60 L 206.95 188.33 L 210.60 183.53 L 214.25 182.58 L 217.90 183.97 L 221.55 184.70 L 225.20 187.84 L 228.85 188.48 L 232.50 191.24 L 236.15 192.31 L 239.80 184.65 L 243.45 183.00 L 247.10 180.77 L 250.75 183.20 L 254.40 178.70 L 258.05 174.58 L 261.70 168.69 L 265.35 165.09 L 269.00 167.03 L 272.65 170.40 L 276.30 177.60 L 279.95 170.04 L 283.60 173.07 L 287.25 177.62 L 290.90 177.47 L 294.55 177.16 L 298.20 177.48 L 301.85 169.73 L 305.50 170.29 L 309.15 170.02 L 312.80 172.36 L 316.45 170.06 L 320.10 171.79 L 323.75 164.85 L 327.40 166.07 L 331.05 166.78 L 334.70 162.78 L 338.35 160.93 L 342.00 169.06 L 345.65 166.86 L 349.30 172.59 L 352.95 168.24 L 356.60 167.96 L 360.25 166.93 L 363.90 163.82 L 367.55 161.87 L 371.20 159.85 L 374.85 160.53 L 378.50 162.82 L 382.15 160.34 L 385.80 160.48 L 389.45 159.58 L 393.10 158.22 L 396.75 163.39 L 400.40 162.55 L 404.05 158.24 L 407.70 163.14 L 411.35 164.15 L 415.00 166.61 L 418.65 164.20 L 422.30 163.94 L 425.95 165.70 L 429.60 162.72 L 433.25 159.77 L 436.90 164.76 L 440.55 157.93 L 444.20 160.29 L 447.85 163.91 L 451.50 158.70 L 455.15 158.39 L 458.80 162.43 L 462.45 156.95 L 466.10 155.25 L 469.75 161.96 L 473.40 164.91 L 477.05 160.17 L 480.70 167.02 L 484.35 163.76 L 488.00 160.10 L 491.65 164.51 L 495.30 164.44 L 498.95 166.94 L 502.60 167.84 L 506.25 162.87 L 509.90 163.56 L 513.55 163.67 L 517.20 162.39 L 520.85 163.58 L 524.50 172.30 L 528.15 172.27 L 531.80 171.57 L 535.45 173.77 L 539.10 172.13 L 542.75 168.92 L 546.40 165.10 L 550.05 166.17 L 553.70 172.39 L 557.35 173.53 L 561.00 172.40 L 564.65 175.01 L 568.30 177.66 L 571.95 183.99 L 575.60 186.32 L 579.25 190.69 L 582.90 190.30 L 586.55 195.13 L 590.20 192.91 L 593.85 188.52 L 597.50 188.56 L 601.15 194.23 L 604.80 195.36 L 608.45 193.70 L 612.10 190.78 L 615.75 196.59 L 619.40 193.04 L 623.05 194.34 L 626.70 195.71 L 630.35 197.39 L 634.00 197.54 L 637.65 201.29 L 641.30 203.22 L 644.95 207.18 L 648.60 207.54 L 652.25 214.82 L 655.90 212.95 L 659.55 216.82 L 663.20 217.11 L 666.85 211.92 L 670.50 214.94 L 674.15 212.54 L 677.80 205.14 L 681.45 204.59 L 685.10 198.31 L 688.75 199.43 L 692.40 199.31 L 696.05 202.76 L 699.70 197.51 L 703.35 198.59 L 707.00 199.28 L 710.65 203.07 L 714.30 208.79 L 717.95 205.34 L 721.60 204.42 L 725.25 207.58 L 728.90 207.37 L 732.55 212.19 L 736.20 214.24 L 739.85 211.52 L 743.50 216.72 L 747.15 217.60 L 750.80 219.86 L 754.45 212.17 L 758.10 214.62 L 761.75 213.70 L 765.40 211.65 L 769.05 211.85 L 772.70 212.80 L 776.35 209.98 L 780.00 211.40" class="path-2" />
<path d="M 50.00 158.72 L 53.65 157.97 L 57.30 161.62 L 60.95 154.88 L 64.60 156.77 L 68.25 160.32 L 71.90 165.06 L 75.55 168.85 L 79.20 169.52 L 82.85 171.44 L 86.50 165.85 L 90.15 170.46 L 93.80 174.68 L 97.45 178.03 L 101.10 174.76 L 104.75 172.59 L 108.40 167.45 L 112.05 168.61 L 115.70 163.75 L 119.35 162.53 L 123.00 166.93 L 126.65 171.87 L 130.30 168.31 L 133.95 170.93 L 137.60 170.48 L 141.25 170.64 L 144.90 162.95 L 148.55 166.40 L 152.20 170.25 L 155.85 170.99 L 159.50 173.87 L 163.15 178.56 L 166.80 179.54 L 170.45 183.75 L 174.10 186.05 L 177.75 182.32 L 181.40 183.23 L 185.05 181.17 L 188.70 177.68 L 192.35 179.41 L 196.00 179.02 L 199.65 182.80 L 203.30 178.00 L 206.95 170.48 L 210.60 176.41 L 214.25 176.64 L 217.90 179.83 L 221.55 178.88 L 225.20 178.14 L 228.85 173.75 L 232.50 169.72 L 236.15 172.95 L 239.80 165.87 L 243.45 160.51 L 247.10 158.71 L 250.75 157.09 L 254.40 154.82 L 258.05 153.12 L 261.70 145.88 L 265.35 150.59 L 269.00 153.91 L 272.65 149.59 L 276.30 148.91 L 279.95 151.01 L 283.60 146.04 L 287.25 147.74 L 290.90 143.70 L 294.55 141.43 L 298.20 144.16 L 301.85 143.27 L 305.50 140.25 L 309.15 139.61 L 312.80 138.25 L 316.45 135.84 L 320.10 136.45 L 323.75 139.90 L 327.40 142.00 L 331.05 140.38 L 334.70 140.18 L 338.35 139.55 L 342.00 151.82 L 345.65 153.71 L 349.30 152.25 L 352.95 145.36 L 356.60 145.76 L 360.25 139.57 L 363.90 139.17 L 367.55 136.69 L 371.20 133.29 L 374.85 132.75 L 378.50 132.91 L 382.15 136.16 L 385.80 140.33 L 389.45 143.01 L 393.10 141.80 L 396.75 140.55 L 400.40 137.44 L 404.05 136.04 L 407.70 135.69 L 411.35 136.84 L 415.00 138.10 L 418.65 130.95 L 422.30 134.50 L 425.95 134.25 L 429.60 131.55 L 433.25 126.61 L 436.90 125.38 L 440.55 126.62 L 444.20 126.62 L 447.85 129.54 L 451.50 125.29 L 455.15 130.50 L 458.80 128.62 L 462.45 126.75 L 466.10 133.54 L 469.75 131.67 L 473.40 132.23 L 477.05 127.12 L 480.70 124.48 L 484.35 120.74 L 488.00 116.56 L 491.65 117.65 L 495.30 119.75 L 498.95 115.22 L 502.60 116.04 L 506.25 114.30 L 509.90 112.47 L 513.55 107.60 L 517.20 102.19 L 520.85 106.53 L 524.50 112.59 L 528.15 111.27 L 531.80 110.05 L 535.45 110.01 L 539.10 108.33 L 542.75 110.99 L 546.40 109.83 L 550.05 103.56 L 553.70 104.90 L 557.35 102.06 L 561.00 101.76 L 564.65 99.28 L 568.30 98.88 L 571.95 98.91 L 575.60 99.91 L 579.25 104.48 L 582.90 97.00 L 586.55 93.09 L 590.20 99.33 L 593.85 104.75 L 597.50 103.82 L 601.15 101.21 L 604.80 101.55 L 608.45 99.63 L 612.10 98.12 L 615.75 93.22 L 619.40 96.01 L 623.05 102.88 L 626.70 105.08 L 630.35 101.19 L 634.00 107.06 L 637.65 108.95 L 641.30 107.80 L 644.95 108.49 L 648.60 105.68 L 652.25 104.56 L 655.90 109.33 L 659.55 109.48 L 663.20 107.35 L 666.85 107.48 L 670.50 111.54 L 674.15 106.89 L 677.80 110.91 L 681.45 108.18 L 685.10 105.51 L 688.75 103.61 L 692.40 99.47 L 696.05 92.02 L 699.70 85.99 L 703.35 87.79 L 707.00 87.53 L 710.65 84.98 L 714.30 85.92 L 717.95 84.93 L 721.60 83.47 L 725.25 85.58 L 728.90 82.11 L 732.55 75.03 L 736.20 70.91 L 739.85 71.38 L 743.50 71.27 L 747.15 69.34 L 750.80 69.10 L 754.45 67.05 L 758.10 65.38 L 761.75 68.95 L 765.40 67.80 L 769.05 72.97 L 772.70 73.38 L 776.35 70.66 L 780.00 74.75" class="path-3" />
<path d="M 50.00 158.72 L 53.65 152.34 L 57.30 147.01 L 60.95 147.73 L 64.60 143.08 L 68.25 145.01 L 71.90 148.72 L 75.55 154.26 L 79.20 153.71 L 82.85 151.27 L 86.50 151.22 L 90.15 152.07 L 93.80 152.39 L 97.45 150.49 L 101.10 147.33 L 104.75 147.18 L 108.40 142.62 L 112.05 136.18 L 115.70 137.47 L 119.35 141.07 L 123.00 142.10 L 126.65 142.39 L 130.30 144.44 L 133.95 139.54 L 137.60 142.47 L 141.25 140.65 L 144.90 143.53 L 148.55 137.42 L 152.20 140.06 L 155.85 132.09 L 159.50 133.52 L 163.15 134.38 L 166.80 138.65 L 170.45 142.15 L 174.10 147.81 L 177.75 150.28 L 181.40 152.58 L 185.05 151.45 L 188.70 153.68 L 192.35 146.13 L 196.00 142.33 L 199.65 141.41 L 203.30 141.54 L 206.95 146.77 L 210.60 145.41 L 214.25 148.68 L 217.90 148.06 L 221.55 146.61 L 225.20 150.61 L 228.85 150.47 L 232.50 150.14 L 236.15 152.14 L 239.80 148.56 L 243.45 151.02 L 247.10 153.64 L 250.75 157.93 L 254.40 159.28 L 258.05 160.38 L 261.70 157.18 L 265.35 155.27 L 269.00 154.81 L 272.65 154.95 L 276.30 157.23 L 279.95 160.03 L 283.60 158.83 L 287.25 162.66 L 290.90 161.61 L 294.55 167.43 L 298.20 167.87 L 301.85 171.60 L 305.50 170.77 L 309.15 174.89 L 312.80 172.00 L 316.45 172.54 L 320.10 171.56 L 323.75 176.91 L 327.40 176.41 L 331.05 178.57 L 334.70 173.76 L 338.35 174.84 L 342.00 173.37 L 345.65 168.00 L 349.30 172.20 L 352.95 170.78 L 356.60 174.23 L 360.25 178.69 L 363.90 171.74 L 367.55 171.62 L 371.20 173.33 L 374.85 175.51 L 378.50 174.11 L 382.15 180.86 L 385.80 187.04 L 389.45 183.92 L 393.10 181.08 L 396.75 179.56 L 400.40 177.75 L 404.05 176.03 L 407.70 174.00 L 411.35 171.56 L 415.00 164.35 L 418.65 168.96 L 422.30 167.57 L 425.95 167.70 L 429.60 169.40 L 433.25 168.98 L 436.90 161.35 L 440.55 158.05 L 444.20 157.78 L 447.85 161.06 L 451.50 159.30 L 455.15 154.93 L 458.80 150.59 L 462.45 147.18 L 466.10 150.23 L 469.75 151.73 L 473.40 143.28 L 477.05 142.18 L 480.70 146.32 L 484.35 144.64 L 488.00 146.38 L 491.65 147.86 L 495.30 152.77 L 498.95 156.72 L 502.60 157.01 L 506.25 157.65 L 509.90 162.35 L 513.55 164.35 L 517.20 163.22 L 520.85 164.90 L 524.50 163.94 L 528.15 162.37 L 531.80 161.23 L 535.45 165.33 L 539.10 162.18 L 542.75 161.77 L 546.40 159.57 L 550.05 166.29 L 553.70 170.94 L 557.35 172.80 L 561.00 175.44 L 564.65 167.57 L 568.30 161.13 L 571.95 163.75 L 575.60 161.88 L 579.25 161.19 L 582.90 155.90 L 586.55 152.58 L 590.20 152.89 L 593.85 152.54 L 597.50 158.53 L 601.15 156.48 L 604.80 156.61 L 608.45 154.76 L 612.10 148.00 L 615.75 145.99 L 619.40 147.59 L 623.05 151.35 L 626.70 150.15 L 630.35 155.28 L 634.00 153.06 L 637.65 149.73 L 641.30 144.64 L 644.95 144.33 L 648.60 148.63 L 652.25 146.96 L 655.90 143.55 L 659.55 144.29 L 663.20 149.30 L 666.85 148.10 L 670.50 144.30 L 674.15 143.56 L 677.80 145.26 L 681.45 150.47 L 685.10 147.13 L 688.75 150.24 L 692.40 153.95 L 696.05 156.68 L 699.70 158.54 L 703.35 153.68 L 707.00 157.69 L 710.65 157.09 L 714.30 149.31 L 717.95 153.58 L 721.60 153.26 L 725.25 156.00 L 728.90 160.70 L 732.55 159.12 L 736.20 156.77 L 739.85 156.28 L 743.50 154.49 L 747.15 153.32 L 750.80 153.78 L 754.45 157.21 L 758.10 157.98 L 761.75 161.08 L 765.40 165.30 L 769.05 167.25 L 772.70 163.40 L 776.35 159.72 L 780.00 158.88" class="path-4" />
<line x1="50" y1="158.7" x2="780" y2="158.7" stroke="#4b5563" stroke-width="0.8" stroke-dasharray="6 3" />
</svg>