<svg xmlns="http://www.w3.org/2000/svg" viewBox="0 0 800 300" width="800" height="300">
<style>
.axis-line { stroke: #6b7280; stroke-width: 0.5; }
.axis-text { font-family: monospace; font-size: 11px; fill: #9ca3af; }
.title-text { font-family: monospace; font-size: 14px; fill: #d1d5db; font-weight: bold; }
.grid-line { stroke: #374151; stroke-width: 0.3; stroke-dasharray: 4 2; }
.path-0 { fill: none; stroke: #3b82f6; stroke-width: 2; stroke-linecap: round; opacity: 0.85; animation: draw-0 8s ease-in-out 0.0s infinite; stroke-dasharray: 1082; stroke-dashoffset: 1082;}
@keyframes draw-0 { 0% { stroke-dashoffset: 1082; } 38% { stroke-dashoffset: 0; } 62% { stroke-dashoffset: 0; } 100% { stroke-dashoffset: 1082; }}
.path-1 { fill: none; stroke: #ef4444; stroke-width: 2; stroke-linecap: round; opacity: 0.85; animation: draw-1 8s ease-in-out 0.4s infinite; stroke-dasharray: 1119; stroke-dashoffset: 1119;}
@keyframes draw-1 { 0% { stroke-dashoffset: 1119; } 38% { stroke-dashoffset: 0; } 62% { stroke-dashoffset: 0; } 100% { stroke-dashoffset: 1119; }}
.path-2 { fill: none; stroke: #22c55e; stroke-width: 2; stroke-linecap: round; opacity: 0.85; animation: draw-2 8s ease-in-out 0.8s infinite; stroke-dasharray: 1071; stroke-dashoffset: 1071;}
@keyframes draw-2 { 0% { stroke-dashoffset: 1071; } 38% { stroke-dashoffset: 0; } 62% { stroke-dashoffset: 0; } 100% { stroke-dashoffset: 1071; }}
.path-3 { fill: none; stroke: #f59e0b; stroke-width: 2; stroke-linecap: round; opacity: 0.85; animation: draw-3 8s ease-in-out 1.2000000000000002s infinite; stroke-dasharray: 1077; stroke-dashoffset: 1077;}
@keyframes draw-3 { 0% { stroke-dashoffset: 1077; } 38% { stroke-dashoffset: 0; } 62% { stroke-dashoffset: 0; } 100% { stroke-dashoffset: 1077; }}
.path-4 { fill: none; stroke: #a855f7; stroke-width: 2; stroke-linecap: round; opacity: 0.85; animation: draw-4 8s ease-in-out 1.6s infinite; stroke-dasharray: 1051; stroke-dashoffset: 1051;}
@keyframes draw-4 { 0% { stroke-dashoffset: 1051; } 38% { stroke-dashoffset: 0; } 62% { stroke-dashoffset: 0; } 100% { stroke-dashoffset: 1051; }}
</style>
<rect width="800" height="300" rx="8" fill="#0d1117" />
<line x1="50" y1="260.0" x2="780" y2="260.0" class="grid-line" />
<text x="44" y="264.0" text-anchor="end" class="axis-text">-1.5</text>
<line x1="50" y1="216.0" x2="780" y2="216.0" class="grid-line" />
<text x="44" y="220.0" text-anchor="end" class="axis-text">-0.7</text>
<line x1="50" y1="172.0" x2="780" y2="172.0" class="grid-line" />
<text x="44" y="176.0" text-anchor="end" class="axis-text">-0.0</text>
<line x1="50" y1="128.0" x2="780" y2="128.0" class="grid-line" />
<text x="44" y="132.0" text-anchor="end" class="axis-text">0.7</text>
<line x1="50" y1="84.0" x2="780" y2="84.0" class="grid-line" />
<text x="44" y="88.0" text-anchor="end" class="axis-text">1.4</text>
<line x1="50" y1="40.0" x2="780" y2="40.0" class="grid-line" />
<text x="44" y="44.0" text-anchor="end" class="axis-text">2.1</text>
<line x1="50.0" y1="40" x2="50.0" y2="260" class="grid-line" />
<line x1="196.0" y1="40" x2="196.0" y2="260" class="grid-line" />
<line x1="342.0" y1="40" x2="342.0" y2="260" class="grid-line" />
<line x1="488.0" y1="40" x2="488.0" y2="260" class="grid-line" />
<line x1="634.0" y1="40" x2="634.0" y2="260" class="grid-line" />
<line x1="780.0" y1="40" x2="780.0" y2="260" class="grid-line" />
<line x1="50" y1="260" x2="780" y2="260" class="axis-line" />
<line x1="50" y1="40" x2="50" y2="260" class="axis-line" />
<text x="400.0" y="295" text-anchor="middle" class="axis-text">t</text>
<text x="12" y="150.0" text-anchor="middle" class="axis-text" transform="rotate(-90 12 150.0)">W(t)</text>
<text x="400.0" y="22" text-anchor="middle" class="title-text">Brownian Motion</text>
<path d="M 50.00 169.80 L 53.65 170.58 L 57.30 166.08 L 60.95 171.96 L 64.60 169.69 L 68.25 173.42 L 71.90 176.98 L 75.55 178.37 L 79.20 174.66 L 82.85 176.86 L 86.50 175.11 L 90.15 171.08 L 93.80 169.54 L 97.45 170.53 L 101.10 171.97 L 104.75 177.11 L 108.40 173.85 L 112.05 172.64 L 115.70 172.55 L 119.35 165.44 L 123.00 162.29 L 126.65 154.81 L 130.30 149.75 L 133.95 146.65 L 137.60 145.60 L 141.25 146.47 L 144.90 149.32 L 148.55 149.57 L 152.20 150.03 L 155.85 151.30 L 159.50 150.17 L 163.15 147.56 L 166.80 144.73 L 170.45 151.93 L 174.10 156.77 L 177.75 158.05 L 181.40 152.19 L 185.05 153.27 L 188.70 142.96 L 192.35 141.78 L 196.00 146.70 L 199.65 138.20 L 203.30 143.89 L 206.95 146.76 L 210.60 143.22 L 214.25 146.79 L 217.90 145.98 L 221.55 153.60 L 225.20 153.58 L 228.85 149.72 L 232.50 145.06 L 236.15 148.79 L 239.80 144.57 L 243.45 144.32 L 247.10 146.76 L 250.75 154.12 L 254.40 163.42 L 258.05 153.10 L 261.70 158.40 L 265.35 161.88 L 269.00 159.34 L 272.65 155.76 L 276.30 150.12 L 279.95 142.42 L 283.60 149.50 L 287.25 150.08 L 290.90 149.40 L 294.55 158.95 L 298.20 158.98 L 301.85 159.25 L 305.50 159.46 L 309.15 158.49 L 312.80 160.39 L 316.45 160.39 L 320.10 162.63 L 323.75 166.80 L 327.40 156.83 L 331.05 158.61 L 334.70 159.55 L 338.35 155.87 L 342.00 157.67 L 345.65 161.95 L 349.30 169.80 L 352.95 172.69 L 356.60 175.08 L 360.25 176.85 L 363.90 178.50 L 367.55 178.43 L 371.20 180.66 L 374.85 185.10 L 378.50 184.83 L 382.15 180.71 L 385.80 174.50 L 389.45 167.99 L 393.10 168.10 L 396.75 167.88 L 400.40 163.27 L 404.05 157.27 L 407.70 157.23 L 411.35 160.61 L 415.00 151.41 L 418.65 144.51 L 422.30 139.44 L 425.95 140.89 L 429.60 141.57 L 433.25 146.98 L 436.90 139.72 L 440.55 139.34 L 444.20 135.86 L 447.85 145.95 L 451.50 137.58 L 455.15 125.47 L 458.80 124.54 L 462.45 121.53 L 466.10 122.11 L 469.75 119.48 L 473.40 118.77 L 477.05 115.73 L 480.70 116.76 L 484.35 112.43 L 488.00 109.24 L 491.65 116.31 L 495.30 122.81 L 498.95 111.73 L 502.60 110.72 L 506.25 105.86 L 509.90 105.94 L 513.55 100.52 L 517.20 96.29 L 520.85 99.90 L 524.50 101.03 L 528.15 101.26 L 531.80 106.25 L 535.45 104.15 L 539.10 107.52 L 542.75 108.36 L 546.40 117.19 L 550.05 109.01 L 553.70 109.72 L 557.35 109.23 L 561.00 116.34 L 564.65 111.65 L 568.30 106.85 L 571.95 105.60 L 575.60 107.86 L 579.25 109.13 L 582.90 106.73 L 586.55 116.17 L 590.20 114.52 L 593.85 112.80 L 597.50 110.66 L 601.15 110.60 L 604.80 109.65 L 608.45 110.28 L 612.10 104.15 L 615.75 101.38 L 619.40 99.97 L 623.05 99.76 L 626.70 93.33 L 630.35 93.85 L 634.00 92.37 L 637.65 90.58 L 641.30 90.18 L 644.95 84.27 L 648.60 89.74 L 652.25 89.75 L 655.90 90.37 L 659.55 91.62 L 663.20 90.07 L 666.85 85.73 L 670.50 85.78 L 674.15 84.32 L 677.80 83.90 L 681.45 88.84 L 685.10 93.82 L 688.75 90.98 L 692.40 93.36 L 696.05 90.06 L 699.70 95.16 L 703.35 97.99 L 707.00 94.83 L 710.65 96.63 L 714.30 90.41 L 717.95 86.14 L 721.60 99.49 L 725.25 99.88 L 728.90 96.89 L 732.55 97.48 L 736.20 88.72 L 739.85 88.92 L 743.50 85.18 L 747.15 87.02 L 750.80 88.99 L 754.45 82.62 L 758.10 80.22 L 761.75 78.02 L 765.40 76.22 L 769.05 72.92 L 772.70 70.40 L 776.35 67.67 L 780.00 65.38" class="path-0" />
<path d="M 50.00 169.80 L 53.65 167.99 L 57.30 164.99 L 60.95 159.40 L 64.60 152.35 L 68.25 154.98 L 71.90 155.58 L 75.55 157.16 L 79.20 167.06 L 82.85 159.44 L 86.50 154.14 L 90.15 162.68 L 93.80 162.60 L 97.45 158.59 L 101.10 158.07 L 104.75 147.09 L 108.40 150.78 L 112.05 152.06 L 115.70 150.55 L 119.35 149.65 L 123.00 151.30 L 126.65 144.55 L 130.30 139.04 L 133.95 138.96 L 137.60 136.74 L 141.25 135.26 L 144.90 131.90 L 148.55 134.70 L 152.20 135.37 L 155.85 134.34 L 159.50 138.19 L 163.15 146.12 L 166.80 148.70 L 170.45 150.09 L 174.10 159.91 L 177.75 158.01 L 181.40 163.00 L 185.05 163.91 L 188.70 168.09 L 192.35 174.19 L 196.00 166.98 L 199.65 164.89 L 203.30 166.57 L 206.95 163.05 L 210.60 153.06 L 214.25 144.29 L 217.90 149.43 L 221.55 151.56 L 225.20 157.97 L 228.85 161.12 L 232.50 163.92 L 236.15 161.61 L 239.80 161.34 L 243.45 167.49 L 247.10 170.36 L 250.75 172.48 L 254.40 167.36 L 258.05 163.05 L 261.70 159.05 L 265.35 165.17 L 269.00 163.80 L 272.65 163.25 L 276.30 164.17 L 279.95 165.43 L 283.60 159.33 L 287.25 157.97 L 290.90 154.87 L 294.55 158.15 L 298.20 156.93 L 301.85 149.14 L 305.50 144.32 L 309.15 141.04 L 312.80 132.48 L 316.45 127.90 L 320.10 136.09 L 323.75 137.60 L 327.40 133.39 L 331.05 137.89 L 334.70 129.09 L 338.35 128.09 L 342.00 126.10 L 345.65 132.42 L 349.30 140.39 L 352.95 147.85 L 356.60 152.21 L 360.25 155.41 L 363.90 159.53 L 367.55 167.57 L 371.20 161.29 L 374.85 161.94 L 378.50 157.29 L 382.15 155.08 L 385.80 152.79 L 389.45 156.18 L 393.10 156.55 L 396.75 153.84 L 400.40 152.64 L 404.05 157.97 L 407.70 150.89 L 411.35 149.60 L 415.00 148.09 L 418.65 145.03 L 422.30 147.83 L 425.95 142.96 L 429.60 140.50 L 433.25 139.66 L 436.90 137.23 L 440.55 136.51 L 444.20 144.44 L 447.85 146.85 L 451.50 141.00 L 455.15 144.53 L 458.80 148.74 L 462.45 146.64 L 466.10 149.83 L 469.75 159.73 L 473.40 155.58 L 477.05 147.16 L 480.70 148.65 L 484.35 151.41 L 488.00 154.01 L 491.65 153.72 L 495.30 153.80 L 498.95 152.43 L 502.60 153.71 L 506.25 159.39 L 509.90 171.45 L 513.55 173.98 L 517.20 175.74 L 520.85 176.75 L 524.50 169.09 L 528.15 167.74 L 531.80 173.87 L 535.45 179.60 L 539.10 180.09 L 542.75 184.33 L 546.40 181.48 L 550.05 182.79 L 553.70 193.52 L 557.35 198.55 L 561.00 199.18 L 564.65 195.27 L 568.30 197.86 L 571.95 202.30 L 575.60 198.87 L 579.25 198.41 L 582.90 199.35 L 586.55 195.79 L 590.20 202.38 L 593.85 209.71 L 597.50 205.99 L 601.15 200.95 L 604.80 203.01 L 608.45 210.48 L 612.10 213.48 L 615.75 211.48 L 619.40 209.63 L 623.05 208.98 L 626.70 209.93 L 630.35 207.63 L 634.00 210.35 L 637.65 204.07 L 641.30 206.23 L 644.95 207.09 L 648.60 208.72 L 652.25 203.91 L 655.90 204.80 L 659.55 205.74 L 663.20 213.00 L 666.85 212.73 L 670.50 213.47 L 674.15 216.02 L 677.80 218.14 L 681.45 222.39 L 685.10 224.77 L 688.75 225.18 L 692.40 229.21 L 696.05 231.67 L 699.70 234.62 L 703.35 233.60 L 707.00 229.89 L 710.65 225.16 L 714.30 218.73 L 717.95 219.07 L 721.60 212.81 L 725.25 209.63 L 728.90 211.19 L 732.55 214.29 L 736.20 203.65 L 739.85 211.61 L 743.50 215.93 L 747.15 218.72 L 750.80 217.88 L 754.45 213.29 L 758.10 208.98 L 761.75 203.50 L 765.40 207.41 L 769.05 208.24 L 772.70 219.43 L 776.35 209.94 L 780.00 207.79" class="path-1" />
<path d="M 50.00 169.80 L 53.65 173.11 L 57.30 173.61 L 60.95 174.48 L 64.60 171.36 L 68.25 166.34 L 71.90 161.31 L 75.55 166.59 L 79.20 164.55 L 82.85 164.97 L 86.50 164.80 L 90.15 166.32 L 93.80 165.85 L 97.45 163.82 L 101.10 164.76 L 104.75 161.64 L 108.40 163.77 L 112.05 161.25 L 115.70 160.95 L 119.35 161.58 L 123.00 156.18 L 126.65 154.17 L 130.30 153.43 L 133.95 157.43 L 137.60 157.03 L 141.25 155.12 L 144.90 159.89 L 148.55 162.14 L 152.20 162.54 L 155.85 157.14 L 159.50 153.49 L 163.15 160.36 L 166.80 156.86 L 170.45 155.50 L 174.10 151.37 L 177.75 155.26 L 181.40 154.23 L 185.05 150.28 L 188.70 145.73 L 192.35 145.33 L 196.00 139.96 L 199.65 134.05 L 203.30 125.47 L 206.95 123.05 L 210.60 117.36 L 214.25 121.22 L 217.90 123.37 L 221.55 120.92 L 225.20 122.57 L 228.85 122.87 L 232.50 114.91 L 236.15 118.65 L 239.80 109.35 L 243.45 116.30 L 247.10 118.32 L 250.75 124.11 L 254.40 133.74 L 258.05 136.14 L 261.70 147.00 L 265.35 145.17 L 269.00 140.21 L 272.65 141.25 L 276.30 141.75 L 279.95 140.62 L 283.60 139.22 L 287.25 141.77 L 290.90 136.89 L 294.55 136.27 L 298.20 133.55 L 301.85 138.77 L 305.50 137.82 L 309.15 137.26 L 312.80 140.46 L 316.45 138.69 L 320.10 139.64 L 323.75 141.20 L 327.40 136.11 L 331.05 132.60 L 334.70 131.76 L 338.35 133.76 L 342.00 130.87 L 345.65 126.61 L 349.30 117.54 L 352.95 121.43 L 356.60 122.82 L 360.25 121.77 L 363.90 114.11 L 367.55 117.02 L 371.20 116.46 L 374.85 111.62 L 378.50 110.70 L 382.15 110.78 L 385.80 110.48 L 389.45 110.15 L 393.10 116.87 L 396.75 120.92 L 400.40 115.11 L 404.05 112.73 L 407.70 115.94 L 411.35 112.43 L 415.00 117.03 L 418.65 117.75 L 422.30 123.24 L 425.95 121.57 L 429.60 115.67 L 433.25 115.25 L 436.90 109.20 L 440.55 115.07 L 444.20 113.27 L 447.85 108.14 L 451.50 102.04 L 455.15 95.05 L 458.80 93.49 L 462.45 94.96 L 466.10 96.01 L 469.75 102.41 L 473.40 100.33 L 477.05 105.31 L 480.70 106.84 L 484.35 111.71 L 488.00 111.78 L 491.65 110.00 L 495.30 106.23 L 498.95 102.53 L 502.60 98.15 L 506.25 92.62 L 509.90 84.30 L 513.55 83.63 L 517.20 85.71 L 520.85 86.68 L 524.50 86.16 L 528.15 79.56 L 531.80 74.26 L 535.45 76.57 L 539.10 73.75 L 542.75 69.05 L 546.40 76.46 L 550.05 82.19 L 553.70 77.15 L 557.35 75.70 L 561.00 73.37 L 564.65 75.36 L 568.30 78.42 L 571.95 72.51 L 575.60 77.29 L 579.25 79.79 L 582.90 81.62 L 586.55 86.11 L 590.20 79.81 L 593.85 81.26 L 597.50 78.92 L 601.15 85.89 L 604.80 88.12 L 608.45 90.88 L 612.10 95.64 L 615.75 91.79 L 619.40 87.58 L 623.05 92.98 L 626.70 81.43 L 630.35 84.70 L 634.00 92.04 L 637.65 85.93 L 641.30 88.04 L 644.95 92.28 L 648.60 98.14 L 652.25 98.64 L 655.90 103.58 L 659.55 98.79 L 663.20 98.59 L 666.85 101.31 L 670.50 99.79 L 674.15 99.85 L 677.80 107.75 L 681.45 114.11 L 685.10 108.96 L 688.75 112.40 L 692.40 109.48 L 696.05 109.67 L 699.70 109.29 L 703.35 119.21 L 707.00 117.43 L 710.65 121.25 L 714.30 121.58 L 717.95 118.13 L 721.60 114.75 L 725.25 103.60 L 728.90 112.60 L 732.55 115.83 L 736.20 114.76 L 739.85 106.76 L 743.50 104.61 L 747.15 107.64 L 750.80 108.52 L 754.45 108.48 L 758.10 105.91 L 761.75 110.12 L 765.40 108.21 L 769.05 104.97 L 772.70 104.10 L 776.35 104.36 L 780.00 107.57" class="path-2" />
<path d="M 50.00 169.80 L 53.65 165.61 L 57.30 163.81 L 60.95 160.95 L 64.60 163.58 L 68.25 171.23 L 71.90 173.66 L 75.55 181.86 L 79.20 178.51 L 82.85 176.82 L 86.50 176.25 L 90.15 175.88 L 93.80 177.84 L 97.45 175.59 L 101.10 175.40 L 104.75 176.78 L 108.40 169.42 L 112.05 162.06 L 115.70 162.30 L 119.35 162.18 L 123.00 161.24 L 126.65 154.64 L 130.30 158.11 L 133.95 162.01 L 137.60 166.33 L 141.25 176.78 L 144.90 176.61 L 148.55 171.03 L 152.20 168.87 L 155.85 163.65 L 159.50 153.46 L 163.15 145.16 L 166.80 147.22 L 170.45 149.10 L 174.10 160.19 L 177.75 168.42 L 181.40 171.46 L 185.05 170.19 L 188.70 168.25 L 192.35 166.52 L 196.00 163.26 L 199.65 162.22 L 203.30 156.76 L 206.95 157.25 L 210.60 157.22 L 214.25 150.45 L 217.90 153.12 L 221.55 158.72 L 225.20 160.27 L 228.85 154.03 L 232.50 144.95 L 236.15 142.35 L 239.80 147.74 L 243.45 150.41 L 247.10 146.50 L 250.75 148.04 L 254.40 145.79 L 258.05 146.35 L 261.70 147.97 L 265.35 150.43 L 269.00 146.42 L 272.65 146.71 L 276.30 144.72 L 279.95 146.72 L 283.60 151.88 L 287.25 154.51 L 290.90 151.31 L 294.55 150.94 L 298.20 145.37 L 301.85 142.98 L 305.50 146.14 L 309.15 145.31 L 312.80 147.19 L 316.45 150.78 L 320.10 155.10 L 323.75 158.30 L 327.40 161.19 L 331.05 160.54 L 334.70 152.74 L 338.35 149.13 L 342.00 147.04 L 345.65 145.88 L 349.30 153.52 L 352.95 151.45 L 356.60 152.31 L 360.25 151.37 L 363.90 144.62 L 367.55 144.13 L 371.20 142.83 L 374.85 140.65 L 378.50 140.38 L 382.15 141.30 L 385.80 143.01 L 389.45 142.80 L 393.10 137.39 L 396.75 142.02 L 400.40 145.70 L 404.05 138.47 L 407.70 138.84 L 411.35 135.43 L 415.00 132.85 L 418.65 130.94 L 422.30 126.00 L 425.95 125.92 L 429.60 130.90 L 433.25 122.60 L 436.90 124.16 L 440.55 126.18 L 444.20 119.70 L 447.85 127.98 L 451.50 127.58 L 455.15 123.68 L 458.80 127.59 L 462.45 119.36 L 466.10 120.06 L 469.75 121.90 L 473.40 126.84 L 477.05 128.98 L 480.70 131.29 L 484.35 132.33 L 488.00 134.90 L 491.65 139.49 L 495.30 138.21 L 498.95 142.86 L 502.60 146.72 L 506.25 143.20 L 509.90 146.54 L 513.55 147.41 L 517.20 140.75 L 520.85 138.35 L 524.50 140.39 L 528.15 143.65 L 531.80 144.57 L 535.45 147.19 L 539.10 143.97 L 542.75 138.66 L 546.40 130.21 L 550.05 135.11 L 553.70 135.89 L 557.35 134.14 L 561.00 138.09 L 564.65 135.66 L 568.30 135.49 L 571.95 138.31 L 575.60 140.70 L 579.25 147.53 L 582.90 151.66 L 586.55 148.18 L 590.20 150.73 L 593.85 148.84 L 597.50 149.08 L 601.15 144.06 L 604.80 143.08 L 608.45 148.00 L 612.10 151.35 L 615.75 155.08 L 619.40 152.58 L 623.05 156.57 L 626.70 150.01 L 630.35 144.59 L 634.00 144.81 L 637.65 137.25 L 641.30 144.87 L 644.95 145.94 L 648.60 138.14 L 652.25 140.51 L 655.90 142.75 L 659.55 140.21 L 663.20 147.45 L 666.85 142.12 L 670.50 139.48 L 674.15 132.04 L 677.80 126.07 L 681.45 126.72 L 685.10 128.55 L 688.75 116.41 L 692.40 115.61 L 696.05 113.61 L 699.70 113.70 L 703.35 109.67 L 707.00 108.77 L 710.65 115.85 L 714.30 117.53 L 717.95 113.83 L 721.60 109.43 L 725.25 118.00 L 728.90 118.58 L 732.55 118.66 L 736.20 119.88 L 739.85 123.04 L 743.50 116.25 L 747.15 122.47 L 750.80 118.00 L 754.45 123.44 L 758.10 120.78 L 761.75 127.71 L 765.40 131.11 L 769.05 130.55 L 772.70 130.64 L 776.35 125.02 L 780.00 122.20" class="path-3" />
<path d="M 50.00 169.80 L 53.65 170.13 L 57.30 175.20 L 60.95 182.90 L 64.60 178.53 L 68.25 173.54 L 71.90 173.52 L 75.55 172.91 L 79.20 176.60 L 82.85 180.16 L 86.50 182.10 L 90.15 186.14 L 93.80 187.53 L 97.45 184.88 L 101.10 189.06 L 104.75 188.63 L 108.40 183.99 L 112.05 184.29 L 115.70 176.45 L 119.35 172.12 L 123.00 171.09 L 126.65 168.46 L 130.30 172.27 L 133.95 169.23 L 137.60 161.98 L 141.25 164.79 L 144.90 167.93 L 148.55 161.47 L 152.20 159.72 L 155.85 162.39 L 159.50 166.54 L 163.15 169.27 L 166.80 172.62 L 170.45 172.42 L 174.10 173.30 L 177.75 174.53 L 181.40 178.37 L 185.05 183.73 L 188.70 178.12 L 192.35 178.51 L 196.00 182.26 L 199.65 187.96 L 203.30 189.29 L 206.95 194.61 L 210.60 184.02 L 214.25 184.78 L 217.90 184.85 L 221.55 182.92 L 225.20 178.35 L 228.85 180.65 L 232.50 179.53 L 236.15 186.48 L 239.80 185.68 L 243.45 181.03 L 247.10 178.71 L 250.75 173.52 L 254.40 175.95 L 258.05 165.92 L 261.70 166.91 L 265.35 170.41 L 269.00 166.17 L 272.65 159.70 L 276.30 159.80 L 279.95 156.01 L 283.60 155.28 L 287.25 160.99 L 290.90 160.23 L 294.55 162.83 L 298.20 157.99 L 301.85 158.95 L 305.50 161.77 L 309.15 165.38 L 312.80 169.10 L 316.45 169.63 L 320.10 163.87 L 323.75 157.88 L 327.40 152.50 L 331.05 142.31 L 334.70 145.06 L 338.35 149.09 L 342.00 155.34 L 345.65 151.77 L 349.30 156.38 L 352.95 159.22 L 356.60 162.06 L 360.25 160.92 L 363.90 159.31 L 367.55 158.11 L 371.20 155.78 L 374.85 159.33 L 378.50 164.38 L 382.15 157.42 L 385.80 159.75 L 389.45 163.04 L 393.10 165.89 L 396.75 165.30 L 400.40 164.85 L 404.05 163.64 L 407.70 166.08 L 411.35 164.94 L 415.00 162.54 L 418.65 165.15 L 422.30 169.29 L 425.95 165.13 L 429.60 161.11 L 433.25 160.42 L 436.90 158.41 L 440.55 152.85 L 444.20 145.90 L 447.85 142.72 L 451.50 143.93 L 455.15 145.19 L 458.80 139.63 L 462.45 138.56 L 466.10 134.00 L 469.75 133.43 L 473.40 131.09 L 477.05 126.28 L 480.70 128.37 L 484.35 129.32 L 488.00 129.24 L 491.65 135.28 L 495.30 139.31 L 498.95 139.41 L 502.60 140.25 L 506.25 137.03 L 509.90 139.65 L 513.55 134.16 L 517.20 125.59 L 520.85 122.00 L 524.50 120.13 L 528.15 119.30 L 531.80 117.10 L 535.45 114.46 L 539.10 115.94 L 542.75 115.69 L 546.40 116.08 L 550.05 106.18 L 553.70 103.84 L 557.35 103.56 L 561.00 102.96 L 564.65 111.25 L 568.30 112.96 L 571.95 109.51 L 575.60 103.89 L 579.25 107.58 L 582.90 107.53 L 586.55 111.04 L 590.20 118.26 L 593.85 116.86 L 597.50 109.91 L 601.15 109.81 L 604.80 109.69 L 608.45 110.92 L 612.10 115.39 L 615.75 116.12 L 619.40 115.61 L 623.05 114.02 L 626.70 109.44 L 630.35 109.91 L 634.00 101.91 L 637.65 106.63 L 641.30 104.19 L 644.95 101.24 L 648.60 104.42 L 652.25 104.81 L 655.90 105.30 L 659.55 112.24 L 663.20 110.71 L 666.85 118.52 L 670.50 118.34 L 674.15 118.52 L 677.80 116.04 L 681.45 127.22 L 685.10 129.36 L 688.75 137.56 L 692.40 134.04 L 696.05 132.48 L 699.70 138.45 L 703.35 144.70 L 707.00 146.94 L 710.65 145.85 L 714.30 153.14 L 717.95 151.54 L 721.60 156.59 L 725.25 150.51 L 728.90 149.27 L 732.55 152.59 L 736.20 154.94 L 739.85 155.50 L 743.50 160.83 L 747.15 154.28 L 750.80 154.17 L 754.45 156.26 L 758.10 151.66 L 761.75 143.66 L 765.40 143.32 L 769.05 146.46 L 772.70 150.37 L 776.35 151.43 L 780.00 148.58" class="path-4" />
<line x1="50" y1="169.8" x2="780" y2="169.8" stroke="#4b5563" stroke-width="0.8" stroke-dasharray="6 3" />
</svg>