<svg xmlns="http://www.w3.org/2000/svg" viewBox="0 0 800 300" width="800" height="300">
<style>
.axis-line { stroke: #6b7280; stroke-width: 0.5; }
.axis-text { font-family: monospace; font-size: 11px; fill: #9ca3af; }
.title-text { font-family: monospace; font-size: 14px; fill: #d1d5db; font-weight: bold; }
.grid-line { stroke: #374151; stroke-width: 0.3; stroke-dasharray: 4 2; }
.path-0 { fill: none; stroke: #3b82f6; stroke-width: 2; stroke-linecap: round; opacity: 0.85; animation: draw-0 8s ease-in-out 0.0s infinite; stroke-dasharray: 1022; stroke-dashoffset: 1022;}
@keyframes draw-0 { 0% { stroke-dashoffset: 1022; } 38% { stroke-dashoffset: 0; } 62% { stroke-dashoffset: 0; } 100% { stroke-dashoffset: 1022; }}
.path-1 { fill: none; stroke: #ef4444; stroke-width: 2; stroke-linecap: round; opacity: 0.85; animation: draw-1 8s ease-in-out 0.4s infinite; stroke-dasharray: 1035; stroke-dashoffset: 1035;}
@keyframes draw-1 { 0% { stroke-dashoffset: 1035; } 38% { stroke-dashoffset: 0; } 62% { stroke-dashoffset: 0; } 100% { stroke-dashoffset: 1035; }}
.path-2 { fill: none; stroke: #22c55e; stroke-width: 2; stroke-linecap: round; opacity: 0.85; animation: draw-2 8s ease-in-out 0.8s infinite; stroke-dasharray: 977; stroke-dashoffset: 977;}
@keyframes draw-2 { 0% { stroke-dashoffset: 977; } 38% { stroke-dashoffset: 0; } 62% { stroke-dashoffset: 0; } 100% { stroke-dashoffset: 977; }}
.path-3 { fill: none; stroke: #f59e0b; stroke-width: 2; stroke-linecap: round; opacity: 0.85; animation: draw-3 8s ease-in-out 1.2000000000000002s infinite; stroke-dasharray: 1001; stroke-dashoffset: 1001;}
@keyframes draw-3 { 0% { stroke-dashoffset: 1001; } 38% { stroke-dashoffset: 0; } 62% { stroke-dashoffset: 0; } 100% { stroke-dashoffset: 1001; }}
.path-4 { fill: none; stroke: #a855f7; stroke-width: 2; stroke-linecap: round; opacity: 0.85; animation: draw-4 8s ease-in-out 1.6s infinite; stroke-dasharray: 1042; stroke-dashoffset: 1042;}
@keyframes draw-4 { 0% { stroke-dashoffset: 1042; } 38% { stroke-dashoffset: 0; } 62% { stroke-dashoffset: 0; } 100% { stroke-dashoffset: 1042; }}
</style>
<rect width="800" height="300" rx="8" fill="#0d1117" />
<line x1="50" y1="260.0" x2="780" y2="260.0" class="grid-line" />
<text x="44" y="264.0" text-anchor="end" class="axis-text">-2.5</text>
<line x1="50" y1="216.0" x2="780" y2="216.0" class="grid-line" />
<text x="44" y="220.0" text-anchor="end" class="axis-text">-1.7</text>
<line x1="50" y1="172.0" x2="780" y2="172.0" class="grid-line" />
<text x="44" y="176.0" text-anchor="end" class="axis-text">-0.9</text>
<line x1="50" y1="128.0" x2="780" y2="128.0" class="grid-line" />
<text x="44" y="132.0" text-anchor="end" class="axis-text">-0.1</text>
<line x1="50" y1="84.0" x2="780" y2="84.0" class="grid-line" />
<text x="44" y="88.0" text-anchor="end" class="axis-text">0.7</text>
<line x1="50" y1="40.0" x2="780" y2="40.0" class="grid-line" />
<text x="44" y="44.0" text-anchor="end" class="axis-text">1.5</text>
<line x1="50.0" y1="40" x2="50.0" y2="260" class="grid-line" />
<line x1="196.0" y1="40" x2="196.0" y2="260" class="grid-line" />
<line x1="342.0" y1="40" x2="342.0" y2="260" class="grid-line" />
<line x1="488.0" y1="40" x2="488.0" y2="260" class="grid-line" />
<line x1="634.0" y1="40" x2="634.0" y2="260" class="grid-line" />
<line x1="780.0" y1="40" x2="780.0" y2="260" class="grid-line" />
<line x1="50" y1="260" x2="780" y2="260" class="axis-line" />
<line x1="50" y1="40" x2="50" y2="260" class="axis-line" />
<text x="400.0" y="295" text-anchor="middle" class="axis-text">t</text>
<text x="12" y="150.0" text-anchor="middle" class="axis-text" transform="rotate(-90 12 150.0)">W(t)</text>
<text x="400.0" y="22" text-anchor="middle" class="title-text">Brownian Motion</text>
<path d="M 50.00 121.68 L 53.65 117.92 L 57.30 123.69 L 60.95 122.64 L 64.60 119.74 L 68.25 119.87 L 71.90 124.48 L 75.55 120.21 L 79.20 112.58 L 82.85 116.95 L 86.50 120.04 L 90.15 121.18 L 93.80 118.98 L 97.45 115.17 L 101.10 117.53 L 104.75 120.14 L 108.40 116.91 L 112.05 120.67 L 115.70 122.97 L 119.35 130.90 L 123.00 127.41 L 126.65 131.68 L 130.30 129.19 L 133.95 128.64 L 137.60 123.52 L 141.25 123.23 L 144.90 116.09 L 148.55 116.40 L 152.20 115.81 L 155.85 121.09 L 159.50 123.98 L 163.15 126.81 L 166.80 125.80 L 170.45 113.80 L 174.10 115.16 L 177.75 122.01 L 181.40 125.37 L 185.05 126.77 L 188.70 126.57 L 192.35 125.02 L 196.00 126.75 L 199.65 130.88 L 203.30 133.72 L 206.95 137.98 L 210.60 137.34 L 214.25 140.61 L 217.90 139.41 L 221.55 138.31 L 225.20 136.37 L 228.85 128.96 L 232.50 130.43 L 236.15 127.21 L 239.80 126.26 L 243.45 125.64 L 247.10 128.21 L 250.75 126.36 L 254.40 128.55 L 258.05 131.15 L 261.70 136.50 L 265.35 141.99 L 269.00 140.49 L 272.65 138.28 L 276.30 137.84 L 279.95 132.55 L 283.60 126.08 L 287.25 125.27 L 290.90 131.15 L 294.55 130.77 L 298.20 119.34 L 301.85 119.23 L 305.50 126.50 L 309.15 130.74 L 312.80 136.72 L 316.45 134.28 L 320.10 133.55 L 323.75 133.34 L 327.40 134.48 L 331.05 137.67 L 334.70 129.13 L 338.35 127.22 L 342.00 119.98 L 345.65 117.62 L 349.30 125.00 L 352.95 125.32 L 356.60 117.72 L 360.25 114.06 L 363.90 119.55 L 367.55 118.94 L 371.20 115.93 L 374.85 120.14 L 378.50 119.79 L 382.15 119.60 L 385.80 115.38 L 389.45 113.91 L 393.10 109.81 L 396.75 105.38 L 400.40 104.48 L 404.05 106.97 L 407.70 107.42 L 411.35 102.89 L 415.00 106.36 L 418.65 105.55 L 422.30 109.99 L 425.95 103.92 L 429.60 103.17 L 433.25 99.69 L 436.90 102.03 L 440.55 100.85 L 444.20 95.64 L 447.85 91.78 L 451.50 96.18 L 455.15 99.32 L 458.80 100.43 L 462.45 99.40 L 466.10 102.70 L 469.75 103.89 L 473.40 105.51 L 477.05 104.09 L 480.70 100.70 L 484.35 104.35 L 488.00 98.49 L 491.65 97.81 L 495.30 99.02 L 498.95 99.46 L 502.60 105.46 L 506.25 111.06 L 509.90 109.33 L 513.55 110.23 L 517.20 110.72 L 520.85 110.31 L 524.50 110.27 L 528.15 114.19 L 531.80 111.32 L 535.45 115.95 L 539.10 120.28 L 542.75 117.70 L 546.40 109.29 L 550.05 107.75 L 553.70 115.52 L 557.35 111.06 L 561.00 115.25 L 564.65 115.49 L 568.30 113.95 L 571.95 117.69 L 575.60 113.90 L 579.25 116.19 L 582.90 115.58 L 586.55 115.42 L 590.20 113.30 L 593.85 113.07 L 597.50 108.63 L 601.15 110.57 L 604.80 113.81 L 608.45 111.13 L 612.10 111.62 L 615.75 113.37 L 619.40 113.99 L 623.05 112.11 L 626.70 116.96 L 630.35 108.97 L 634.00 106.76 L 637.65 104.40 L 641.30 101.63 L 644.95 101.04 L 648.60 95.14 L 652.25 96.29 L 655.90 95.63 L 659.55 93.41 L 663.20 97.66 L 666.85 101.89 L 670.50 103.51 L 674.15 99.95 L 677.80 98.09 L 681.45 98.58 L 685.10 101.43 L 688.75 98.96 L 692.40 97.53 L 696.05 91.09 L 699.70 90.93 L 703.35 87.45 L 707.00 98.67 L 710.65 101.94 L 714.30 96.08 L 717.95 95.81 L 721.60 102.93 L 725.25 107.89 L 728.90 108.73 L 732.55 115.61 L 736.20 118.34 L 739.85 121.75 L 743.50 122.70 L 747.15 117.21 L 750.80 114.70 L 754.45 114.95 L 758.10 109.45 L 761.75 107.63 L 765.40 109.84 L 769.05 108.96 L 772.70 108.21 L 776.35 106.08 L 780.00 101.22" class="path-0" />
<path d="M 50.00 121.68 L 53.65 119.97 L 57.30 120.60 L 60.95 122.91 L 64.60 129.72 L 68.25 129.20 L 71.90 126.86 L 75.55 128.62 L 79.20 130.11 L 82.85 131.14 L 86.50 133.63 L 90.15 129.83 L 93.80 137.58 L 97.45 136.43 L 101.10 139.97 L 104.75 141.67 L 108.40 137.78 L 112.05 133.36 L 115.70 135.93 L 119.35 136.66 L 123.00 138.11 L 126.65 137.34 L 130.30 134.62 L 133.95 136.51 L 137.60 127.61 L 141.25 127.04 L 144.90 123.75 L 148.55 118.97 L 152.20 112.29 L 155.85 115.25 L 159.50 117.84 L 163.15 120.38 L 166.80 113.56 L 170.45 111.91 L 174.10 110.26 L 177.75 108.57 L 181.40 113.59 L 185.05 111.96 L 188.70 112.89 L 192.35 117.39 L 196.00 110.19 L 199.65 111.33 L 203.30 111.60 L 206.95 109.30 L 210.60 106.72 L 214.25 103.86 L 217.90 107.12 L 221.55 112.05 L 225.20 111.87 L 228.85 110.39 L 232.50 107.68 L 236.15 95.75 L 239.80 88.95 L 243.45 88.36 L 247.10 82.83 L 250.75 78.09 L 254.40 82.20 L 258.05 79.13 L 261.70 70.69 L 265.35 70.22 L 269.00 69.19 L 272.65 73.15 L 276.30 72.74 L 279.95 75.41 L 283.60 79.65 L 287.25 77.33 L 290.90 76.23 L 294.55 77.08 L 298.20 81.52 L 301.85 79.20 L 305.50 83.90 L 309.15 83.12 L 312.80 76.55 L 316.45 77.58 L 320.10 78.28 L 323.75 79.35 L 327.40 73.51 L 331.05 73.39 L 334.70 73.05 L 338.35 69.56 L 342.00 65.38 L 345.65 71.47 L 349.30 72.56 L 352.95 78.22 L 356.60 73.84 L 360.25 78.79 L 363.90 82.75 L 367.55 84.68 L 371.20 82.04 L 374.85 82.25 L 378.50 85.00 L 382.15 88.01 L 385.80 95.63 L 389.45 99.25 L 393.10 101.46 L 396.75 100.05 L 400.40 101.15 L 404.05 104.54 L 407.70 111.32 L 411.35 108.59 L 415.00 108.40 L 418.65 104.55 L 422.30 110.76 L 425.95 121.62 L 429.60 120.75 L 433.25 124.22 L 436.90 118.84 L 440.55 117.93 L 444.20 119.77 L 447.85 115.62 L 451.50 118.54 L 455.15 116.49 L 458.80 119.89 L 462.45 127.07 L 466.10 130.91 L 469.75 133.41 L 473.40 133.45 L 477.05 133.67 L 480.70 137.28 L 484.35 140.70 L 488.00 138.08 L 491.65 139.18 L 495.30 140.73 L 498.95 139.24 L 502.60 143.83 L 506.25 149.01 L 509.90 148.30 L 513.55 151.13 L 517.20 147.78 L 520.85 151.11 L 524.50 150.94 L 528.15 149.52 L 531.80 152.50 L 535.45 158.11 L 539.10 156.89 L 542.75 156.02 L 546.40 156.18 L 550.05 154.23 L 553.70 154.37 L 557.35 151.28 L 561.00 144.94 L 564.65 144.49 L 568.30 146.57 L 571.95 151.37 L 575.60 150.92 L 579.25 148.91 L 582.90 152.20 L 586.55 149.38 L 590.20 154.59 L 593.85 155.39 L 597.50 156.92 L 601.15 157.79 L 604.80 151.58 L 608.45 144.82 L 612.10 147.73 L 615.75 141.85 L 619.40 142.09 L 623.05 140.42 L 626.70 144.07 L 630.35 138.28 L 634.00 139.73 L 637.65 137.05 L 641.30 132.05 L 644.95 129.13 L 648.60 124.52 L 652.25 128.80 L 655.90 127.99 L 659.55 129.62 L 663.20 123.41 L 666.85 126.00 L 670.50 128.99 L 674.15 130.04 L 677.80 126.58 L 681.45 130.63 L 685.10 122.18 L 688.75 116.47 L 692.40 116.36 L 696.05 110.59 L 699.70 113.48 L 703.35 107.95 L 707.00 112.42 L 710.65 109.05 L 714.30 107.66 L 717.95 107.22 L 721.60 100.81 L 725.25 112.75 L 728.90 121.45 L 732.55 117.76 L 736.20 119.51 L 739.85 116.97 L 743.50 111.73 L 747.15 109.68 L 750.80 115.90 L 754.45 113.78 L 758.10 113.46 L 761.75 109.56 L 765.40 106.38 L 769.05 111.63 L 772.70 109.99 L 776.35 105.01 L 780.00 110.60" class="path-1" />
<path d="M 50.00 121.68 L 53.65 128.18 L 57.30 130.78 L 60.95 127.00 L 64.60 125.79 L 68.25 122.97 L 71.90 117.94 L 75.55 114.02 L 79.20 105.45 L 82.85 105.07 L 86.50 108.82 L 90.15 108.61 L 93.80 106.13 L 97.45 101.71 L 101.10 107.83 L 104.75 112.34 L 108.40 107.58 L 112.05 113.79 L 115.70 107.46 L 119.35 112.44 L 123.00 108.47 L 126.65 110.53 L 130.30 108.15 L 133.95 105.07 L 137.60 106.13 L 141.25 107.83 L 144.90 108.63 L 148.55 108.79 L 152.20 105.88 L 155.85 107.33 L 159.50 101.82 L 163.15 104.02 L 166.80 105.24 L 170.45 105.51 L 174.10 109.66 L 177.75 110.70 L 181.40 108.54 L 185.05 110.71 L 188.70 116.22 L 192.35 122.21 L 196.00 118.64 L 199.65 118.29 L 203.30 121.58 L 206.95 117.64 L 210.60 115.37 L 214.25 117.60 L 217.90 110.60 L 221.55 105.46 L 225.20 108.70 L 228.85 108.05 L 232.50 104.78 L 236.15 105.80 L 239.80 103.71 L 243.45 102.93 L 247.10 103.46 L 250.75 103.78 L 254.40 107.75 L 258.05 107.27 L 261.70 112.37 L 265.35 112.64 L 269.00 106.73 L 272.65 107.54 L 276.30 101.97 L 279.95 99.39 L 283.60 93.80 L 287.25 92.84 L 290.90 92.55 L 294.55 89.08 L 298.20 92.47 L 301.85 91.80 L 305.50 85.50 L 309.15 80.39 L 312.80 78.39 L 316.45 76.24 L 320.10 73.65 L 323.75 75.16 L 327.40 72.05 L 331.05 71.13 L 334.70 75.39 L 338.35 76.41 L 342.00 72.99 L 345.65 74.62 L 349.30 77.26 L 352.95 73.15 L 356.60 78.13 L 360.25 78.54 L 363.90 75.75 L 367.55 79.23 L 371.20 79.36 L 374.85 80.17 L 378.50 75.86 L 382.15 71.05 L 385.80 72.34 L 389.45 66.48 L 393.10 68.34 L 396.75 67.40 L 400.40 69.03 L 404.05 68.97 L 407.70 76.01 L 411.35 79.82 L 415.00 79.13 L 418.65 76.96 L 422.30 80.41 L 425.95 76.79 L 429.60 76.83 L 433.25 78.56 L 436.90 83.76 L 440.55 85.77 L 444.20 85.60 L 447.85 89.04 L 451.50 88.91 L 455.15 90.94 L 458.80 91.29 L 462.45 93.67 L 466.10 91.90 L 469.75 94.32 L 473.40 88.82 L 477.05 86.76 L 480.70 84.80 L 484.35 84.76 L 488.00 81.92 L 491.65 86.24 L 495.30 87.43 L 498.95 81.56 L 502.60 79.84 L 506.25 81.18 L 509.90 85.60 L 513.55 87.51 L 517.20 85.29 L 520.85 82.59 L 524.50 87.37 L 528.15 97.76 L 531.80 102.41 L 535.45 102.61 L 539.10 98.47 L 542.75 93.27 L 546.40 93.57 L 550.05 100.02 L 553.70 101.28 L 557.35 105.28 L 561.00 104.12 L 564.65 103.66 L 568.30 104.98 L 571.95 108.36 L 575.60 111.37 L 579.25 111.87 L 582.90 115.61 L 586.55 111.57 L 590.20 110.39 L 593.85 110.48 L 597.50 111.42 L 601.15 111.40 L 604.80 111.57 L 608.45 111.71 L 612.10 112.99 L 615.75 111.54 L 619.40 111.72 L 623.05 108.27 L 626.70 110.45 L 630.35 116.75 L 634.00 119.16 L 637.65 113.40 L 641.30 114.95 L 644.95 118.76 L 648.60 113.50 L 652.25 106.27 L 655.90 102.87 L 659.55 107.35 L 663.20 109.45 L 666.85 111.69 L 670.50 111.82 L 674.15 114.46 L 677.80 118.14 L 681.45 119.10 L 685.10 115.28 L 688.75 116.55 L 692.40 116.86 L 696.05 114.57 L 699.70 121.89 L 703.35 121.88 L 707.00 125.17 L 710.65 126.89 L 714.30 122.21 L 717.95 118.35 L 721.60 114.74 L 725.25 111.64 L 728.90 116.45 L 732.55 113.90 L 736.20 110.94 L 739.85 107.81 L 743.50 104.15 L 747.15 107.37 L 750.80 107.94 L 754.45 107.00 L 758.10 104.65 L 761.75 104.48 L 765.40 105.78 L 769.05 100.75 L 772.70 99.92 L 776.35 98.25 L 780.00 97.56" class="path-2" />
<path d="M 50.00 121.68 L 53.65 119.48 L 57.30 121.80 L 60.95 123.32 L 64.60 128.63 L 68.25 130.29 L 71.90 130.36 L 75.55 134.24 L 79.20 123.98 L 82.85 124.16 L 86.50 124.30 L 90.15 128.55 L 93.80 126.81 L 97.45 130.02 L 101.10 136.06 L 104.75 137.08 L 108.40 142.48 L 112.05 140.34 L 115.70 140.52 L 119.35 141.45 L 123.00 141.56 L 126.65 137.60 L 130.30 138.17 L 133.95 141.07 L 137.60 139.27 L 141.25 147.95 L 144.90 157.61 L 148.55 156.32 L 152.20 161.16 L 155.85 160.84 L 159.50 164.22 L 163.15 169.83 L 166.80 170.03 L 170.45 167.98 L 174.10 173.79 L 177.75 175.90 L 181.40 176.60 L 185.05 174.21 L 188.70 172.68 L 192.35 166.07 L 196.00 168.21 L 199.65 168.99 L 203.30 167.64 L 206.95 172.83 L 210.60 171.80 L 214.25 168.64 L 217.90 167.80 L 221.55 171.63 L 225.20 166.87 L 228.85 169.72 L 232.50 169.35 L 236.15 172.66 L 239.80 172.33 L 243.45 174.14 L 247.10 178.23 L 250.75 175.20 L 254.40 177.22 L 258.05 171.81 L 261.70 175.25 L 265.35 181.95 L 269.00 175.58 L 272.65 177.18 L 276.30 174.36 L 279.95 172.84 L 283.60 173.95 L 287.25 169.51 L 290.90 175.25 L 294.55 180.09 L 298.20 176.93 L 301.85 176.33 L 305.50 174.71 L 309.15 176.61 L 312.80 180.35 L 316.45 177.69 L 320.10 179.82 L 323.75 182.83 L 327.40 183.20 L 331.05 184.30 L 334.70 187.47 L 338.35 187.29 L 342.00 182.33 L 345.65 181.98 L 349.30 186.16 L 352.95 180.60 L 356.60 181.99 L 360.25 186.98 L 363.90 186.25 L 367.55 190.76 L 371.20 190.27 L 374.85 187.19 L 378.50 190.18 L 382.15 189.61 L 385.80 184.29 L 389.45 183.51 L 393.10 183.72 L 396.75 181.51 L 400.40 186.36 L 404.05 193.35 L 407.70 192.41 L 411.35 193.88 L 415.00 194.10 L 418.65 192.27 L 422.30 194.81 L 425.95 196.58 L 429.60 195.02 L 433.25 193.63 L 436.90 187.69 L 440.55 189.42 L 444.20 186.96 L 447.85 180.63 L 451.50 184.08 L 455.15 179.30 L 458.80 174.46 L 462.45 177.69 L 466.10 173.89 L 469.75 171.57 L 473.40 173.73 L 477.05 171.65 L 480.70 177.19 L 484.35 181.78 L 488.00 173.80 L 491.65 173.02 L 495.30 169.21 L 498.95 167.32 L 502.60 176.56 L 506.25 176.44 L 509.90 179.52 L 513.55 181.81 L 517.20 179.79 L 520.85 185.87 L 524.50 184.62 L 528.15 186.88 L 531.80 186.82 L 535.45 187.96 L 539.10 182.21 L 542.75 180.22 L 546.40 173.79 L 550.05 183.47 L 553.70 184.01 L 557.35 183.08 L 561.00 184.68 L 564.65 185.03 L 568.30 179.56 L 571.95 191.00 L 575.60 188.85 L 579.25 192.85 L 582.90 191.77 L 586.55 190.12 L 590.20 195.25 L 593.85 193.27 L 597.50 195.22 L 601.15 195.15 L 604.80 199.18 L 608.45 202.83 L 612.10 200.02 L 615.75 209.27 L 619.40 216.65 L 623.05 216.60 L 626.70 217.50 L 630.35 219.08 L 634.00 216.69 L 637.65 218.39 L 641.30 220.19 L 644.95 219.34 L 648.60 217.00 L 652.25 213.46 L 655.90 216.86 L 659.55 215.10 L 663.20 221.68 L 666.85 221.99 L 670.50 222.38 L 674.15 219.57 L 677.80 216.80 L 681.45 214.36 L 685.10 212.61 L 688.75 210.08 L 692.40 213.68 L 696.05 216.12 L 699.70 211.62 L 703.35 211.49 L 707.00 207.46 L 710.65 210.10 L 714.30 207.63 L 717.95 210.50 L 721.60 213.12 L 725.25 216.75 L 728.90 215.32 L 732.55 216.80 L 736.20 215.76 L 739.85 214.01 L 743.50 212.02 L 747.15 210.02 L 750.80 211.24 L 754.45 222.82 L 758.10 222.97 L 761.75 229.25 L 765.40 229.05 L 769.05 232.06 L 772.70 230.71 L 776.35 232.23 L 780.00 234.62" class="path-3" />
<path d="M 50.00 121.68 L 53.65 117.00 L 57.30 114.90 L 60.95 117.40 L 64.60 112.00 L 68.25 115.39 L 71.90 117.51 L 75.55 124.66 L 79.20 122.02 L 82.85 124.60 L 86.50 123.16 L 90.15 127.97 L 93.80 130.94 L 97.45 134.07 L 101.10 133.16 L 104.75 127.49 L 108.40 126.30 L 112.05 128.04 L 115.70 129.02 L 119.35 132.78 L 123.00 124.81 L 126.65 125.70 L 130.30 127.59 L 133.95 129.13 L 137.60 128.76 L 141.25 133.02 L 144.90 132.74 L 148.55 140.80 L 152.20 141.95 L 155.85 139.77 L 159.50 143.11 L 163.15 144.88 L 166.80 144.05 L 170.45 146.72 L 174.10 142.62 L 177.75 149.22 L 181.40 145.94 L 185.05 146.03 L 188.70 155.16 L 192.35 153.58 L 196.00 152.63 L 199.65 150.19 L 203.30 154.38 L 206.95 156.32 L 210.60 156.24 L 214.25 157.74 L 217.90 160.90 L 221.55 158.34 L 225.20 163.65 L 228.85 163.41 L 232.50 166.41 L 236.15 162.06 L 239.80 156.14 L 243.45 149.87 L 247.10 146.05 L 250.75 145.03 L 254.40 150.83 L 258.05 148.33 L 261.70 150.08 L 265.35 149.51 L 269.00 148.54 L 272.65 151.57 L 276.30 149.47 L 279.95 150.29 L 283.60 143.58 L 287.25 151.26 L 290.90 151.62 L 294.55 155.70 L 298.20 151.94 L 301.85 147.98 L 305.50 150.14 L 309.15 143.68 L 312.80 135.55 L 316.45 143.92 L 320.10 143.22 L 323.75 138.05 L 327.40 141.81 L 331.05 142.57 L 334.70 147.80 L 338.35 142.65 L 342.00 142.14 L 345.65 142.01 L 349.30 140.33 L 352.95 136.89 L 356.60 138.22 L 360.25 142.25 L 363.90 140.96 L 367.55 142.77 L 371.20 138.14 L 374.85 135.55 L 378.50 138.67 L 382.15 139.85 L 385.80 135.92 L 389.45 137.44 L 393.10 136.72 L 396.75 140.62 L 400.40 137.61 L 404.05 133.75 L 407.70 130.65 L 411.35 134.91 L 415.00 131.02 L 418.65 129.83 L 422.30 132.00 L 425.95 129.70 L 429.60 133.13 L 433.25 132.70 L 436.90 143.44 L 440.55 135.98 L 444.20 136.81 L 447.85 132.26 L 451.50 130.92 L 455.15 134.72 L 458.80 129.81 L 462.45 130.09 L 466.10 123.89 L 469.75 123.29 L 473.40 123.68 L 477.05 119.61 L 480.70 122.99 L 484.35 124.36 L 488.00 117.47 L 491.65 116.34 L 495.30 115.28 L 498.95 126.26 L 502.60 133.54 L 506.25 133.98 L 509.90 128.42 L 513.55 126.69 L 517.20 119.57 L 520.85 118.15 L 524.50 122.89 L 528.15 123.80 L 531.80 120.92 L 535.45 120.52 L 539.10 120.61 L 542.75 128.68 L 546.40 132.34 L 550.05 140.48 L 553.70 144.30 L 557.35 137.71 L 561.00 139.05 L 564.65 143.43 L 568.30 150.87 L 571.95 151.69 L 575.60 146.54 L 579.25 145.43 L 582.90 142.75 L 586.55 138.09 L 590.20 132.92 L 593.85 127.81 L 597.50 126.63 L 601.15 126.97 L 604.80 123.71 L 608.45 126.53 L 612.10 140.65 L 615.75 145.99 L 619.40 148.80 L 623.05 145.99 L 626.70 148.14 L 630.35 148.42 L 634.00 147.80 L 637.65 146.31 L 641.30 148.11 L 644.95 145.99 L 648.60 148.75 L 652.25 152.12 L 655.90 152.14 L 659.55 156.62 L 663.20 162.79 L 666.85 160.88 L 670.50 164.39 L 674.15 167.13 L 677.80 163.46 L 681.45 160.86 L 685.10 156.58 L 688.75 152.61 L 692.40 147.98 L 696.05 146.10 L 699.70 151.01 L 703.35 145.26 L 707.00 146.43 L 710.65 144.91 L 714.30 145.76 L 717.95 152.17 L 721.60 151.00 L 725.25 147.86 L 728.90 146.37 L 732.55 145.45 L 736.20 143.68 L 739.85 149.03 L 743.50 152.30 L 747.15 156.45 L 750.80 153.36 L 754.45 146.07 L 758.10 150.54 L 761.75 148.70 L 765.40 147.67 L 769.05 150.66 L 772.70 150.55 L 776.35 145.84 L 780.00 145.12" class="path-4" />
<line x1="50" y1="121.7" x2="780" y2="121.7" stroke="#4b5563" stroke-width="0.8" stroke-dasharray="6 3" />
</svg>