<svg xmlns="http://www.w3.org/2000/svg" viewBox="0 0 800 300" width="800" height="300">
<style>
.axis-line { stroke: #6b7280; stroke-width: 0.5; }
.axis-text { font-family: monospace; font-size: 11px; fill: #9ca3af; }
.title-text { font-family: monospace; font-size: 14px; fill: #d1d5db; font-weight: bold; }
.grid-line { stroke: #374151; stroke-width: 0.3; stroke-dasharray: 4 2; }
.path-0 { fill: none; stroke: #3b82f6; stroke-width: 2; stroke-linecap: round; opacity: 0.85; animation: draw-0 8s ease-in-out 0.0s infinite; stroke-dasharray: 1053; stroke-dashoffset: 1053;}
@keyframes draw-0 { 0% { stroke-dashoffset: 1053; } 38% { stroke-dashoffset: 0; } 62% { stroke-dashoffset: 0; } 100% { stroke-dashoffset: 1053; }}
.path-1 { fill: none; stroke: #ef4444; stroke-width: 2; stroke-linecap: round; opacity: 0.85; animation: draw-1 8s ease-in-out 0.4s infinite; stroke-dasharray: 1074; stroke-dashoffset: 1074;}
@keyframes draw-1 { 0% { stroke-dashoffset: 1074; } 38% { stroke-dashoffset: 0; } 62% { stroke-dashoffset: 0; } 100% { stroke-dashoffset: 1074; }}
.path-2 { fill: none; stroke: #22c55e; stroke-width: 2; stroke-linecap: round; opacity: 0.85; animation: draw-2 8s ease-in-out 0.8s infinite; stroke-dasharray: 1084; stroke-dashoffset: 1084;}
@keyframes draw-2 { 0% { stroke-dashoffset: 1084; } 38% { stroke-dashoffset: 0; } 62% { stroke-dashoffset: 0; } 100% { stroke-dashoffset: 1084; }}
.path-3 { fill: none; stroke: #f59e0b; stroke-width: 2; stroke-linecap: round; opacity: 0.85; animation: draw-3 8s ease-in-out 1.2000000000000002s infinite; stroke-dasharray: 1050; stroke-dashoffset: 1050;}
@keyframes draw-3 { 0% { stroke-dashoffset: 1050; } 38% { stroke-dashoffset: 0; } 62% { stroke-dashoffset: 0; } 100% { stroke-dashoffset: 1050; }}
.path-4 { fill: none; stroke: #a855f7; stroke-width: 2; stroke-linecap: round; opacity: 0.85; animation: draw-4 8s ease-in-out 1.6s infinite; stroke-dasharray: 1090; stroke-dashoffset: 1090;}
@keyframes draw-4 { 0% { stroke-dashoffset: 1090; } 38% { stroke-dashoffset: 0; } 62% { stroke-dashoffset: 0; } 100% { stroke-dashoffset: 1090; }}
</style>
<rect width="800" height="300" rx="8" fill="#0d1117" />
<line x1="50" y1="260.0" x2="780" y2="260.0" class="grid-line" />
<text x="44" y="264.0" text-anchor="end" class="axis-text">-2.2</text>
<line x1="50" y1="216.0" x2="780" y2="216.0" class="grid-line" />
<text x="44" y="220.0" text-anchor="end" class="axis-text">-1.5</text>
<line x1="50" y1="172.0" x2="780" y2="172.0" class="grid-line" />
<text x="44" y="176.0" text-anchor="end" class="axis-text">-0.8</text>
<line x1="50" y1="128.0" x2="780" y2="128.0" class="grid-line" />
<text x="44" y="132.0" text-anchor="end" class="axis-text">-0.1</text>
<line x1="50" y1="84.0" x2="780" y2="84.0" class="grid-line" />
<text x="44" y="88.0" text-anchor="end" class="axis-text">0.7</text>
<line x1="50" y1="40.0" x2="780" y2="40.0" class="grid-line" />
<text x="44" y="44.0" text-anchor="end" class="axis-text">1.4</text>
<line x1="50.0" y1="40" x2="50.0" y2="260" class="grid-line" />
<line x1="196.0" y1="40" x2="196.0" y2="260" class="grid-line" />
<line x1="342.0" y1="40" x2="342.0" y2="260" class="grid-line" />
<line x1="488.0" y1="40" x2="488.0" y2="260" class="grid-line" />
<line x1="634.0" y1="40" x2="634.0" y2="260" class="grid-line" />
<line x1="780.0" y1="40" x2="780.0" y2="260" class="grid-line" />
<line x1="50" y1="260" x2="780" y2="260" class="axis-line" />
<line x1="50" y1="40" x2="50" y2="260" class="axis-line" />
<text x="400.0" y="295" text-anchor="middle" class="axis-text">t</text>
<text x="12" y="150.0" text-anchor="middle" class="axis-text" transform="rotate(-90 12 150.0)">W(t)</text>
<text x="400.0" y="22" text-anchor="middle" class="title-text">Brownian Motion</text>
<path d="M 50.00 123.78 L 53.65 120.69 L 57.30 122.64 L 60.95 126.57 L 64.60 125.94 L 68.25 126.74 L 71.90 125.87 L 75.55 128.79 L 79.20 120.61 L 82.85 125.43 L 86.50 125.58 L 90.15 122.07 L 93.80 119.44 L 97.45 119.14 L 101.10 126.43 L 104.75 131.80 L 108.40 130.51 L 112.05 128.91 L 115.70 131.22 L 119.35 128.47 L 123.00 142.40 L 126.65 135.12 L 130.30 136.30 L 133.95 133.16 L 137.60 139.36 L 141.25 141.64 L 144.90 135.96 L 148.55 139.32 L 152.20 135.13 L 155.85 129.82 L 159.50 130.23 L 163.15 125.88 L 166.80 122.27 L 170.45 123.45 L 174.10 127.99 L 177.75 125.92 L 181.40 121.55 L 185.05 121.07 L 188.70 121.80 L 192.35 124.56 L 196.00 125.01 L 199.65 127.04 L 203.30 133.30 L 206.95 136.50 L 210.60 140.64 L 214.25 140.48 L 217.90 144.13 L 221.55 146.87 L 225.20 148.19 L 228.85 153.72 L 232.50 157.19 L 236.15 148.82 L 239.80 147.16 L 243.45 145.58 L 247.10 149.93 L 250.75 150.44 L 254.40 150.48 L 258.05 148.76 L 261.70 147.49 L 265.35 144.58 L 269.00 134.60 L 272.65 135.50 L 276.30 133.17 L 279.95 138.54 L 283.60 143.89 L 287.25 139.06 L 290.90 139.83 L 294.55 136.53 L 298.20 140.71 L 301.85 133.99 L 305.50 142.27 L 309.15 138.13 L 312.80 144.34 L 316.45 144.00 L 320.10 145.40 L 323.75 143.26 L 327.40 139.31 L 331.05 140.74 L 334.70 148.58 L 338.35 151.99 L 342.00 153.86 L 345.65 155.39 L 349.30 150.84 L 352.95 147.02 L 356.60 140.20 L 360.25 141.05 L 363.90 139.27 L 367.55 134.87 L 371.20 140.15 L 374.85 138.27 L 378.50 136.01 L 382.15 130.03 L 385.80 128.92 L 389.45 122.89 L 393.10 118.53 L 396.75 118.73 L 400.40 118.55 L 404.05 127.13 L 407.70 130.34 L 411.35 132.63 L 415.00 130.31 L 418.65 129.27 L 422.30 128.66 L 425.95 129.65 L 429.60 132.55 L 433.25 138.59 L 436.90 140.28 L 440.55 144.85 L 444.20 144.95 L 447.85 141.56 L 451.50 148.56 L 455.15 152.65 L 458.80 161.64 L 462.45 165.96 L 466.10 166.63 L 469.75 170.11 L 473.40 171.04 L 477.05 168.72 L 480.70 163.46 L 484.35 167.95 L 488.00 169.22 L 491.65 170.86 L 495.30 167.58 L 498.95 171.45 L 502.60 175.82 L 506.25 173.03 L 509.90 166.56 L 513.55 169.89 L 517.20 164.96 L 520.85 169.32 L 524.50 176.46 L 528.15 176.99 L 531.80 171.22 L 535.45 172.29 L 539.10 168.46 L 542.75 166.42 L 546.40 168.44 L 550.05 161.39 L 553.70 164.03 L 557.35 169.51 L 561.00 168.80 L 564.65 173.75 L 568.30 175.23 L 571.95 177.30 L 575.60 183.23 L 579.25 183.33 L 582.90 186.72 L 586.55 185.60 L 590.20 189.20 L 593.85 192.41 L 597.50 183.78 L 601.15 187.03 L 604.80 185.32 L 608.45 185.19 L 612.10 182.81 L 615.75 185.30 L 619.40 187.93 L 623.05 188.21 L 626.70 188.66 L 630.35 190.04 L 634.00 183.21 L 637.65 182.36 L 641.30 190.01 L 644.95 190.36 L 648.60 196.32 L 652.25 200.27 L 655.90 199.37 L 659.55 200.79 L 663.20 198.62 L 666.85 194.97 L 670.50 194.04 L 674.15 197.08 L 677.80 191.89 L 681.45 195.10 L 685.10 187.83 L 688.75 187.41 L 692.40 192.60 L 696.05 190.57 L 699.70 189.96 L 703.35 193.45 L 707.00 198.40 L 710.65 197.27 L 714.30 193.32 L 717.95 194.95 L 721.60 199.73 L 725.25 193.83 L 728.90 192.29 L 732.55 192.06 L 736.20 198.19 L 739.85 199.36 L 743.50 199.33 L 747.15 195.80 L 750.80 190.39 L 754.45 189.00 L 758.10 195.00 L 761.75 189.68 L 765.40 196.80 L 769.05 202.70 L 772.70 205.36 L 776.35 205.44 L 780.00 206.45" class="path-0" />
<path d="M 50.00 123.78 L 53.65 118.50 L 57.30 123.40 L 60.95 117.75 L 64.60 120.61 L 68.25 114.11 L 71.90 108.04 L 75.55 114.68 L 79.20 118.82 L 82.85 117.96 L 86.50 113.94 L 90.15 110.25 L 93.80 108.11 L 97.45 113.22 L 101.10 110.55 L 104.75 105.46 L 108.40 107.92 L 112.05 107.44 L 115.70 106.90 L 119.35 113.26 L 123.00 111.75 L 126.65 106.94 L 130.30 110.09 L 133.95 111.50 L 137.60 119.07 L 141.25 126.41 L 144.90 123.12 L 148.55 122.84 L 152.20 125.77 L 155.85 122.96 L 159.50 126.07 L 163.15 128.71 L 166.80 128.72 L 170.45 120.60 L 174.10 123.10 L 177.75 127.03 L 181.40 123.54 L 185.05 121.28 L 188.70 125.45 L 192.35 130.06 L 196.00 129.31 L 199.65 128.55 L 203.30 129.03 L 206.95 135.13 L 210.60 136.51 L 214.25 138.35 L 217.90 133.35 L 221.55 133.05 L 225.20 130.31 L 228.85 131.33 L 232.50 129.71 L 236.15 137.03 L 239.80 136.72 L 243.45 138.36 L 247.10 130.27 L 250.75 132.51 L 254.40 127.91 L 258.05 129.68 L 261.70 135.64 L 265.35 130.31 L 269.00 128.55 L 272.65 124.69 L 276.30 125.96 L 279.95 126.67 L 283.60 124.58 L 287.25 130.93 L 290.90 134.83 L 294.55 132.46 L 298.20 127.07 L 301.85 128.18 L 305.50 130.04 L 309.15 125.90 L 312.80 127.77 L 316.45 129.78 L 320.10 128.84 L 323.75 134.08 L 327.40 135.77 L 331.05 139.69 L 334.70 138.85 L 338.35 140.13 L 342.00 134.14 L 345.65 134.58 L 349.30 134.75 L 352.95 135.92 L 356.60 136.99 L 360.25 133.16 L 363.90 140.74 L 367.55 138.30 L 371.20 142.08 L 374.85 136.49 L 378.50 142.04 L 382.15 142.72 L 385.80 148.24 L 389.45 144.47 L 393.10 143.03 L 396.75 142.68 L 400.40 144.36 L 404.05 150.24 L 407.70 149.55 L 411.35 147.96 L 415.00 148.44 L 418.65 151.24 L 422.30 143.10 L 425.95 142.86 L 429.60 140.25 L 433.25 141.05 L 436.90 140.61 L 440.55 141.02 L 444.20 140.69 L 447.85 136.19 L 451.50 143.08 L 455.15 137.39 L 458.80 143.52 L 462.45 144.28 L 466.10 139.53 L 469.75 142.29 L 473.40 148.66 L 477.05 145.37 L 480.70 144.21 L 484.35 141.43 L 488.00 144.93 L 491.65 143.14 L 495.30 139.61 L 498.95 136.63 L 502.60 135.65 L 506.25 132.26 L 509.90 127.33 L 513.55 123.61 L 517.20 114.52 L 520.85 110.49 L 524.50 107.95 L 528.15 110.03 L 531.80 106.05 L 535.45 113.63 L 539.10 105.37 L 542.75 109.25 L 546.40 110.53 L 550.05 116.90 L 553.70 113.04 L 557.35 115.67 L 561.00 116.77 L 564.65 115.20 L 568.30 109.27 L 571.95 110.36 L 575.60 105.57 L 579.25 108.95 L 582.90 103.61 L 586.55 99.25 L 590.20 93.38 L 593.85 91.54 L 597.50 87.91 L 601.15 79.70 L 604.80 81.02 L 608.45 75.52 L 612.10 78.40 L 615.75 85.47 L 619.40 83.47 L 623.05 87.86 L 626.70 92.27 L 630.35 88.19 L 634.00 82.57 L 637.65 90.65 L 641.30 91.37 L 644.95 95.03 L 648.60 100.15 L 652.25 98.37 L 655.90 93.80 L 659.55 91.93 L 663.20 89.75 L 666.85 85.56 L 670.50 88.18 L 674.15 84.02 L 677.80 87.58 L 681.45 84.02 L 685.10 84.00 L 688.75 85.69 L 692.40 79.68 L 696.05 82.12 L 699.70 83.28 L 703.35 83.33 L 707.00 82.58 L 710.65 88.82 L 714.30 81.83 L 717.95 90.16 L 721.60 87.20 L 725.25 80.81 L 728.90 87.81 L 732.55 82.74 L 736.20 75.86 L 739.85 85.83 L 743.50 89.97 L 747.15 88.34 L 750.80 86.17 L 754.45 81.47 L 758.10 78.21 L 761.75 74.58 L 765.40 72.76 L 769.05 78.36 L 772.70 70.63 L 776.35 67.24 L 780.00 65.38" class="path-1" />
<path d="M 50.00 123.78 L 53.65 127.48 L 57.30 127.80 L 60.95 126.44 L 64.60 127.24 L 68.25 123.64 L 71.90 132.38 L 75.55 141.63 L 79.20 143.50 L 82.85 138.14 L 86.50 132.92 L 90.15 137.71 L 93.80 133.19 L 97.45 130.17 L 101.10 125.36 L 104.75 119.57 L 108.40 117.86 L 112.05 116.30 L 115.70 118.95 L 119.35 116.99 L 123.00 113.07 L 126.65 113.64 L 130.30 114.00 L 133.95 119.26 L 137.60 112.89 L 141.25 113.65 L 144.90 116.58 L 148.55 116.50 L 152.20 122.71 L 155.85 128.51 L 159.50 127.02 L 163.15 117.92 L 166.80 120.79 L 170.45 127.65 L 174.10 131.88 L 177.75 129.03 L 181.40 124.89 L 185.05 122.97 L 188.70 128.97 L 192.35 132.05 L 196.00 133.44 L 199.65 134.16 L 203.30 128.22 L 206.95 127.53 L 210.60 130.81 L 214.25 131.99 L 217.90 133.87 L 221.55 126.74 L 225.20 123.62 L 228.85 121.70 L 232.50 128.36 L 236.15 124.78 L 239.80 123.98 L 243.45 122.76 L 247.10 126.98 L 250.75 130.87 L 254.40 133.87 L 258.05 132.33 L 261.70 126.27 L 265.35 123.81 L 269.00 121.19 L 272.65 117.58 L 276.30 126.00 L 279.95 123.00 L 283.60 121.93 L 287.25 121.72 L 290.90 126.66 L 294.55 126.57 L 298.20 130.71 L 301.85 135.58 L 305.50 133.09 L 309.15 133.90 L 312.80 136.60 L 316.45 138.77 L 320.10 138.33 L 323.75 142.99 L 327.40 139.67 L 331.05 136.45 L 334.70 132.37 L 338.35 134.63 L 342.00 138.68 L 345.65 136.77 L 349.30 138.65 L 352.95 138.01 L 356.60 149.92 L 360.25 156.40 L 363.90 159.88 L 367.55 166.36 L 371.20 165.27 L 374.85 161.01 L 378.50 160.31 L 382.15 154.08 L 385.80 155.07 L 389.45 155.02 L 393.10 148.45 L 396.75 150.08 L 400.40 149.72 L 404.05 154.89 L 407.70 160.66 L 411.35 157.03 L 415.00 162.95 L 418.65 172.05 L 422.30 174.97 L 425.95 176.32 L 429.60 184.83 L 433.25 188.71 L 436.90 182.71 L 440.55 188.61 L 444.20 189.46 L 447.85 194.29 L 451.50 194.78 L 455.15 198.79 L 458.80 196.61 L 462.45 197.90 L 466.10 196.00 L 469.75 203.43 L 473.40 199.05 L 477.05 202.98 L 480.70 202.72 L 484.35 196.38 L 488.00 188.36 L 491.65 201.44 L 495.30 198.97 L 498.95 202.72 L 502.60 198.20 L 506.25 192.12 L 509.90 188.37 L 513.55 191.99 L 517.20 196.92 L 520.85 195.87 L 524.50 190.80 L 528.15 197.63 L 531.80 193.76 L 535.45 194.21 L 539.10 192.37 L 542.75 186.18 L 546.40 188.24 L 550.05 188.02 L 553.70 187.58 L 557.35 196.56 L 561.00 196.21 L 564.65 196.83 L 568.30 199.11 L 571.95 203.53 L 575.60 204.96 L 579.25 204.78 L 582.90 205.15 L 586.55 208.86 L 590.20 204.80 L 593.85 205.14 L 597.50 209.38 L 601.15 213.20 L 604.80 210.26 L 608.45 206.58 L 612.10 211.14 L 615.75 209.90 L 619.40 210.84 L 623.05 205.41 L 626.70 191.79 L 630.35 187.02 L 634.00 192.93 L 637.65 183.75 L 641.30 190.83 L 644.95 190.97 L 648.60 192.10 L 652.25 192.32 L 655.90 194.75 L 659.55 192.50 L 663.20 188.48 L 666.85 194.28 L 670.50 193.04 L 674.15 194.75 L 677.80 192.51 L 681.45 193.26 L 685.10 194.00 L 688.75 197.89 L 692.40 200.33 L 696.05 200.43 L 699.70 206.75 L 703.35 209.29 L 707.00 209.02 L 710.65 204.85 L 714.30 204.19 L 717.95 204.67 L 721.60 201.14 L 725.25 196.87 L 728.90 200.86 L 732.55 202.85 L 736.20 202.18 L 739.85 205.91 L 743.50 206.37 L 747.15 211.32 L 750.80 214.49 L 754.45 212.26 L 758.10 212.57 L 761.75 215.64 L 765.40 220.64 L 769.05 230.42 L 772.70 234.62 L 776.35 227.61 L 780.00 232.42" class="path-2" />
<path d="M 50.00 123.78 L 53.65 132.32 L 57.30 123.49 L 60.95 121.60 L 64.60 120.54 L 68.25 124.10 L 71.90 116.75 L 75.55 113.69 L 79.20 109.82 L 82.85 108.81 L 86.50 117.06 L 90.15 113.10 L 93.80 106.85 L 97.45 107.48 L 101.10 112.09 L 104.75 114.90 L 108.40 125.40 L 112.05 126.04 L 115.70 120.68 L 119.35 119.32 L 123.00 118.43 L 126.65 117.12 L 130.30 116.45 L 133.95 116.14 L 137.60 114.21 L 141.25 114.28 L 144.90 117.80 L 148.55 116.89 L 152.20 111.93 L 155.85 106.02 L 159.50 111.25 L 163.15 117.09 L 166.80 117.74 L 170.45 119.12 L 174.10 114.43 L 177.75 109.66 L 181.40 115.96 L 185.05 114.74 L 188.70 114.01 L 192.35 104.92 L 196.00 111.55 L 199.65 114.00 L 203.30 118.80 L 206.95 118.09 L 210.60 118.12 L 214.25 116.48 L 217.90 115.11 L 221.55 120.53 L 225.20 129.52 L 228.85 129.58 L 232.50 128.36 L 236.15 133.19 L 239.80 134.85 L 243.45 142.75 L 247.10 138.18 L 250.75 142.61 L 254.40 141.00 L 258.05 141.09 L 261.70 140.76 L 265.35 139.63 L 269.00 143.42 L 272.65 149.63 L 276.30 153.96 L 279.95 154.57 L 283.60 152.50 L 287.25 149.99 L 290.90 146.85 L 294.55 140.97 L 298.20 138.31 L 301.85 139.28 L 305.50 143.17 L 309.15 144.26 L 312.80 139.29 L 316.45 146.25 L 320.10 150.56 L 323.75 152.20 L 327.40 151.88 L 331.05 153.08 L 334.70 154.17 L 338.35 149.90 L 342.00 144.71 L 345.65 141.01 L 349.30 140.02 L 352.95 143.74 L 356.60 146.89 L 360.25 149.43 L 363.90 157.09 L 367.55 154.02 L 371.20 151.94 L 374.85 153.44 L 378.50 155.00 L 382.15 156.95 L 385.80 155.97 L 389.45 157.01 L 393.10 153.02 L 396.75 153.21 L 400.40 153.52 L 404.05 152.07 L 407.70 151.65 L 411.35 155.26 L 415.00 145.94 L 418.65 143.35 L 422.30 133.99 L 425.95 128.01 L 429.60 129.00 L 433.25 130.77 L 436.90 128.72 L 440.55 128.28 L 444.20 135.82 L 447.85 134.72 L 451.50 136.96 L 455.15 134.53 L 458.80 127.41 L 462.45 127.22 L 466.10 131.40 L 469.75 126.91 L 473.40 121.67 L 477.05 116.46 L 480.70 119.61 L 484.35 116.78 L 488.00 117.79 L 491.65 118.30 L 495.30 120.15 L 498.95 121.27 L 502.60 119.15 L 506.25 121.50 L 509.90 120.38 L 513.55 120.48 L 517.20 118.56 L 520.85 112.70 L 524.50 118.39 L 528.15 116.14 L 531.80 116.11 L 535.45 114.29 L 539.10 120.14 L 542.75 122.93 L 546.40 125.14 L 550.05 125.61 L 553.70 116.53 L 557.35 116.66 L 561.00 114.71 L 564.65 110.24 L 568.30 116.51 L 571.95 118.03 L 575.60 115.74 L 579.25 123.87 L 582.90 123.74 L 586.55 123.29 L 590.20 125.26 L 593.85 128.49 L 597.50 131.70 L 601.15 135.72 L 604.80 134.73 L 608.45 140.08 L 612.10 142.25 L 615.75 140.26 L 619.40 135.91 L 623.05 145.32 L 626.70 147.11 L 630.35 148.64 L 634.00 152.80 L 637.65 158.06 L 641.30 155.40 L 644.95 158.74 L 648.60 153.75 L 652.25 147.86 L 655.90 152.53 L 659.55 152.62 L 663.20 154.51 L 666.85 163.42 L 670.50 167.96 L 674.15 169.97 L 677.80 168.01 L 681.45 171.43 L 685.10 181.74 L 688.75 186.41 L 692.40 189.47 L 696.05 198.02 L 699.70 194.17 L 703.35 196.42 L 707.00 191.72 L 710.65 198.09 L 714.30 190.91 L 717.95 190.43 L 721.60 186.17 L 725.25 182.08 L 728.90 184.00 L 732.55 182.98 L 736.20 181.96 L 739.85 181.83 L 743.50 176.82 L 747.15 181.08 L 750.80 182.28 L 754.45 180.60 L 758.10 180.72 L 761.75 183.88 L 765.40 185.72 L 769.05 185.64 L 772.70 184.78 L 776.35 181.19 L 780.00 182.95" class="path-3" />
<path d="M 50.00 123.78 L 53.65 120.36 L 57.30 119.38 L 60.95 124.94 L 64.60 123.37 L 68.25 127.33 L 71.90 122.66 L 75.55 120.81 L 79.20 122.17 L 82.85 122.26 L 86.50 114.87 L 90.15 111.94 L 93.80 112.40 L 97.45 119.93 L 101.10 126.70 L 104.75 127.29 L 108.40 132.78 L 112.05 136.80 L 115.70 138.75 L 119.35 145.04 L 123.00 144.68 L 126.65 147.82 L 130.30 154.31 L 133.95 155.43 L 137.60 155.73 L 141.25 156.73 L 144.90 154.76 L 148.55 146.32 L 152.20 149.52 L 155.85 152.68 L 159.50 146.36 L 163.15 141.81 L 166.80 148.92 L 170.45 148.33 L 174.10 141.93 L 177.75 145.01 L 181.40 150.50 L 185.05 147.27 L 188.70 143.91 L 192.35 151.65 L 196.00 149.44 L 199.65 149.99 L 203.30 148.03 L 206.95 149.93 L 210.60 151.43 L 214.25 150.95 L 217.90 152.21 L 221.55 147.65 L 225.20 147.36 L 228.85 149.92 L 232.50 142.52 L 236.15 141.80 L 239.80 135.45 L 243.45 129.20 L 247.10 130.45 L 250.75 129.05 L 254.40 129.72 L 258.05 133.08 L 261.70 133.27 L 265.35 137.57 L 269.00 144.66 L 272.65 147.80 L 276.30 149.64 L 279.95 146.95 L 283.60 140.70 L 287.25 145.33 L 290.90 153.18 L 294.55 146.18 L 298.20 153.00 L 301.85 152.56 L 305.50 149.54 L 309.15 156.24 L 312.80 157.08 L 316.45 158.44 L 320.10 159.56 L 323.75 157.20 L 327.40 166.11 L 331.05 168.59 L 334.70 167.68 L 338.35 161.93 L 342.00 167.19 L 345.65 161.57 L 349.30 161.87 L 352.95 163.20 L 356.60 162.66 L 360.25 169.43 L 363.90 171.36 L 367.55 172.31 L 371.20 176.00 L 374.85 177.92 L 378.50 184.45 L 382.15 188.60 L 385.80 187.90 L 389.45 183.00 L 393.10 189.50 L 396.75 187.49 L 400.40 179.66 L 404.05 183.32 L 407.70 186.09 L 411.35 194.16 L 415.00 197.32 L 418.65 199.85 L 422.30 201.57 L 425.95 202.47 L 429.60 202.86 L 433.25 202.28 L 436.90 195.13 L 440.55 196.33 L 444.20 201.09 L 447.85 192.58 L 451.50 194.67 L 455.15 193.57 L 458.80 196.87 L 462.45 189.81 L 466.10 189.45 L 469.75 195.71 L 473.40 194.44 L 477.05 199.07 L 480.70 196.95 L 484.35 200.41 L 488.00 200.93 L 491.65 206.92 L 495.30 211.22 L 498.95 207.68 L 502.60 212.39 L 506.25 210.73 L 509.90 212.97 L 513.55 217.37 L 517.20 217.40 L 520.85 218.66 L 524.50 225.10 L 528.15 225.66 L 531.80 224.65 L 535.45 226.07 L 539.10 223.72 L 542.75 226.61 L 546.40 225.11 L 550.05 222.48 L 553.70 222.29 L 557.35 213.98 L 561.00 211.15 L 564.65 213.85 L 568.30 209.11 L 571.95 214.39 L 575.60 205.16 L 579.25 205.61 L 582.90 205.61 L 586.55 212.77 L 590.20 219.01 L 593.85 217.09 L 597.50 215.93 L 601.15 212.20 L 604.80 212.44 L 608.45 209.38 L 612.10 206.25 L 615.75 195.50 L 619.40 187.13 L 623.05 177.24 L 626.70 179.19 L 630.35 176.24 L 634.00 181.37 L 637.65 183.94 L 641.30 180.32 L 644.95 181.50 L 648.60 186.46 L 652.25 192.24 L 655.90 192.66 L 659.55 190.45 L 663.20 184.80 L 666.85 187.87 L 670.50 184.78 L 674.15 185.58 L 677.80 186.45 L 681.45 183.91 L 685.10 178.12 L 688.75 181.00 L 692.40 182.85 L 696.05 180.48 L 699.70 177.02 L 703.35 175.87 L 707.00 179.87 L 710.65 187.81 L 714.30 196.12 L 717.95 199.31 L 721.60 188.42 L 725.25 191.18 L 728.90 190.74 L 732.55 195.85 L 736.20 205.05 L 739.85 212.49 L 743.50 209.87 L 747.15 212.12 L 750.80 211.18 L 754.45 215.65 L 758.10 216.35 L 761.75 216.84 L 765.40 223.34 L 769.05 218.56 L 772.70 221.98 L 776.35 225.31 L 780.00 230.04" class="path-4" />
<line x1="50" y1="123.8" x2="780" y2="123.8" stroke="#4b5563" stroke-width="0.8" stroke-dasharray="6 3" />
</svg>