<svg xmlns="http://www.w3.org/2000/svg" viewBox="0 0 800 300" width="800" height="300">
<style>
.axis-line { stroke: #6b7280; stroke-width: 0.5; }
.axis-text { font-family: monospace; font-size: 11px; fill: #9ca3af; }
.title-text { font-family: monospace; font-size: 14px; fill: #d1d5db; font-weight: bold; }
.grid-line { stroke: #374151; stroke-width: 0.3; stroke-dasharray: 4 2; }
.path-0 { fill: none; stroke: #3b82f6; stroke-width: 2; stroke-linecap: round; opacity: 0.85; animation: draw-0 8s ease-in-out 0.0s infinite; stroke-dasharray: 1243; stroke-dashoffset: 1243;}
@keyframes draw-0 { 0% { stroke-dashoffset: 1243; } 38% { stroke-dashoffset: 0; } 62% { stroke-dashoffset: 0; } 100% { stroke-dashoffset: 1243; }}
.path-1 { fill: none; stroke: #ef4444; stroke-width: 2; stroke-linecap: round; opacity: 0.85; animation: draw-1 8s ease-in-out 0.4s infinite; stroke-dasharray: 1212; stroke-dashoffset: 1212;}
@keyframes draw-1 { 0% { stroke-dashoffset: 1212; } 38% { stroke-dashoffset: 0; } 62% { stroke-dashoffset: 0; } 100% { stroke-dashoffset: 1212; }}
.path-2 { fill: none; stroke: #22c55e; stroke-width: 2; stroke-linecap: round; opacity: 0.85; animation: draw-2 8s ease-in-out 0.8s infinite; stroke-dasharray: 1205; stroke-dashoffset: 1205;}
@keyframes draw-2 { 0% { stroke-dashoffset: 1205; } 38% { stroke-dashoffset: 0; } 62% { stroke-dashoffset: 0; } 100% { stroke-dashoffset: 1205; }}
.path-3 { fill: none; stroke: #f59e0b; stroke-width: 2; stroke-linecap: round; opacity: 0.85; animation: draw-3 8s ease-in-out 1.2000000000000002s infinite; stroke-dasharray: 1331; stroke-dashoffset: 1331;}
@keyframes draw-3 { 0% { stroke-dashoffset: 1331; } 38% { stroke-dashoffset: 0; } 62% { stroke-dashoffset: 0; } 100% { stroke-dashoffset: 1331; }}
.path-4 { fill: none; stroke: #a855f7; stroke-width: 2; stroke-linecap: round; opacity: 0.85; animation: draw-4 8s ease-in-out 1.6s infinite; stroke-dasharray: 1247; stroke-dashoffset: 1247;}
@keyframes draw-4 { 0% { stroke-dashoffset: 1247; } 38% { stroke-dashoffset: 0; } 62% { stroke-dashoffset: 0; } 100% { stroke-dashoffset: 1247; }}
</style>
<rect width="800" height="300" rx="8" fill="#0d1117" />
<line x1="50" y1="260.0" x2="780" y2="260.0" class="grid-line" />
<text x="44" y="264.0" text-anchor="end" class="axis-text">-1.8</text>
<line x1="50" y1="216.0" x2="780" y2="216.0" class="grid-line" />
<text x="44" y="220.0" text-anchor="end" class="axis-text">-1.2</text>
<line x1="50" y1="172.0" x2="780" y2="172.0" class="grid-line" />
<text x="44" y="176.0" text-anchor="end" class="axis-text">-0.6</text>
<line x1="50" y1="128.0" x2="780" y2="128.0" class="grid-line" />
<text x="44" y="132.0" text-anchor="end" class="axis-text">-0.1</text>
<line x1="50" y1="84.0" x2="780" y2="84.0" class="grid-line" />
<text x="44" y="88.0" text-anchor="end" class="axis-text">0.5</text>
<line x1="50" y1="40.0" x2="780" y2="40.0" class="grid-line" />
<text x="44" y="44.0" text-anchor="end" class="axis-text">1.1</text>
<line x1="50.0" y1="40" x2="50.0" y2="260" class="grid-line" />
<line x1="196.0" y1="40" x2="196.0" y2="260" class="grid-line" />
<line x1="342.0" y1="40" x2="342.0" y2="260" class="grid-line" />
<line x1="488.0" y1="40" x2="488.0" y2="260" class="grid-line" />
<line x1="634.0" y1="40" x2="634.0" y2="260" class="grid-line" />
<line x1="780.0" y1="40" x2="780.0" y2="260" class="grid-line" />
<line x1="50" y1="260" x2="780" y2="260" class="axis-line" />
<line x1="50" y1="40" x2="50" y2="260" class="axis-line" />
<text x="400.0" y="295" text-anchor="middle" class="axis-text">t</text>
<text x="12" y="150.0" text-anchor="middle" class="axis-text" transform="rotate(-90 12 150.0)">W(t)</text>
<text x="400.0" y="22" text-anchor="middle" class="title-text">Brownian Motion</text>
<path d="M 50.00 122.65 L 53.65 114.59 L 57.30 116.62 L 60.95 126.86 L 64.60 136.53 L 68.25 133.56 L 71.90 135.24 L 75.55 143.19 L 79.20 147.46 L 82.85 145.84 L 86.50 145.90 L 90.15 152.76 L 93.80 159.25 L 97.45 147.27 L 101.10 155.45 L 104.75 159.38 L 108.40 173.56 L 112.05 165.71 L 115.70 167.97 L 119.35 165.57 L 123.00 170.46 L 126.65 178.19 L 130.30 179.11 L 133.95 178.24 L 137.60 179.88 L 141.25 182.43 L 144.90 193.34 L 148.55 192.57 L 152.20 194.54 L 155.85 199.11 L 159.50 202.85 L 163.15 205.51 L 166.80 199.06 L 170.45 206.77 L 174.10 220.05 L 177.75 217.64 L 181.40 213.48 L 185.05 215.23 L 188.70 217.62 L 192.35 228.96 L 196.00 230.23 L 199.65 227.35 L 203.30 231.08 L 206.95 222.06 L 210.60 216.93 L 214.25 218.84 L 217.90 231.08 L 221.55 231.98 L 225.20 234.62 L 228.85 224.24 L 232.50 218.44 L 236.15 227.67 L 239.80 219.33 L 243.45 221.73 L 247.10 215.58 L 250.75 213.82 L 254.40 220.60 L 258.05 215.90 L 261.70 220.15 L 265.35 222.63 L 269.00 221.98 L 272.65 220.29 L 276.30 220.67 L 279.95 226.86 L 283.60 225.89 L 287.25 214.92 L 290.90 214.28 L 294.55 205.75 L 298.20 202.91 L 301.85 205.99 L 305.50 204.54 L 309.15 196.55 L 312.80 204.02 L 316.45 191.48 L 320.10 183.95 L 323.75 189.47 L 327.40 198.12 L 331.05 194.07 L 334.70 202.01 L 338.35 197.47 L 342.00 195.21 L 345.65 200.76 L 349.30 205.96 L 352.95 198.75 L 356.60 201.38 L 360.25 199.48 L 363.90 204.18 L 367.55 205.44 L 371.20 199.02 L 374.85 200.14 L 378.50 199.59 L 382.15 201.43 L 385.80 203.19 L 389.45 199.57 L 393.10 200.80 L 396.75 208.09 L 400.40 206.92 L 404.05 216.69 L 407.70 207.01 L 411.35 199.83 L 415.00 203.68 L 418.65 206.32 L 422.30 200.29 L 425.95 203.56 L 429.60 196.04 L 433.25 196.07 L 436.90 198.65 L 440.55 191.51 L 444.20 188.23 L 447.85 187.67 L 451.50 179.86 L 455.15 180.99 L 458.80 180.23 L 462.45 177.82 L 466.10 179.86 L 469.75 173.52 L 473.40 173.27 L 477.05 168.86 L 480.70 167.69 L 484.35 158.85 L 488.00 162.49 L 491.65 161.04 L 495.30 156.42 L 498.95 160.60 L 502.60 160.90 L 506.25 164.44 L 509.90 172.43 L 513.55 167.55 L 517.20 168.23 L 520.85 159.39 L 524.50 156.73 L 528.15 164.73 L 531.80 170.02 L 535.45 165.81 L 539.10 159.22 L 542.75 163.64 L 546.40 168.27 L 550.05 178.96 L 553.70 187.30 L 557.35 185.89 L 561.00 190.57 L 564.65 188.42 L 568.30 181.82 L 571.95 186.61 L 575.60 186.11 L 579.25 183.35 L 582.90 186.96 L 586.55 187.00 L 590.20 185.17 L 593.85 187.29 L 597.50 186.77 L 601.15 184.93 L 604.80 180.79 L 608.45 188.48 L 612.10 184.01 L 615.75 186.92 L 619.40 189.63 L 623.05 197.81 L 626.70 195.80 L 630.35 192.51 L 634.00 185.80 L 637.65 198.30 L 641.30 199.43 L 644.95 201.33 L 648.60 188.13 L 652.25 187.23 L 655.90 180.90 L 659.55 182.85 L 663.20 191.32 L 666.85 189.51 L 670.50 189.58 L 674.15 191.80 L 677.80 180.47 L 681.45 184.26 L 685.10 178.80 L 688.75 177.15 L 692.40 174.02 L 696.05 176.15 L 699.70 174.90 L 703.35 178.03 L 707.00 177.13 L 710.65 176.72 L 714.30 177.72 L 717.95 176.93 L 721.60 181.91 L 725.25 183.46 L 728.90 175.87 L 732.55 168.77 L 736.20 166.50 L 739.85 153.33 L 743.50 150.66 L 747.15 153.29 L 750.80 149.86 L 754.45 151.20 L 758.10 151.37 L 761.75 146.63 L 765.40 153.35 L 769.05 143.40 L 772.70 136.58 L 776.35 138.29 L 780.00 134.11" class="path-0" />
<path d="M 50.00 122.65 L 53.65 124.61 L 57.30 120.49 L 60.95 109.69 L 64.60 122.70 L 68.25 127.00 L 71.90 131.79 L 75.55 128.17 L 79.20 140.46 L 82.85 144.79 L 86.50 143.97 L 90.15 142.02 L 93.80 144.14 L 97.45 137.77 L 101.10 138.32 L 104.75 147.60 L 108.40 145.48 L 112.05 147.67 L 115.70 148.39 L 119.35 145.46 L 123.00 141.26 L 126.65 139.60 L 130.30 143.89 L 133.95 152.99 L 137.60 158.29 L 141.25 156.08 L 144.90 163.25 L 148.55 160.05 L 152.20 163.02 L 155.85 165.30 L 159.50 166.20 L 163.15 166.91 L 166.80 164.47 L 170.45 163.43 L 174.10 160.17 L 177.75 159.79 L 181.40 164.22 L 185.05 159.18 L 188.70 158.84 L 192.35 156.94 L 196.00 151.94 L 199.65 149.07 L 203.30 149.85 L 206.95 148.82 L 210.60 145.40 L 214.25 149.06 L 217.90 153.27 L 221.55 154.61 L 225.20 159.54 L 228.85 155.69 L 232.50 151.01 L 236.15 143.87 L 239.80 146.49 L 243.45 143.74 L 247.10 156.96 L 250.75 163.00 L 254.40 161.58 L 258.05 160.29 L 261.70 153.28 L 265.35 151.95 L 269.00 147.52 L 272.65 148.02 L 276.30 146.33 L 279.95 137.90 L 283.60 135.24 L 287.25 129.47 L 290.90 128.70 L 294.55 129.30 L 298.20 123.78 L 301.85 134.47 L 305.50 143.88 L 309.15 156.92 L 312.80 156.58 L 316.45 152.25 L 320.10 149.43 L 323.75 146.38 L 327.40 148.07 L 331.05 157.44 L 334.70 157.60 L 338.35 157.11 L 342.00 159.16 L 345.65 158.01 L 349.30 154.44 L 352.95 166.02 L 356.60 153.92 L 360.25 141.67 L 363.90 141.76 L 367.55 136.74 L 371.20 141.04 L 374.85 140.24 L 378.50 134.17 L 382.15 136.98 L 385.80 137.01 L 389.45 134.25 L 393.10 129.05 L 396.75 128.17 L 400.40 126.50 L 404.05 117.23 L 407.70 113.33 L 411.35 113.53 L 415.00 109.93 L 418.65 110.09 L 422.30 113.65 L 425.95 110.31 L 429.60 105.73 L 433.25 96.25 L 436.90 100.22 L 440.55 104.60 L 444.20 108.19 L 447.85 112.36 L 451.50 101.03 L 455.15 99.44 L 458.80 109.91 L 462.45 111.24 L 466.10 104.88 L 469.75 103.23 L 473.40 96.83 L 477.05 101.15 L 480.70 101.80 L 484.35 104.56 L 488.00 104.38 L 491.65 107.95 L 495.30 102.66 L 498.95 112.42 L 502.60 108.31 L 506.25 106.59 L 509.90 117.43 L 513.55 113.91 L 517.20 112.06 L 520.85 107.38 L 524.50 106.21 L 528.15 103.82 L 531.80 105.87 L 535.45 118.17 L 539.10 112.08 L 542.75 111.03 L 546.40 104.67 L 550.05 123.25 L 553.70 123.47 L 557.35 124.10 L 561.00 128.07 L 564.65 125.29 L 568.30 132.50 L 571.95 125.06 L 575.60 123.30 L 579.25 118.76 L 582.90 128.28 L 586.55 124.91 L 590.20 128.58 L 593.85 128.84 L 597.50 130.65 L 601.15 134.02 L 604.80 141.86 L 608.45 148.35 L 612.10 152.76 L 615.75 145.65 L 619.40 147.43 L 623.05 144.95 L 626.70 140.89 L 630.35 143.08 L 634.00 153.37 L 637.65 157.11 L 641.30 149.89 L 644.95 147.79 L 648.60 145.61 L 652.25 145.00 L 655.90 145.24 L 659.55 140.55 L 663.20 133.22 L 666.85 129.53 L 670.50 132.83 L 674.15 138.16 L 677.80 136.19 L 681.45 130.13 L 685.10 133.47 L 688.75 136.03 L 692.40 125.01 L 696.05 121.20 L 699.70 117.23 L 703.35 114.77 L 707.00 120.28 L 710.65 123.33 L 714.30 115.51 L 717.95 118.17 L 721.60 130.50 L 725.25 122.23 L 728.90 127.68 L 732.55 127.19 L 736.20 129.59 L 739.85 128.22 L 743.50 116.85 L 747.15 123.34 L 750.80 125.06 L 754.45 125.06 L 758.10 117.62 L 761.75 117.15 L 765.40 122.66 L 769.05 120.33 L 772.70 126.48 L 776.35 134.85 L 780.00 132.46" class="path-1" />
<path d="M 50.00 122.65 L 53.65 124.66 L 57.30 128.85 L 60.95 129.86 L 64.60 124.91 L 68.25 118.51 L 71.90 126.87 L 75.55 120.07 L 79.20 120.16 L 82.85 123.98 L 86.50 120.39 L 90.15 132.18 L 93.80 139.39 L 97.45 142.77 L 101.10 139.90 L 104.75 144.16 L 108.40 143.32 L 112.05 139.28 L 115.70 139.57 L 119.35 139.75 L 123.00 144.58 L 126.65 147.61 L 130.30 151.85 L 133.95 147.11 L 137.60 145.10 L 141.25 146.20 L 144.90 143.49 L 148.55 139.91 L 152.20 136.92 L 155.85 138.60 L 159.50 141.99 L 163.15 140.05 L 166.80 145.27 L 170.45 146.55 L 174.10 147.75 L 177.75 139.10 L 181.40 139.81 L 185.05 135.28 L 188.70 138.36 L 192.35 141.12 L 196.00 141.89 L 199.65 149.72 L 203.30 145.03 L 206.95 140.07 L 210.60 148.15 L 214.25 148.17 L 217.90 157.15 L 221.55 153.72 L 225.20 151.85 L 228.85 155.98 L 232.50 157.95 L 236.15 169.34 L 239.80 160.87 L 243.45 174.03 L 247.10 182.96 L 250.75 186.05 L 254.40 190.63 L 258.05 190.77 L 261.70 193.90 L 265.35 191.83 L 269.00 195.47 L 272.65 195.84 L 276.30 200.89 L 279.95 203.18 L 283.60 210.16 L 287.25 212.64 L 290.90 214.80 L 294.55 211.11 L 298.20 210.25 L 301.85 206.29 L 305.50 208.34 L 309.15 215.94 L 312.80 203.16 L 316.45 202.91 L 320.10 196.73 L 323.75 193.73 L 327.40 197.93 L 331.05 187.34 L 334.70 199.30 L 338.35 204.08 L 342.00 204.44 L 345.65 201.30 L 349.30 198.36 L 352.95 197.61 L 356.60 190.58 L 360.25 189.10 L 363.90 184.10 L 367.55 185.10 L 371.20 185.53 L 374.85 185.86 L 378.50 179.12 L 382.15 187.35 L 385.80 188.60 L 389.45 191.30 L 393.10 206.87 L 396.75 200.57 L 400.40 198.62 L 404.05 198.07 L 407.70 205.94 L 411.35 208.34 L 415.00 203.74 L 418.65 204.84 L 422.30 209.06 L 425.95 210.87 L 429.60 215.04 L 433.25 221.81 L 436.90 223.66 L 440.55 221.90 L 444.20 217.22 L 447.85 223.06 L 451.50 221.25 L 455.15 209.81 L 458.80 207.84 L 462.45 201.09 L 466.10 203.88 L 469.75 198.62 L 473.40 196.71 L 477.05 203.98 L 480.70 197.06 L 484.35 193.19 L 488.00 192.69 L 491.65 190.36 L 495.30 190.60 L 498.95 196.98 L 502.60 202.57 L 506.25 201.85 L 509.90 211.58 L 513.55 208.63 L 517.20 211.34 L 520.85 215.22 L 524.50 207.22 L 528.15 211.26 L 531.80 211.54 L 535.45 203.01 L 539.10 201.19 L 542.75 190.72 L 546.40 191.47 L 550.05 187.43 L 553.70 186.53 L 557.35 198.38 L 561.00 197.15 L 564.65 201.26 L 568.30 201.33 L 571.95 203.36 L 575.60 200.14 L 579.25 196.79 L 582.90 203.61 L 586.55 200.58 L 590.20 197.86 L 593.85 185.47 L 597.50 189.62 L 601.15 185.28 L 604.80 188.72 L 608.45 186.93 L 612.10 174.28 L 615.75 172.95 L 619.40 167.36 L 623.05 169.78 L 626.70 162.27 L 630.35 161.62 L 634.00 169.55 L 637.65 162.90 L 641.30 165.37 L 644.95 169.59 L 648.60 167.31 L 652.25 164.15 L 655.90 153.15 L 659.55 149.07 L 663.20 147.08 L 666.85 159.58 L 670.50 158.78 L 674.15 160.41 L 677.80 163.99 L 681.45 169.47 L 685.10 171.33 L 688.75 163.03 L 692.40 163.98 L 696.05 162.72 L 699.70 147.34 L 703.35 150.05 L 707.00 160.53 L 710.65 162.52 L 714.30 159.93 L 717.95 160.07 L 721.60 165.25 L 725.25 159.88 L 728.90 149.63 L 732.55 153.62 L 736.20 156.37 L 739.85 152.94 L 743.50 147.88 L 747.15 147.72 L 750.80 136.85 L 754.45 136.67 L 758.10 136.10 L 761.75 135.48 L 765.40 130.54 L 769.05 129.90 L 772.70 121.32 L 776.35 123.58 L 780.00 121.16" class="path-2" />
<path d="M 50.00 122.65 L 53.65 125.54 L 57.30 120.86 L 60.95 122.60 L 64.60 123.98 L 68.25 117.19 L 71.90 119.65 L 75.55 114.45 L 79.20 112.46 L 82.85 113.81 L 86.50 109.00 L 90.15 106.34 L 93.80 96.63 L 97.45 103.35 L 101.10 91.62 L 104.75 98.27 L 108.40 87.85 L 112.05 89.52 L 115.70 89.67 L 119.35 85.23 L 123.00 85.93 L 126.65 92.35 L 130.30 94.15 L 133.95 95.99 L 137.60 96.45 L 141.25 94.11 L 144.90 103.13 L 148.55 111.24 L 152.20 111.50 L 155.85 107.41 L 159.50 111.66 L 163.15 110.24 L 166.80 111.11 L 170.45 115.38 L 174.10 111.87 L 177.75 120.11 L 181.40 116.63 L 185.05 118.63 L 188.70 130.47 L 192.35 139.14 L 196.00 132.04 L 199.65 137.61 L 203.30 133.94 L 206.95 140.54 L 210.60 129.25 L 214.25 128.53 L 217.90 128.09 L 221.55 116.00 L 225.20 117.79 L 228.85 107.54 L 232.50 109.04 L 236.15 91.86 L 239.80 91.55 L 243.45 93.23 L 247.10 95.29 L 250.75 93.20 L 254.40 95.26 L 258.05 97.33 L 261.70 90.47 L 265.35 87.05 L 269.00 92.52 L 272.65 86.96 L 276.30 91.63 L 279.95 83.80 L 283.60 78.98 L 287.25 86.85 L 290.90 88.69 L 294.55 82.53 L 298.20 76.50 L 301.85 76.64 L 305.50 77.69 L 309.15 71.75 L 312.80 77.41 L 316.45 83.92 L 320.10 85.11 L 323.75 93.03 L 327.40 100.82 L 331.05 100.01 L 334.70 95.65 L 338.35 90.93 L 342.00 81.81 L 345.65 88.99 L 349.30 82.87 L 352.95 71.98 L 356.60 75.40 L 360.25 74.89 L 363.90 65.38 L 367.55 71.46 L 371.20 70.96 L 374.85 69.99 L 378.50 68.81 L 382.15 73.31 L 385.80 77.10 L 389.45 77.87 L 393.10 82.00 L 396.75 94.93 L 400.40 87.27 L 404.05 81.67 L 407.70 95.00 L 411.35 94.80 L 415.00 83.95 L 418.65 85.72 L 422.30 83.69 L 425.95 81.18 L 429.60 80.75 L 433.25 78.04 L 436.90 79.78 L 440.55 82.48 L 444.20 93.14 L 447.85 84.42 L 451.50 92.01 L 455.15 107.60 L 458.80 114.62 L 462.45 124.52 L 466.10 113.56 L 469.75 114.93 L 473.40 120.53 L 477.05 120.49 L 480.70 123.32 L 484.35 134.71 L 488.00 130.08 L 491.65 134.33 L 495.30 134.83 L 498.95 130.10 L 502.60 134.64 L 506.25 136.24 L 509.90 144.98 L 513.55 139.47 L 517.20 146.02 L 520.85 137.89 L 524.50 139.20 L 528.15 144.72 L 531.80 147.41 L 535.45 156.90 L 539.10 156.67 L 542.75 156.63 L 546.40 167.55 L 550.05 173.86 L 553.70 167.34 L 557.35 173.86 L 561.00 176.00 L 564.65 178.10 L 568.30 174.17 L 571.95 177.04 L 575.60 168.04 L 579.25 164.34 L 582.90 173.59 L 586.55 177.99 L 590.20 186.13 L 593.85 188.72 L 597.50 190.66 L 601.15 194.80 L 604.80 201.62 L 608.45 197.70 L 612.10 209.28 L 615.75 203.94 L 619.40 209.44 L 623.05 204.38 L 626.70 194.32 L 630.35 203.11 L 634.00 198.27 L 637.65 190.05 L 641.30 195.53 L 644.95 195.46 L 648.60 189.06 L 652.25 183.85 L 655.90 187.78 L 659.55 193.57 L 663.20 200.99 L 666.85 189.41 L 670.50 189.50 L 674.15 188.77 L 677.80 193.27 L 681.45 182.89 L 685.10 170.82 L 688.75 179.31 L 692.40 187.39 L 696.05 183.42 L 699.70 178.77 L 703.35 170.61 L 707.00 171.19 L 710.65 164.44 L 714.30 154.32 L 717.95 153.19 L 721.60 150.27 L 725.25 148.51 L 728.90 149.44 L 732.55 142.02 L 736.20 149.80 L 739.85 145.55 L 743.50 144.97 L 747.15 135.45 L 750.80 133.81 L 754.45 141.03 L 758.10 149.72 L 761.75 150.85 L 765.40 145.49 L 769.05 142.85 L 772.70 143.43 L 776.35 149.44 L 780.00 148.88" class="path-3" />
<path d="M 50.00 122.65 L 53.65 115.76 L 57.30 122.01 L 60.95 123.69 L 64.60 121.86 L 68.25 124.17 L 71.90 127.95 L 75.55 125.65 L 79.20 123.16 L 82.85 122.33 L 86.50 126.68 L 90.15 132.42 L 93.80 144.28 L 97.45 141.46 L 101.10 131.36 L 104.75 136.55 L 108.40 128.54 L 112.05 120.27 L 115.70 121.41 L 119.35 114.60 L 123.00 118.16 L 126.65 118.48 L 130.30 122.16 L 133.95 120.05 L 137.60 121.13 L 141.25 127.36 L 144.90 120.27 L 148.55 124.84 L 152.20 128.31 L 155.85 135.35 L 159.50 143.47 L 163.15 137.98 L 166.80 141.22 L 170.45 147.99 L 174.10 141.22 L 177.75 149.89 L 181.40 159.01 L 185.05 169.30 L 188.70 176.61 L 192.35 169.41 L 196.00 174.52 L 199.65 170.30 L 203.30 171.14 L 206.95 177.28 L 210.60 174.09 L 214.25 177.00 L 217.90 169.24 L 221.55 170.67 L 225.20 172.43 L 228.85 165.96 L 232.50 149.79 L 236.15 149.92 L 239.80 155.43 L 243.45 149.63 L 247.10 153.30 L 250.75 157.23 L 254.40 160.15 L 258.05 154.42 L 261.70 155.53 L 265.35 159.71 L 269.00 156.72 L 272.65 162.56 L 276.30 164.02 L 279.95 156.74 L 283.60 160.32 L 287.25 162.60 L 290.90 157.51 L 294.55 155.55 L 298.20 152.52 L 301.85 149.00 L 305.50 154.96 L 309.15 164.46 L 312.80 171.62 L 316.45 174.00 L 320.10 172.59 L 323.75 177.42 L 327.40 176.36 L 331.05 168.58 L 334.70 174.71 L 338.35 168.47 L 342.00 166.04 L 345.65 171.38 L 349.30 179.08 L 352.95 174.17 L 356.60 176.40 L 360.25 175.30 L 363.90 169.91 L 367.55 169.35 L 371.20 172.96 L 374.85 167.19 L 378.50 168.89 L 382.15 169.64 L 385.80 158.34 L 389.45 157.67 L 393.10 167.06 L 396.75 163.06 L 400.40 150.67 L 404.05 158.86 L 407.70 149.80 L 411.35 147.33 L 415.00 155.14 L 418.65 159.23 L 422.30 170.84 L 425.95 174.28 L 429.60 179.80 L 433.25 185.04 L 436.90 181.14 L 440.55 187.13 L 444.20 193.92 L 447.85 192.04 L 451.50 194.23 L 455.15 192.13 L 458.80 184.55 L 462.45 186.73 L 466.10 184.51 L 469.75 177.50 L 473.40 180.97 L 477.05 178.85 L 480.70 183.52 L 484.35 186.33 L 488.00 177.87 L 491.65 173.02 L 495.30 173.66 L 498.95 172.63 L 502.60 175.44 L 506.25 185.33 L 509.90 181.79 L 513.55 171.51 L 517.20 168.55 L 520.85 169.15 L 524.50 167.95 L 528.15 162.58 L 531.80 163.29 L 535.45 158.68 L 539.10 166.04 L 542.75 167.73 L 546.40 165.22 L 550.05 156.78 L 553.70 151.80 L 557.35 142.06 L 561.00 138.06 L 564.65 135.87 L 568.30 132.05 L 571.95 137.11 L 575.60 127.45 L 579.25 128.81 L 582.90 131.68 L 586.55 130.41 L 590.20 126.64 L 593.85 121.55 L 597.50 121.39 L 601.15 117.42 L 604.80 107.54 L 608.45 109.83 L 612.10 101.62 L 615.75 106.11 L 619.40 107.42 L 623.05 108.34 L 626.70 112.70 L 630.35 112.73 L 634.00 109.25 L 637.65 103.87 L 641.30 100.47 L 644.95 99.16 L 648.60 96.91 L 652.25 90.24 L 655.90 86.40 L 659.55 85.48 L 663.20 90.41 L 666.85 90.93 L 670.50 83.42 L 674.15 87.47 L 677.80 81.88 L 681.45 80.23 L 685.10 74.53 L 688.75 84.57 L 692.40 87.10 L 696.05 82.05 L 699.70 80.17 L 703.35 88.20 L 707.00 86.43 L 710.65 84.87 L 714.30 82.69 L 717.95 78.15 L 721.60 79.32 L 725.25 80.49 L 728.90 90.53 L 732.55 94.34 L 736.20 109.35 L 739.85 110.73 L 743.50 117.18 L 747.15 115.02 L 750.80 113.45 L 754.45 108.58 L 758.10 106.89 L 761.75 97.35 L 765.40 103.99 L 769.05 113.19 L 772.70 115.60 L 776.35 124.17 L 780.00 127.29" class="path-4" />
<line x1="50" y1="122.7" x2="780" y2="122.7" stroke="#4b5563" stroke-width="0.8" stroke-dasharray="6 3" />
</svg>