<svg xmlns="http://www.w3.org/2000/svg" viewBox="0 0 800 300" width="800" height="300">
<style>
.axis-line { stroke: #6b7280; stroke-width: 0.5; }
.axis-text { font-family: monospace; font-size: 11px; fill: #9ca3af; }
.title-text { font-family: monospace; font-size: 14px; fill: #d1d5db; font-weight: bold; }
.grid-line { stroke: #374151; stroke-width: 0.3; stroke-dasharray: 4 2; }
.path-0 { fill: none; stroke: #3b82f6; stroke-width: 2; stroke-linecap: round; opacity: 0.85; animation: draw-0 8s ease-in-out 0.0s infinite; stroke-dasharray: 1037; stroke-dashoffset: 1037;}
@keyframes draw-0 { 0% { stroke-dashoffset: 1037; } 38% { stroke-dashoffset: 0; } 62% { stroke-dashoffset: 0; } 100% { stroke-dashoffset: 1037; }}
.path-1 { fill: none; stroke: #ef4444; stroke-width: 2; stroke-linecap: round; opacity: 0.85; animation: draw-1 8s ease-in-out 0.4s infinite; stroke-dasharray: 988; stroke-dashoffset: 988;}
@keyframes draw-1 { 0% { stroke-dashoffset: 988; } 38% { stroke-dashoffset: 0; } 62% { stroke-dashoffset: 0; } 100% { stroke-dashoffset: 988; }}
.path-2 { fill: none; stroke: #22c55e; stroke-width: 2; stroke-linecap: round; opacity: 0.85; animation: draw-2 8s ease-in-out 0.8s infinite; stroke-dasharray: 1012; stroke-dashoffset: 1012;}
@keyframes draw-2 { 0% { stroke-dashoffset: 1012; } 38% { stroke-dashoffset: 0; } 62% { stroke-dashoffset: 0; } 100% { stroke-dashoffset: 1012; }}
.path-3 { fill: none; stroke: #f59e0b; stroke-width: 2; stroke-linecap: round; opacity: 0.85; animation: draw-3 8s ease-in-out 1.2000000000000002s infinite; stroke-dasharray: 1003; stroke-dashoffset: 1003;}
@keyframes draw-3 { 0% { stroke-dashoffset: 1003; } 38% { stroke-dashoffset: 0; } 62% { stroke-dashoffset: 0; } 100% { stroke-dashoffset: 1003; }}
.path-4 { fill: none; stroke: #a855f7; stroke-width: 2; stroke-linecap: round; opacity: 0.85; animation: draw-4 8s ease-in-out 1.6s infinite; stroke-dasharray: 1011; stroke-dashoffset: 1011;}
@keyframes draw-4 { 0% { stroke-dashoffset: 1011; } 38% { stroke-dashoffset: 0; } 62% { stroke-dashoffset: 0; } 100% { stroke-dashoffset: 1011; }}
</style>
<rect width="800" height="300" rx="8" fill="#0d1117" />
<line x1="50" y1="260.0" x2="780" y2="260.0" class="grid-line" />
<text x="44" y="264.0" text-anchor="end" class="axis-text">-1.6</text>
<line x1="50" y1="216.0" x2="780" y2="216.0" class="grid-line" />
<text x="44" y="220.0" text-anchor="end" class="axis-text">-0.8</text>
<line x1="50" y1="172.0" x2="780" y2="172.0" class="grid-line" />
<text x="44" y="176.0" text-anchor="end" class="axis-text">0.1</text>
<line x1="50" y1="128.0" x2="780" y2="128.0" class="grid-line" />
<text x="44" y="132.0" text-anchor="end" class="axis-text">0.9</text>
<line x1="50" y1="84.0" x2="780" y2="84.0" class="grid-line" />
<text x="44" y="88.0" text-anchor="end" class="axis-text">1.7</text>
<line x1="50" y1="40.0" x2="780" y2="40.0" class="grid-line" />
<text x="44" y="44.0" text-anchor="end" class="axis-text">2.5</text>
<line x1="50.0" y1="40" x2="50.0" y2="260" class="grid-line" />
<line x1="196.0" y1="40" x2="196.0" y2="260" class="grid-line" />
<line x1="342.0" y1="40" x2="342.0" y2="260" class="grid-line" />
<line x1="488.0" y1="40" x2="488.0" y2="260" class="grid-line" />
<line x1="634.0" y1="40" x2="634.0" y2="260" class="grid-line" />
<line x1="780.0" y1="40" x2="780.0" y2="260" class="grid-line" />
<line x1="50" y1="260" x2="780" y2="260" class="axis-line" />
<line x1="50" y1="40" x2="50" y2="260" class="axis-line" />
<text x="400.0" y="295" text-anchor="middle" class="axis-text">t</text>
<text x="12" y="150.0" text-anchor="middle" class="axis-text" transform="rotate(-90 12 150.0)">W(t)</text>
<text x="400.0" y="22" text-anchor="middle" class="title-text">Brownian Motion</text>
<path d="M 50.00 174.95 L 53.65 179.99 L 57.30 174.93 L 60.95 175.57 L 64.60 184.75 L 68.25 187.84 L 71.90 184.83 L 75.55 186.04 L 79.20 173.85 L 82.85 173.89 L 86.50 172.69 L 90.15 181.59 L 93.80 179.13 L 97.45 177.30 L 101.10 178.89 L 104.75 186.92 L 108.40 189.76 L 112.05 189.40 L 115.70 189.56 L 119.35 191.97 L 123.00 192.22 L 126.65 189.34 L 130.30 179.71 L 133.95 171.93 L 137.60 181.15 L 141.25 181.51 L 144.90 182.42 L 148.55 180.98 L 152.20 184.98 L 155.85 186.08 L 159.50 188.75 L 163.15 192.15 L 166.80 189.89 L 170.45 184.32 L 174.10 186.25 L 177.75 186.78 L 181.40 184.98 L 185.05 184.84 L 188.70 185.38 L 192.35 190.07 L 196.00 196.79 L 199.65 195.82 L 203.30 195.71 L 206.95 195.31 L 210.60 196.50 L 214.25 194.72 L 217.90 197.40 L 221.55 191.99 L 225.20 190.01 L 228.85 187.66 L 232.50 187.43 L 236.15 193.06 L 239.80 188.14 L 243.45 183.37 L 247.10 181.67 L 250.75 185.73 L 254.40 186.67 L 258.05 183.80 L 261.70 187.93 L 265.35 187.76 L 269.00 185.20 L 272.65 179.79 L 276.30 179.44 L 279.95 178.32 L 283.60 179.66 L 287.25 185.22 L 290.90 180.27 L 294.55 180.74 L 298.20 185.88 L 301.85 189.55 L 305.50 182.00 L 309.15 181.80 L 312.80 182.75 L 316.45 181.33 L 320.10 177.19 L 323.75 174.06 L 327.40 175.47 L 331.05 173.50 L 334.70 177.17 L 338.35 177.35 L 342.00 177.23 L 345.65 182.45 L 349.30 185.27 L 352.95 184.89 L 356.60 184.19 L 360.25 177.39 L 363.90 172.68 L 367.55 171.99 L 371.20 172.59 L 374.85 174.37 L 378.50 168.93 L 382.15 175.24 L 385.80 172.26 L 389.45 170.43 L 393.10 173.77 L 396.75 172.90 L 400.40 175.82 L 404.05 175.20 L 407.70 179.90 L 411.35 182.53 L 415.00 178.14 L 418.65 177.02 L 422.30 180.28 L 425.95 186.40 L 429.60 181.28 L 433.25 178.44 L 436.90 181.97 L 440.55 186.06 L 444.20 183.24 L 447.85 182.12 L 451.50 183.71 L 455.15 183.04 L 458.80 184.42 L 462.45 186.75 L 466.10 185.42 L 469.75 182.08 L 473.40 187.41 L 477.05 191.31 L 480.70 197.38 L 484.35 203.81 L 488.00 204.05 L 491.65 203.97 L 495.30 207.32 L 498.95 204.10 L 502.60 205.99 L 506.25 199.43 L 509.90 199.38 L 513.55 203.77 L 517.20 200.88 L 520.85 207.34 L 524.50 202.65 L 528.15 204.53 L 531.80 203.01 L 535.45 203.41 L 539.10 200.55 L 542.75 192.83 L 546.40 194.62 L 550.05 190.52 L 553.70 189.08 L 557.35 184.52 L 561.00 181.90 L 564.65 176.67 L 568.30 176.08 L 571.95 179.38 L 575.60 171.50 L 579.25 175.76 L 582.90 176.08 L 586.55 171.41 L 590.20 166.98 L 593.85 166.34 L 597.50 166.21 L 601.15 165.18 L 604.80 170.35 L 608.45 161.81 L 612.10 166.51 L 615.75 173.32 L 619.40 173.45 L 623.05 171.48 L 626.70 174.24 L 630.35 175.09 L 634.00 180.18 L 637.65 184.65 L 641.30 188.73 L 644.95 194.45 L 648.60 198.08 L 652.25 202.61 L 655.90 209.74 L 659.55 216.86 L 663.20 216.26 L 666.85 210.55 L 670.50 207.42 L 674.15 206.32 L 677.80 205.21 L 681.45 202.06 L 685.10 201.77 L 688.75 204.27 L 692.40 205.87 L 696.05 204.66 L 699.70 207.16 L 703.35 205.03 L 707.00 209.61 L 710.65 206.24 L 714.30 213.08 L 717.95 206.11 L 721.60 206.50 L 725.25 204.66 L 728.90 205.85 L 732.55 209.34 L 736.20 213.56 L 739.85 205.29 L 743.50 207.46 L 747.15 206.51 L 750.80 206.72 L 754.45 212.57 L 758.10 209.62 L 761.75 205.90 L 765.40 206.13 L 769.05 201.84 L 772.70 198.25 L 776.35 192.07 L 780.00 186.26" class="path-0" />
<path d="M 50.00 174.95 L 53.65 173.68 L 57.30 174.62 L 60.95 172.03 L 64.60 172.19 L 68.25 169.11 L 71.90 163.05 L 75.55 162.28 L 79.20 158.38 L 82.85 152.32 L 86.50 150.54 L 90.15 148.38 L 93.80 149.23 L 97.45 153.38 L 101.10 153.26 L 104.75 159.70 L 108.40 158.95 L 112.05 163.69 L 115.70 168.38 L 119.35 165.76 L 123.00 167.46 L 126.65 165.44 L 130.30 162.21 L 133.95 164.06 L 137.60 160.87 L 141.25 166.20 L 144.90 164.27 L 148.55 164.43 L 152.20 158.93 L 155.85 153.86 L 159.50 150.05 L 163.15 145.69 L 166.80 145.29 L 170.45 141.98 L 174.10 145.69 L 177.75 149.93 L 181.40 145.92 L 185.05 142.04 L 188.70 145.15 L 192.35 149.89 L 196.00 150.23 L 199.65 150.47 L 203.30 148.63 L 206.95 145.61 L 210.60 146.52 L 214.25 145.91 L 217.90 147.63 L 221.55 140.85 L 225.20 146.34 L 228.85 144.37 L 232.50 145.24 L 236.15 141.24 L 239.80 144.71 L 243.45 145.12 L 247.10 145.16 L 250.75 140.05 L 254.40 139.34 L 258.05 145.26 L 261.70 144.12 L 265.35 138.75 L 269.00 134.27 L 272.65 138.15 L 276.30 135.04 L 279.95 132.83 L 283.60 133.18 L 287.25 130.39 L 290.90 134.93 L 294.55 134.81 L 298.20 138.63 L 301.85 135.97 L 305.50 127.58 L 309.15 123.81 L 312.80 121.63 L 316.45 117.36 L 320.10 112.55 L 323.75 114.14 L 327.40 116.45 L 331.05 118.62 L 334.70 116.69 L 338.35 120.16 L 342.00 115.90 L 345.65 114.17 L 349.30 117.46 L 352.95 120.97 L 356.60 122.41 L 360.25 120.46 L 363.90 121.54 L 367.55 125.72 L 371.20 129.91 L 374.85 127.97 L 378.50 127.17 L 382.15 124.76 L 385.80 116.47 L 389.45 119.99 L 393.10 115.62 L 396.75 114.52 L 400.40 114.20 L 404.05 109.18 L 407.70 113.90 L 411.35 114.73 L 415.00 108.55 L 418.65 106.37 L 422.30 105.81 L 425.95 108.09 L 429.60 108.40 L 433.25 109.88 L 436.90 104.02 L 440.55 102.02 L 444.20 107.58 L 447.85 111.06 L 451.50 105.80 L 455.15 104.10 L 458.80 99.90 L 462.45 97.49 L 466.10 92.94 L 469.75 90.60 L 473.40 92.29 L 477.05 89.62 L 480.70 89.81 L 484.35 90.48 L 488.00 91.17 L 491.65 89.57 L 495.30 87.87 L 498.95 89.82 L 502.60 94.55 L 506.25 94.00 L 509.90 89.82 L 513.55 87.13 L 517.20 86.55 L 520.85 84.31 L 524.50 79.50 L 528.15 81.79 L 531.80 78.55 L 535.45 76.19 L 539.10 79.60 L 542.75 78.22 L 546.40 73.08 L 550.05 73.42 L 553.70 73.95 L 557.35 76.03 L 561.00 77.65 L 564.65 83.19 L 568.30 89.98 L 571.95 91.53 L 575.60 91.90 L 579.25 88.61 L 582.90 83.31 L 586.55 80.94 L 590.20 79.18 L 593.85 80.62 L 597.50 78.48 L 601.15 73.87 L 604.80 69.84 L 608.45 68.83 L 612.10 66.57 L 615.75 70.90 L 619.40 68.70 L 623.05 65.42 L 626.70 67.38 L 630.35 69.76 L 634.00 75.44 L 637.65 81.09 L 641.30 85.64 L 644.95 89.92 L 648.60 88.55 L 652.25 90.99 L 655.90 83.64 L 659.55 85.17 L 663.20 85.99 L 666.85 84.08 L 670.50 91.43 L 674.15 87.41 L 677.80 87.06 L 681.45 86.67 L 685.10 88.40 L 688.75 87.67 L 692.40 86.89 L 696.05 89.79 L 699.70 90.74 L 703.35 93.65 L 707.00 100.91 L 710.65 104.34 L 714.30 109.37 L 717.95 103.63 L 721.60 102.78 L 725.25 95.31 L 728.90 95.52 L 732.55 94.08 L 736.20 95.37 L 739.85 96.49 L 743.50 88.76 L 747.15 87.50 L 750.80 88.10 L 754.45 86.10 L 758.10 86.48 L 761.75 82.88 L 765.40 81.17 L 769.05 82.44 L 772.70 76.16 L 776.35 71.43 L 780.00 65.38" class="path-1" />
<path d="M 50.00 174.95 L 53.65 179.79 L 57.30 179.12 L 60.95 182.09 L 64.60 183.20 L 68.25 186.48 L 71.90 187.53 L 75.55 191.17 L 79.20 193.71 L 82.85 194.12 L 86.50 200.63 L 90.15 211.20 L 93.80 204.00 L 97.45 206.23 L 101.10 198.58 L 104.75 200.36 L 108.40 200.88 L 112.05 195.77 L 115.70 194.18 L 119.35 196.32 L 123.00 203.96 L 126.65 198.81 L 130.30 196.38 L 133.95 200.04 L 137.60 201.29 L 141.25 199.33 L 144.90 202.76 L 148.55 202.60 L 152.20 206.38 L 155.85 208.54 L 159.50 205.95 L 163.15 210.56 L 166.80 207.05 L 170.45 205.78 L 174.10 202.30 L 177.75 204.01 L 181.40 208.85 L 185.05 213.35 L 188.70 212.86 L 192.35 215.22 L 196.00 208.25 L 199.65 213.98 L 203.30 206.52 L 206.95 207.78 L 210.60 205.95 L 214.25 205.39 L 217.90 208.36 L 221.55 213.92 L 225.20 213.16 L 228.85 209.62 L 232.50 209.05 L 236.15 210.58 L 239.80 213.13 L 243.45 211.15 L 247.10 210.94 L 250.75 210.58 L 254.40 216.51 L 258.05 214.19 L 261.70 214.21 L 265.35 214.18 L 269.00 217.20 L 272.65 218.42 L 276.30 215.19 L 279.95 212.42 L 283.60 210.07 L 287.25 207.68 L 290.90 206.66 L 294.55 205.90 L 298.20 204.69 L 301.85 205.49 L 305.50 209.90 L 309.15 206.75 L 312.80 205.84 L 316.45 199.77 L 320.10 197.55 L 323.75 194.53 L 327.40 189.06 L 331.05 186.55 L 334.70 187.58 L 338.35 189.98 L 342.00 187.98 L 345.65 183.22 L 349.30 186.35 L 352.95 188.27 L 356.60 189.22 L 360.25 190.14 L 363.90 181.15 L 367.55 183.59 L 371.20 186.45 L 374.85 185.90 L 378.50 185.23 L 382.15 183.52 L 385.80 179.39 L 389.45 177.72 L 393.10 173.45 L 396.75 167.78 L 400.40 165.66 L 404.05 164.49 L 407.70 167.86 L 411.35 171.28 L 415.00 169.14 L 418.65 165.82 L 422.30 164.11 L 425.95 164.28 L 429.60 167.02 L 433.25 171.76 L 436.90 178.19 L 440.55 169.19 L 444.20 170.66 L 447.85 169.22 L 451.50 165.91 L 455.15 161.18 L 458.80 164.09 L 462.45 164.51 L 466.10 169.46 L 469.75 166.54 L 473.40 168.39 L 477.05 169.74 L 480.70 170.86 L 484.35 172.00 L 488.00 165.22 L 491.65 163.87 L 495.30 165.69 L 498.95 168.67 L 502.60 167.66 L 506.25 174.70 L 509.90 172.39 L 513.55 175.24 L 517.20 173.58 L 520.85 168.38 L 524.50 170.46 L 528.15 172.54 L 531.80 174.08 L 535.45 172.82 L 539.10 173.95 L 542.75 173.71 L 546.40 176.98 L 550.05 175.24 L 553.70 177.05 L 557.35 188.66 L 561.00 195.53 L 564.65 191.69 L 568.30 191.21 L 571.95 189.39 L 575.60 190.27 L 579.25 193.91 L 582.90 193.44 L 586.55 198.07 L 590.20 200.51 L 593.85 203.70 L 597.50 206.14 L 601.15 207.10 L 604.80 202.67 L 608.45 205.78 L 612.10 204.11 L 615.75 208.09 L 619.40 211.68 L 623.05 209.28 L 626.70 217.42 L 630.35 221.60 L 634.00 226.27 L 637.65 226.17 L 641.30 227.92 L 644.95 228.63 L 648.60 226.95 L 652.25 233.14 L 655.90 234.62 L 659.55 230.80 L 663.20 231.02 L 666.85 233.48 L 670.50 229.85 L 674.15 226.34 L 677.80 222.84 L 681.45 217.35 L 685.10 218.31 L 688.75 213.75 L 692.40 213.18 L 696.05 211.91 L 699.70 212.57 L 703.35 208.68 L 707.00 217.19 L 710.65 211.68 L 714.30 213.29 L 717.95 221.90 L 721.60 217.80 L 725.25 222.21 L 728.90 222.30 L 732.55 222.46 L 736.20 226.88 L 739.85 227.34 L 743.50 215.21 L 747.15 225.91 L 750.80 227.61 L 754.45 225.91 L 758.10 226.94 L 761.75 225.78 L 765.40 219.74 L 769.05 218.98 L 772.70 222.96 L 776.35 224.00 L 780.00 229.46" class="path-2" />
<path d="M 50.00 174.95 L 53.65 170.50 L 57.30 171.08 L 60.95 164.98 L 64.60 171.50 L 68.25 166.15 L 71.90 164.39 L 75.55 163.54 L 79.20 164.78 L 82.85 165.08 L 86.50 162.62 L 90.15 167.55 L 93.80 164.74 L 97.45 160.44 L 101.10 159.91 L 104.75 158.56 L 108.40 156.09 L 112.05 160.94 L 115.70 153.82 L 119.35 149.57 L 123.00 149.00 L 126.65 154.26 L 130.30 153.31 L 133.95 153.05 L 137.60 153.85 L 141.25 154.82 L 144.90 163.37 L 148.55 156.53 L 152.20 156.92 L 155.85 157.92 L 159.50 163.49 L 163.15 167.84 L 166.80 170.74 L 170.45 168.20 L 174.10 165.56 L 177.75 162.71 L 181.40 165.93 L 185.05 166.22 L 188.70 167.50 L 192.35 167.59 L 196.00 167.08 L 199.65 169.88 L 203.30 176.59 L 206.95 180.23 L 210.60 177.29 L 214.25 173.13 L 217.90 172.71 L 221.55 177.71 L 225.20 177.65 L 228.85 175.22 L 232.50 182.94 L 236.15 176.91 L 239.80 175.03 L 243.45 172.09 L 247.10 170.09 L 250.75 171.74 L 254.40 171.49 L 258.05 172.35 L 261.70 175.16 L 265.35 171.51 L 269.00 172.88 L 272.65 174.09 L 276.30 170.15 L 279.95 179.85 L 283.60 183.45 L 287.25 176.22 L 290.90 177.62 L 294.55 174.72 L 298.20 174.85 L 301.85 182.46 L 305.50 184.77 L 309.15 187.60 L 312.80 188.73 L 316.45 192.47 L 320.10 186.67 L 323.75 183.82 L 327.40 180.29 L 331.05 177.68 L 334.70 176.49 L 338.35 177.38 L 342.00 176.95 L 345.65 183.06 L 349.30 178.78 L 352.95 180.05 L 356.60 177.02 L 360.25 174.61 L 363.90 176.16 L 367.55 181.02 L 371.20 175.90 L 374.85 172.80 L 378.50 173.76 L 382.15 172.59 L 385.80 171.86 L 389.45 168.86 L 393.10 167.26 L 396.75 172.72 L 400.40 174.95 L 404.05 175.81 L 407.70 169.79 L 411.35 162.46 L 415.00 161.38 L 418.65 159.44 L 422.30 158.94 L 425.95 163.04 L 429.60 164.03 L 433.25 168.06 L 436.90 165.15 L 440.55 159.99 L 444.20 163.03 L 447.85 155.40 L 451.50 150.02 L 455.15 149.09 L 458.80 153.79 L 462.45 154.26 L 466.10 155.32 L 469.75 157.26 L 473.40 160.71 L 477.05 156.92 L 480.70 153.29 L 484.35 149.89 L 488.00 145.43 L 491.65 146.72 L 495.30 139.47 L 498.95 140.33 L 502.60 135.97 L 506.25 129.74 L 509.90 132.54 L 513.55 134.67 L 517.20 131.49 L 520.85 125.00 L 524.50 131.12 L 528.15 131.05 L 531.80 127.06 L 535.45 122.82 L 539.10 123.87 L 542.75 125.05 L 546.40 123.81 L 550.05 121.67 L 553.70 123.26 L 557.35 120.43 L 561.00 124.81 L 564.65 127.12 L 568.30 124.92 L 571.95 121.31 L 575.60 124.42 L 579.25 119.75 L 582.90 114.53 L 586.55 120.73 L 590.20 127.08 L 593.85 126.58 L 597.50 124.62 L 601.15 124.84 L 604.80 124.51 L 608.45 117.23 L 612.10 116.21 L 615.75 115.57 L 619.40 111.63 L 623.05 119.04 L 626.70 118.93 L 630.35 119.23 L 634.00 117.92 L 637.65 120.33 L 641.30 121.97 L 644.95 121.04 L 648.60 121.33 L 652.25 122.53 L 655.90 121.01 L 659.55 126.57 L 663.20 132.28 L 666.85 137.14 L 670.50 138.97 L 674.15 142.17 L 677.80 142.91 L 681.45 145.47 L 685.10 150.24 L 688.75 152.13 L 692.40 150.83 L 696.05 149.82 L 699.70 141.77 L 703.35 140.77 L 707.00 144.21 L 710.65 143.76 L 714.30 143.63 L 717.95 142.96 L 721.60 143.20 L 725.25 143.10 L 728.90 141.04 L 732.55 144.37 L 736.20 146.42 L 739.85 145.72 L 743.50 141.63 L 747.15 136.54 L 750.80 135.65 L 754.45 135.55 L 758.10 129.74 L 761.75 135.54 L 765.40 131.40 L 769.05 133.33 L 772.70 131.75 L 776.35 136.08 L 780.00 139.83" class="path-3" />
<path d="M 50.00 174.95 L 53.65 178.95 L 57.30 179.41 L 60.95 183.73 L 64.60 187.07 L 68.25 187.28 L 71.90 190.55 L 75.55 183.56 L 79.20 188.70 L 82.85 188.70 L 86.50 190.91 L 90.15 195.63 L 93.80 189.61 L 97.45 192.11 L 101.10 191.13 L 104.75 200.48 L 108.40 198.77 L 112.05 194.45 L 115.70 190.53 L 119.35 184.86 L 123.00 183.28 L 126.65 183.74 L 130.30 182.93 L 133.95 182.43 L 137.60 177.64 L 141.25 174.25 L 144.90 177.26 L 148.55 176.47 L 152.20 176.82 L 155.85 177.64 L 159.50 175.46 L 163.15 179.54 L 166.80 178.84 L 170.45 180.82 L 174.10 181.61 L 177.75 188.56 L 181.40 190.69 L 185.05 187.87 L 188.70 191.83 L 192.35 189.38 L 196.00 182.64 L 199.65 182.71 L 203.30 182.71 L 206.95 181.47 L 210.60 182.17 L 214.25 188.34 L 217.90 189.57 L 221.55 187.89 L 225.20 186.36 L 228.85 184.97 L 232.50 185.09 L 236.15 184.25 L 239.80 184.48 L 243.45 190.58 L 247.10 199.88 L 250.75 195.41 L 254.40 196.91 L 258.05 198.52 L 261.70 197.14 L 265.35 193.69 L 269.00 196.76 L 272.65 199.21 L 276.30 198.34 L 279.95 193.11 L 283.60 190.58 L 287.25 181.97 L 290.90 181.25 L 294.55 183.44 L 298.20 185.06 L 301.85 181.86 L 305.50 178.27 L 309.15 182.12 L 312.80 186.92 L 316.45 184.58 L 320.10 178.91 L 323.75 181.63 L 327.40 187.04 L 331.05 191.20 L 334.70 190.67 L 338.35 184.54 L 342.00 187.68 L 345.65 182.64 L 349.30 179.98 L 352.95 173.80 L 356.60 174.98 L 360.25 173.88 L 363.90 170.74 L 367.55 170.56 L 371.20 167.02 L 374.85 163.08 L 378.50 164.84 L 382.15 166.93 L 385.80 170.46 L 389.45 173.98 L 393.10 177.85 L 396.75 183.04 L 400.40 188.21 L 404.05 183.83 L 407.70 181.19 L 411.35 180.07 L 415.00 182.99 L 418.65 187.06 L 422.30 184.41 L 425.95 189.56 L 429.60 188.21 L 433.25 186.88 L 436.90 187.73 L 440.55 189.94 L 444.20 189.72 L 447.85 190.87 L 451.50 192.31 L 455.15 188.09 L 458.80 186.90 L 462.45 190.55 L 466.10 193.30 L 469.75 193.61 L 473.40 195.78 L 477.05 193.58 L 480.70 193.04 L 484.35 196.81 L 488.00 202.55 L 491.65 209.12 L 495.30 205.40 L 498.95 202.60 L 502.60 198.08 L 506.25 196.65 L 509.90 195.10 L 513.55 191.01 L 517.20 188.47 L 520.85 184.04 L 524.50 180.91 L 528.15 179.47 L 531.80 184.83 L 535.45 181.23 L 539.10 176.53 L 542.75 179.48 L 546.40 181.34 L 550.05 183.90 L 553.70 179.92 L 557.35 185.49 L 561.00 179.89 L 564.65 180.96 L 568.30 183.36 L 571.95 178.89 L 575.60 176.96 L 579.25 176.70 L 582.90 176.48 L 586.55 179.07 L 590.20 172.27 L 593.85 168.17 L 597.50 174.88 L 601.15 174.85 L 604.80 171.38 L 608.45 176.89 L 612.10 172.62 L 615.75 172.80 L 619.40 169.70 L 623.05 167.31 L 626.70 173.65 L 630.35 162.26 L 634.00 158.77 L 637.65 159.30 L 641.30 157.87 L 644.95 167.89 L 648.60 165.92 L 652.25 166.50 L 655.90 164.32 L 659.55 172.01 L 663.20 165.82 L 666.85 158.43 L 670.50 163.62 L 674.15 162.21 L 677.80 157.15 L 681.45 155.99 L 685.10 151.92 L 688.75 150.60 L 692.40 151.15 L 696.05 153.61 L 699.70 152.41 L 703.35 154.70 L 707.00 155.11 L 710.65 156.99 L 714.30 155.37 L 717.95 158.50 L 721.60 155.95 L 725.25 157.37 L 728.90 159.60 L 732.55 157.06 L 736.20 159.41 L 739.85 160.70 L 743.50 162.88 L 747.15 158.14 L 750.80 162.29 L 754.45 162.30 L 758.10 164.74 L 761.75 167.25 L 765.40 166.69 L 769.05 169.85 L 772.70 175.23 L 776.35 173.92 L 780.00 165.18" class="path-4" />
<line x1="50" y1="174.9" x2="780" y2="174.9" stroke="#4b5563" stroke-width="0.8" stroke-dasharray="6 3" />
</svg>