<svg xmlns="http://www.w3.org/2000/svg" viewBox="0 0 800 300" width="800" height="300">
<style>
.axis-line { stroke: #6b7280; stroke-width: 0.5; }
.axis-text { font-family: monospace; font-size: 11px; fill: #9ca3af; }
.title-text { font-family: monospace; font-size: 14px; fill: #d1d5db; font-weight: bold; }
.grid-line { stroke: #374151; stroke-width: 0.3; stroke-dasharray: 4 2; }
.path-0 { fill: none; stroke: #3b82f6; stroke-width: 2; stroke-linecap: round; opacity: 0.85; animation: draw-0 8s ease-in-out 0.0s infinite; stroke-dasharray: 946; stroke-dashoffset: 946;}
@keyframes draw-0 { 0% { stroke-dashoffset: 946; } 38% { stroke-dashoffset: 0; } 62% { stroke-dashoffset: 0; } 100% { stroke-dashoffset: 946; }}
.path-1 { fill: none; stroke: #ef4444; stroke-width: 2; stroke-linecap: round; opacity: 0.85; animation: draw-1 8s ease-in-out 0.4s infinite; stroke-dasharray: 956; stroke-dashoffset: 956;}
@keyframes draw-1 { 0% { stroke-dashoffset: 956; } 38% { stroke-dashoffset: 0; } 62% { stroke-dashoffset: 0; } 100% { stroke-dashoffset: 956; }}
.path-2 { fill: none; stroke: #22c55e; stroke-width: 2; stroke-linecap: round; opacity: 0.85; animation: draw-2 8s ease-in-out 0.8s infinite; stroke-dasharray: 936; stroke-dashoffset: 936;}
@keyframes draw-2 { 0% { stroke-dashoffset: 936; } 38% { stroke-dashoffset: 0; } 62% { stroke-dashoffset: 0; } 100% { stroke-dashoffset: 936; }}
.path-3 { fill: none; stroke: #f59e0b; stroke-width: 2; stroke-linecap: round; opacity: 0.85; animation: draw-3 8s ease-in-out 1.2000000000000002s infinite; stroke-dasharray: 965; stroke-dashoffset: 965;}
@keyframes draw-3 { 0% { stroke-dashoffset: 965; } 38% { stroke-dashoffset: 0; } 62% { stroke-dashoffset: 0; } 100% { stroke-dashoffset: 965; }}
.path-4 { fill: none; stroke: #a855f7; stroke-width: 2; stroke-linecap: round; opacity: 0.85; animation: draw-4 8s ease-in-out 1.6s infinite; stroke-dasharray: 928; stroke-dashoffset: 928;}
@keyframes draw-4 { 0% { stroke-dashoffset: 928; } 38% { stroke-dashoffset: 0; } 62% { stroke-dashoffset: 0; } 100% { stroke-dashoffset: 928; }}
</style>
<rect width="800" height="300" rx="8" fill="#0d1117" />
<line x1="50" y1="260.0" x2="780" y2="260.0" class="grid-line" />
<text x="44" y="264.0" text-anchor="end" class="axis-text">-3.2</text>
<line x1="50" y1="216.0" x2="780" y2="216.0" class="grid-line" />
<text x="44" y="220.0" text-anchor="end" class="axis-text">-2.2</text>
<line x1="50" y1="172.0" x2="780" y2="172.0" class="grid-line" />
<text x="44" y="176.0" text-anchor="end" class="axis-text">-1.2</text>
<line x1="50" y1="128.0" x2="780" y2="128.0" class="grid-line" />
<text x="44" y="132.0" text-anchor="end" class="axis-text">-0.2</text>
<line x1="50" y1="84.0" x2="780" y2="84.0" class="grid-line" />
<text x="44" y="88.0" text-anchor="end" class="axis-text">0.9</text>
<line x1="50" y1="40.0" x2="780" y2="40.0" class="grid-line" />
<text x="44" y="44.0" text-anchor="end" class="axis-text">1.9</text>
<line x1="50.0" y1="40" x2="50.0" y2="260" class="grid-line" />
<line x1="196.0" y1="40" x2="196.0" y2="260" class="grid-line" />
<line x1="342.0" y1="40" x2="342.0" y2="260" class="grid-line" />
<line x1="488.0" y1="40" x2="488.0" y2="260" class="grid-line" />
<line x1="634.0" y1="40" x2="634.0" y2="260" class="grid-line" />
<line x1="780.0" y1="40" x2="780.0" y2="260" class="grid-line" />
<line x1="50" y1="260" x2="780" y2="260" class="axis-line" />
<line x1="50" y1="40" x2="50" y2="260" class="axis-line" />
<text x="400.0" y="295" text-anchor="middle" class="axis-text">t</text>
<text x="12" y="150.0" text-anchor="middle" class="axis-text" transform="rotate(-90 12 150.0)">W(t)</text>
<text x="400.0" y="22" text-anchor="middle" class="title-text">Brownian Motion</text>
<path d="M 50.00 121.49 L 53.65 118.47 L 57.30 117.93 L 60.95 115.58 L 64.60 113.56 L 68.25 107.47 L 71.90 103.40 L 75.55 101.67 L 79.20 97.67 L 82.85 96.98 L 86.50 94.26 L 90.15 97.17 L 93.80 96.29 L 97.45 100.44 L 101.10 99.90 L 104.75 97.90 L 108.40 97.63 L 112.05 98.74 L 115.70 101.19 L 119.35 100.31 L 123.00 101.14 L 126.65 97.32 L 130.30 98.14 L 133.95 99.21 L 137.60 105.13 L 141.25 105.21 L 144.90 104.91 L 148.55 102.90 L 152.20 102.75 L 155.85 102.47 L 159.50 100.85 L 163.15 103.32 L 166.80 106.54 L 170.45 104.24 L 174.10 109.85 L 177.75 103.53 L 181.40 104.92 L 185.05 105.44 L 188.70 106.39 L 192.35 101.88 L 196.00 105.10 L 199.65 99.31 L 203.30 92.98 L 206.95 93.57 L 210.60 90.57 L 214.25 87.21 L 217.90 87.01 L 221.55 89.66 L 225.20 87.91 L 228.85 89.79 L 232.50 85.05 L 236.15 85.17 L 239.80 85.26 L 243.45 85.84 L 247.10 86.31 L 250.75 87.04 L 254.40 91.57 L 258.05 92.62 L 261.70 89.53 L 265.35 87.80 L 269.00 88.02 L 272.65 85.82 L 276.30 88.18 L 279.95 83.90 L 283.60 80.66 L 287.25 84.28 L 290.90 80.38 L 294.55 80.52 L 298.20 75.00 L 301.85 79.57 L 305.50 84.14 L 309.15 83.24 L 312.80 82.13 L 316.45 82.63 L 320.10 83.75 L 323.75 88.56 L 327.40 86.88 L 331.05 89.16 L 334.70 91.69 L 338.35 94.48 L 342.00 97.19 L 345.65 94.42 L 349.30 97.10 L 352.95 97.37 L 356.60 95.79 L 360.25 94.12 L 363.90 91.94 L 367.55 89.66 L 371.20 89.00 L 374.85 87.95 L 378.50 85.15 L 382.15 85.11 L 385.80 90.14 L 389.45 89.92 L 393.10 90.95 L 396.75 89.27 L 400.40 94.44 L 404.05 94.37 L 407.70 95.28 L 411.35 98.14 L 415.00 99.87 L 418.65 100.13 L 422.30 109.50 L 425.95 107.62 L 429.60 105.18 L 433.25 104.98 L 436.90 111.06 L 440.55 108.61 L 444.20 107.56 L 447.85 106.90 L 451.50 104.15 L 455.15 105.09 L 458.80 108.16 L 462.45 110.17 L 466.10 112.15 L 469.75 108.23 L 473.40 109.96 L 477.05 105.21 L 480.70 101.65 L 484.35 100.97 L 488.00 106.63 L 491.65 112.03 L 495.30 113.68 L 498.95 108.86 L 502.60 116.28 L 506.25 115.07 L 509.90 121.33 L 513.55 125.19 L 517.20 120.14 L 520.85 124.41 L 524.50 132.07 L 528.15 131.03 L 531.80 127.35 L 535.45 126.84 L 539.10 123.42 L 542.75 125.91 L 546.40 124.59 L 550.05 130.12 L 553.70 131.00 L 557.35 129.22 L 561.00 131.75 L 564.65 137.38 L 568.30 139.83 L 571.95 145.74 L 575.60 147.41 L 579.25 150.26 L 582.90 151.69 L 586.55 148.19 L 590.20 153.99 L 593.85 157.15 L 597.50 158.22 L 601.15 159.63 L 604.80 163.57 L 608.45 161.17 L 612.10 160.84 L 615.75 155.82 L 619.40 153.98 L 623.05 148.93 L 626.70 154.77 L 630.35 152.89 L 634.00 150.09 L 637.65 152.74 L 641.30 150.02 L 644.95 151.42 L 648.60 149.93 L 652.25 152.57 L 655.90 156.79 L 659.55 159.06 L 663.20 159.21 L 666.85 160.03 L 670.50 162.12 L 674.15 161.82 L 677.80 163.94 L 681.45 162.53 L 685.10 167.36 L 688.75 166.86 L 692.40 163.06 L 696.05 160.75 L 699.70 163.79 L 703.35 165.08 L 707.00 168.97 L 710.65 166.27 L 714.30 165.06 L 717.95 161.09 L 721.60 162.17 L 725.25 162.09 L 728.90 159.05 L 732.55 154.98 L 736.20 152.90 L 739.85 149.84 L 743.50 155.57 L 747.15 158.58 L 750.80 164.49 L 754.45 163.82 L 758.10 165.12 L 761.75 165.71 L 765.40 161.70 L 769.05 164.28 L 772.70 166.75 L 776.35 162.18 L 780.00 161.91" class="path-0" />
<path d="M 50.00 121.49 L 53.65 120.08 L 57.30 120.17 L 60.95 124.97 L 64.60 129.06 L 68.25 125.27 L 71.90 121.81 L 75.55 119.49 L 79.20 124.23 L 82.85 119.31 L 86.50 123.77 L 90.15 127.61 L 93.80 126.25 L 97.45 129.12 L 101.10 130.06 L 104.75 131.62 L 108.40 131.55 L 112.05 132.58 L 115.70 135.12 L 119.35 137.69 L 123.00 136.45 L 126.65 137.25 L 130.30 131.09 L 133.95 135.65 L 137.60 137.87 L 141.25 135.87 L 144.90 137.07 L 148.55 135.05 L 152.20 135.01 L 155.85 134.41 L 159.50 132.82 L 163.15 126.01 L 166.80 124.87 L 170.45 120.82 L 174.10 117.89 L 177.75 113.89 L 181.40 115.50 L 185.05 115.60 L 188.70 117.17 L 192.35 120.11 L 196.00 118.42 L 199.65 116.23 L 203.30 117.80 L 206.95 116.26 L 210.60 118.75 L 214.25 120.32 L 217.90 120.80 L 221.55 118.73 L 225.20 119.65 L 228.85 120.28 L 232.50 121.68 L 236.15 123.48 L 239.80 119.19 L 243.45 117.47 L 247.10 115.83 L 250.75 120.96 L 254.40 119.93 L 258.05 117.23 L 261.70 114.79 L 265.35 112.59 L 269.00 110.13 L 272.65 111.28 L 276.30 112.26 L 279.95 115.48 L 283.60 114.45 L 287.25 111.18 L 290.90 111.80 L 294.55 107.48 L 298.20 105.98 L 301.85 105.58 L 305.50 107.34 L 309.15 100.84 L 312.80 96.86 L 316.45 93.86 L 320.10 94.61 L 323.75 96.58 L 327.40 88.38 L 331.05 87.45 L 334.70 86.30 L 338.35 86.20 L 342.00 83.15 L 345.65 85.63 L 349.30 85.37 L 352.95 93.14 L 356.60 93.25 L 360.25 96.59 L 363.90 99.20 L 367.55 103.39 L 371.20 100.84 L 374.85 95.65 L 378.50 103.43 L 382.15 104.90 L 385.80 101.33 L 389.45 110.04 L 393.10 107.75 L 396.75 111.35 L 400.40 105.37 L 404.05 104.52 L 407.70 95.02 L 411.35 86.60 L 415.00 81.05 L 418.65 86.79 L 422.30 85.24 L 425.95 82.16 L 429.60 80.67 L 433.25 80.13 L 436.90 82.23 L 440.55 80.80 L 444.20 79.30 L 447.85 84.37 L 451.50 81.96 L 455.15 78.86 L 458.80 71.90 L 462.45 68.16 L 466.10 70.11 L 469.75 65.94 L 473.40 65.38 L 477.05 70.75 L 480.70 74.74 L 484.35 76.48 L 488.00 73.68 L 491.65 71.78 L 495.30 74.84 L 498.95 72.46 L 502.60 73.80 L 506.25 71.17 L 509.90 72.68 L 513.55 75.68 L 517.20 74.80 L 520.85 75.49 L 524.50 75.17 L 528.15 77.17 L 531.80 77.61 L 535.45 75.39 L 539.10 76.87 L 542.75 75.43 L 546.40 75.59 L 550.05 73.29 L 553.70 73.94 L 557.35 78.99 L 561.00 79.66 L 564.65 83.18 L 568.30 80.12 L 571.95 79.74 L 575.60 79.06 L 579.25 81.18 L 582.90 90.30 L 586.55 89.25 L 590.20 87.03 L 593.85 80.56 L 597.50 78.34 L 601.15 77.12 L 604.80 81.14 L 608.45 82.00 L 612.10 81.41 L 615.75 77.01 L 619.40 78.63 L 623.05 78.84 L 626.70 80.82 L 630.35 77.55 L 634.00 74.73 L 637.65 78.08 L 641.30 73.40 L 644.95 73.54 L 648.60 78.75 L 652.25 81.27 L 655.90 84.40 L 659.55 82.46 L 663.20 86.74 L 666.85 79.84 L 670.50 81.82 L 674.15 82.46 L 677.80 85.45 L 681.45 87.81 L 685.10 90.11 L 688.75 92.83 L 692.40 93.41 L 696.05 97.04 L 699.70 95.14 L 703.35 96.37 L 707.00 94.96 L 710.65 96.20 L 714.30 97.55 L 717.95 94.55 L 721.60 95.62 L 725.25 102.59 L 728.90 98.89 L 732.55 96.23 L 736.20 94.66 L 739.85 90.93 L 743.50 89.89 L 747.15 93.61 L 750.80 91.52 L 754.45 95.74 L 758.10 90.75 L 761.75 91.53 L 765.40 89.66 L 769.05 93.30 L 772.70 97.29 L 776.35 98.07 L 780.00 100.68" class="path-1" />
<path d="M 50.00 121.49 L 53.65 124.75 L 57.30 121.30 L 60.95 121.11 L 64.60 124.60 L 68.25 130.06 L 71.90 130.28 L 75.55 125.60 L 79.20 120.79 L 82.85 117.25 L 86.50 116.26 L 90.15 116.25 L 93.80 115.17 L 97.45 108.46 L 101.10 108.07 L 104.75 111.90 L 108.40 112.30 L 112.05 108.68 L 115.70 114.97 L 119.35 114.48 L 123.00 112.08 L 126.65 107.95 L 130.30 109.90 L 133.95 106.26 L 137.60 103.38 L 141.25 101.65 L 144.90 100.69 L 148.55 100.00 L 152.20 98.59 L 155.85 100.62 L 159.50 104.59 L 163.15 104.55 L 166.80 100.57 L 170.45 97.53 L 174.10 92.83 L 177.75 91.51 L 181.40 87.69 L 185.05 85.47 L 188.70 83.04 L 192.35 82.86 L 196.00 84.26 L 199.65 82.33 L 203.30 82.08 L 206.95 86.23 L 210.60 89.75 L 214.25 98.06 L 217.90 101.10 L 221.55 101.10 L 225.20 101.02 L 228.85 103.54 L 232.50 102.71 L 236.15 109.65 L 239.80 108.66 L 243.45 110.80 L 247.10 114.07 L 250.75 117.93 L 254.40 115.05 L 258.05 119.70 L 261.70 118.90 L 265.35 119.69 L 269.00 123.36 L 272.65 119.87 L 276.30 121.94 L 279.95 125.06 L 283.60 122.98 L 287.25 119.77 L 290.90 120.04 L 294.55 118.50 L 298.20 116.68 L 301.85 120.42 L 305.50 122.03 L 309.15 117.61 L 312.80 119.11 L 316.45 118.18 L 320.10 123.99 L 323.75 122.23 L 327.40 121.33 L 331.05 115.42 L 334.70 115.59 L 338.35 118.16 L 342.00 117.25 L 345.65 113.37 L 349.30 104.93 L 352.95 104.24 L 356.60 103.28 L 360.25 104.11 L 363.90 103.55 L 367.55 108.59 L 371.20 109.50 L 374.85 106.96 L 378.50 104.45 L 382.15 104.01 L 385.80 101.40 L 389.45 105.37 L 393.10 106.74 L 396.75 111.06 L 400.40 106.47 L 404.05 108.57 L 407.70 108.39 L 411.35 113.95 L 415.00 110.83 L 418.65 111.58 L 422.30 112.45 L 425.95 110.93 L 429.60 108.90 L 433.25 104.83 L 436.90 106.27 L 440.55 109.80 L 444.20 109.63 L 447.85 108.03 L 451.50 111.67 L 455.15 112.16 L 458.80 117.35 L 462.45 121.47 L 466.10 121.55 L 469.75 124.55 L 473.40 121.14 L 477.05 119.16 L 480.70 120.59 L 484.35 117.66 L 488.00 121.86 L 491.65 126.66 L 495.30 126.18 L 498.95 128.08 L 502.60 129.84 L 506.25 130.49 L 509.90 129.95 L 513.55 130.02 L 517.20 132.74 L 520.85 137.02 L 524.50 134.82 L 528.15 136.49 L 531.80 131.10 L 535.45 127.87 L 539.10 127.76 L 542.75 129.55 L 546.40 129.53 L 550.05 131.76 L 553.70 127.96 L 557.35 136.06 L 561.00 139.02 L 564.65 140.29 L 568.30 136.95 L 571.95 133.65 L 575.60 128.02 L 579.25 129.15 L 582.90 127.70 L 586.55 124.52 L 590.20 126.22 L 593.85 123.67 L 597.50 122.48 L 601.15 120.74 L 604.80 122.75 L 608.45 126.47 L 612.10 131.10 L 615.75 129.37 L 619.40 132.84 L 623.05 134.58 L 626.70 136.80 L 630.35 141.93 L 634.00 141.81 L 637.65 139.78 L 641.30 134.93 L 644.95 136.10 L 648.60 134.95 L 652.25 134.69 L 655.90 131.64 L 659.55 131.11 L 663.20 131.22 L 666.85 132.25 L 670.50 130.84 L 674.15 133.03 L 677.80 130.63 L 681.45 127.63 L 685.10 126.89 L 688.75 134.71 L 692.40 136.97 L 696.05 141.04 L 699.70 142.84 L 703.35 143.21 L 707.00 141.60 L 710.65 139.07 L 714.30 139.16 L 717.95 141.06 L 721.60 145.10 L 725.25 146.49 L 728.90 143.47 L 732.55 144.27 L 736.20 147.98 L 739.85 148.39 L 743.50 147.15 L 747.15 150.21 L 750.80 147.77 L 754.45 150.89 L 758.10 150.16 L 761.75 152.03 L 765.40 156.88 L 769.05 152.52 L 772.70 155.29 L 776.35 158.54 L 780.00 160.90" class="path-2" />
<path d="M 50.00 121.49 L 53.65 120.00 L 57.30 120.88 L 60.95 127.63 L 64.60 130.10 L 68.25 129.53 L 71.90 128.01 L 75.55 128.31 L 79.20 130.89 L 82.85 134.38 L 86.50 133.91 L 90.15 137.37 L 93.80 135.76 L 97.45 137.72 L 101.10 142.88 L 104.75 139.51 L 108.40 137.65 L 112.05 140.30 L 115.70 138.76 L 119.35 143.06 L 123.00 139.41 L 126.65 139.89 L 130.30 142.55 L 133.95 143.07 L 137.60 141.13 L 141.25 144.21 L 144.90 145.09 L 148.55 142.50 L 152.20 142.57 L 155.85 137.83 L 159.50 141.46 L 163.15 138.60 L 166.80 144.00 L 170.45 146.62 L 174.10 151.14 L 177.75 150.36 L 181.40 150.35 L 185.05 149.46 L 188.70 145.74 L 192.35 148.69 L 196.00 148.40 L 199.65 141.24 L 203.30 139.81 L 206.95 136.81 L 210.60 137.03 L 214.25 141.25 L 217.90 139.65 L 221.55 136.09 L 225.20 136.19 L 228.85 133.60 L 232.50 135.79 L 236.15 138.20 L 239.80 136.59 L 243.45 135.90 L 247.10 141.56 L 250.75 141.61 L 254.40 146.61 L 258.05 146.22 L 261.70 148.90 L 265.35 147.60 L 269.00 146.95 L 272.65 144.46 L 276.30 146.36 L 279.95 140.13 L 283.60 139.77 L 287.25 138.07 L 290.90 141.31 L 294.55 137.04 L 298.20 137.98 L 301.85 135.13 L 305.50 136.34 L 309.15 137.95 L 312.80 137.24 L 316.45 137.60 L 320.10 135.87 L 323.75 130.04 L 327.40 134.25 L 331.05 133.18 L 334.70 135.73 L 338.35 138.11 L 342.00 139.27 L 345.65 144.51 L 349.30 139.10 L 352.95 136.48 L 356.60 134.92 L 360.25 135.42 L 363.90 131.61 L 367.55 128.25 L 371.20 133.96 L 374.85 134.92 L 378.50 133.70 L 382.15 129.59 L 385.80 131.89 L 389.45 133.05 L 393.10 128.92 L 396.75 137.08 L 400.40 137.93 L 404.05 141.12 L 407.70 139.65 L 411.35 138.95 L 415.00 131.67 L 418.65 123.81 L 422.30 122.53 L 425.95 125.77 L 429.60 125.62 L 433.25 126.16 L 436.90 124.42 L 440.55 131.09 L 444.20 128.67 L 447.85 127.67 L 451.50 130.34 L 455.15 131.62 L 458.80 135.28 L 462.45 138.29 L 466.10 134.53 L 469.75 136.30 L 473.40 135.69 L 477.05 130.72 L 480.70 129.31 L 484.35 128.54 L 488.00 134.86 L 491.65 133.75 L 495.30 135.85 L 498.95 140.21 L 502.60 143.59 L 506.25 145.42 L 509.90 147.91 L 513.55 146.83 L 517.20 147.23 L 520.85 141.59 L 524.50 147.19 L 528.15 144.16 L 531.80 144.17 L 535.45 141.57 L 539.10 137.72 L 542.75 142.93 L 546.40 141.95 L 550.05 138.11 L 553.70 137.02 L 557.35 136.29 L 561.00 138.53 L 564.65 142.63 L 568.30 140.08 L 571.95 139.52 L 575.60 139.24 L 579.25 135.81 L 582.90 140.17 L 586.55 139.72 L 590.20 142.66 L 593.85 147.73 L 597.50 145.62 L 601.15 150.11 L 604.80 160.09 L 608.45 152.19 L 612.10 150.81 L 615.75 152.75 L 619.40 155.39 L 623.05 145.94 L 626.70 140.41 L 630.35 140.78 L 634.00 143.45 L 637.65 135.78 L 641.30 136.41 L 644.95 132.64 L 648.60 132.85 L 652.25 132.15 L 655.90 136.78 L 659.55 136.71 L 663.20 129.86 L 666.85 134.23 L 670.50 130.27 L 674.15 135.05 L 677.80 133.47 L 681.45 130.05 L 685.10 134.15 L 688.75 134.74 L 692.40 131.20 L 696.05 129.18 L 699.70 135.05 L 703.35 138.04 L 707.00 136.44 L 710.65 135.77 L 714.30 133.15 L 717.95 132.94 L 721.60 135.91 L 725.25 136.70 L 728.90 138.07 L 732.55 136.31 L 736.20 137.49 L 739.85 136.82 L 743.50 137.34 L 747.15 139.17 L 750.80 143.50 L 754.45 145.79 L 758.10 144.66 L 761.75 150.42 L 765.40 145.33 L 769.05 145.90 L 772.70 147.36 L 776.35 151.23 L 780.00 152.31" class="path-3" />
<path d="M 50.00 121.49 L 53.65 118.76 L 57.30 122.24 L 60.95 118.51 L 64.60 116.00 L 68.25 122.45 L 71.90 122.03 L 75.55 125.00 L 79.20 124.68 L 82.85 123.36 L 86.50 128.13 L 90.15 127.17 L 93.80 133.96 L 97.45 130.16 L 101.10 130.46 L 104.75 133.24 L 108.40 131.78 L 112.05 127.17 L 115.70 129.11 L 119.35 127.62 L 123.00 127.47 L 126.65 127.37 L 130.30 129.77 L 133.95 131.76 L 137.60 135.80 L 141.25 136.02 L 144.90 137.75 L 148.55 135.42 L 152.20 139.23 L 155.85 145.50 L 159.50 145.45 L 163.15 143.55 L 166.80 145.91 L 170.45 142.33 L 174.10 144.14 L 177.75 144.08 L 181.40 139.33 L 185.05 142.45 L 188.70 136.96 L 192.35 133.14 L 196.00 135.42 L 199.65 135.54 L 203.30 131.09 L 206.95 134.49 L 210.60 138.37 L 214.25 140.45 L 217.90 143.70 L 221.55 145.46 L 225.20 143.76 L 228.85 139.62 L 232.50 134.91 L 236.15 137.26 L 239.80 143.46 L 243.45 140.25 L 247.10 143.41 L 250.75 145.81 L 254.40 146.79 L 258.05 148.91 L 261.70 145.13 L 265.35 141.90 L 269.00 143.81 L 272.65 140.96 L 276.30 140.00 L 279.95 145.19 L 283.60 142.98 L 287.25 140.66 L 290.90 141.29 L 294.55 142.85 L 298.20 149.44 L 301.85 150.20 L 305.50 148.54 L 309.15 149.43 L 312.80 151.56 L 316.45 153.23 L 320.10 153.78 L 323.75 155.98 L 327.40 153.29 L 331.05 153.18 L 334.70 151.20 L 338.35 150.20 L 342.00 151.38 L 345.65 152.45 L 349.30 150.28 L 352.95 149.70 L 356.60 149.23 L 360.25 144.77 L 363.90 148.20 L 367.55 148.91 L 371.20 148.55 L 374.85 149.33 L 378.50 150.80 L 382.15 153.08 L 385.80 150.99 L 389.45 153.05 L 393.10 152.30 L 396.75 153.89 L 400.40 149.82 L 404.05 153.09 L 407.70 155.23 L 411.35 160.37 L 415.00 157.88 L 418.65 154.98 L 422.30 157.74 L 425.95 154.34 L 429.60 154.28 L 433.25 156.77 L 436.90 156.98 L 440.55 154.85 L 444.20 154.54 L 447.85 159.54 L 451.50 160.05 L 455.15 159.21 L 458.80 160.14 L 462.45 161.70 L 466.10 166.77 L 469.75 169.29 L 473.40 168.02 L 477.05 167.48 L 480.70 170.81 L 484.35 170.52 L 488.00 169.70 L 491.65 165.97 L 495.30 164.73 L 498.95 164.95 L 502.60 158.17 L 506.25 165.61 L 509.90 164.76 L 513.55 164.52 L 517.20 171.32 L 520.85 171.56 L 524.50 175.48 L 528.15 171.68 L 531.80 169.85 L 535.45 165.42 L 539.10 163.69 L 542.75 165.37 L 546.40 167.26 L 550.05 169.24 L 553.70 166.37 L 557.35 170.03 L 561.00 169.58 L 564.65 172.54 L 568.30 169.13 L 571.95 168.93 L 575.60 163.01 L 579.25 161.85 L 582.90 156.36 L 586.55 159.19 L 590.20 163.86 L 593.85 165.02 L 597.50 170.47 L 601.15 169.03 L 604.80 167.63 L 608.45 171.25 L 612.10 170.84 L 615.75 173.77 L 619.40 175.65 L 623.05 172.57 L 626.70 174.13 L 630.35 175.42 L 634.00 175.59 L 637.65 174.58 L 641.30 179.38 L 644.95 181.65 L 648.60 185.54 L 652.25 190.24 L 655.90 189.02 L 659.55 192.87 L 663.20 197.40 L 666.85 198.56 L 670.50 201.80 L 674.15 202.79 L 677.80 201.13 L 681.45 200.95 L 685.10 200.72 L 688.75 197.19 L 692.40 196.34 L 696.05 202.19 L 699.70 205.69 L 703.35 209.48 L 707.00 211.70 L 710.65 213.37 L 714.30 212.68 L 717.95 212.06 L 721.60 211.52 L 725.25 209.30 L 728.90 207.42 L 732.55 209.60 L 736.20 210.72 L 739.85 216.21 L 743.50 217.80 L 747.15 218.07 L 750.80 217.25 L 754.45 219.82 L 758.10 225.18 L 761.75 228.32 L 765.40 234.10 L 769.05 234.62 L 772.70 233.50 L 776.35 229.35 L 780.00 229.11" class="path-4" />
<line x1="50" y1="121.5" x2="780" y2="121.5" stroke="#4b5563" stroke-width="0.8" stroke-dasharray="6 3" />
</svg>