<svg xmlns="http://www.w3.org/2000/svg" viewBox="0 0 800 300" width="800" height="300">
<style>
.axis-line { stroke: #6b7280; stroke-width: 0.5; }
.axis-text { font-family: monospace; font-size: 11px; fill: #9ca3af; }
.title-text { font-family: monospace; font-size: 14px; fill: #d1d5db; font-weight: bold; }
.grid-line { stroke: #374151; stroke-width: 0.3; stroke-dasharray: 4 2; }
.path-0 { fill: none; stroke: #3b82f6; stroke-width: 2; stroke-linecap: round; opacity: 0.85; animation: draw-0 8s ease-in-out 0.0s infinite; stroke-dasharray: 917; stroke-dashoffset: 917;}
@keyframes draw-0 { 0% { stroke-dashoffset: 917; } 38% { stroke-dashoffset: 0; } 62% { stroke-dashoffset: 0; } 100% { stroke-dashoffset: 917; }}
.path-1 { fill: none; stroke: #ef4444; stroke-width: 2; stroke-linecap: round; opacity: 0.85; animation: draw-1 8s ease-in-out 0.4s infinite; stroke-dasharray: 912; stroke-dashoffset: 912;}
@keyframes draw-1 { 0% { stroke-dashoffset: 912; } 38% { stroke-dashoffset: 0; } 62% { stroke-dashoffset: 0; } 100% { stroke-dashoffset: 912; }}
.path-2 { fill: none; stroke: #22c55e; stroke-width: 2; stroke-linecap: round; opacity: 0.85; animation: draw-2 8s ease-in-out 0.8s infinite; stroke-dasharray: 937; stroke-dashoffset: 937;}
@keyframes draw-2 { 0% { stroke-dashoffset: 937; } 38% { stroke-dashoffset: 0; } 62% { stroke-dashoffset: 0; } 100% { stroke-dashoffset: 937; }}
.path-3 { fill: none; stroke: #f59e0b; stroke-width: 2; stroke-linecap: round; opacity: 0.85; animation: draw-3 8s ease-in-out 1.2000000000000002s infinite; stroke-dasharray: 932; stroke-dashoffset: 932;}
@keyframes draw-3 { 0% { stroke-dashoffset: 932; } 38% { stroke-dashoffset: 0; } 62% { stroke-dashoffset: 0; } 100% { stroke-dashoffset: 932; }}
.path-4 { fill: none; stroke: #a855f7; stroke-width: 2; stroke-linecap: round; opacity: 0.85; animation: draw-4 8s ease-in-out 1.6s infinite; stroke-dasharray: 922; stroke-dashoffset: 922;}
@keyframes draw-4 { 0% { stroke-dashoffset: 922; } 38% { stroke-dashoffset: 0; } 62% { stroke-dashoffset: 0; } 100% { stroke-dashoffset: 922; }}
</style>
<rect width="800" height="300" rx="8" fill="#0d1117" />
<line x1="50" y1="260.0" x2="780" y2="260.0" class="grid-line" />
<text x="44" y="264.0" text-anchor="end" class="axis-text">-2.2</text>
<line x1="50" y1="216.0" x2="780" y2="216.0" class="grid-line" />
<text x="44" y="220.0" text-anchor="end" class="axis-text">-1.1</text>
<line x1="50" y1="172.0" x2="780" y2="172.0" class="grid-line" />
<text x="44" y="176.0" text-anchor="end" class="axis-text">-0.1</text>
<line x1="50" y1="128.0" x2="780" y2="128.0" class="grid-line" />
<text x="44" y="132.0" text-anchor="end" class="axis-text">1.0</text>
<line x1="50" y1="84.0" x2="780" y2="84.0" class="grid-line" />
<text x="44" y="88.0" text-anchor="end" class="axis-text">2.0</text>
<line x1="50" y1="40.0" x2="780" y2="40.0" class="grid-line" />
<text x="44" y="44.0" text-anchor="end" class="axis-text">3.1</text>
<line x1="50.0" y1="40" x2="50.0" y2="260" class="grid-line" />
<line x1="196.0" y1="40" x2="196.0" y2="260" class="grid-line" />
<line x1="342.0" y1="40" x2="342.0" y2="260" class="grid-line" />
<line x1="488.0" y1="40" x2="488.0" y2="260" class="grid-line" />
<line x1="634.0" y1="40" x2="634.0" y2="260" class="grid-line" />
<line x1="780.0" y1="40" x2="780.0" y2="260" class="grid-line" />
<line x1="50" y1="260" x2="780" y2="260" class="axis-line" />
<line x1="50" y1="40" x2="50" y2="260" class="axis-line" />
<text x="400.0" y="295" text-anchor="middle" class="axis-text">t</text>
<text x="12" y="150.0" text-anchor="middle" class="axis-text" transform="rotate(-90 12 150.0)">W(t)</text>
<text x="400.0" y="22" text-anchor="middle" class="title-text">Brownian Motion</text>
<path d="M 50.00 168.36 L 53.65 169.40 L 57.30 165.29 L 60.95 169.40 L 64.60 166.68 L 68.25 168.77 L 71.90 168.27 L 75.55 167.21 L 79.20 164.74 L 82.85 163.43 L 86.50 163.33 L 90.15 165.28 L 93.80 168.27 L 97.45 163.54 L 101.10 165.05 L 104.75 167.95 L 108.40 167.28 L 112.05 169.40 L 115.70 172.03 L 119.35 167.31 L 123.00 166.68 L 126.65 166.01 L 130.30 177.56 L 133.95 174.73 L 137.60 173.51 L 141.25 177.64 L 144.90 175.51 L 148.55 173.68 L 152.20 174.94 L 155.85 172.09 L 159.50 173.04 L 163.15 174.03 L 166.80 174.34 L 170.45 175.61 L 174.10 174.60 L 177.75 172.95 L 181.40 171.32 L 185.05 175.02 L 188.70 177.14 L 192.35 176.94 L 196.00 177.37 L 199.65 172.93 L 203.30 171.96 L 206.95 175.53 L 210.60 175.97 L 214.25 173.66 L 217.90 175.76 L 221.55 178.12 L 225.20 175.77 L 228.85 175.26 L 232.50 172.52 L 236.15 170.89 L 239.80 171.10 L 243.45 171.65 L 247.10 171.20 L 250.75 170.51 L 254.40 164.24 L 258.05 162.29 L 261.70 167.71 L 265.35 164.11 L 269.00 163.52 L 272.65 167.38 L 276.30 170.77 L 279.95 171.22 L 283.60 174.58 L 287.25 175.16 L 290.90 175.63 L 294.55 178.93 L 298.20 176.18 L 301.85 179.78 L 305.50 175.76 L 309.15 174.98 L 312.80 174.17 L 316.45 175.26 L 320.10 167.92 L 323.75 165.50 L 327.40 166.00 L 331.05 171.19 L 334.70 169.02 L 338.35 169.24 L 342.00 170.78 L 345.65 165.07 L 349.30 161.41 L 352.95 158.40 L 356.60 153.25 L 360.25 157.99 L 363.90 158.87 L 367.55 158.70 L 371.20 155.09 L 374.85 157.22 L 378.50 159.10 L 382.15 158.51 L 385.80 153.82 L 389.45 152.43 L 393.10 152.77 L 396.75 151.22 L 400.40 151.54 L 404.05 151.59 L 407.70 153.99 L 411.35 155.78 L 415.00 157.08 L 418.65 155.72 L 422.30 157.18 L 425.95 155.35 L 429.60 155.49 L 433.25 153.46 L 436.90 158.39 L 440.55 157.98 L 444.20 158.06 L 447.85 165.06 L 451.50 167.75 L 455.15 166.11 L 458.80 165.79 L 462.45 168.54 L 466.10 168.16 L 469.75 170.31 L 473.40 170.56 L 477.05 170.97 L 480.70 169.85 L 484.35 169.66 L 488.00 166.86 L 491.65 169.15 L 495.30 171.71 L 498.95 164.94 L 502.60 163.93 L 506.25 166.82 L 509.90 167.25 L 513.55 166.08 L 517.20 161.53 L 520.85 162.55 L 524.50 161.16 L 528.15 161.11 L 531.80 161.23 L 535.45 161.28 L 539.10 162.26 L 542.75 161.78 L 546.40 169.25 L 550.05 168.88 L 553.70 174.64 L 557.35 171.28 L 561.00 170.54 L 564.65 176.66 L 568.30 181.01 L 571.95 186.94 L 575.60 187.32 L 579.25 182.98 L 582.90 178.71 L 586.55 178.41 L 590.20 180.10 L 593.85 180.54 L 597.50 178.04 L 601.15 175.80 L 604.80 179.93 L 608.45 181.82 L 612.10 186.38 L 615.75 190.19 L 619.40 193.35 L 623.05 191.73 L 626.70 195.16 L 630.35 193.52 L 634.00 189.34 L 637.65 189.44 L 641.30 186.49 L 644.95 188.63 L 648.60 191.84 L 652.25 188.26 L 655.90 191.78 L 659.55 190.10 L 663.20 192.62 L 666.85 191.75 L 670.50 187.38 L 674.15 185.50 L 677.80 184.00 L 681.45 182.65 L 685.10 179.96 L 688.75 178.53 L 692.40 175.57 L 696.05 172.61 L 699.70 174.66 L 703.35 169.42 L 707.00 172.57 L 710.65 174.45 L 714.30 175.24 L 717.95 170.89 L 721.60 174.56 L 725.25 169.60 L 728.90 168.23 L 732.55 169.37 L 736.20 165.67 L 739.85 170.84 L 743.50 170.79 L 747.15 173.17 L 750.80 175.32 L 754.45 175.45 L 758.10 175.18 L 761.75 174.74 L 765.40 174.21 L 769.05 171.07 L 772.70 170.23 L 776.35 174.97 L 780.00 171.87" class="path-0" />
<path d="M 50.00 168.36 L 53.65 168.40 L 57.30 171.05 L 60.95 173.93 L 64.60 175.36 L 68.25 170.66 L 71.90 171.40 L 75.55 172.88 L 79.20 174.60 L 82.85 181.49 L 86.50 180.23 L 90.15 177.95 L 93.80 183.98 L 97.45 192.75 L 101.10 190.46 L 104.75 189.52 L 108.40 187.80 L 112.05 187.83 L 115.70 181.39 L 119.35 184.06 L 123.00 185.63 L 126.65 185.41 L 130.30 186.52 L 133.95 189.55 L 137.60 194.61 L 141.25 192.33 L 144.90 192.63 L 148.55 196.97 L 152.20 198.86 L 155.85 198.19 L 159.50 202.13 L 163.15 202.24 L 166.80 206.56 L 170.45 202.22 L 174.10 204.99 L 177.75 208.06 L 181.40 206.36 L 185.05 209.57 L 188.70 208.33 L 192.35 213.66 L 196.00 208.64 L 199.65 205.34 L 203.30 211.21 L 206.95 206.07 L 210.60 207.04 L 214.25 205.07 L 217.90 204.40 L 221.55 203.82 L 225.20 200.67 L 228.85 201.31 L 232.50 202.22 L 236.15 201.92 L 239.80 201.42 L 243.45 202.22 L 247.10 200.24 L 250.75 201.88 L 254.40 202.76 L 258.05 200.84 L 261.70 201.68 L 265.35 206.00 L 269.00 209.49 L 272.65 209.23 L 276.30 208.42 L 279.95 210.92 L 283.60 210.39 L 287.25 210.36 L 290.90 207.93 L 294.55 209.11 L 298.20 211.57 L 301.85 206.88 L 305.50 208.28 L 309.15 205.23 L 312.80 202.92 L 316.45 201.51 L 320.10 202.32 L 323.75 205.56 L 327.40 202.30 L 331.05 203.36 L 334.70 203.00 L 338.35 201.10 L 342.00 200.64 L 345.65 201.84 L 349.30 201.31 L 352.95 201.61 L 356.60 202.14 L 360.25 203.85 L 363.90 203.39 L 367.55 203.55 L 371.20 206.71 L 374.85 208.48 L 378.50 201.08 L 382.15 199.62 L 385.80 200.48 L 389.45 203.00 L 393.10 196.82 L 396.75 198.76 L 400.40 201.84 L 404.05 202.24 L 407.70 197.83 L 411.35 198.11 L 415.00 202.65 L 418.65 200.38 L 422.30 205.00 L 425.95 205.14 L 429.60 206.51 L 433.25 206.70 L 436.90 209.49 L 440.55 211.16 L 444.20 207.81 L 447.85 206.28 L 451.50 202.31 L 455.15 203.74 L 458.80 200.33 L 462.45 201.68 L 466.10 199.77 L 469.75 200.93 L 473.40 202.88 L 477.05 200.12 L 480.70 199.19 L 484.35 198.13 L 488.00 198.07 L 491.65 200.25 L 495.30 197.87 L 498.95 196.21 L 502.60 196.50 L 506.25 203.32 L 509.90 204.54 L 513.55 210.42 L 517.20 209.80 L 520.85 210.28 L 524.50 213.62 L 528.15 210.65 L 531.80 214.06 L 535.45 206.06 L 539.10 201.67 L 542.75 203.93 L 546.40 204.11 L 550.05 204.06 L 553.70 202.09 L 557.35 202.68 L 561.00 206.08 L 564.65 207.44 L 568.30 215.09 L 571.95 216.07 L 575.60 218.09 L 579.25 217.55 L 582.90 217.34 L 586.55 216.72 L 590.20 217.42 L 593.85 218.15 L 597.50 216.85 L 601.15 217.56 L 604.80 213.84 L 608.45 212.69 L 612.10 216.09 L 615.75 212.69 L 619.40 215.63 L 623.05 217.13 L 626.70 215.16 L 630.35 215.43 L 634.00 218.24 L 637.65 219.58 L 641.30 219.01 L 644.95 222.20 L 648.60 227.83 L 652.25 230.17 L 655.90 228.26 L 659.55 226.40 L 663.20 225.80 L 666.85 228.55 L 670.50 231.98 L 674.15 234.62 L 677.80 231.81 L 681.45 230.40 L 685.10 228.12 L 688.75 225.69 L 692.40 220.52 L 696.05 224.19 L 699.70 222.15 L 703.35 225.73 L 707.00 223.21 L 710.65 219.33 L 714.30 216.91 L 717.95 214.27 L 721.60 211.77 L 725.25 211.24 L 728.90 215.07 L 732.55 219.54 L 736.20 219.49 L 739.85 218.45 L 743.50 217.82 L 747.15 215.94 L 750.80 214.30 L 754.45 215.66 L 758.10 217.21 L 761.75 216.10 L 765.40 221.63 L 769.05 226.15 L 772.70 225.34 L 776.35 223.87 L 780.00 221.26" class="path-1" />
<path d="M 50.00 168.36 L 53.65 167.51 L 57.30 166.92 L 60.95 163.73 L 64.60 161.22 L 68.25 164.03 L 71.90 160.85 L 75.55 158.03 L 79.20 151.98 L 82.85 151.96 L 86.50 149.05 L 90.15 153.35 L 93.80 153.37 L 97.45 156.73 L 101.10 157.94 L 104.75 155.35 L 108.40 156.77 L 112.05 155.17 L 115.70 154.66 L 119.35 150.25 L 123.00 148.17 L 126.65 143.26 L 130.30 146.58 L 133.95 142.19 L 137.60 141.68 L 141.25 139.67 L 144.90 138.88 L 148.55 142.18 L 152.20 144.35 L 155.85 138.02 L 159.50 134.81 L 163.15 131.49 L 166.80 129.70 L 170.45 123.88 L 174.10 128.53 L 177.75 126.47 L 181.40 123.58 L 185.05 129.09 L 188.70 131.47 L 192.35 126.79 L 196.00 127.83 L 199.65 129.46 L 203.30 127.24 L 206.95 125.99 L 210.60 120.25 L 214.25 117.41 L 217.90 118.81 L 221.55 119.44 L 225.20 114.68 L 228.85 113.60 L 232.50 110.76 L 236.15 111.64 L 239.80 113.76 L 243.45 114.90 L 247.10 116.92 L 250.75 121.48 L 254.40 122.08 L 258.05 118.38 L 261.70 117.08 L 265.35 116.48 L 269.00 113.90 L 272.65 108.62 L 276.30 108.06 L 279.95 107.50 L 283.60 106.91 L 287.25 110.86 L 290.90 108.99 L 294.55 109.50 L 298.20 111.91 L 301.85 115.30 L 305.50 114.85 L 309.15 111.62 L 312.80 107.42 L 316.45 110.24 L 320.10 104.62 L 323.75 105.17 L 327.40 106.00 L 331.05 106.48 L 334.70 106.00 L 338.35 105.61 L 342.00 109.56 L 345.65 108.51 L 349.30 111.49 L 352.95 113.36 L 356.60 118.83 L 360.25 118.49 L 363.90 114.33 L 367.55 111.86 L 371.20 113.16 L 374.85 115.78 L 378.50 116.56 L 382.15 114.85 L 385.80 115.16 L 389.45 113.89 L 393.10 115.11 L 396.75 112.91 L 400.40 114.19 L 404.05 117.92 L 407.70 116.28 L 411.35 112.31 L 415.00 113.78 L 418.65 114.59 L 422.30 116.02 L 425.95 123.43 L 429.60 119.48 L 433.25 117.21 L 436.90 111.58 L 440.55 109.74 L 444.20 111.99 L 447.85 107.76 L 451.50 107.78 L 455.15 108.31 L 458.80 113.38 L 462.45 119.34 L 466.10 119.49 L 469.75 117.56 L 473.40 119.74 L 477.05 117.91 L 480.70 117.83 L 484.35 117.49 L 488.00 117.55 L 491.65 119.20 L 495.30 112.26 L 498.95 110.17 L 502.60 105.47 L 506.25 106.14 L 509.90 106.16 L 513.55 103.82 L 517.20 103.47 L 520.85 100.56 L 524.50 103.60 L 528.15 108.60 L 531.80 108.92 L 535.45 103.27 L 539.10 101.83 L 542.75 103.40 L 546.40 102.26 L 550.05 99.07 L 553.70 98.41 L 557.35 95.69 L 561.00 96.23 L 564.65 101.06 L 568.30 97.21 L 571.95 96.53 L 575.60 92.72 L 579.25 92.44 L 582.90 92.43 L 586.55 96.24 L 590.20 93.08 L 593.85 87.34 L 597.50 83.57 L 601.15 84.05 L 604.80 84.15 L 608.45 81.19 L 612.10 84.22 L 615.75 83.46 L 619.40 80.69 L 623.05 81.21 L 626.70 80.29 L 630.35 76.54 L 634.00 71.86 L 637.65 67.26 L 641.30 65.47 L 644.95 67.13 L 648.60 68.35 L 652.25 67.07 L 655.90 65.49 L 659.55 65.38 L 663.20 71.20 L 666.85 70.17 L 670.50 70.38 L 674.15 70.79 L 677.80 69.71 L 681.45 76.16 L 685.10 75.05 L 688.75 77.04 L 692.40 86.82 L 696.05 82.63 L 699.70 78.46 L 703.35 80.52 L 707.00 83.75 L 710.65 88.30 L 714.30 89.39 L 717.95 90.12 L 721.60 83.51 L 725.25 86.84 L 728.90 91.44 L 732.55 95.89 L 736.20 98.01 L 739.85 96.02 L 743.50 98.96 L 747.15 94.52 L 750.80 94.20 L 754.45 92.96 L 758.10 87.39 L 761.75 86.81 L 765.40 88.78 L 769.05 90.57 L 772.70 92.20 L 776.35 88.72 L 780.00 89.81" class="path-2" />
<path d="M 50.00 168.36 L 53.65 168.69 L 57.30 171.97 L 60.95 171.79 L 64.60 170.71 L 68.25 170.31 L 71.90 170.49 L 75.55 172.54 L 79.20 175.16 L 82.85 176.35 L 86.50 177.52 L 90.15 180.09 L 93.80 176.62 L 97.45 177.23 L 101.10 171.19 L 104.75 176.07 L 108.40 178.75 L 112.05 171.84 L 115.70 171.39 L 119.35 173.37 L 123.00 178.74 L 126.65 179.61 L 130.30 184.13 L 133.95 182.64 L 137.60 178.72 L 141.25 185.61 L 144.90 192.09 L 148.55 189.37 L 152.20 183.35 L 155.85 183.42 L 159.50 183.32 L 163.15 176.32 L 166.80 178.30 L 170.45 176.93 L 174.10 176.45 L 177.75 178.22 L 181.40 178.26 L 185.05 178.93 L 188.70 180.64 L 192.35 176.51 L 196.00 177.33 L 199.65 172.13 L 203.30 176.86 L 206.95 173.28 L 210.60 173.96 L 214.25 173.92 L 217.90 177.52 L 221.55 182.46 L 225.20 181.33 L 228.85 177.79 L 232.50 176.05 L 236.15 176.04 L 239.80 173.85 L 243.45 173.73 L 247.10 174.24 L 250.75 178.65 L 254.40 175.98 L 258.05 178.14 L 261.70 177.60 L 265.35 172.56 L 269.00 169.98 L 272.65 171.30 L 276.30 167.28 L 279.95 165.91 L 283.60 166.26 L 287.25 165.51 L 290.90 167.69 L 294.55 169.54 L 298.20 171.05 L 301.85 167.29 L 305.50 173.69 L 309.15 170.30 L 312.80 171.88 L 316.45 169.32 L 320.10 166.43 L 323.75 165.20 L 327.40 162.68 L 331.05 160.37 L 334.70 157.53 L 338.35 154.01 L 342.00 158.49 L 345.65 156.50 L 349.30 155.59 L 352.95 153.78 L 356.60 153.65 L 360.25 151.23 L 363.90 150.40 L 367.55 155.25 L 371.20 155.77 L 374.85 155.79 L 378.50 150.00 L 382.15 148.68 L 385.80 149.91 L 389.45 147.37 L 393.10 148.64 L 396.75 145.46 L 400.40 140.55 L 404.05 143.73 L 407.70 138.77 L 411.35 139.94 L 415.00 142.84 L 418.65 143.63 L 422.30 141.80 L 425.95 133.62 L 429.60 135.23 L 433.25 138.38 L 436.90 139.72 L 440.55 139.27 L 444.20 136.86 L 447.85 131.99 L 451.50 137.37 L 455.15 136.75 L 458.80 137.63 L 462.45 137.65 L 466.10 136.98 L 469.75 137.61 L 473.40 137.45 L 477.05 135.91 L 480.70 136.87 L 484.35 135.19 L 488.00 130.97 L 491.65 128.88 L 495.30 130.38 L 498.95 127.48 L 502.60 126.38 L 506.25 125.68 L 509.90 129.42 L 513.55 131.37 L 517.20 135.31 L 520.85 133.67 L 524.50 139.61 L 528.15 139.50 L 531.80 136.03 L 535.45 133.73 L 539.10 130.08 L 542.75 131.27 L 546.40 132.99 L 550.05 129.33 L 553.70 129.38 L 557.35 135.62 L 561.00 134.71 L 564.65 132.44 L 568.30 128.76 L 571.95 126.13 L 575.60 124.18 L 579.25 121.51 L 582.90 126.23 L 586.55 128.73 L 590.20 131.64 L 593.85 129.66 L 597.50 129.73 L 601.15 126.79 L 604.80 125.62 L 608.45 126.57 L 612.10 121.08 L 615.75 119.62 L 619.40 123.94 L 623.05 126.09 L 626.70 123.04 L 630.35 125.39 L 634.00 127.80 L 637.65 124.08 L 641.30 121.62 L 644.95 120.32 L 648.60 119.13 L 652.25 118.48 L 655.90 115.05 L 659.55 112.40 L 663.20 111.57 L 666.85 110.85 L 670.50 105.97 L 674.15 110.52 L 677.80 105.97 L 681.45 100.62 L 685.10 101.93 L 688.75 101.03 L 692.40 104.83 L 696.05 108.91 L 699.70 109.75 L 703.35 108.50 L 707.00 111.09 L 710.65 107.77 L 714.30 103.53 L 717.95 102.86 L 721.60 98.25 L 725.25 95.85 L 728.90 98.29 L 732.55 98.27 L 736.20 99.53 L 739.85 101.13 L 743.50 105.02 L 747.15 108.20 L 750.80 108.33 L 754.45 107.73 L 758.10 110.38 L 761.75 112.37 L 765.40 113.37 L 769.05 105.62 L 772.70 102.35 L 776.35 102.52 L 780.00 102.22" class="path-3" />
<path d="M 50.00 168.36 L 53.65 170.73 L 57.30 171.67 L 60.95 175.52 L 64.60 179.46 L 68.25 179.36 L 71.90 181.52 L 75.55 179.34 L 79.20 180.33 L 82.85 176.46 L 86.50 178.94 L 90.15 178.11 L 93.80 178.42 L 97.45 180.13 L 101.10 180.42 L 104.75 176.17 L 108.40 179.07 L 112.05 179.58 L 115.70 177.99 L 119.35 172.36 L 123.00 173.40 L 126.65 173.83 L 130.30 173.10 L 133.95 173.81 L 137.60 168.78 L 141.25 169.54 L 144.90 164.18 L 148.55 170.92 L 152.20 178.75 L 155.85 177.81 L 159.50 179.88 L 163.15 179.27 L 166.80 178.08 L 170.45 177.77 L 174.10 180.26 L 177.75 173.55 L 181.40 179.29 L 185.05 183.36 L 188.70 185.61 L 192.35 179.41 L 196.00 175.37 L 199.65 172.50 L 203.30 176.24 L 206.95 178.17 L 210.60 181.91 L 214.25 184.55 L 217.90 184.34 L 221.55 179.63 L 225.20 182.90 L 228.85 185.27 L 232.50 182.47 L 236.15 177.91 L 239.80 177.43 L 243.45 173.85 L 247.10 174.55 L 250.75 177.50 L 254.40 175.98 L 258.05 174.42 L 261.70 175.93 L 265.35 175.92 L 269.00 174.11 L 272.65 173.31 L 276.30 172.91 L 279.95 177.65 L 283.60 177.97 L 287.25 178.81 L 290.90 177.39 L 294.55 175.41 L 298.20 173.23 L 301.85 174.95 L 305.50 178.88 L 309.15 177.85 L 312.80 177.76 L 316.45 180.32 L 320.10 180.21 L 323.75 173.01 L 327.40 171.57 L 331.05 172.48 L 334.70 169.21 L 338.35 172.84 L 342.00 172.35 L 345.65 171.54 L 349.30 172.44 L 352.95 173.74 L 356.60 172.24 L 360.25 172.38 L 363.90 173.84 L 367.55 167.55 L 371.20 172.44 L 374.85 171.41 L 378.50 169.65 L 382.15 171.42 L 385.80 170.73 L 389.45 168.99 L 393.10 167.86 L 396.75 167.78 L 400.40 165.76 L 404.05 166.92 L 407.70 167.41 L 411.35 162.43 L 415.00 165.44 L 418.65 166.89 L 422.30 165.05 L 425.95 159.53 L 429.60 163.78 L 433.25 163.58 L 436.90 162.36 L 440.55 166.11 L 444.20 162.27 L 447.85 163.68 L 451.50 163.62 L 455.15 163.59 L 458.80 162.14 L 462.45 161.13 L 466.10 159.31 L 469.75 155.53 L 473.40 158.82 L 477.05 158.34 L 480.70 160.38 L 484.35 162.21 L 488.00 166.86 L 491.65 165.39 L 495.30 164.88 L 498.95 164.81 L 502.60 162.02 L 506.25 165.16 L 509.90 169.45 L 513.55 168.25 L 517.20 168.74 L 520.85 166.72 L 524.50 163.59 L 528.15 164.87 L 531.80 168.48 L 535.45 168.58 L 539.10 165.88 L 542.75 164.93 L 546.40 163.53 L 550.05 165.45 L 553.70 164.50 L 557.35 163.95 L 561.00 164.73 L 564.65 167.12 L 568.30 165.75 L 571.95 165.27 L 575.60 161.07 L 579.25 162.90 L 582.90 156.49 L 586.55 156.44 L 590.20 155.80 L 593.85 158.29 L 597.50 162.62 L 601.15 162.16 L 604.80 164.06 L 608.45 162.90 L 612.10 164.66 L 615.75 164.40 L 619.40 161.07 L 623.05 159.25 L 626.70 160.38 L 630.35 164.61 L 634.00 158.67 L 637.65 157.34 L 641.30 157.10 L 644.95 150.13 L 648.60 157.64 L 652.25 157.52 L 655.90 164.79 L 659.55 167.11 L 663.20 169.62 L 666.85 166.64 L 670.50 168.21 L 674.15 170.64 L 677.80 172.17 L 681.45 171.95 L 685.10 169.66 L 688.75 161.72 L 692.40 161.27 L 696.05 169.55 L 699.70 166.11 L 703.35 164.58 L 707.00 165.48 L 710.65 171.06 L 714.30 173.12 L 717.95 173.36 L 721.60 172.59 L 725.25 171.70 L 728.90 167.19 L 732.55 162.33 L 736.20 162.58 L 739.85 164.25 L 743.50 159.79 L 747.15 158.72 L 750.80 157.23 L 754.45 158.96 L 758.10 157.87 L 761.75 155.85 L 765.40 155.91 L 769.05 152.02 L 772.70 155.25 L 776.35 151.85 L 780.00 151.11" class="path-4" />
<line x1="50" y1="168.4" x2="780" y2="168.4" stroke="#4b5563" stroke-width="0.8" stroke-dasharray="6 3" />
</svg>