<svg xmlns="http://www.w3.org/2000/svg" viewBox="0 0 800 300" width="800" height="300">
<style>
.axis-line { stroke: #6b7280; stroke-width: 0.5; }
.axis-text { font-family: monospace; font-size: 11px; fill: #9ca3af; }
.title-text { font-family: monospace; font-size: 14px; fill: #d1d5db; font-weight: bold; }
.grid-line { stroke: #374151; stroke-width: 0.3; stroke-dasharray: 4 2; }
.path-0 { fill: none; stroke: #3b82f6; stroke-width: 2; stroke-linecap: round; opacity: 0.85; animation: draw-0 8s ease-in-out 0.0s infinite; stroke-dasharray: 1061; stroke-dashoffset: 1061;}
@keyframes draw-0 { 0% { stroke-dashoffset: 1061; } 38% { stroke-dashoffset: 0; } 62% { stroke-dashoffset: 0; } 100% { stroke-dashoffset: 1061; }}
.path-1 { fill: none; stroke: #ef4444; stroke-width: 2; stroke-linecap: round; opacity: 0.85; animation: draw-1 8s ease-in-out 0.4s infinite; stroke-dasharray: 1050; stroke-dashoffset: 1050;}
@keyframes draw-1 { 0% { stroke-dashoffset: 1050; } 38% { stroke-dashoffset: 0; } 62% { stroke-dashoffset: 0; } 100% { stroke-dashoffset: 1050; }}
.path-2 { fill: none; stroke: #22c55e; stroke-width: 2; stroke-linecap: round; opacity: 0.85; animation: draw-2 8s ease-in-out 0.8s infinite; stroke-dasharray: 1064; stroke-dashoffset: 1064;}
@keyframes draw-2 { 0% { stroke-dashoffset: 1064; } 38% { stroke-dashoffset: 0; } 62% { stroke-dashoffset: 0; } 100% { stroke-dashoffset: 1064; }}
.path-3 { fill: none; stroke: #f59e0b; stroke-width: 2; stroke-linecap: round; opacity: 0.85; animation: draw-3 8s ease-in-out 1.2000000000000002s infinite; stroke-dasharray: 1089; stroke-dashoffset: 1089;}
@keyframes draw-3 { 0% { stroke-dashoffset: 1089; } 38% { stroke-dashoffset: 0; } 62% { stroke-dashoffset: 0; } 100% { stroke-dashoffset: 1089; }}
.path-4 { fill: none; stroke: #a855f7; stroke-width: 2; stroke-linecap: round; opacity: 0.85; animation: draw-4 8s ease-in-out 1.6s infinite; stroke-dasharray: 1082; stroke-dashoffset: 1082;}
@keyframes draw-4 { 0% { stroke-dashoffset: 1082; } 38% { stroke-dashoffset: 0; } 62% { stroke-dashoffset: 0; } 100% { stroke-dashoffset: 1082; }}
</style>
<rect width="800" height="300" rx="8" fill="#0d1117" />
<line x1="50" y1="260.0" x2="780" y2="260.0" class="grid-line" />
<text x="44" y="264.0" text-anchor="end" class="axis-text">-1.8</text>
<line x1="50" y1="216.0" x2="780" y2="216.0" class="grid-line" />
<text x="44" y="220.0" text-anchor="end" class="axis-text">-1.0</text>
<line x1="50" y1="172.0" x2="780" y2="172.0" class="grid-line" />
<text x="44" y="176.0" text-anchor="end" class="axis-text">-0.2</text>
<line x1="50" y1="128.0" x2="780" y2="128.0" class="grid-line" />
<text x="44" y="132.0" text-anchor="end" class="axis-text">0.5</text>
<line x1="50" y1="84.0" x2="780" y2="84.0" class="grid-line" />
<text x="44" y="88.0" text-anchor="end" class="axis-text">1.3</text>
<line x1="50" y1="40.0" x2="780" y2="40.0" class="grid-line" />
<text x="44" y="44.0" text-anchor="end" class="axis-text">2.0</text>
<line x1="50.0" y1="40" x2="50.0" y2="260" class="grid-line" />
<line x1="196.0" y1="40" x2="196.0" y2="260" class="grid-line" />
<line x1="342.0" y1="40" x2="342.0" y2="260" class="grid-line" />
<line x1="488.0" y1="40" x2="488.0" y2="260" class="grid-line" />
<line x1="634.0" y1="40" x2="634.0" y2="260" class="grid-line" />
<line x1="780.0" y1="40" x2="780.0" y2="260" class="grid-line" />
<line x1="50" y1="260" x2="780" y2="260" class="axis-line" />
<line x1="50" y1="40" x2="50" y2="260" class="axis-line" />
<text x="400.0" y="295" text-anchor="middle" class="axis-text">t</text>
<text x="12" y="150.0" text-anchor="middle" class="axis-text" transform="rotate(-90 12 150.0)">W(t)</text>
<text x="400.0" y="22" text-anchor="middle" class="title-text">Brownian Motion</text>
<path d="M 50.00 157.55 L 53.65 151.82 L 57.30 144.34 L 60.95 144.00 L 64.60 146.36 L 68.25 145.87 L 71.90 148.33 L 75.55 152.71 L 79.20 150.54 L 82.85 149.75 L 86.50 152.88 L 90.15 149.50 L 93.80 153.03 L 97.45 149.62 L 101.10 155.29 L 104.75 153.54 L 108.40 153.81 L 112.05 153.79 L 115.70 152.25 L 119.35 142.77 L 123.00 145.79 L 126.65 139.79 L 130.30 141.92 L 133.95 152.18 L 137.60 162.50 L 141.25 152.57 L 144.90 150.21 L 148.55 151.40 L 152.20 148.76 L 155.85 147.50 L 159.50 148.66 L 163.15 144.59 L 166.80 148.12 L 170.45 145.95 L 174.10 150.98 L 177.75 154.12 L 181.40 155.73 L 185.05 155.32 L 188.70 152.32 L 192.35 151.85 L 196.00 148.02 L 199.65 145.00 L 203.30 135.50 L 206.95 134.61 L 210.60 135.26 L 214.25 131.36 L 217.90 125.76 L 221.55 127.38 L 225.20 125.70 L 228.85 126.42 L 232.50 137.33 L 236.15 138.63 L 239.80 139.02 L 243.45 141.46 L 247.10 142.42 L 250.75 147.69 L 254.40 150.82 L 258.05 149.36 L 261.70 145.51 L 265.35 146.93 L 269.00 155.97 L 272.65 149.29 L 276.30 148.42 L 279.95 146.41 L 283.60 145.55 L 287.25 142.22 L 290.90 137.09 L 294.55 144.83 L 298.20 149.48 L 301.85 154.77 L 305.50 159.17 L 309.15 155.40 L 312.80 158.74 L 316.45 158.87 L 320.10 159.20 L 323.75 155.85 L 327.40 150.61 L 331.05 157.68 L 334.70 157.10 L 338.35 154.50 L 342.00 149.88 L 345.65 154.75 L 349.30 156.51 L 352.95 152.97 L 356.60 157.19 L 360.25 157.35 L 363.90 151.50 L 367.55 150.12 L 371.20 152.64 L 374.85 155.59 L 378.50 155.13 L 382.15 155.83 L 385.80 153.52 L 389.45 153.51 L 393.10 154.35 L 396.75 148.33 L 400.40 161.31 L 404.05 158.41 L 407.70 158.67 L 411.35 156.06 L 415.00 165.19 L 418.65 165.24 L 422.30 163.23 L 425.95 163.93 L 429.60 163.08 L 433.25 165.38 L 436.90 160.45 L 440.55 164.12 L 444.20 160.76 L 447.85 162.25 L 451.50 158.03 L 455.15 164.36 L 458.80 164.43 L 462.45 162.35 L 466.10 155.27 L 469.75 150.60 L 473.40 148.45 L 477.05 141.60 L 480.70 143.79 L 484.35 144.29 L 488.00 147.35 L 491.65 145.37 L 495.30 146.13 L 498.95 149.12 L 502.60 145.65 L 506.25 146.59 L 509.90 149.00 L 513.55 143.27 L 517.20 141.36 L 520.85 146.48 L 524.50 148.61 L 528.15 152.11 L 531.80 148.65 L 535.45 147.17 L 539.10 140.08 L 542.75 147.98 L 546.40 151.24 L 550.05 152.28 L 553.70 145.98 L 557.35 151.56 L 561.00 147.80 L 564.65 140.00 L 568.30 143.45 L 571.95 143.89 L 575.60 143.31 L 579.25 143.84 L 582.90 145.46 L 586.55 140.95 L 590.20 139.18 L 593.85 134.29 L 597.50 133.97 L 601.15 133.13 L 604.80 131.52 L 608.45 132.36 L 612.10 135.40 L 615.75 145.59 L 619.40 142.64 L 623.05 140.54 L 626.70 140.73 L 630.35 145.29 L 634.00 139.44 L 637.65 143.57 L 641.30 147.65 L 644.95 147.55 L 648.60 146.09 L 652.25 149.56 L 655.90 151.98 L 659.55 147.72 L 663.20 141.90 L 666.85 138.03 L 670.50 134.14 L 674.15 133.27 L 677.80 138.82 L 681.45 142.75 L 685.10 145.42 L 688.75 142.38 L 692.40 142.12 L 696.05 146.48 L 699.70 141.97 L 703.35 134.49 L 707.00 137.74 L 710.65 135.20 L 714.30 130.50 L 717.95 136.11 L 721.60 136.44 L 725.25 140.36 L 728.90 141.93 L 732.55 147.52 L 736.20 148.02 L 739.85 149.36 L 743.50 155.67 L 747.15 155.11 L 750.80 157.75 L 754.45 145.33 L 758.10 140.22 L 761.75 145.81 L 765.40 148.27 L 769.05 146.04 L 772.70 143.41 L 776.35 142.44 L 780.00 142.87" class="path-0" />
<path d="M 50.00 157.55 L 53.65 160.00 L 57.30 164.99 L 60.95 161.25 L 64.60 162.04 L 68.25 160.80 L 71.90 164.52 L 75.55 165.28 L 79.20 167.93 L 82.85 172.73 L 86.50 172.22 L 90.15 168.54 L 93.80 162.25 L 97.45 162.96 L 101.10 167.83 L 104.75 166.57 L 108.40 171.61 L 112.05 167.93 L 115.70 167.19 L 119.35 171.41 L 123.00 176.64 L 126.65 176.29 L 130.30 178.37 L 133.95 177.66 L 137.60 171.55 L 141.25 167.75 L 144.90 174.19 L 148.55 175.97 L 152.20 185.80 L 155.85 186.18 L 159.50 191.63 L 163.15 185.95 L 166.80 182.03 L 170.45 181.40 L 174.10 182.81 L 177.75 177.86 L 181.40 180.04 L 185.05 172.58 L 188.70 172.89 L 192.35 171.88 L 196.00 175.55 L 199.65 179.76 L 203.30 179.68 L 206.95 172.10 L 210.60 167.16 L 214.25 165.70 L 217.90 168.30 L 221.55 168.20 L 225.20 161.70 L 228.85 164.80 L 232.50 167.61 L 236.15 167.93 L 239.80 166.80 L 243.45 167.36 L 247.10 161.92 L 250.75 161.95 L 254.40 159.96 L 258.05 163.16 L 261.70 162.56 L 265.35 163.06 L 269.00 161.94 L 272.65 163.86 L 276.30 169.08 L 279.95 166.82 L 283.60 162.53 L 287.25 158.97 L 290.90 152.93 L 294.55 152.81 L 298.20 154.96 L 301.85 155.34 L 305.50 158.52 L 309.15 163.60 L 312.80 168.81 L 316.45 165.89 L 320.10 174.62 L 323.75 170.17 L 327.40 171.92 L 331.05 177.04 L 334.70 175.81 L 338.35 174.06 L 342.00 171.90 L 345.65 179.34 L 349.30 177.29 L 352.95 181.19 L 356.60 178.19 L 360.25 182.95 L 363.90 184.19 L 367.55 174.72 L 371.20 176.79 L 374.85 185.62 L 378.50 189.21 L 382.15 186.70 L 385.80 179.57 L 389.45 183.33 L 393.10 187.51 L 396.75 184.93 L 400.40 183.12 L 404.05 181.61 L 407.70 179.86 L 411.35 174.03 L 415.00 175.77 L 418.65 166.63 L 422.30 158.06 L 425.95 155.62 L 429.60 158.88 L 433.25 157.01 L 436.90 155.26 L 440.55 153.35 L 444.20 153.55 L 447.85 154.45 L 451.50 154.73 L 455.15 150.93 L 458.80 159.06 L 462.45 165.87 L 466.10 165.69 L 469.75 165.58 L 473.40 157.36 L 477.05 161.28 L 480.70 156.06 L 484.35 156.12 L 488.00 154.86 L 491.65 146.12 L 495.30 144.69 L 498.95 146.43 L 502.60 149.10 L 506.25 148.36 L 509.90 148.79 L 513.55 145.04 L 517.20 146.94 L 520.85 152.73 L 524.50 151.28 L 528.15 152.78 L 531.80 154.06 L 535.45 149.83 L 539.10 154.40 L 542.75 158.24 L 546.40 159.40 L 550.05 151.91 L 553.70 149.66 L 557.35 136.12 L 561.00 139.99 L 564.65 145.90 L 568.30 144.08 L 571.95 145.34 L 575.60 141.66 L 579.25 143.50 L 582.90 142.53 L 586.55 141.23 L 590.20 139.12 L 593.85 142.26 L 597.50 139.04 L 601.15 139.73 L 604.80 138.22 L 608.45 138.19 L 612.10 134.55 L 615.75 134.17 L 619.40 137.92 L 623.05 133.49 L 626.70 132.79 L 630.35 133.65 L 634.00 130.05 L 637.65 129.36 L 641.30 132.50 L 644.95 125.13 L 648.60 136.46 L 652.25 143.44 L 655.90 141.02 L 659.55 144.07 L 663.20 140.07 L 666.85 143.38 L 670.50 144.44 L 674.15 146.85 L 677.80 144.73 L 681.45 141.63 L 685.10 145.11 L 688.75 145.89 L 692.40 140.36 L 696.05 140.75 L 699.70 140.92 L 703.35 142.58 L 707.00 144.28 L 710.65 141.94 L 714.30 141.32 L 717.95 144.34 L 721.60 154.30 L 725.25 153.59 L 728.90 153.36 L 732.55 146.42 L 736.20 149.78 L 739.85 144.57 L 743.50 143.45 L 747.15 142.14 L 750.80 152.05 L 754.45 156.07 L 758.10 149.07 L 761.75 152.49 L 765.40 154.72 L 769.05 148.71 L 772.70 147.56 L 776.35 145.76 L 780.00 142.49" class="path-1" />
<path d="M 50.00 157.55 L 53.65 162.46 L 57.30 163.49 L 60.95 158.58 L 64.60 158.48 L 68.25 154.65 L 71.90 148.39 L 75.55 148.17 L 79.20 154.41 L 82.85 149.77 L 86.50 146.03 L 90.15 138.65 L 93.80 139.07 L 97.45 133.75 L 101.10 130.66 L 104.75 131.25 L 108.40 129.85 L 112.05 135.47 L 115.70 135.96 L 119.35 134.80 L 123.00 132.92 L 126.65 137.14 L 130.30 132.31 L 133.95 132.67 L 137.60 132.31 L 141.25 137.45 L 144.90 134.51 L 148.55 132.98 L 152.20 135.89 L 155.85 137.28 L 159.50 134.44 L 163.15 136.93 L 166.80 134.36 L 170.45 133.84 L 174.10 130.37 L 177.75 120.84 L 181.40 124.06 L 185.05 122.54 L 188.70 123.59 L 192.35 128.43 L 196.00 128.48 L 199.65 127.75 L 203.30 130.52 L 206.95 133.23 L 210.60 137.98 L 214.25 149.43 L 217.90 138.35 L 221.55 141.18 L 225.20 137.75 L 228.85 139.80 L 232.50 132.44 L 236.15 121.89 L 239.80 114.01 L 243.45 109.22 L 247.10 117.83 L 250.75 120.14 L 254.40 121.49 L 258.05 120.37 L 261.70 108.13 L 265.35 103.98 L 269.00 101.14 L 272.65 101.45 L 276.30 104.46 L 279.95 106.95 L 283.60 110.97 L 287.25 113.27 L 290.90 102.88 L 294.55 105.31 L 298.20 103.47 L 301.85 107.12 L 305.50 103.03 L 309.15 106.69 L 312.80 113.59 L 316.45 115.37 L 320.10 114.77 L 323.75 117.03 L 327.40 121.35 L 331.05 119.13 L 334.70 122.14 L 338.35 118.58 L 342.00 121.93 L 345.65 124.09 L 349.30 125.28 L 352.95 126.92 L 356.60 128.86 L 360.25 127.41 L 363.90 131.04 L 367.55 127.39 L 371.20 118.70 L 374.85 118.40 L 378.50 122.49 L 382.15 124.26 L 385.80 125.77 L 389.45 124.16 L 393.10 125.71 L 396.75 118.01 L 400.40 116.67 L 404.05 115.07 L 407.70 116.70 L 411.35 119.09 L 415.00 122.46 L 418.65 111.90 L 422.30 119.81 L 425.95 120.63 L 429.60 117.78 L 433.25 115.30 L 436.90 109.46 L 440.55 108.65 L 444.20 106.87 L 447.85 107.48 L 451.50 105.49 L 455.15 104.65 L 458.80 107.89 L 462.45 113.55 L 466.10 111.92 L 469.75 106.48 L 473.40 101.32 L 477.05 103.39 L 480.70 109.36 L 484.35 109.69 L 488.00 105.51 L 491.65 103.69 L 495.30 96.18 L 498.95 90.29 L 502.60 85.61 L 506.25 86.87 L 509.90 90.33 L 513.55 91.47 L 517.20 82.61 L 520.85 86.42 L 524.50 88.04 L 528.15 91.19 L 531.80 90.89 L 535.45 90.30 L 539.10 87.32 L 542.75 89.70 L 546.40 90.33 L 550.05 100.50 L 553.70 103.83 L 557.35 110.82 L 561.00 107.20 L 564.65 107.41 L 568.30 104.54 L 571.95 105.69 L 575.60 110.36 L 579.25 117.64 L 582.90 122.58 L 586.55 125.86 L 590.20 124.17 L 593.85 117.20 L 597.50 126.58 L 601.15 126.15 L 604.80 128.40 L 608.45 125.20 L 612.10 131.22 L 615.75 138.48 L 619.40 138.45 L 623.05 136.04 L 626.70 139.05 L 630.35 142.57 L 634.00 138.49 L 637.65 139.37 L 641.30 138.08 L 644.95 138.92 L 648.60 140.15 L 652.25 145.41 L 655.90 140.48 L 659.55 138.76 L 663.20 134.87 L 666.85 133.18 L 670.50 135.68 L 674.15 132.72 L 677.80 130.36 L 681.45 138.59 L 685.10 140.50 L 688.75 143.24 L 692.40 142.74 L 696.05 139.32 L 699.70 142.13 L 703.35 141.90 L 707.00 145.13 L 710.65 145.24 L 714.30 143.02 L 717.95 144.00 L 721.60 145.49 L 725.25 146.90 L 728.90 150.16 L 732.55 151.02 L 736.20 143.03 L 739.85 140.39 L 743.50 144.40 L 747.15 141.18 L 750.80 143.10 L 754.45 140.00 L 758.10 141.18 L 761.75 136.21 L 765.40 139.86 L 769.05 135.51 L 772.70 139.84 L 776.35 133.94 L 780.00 137.78" class="path-2" />
<path d="M 50.00 157.55 L 53.65 165.80 L 57.30 161.03 L 60.95 155.15 L 64.60 152.71 L 68.25 148.64 L 71.90 142.51 L 75.55 140.24 L 79.20 142.83 L 82.85 139.34 L 86.50 128.95 L 90.15 118.74 L 93.80 118.35 L 97.45 119.45 L 101.10 116.99 L 104.75 115.78 L 108.40 116.45 L 112.05 115.44 L 115.70 118.41 L 119.35 116.41 L 123.00 118.13 L 126.65 122.68 L 130.30 117.94 L 133.95 119.32 L 137.60 119.25 L 141.25 115.92 L 144.90 115.51 L 148.55 110.98 L 152.20 112.48 L 155.85 115.27 L 159.50 110.36 L 163.15 103.72 L 166.80 108.18 L 170.45 112.70 L 174.10 105.46 L 177.75 107.37 L 181.40 104.69 L 185.05 99.91 L 188.70 102.37 L 192.35 98.04 L 196.00 102.24 L 199.65 109.73 L 203.30 108.00 L 206.95 101.51 L 210.60 99.52 L 214.25 99.15 L 217.90 95.32 L 221.55 86.53 L 225.20 84.34 L 228.85 87.86 L 232.50 85.53 L 236.15 84.90 L 239.80 91.46 L 243.45 83.39 L 247.10 86.61 L 250.75 83.35 L 254.40 87.30 L 258.05 91.01 L 261.70 92.01 L 265.35 87.72 L 269.00 83.33 L 272.65 80.47 L 276.30 80.75 L 279.95 84.64 L 283.60 86.52 L 287.25 87.94 L 290.90 90.37 L 294.55 99.57 L 298.20 94.44 L 301.85 97.17 L 305.50 91.13 L 309.15 90.34 L 312.80 80.29 L 316.45 84.81 L 320.10 84.20 L 323.75 75.54 L 327.40 73.74 L 331.05 84.05 L 334.70 86.99 L 338.35 82.19 L 342.00 81.94 L 345.65 76.59 L 349.30 73.84 L 352.95 75.72 L 356.60 74.30 L 360.25 70.94 L 363.90 66.57 L 367.55 73.34 L 371.20 71.24 L 374.85 65.38 L 378.50 70.82 L 382.15 75.55 L 385.80 79.27 L 389.45 84.62 L 393.10 87.58 L 396.75 90.59 L 400.40 86.50 L 404.05 94.44 L 407.70 99.94 L 411.35 97.24 L 415.00 94.61 L 418.65 96.36 L 422.30 93.16 L 425.95 86.67 L 429.60 93.14 L 433.25 99.76 L 436.90 98.36 L 440.55 98.30 L 444.20 99.09 L 447.85 99.80 L 451.50 98.77 L 455.15 100.41 L 458.80 95.57 L 462.45 102.76 L 466.10 101.72 L 469.75 97.96 L 473.40 102.39 L 477.05 98.89 L 480.70 93.10 L 484.35 97.02 L 488.00 97.33 L 491.65 94.34 L 495.30 89.39 L 498.95 86.68 L 502.60 85.29 L 506.25 84.96 L 509.90 81.27 L 513.55 78.40 L 517.20 75.21 L 520.85 71.94 L 524.50 68.19 L 528.15 70.51 L 531.80 76.66 L 535.45 80.01 L 539.10 83.50 L 542.75 82.30 L 546.40 91.88 L 550.05 98.75 L 553.70 104.79 L 557.35 101.34 L 561.00 97.57 L 564.65 94.28 L 568.30 95.20 L 571.95 95.91 L 575.60 92.54 L 579.25 88.92 L 582.90 91.05 L 586.55 93.10 L 590.20 94.58 L 593.85 95.77 L 597.50 98.09 L 601.15 91.40 L 604.80 86.00 L 608.45 78.93 L 612.10 78.58 L 615.75 77.79 L 619.40 73.17 L 623.05 76.75 L 626.70 70.39 L 630.35 70.53 L 634.00 69.67 L 637.65 74.62 L 641.30 77.07 L 644.95 75.29 L 648.60 76.54 L 652.25 70.47 L 655.90 67.95 L 659.55 65.59 L 663.20 67.51 L 666.85 69.87 L 670.50 73.74 L 674.15 72.70 L 677.80 72.48 L 681.45 71.11 L 685.10 71.75 L 688.75 75.87 L 692.40 77.58 L 696.05 78.08 L 699.70 84.78 L 703.35 89.24 L 707.00 87.45 L 710.65 85.65 L 714.30 88.46 L 717.95 86.97 L 721.60 88.08 L 725.25 91.87 L 728.90 89.40 L 732.55 86.95 L 736.20 93.04 L 739.85 100.67 L 743.50 98.25 L 747.15 92.80 L 750.80 100.31 L 754.45 89.24 L 758.10 86.79 L 761.75 85.23 L 765.40 85.20 L 769.05 91.63 L 772.70 100.45 L 776.35 105.86 L 780.00 109.60" class="path-3" />
<path d="M 50.00 157.55 L 53.65 161.26 L 57.30 162.77 L 60.95 160.57 L 64.60 161.60 L 68.25 162.09 L 71.90 162.23 L 75.55 166.90 L 79.20 171.61 L 82.85 169.89 L 86.50 169.39 L 90.15 172.39 L 93.80 178.54 L 97.45 177.24 L 101.10 179.29 L 104.75 177.85 L 108.40 182.42 L 112.05 186.42 L 115.70 189.64 L 119.35 196.19 L 123.00 191.34 L 126.65 186.25 L 130.30 191.08 L 133.95 195.11 L 137.60 195.89 L 141.25 199.60 L 144.90 203.27 L 148.55 199.66 L 152.20 199.70 L 155.85 198.33 L 159.50 198.35 L 163.15 202.82 L 166.80 201.05 L 170.45 198.71 L 174.10 198.53 L 177.75 198.53 L 181.40 200.86 L 185.05 206.33 L 188.70 205.09 L 192.35 197.89 L 196.00 191.65 L 199.65 197.03 L 203.30 202.59 L 206.95 201.40 L 210.60 201.50 L 214.25 203.86 L 217.90 198.38 L 221.55 193.80 L 225.20 196.76 L 228.85 197.54 L 232.50 199.90 L 236.15 205.29 L 239.80 211.63 L 243.45 216.13 L 247.10 213.72 L 250.75 218.06 L 254.40 219.80 L 258.05 221.93 L 261.70 229.33 L 265.35 234.62 L 269.00 228.14 L 272.65 229.83 L 276.30 230.06 L 279.95 228.04 L 283.60 226.45 L 287.25 219.25 L 290.90 214.62 L 294.55 211.56 L 298.20 205.01 L 301.85 200.17 L 305.50 203.67 L 309.15 208.20 L 312.80 210.13 L 316.45 205.83 L 320.10 203.70 L 323.75 201.54 L 327.40 203.92 L 331.05 202.41 L 334.70 196.54 L 338.35 188.73 L 342.00 196.94 L 345.65 203.90 L 349.30 198.34 L 352.95 197.94 L 356.60 194.65 L 360.25 192.08 L 363.90 197.23 L 367.55 190.53 L 371.20 183.02 L 374.85 183.19 L 378.50 183.43 L 382.15 180.35 L 385.80 174.03 L 389.45 175.17 L 393.10 175.90 L 396.75 173.66 L 400.40 174.83 L 404.05 180.59 L 407.70 187.84 L 411.35 193.90 L 415.00 191.65 L 418.65 179.48 L 422.30 188.54 L 425.95 187.84 L 429.60 189.23 L 433.25 188.53 L 436.90 187.10 L 440.55 190.07 L 444.20 193.83 L 447.85 199.17 L 451.50 204.02 L 455.15 198.82 L 458.80 201.35 L 462.45 201.99 L 466.10 199.80 L 469.75 195.84 L 473.40 197.98 L 477.05 196.08 L 480.70 201.48 L 484.35 200.72 L 488.00 200.16 L 491.65 198.68 L 495.30 196.17 L 498.95 197.93 L 502.60 195.27 L 506.25 203.46 L 509.90 206.51 L 513.55 210.95 L 517.20 211.77 L 520.85 206.70 L 524.50 212.66 L 528.15 216.40 L 531.80 216.62 L 535.45 210.59 L 539.10 212.22 L 542.75 212.66 L 546.40 206.76 L 550.05 211.85 L 553.70 213.40 L 557.35 210.58 L 561.00 212.82 L 564.65 217.35 L 568.30 223.40 L 571.95 224.73 L 575.60 226.86 L 579.25 222.23 L 582.90 217.90 L 586.55 216.60 L 590.20 221.16 L 593.85 228.46 L 597.50 216.89 L 601.15 223.93 L 604.80 228.03 L 608.45 224.78 L 612.10 216.92 L 615.75 212.60 L 619.40 211.77 L 623.05 213.90 L 626.70 219.58 L 630.35 220.51 L 634.00 220.57 L 637.65 221.17 L 641.30 224.69 L 644.95 224.88 L 648.60 224.92 L 652.25 227.95 L 655.90 227.18 L 659.55 221.55 L 663.20 223.34 L 666.85 224.86 L 670.50 226.37 L 674.15 228.01 L 677.80 221.11 L 681.45 223.25 L 685.10 221.20 L 688.75 222.32 L 692.40 212.19 L 696.05 213.74 L 699.70 224.41 L 703.35 225.07 L 707.00 219.61 L 710.65 223.99 L 714.30 229.58 L 717.95 225.11 L 721.60 220.09 L 725.25 209.53 L 728.90 209.58 L 732.55 208.87 L 736.20 202.50 L 739.85 207.18 L 743.50 209.83 L 747.15 207.08 L 750.80 206.01 L 754.45 199.92 L 758.10 198.29 L 761.75 191.18 L 765.40 189.16 L 769.05 194.48 L 772.70 198.54 L 776.35 197.59 L 780.00 194.51" class="path-4" />
<line x1="50" y1="157.5" x2="780" y2="157.5" stroke="#4b5563" stroke-width="0.8" stroke-dasharray="6 3" />
</svg>