<svg xmlns="http://www.w3.org/2000/svg" viewBox="0 0 800 300" width="800" height="300">
<style>
.axis-line { stroke: #6b7280; stroke-width: 0.5; }
.axis-text { font-family: monospace; font-size: 11px; fill: #9ca3af; }
.title-text { font-family: monospace; font-size: 14px; fill: #d1d5db; font-weight: bold; }
.grid-line { stroke: #374151; stroke-width: 0.3; stroke-dasharray: 4 2; }
.path-0 { fill: none; stroke: #3b82f6; stroke-width: 2; stroke-linecap: round; opacity: 0.85; animation: draw-0 8s ease-in-out 0.0s infinite; stroke-dasharray: 1049; stroke-dashoffset: 1049;}
@keyframes draw-0 { 0% { stroke-dashoffset: 1049; } 38% { stroke-dashoffset: 0; } 62% { stroke-dashoffset: 0; } 100% { stroke-dashoffset: 1049; }}
.path-1 { fill: none; stroke: #ef4444; stroke-width: 2; stroke-linecap: round; opacity: 0.85; animation: draw-1 8s ease-in-out 0.4s infinite; stroke-dasharray: 1044; stroke-dashoffset: 1044;}
@keyframes draw-1 { 0% { stroke-dashoffset: 1044; } 38% { stroke-dashoffset: 0; } 62% { stroke-dashoffset: 0; } 100% { stroke-dashoffset: 1044; }}
.path-2 { fill: none; stroke: #22c55e; stroke-width: 2; stroke-linecap: round; opacity: 0.85; animation: draw-2 8s ease-in-out 0.8s infinite; stroke-dasharray: 1063; stroke-dashoffset: 1063;}
@keyframes draw-2 { 0% { stroke-dashoffset: 1063; } 38% { stroke-dashoffset: 0; } 62% { stroke-dashoffset: 0; } 100% { stroke-dashoffset: 1063; }}
.path-3 { fill: none; stroke: #f59e0b; stroke-width: 2; stroke-linecap: round; opacity: 0.85; animation: draw-3 8s ease-in-out 1.2000000000000002s infinite; stroke-dasharray: 1020; stroke-dashoffset: 1020;}
@keyframes draw-3 { 0% { stroke-dashoffset: 1020; } 38% { stroke-dashoffset: 0; } 62% { stroke-dashoffset: 0; } 100% { stroke-dashoffset: 1020; }}
.path-4 { fill: none; stroke: #a855f7; stroke-width: 2; stroke-linecap: round; opacity: 0.85; animation: draw-4 8s ease-in-out 1.6s infinite; stroke-dasharray: 1080; stroke-dashoffset: 1080;}
@keyframes draw-4 { 0% { stroke-dashoffset: 1080; } 38% { stroke-dashoffset: 0; } 62% { stroke-dashoffset: 0; } 100% { stroke-dashoffset: 1080; }}
</style>
<rect width="800" height="300" rx="8" fill="#0d1117" />
<line x1="50" y1="260.0" x2="780" y2="260.0" class="grid-line" />
<text x="44" y="264.0" text-anchor="end" class="axis-text">-2.2</text>
<line x1="50" y1="216.0" x2="780" y2="216.0" class="grid-line" />
<text x="44" y="220.0" text-anchor="end" class="axis-text">-1.4</text>
<line x1="50" y1="172.0" x2="780" y2="172.0" class="grid-line" />
<text x="44" y="176.0" text-anchor="end" class="axis-text">-0.7</text>
<line x1="50" y1="128.0" x2="780" y2="128.0" class="grid-line" />
<text x="44" y="132.0" text-anchor="end" class="axis-text">0.1</text>
<line x1="50" y1="84.0" x2="780" y2="84.0" class="grid-line" />
<text x="44" y="88.0" text-anchor="end" class="axis-text">0.8</text>
<line x1="50" y1="40.0" x2="780" y2="40.0" class="grid-line" />
<text x="44" y="44.0" text-anchor="end" class="axis-text">1.6</text>
<line x1="50.0" y1="40" x2="50.0" y2="260" class="grid-line" />
<line x1="196.0" y1="40" x2="196.0" y2="260" class="grid-line" />
<line x1="342.0" y1="40" x2="342.0" y2="260" class="grid-line" />
<line x1="488.0" y1="40" x2="488.0" y2="260" class="grid-line" />
<line x1="634.0" y1="40" x2="634.0" y2="260" class="grid-line" />
<line x1="780.0" y1="40" x2="780.0" y2="260" class="grid-line" />
<line x1="50" y1="260" x2="780" y2="260" class="axis-line" />
<line x1="50" y1="40" x2="50" y2="260" class="axis-line" />
<text x="400.0" y="295" text-anchor="middle" class="axis-text">t</text>
<text x="12" y="150.0" text-anchor="middle" class="axis-text" transform="rotate(-90 12 150.0)">W(t)</text>
<text x="400.0" y="22" text-anchor="middle" class="title-text">Brownian Motion</text>
<path d="M 50.00 132.80 L 53.65 130.04 L 57.30 125.66 L 60.95 126.34 L 64.60 125.31 L 68.25 123.31 L 71.90 131.59 L 75.55 136.03 L 79.20 141.53 L 82.85 135.47 L 86.50 137.97 L 90.15 139.11 L 93.80 133.55 L 97.45 131.32 L 101.10 128.59 L 104.75 129.77 L 108.40 133.43 L 112.05 132.36 L 115.70 134.17 L 119.35 134.78 L 123.00 132.18 L 126.65 125.45 L 130.30 121.45 L 133.95 121.09 L 137.60 124.13 L 141.25 130.22 L 144.90 135.18 L 148.55 133.34 L 152.20 129.18 L 155.85 127.81 L 159.50 122.50 L 163.15 117.88 L 166.80 118.05 L 170.45 114.09 L 174.10 116.15 L 177.75 116.80 L 181.40 114.02 L 185.05 109.06 L 188.70 105.05 L 192.35 107.26 L 196.00 111.03 L 199.65 108.32 L 203.30 109.15 L 206.95 107.59 L 210.60 100.29 L 214.25 102.40 L 217.90 111.72 L 221.55 108.76 L 225.20 105.86 L 228.85 102.26 L 232.50 92.96 L 236.15 93.55 L 239.80 93.30 L 243.45 93.62 L 247.10 91.86 L 250.75 97.54 L 254.40 104.76 L 258.05 106.01 L 261.70 107.98 L 265.35 106.66 L 269.00 107.83 L 272.65 114.24 L 276.30 114.17 L 279.95 117.53 L 283.60 116.64 L 287.25 118.64 L 290.90 118.51 L 294.55 119.48 L 298.20 125.30 L 301.85 124.10 L 305.50 122.47 L 309.15 121.61 L 312.80 119.80 L 316.45 119.29 L 320.10 113.45 L 323.75 118.64 L 327.40 122.55 L 331.05 115.15 L 334.70 120.86 L 338.35 119.27 L 342.00 123.34 L 345.65 117.20 L 349.30 117.27 L 352.95 125.39 L 356.60 121.55 L 360.25 119.85 L 363.90 126.18 L 367.55 127.92 L 371.20 121.08 L 374.85 127.18 L 378.50 120.17 L 382.15 119.32 L 385.80 120.78 L 389.45 117.56 L 393.10 115.13 L 396.75 115.11 L 400.40 110.59 L 404.05 111.16 L 407.70 115.22 L 411.35 110.83 L 415.00 113.59 L 418.65 112.18 L 422.30 115.80 L 425.95 123.06 L 429.60 125.02 L 433.25 123.01 L 436.90 125.17 L 440.55 121.73 L 444.20 123.40 L 447.85 119.07 L 451.50 116.72 L 455.15 120.39 L 458.80 128.71 L 462.45 124.68 L 466.10 129.01 L 469.75 131.85 L 473.40 131.27 L 477.05 129.61 L 480.70 130.88 L 484.35 132.94 L 488.00 125.53 L 491.65 126.72 L 495.30 122.11 L 498.95 121.53 L 502.60 118.81 L 506.25 111.83 L 509.90 111.72 L 513.55 106.91 L 517.20 105.94 L 520.85 103.01 L 524.50 107.68 L 528.15 107.12 L 531.80 115.93 L 535.45 119.13 L 539.10 121.81 L 542.75 116.67 L 546.40 112.31 L 550.05 112.20 L 553.70 110.50 L 557.35 111.14 L 561.00 106.58 L 564.65 107.92 L 568.30 109.14 L 571.95 108.38 L 575.60 109.76 L 579.25 108.45 L 582.90 110.10 L 586.55 115.15 L 590.20 109.64 L 593.85 105.67 L 597.50 102.96 L 601.15 102.87 L 604.80 105.96 L 608.45 109.51 L 612.10 109.15 L 615.75 110.26 L 619.40 106.23 L 623.05 110.94 L 626.70 114.77 L 630.35 113.15 L 634.00 109.03 L 637.65 110.05 L 641.30 112.45 L 644.95 113.54 L 648.60 110.82 L 652.25 113.99 L 655.90 115.03 L 659.55 115.88 L 663.20 110.82 L 666.85 120.02 L 670.50 130.90 L 674.15 134.41 L 677.80 129.53 L 681.45 116.25 L 685.10 115.27 L 688.75 116.54 L 692.40 123.06 L 696.05 117.57 L 699.70 117.42 L 703.35 120.00 L 707.00 115.20 L 710.65 116.80 L 714.30 119.83 L 717.95 128.17 L 721.60 126.94 L 725.25 131.25 L 728.90 126.73 L 732.55 122.89 L 736.20 132.02 L 739.85 128.91 L 743.50 134.79 L 747.15 140.75 L 750.80 137.44 L 754.45 140.10 L 758.10 141.06 L 761.75 139.10 L 765.40 135.07 L 769.05 130.66 L 772.70 130.32 L 776.35 132.37 L 780.00 135.52" class="path-0" />
<path d="M 50.00 132.80 L 53.65 141.71 L 57.30 137.68 L 60.95 137.72 L 64.60 139.42 L 68.25 144.11 L 71.90 145.17 L 75.55 148.25 L 79.20 148.78 L 82.85 151.08 L 86.50 148.01 L 90.15 155.09 L 93.80 163.95 L 97.45 161.61 L 101.10 162.22 L 104.75 168.91 L 108.40 169.01 L 112.05 169.33 L 115.70 168.00 L 119.35 176.66 L 123.00 181.00 L 126.65 180.00 L 130.30 182.88 L 133.95 188.68 L 137.60 190.80 L 141.25 185.47 L 144.90 185.72 L 148.55 188.34 L 152.20 191.47 L 155.85 187.11 L 159.50 185.41 L 163.15 187.30 L 166.80 185.59 L 170.45 182.88 L 174.10 182.64 L 177.75 179.72 L 181.40 184.20 L 185.05 184.98 L 188.70 184.91 L 192.35 185.23 L 196.00 180.47 L 199.65 179.85 L 203.30 173.12 L 206.95 170.94 L 210.60 168.71 L 214.25 166.68 L 217.90 167.09 L 221.55 160.28 L 225.20 157.36 L 228.85 154.91 L 232.50 152.73 L 236.15 152.67 L 239.80 147.47 L 243.45 150.15 L 247.10 142.45 L 250.75 138.02 L 254.40 137.25 L 258.05 143.10 L 261.70 144.47 L 265.35 143.22 L 269.00 140.78 L 272.65 133.76 L 276.30 137.52 L 279.95 136.45 L 283.60 138.65 L 287.25 142.12 L 290.90 143.76 L 294.55 148.22 L 298.20 147.71 L 301.85 149.89 L 305.50 154.04 L 309.15 156.82 L 312.80 156.46 L 316.45 162.90 L 320.10 157.43 L 323.75 156.60 L 327.40 152.57 L 331.05 142.52 L 334.70 142.47 L 338.35 142.63 L 342.00 149.58 L 345.65 157.51 L 349.30 161.56 L 352.95 166.49 L 356.60 167.30 L 360.25 164.57 L 363.90 164.15 L 367.55 168.06 L 371.20 171.84 L 374.85 177.87 L 378.50 174.13 L 382.15 176.89 L 385.80 168.43 L 389.45 164.24 L 393.10 167.23 L 396.75 165.85 L 400.40 158.31 L 404.05 157.84 L 407.70 153.12 L 411.35 150.39 L 415.00 150.86 L 418.65 147.10 L 422.30 142.51 L 425.95 144.13 L 429.60 143.35 L 433.25 148.66 L 436.90 141.76 L 440.55 145.16 L 444.20 141.53 L 447.85 138.18 L 451.50 137.86 L 455.15 130.78 L 458.80 134.06 L 462.45 133.41 L 466.10 134.80 L 469.75 141.92 L 473.40 141.53 L 477.05 140.10 L 480.70 137.64 L 484.35 138.48 L 488.00 144.15 L 491.65 138.96 L 495.30 140.23 L 498.95 141.46 L 502.60 145.48 L 506.25 140.54 L 509.90 137.50 L 513.55 137.50 L 517.20 142.22 L 520.85 142.28 L 524.50 134.46 L 528.15 137.63 L 531.80 137.81 L 535.45 133.07 L 539.10 134.83 L 542.75 138.06 L 546.40 140.77 L 550.05 142.28 L 553.70 145.74 L 557.35 147.91 L 561.00 147.05 L 564.65 148.58 L 568.30 153.18 L 571.95 153.23 L 575.60 161.70 L 579.25 160.17 L 582.90 162.07 L 586.55 170.85 L 590.20 174.36 L 593.85 177.78 L 597.50 180.68 L 601.15 176.07 L 604.80 181.32 L 608.45 179.20 L 612.10 175.01 L 615.75 180.27 L 619.40 173.62 L 623.05 166.96 L 626.70 168.89 L 630.35 161.64 L 634.00 164.72 L 637.65 172.20 L 641.30 169.57 L 644.95 168.93 L 648.60 168.08 L 652.25 173.82 L 655.90 171.15 L 659.55 168.76 L 663.20 166.10 L 666.85 159.72 L 670.50 158.52 L 674.15 159.48 L 677.80 165.75 L 681.45 166.87 L 685.10 163.36 L 688.75 163.54 L 692.40 165.49 L 696.05 172.27 L 699.70 168.46 L 703.35 173.03 L 707.00 171.36 L 710.65 170.37 L 714.30 164.65 L 717.95 167.62 L 721.60 171.05 L 725.25 165.65 L 728.90 166.70 L 732.55 165.78 L 736.20 168.81 L 739.85 167.26 L 743.50 169.91 L 747.15 175.40 L 750.80 174.08 L 754.45 175.33 L 758.10 177.01 L 761.75 169.03 L 765.40 167.29 L 769.05 168.41 L 772.70 168.80 L 776.35 162.81 L 780.00 165.26" class="path-1" />
<path d="M 50.00 132.80 L 53.65 133.25 L 57.30 138.03 L 60.95 142.60 L 64.60 141.75 L 68.25 137.14 L 71.90 138.46 L 75.55 136.42 L 79.20 138.15 L 82.85 140.82 L 86.50 139.82 L 90.15 135.10 L 93.80 137.01 L 97.45 139.74 L 101.10 135.96 L 104.75 133.42 L 108.40 136.40 L 112.05 136.99 L 115.70 127.94 L 119.35 126.72 L 123.00 128.72 L 126.65 128.19 L 130.30 132.70 L 133.95 133.61 L 137.60 138.22 L 141.25 129.18 L 144.90 124.48 L 148.55 126.41 L 152.20 122.63 L 155.85 110.97 L 159.50 105.28 L 163.15 98.07 L 166.80 101.35 L 170.45 105.88 L 174.10 110.81 L 177.75 111.68 L 181.40 106.57 L 185.05 106.85 L 188.70 107.74 L 192.35 103.25 L 196.00 104.08 L 199.65 106.56 L 203.30 100.99 L 206.95 92.73 L 210.60 103.78 L 214.25 99.37 L 217.90 103.17 L 221.55 107.46 L 225.20 108.97 L 228.85 109.93 L 232.50 108.50 L 236.15 106.87 L 239.80 101.69 L 243.45 98.12 L 247.10 102.10 L 250.75 102.99 L 254.40 101.46 L 258.05 96.13 L 261.70 100.03 L 265.35 98.50 L 269.00 97.77 L 272.65 98.24 L 276.30 93.40 L 279.95 94.06 L 283.60 90.81 L 287.25 91.71 L 290.90 92.67 L 294.55 97.26 L 298.20 93.87 L 301.85 92.55 L 305.50 86.65 L 309.15 86.77 L 312.80 90.95 L 316.45 91.22 L 320.10 83.81 L 323.75 85.29 L 327.40 92.82 L 331.05 86.68 L 334.70 81.76 L 338.35 78.35 L 342.00 75.74 L 345.65 84.70 L 349.30 79.26 L 352.95 80.29 L 356.60 72.81 L 360.25 71.11 L 363.90 73.06 L 367.55 69.60 L 371.20 75.19 L 374.85 72.65 L 378.50 71.92 L 382.15 73.26 L 385.80 71.23 L 389.45 66.64 L 393.10 70.86 L 396.75 66.73 L 400.40 68.05 L 404.05 65.38 L 407.70 65.90 L 411.35 71.22 L 415.00 73.94 L 418.65 75.80 L 422.30 75.89 L 425.95 80.06 L 429.60 80.19 L 433.25 76.63 L 436.90 73.66 L 440.55 84.27 L 444.20 80.01 L 447.85 82.99 L 451.50 86.54 L 455.15 83.73 L 458.80 82.58 L 462.45 79.55 L 466.10 80.52 L 469.75 75.95 L 473.40 73.72 L 477.05 77.97 L 480.70 73.58 L 484.35 70.92 L 488.00 77.77 L 491.65 82.15 L 495.30 83.00 L 498.95 88.69 L 502.60 87.59 L 506.25 83.02 L 509.90 85.96 L 513.55 81.23 L 517.20 77.22 L 520.85 78.33 L 524.50 79.95 L 528.15 73.03 L 531.80 76.64 L 535.45 68.84 L 539.10 72.71 L 542.75 74.84 L 546.40 74.59 L 550.05 77.34 L 553.70 80.60 L 557.35 86.25 L 561.00 84.44 L 564.65 82.06 L 568.30 75.70 L 571.95 76.03 L 575.60 72.81 L 579.25 71.81 L 582.90 70.42 L 586.55 69.57 L 590.20 72.74 L 593.85 75.25 L 597.50 73.92 L 601.15 81.38 L 604.80 75.67 L 608.45 86.08 L 612.10 85.68 L 615.75 86.35 L 619.40 83.93 L 623.05 87.76 L 626.70 91.96 L 630.35 96.69 L 634.00 101.76 L 637.65 99.79 L 641.30 97.54 L 644.95 102.82 L 648.60 102.16 L 652.25 104.94 L 655.90 111.47 L 659.55 118.05 L 663.20 125.77 L 666.85 124.22 L 670.50 127.58 L 674.15 126.98 L 677.80 131.05 L 681.45 137.06 L 685.10 146.44 L 688.75 145.15 L 692.40 146.67 L 696.05 147.59 L 699.70 148.00 L 703.35 146.37 L 707.00 141.07 L 710.65 141.00 L 714.30 144.94 L 717.95 142.37 L 721.60 143.76 L 725.25 132.22 L 728.90 128.58 L 732.55 123.93 L 736.20 122.11 L 739.85 120.20 L 743.50 117.34 L 747.15 111.98 L 750.80 109.39 L 754.45 109.01 L 758.10 111.21 L 761.75 112.04 L 765.40 104.00 L 769.05 106.33 L 772.70 105.73 L 776.35 98.87 L 780.00 98.31" class="path-2" />
<path d="M 50.00 132.80 L 53.65 131.55 L 57.30 132.97 L 60.95 138.37 L 64.60 139.43 L 68.25 139.34 L 71.90 140.74 L 75.55 139.09 L 79.20 135.05 L 82.85 134.11 L 86.50 132.81 L 90.15 126.00 L 93.80 131.97 L 97.45 131.81 L 101.10 133.67 L 104.75 138.60 L 108.40 134.47 L 112.05 134.45 L 115.70 134.69 L 119.35 132.98 L 123.00 139.75 L 126.65 134.15 L 130.30 135.40 L 133.95 136.99 L 137.60 133.77 L 141.25 131.73 L 144.90 126.67 L 148.55 125.82 L 152.20 128.91 L 155.85 131.41 L 159.50 126.67 L 163.15 125.39 L 166.80 130.66 L 170.45 125.68 L 174.10 123.53 L 177.75 128.37 L 181.40 128.79 L 185.05 131.04 L 188.70 128.09 L 192.35 127.37 L 196.00 126.44 L 199.65 124.32 L 203.30 122.83 L 206.95 126.56 L 210.60 125.31 L 214.25 126.30 L 217.90 122.64 L 221.55 120.53 L 225.20 111.94 L 228.85 107.18 L 232.50 109.73 L 236.15 105.94 L 239.80 109.78 L 243.45 112.03 L 247.10 110.74 L 250.75 110.30 L 254.40 107.86 L 258.05 114.73 L 261.70 108.98 L 265.35 113.97 L 269.00 114.01 L 272.65 116.66 L 276.30 122.17 L 279.95 123.65 L 283.60 133.97 L 287.25 137.27 L 290.90 138.06 L 294.55 131.74 L 298.20 132.93 L 301.85 130.85 L 305.50 132.11 L 309.15 122.33 L 312.80 118.64 L 316.45 120.71 L 320.10 115.35 L 323.75 119.01 L 327.40 115.18 L 331.05 116.01 L 334.70 108.27 L 338.35 109.64 L 342.00 117.01 L 345.65 116.08 L 349.30 113.08 L 352.95 107.23 L 356.60 99.88 L 360.25 102.04 L 363.90 103.92 L 367.55 107.29 L 371.20 108.08 L 374.85 108.37 L 378.50 104.13 L 382.15 106.90 L 385.80 109.06 L 389.45 111.31 L 393.10 114.42 L 396.75 112.38 L 400.40 115.41 L 404.05 115.50 L 407.70 117.99 L 411.35 115.27 L 415.00 120.22 L 418.65 119.59 L 422.30 121.21 L 425.95 127.17 L 429.60 131.88 L 433.25 131.80 L 436.90 123.87 L 440.55 124.47 L 444.20 120.25 L 447.85 126.43 L 451.50 124.40 L 455.15 119.87 L 458.80 120.24 L 462.45 120.31 L 466.10 122.51 L 469.75 124.85 L 473.40 121.61 L 477.05 126.05 L 480.70 125.63 L 484.35 123.94 L 488.00 122.01 L 491.65 122.71 L 495.30 120.42 L 498.95 120.58 L 502.60 125.59 L 506.25 134.01 L 509.90 128.55 L 513.55 125.48 L 517.20 121.72 L 520.85 122.92 L 524.50 122.78 L 528.15 124.75 L 531.80 115.78 L 535.45 114.85 L 539.10 120.61 L 542.75 113.50 L 546.40 110.73 L 550.05 105.59 L 553.70 104.79 L 557.35 108.46 L 561.00 108.30 L 564.65 103.03 L 568.30 102.31 L 571.95 101.35 L 575.60 102.55 L 579.25 95.13 L 582.90 92.85 L 586.55 99.03 L 590.20 99.93 L 593.85 97.00 L 597.50 97.83 L 601.15 93.08 L 604.80 97.68 L 608.45 101.00 L 612.10 99.00 L 615.75 104.08 L 619.40 100.06 L 623.05 102.17 L 626.70 111.85 L 630.35 111.91 L 634.00 115.75 L 637.65 114.98 L 641.30 117.29 L 644.95 117.13 L 648.60 120.81 L 652.25 127.04 L 655.90 127.32 L 659.55 126.09 L 663.20 125.51 L 666.85 121.90 L 670.50 119.58 L 674.15 118.79 L 677.80 119.60 L 681.45 118.56 L 685.10 118.02 L 688.75 119.93 L 692.40 123.84 L 696.05 118.19 L 699.70 118.11 L 703.35 119.46 L 707.00 128.83 L 710.65 125.14 L 714.30 129.51 L 717.95 131.92 L 721.60 139.10 L 725.25 139.96 L 728.90 136.67 L 732.55 138.81 L 736.20 137.25 L 739.85 131.31 L 743.50 128.72 L 747.15 129.82 L 750.80 126.35 L 754.45 127.19 L 758.10 130.17 L 761.75 130.88 L 765.40 119.68 L 769.05 120.27 L 772.70 120.28 L 776.35 118.41 L 780.00 112.31" class="path-3" />
<path d="M 50.00 132.80 L 53.65 138.14 L 57.30 139.39 L 60.95 136.51 L 64.60 134.12 L 68.25 131.61 L 71.90 137.20 L 75.55 136.57 L 79.20 136.64 L 82.85 138.68 L 86.50 143.51 L 90.15 144.42 L 93.80 138.67 L 97.45 145.17 L 101.10 148.39 L 104.75 141.91 L 108.40 147.84 L 112.05 144.18 L 115.70 145.54 L 119.35 153.44 L 123.00 156.38 L 126.65 157.60 L 130.30 161.52 L 133.95 163.61 L 137.60 161.31 L 141.25 156.11 L 144.90 154.04 L 148.55 160.54 L 152.20 162.13 L 155.85 157.50 L 159.50 155.10 L 163.15 158.36 L 166.80 159.07 L 170.45 155.73 L 174.10 159.46 L 177.75 161.94 L 181.40 158.42 L 185.05 154.94 L 188.70 156.51 L 192.35 150.73 L 196.00 146.23 L 199.65 152.61 L 203.30 151.28 L 206.95 154.59 L 210.60 149.30 L 214.25 148.11 L 217.90 145.32 L 221.55 148.49 L 225.20 152.50 L 228.85 155.78 L 232.50 158.09 L 236.15 150.10 L 239.80 155.35 L 243.45 152.93 L 247.10 157.29 L 250.75 149.80 L 254.40 148.76 L 258.05 153.94 L 261.70 155.79 L 265.35 160.64 L 269.00 154.59 L 272.65 157.71 L 276.30 161.11 L 279.95 156.12 L 283.60 166.14 L 287.25 174.16 L 290.90 177.98 L 294.55 184.93 L 298.20 184.71 L 301.85 180.66 L 305.50 183.11 L 309.15 186.14 L 312.80 186.55 L 316.45 192.75 L 320.10 195.41 L 323.75 192.60 L 327.40 188.83 L 331.05 192.77 L 334.70 189.26 L 338.35 190.47 L 342.00 188.89 L 345.65 193.62 L 349.30 195.50 L 352.95 192.31 L 356.60 190.72 L 360.25 195.26 L 363.90 186.77 L 367.55 183.84 L 371.20 176.46 L 374.85 174.11 L 378.50 174.83 L 382.15 177.32 L 385.80 176.47 L 389.45 172.32 L 393.10 178.80 L 396.75 180.40 L 400.40 178.67 L 404.05 181.14 L 407.70 179.39 L 411.35 182.66 L 415.00 182.52 L 418.65 187.15 L 422.30 187.60 L 425.95 186.66 L 429.60 190.78 L 433.25 192.54 L 436.90 194.03 L 440.55 190.04 L 444.20 191.54 L 447.85 189.11 L 451.50 180.89 L 455.15 189.41 L 458.80 191.09 L 462.45 189.99 L 466.10 191.65 L 469.75 191.86 L 473.40 201.36 L 477.05 207.64 L 480.70 206.65 L 484.35 203.80 L 488.00 211.16 L 491.65 217.44 L 495.30 217.25 L 498.95 224.94 L 502.60 223.05 L 506.25 226.85 L 509.90 229.24 L 513.55 232.30 L 517.20 234.62 L 520.85 233.23 L 524.50 217.56 L 528.15 215.89 L 531.80 216.19 L 535.45 213.23 L 539.10 207.01 L 542.75 200.22 L 546.40 197.78 L 550.05 194.97 L 553.70 194.11 L 557.35 191.84 L 561.00 197.13 L 564.65 198.69 L 568.30 194.22 L 571.95 195.62 L 575.60 190.99 L 579.25 189.68 L 582.90 194.76 L 586.55 193.97 L 590.20 192.42 L 593.85 192.30 L 597.50 186.49 L 601.15 185.11 L 604.80 176.20 L 608.45 174.36 L 612.10 167.75 L 615.75 163.20 L 619.40 170.35 L 623.05 171.25 L 626.70 167.11 L 630.35 163.74 L 634.00 157.47 L 637.65 157.65 L 641.30 159.01 L 644.95 156.63 L 648.60 161.02 L 652.25 165.53 L 655.90 168.94 L 659.55 169.16 L 663.20 168.22 L 666.85 162.78 L 670.50 161.96 L 674.15 156.84 L 677.80 167.41 L 681.45 168.76 L 685.10 172.19 L 688.75 169.79 L 692.40 175.87 L 696.05 186.24 L 699.70 184.63 L 703.35 187.36 L 707.00 188.18 L 710.65 187.07 L 714.30 184.20 L 717.95 186.82 L 721.60 194.63 L 725.25 193.42 L 728.90 192.86 L 732.55 190.38 L 736.20 192.23 L 739.85 195.52 L 743.50 198.16 L 747.15 205.83 L 750.80 209.96 L 754.45 207.36 L 758.10 204.69 L 761.75 203.89 L 765.40 211.57 L 769.05 219.52 L 772.70 221.38 L 776.35 219.93 L 780.00 219.80" class="path-4" />
<line x1="50" y1="132.8" x2="780" y2="132.8" stroke="#4b5563" stroke-width="0.8" stroke-dasharray="6 3" />
</svg>