<svg xmlns="http://www.w3.org/2000/svg" viewBox="0 0 800 300" width="800" height="300">
<style>
.axis-line { stroke: #6b7280; stroke-width: 0.5; }
.axis-text { font-family: monospace; font-size: 11px; fill: #9ca3af; }
.title-text { font-family: monospace; font-size: 14px; fill: #d1d5db; font-weight: bold; }
.grid-line { stroke: #374151; stroke-width: 0.3; stroke-dasharray: 4 2; }
.path-0 { fill: none; stroke: #3b82f6; stroke-width: 2; stroke-linecap: round; opacity: 0.85; animation: draw-0 8s ease-in-out 0.0s infinite; stroke-dasharray: 878; stroke-dashoffset: 878;}
@keyframes draw-0 { 0% { stroke-dashoffset: 878; } 38% { stroke-dashoffset: 0; } 62% { stroke-dashoffset: 0; } 100% { stroke-dashoffset: 878; }}
.path-1 { fill: none; stroke: #ef4444; stroke-width: 2; stroke-linecap: round; opacity: 0.85; animation: draw-1 8s ease-in-out 0.4s infinite; stroke-dasharray: 901; stroke-dashoffset: 901;}
@keyframes draw-1 { 0% { stroke-dashoffset: 901; } 38% { stroke-dashoffset: 0; } 62% { stroke-dashoffset: 0; } 100% { stroke-dashoffset: 901; }}
.path-2 { fill: none; stroke: #22c55e; stroke-width: 2; stroke-linecap: round; opacity: 0.85; animation: draw-2 8s ease-in-out 0.8s infinite; stroke-dasharray: 882; stroke-dashoffset: 882;}
@keyframes draw-2 { 0% { stroke-dashoffset: 882; } 38% { stroke-dashoffset: 0; } 62% { stroke-dashoffset: 0; } 100% { stroke-dashoffset: 882; }}
.path-3 { fill: none; stroke: #f59e0b; stroke-width: 2; stroke-linecap: round; opacity: 0.85; animation: draw-3 8s ease-in-out 1.2000000000000002s infinite; stroke-dasharray: 901; stroke-dashoffset: 901;}
@keyframes draw-3 { 0% { stroke-dashoffset: 901; } 38% { stroke-dashoffset: 0; } 62% { stroke-dashoffset: 0; } 100% { stroke-dashoffset: 901; }}
.path-4 { fill: none; stroke: #a855f7; stroke-width: 2; stroke-linecap: round; opacity: 0.85; animation: draw-4 8s ease-in-out 1.6s infinite; stroke-dasharray: 906; stroke-dashoffset: 906;}
@keyframes draw-4 { 0% { stroke-dashoffset: 906; } 38% { stroke-dashoffset: 0; } 62% { stroke-dashoffset: 0; } 100% { stroke-dashoffset: 906; }}
</style>
<rect width="800" height="300" rx="8" fill="#0d1117" />
<line x1="50" y1="260.0" x2="780" y2="260.0" class="grid-line" />
<text x="44" y="264.0" text-anchor="end" class="axis-text">-2.2</text>
<line x1="50" y1="216.0" x2="780" y2="216.0" class="grid-line" />
<text x="44" y="220.0" text-anchor="end" class="axis-text">-1.1</text>
<line x1="50" y1="172.0" x2="780" y2="172.0" class="grid-line" />
<text x="44" y="176.0" text-anchor="end" class="axis-text">0.1</text>
<line x1="50" y1="128.0" x2="780" y2="128.0" class="grid-line" />
<text x="44" y="132.0" text-anchor="end" class="axis-text">1.2</text>
<line x1="50" y1="84.0" x2="780" y2="84.0" class="grid-line" />
<text x="44" y="88.0" text-anchor="end" class="axis-text">2.3</text>
<line x1="50" y1="40.0" x2="780" y2="40.0" class="grid-line" />
<text x="44" y="44.0" text-anchor="end" class="axis-text">3.4</text>
<line x1="50.0" y1="40" x2="50.0" y2="260" class="grid-line" />
<line x1="196.0" y1="40" x2="196.0" y2="260" class="grid-line" />
<line x1="342.0" y1="40" x2="342.0" y2="260" class="grid-line" />
<line x1="488.0" y1="40" x2="488.0" y2="260" class="grid-line" />
<line x1="634.0" y1="40" x2="634.0" y2="260" class="grid-line" />
<line x1="780.0" y1="40" x2="780.0" y2="260" class="grid-line" />
<line x1="50" y1="260" x2="780" y2="260" class="axis-line" />
<line x1="50" y1="40" x2="50" y2="260" class="axis-line" />
<text x="400.0" y="295" text-anchor="middle" class="axis-text">t</text>
<text x="12" y="150.0" text-anchor="middle" class="axis-text" transform="rotate(-90 12 150.0)">W(t)</text>
<text x="400.0" y="22" text-anchor="middle" class="title-text">Brownian Motion</text>
<path d="M 50.00 174.37 L 53.65 175.43 L 57.30 176.49 L 60.95 176.69 L 64.60 174.68 L 68.25 171.45 L 71.90 173.58 L 75.55 173.85 L 79.20 171.83 L 82.85 171.48 L 86.50 174.65 L 90.15 172.48 L 93.80 170.81 L 97.45 173.14 L 101.10 170.81 L 104.75 170.10 L 108.40 170.11 L 112.05 170.69 L 115.70 169.49 L 119.35 171.92 L 123.00 171.82 L 126.65 173.98 L 130.30 176.79 L 133.95 178.39 L 137.60 177.91 L 141.25 176.25 L 144.90 177.45 L 148.55 181.10 L 152.20 183.32 L 155.85 176.77 L 159.50 177.41 L 163.15 181.12 L 166.80 180.80 L 170.45 180.01 L 174.10 177.00 L 177.75 179.66 L 181.40 180.74 L 185.05 184.28 L 188.70 186.33 L 192.35 187.36 L 196.00 192.05 L 199.65 190.40 L 203.30 187.43 L 206.95 189.03 L 210.60 190.29 L 214.25 190.31 L 217.90 191.84 L 221.55 189.19 L 225.20 191.54 L 228.85 190.70 L 232.50 191.68 L 236.15 189.40 L 239.80 191.38 L 243.45 191.71 L 247.10 191.04 L 250.75 195.43 L 254.40 193.20 L 258.05 191.10 L 261.70 190.73 L 265.35 190.29 L 269.00 189.88 L 272.65 189.17 L 276.30 188.97 L 279.95 192.51 L 283.60 192.08 L 287.25 194.40 L 290.90 194.48 L 294.55 194.94 L 298.20 194.79 L 301.85 200.33 L 305.50 200.42 L 309.15 195.65 L 312.80 194.66 L 316.45 196.13 L 320.10 200.41 L 323.75 199.32 L 327.40 199.38 L 331.05 201.36 L 334.70 203.05 L 338.35 201.82 L 342.00 204.71 L 345.65 210.07 L 349.30 207.15 L 352.95 209.97 L 356.60 212.84 L 360.25 212.04 L 363.90 215.22 L 367.55 211.50 L 371.20 213.35 L 374.85 210.75 L 378.50 210.44 L 382.15 207.23 L 385.80 209.67 L 389.45 209.32 L 393.10 206.02 L 396.75 204.64 L 400.40 205.21 L 404.05 203.50 L 407.70 207.93 L 411.35 208.89 L 415.00 207.38 L 418.65 210.21 L 422.30 213.71 L 425.95 214.47 L 429.60 214.91 L 433.25 215.73 L 436.90 217.57 L 440.55 222.35 L 444.20 213.97 L 447.85 210.67 L 451.50 210.86 L 455.15 211.08 L 458.80 209.71 L 462.45 215.11 L 466.10 217.03 L 469.75 217.62 L 473.40 212.51 L 477.05 213.08 L 480.70 210.18 L 484.35 206.67 L 488.00 211.55 L 491.65 212.34 L 495.30 212.55 L 498.95 211.82 L 502.60 214.74 L 506.25 210.62 L 509.90 210.55 L 513.55 210.01 L 517.20 211.17 L 520.85 212.89 L 524.50 214.98 L 528.15 213.10 L 531.80 213.56 L 535.45 212.61 L 539.10 213.26 L 542.75 208.88 L 546.40 212.86 L 550.05 214.04 L 553.70 215.69 L 557.35 215.05 L 561.00 212.75 L 564.65 215.05 L 568.30 215.45 L 571.95 221.65 L 575.60 224.05 L 579.25 222.85 L 582.90 223.59 L 586.55 221.39 L 590.20 225.62 L 593.85 226.66 L 597.50 224.85 L 601.15 225.17 L 604.80 224.53 L 608.45 225.98 L 612.10 225.90 L 615.75 226.96 L 619.40 230.04 L 623.05 230.44 L 626.70 229.47 L 630.35 232.91 L 634.00 228.04 L 637.65 228.26 L 641.30 229.14 L 644.95 224.80 L 648.60 226.48 L 652.25 230.04 L 655.90 230.68 L 659.55 233.79 L 663.20 233.71 L 666.85 232.92 L 670.50 234.62 L 674.15 230.67 L 677.80 229.20 L 681.45 225.10 L 685.10 230.90 L 688.75 233.07 L 692.40 233.07 L 696.05 230.95 L 699.70 234.55 L 703.35 233.38 L 707.00 227.83 L 710.65 230.73 L 714.30 229.80 L 717.95 228.63 L 721.60 229.69 L 725.25 228.61 L 728.90 229.32 L 732.55 232.60 L 736.20 228.68 L 739.85 230.65 L 743.50 231.57 L 747.15 229.87 L 750.80 230.33 L 754.45 230.97 L 758.10 233.44 L 761.75 229.74 L 765.40 226.41 L 769.05 227.67 L 772.70 224.89 L 776.35 224.51 L 780.00 227.41" class="path-0" />
<path d="M 50.00 174.37 L 53.65 175.58 L 57.30 172.84 L 60.95 175.63 L 64.60 173.42 L 68.25 177.52 L 71.90 177.82 L 75.55 173.45 L 79.20 171.63 L 82.85 171.81 L 86.50 172.04 L 90.15 167.95 L 93.80 169.04 L 97.45 169.63 L 101.10 167.38 L 104.75 169.89 L 108.40 173.31 L 112.05 170.84 L 115.70 167.29 L 119.35 169.67 L 123.00 169.81 L 126.65 167.52 L 130.30 163.17 L 133.95 167.19 L 137.60 165.55 L 141.25 169.35 L 144.90 171.21 L 148.55 166.39 L 152.20 164.03 L 155.85 159.65 L 159.50 159.75 L 163.15 163.10 L 166.80 165.54 L 170.45 165.62 L 174.10 165.94 L 177.75 164.89 L 181.40 171.68 L 185.05 169.98 L 188.70 166.71 L 192.35 164.13 L 196.00 166.69 L 199.65 160.99 L 203.30 159.68 L 206.95 160.93 L 210.60 160.72 L 214.25 160.22 L 217.90 159.33 L 221.55 158.66 L 225.20 156.76 L 228.85 155.08 L 232.50 156.44 L 236.15 159.10 L 239.80 159.66 L 243.45 158.47 L 247.10 155.89 L 250.75 151.25 L 254.40 156.09 L 258.05 156.94 L 261.70 157.07 L 265.35 155.29 L 269.00 156.80 L 272.65 155.82 L 276.30 160.18 L 279.95 158.59 L 283.60 158.68 L 287.25 160.55 L 290.90 158.50 L 294.55 158.04 L 298.20 159.02 L 301.85 156.46 L 305.50 158.58 L 309.15 159.09 L 312.80 161.70 L 316.45 159.52 L 320.10 164.53 L 323.75 165.04 L 327.40 165.66 L 331.05 164.66 L 334.70 166.45 L 338.35 162.92 L 342.00 159.82 L 345.65 160.07 L 349.30 165.37 L 352.95 164.03 L 356.60 163.34 L 360.25 161.53 L 363.90 159.20 L 367.55 163.68 L 371.20 163.74 L 374.85 161.50 L 378.50 158.44 L 382.15 159.54 L 385.80 159.75 L 389.45 158.78 L 393.10 159.19 L 396.75 160.21 L 400.40 167.37 L 404.05 167.79 L 407.70 163.96 L 411.35 160.89 L 415.00 162.95 L 418.65 164.93 L 422.30 164.22 L 425.95 164.97 L 429.60 163.94 L 433.25 163.59 L 436.90 166.94 L 440.55 163.52 L 444.20 162.63 L 447.85 158.43 L 451.50 161.11 L 455.15 163.96 L 458.80 163.20 L 462.45 162.36 L 466.10 161.27 L 469.75 161.47 L 473.40 159.74 L 477.05 160.90 L 480.70 165.41 L 484.35 164.28 L 488.00 163.91 L 491.65 167.26 L 495.30 164.36 L 498.95 161.77 L 502.60 162.60 L 506.25 156.50 L 509.90 158.43 L 513.55 154.48 L 517.20 152.03 L 520.85 152.81 L 524.50 153.22 L 528.15 155.36 L 531.80 153.53 L 535.45 148.51 L 539.10 146.89 L 542.75 149.04 L 546.40 150.13 L 550.05 156.10 L 553.70 150.82 L 557.35 152.65 L 561.00 153.07 L 564.65 154.69 L 568.30 157.77 L 571.95 157.49 L 575.60 156.11 L 579.25 158.13 L 582.90 157.64 L 586.55 159.78 L 590.20 158.78 L 593.85 157.26 L 597.50 154.10 L 601.15 157.74 L 604.80 158.84 L 608.45 158.38 L 612.10 158.48 L 615.75 155.36 L 619.40 156.55 L 623.05 155.83 L 626.70 155.96 L 630.35 153.05 L 634.00 149.84 L 637.65 151.59 L 641.30 154.74 L 644.95 154.96 L 648.60 158.78 L 652.25 150.89 L 655.90 150.94 L 659.55 148.40 L 663.20 145.58 L 666.85 149.30 L 670.50 153.72 L 674.15 151.15 L 677.80 147.28 L 681.45 142.61 L 685.10 140.17 L 688.75 142.18 L 692.40 136.68 L 696.05 133.34 L 699.70 129.89 L 703.35 125.03 L 707.00 124.86 L 710.65 121.42 L 714.30 125.11 L 717.95 125.26 L 721.60 122.36 L 725.25 121.57 L 728.90 121.27 L 732.55 123.35 L 736.20 122.23 L 739.85 119.48 L 743.50 112.40 L 747.15 111.73 L 750.80 109.93 L 754.45 106.52 L 758.10 103.80 L 761.75 102.23 L 765.40 101.35 L 769.05 102.69 L 772.70 102.33 L 776.35 99.80 L 780.00 96.14" class="path-1" />
<path d="M 50.00 174.37 L 53.65 172.55 L 57.30 176.89 L 60.95 176.48 L 64.60 177.07 L 68.25 174.91 L 71.90 176.38 L 75.55 177.41 L 79.20 182.34 L 82.85 183.22 L 86.50 180.18 L 90.15 177.41 L 93.80 179.83 L 97.45 182.31 L 101.10 181.49 L 104.75 183.94 L 108.40 184.58 L 112.05 186.88 L 115.70 187.87 L 119.35 187.28 L 123.00 187.27 L 126.65 189.01 L 130.30 191.21 L 133.95 183.80 L 137.60 190.49 L 141.25 189.50 L 144.90 194.19 L 148.55 192.86 L 152.20 194.71 L 155.85 195.42 L 159.50 198.95 L 163.15 200.49 L 166.80 201.23 L 170.45 203.31 L 174.10 198.49 L 177.75 199.82 L 181.40 200.07 L 185.05 202.28 L 188.70 200.48 L 192.35 201.65 L 196.00 197.53 L 199.65 205.13 L 203.30 209.67 L 206.95 209.49 L 210.60 211.47 L 214.25 215.26 L 217.90 212.87 L 221.55 214.84 L 225.20 213.83 L 228.85 210.93 L 232.50 209.22 L 236.15 209.97 L 239.80 210.73 L 243.45 210.85 L 247.10 211.64 L 250.75 211.93 L 254.40 211.68 L 258.05 204.95 L 261.70 203.15 L 265.35 203.55 L 269.00 199.75 L 272.65 198.21 L 276.30 197.89 L 279.95 198.81 L 283.60 194.59 L 287.25 190.84 L 290.90 196.26 L 294.55 196.93 L 298.20 197.58 L 301.85 195.52 L 305.50 201.61 L 309.15 204.85 L 312.80 204.99 L 316.45 208.57 L 320.10 208.21 L 323.75 210.59 L 327.40 209.61 L 331.05 213.29 L 334.70 212.44 L 338.35 213.61 L 342.00 210.66 L 345.65 208.75 L 349.30 205.03 L 352.95 203.69 L 356.60 204.10 L 360.25 202.21 L 363.90 201.28 L 367.55 200.15 L 371.20 198.14 L 374.85 200.44 L 378.50 200.33 L 382.15 194.59 L 385.80 194.18 L 389.45 192.03 L 393.10 190.58 L 396.75 187.56 L 400.40 189.53 L 404.05 188.33 L 407.70 187.81 L 411.35 187.83 L 415.00 184.80 L 418.65 183.41 L 422.30 186.64 L 425.95 189.56 L 429.60 185.11 L 433.25 181.26 L 436.90 179.18 L 440.55 180.59 L 444.20 181.51 L 447.85 183.03 L 451.50 181.84 L 455.15 183.42 L 458.80 183.63 L 462.45 183.60 L 466.10 185.33 L 469.75 186.00 L 473.40 185.70 L 477.05 185.28 L 480.70 187.27 L 484.35 184.36 L 488.00 181.74 L 491.65 178.28 L 495.30 178.71 L 498.95 182.56 L 502.60 180.94 L 506.25 184.40 L 509.90 184.26 L 513.55 184.47 L 517.20 185.23 L 520.85 191.49 L 524.50 192.83 L 528.15 193.97 L 531.80 193.31 L 535.45 194.48 L 539.10 196.40 L 542.75 199.21 L 546.40 195.41 L 550.05 197.87 L 553.70 194.67 L 557.35 196.14 L 561.00 196.43 L 564.65 195.03 L 568.30 194.55 L 571.95 195.69 L 575.60 196.63 L 579.25 197.39 L 582.90 202.07 L 586.55 201.23 L 590.20 202.59 L 593.85 202.46 L 597.50 201.71 L 601.15 203.40 L 604.80 205.89 L 608.45 204.61 L 612.10 202.75 L 615.75 200.09 L 619.40 202.94 L 623.05 204.61 L 626.70 204.65 L 630.35 208.12 L 634.00 206.87 L 637.65 207.63 L 641.30 208.09 L 644.95 206.64 L 648.60 207.97 L 652.25 204.44 L 655.90 202.71 L 659.55 210.77 L 663.20 213.36 L 666.85 218.17 L 670.50 218.46 L 674.15 222.14 L 677.80 225.42 L 681.45 222.99 L 685.10 222.97 L 688.75 223.52 L 692.40 222.08 L 696.05 222.83 L 699.70 222.11 L 703.35 226.63 L 707.00 226.53 L 710.65 228.98 L 714.30 227.25 L 717.95 226.36 L 721.60 229.11 L 725.25 229.26 L 728.90 230.31 L 732.55 228.35 L 736.20 226.47 L 739.85 230.22 L 743.50 227.94 L 747.15 224.37 L 750.80 221.69 L 754.45 220.46 L 758.10 223.64 L 761.75 227.39 L 765.40 227.42 L 769.05 226.57 L 772.70 227.80 L 776.35 229.79 L 780.00 227.06" class="path-2" />
<path d="M 50.00 174.37 L 53.65 176.60 L 57.30 175.83 L 60.95 173.52 L 64.60 172.76 L 68.25 170.84 L 71.90 170.16 L 75.55 171.08 L 79.20 172.98 L 82.85 171.47 L 86.50 172.75 L 90.15 172.93 L 93.80 177.96 L 97.45 177.70 L 101.10 178.84 L 104.75 180.27 L 108.40 183.25 L 112.05 183.86 L 115.70 182.30 L 119.35 181.95 L 123.00 178.98 L 126.65 173.66 L 130.30 172.28 L 133.95 174.16 L 137.60 168.26 L 141.25 166.20 L 144.90 168.98 L 148.55 171.24 L 152.20 166.73 L 155.85 171.61 L 159.50 169.17 L 163.15 166.44 L 166.80 163.23 L 170.45 163.27 L 174.10 162.23 L 177.75 159.81 L 181.40 154.15 L 185.05 157.85 L 188.70 156.28 L 192.35 158.79 L 196.00 155.69 L 199.65 150.85 L 203.30 151.47 L 206.95 151.31 L 210.60 147.52 L 214.25 143.66 L 217.90 142.71 L 221.55 143.14 L 225.20 145.96 L 228.85 144.50 L 232.50 148.72 L 236.15 150.32 L 239.80 152.65 L 243.45 152.54 L 247.10 151.85 L 250.75 150.00 L 254.40 144.78 L 258.05 141.06 L 261.70 144.09 L 265.35 138.07 L 269.00 142.88 L 272.65 141.22 L 276.30 139.76 L 279.95 139.24 L 283.60 144.84 L 287.25 142.31 L 290.90 143.68 L 294.55 144.68 L 298.20 143.62 L 301.85 140.77 L 305.50 143.24 L 309.15 143.36 L 312.80 140.95 L 316.45 139.23 L 320.10 140.94 L 323.75 136.37 L 327.40 142.94 L 331.05 142.80 L 334.70 143.81 L 338.35 139.38 L 342.00 138.98 L 345.65 133.34 L 349.30 132.81 L 352.95 130.66 L 356.60 133.29 L 360.25 130.28 L 363.90 130.91 L 367.55 130.00 L 371.20 128.64 L 374.85 127.59 L 378.50 127.69 L 382.15 123.48 L 385.80 121.74 L 389.45 122.69 L 393.10 121.94 L 396.75 125.58 L 400.40 125.73 L 404.05 125.48 L 407.70 127.10 L 411.35 126.14 L 415.00 126.13 L 418.65 126.73 L 422.30 124.57 L 425.95 125.28 L 429.60 127.30 L 433.25 132.52 L 436.90 133.53 L 440.55 135.65 L 444.20 137.53 L 447.85 139.49 L 451.50 137.58 L 455.15 139.07 L 458.80 140.05 L 462.45 140.67 L 466.10 143.92 L 469.75 139.27 L 473.40 135.92 L 477.05 132.42 L 480.70 134.54 L 484.35 135.19 L 488.00 132.99 L 491.65 133.07 L 495.30 131.97 L 498.95 130.97 L 502.60 131.63 L 506.25 132.58 L 509.90 133.00 L 513.55 132.80 L 517.20 131.13 L 520.85 129.52 L 524.50 131.39 L 528.15 127.28 L 531.80 127.51 L 535.45 124.91 L 539.10 118.80 L 542.75 123.40 L 546.40 120.20 L 550.05 121.03 L 553.70 116.22 L 557.35 118.50 L 561.00 114.15 L 564.65 112.64 L 568.30 114.57 L 571.95 114.22 L 575.60 114.67 L 579.25 115.28 L 582.90 113.64 L 586.55 107.56 L 590.20 107.04 L 593.85 107.14 L 597.50 108.66 L 601.15 111.86 L 604.80 111.62 L 608.45 111.07 L 612.10 112.06 L 615.75 111.29 L 619.40 110.17 L 623.05 104.89 L 626.70 106.89 L 630.35 107.65 L 634.00 106.38 L 637.65 111.73 L 641.30 111.99 L 644.95 108.51 L 648.60 103.68 L 652.25 106.50 L 655.90 104.90 L 659.55 106.45 L 663.20 108.22 L 666.85 102.74 L 670.50 104.87 L 674.15 100.02 L 677.80 95.43 L 681.45 90.60 L 685.10 88.46 L 688.75 84.09 L 692.40 85.76 L 696.05 81.38 L 699.70 77.49 L 703.35 74.77 L 707.00 72.26 L 710.65 69.52 L 714.30 72.34 L 717.95 70.20 L 721.60 71.37 L 725.25 69.94 L 728.90 68.72 L 732.55 69.43 L 736.20 70.03 L 739.85 74.63 L 743.50 71.82 L 747.15 67.90 L 750.80 67.01 L 754.45 66.75 L 758.10 66.07 L 761.75 68.81 L 765.40 65.38 L 769.05 67.70 L 772.70 67.73 L 776.35 69.91 L 780.00 69.46" class="path-3" />
<path d="M 50.00 174.37 L 53.65 173.60 L 57.30 167.32 L 60.95 168.65 L 64.60 166.10 L 68.25 166.44 L 71.90 171.08 L 75.55 169.34 L 79.20 168.75 L 82.85 165.72 L 86.50 165.64 L 90.15 165.51 L 93.80 168.21 L 97.45 165.74 L 101.10 163.08 L 104.75 161.69 L 108.40 161.25 L 112.05 163.10 L 115.70 163.34 L 119.35 165.47 L 123.00 161.74 L 126.65 162.26 L 130.30 161.37 L 133.95 163.36 L 137.60 159.51 L 141.25 159.41 L 144.90 158.93 L 148.55 157.08 L 152.20 156.93 L 155.85 161.35 L 159.50 163.70 L 163.15 163.57 L 166.80 166.43 L 170.45 169.61 L 174.10 168.26 L 177.75 169.36 L 181.40 168.42 L 185.05 171.42 L 188.70 169.94 L 192.35 167.44 L 196.00 166.67 L 199.65 171.74 L 203.30 176.17 L 206.95 174.19 L 210.60 176.49 L 214.25 175.36 L 217.90 176.40 L 221.55 179.34 L 225.20 176.89 L 228.85 180.38 L 232.50 183.73 L 236.15 183.47 L 239.80 186.57 L 243.45 192.32 L 247.10 192.58 L 250.75 193.87 L 254.40 188.09 L 258.05 193.15 L 261.70 194.13 L 265.35 191.24 L 269.00 191.12 L 272.65 192.09 L 276.30 189.93 L 279.95 185.95 L 283.60 189.17 L 287.25 187.16 L 290.90 185.13 L 294.55 189.05 L 298.20 186.67 L 301.85 187.01 L 305.50 187.99 L 309.15 188.00 L 312.80 189.89 L 316.45 190.76 L 320.10 189.03 L 323.75 185.95 L 327.40 184.98 L 331.05 189.12 L 334.70 187.95 L 338.35 187.67 L 342.00 188.30 L 345.65 181.89 L 349.30 186.73 L 352.95 184.91 L 356.60 189.19 L 360.25 191.65 L 363.90 200.37 L 367.55 199.14 L 371.20 199.83 L 374.85 200.32 L 378.50 201.90 L 382.15 200.68 L 385.80 202.30 L 389.45 199.08 L 393.10 200.43 L 396.75 198.18 L 400.40 197.24 L 404.05 196.33 L 407.70 197.79 L 411.35 200.11 L 415.00 200.60 L 418.65 200.18 L 422.30 202.77 L 425.95 200.83 L 429.60 199.92 L 433.25 194.87 L 436.90 196.87 L 440.55 196.55 L 444.20 195.04 L 447.85 197.51 L 451.50 197.61 L 455.15 202.53 L 458.80 203.01 L 462.45 204.71 L 466.10 205.82 L 469.75 202.84 L 473.40 202.58 L 477.05 206.48 L 480.70 205.94 L 484.35 205.04 L 488.00 203.00 L 491.65 201.79 L 495.30 202.98 L 498.95 200.50 L 502.60 200.53 L 506.25 197.94 L 509.90 194.54 L 513.55 195.02 L 517.20 195.49 L 520.85 198.57 L 524.50 192.17 L 528.15 193.52 L 531.80 194.49 L 535.45 197.09 L 539.10 199.50 L 542.75 199.53 L 546.40 199.54 L 550.05 201.74 L 553.70 201.41 L 557.35 204.92 L 561.00 205.60 L 564.65 206.99 L 568.30 205.47 L 571.95 208.62 L 575.60 202.49 L 579.25 198.40 L 582.90 199.20 L 586.55 199.91 L 590.20 196.30 L 593.85 194.78 L 597.50 193.24 L 601.15 184.13 L 604.80 181.39 L 608.45 178.99 L 612.10 179.01 L 615.75 173.48 L 619.40 174.78 L 623.05 170.52 L 626.70 171.48 L 630.35 176.20 L 634.00 177.51 L 637.65 173.51 L 641.30 177.10 L 644.95 173.77 L 648.60 172.89 L 652.25 175.22 L 655.90 174.12 L 659.55 172.47 L 663.20 172.71 L 666.85 175.91 L 670.50 173.60 L 674.15 167.10 L 677.80 164.94 L 681.45 166.31 L 685.10 164.82 L 688.75 163.79 L 692.40 166.46 L 696.05 170.84 L 699.70 166.84 L 703.35 168.95 L 707.00 163.18 L 710.65 163.01 L 714.30 158.26 L 717.95 158.78 L 721.60 157.10 L 725.25 157.72 L 728.90 157.28 L 732.55 154.76 L 736.20 150.99 L 739.85 151.64 L 743.50 149.82 L 747.15 143.57 L 750.80 142.15 L 754.45 146.08 L 758.10 144.58 L 761.75 142.64 L 765.40 137.33 L 769.05 137.52 L 772.70 137.62 L 776.35 143.59 L 780.00 142.82" class="path-4" />
<line x1="50" y1="174.4" x2="780" y2="174.4" stroke="#4b5563" stroke-width="0.8" stroke-dasharray="6 3" />
</svg>