<svg xmlns="http://www.w3.org/2000/svg" viewBox="0 0 800 300" width="800" height="300">
<style>
.axis-line { stroke: #6b7280; stroke-width: 0.5; }
.axis-text { font-family: monospace; font-size: 11px; fill: #9ca3af; }
.title-text { font-family: monospace; font-size: 14px; fill: #d1d5db; font-weight: bold; }
.grid-line { stroke: #374151; stroke-width: 0.3; stroke-dasharray: 4 2; }
.path-0 { fill: none; stroke: #3b82f6; stroke-width: 2; stroke-linecap: round; opacity: 0.85; animation: draw-0 8s ease-in-out 0.0s infinite; stroke-dasharray: 1124; stroke-dashoffset: 1124;}
@keyframes draw-0 { 0% { stroke-dashoffset: 1124; } 38% { stroke-dashoffset: 0; } 62% { stroke-dashoffset: 0; } 100% { stroke-dashoffset: 1124; }}
.path-1 { fill: none; stroke: #ef4444; stroke-width: 2; stroke-linecap: round; opacity: 0.85; animation: draw-1 8s ease-in-out 0.4s infinite; stroke-dasharray: 1198; stroke-dashoffset: 1198;}
@keyframes draw-1 { 0% { stroke-dashoffset: 1198; } 38% { stroke-dashoffset: 0; } 62% { stroke-dashoffset: 0; } 100% { stroke-dashoffset: 1198; }}
.path-2 { fill: none; stroke: #22c55e; stroke-width: 2; stroke-linecap: round; opacity: 0.85; animation: draw-2 8s ease-in-out 0.8s infinite; stroke-dasharray: 1133; stroke-dashoffset: 1133;}
@keyframes draw-2 { 0% { stroke-dashoffset: 1133; } 38% { stroke-dashoffset: 0; } 62% { stroke-dashoffset: 0; } 100% { stroke-dashoffset: 1133; }}
.path-3 { fill: none; stroke: #f59e0b; stroke-width: 2; stroke-linecap: round; opacity: 0.85; animation: draw-3 8s ease-in-out 1.2000000000000002s infinite; stroke-dasharray: 1147; stroke-dashoffset: 1147;}
@keyframes draw-3 { 0% { stroke-dashoffset: 1147; } 38% { stroke-dashoffset: 0; } 62% { stroke-dashoffset: 0; } 100% { stroke-dashoffset: 1147; }}
.path-4 { fill: none; stroke: #a855f7; stroke-width: 2; stroke-linecap: round; opacity: 0.85; animation: draw-4 8s ease-in-out 1.6s infinite; stroke-dasharray: 1107; stroke-dashoffset: 1107;}
@keyframes draw-4 { 0% { stroke-dashoffset: 1107; } 38% { stroke-dashoffset: 0; } 62% { stroke-dashoffset: 0; } 100% { stroke-dashoffset: 1107; }}
</style>
<rect width="800" height="300" rx="8" fill="#0d1117" />
<line x1="50" y1="260.0" x2="780" y2="260.0" class="grid-line" />
<text x="44" y="264.0" text-anchor="end" class="axis-text">-2.2</text>
<line x1="50" y1="216.0" x2="780" y2="216.0" class="grid-line" />
<text x="44" y="220.0" text-anchor="end" class="axis-text">-1.5</text>
<line x1="50" y1="172.0" x2="780" y2="172.0" class="grid-line" />
<text x="44" y="176.0" text-anchor="end" class="axis-text">-0.9</text>
<line x1="50" y1="128.0" x2="780" y2="128.0" class="grid-line" />
<text x="44" y="132.0" text-anchor="end" class="axis-text">-0.2</text>
<line x1="50" y1="84.0" x2="780" y2="84.0" class="grid-line" />
<text x="44" y="88.0" text-anchor="end" class="axis-text">0.4</text>
<line x1="50" y1="40.0" x2="780" y2="40.0" class="grid-line" />
<text x="44" y="44.0" text-anchor="end" class="axis-text">1.1</text>
<line x1="50.0" y1="40" x2="50.0" y2="260" class="grid-line" />
<line x1="196.0" y1="40" x2="196.0" y2="260" class="grid-line" />
<line x1="342.0" y1="40" x2="342.0" y2="260" class="grid-line" />
<line x1="488.0" y1="40" x2="488.0" y2="260" class="grid-line" />
<line x1="634.0" y1="40" x2="634.0" y2="260" class="grid-line" />
<line x1="780.0" y1="40" x2="780.0" y2="260" class="grid-line" />
<line x1="50" y1="260" x2="780" y2="260" class="axis-line" />
<line x1="50" y1="40" x2="50" y2="260" class="axis-line" />
<text x="400.0" y="295" text-anchor="middle" class="axis-text">t</text>
<text x="12" y="150.0" text-anchor="middle" class="axis-text" transform="rotate(-90 12 150.0)">W(t)</text>
<text x="400.0" y="22" text-anchor="middle" class="title-text">Brownian Motion</text>
<path d="M 50.00 113.90 L 53.65 114.69 L 57.30 114.16 L 60.95 109.98 L 64.60 109.94 L 68.25 108.24 L 71.90 113.62 L 75.55 113.96 L 79.20 113.39 L 82.85 114.07 L 86.50 107.43 L 90.15 114.02 L 93.80 115.79 L 97.45 114.99 L 101.10 124.65 L 104.75 128.26 L 108.40 127.22 L 112.05 135.48 L 115.70 137.85 L 119.35 141.86 L 123.00 144.82 L 126.65 145.32 L 130.30 146.53 L 133.95 144.76 L 137.60 144.72 L 141.25 147.42 L 144.90 145.53 L 148.55 149.45 L 152.20 146.04 L 155.85 140.20 L 159.50 139.00 L 163.15 142.30 L 166.80 142.69 L 170.45 141.04 L 174.10 131.39 L 177.75 129.24 L 181.40 129.23 L 185.05 125.98 L 188.70 124.21 L 192.35 124.99 L 196.00 128.79 L 199.65 123.92 L 203.30 121.37 L 206.95 122.83 L 210.60 125.37 L 214.25 126.84 L 217.90 130.71 L 221.55 135.13 L 225.20 135.80 L 228.85 131.67 L 232.50 126.83 L 236.15 121.12 L 239.80 115.98 L 243.45 120.44 L 247.10 120.29 L 250.75 121.76 L 254.40 122.14 L 258.05 126.53 L 261.70 136.34 L 265.35 138.53 L 269.00 141.88 L 272.65 139.62 L 276.30 138.37 L 279.95 136.01 L 283.60 138.52 L 287.25 138.68 L 290.90 144.18 L 294.55 148.39 L 298.20 147.28 L 301.85 145.67 L 305.50 141.83 L 309.15 133.79 L 312.80 141.73 L 316.45 140.34 L 320.10 147.08 L 323.75 137.22 L 327.40 136.58 L 331.05 136.95 L 334.70 139.49 L 338.35 140.17 L 342.00 138.56 L 345.65 137.04 L 349.30 135.41 L 352.95 141.40 L 356.60 145.11 L 360.25 139.84 L 363.90 142.51 L 367.55 147.12 L 371.20 153.77 L 374.85 151.93 L 378.50 145.84 L 382.15 147.10 L 385.80 150.25 L 389.45 150.43 L 393.10 148.09 L 396.75 138.80 L 400.40 135.25 L 404.05 133.30 L 407.70 130.70 L 411.35 128.25 L 415.00 130.74 L 418.65 130.80 L 422.30 130.66 L 425.95 139.26 L 429.60 147.46 L 433.25 136.87 L 436.90 131.59 L 440.55 121.85 L 444.20 121.64 L 447.85 119.38 L 451.50 122.14 L 455.15 119.71 L 458.80 128.65 L 462.45 127.22 L 466.10 124.13 L 469.75 123.33 L 473.40 114.68 L 477.05 114.49 L 480.70 123.43 L 484.35 121.63 L 488.00 120.13 L 491.65 120.10 L 495.30 113.81 L 498.95 112.91 L 502.60 115.67 L 506.25 117.70 L 509.90 124.08 L 513.55 125.31 L 517.20 127.11 L 520.85 124.01 L 524.50 124.44 L 528.15 122.08 L 531.80 116.95 L 535.45 110.35 L 539.10 110.06 L 542.75 110.83 L 546.40 110.70 L 550.05 117.94 L 553.70 120.97 L 557.35 121.60 L 561.00 133.15 L 564.65 135.89 L 568.30 147.41 L 571.95 144.65 L 575.60 145.63 L 579.25 148.68 L 582.90 151.25 L 586.55 147.53 L 590.20 149.36 L 593.85 154.23 L 597.50 161.84 L 601.15 163.52 L 604.80 167.10 L 608.45 162.97 L 612.10 173.81 L 615.75 173.45 L 619.40 167.59 L 623.05 168.32 L 626.70 163.41 L 630.35 172.20 L 634.00 174.62 L 637.65 165.97 L 641.30 158.26 L 644.95 159.75 L 648.60 153.23 L 652.25 153.70 L 655.90 159.34 L 659.55 151.53 L 663.20 146.91 L 666.85 136.61 L 670.50 131.38 L 674.15 136.26 L 677.80 133.43 L 681.45 135.86 L 685.10 135.42 L 688.75 132.74 L 692.40 141.72 L 696.05 148.23 L 699.70 152.43 L 703.35 160.27 L 707.00 166.26 L 710.65 166.31 L 714.30 173.95 L 717.95 165.94 L 721.60 170.42 L 725.25 172.48 L 728.90 181.20 L 732.55 184.70 L 736.20 181.45 L 739.85 179.55 L 743.50 186.80 L 747.15 180.29 L 750.80 180.38 L 754.45 180.58 L 758.10 183.82 L 761.75 180.17 L 765.40 181.52 L 769.05 187.62 L 772.70 185.29 L 776.35 174.19 L 780.00 181.50" class="path-0" />
<path d="M 50.00 113.90 L 53.65 115.79 L 57.30 116.60 L 60.95 111.61 L 64.60 121.74 L 68.25 125.40 L 71.90 124.45 L 75.55 120.63 L 79.20 126.98 L 82.85 132.82 L 86.50 137.02 L 90.15 137.84 L 93.80 137.77 L 97.45 123.01 L 101.10 124.30 L 104.75 119.95 L 108.40 120.88 L 112.05 121.82 L 115.70 116.72 L 119.35 118.49 L 123.00 127.74 L 126.65 132.67 L 130.30 137.37 L 133.95 138.62 L 137.60 139.08 L 141.25 139.91 L 144.90 152.75 L 148.55 149.62 L 152.20 156.57 L 155.85 160.50 L 159.50 168.24 L 163.15 167.64 L 166.80 174.36 L 170.45 173.91 L 174.10 174.00 L 177.75 165.28 L 181.40 166.06 L 185.05 172.30 L 188.70 168.87 L 192.35 164.09 L 196.00 170.05 L 199.65 163.53 L 203.30 157.62 L 206.95 159.27 L 210.60 158.20 L 214.25 156.50 L 217.90 153.19 L 221.55 154.54 L 225.20 152.10 L 228.85 147.98 L 232.50 145.66 L 236.15 135.80 L 239.80 138.72 L 243.45 133.34 L 247.10 137.34 L 250.75 142.19 L 254.40 144.01 L 258.05 149.11 L 261.70 148.27 L 265.35 143.38 L 269.00 140.18 L 272.65 148.81 L 276.30 143.50 L 279.95 147.66 L 283.60 150.50 L 287.25 147.36 L 290.90 148.29 L 294.55 153.86 L 298.20 153.81 L 301.85 150.43 L 305.50 153.33 L 309.15 153.97 L 312.80 149.58 L 316.45 155.33 L 320.10 161.83 L 323.75 155.25 L 327.40 157.03 L 331.05 150.81 L 334.70 138.59 L 338.35 134.81 L 342.00 124.59 L 345.65 128.90 L 349.30 136.81 L 352.95 142.75 L 356.60 135.19 L 360.25 136.69 L 363.90 134.99 L 367.55 132.90 L 371.20 120.06 L 374.85 124.35 L 378.50 120.81 L 382.15 128.03 L 385.80 126.19 L 389.45 119.22 L 393.10 116.05 L 396.75 116.85 L 400.40 117.46 L 404.05 118.73 L 407.70 126.66 L 411.35 124.97 L 415.00 130.61 L 418.65 128.20 L 422.30 129.42 L 425.95 128.77 L 429.60 126.91 L 433.25 132.24 L 436.90 136.36 L 440.55 141.12 L 444.20 145.28 L 447.85 137.65 L 451.50 137.80 L 455.15 137.05 L 458.80 148.51 L 462.45 146.18 L 466.10 144.75 L 469.75 144.99 L 473.40 147.46 L 477.05 152.47 L 480.70 151.54 L 484.35 161.04 L 488.00 164.02 L 491.65 164.15 L 495.30 152.46 L 498.95 144.58 L 502.60 146.00 L 506.25 148.36 L 509.90 150.96 L 513.55 148.66 L 517.20 154.12 L 520.85 156.69 L 524.50 163.05 L 528.15 163.42 L 531.80 161.08 L 535.45 159.13 L 539.10 173.16 L 542.75 173.28 L 546.40 176.82 L 550.05 170.49 L 553.70 176.40 L 557.35 171.16 L 561.00 181.71 L 564.65 187.76 L 568.30 182.94 L 571.95 184.91 L 575.60 183.04 L 579.25 182.31 L 582.90 196.58 L 586.55 197.41 L 590.20 199.79 L 593.85 202.51 L 597.50 202.01 L 601.15 198.25 L 604.80 207.92 L 608.45 205.18 L 612.10 205.34 L 615.75 203.33 L 619.40 210.23 L 623.05 214.32 L 626.70 218.59 L 630.35 223.68 L 634.00 218.12 L 637.65 222.95 L 641.30 226.28 L 644.95 215.72 L 648.60 217.07 L 652.25 218.71 L 655.90 215.79 L 659.55 217.75 L 663.20 221.12 L 666.85 225.50 L 670.50 219.00 L 674.15 214.25 L 677.80 211.10 L 681.45 206.62 L 685.10 196.79 L 688.75 191.95 L 692.40 195.03 L 696.05 203.41 L 699.70 203.04 L 703.35 199.94 L 707.00 193.23 L 710.65 197.14 L 714.30 197.15 L 717.95 199.51 L 721.60 192.56 L 725.25 200.31 L 728.90 210.14 L 732.55 211.86 L 736.20 207.18 L 739.85 214.82 L 743.50 222.24 L 747.15 220.36 L 750.80 224.03 L 754.45 216.53 L 758.10 225.25 L 761.75 228.42 L 765.40 232.52 L 769.05 234.62 L 772.70 230.10 L 776.35 230.06 L 780.00 231.88" class="path-1" />
<path d="M 50.00 113.90 L 53.65 115.87 L 57.30 119.41 L 60.95 115.37 L 64.60 114.98 L 68.25 116.79 L 71.90 122.27 L 75.55 126.45 L 79.20 129.73 L 82.85 133.04 L 86.50 129.60 L 90.15 129.81 L 93.80 135.45 L 97.45 136.17 L 101.10 127.85 L 104.75 126.76 L 108.40 131.67 L 112.05 132.81 L 115.70 136.61 L 119.35 136.93 L 123.00 133.19 L 126.65 144.02 L 130.30 149.77 L 133.95 145.12 L 137.60 146.04 L 141.25 147.86 L 144.90 135.79 L 148.55 134.99 L 152.20 138.71 L 155.85 140.46 L 159.50 136.24 L 163.15 134.85 L 166.80 134.47 L 170.45 126.10 L 174.10 124.21 L 177.75 121.91 L 181.40 126.91 L 185.05 123.06 L 188.70 124.32 L 192.35 125.17 L 196.00 136.17 L 199.65 145.09 L 203.30 143.89 L 206.95 140.19 L 210.60 137.64 L 214.25 134.20 L 217.90 139.27 L 221.55 146.19 L 225.20 155.48 L 228.85 155.11 L 232.50 157.05 L 236.15 159.55 L 239.80 156.65 L 243.45 156.48 L 247.10 155.41 L 250.75 149.44 L 254.40 159.41 L 258.05 158.37 L 261.70 163.05 L 265.35 153.33 L 269.00 146.25 L 272.65 142.97 L 276.30 136.23 L 279.95 143.60 L 283.60 138.56 L 287.25 137.29 L 290.90 140.74 L 294.55 143.18 L 298.20 137.34 L 301.85 136.88 L 305.50 140.42 L 309.15 133.31 L 312.80 131.22 L 316.45 130.91 L 320.10 132.14 L 323.75 125.90 L 327.40 126.10 L 331.05 129.93 L 334.70 128.18 L 338.35 122.41 L 342.00 126.95 L 345.65 127.88 L 349.30 120.64 L 352.95 120.55 L 356.60 118.87 L 360.25 111.43 L 363.90 115.81 L 367.55 116.26 L 371.20 113.25 L 374.85 112.17 L 378.50 114.23 L 382.15 115.57 L 385.80 118.20 L 389.45 115.99 L 393.10 116.69 L 396.75 122.71 L 400.40 131.09 L 404.05 134.73 L 407.70 137.92 L 411.35 136.62 L 415.00 125.92 L 418.65 128.45 L 422.30 131.20 L 425.95 134.32 L 429.60 128.85 L 433.25 131.26 L 436.90 130.03 L 440.55 126.75 L 444.20 125.48 L 447.85 117.00 L 451.50 110.78 L 455.15 109.61 L 458.80 113.67 L 462.45 110.41 L 466.10 109.01 L 469.75 111.62 L 473.40 113.89 L 477.05 120.78 L 480.70 123.50 L 484.35 124.59 L 488.00 127.14 L 491.65 114.93 L 495.30 116.39 L 498.95 118.85 L 502.60 115.42 L 506.25 106.35 L 509.90 114.21 L 513.55 112.63 L 517.20 107.39 L 520.85 97.87 L 524.50 100.31 L 528.15 103.81 L 531.80 105.19 L 535.45 106.58 L 539.10 109.54 L 542.75 106.78 L 546.40 107.27 L 550.05 102.46 L 553.70 96.01 L 557.35 99.69 L 561.00 107.03 L 564.65 114.80 L 568.30 114.82 L 571.95 113.98 L 575.60 110.82 L 579.25 110.88 L 582.90 111.02 L 586.55 105.83 L 590.20 103.76 L 593.85 113.27 L 597.50 113.52 L 601.15 119.22 L 604.80 109.57 L 608.45 108.71 L 612.10 104.85 L 615.75 98.51 L 619.40 93.39 L 623.05 96.57 L 626.70 98.24 L 630.35 99.31 L 634.00 104.91 L 637.65 102.68 L 641.30 102.63 L 644.95 104.79 L 648.60 113.29 L 652.25 112.67 L 655.90 118.23 L 659.55 118.09 L 663.20 124.22 L 666.85 124.75 L 670.50 125.11 L 674.15 129.12 L 677.80 132.12 L 681.45 131.86 L 685.10 136.94 L 688.75 134.77 L 692.40 140.07 L 696.05 140.54 L 699.70 150.94 L 703.35 152.27 L 707.00 147.67 L 710.65 144.48 L 714.30 150.00 L 717.95 156.12 L 721.60 144.92 L 725.25 155.93 L 728.90 152.66 L 732.55 158.95 L 736.20 159.10 L 739.85 157.59 L 743.50 167.95 L 747.15 166.50 L 750.80 167.42 L 754.45 170.19 L 758.10 159.50 L 761.75 152.15 L 765.40 152.37 L 769.05 157.16 L 772.70 157.67 L 776.35 156.84 L 780.00 156.84" class="path-2" />
<path d="M 50.00 113.90 L 53.65 114.74 L 57.30 112.62 L 60.95 108.49 L 64.60 102.70 L 68.25 104.43 L 71.90 105.37 L 75.55 100.08 L 79.20 99.76 L 82.85 93.76 L 86.50 83.98 L 90.15 86.41 L 93.80 92.85 L 97.45 102.09 L 101.10 105.24 L 104.75 100.59 L 108.40 96.46 L 112.05 86.50 L 115.70 83.93 L 119.35 80.81 L 123.00 82.98 L 126.65 91.45 L 130.30 96.28 L 133.95 92.04 L 137.60 91.40 L 141.25 95.76 L 144.90 93.38 L 148.55 90.82 L 152.20 86.08 L 155.85 85.74 L 159.50 92.09 L 163.15 85.83 L 166.80 85.70 L 170.45 84.17 L 174.10 81.08 L 177.75 85.49 L 181.40 81.47 L 185.05 80.07 L 188.70 78.47 L 192.35 73.55 L 196.00 72.09 L 199.65 79.07 L 203.30 82.95 L 206.95 86.99 L 210.60 92.87 L 214.25 96.21 L 217.90 83.62 L 221.55 89.30 L 225.20 92.84 L 228.85 92.93 L 232.50 85.35 L 236.15 88.21 L 239.80 88.53 L 243.45 80.72 L 247.10 83.43 L 250.75 76.01 L 254.40 71.13 L 258.05 71.96 L 261.70 79.80 L 265.35 77.45 L 269.00 72.83 L 272.65 66.79 L 276.30 66.20 L 279.95 65.38 L 283.60 72.03 L 287.25 69.57 L 290.90 72.10 L 294.55 74.91 L 298.20 69.75 L 301.85 78.34 L 305.50 82.05 L 309.15 78.33 L 312.80 85.07 L 316.45 78.68 L 320.10 89.78 L 323.75 95.47 L 327.40 95.60 L 331.05 102.40 L 334.70 96.34 L 338.35 100.14 L 342.00 103.29 L 345.65 97.14 L 349.30 97.28 L 352.95 101.11 L 356.60 104.59 L 360.25 101.34 L 363.90 108.24 L 367.55 103.91 L 371.20 107.09 L 374.85 103.02 L 378.50 98.17 L 382.15 107.43 L 385.80 103.79 L 389.45 99.97 L 393.10 98.95 L 396.75 100.31 L 400.40 104.45 L 404.05 108.13 L 407.70 113.62 L 411.35 113.07 L 415.00 116.77 L 418.65 118.44 L 422.30 117.66 L 425.95 117.33 L 429.60 110.96 L 433.25 122.70 L 436.90 116.45 L 440.55 122.76 L 444.20 126.63 L 447.85 121.61 L 451.50 126.76 L 455.15 124.30 L 458.80 110.35 L 462.45 108.73 L 466.10 108.45 L 469.75 111.75 L 473.40 115.88 L 477.05 113.75 L 480.70 119.83 L 484.35 122.99 L 488.00 123.68 L 491.65 123.03 L 495.30 125.71 L 498.95 129.91 L 502.60 132.72 L 506.25 130.87 L 509.90 133.61 L 513.55 129.38 L 517.20 128.25 L 520.85 129.92 L 524.50 123.33 L 528.15 121.73 L 531.80 116.05 L 535.45 109.65 L 539.10 107.08 L 542.75 104.96 L 546.40 107.66 L 550.05 110.17 L 553.70 109.44 L 557.35 110.33 L 561.00 99.86 L 564.65 96.45 L 568.30 97.01 L 571.95 102.24 L 575.60 109.17 L 579.25 104.50 L 582.90 104.36 L 586.55 103.76 L 590.20 96.73 L 593.85 98.11 L 597.50 97.46 L 601.15 101.75 L 604.80 99.25 L 608.45 99.72 L 612.10 107.21 L 615.75 112.06 L 619.40 98.69 L 623.05 98.30 L 626.70 99.66 L 630.35 99.05 L 634.00 102.73 L 637.65 103.24 L 641.30 102.06 L 644.95 107.17 L 648.60 105.71 L 652.25 105.99 L 655.90 103.85 L 659.55 105.50 L 663.20 111.14 L 666.85 118.00 L 670.50 121.52 L 674.15 127.01 L 677.80 134.84 L 681.45 140.77 L 685.10 141.93 L 688.75 144.58 L 692.40 139.22 L 696.05 131.73 L 699.70 135.26 L 703.35 133.40 L 707.00 130.95 L 710.65 131.55 L 714.30 122.18 L 717.95 124.97 L 721.60 124.80 L 725.25 127.11 L 728.90 124.87 L 732.55 131.36 L 736.20 134.89 L 739.85 132.51 L 743.50 127.14 L 747.15 130.11 L 750.80 134.29 L 754.45 127.72 L 758.10 131.90 L 761.75 137.51 L 765.40 139.13 L 769.05 138.12 L 772.70 137.57 L 776.35 147.89 L 780.00 140.89" class="path-3" />
<path d="M 50.00 113.90 L 53.65 106.93 L 57.30 106.45 L 60.95 110.19 L 64.60 112.24 L 68.25 111.04 L 71.90 116.79 L 75.55 116.97 L 79.20 112.76 L 82.85 114.59 L 86.50 111.41 L 90.15 111.80 L 93.80 116.77 L 97.45 117.47 L 101.10 129.01 L 104.75 124.84 L 108.40 128.65 L 112.05 120.65 L 115.70 119.73 L 119.35 114.79 L 123.00 118.04 L 126.65 110.59 L 130.30 116.86 L 133.95 110.24 L 137.60 113.03 L 141.25 119.54 L 144.90 124.87 L 148.55 128.20 L 152.20 131.52 L 155.85 123.53 L 159.50 128.45 L 163.15 119.11 L 166.80 114.75 L 170.45 115.67 L 174.10 106.55 L 177.75 109.90 L 181.40 123.17 L 185.05 126.45 L 188.70 134.10 L 192.35 130.40 L 196.00 128.74 L 199.65 130.95 L 203.30 140.34 L 206.95 138.39 L 210.60 138.08 L 214.25 134.86 L 217.90 135.89 L 221.55 126.30 L 225.20 123.86 L 228.85 116.92 L 232.50 117.15 L 236.15 113.29 L 239.80 121.78 L 243.45 120.57 L 247.10 120.77 L 250.75 123.49 L 254.40 123.44 L 258.05 123.00 L 261.70 122.48 L 265.35 125.03 L 269.00 128.87 L 272.65 133.09 L 276.30 128.52 L 279.95 127.06 L 283.60 127.59 L 287.25 126.10 L 290.90 127.66 L 294.55 124.90 L 298.20 121.47 L 301.85 126.61 L 305.50 128.50 L 309.15 128.61 L 312.80 132.60 L 316.45 136.45 L 320.10 137.75 L 323.75 129.70 L 327.40 130.57 L 331.05 128.64 L 334.70 126.82 L 338.35 119.07 L 342.00 119.81 L 345.65 118.53 L 349.30 117.50 L 352.95 120.97 L 356.60 123.44 L 360.25 120.56 L 363.90 123.34 L 367.55 117.75 L 371.20 124.02 L 374.85 128.86 L 378.50 126.59 L 382.15 126.48 L 385.80 130.35 L 389.45 127.02 L 393.10 130.85 L 396.75 126.68 L 400.40 125.03 L 404.05 118.48 L 407.70 128.33 L 411.35 115.73 L 415.00 116.94 L 418.65 118.88 L 422.30 120.25 L 425.95 125.36 L 429.60 126.03 L 433.25 123.41 L 436.90 130.12 L 440.55 128.54 L 444.20 131.25 L 447.85 123.06 L 451.50 122.39 L 455.15 126.56 L 458.80 132.52 L 462.45 132.01 L 466.10 133.61 L 469.75 140.21 L 473.40 139.84 L 477.05 140.18 L 480.70 135.18 L 484.35 133.60 L 488.00 138.78 L 491.65 143.12 L 495.30 136.61 L 498.95 132.71 L 502.60 135.81 L 506.25 128.57 L 509.90 130.76 L 513.55 139.02 L 517.20 140.54 L 520.85 139.57 L 524.50 138.33 L 528.15 131.36 L 531.80 123.75 L 535.45 126.82 L 539.10 127.39 L 542.75 125.36 L 546.40 126.72 L 550.05 122.18 L 553.70 128.72 L 557.35 128.61 L 561.00 130.96 L 564.65 130.53 L 568.30 133.26 L 571.95 131.16 L 575.60 132.36 L 579.25 142.04 L 582.90 142.17 L 586.55 141.24 L 590.20 136.24 L 593.85 134.98 L 597.50 141.80 L 601.15 141.29 L 604.80 143.70 L 608.45 149.33 L 612.10 148.83 L 615.75 150.34 L 619.40 154.70 L 623.05 158.80 L 626.70 160.47 L 630.35 155.88 L 634.00 160.46 L 637.65 160.94 L 641.30 152.30 L 644.95 158.29 L 648.60 159.17 L 652.25 160.54 L 655.90 156.55 L 659.55 153.48 L 663.20 151.16 L 666.85 150.13 L 670.50 144.10 L 674.15 147.75 L 677.80 155.68 L 681.45 156.42 L 685.10 151.35 L 688.75 154.46 L 692.40 154.72 L 696.05 151.94 L 699.70 150.39 L 703.35 151.23 L 707.00 151.27 L 710.65 146.04 L 714.30 149.27 L 717.95 150.72 L 721.60 151.84 L 725.25 145.38 L 728.90 151.87 L 732.55 152.66 L 736.20 152.22 L 739.85 152.91 L 743.50 148.37 L 747.15 156.17 L 750.80 155.64 L 754.45 161.16 L 758.10 159.69 L 761.75 145.21 L 765.40 136.59 L 769.05 140.97 L 772.70 136.73 L 776.35 134.03 L 780.00 132.55" class="path-4" />
<line x1="50" y1="113.9" x2="780" y2="113.9" stroke="#4b5563" stroke-width="0.8" stroke-dasharray="6 3" />
</svg>