<svg xmlns="http://www.w3.org/2000/svg" viewBox="0 0 800 300" width="800" height="300">
<style>
.axis-line { stroke: #6b7280; stroke-width: 0.5; }
.axis-text { font-family: monospace; font-size: 11px; fill: #9ca3af; }
.title-text { font-family: monospace; font-size: 14px; fill: #d1d5db; font-weight: bold; }
.grid-line { stroke: #374151; stroke-width: 0.3; stroke-dasharray: 4 2; }
.path-0 { fill: none; stroke: #3b82f6; stroke-width: 2; stroke-linecap: round; opacity: 0.85; animation: draw-0 8s ease-in-out 0.0s infinite; stroke-dasharray: 1004; stroke-dashoffset: 1004;}
@keyframes draw-0 { 0% { stroke-dashoffset: 1004; } 38% { stroke-dashoffset: 0; } 62% { stroke-dashoffset: 0; } 100% { stroke-dashoffset: 1004; }}
.path-1 { fill: none; stroke: #ef4444; stroke-width: 2; stroke-linecap: round; opacity: 0.85; animation: draw-1 8s ease-in-out 0.4s infinite; stroke-dasharray: 956; stroke-dashoffset: 956;}
@keyframes draw-1 { 0% { stroke-dashoffset: 956; } 38% { stroke-dashoffset: 0; } 62% { stroke-dashoffset: 0; } 100% { stroke-dashoffset: 956; }}
.path-2 { fill: none; stroke: #22c55e; stroke-width: 2; stroke-linecap: round; opacity: 0.85; animation: draw-2 8s ease-in-out 0.8s infinite; stroke-dasharray: 983; stroke-dashoffset: 983;}
@keyframes draw-2 { 0% { stroke-dashoffset: 983; } 38% { stroke-dashoffset: 0; } 62% { stroke-dashoffset: 0; } 100% { stroke-dashoffset: 983; }}
.path-3 { fill: none; stroke: #f59e0b; stroke-width: 2; stroke-linecap: round; opacity: 0.85; animation: draw-3 8s ease-in-out 1.2000000000000002s infinite; stroke-dasharray: 1019; stroke-dashoffset: 1019;}
@keyframes draw-3 { 0% { stroke-dashoffset: 1019; } 38% { stroke-dashoffset: 0; } 62% { stroke-dashoffset: 0; } 100% { stroke-dashoffset: 1019; }}
.path-4 { fill: none; stroke: #a855f7; stroke-width: 2; stroke-linecap: round; opacity: 0.85; animation: draw-4 8s ease-in-out 1.6s infinite; stroke-dasharray: 993; stroke-dashoffset: 993;}
@keyframes draw-4 { 0% { stroke-dashoffset: 993; } 38% { stroke-dashoffset: 0; } 62% { stroke-dashoffset: 0; } 100% { stroke-dashoffset: 993; }}
</style>
<rect width="800" height="300" rx="8" fill="#0d1117" />
<line x1="50" y1="260.0" x2="780" y2="260.0" class="grid-line" />
<text x="44" y="264.0" text-anchor="end" class="axis-text">-2.6</text>
<line x1="50" y1="216.0" x2="780" y2="216.0" class="grid-line" />
<text x="44" y="220.0" text-anchor="end" class="axis-text">-1.8</text>
<line x1="50" y1="172.0" x2="780" y2="172.0" class="grid-line" />
<text x="44" y="176.0" text-anchor="end" class="axis-text">-0.9</text>
<line x1="50" y1="128.0" x2="780" y2="128.0" class="grid-line" />
<text x="44" y="132.0" text-anchor="end" class="axis-text">-0.0</text>
<line x1="50" y1="84.0" x2="780" y2="84.0" class="grid-line" />
<text x="44" y="88.0" text-anchor="end" class="axis-text">0.8</text>
<line x1="50" y1="40.0" x2="780" y2="40.0" class="grid-line" />
<text x="44" y="44.0" text-anchor="end" class="axis-text">1.7</text>
<line x1="50.0" y1="40" x2="50.0" y2="260" class="grid-line" />
<line x1="196.0" y1="40" x2="196.0" y2="260" class="grid-line" />
<line x1="342.0" y1="40" x2="342.0" y2="260" class="grid-line" />
<line x1="488.0" y1="40" x2="488.0" y2="260" class="grid-line" />
<line x1="634.0" y1="40" x2="634.0" y2="260" class="grid-line" />
<line x1="780.0" y1="40" x2="780.0" y2="260" class="grid-line" />
<line x1="50" y1="260" x2="780" y2="260" class="axis-line" />
<line x1="50" y1="40" x2="50" y2="260" class="axis-line" />
<text x="400.0" y="295" text-anchor="middle" class="axis-text">t</text>
<text x="12" y="150.0" text-anchor="middle" class="axis-text" transform="rotate(-90 12 150.0)">W(t)</text>
<text x="400.0" y="22" text-anchor="middle" class="title-text">Brownian Motion</text>
<path d="M 50.00 126.04 L 53.65 121.73 L 57.30 120.49 L 60.95 125.93 L 64.60 127.25 L 68.25 127.16 L 71.90 124.58 L 75.55 125.12 L 79.20 126.07 L 82.85 124.83 L 86.50 132.73 L 90.15 134.71 L 93.80 132.26 L 97.45 129.45 L 101.10 130.10 L 104.75 130.85 L 108.40 129.45 L 112.05 126.21 L 115.70 119.99 L 119.35 112.76 L 123.00 111.88 L 126.65 118.20 L 130.30 118.68 L 133.95 113.12 L 137.60 114.50 L 141.25 113.93 L 144.90 114.83 L 148.55 114.40 L 152.20 117.14 L 155.85 115.48 L 159.50 113.24 L 163.15 112.40 L 166.80 115.54 L 170.45 116.05 L 174.10 110.80 L 177.75 109.32 L 181.40 104.86 L 185.05 108.49 L 188.70 112.25 L 192.35 114.75 L 196.00 115.03 L 199.65 123.99 L 203.30 121.05 L 206.95 126.26 L 210.60 119.75 L 214.25 113.05 L 217.90 114.49 L 221.55 113.76 L 225.20 113.27 L 228.85 113.88 L 232.50 115.30 L 236.15 111.41 L 239.80 115.35 L 243.45 115.08 L 247.10 113.44 L 250.75 108.47 L 254.40 109.41 L 258.05 106.62 L 261.70 105.95 L 265.35 109.10 L 269.00 106.82 L 272.65 102.19 L 276.30 100.72 L 279.95 107.46 L 283.60 98.40 L 287.25 99.61 L 290.90 100.48 L 294.55 96.21 L 298.20 91.74 L 301.85 92.53 L 305.50 91.71 L 309.15 91.57 L 312.80 85.85 L 316.45 85.45 L 320.10 88.93 L 323.75 85.10 L 327.40 85.33 L 331.05 90.92 L 334.70 90.10 L 338.35 87.89 L 342.00 88.65 L 345.65 93.79 L 349.30 96.65 L 352.95 94.76 L 356.60 97.05 L 360.25 100.26 L 363.90 99.11 L 367.55 100.20 L 371.20 98.50 L 374.85 105.63 L 378.50 102.18 L 382.15 100.01 L 385.80 99.86 L 389.45 103.09 L 393.10 107.15 L 396.75 110.50 L 400.40 111.54 L 404.05 121.48 L 407.70 124.76 L 411.35 128.08 L 415.00 133.36 L 418.65 140.36 L 422.30 135.50 L 425.95 135.19 L 429.60 131.10 L 433.25 128.31 L 436.90 125.28 L 440.55 122.91 L 444.20 125.96 L 447.85 124.71 L 451.50 120.03 L 455.15 119.30 L 458.80 111.14 L 462.45 106.44 L 466.10 101.10 L 469.75 106.13 L 473.40 105.68 L 477.05 102.02 L 480.70 102.19 L 484.35 100.71 L 488.00 96.30 L 491.65 100.05 L 495.30 98.47 L 498.95 98.83 L 502.60 100.70 L 506.25 97.06 L 509.90 99.49 L 513.55 100.59 L 517.20 103.15 L 520.85 100.38 L 524.50 101.26 L 528.15 106.12 L 531.80 107.38 L 535.45 113.08 L 539.10 108.00 L 542.75 113.46 L 546.40 115.91 L 550.05 118.77 L 553.70 118.79 L 557.35 119.80 L 561.00 120.51 L 564.65 119.66 L 568.30 122.54 L 571.95 117.37 L 575.60 112.08 L 579.25 109.12 L 582.90 106.06 L 586.55 113.33 L 590.20 110.50 L 593.85 108.32 L 597.50 112.92 L 601.15 118.18 L 604.80 110.51 L 608.45 112.43 L 612.10 109.92 L 615.75 112.37 L 619.40 109.63 L 623.05 100.93 L 626.70 102.49 L 630.35 95.50 L 634.00 98.61 L 637.65 100.11 L 641.30 94.99 L 644.95 91.25 L 648.60 90.61 L 652.25 92.51 L 655.90 93.13 L 659.55 91.59 L 663.20 88.38 L 666.85 87.33 L 670.50 89.54 L 674.15 90.58 L 677.80 90.03 L 681.45 86.17 L 685.10 86.49 L 688.75 82.03 L 692.40 81.05 L 696.05 84.07 L 699.70 84.81 L 703.35 90.55 L 707.00 89.84 L 710.65 86.25 L 714.30 90.00 L 717.95 91.94 L 721.60 90.75 L 725.25 81.83 L 728.90 77.57 L 732.55 79.20 L 736.20 78.65 L 739.85 80.29 L 743.50 81.65 L 747.15 80.68 L 750.80 86.60 L 754.45 83.40 L 758.10 86.18 L 761.75 93.19 L 765.40 99.94 L 769.05 95.53 L 772.70 95.73 L 776.35 97.61 L 780.00 93.33" class="path-0" />
<path d="M 50.00 126.04 L 53.65 129.78 L 57.30 131.42 L 60.95 126.50 L 64.60 129.08 L 68.25 132.66 L 71.90 128.74 L 75.55 126.97 L 79.20 120.89 L 82.85 119.17 L 86.50 117.74 L 90.15 119.76 L 93.80 118.72 L 97.45 113.09 L 101.10 117.71 L 104.75 113.40 L 108.40 118.79 L 112.05 118.82 L 115.70 117.73 L 119.35 118.32 L 123.00 117.06 L 126.65 118.24 L 130.30 112.82 L 133.95 110.64 L 137.60 109.26 L 141.25 105.32 L 144.90 108.64 L 148.55 106.79 L 152.20 108.66 L 155.85 97.21 L 159.50 96.31 L 163.15 101.01 L 166.80 97.29 L 170.45 100.06 L 174.10 105.29 L 177.75 106.58 L 181.40 103.89 L 185.05 101.79 L 188.70 102.06 L 192.35 102.85 L 196.00 99.45 L 199.65 94.95 L 203.30 101.62 L 206.95 96.24 L 210.60 94.70 L 214.25 90.53 L 217.90 90.84 L 221.55 91.49 L 225.20 89.09 L 228.85 90.49 L 232.50 92.41 L 236.15 94.84 L 239.80 95.13 L 243.45 94.58 L 247.10 99.09 L 250.75 94.47 L 254.40 88.22 L 258.05 88.71 L 261.70 90.75 L 265.35 89.41 L 269.00 91.79 L 272.65 91.22 L 276.30 95.07 L 279.95 95.05 L 283.60 95.99 L 287.25 96.07 L 290.90 95.93 L 294.55 92.32 L 298.20 98.23 L 301.85 98.04 L 305.50 98.43 L 309.15 95.46 L 312.80 98.86 L 316.45 93.25 L 320.10 89.67 L 323.75 92.49 L 327.40 93.33 L 331.05 90.79 L 334.70 88.83 L 338.35 89.99 L 342.00 87.65 L 345.65 89.00 L 349.30 94.62 L 352.95 95.17 L 356.60 90.61 L 360.25 94.25 L 363.90 95.64 L 367.55 92.94 L 371.20 87.76 L 374.85 89.59 L 378.50 90.81 L 382.15 91.02 L 385.80 94.30 L 389.45 97.25 L 393.10 99.21 L 396.75 100.87 L 400.40 101.08 L 404.05 98.99 L 407.70 100.47 L 411.35 95.92 L 415.00 96.21 L 418.65 90.48 L 422.30 86.95 L 425.95 87.83 L 429.60 86.40 L 433.25 80.99 L 436.90 78.83 L 440.55 78.70 L 444.20 76.12 L 447.85 75.80 L 451.50 73.26 L 455.15 71.34 L 458.80 68.99 L 462.45 70.24 L 466.10 66.52 L 469.75 68.88 L 473.40 70.90 L 477.05 69.61 L 480.70 68.37 L 484.35 68.06 L 488.00 70.16 L 491.65 73.67 L 495.30 73.35 L 498.95 82.77 L 502.60 83.73 L 506.25 86.61 L 509.90 87.67 L 513.55 90.45 L 517.20 91.32 L 520.85 93.95 L 524.50 91.11 L 528.15 86.01 L 531.80 86.43 L 535.45 88.44 L 539.10 90.28 L 542.75 89.84 L 546.40 83.93 L 550.05 84.06 L 553.70 80.00 L 557.35 81.07 L 561.00 80.39 L 564.65 81.44 L 568.30 81.99 L 571.95 80.03 L 575.60 78.18 L 579.25 84.43 L 582.90 87.44 L 586.55 90.62 L 590.20 90.95 L 593.85 89.13 L 597.50 89.88 L 601.15 85.28 L 604.80 92.99 L 608.45 91.54 L 612.10 93.81 L 615.75 96.84 L 619.40 99.80 L 623.05 96.95 L 626.70 98.49 L 630.35 99.13 L 634.00 105.53 L 637.65 100.10 L 641.30 93.95 L 644.95 98.58 L 648.60 96.70 L 652.25 100.35 L 655.90 106.10 L 659.55 107.21 L 663.20 106.30 L 666.85 105.86 L 670.50 104.59 L 674.15 109.07 L 677.80 111.81 L 681.45 119.12 L 685.10 118.90 L 688.75 111.72 L 692.40 112.89 L 696.05 111.94 L 699.70 121.56 L 703.35 119.34 L 707.00 117.37 L 710.65 118.17 L 714.30 118.42 L 717.95 120.17 L 721.60 125.77 L 725.25 131.18 L 728.90 132.57 L 732.55 135.79 L 736.20 133.54 L 739.85 131.90 L 743.50 135.08 L 747.15 134.24 L 750.80 130.97 L 754.45 134.00 L 758.10 134.80 L 761.75 137.42 L 765.40 138.23 L 769.05 135.78 L 772.70 134.42 L 776.35 134.82 L 780.00 134.79" class="path-1" />
<path d="M 50.00 126.04 L 53.65 118.13 L 57.30 109.54 L 60.95 105.61 L 64.60 103.89 L 68.25 103.54 L 71.90 103.33 L 75.55 103.43 L 79.20 102.66 L 82.85 105.55 L 86.50 104.71 L 90.15 112.57 L 93.80 111.83 L 97.45 108.30 L 101.10 103.29 L 104.75 106.41 L 108.40 109.88 L 112.05 111.82 L 115.70 107.45 L 119.35 105.90 L 123.00 104.98 L 126.65 103.75 L 130.30 109.12 L 133.95 104.07 L 137.60 99.26 L 141.25 101.90 L 144.90 100.58 L 148.55 100.76 L 152.20 105.68 L 155.85 104.87 L 159.50 100.07 L 163.15 93.05 L 166.80 89.48 L 170.45 85.31 L 174.10 86.77 L 177.75 79.61 L 181.40 75.48 L 185.05 73.88 L 188.70 79.00 L 192.35 80.34 L 196.00 78.23 L 199.65 79.46 L 203.30 77.79 L 206.95 75.54 L 210.60 81.25 L 214.25 79.69 L 217.90 77.85 L 221.55 78.14 L 225.20 74.89 L 228.85 75.26 L 232.50 78.88 L 236.15 85.01 L 239.80 84.34 L 243.45 85.33 L 247.10 89.87 L 250.75 99.04 L 254.40 97.93 L 258.05 95.63 L 261.70 94.75 L 265.35 88.94 L 269.00 86.77 L 272.65 84.03 L 276.30 85.31 L 279.95 89.19 L 283.60 89.16 L 287.25 96.08 L 290.90 95.97 L 294.55 93.11 L 298.20 88.32 L 301.85 83.82 L 305.50 85.87 L 309.15 88.03 L 312.80 95.13 L 316.45 95.03 L 320.10 95.50 L 323.75 93.35 L 327.40 85.21 L 331.05 84.78 L 334.70 87.94 L 338.35 83.96 L 342.00 80.38 L 345.65 81.32 L 349.30 84.20 L 352.95 85.53 L 356.60 80.20 L 360.25 77.78 L 363.90 79.91 L 367.55 81.09 L 371.20 82.03 L 374.85 82.50 L 378.50 85.86 L 382.15 88.17 L 385.80 90.12 L 389.45 90.96 L 393.10 83.84 L 396.75 85.66 L 400.40 80.85 L 404.05 82.73 L 407.70 82.15 L 411.35 83.22 L 415.00 80.23 L 418.65 79.55 L 422.30 76.67 L 425.95 71.86 L 429.60 66.22 L 433.25 66.36 L 436.90 65.38 L 440.55 67.93 L 444.20 70.05 L 447.85 69.70 L 451.50 70.78 L 455.15 70.63 L 458.80 71.11 L 462.45 71.07 L 466.10 68.20 L 469.75 66.92 L 473.40 72.33 L 477.05 75.43 L 480.70 75.71 L 484.35 71.59 L 488.00 68.51 L 491.65 81.46 L 495.30 80.62 L 498.95 77.47 L 502.60 76.99 L 506.25 78.88 L 509.90 76.70 L 513.55 76.07 L 517.20 78.51 L 520.85 82.96 L 524.50 80.29 L 528.15 87.08 L 531.80 96.31 L 535.45 95.63 L 539.10 94.37 L 542.75 89.13 L 546.40 92.20 L 550.05 92.29 L 553.70 84.10 L 557.35 78.47 L 561.00 81.61 L 564.65 76.65 L 568.30 78.76 L 571.95 81.81 L 575.60 86.05 L 579.25 85.26 L 582.90 81.13 L 586.55 81.61 L 590.20 80.76 L 593.85 82.56 L 597.50 81.69 L 601.15 83.31 L 604.80 86.51 L 608.45 89.35 L 612.10 90.64 L 615.75 92.87 L 619.40 93.80 L 623.05 90.81 L 626.70 99.92 L 630.35 95.71 L 634.00 97.97 L 637.65 97.95 L 641.30 94.51 L 644.95 93.08 L 648.60 91.47 L 652.25 88.11 L 655.90 86.67 L 659.55 88.96 L 663.20 87.18 L 666.85 91.16 L 670.50 91.15 L 674.15 89.74 L 677.80 85.78 L 681.45 91.23 L 685.10 91.99 L 688.75 91.80 L 692.40 94.90 L 696.05 105.29 L 699.70 101.78 L 703.35 104.20 L 707.00 101.86 L 710.65 97.97 L 714.30 99.03 L 717.95 98.41 L 721.60 99.04 L 725.25 99.11 L 728.90 94.75 L 732.55 97.46 L 736.20 98.97 L 739.85 96.59 L 743.50 97.68 L 747.15 97.60 L 750.80 94.82 L 754.45 93.56 L 758.10 92.34 L 761.75 90.45 L 765.40 91.60 L 769.05 91.59 L 772.70 94.74 L 776.35 90.07 L 780.00 90.96" class="path-2" />
<path d="M 50.00 126.04 L 53.65 129.47 L 57.30 127.18 L 60.95 128.39 L 64.60 126.83 L 68.25 126.17 L 71.90 132.42 L 75.55 133.68 L 79.20 135.41 L 82.85 134.36 L 86.50 135.24 L 90.15 130.45 L 93.80 132.49 L 97.45 132.24 L 101.10 138.49 L 104.75 140.03 L 108.40 143.58 L 112.05 146.04 L 115.70 154.56 L 119.35 153.47 L 123.00 152.95 L 126.65 149.26 L 130.30 145.73 L 133.95 143.25 L 137.60 147.21 L 141.25 149.30 L 144.90 154.58 L 148.55 154.64 L 152.20 156.37 L 155.85 158.00 L 159.50 156.08 L 163.15 157.13 L 166.80 155.12 L 170.45 159.14 L 174.10 159.11 L 177.75 161.31 L 181.40 164.66 L 185.05 162.59 L 188.70 165.75 L 192.35 165.82 L 196.00 166.42 L 199.65 167.56 L 203.30 173.18 L 206.95 172.97 L 210.60 167.24 L 214.25 160.85 L 217.90 165.32 L 221.55 170.61 L 225.20 174.78 L 228.85 175.87 L 232.50 180.47 L 236.15 176.40 L 239.80 175.50 L 243.45 173.68 L 247.10 176.33 L 250.75 176.51 L 254.40 170.55 L 258.05 178.43 L 261.70 183.92 L 265.35 182.92 L 269.00 177.60 L 272.65 177.59 L 276.30 174.50 L 279.95 175.88 L 283.60 183.31 L 287.25 181.36 L 290.90 180.28 L 294.55 179.98 L 298.20 187.36 L 301.85 179.90 L 305.50 180.12 L 309.15 182.23 L 312.80 183.53 L 316.45 180.58 L 320.10 178.20 L 323.75 179.37 L 327.40 177.48 L 331.05 179.11 L 334.70 180.34 L 338.35 177.16 L 342.00 182.81 L 345.65 179.38 L 349.30 176.05 L 352.95 178.82 L 356.60 187.02 L 360.25 182.37 L 363.90 183.55 L 367.55 192.90 L 371.20 198.39 L 374.85 198.44 L 378.50 195.73 L 382.15 195.32 L 385.80 194.25 L 389.45 188.16 L 393.10 184.45 L 396.75 182.13 L 400.40 185.60 L 404.05 185.14 L 407.70 180.67 L 411.35 187.70 L 415.00 194.14 L 418.65 194.77 L 422.30 194.87 L 425.95 189.18 L 429.60 189.32 L 433.25 192.57 L 436.90 192.25 L 440.55 189.38 L 444.20 187.92 L 447.85 184.74 L 451.50 188.54 L 455.15 191.94 L 458.80 188.69 L 462.45 184.93 L 466.10 185.77 L 469.75 190.66 L 473.40 187.13 L 477.05 179.41 L 480.70 181.13 L 484.35 179.02 L 488.00 177.89 L 491.65 171.24 L 495.30 178.54 L 498.95 181.15 L 502.60 186.82 L 506.25 188.07 L 509.90 188.70 L 513.55 185.07 L 517.20 182.42 L 520.85 187.32 L 524.50 190.43 L 528.15 188.02 L 531.80 188.83 L 535.45 185.69 L 539.10 182.85 L 542.75 184.23 L 546.40 190.15 L 550.05 192.33 L 553.70 192.48 L 557.35 192.35 L 561.00 194.42 L 564.65 190.17 L 568.30 194.28 L 571.95 189.89 L 575.60 191.55 L 579.25 197.95 L 582.90 191.43 L 586.55 188.97 L 590.20 182.00 L 593.85 185.40 L 597.50 191.07 L 601.15 190.33 L 604.80 192.91 L 608.45 200.76 L 612.10 199.32 L 615.75 205.30 L 619.40 209.21 L 623.05 210.81 L 626.70 212.12 L 630.35 214.31 L 634.00 215.19 L 637.65 216.19 L 641.30 224.89 L 644.95 220.52 L 648.60 227.45 L 652.25 228.11 L 655.90 230.34 L 659.55 225.10 L 663.20 226.68 L 666.85 220.73 L 670.50 221.68 L 674.15 220.42 L 677.80 216.24 L 681.45 220.00 L 685.10 225.47 L 688.75 220.30 L 692.40 216.24 L 696.05 221.86 L 699.70 218.65 L 703.35 219.58 L 707.00 220.20 L 710.65 222.12 L 714.30 221.11 L 717.95 222.28 L 721.60 220.52 L 725.25 216.39 L 728.90 217.90 L 732.55 213.09 L 736.20 212.91 L 739.85 212.20 L 743.50 215.65 L 747.15 220.50 L 750.80 219.76 L 754.45 218.62 L 758.10 220.72 L 761.75 219.08 L 765.40 221.45 L 769.05 225.45 L 772.70 233.78 L 776.35 234.62 L 780.00 228.06" class="path-3" />
<path d="M 50.00 126.04 L 53.65 121.09 L 57.30 120.79 L 60.95 122.60 L 64.60 117.73 L 68.25 111.10 L 71.90 109.08 L 75.55 107.75 L 79.20 111.84 L 82.85 114.37 L 86.50 120.09 L 90.15 120.80 L 93.80 122.08 L 97.45 121.22 L 101.10 119.38 L 104.75 120.75 L 108.40 116.74 L 112.05 116.73 L 115.70 117.43 L 119.35 116.18 L 123.00 118.10 L 126.65 119.08 L 130.30 118.15 L 133.95 121.03 L 137.60 120.46 L 141.25 116.74 L 144.90 126.70 L 148.55 123.10 L 152.20 122.66 L 155.85 123.35 L 159.50 124.39 L 163.15 127.64 L 166.80 128.28 L 170.45 123.76 L 174.10 120.76 L 177.75 121.86 L 181.40 123.35 L 185.05 120.75 L 188.70 121.49 L 192.35 116.49 L 196.00 117.50 L 199.65 114.12 L 203.30 105.02 L 206.95 104.35 L 210.60 103.28 L 214.25 109.84 L 217.90 111.24 L 221.55 106.05 L 225.20 106.92 L 228.85 108.60 L 232.50 105.85 L 236.15 108.94 L 239.80 108.66 L 243.45 113.50 L 247.10 111.26 L 250.75 113.02 L 254.40 111.57 L 258.05 109.14 L 261.70 99.65 L 265.35 95.68 L 269.00 94.14 L 272.65 94.03 L 276.30 91.44 L 279.95 95.52 L 283.60 98.65 L 287.25 95.66 L 290.90 94.11 L 294.55 93.32 L 298.20 94.67 L 301.85 97.62 L 305.50 100.85 L 309.15 98.82 L 312.80 94.24 L 316.45 100.95 L 320.10 106.55 L 323.75 108.97 L 327.40 108.17 L 331.05 110.43 L 334.70 109.78 L 338.35 106.50 L 342.00 106.09 L 345.65 108.27 L 349.30 107.49 L 352.95 109.23 L 356.60 110.09 L 360.25 107.27 L 363.90 102.64 L 367.55 101.29 L 371.20 96.44 L 374.85 103.28 L 378.50 102.53 L 382.15 107.50 L 385.80 108.17 L 389.45 111.01 L 393.10 107.72 L 396.75 105.22 L 400.40 114.92 L 404.05 111.76 L 407.70 113.74 L 411.35 116.29 L 415.00 116.39 L 418.65 115.62 L 422.30 116.63 L 425.95 110.12 L 429.60 109.42 L 433.25 104.01 L 436.90 107.27 L 440.55 104.82 L 444.20 104.10 L 447.85 105.24 L 451.50 103.79 L 455.15 106.63 L 458.80 107.96 L 462.45 113.27 L 466.10 114.42 L 469.75 118.04 L 473.40 122.92 L 477.05 123.41 L 480.70 121.43 L 484.35 119.51 L 488.00 124.62 L 491.65 124.65 L 495.30 117.60 L 498.95 117.87 L 502.60 117.69 L 506.25 115.35 L 509.90 112.29 L 513.55 116.52 L 517.20 121.38 L 520.85 122.33 L 524.50 122.53 L 528.15 120.65 L 531.80 126.88 L 535.45 125.96 L 539.10 130.58 L 542.75 130.88 L 546.40 130.90 L 550.05 133.14 L 553.70 135.70 L 557.35 139.08 L 561.00 137.39 L 564.65 144.72 L 568.30 141.96 L 571.95 148.29 L 575.60 146.68 L 579.25 146.44 L 582.90 145.74 L 586.55 140.35 L 590.20 135.94 L 593.85 133.08 L 597.50 132.57 L 601.15 135.58 L 604.80 131.42 L 608.45 133.20 L 612.10 137.59 L 615.75 137.64 L 619.40 138.78 L 623.05 142.98 L 626.70 143.08 L 630.35 148.54 L 634.00 149.70 L 637.65 145.37 L 641.30 152.38 L 644.95 147.07 L 648.60 142.17 L 652.25 147.32 L 655.90 153.62 L 659.55 150.94 L 663.20 159.44 L 666.85 160.20 L 670.50 149.01 L 674.15 150.76 L 677.80 152.42 L 681.45 155.26 L 685.10 158.03 L 688.75 159.94 L 692.40 159.15 L 696.05 155.64 L 699.70 155.51 L 703.35 153.32 L 707.00 155.63 L 710.65 156.16 L 714.30 154.95 L 717.95 159.80 L 721.60 160.15 L 725.25 163.90 L 728.90 159.54 L 732.55 156.28 L 736.20 150.46 L 739.85 149.88 L 743.50 152.29 L 747.15 148.32 L 750.80 151.90 L 754.45 153.83 L 758.10 164.59 L 761.75 164.12 L 765.40 161.68 L 769.05 164.14 L 772.70 163.74 L 776.35 153.07 L 780.00 152.89" class="path-4" />
<line x1="50" y1="126.0" x2="780" y2="126.0" stroke="#4b5563" stroke-width="0.8" stroke-dasharray="6 3" />
</svg>