<svg xmlns="http://www.w3.org/2000/svg" viewBox="0 0 800 300" width="800" height="300">
<style>
.axis-line { stroke: #6b7280; stroke-width: 0.5; }
.axis-text { font-family: monospace; font-size: 11px; fill: #9ca3af; }
.title-text { font-family: monospace; font-size: 14px; fill: #d1d5db; font-weight: bold; }
.grid-line { stroke: #374151; stroke-width: 0.3; stroke-dasharray: 4 2; }
.path-0 { fill: none; stroke: #3b82f6; stroke-width: 2; stroke-linecap: round; opacity: 0.85; animation: draw-0 8s ease-in-out 0.0s infinite; stroke-dasharray: 1003; stroke-dashoffset: 1003;}
@keyframes draw-0 { 0% { stroke-dashoffset: 1003; } 38% { stroke-dashoffset: 0; } 62% { stroke-dashoffset: 0; } 100% { stroke-dashoffset: 1003; }}
.path-1 { fill: none; stroke: #ef4444; stroke-width: 2; stroke-linecap: round; opacity: 0.85; animation: draw-1 8s ease-in-out 0.4s infinite; stroke-dasharray: 989; stroke-dashoffset: 989;}
@keyframes draw-1 { 0% { stroke-dashoffset: 989; } 38% { stroke-dashoffset: 0; } 62% { stroke-dashoffset: 0; } 100% { stroke-dashoffset: 989; }}
.path-2 { fill: none; stroke: #22c55e; stroke-width: 2; stroke-linecap: round; opacity: 0.85; animation: draw-2 8s ease-in-out 0.8s infinite; stroke-dasharray: 1012; stroke-dashoffset: 1012;}
@keyframes draw-2 { 0% { stroke-dashoffset: 1012; } 38% { stroke-dashoffset: 0; } 62% { stroke-dashoffset: 0; } 100% { stroke-dashoffset: 1012; }}
.path-3 { fill: none; stroke: #f59e0b; stroke-width: 2; stroke-linecap: round; opacity: 0.85; animation: draw-3 8s ease-in-out 1.2000000000000002s infinite; stroke-dasharray: 967; stroke-dashoffset: 967;}
@keyframes draw-3 { 0% { stroke-dashoffset: 967; } 38% { stroke-dashoffset: 0; } 62% { stroke-dashoffset: 0; } 100% { stroke-dashoffset: 967; }}
.path-4 { fill: none; stroke: #a855f7; stroke-width: 2; stroke-linecap: round; opacity: 0.85; animation: draw-4 8s ease-in-out 1.6s infinite; stroke-dasharray: 994; stroke-dashoffset: 994;}
@keyframes draw-4 { 0% { stroke-dashoffset: 994; } 38% { stroke-dashoffset: 0; } 62% { stroke-dashoffset: 0; } 100% { stroke-dashoffset: 994; }}
</style>
<rect width="800" height="300" rx="8" fill="#0d1117" />
<line x1="50" y1="260.0" x2="780" y2="260.0" class="grid-line" />
<text x="44" y="264.0" text-anchor="end" class="axis-text">-1.5</text>
<line x1="50" y1="216.0" x2="780" y2="216.0" class="grid-line" />
<text x="44" y="220.0" text-anchor="end" class="axis-text">-0.7</text>
<line x1="50" y1="172.0" x2="780" y2="172.0" class="grid-line" />
<text x="44" y="176.0" text-anchor="end" class="axis-text">0.2</text>
<line x1="50" y1="128.0" x2="780" y2="128.0" class="grid-line" />
<text x="44" y="132.0" text-anchor="end" class="axis-text">1.1</text>
<line x1="50" y1="84.0" x2="780" y2="84.0" class="grid-line" />
<text x="44" y="88.0" text-anchor="end" class="axis-text">2.0</text>
<line x1="50" y1="40.0" x2="780" y2="40.0" class="grid-line" />
<text x="44" y="44.0" text-anchor="end" class="axis-text">2.8</text>
<line x1="50.0" y1="40" x2="50.0" y2="260" class="grid-line" />
<line x1="196.0" y1="40" x2="196.0" y2="260" class="grid-line" />
<line x1="342.0" y1="40" x2="342.0" y2="260" class="grid-line" />
<line x1="488.0" y1="40" x2="488.0" y2="260" class="grid-line" />
<line x1="634.0" y1="40" x2="634.0" y2="260" class="grid-line" />
<line x1="780.0" y1="40" x2="780.0" y2="260" class="grid-line" />
<line x1="50" y1="260" x2="780" y2="260" class="axis-line" />
<line x1="50" y1="40" x2="50" y2="260" class="axis-line" />
<text x="400.0" y="295" text-anchor="middle" class="axis-text">t</text>
<text x="12" y="150.0" text-anchor="middle" class="axis-text" transform="rotate(-90 12 150.0)">W(t)</text>
<text x="400.0" y="22" text-anchor="middle" class="title-text">Brownian Motion</text>
<path d="M 50.00 182.29 L 53.65 181.47 L 57.30 179.40 L 60.95 178.44 L 64.60 172.32 L 68.25 174.95 L 71.90 175.79 L 75.55 173.59 L 79.20 176.51 L 82.85 185.33 L 86.50 188.28 L 90.15 184.55 L 93.80 189.20 L 97.45 184.39 L 101.10 186.31 L 104.75 179.24 L 108.40 182.88 L 112.05 183.96 L 115.70 178.44 L 119.35 169.20 L 123.00 172.14 L 126.65 170.16 L 130.30 170.29 L 133.95 171.17 L 137.60 172.55 L 141.25 178.84 L 144.90 177.13 L 148.55 181.35 L 152.20 187.58 L 155.85 184.79 L 159.50 183.85 L 163.15 189.26 L 166.80 184.87 L 170.45 184.56 L 174.10 184.74 L 177.75 184.55 L 181.40 189.09 L 185.05 188.56 L 188.70 182.54 L 192.35 183.86 L 196.00 186.14 L 199.65 192.52 L 203.30 194.31 L 206.95 196.43 L 210.60 195.49 L 214.25 195.02 L 217.90 199.59 L 221.55 190.83 L 225.20 189.19 L 228.85 181.63 L 232.50 177.96 L 236.15 180.17 L 239.80 178.45 L 243.45 178.79 L 247.10 175.07 L 250.75 171.13 L 254.40 177.67 L 258.05 174.23 L 261.70 171.58 L 265.35 171.26 L 269.00 169.99 L 272.65 166.77 L 276.30 162.35 L 279.95 160.31 L 283.60 157.44 L 287.25 158.06 L 290.90 154.12 L 294.55 154.35 L 298.20 157.32 L 301.85 157.21 L 305.50 156.55 L 309.15 159.22 L 312.80 160.69 L 316.45 160.60 L 320.10 159.52 L 323.75 154.80 L 327.40 152.75 L 331.05 149.34 L 334.70 152.11 L 338.35 147.91 L 342.00 151.25 L 345.65 143.65 L 349.30 141.95 L 352.95 142.61 L 356.60 143.87 L 360.25 137.41 L 363.90 143.17 L 367.55 147.70 L 371.20 151.45 L 374.85 159.95 L 378.50 164.59 L 382.15 160.04 L 385.80 160.30 L 389.45 165.07 L 393.10 163.94 L 396.75 165.98 L 400.40 161.03 L 404.05 159.55 L 407.70 161.49 L 411.35 157.67 L 415.00 154.95 L 418.65 152.53 L 422.30 156.03 L 425.95 151.80 L 429.60 155.76 L 433.25 152.39 L 436.90 155.94 L 440.55 156.67 L 444.20 159.71 L 447.85 160.58 L 451.50 165.49 L 455.15 173.10 L 458.80 173.86 L 462.45 169.15 L 466.10 174.53 L 469.75 172.53 L 473.40 178.14 L 477.05 173.06 L 480.70 172.22 L 484.35 172.80 L 488.00 166.15 L 491.65 162.88 L 495.30 162.30 L 498.95 159.39 L 502.60 161.26 L 506.25 161.49 L 509.90 162.77 L 513.55 164.68 L 517.20 165.42 L 520.85 167.47 L 524.50 163.47 L 528.15 161.55 L 531.80 164.81 L 535.45 169.29 L 539.10 165.19 L 542.75 163.99 L 546.40 166.19 L 550.05 166.69 L 553.70 166.55 L 557.35 166.75 L 561.00 163.09 L 564.65 160.71 L 568.30 159.57 L 571.95 160.50 L 575.60 155.88 L 579.25 153.94 L 582.90 157.65 L 586.55 159.10 L 590.20 160.71 L 593.85 159.25 L 597.50 162.09 L 601.15 161.44 L 604.80 161.14 L 608.45 153.29 L 612.10 150.95 L 615.75 154.36 L 619.40 152.93 L 623.05 152.54 L 626.70 154.11 L 630.35 161.76 L 634.00 165.96 L 637.65 169.02 L 641.30 165.83 L 644.95 168.04 L 648.60 167.46 L 652.25 162.44 L 655.90 167.67 L 659.55 171.27 L 663.20 167.68 L 666.85 162.99 L 670.50 161.59 L 674.15 162.73 L 677.80 162.14 L 681.45 159.44 L 685.10 160.20 L 688.75 160.41 L 692.40 165.91 L 696.05 165.88 L 699.70 161.08 L 703.35 162.70 L 707.00 159.83 L 710.65 159.05 L 714.30 164.23 L 717.95 164.57 L 721.60 170.14 L 725.25 163.32 L 728.90 164.06 L 732.55 165.26 L 736.20 167.18 L 739.85 168.70 L 743.50 171.11 L 747.15 177.47 L 750.80 172.86 L 754.45 176.45 L 758.10 176.42 L 761.75 172.08 L 765.40 173.96 L 769.05 166.07 L 772.70 163.93 L 776.35 167.67 L 780.00 172.67" class="path-0" />
<path d="M 50.00 182.29 L 53.65 179.59 L 57.30 177.42 L 60.95 172.64 L 64.60 173.22 L 68.25 176.21 L 71.90 174.32 L 75.55 172.44 L 79.20 171.63 L 82.85 167.00 L 86.50 164.57 L 90.15 156.75 L 93.80 152.58 L 97.45 148.82 L 101.10 151.34 L 104.75 149.34 L 108.40 150.69 L 112.05 156.16 L 115.70 159.47 L 119.35 159.47 L 123.00 153.09 L 126.65 150.08 L 130.30 154.34 L 133.95 156.58 L 137.60 160.60 L 141.25 155.29 L 144.90 158.34 L 148.55 158.28 L 152.20 154.79 L 155.85 152.55 L 159.50 155.64 L 163.15 149.12 L 166.80 144.42 L 170.45 140.46 L 174.10 135.27 L 177.75 135.80 L 181.40 134.13 L 185.05 133.02 L 188.70 135.73 L 192.35 139.41 L 196.00 141.25 L 199.65 143.27 L 203.30 143.06 L 206.95 145.53 L 210.60 145.13 L 214.25 141.71 L 217.90 139.51 L 221.55 137.80 L 225.20 143.54 L 228.85 146.96 L 232.50 143.61 L 236.15 144.93 L 239.80 144.26 L 243.45 145.39 L 247.10 148.02 L 250.75 149.17 L 254.40 151.78 L 258.05 147.90 L 261.70 147.96 L 265.35 146.06 L 269.00 150.33 L 272.65 155.44 L 276.30 153.38 L 279.95 152.76 L 283.60 145.11 L 287.25 147.43 L 290.90 153.08 L 294.55 153.54 L 298.20 151.22 L 301.85 153.64 L 305.50 153.55 L 309.15 152.24 L 312.80 152.82 L 316.45 161.53 L 320.10 163.71 L 323.75 161.39 L 327.40 162.63 L 331.05 164.34 L 334.70 161.11 L 338.35 168.01 L 342.00 170.40 L 345.65 162.85 L 349.30 164.76 L 352.95 162.60 L 356.60 163.66 L 360.25 166.62 L 363.90 160.31 L 367.55 158.57 L 371.20 157.68 L 374.85 162.42 L 378.50 166.82 L 382.15 167.84 L 385.80 161.66 L 389.45 162.36 L 393.10 163.69 L 396.75 166.39 L 400.40 168.76 L 404.05 170.41 L 407.70 168.04 L 411.35 169.16 L 415.00 163.97 L 418.65 160.69 L 422.30 167.26 L 425.95 164.88 L 429.60 162.95 L 433.25 167.44 L 436.90 162.72 L 440.55 167.29 L 444.20 170.77 L 447.85 172.05 L 451.50 166.67 L 455.15 166.85 L 458.80 163.18 L 462.45 160.41 L 466.10 159.58 L 469.75 159.65 L 473.40 160.83 L 477.05 164.05 L 480.70 169.92 L 484.35 166.31 L 488.00 165.47 L 491.65 163.21 L 495.30 167.57 L 498.95 163.48 L 502.60 163.43 L 506.25 161.56 L 509.90 160.83 L 513.55 164.46 L 517.20 164.39 L 520.85 169.65 L 524.50 170.43 L 528.15 168.45 L 531.80 167.99 L 535.45 164.84 L 539.10 168.46 L 542.75 167.58 L 546.40 167.88 L 550.05 166.13 L 553.70 164.55 L 557.35 171.44 L 561.00 171.26 L 564.65 173.08 L 568.30 176.30 L 571.95 177.40 L 575.60 175.27 L 579.25 172.83 L 582.90 177.31 L 586.55 177.77 L 590.20 177.03 L 593.85 180.91 L 597.50 180.81 L 601.15 183.97 L 604.80 178.14 L 608.45 186.45 L 612.10 191.28 L 615.75 195.00 L 619.40 194.40 L 623.05 194.52 L 626.70 192.82 L 630.35 200.60 L 634.00 193.72 L 637.65 190.97 L 641.30 192.88 L 644.95 184.05 L 648.60 187.53 L 652.25 182.72 L 655.90 185.74 L 659.55 186.92 L 663.20 190.14 L 666.85 195.59 L 670.50 193.82 L 674.15 197.16 L 677.80 192.43 L 681.45 198.20 L 685.10 195.59 L 688.75 194.14 L 692.40 196.27 L 696.05 197.69 L 699.70 192.85 L 703.35 198.20 L 707.00 195.79 L 710.65 198.85 L 714.30 199.02 L 717.95 199.08 L 721.60 198.69 L 725.25 193.07 L 728.90 190.22 L 732.55 184.45 L 736.20 187.74 L 739.85 188.04 L 743.50 188.00 L 747.15 188.19 L 750.80 185.88 L 754.45 183.57 L 758.10 189.18 L 761.75 186.70 L 765.40 181.32 L 769.05 177.45 L 772.70 176.90 L 776.35 176.40 L 780.00 181.88" class="path-1" />
<path d="M 50.00 182.29 L 53.65 180.13 L 57.30 185.74 L 60.95 189.98 L 64.60 187.13 L 68.25 193.83 L 71.90 195.39 L 75.55 191.39 L 79.20 193.46 L 82.85 193.33 L 86.50 192.93 L 90.15 185.25 L 93.80 184.77 L 97.45 189.60 L 101.10 192.05 L 104.75 191.66 L 108.40 183.26 L 112.05 179.77 L 115.70 182.49 L 119.35 182.75 L 123.00 183.35 L 126.65 183.34 L 130.30 187.38 L 133.95 185.43 L 137.60 184.58 L 141.25 185.21 L 144.90 184.31 L 148.55 187.92 L 152.20 187.03 L 155.85 187.66 L 159.50 191.11 L 163.15 190.45 L 166.80 196.22 L 170.45 200.78 L 174.10 198.87 L 177.75 196.39 L 181.40 201.78 L 185.05 203.49 L 188.70 201.77 L 192.35 198.75 L 196.00 203.41 L 199.65 204.60 L 203.30 202.61 L 206.95 207.03 L 210.60 203.14 L 214.25 204.06 L 217.90 204.33 L 221.55 212.78 L 225.20 210.12 L 228.85 209.93 L 232.50 209.18 L 236.15 204.93 L 239.80 207.71 L 243.45 206.62 L 247.10 208.66 L 250.75 209.19 L 254.40 208.59 L 258.05 203.43 L 261.70 198.54 L 265.35 200.81 L 269.00 197.76 L 272.65 194.78 L 276.30 199.72 L 279.95 199.51 L 283.60 196.72 L 287.25 197.20 L 290.90 197.32 L 294.55 196.59 L 298.20 198.14 L 301.85 192.13 L 305.50 188.31 L 309.15 179.38 L 312.80 177.07 L 316.45 174.38 L 320.10 171.93 L 323.75 176.62 L 327.40 166.37 L 331.05 161.64 L 334.70 162.01 L 338.35 156.12 L 342.00 156.74 L 345.65 155.44 L 349.30 152.67 L 352.95 157.70 L 356.60 154.84 L 360.25 155.22 L 363.90 160.93 L 367.55 156.54 L 371.20 156.47 L 374.85 148.30 L 378.50 148.51 L 382.15 143.86 L 385.80 144.88 L 389.45 148.53 L 393.10 147.26 L 396.75 148.56 L 400.40 151.52 L 404.05 156.43 L 407.70 160.10 L 411.35 162.87 L 415.00 161.69 L 418.65 162.73 L 422.30 156.47 L 425.95 157.09 L 429.60 160.01 L 433.25 161.41 L 436.90 161.96 L 440.55 160.51 L 444.20 155.98 L 447.85 155.01 L 451.50 151.68 L 455.15 149.70 L 458.80 153.56 L 462.45 151.12 L 466.10 148.72 L 469.75 148.01 L 473.40 159.08 L 477.05 156.48 L 480.70 163.29 L 484.35 164.16 L 488.00 159.36 L 491.65 155.94 L 495.30 153.75 L 498.95 150.96 L 502.60 154.39 L 506.25 152.48 L 509.90 152.64 L 513.55 153.06 L 517.20 145.51 L 520.85 147.66 L 524.50 146.67 L 528.15 142.25 L 531.80 135.82 L 535.45 137.60 L 539.10 135.49 L 542.75 138.07 L 546.40 136.54 L 550.05 138.68 L 553.70 132.93 L 557.35 128.92 L 561.00 130.95 L 564.65 134.11 L 568.30 130.44 L 571.95 132.40 L 575.60 133.38 L 579.25 135.40 L 582.90 139.45 L 586.55 137.23 L 590.20 132.62 L 593.85 136.22 L 597.50 134.59 L 601.15 140.72 L 604.80 137.24 L 608.45 137.31 L 612.10 128.19 L 615.75 130.83 L 619.40 135.25 L 623.05 137.33 L 626.70 141.90 L 630.35 142.76 L 634.00 148.34 L 637.65 150.30 L 641.30 154.70 L 644.95 155.62 L 648.60 162.17 L 652.25 160.74 L 655.90 168.45 L 659.55 166.73 L 663.20 168.69 L 666.85 171.17 L 670.50 167.71 L 674.15 162.90 L 677.80 158.06 L 681.45 157.41 L 685.10 153.03 L 688.75 155.09 L 692.40 149.76 L 696.05 144.81 L 699.70 147.30 L 703.35 136.84 L 707.00 144.95 L 710.65 142.77 L 714.30 142.68 L 717.95 140.61 L 721.60 141.87 L 725.25 143.56 L 728.90 144.05 L 732.55 142.94 L 736.20 136.23 L 739.85 144.10 L 743.50 143.98 L 747.15 148.57 L 750.80 143.13 L 754.45 144.22 L 758.10 142.23 L 761.75 142.86 L 765.40 146.51 L 769.05 142.96 L 772.70 144.74 L 776.35 144.21 L 780.00 144.81" class="path-2" />
<path d="M 50.00 182.29 L 53.65 184.66 L 57.30 187.29 L 60.95 190.90 L 64.60 187.41 L 68.25 190.03 L 71.90 190.77 L 75.55 189.23 L 79.20 189.54 L 82.85 192.13 L 86.50 193.29 L 90.15 185.93 L 93.80 187.16 L 97.45 183.98 L 101.10 187.87 L 104.75 193.05 L 108.40 192.99 L 112.05 191.76 L 115.70 190.22 L 119.35 190.09 L 123.00 192.00 L 126.65 202.07 L 130.30 197.09 L 133.95 199.99 L 137.60 199.90 L 141.25 194.25 L 144.90 193.02 L 148.55 201.80 L 152.20 201.45 L 155.85 202.54 L 159.50 208.65 L 163.15 205.94 L 166.80 205.19 L 170.45 201.26 L 174.10 197.71 L 177.75 197.96 L 181.40 200.74 L 185.05 199.08 L 188.70 201.19 L 192.35 200.17 L 196.00 194.61 L 199.65 195.49 L 203.30 199.49 L 206.95 194.05 L 210.60 196.38 L 214.25 194.68 L 217.90 192.86 L 221.55 193.50 L 225.20 191.08 L 228.85 190.81 L 232.50 191.21 L 236.15 194.25 L 239.80 193.93 L 243.45 188.78 L 247.10 190.14 L 250.75 191.70 L 254.40 188.52 L 258.05 186.83 L 261.70 184.64 L 265.35 187.07 L 269.00 192.38 L 272.65 192.00 L 276.30 192.38 L 279.95 192.18 L 283.60 192.88 L 287.25 190.42 L 290.90 190.06 L 294.55 190.48 L 298.20 188.80 L 301.85 182.47 L 305.50 185.27 L 309.15 188.79 L 312.80 187.83 L 316.45 183.89 L 320.10 181.76 L 323.75 185.66 L 327.40 188.47 L 331.05 187.75 L 334.70 187.94 L 338.35 185.98 L 342.00 185.78 L 345.65 182.19 L 349.30 180.26 L 352.95 188.62 L 356.60 191.24 L 360.25 189.46 L 363.90 192.31 L 367.55 192.93 L 371.20 198.67 L 374.85 198.42 L 378.50 196.47 L 382.15 187.30 L 385.80 186.00 L 389.45 182.68 L 393.10 181.55 L 396.75 183.03 L 400.40 187.13 L 404.05 187.82 L 407.70 187.40 L 411.35 184.72 L 415.00 185.46 L 418.65 186.06 L 422.30 186.92 L 425.95 187.75 L 429.60 193.22 L 433.25 194.85 L 436.90 197.51 L 440.55 193.29 L 444.20 196.67 L 447.85 197.07 L 451.50 197.18 L 455.15 198.85 L 458.80 206.43 L 462.45 212.38 L 466.10 217.44 L 469.75 220.85 L 473.40 220.74 L 477.05 224.03 L 480.70 227.61 L 484.35 221.82 L 488.00 214.14 L 491.65 217.33 L 495.30 220.88 L 498.95 226.43 L 502.60 226.29 L 506.25 222.53 L 509.90 224.77 L 513.55 223.37 L 517.20 225.66 L 520.85 230.40 L 524.50 234.62 L 528.15 232.46 L 531.80 228.71 L 535.45 225.90 L 539.10 224.04 L 542.75 227.46 L 546.40 228.27 L 550.05 220.70 L 553.70 220.78 L 557.35 219.86 L 561.00 224.13 L 564.65 225.08 L 568.30 225.03 L 571.95 226.28 L 575.60 225.38 L 579.25 226.22 L 582.90 225.20 L 586.55 223.94 L 590.20 219.63 L 593.85 212.34 L 597.50 209.29 L 601.15 204.97 L 604.80 210.19 L 608.45 211.47 L 612.10 209.51 L 615.75 200.45 L 619.40 198.37 L 623.05 196.55 L 626.70 197.89 L 630.35 192.42 L 634.00 192.40 L 637.65 190.15 L 641.30 188.80 L 644.95 186.21 L 648.60 179.17 L 652.25 176.92 L 655.90 173.72 L 659.55 176.10 L 663.20 177.12 L 666.85 183.13 L 670.50 189.12 L 674.15 186.57 L 677.80 187.38 L 681.45 186.91 L 685.10 189.31 L 688.75 186.22 L 692.40 188.02 L 696.05 190.80 L 699.70 188.68 L 703.35 189.01 L 707.00 188.23 L 710.65 187.71 L 714.30 194.03 L 717.95 194.27 L 721.60 190.24 L 725.25 193.34 L 728.90 198.39 L 732.55 202.66 L 736.20 203.69 L 739.85 202.72 L 743.50 195.70 L 747.15 191.98 L 750.80 191.37 L 754.45 188.37 L 758.10 188.20 L 761.75 186.18 L 765.40 185.02 L 769.05 182.64 L 772.70 179.23 L 776.35 177.06 L 780.00 175.57" class="path-3" />
<path d="M 50.00 182.29 L 53.65 183.20 L 57.30 180.08 L 60.95 180.84 L 64.60 180.42 L 68.25 178.06 L 71.90 176.83 L 75.55 173.17 L 79.20 175.75 L 82.85 173.58 L 86.50 177.99 L 90.15 180.75 L 93.80 178.35 L 97.45 173.89 L 101.10 170.99 L 104.75 168.53 L 108.40 168.40 L 112.05 166.11 L 115.70 158.48 L 119.35 151.46 L 123.00 148.28 L 126.65 146.16 L 130.30 146.65 L 133.95 150.53 L 137.60 152.08 L 141.25 147.85 L 144.90 148.09 L 148.55 150.19 L 152.20 148.46 L 155.85 149.19 L 159.50 144.98 L 163.15 143.74 L 166.80 142.41 L 170.45 139.09 L 174.10 137.80 L 177.75 136.17 L 181.40 133.70 L 185.05 131.91 L 188.70 129.54 L 192.35 136.12 L 196.00 134.42 L 199.65 135.61 L 203.30 134.73 L 206.95 138.02 L 210.60 136.65 L 214.25 136.90 L 217.90 136.15 L 221.55 133.61 L 225.20 128.72 L 228.85 133.40 L 232.50 133.99 L 236.15 131.65 L 239.80 123.35 L 243.45 117.57 L 247.10 110.27 L 250.75 113.38 L 254.40 113.50 L 258.05 118.09 L 261.70 116.11 L 265.35 120.42 L 269.00 113.47 L 272.65 111.95 L 276.30 112.20 L 279.95 111.11 L 283.60 103.55 L 287.25 101.59 L 290.90 96.64 L 294.55 97.36 L 298.20 96.78 L 301.85 95.60 L 305.50 94.41 L 309.15 98.85 L 312.80 101.88 L 316.45 94.40 L 320.10 91.72 L 323.75 95.65 L 327.40 90.71 L 331.05 89.49 L 334.70 86.49 L 338.35 85.79 L 342.00 86.57 L 345.65 87.70 L 349.30 80.70 L 352.95 83.89 L 356.60 83.35 L 360.25 87.29 L 363.90 91.26 L 367.55 89.99 L 371.20 91.90 L 374.85 93.32 L 378.50 94.02 L 382.15 85.39 L 385.80 87.99 L 389.45 86.92 L 393.10 83.76 L 396.75 77.71 L 400.40 76.65 L 404.05 77.17 L 407.70 74.27 L 411.35 73.86 L 415.00 69.77 L 418.65 75.80 L 422.30 81.06 L 425.95 80.05 L 429.60 75.57 L 433.25 77.65 L 436.90 77.82 L 440.55 79.83 L 444.20 83.86 L 447.85 87.69 L 451.50 90.99 L 455.15 95.78 L 458.80 93.91 L 462.45 89.44 L 466.10 95.10 L 469.75 90.45 L 473.40 92.46 L 477.05 89.41 L 480.70 90.96 L 484.35 88.15 L 488.00 83.36 L 491.65 84.38 L 495.30 78.67 L 498.95 75.93 L 502.60 71.21 L 506.25 71.31 L 509.90 75.42 L 513.55 77.16 L 517.20 81.61 L 520.85 75.85 L 524.50 79.50 L 528.15 77.93 L 531.80 77.82 L 535.45 78.16 L 539.10 80.98 L 542.75 83.83 L 546.40 85.87 L 550.05 73.19 L 553.70 73.39 L 557.35 77.01 L 561.00 74.20 L 564.65 74.96 L 568.30 71.68 L 571.95 76.94 L 575.60 74.84 L 579.25 75.87 L 582.90 75.80 L 586.55 74.04 L 590.20 65.38 L 593.85 66.91 L 597.50 71.64 L 601.15 65.63 L 604.80 66.99 L 608.45 68.53 L 612.10 76.44 L 615.75 74.92 L 619.40 73.33 L 623.05 74.89 L 626.70 75.54 L 630.35 78.57 L 634.00 78.68 L 637.65 77.54 L 641.30 78.69 L 644.95 80.05 L 648.60 79.25 L 652.25 79.59 L 655.90 83.81 L 659.55 86.88 L 663.20 86.48 L 666.85 86.65 L 670.50 84.82 L 674.15 83.45 L 677.80 88.09 L 681.45 85.85 L 685.10 91.37 L 688.75 97.89 L 692.40 94.30 L 696.05 92.65 L 699.70 91.35 L 703.35 95.36 L 707.00 93.60 L 710.65 102.05 L 714.30 101.01 L 717.95 101.01 L 721.60 99.75 L 725.25 97.97 L 728.90 93.58 L 732.55 96.22 L 736.20 94.95 L 739.85 100.30 L 743.50 96.77 L 747.15 99.78 L 750.80 107.32 L 754.45 106.53 L 758.10 99.53 L 761.75 90.61 L 765.40 90.28 L 769.05 84.77 L 772.70 84.77 L 776.35 85.05 L 780.00 83.01" class="path-4" />
<line x1="50" y1="182.3" x2="780" y2="182.3" stroke="#4b5563" stroke-width="0.8" stroke-dasharray="6 3" />
</svg>